<?xml version="1.0" encoding="UTF-8"?>
<svg width="32px" height="32px" viewBox="0 0 32 32" version="1.1" xmlns="http://www.w3.org/2000/svg" xmlns:xlink="http://www.w3.org/1999/xlink">
    <title>ibmimsdb-plain</title>
    <g id="ibmimsdb-plain" stroke="none" stroke-width="1" fill="none" fill-rule="evenodd">
        <g id="Group" fill="#000000">
            <path d="M30,0 C31.1045695,-2.02906125e-16 32,0.8954305 32,2 L32,16 L0,16 L0,2 C-1.3527075e-16,0.8954305 0.8954305,2.02906125e-16 2,0 L30,0 Z M28,12.4591454 L24.6343751,12.4591454 L24.6343751,13.1538462 L28,13.1538462 L28,12.4591454 Z M20.6621874,12.4591454 L17.3331249,12.4591454 L17.3331249,13.1538462 L20.6621874,13.1538462 L20.6621874,12.4591454 Z M8.70812488,12.4591454 L4.03656232,12.4591454 L4.03656232,13.1538462 L8.70812488,13.1538462 L8.70812488,12.4591454 Z M22.9243751,12.4591454 L22.4115626,12.4591454 L22.6459377,13.1518778 L22.68625,13.1528622 L22.9243751,12.4591454 Z M15.9906249,12.4591454 L9.33343768,12.4591454 L9.33343768,13.1528622 L14.41,13.1528622 C15.3106298,13.1528622 15.9906249,12.4591454 15.9906249,12.4591454 Z M28,11.1071361 L24.6343751,11.1071361 L24.6343751,11.8028206 L28,11.8028206 L28,11.1071361 Z M23.3696874,11.1071361 L21.9493749,11.1071361 L22.1931249,11.8028206 L23.1409374,11.8028206 L23.3696874,11.1071361 Z M20.6621874,11.1071361 L17.3331249,11.1071361 L17.3331249,11.8028206 L20.6621874,11.8028206 L20.6621874,11.1071361 Z M16.7631251,11.1071361 L9.33343768,11.1071361 L9.33343768,11.8028206 L16.525,11.8028206 C16.67635,11.6435237 16.7631251,11.1071361 16.7631251,11.1071361 Z M8.70812488,11.1071361 L4.03656232,11.1071361 L4.03656232,11.8028206 L8.70812488,11.8028206 L8.70812488,11.1071361 Z M26.6575,9.75611082 L24.6343751,9.75611082 L24.6343751,10.4508111 L26.6575,10.4508111 L26.6575,9.75611082 Z M23.8281249,9.75611082 L21.4890623,9.75611082 L21.72625,10.4508111 L23.5890623,10.4508111 L23.8281249,9.75611082 Z M20.6621874,9.75611082 L18.6390626,9.75611082 L18.6390626,10.4508111 L20.6621874,10.4508111 L20.6621874,9.75611082 Z M16.69,9.75611082 L14.6668751,9.75611082 L14.6668751,10.4508111 L16.8184374,10.4508111 C16.8184374,10.1229604 16.69,9.75611082 16.69,9.75611082 Z M12.6990623,9.75611082 L10.6759377,9.75611082 L10.6759377,10.4508111 L12.6990623,10.4508111 L12.6990623,9.75611082 Z M7.36562488,9.75611082 L5.3424999,9.75611082 L5.3424999,10.4508111 L7.36562488,10.4508111 L7.36562488,9.75611082 Z M15.8434377,8.40508548 L10.6759377,8.40508548 L10.6759377,9.09978575 L16.4134374,9.09978575 C16.2756777,8.76264556 15.8434377,8.40508548 15.8434377,8.40508548 Z M7.36562488,8.40508548 L5.3424999,8.40508548 L5.3424999,9.09978575 L7.36562488,9.09978575 L7.36562488,8.40508548 Z M20.6621874,8.40508548 L18.6390626,8.40508548 L18.6390626,9.09978575 L20.6621874,9.09978575 L20.6621874,8.40508548 Z M24.2856251,8.40508548 L21.0296874,8.40508548 L21.2743751,9.09978575 L24.0531251,9.09978575 L24.2856251,8.40508548 Z M26.6575,8.40508548 L24.6343751,8.40508548 L24.6343751,9.09978575 L26.6575,9.09978575 L26.6575,8.40508548 Z M22.4556251,7.05406015 L18.6390626,7.05406015 L18.6390626,7.74876042 L20.6621874,7.74876042 L20.6621874,7.36205042 L20.7906249,7.74876042 L24.4965626,7.74876042 L24.6343751,7.36205042 L24.6343751,7.74876042 L26.6575,7.74876042 L26.6575,7.05406015 L22.8596874,7.05406015 L22.6581249,7.64248899 L22.4556251,7.05406015 Z M16.4134374,7.05406015 L10.6759377,7.05406015 L10.6759377,7.74876042 L15.8434377,7.74876042 C15.8434379,7.74876042 16.2757074,7.39230254 16.4134374,7.05406015 Z M7.36562488,7.05406015 L5.3424999,7.05406015 L5.3424999,7.74876042 L7.36562488,7.74876042 L7.36562488,7.05406015 Z M26.6575,5.70205066 L23.2928126,5.70205066 L23.0528126,6.39773508 L26.6575,6.39773508 L26.6575,5.70205066 Z M21.9868751,5.70205066 L18.6390626,5.70205066 L18.6390626,6.39773508 L22.2259377,6.39773508 L21.9868751,5.70205066 Z M16.8184374,5.70205066 L14.6668751,5.70205066 L14.6668751,6.39773508 L16.69,6.39773508 C16.6900002,6.39773508 16.8184374,6.03034304 16.8184374,5.70205066 Z M12.6990623,5.70205066 L10.6759377,5.70205066 L10.6759377,6.39773508 L12.6990623,6.39773508 L12.6990623,5.70205066 Z M7.36562488,5.70205066 L5.3424999,5.70205066 L5.3424999,6.39773508 L7.36562488,6.39773508 L7.36562488,5.70205066 Z M27.9634374,4.35200937 L23.7334374,4.35200937 L23.5121874,5.0457259 L27.9634374,5.0457259 L27.9634374,4.35200937 Z M21.5443749,4.35200937 L17.2965626,4.35200937 L17.2965626,5.0457259 L21.7656251,5.0457259 L21.5443749,4.35200937 Z M16.525,4.35200937 L9.33343768,4.35200937 L9.33343768,5.0457259 L16.7631251,5.0457259 C16.7631251,5.0457259 16.67635,4.51105441 16.525,4.35200937 Z M8.67156256,4.35102533 L4,4.35102533 L4,5.0457259 L8.67156256,5.0457259 L8.67156256,4.35102533 Z M27.9634374,3 L24.2115626,3 L23.9725,3.69470077 L27.9634374,3.69470077 L27.9634374,3 Z M21.085,3 L17.2965626,3 L17.2965626,3.69470077 L21.3240626,3.69470077 L21.085,3 Z M14.41,3 L9.33343768,3 L9.33343768,3.69470077 L15.9906249,3.69470077 C15.9906249,3.69470077 15.31063,3 14.41,3 Z M8.67156256,3 L4,3 L4,3.69470077 L8.67156256,3.69470077 L8.67156256,3 Z" id="Combined-Shape"></path>
            <g id="IMSDB" transform="translate(2.559766, 21.117188)" fill-rule="nonzero">
                <polygon id="Path" points="0.107421875 0.14453125 0.892578125 0.14453125 0.892578125 5.8828125 0.107421875 5.8828125"></polygon>
                <path d="M2.71476561,0.14453125 L3.82804686,0.14453125 L5.47648436,4.99609375 L7.11320311,0.14453125 L8.21476561,0.14453125 L8.21476561,5.8828125 L7.47648436,5.8828125 L7.47648436,2.49609375 C7.47648436,2.37890625 7.47908852,2.18489583 7.48429686,1.9140625 C7.48950519,1.64322917 7.49210936,1.35286458 7.49210936,1.04296875 L5.85539061,5.8828125 L5.08585936,5.8828125 L3.43742186,1.04296875 L3.43742186,1.21875 C3.43742186,1.359375 3.44067707,1.57356771 3.44718748,1.86132813 C3.4536979,2.14908854 3.45695311,2.36067708 3.45695311,2.49609375 L3.45695311,5.8828125 L2.71476561,5.8828125 L2.71476561,0.14453125 Z" id="Path"></path>
                <path d="M10.4861718,4.03125 C10.504401,4.35677083 10.5812239,4.62109375 10.7166406,4.82421875 C10.9744531,5.20442708 11.4288802,5.39453125 12.0799218,5.39453125 C12.3715885,5.39453125 12.6372135,5.35286458 12.8767968,5.26953125 C13.3403385,5.10807292 13.5721093,4.81901042 13.5721093,4.40234375 C13.5721093,4.08984375 13.4744531,3.8671875 13.2791406,3.734375 C13.0812239,3.60416667 12.7713281,3.49088542 12.3494531,3.39453125 L11.5721093,3.21875 C11.0642968,3.10416667 10.7049218,2.97786458 10.4939843,2.83984375 C10.129401,2.60026042 9.94710934,2.2421875 9.94710934,1.765625 C9.94710934,1.25 10.1254948,0.826822917 10.4822656,0.49609375 C10.8390364,0.165364583 11.3442448,0 11.9978906,0 C12.5994531,0 13.1105208,0.145182292 13.5310937,0.435546875 C13.9516666,0.725911458 14.1619531,1.19010417 14.1619531,1.828125 L13.4314843,1.828125 C13.3924218,1.52083333 13.3090885,1.28515625 13.1814843,1.12109375 C12.9445052,0.821614583 12.5421614,0.671875 11.9744531,0.671875 C11.5161198,0.671875 11.1866927,0.768229167 10.9861718,0.9609375 C10.785651,1.15364583 10.6853906,1.37760417 10.6853906,1.6328125 C10.6853906,1.9140625 10.8025781,2.11979167 11.0369531,2.25 C11.1905989,2.33333333 11.5382552,2.4375 12.0799218,2.5625 L12.8846093,2.74609375 C13.2726302,2.83463542 13.5721093,2.95572917 13.7830468,3.109375 C14.1476302,3.37760417 14.3299218,3.76692708 14.3299218,4.27734375 C14.3299218,4.91276042 14.098802,5.3671875 13.6365625,5.640625 C13.1743229,5.9140625 12.6372135,6.05078125 12.0252343,6.05078125 C11.3116927,6.05078125 10.7530989,5.86848958 10.3494531,5.50390625 C9.94580726,5.14192708 9.74789059,4.65104167 9.75570309,4.03125 L10.4861718,4.03125 Z" id="Path"></path>
                <path d="M18.0974218,5.21875 C18.3604427,5.21875 18.5765885,5.19140625 18.7458593,5.13671875 C19.0479427,5.03515625 19.2953385,4.83984375 19.4880468,4.55078125 C19.6416927,4.31901042 19.7523697,4.02213542 19.8200781,3.66015625 C19.8591406,3.44401042 19.8786718,3.24348958 19.8786718,3.05859375 C19.8786718,2.34765625 19.7373958,1.79557292 19.4548437,1.40234375 C19.1722916,1.00911458 18.7172135,0.8125 18.0896093,0.8125 L16.7107031,0.8125 L16.7107031,5.21875 L18.0974218,5.21875 Z M15.9294531,0.14453125 L18.2536718,0.14453125 C19.0427343,0.14453125 19.6547135,0.424479167 20.0896093,0.984375 C20.4776302,1.48958333 20.6716406,2.13671875 20.6716406,2.92578125 C20.6716406,3.53515625 20.5570572,4.0859375 20.3278906,4.578125 C19.9242447,5.44791667 19.2302343,5.8828125 18.2458593,5.8828125 L15.9294531,5.8828125 L15.9294531,0.14453125 Z" id="Shape"></path>
                <path d="M24.4078906,2.5703125 C24.7360156,2.5703125 24.9912239,2.52473958 25.1735156,2.43359375 C25.4599739,2.29036458 25.6032031,2.03255208 25.6032031,1.66015625 C25.6032031,1.28515625 25.4508593,1.03255208 25.1461718,0.90234375 C24.9742968,0.829427083 24.7190885,0.79296875 24.3805468,0.79296875 L22.9938281,0.79296875 L22.9938281,2.5703125 L24.4078906,2.5703125 Z M24.6696093,5.21875 C25.1461718,5.21875 25.4860156,5.08072917 25.6891406,4.8046875 C25.8167447,4.63020833 25.8805468,4.41927083 25.8805468,4.171875 C25.8805468,3.75520833 25.6943489,3.47135417 25.3219531,3.3203125 C25.1240364,3.23958333 24.8623176,3.19921875 24.5367968,3.19921875 L22.9938281,3.19921875 L22.9938281,5.21875 L24.6696093,5.21875 Z M22.2321093,0.14453125 L24.6969531,0.14453125 C25.3688281,0.14453125 25.8466926,0.345052083 26.1305468,0.74609375 C26.2972135,0.983072917 26.3805468,1.25651042 26.3805468,1.56640625 C26.3805468,1.92838542 26.2776822,2.22526042 26.0719531,2.45703125 C25.9651822,2.57942708 25.8115364,2.69140625 25.6110156,2.79296875 C25.9052864,2.90494792 26.1253385,3.03125 26.2711718,3.171875 C26.5289843,3.421875 26.6578906,3.76692708 26.6578906,4.20703125 C26.6578906,4.57682292 26.5420051,4.91145833 26.3102343,5.2109375 C25.9638801,5.65885417 25.4130989,5.8828125 24.6578906,5.8828125 L22.2321093,5.8828125 L22.2321093,0.14453125 Z" id="Shape"></path>
            </g>
        </g>
    </g>
</svg>