<?xml version="1.0" encoding="UTF-8" standalone="no"?>
<!DOCTYPE svg PUBLIC "-//W3C//DTD SVG 1.1//EN" "http://www.w3.org/Graphics/SVG/1.1/DTD/svg11.dtd">
<!-- Created with Vectornator (http://vectornator.io/) -->
<svg height="100%" stroke-miterlimit="10" style="fill-rule:nonzero;clip-rule:evenodd;stroke-linecap:round;stroke-linejoin:round;" version="1.1" viewBox="0 0 68 40" width="100%" xml:space="preserve" xmlns="http://www.w3.org/2000/svg" xmlns:vectornator="http://vectornator.io" xmlns:xlink="http://www.w3.org/1999/xlink">
<defs>
<clipPath id="TextBounds">
<rect height="25" width="63.0234" x="2.98412" y="9.09691"/>
</clipPath>
</defs>
<g id="Layer-1" vectornator:layerName="Layer 1">
<path d="M49.875 9.78125C48.4687 9.78125 47.5234 10.125 47.0312 10.8438C46.7578 11.25 46.5938 11.9062 46.5625 12.7812L46.5625 14.75L44.8438 14.75L44.8438 16.4062L46.5625 16.4062L46.5625 27.2188L48.6562 27.2188L48.6562 16.4062L50.7812 16.4062L50.7812 14.75L48.6875 14.75C48.6875 13.3906 48.75 12.5195 48.875 12.1875C49 11.8555 49.3906 11.7188 50.0312 11.7188C50.1172 11.7188 50.1836 11.7148 50.2812 11.7188C50.3789 11.7227 50.5625 11.7344 50.7812 11.75L50.7812 9.8125C50.6016 9.79687 50.4219 9.78906 50.2812 9.78125C50.1406 9.77344 50.0078 9.78125 49.875 9.78125ZM52.5625 9.96875L52.5625 27.2188L54.5 27.2188L54.5 25.625C54.9453 26.2266 55.3594 26.6641 55.75 26.9375C56.4063 27.3984 57.2031 27.625 58.1562 27.625C59.8594 27.625 61.1953 26.9688 62.1562 25.6562C63.1172 24.3437 63.5938 22.7031 63.5938 20.7188C63.5938 18.625 63.1289 17.043 62.1562 15.9688C61.1836 14.8945 59.9063 14.3438 58.3438 14.3438C57.5937 14.3438 56.8906 14.4961 56.25 14.8125C55.6094 15.1289 55.0547 15.6172 54.5938 16.2188L54.5938 9.96875L52.5625 9.96875ZM58.0938 16.25C59.1953 16.25 60.0273 16.6641 60.5938 17.5312C61.1602 18.3984 61.4375 19.4922 61.4375 20.8125C61.4375 22.2969 61.1602 23.5 60.5938 24.4062C60.0273 25.3125 59.1719 25.7812 58.0312 25.7812C56.5156 25.7812 55.4922 25.0703 54.9375 23.6875C54.6406 22.9531 54.5 21.9922 54.5 20.8125C54.5 19.1797 54.8398 18.0234 55.5625 17.3125C56.2852 16.6016 57.1328 16.25 58.0938 16.25Z" fill="#000" fill-rule="nonzero" opacity="1" stroke="none"/>
</g>
<g id="Layer-2" vectornator:layerName="Layer 2">
<g fill="#000000" opacity="1" stroke="none">
<path clip-path="url(#TextBounds)" d="M6.08959 14.5461L8.09349 14.5461L8.09349 16.7141C8.25755 16.2922 8.6599 15.7785 9.30052 15.1731C9.94115 14.5676 10.6794 14.2649 11.5154 14.2649C11.5544 14.2649 11.6208 14.2688 11.7146 14.2766C11.8083 14.2844 11.9685 14.3 12.1951 14.3235L12.1951 16.55C12.0701 16.5266 11.9548 16.511 11.8494 16.5032C11.7439 16.4953 11.6286 16.4914 11.5036 16.4914C10.4411 16.4914 9.62474 16.8332 9.05443 17.5168C8.48412 18.2004 8.19896 18.9875 8.19896 19.8782L8.19896 27.0969L6.08959 27.0969L6.08959 14.5461Z"/>
<path clip-path="url(#TextBounds)" d="M19.2497 14.2649C20.1404 14.2649 21.0036 14.4739 21.8396 14.8918C22.6755 15.3098 23.3122 15.8508 23.7497 16.5149C24.1716 17.1477 24.4529 17.886 24.5935 18.7297C24.7185 19.3078 24.781 20.2297 24.781 21.4953L15.5818 21.4953C15.6208 22.7688 15.9216 23.7903 16.4841 24.5598C17.0466 25.3293 17.9177 25.7141 19.0974 25.7141C20.199 25.7141 21.0779 25.3508 21.7341 24.6243C22.1091 24.2024 22.3747 23.7141 22.531 23.1594L24.6052 23.1594C24.5505 23.6203 24.3689 24.134 24.0603 24.7004C23.7517 25.2668 23.406 25.7297 23.0232 26.0891C22.3826 26.7141 21.5896 27.136 20.6443 27.3547C20.1365 27.4797 19.5622 27.5422 18.9216 27.5422C17.3591 27.5422 16.0349 26.9739 14.949 25.8371C13.863 24.7004 13.3201 23.1086 13.3201 21.0618C13.3201 19.0461 13.8669 17.4094 14.9607 16.1516C16.0544 14.8938 17.4841 14.2649 19.2497 14.2649ZM22.613 19.8196C22.5271 18.9055 22.3279 18.175 22.0154 17.6282C21.4372 16.6125 20.4724 16.1047 19.1208 16.1047C18.1521 16.1047 17.3396 16.4543 16.6833 17.1535C16.0271 17.8528 15.6794 18.7414 15.6404 19.8196L22.613 19.8196Z"/>
<path clip-path="url(#TextBounds)" d="M28.6247 23.1594C28.6872 23.8625 28.863 24.4016 29.1521 24.7766C29.6833 25.4563 30.6052 25.7961 31.9177 25.7961C32.699 25.7961 33.3865 25.6262 33.9802 25.2864C34.574 24.9465 34.8708 24.4211 34.8708 23.7102C34.8708 23.1711 34.6326 22.761 34.156 22.4797C33.8513 22.3078 33.2497 22.1086 32.3513 21.8821L30.6755 21.4602C29.6052 21.1946 28.8161 20.8977 28.3083 20.5696C27.4021 19.9993 26.949 19.2102 26.949 18.2024C26.949 17.0149 27.3767 16.0539 28.2322 15.3196C29.0876 14.5852 30.238 14.218 31.6833 14.218C33.574 14.218 34.9372 14.7727 35.7732 15.8821C36.2966 16.5852 36.5505 17.343 36.5349 18.1555L34.5427 18.1555C34.5036 17.6789 34.3357 17.2453 34.0388 16.8547C33.5544 16.3 32.7146 16.0227 31.5193 16.0227C30.7224 16.0227 30.1189 16.175 29.7087 16.4797C29.2986 16.7844 29.0935 17.1868 29.0935 17.6868C29.0935 18.2336 29.363 18.6711 29.9021 18.9993C30.2146 19.1946 30.6755 19.3664 31.2849 19.5149L32.6794 19.8547C34.1951 20.2219 35.2107 20.5774 35.7263 20.9211C36.5466 21.4602 36.9568 22.3078 36.9568 23.4641C36.9568 24.5813 36.5329 25.5461 35.6853 26.3586C34.8376 27.1711 33.5466 27.5774 31.8122 27.5774C29.9451 27.5774 28.6228 27.1535 27.8454 26.3059C27.0681 25.4582 26.6521 24.4094 26.5974 23.1594L28.6247 23.1594Z"/>
<path clip-path="url(#TextBounds)" d="M39.7927 11.0422L41.9255 11.0422L41.9255 14.5461L43.9294 14.5461L43.9294 16.2688L41.9255 16.2688L41.9255 24.4602C41.9255 24.8977 42.074 25.1907 42.3708 25.3391C42.5349 25.425 42.8083 25.468 43.1911 25.468C43.2927 25.468 43.4021 25.466 43.5193 25.4621C43.6365 25.4582 43.7732 25.4485 43.9294 25.4328L43.9294 27.0969C43.6872 27.1672 43.4353 27.218 43.1736 27.2493C42.9119 27.2805 42.6286 27.2961 42.324 27.2961C41.3396 27.2961 40.6716 27.0442 40.3201 26.5403C39.9685 26.0364 39.7927 25.3821 39.7927 24.5774L39.7927 16.2688L38.0935 16.2688L38.0935 14.5461L39.7927 14.5461L39.7927 11.0422Z"/>
</g>
</g>
</svg>
