<?xml version="1.0" encoding="utf-8"?>
<!-- Generator: Adobe Illustrator 16.0.0, SVG Export Plug-In . SVG Version: 6.00 Build 0)  -->
<!DOCTYPE svg PUBLIC "-//W3C//DTD SVG 1.1//EN" "http://www.w3.org/Graphics/SVG/1.1/DTD/svg11.dtd">
<svg version="1.1" id="图层_1" xmlns="http://www.w3.org/2000/svg" xmlns:xlink="http://www.w3.org/1999/xlink" x="0px" y="0px"
	 width="267.438px" height="125.825px" viewBox="0 0 267.438 125.825" enable-background="new 0 0 267.438 125.825"
	 xml:space="preserve">
<g>

	<path fill="#00AD4E" d="M97.933,60.46c-2.896-8.961-8.238-16.822-15.263-22.775c10.08-5.3,18.689-12.97,25.09-22.279l-0.029-0.021
		c0.959-1.54,1.529-3.359,1.529-5.31c0-5.521-4.48-10-10-10c-3.9,0-7.45,2.239-9.1,5.489C81.149,17.725,67,25.665,50,25.825
		c-5.382,0-10.593,0.903-15.497,2.547C58.322,33.893,79.963,45.092,97.933,60.46z"/>
	<path fill="#68BF00" d="M32.759,51.536c4.944-3.589,11.023-5.711,17.601-5.711c16.57,0,30,13.43,30,30
		c0,8.086-3.203,15.418-8.403,20.813c3.077,6.018,5.865,12.437,8.34,19.19c12.172-9.122,20.063-23.646,20.063-40.003
		c0-5.364-0.861-10.523-2.427-15.365c-17.97-15.368-39.61-26.567-63.43-32.088c-7.396,2.479-14.083,6.661-19.543,12.103
		c-0.938,0.935-1.83,1.915-2.693,2.92C19.381,44.853,26.242,47.622,32.759,51.536z"/>
	<path fill="#FFAF0D" d="M32.759,51.536c-6.517-3.915-13.378-6.683-20.492-8.141C4.772,52.129,0.18,63.45,0.18,75.825
		c0,27.61,22.48,50,50.09,50c11.253,0,21.652-3.721,30.026-9.997c-2.475-6.754-5.263-13.173-8.34-19.19
		c-5.456,5.661-13.112,9.188-21.597,9.188c-16.57,0-30-13.43-30-30C20.359,65.833,25.248,56.988,32.759,51.536z"/>
</g>
</svg>
