<?xml version="1.0" encoding="iso-8859-1"?>
<!-- Generator: Adobe Illustrator 19.0.0, SVG Export Plug-In . SVG Version: 6.00 Build 0)  -->
<svg xmlns="http://www.w3.org/2000/svg" xmlns:xlink="http://www.w3.org/1999/xlink" version="1.1" id="Capa_1" x="0px" y="0px" viewBox="0 0 512 512" style="enable-background:new 0 0 512 512;" xml:space="preserve" width="512px" height="512px">
<g>
	<g>
		<path d="M331.924,7.271C311.558,2.582,284.595,0,256,0c-28.594,0-55.558,2.582-75.924,7.271    c-24.6,5.663-36.561,13.642-36.569,24.392c0,0.002,0,0.005,0,0.007V91.3c0,7.364,5.617,13.436,17.036,18.34    c-11.419,4.905-17.036,10.976-17.036,18.34v59.63c0,7.359,5.617,13.431,17.037,18.339c-11.42,4.908-17.037,10.98-17.037,18.34    v59.63c0,10.755,11.962,18.736,36.569,24.401c20.365,4.688,47.329,7.27,75.924,7.27c28.595,0,55.558-2.582,75.924-7.27    c24.607-5.665,36.569-13.646,36.569-24.4v-59.63c0-7.36-5.618-13.432-17.038-18.34c11.421-4.908,17.038-10.98,17.038-18.339    v-59.63c0-7.363-5.617-13.435-17.037-18.34c11.42-4.905,17.037-10.977,17.037-18.341V31.67c0-0.002,0-0.004,0-0.007    C368.486,20.913,356.524,12.935,331.924,7.271z M256,15c61.348,0,92.884,11.321,97.225,16.673    c-4.341,5.352-35.877,16.674-97.225,16.674c-61.349,0-92.884-11.322-97.226-16.674C163.115,26.321,194.651,15,256,15z     M353.494,283.54c-3.095,5.174-34.655,17.05-97.494,17.05c-62.838,0-94.399-11.876-97.494-17.05v-41.836    c5.597,2.64,12.77,4.964,21.569,6.991c20.368,4.691,47.332,7.275,75.925,7.275c28.592,0,55.556-2.584,75.925-7.275    c8.799-2.026,15.972-4.351,21.569-6.991V283.54z M353.496,187.219c-1.189,1.854-8.542,7.011-30.545,11.372    c-0.004,0.001-0.008,0.001-0.011,0.002c-0.025,0.005-0.05,0.009-0.075,0.014c-18.507,3.657-42.246,5.671-66.863,5.671    c-4.225,0-8.472-0.06-12.622-0.176c-4.13-0.131-7.591,3.146-7.707,7.286c-0.116,4.141,3.146,7.592,7.286,7.708    c4.29,0.12,8.678,0.182,13.043,0.182c24.951,0,49.135-2.02,68.354-5.688c19.62,4.034,27.054,8.663,28.856,10.717    c-4.401,5.361-35.935,16.66-97.209,16.66s-92.808-11.299-97.21-16.66c1.799-2.051,9.231-6.68,28.845-10.713    c7.553,1.442,15.868,2.639,24.764,3.554c0.261,0.026,0.52,0.04,0.777,0.04c3.797-0.001,7.054-2.874,7.451-6.733    c0.424-4.12-2.573-7.805-6.692-8.229c-8.98-0.923-17.314-2.139-24.773-3.612c-0.046-0.01-0.092-0.018-0.138-0.027    c-21.983-4.361-29.33-9.514-30.519-11.367v-41.828c5.597,2.64,12.77,4.964,21.569,6.991c20.368,4.691,47.332,7.275,75.925,7.275    c28.592,0,55.556-2.584,75.925-7.275c8.799-2.026,15.972-4.351,21.569-6.991V187.219z M353.21,127.998    c-4.398,5.361-35.932,16.662-97.21,16.662s-92.813-11.301-97.211-16.662c1.801-2.054,9.244-6.688,28.906-10.717    c19.255,3.668,43.423,5.688,68.305,5.688c24.882,0,49.05-2.02,68.305-5.688C343.967,121.311,351.41,125.944,353.21,127.998z     M353.494,90.912c-1.189,1.856-8.55,7.017-30.592,11.37c-0.001,0-0.002,0-0.003,0c-0.033,0.007-0.066,0.012-0.098,0.019    c-18.546,3.656-42.263,5.668-66.8,5.668c-24.529,0-48.237-2.011-66.781-5.665c-0.05-0.011-0.1-0.019-0.15-0.029    c-22.019-4.351-29.375-9.507-30.564-11.363V49.085c5.597,2.639,12.77,4.964,21.57,6.99c20.366,4.689,47.33,7.271,75.924,7.271    s55.558-2.582,75.924-7.271c8.8-2.026,15.973-4.35,21.57-6.99V90.912z" fill="#0b7d62"/>
	</g>
</g>
<g>
	<g>
		<path d="M417.824,327.169c-1.647-4.659-5.907-7.669-10.851-7.669h-23.982c-4.142,0-7.5,3.357-7.5,7.5s3.357,7.5,7.5,7.5h14.091    l-83.648,67.618c-10.064,8.136-15.835,20.215-15.835,33.142v1.24h-83.2v-1.24c0-12.927-5.772-25.007-15.835-33.142l-21.749-17.582    c-3.22-2.604-7.942-2.104-10.547,1.118c-2.604,3.222-2.103,7.943,1.118,10.548l21.749,17.582    c6.523,5.273,10.265,13.101,10.265,21.476v69.24c0,4.143,3.358,7.5,7.499,7.5h98.199c4.142,0,7.5-3.357,7.5-7.5v-69.24    c0-8.375,3.741-16.202,10.265-21.476l91.348-73.843C418.052,336.837,419.47,331.823,417.824,327.169z M297.6,497h-83.2v-15.5h83.2    V497z M297.6,466.5h-83.2v-15h83.2V466.5z" fill="#0b7d62"/>
	</g>
</g>
<g>
	<g>
		<path d="M352.993,319.5H105.026c-4.944,0-9.203,3.01-10.85,7.669c-1.646,4.654-0.228,9.668,3.613,12.772l46.297,37.425    c1.388,1.122,3.054,1.667,4.71,1.667c2.187,0,4.355-0.952,5.837-2.785c2.603-3.222,2.103-7.943-1.118-10.548l-38.598-31.2h238.076    c4.142,0,7.5-3.357,7.5-7.5S357.136,319.5,352.993,319.5z" fill="#0b7d62"/>
	</g>
</g>
<g>
	<g>
		<path d="M114.009,59.793c-4.142,0-7.5,3.357-7.5,7.5v200c0.001,4.143,3.358,7.5,7.5,7.5c4.142,0,7.5-3.357,7.5-7.5v-200    C121.509,63.15,118.151,59.793,114.009,59.793z" fill="#0b7d62"/>
	</g>
</g>
<g>
	<g>
		<path d="M397.991,59.793c-4.143,0-7.5,3.357-7.5,7.5v200c0,4.143,3.357,7.5,7.5,7.5c4.142,0,7.5-3.357,7.5-7.5v-200    C405.491,63.15,402.134,59.793,397.991,59.793z" fill="#0b7d62"/>
	</g>
</g>
<g>
	<g>
		<circle cx="189.33" cy="80.5" r="7.5" fill="#0b7d62"/>
	</g>
</g>
<g>
	<g>
		<circle cx="189.33" cy="176.14" r="7.5" fill="#0b7d62"/>
	</g>
</g>
<g>
	<g>
		<circle cx="189.33" cy="273.69" r="7.5" fill="#0b7d62"/>
	</g>
</g>
<g>
</g>
<g>
</g>
<g>
</g>
<g>
</g>
<g>
</g>
<g>
</g>
<g>
</g>
<g>
</g>
<g>
</g>
<g>
</g>
<g>
</g>
<g>
</g>
<g>
</g>
<g>
</g>
<g>
</g>
</svg>
