<svg xmlns="http://www.w3.org/2000/svg" xmlns:xlink="http://www.w3.org/1999/xlink" viewBox="0 0 57 65" fill="#fff" fill-rule="evenodd" stroke="#000" stroke-linecap="round" stroke-linejoin="round"><use xlink:href="#C" x=".5" y=".5"/><defs><linearGradient id="A" y1="-98.36%" y2="38.20%" x1="-0.95%" x2="-0.95%"><stop offset="0%" stop-color="#0052cc"/><stop offset="100%" stop-color="#2684ff"/></linearGradient><linearGradient id="B" x1="50.02%" x2="50.02%" y1="0.73%" y2="138.59%"><stop offset="0%" stop-color="#0052cc"/><stop offset="100%" stop-color="#2684ff"/></linearGradient></defs><symbol id="C" overflow="visible"><g stroke="none" fill-rule="nonzero"><path d="M53.573 36.369H40.258a1.74 1.74 0 0 0-1.74 1.48 10.94 10.94 0 0 1-10.843 9.425l3.603 16.448c13.053-1.705 23.1-12.367 24.028-25.498a1.74 1.74 0 0 0-1.741-1.862zm-23.027-.418l19.146-16.448a1.74 1.74 0 0 0 0-2.611L30.546.411a1.74 1.74 0 0 0-2.863 1.323v32.896a1.74 1.74 0 0 0 2.863 1.323z" fill="#2684ff"/><path d="M.261 39.964c1.831 13.747 13.553 24.018 27.422 24.028V47.282c-6.027 0-10.916-4.878-10.93-10.904z" fill="url(#A)"/><path d="M0 36.108v.261h16.752c.014-6.027 4.904-10.904 10.93-10.904L24.089 9.017A27.67 27.67 0 0 0 0 36.108" fill="url(#B)"/></g></symbol></svg>