<svg xmlns="http://www.w3.org/2000/svg" xmlns:xlink="http://www.w3.org/1999/xlink" viewBox="0 0 58 66" fill="#fff" fill-rule="evenodd" stroke="#000" stroke-linecap="round" stroke-linejoin="round"><use xlink:href="#A" x="1" y="1"/><symbol id="A" overflow="visible"><path d="M47.662 44.936c-.544 0-.814.274-.814.274s-6.812 5.464-19.072 5.464S8.72 45.206 8.72 45.206s-.544-.27-.814-.27c-.546 0-1.094.274-1.094 1.09v.27l1.908 10.35C9.536 60.732 17.71 64 27.512 64s18-3.268 18.794-7.354c0-.544.814-4.628 1.89-10.35v-.27c.26-.546 0-1.09-.552-1.09zM27.79 0C12.53 0 0 4.08 0 9.254c0 1.366 3.268 20.7 4.632 28.326.544 3.54 9.536 8.42 23.15 8.42s22.332-4.884 23.15-8.43l4.6-28.316C55.262 4.1 43.022.02 27.76.02zm0 39.76a8.6 8.6 0 0 1-8.712-8.716c0-4.914 3.808-8.72 8.71-8.72a8.6 8.6 0 0 1 8.716 8.722c0 4.6-3.814 8.692-8.716 8.692zm.002-13.334a4.38 4.38 0 0 1 4.36 4.36 4.36 4.36 0 0 1-6.542 3.777 4.36 4.36 0 0 1-2.18-3.777 4.38 4.38 0 0 1 4.36-4.36zm-.006-14.448c-9.808 0-17.704-1.628-17.704-3.808s7.896-3.814 17.704-3.814S45.49 5.99 45.49 8.164 37.588 12 27.786 12z" stroke="none" fill="#000"/></symbol></svg>