<svg xmlns="http://www.w3.org/2000/svg" xmlns:xlink="http://www.w3.org/1999/xlink" viewBox="0 0 66 58" fill="#fff" fill-rule="evenodd" stroke="#000" stroke-linecap="round" stroke-linejoin="round"><use xlink:href="#A" x=".5" y=".5"/><symbol id="A" overflow="visible"><g stroke="none" fill-rule="nonzero"><path d="M62.779 27.481c-3.293-3.163-19.752-5.138-24.946-5.712a15.25 15.25 0 0 0 .642-1.841c.708-.31 1.472-.599 2.263-.839.096.284.55 1.373.808 1.889 10.444.288 10.98-7.763 11.405-9.966.415-2.156.394-4.24 3.977-8.048-5.337-1.555-13.012 2.41-15.583 8.313a16.03 16.03 0 0 0-2.892-.795C37.765 7.712 34.191 0 24.814 0 12.941 0 0 9.797 0 26.376c0 13.938 9.516 26.153 14.893 26.153 2.348 0 4.368-1.758 4.842-3.335l2.018 5.296c.592 1.265 3.33 2.359 4.529 1.047 1.541.856 4.368 1.371 5.909-.911 2.967.628 5.591-1.142 5.648-3.252 1.456-.078 2.17-2.122 1.852-3.75-.234-1.199-2.74-5.5-3.715-6.985 1.933 1.573 6.83 2.018 7.425.001 3.117 2.447 7.975 1.162 8.36-.828 3.787.984 8.132-1.177 7.418-3.795 6.085-.421 5.306-6.895 3.599-8.535z" fill="#543729"/><path d="M45.835 13.675c1.31-2.601 2.957-5.438 5.037-7.196-2.289.923-4.55 3.681-5.886 6.629-.667-.425-1.358-.811-2.07-1.157 1.864-3.979 6.196-7.302 10.97-7.562-3.196 2.9-2.062 8.927-4.691 12.118a34.46 34.46 0 0 0-3.36-2.832zm-2.067 4.234c.001-.1.039-.867.108-1.217-.183-.043-1.323-.266-1.917-.252-.043.746.314 2.016.666 2.781 2.429-.051 4.184-.778 5.216-1.447-.879-.41-2.379-.774-3.52-.992-.127.263-.441.934-.554 1.129z" fill="#00acee"/><path d="M34.742 38.481c-.305-.651-.632-1.456-1.021-2.507 1.52 2.213 6.286 1.072 6.036-.911 2.332 1.755 7.133-.292 6.042-2.753 2.336 1.089 5.003-1.102 4.405-2.056l8.999 1.841c-.796 1.298-2.609 2.215-5.342 1.577 1.477 2.012-1.39 4.425-5.384 3.096.879 1.975-2.677 3.753-6.718 1.694.051 1.976-5.013 2.203-7.015.02zm7.902-9.986c4.622.355 12.268 1.044 17.002 1.707-.299-1.54-1.116-1.98-3.685-2.671-2.763.295-9.774.983-13.316.964z" fill="#2baf2b"/><path d="M39.754 35.061c2.332 1.755 7.133-.292 6.042-2.753 2.336 1.089 5.003-1.102 4.405-2.056l-10.772-1.979 3.214.221c3.542.019 10.553-.669 13.316-.964-4.474-1.135-13.61-2.79-19.918-3.198a9.09 9.09 0 0 1-1.766 1.923c-2.76 5.84-7.763 9.722-13.295 9.722-1.613 0-3.417-.272-5.439-.919-1.261 1.351-6.638 2.375-11.001.233 3.459 8.103 11.485 13.512 20.368 13.512 7.482 0 10.799-7.64 10.073-9.661-.176-.491-.874-2.118-1.265-3.169 1.522 2.213 6.286 1.072 6.036-.912z" fill="#ffcc2f"/><path d="M35.221 19.684c.661-.359 2.943-1.743 5.119-2.263l-.076-.728c-1.427.342-4.118 1.495-5.66-.094 3.252.982 4.877-.875 7.268-.875 1.425 0 3.458.398 5.06 1.027-1.289-1.191-5.515-4.784-10.748-4.797-1.168 1.417-2.431 4.485-.962 7.73z" fill="#cecece"/><path d="M15.542 35.057c2.022.646 3.827.919 5.439.919 5.535 0 10.534-3.882 13.295-9.722-2.041 1.704-5.59 3.162-11.13 3.162 4.936-1.119 9.184-3.579 11.346-7.174-1.519-2.418-3.169-7.768 1.006-11.997-.642-2.062-3.766-7.506-10.683-7.506-12.071 0-22.075 10.101-22.075 23.637 0 3.204.647 6.21 1.802 8.915 4.363 2.142 9.74 1.118 11.001-.233z" fill="#ef5734"/><path d="M19.164 14.446c0 3.079 2.496 5.575 5.575 5.575s5.576-2.496 5.576-5.575-2.496-5.575-5.576-5.575-5.575 2.496-5.575 5.575z" fill="#ffcc2f"/><path d="M21.401 14.447a3.34 3.34 0 0 0 3.338 3.338 3.34 3.34 0 0 0 3.338-3.338 3.34 3.34 0 0 0-3.338-3.338 3.34 3.34 0 0 0-3.338 3.338z" fill="#543729"/><path d="M22.794 12.965c0-.67.867-1.209 1.945-1.209s1.945.539 1.945 1.209-.867 1.209-1.945 1.209-1.945-.539-1.945-1.209z"/></g></symbol></svg>