<svg xmlns="http://www.w3.org/2000/svg" xmlns:xlink="http://www.w3.org/1999/xlink" viewBox="0 0 66 49" fill="#fff" fill-rule="evenodd" stroke="#000" stroke-linecap="round" stroke-linejoin="round"><use xlink:href="#A" x=".5" y=".5"/><symbol id="A" overflow="visible"><g stroke="none" fill-rule="nonzero"><path d="M37.65 40.003c0-10.318-8.508-18.825-18.825-18.825S0 29.686 0 40.003c0 1.63.18 3.44.724 5.068.18.543.362 1.267.543 1.8.18.362.362.543.724.543H7.06a.78.78 0 0 0 .724-.724c0-.18 0-.18-.18-.362l-.544-1.075c-2.715-6.335.18-13.757 6.516-16.653 6.335-2.715 13.757.18 16.653 6.516.724 1.63 1.086 3.258 1.086 5.068a12.77 12.77 0 0 1-1.086 5.068c-.18.362-.362.724-.543 1.267-.18.362 0 .724.362.905.18 0 .18.18.362.18h5.25c.362 0 .543-.18.724-.543.18-.543.362-1.267.543-1.8.362-1.8.724-3.62.724-5.25z" fill="#008774"/><path d="M40.185 15.023c-13.215 0-23.885 10.68-23.885 23.894 0 2 .18 4.163.724 6.154.18.543.362 1.267.543 1.8.18.362.362.543.724.543h5.068a.78.78 0 0 0 .724-.724v-.362c-.18-.362-.362-.905-.543-1.267-3.258-9.232 1.448-19.368 10.5-22.627s19.36 1.469 22.617 10.509a17.47 17.47 0 0 1 0 12.128c-.18.362-.362.905-.543 1.267s0 .724.362.905h5.43c.362 0 .543-.18.724-.543.18-.543.362-1.267.543-1.8 3.44-12.67-4.163-25.885-17.015-29.143-1.8-.543-3.8-.724-5.973-.724z" fill="#00ae9e"/><path d="M53.4 21.178a21.09 21.09 0 0 0-6.178-15.002A21.09 21.09 0 0 0 32.22 0a21.09 21.09 0 0 0-15.001 6.177 21.09 21.09 0 0 0-6.177 15.001c0 .724 0 1.267.18 2h6.154c-.905-8.146 5.25-15.567 13.395-16.472s15.567 5.25 16.472 13.395v1.8c-.18 2.896-1.267 5.792-3.077 8.146-.18.362-.18.905.18 1.086.18.18.362.18.543.18h5.43c.362 0 .543-.18.724-.362 1.448-2.715 2.353-5.973 2.353-9.05v-.724z" fill="#008774"/></g></symbol></svg>