<svg xmlns="http://www.w3.org/2000/svg" xmlns:xlink="http://www.w3.org/1999/xlink" viewBox="0 0 76.969 60.969" fill="#fff" fill-rule="evenodd" stroke="#000" stroke-linecap="round" stroke-linejoin="round"><use xlink:href="#A" x="6.484" y="6.484"/><symbol id="A" overflow="visible"><g stroke="none"><path d="M29.382 12.26c.571.259.856 1.037 1.037 2.075l6.16 33.122L7.011 30.04.034 4.181c-.194-.778.48-1.245 1.089-1.037l12.1 3.981c1.362.441.674-1.919 1.712-1.595l9.078 2.723c.908.324.519 2.295 1.427 2.698z" fill="#236bb3"/><path d="M45.074 8.045L14.002.03c-.61-.13-.999.156-1.219.856L11.33 6.489l1.88.622c1.362.441.674-1.919 1.712-1.595L24 8.24c.908.324.519 2.296 1.427 2.698l3.891 1.297c.571.259.856 1.037 1.038 2.075l6.16 33.122 9.389-37.609c.169-.817-.259-1.608-.908-1.816z" fill="#eebd31"/><path d="M62.686 34.812l-21.269-6.718-4.837 19.362 27.182-11.672c.648-.35-.337-.648-1.089-.973z" fill="#c9d3eb"/></g></symbol></svg>