<svg xmlns="http://www.w3.org/2000/svg" xmlns:xlink="http://www.w3.org/1999/xlink" viewBox="0 0 57 66" fill="#fff" fill-rule="evenodd" stroke="#000" stroke-linecap="round" stroke-linejoin="round"><use xlink:href="#A" x="1" y="1"/><symbol id="A" overflow="visible"><path d="M51.732 21.15c-3.114-1.754-7.034.534-7.652.926L30.644 29.7a5.24 5.24 0 0 0-7.947 6.411 5.24 5.24 0 0 0 9.947-2.305 5.28 5.28 0 0 0-.082-.922l13.484-7.65c.88-.56 2.924-1.388 3.88-.852.688.37 1.08 1.688 1.11 3.6v16.81a4.4 4.4 0 0 1-2.196 3.802L29.588 59.702c-1.36.782-3.032.782-4.392 0L5.944 48.594a4.4 4.4 0 0 1-2.196-3.802v-22.24c.003-1.568.84-3.016 2.196-3.802L23.338 8.68a5.24 5.24 0 0 0 8.871-5.232A5.24 5.24 0 0 0 26.427.072 5.24 5.24 0 0 0 22.05 5.14l-18 10.392C1.547 16.982.005 19.655 0 22.548v22.244c.005 2.893 1.547 5.565 4.05 7.016l19.252 11.108c2.507 1.442 5.593 1.442 8.1 0l19.252-11.108c2.503-1.451 4.045-4.123 4.05-7.016V28.628c.126-3.796-.88-6.308-2.954-7.48z" stroke="none" fill="#27ae60" fill-rule="nonzero"/></symbol></svg>