<svg xmlns="http://www.w3.org/2000/svg" xmlns:xlink="http://www.w3.org/1999/xlink" viewBox="0 0 35 62" fill="#fff" fill-rule="evenodd" stroke="#000" stroke-linecap="round" stroke-linejoin="round"><use xlink:href="#A" x=".5" y=".5"/><symbol id="A" overflow="visible"><g stroke="none"><path d="M6.571 23.148C7.871 12.848 5.241 0 5.241 0s10.554 7.107 16.24 15.72 8.384 25.33 8.384 25.33 3.453 12.58 1.268 15.704c-4.598 6.58-9.508-2.446-12.092-3.415-4.522-1.695-17.128 14.013-17.128 2.905 0-1.892 1.098-6.642 2-11.023.53-2.573 1.116-4.938 1.047-6.74-.187-4.87-3.788 7.478-4.84 1.728s5.12-6.5 6.45-17.06z" fill="#360f50"/><path d="M7.358 23.686c1.2-9.73-1.16-22.194-1.16-22.194s9.217 6.22 14.84 14.612 7.803 23.66 7.803 23.66S32.429 53.049 30.417 56c-4.235 6.2-8.858-2.9-11.238-3.823-4.165-1.6-16.332 13.712-16.332 3.224 0-2.836 2.94-15.12 2.715-16.788-.53-3.928-3.493 4.9-4.992 1.527s5.817-8.657 6.787-16.454z" fill="#773f9b"/><path d="M28.841 37.454c.555.834.243 2.865.97 3.3 1.815 1.088 3.814 1.746 3.814 0 0-2.733-6.512-11.905-6.512-9.506 0 .96.43 4.255 1.728 6.204z" fill="#370f50"/><path d="M27.873 37.604c1.94 2.917 5.463 4.877 5.023 2.247s-6.983-11.167-6.983-8.767c0 .96.653 4.57 1.95 6.52z" fill="#773f9b"/><path d="M1.087 40.931c.48.145 1.495-1.413 2.656-2.602 1.278-1.3 3.73-2.768 3.524-2.02-.092.335-2.568 1.907-3.1 2.415l-2.893 2.92c-.126-.167-1.185-1.018-.177-.714zm27.54-2.123c-.385-1.88-.513-3.534-.323-3.534.1 0 .808 2.75 1.12 4.002.28 1.123.574 2.174.262 2.407s-.063.337-.112.272c-.075-.1-.373-.35-.946-3.146z" fill="#370f50"/><path d="M16.033 26.824c3.145 0 4.824-3.133 4.824-5.532 0-2.175-.825-1.058-3.628-.822-.3.024-5.212-1.577-5.212.822s.872 5.532 4.016 5.532z" fill="#3b7616"/><path d="M16.257 25.784c2.358 0 3.85-1.842 3.85-3.745s-1.492-1.1-3.85-1.1-3.342-.803-3.342 1.1.984 3.745 3.342 3.745z" fill="#a3ffbd"/><path d="M16.033 22.845c0-.457.401-.824.899-.824s.899.367.899.824-.401.824-.899.824-.899-.367-.899-.824z" fill="#550072"/><path d="M16.713 19.991c3.103.214 4.8-1.484 4.8-1.484s-1.56 3.316-5.118 3.07-6.582-2.465-6.582-2.465l6.892.88zm1.102 10.433c-3.103.214-4.102-1.23-4.102-1.23s.543 3 4.102 2.765 3.834-2.466 3.834-2.466-.73.716-3.834.93z" fill="#370f50"/></g></symbol></svg>