<svg xmlns="http://www.w3.org/2000/svg" xmlns:xlink="http://www.w3.org/1999/xlink" viewBox="0 0 66.333 48.333" fill="#fff" fill-rule="evenodd" stroke="#000" stroke-linecap="round" stroke-linejoin="round"><use xlink:href="#A" x=".667" y=".667"/><symbol id="A" overflow="visible"><g stroke="none" fill-rule="nonzero"><path d="M8.796 0H64v38.067l-8.933 8.893H0V8.768L8.796 0z" fill="#41cd52"/><path d="M16.952 9.867c2.096-1.387 4.688-1.737 7.152-1.715 2.347.029 4.809.44 6.755 1.84 1.413.993 2.333 2.527 2.944 4.113.991 2.604 1.28 5.416 1.315 8.184.004 2.8-.133 5.635-1.044 8.291a9.28 9.28 0 0 1-3.347 4.524l3.373 5.413-4.207 1.943-3.6-5.92c-1.623.267-3.28.245-4.912.067-1.953-.235-3.944-.829-5.451-2.144-1.16-1.003-1.885-2.407-2.383-3.833-.8-2.4-1.033-4.981-1.071-7.513-.02-2.737.155-5.517.981-8.144.64-1.976 1.696-3.947 3.467-5.107zm23.795-.088h4.405l.003 5.827 5.631.001-.103 3.781c-1.876.004-3.749-.001-5.627.003l.007 9.551c.036.872.016 1.791.4 2.596.267.62 1.033.78 1.647.8l3.469-.093.205 3.476c-2.301.4-4.716.849-7 .127-.963-.285-1.86-.924-2.251-1.876-.7-1.62-.756-3.421-.8-5.16v-9.42c-1.024-.003-2.048.001-3.071-.003v-3.78l3.069-.003V9.779z"/><path d="M22.235 12.133c1.427-.187 2.933-.136 4.271.403 1.107.434 2.006 1.275 2.512 2.351.752 1.627 1.04 3.419 1.2 5.191.157 2.357.136 4.737-.189 7.067-.227 1.395-.555 2.867-1.499 3.965-.96 1.104-2.437 1.577-3.867 1.688-1.496.109-3.073 0-4.424-.707-.8-.42-1.457-1.077-1.848-1.884-.473-.965-.733-2.02-.917-3.075-.552-3.333-.684-6.811.069-10.137.311-1.253.76-2.544 1.68-3.489.797-.811 1.909-1.229 3.017-1.387z" fill="#41cd52"/></g></symbol></svg>