<?xml version="1.0" encoding="UTF-8" standalone="no"?>
<!DOCTYPE svg PUBLIC "-//W3C//DTD SVG 1.1//EN" "http://www.w3.org/Graphics/SVG/1.1/DTD/svg11.dtd">
<!-- Created with Vectornator (http://vectornator.io/) -->
<svg height="3000.0pt" stroke-miterlimit="10" style="fill-rule:nonzero;clip-rule:evenodd;stroke-linecap:round;stroke-linejoin:round;" version="1.1" viewBox="0 0 3000 3000" width="3000.0pt" xml:space="preserve" xmlns="http://www.w3.org/2000/svg" xmlns:xlink="http://www.w3.org/1999/xlink">
<defs/>
<clipPath id="ArtboardFrame">
<rect height="3000" width="3000" x="0" y="0"/>
</clipPath>
<g clip-path="url(#ArtboardFrame)" id="Untitled">
<g opacity="1">
<clipPath clip-rule="nonzero" id="ClipPath">
<path d="M-151.605 1016.52L3136.58 1016.52L3136.58 1923.61L-151.605 1923.61L-151.605 1016.52Z"/>
</clipPath>
<g clip-path="url(#ClipPath)">
<path d="M191.962 1364.08C227.972 1328.54 277.661 1310.97 326.388 1301.64C368.739 1300.91 411.203 1300.79 453.551 1301.75C500.858 1314.51 538.595 1357.55 544.244 1406.32C544.397 1482.94 544.316 1561.85 544.395 1638.52C520.467 1638.52 500.674 1638.52 477.391 1638.52C477.391 1611.8 477.339 1581.94 477.455 1555.31C400.21 1553.27 322.93 1555.08 245.688 1554.43C235.156 1554.96 226.702 1546.74 220.862 1538.9C207.258 1518.45 224.706 1486.17 249.76 1488.83C317.78 1489.13 385.8 1488.79 453.82 1489.06C460.738 1488.98 468.271 1489.32 473.995 1484.64C476.186 1458.2 475.032 1431.41 474.612 1404.89C468.309 1382.88 445.981 1366.16 422.961 1366.27C380.92 1366.51 337.648 1363.28 297.183 1377.19C263.903 1389.87 232.928 1411.81 216.058 1443.9C203.877 1467.88 197.689 1495.01 198.381 1521.91C198.958 1559.92 198.495 1599.93 198.727 1637.97C176.437 1638.24 154.149 1638.2 131.859 1638.05C132.242 1591.2 131.552 1542.32 132.205 1495.47C134.28 1477.18 140.392 1459.54 143.696 1441.44C154.034 1412.7 169.559 1385.14 191.962 1364.08" fill="#005bac" fill-rule="nonzero" opacity="1" stroke="none"/>
<path d="M2069.47 1370.23C2046.95 1377.08 2030.5 1400.13 2031.54 1423.65C2031.61 1455.89 2031.58 1488.14 2031.54 1520.38C2030.73 1537.59 2040.07 1553.97 2052.91 1564.84C2064.82 1573.18 2079.88 1575.91 2094.22 1575.56C2148.17 1575.22 2202.2 1575.72 2256.2 1575.37C2280.41 1575.26 2301.35 1556.43 2307.35 1533.63C2308.92 1497.05 2307.38 1460.35 2308.04 1423.73C2310.46 1395.1 2284.63 1367.39 2255.85 1368.24C2199.4 1368.35 2142.95 1368.35 2086.49 1368.24C2080.77 1368.47 2074.85 1368.08 2069.47 1370.23M2049.56 1305.13C2055.21 1303.06 2061.32 1303.33 2067.28 1303.17C2131.38 1303.14 2195.52 1303.33 2259.66 1303.14C2273.49 1303.21 2288.25 1301.71 2300.81 1308.98C2334.4 1323.12 2362.15 1351.83 2371.87 1387.33C2379.48 1405.01 2376.82 1424.5 2377.21 1443.21C2376.9 1474.03 2377.67 1504.85 2376.98 1535.67C2371.75 1572.18 2350.92 1606.88 2318.49 1625.44C2306.16 1631.71 2293.55 1639.55 2279.14 1638.16C2203.4 1637.86 2127.61 1638.55 2051.87 1637.82C2002.41 1624.75 1961.94 1576.29 1964.86 1523.99C1965.17 1488.02 1965.09 1452.01 1964.9 1416.04C1963.33 1388.76 1976.7 1362.93 1992.84 1341.8C2007.83 1324.66 2028.54 1313.28 2049.56 1305.13" fill="#005bac" fill-rule="nonzero" opacity="1" stroke="none"/>
<path d="M1887.4 1445.52L1617.55 1445.52C1613.53 1444.72 1609.67 1443.3 1606.09 1440.87C1597.13 1434.45 1599.02 1422.03 1600.86 1412.7C1603.97 1399.55 1606.86 1384.79 1618.08 1375.88C1632.57 1362.89 1653.35 1362.7 1671.69 1363.12C1680.53 1363.17 1689.37 1363.19 1698.21 1363.22C1699.58 1363.41 1700.98 1363.52 1702.4 1363.52L1887.4 1363.52C1903.96 1363.52 1917.4 1350.08 1917.4 1333.52C1917.4 1316.95 1903.96 1303.52 1887.4 1303.52L1702.4 1303.52C1700.72 1303.52 1699.07 1303.66 1697.46 1303.93C1674.68 1303.92 1651.89 1303.9 1629.11 1303.83C1620.15 1303.98 1610.66 1303.37 1602.51 1307.82C1572 1321.5 1544.18 1346.29 1535.38 1379.53C1525.39 1417.23 1528.69 1456.54 1528.46 1495.05C1527.77 1506.23 1538.37 1512.07 1548.33 1511.54C1563.09 1511.5 1577.85 1511.49 1592.61 1511.47C1593.2 1511.5 1593.8 1511.52 1594.4 1511.52L1887.4 1511.52C1905.55 1511.52 1920.4 1496.67 1920.4 1478.52C1920.4 1460.37 1905.55 1445.52 1887.4 1445.52" fill="#f08200" fill-rule="nonzero" opacity="1" stroke="none"/>
<path d="M1468.13 1376.07C1456.14 1338.33 1421.01 1311.32 1383.62 1301.75C1288.7 1300.33 1193.7 1301.75 1098.74 1301.1C1079.68 1298.79 1063 1318.51 1063.39 1336.76C1063.47 1380.35 1063.48 1423.93 1063.48 1467.52L1063.39 1467.52L1063.39 1638.52L1134.41 1638.52L1136.36 1367.58C1141.67 1366.47 1147.16 1366.31 1152.62 1366.24C1220.64 1366.39 1288.7 1366.27 1356.76 1366.27C1384.08 1365.58 1408.37 1390.87 1408.25 1417.81C1408.25 1431.91 1409.87 1447.05 1402.45 1459.77C1394.23 1476.99 1376.35 1489.67 1356.87 1488.9C1297.88 1489.13 1238.85 1488.79 1179.83 1488.9C1157.96 1487.71 1138.75 1515.49 1150.66 1535.06C1155.16 1544.82 1163.77 1555.39 1175.68 1554.43C1241.2 1554.39 1306.72 1554.65 1372.24 1554.31C1404.99 1550.5 1437.15 1533.4 1455.02 1505.08C1468.89 1486.48 1472.2 1463.15 1476.89 1441.1C1480.69 1418.92 1473.12 1397.36 1468.13 1376.07" fill="#005bac" fill-rule="nonzero" opacity="1" stroke="none"/>
<path d="M2852.93 1301.37C2830.29 1301.17 2807.7 1300.91 2785.1 1301.79C2784.83 1379.07 2785.1 1456.35 2784.98 1533.63C2784.98 1543.59 2784.18 1554.54 2776.8 1562.07C2768.42 1573.72 2752.59 1570.79 2740.41 1569.18C2729.3 1560.46 2722.31 1547.81 2715.97 1535.52C2686.34 1476.37 2653.02 1419.12 2624.31 1359.51C2610.94 1332.99 2587.07 1311.28 2558.67 1302.17C2540.19 1300.56 2521.32 1300.29 2502.88 1302.37C2466.56 1315.93 2430.32 1349.25 2434.43 1391.21C2434.58 1471.67 2434.62 1557.91 2434.44 1638.52L2499.16 1638.52C2500.02 1562.2 2499 1479.91 2499.57 1403.63C2499.92 1384.8 2515.48 1363.24 2536.12 1366.54C2554.87 1370.92 2563.55 1389.99 2571.78 1405.47C2601.06 1464.27 2633.77 1521.26 2662.63 1580.25C2676.57 1609.49 2703.98 1632.47 2736.02 1638.43C2756.24 1638.12 2778.68 1642.74 2796.82 1631.32C2822.99 1617.6 2847.28 1594.28 2852.85 1564.3C2853.27 1476.68 2853.12 1389.02 2852.93 1301.37" fill="#005bac" fill-rule="nonzero" opacity="1" stroke="none"/>
<path d="M1004.67 1380.26C995.596 1358.36 983.032 1336.68 962.971 1323.16C945.217 1311.47 925.463 1299.25 903.29 1301.1C812.174 1301.25 721.021 1301.21 629.905 1301.17C615.301 1300.37 600.428 1314.59 601.465 1329.3C601.505 1431.06 601.581 1536.75 601.428 1638.52L666.754 1638.52C666.106 1553.38 666.679 1464.23 666.488 1379.11C665.758 1371.35 674.137 1365.54 681.284 1366.35C750.109 1366.24 818.9 1366.39 887.726 1366.27C902.214 1366.08 917.395 1371.42 927.231 1382.38C942.104 1397.63 944.217 1420.96 941.951 1441.1C939.493 1463.38 922.118 1485.27 899.556 1488.52C899.5 1488.52 899.452 1488.52 899.395 1488.52L713.395 1488.52C695.169 1488.52 680.395 1503.29 680.395 1521.52C680.395 1539.74 695.169 1550.52 713.395 1550.52L899.395 1550.52C902.154 1550.52 904.832 1550.27 907.394 1549.78C953.111 1550.06 992.489 1513.89 1005.17 1471.69C1006.13 1441.29 1006.9 1410.58 1004.67 1380.26" fill="#005bac" fill-rule="nonzero" opacity="1" stroke="none"/>
<path d="M1531.46 1573.87C1532.65 1591.55 1526.15 1612.57 1539.41 1627.06C1545.29 1634.28 1554.02 1639.78 1563.74 1638.78C1577.88 1638.74 1592.03 1638.73 1606.18 1638.72C1608.5 1639.23 1610.91 1638.52 1613.4 1638.52L1887.39 1638.52L1891.39 1638.52L1891.39 1638.28C1907.73 1636.43 1920.39 1623.39 1920.39 1606.52C1920.39 1589.65 1907.73 1575.74 1891.39 1573.77L1891.39 1573.52" fill="#005bac" fill-rule="nonzero" opacity="1" stroke="none"/>
</g>
</g>
</g>
</svg>
