<?xml version="1.0" encoding="UTF-8" standalone="no"?>
<!DOCTYPE svg PUBLIC "-//W3C//DTD SVG 1.1//EN" "http://www.w3.org/Graphics/SVG/1.1/DTD/svg11.dtd">
<!-- Created with Vectornator (http://vectornator.io/) -->
<svg height="18.0pt" stroke-miterlimit="10" style="fill-rule:nonzero;clip-rule:evenodd;stroke-linecap:round;stroke-linejoin:round;" version="1.1" viewBox="0 0 18 18" width="18.0pt" xml:space="preserve" xmlns="http://www.w3.org/2000/svg" xmlns:xlink="http://www.w3.org/1999/xlink">
<defs/>
<g id="Untitled">
<path d="M13.92 2.63C13.92 3.45 11.71 4.11 9 4.11C6.29 4.11 4.08 3.45 4.08 2.63C4.08 1.81 6.29 1.16 9 1.16C11.71 1.16 13.92 1.82 13.92 2.63" fill="#000000" fill-rule="nonzero" opacity="1" stroke="none"/>
<path d="M2.59375 2.8125L2.59375 15.1875C2.59375 16.4575 5.40625 17.48 8.90625 17.5L9 17.5C12.54 17.5 15.4062 16.5075 15.4062 15.1875L15.4062 2.8125C15.4062 4.1025 12.54 5.125 9 5.125C5.46 5.125 2.59375 4.1325 2.59375 2.8125ZM5.6875 7.9375C6.02813 7.92425 6.36801 8.00613 6.6875 8.125L6.6875 8.96875C6.39516 8.76468 6.04366 8.6715 5.6875 8.6875C5.53811 8.68022 5.40424 8.7274 5.28125 8.8125C5.18197 8.87916 5.11876 8.97433 5.125 9.09375C5.12025 9.21223 5.16852 9.32011 5.25 9.40625C5.40189 9.5368 5.56418 9.64402 5.75 9.71875C6.06357 9.84846 6.36011 10.0664 6.59375 10.3125C6.75965 10.5075 6.84856 10.744 6.84375 11C6.88346 11.3384 6.74739 11.672 6.5 11.9062C6.15455 12.1449 5.7629 12.2749 5.34375 12.25C4.97242 12.2629 4.58024 12.1703 4.25 12L4.25 11.0625C4.55045 11.3299 4.94153 11.4967 5.34375 11.5C5.50126 11.5079 5.67641 11.4547 5.8125 11.375C5.91292 11.3037 5.9688 11.1857 5.96875 11.0625C5.96824 10.939 5.90713 10.8294 5.8125 10.75C5.62163 10.6046 5.40835 10.4687 5.1875 10.375C4.5075 10.075 4.1875 9.6975 4.1875 9.1875C4.17635 8.84058 4.35012 8.49319 4.625 8.28125C4.93588 8.04101 5.29517 7.91661 5.6875 7.9375ZM9.3125 8C9.66285 7.99758 10.0077 8.07724 10.3125 8.25C10.6133 8.42726 10.8439 8.68772 11 9C11.1942 9.32142 11.3212 9.68767 11.3438 10.0625C11.3552 10.5053 11.227 10.9322 11 11.3125C10.7694 11.6783 10.4142 11.9695 10 12.0938L11.2188 13.1875L10.0312 13.1875L9.15625 12.1875C8.80269 12.175 8.45829 12.0592 8.15625 11.875C7.85878 11.7012 7.62136 11.4339 7.46875 11.125C7.31296 10.8145 7.22084 10.4723 7.21875 10.125C7.21254 9.72963 7.32297 9.35358 7.5 9C7.66806 8.68897 7.91004 8.42228 8.21875 8.25C8.54809 8.06494 8.93482 7.9917 9.3125 8ZM12 8L12.9062 8L12.9062 11.4062L14.4688 11.4062L14.4688 12.125L12 12.125L12 8ZM9.25 8.6875C8.94741 8.68647 8.65938 8.82751 8.46875 9.0625C8.25815 9.35168 8.16429 9.70551 8.1875 10.0625C8.16343 10.4196 8.25737 10.7737 8.46875 11.0625C8.64921 11.298 8.95344 11.4158 9.25 11.4062C9.54415 11.415 9.81542 11.2917 10 11.0625C10.2151 10.7721 10.3161 10.4222 10.2812 10.0625C10.3031 9.7086 10.197 9.3573 10 9.0625C9.82956 8.81922 9.54677 8.67471 9.25 8.6875Z" fill="#000000" fill-rule="nonzero" opacity="1" stroke="none"/>
</g>
</svg>
