<?xml version="1.0" encoding="UTF-8" standalone="no"?>
<!DOCTYPE svg PUBLIC "-//W3C//DTD SVG 1.1//EN" "http://www.w3.org/Graphics/SVG/1.1/DTD/svg11.dtd">
<!-- Created with Vectornator (http://vectornator.io/) -->
<svg height="409.6000061035156px" stroke-miterlimit="10" style="fill-rule:nonzero;clip-rule:evenodd;stroke-linecap:round;stroke-linejoin:round;" version="1.1" viewBox="0 0 409.6 409.6" width="409.6000061035156px" xml:space="preserve" xmlns="http://www.w3.org/2000/svg" xmlns:xlink="http://www.w3.org/1999/xlink">
<defs/>
<clipPath id="ArtboardFrame">
<rect height="409.6" width="409.6" x="0" y="0"/>
</clipPath>
<g clip-path="url(#ArtboardFrame)" id="Untitled">
<path d="M379.198 328.01C365.203 328.01 353.393 337.518 349.871 350.411L323.193 350.411L323.193 350.145C323.193 345.727 319.61 342.144 315.192 342.144C310.774 342.144 307.191 345.726 307.191 350.145L307.191 358.412C307.191 362.83 310.774 366.413 315.192 366.413L349.87 366.413C353.392 379.306 365.202 388.814 379.197 388.814C395.961 388.814 409.599 375.176 409.599 358.412C409.6 341.648 395.962 328.01 379.198 328.01ZM379.198 372.813C371.257 372.813 364.797 366.352 364.797 358.412C364.797 350.471 371.258 344.011 379.198 344.011C387.138 344.011 393.598 350.472 393.598 358.412C393.598 366.353 387.138 372.813 379.198 372.813Z" fill="#000000" fill-rule="nonzero" opacity="1" stroke="none"/>
<path d="M94.4072 43.1872L59.7288 43.1872C56.2072 30.2936 44.3976 20.7856 30.4024 20.7856C13.6384 20.7856 0 34.424 0 51.188C0 67.952 13.6384 81.5904 30.4024 81.5904C44.3968 81.5904 56.2064 72.0824 59.7288 59.1888L86.4072 59.1888C86.4072 63.6064 89.9896 67.1896 94.408 67.1896C98.8256 67.1896 102.409 63.6072 102.409 59.1888L102.409 51.188C102.408 46.7704 98.8256 43.1872 94.4072 43.1872ZM30.4024 65.5888C22.4616 65.5888 16.0016 59.128 16.0016 51.188C16.0016 43.248 22.4624 36.7872 30.4024 36.7872C38.3424 36.7872 44.8032 43.248 44.8032 51.188C44.8032 59.128 38.3432 65.5888 30.4024 65.5888Z" fill="#000000" fill-rule="nonzero" opacity="1" stroke="none"/>
<path d="M352.151 169.323L335.058 169.323C332.067 158.294 327.676 147.688 321.992 137.762L334.073 125.681C336.763 122.99 338.246 119.412 338.246 115.607C338.246 111.802 336.763 108.224 334.074 105.534L304.05 75.5104C301.359 72.82 297.781 71.3376 293.976 71.3376C290.171 71.3376 286.593 72.82 283.903 75.5096L271.822 87.5912C261.894 81.9056 251.29 77.516 240.26 74.5256L240.26 57.4328C240.26 49.5784 233.87 43.188 226.014 43.188L183.554 43.188C175.698 43.188 169.308 49.5784 169.308 57.4328L169.308 74.5688C158.295 77.5696 147.71 81.9656 137.804 87.6496L125.666 75.512C122.975 72.8216 119.397 71.3392 115.592 71.3392C111.787 71.3392 108.209 72.8216 105.519 75.5112L75.4952 105.535C72.8048 108.226 71.3224 111.804 71.3224 115.609C71.3224 119.414 72.8048 122.992 75.4944 125.682L87.6776 137.865C82.0192 147.764 77.6488 158.334 74.6688 169.325L57.4168 169.325C49.5624 169.325 43.172 175.715 43.172 183.57L43.172 226.031C43.172 233.886 49.5624 240.277 57.4168 240.277L74.712 240.277C77.7016 251.25 82.0776 261.801 87.7344 271.679L75.4952 283.919C72.8048 286.61 71.3224 290.188 71.3224 293.993C71.3224 297.798 72.8048 301.376 75.4944 304.066L105.518 334.09C108.209 336.78 111.787 338.262 115.592 338.262C119.397 338.262 122.975 336.78 125.665 334.09L137.906 321.85C147.784 327.508 158.334 331.883 169.308 334.873L169.308 352.168C169.308 360.022 175.698 366.413 183.554 366.413L226.014 366.413C233.87 366.413 240.26 360.022 240.26 352.168L240.26 334.916C251.25 331.936 261.82 327.565 271.72 321.907L283.902 334.09C286.593 336.78 290.171 338.262 293.976 338.262C297.781 338.262 301.359 336.78 304.049 334.09L334.073 304.066C336.763 301.374 338.245 297.796 338.245 293.991C338.245 290.186 336.762 286.608 334.073 283.918L321.934 271.779C327.618 261.874 332.014 251.288 335.015 240.275L352.151 240.275C360.006 240.275 366.396 233.885 366.396 226.03L366.396 183.569C366.397 175.714 360.006 169.323 352.151 169.323ZM350.395 224.275L333.665 224.275C327.188 224.275 321.526 228.634 319.896 234.878C317.146 245.401 312.954 255.496 307.44 264.88C304.163 270.456 305.078 277.552 309.663 282.138L321.517 293.992L293.975 321.534L282.078 309.637C277.5 305.058 270.411 304.138 264.841 307.402C255.462 312.891 245.381 317.059 234.878 319.79C228.625 321.415 224.258 327.079 224.258 333.563L224.258 350.412L185.308 350.412L185.308 333.523C185.308 327.046 180.948 321.385 174.705 319.754C164.218 317.013 154.154 312.839 144.794 307.35C139.218 304.082 132.127 304.998 127.545 309.579L115.59 321.534L88.0488 293.992L100.003 282.038C104.585 277.456 105.502 270.363 102.233 264.788C96.7432 255.428 92.5696 245.365 89.8288 234.876C88.196 228.634 82.5336 224.274 76.0592 224.274L59.1712 224.274L59.1712 185.324L76.02 185.324C82.504 185.324 88.168 180.958 89.7944 174.703C92.524 164.202 96.6928 154.12 102.181 144.743C105.443 139.171 104.525 132.083 99.9464 127.504L88.0496 115.607L115.591 88.0656L127.445 99.9192C132.029 104.503 139.126 105.421 144.703 102.142C154.087 96.6264 164.182 92.436 174.706 89.6864C180.949 88.056 185.308 82.3936 185.308 75.9176L185.308 59.1888L224.258 59.1888L224.258 75.8784C224.258 82.3624 228.625 88.0264 234.878 89.6528C245.416 92.392 255.528 96.5776 264.931 102.093C270.506 105.361 277.597 104.444 282.179 99.8632L293.975 88.0672L321.517 115.609L309.721 127.405C305.139 131.986 304.222 139.079 307.491 144.654C313.007 154.057 317.192 164.169 319.932 174.706C321.558 180.959 327.222 185.326 333.706 185.326L350.395 185.326L350.395 224.275Z" fill="#000000" fill-rule="nonzero" opacity="1" stroke="none"/>
<path d="M237.176 116.099C233.026 114.582 228.43 116.717 226.917 120.87C225.4 125.02 227.536 129.614 231.686 131.129C262.492 142.382 283.19 171.988 283.19 204.8C283.19 248.033 248.017 283.206 204.783 283.206C161.55 283.206 126.377 248.034 126.377 204.8C126.377 172.426 145.821 143.803 175.912 131.878C180.019 130.25 182.03 125.6 180.402 121.493C178.774 117.386 174.124 115.376 170.016 117.003C152.624 123.896 137.784 135.699 127.1 151.138C116.158 166.95 110.375 185.506 110.375 204.8C110.375 256.856 152.726 299.207 204.782 299.207C256.838 299.207 299.191 256.856 299.191 204.8C299.191 165.294 274.27 129.648 237.176 116.099Z" fill="#000000" fill-rule="nonzero" opacity="1" stroke="none"/>
<path d="M205.233 110.394L204.784 110.393C200.366 110.393 196.783 113.975 196.783 118.394C196.783 122.811 200.366 126.394 204.784 126.394L205.138 126.395C205.155 126.395 205.17 126.395 205.186 126.395C209.582 126.395 213.161 122.844 213.186 118.442C213.212 114.023 209.65 110.42 205.233 110.394Z" fill="#000000" fill-rule="nonzero" opacity="1" stroke="none"/>
<path d="M379.198 20.7856C365.203 20.7856 353.393 30.2936 349.871 43.1872L315.193 43.1872C310.775 43.1872 307.192 46.7696 307.192 51.188L307.192 59.1888C307.192 63.6064 310.774 67.1896 315.193 67.1896C319.61 67.1896 323.194 63.6072 323.194 59.1888L349.872 59.1888C353.394 72.0824 365.203 81.5904 379.198 81.5904C395.962 81.5904 409.601 67.952 409.601 51.188C409.6 34.424 395.962 20.7856 379.198 20.7856ZM379.198 65.5888C371.257 65.5888 364.797 59.128 364.797 51.188C364.797 43.248 371.258 36.7872 379.198 36.7872C387.138 36.7872 393.598 43.248 393.598 51.188C393.598 59.128 387.138 65.5888 379.198 65.5888Z" fill="#000000" fill-rule="nonzero" opacity="1" stroke="none"/>
<path d="M94.4072 342.144C89.9896 342.144 86.4064 345.726 86.4064 350.145L86.4064 350.411L59.7288 350.411C56.2072 337.518 44.3976 328.01 30.4024 328.01C13.6384 328.01 0 341.648 0 358.412C0 375.176 13.6384 388.814 30.4024 388.814C44.3968 388.814 56.2064 379.306 59.7288 366.413L94.4072 366.413C98.8248 366.413 102.408 362.83 102.408 358.412L102.408 350.145C102.408 345.727 98.8256 342.144 94.4072 342.144ZM30.4024 372.813C22.4616 372.813 16.0016 366.352 16.0016 358.412C16.0016 350.471 22.4624 344.011 30.4024 344.011C38.3424 344.011 44.8032 350.472 44.8032 358.412C44.8032 366.353 38.3432 372.813 30.4024 372.813Z" fill="#000000" fill-rule="nonzero" opacity="1" stroke="none"/>
<path d="M196.783 149.806C196.783 145.388 200.365 141.806 204.783 141.806L205.187 141.806C209.605 141.806 213.187 145.388 213.187 149.806L213.187 199.409C213.187 203.827 209.605 207.409 205.187 207.409L196.783 207.409L196.783 149.806Z" fill="#000000" fill-rule="nonzero" opacity="1" stroke="none"/>
<path d="M241.169 196.737C245.587 196.771 249.142 200.379 249.108 204.798L249.105 205.201C249.071 209.619 245.462 213.173 241.044 213.14L204.783 212.863C200.365 212.829 196.811 209.221 196.844 204.802L196.847 204.399C196.881 199.981 200.49 196.427 204.908 196.46L241.169 196.737Z" fill="#000000" fill-rule="nonzero" opacity="1" stroke="none"/>
</g>
</svg>
