<svg xmlns="http://www.w3.org/2000/svg" xmlns:xlink="http://www.w3.org/1999/xlink" viewBox="0 0 66 57" fill="#fff" fill-rule="evenodd" stroke="#000" stroke-linecap="round" stroke-linejoin="round"><use xlink:href="#A" x=".5" y=".5"/><symbol id="A" overflow="visible"><g stroke="none" fill-rule="nonzero"><path d="M58.482 34.267c-.267-.4-.6-.4-.868 0L52.07 44.274c-.267.4-.8.735-1.27.735H19.35c-.467 0-.668.334-.467.735l5.342 9.215c.267.4.8.735 1.336.735h31.452c.467 0 1.068-.334 1.27-.735l5.543-10.017c.267-.4.2-1.135 0-1.536z" fill="#16211f"/><path d="M17.747 13.824a1.82 1.82 0 0 0-1.336.735L.118 42.872c-.267.4-.067.735.467.735h11.02a1.82 1.82 0 0 0 1.336-.735l16.292-28.305c.267-.4.067-.735-.467-.735z" fill="#2261ae"/><path d="M38.85.735A1.82 1.82 0 0 0 37.514 0H25.627a1.82 1.82 0 0 0-1.336.735L18.949 9.95c-.267.4-.067.735.467.735H31.37a1.82 1.82 0 0 1 1.336.735L49.6 40.4c.267.4.6.4.868 0l5.2-9.35c.267-.4.2-1.135 0-1.536z" fill="#00bce7"/></g></symbol></svg>