<?xml version="1.0" encoding="UTF-8" standalone="no"?>
<!DOCTYPE svg PUBLIC "-//W3C//DTD SVG 1.1//EN" "http://www.w3.org/Graphics/SVG/1.1/DTD/svg11.dtd">
<!-- Created with Vectornator (http://vectornator.io/) -->
<svg height="100%" stroke-miterlimit="10" style="fill-rule:nonzero;clip-rule:evenodd;stroke-linecap:round;stroke-linejoin:round;" version="1.1" viewBox="0 0 302 302" width="100%" xml:space="preserve" xmlns="http://www.w3.org/2000/svg" xmlns:vectornator="http://vectornator.io" xmlns:xlink="http://www.w3.org/1999/xlink">
<defs/>
<g id="Untitled" vectornator:layerName="Untitled">
<g opacity="1">
<path d="M240.168 23.507C226.234 7.6248 201.046 0.815753 168.823 0.815753L75.3031 0.815753C68.7104 0.815753 63.1084 5.61039 62.0762 12.1114L23.1365 259.077C22.3623 263.946 26.1331 268.358 31.0693 268.358L88.8046 268.358L103.305 176.386L102.856 179.266C103.888 172.765 109.448 167.97 116.032 167.97L143.468 167.97C197.366 167.97 239.569 146.078 251.897 82.749C252.263 80.8761 252.58 79.0532 252.854 77.2718C251.298 76.4477 251.298 76.4477 252.854 77.2718C256.525 53.8647 252.829 37.9325 240.168 23.507" fill="#000000" fill-rule="nonzero" opacity="1" stroke="none"/>
<path d="M254.897 85.749C242.569 149.07 197.366 170.97 143.468 170.97L116.024 170.97C109.44 170.97 106.879 172.765 105.856 179.266L87.8174 293.621C87.1432 297.883 87.4395 301.745 91.7513 301.745L140.422 301.745C146.182 301.745 151.085 297.55 151.984 291.865L152.458 289.384L161.631 231.249L162.222 228.036C163.121 222.351 168.024 218.156 173.784 218.156L181.068 218.156C228.215 218.156 265.132 199.002 275.92 143.606C280.423 120.457 278.093 101.128 266.181 87.552C262.568 83.4399 261.082 83.0437 255.854 80.2718C255.571 82.0615 254.897 85.749 254.897 85.749Z" fill="#000000" fill-rule="nonzero" opacity="1" stroke="none"/>
</g>
</g>
</svg>
