<?xml version="1.0" encoding="UTF-8"?>
<svg width="100px" height="100px" viewBox="0 0 100 100" version="1.1" xmlns="http://www.w3.org/2000/svg" xmlns:xlink="http://www.w3.org/1999/xlink">
    <title>awscognito-original</title>
    <g id="awscognito-original" stroke="none" stroke-width="1" fill="none" fill-rule="evenodd">
        <g id="aws-cognito" transform="translate(7.000000, 0.000000)" fill-rule="nonzero">
            <path d="M69.8853124,19.4374718 L78.5128435,17.2158934 L78.5771207,17.3106353 L78.7950603,69.4042382 L78.5128435,69.6874593 L76.7351791,69.7634536 L69.9864149,68.7129243 L69.8853124,68.4471115 L69.8853124,19.4374718 M19.9878448,73.3063958 L20.0196486,73.3087392 L42.7935053,79.9262709 L42.8514217,79.9707962 L42.9505156,80.0498035 L42.9183771,99.8792989 L42.8514217,99.9636626 L19.9878448,88.8564402 L19.9878448,73.3063958" id="Shape" fill="#7A3E65"></path>
            <polyline id="Path" fill="#CFB2C1" points="69.8853124 68.4471115 42.8889167 74.9123198 29.3344764 71.6405468 19.9878448 73.3063958 42.8514217 79.9707962 78.1385632 70.4172726 78.5128435 69.6874593 69.8853124 68.4471115"></polyline>
            <polyline id="Path" fill="#512843" points="65.7149986 26.6569321 65.4950503 26.4061843 43.0971478 19.8981246 42.8514217 19.9928664 42.6264517 19.878038 7.3824965 30.0408553 7.18999987 30.2762033 7.47288621 30.4312049 15.532636 31.6129668 15.817531 31.5162163 42.8139267 25.0513429 56.368367 28.3231159 65.7149986 26.6569321"></polyline>
            <polyline id="Path" fill="#C17B9E" points="15.817531 80.5261908 7.18999987 82.6088369 7.17493492 82.5589551 6.83513654 30.6598575 7.18999987 30.2762033 15.817531 31.5162163 15.817531 80.5261908"></polyline>
            <polyline id="Path" fill="#7A3E65" points="27.4650831 60.3947268 42.8514217 62.1995082 42.9669197 62.0270981 43.0295229 37.9610032 42.8514217 37.7638197 27.4650831 39.5689358 27.4650831 60.3947268"></polyline>
            <path d="M58.2377603,60.3947268 L42.8514217,62.1995082 L42.8514217,37.7638197 L58.2377603,39.5689358 L58.2377603,60.3947268 M65.7149986,26.6569321 L42.8514217,19.9928664 L42.8514217,0 L65.7149986,11.1068876 L65.7149986,26.6569321" id="Shape" fill="#C17B9E"></path>
            <polyline id="Path" fill="#7A3E65" points="42.8514217 0 0 20.6868586 0 79.2764693 7.18999987 82.6088369 7.18999987 30.2762033 42.8514217 19.9928664 42.8514217 0"></polyline>
            <polyline id="Path" fill="#C17B9E" points="78.5128435 17.2158934 78.5128435 69.6874593 42.8514217 79.9707962 42.8514217 99.9636626 85.7028434 79.2764693 85.7028434 20.6868586 78.5128435 17.2158934"></polyline>
        </g>
    </g>
</svg>