<svg xmlns="http://www.w3.org/2000/svg" xmlns:xlink="http://www.w3.org/1999/xlink" viewBox="0 0 58.225 65.612" fill="#fff" fill-rule="evenodd" stroke="#000" stroke-linecap="round" stroke-linejoin="round"><use xlink:href="#B" x="1.112" y="1.112"/><defs><linearGradient id="A" x1="50.00%" x2="50.00%" y1="-0.00%" y2="100.00%"><stop offset="0%" stop-color="#def5fd"/><stop offset="100%" stop-color="#bae7fa"/></linearGradient></defs><symbol id="B" overflow="visible"><g stroke="none"><path d="M55.709 27.116c0 14.951-12.497 27.08-27.855 27.08C12.459 54.196 0 42.067 0 27.116 0 12.13 12.459 0 27.855 0c15.36 0 27.855 12.13 27.855 27.116z" fill="url(#A)" opacity=".2"/><path d="M27.854 3.991c14.052 0 25.484 11.4 25.484 25.484 0 14.052-11.432 25.45-25.484 25.45-14.085 0-25.484-11.4-25.484-25.45 0-14.086 11.399-25.484 25.484-25.484z" fill="#2799eb"/><path d="M22.351 54.336a25.44 25.44 0 0 1-19.98-24.86c-.019-11.963 8.297-22.324 19.98-24.895 11.69 2.568 20.017 12.925 20.014 24.894 0 12.185-8.582 22.372-20.014 24.86z" fill="#47c6ff"/><path d="M27.854 57.119H7.414c-3.44.92-5.437 3.18-5.895 6.88h52.67c-.46-3.7-2.49-5.96-5.93-6.88z" fill="#2c3337"/><path d="M27.854 51.649h-13.66c-2.948.164-6.584 1.867-6.78 5.503H48.26c-.164-3.636-3.832-5.34-6.78-5.503z" fill="#40494c"/><path d="M16.971 14.769c.68 2.237 2.43 3.987 4.667 4.667 2.332.78 2.332 1.556 0 2.328-2.237.68-3.987 2.43-4.667 4.667-.78 2.332-1.556 2.332-2.328 0-.68-2.237-2.43-3.987-4.667-4.667-2.332-.78-2.332-1.556 0-2.328 2.237-.68 3.987-2.43 4.667-4.667.772-2.34 1.548-2.34 2.328 0z" fill-rule="nonzero"/></g></symbol></svg>