<?xml version="1.0" encoding="UTF-8" standalone="no"?>
<!-- Created with Inkscape (http://www.inkscape.org/) -->

<svg
   xmlns:dc="http://purl.org/dc/elements/1.1/"
   xmlns:cc="http://creativecommons.org/ns#"
   xmlns:rdf="http://www.w3.org/1999/02/22-rdf-syntax-ns#"
   xmlns:svg="http://www.w3.org/2000/svg"
   xmlns="http://www.w3.org/2000/svg"
   xmlns:sodipodi="http://sodipodi.sourceforge.net/DTD/sodipodi-0.dtd"
   xmlns:inkscape="http://www.inkscape.org/namespaces/inkscape"
   width="229.50772mm"
   height="35.24572mm"
   viewBox="0 0 229.50772 35.24572"
   version="1.1"
   id="svg13667"
   inkscape:version="0.92.3 (2405546, 2018-03-11)"
   sodipodi:docname="cxf.svg">
  <defs
     id="defs13661" />
  <sodipodi:namedview
     id="base"
     pagecolor="#ffffff"
     bordercolor="#666666"
     borderopacity="1.0"
     inkscape:pageopacity="0.0"
     inkscape:pageshadow="2"
     inkscape:zoom="0.35"
     inkscape:cx="-398.57143"
     inkscape:cy="-40.379314"
     inkscape:document-units="mm"
     inkscape:current-layer="layer1"
     showgrid="false"
     fit-margin-top="0"
     fit-margin-left="0"
     fit-margin-right="0"
     fit-margin-bottom="0"
     inkscape:window-width="3726"
     inkscape:window-height="2049"
     inkscape:window-x="114"
     inkscape:window-y="55"
     inkscape:window-maximized="1" />
  <metadata
     id="metadata13664">
    <rdf:RDF>
      <cc:Work
         rdf:about="">
        <dc:format>image/svg+xml</dc:format>
        <dc:type
           rdf:resource="http://purl.org/dc/dcmitype/StillImage" />
        <dc:title></dc:title>
      </cc:Work>
    </rdf:RDF>
  </metadata>
  <g
     inkscape:label="Layer 1"
     inkscape:groupmode="layer"
     id="layer1"
     transform="translate(14.363094,-102.90392)">
    <g
       aria-label="Apache CXF"
       style="font-style:normal;font-variant:normal;font-weight:normal;font-stretch:normal;font-size:37.69595718px;line-height:125%;font-family:Montserrat;-inkscape-font-specification:Montserrat;letter-spacing:0px;word-spacing:0px;fill:#1b4171;fill-opacity:1;stroke:none;stroke-width:1.37076199px;stroke-linecap:butt;stroke-linejoin:miter;stroke-opacity:1"
       id="text14214">
      <path
         d="m -6.9746867,124.84297 -2.638717,5.99365 H -14.363094 L -2.7527395,104.48715 H 1.9969511 L 13.607306,130.83662 H 8.8576153 l -2.638717,-5.99365 z m 11.384179,-4.10886 -4.78738651,-10.85644 -4.78738659,10.85644 z"
         style="stroke-width:1.37076199px;fill:#1b4171;fill-opacity:1"
         id="path14216" />
      <path
         d="m 27.411094,110.48081 q 4.033468,0 6.898361,2.7895 2.864892,2.7895 2.864892,7.4261 0,4.6366 -2.864892,7.53919 -2.827197,2.90259 -6.634489,2.90259 -3.769596,0 -6.785272,-3.31724 v 10.32869 h -4.221947 v -27.36727 h 4.221947 v 3.50573 q 2.487933,-3.80729 6.5214,-3.80729 z m -6.596792,10.36639 q 0,2.86489 1.734014,4.71199 1.734014,1.80941 4.221947,1.80941 2.487933,0 4.335035,-1.80941 1.847102,-1.80941 1.847102,-4.6743 0,-2.90259 -1.809406,-4.78739 -1.809406,-1.92249 -4.335035,-1.92249 -2.525629,0 -4.259643,1.92249 -1.734014,1.8848 -1.734014,4.7497 z"
         style="stroke-width:1.37076199px;fill:#1b4171;fill-opacity:1"
         id="path14218" />
      <path
         d="m 58.241675,130.83662 h -3.844987 v -2.67641 q -2.487934,2.97798 -6.672185,2.97798 -3.128764,0 -5.202042,-1.77171 -2.035582,-1.77171 -2.035582,-4.71199 0,-2.97798 2.186366,-4.44813 2.186365,-1.47014 5.918265,-1.47014 h 5.465914 v -0.75392 q 0,-3.99577 -4.448123,-3.99577 -2.789501,0 -5.805177,2.03558 l -1.884798,-2.63871 q 3.656508,-2.90259 8.29311,-2.90259 3.54342,0 5.767482,1.8094 2.261757,1.77171 2.261757,5.6167 z m -4.221947,-7.4638 v -1.69631 h -4.749691 q -4.56121,0 -4.56121,2.86489 0,1.47014 1.130878,2.26176 1.130879,0.75392 3.128765,0.75392 2.035582,0 3.54342,-1.13088 1.507838,-1.13088 1.507838,-3.05338 z"
         style="stroke-width:1.37076199px;fill:#1b4171;fill-opacity:1"
         id="path14220" />
      <path
         d="m 73.052062,131.13819 q -4.184251,0 -7.199928,-2.82719 -3.015676,-2.8649 -3.015676,-7.4638 0,-4.59891 3.128764,-7.4638 3.166461,-2.90259 7.689975,-2.90259 4.523515,0 7.65228,3.12876 l -2.487933,3.05337 q -2.601021,-2.26175 -5.239738,-2.26175 -2.638717,0 -4.598907,1.77171 -1.922494,1.73401 -1.922494,4.52351 0,2.75181 1.922494,4.6743 1.922494,1.92249 4.711994,1.92249 2.827197,0 5.31513,-2.56332 l 2.487934,2.71411 q -3.656508,3.6942 -8.443895,3.6942 z"
         style="stroke-width:1.37076199px;fill:#1b4171;fill-opacity:1"
         id="path14222" />
      <path
         d="m 90.097116,119.98019 v 10.85643 h -4.221947 v -27.9327 h 4.221947 v 11.53496 q 0.904703,-1.8471 2.714109,-2.90259 1.847102,-1.05548 3.958076,-1.05548 3.392639,0 5.465909,2.07327 2.11098,2.07328 2.11098,5.99366 v 12.28888 h -4.22195 V 119.8294 q 0,-5.5413 -4.598906,-5.5413 -2.186366,0 -3.807292,1.47014 -1.620926,1.43245 -1.620926,4.22195 z"
         style="stroke-width:1.37076199px;fill:#1b4171;fill-opacity:1"
         id="path14224" />
      <path
         d="M 128.90452,122.6566 H 113.1853 q 0.15079,2.18637 1.99789,3.54342 1.8471,1.31936 4.22195,1.31936 3.76959,0 5.72978,-2.37485 l 2.41254,2.63872 q -3.24185,3.35494 -8.44389,3.35494 -4.22195,0 -7.19993,-2.7895 -2.94028,-2.8272 -2.94028,-7.53919 0,-4.74969 3.01567,-7.53919 3.01568,-2.7895 7.08684,-2.7895 4.10886,0 6.97376,2.48793 2.86489,2.45024 2.86489,6.78527 z m -15.71922,-3.31724 h 11.49727 q 0,-2.52563 -1.58323,-3.88269 -1.58323,-1.35705 -3.92038,-1.35705 -2.29945,0 -4.14655,1.43245 -1.84711,1.39475 -1.84711,3.80729 z"
         style="stroke-width:1.37076199px;fill:#1b4171;fill-opacity:1"
         id="path14226" />
      <path
         d="m 156.44612,126.80316 q 2.29946,0 3.95808,-0.75392 1.65862,-0.79162 3.46803,-2.48794 l 2.86489,2.94029 q -4.18425,4.6366 -10.17791,4.6366 -5.95596,0 -9.91403,-3.84499 -3.92038,-3.84498 -3.92038,-9.72555 0,-5.88057 3.99577,-9.80095 4.03347,-3.92038 10.14021,-3.92038 6.14444,0 10.2533,4.52351 l -2.8272,3.09107 q -1.88479,-1.8094 -3.58111,-2.52563 -1.65862,-0.71622 -3.92038,-0.71622 -3.99577,0 -6.70988,2.60102 -2.71411,2.56333 -2.71411,6.59679 0,3.99577 2.67641,6.70988 2.71411,2.67642 6.40831,2.67642 z"
         style="stroke-width:1.37076199px;fill:#1b4171;fill-opacity:1"
         id="path14228" />
      <path
         d="m 187.78383,130.83662 -6.4837,-9.91403 h -0.18848 l -6.48371,9.91403 h -5.5413 l 9.04703,-13.53284 -8.4062,-12.81663 h 5.50361 l 5.88057,8.89625 h 0.18848 l 5.88057,-8.89625 h 5.50361 l -8.4062,12.81663 9.04703,13.53284 z"
         style="stroke-width:1.37076199px;fill:#1b4171;fill-opacity:1"
         id="path14230" />
      <path
         d="m 202.02643,108.63371 v 7.23762 h 11.68575 v 4.10886 h -11.68575 v 10.85643 h -4.44812 v -26.34947 h 17.56632 l -0.0377,4.14656 z"
         style="stroke-width:1.37076199px;fill:#1b4171;fill-opacity:1"
         id="path14232" />
    </g>
  </g>
</svg>
