<?xml version="1.0" encoding="UTF-8"?>
<svg width="128px" height="128px" viewBox="0 0 128 128" version="1.1" xmlns="http://www.w3.org/2000/svg" xmlns:xlink="http://www.w3.org/1999/xlink">
    <title>resteasy-plain</title>
    <g id="resteasy-plain" stroke="none" stroke-width="1" fill="none" fill-rule="evenodd">
        <g id="resteasy_logo_600x" transform="translate(2.079199, 23.034965)">
            <path d="M118.552147,1.0464374 L92.762818,1.0464374 C90.26201,1.0464374 89.4284073,1.93175292 89.4284073,4.38084808 L89.4284073,10.2158531 L95.4202604,10.2158531 L95.4202604,7.97574624 C95.4202604,7.24621035 95.8367412,6.82930217 96.5662771,6.82930217 L102.244861,6.82930217 L102.206397,38.3378164 L107.163139,44.581182 L108.948728,45.5077396 L109.071172,45.5077396 L109.069676,6.82930217 L114.74826,6.82930217 C115.478224,6.82930217 115.894918,7.24621035 115.894918,7.97574624 L115.894918,10.2158531 L121.886558,10.2158531 L121.886558,4.38084808 C121.887199,1.93175292 121.052955,1.0464374 118.552147,1.0464374 Z" id="Path" fill="#000000"></path>
            <path d="M11.1340768,6.40854758 L7.74731219,6.40854758 L7.74731219,0.625682805 L24.3150851,0.625682805 C31.0879733,0.625682805 35.8293155,4.79348247 35.8293155,11.7749316 C35.8293155,18.4435392 31.244394,21.2052621 29.6814691,21.5176761 L29.6814691,21.6213155 C29.6814691,21.6213155 30.8274858,22.1425042 31.5050952,23.4975092 L35.0995659,30.6351653 C35.6728948,31.7290417 36.5588514,31.8335359 37.7048681,31.8335359 L38.3820501,31.8335359 L38.3820501,37.6166144 L34.7871519,37.6166144 C32.0256427,37.6166144 30.8272721,37.1992788 29.6293289,34.8551052 L24.888414,25.5296962 C24.1069516,24.0706244 23.3250618,23.8099232 21.3975826,23.8099232 L17.9586778,23.8099232 L17.9586778,37.6166144 L11.1340768,37.6166144 L11.1340768,6.40854758 Z M23.3774157,17.9742771 C26.8163205,17.9742771 28.8476528,15.8384508 28.8476528,12.1396995 C28.8476528,8.4926611 26.8163205,6.40854758 23.4819098,6.40854758 L17.9586778,6.40854758 L17.9586778,17.9742771 L23.3774157,17.9742771 Z" id="Shape" fill="#000000" fill-rule="nonzero"></path>
            <path d="M39.4863973,6.40854758 L36.099419,6.40854758 L36.099419,0.625682805 L58.4506978,0.625682805 C60.8991519,0.625682805 61.9934558,1.71934558 61.9934558,4.16865442 L61.9934558,9.79552588 L55.7934691,9.79552588 L55.7934691,7.55435058 C55.7934691,6.82545576 55.3767746,6.40854758 54.647025,6.40854758 L46.3114257,6.40854758 L46.3114257,16.0991519 L58.2947045,16.0991519 L58.2947045,21.8822304 L46.3114257,21.8822304 L46.3114257,30.6870918 C46.3114257,31.4168414 46.7283339,31.8337496 47.4576561,31.8337496 L56.0018164,31.8337496 C56.7315659,31.8337496 57.1482604,31.4166277 57.1482604,30.6870918 L57.1482604,28.446985 L63.3482471,28.446985 L63.3482471,34.0740701 C63.3482471,36.5746644 62.2543706,37.616828 59.8052755,37.616828 L43.0291553,37.616828 C40.5283472,37.616828 39.4861836,36.5746644 39.4861836,34.0740701 L39.4861836,6.40854758 L39.4863973,6.40854758 Z" id="Path" fill="#000000"></path>
            <path d="M89.128601,27.3526811 C89.128601,15.213409 71.7276528,16.4641336 71.7276528,10.1598664 C71.7276528,7.81547913 74.0198998,6.20020033 77.1455359,6.20020033 C79.5942037,6.20020033 82.0430851,7.34643072 82.0430851,9.06577629 L82.0430851,10.7329816 L88.1909316,10.7329816 L88.1909316,7.29429048 C88.1909316,2.03197329 81.5221102,-3.55271368e-15 77.1978898,-3.55271368e-15 C70.0604474,-3.55271368e-15 64.8500568,4.42871452 64.8500568,10.4201402 C64.8500568,21.9341569 82.2522871,21.4129683 82.2522871,27.7172354 C82.2522871,30.5825977 79.7512654,32.0940234 76.9380434,32.0940234 C71.7802204,32.0940234 67.9765476,27.7172354 67.9765476,27.7172354 L64.1215893,32.5109316 C64.1215893,32.5109316 68.6533022,38.2412287 76.8335492,38.2412287 C84.5962471,38.2412287 89.128601,33.2398264 89.128601,27.3526811 Z" id="Path" fill="#000000"></path>
            <path d="M3.38655092,38.2903773 L0,38.2903773 L0,32.5075125 L22.3510651,32.5075125 C24.7997329,32.5075125 25.8940367,33.601389 25.8940367,36.0504841 L25.8940367,41.6775693 L19.6940501,41.6775693 L19.6940501,39.4366077 C19.6940501,38.7077129 19.2769282,38.2908047 18.547606,38.2908047 L10.2115793,38.2908047 L10.2115793,47.9818364 L22.1948581,47.9818364 L22.1948581,53.7647012 L10.211793,53.7647012 L10.211793,62.5691352 C10.211793,63.2986711 10.6287012,63.7160067 11.3582371,63.7160067 L19.9023973,63.7160067 C20.6317195,63.7160067 21.048414,63.2986711 21.048414,62.5691352 L21.048414,62.6285409 L27.2484007,62.6285409 L27.2484007,65.9561135 C27.2484007,68.4562805 26.1543105,69.497803 23.7056427,69.497803 L6.92952254,69.497803 C4.42850083,69.497803 3.38655092,68.4562805 3.38655092,65.9561135 L3.38655092,38.2903773 Z" id="Path" fill="#000000"></path>
            <path d="M44.2856494,52.8259633 L45.1192521,52.8259633 L45.1192521,52.6184708 C45.1192521,48.8143706 43.6086811,47.4076528 40.2221302,47.4076528 C39.0237596,47.4076528 36.6789449,47.7202805 36.6789449,49.1795659 L36.6789449,50.5858564 L30.5315259,50.5858564 L30.5315259,47.7724207 C30.5315259,42.8231586 37.5123339,42.3017563 40.2736294,42.3017563 C49.1308447,42.3017563 51.7361469,46.9390317 51.7361469,52.8787446 L51.7361469,62.7772688 C51.7361469,63.5072321 52.1528414,63.9232855 52.8819499,63.9232855 L54.9660634,63.9232855 L54.9660634,69.4975893 L49.026778,69.4975893 C46.5785376,69.4975893 45.6408681,68.1432254 45.6408681,66.5805142 C45.6408681,65.9039733 45.6927947,65.4342838 45.6927947,65.4342838 L45.5880868,65.4342838 C45.5880868,65.4342838 43.5561135,70.1230584 37.5646878,70.1230584 C32.823773,70.1230584 28.49998,67.153202 28.49998,61.839813 C28.49998,53.5035726 39.9610017,52.8259633 44.2856494,52.8259633 Z M39.1801803,64.9656628 C42.7229382,64.9656628 45.2237462,61.2141302 45.2237462,57.9842137 L45.2237462,57.3587446 L44.0777295,57.3587446 C40.6388247,57.3587446 35.1685876,57.8282204 35.1685876,61.5271853 C35.1685876,63.2984574 36.4708114,64.9656628 39.1801803,64.9656628 Z" id="Shape" fill="#000000" fill-rule="nonzero"></path>
            <path d="M58.8227312,61.0583506 C58.8227312,61.0583506 62.2086411,64.9656628 66.7416361,64.9656628 C68.7736093,64.9656628 70.3367479,64.1327012 70.3367479,62.3601469 C70.3367479,58.6090417 56.3219232,58.6616093 56.3219232,50.0653088 C56.3219232,44.7506377 61.1149783,42.3017563 66.6382104,42.3017563 C70.2320401,42.3017563 75.963192,43.5003406 75.963192,47.8245609 L75.963192,50.5858564 L70.1286144,50.5858564 L70.1286144,49.2838464 C70.1286144,48.0329082 68.2526344,47.4074391 66.7942037,47.4074391 C64.4498164,47.4074391 62.8345376,48.2414691 62.8345376,49.804394 C62.8345376,53.9728347 76.953429,53.138591 76.953429,61.9958063 C76.953429,66.996995 72.5253556,70.1228447 66.7416361,70.1228447 C59.4482003,70.1228447 55.6968815,65.382571 55.6968815,65.382571 L58.8227312,61.0583506 Z" id="Path" fill="#000000"></path>
            <polygon id="Path" fill="#FFFFFF" points="67.1042671 79.6474124 67.9660768 83.7534558 73.9416895 80.8970684 81.6614357 75.4567479 88.4236394 68.6022304 87.1023973 60.6790518 80.1538564 64.9325409 80.5585843 62.516995 73.1330885 70.4576962"></polygon>
            <path d="M64.6363673,83.9075259 L65.6881469,75.0783038 C65.6881469,75.0783038 76.1360668,70.8098564 81.626177,59.1199733" id="Path" fill="#FFFFFF"></path>
            <path d="M63.9942304,83.831025 L65.0910985,74.6222905 L65.4436861,74.4793322 C65.4436861,74.4784775 65.5870718,74.4207813 65.8723472,74.2863706 L65.8723472,74.2863706 C66.157409,74.1519599 66.575813,73.9451085 67.0959332,73.6609015 L67.0959332,73.6609015 C68.136601,73.091419 69.5862705,72.2108047 71.2047546,70.9692688 L71.2047546,70.9692688 C74.443005,68.4870518 78.3509583,64.5726878 81.0415225,58.8451686 L81.0415225,58.8451686 L82.2110451,59.3941369 C77.1895559,70.0653623 68.1782705,74.6481469 66.2866912,75.5193589 L66.2866912,75.5193589 L65.2782905,83.9833856 L65.2782905,83.9842404 L63.9942304,83.831025 L63.9942304,83.831025 Z" id="Path" fill="#000000"></path>
            <path d="M21.1834658,67.5038664 L20.9259699,70.2625977 C20.9259699,70.2625977 37.3642471,87.9197596 67.9658631,83.7534558 L66.02599,74.3259032 C66.02599,74.3259032 45.093823,77.0493756 25.5474324,70.0525409 L21.1834658,67.5038664 Z" id="Path" fill="#000000"></path>
            <path d="M98.2533556,56.139005 L86.0839533,65.0812688 C84.8375025,65.9885943 83.1243539,67.6632788 83.1243539,67.6632788 L83.0326811,67.5987446 C83.0326811,67.5987446 84.0096694,65.4120601 84.3827713,63.8959332 L82.4208013,53.9650351 C78.9208013,51.9650351 83.9208013,44.9650351 84.9208013,43.4650351 L82.5437596,41.9211753 L79.0851953,46.8877462 L79.7745576,47.3676928 C80.4179766,47.8160134 81.1389649,48.3598531 80.9344641,49.2419633 L75.9901169,72.120414 L70.4916728,76.016187 C68.1195058,77.3301636 64.0414558,80.9987846 52.2842604,80.2329215 C35.22201,79.1215225 20.9298164,70.2886678 20.9298164,70.2886678 C20.9298164,70.2886678 31.2999533,79.8425109 47.2546511,82.844207 C64.6910718,86.1251953 68.8875058,84.56398 77.6312521,78.5909316 L100.813783,63.2503773 C101.570671,62.7533356 102.034164,62.8706511 102.724594,63.3514524 L103.414598,63.8311853 L106.873589,58.8658965 L102.917983,56.1105843 C101.30826,54.9895693 99.9265442,54.9145643 98.2533556,56.139005 Z" id="Path" fill="#000000"></path>
            <path d="M98.6484674,40.8221703 C97.8507646,40.4345376 97.0248548,40.1437062 96.1861235,39.9428381 L99.1252087,41.4222104 L98.6484674,40.8221703 Z" id="Path" fill="#FFFFFF"></path>
            <path d="M103.449429,53.803379 L100.196648,51.6906311 L102.832508,47.6305309 L88.7234457,40.5296294 C86.6457429,41.3858831 84.7806611,42.8255092 83.4008681,44.8066244 C79.5709115,50.3050684 80.9246344,57.868394 86.4230785,61.6970684 C91.9210952,65.5268114 99.4837796,64.1743706 103.31395,58.6744307 C104.968761,56.2986311 105.653636,53.5377629 105.456614,50.8585242 L103.449429,53.803379 Z" id="Path"></path>
            <path d="M100.196861,51.6906311 L103.449643,53.803379 L105.456828,50.8585242 C105.19805,47.3375626 103.41417,43.9589182 100.29174,41.7850551 C99.7617896,41.4157997 99.2115392,41.0959065 98.6486811,40.8221703 L99.1252087,41.4222104 L96.1861235,39.9428381 C93.6859566,39.3440801 91.0697563,39.5626845 88.7236594,40.5296294 L102.832721,47.6305309 L100.196861,51.6906311 Z" id="Path" fill="#FFFFFF"></path>
            <path d="M97.8112321,39.7669716 C96.6684207,39.3413022 95.4875726,39.0814558 94.3018097,38.9944841 L99.124995,41.4222104 L97.8112321,39.7669716 Z" id="Path" fill="#000000"></path>
            <path d="M104.843112,51.7581569 C104.842471,54.0213422 104.174477,56.3044007 102.783573,58.3051753 L102.782718,58.3051753 C100.549235,61.5117997 96.9789115,63.2262304 93.3453356,63.2281536 C91.0793723,63.2281536 88.7939633,62.560374 86.7927613,61.1664775 C83.5848548,58.9332087 81.8695693,55.3628848 81.8689282,51.7293088 C81.8689282,49.4627045 82.5354257,47.1772955 83.9297496,45.1763072 C85.3542037,43.1315125 87.3227112,41.6959466 89.5034124,40.9219633 L87.9751052,40.1526811 C85.9888614,41.0730417 84.2109649,42.511813 82.8702771,44.4367279 C81.3195326,46.6593122 80.5752521,49.2090551 80.5752521,51.7288815 C80.5752521,55.7671853 82.4886277,59.7437329 86.0536093,62.2274457 C88.2755526,63.7747713 90.8261503,64.5207613 93.3455492,64.5207613 C93.3466177,64.5207613 93.3478998,64.5207613 93.3487546,64.5207613 C97.3857763,64.5207613 101.361469,62.6082404 103.844327,59.0436861 C105.391653,56.8202471 106.137643,54.2707179 106.137643,51.7515326 C106.137643,51.1767078 106.094477,50.603379 106.017549,50.0349649 L104.843112,51.7581569 Z" id="Path" fill="#000000"></path>
            <path d="M93.3662771,40.2531152 C95.6335225,40.2531152 97.9185042,40.9200401 99.921202,42.3152187 C103.127826,44.5480601 104.842471,48.1173155 104.843753,51.7517462 C104.843753,51.7538831 104.843112,51.75602 104.843112,51.7579432 L106.017549,50.0351786 C105.555766,46.6123005 103.717823,43.3834524 100.66014,41.2540367 C99.7568748,40.6247212 98.7978364,40.1347312 97.8112321,39.7669716 L99.124995,41.4222104 L94.3018097,38.9944841 C93.989823,38.9714057 93.6780501,38.9598661 93.3662771,38.9598661 C91.5091018,38.9594391 89.6668848,39.3688681 87.9751052,40.1526811 L89.5034124,40.9219633 C90.7421703,40.4817629 92.0497362,40.2535426 93.3662771,40.2531152 Z" id="Path" fill="#D2CBAE"></path>
            <path d="M89.0576561,51.4803606 C87.080601,50.7388581 86.7130551,49.2626912 86.1053222,48.3771619 C86.1615225,49.6073723 86.9261035,51.8006811 88.5723673,52.4178164 C90.2184174,53.0347379 92.2367145,51.8827379 93.087626,50.9920801 C92.0467446,51.2606878 90.8090551,52.1353189 89.0576561,51.4803606 Z" id="Path" fill="#000000"></path>
            <polygon id="Path" fill="#AFAFAF" points="100.813997 63.6053155 100.985589 63.5822371"></polygon>
            <polyline id="Path" fill="#FFFFFF" points="83.4008681 44.8066244 78.7947913 51.9436394 83.737429 54.6465977"></polyline>
            <polygon id="Path" fill="#000000" points="77.8746444 52.1765609 82.8574558 44.4563873 83.9434257 45.1572888 79.7149382 51.7094357 84.0481336 54.0796795 83.4262972 55.2137295"></polygon>
            <path d="M83.4927546,58.9588514 C83.4927546,58.9588514 89.8367679,61.1966077 94.3834391,55.9804474" id="Path" fill="#FFFFFF"></path>
            <path d="M86.7489549,60.081576 C84.7404875,60.0807212 83.3277863,59.5851753 83.278424,59.5680801 L83.278424,59.5680801 L83.7075125,58.3481269 C83.7075125,58.3481269 83.7682003,58.3703506 83.911586,58.41202 L83.911586,58.41202 C84.0539032,58.4524073 84.2669516,58.5073255 84.5376962,58.5635259 L84.5376962,58.5635259 C85.0789716,58.6763539 85.8510317,58.789182 86.7491686,58.789182 L86.7491686,58.789182 C88.8497362,58.7825576 91.5890217,58.193202 93.8960134,55.554778 L93.8960134,55.554778 L94.8706511,56.4044073 C92.2929149,59.3663573 89.1170618,60.0817896 86.7837863,60.0817896 L86.7837863,60.0817896 C86.7724608,60.081576 86.7607078,60.081576 86.7489549,60.081576 L86.7489549,60.081576 Z" id="Shape" fill="#000000" fill-rule="nonzero"></path>
            <path d="M95.9720067,56.8266578 C95.9720067,56.8266578 93.5224841,56.1310985 93.2166945,54.2675125" id="Path" fill="#FFFFFF"></path>
            <path d="M94.3657028,56.7946043 C93.6421503,56.3403005 92.7833322,55.5797796 92.5796861,54.3715793 L92.5796861,54.3715793 L93.8547713,54.1623773 C93.9755058,55.1393656 95.1734491,55.8415492 95.8256294,56.0881469 L95.8256294,56.0881469 C96.0337629,56.1727679 96.1478731,56.2046077 96.1478731,56.2046077 L96.1478731,56.2046077 L96.1491553,56.2046077 L95.7957129,57.4484942 C95.7606678,57.4371686 95.100581,57.2521135 94.3657028,56.7946043 L94.3657028,56.7946043 Z" id="Path" fill="#000000"></path>
            <polygon id="Path" fill="#000000" points="106.935987 45.0224508 98.0398798 33.8161469 95.0016427 36.2282738 99.124995 41.4222104 87.9494624 35.7970484 86.2055426 39.2622371 102.832721 47.6305309 100.196861 51.6906311 103.449429 53.803379 108.781409 45.9799933"></polygon>
            <path d="M98.2533556,56.139005 L86.0839533,65.0812688 C84.8375025,65.9885943 83.1243539,67.6632788 83.1243539,67.6632788 L83.0326811,67.5987446 C83.0326811,67.5987446 84.0096694,65.4120601 84.3827713,63.8959332 L75.9901169,72.120414 L70.4916728,76.016187 C68.1195058,77.3301636 64.0414558,80.9987846 52.2842604,80.2329215 C35.22201,79.1215225 20.9370818,70.281616 20.9370818,70.281616 C20.9370818,70.281616 31.6822437,80.8703573 46.6714925,83.5102771 C64.1446678,86.5878331 68.8877195,84.56398 77.6314658,78.5909316 L100.813997,63.2503773 C101.570885,62.7533356 102.034377,62.8706511 102.724808,63.3514524 L103.414811,63.8311853 L106.873803,58.8658965 L102.918197,56.1105843 C101.30826,54.9895693 99.9265442,54.9145643 98.2533556,56.139005 Z" id="Path" fill="#000000"></path>
            <path d="M21.747606,68.1340367 C21.747606,68.1340367 22.0557462,65.8223439 21.0539699,64.5893556 C20.0521937,63.3563673 20.9776828,59.1182638 21.3625376,59.1182638 C21.7473923,59.1182638 22.9028114,60.2745376 23.7507312,63.3563673 C24.5986511,66.438197 24.8298631,69.0582437 25.5232855,70.5220167" id="Path" fill="#000000"></path>
            <path d="M24.838197,68.6629182 C24.838197,68.6629182 25.7602671,65.7755459 24.7602003,63.9688013 C23.7609883,62.1631252 25.9122003,56.9512387 26.4053957,57.0392788 C26.8977362,57.1271052 28.1121336,58.8708114 28.4925008,63.0080534 C28.8728681,67.1455092 28.5700701,70.5515058 29.1228848,72.5830518 L24.6426711,70.4615426 L24.838197,68.6629182 Z" id="Path" fill="#000000"></path>
            <path d="M83.4760868,57.7555659 L81.8689282,56.760414 L80.1538564,64.9325409 L86.3376027,61.9851219 L88.4238531,68.6022304 L94.1573556,64.3664775 L95.4194057,63.4266711 L92.4642938,63.3185442 C90.4859566,63.1700301 88.5223639,62.5069516 86.774384,61.2902037 C85.3909583,60.3266778 84.2870384,59.11399 83.4760868,57.7555659 Z" id="Path" fill="#000000"></path>
        </g>
    </g>
</svg>