<?xml version="1.0" encoding="UTF-8" standalone="no"?>
<!DOCTYPE svg PUBLIC "-//W3C//DTD SVG 1.1//EN" "http://www.w3.org/Graphics/SVG/1.1/DTD/svg11.dtd">
<!-- Created with Vectornator (http://vectornator.io/) -->
<svg height="31.0pt" stroke-miterlimit="10" style="fill-rule:nonzero;clip-rule:evenodd;stroke-linecap:round;stroke-linejoin:round;" version="1.1" viewBox="0 0 31 31" width="31.0pt" xml:space="preserve" xmlns="http://www.w3.org/2000/svg" xmlns:xlink="http://www.w3.org/1999/xlink">
<defs/>
<g id="Untitled">
<path d="M4.5 0.5L26.5 0.5C28.7091 0.5 30.5 2.29086 30.5 4.5L30.5 26.5C30.5 28.7091 28.7091 30.5 26.5 30.5L4.5 30.5C2.29086 30.5 0.5 28.7091 0.5 26.5L0.5 4.5C0.5 2.29086 2.29086 0.5 4.5 0.5Z" fill="#625bf8" fill-rule="nonzero" opacity="1" stroke="none"/>
<path d="M12.2 7.7L20.6 7.7L23 7.7L23 13.1L20.6 13.1L20.6 10.1L12.2 10.1L12.2 14.3L17.6 14.3L17.6 16.7L12.2 16.7L12.2 20.9L14 20.9L14 23.3L12.2 23.3L9.8 23.3L8 23.3L8 20.9L9.8 20.9L9.8 16.7L8 16.7L8 14.3L9.8 14.3L9.8 10.1L8 10.1L8 7.7L9.8 7.7L12.2 7.7Z" fill="#ffffff" fill-rule="evenodd" opacity="1" stroke="none"/>
</g>
</svg>
