<?xml version="1.0" encoding="UTF-8"?>
<svg width="32px" height="32px" viewBox="0 0 32 32" version="1.1" xmlns="http://www.w3.org/2000/svg" xmlns:xlink="http://www.w3.org/1999/xlink">
    <title>jsf-plain</title>
    <g id="jsf-plain" stroke="none" stroke-width="1" fill="none" fill-rule="evenodd">
        <g id="JSF-black">
            <rect id="Rectangle-path" x="0" y="0" width="32" height="32"></rect>
            <g id="Group" transform="translate(2.785714, 4.571448)" fill="#000000">
                <g transform="translate(2.342858, 2.177544)" id="Shape">
                    <path d="M1.7042166,11.3992396 C8.95211321,14.1685658 16.5411277,10.5615236 16.4649424,1.35692187 L22.9681451,0.280836934 C24.6250033,17.8454747 10.1765685,21.2888095 0.1159938,19.5606349 C0.4372074,16.1214099 0.801661292,13.5486696 1.7042166,11.3992396 Z"></path>
                </g>
                <g id="Shape">
                    <path d="M25.774296,0.21785723 C26.2650105,0.311428696 26.3450105,1.08357186 25.7900103,1.20857191 L7.43143154,4.03285876 C3.77071579,9.39143233 1.24785764,15.7285777 1.2142858,22.1457231 C1.2142858,22.1457231 1.18642905,22.3878661 1.05357185,22.510009 C0.770000308,22.772152 0.242142954,22.5771519 0.2142858,22.1400089 C0.215714372,21.9121516 0.215714372,21.9121516 0.219285802,21.6842944 C0.387857298,15.1364346 3.02714407,8.70714634 6.65928838,3.39071564 C6.65928838,3.39071564 6.81428844,3.13357268 7.06714568,3.07714409 L25.7064389,0.2142858 C25.729296,0.215714372 25.7514389,0.216428658 25.774296,0.21785723 Z"></path>
                </g>
                <g transform="translate(4.051194, 3.761423)" id="Shape">
                    <path d="M0.517989507,8.52219637 C0.517989507,8.52219637 2.55868955,3.62791302 3.63358157,2.35536227 C4.79969588,2.50245653 5.46185488,1.83558802 5.60283478,1.17613603 L13.3962804,0 C13.8536676,2.03521594 11.5220769,11.7520896 0.517989507,8.52219637 Z"></path>
                </g>
                <g transform="translate(5.714288, 2.142858)" id="Oval">
                    <circle cx="1.428572" cy="1.428572" r="1.428572"></circle>
                </g>
            </g>
        </g>
    </g>
</svg>