<?xml version="1.0" encoding="iso-8859-1"?>
<!-- Generator: Adobe Illustrator 19.0.0, SVG Export Plug-In . SVG Version: 6.00 Build 0)  -->
<svg xmlns="http://www.w3.org/2000/svg" xmlns:xlink="http://www.w3.org/1999/xlink" version="1.1" id="Capa_1" x="0px" y="0px" viewBox="0 0 496 496" style="enable-background:new 0 0 496 496;" xml:space="preserve" width="512px" height="512px">
<g>
	<g>
		<g>
			<path d="M456,112h-8V0H48v112h-8c-22.056,0-40,17.944-40,40v256c0,22.056,17.944,40,40,40h80v32H88v16h320v-16h-32v-32h80     c22.056,0,40-17.944,40-40V152C496,129.944,478.056,112,456,112z M64,16h368v48H64V16z M64,80h368v240h-30.064l-11.04-11.048     c2.176-4.16,3.976-8.496,5.376-12.952H416v-48h-19.728c-1.408-4.464-3.2-8.8-5.376-12.952l13.96-13.96l-33.944-33.936     l-13.96,13.96c-4.16-2.176-8.488-3.976-12.952-5.384V176h-48v19.728c-4.464,1.408-8.792,3.2-12.952,5.384l-13.96-13.96     l-33.944,33.936l13.96,13.96c-2.176,4.16-3.976,8.496-5.376,12.952H224v48h19.728c1.408,4.464,3.2,8.8,5.376,12.952L238.064,320     H64V80z M382.224,322.912l-11.32,11.312l-11.496-11.496L354,326.136c-6.12,3.848-12.776,6.616-19.792,8.216L328,335.776V352h-16     v-16.224l-6.224-1.416c-7.008-1.6-13.672-4.368-19.792-8.216l-5.408-3.408l-11.496,11.496l-11.32-11.312l11.496-11.496     l-3.4-5.408c-3.856-6.128-6.624-12.784-8.216-19.792L256.232,280H240v-16h16.232l1.416-6.224     c1.592-7.008,4.36-13.664,8.216-19.792l3.4-5.408l-11.496-11.496l11.32-11.312l11.496,11.496l5.408-3.408     c6.12-3.848,12.776-6.616,19.792-8.216l6.216-1.416V192h16v16.224l6.224,1.416c7.008,1.6,13.672,4.368,19.792,8.216l5.408,3.408     l11.496-11.496l11.32,11.312l-11.496,11.496l3.4,5.408c3.856,6.128,6.624,12.784,8.216,19.792l1.408,6.224H400v16h-16.232     l-1.416,6.224c-1.592,7.008-4.36,13.664-8.216,19.792l-3.4,5.408L382.224,322.912z M360,480H136v-32h224V480z M480,408     c0,13.232-10.768,24-24,24H40c-13.232,0-24-10.768-24-24v-8h464V408z M480,384H16V152c0-13.232,10.768-24,24-24h8v208h200v-0.232     l21.088,21.088l13.96-13.96c4.16,2.176,8.488,3.976,12.952,5.384V368h48v-19.728c4.464-1.408,8.792-3.2,12.952-5.384l13.96,13.96     L392,335.768V336h56V128h8c13.232,0,24,10.768,24,24V384z" fill="#000000"/>
			<rect x="80" y="32" width="16" height="16" fill="#000000"/>
			<rect x="112" y="32" width="16" height="16" fill="#000000"/>
			<rect x="144" y="32" width="16" height="16" fill="#000000"/>
			<path d="M320,240c-17.648,0-32,14.352-32,32s14.352,32,32,32s32-14.352,32-32S337.648,240,320,240z M320,288     c-8.824,0-16-7.176-16-16c0-8.824,7.176-16,16-16c8.824,0,16,7.176,16,16C336,280.824,328.824,288,320,288z" fill="#000000"/>
			<path d="M80,304h128V96H80V304z M96,112h96v176H96V112z" fill="#000000"/>
			<rect x="112" y="128" width="64" height="16" fill="#000000"/>
			<rect x="112" y="160" width="64" height="16" fill="#000000"/>
			<rect x="112" y="192" width="64" height="16" fill="#000000"/>
			<rect x="112" y="224" width="64" height="16" fill="#000000"/>
			<rect x="160" y="256" width="16" height="16" fill="#000000"/>
			<rect x="112" y="256" width="32" height="16" fill="#000000"/>
			<rect x="224" y="96" width="16" height="16" fill="#000000"/>
			<rect x="256" y="96" width="160" height="16" fill="#000000"/>
			<rect x="224" y="128" width="160" height="16" fill="#000000"/>
			<rect x="400" y="128" width="16" height="16" fill="#000000"/>
		</g>
	</g>
</g>
<g>
</g>
<g>
</g>
<g>
</g>
<g>
</g>
<g>
</g>
<g>
</g>
<g>
</g>
<g>
</g>
<g>
</g>
<g>
</g>
<g>
</g>
<g>
</g>
<g>
</g>
<g>
</g>
<g>
</g>
</svg>
