<?xml version="1.0" encoding="UTF-8"?>
<svg width="32px" height="32px" viewBox="0 0 32 32" version="1.1" xmlns="http://www.w3.org/2000/svg" xmlns:xlink="http://www.w3.org/1999/xlink">
    <title>dotnetcoreframework</title>
    <g id="dotnetcoreframework" stroke="none" stroke-width="1" fill="none" fill-rule="evenodd">
        <g id="netframework" transform="translate(0.492308, 0.000000)" fill="#000000" fill-rule="nonzero">
            <path d="M15.7538462,0 C24.4544551,0 31.5076923,7.05323717 31.5076923,15.7538462 C31.5076923,24.4544551 24.4544551,31.5076923 15.7538462,31.5076923 C7.05323717,31.5076923 0,24.4544551 0,15.7538462 C0,7.05323717 7.05323717,0 15.7538462,0 Z M9.18153846,20.9821538 C9.03058638,20.9845702 8.88099709,21.0111638 8.73846154,21.0609231 C8.60556112,21.1016317 8.48066036,21.1649147 8.36923077,21.248 L8.36923077,21.248 L8.36923077,21.5138462 C8.5930468,21.3109544 8.88437104,21.1986366 9.18646154,21.1987692 C9.58358974,21.1987692 9.78215385,21.4629744 9.78215385,21.9913846 L9.78215385,21.9913846 L9.024,22.1046154 C8.45620513,22.1932308 8.17230769,22.4525128 8.17230769,22.8824615 C8.16876896,23.0683709 8.24385222,23.2471405 8.37907692,23.3747692 C8.5308869,23.5118786 8.73112308,23.5827586 8.93538462,23.5716923 C9.11107571,23.5713223 9.28259917,23.51815 9.42769231,23.4190769 C9.57735211,23.3185958 9.69655545,23.1789576 9.77230769,23.0153846 L9.77230769,23.0153846 L9.77230769,23.5076923 L9.97415385,23.5027692 L9.97415385,21.9027692 C9.99339386,21.6568179 9.91960299,21.4126053 9.76738462,21.2184615 C9.61694708,21.0565103 9.40224106,20.9699062 9.18153846,20.9821538 Z M22.0898462,20.9870769 C21.7667323,20.9742361 21.4534309,21.0995567 21.2283077,21.3316923 C20.7996999,21.8853016 20.7996999,22.6586984 21.2283077,23.2123077 C21.4451794,23.4515036 21.7574602,23.5814702 22.08,23.5667692 C22.3977047,23.5784061 22.7042188,23.4485883 22.9169231,23.2123077 C23.1325443,22.9515846 23.2431401,22.6197973 23.2270769,22.2818462 C23.247097,21.9381827 23.1382656,21.5994011 22.9218462,21.3316923 C22.7100546,21.0981064 22.4047753,20.9716593 22.0898462,20.9870769 Z M15.9556923,20.9673846 C15.6466175,20.958406 15.3512767,21.0951378 15.1581538,21.3366154 C14.9512352,21.5922798 14.8429283,21.9137067 14.8529231,22.2424615 C14.8266598,22.5958558 14.9318526,22.9464982 15.1483077,23.2270769 C15.3407648,23.4492743 15.622435,23.5738592 15.9163077,23.5667692 C16.2217627,23.5692941 16.5200813,23.4744529 16.768,23.296 L16.768,23.296 L16.768,23.0596923 C16.5411001,23.249756 16.2565045,23.357347 15.9606154,23.3649231 C15.7126577,23.3766825 15.4736643,23.2708686 15.3156923,23.0793846 C15.1467299,22.8509068 15.0631213,22.5704697 15.0793846,22.2867692 L15.0793846,22.2867692 L16.9058462,22.2670769 L16.9058704,22.0126765 C16.8917094,21.7539459 16.8070597,21.5029084 16.6596923,21.2873846 C16.4918657,21.0715155 16.2286852,20.9518879 15.9556923,20.9673846 Z M11.84,20.9870769 C11.5130483,20.9857299 11.2167604,21.1793821 11.0867692,21.4793846 L11.0867692,21.4793846 L11.0867692,21.0707692 L10.8652308,21.0707692 L10.8652308,23.5323077 L11.0867692,23.5323077 L11.0867692,22.1144615 C11.077203,21.8810646 11.1485007,21.6515205 11.2886154,21.4646154 C11.4037977,21.307801 11.5863559,21.2146963 11.7809231,21.2135385 C12.1977436,21.2135385 12.4061538,21.4875897 12.4061538,22.0356923 L12.4061538,22.0356923 L12.4061538,23.5126154 L12.6276923,23.5126154 L12.6276923,22.0701538 C12.6203822,21.8430096 12.6955834,21.6209036 12.8393846,21.4449231 C12.9570356,21.2910417 13.1380498,21.1987245 13.3316923,21.1938462 C13.5070814,21.1779958 13.6793603,21.2476405 13.7944615,21.3809231 C13.9101437,21.5768809 13.9617754,21.8040606 13.9421538,22.0307692 L13.9421538,22.0307692 L13.9421538,23.5076923 L14.1636923,23.4978462 L14.1636923,21.9766154 C14.1636923,21.3202051 13.8945641,20.992 13.3563077,20.992 C13.1889167,20.9918665 13.0255717,21.0434491 12.8886154,21.1396923 C12.7415504,21.2433373 12.6271202,21.386802 12.5587692,21.5532308 C12.520177,21.392796 12.4302961,21.2493321 12.3027692,21.1446154 C12.1722822,21.0385121 12.0081219,20.9826278 11.84,20.9870769 Z M17.5852308,21.056 L17.3390769,21.056 L18.0824615,23.5175385 L18.2892308,23.5175385 L18.8898462,21.6566154 C18.9118936,21.5908346 18.928362,21.523314 18.9390769,21.4547692 L18.9390769,21.4547692 L18.9552118,21.5588315 L18.9552118,21.5588315 L18.9784615,21.6615385 L19.5150769,23.5076923 L19.7218462,23.5076923 L20.4553846,21.056 L20.2289231,21.056 L19.6430769,23.0252308 C19.6209271,23.0921257 19.6076851,23.1616466 19.6036923,23.232 L19.6036923,23.232 L19.5903558,23.1279663 L19.5903558,23.1279663 L19.5692308,23.0252308 L19.0129231,21.056 L18.8603077,21.056 L18.2350769,23.0252308 C18.2133782,23.0924848 18.1985335,23.16176 18.1907692,23.232 L18.1907692,23.232 L18.1780574,23.1278622 L18.1780574,23.1278622 L18.1563077,23.0252308 L17.5852308,21.056 Z M7.45353846,20.9969231 C7.29779064,20.9953069 7.14696261,21.051429 7.03015385,21.1544615 C6.90076823,21.2715138 6.80837262,21.4237955 6.76430769,21.5926154 L6.76430769,21.5926154 L6.76430769,21.0461538 L6.54769231,21.0461538 L6.54769231,23.5076923 L6.76430769,23.5076923 L6.76409892,22.1730583 C6.77736603,21.9370642 6.84446734,21.706389 6.96123077,21.4990769 C7.0598023,21.3181199 7.24753256,21.2036044 7.45353846,21.1987692 C7.54672211,21.1962708 7.63822646,21.2238948 7.71446154,21.2775385 L7.71446154,21.2775385 L7.69969231,21.0412308 C7.62125024,21.0107821 7.53767451,20.9957385 7.45353846,20.9969231 Z M25.9544615,19.8646154 L25.7329231,19.8646154 L25.7329231,23.5076923 L25.9544615,23.5076923 L25.9544615,22.2916923 L27.1310769,23.5076923 L27.4510769,23.5076923 L26.1907692,22.2375385 L27.3624615,21.0461538 L27.0769231,21.0461538 L25.9544615,22.2129231 L25.9544615,19.8646154 Z M24.8910769,21.0116923 C24.7353291,21.0100762 24.5845011,21.0661982 24.4676923,21.1692308 C24.3370843,21.2809913 24.2413816,21.4279632 24.192,21.5926154 L24.192,21.5926154 L24.192,21.0461538 L23.9753846,21.0461538 L23.9753846,23.5076923 L24.1870769,23.5076923 L24.1870769,22.3507692 C24.1696885,22.053862 24.2380457,21.758217 24.384,21.4990769 C24.4817985,21.3173856 24.6700027,21.2025811 24.8763077,21.1987692 C24.9694913,21.1962708 25.0609957,21.2238948 25.1372308,21.2775385 L25.1372308,21.2775385 L25.1372308,21.056 C25.0587887,21.0255514 24.975213,21.0105077 24.8910769,21.0116923 Z M5.79938462,20.0369231 L4.18953846,20.0369231 L4.18953846,23.4830769 L4.43076923,23.4830769 L4.43076923,21.8781538 L5.70584615,21.8781538 L5.70584615,21.6615385 L4.43076923,21.6615385 L4.43076923,20.2781538 L5.79938462,20.2535385 L5.79938462,20.0369231 Z M22.0947692,21.1692308 C22.347807,21.1673974 22.5882478,21.2794826 22.7495385,21.4744615 C23.0676952,21.9639185 23.0676952,22.5948507 22.7495385,23.0843077 C22.5788542,23.2820532 22.3260439,23.3893612 22.0652308,23.3747692 C21.8024393,23.3866961 21.5485988,23.2779073 21.376,23.0793846 C21.1996357,22.8597279 21.1102651,22.5828543 21.1249231,22.3015385 C21.107401,22.0061791 21.2004102,21.7148672 21.3858462,21.4843077 C21.5608377,21.2861919 21.8159075,21.1776515 22.08,21.1889231 L22.08,21.1889231 Z M9.78215385,22.1833846 L9.78215385,22.4246154 C9.79188423,22.6727747 9.70747727,22.9154447 9.54584615,23.104 C9.39724871,23.274127 9.18091274,23.3696754 8.95507692,23.3649231 C8.80685393,23.3731013 8.66151022,23.3216993 8.55138462,23.2221538 C8.34944618,23.0078752 8.34944618,22.6733556 8.55138462,22.4590769 C8.71473604,22.3567063 8.90065492,22.2958601 9.09292308,22.2818462 L9.09292308,22.2818462 L9.78215385,22.1833846 Z M15.9409231,21.1692308 C16.1460068,21.1652819 16.3403703,21.26063 16.4627692,21.4252308 C16.601581,21.6168001 16.6741701,21.8483939 16.6695385,22.0849231 L16.6695385,22.0849231 L15.0892308,22.0652308 C15.1063558,21.8186741 15.2050868,21.5848376 15.3698462,21.4006154 C15.5195641,21.2471575 15.726612,21.1632674 15.9409231,21.1692308 Z M3.64307692,16.9353846 C3.45641405,16.9331149 3.2775284,17.0100357 3.15076923,17.1470769 C3.02030316,17.2775468 2.94759661,17.4548798 2.94892308,17.6393846 C2.94647335,17.8241048 3.01935201,18.0018576 3.15076923,18.1316923 C3.27875192,18.2664052 3.45728519,18.3413892 3.64307692,18.3384615 C3.82852207,18.3396188 4.00638039,18.2649183 4.13538462,18.1316923 C4.26909836,18.0030221 4.34389103,17.8249443 4.34215385,17.6393846 C4.3427409,17.4540529 4.26813037,17.2764088 4.13538462,17.1470769 C4.00756105,17.0115496 3.82937323,16.9349288 3.64307692,16.9353846 Z M7.56184615,9.24061538 L6.19815385,9.24061538 L6.19815385,18.2153846 L7.24676923,18.2153846 L7.24676923,11.7267692 C7.25782418,11.315874 7.2413772,10.9046995 7.19753846,10.496 L7.19753846,10.496 L7.23692308,10.496 C7.31183347,10.6927166 7.40755672,10.8808623 7.52246154,11.0572308 L7.52246154,11.0572308 L12.1353846,18.2153846 L13.4252308,18.2153846 L13.4252308,9.24061538 L12.3766154,9.24061538 L12.3766154,15.552 C12.3672831,15.9927475 12.3886682,16.4336097 12.4406154,16.8713846 L12.4406154,16.8713846 L12.416,16.8713846 C12.3602051,16.7630769 12.2387692,16.5628718 12.0516923,16.2707692 L12.0516923,16.2707692 L7.56184615,9.24061538 Z M20.3027692,9.24061538 L15.7538462,9.24061538 L15.7538462,18.2153846 L20.5243077,18.2153846 L20.5292308,17.2307692 L16.8270769,17.2307692 L16.8270769,14.1193846 L20.0664615,14.1193846 L20.0664615,13.1741538 L16.8270769,13.1741538 L16.8270769,10.1907692 L20.3027692,10.1907692 L20.3027692,9.24061538 Z M27.5692308,9.24061538 L21.3316923,9.24061538 L21.3316923,10.1907692 L23.9113846,10.1907692 L23.9113846,18.2153846 L24.9649231,18.2153846 L24.9649231,10.1907692 L27.5692308,10.1907692 L27.5692308,9.24061538 Z" id="Oval-2"></path>
        </g>
    </g>
</svg>