<?xml version="1.0" encoding="UTF-8" standalone="no"?>
<!DOCTYPE svg PUBLIC "-//W3C//DTD SVG 1.1//EN" "http://www.w3.org/Graphics/SVG/1.1/DTD/svg11.dtd">
<!-- Created with Vectornator (http://vectornator.io/) -->
<svg height="100%" stroke-miterlimit="10" style="fill-rule:nonzero;clip-rule:evenodd;stroke-linecap:round;stroke-linejoin:round;" version="1.1" viewBox="0 0 32.1738 28" width="100%" xml:space="preserve" xmlns="http://www.w3.org/2000/svg" xmlns:vectornator="http://vectornator.io" xmlns:xlink="http://www.w3.org/1999/xlink">
<defs>
<linearGradient gradientTransform="matrix(1 0 0 1 0 0)" gradientUnits="userSpaceOnUse" id="LinearGradient" x1="0.297082" x2="20.0258" y1="1.99999" y2="1.99999">
<stop offset="0" stop-color="#6500ff"/>
<stop offset="0.16" stop-color="#6a09ff"/>
<stop offset="0.43" stop-color="#7623ff"/>
<stop offset="0.77" stop-color="#8a4cff"/>
<stop offset="0.99" stop-color="#996bff"/>
</linearGradient>
<linearGradient gradientTransform="matrix(1 0 0 1 0 0)" gradientUnits="userSpaceOnUse" id="LinearGradient_2" x1="13.0042" x2="13.0042" y1="28.0034" y2="-6.63372e-14">
<stop offset="0" stop-color="#6500ff"/>
<stop offset="0.16" stop-color="#6909ff"/>
<stop offset="0.43" stop-color="#7523ff"/>
<stop offset="0.77" stop-color="#894cff"/>
<stop offset="0.99" stop-color="#976bff"/>
</linearGradient>
<linearGradient gradientTransform="matrix(1 0 0 1 0 0)" gradientUnits="userSpaceOnUse" id="LinearGradient_3" x1="26.9854" x2="26.9854" y1="10.0255" y2="0">
<stop offset="0" stop-color="#ff6e06"/>
<stop offset="0.28" stop-color="#ff770c"/>
<stop offset="0.75" stop-color="#ff911c"/>
<stop offset="1" stop-color="#ffa126"/>
</linearGradient>
<linearGradient gradientTransform="matrix(1 0 0 1 0 0)" gradientUnits="userSpaceOnUse" id="LinearGradient_4" x1="4600.08" x2="4600.08" y1="4197.2" y2="2458.61">
<stop offset="0" stop-color="#ff6e06"/>
<stop offset="0.28" stop-color="#ff770c"/>
<stop offset="0.75" stop-color="#ff911c"/>
<stop offset="1" stop-color="#ffa126"/>
</linearGradient>
</defs>
<clipPath id="ArtboardFrame">
<rect height="28" width="32.1738" x="0" y="0"/>
</clipPath>
<g clip-path="url(#ArtboardFrame)" id="扶뒬못" vectornator:layerName="扶뒬못">
<g opacity="1" vectornator:layerName="logo">
<g opacity="1" vectornator:layerName="text">
<path d="M48.7405 5.2915C48.5197 4.72751 47.9759 4.3564 47.3702 4.3564C46.7646 4.3564 46.2208 4.72751 46 5.2915L40.0915 20.224C40.3032 20.7668 40.8336 21.1176 41.416 21.1C41.9979 21.115 42.5263 20.7625 42.736 20.2195L44.236 16.1845L50.464 16.1845L51.964 20.2195C52.1825 20.7697 52.7145 21.1308 53.3065 21.1308C53.8985 21.1308 54.4305 20.7697 54.649 20.2195L48.7405 5.2915ZM44.875 14.3245L47.3125 7.7755L47.38 7.7755L49.8175 14.3245L44.875 14.3245Z" fill="#000000" fill-rule="nonzero" opacity="1" stroke="none" vectornator:layerName="path"/>
<path d="M63.616 8.8675C61.711 8.8675 60.3625 9.5605 59.6155 10.885L59.5705 10.885L59.5705 8.992C59.394 8.49573 58.9242 8.16425 58.3975 8.16425C57.8708 8.16425 57.401 8.49573 57.2245 8.992L57.2245 20.23C57.3727 20.7872 57.8772 21.175 58.4537 21.175C59.0303 21.175 59.5348 20.7872 59.683 20.23L59.683 13.741C59.683 11.971 60.907 10.792 62.7655 10.792C64.5655 10.792 65.542 11.7445 65.542 13.4515L65.542 20.23C65.6902 20.7872 66.1947 21.175 66.7712 21.175C67.3478 21.175 67.8523 20.7872 68.0005 20.23L68.0005 13.03C68.002 10.4395 66.3355 8.8675 63.616 8.8675Z" fill="#000000" fill-rule="nonzero" opacity="1" stroke="none" vectornator:layerName="path"/>
<path d="M77.164 19.2175C77.005 19.2385 76.5865 19.27 76.3255 19.27C75.2935 19.27 74.818 18.82 74.818 17.842L74.818 11.5555L77.176 11.5555C77.4674 11.3565 77.6418 11.0264 77.6418 10.6735C77.6418 10.3206 77.4674 9.9905 77.176 9.7915L77.176 9.7795L74.818 9.7795L74.818 7.2625L74.809 7.2625C74.5698 6.81087 74.1006 6.52843 73.5895 6.52843C73.0784 6.52843 72.6092 6.81087 72.37 7.2625L72.37 9.787L70.669 9.787L70.669 9.8035C70.3814 10.0031 70.2098 10.3309 70.2098 10.681C70.2098 11.0311 70.3814 11.3589 70.669 11.5585L72.37 11.5585L72.37 18.0655C72.37 20.239 73.3225 21.097 75.7825 21.097C76.246 21.1014 76.709 21.0632 77.1655 20.983C77.4531 20.7818 77.6245 20.4528 77.6245 20.1017C77.6245 19.7507 77.4531 19.4217 77.1655 19.2205L77.164 19.2175Z" fill="#000000" fill-rule="nonzero" opacity="1" stroke="none" vectornator:layerName="path"/>
<path d="M93.9085 5.041C93.6916 4.48469 93.1556 4.1184 92.5585 4.1184C91.9614 4.1184 91.4254 4.48469 91.2085 5.041L86.7325 17.365L86.665 17.365L82.21 5.041L82.219 5.041C81.9917 4.47983 81.4467 4.11261 80.8413 4.11261C80.2358 4.11261 79.6908 4.47983 79.4635 5.041L85.3 19.9735C85.402 20.5915 85.9855 21.067 86.692 21.067C87.3985 21.067 87.9805 20.593 88.084 19.9735L93.9085 5.041Z" fill="#000000" fill-rule="nonzero" opacity="1" stroke="none" vectornator:layerName="path"/>
</g>
<g opacity="1" vectornator:layerName="Shape">
<path d="M1.96144 0.00379394C1.93279 0.00379394 1.90413 0.00379394 1.87376 0.00597764C1.82629 0.00725147 1.80317 0.00888925 1.78006 0.010891C1.73258 0.0152584 1.7045 0.0186249 1.67661 0.0226284C1.63449 0.0291795 1.61271 0.03291 1.59093 0.0370954C1.53907 0.0471951 1.51213 0.0529273 1.48548 0.0594784C1.4531 0.0676673 1.42903 0.0742184 1.40525 0.0810425C1.36007 0.0949636 1.34096 0.101151 1.32186 0.10752C1.27506 0.123716 1.2508 0.132814 1.22673 0.142459C1.18432 0.16002 1.1677 0.167117 1.15108 0.174396L1.12242 0.187225C1.10332 0.196324 1.08421 0.205423 1.06511 0.214521L1.03388 0.230899C1.01812 0.239361 1.00236 0.247823 0.986882 0.256558L0.955935 0.274573L0.91725 0.298321L0.888595 0.316883C0.869492 0.329439 0.850388 0.342268 0.831285 0.35537L0.797758 0.380756L0.767384 0.403412L0.734717 0.428797L0.706062 0.452545C0.686959 0.468013 0.668715 0.483845 0.651331 0.500041L0.627834 0.521332C0.616563 0.531704 0.605483 0.542259 0.594594 0.552996L0.574249 0.573195C0.550942 0.59667 0.528305 0.62069 0.506336 0.645257C0.488856 0.665183 0.477967 0.67774 0.467365 0.690569L0.451891 0.709403C0.441289 0.722506 0.430686 0.7367 0.420657 0.74871C0.392766 0.785924 0.37309 0.81322 0.354177 0.840699L0.343288 0.856803C0.333737 0.871179 0.324185 0.885737 0.314633 0.900477L0.304317 0.917401L0.296294 0.931049L4.08049 3.14535L4.88169 4C4.79793 3.8733 4.79076 3.71385 4.86284 3.5808C4.93491 3.44774 5.07549 3.36092 5.23242 3.35253L18.1261 3.35253C18.1716 3.35581 18.2172 3.35799 18.2636 3.35799C19.2247 3.34438 19.9972 2.59973 20 1.6841C20.0028 0.768461 19.235 0.0195165 18.2739 0.000545926L1.96144 0.00379394Z" fill="url(#LinearGradient)" fill-rule="nonzero" opacity="1" stroke="none" vectornator:layerName="path"/>
<path d="M22.7438 11.3152L16.3509 22.3257C16.275 22.4547 16.1378 22.536 15.9876 22.5409C15.8374 22.5459 15.6951 22.4739 15.6108 22.3501L11.5485 15.3553C11.5152 15.2756 11.4759 15.1985 11.431 15.1247L4.67293 3.45884C4.28425 2.75991 4.28255 1.91174 4.66843 1.21127C5.05431 0.510808 5.77401 0.0556169 6.57558 0.00506221L1.98726 0.000850295C1.70028-0.00773775 1.41511 0.0488237 1.15341 0.166238C1.11086 0.185707 1.07726 0.20218 1.04413 0.219589C0.95546 0.268541 0.934752 0.281177 0.914233 0.294281L0.814837 0.361671C0.763727 0.399953 0.748102 0.412308 0.732666 0.42485C0.693227 0.457797 0.679108 0.470152 0.665178 0.482694C0.629599 0.514985 0.611526 0.532394 0.594019 0.550084C0.559381 0.585184 0.543756 0.601844 0.528508 0.618879C0.501965 0.648363 0.48474 0.668861 0.467797 0.689639C0.436736 0.727547 0.420923 0.748325 0.405392 0.769385C0.385908 0.79578 0.370095 0.819086 0.354565 0.842672C0.327457 0.88423 0.312491 0.908378 0.29809 0.933369C-0.0900333 1.5294-0.0819328 2.25297 0.269005 2.83323L0.435324 3.12188L14.309 27.0175C14.4453 27.2688 14.6373 27.4859 14.8706 27.6524C14.9088 27.6792 14.9399 27.6999 14.9717 27.7198C15.0597 27.7702 15.0811 27.7817 15.1028 27.7928L15.2101 27.8436C15.2693 27.8685 15.2881 27.8758 15.3069 27.8829C15.3554 27.9 15.3732 27.906 15.3911 27.9118C15.4371 27.9262 15.4611 27.9329 15.4854 27.9393C15.5336 27.9512 15.5559 27.9564 15.5783 27.9613C15.617 27.9694 15.6435 27.9739 15.67 27.9781C15.7186 27.9851 15.7446 27.9888 15.7709 27.9913C15.8042 27.9941 15.8324 27.9961 15.8607 27.9978C15.9101 27.9978 15.9383 28 15.9665 28C16.0055 28 16.0292 28 16.0527 27.9983C16.1029 27.9969 16.1286 27.9949 16.1552 27.9921C16.1882 27.9893 16.2164 27.9857 16.2424 27.9817C16.2893 27.9744 16.3133 27.9702 16.337 27.9655C16.374 27.9582 16.3997 27.952 16.4254 27.9458C16.4709 27.9339 16.4917 27.928 16.5124 27.9217C16.5536 27.909 16.5773 27.9009 16.601 27.8925C16.6464 27.876 16.6634 27.8692 16.6804 27.8621C16.7264 27.8428 16.7479 27.8332 16.7691 27.8239L16.8402 27.7883C16.8973 27.7574 16.9128 27.7487 16.9277 27.7397C17.0143 27.685 17.0367 27.6698 17.0588 27.6541C17.0797 27.6391 17.1047 27.6203 17.1339 27.5976C17.1766 27.5639 17.2177 27.5285 17.2573 27.4912C17.3085 27.4427 17.3481 27.4013 17.3858 27.3581C17.4284 27.3092 17.4653 27.2624 17.5001 27.2138C17.5353 27.1645 17.5681 27.1136 17.5984 27.061L17.974 26.4217L18.0558 26.2813L25.7359 13.0558C26.0704 12.5242 26.0884 11.8539 25.7828 11.3053C25.4772 10.7567 24.8962 10.4163 24.2656 10.4164C23.6317 10.4179 23.048 10.7619 22.7438 11.3152Z" fill="url(#LinearGradient_2)" fill-rule="nonzero" opacity="1" stroke="none" vectornator:layerName="path"/>
<path d="M30.1437 0L23.6848 0C22.7494 0.0183223 22 0.847165 22 1.86331C22 2.87946 22.7494 3.7083 23.6848 3.72662C23.73 3.72662 23.7743 3.7242 23.8187 3.72056L26.7433 3.72056C26.9575 3.7525 27.1172 3.95132 27.1173 4.18624C27.1173 4.23951 27.1089 4.29239 27.0925 4.34258L25.5505 7.24358C25.0968 8.14717 25.4033 9.27921 26.2352 9.77208C27.0671 10.265 28.1093 9.93201 28.563 9.02842L31.7529 3.02796C31.7821 2.97322 31.8089 2.91686 31.8335 2.8589L31.8365 2.85132C31.8516 2.81517 31.8657 2.77851 31.8789 2.74134L31.8812 2.73558C31.887 2.71862 31.8929 2.70135 31.8985 2.68408L31.9068 2.65742C31.9143 2.63338 31.9212 2.60904 31.9278 2.5844C31.9317 2.57046 31.9353 2.55622 31.9389 2.54228C31.9425 2.52835 31.9453 2.51532 31.9484 2.50199C31.9515 2.48866 31.9559 2.46715 31.9596 2.44957C31.9621 2.43715 31.9646 2.42473 31.9668 2.41231C31.9711 2.38867 31.975 2.36484 31.9785 2.3408C31.98 2.33091 31.9814 2.32081 31.9827 2.31051C31.9861 2.28506 31.9891 2.2593 31.9916 2.23355C31.9916 2.22991 31.9916 2.22658 31.9916 2.22295C31.9944 2.19265 31.9964 2.16235 31.9978 2.13387C31.9978 2.12619 31.9978 2.11842 31.9978 2.11054C31.9978 2.08024 32 2.04995 32 2.01965C32.0008 0.905182 31.1697 0.00100356 30.1437 0Z" fill="url(#LinearGradient_3)" fill-rule="nonzero" opacity="1" stroke="none" vectornator:layerName="path"/>
<path d="M19.8878 7.40978C19.7383 7.1562 19.4619 6.99998 19.1627 7L12.8374 7C12.5382 6.99992 12.2618 7.15608 12.1122 7.40962C11.9626 7.66316 11.9626 7.97555 12.1122 8.22907L15.2752 13.5904C15.4247 13.8439 15.7011 14 16.0002 14C16.2993 14 16.5756 13.8439 16.7252 13.5904L19.8878 8.22935C20.0374 7.97587 20.0374 7.66355 19.8878 7.41007L19.8878 7.40978Z" fill="url(#LinearGradient_4)" fill-rule="nonzero" opacity="1" stroke="none" vectornator:layerName="path"/>
</g>
</g>
</g>
</svg>
