<?xml version="1.0" encoding="UTF-8"?>
<svg width="65px" height="65px" viewBox="0 0 65 65" version="1.1" xmlns="http://www.w3.org/2000/svg" xmlns:xlink="http://www.w3.org/1999/xlink">
    <title>aspose-plain</title>
    <g id="aspose-plain" stroke="none" stroke-width="1" fill="none" fill-rule="evenodd">
        <g id="aspose-logo" transform="translate(0.509332, 0.898891)" fill="#000000" fill-rule="nonzero">
            <path d="M64.382388,40.0087525 C64.382388,38.0119373 65.3807957,19.042192 49.4062734,11.0549309 C41.4190122,7.06130032 31.4349358,7.06130032 26.4428976,12.0533385 C16.4588211,23.0358226 24.4460823,33.019899 27.4413052,34.0183067 C22.449267,14.0501538 57.3935345,10.0565232 63.3839804,40.0087525 L64.382388,40.0087525 Z" id="Path"></path>
            <path d="M24.4460823,63.970536 C25.4444899,63.970536 44.4142351,64.9689436 53.3999039,48.9944213 C57.3935345,41.0071602 57.3935345,31.0230838 51.4030887,26.0310455 C41.4190122,16.0469691 30.4365281,24.0342303 29.4381205,27.0294532 L30.4365281,27.0294532 C49.4062734,22.037415 53.3999039,56.9816825 24.4460823,62.9721283 L24.4460823,63.970536 Z" id="Path"></path>
            <path d="M0.484298844,24.0342303 C-0.5141088,25.0326379 -1.51251644,44.0023831 14.4620058,52.9880519 C22.449267,56.9816825 32.4333434,56.9816825 38.4237893,50.9912366 C48.4078657,41.0071602 39.4221969,31.0230838 36.426974,29.0262685 L36.426974,30.0246761 C41.4190122,49.992829 6.4747447,52.9880519 0.484298844,24.0342303 C0.484298844,23.0358226 0.484298844,23.0358226 0.484298844,24.0342303 Z" id="Path"></path>
            <path d="M40.4206046,0.0724468131 C38.4237893,0.0724468131 19.4540441,-1.92436847 11.4667829,15.0485615 C7.47315235,22.037415 7.47315235,32.0214914 12.4651906,38.0119373 C22.449267,47.9960137 33.4317511,40.0087525 34.4301587,36.015122 C14.4620058,41.0071602 10.4683753,7.06130032 40.4206046,0.0724468131 C41.4190122,0.0724468131 41.4190122,0.0724468131 40.4206046,0.0724468131 Z" id="Path"></path>
        </g>
    </g>
</svg>