<svg xmlns="http://www.w3.org/2000/svg" xmlns:xlink="http://www.w3.org/1999/xlink" viewBox="0 0 91 81" fill="#fff" fill-rule="evenodd" stroke="#000" stroke-linecap="round" stroke-linejoin="round"><use xlink:href="#A" x=".5" y=".5"/><symbol id="A" overflow="visible"><path d="M89.419 37.424l-4.358-4.203-19.398-18.169c-.843-.814-2.109-.814-3.093 0-.843.813-1.125 2.305 0 3.119l20.382 19.254c.843.813.843 2.305 0 3.119L62.149 60.475c-.844.814-.844 2.305 0 3.119s2.39.678 3.092 0l19.258-18.441.141-.136 4.779-4.475c.843-.814.703-2.305 0-3.119zm-81.95 3.119c-.843-.814-.843-2.305 0-3.119l19.96-19.254c1.124-.814.843-2.305 0-3.119-.984-.814-2.249-.814-3.093 0L4.939 33.221.581 37.424c-.703.813-.843 2.305 0 3.119l4.358 4.746.141.136 19.679 18.169c.703.678 2.249.814 3.093 0s.843-2.305 0-3.119L7.469 40.543zm60.021-13.56H48.654L66.928 0h-27.41l-14.76 40.136 17.993.136L28.694 80z" fill="#0078d7" stroke="none"/></symbol></svg>