<?xml version="1.0" encoding="UTF-8" standalone="no"?>
<!DOCTYPE svg PUBLIC "-//W3C//DTD SVG 1.1//EN" "http://www.w3.org/Graphics/SVG/1.1/DTD/svg11.dtd">
<!-- Created with Vectornator (http://vectornator.io/) -->
<svg height="81.0pt" stroke-miterlimit="10" style="fill-rule:nonzero;clip-rule:evenodd;stroke-linecap:round;stroke-linejoin:round;" version="1.1" viewBox="0 0 91 81" width="91.0pt" xml:space="preserve" xmlns="http://www.w3.org/2000/svg" xmlns:xlink="http://www.w3.org/1999/xlink">
<defs/>
<g id="Untitled">
<path d="M89.919 37.924L85.561 33.721L66.163 15.552C65.32 14.738 64.054 14.738 63.07 15.552C62.227 16.365 61.945 17.857 63.07 18.671L83.452 37.925C84.295 38.738 84.295 40.23 83.452 41.044L62.649 60.975C61.805 61.789 61.805 63.28 62.649 64.094C63.493 64.908 65.039 64.772 65.741 64.094L84.999 45.653L85.14 45.517L89.919 41.042C90.762 40.228 90.622 38.737 89.919 37.923L89.919 37.924ZM7.969 41.043C7.126 40.229 7.126 38.738 7.969 37.924L27.929 18.67C29.053 17.856 28.772 16.365 27.929 15.551C26.945 14.737 25.68 14.737 24.836 15.551L5.439 33.721L1.081 37.924C0.378 38.737 0.238 40.229 1.081 41.043L5.439 45.789L5.58 45.925L25.259 64.094C25.962 64.772 27.508 64.908 28.352 64.094C29.196 63.28 29.195 61.789 28.352 60.975C28.352 60.975 7.969 41.043 7.969 41.043ZM67.99 27.483L49.154 27.483L67.428 0.5L40.018 0.5L25.258 40.636L43.251 40.772L29.194 80.5L67.99 27.483Z" fill="#000000" fill-rule="evenodd" opacity="1" stroke="none"/>
</g>
</svg>
