<?xml version="1.0" encoding="UTF-8" standalone="no"?>
<!DOCTYPE svg PUBLIC "-//W3C//DTD SVG 1.1//EN" "http://www.w3.org/Graphics/SVG/1.1/DTD/svg11.dtd">
<!-- Created with Vectornator (http://vectornator.io/) -->
<svg height="500.0pt" stroke-miterlimit="10" style="fill-rule:nonzero;clip-rule:evenodd;stroke-linecap:round;stroke-linejoin:round;" version="1.1" viewBox="0 0 500 500" width="500.0pt" xml:space="preserve" xmlns="http://www.w3.org/2000/svg" xmlns:xlink="http://www.w3.org/1999/xlink">
<defs/>
<g id="Layer_2_00000142898378023912910500000004280928472565848978_">
<g opacity="1">
<path d="M52.049 101.736L151.887 101.736L151.887 101.736L151.887 201.672L151.887 201.672L52.049 201.672L52.049 201.672L52.049 101.736L52.049 101.736Z" fill="#000000" fill-rule="nonzero" opacity="1" stroke="none"/>
<path d="M311.922 126.539L377.826 48.9712L377.826 48.9712L455.394 114.875L455.394 114.875L389.491 192.443L389.491 192.443L311.922 126.539L311.922 126.539Z" fill="#000000" fill-rule="nonzero" opacity="1" stroke="none"/>
<path d="M170.799 101.736L270.637 101.736L270.637 101.736L270.637 201.672L270.637 201.672L170.799 201.672L170.799 201.672L170.799 101.736L170.799 101.736Z" fill="#000000" fill-rule="nonzero" opacity="1" stroke="none"/>
<path d="M52.049 220.521L151.887 220.521L151.887 220.521L151.887 320.457L151.887 320.457L52.049 320.457L52.049 320.457L52.049 220.521L52.049 220.521Z" fill="#000000" fill-rule="nonzero" opacity="1" stroke="none"/>
<path d="M170.799 220.521L270.637 220.521L270.637 220.521L270.637 320.457L270.637 320.457L170.799 320.457L170.799 320.457L170.799 220.521L170.799 220.521Z" fill="#000000" fill-rule="nonzero" opacity="1" stroke="none"/>
<path d="M289.902 220.521L389.74 220.521L389.74 220.521L389.74 320.457L389.74 320.457L289.902 320.457L289.902 320.457L289.902 220.521L289.902 220.521Z" fill="#000000" fill-rule="nonzero" opacity="1" stroke="none"/>
<path d="M52.199 339.415L152.049 339.415L152.049 339.415L152.049 439.317L152.049 439.317L52.199 439.317L52.199 439.317L52.199 339.415L52.199 339.415Z" fill="#000000" fill-rule="nonzero" opacity="1" stroke="none"/>
<path d="M170.961 339.415L270.811 339.415L270.811 339.415L270.811 439.317L270.811 439.317L170.961 439.317L170.961 439.317L170.961 339.415L170.961 339.415Z" fill="#000000" fill-rule="nonzero" opacity="1" stroke="none"/>
<path d="M290.064 339.415L389.89 339.415L389.89 339.415L389.89 439.317L389.89 439.317L290.064 439.317L290.064 439.317L290.064 339.415L290.064 339.415Z" fill="#000000" fill-rule="nonzero" opacity="1" stroke="none"/>
</g>
</g>
</svg>
