<?xml version="1.0" encoding="UTF-8" standalone="no"?>
<!DOCTYPE svg PUBLIC "-//W3C//DTD SVG 1.1//EN" "http://www.w3.org/Graphics/SVG/1.1/DTD/svg11.dtd">
<!-- Created with Vectornator (http://vectornator.io/) -->
<svg height="100%" stroke-miterlimit="10" style="fill-rule:nonzero;clip-rule:evenodd;stroke-linecap:round;stroke-linejoin:round;" version="1.1" viewBox="0 0 32 32" width="100%" xml:space="preserve" xmlns="http://www.w3.org/2000/svg" xmlns:xlink="http://www.w3.org/1999/xlink">
<defs>
<path d="M1 4C1 2.34315 2.34315 1 4 1L28 1C29.6569 1 31 2.34315 31 4L31 28C31 29.6569 29.6569 31 28 31L4 31C2.34315 31 1 29.6569 1 28L1 4Z" id="Fill"/>
</defs>
<g id="Layer-1">
<g opacity="1">
<mask height="30" id="StrokeMask" maskUnits="userSpaceOnUse" width="30" x="1" y="1">
<rect fill="#000000" height="30" stroke="none" width="30" x="1" y="1"/>
<use fill="#ffffff" fill-rule="evenodd" stroke="none" xlink:href="#Fill"/>
</mask>
<use fill="none" mask="url(#StrokeMask)" stroke="#000000" stroke-linecap="butt" stroke-linejoin="round" stroke-width="2" xlink:href="#Fill"/>
</g>
<path d="M12.7072 22.8579C8.84968 23.9357 15.0542 26.1621 19.9662 24.0577C19.1616 23.7449 18.5845 23.3841 18.5845 23.3841C16.3943 23.7982 15.3782 23.8307 13.39 23.6036C11.749 23.4157 12.7072 22.8579 12.7072 22.8579ZM19.378 20.7555C16.4749 21.3141 14.798 21.2962 12.674 21.0771C11.0317 20.9073 12.1068 20.1113 12.1068 20.1113C7.85837 21.5215 14.4719 23.1216 20.4098 21.3848C19.7786 21.1625 19.378 20.7555 19.378 20.7555ZM21.6531 8.58018C21.6533 8.58018 13.0644 10.7246 17.1663 15.4516C18.3771 16.8455 16.8487 18.0987 16.8487 18.0987C16.8487 18.0987 19.9217 16.5127 18.5108 14.5256C17.1924 12.6735 16.1818 11.7533 21.6531 8.58018ZM23.6627 24.8898C23.6627 24.8898 24.372 25.4747 22.8812 25.9267C20.0468 26.7854 11.0815 27.0443 8.5914 25.9611C7.69697 25.5716 9.37509 25.0315 9.9031 24.9175C10.4536 24.7983 10.768 24.82 10.768 24.82C9.77266 24.1192 4.3335 26.1969 8.0059 26.7928C18.0197 28.4161 26.2597 26.0618 23.6627 24.8898ZM20.221 18.793C20.7024 18.4646 21.3673 18.1793 21.3673 18.1793C21.3673 18.1793 19.4731 18.518 17.586 18.6766C15.2757 18.8704 12.7976 18.9086 11.5537 18.7421C8.60869 18.3484 13.1683 17.2652 13.1683 17.2652C13.1683 17.2652 11.3971 17.1454 9.21992 18.1986C6.64476 19.4438 15.5897 20.0114 20.221 18.793ZM21.3484 21.8371C21.3267 21.8954 21.2543 21.9609 21.2543 21.9609C27.5401 20.3085 25.229 16.1362 22.2235 17.1923C21.9598 17.2855 21.8216 17.5024 21.8216 17.5024C21.8216 17.5024 21.9882 17.4353 22.3598 17.3577C23.8792 17.0411 26.0559 19.3915 21.3484 21.8371ZM16.0365 17.2198C15.1091 15.1236 11.9643 13.2897 16.0379 10.0726C21.1173 6.06331 18.511 3.45519 18.511 3.45519C19.5622 7.59731 14.8024 8.84851 13.0843 11.4281C11.9143 13.1858 13.6585 15.0746 16.0365 17.2198ZM21.5185 27.6209C17.6619 28.3469 12.905 28.2623 10.0844 27.7966C10.0844 27.7966 10.6621 28.275 13.6312 28.4661C18.1488 28.7549 25.0879 28.3053 25.252 26.1675C25.2522 26.1675 24.9364 26.9779 21.5185 27.6209Z" fill="#000000" fill-rule="nonzero" opacity="1" stroke="none"/>
</g>
</svg>
