<?xml version="1.0" encoding="UTF-8" standalone="no"?>
<!DOCTYPE svg PUBLIC "-//W3C//DTD SVG 1.1//EN" "http://www.w3.org/Graphics/SVG/1.1/DTD/svg11.dtd">
<!-- Created with Vectornator (http://vectornator.io/) -->
<svg height="100%" stroke-miterlimit="10" style="fill-rule:nonzero;clip-rule:evenodd;stroke-linecap:round;stroke-linejoin:round;" version="1.1" viewBox="0 0 32 32" width="100%" xml:space="preserve" xmlns="http://www.w3.org/2000/svg" xmlns:xlink="http://www.w3.org/1999/xlink">
<defs>
<path d="M1 4C1 2.34315 2.34315 1 4 1L28 1C29.6569 1 31 2.34315 31 4L31 28C31 29.6569 29.6569 31 28 31L4 31C2.34315 31 1 29.6569 1 28L1 4Z" id="Fill"/>
</defs>
<g id="Layer-1">
<g opacity="1">
<mask height="30" id="StrokeMask" maskUnits="userSpaceOnUse" width="30" x="1" y="1">
<rect fill="#000000" height="30" stroke="none" width="30" x="1" y="1"/>
<use fill="#ffffff" fill-rule="evenodd" stroke="none" xlink:href="#Fill"/>
</mask>
<use fill="none" mask="url(#StrokeMask)" stroke="#000000" stroke-linecap="butt" stroke-linejoin="round" stroke-width="2" xlink:href="#Fill"/>
</g>
<path d="M4.38403 20.5489C4.19824 20.5518 4.0197 20.4768 3.89172 20.3421C3.7603 20.2123 3.68743 20.0345 3.68988 19.8498C3.68855 19.6653 3.76126 19.488 3.89172 19.3575C4.01848 19.2205 4.19737 19.1435 4.38403 19.1458C4.57033 19.1453 4.74851 19.222 4.87634 19.3575C5.00908 19.4868 5.08369 19.6645 5.08311 19.8498C5.08484 20.0354 5.01005 20.2134 4.87634 20.3421C4.74733 20.4753 4.56948 20.55 4.38403 20.5489Z" fill="#000000" fill-rule="nonzero" opacity="1" stroke="none"/>
<path d="M14.1662 20.4258L12.8763 20.4258L8.26341 13.2677C8.14851 13.0913 8.05279 12.9031 7.97788 12.7064L7.93849 12.7064C7.98233 13.1151 7.99878 13.5263 7.98772 13.9372L7.98772 20.4258L6.93911 20.4258L6.93911 11.451L8.3028 11.451L12.7926 18.4812C12.9797 18.7733 13.1012 18.9735 13.157 19.0818L13.1816 19.0818C13.1296 18.644 13.1082 18.2032 13.1176 17.7624L13.1176 11.451L14.1662 11.451L14.1662 20.4258Z" fill="#000000" fill-rule="nonzero" opacity="1" stroke="none"/>
<path d="M21.2653 20.4258L16.4948 20.4258L16.4948 11.451L21.0437 11.451L21.0437 12.4012L17.568 12.4012L17.568 15.3846L20.8074 15.3846L20.8074 16.3298L17.568 16.3298L17.568 19.4412L21.2702 19.4412L21.2653 20.4258Z" fill="#000000" fill-rule="nonzero" opacity="1" stroke="none"/>
<path d="M28.3102 12.4012L25.701 12.4012L25.701 20.4258L24.6523 20.4258L24.6523 12.4012L22.0726 12.4012L22.0726 11.451L28.3102 11.451L28.3102 12.4012Z" fill="#000000" fill-rule="nonzero" opacity="1" stroke="none"/>
</g>
</svg>
