<svg xmlns="http://www.w3.org/2000/svg" xmlns:xlink="http://www.w3.org/1999/xlink" viewBox="0 0 52 65" fill="#fff" fill-rule="evenodd" stroke="#000" stroke-linecap="round" stroke-linejoin="round"><use xlink:href="#A" x=".5" y=".5"/><symbol id="A" overflow="visible"><path d="M41.429 44.403a.39.39 0 0 0-.004.059v11.414a1.31 1.31 0 0 1-1.304 1.196c-.01 0-.016.003-.024.004H28.819l-.049.002h-7.044c-.937 0-1.694-.758-1.694-1.695a1.69 1.69 0 0 1 1.694-1.694l14.596.001c.012-.002.019-.005.031-.005.887 0 1.614-.681 1.688-1.548V37.386c-.001-.948.758-1.706 1.694-1.706s1.695.758 1.695 1.694zm-29.111 3.252c0-.934.758-1.693 1.695-1.693H28.61c.011-.001.019-.005.03-.005a1.69 1.69 0 0 0 1.687-1.548V29.658a1.7 1.7 0 0 1 1.695-1.706c.935 0 1.693.759 1.693 1.695v18.502a1.31 1.31 0 0 1-1.306 1.197c-.009 0-.016.003-.023.005H21.107c-.016-.001-.033 0-.049.001h-7.045c-.937 0-1.695-.759-1.695-1.696zm-1.29-19.335c-.936 0-1.694-.758-1.694-1.694v-7.025l.003-.067V8.121a1.31 1.31 0 0 1 1.303-1.198l18.397-.001c.936 0 1.694.759 1.694 1.695s-.758 1.694-1.694 1.694H13.375l1.033.004c-.886 0-1.613.681-1.687 1.548v14.751c0 .948-.759 1.706-1.693 1.706zm27.393-12.015c0 .936-.76 1.694-1.696 1.694H22.127c-.011.001-.018.005-.031.005-.886 0-1.612.681-1.686 1.549v14.75c0 .947-.758 1.706-1.692 1.706s-1.695-.759-1.695-1.695l.001-18.505c.059-.671.62-1.198 1.306-1.198l18.396-.002c.937 0 1.696.76 1.696 1.695zM27.254 0L8.881.001C8.871.001 8.863 0 8.853 0A8.85 8.85 0 0 0 .01 8.658l-.01.01v31.771C-.001 53.452 10.549 64 23.56 64h18.726l.016-.017c4.716-.18 8.488-4.039 8.511-8.794l.001-31.628C50.815 10.548 40.266 0 27.254 0" stroke="none" fill="#5b307f" fill-opacity=".94" fill-rule="nonzero"/></symbol></svg>