<svg xmlns="http://www.w3.org/2000/svg" xmlns:xlink="http://www.w3.org/1999/xlink" height="800" width="1200" viewBox="-20.55813 -12.758425 178.17046 76.55055"><defs><linearGradient id="c"><stop offset="0" stop-color="#634b15"/><stop offset=".2808" stop-color="#956d28"/><stop offset=".2808" stop-color="#bd8938"/><stop offset=".4791" stop-color="#775a1c"/><stop offset=".7071" stop-color="#6d5218"/><stop offset="1" stop-color="#aa7c30"/></linearGradient><linearGradient id="b"><stop offset="0" stop-color="#658b28"/><stop offset=".1773" stop-color="#96c23c"/><stop offset=".4531" stop-color="#547621"/><stop offset="1" stop-color="#9ecb3f"/></linearGradient><linearGradient id="a"><stop offset="0" stop-color="#567921"/><stop offset=".5796" stop-color="#a1cf40"/><stop offset="1" stop-color="#a2d041"/></linearGradient><linearGradient gradientTransform="translate(-137.2936 82.7856) scale(.12285)" gradientUnits="userSpaceOnUse" y2="376.017" x2="-964.6957" y1="452.6681" x1="-912.1376" id="e" xlink:href="#a"/><linearGradient gradientTransform="translate(-137.2936 82.5399) scale(.12285)" gradientUnits="userSpaceOnUse" y2="579.0576" x2="-757.1093" y1="483.5982" x1="-915.1982" id="d" xlink:href="#b"/><linearGradient gradientTransform="translate(-137.5393 82.7856) scale(.12285)" gradientUnits="userSpaceOnUse" y2="299.2454" x2="-818.7286" y1="520.4688" x1="-581.3428" id="g" xlink:href="#c"/><filter id="f" color-interpolation-filters="sRGB"><feFlood result="flood" flood-color="#FCFFBE" flood-opacity="1"/><feComposite result="composite1" operator="out" in2="SourceGraphic" in="flood"/><feGaussianBlur result="blur" stdDeviation="2" in="composite1"/><feOffset result="offset" dx="-.5348"/><feComposite result="composite2" operator="in" in2="SourceGraphic" in="offset"/></filter><filter id="h" color-interpolation-filters="sRGB"><feFlood result="flood" flood-color="#FCFFBE" flood-opacity="1"/><feComposite result="composite1" operator="out" in2="SourceGraphic" in="flood"/><feGaussianBlur result="blur" stdDeviation="2" in="composite1"/><feOffset result="offset" dx="-.5"/><feComposite result="composite2" operator="in" in2="SourceGraphic" in="offset"/></filter></defs><path d="M-235.2008 153.238c-.2594-.0632-.7201-.285-.8703-.4193-.2294-.205-.4426-.537-.9887-1.5394-1.0176-1.8679-2.0319-3.2854-3.13-4.3744-.5606-.556-.8241-.768-1.1931-.9599-.5484-.2852-.5384-.2882-.9248.2808-.5473.8059-1.2889 1.4588-2.0942 1.844l-.4522.2162-.8198-.0292c-.7038-.025-.8954-.0554-1.3545-.215-.6672-.2318-1.2727-.6307-1.982-1.3058-1.2732-1.2115-1.8715-2.4618-1.6888-3.5287.097-.5661.9895-2.2732 1.338-2.5593.0886-.0726.1065-.061.1434.093.1965.8213.297 1.1261.5132 1.556.6481 1.289 2.023 2.6445 3.1715 3.1264.8495.3565 1.989.4 2.5786.0984.3747-.1917.6-.4023 1.2194-1.1394.6445-.767.8376-.9074 1.2942-.9404.3094-.0224.4244.002.776.1668.5231.2448 1.0482.6626 1.72 1.3687 1.0069 1.058 1.9166 2.376 3.1935 4.6265.3872.6826.7854 1.3164.885 1.4086.2293.2124.5607.3016 1.1322.3046.5887.003.9107-.0805 1.8285-.4746.969-.4161 2.0898-1.0538 3.3058-1.881 1.8242-1.2408 2.0525-1.39 2.082-1.3605.0905.0905-2.2407 2.1071-3.5546 3.075-1.392 1.0253-2.8536 1.8867-3.8058 2.2428-.8769.328-1.7772.4517-2.3225.319z" fill="url(#d)" transform="translate(256.754 -103.5078)"/><path d="M-249.3497 138.3958c-1.893-1.6192-3.8426-3.5377-4.6003-4.5271-1.2995-1.6967-1.8436-3.4223-1.5445-4.8983.165-.8138 1.1017-3.0404 1.2792-3.0404.0687 0 .1063.26.1479 1.0238.0885 1.626.8653 3.1144 2.8011 5.3672.3373.3924 1.4664 1.5791 2.5091 2.637 2.2909 2.3242 3.0391 3.12 3.0391 3.2324 0 .0938-.106.124-.6393.182-.5303.0576-1.1962.2554-1.677.498-.233.1176-.4432.2139-.467.2139-.024 0-.4057-.3098-.8483-.6885z" fill="url(#e)" transform="translate(256.754 -103.5078)"/><path d="M10.827 31.1182c-.0218-.0352.0835-.338.234-.6726.5087-1.1321.5025-1.181-.2088-1.6588-.5834-.392-1.1341-.933-1.2294-1.2077l-.073-.2103.3106.0368c.1938.023.6314.1879 1.1632.4383.4689.2209.9278.4203 1.0199.4431.7162.178 1.516-1.0278 1.6392-2.4715.0415-.4861-.0912-.7543-.4733-.9564-.6013-.318-1.1828-.1638-3.7842 1.0033-1.0988.4929-1.781.7562-1.8306.7065-.0127-.0128.0205-.1134.0739-.2237.1428-.295.7961-.8784 1.358-1.213 1.3411-.7983 3.6167-1.3644 4.723-1.175.6818.1169.8949.363.9384 1.0838.1247 2.067-2.0877 5.8199-3.5958 6.0994-.1342.0249-.2416.0159-.2652-.0222zm18.5917-10.53c-.0759-.053-.138-.1228-.138-.155 0-.132.499-.5949 1.0835-1.0051.7358-.5164.9022-.659.9022-.7733 0-.0467-.1257-.2193-.2793-.3834-.1535-.1642-.2792-.3444-.2792-.4005 0-.1717.4306-.5926.6837-.6685.3091-.0926.4596-.0485.8642.2534.4587.3423.5724.3292 1.0046-.1152.706-.7261.5011-1.3134-.4564-1.3074-.3388.002-.5882.0877-2.1581.7404-.9339.3883-1.776.6385-2.0578.6115-.5666-.0543-.038-.7327.8638-1.1087 1.0715-.4467 2.0554-.6322 3.3967-.6405.584-.004 1.0278.0233 1.1913.0722.2992.0895.5045.3344.5583.6657.1317.8117-2.02 3.1446-3.6019 3.9052-.4414.2122-1.067.4058-1.3114.4058-.0706 0-.1904-.0435-.2662-.0966zm8.3453-5.4893c-.7862-.1989-.977-.6214-.6024-1.3337.5632-1.0706 2.075-2.4584 3.325-3.052.5184-.2462 1.0871-.3431 1.1754-.2004.0805.1303-.1847.3289-2.098 1.5706-.5042.3272-1.0532.7225-1.22.8786-.5003.468-.6228.8724-.3577 1.1807.1249.1451.214.1742.7087.231.4974.057.5852.0523.7259-.04.1508-.0987.16-.1345.16-.6224 0-.4283.022-.5456.1275-.6797.1262-.1604.6165-.351.903-.351.168 0 .3966.2714.3966.4708 0 .2244.1321.4595.279.4964.0788.0198.4791-.0945.9789-.2795 1.279-.4735 1.5343-.4796 1.5343-.0366 0 .5365-1.4148 1.2872-3.116 1.6534-.655.141-2.5247.2138-2.9203.1137zm3.444 9.9839c-.6988-.4073-1.3274-1.124-2.1016-2.3964-.7645-1.2564-1.4006-2.6514-1.6135-3.538l-.1076-.4485.1787-.1864c.0983-.1026.204-.1865.235-.1865.2836 0 .8804.8538 1.9082 2.7301.8125 1.4833 1.1645 2.0498 1.4776 2.3785.4179.4387.5255.4613 1.8243.3827.7638-.0462.791-.0436.791.0753 0 .208-.3582.6319-.7455.8822-.3251.2101-1.1652.5033-1.4304.4992-.0489-.0007-.2361-.0872-.4162-.1922zm-1.8929 6.7679c-.3153-.078-.5417-.2013-.7194-.3915-.1284-.1374-.1438-.203-.1188-.5045.0158-.1905.0583-.376.0944-.4121.0828-.0828.2937-.086 1.6003-.0238.8778.0418 1.1631.0323 1.6902-.0558 1.349-.2256 2.7061-.839 3.6447-1.6472.1706-.147 1.0852-.9803 2.0324-1.8519 2.3241-2.1385 2.4535-2.2305 2.6343-1.873.2662.526-.1533 1.6056-.9703 2.4967-1.4746 1.6085-5.2869 3.6193-7.853 4.142-.6801.1385-1.7154.2002-2.0348.1211z" fill="#f4f1f1" stroke="#f4f1f1" stroke-width=".2345" stroke-linecap="round" stroke-linejoin="bevel"/><path d="M77.688 37.5588c-.5973-.1894-.6985-.3501-.6985-1.1095 0-.9792.0663-1.015 1.6857-.9126 1.6435.104 1.9912-.025 2.3088-.8566.2404-.6295.1772-.8095-.2856-.8133-.3718-.003-.7562-.2745-1.0515-.7423-.2726-.432-2.9083-9.6636-2.8227-9.8867.0927-.2416 2.4017-.2606 2.6003-.0214.072.0868.5832 1.9664 1.136 4.1769.5972 2.3882 1.0629 4.0192 1.1475 4.0192.0844 0 .561-1.65 1.169-4.0467.5646-2.2257 1.0851-4.1053 1.1567-4.177.074-.0738.6476-.1301 1.3259-.1301 1.0461 0 1.2044.0278 1.2662.2224.0833.2626-3.2696 11.9925-3.6378 12.7267-.334.666-.6734 1.0245-1.2688 1.3405-.417.2215-.733.2654-2.0885.2905-.8783.0162-1.7526-.0197-1.9427-.08zm23.5256-3.5749c-.9435-.1857-1.6905-.7833-2.0647-1.6517-.3213-.7456-.2944-2.4247.0495-3.0871.6396-1.2321 1.8313-1.7634 4.1731-1.8603l1.382-.0572v-.7311c0-.65-.0412-.7724-.3716-1.1028l-.3717-.3717-2.0546.0275c-1.13.0152-2.1237.0208-2.2082.0126-.1076-.0105-.1535-.2867-.1535-.9243v-.9094l.39-.136c.2145-.0747 1.0413-.1953 1.8373-.268 2.8814-.2629 4.477.297 5.2328 1.8358l.3409.694.0384 4.0323c.0283 2.976.0002 4.0782-.1072 4.2076-.2236.2694-2.048.2434-2.354-.0335-.2009-.1818-.2817-.1881-.6239-.0489-1.1212.4564-2.1104.5738-3.1346.3722zm3.1407-2.3705l.3993-.2072v-2.205h-.9868c-1.2716 0-1.7833.2058-2.0401.8204-.255.6105-.1531 1.3742.2243 1.68.2354.1909.4318.2208 1.1441.1747.473-.0306 1.0396-.149 1.2592-.2629zm7.9418 2.2114c-.76-.248-1.572-.8617-2.005-1.5155-.665-1.004-.7709-1.6058-.7254-4.125.0383-2.1212.0575-2.275.3658-2.9325.3963-.8453 1.088-1.5595 1.8954-1.9569.5611-.2761.7423-.2976 2.509-.2976 2.475 0 2.4791.002 2.4313 1.2662l-.0358.945-1.597-.0384c-1.8728-.0451-2.2759.0893-2.6943.8984-.2249.4348-.2541.7106-.2541 2.3956s.0293 1.9607.254 2.3955c.4185.8092.8216.9436 2.6944.8985l1.597-.0385.0358.945c.0332.8764.0153.9564-.2457 1.1008-.4118.2279-3.5728.2723-4.2254.0593zm9.323-.0107c-1.2898-.4031-2.278-1.3016-2.7657-2.5147-.249-.6192-.2756-.8933-.2756-2.8353 0-1.9806.0231-2.2077.2938-2.8839.3725-.9309 1.2823-1.9084 2.1348-2.294.5615-.2539.8254-.289 2.1747-.289 1.5164 0 1.5453.005 2.3137.422.8589.4656 1.468 1.1247 1.8899 2.0448.242.528.2773.8069.2788 2.2016l.002 1.597-3.2249.0327c-2.448.0249-3.228.0692-3.2384.1843-.064.7133.3472 1.5948.9011 1.9316.5577.3392 1.4128.4073 3.2546.2592.893-.0718 1.7085-.098 1.812-.0583.243.0932.2728 1.7912.0349 1.9814-.4807.3844-4.5474.5449-5.5853.2205zm3.4644-6.5757c.137-.2216-.1991-1.144-.5416-1.4865-1.1637-1.1636-3.3264-.3214-3.3264 1.2954v.3111h1.8969c1.1022 0 1.928-.0503 1.971-.12zm5.5445 6.5855c-.9917-.183-1.1816-.3731-1.1816-1.183 0-.9917.0428-1.0095 2.0566-.858 2.366.178 2.8574.0423 2.8574-.789 0-.3772-.2984-.6219-2.166-1.7752-2.2819-1.4092-2.748-2.0062-2.748-3.5197 0-1.349.6217-2.205 1.8709-2.5759 1.1041-.3279 4.5218-.1963 5.2904.2038.1863.097.2147.2507.1843.9981l-.036.8835-.6142-.0137a357.8214 357.8214 0 01-2.1148-.0614c-1.4166-.045-1.5158-.0326-1.7727.2235-.459.4574-.1942.7435 1.8328 1.9806 2.637 1.6094 3.0445 2.1458 2.9564 3.8915-.0391.7736-.1.9772-.428 1.4332-.247.3432-.635.6622-1.0947.9002-.6786.3512-.7904.3697-2.3797.393-.9381.0138-2.0374-.0437-2.513-.1315zm-67.926-.0322c-.0472-.0473-.086-3.164-.086-6.9261 0-6.4706.012-6.8511.2246-7.0434.2822-.2554 2.3108-.2937 2.6356-.0498.1124.0845.8685 1.5218 1.68 3.194.8117 1.6724 1.5327 3.0406 1.6023 3.0406.0696 0 .7906-1.3682 1.6022-3.0405.8116-1.6723 1.5676-3.1097 1.68-3.1941.129-.0968.6204-.1536 1.329-.1536.9356 0 1.159.038 1.329.2258.1863.2058.2015.834.1726 7.0946l-.0318 6.8688h-2.457l-.0323-4.3566c-.018-2.425-.0822-4.4066-.1448-4.4692-.0681-.068-.4546.5704-.9794 1.618-.4767.9517-.9746 1.788-1.1063 1.8585-.1317.0705-.7683.1282-1.4146.1282-1.0085 0-1.2097-.0346-1.4191-.244-.1342-.1341-.608-.9705-1.053-1.8585-.4896-.977-.8535-1.5702-.9215-1.5021-.0626.0626-.1268 2.0454-.1448 4.469l-.0323 4.3567-1.1732.0349c-.6452.0192-1.2119-.004-1.2592-.0512zm25.7887-.1124c-.1377-.3587-.0854-10.9341.0573-11.5994.206-.9603.7797-1.713 1.6396-2.1512l.7288-.3713h2.6495c3.2784 0 3.3688.0283 3.4234 1.0728.0643 1.228.1225 1.2-2.49 1.2-1.2433 0-2.3994.0528-2.5691.1173-.1698.0645-.3968.2518-.5044.416-.2166.3306-.3952 2.176-.262 2.7069l.081.3224h2.6143c1.8696 0 2.6563.042 2.7618.1474.1526.1526.206 1.5226.0729 1.8696-.0648.1688-.4182.1943-2.6877.1943-2.0246 0-2.6436.0368-2.7487.1634-.0884.1066-.147 1.186-.1686 3.102l-.033 2.9385-1.2445.035c-1.0533.0294-1.2562.004-1.3206-.1637z" fill="#464646"/><path d="M23.3583 47.544c-.4152-.0973-.5478-.2704-1.6325-2.1328-.6515-1.1184-.7223-1.263-.7048-1.4393.004-.0408.3773-.32.8295-.6204 1.0054-.6681 1.7085-1.2479 2.4116-1.9887 1.3967-1.4714 2.1472-2.871 1.9536-3.6428-.0741-.295-.2855-.2028-1.0053.4385-2.0427 1.82-4.2294 3.3811-5.2152 3.723l-.3195.1107-.239-.1597c-.1313-.088-.513-.4009-.8481-.6956-1.3146-1.156-2.158-1.5364-2.9167-1.3159-.3346.0973-.7265.4457-1.5005 1.334-.5703.6547-.85.813-1.5136.8565-.79.0518-1.554-.1945-2.3329-.7519-.7826-.5602-1.7435-1.7096-2.08-2.4883-.1864-.4314-.3709-1.1773-.3709-1.4996 0-.3144.2492-.9703.4505-1.1858.3268-.35.985-.609 2.0758-.8165.6998-.1331.8511-.1936.951-.3802.1435-.2682-.1201-.5824-2.3386-2.7874-3.3932-3.3726-4.4948-4.7298-5.454-6.7188-.4062-.8421-.4912-1.282-.4468-2.3123.028-.6475.0581-.812.2255-1.2301.202-.5045.5485-1.132.8649-1.5666.3136-.4307 1.3087-1.4408 2.0204-2.0507 2.1767-1.8657 5.872-3.6264 10.2756-4.8959.9366-.27 2.849-.7089 3.0887-.7089.1354 0 .9077.8563 1.5815 1.7536 1.9955 2.6575 5.0817 7.94 5.3837 9.215.1062.4483.05.486-1.3562.9097-1.1388.343-1.5952.5628-2.0374.981-1.0191.964-1.1651 2.7971-.3665 4.6028.4104.928 1.3126 2.0146 2.138 2.5747.517.351 1.2972.7097 1.8255.8394.547.1343 1.6178.1367 2.1862.005.2343-.0543.8257-.2651 1.3142-.4685.4886-.2033.9968-.387 1.1296-.4083.3461-.0554.577.1047.9465.6561.8331 1.2431 2.533 5.4517 2.533 6.2711 0 .329-.7266 1.1774-2.0324 2.373-3.6096 3.305-6.7152 5.313-8.702 5.6264-.457.0721-.4415.0722-.7724-.005zM11.7228 31.165c.7459-.3975 1.7069-1.6085 2.3833-3.0033.5732-1.1819.8385-2.1142.8404-2.9536.002-.7488-.1963-1.1643-.6507-1.3653-1.0358-.4582-3.7174.0774-5.3958 1.0776-1.018.6067-1.6994 1.3883-1.5315 1.7568.1296.2845.4868.1807 2.367-.6878 2.3692-1.0944 3.0709-1.2534 3.5523-.8049.2054.1914.222.4661.0727 1.1959-.1895.9256-.7113 1.6882-1.1553 1.6882-.121 0-.542-.1715-1.0834-.4413-.7388-.3682-.9504-.4465-1.2773-.4728-.4934-.0396-.5996.0476-.4925.4048.1471.4912.695 1.026 1.6353 1.5961.1135.0688.2145.1819.2245.2513.01.0694-.1364.4458-.3252.8366-.1889.3908-.3436.7642-.344.8298-.0003.0656.0483.1733.108.2394.1522.1684.5934.1078 1.0722-.1474z" fill="#7ba931" stroke="#f4f1f1" stroke-width=".6965" stroke-linecap="round" stroke-linejoin="bevel"/><path transform="translate(119.2148 -20.7222) scale(.46432)" d="M-206.2854 146.8803c-.8942-.2095-1.1797-.5826-3.516-4.5935-1.403-2.4087-1.5555-2.7201-1.5179-3.0998.009-.0879.8127-.6892 1.7865-1.3363 2.1654-1.4389 3.6796-2.6875 5.194-4.283 3.008-3.169 4.6245-6.1834 4.2073-7.8455-.1595-.6355-.6148-.437-2.165.9443-4.3994 3.92-9.109 7.282-11.232 8.0181l-.6881.2387-.5146-.344c-.283-.1893-1.105-.8634-1.8267-1.498-2.8314-2.4897-4.6477-3.3092-6.2817-2.8342-.7208.2096-1.5648.96-3.2317 2.8732-1.2282 1.4098-1.8306 1.7507-3.26 1.8444-1.7012.1116-3.3469-.4188-5.0241-1.6193-1.6857-1.2065-3.755-3.682-4.4797-5.359-.4016-.9291-.799-2.5356-.799-3.2298 0-.677.5366-2.0896.9702-2.554.704-.7538 2.1215-1.3113 4.4708-1.7583 1.5071-.2867 1.833-.417 2.048-.8188.3092-.5776-.2586-1.2545-5.0365-6.0034-7.308-7.2636-9.6806-10.1865-11.7465-14.4702-.8748-1.8138-1.0578-2.761-.9621-4.98.06-1.3947.125-1.749.4855-2.6494.4351-1.0866 1.1813-2.4382 1.8628-3.374.6755-.9277 2.8187-3.103 4.3514-4.4167 4.688-4.0181 12.6467-7.81 22.1307-10.5442 2.0171-.5815 6.1357-1.5268 6.6522-1.5268.2916 0 1.9548 1.8442 3.406 3.7768 4.2978 5.7233 10.9445 17.1002 11.595 19.8463.2287.9657.1078 1.0467-2.921 1.9592-2.4524.739-3.4354 1.2123-4.3878 2.113-2.195 2.076-2.5094 6.024-.7895 9.913.884 1.9988 2.827 4.3388 4.6046 5.5452 1.1137.756 2.7938 1.5285 3.9318 1.8079 1.178.2892 3.4842.2943 4.7084.0104.5047-.117 1.7784-.5711 2.8305-1.009 1.052-.438 2.1468-.8337 2.4326-.8794.7456-.1193 1.2427.2253 2.0386 1.413 1.7943 2.6772 5.4555 11.7414 5.4555 13.5062 0 .7084-1.5651 2.5357-4.3774 5.1106-7.774 7.118-14.4626 11.4426-18.7414 12.1177-.9844.1553-.951.1556-1.6638-.0115zm-25.0594-35.2755c1.6063-.8562 3.676-3.4644 5.133-6.4685 1.2343-2.5454 1.8057-4.5535 1.8098-6.3611.004-1.6127-.4228-2.5077-1.4014-2.9405-2.2307-.9868-8.0062.1666-11.621 2.3209-2.1925 1.3065-3.66 2.99-3.2984 3.7836.2792.6127 1.0484.3892 5.0978-1.4813 5.1027-2.357 6.6139-2.6995 7.6506-1.7336.4424.4122.4784 1.004.1567 2.5756-.408 1.9936-1.532 3.636-2.488 3.636-.2607 0-1.1676-.3694-2.3335-.9505-1.591-.793-2.0468-.9617-2.7509-1.0182-1.0627-.0853-1.2913.1025-1.0608.8718.317 1.058 1.4968 2.2095 3.5221 3.4376.2443.1481.4619.3916.4834.541.0215.1494-.2936.9603-.7003 1.802-.4068.8416-.7401 1.6458-.7408 1.787-.0008.1412.104.3732.2326.5156.3278.3628 1.278.2321 2.309-.3174z" fill="#7ba931" stroke="#e3e3e3" stroke-width=".2121" stroke-linecap="round" stroke-linejoin="bevel" filter="url(#f)"/><path d="M37.6884 38.4623c-.0341-.0114-.1389-.0376-.2327-.0583-.1543-.034-.289-.2771-1.4049-2.534-1.3111-2.652-1.9063-3.6546-2.6255-4.4234-.8305-.8879-1.2057-.8954-2.957-.0596-.5337.2546-1.1203.4948-1.3036.5336-.5083.1077-1.5164.0438-1.9466-.1233-1.2373-.4806-2.3582-2.0826-2.5206-3.6023-.103-.965.1249-1.6993.6834-2.2014.4407-.3963.7255-.467 2.1111-.5244 1.2526-.0519 1.4219-.0976 1.5434-.4172.416-1.094-1.3554-4.6019-5.396-10.6855-1.1778-1.7734-1.5562-2.3685-1.5562-2.4474 0-.076.7479-.9686 1.3788-1.6455 2.7085-2.9055 6.1771-4.9629 10.1002-5.9908 1.8037-.4726 3.8067-.8474 4.5286-.8474h.3722l.4814.605c.2647.3327.871 1.1354 1.3473 1.7838 3.5258 4.8003 4.1971 5.6333 5.954 7.3876 1.3944 1.3924 2.0062 1.8266 2.5737 1.8266.3523 0 .567-.2108.9389-.9218.587-1.1226 1.0401-1.4998 1.858-1.5472.957-.0554 1.5954.2752 2.7321 1.4145.8516.8535 1.1488 1.2876 1.3134 1.9182.142.5436.1491 1.494.0135 1.7798-.1924.4055-.8858.882-1.7416 1.1968-.6329.2328-.7425.301-.8322.5176-.311.7507.9098 2.587 4.1567 6.2525.5895.6654 1.1429 1.3303 1.2299 1.4775.1935.3276.1854.3502-.4358 1.2216-1.2982 1.8208-2.9199 3.5679-4.327 4.6615-3.5175 2.7337-8.0819 4.603-12.7 5.2012-1.4838.1923-3.1406.3172-3.337.2517zm3.7196-6.4847c1.2618-.2817 2.5257-.7484 3.9434-1.4562 2.5648-1.2804 4.2539-2.6562 4.882-3.9766.3586-.7535.3368-1.6039-.0465-1.8186-.3476-.1947-.574-.0281-2.85 2.0978-2.2092 2.0636-2.4241 2.2375-3.3196 2.6865-1.3719.688-2.646.9153-4.2667.7614-.4789-.0455-.9014-.0735-.939-.0623-.0376.0112-.147.0377-.2431.0588-.2239.0492-.3527.3434-.3527.8055 0 .2906.0276.3725.1865.5535.2093.2383.4955.392.8849.4754.3842.0822 1.4822.0174 2.1207-.1252zm.7129-6.555c.224-.0561.532-.1555.6844-.2207.6197-.2654 1.243-.9157 1.243-1.2968 0-.3752-.2487-.4288-1.3958-.3009-.771.086-.9956.0256-1.3337-.3584-.3214-.3651-.688-.9723-1.49-2.4679-1.388-2.5881-1.8949-3.0787-2.4858-2.4058-.181.2062-.1924.2455-.1542.5332.1599 1.2055 1.5266 3.9085 2.706 5.3518.402.492.672.726 1.2145 1.0527.4084.246.458.2515 1.0116.1128zm-11.932-4.5812c.9628-.227 2.0077-.899 3.1345-2.0156 1.017-1.008 1.5418-1.8264 1.5418-2.405 0-.2568-.2252-.6545-.461-.814-.3949-.2673-1.5349-.3161-2.977-.1276-1.2807.1675-2.5854.6773-3.0651 1.1976-.2144.2326-.2602.3257-.2602.5284 0 .3098.1645.4394.5567.4388.4278-.0008 1.6145-.4064 2.949-1.008.9122-.4113 1.2855-.4727 1.6908-.2785.2324.1114.1869.4092-.1149.752-.3829.435-.4338.448-.7435.1893-.3517-.2939-.5673-.3992-.8138-.3976-.5188.003-1.1665.556-1.1665.9951 0 .1968.0398.2622.2792.4584.1536.1258.2793.2519.2793.28 0 .0283-.2025.1868-.4499.3524-.7749.5185-1.1672.8354-1.3546 1.094-.2173.3-.2286.4763-.0415.6488.2339.2156.4669.2412 1.0166.1115zm10.2038-5.5564c1.3923-.2254 2.7435-.7668 3.33-1.3344.3094-.2996.3257-.3312.3257-.633 0-.2726-.0243-.337-.1707-.453-.2475-.196-.6422-.1359-1.6097.2451-.4405.1735-.8448.3154-.8984.3154-.0722 0-.1057-.0836-.1286-.322-.0255-.2654-.0668-.3542-.2346-.5041-.1841-.1645-.2342-.1788-.52-.1486-.461.0487-.8813.2494-1.0288.4914-.0983.1613-.1245.3131-.1247.724l-.0002.52-.574-.045c-.5893-.046-.6644-.0834-.666-.331-.003-.4164.4926-.858 2.0258-1.8063 1.0318-.638 1.5019-.9721 1.7096-1.215.2549-.298.0399-.6122-.4145-.6054-.9788.0148-2.7885 1.238-3.9191 2.649-.963 1.2019-1.0247 1.95-.1945 2.3563.599.293 1.6717.3265 3.0926.0966z" fill="#976822" stroke="#f9f9f9" stroke-width=".6965" stroke-linecap="round" stroke-linejoin="bevel"/><path d="M-221.8734 144.6703c-.2086-.0892-.1746-.3013.1206-.7521.4867-.7434.409-1.228-.597-3.73-1.1012-2.7382-1.767-3.9543-2.391-4.3673-.3683-.2437-.7106-.1955-1.6856.2376-1.151.5112-1.5245.6162-2.32.6518-.816.0366-1.2328-.0509-2.0115-.4222-1.7219-.821-3.109-2.6525-3.2632-4.3084-.0385-.4138-.0314-.4476.1495-.7136l.19-.2792-.1848-.174c-.2152-.2029-.2079-.2924.0725-.8912.2166-.4625.6506-.8745 1.1945-1.1341.2105-.1005.7788-.2807 1.263-.4006 1.3915-.3444 1.6914-.5133 1.6914-.9527 0-.9532-3.358-6.8779-5.7058-10.067-.3141-.4266-.6247-.8793-.6903-1.006l-.1192-.2305.1954-.2226c.1075-.1224.2734-.2629.3686-.3121.1688-.0873.1785-.083.3867.1738.2822.348 2.0484 2.906 2.9237 4.2344 3.1128 4.7243 4.6926 7.9603 4.1507 8.5022-.091.091-.2076.0983-.9772.0603-1.3826-.0682-2.0276.1134-2.6876.7566-.6005.5853-.8544 1.4706-.7094 2.4733.1682 1.1633.6192 2.0603 1.4683 2.9202.4804.4866.6444.608 1.1735.8687l.615.3031.75-.006c.97-.008 1.2484-.0846 2.5805-.7134 1.269-.599 1.4866-.638 1.9129-.3428.6496.45 1.4551 1.6927 2.5585 3.9474.4426.9043 1.0207 2.077 1.2846 2.606l.48.9618.5583.0196c1.9957.07 6.0062-.6087 8.5582-1.4486 2.0226-.6657 4.0811-1.6295 5.8362-2.7325 1.1618-.7302 1.2109-.7564 1.2109-.6464 0 .2032-1.5624 1.6335-2.8257 2.5867-2.8561 2.155-6.4805 3.5837-10.7537 4.2386-1.566.24-4.4915.4307-4.7715.311z" fill="url(#g)" stroke="#e3e3e3" stroke-width=".0469" stroke-linecap="round" stroke-linejoin="bevel" transform="translate(256.754 -103.5078)"/><path d="M53.482 20.0684c-.1017-.1898-.0769-.5319.0465-.6436.1115-.1008.7922-.2886 1.0526-.2903.0768-.0005.1396.0291.1396.0658 0 .1042-.5329.771-.7076.8854-.2116.1387-.4519.1308-.5312-.0173zm-4.736-5.441c-.0996-.0996-.0302-.2808.2004-.5232.2535-.2665.3761-.2773.3761-.033 0 .3082-.4196.713-.5765.5562z" fill="#976822" stroke="#e3e3e3" stroke-width=".0469" stroke-linecap="round" stroke-linejoin="bevel"/><path transform="translate(119.2148 -20.7222) scale(.46432)" d="M-175.568 127.6152c-.0735-.0245-.299-.0811-.5012-.1257-.3323-.0733-.6226-.5968-3.0256-5.4573-2.824-5.7116-4.1057-7.871-5.6546-9.527-1.7887-1.912-2.5969-1.9283-6.3687-.1283-1.1493.5485-2.4127 1.0657-2.8075 1.1494-1.0946.2318-3.2659.0942-4.1924-.2656-2.6647-1.0352-5.0789-4.4854-5.4286-7.7583-.222-2.0783.2689-3.6598 1.4718-4.7413.9492-.8534 1.5626-1.0058 4.5468-1.1294 2.6977-.1117 3.0622-.2102 3.3239-.8985.8958-2.3563-2.9192-9.9111-11.6213-23.0134-2.5367-3.8194-3.3518-5.1012-3.3518-5.271 0-.1639 1.6108-2.086 2.9698-3.544 5.8332-6.2576 13.3035-10.6886 21.7527-12.9024 3.8848-1.018 8.1986-1.8252 9.7534-1.8252h.8017l1.0366 1.303c.5702.7167 1.876 2.4456 2.9017 3.842 7.5935 10.3383 9.0395 12.1324 12.8233 15.9108 3.0031 2.9987 4.3208 3.934 5.5429 3.934.7588 0 1.2214-.4542 2.0222-1.9855 1.2643-2.4176 2.2401-3.2302 4.0016-3.3322 2.061-.1193 3.436.5926 5.8842 3.0464 1.834 1.8382 2.474 2.7731 2.8286 4.1313.3056 1.1707.3211 3.2176.0291 3.8331-.4145.8735-1.9077 1.8995-3.751 2.5776-1.363.5013-1.599.6482-1.7923 1.1149-.6697 1.6167 1.9595 5.5714 8.9524 13.4658 1.2695 1.4333 2.4615 2.8653 2.6488 3.1823.4168.7055.3994.7542-.9385 2.6309-2.796 3.9215-6.2886 7.6842-9.3192 10.0395-7.5757 5.8876-17.4059 9.9136-27.3519 11.202-3.196.414-6.764.6831-7.1869.542zm8.0108-13.9662c2.7177-.6066 5.4397-1.6118 8.493-3.136 5.5239-2.7578 9.1617-5.7209 10.5146-8.5645.7722-1.623.7253-3.4545-.1003-3.917-.7485-.4193-1.236-.0604-6.138 4.5183-4.758 4.4443-5.2208 4.8188-7.1494 5.7859-2.9546 1.4816-5.6988 1.9712-9.1894 1.6398-1.0313-.098-1.9413-.1584-2.0223-.1343-.081.0241-.3166.0811-.5235.1266-.4822.106-.7596.7397-.7596 1.7348 0 .626.0594.8022.4017 1.1921.4507.5133 1.067.8445 1.9058 1.0238.8274.177 3.1922.0374 4.5674-.2695zm1.5355-14.1176c.4825-.1208 1.1457-.3347 1.474-.4753 1.3346-.5716 2.6772-1.9721 2.6772-2.7928 0-.808-.5357-.9236-3.0063-.648-1.6606.185-2.1442.0551-2.8723-.772-.6922-.7864-1.4817-2.094-3.2091-5.3152-2.9893-5.574-4.081-6.6306-5.3536-5.1813-.39.4442-.4144.5287-.3322 1.1484.3444 2.5962 3.2878 8.4176 5.8278 11.526.8658 1.0595 1.4476 1.5638 2.6158 2.2673.8797.5297.9864.5416 2.1787.243zm-25.6982-9.8664c2.0737-.489 4.3242-1.9362 6.751-4.3412 2.1904-2.1708 3.3205-3.9335 3.3205-5.1794 0-.5533-.485-1.4098-.9927-1.7533-.8505-.5756-3.3058-.6808-6.4115-.2748-2.7584.3607-5.5685 1.4586-6.6016 2.5794-.4617.5009-.5604.7013-.5604 1.1379 0 .6671.3544.9464 1.199.945.9213-.002 3.4772-.8752 6.3514-2.171 1.9645-.8857 2.7684-1.018 3.6415-.5996.5004.2398.4024.8812-.2475 1.6195-.8247.9369-.9344.9648-1.6012.4077-.7577-.633-1.222-.8598-1.7528-.8563-1.1173.0074-2.5123 1.1974-2.5123 2.1432 0 .4238.0858.5647.6014.9871.3307.271.6013.5425.6013.6033 0 .0608-.436.4022-.9688.7588-1.669 1.1167-2.5139 1.7992-2.9175 2.3563-.468.646-.4923 1.0255-.0893 1.397.5037.4645 1.0056.5195 2.1895.2404zm21.976-11.967c2.9987-.4853 5.909-1.6515 7.1719-2.8739.6666-.6452.7015-.7132.7015-1.3634 0-.5869-.0523-.7257-.3675-.9753-.5332-.4223-1.3832-.2929-3.4668.5277-.9487.3736-1.8195.6793-1.935.6793-.1556 0-.2275-.1801-.2769-.6936-.0549-.5715-.144-.7627-.5053-1.0857-.3965-.3542-.5044-.385-1.1197-.32-.993.1048-1.8982.5372-2.216 1.0584-.2118.3474-.2681.6743-.2685 1.5593l-.0005 1.1197-1.236-.0967c-1.2693-.0993-1.4311-.1797-1.4347-.7128-.006-.8968 1.061-1.8481 4.3632-3.8903 2.2222-1.3742 3.2346-2.0937 3.6818-2.6167.549-.6421.0858-1.3187-.8926-1.3039-2.108.0319-6.0056 2.6664-8.4406 5.7053-2.0739 2.5883-2.207 4.1997-.419 5.0745 1.29.6311 3.6005.7033 6.6608.208z" fill="#976822" stroke="#e3e3e3" stroke-width=".101" stroke-linecap="round" stroke-linejoin="bevel" filter="url(#h)"/><g style="line-height:125%;-inkscape-font-specification:'Myriad Pro'"><path style="-inkscape-font-specification:Montserrat" d="M111.8518 19.5745l-.4285.9732h-.7712l1.8852-4.2785h.7712l1.8852 4.2785h-.7712l-.4284-.9732zm1.8485-.6672l-.7774-1.7628-.7773 1.7628zm3.5573-2.6381q.9732 0 1.42.3734.4469.3734.4469 1.1507 0 .7774-.459 1.1385-.453.3611-1.3956.3611h-.759v1.2548h-.7223v-4.2785zm.0918 2.3688q.5999 0 .8141-.2265.2204-.2326.2204-.6733 0-.4468-.2755-.6304-.2754-.1837-.863-.1837h-.7345v1.7139zm3.0022.9365l-.4284.9732h-.7713l1.8853-4.2785h.7712l1.8852 4.2785h-.7712l-.4285-.9732zm1.8485-.6672l-.7773-1.7628-.7774 1.7628zm4.0409.9855q.3734 0 .6427-.1225.2693-.1285.5631-.404l.4652.4775q-.6794.7529-1.6526.7529-.9671 0-1.6098-.6244-.6366-.6243-.6366-1.5792 0-.9548.6488-1.5914.655-.6365 1.6466-.6365.9977 0 1.6648.7345l-.459.5019q-.306-.2938-.5815-.4101-.2693-.1163-.6366-.1163-.6488 0-1.0895.4223-.4407.4162-.4407 1.0712 0 .6488.4346 1.0895.4407.4346 1.0405.4346zm2.5544.6549v-4.2785h.7223v1.8546h2.124v-1.8546h.7222v4.2785h-.7223V18.797h-2.1239v1.7506zm7.7634-4.2785v.6794h-2.2831v1.1324h2.0505v.6427h-2.0505v1.1446h2.3565v.6794h-3.0788v-4.2785z" aria-label="APACHE" font-weight="400" font-size="13.1826" font-family="Montserrat" letter-spacing="0" word-spacing="0" fill="#848484"/></g></svg>