<?xml version="1.0" encoding="UTF-8"?>
<svg width="60px" height="60px" viewBox="0 0 60 60" version="1.1" xmlns="http://www.w3.org/2000/svg" xmlns:xlink="http://www.w3.org/1999/xlink">
    <title>apachemyfaces-original</title>
    <defs>
        <linearGradient x1="3.98843563%" y1="40.0294405%" x2="81.0076116%" y2="63.4255812%" id="linearGradient-1">
            <stop stop-color="#658B28" offset="0%"></stop>
            <stop stop-color="#96C23C" offset="17.73%"></stop>
            <stop stop-color="#547621" offset="45.31%"></stop>
            <stop stop-color="#9ECB3F" offset="100%"></stop>
        </linearGradient>
        <linearGradient x1="57.385878%" y1="94.7665485%" x2="20.6068109%" y2="23.1809252%" id="linearGradient-2">
            <stop stop-color="#567921" offset="0%"></stop>
            <stop stop-color="#A1CF40" offset="57.96%"></stop>
            <stop stop-color="#A2D041" offset="100%"></stop>
        </linearGradient>
        <linearGradient x1="83.3482558%" y1="95.4426924%" x2="-6.00472002%" y2="21.041358%" id="linearGradient-3">
            <stop stop-color="#634B15" offset="0%"></stop>
            <stop stop-color="#956D28" offset="28.08%"></stop>
            <stop stop-color="#BD8938" offset="28.08%"></stop>
            <stop stop-color="#775A1C" offset="47.91%"></stop>
            <stop stop-color="#6D5218" offset="70.71%"></stop>
            <stop stop-color="#AA7C30" offset="100%"></stop>
        </linearGradient>
    </defs>
    <g id="apachemyfaces-original" stroke="none" stroke-width="1" fill="none" fill-rule="evenodd">
        <g id="Apache_MyFaces-Logo." transform="translate(-220.710300, 6.435400)" fill-rule="nonzero">
            <path d="M243.2635,46.2948 C243.0041,46.2316 242.5434,46.0098 242.3932,45.8755 C242.1638,45.6705 241.9506,45.3385 241.4045,44.3361 C240.3869,42.4682 239.3726,41.0507 238.2745,39.9617 C237.7139,39.4057 237.4504,39.1937 237.0814,39.0018 C236.533,38.7166 236.543,38.7136 236.1566,39.2826 C235.6093,40.0885 234.8677,40.7414 234.0624,41.1266 L233.6102,41.3428 L232.7904,41.3136 C232.0866,41.2886 231.895,41.2582 231.4359,41.0986 C230.7687,40.8668 230.1632,40.4679 229.4539,39.7928 C228.1807,38.5813 227.5824,37.331 227.7651,36.2641 C227.8621,35.698 228.7546,33.9909 229.1031,33.7048 C229.1917,33.6322 229.2096,33.6438 229.2465,33.7978 C229.443,34.6191 229.5435,34.9239 229.7597,35.3538 C230.4078,36.6428 231.7827,37.9983 232.9312,38.4802 C233.7807,38.8367 234.9202,38.8802 235.5098,38.5786 C235.8845,38.3869 236.1098,38.1763 236.7292,37.4392 C237.3737,36.6722 237.5668,36.5318 238.0234,36.4988 C238.3328,36.4764 238.4478,36.5008 238.7994,36.6656 C239.3225,36.9104 239.8476,37.3282 240.5194,38.0343 C241.5263,39.0923 242.436,40.4103 243.7129,42.6608 C244.1001,43.3434 244.4983,43.9772 244.5979,44.0694 C244.8272,44.2818 245.1586,44.371 245.7301,44.374 C246.3188,44.377 246.6408,44.2935 247.5586,43.8994 C248.5276,43.4833 249.6484,42.8456 250.8644,42.0184 C252.6886,40.7776 252.9169,40.6284 252.9464,40.6579 C253.0369,40.7484 250.7057,42.765 249.3918,43.7329 C247.9998,44.7582 246.5382,45.6196 245.586,45.9757 C244.7091,46.3037 243.8088,46.4274 243.2635,46.2947 L243.2635,46.2948 Z" id="Path" fill="url(#linearGradient-1)"></path>
            <path d="M229.1146,31.4526 C227.2216,29.8334 225.272,27.9149 224.5143,26.9255 C223.2148,25.2288 222.6707,23.5032 222.9698,22.0272 C223.1348,21.2134 224.0715,18.9868 224.249,18.9868 C224.3177,18.9868 224.3553,19.2468 224.3969,20.0106 C224.4854,21.6366 225.2622,23.125 227.198,25.3778 C227.5353,25.7702 228.6644,26.9569 229.7071,28.0148 C231.998,30.339 232.7462,31.1348 232.7462,31.2472 C232.7462,31.341 232.6402,31.3712 232.1069,31.4292 C231.5766,31.4868 230.9107,31.6846 230.4299,31.9272 C230.1969,32.0448 229.9867,32.1411 229.9629,32.1411 C229.9389,32.1411 229.5572,31.8313 229.1146,31.4526 L229.1146,31.4526 Z" id="Path" fill="url(#linearGradient-2)"></path>
            <path d="M232.5373,27.6828 C232.5155,27.6476 232.6208,27.3448 232.7713,27.0102 C233.28,25.8781 233.2738,25.8292 232.5625,25.3514 C231.9791,24.9594 231.4284,24.4184 231.3331,24.1437 L231.2601,23.9334 L231.5707,23.9702 C231.7645,23.9932 232.2021,24.1581 232.7339,24.4085 C233.2028,24.6294 233.6617,24.8288 233.7538,24.8516 C234.47,25.0296 235.2698,23.8238 235.393,22.3801 C235.4345,21.894 235.3018,21.6258 234.9197,21.4237 C234.3184,21.1057 233.7369,21.2599 231.1355,22.427 C230.0367,22.9199 229.3545,23.1832 229.3049,23.1335 C229.2922,23.1207 229.3254,23.0201 229.3788,22.9098 C229.5216,22.6148 230.1749,22.0314 230.7368,21.6968 C232.0779,20.8985 234.3535,20.3324 235.4598,20.5218 C236.1416,20.6387 236.3547,20.8848 236.3982,21.6056 C236.5229,23.6726 234.3105,27.4255 232.8024,27.705 C232.6682,27.7299 232.5608,27.7209 232.5372,27.6828 L232.5373,27.6828 Z M251.129,17.1528 C251.0531,17.0998 250.991,17.03 250.991,16.9978 C250.991,16.8658 251.49,16.4029 252.0745,15.9927 C252.8103,15.4763 252.9767,15.3337 252.9767,15.2194 C252.9767,15.1727 252.851,15.0001 252.6974,14.836 C252.5439,14.6718 252.4182,14.4916 252.4182,14.4355 C252.4182,14.2638 252.8488,13.8429 253.1019,13.767 C253.411,13.6744 253.5615,13.7185 253.9661,14.0204 C254.4248,14.3627 254.5385,14.3496 254.9707,13.9052 C255.6767,13.1791 255.4718,12.5918 254.5143,12.5978 C254.1755,12.5998 253.9261,12.6855 252.3562,13.3382 C251.4223,13.7265 250.5802,13.9767 250.2984,13.9497 C249.7318,13.8954 250.2604,13.217 251.1622,12.841 C252.2337,12.3943 253.2176,12.2088 254.5589,12.2005 C255.1429,12.1965 255.5867,12.2238 255.7502,12.2727 C256.0494,12.3622 256.2547,12.6071 256.3085,12.9384 C256.4402,13.7501 254.2885,16.083 252.7066,16.8436 C252.2652,17.0558 251.6396,17.2494 251.3952,17.2494 C251.3246,17.2494 251.2048,17.2059 251.129,17.1528 L251.129,17.1528 Z M259.4743,11.6635 C258.6881,11.4646 258.4973,11.0421 258.8719,10.3298 C259.4351,9.2592 260.9469,7.8714 262.1969,7.2778 C262.7153,7.0316 263.284,6.9347 263.3723,7.0774 C263.4528,7.2077 263.1876,7.4063 261.2743,8.648 C260.7701,8.9752 260.2211,9.3705 260.0543,9.5266 C259.554,9.9946 259.4315,10.399 259.6966,10.7073 C259.8215,10.8524 259.9106,10.8815 260.4053,10.9383 C260.9027,10.9953 260.9905,10.9906 261.1312,10.8983 C261.282,10.7996 261.2912,10.7638 261.2912,10.2759 C261.2912,9.8476 261.3132,9.7303 261.4187,9.5962 C261.5449,9.4358 262.0352,9.2452 262.3217,9.2452 C262.4897,9.2452 262.7183,9.5166 262.7183,9.716 C262.7183,9.9404 262.8504,10.1755 262.9973,10.2124 C263.0761,10.2322 263.4764,10.1179 263.9762,9.9329 C265.2552,9.4594 265.5105,9.4533 265.5105,9.8963 C265.5105,10.4328 264.0957,11.1835 262.3945,11.5497 C261.7395,11.6907 259.8698,11.7635 259.4742,11.6634 L259.4743,11.6635 Z M262.9183,21.6474 C262.2195,21.2401 261.5909,20.5234 260.8167,19.251 C260.0522,17.9946 259.4161,16.5996 259.2032,15.713 L259.0956,15.2645 L259.2743,15.0781 C259.3726,14.9755 259.4783,14.8916 259.5093,14.8916 C259.7929,14.8916 260.3897,15.7454 261.4175,17.6217 C262.23,19.105 262.582,19.6715 262.8951,20.0002 C263.313,20.4389 263.4206,20.4615 264.7194,20.3829 C265.4832,20.3367 265.5104,20.3393 265.5104,20.4582 C265.5104,20.6662 265.1522,21.0901 264.7649,21.3404 C264.4398,21.5505 263.5997,21.8437 263.3345,21.8396425 C263.2856,21.8389 263.0984,21.7524 262.9183,21.6474 Z M261.0254,28.4153 C260.7101,28.3373 260.4837,28.214 260.306,28.0238 C260.1776,27.8864 260.1622,27.8208 260.1872,27.5193 C260.203,27.3288 260.2455,27.1433 260.2816,27.1072 C260.3644,27.0244 260.5753,27.0212 261.8819,27.0834 C262.7597,27.1252 263.045,27.1157 263.5721,27.0276 C264.9211,26.802 266.2782,26.1886 267.2168,25.3804 C267.3874,25.2334 268.302,24.4001 269.2492,23.5285 C271.5733,21.39 271.7027,21.298 271.8835,21.6555 C272.1497,22.1815 271.7302,23.2611 270.9132,24.1522 C269.4386,25.7607 265.6263,27.7715 263.0602,28.2942 C262.3801,28.4327 261.3448,28.4944 261.0254,28.4153 L261.0254,28.4153 Z" id="Shape" stroke="#F4F1F1" stroke-width="0.2345" fill="#F4F1F1" stroke-linecap="round" stroke-linejoin="bevel"></path>
            <path d="M245.0686,44.1086 C244.6534,44.0113 244.5208,43.8382 243.4361,41.9758 C242.7846,40.8574 242.7138,40.7128 242.7313,40.5365 C242.7353,40.4957 243.1086,40.2165 243.5608,39.9161 C244.5662,39.248 245.2693,38.6682 245.9724,37.9274 C247.3691,36.456 248.1196,35.0564 247.926,34.2846 C247.8519,33.9896 247.6405,34.0818 246.9207,34.7231 C244.878,36.5431 242.6913,38.1042 241.7055,38.4461 L241.386,38.5568 L241.147,38.3971 C241.0157,38.3091 240.634,37.9962 240.2989,37.7015 C238.9843,36.5455 238.1409,36.1651 237.3822,36.3856 C237.0476,36.4829 236.6557,36.8313 235.8817,37.7196 C235.3114,38.3743 235.0317,38.5326 234.3681,38.5761 C233.5781,38.6279 232.8141,38.3816 232.0352,37.8242 C231.2526,37.264 230.2917,36.1146 229.9552,35.3359 C229.7688,34.9045 229.5843,34.1586 229.5843,33.8363 C229.5843,33.5219 229.8335,32.866 230.0348,32.6505 C230.3616,32.3005 231.0198,32.0415 232.1106,31.834 C232.8104,31.7009 232.9617,31.6404 233.0616,31.4538 C233.2051,31.1856 232.9415,30.8714 230.723,28.6664 C227.3298,25.2938 226.2282,23.9366 225.269,21.9476 C224.8628,21.1055 224.7778,20.6656 224.8222,19.6353 C224.8502,18.9878 224.8803,18.8233 225.0477,18.4052 C225.2497,17.9007 225.5962,17.2732 225.9126,16.8386 C226.2262,16.4079 227.2213,15.3978 227.933,14.7879 C230.1097,12.9222 233.805,11.1615 238.2086,9.892 C239.1452,9.622 241.0576,9.1831 241.2973,9.1831 C241.4327,9.1831 242.205,10.0394 242.8788,10.9367 C244.8743,13.5942 247.9605,18.8767 248.2625,20.1517 C248.3687,20.6 248.3125,20.6377 246.9063,21.0614 C245.7675,21.4044 245.3111,21.6242 244.8689,22.0424 C243.8498,23.0064 243.7038,24.8395 244.5024,26.6452 C244.9128,27.5732 245.815,28.6598 246.6404,29.2199 C247.1574,29.5709 247.9376,29.9296 248.4659,30.0593 C249.0129,30.1936 250.0837,30.196 250.6521,30.0643 C250.8864,30.01 251.4778,29.7992 251.9663,29.5958 C252.4549,29.3925 252.9631,29.2088 253.0959,29.1875 C253.442,29.1321 253.6729,29.2922 254.0424,29.8436 C254.8755,31.0867 256.5754,35.2953 256.5754,36.1147 C256.5754,36.4437 255.8488,37.2921 254.543,38.4877 C250.9334,41.7927 247.8278,43.8007 245.841,44.1141 C245.384,44.1862 245.3995,44.1863 245.0686,44.1091 L245.0686,44.1086 Z M233.4331,27.7296 C234.179,27.3321 235.14,26.1211 235.8164,24.7263 C236.3896,23.5444 236.6549,22.6121 236.656815,21.7727 C236.6588,21.0239 236.4605,20.6084 236.0061,20.4074 C234.9703,19.9492 232.2887,20.4848 230.6103,21.485 C229.5923,22.0917 228.9109,22.8733 229.0788,23.2417912 C229.2084,23.5263 229.5656,23.4225 231.4458,22.554 C233.815,21.4596 234.5167,21.3006 234.9981,21.7491 C235.2035,21.9405 235.2201,22.2152 235.0708,22.945 C234.8813,23.8706 234.3595,24.6332 233.9155,24.6332 C233.7945,24.6332 233.3735,24.4617 232.8321,24.1919 C232.0933,23.8237 231.8817,23.7454 231.5548,23.7191 C231.0614,23.6795 230.9552,23.7667 231.0623,24.1239 C231.2094,24.6151 231.7573,25.1499 232.6976,25.72 C232.8111,25.7888 232.9121,25.9019 232.9221,25.9713 C232.9321,26.0407 232.7857,26.4171 232.5969,26.8079 C232.408,27.1987 232.2533,27.5721 232.2529,27.6377 C232.2526,27.7033 232.3012,27.811 232.3609,27.8771 C232.5131,28.0455 232.9543,27.9849 233.4331,27.7297 L233.4331,27.7296 Z" id="Shape" stroke="#F4F1F1" stroke-width="0.6965" fill="#7BA931" stroke-linecap="round" stroke-linejoin="bevel"></path>
            <path d="M245.142663,44.0418609 C244.727468,43.9445859 244.594904,43.7713481 243.510114,41.909007 C242.858673,40.7905994 242.787864,40.6460101 242.805322,40.4697078 C242.809501,40.4288941 243.182675,40.1496985 243.63483,39.849237 C244.640269,39.181127 245.343342,38.601377 246.046508,37.8605545 C247.443183,36.3891244 248.193756,34.9894782 248.000042,34.2177319 C247.925983,33.9226565 247.714578,34.0148241 246.994789,34.6561893 C244.952059,36.4763237 242.765298,38.0373675 241.779547,38.3791535 L241.460048,38.4899867 L241.221109,38.3302606 C241.089706,38.2423648 240.708035,37.9293667 240.372936,37.6347092 C239.05826,36.4786917 238.214915,36.0981815 237.456217,36.3187335 C237.121535,36.4160549 236.729649,36.7644807 235.955674,37.6528177 C235.385396,38.307416 235.105689,38.4657027 234.44199,38.5092095 C233.652089,38.5610276 232.887958,38.3147523 232.1092,37.7573361 C231.326496,37.197134 230.365679,36.0477099 230.029186,35.2690452 C229.842715,34.8376455 229.658194,34.0917155 229.658194,33.7693845 C229.658194,33.4550399 229.907348,32.7991414 230.108678,32.5835112 C230.435559,32.2335068 231.093733,31.9746484 232.184559,31.7670974 C232.884336,31.6339768 233.035658,31.5734759 233.135487,31.3869122 C233.279055,31.1187209 233.015414,30.8044227 230.796939,28.5994135 C227.403689,25.2267787 226.302043,23.8696178 225.342804,21.8806102 C224.936617,21.0384266 224.851647,20.5986227 224.896082,19.5682966 C224.923941,18.9207095 224.954122,18.7562009 225.121509,18.3381272 C225.323535,17.8335971 225.670011,17.2060222 225.986445,16.7715115 C226.300093,16.3407619 227.295223,15.3307266 228.006887,14.7207494 C230.183619,12.8550652 233.879002,11.0944102 238.282613,9.82486643 C239.219193,9.55486435 241.131542,9.11594266 241.371363,9.11594266 C241.506759,9.11594266 242.279016,9.9722416 242.952837,10.8695864 C244.948391,13.5270291 248.034587,18.8095513 248.336627,20.0846204 C248.442817,20.5330143 248.386681,20.5706242 246.980348,20.9943162 C245.84165,21.3374487 245.385224,21.5572113 244.943005,21.9754244 C243.923823,22.9393527 243.777841,24.772488 244.576425,26.5782285 C244.986883,27.5063113 245.889057,28.5928201 246.714432,29.1529758 C247.231546,29.5040017 248.01165,29.8626889 248.540046,29.9924199 C249.087015,30.1267012 250.157829,30.1290693 250.72625,29.9972488 C250.960592,29.9429234 251.551997,29.7320757 252.040508,29.52875 C252.528972,29.3253778 253.03731,29.1416464 253.170013,29.1204269 C253.51621,29.0650336 253.747023,29.2250382 254.116575,29.7765111 C254.949705,31.0195886 256.649673,35.228278 256.649673,36.0477099 C256.649673,36.3766342 255.922966,37.2250861 254.617159,38.4206637 C251.007535,41.7256934 247.901884,43.7336917 245.915152,44.0471541 C245.458075,44.119263 245.473584,44.1194023 245.142616,44.0418145 L245.142663,44.0418609 Z M233.507082,27.6627407 C234.252919,27.26519 235.213922,26.0541505 235.890437,24.6592868 C236.463547,23.4774067 236.728859,22.5450057 236.730776,21.7057009 C236.73262,20.956892 236.534449,20.5413256 236.080065,20.3403679 C235.044306,19.8821769 232.362626,20.4177236 230.684202,21.4180082 C229.666181,22.0246423 228.984791,22.806325 229.152689,23.1748093 C229.282327,23.4592982 229.639482,23.3555227 231.5197,22.4870121 C233.888985,21.3926099 234.590666,21.2335803 235.072026,21.682067 C235.277441,21.8734597 235.294157,22.1482443 235.144785,22.8779696 C234.955343,23.8036379 234.433447,24.5662371 233.989557,24.5662371 C233.868509,24.5662371 233.447417,24.3947173 232.906066,24.1249009 C232.167333,23.7566952 231.955696,23.6783644 231.628768,23.6521303 C231.135336,23.6125238 231.029192,23.6997231 231.136218,24.0569245 C231.283407,24.548175 231.831212,25.0828395 232.771599,25.6530709 C232.885033,25.7218367 232.986069,25.8348986 232.996052,25.904268 C233.006034,25.9736374 232.859727,26.3501545 232.670888,26.7409727 C232.482003,27.1317444 232.327245,27.5051505 232.32692,27.5707125 C232.326549,27.6362745 232.375209,27.7439967 232.434921,27.8101159 C232.587125,27.9785712 233.028322,27.9178846 233.507036,27.6627407 L233.507082,27.6627407 Z" id="Shape" stroke="#E3E3E3" stroke-width="0.5" fill="#7BA931" stroke-linecap="round" stroke-linejoin="bevel"></path>
            <path d="M259.3987,35.0269 C259.3646,35.0155 259.2598,34.9893 259.166,34.9686 C259.0117,34.9346 258.877,34.6915 257.7611,32.4346 C256.45,29.7826 255.8548,28.78 255.1356,28.0112 C254.3051,27.1233 253.9299,27.1158 252.1786,27.9516 C251.6449,28.2062 251.0583,28.4464 250.875,28.4852 C250.3667,28.5929 249.3586,28.529 248.9284,28.3619 C247.6911,27.8813 246.5702,26.2793 246.4078,24.7596 C246.3048,23.7946 246.5327,23.0603 247.0912,22.5582 C247.5319,22.1619 247.8167,22.0912 249.2023,22.0338 C250.4549,21.9819 250.6242,21.9362 250.7457,21.6166 C251.1617,20.5226 249.3903,17.0147 245.3497,10.9311 C244.1719,9.1577 243.7935,8.5626 243.7935,8.4837 C243.7935,8.4077 244.5414,7.5151 245.1723,6.8382 C247.8808,3.9327 251.3494,1.8753 255.2725,0.8474 C257.0762,0.3748 259.0792,-1.77635684e-14 259.8011,-1.77635684e-14 L260.1733,-1.77635684e-14 L260.6547,0.605 C260.9194,0.9377 261.5257,1.7404 262.002,2.3888 C265.5278,7.1891 266.1991,8.0221 267.956,9.7764 C269.3504,11.1688 269.9622,11.603 270.5297,11.603 C270.882,11.603 271.0967,11.3922 271.4686,10.6812 C272.0556,9.5586 272.5087,9.1814 273.3266,9.134 C274.2836,9.0786 274.922,9.4092 276.0587,10.5485 C276.9103,11.402 277.2075,11.8361 277.3721,12.4667 C277.5141,13.0103 277.5212,13.9607 277.3856,14.2465 C277.1932,14.652 276.4998,15.1285 275.644,15.4433 C275.0111,15.6761 274.9015,15.7443 274.8118,15.9609 C274.5008,16.7116 275.7216,18.5479 278.9685,22.2134 C279.558,22.8788 280.1114,23.5437 280.1984,23.6909 C280.3919,24.0185 280.3838,24.0411 279.7626,24.9125 C278.4644,26.7333 276.8427,28.4804 275.4356,29.574 C271.9181,32.3077 267.3537,34.177 262.7356,34.7752 C261.2518,34.9675 259.595,35.0924 259.3986,35.0269 L259.3987,35.0269 Z M263.1183,28.5422 C264.3801,28.2605 265.644,27.7938 267.0617,27.086 C269.6265,25.8056 271.3156,24.4298 271.9437,23.1094 C272.3023,22.3559 272.2805,21.5055 271.8972,21.2908 C271.5496,21.0961 271.3232,21.2627 269.0472,23.3886 C266.838,25.4522 266.6231,25.6261 265.7276,26.0751 C264.3557,26.7631 263.0816,26.9904 261.4609,26.8365 C260.982,26.791 260.5595,26.763 260.5219,26.7742 C260.4843,26.7854 260.3749,26.8119 260.2788,26.833 C260.0549,26.8822 259.9261,27.1764 259.9261,27.6385 C259.9261,27.9291 259.9537,28.011 260.1126,28.192 C260.3219,28.4303 260.6081,28.584 260.9975,28.6674 C261.3817,28.7496 262.4797,28.6848 263.1182,28.5422 L263.1183,28.5422 Z M263.8312,21.9872 C264.0552,21.9311 264.3632,21.8317 264.5156,21.7665 C265.1353,21.5011 265.7586,20.8508 265.7586,20.4697 C265.7586,20.0945 265.5099,20.0409 264.3628,20.1688 C263.5918,20.2548 263.3672,20.1944 263.0291,19.8104 C262.7077,19.4453 262.3411,18.8381 261.5391,17.3425 C260.1511,14.7544 259.6442,14.2638 259.0533,14.9367 C258.8723,15.1429 258.8609,15.1822 258.8991,15.4699 C259.059,16.6754 260.4257,19.3784 261.6051,20.8217 C262.0071,21.3137 262.2771,21.5477 262.8196,21.8744 C263.228,22.1204 263.2776,22.1259 263.8312,21.9872 L263.8312,21.9872 Z M251.8992,17.406 C252.862,17.179 253.9069,16.507 255.0337,15.3904 C256.0507,14.3824 256.5755,13.564 256.5755,12.9854 C256.5755,12.7286 256.3503,12.3309 256.1145,12.1714 C255.7196,11.9041 254.5796,11.8553 253.1375,12.0438 C251.8568,12.2113 250.5521,12.7211 250.0724,13.2414 C249.858,13.474 249.8122,13.5671 249.8122,13.7698 C249.8122,14.0796 249.9767,14.2092 250.3689,14.2086 C250.7967,14.2078 251.9834,13.8022 253.3179,13.2006 C254.2301,12.7893 254.6034,12.7279 255.0087,12.9221 C255.2411,13.0335 255.1956,13.3313 254.8938,13.6741 C254.5109,14.1091 254.46,14.1221 254.1503,13.8634 C253.7986,13.5695 253.583,13.4642 253.3365,13.4658 C252.8177,13.4688 252.17,14.0218 252.17,14.4609 C252.17,14.6577 252.2098,14.7231 252.4492,14.9193 C252.6028,15.0451 252.7285,15.1712 252.7285,15.1993 C252.7285,15.2276 252.526,15.3861 252.2786,15.5517 C251.5037,16.0702 251.1114,16.3871 250.924,16.6457 C250.7067,16.9457 250.6954,17.122 250.8825,17.2945 C251.1164,17.5101 251.3494,17.5357 251.8991,17.406 L251.8992,17.406 Z M262.103,11.8496 C263.4953,11.6242 264.8465,11.0828 265.433,10.5152 C265.7424,10.2156 265.7587,10.184 265.7587,9.8822 C265.7587,9.6096 265.7344,9.5452 265.588,9.4292 C265.3405,9.2332 264.9458,9.2933 263.9783,9.6743 C263.5378,9.8478 263.1335,9.9897 263.0799,9.9897 C263.0077,9.9897 262.9742,9.9061 262.9513,9.6677 C262.9258,9.4023 262.8845,9.3135 262.7167,9.1636 C262.5326,8.9991 262.4825,8.9848 262.1967,9.015 C261.7357,9.0637 261.3154,9.2644 261.1679,9.5064 C261.0696,9.6677 261.0434,9.8195 261.0432,10.2304 L261.043,10.7504 L260.469,10.7054 C259.8797,10.6594 259.8046,10.622 259.803,10.3744 C259.8,9.958 260.2956,9.5164 261.8288,8.5681 C262.8606,7.9301 263.3307,7.596 263.5384,7.3531 C263.7933,7.0551 263.5783,6.7409 263.1239,6.7477 C262.1451,6.7625 260.3354,7.9857 259.2048,9.3967 C258.2418,10.5986 258.1801,11.3467 259.0103,11.753 C259.6093,12.046 260.682,12.0795 262.1029,11.8496 L262.103,11.8496 Z" id="Shape" stroke="#F9F9F9" stroke-width="0.6965" fill="#976822" stroke-linecap="round" stroke-linejoin="bevel"></path>
            <path d="M256.5909,37.7271 C256.3823,37.6379 256.4163,37.4258 256.7115,36.975 C257.1982,36.2316 257.1205,35.747 256.1145,33.245 C255.0133,30.5068 254.3475,29.2907 253.7235,28.8777 C253.3552,28.634 253.0129,28.6822 252.0379,29.1153 C250.8869,29.6265 250.5134,29.7315 249.7179,29.7671 C248.9019,29.8037 248.4851,29.7162 247.7064,29.3449 C245.9845,28.5239 244.5974,26.6924 244.4432,25.0365 C244.4047,24.6227 244.4118,24.5889 244.5927,24.3229 L244.7827,24.0437 L244.5979,23.8697 C244.3827,23.6668 244.39,23.5773 244.6704,22.9785 C244.887,22.516 245.321,22.104 245.8649,21.8444 C246.0754,21.7439 246.6437,21.5637 247.1279,21.4438 C248.5194,21.0994 248.8193,20.9305 248.8193,20.4911 C248.8193,19.5379 245.4613,13.6132 243.1135,10.4241 C242.7994,9.9975 242.4888,9.5448 242.4232,9.4181 L242.304,9.1876 L242.4994,8.965 C242.6069,8.8426 242.7728,8.7021 242.868,8.6529 C243.0368,8.5656 243.0465,8.5699 243.2547,8.8267 C243.5369,9.1747 245.3031,11.7327 246.1784,13.0611 C249.2912,17.7854 250.871,21.0214 250.3291,21.5633 C250.2381,21.6543 250.1215,21.6616 249.3519,21.6236 C247.9693,21.5554 247.3243,21.737 246.6643,22.3802 C246.0638,22.9655 245.8099,23.8508 245.9549,24.8535 C246.1231,26.0168 246.5741,26.9138 247.4232,27.7737 C247.9036,28.2603 248.0676,28.3817 248.5967,28.6424 L249.2117,28.9455 L249.9617,28.9395 C250.9317,28.9315 251.2101,28.8549 252.5422,28.2261 C253.8112,27.6271 254.0288,27.5881 254.4551,27.8833 C255.1047,28.3333 255.9102,29.576 257.0136,31.8307 C257.4562,32.735 258.0343,33.9077 258.2982,34.4367 L258.7782,35.3985 L259.3365,35.4181 C261.3322,35.4881 265.3427,34.8094 267.8947,33.9695 C269.9173,33.3038 271.9758,32.34 273.7309,31.237 C274.8927,30.5068 274.9418,30.4806 274.9418,30.5906 C274.9418,30.7938 273.3794,32.2241 272.1161,33.1773 C269.26,35.3323 265.6356,36.761 261.3624,37.4159 C259.7964,37.6559 256.8709,37.8466 256.5909,37.7269 L256.5909,37.7271 Z" id="Path" stroke="#E3E3E3" stroke-width="0.0469" fill="url(#linearGradient-3)" stroke-linecap="round" stroke-linejoin="bevel"></path>
            <path d="M275.1923,16.633 C275.0906,16.4432 275.1154,16.1011 275.2388,15.9894 C275.3503,15.8886 276.031,15.7008 276.2914,15.6990938 C276.3682,15.6986 276.431,15.7282 276.431,15.7649 C276.431,15.8691 275.8981,16.5359 275.7234,16.6503 C275.5118,16.789 275.2715,16.7811 275.1922,16.633 L275.1923,16.633 Z M270.4563,11.192 C270.3567,11.0924 270.4261,10.9112 270.6567,10.6688 C270.9102,10.4023 271.0328,10.3915 271.0328,10.6358 C271.0328,10.944 270.6132,11.3488 270.4563,11.192 L270.4563,11.192 Z" id="Shape" stroke="#E3E3E3" stroke-width="0.0469" fill="#976822" stroke-linecap="round" stroke-linejoin="bevel"></path>
            <path d="M259.405366,35.0966897 C259.371238,35.0853138 259.266534,35.0590333 259.172649,35.0383246 C259.018355,35.00429 258.883563,34.7612185 257.767802,32.5043911 C256.456562,29.852381 255.861444,28.8497284 255.142258,28.0808145 C254.311729,27.1930346 253.936466,27.1854662 252.185143,28.0212422 C251.651501,28.2759217 251.064879,28.516068 250.881565,28.5549316 C250.37332,28.662561 249.365142,28.5986706 248.93495,28.4316082 C247.697676,27.9509442 246.576715,26.3489473 246.414342,24.8292744 C246.311263,23.8642781 246.539198,23.129956 247.097729,22.627794 C247.538461,22.2315433 247.823275,22.1607809 249.208899,22.1033909 C250.461495,22.0515264 250.630739,22.0057909 250.752252,21.6861994 C251.16819,20.5921222 249.396809,17.0842775 245.35625,11.0006175 C244.178409,9.22719373 243.799942,8.63202835 243.799942,8.55318682 C243.799942,8.47708477 244.547869,7.5846153 245.17888,6.90763674 C247.887351,4.0021079 251.355961,1.94470598 255.279093,0.916794368 C257.082884,0.444116608 259.085867,0.069317504 259.807792,0.069317504 L260.180037,0.069317504 L260.661352,0.674326464 C260.926107,1.00710461 261.532416,1.80986746 262.008669,2.4582439 C265.534483,7.25852336 266.205889,8.09155987 267.962784,9.84594656 C269.357183,11.2383029 269.969017,11.6725814 270.536463,11.6725814 C270.888789,11.6725814 271.103583,11.4616873 271.475411,10.7506741 C272.062451,9.62813405 272.515534,9.25082762 273.333434,9.20346698 C274.290397,9.1480736 274.928837,9.47862301 276.065585,10.6179714 C276.917148,11.4714844 277.214313,11.9055772 277.378961,12.5362166 C277.520857,13.0797961 277.528054,14.0302127 277.392473,14.3160016 C277.200012,14.7215852 276.506689,15.1979775 275.650808,15.5128329 C275.01794,15.7455965 274.908361,15.8138051 274.818608,16.0305032 C274.507653,16.7811694 275.728443,18.6174157 278.975386,22.2829435 C279.56484,22.9484533 280.11831,23.6133596 280.205277,23.760549 C280.398805,24.0881268 280.390726,24.1107392 279.769512,24.9821285 C278.471274,26.8029594 276.84959,28.5500563 275.442422,29.6436692 C271.924873,32.3773996 267.360514,34.2467519 262.742387,34.8449818 C261.258421,35.0372103 259.601727,35.1621588 259.405366,35.0966432 L259.405366,35.0966897 Z M263.124941,28.6119037 C264.386823,28.3302472 265.650702,27.8635127 267.06841,27.1557962 C269.633268,25.8752945 271.322371,24.4994679 271.950549,23.1791275 C272.309097,22.4255362 272.287321,21.5751341 271.903978,21.3603861 C271.556435,21.1656967 271.330079,21.3323412 269.053982,23.4583231 C266.844747,25.5219005 266.62986,25.6957884 265.734373,26.1448322 C264.362493,26.8327687 263.088306,27.0600998 261.46755,26.9062242 C260.988697,26.8607208 260.566166,26.8326759 260.528556,26.843866 C260.490946,26.8550561 260.381552,26.8815223 260.285484,26.9026489 C260.061589,26.9518668 259.932787,27.2461064 259.932787,27.7081512 C259.932787,27.9988156 259.960368,28.0806287 260.119304,28.2616671 C260.328573,28.5000026 260.614734,28.6537853 261.004205,28.7370379 C261.388384,28.8192226 262.486408,28.7544035 263.124941,28.6119037 L263.124941,28.6119037 Z M263.837904,22.0568196 C264.061938,22.0007298 264.369875,21.9014117 264.522312,21.8361284 C265.141993,21.570723 265.765389,20.9204429 265.765389,20.5393755 C265.765389,20.1642049 265.516653,20.1105295 264.369504,20.2384961 C263.598454,20.3243953 263.373909,20.2640801 263.035838,19.8800411 C262.714435,19.5148998 262.347855,18.907755 261.545788,17.4120874 C260.157796,14.8239677 259.650898,14.3333672 259.060005,15.0063062 C258.87892,15.2125571 258.86759,15.2517922 258.905758,15.5395313 C259.065669,16.7449988 260.432349,19.4479913 261.611722,20.8912836 C262.01373,21.3832306 262.283871,21.6173872 262.82629,21.9440363 C263.234752,22.1899866 263.284295,22.195512 263.837904,22.0568661 L263.837904,22.0568196 Z M251.905716,17.4756528 C252.868576,17.2486003 253.913528,16.5766364 255.04034,15.4599468 C256.057387,14.452001 256.582115,13.6335441 256.582115,13.0550478 C256.582115,12.7981396 256.356919,12.4004495 256.121184,12.2409556 C255.72628,11.973693 254.586235,11.9248465 253.144196,12.1133604 C251.863416,12.2808406 250.558631,12.7906176 250.078942,13.3110274 C249.864565,13.5436053 249.818737,13.636655 249.818737,13.8393772 C249.818737,14.149125 249.983292,14.2788096 250.375456,14.2781596 C250.803234,14.2772309 251.98999,13.8717867 253.324538,13.2701208 C254.236695,12.8588726 254.609962,12.7974431 255.01536,12.9917146 C255.247705,13.1030585 255.202202,13.4008733 254.90044,13.7436808 C254.517516,14.1787022 254.46658,14.1916567 254.156971,13.9329841 C253.805156,13.6390695 253.589572,13.5337617 253.343111,13.5353868 C252.824326,13.5388228 252.1766,14.0913636 252.1766,14.5305175 C252.1766,14.7272963 252.216439,14.792719 252.455842,14.9888477 C252.609393,15.1146785 252.735038,15.2407413 252.735038,15.268972 C252.735038,15.2972027 252.532594,15.4557215 252.285204,15.621298 C251.510254,16.1398042 251.11795,16.4567026 250.930551,16.7153752 C250.713249,17.015326 250.701966,17.1915354 250.889087,17.3640303 C251.122965,17.5797069 251.356007,17.6052445 251.905716,17.4756528 L251.905716,17.4756528 Z M262.109612,11.9191354 C263.501968,11.6938009 264.853279,11.1523109 265.439669,10.5847261 C265.749184,10.2851468 265.765389,10.2535731 265.765389,9.95167222 C265.765389,9.67916282 265.741105,9.6147152 265.594752,9.49882093 C265.347176,9.30273859 264.952504,9.3628216 263.985047,9.74384259 C263.544547,9.91731254 263.140217,10.0592552 263.086588,10.0592552 C263.01434,10.0592552 262.980955,9.97563114 262.958018,9.73720282 C262.932526,9.47184394 262.891155,9.38306595 262.723397,9.23309059 C262.539294,9.06862845 262.489194,9.05432739 262.203498,9.08450819 C261.742428,9.13316893 261.322125,9.3339409 261.174564,9.57594448 C261.076221,9.73724925 261.05008,9.88903546 261.049894,10.2999587 L261.049662,10.8198578 L260.475763,10.774958 C259.886401,10.728851 259.811274,10.6915197 259.809603,10.4439907 C259.806817,10.0275885 260.302246,9.58588093 261.835524,8.63764662 C262.867336,7.99957808 263.337413,7.66549984 263.545057,7.42266048 C263.799969,7.12452061 263.584896,6.8103617 263.130605,6.81723363 C262.151819,6.83204544 260.342085,8.05529648 259.211466,9.46631853 C258.248513,10.668118 258.186712,11.4163232 259.016916,11.8225104 C259.615889,12.1155427 260.6887,12.1490666 262.109658,11.9190889 L262.109612,11.9191354 Z" id="Shape" stroke="#E3E3E3" stroke-width="0.5" fill="#976822" stroke-linecap="round" stroke-linejoin="bevel"></path>
        </g>
    </g>
</svg>