<?xml version="1.0" encoding="UTF-8"?>
<svg width="32px" height="32px" viewBox="0 0 32 32" version="1.1" xmlns="http://www.w3.org/2000/svg" xmlns:xlink="http://www.w3.org/1999/xlink">
    <title>ibmims-original</title>
    <g id="ibmims-original" stroke="none" stroke-width="1" fill="none" fill-rule="evenodd">
        <g id="Group">
            <rect id="Rectangle-2" fill="#541094" x="0" y="0" width="32" height="32" rx="2"></rect>
            <path d="M30,0 C31.1045695,-2.02906125e-16 32,0.8954305 32,2 L32,16 L0,16 L0,2 C-1.3527075e-16,0.8954305 0.8954305,2.02906125e-16 2,0 L30,0 Z" id="Combined-Shape" fill="#000000"></path>
            <path d="M4,3 L4,3.69470077 L8.67156256,3.69470077 L8.67156256,3 L4,3 Z M9.33343768,3 L9.33343768,3.69470077 L15.9906249,3.69470077 C15.9906249,3.69470077 15.31063,3 14.41,3 L9.33343768,3 Z M17.2965626,3 L17.2965626,3.69470077 L21.3240626,3.69470077 L21.085,3 L17.2965626,3 Z M24.2115626,3 L23.9725,3.69470077 L27.9634374,3.69470077 L27.9634374,3 L24.2115626,3 Z M4,4.35102533 L4,5.0457259 L8.67156256,5.0457259 L8.67156256,4.35102533 L4,4.35102533 Z M9.33343768,4.35200937 L9.33343768,5.0457259 L16.7631251,5.0457259 C16.7631251,5.0457259 16.67635,4.51105441 16.525,4.35200937 L9.33343768,4.35200937 Z M17.2965626,4.35200937 L17.2965626,5.0457259 L21.7656251,5.0457259 L21.5443749,4.35200937 L17.2965626,4.35200937 Z M23.7334374,4.35200937 L23.5121874,5.0457259 L27.9634374,5.0457259 L27.9634374,4.35200937 L23.7334374,4.35200937 Z M5.3424999,5.70205066 L5.3424999,6.39773508 L7.36562488,6.39773508 L7.36562488,5.70205066 L5.3424999,5.70205066 Z M10.6759377,5.70205066 L10.6759377,6.39773508 L12.6990623,6.39773508 L12.6990623,5.70205066 L10.6759377,5.70205066 Z M14.6668751,5.70205066 L14.6668751,6.39773508 L16.69,6.39773508 C16.6900002,6.39773508 16.8184374,6.03034304 16.8184374,5.70205066 L14.6668751,5.70205066 Z M18.6390626,5.70205066 L18.6390626,6.39773508 L22.2259377,6.39773508 L21.9868751,5.70205066 L18.6390626,5.70205066 Z M23.2928126,5.70205066 L23.0528126,6.39773508 L26.6575,6.39773508 L26.6575,5.70205066 L23.2928126,5.70205066 Z M5.3424999,7.05406015 L5.3424999,7.74876042 L7.36562488,7.74876042 L7.36562488,7.05406015 L5.3424999,7.05406015 Z M10.6759377,7.05406015 L10.6759377,7.74876042 L15.8434377,7.74876042 C15.8434379,7.74876042 16.2757074,7.39230254 16.4134374,7.05406015 L10.6759377,7.05406015 Z M18.6390626,7.05406015 L18.6390626,7.74876042 L20.6621874,7.74876042 L20.6621874,7.36205042 L20.7906249,7.74876042 L24.4965626,7.74876042 L24.6343751,7.36205042 L24.6343751,7.74876042 L26.6575,7.74876042 L26.6575,7.05406015 L22.8596874,7.05406015 L22.6581249,7.64248899 L22.4556251,7.05406015 L18.6390626,7.05406015 Z M5.3424999,8.40508548 L5.3424999,9.09978575 L7.36562488,9.09978575 L7.36562488,8.40508548 L5.3424999,8.40508548 Z M10.6759377,8.40508548 L10.6759377,9.09978575 L16.4134374,9.09978575 C16.2756777,8.76264556 15.8434377,8.40508548 15.8434377,8.40508548 L10.6759377,8.40508548 Z M18.6390626,8.40508548 L18.6390626,9.09978575 L20.6621874,9.09978575 L20.6621874,8.40508548 L18.6390626,8.40508548 Z M21.0296874,8.40508548 L21.2743751,9.09978575 L24.0531251,9.09978575 L24.2856251,8.40508548 L21.0296874,8.40508548 Z M24.6343751,8.40508548 L24.6343751,9.09978575 L26.6575,9.09978575 L26.6575,8.40508548 L24.6343751,8.40508548 Z M5.3424999,9.75611082 L5.3424999,10.4508111 L7.36562488,10.4508111 L7.36562488,9.75611082 L5.3424999,9.75611082 Z M10.6759377,9.75611082 L10.6759377,10.4508111 L12.6990623,10.4508111 L12.6990623,9.75611082 L10.6759377,9.75611082 Z M14.6668751,9.75611082 L14.6668751,10.4508111 L16.8184374,10.4508111 C16.8184374,10.1229604 16.69,9.75611082 16.69,9.75611082 L14.6668751,9.75611082 Z M18.6390626,9.75611082 L18.6390626,10.4508111 L20.6621874,10.4508111 L20.6621874,9.75611082 L18.6390626,9.75611082 Z M21.4890623,9.75611082 L21.72625,10.4508111 L23.5890623,10.4508111 L23.8281249,9.75611082 L21.4890623,9.75611082 Z M24.6343751,9.75611082 L24.6343751,10.4508111 L26.6575,10.4508111 L26.6575,9.75611082 L24.6343751,9.75611082 Z M4.03656232,11.1071361 L4.03656232,11.8028206 L8.70812488,11.8028206 L8.70812488,11.1071361 L4.03656232,11.1071361 Z M9.33343768,11.1071361 L9.33343768,11.8028206 L16.525,11.8028206 C16.67635,11.6435237 16.7631251,11.1071361 16.7631251,11.1071361 L9.33343768,11.1071361 Z M17.3331249,11.1071361 L17.3331249,11.8028206 L20.6621874,11.8028206 L20.6621874,11.1071361 L17.3331249,11.1071361 Z M21.9493749,11.1071361 L22.1931249,11.8028206 L23.1409374,11.8028206 L23.3696874,11.1071361 L21.9493749,11.1071361 Z M24.6343751,11.1071361 L24.6343751,11.8028206 L28,11.8028206 L28,11.1071361 L24.6343751,11.1071361 Z M4.03656232,12.4591454 L4.03656232,13.1538462 L8.70812488,13.1538462 L8.70812488,12.4591454 L4.03656232,12.4591454 Z M9.33343768,12.4591454 L9.33343768,13.1528622 L14.41,13.1528622 C15.3106298,13.1528622 15.9906249,12.4591454 15.9906249,12.4591454 L9.33343768,12.4591454 Z M17.3331249,12.4591454 L17.3331249,13.1538462 L20.6621874,13.1538462 L20.6621874,12.4591454 L17.3331249,12.4591454 Z M22.4115626,12.4591454 L22.6459377,13.1518778 L22.68625,13.1528622 L22.9243751,12.4591454 L22.4115626,12.4591454 Z M24.6343751,12.4591454 L24.6343751,13.1538462 L28,13.1538462 L28,12.4591454 L24.6343751,12.4591454 Z" id="Shape" fill="#FFFFFF" fill-rule="nonzero"></path>
            <path d="M10.2316407,27 L10.2316407,21.2617188 L9.44648442,21.2617188 L9.44648442,27 L10.2316407,27 Z M12.7960157,27 L12.7960157,23.6132812 C12.7960157,23.4778646 12.7927604,23.266276 12.78625,22.9785156 C12.7797396,22.6907552 12.7764844,22.4765625 12.7764844,22.3359375 L12.7764844,22.1601562 L14.4249219,27 L15.1944532,27 L16.8311719,22.1601562 C16.8311719,22.4700521 16.8285677,22.7604167 16.8233594,23.03125 C16.8181511,23.3020833 16.8155469,23.4960938 16.8155469,23.6132812 L16.8155469,27 L17.5538282,27 L17.5538282,21.2617188 L16.4522657,21.2617188 L14.8155469,26.1132812 L13.1671094,21.2617188 L12.0538282,21.2617188 L12.0538282,27 L12.7960157,27 Z M21.3642969,27.1679688 C21.9762761,27.1679688 22.5133854,27.03125 22.975625,26.7578125 C23.4378646,26.484375 23.6689844,26.0299479 23.6689844,25.3945312 C23.6689844,24.8841146 23.4866927,24.4947917 23.1221094,24.2265625 C22.9111719,24.0729167 22.6116927,23.9518229 22.2236719,23.8632812 L22.2236719,23.8632812 L21.4189844,23.6796875 C20.8773177,23.5546875 20.5296615,23.4505208 20.3760156,23.3671875 C20.1416406,23.2369792 20.0244531,23.03125 20.0244531,22.75 C20.0244531,22.4947917 20.1247136,22.2708333 20.3252344,22.078125 C20.5257552,21.8854167 20.8551823,21.7890625 21.3135156,21.7890625 C21.881224,21.7890625 22.2835677,21.9388021 22.5205469,22.2382812 C22.6481511,22.4023438 22.7314844,22.6380208 22.7705469,22.9453125 L22.7705469,22.9453125 L23.5010156,22.9453125 C23.5010156,22.3072917 23.2907292,21.843099 22.8701563,21.5527344 C22.4495833,21.2623698 21.9385156,21.1171875 21.3369531,21.1171875 C20.6833073,21.1171875 20.178099,21.2825521 19.8213281,21.6132812 C19.4645573,21.9440104 19.2861719,22.3671875 19.2861719,22.8828125 C19.2861719,23.359375 19.4684636,23.7174479 19.8330469,23.9570312 C20.0439844,24.0950521 20.4033594,24.2213542 20.9111719,24.3359375 L20.9111719,24.3359375 L21.6885156,24.5117188 C22.1103906,24.6080729 22.4202865,24.7213542 22.6182031,24.8515625 C22.8135156,24.984375 22.9111719,25.2070312 22.9111719,25.5195312 C22.9111719,25.9361979 22.6794011,26.2252604 22.2158594,26.3867188 C21.9762761,26.4700521 21.7106511,26.5117188 21.4189844,26.5117188 C20.7679427,26.5117188 20.3135156,26.3216146 20.0557031,25.9414062 C19.9202865,25.7382812 19.8434636,25.4739583 19.8252344,25.1484375 L19.8252344,25.1484375 L19.0947656,25.1484375 C19.0869531,25.7682292 19.2848698,26.2591146 19.6885156,26.6210938 C20.0921615,26.9856771 20.6507552,27.1679688 21.3642969,27.1679688 Z" id="IMSDC" fill="#FFFFFF" fill-rule="nonzero"></path>
        </g>
    </g>
</svg>