<?xml version="1.0" encoding="iso-8859-1"?>
<!-- Generator: Adobe Illustrator 19.0.0, SVG Export Plug-In . SVG Version: 6.00 Build 0)  -->
<svg xmlns="http://www.w3.org/2000/svg" xmlns:xlink="http://www.w3.org/1999/xlink" version="1.1" id="Capa_1" x="0px" y="0px" viewBox="0 0 512 512" style="enable-background:new 0 0 512 512;" xml:space="preserve" width="512px" height="512px">
<g>
	<g>
		<path d="M482,333.763V178.237c17.422-6.213,30-22.707,30-42.237c0-24.814-20.186-45-45-45c-13.046,0-24.712,5.671-32.939,14.57    L300.713,47.847C300.775,46.888,301,45.976,301,45c0-24.814-20.186-45-45-45c-24.814,0-45,20.186-45,45    c0,0.976,0.225,1.888,0.287,2.847L77.939,105.57C69.712,96.671,58.046,91,45,91c-24.814,0-45,20.186-45,45    c0,19.53,12.578,36.024,30,42.237v155.526C12.578,339.976,0,356.47,0,376c0,24.814,20.186,45,45,45    c13.046,0,24.712-5.671,32.939-14.57l133.349,57.722c-0.063,0.96-0.288,1.872-0.288,2.848c0,24.814,20.186,45,45,45    c24.814,0,45-20.186,45-45c0-0.976-0.225-1.888-0.287-2.847l133.349-57.722C442.288,415.329,453.954,421,467,421    c24.814,0,45-20.186,45-45C512,356.47,499.422,339.976,482,333.763z M271,87.237c6.925-2.47,13.044-6.513,17.939-11.807    l122.992,53.282l-116.28,16.463c-5.235-9.921-13.967-17.602-24.651-21.412V87.237z M424.567,157.222l-59.288,58.288    C359.412,212.703,352.927,211,346,211s-13.412,1.703-19.279,4.51l-30.231-30.231c1.578-3.3,2.877-6.746,3.615-10.426    L424.567,157.222z M223.061,75.43c4.895,5.294,11.014,9.337,17.939,11.807v36.526c-10.684,3.81-19.417,11.492-24.651,21.412    l-115.28-16.463L223.061,75.43z M211.895,174.853c0.738,3.68,2.036,7.126,3.615,10.426l-30.231,30.231    C179.412,212.703,172.927,211,166,211s-13.412,1.703-19.279,4.51l-59.288-58.288L211.895,174.853z M64.279,335.51    c-1.39-0.665-2.814-1.225-4.279-1.747V178.237c1.465-0.522,2.889-1.082,4.279-1.747l61.231,60.231    C122.703,242.588,121,249.073,121,256s1.703,13.412,4.51,19.279L64.279,335.51z M146.721,296.49    c5.867,2.807,12.352,4.51,19.279,4.51s13.412-1.703,19.279-4.51l30.231,30.231c-1.578,3.3-2.877,6.746-3.615,10.426    L87.433,354.778L146.721,296.49z M241,424.763c-6.925,2.47-13.044,6.513-17.939,11.807l-121.992-53.282l115.28-16.463    c5.235,9.921,13.967,17.602,24.651,21.412V424.763z M236.721,305.51l-30.231-30.231c2.807-5.867,4.51-12.352,4.51-19.279    s-1.703-13.412-4.51-19.279l30.231-30.231c5.867,2.807,12.352,4.51,19.279,4.51s13.412-1.703,19.279-4.51l30.231,30.231    C302.703,242.588,301,249.073,301,256s1.703,13.412,4.51,19.279l-30.231,30.231C269.412,302.703,262.927,301,256,301    S242.588,302.703,236.721,305.51z M288.939,436.57c-4.895-5.294-11.014-9.337-17.939-11.807v-36.526    c10.684-3.81,19.417-11.492,24.651-21.412l116.28,16.463L288.939,436.57z M300.105,337.147c-0.738-3.68-2.036-7.126-3.615-10.426    l30.231-30.231c5.867,2.807,12.352,4.51,19.279,4.51s13.412-1.703,19.279-4.51l59.288,58.288L300.105,337.147z M452,333.763    c-1.465,0.522-2.889,1.082-4.279,1.747l-61.231-60.231c2.807-5.867,4.51-12.352,4.51-19.279s-1.703-13.412-4.51-19.279    l61.231-60.231c1.39,0.665,2.814,1.225,4.279,1.747V333.763z" fill="#000000"/>
	</g>
</g>
<g>
</g>
<g>
</g>
<g>
</g>
<g>
</g>
<g>
</g>
<g>
</g>
<g>
</g>
<g>
</g>
<g>
</g>
<g>
</g>
<g>
</g>
<g>
</g>
<g>
</g>
<g>
</g>
<g>
</g>
</svg>
