<?xml version="1.0" encoding="UTF-8" standalone="no"?>
<!DOCTYPE svg PUBLIC "-//W3C//DTD SVG 1.1//EN" "http://www.w3.org/Graphics/SVG/1.1/DTD/svg11.dtd">
<!-- Created with Vectornator (http://vectornator.io/) -->
<svg height="100%" stroke-miterlimit="10" style="fill-rule:nonzero;clip-rule:evenodd;stroke-linecap:round;stroke-linejoin:round;" version="1.1" viewBox="0 0 256 256" width="100%" xml:space="preserve" xmlns="http://www.w3.org/2000/svg" xmlns:vectornator="http://vectornator.io" xmlns:xlink="http://www.w3.org/1999/xlink">
<defs/>
<g id="Layer-1" vectornator:layerName="Layer 1">
<path d="M17.2906 1.53677L238.669 1.81393L218.237 227.261L127.981 253.258L37.235 227.403L17.2906 1.53677Z" fill="#e55b5c" fill-rule="nonzero" opacity="1" stroke="none"/>
<path d="M126.75 22.7376L216.025 22.6334L199.796 212.89L127.805 232.866L126.75 22.7376Z" fill="#ed6767" fill-rule="nonzero" opacity="1" stroke="none"/>
<path d="M64.5384 122.649C64.5384 122.649 74.7912 151.663 127.406 150.973C174.093 150.36 189.542 125.093 189.542 125.093C189.542 125.093 188.52 201.102 127.775 201.893C66.6339 202.688 64.5384 122.649 64.5384 122.649Z" fill="#ffffff" fill-rule="nonzero" opacity="1" stroke="none"/>
<path d="M126.406 101.094C72.0076 101.579 74.3732 123.905 85.5312 129.312C83.3886 123.278 90.269 114.555 124.875 113.688C125.95 113.795 126.873 113.976 128.094 114C163.745 114.693 170.667 123.584 168.5 129.688C179.246 124.48 181.69 103.629 133.281 101.656C131.337 101.292 129.078 101.07 126.406 101.094Z" fill="#ffffff" fill-rule="nonzero" opacity="1" stroke="none"/>
<path d="M127.708 35.9423C117.403 46.7437 116.299 53.038 113.643 71.3717C117.78 80.4668 126.829 78.6311 127.472 94.0984C127.812 73.4655 127.579 91.9544 127.708 35.9423Z" fill="#f3f3f3" fill-rule="nonzero" opacity="1" stroke="none"/>
<path d="M127.716 94.7365C138.022 83.9351 139.126 77.6408 141.782 59.3071C137.645 50.2121 128.596 52.0477 127.953 36.5804C127.613 57.2133 127.845 38.7244 127.716 94.7365Z" fill="#ffffff" fill-rule="nonzero" opacity="1" stroke="none"/>
<path d="M64.5312 122.656C64.5313 122.656 66.6398 202.702 127.781 201.906C127.925 201.904 128.044 201.878 128.188 201.875L128.188 150.938C127.918 150.943 127.677 150.965 127.406 150.969C74.7917 151.659 64.5312 122.656 64.5312 122.656Z" fill="#f3f3f3" fill-rule="nonzero" opacity="1" stroke="none"/>
<path d="M126.406 101.094C72.0076 101.579 74.3731 123.905 85.5312 129.312C83.3886 123.278 90.269 114.555 124.875 113.688C125.721 113.772 126.53 113.874 127.406 113.938L127.406 101.188C127.034 101.181 126.795 101.09 126.406 101.094Z" fill="#f3f3f3" fill-rule="nonzero" opacity="1" stroke="none"/>
</g>
</svg>
