<?xml version="1.0" encoding="UTF-8"?>
<svg width="32px" height="32px" viewBox="0 0 32 32" version="1.1" xmlns="http://www.w3.org/2000/svg" xmlns:xlink="http://www.w3.org/1999/xlink">
    <title>ibmimsdc-plain</title>
    <g id="ibmimsdc-plain" stroke="none" stroke-width="1" fill="none" fill-rule="evenodd">
        <g id="Group" fill="#000000">
            <path d="M30,0 C31.1045695,-2.02906125e-16 32,0.8954305 32,2 L32,16 L0,16 L0,2 C-1.3527075e-16,0.8954305 0.8954305,2.02906125e-16 2,0 L30,0 Z M28,12.4591454 L24.6343751,12.4591454 L24.6343751,13.1538462 L28,13.1538462 L28,12.4591454 Z M20.6621874,12.4591454 L17.3331249,12.4591454 L17.3331249,13.1538462 L20.6621874,13.1538462 L20.6621874,12.4591454 Z M8.70812488,12.4591454 L4.03656232,12.4591454 L4.03656232,13.1538462 L8.70812488,13.1538462 L8.70812488,12.4591454 Z M22.9243751,12.4591454 L22.4115626,12.4591454 L22.6459377,13.1518778 L22.68625,13.1528622 L22.9243751,12.4591454 Z M15.9906249,12.4591454 L9.33343768,12.4591454 L9.33343768,13.1528622 L14.41,13.1528622 C15.3106298,13.1528622 15.9906249,12.4591454 15.9906249,12.4591454 Z M28,11.1071361 L24.6343751,11.1071361 L24.6343751,11.8028206 L28,11.8028206 L28,11.1071361 Z M23.3696874,11.1071361 L21.9493749,11.1071361 L22.1931249,11.8028206 L23.1409374,11.8028206 L23.3696874,11.1071361 Z M20.6621874,11.1071361 L17.3331249,11.1071361 L17.3331249,11.8028206 L20.6621874,11.8028206 L20.6621874,11.1071361 Z M16.7631251,11.1071361 L9.33343768,11.1071361 L9.33343768,11.8028206 L16.525,11.8028206 C16.67635,11.6435237 16.7631251,11.1071361 16.7631251,11.1071361 Z M8.70812488,11.1071361 L4.03656232,11.1071361 L4.03656232,11.8028206 L8.70812488,11.8028206 L8.70812488,11.1071361 Z M26.6575,9.75611082 L24.6343751,9.75611082 L24.6343751,10.4508111 L26.6575,10.4508111 L26.6575,9.75611082 Z M23.8281249,9.75611082 L21.4890623,9.75611082 L21.72625,10.4508111 L23.5890623,10.4508111 L23.8281249,9.75611082 Z M20.6621874,9.75611082 L18.6390626,9.75611082 L18.6390626,10.4508111 L20.6621874,10.4508111 L20.6621874,9.75611082 Z M16.69,9.75611082 L14.6668751,9.75611082 L14.6668751,10.4508111 L16.8184374,10.4508111 C16.8184374,10.1229604 16.69,9.75611082 16.69,9.75611082 Z M12.6990623,9.75611082 L10.6759377,9.75611082 L10.6759377,10.4508111 L12.6990623,10.4508111 L12.6990623,9.75611082 Z M7.36562488,9.75611082 L5.3424999,9.75611082 L5.3424999,10.4508111 L7.36562488,10.4508111 L7.36562488,9.75611082 Z M15.8434377,8.40508548 L10.6759377,8.40508548 L10.6759377,9.09978575 L16.4134374,9.09978575 C16.2756777,8.76264556 15.8434377,8.40508548 15.8434377,8.40508548 Z M7.36562488,8.40508548 L5.3424999,8.40508548 L5.3424999,9.09978575 L7.36562488,9.09978575 L7.36562488,8.40508548 Z M20.6621874,8.40508548 L18.6390626,8.40508548 L18.6390626,9.09978575 L20.6621874,9.09978575 L20.6621874,8.40508548 Z M24.2856251,8.40508548 L21.0296874,8.40508548 L21.2743751,9.09978575 L24.0531251,9.09978575 L24.2856251,8.40508548 Z M26.6575,8.40508548 L24.6343751,8.40508548 L24.6343751,9.09978575 L26.6575,9.09978575 L26.6575,8.40508548 Z M22.4556251,7.05406015 L18.6390626,7.05406015 L18.6390626,7.74876042 L20.6621874,7.74876042 L20.6621874,7.36205042 L20.7906249,7.74876042 L24.4965626,7.74876042 L24.6343751,7.36205042 L24.6343751,7.74876042 L26.6575,7.74876042 L26.6575,7.05406015 L22.8596874,7.05406015 L22.6581249,7.64248899 L22.4556251,7.05406015 Z M16.4134374,7.05406015 L10.6759377,7.05406015 L10.6759377,7.74876042 L15.8434377,7.74876042 C15.8434379,7.74876042 16.2757074,7.39230254 16.4134374,7.05406015 Z M7.36562488,7.05406015 L5.3424999,7.05406015 L5.3424999,7.74876042 L7.36562488,7.74876042 L7.36562488,7.05406015 Z M26.6575,5.70205066 L23.2928126,5.70205066 L23.0528126,6.39773508 L26.6575,6.39773508 L26.6575,5.70205066 Z M21.9868751,5.70205066 L18.6390626,5.70205066 L18.6390626,6.39773508 L22.2259377,6.39773508 L21.9868751,5.70205066 Z M16.8184374,5.70205066 L14.6668751,5.70205066 L14.6668751,6.39773508 L16.69,6.39773508 C16.6900002,6.39773508 16.8184374,6.03034304 16.8184374,5.70205066 Z M12.6990623,5.70205066 L10.6759377,5.70205066 L10.6759377,6.39773508 L12.6990623,6.39773508 L12.6990623,5.70205066 Z M7.36562488,5.70205066 L5.3424999,5.70205066 L5.3424999,6.39773508 L7.36562488,6.39773508 L7.36562488,5.70205066 Z M27.9634374,4.35200937 L23.7334374,4.35200937 L23.5121874,5.0457259 L27.9634374,5.0457259 L27.9634374,4.35200937 Z M21.5443749,4.35200937 L17.2965626,4.35200937 L17.2965626,5.0457259 L21.7656251,5.0457259 L21.5443749,4.35200937 Z M16.525,4.35200937 L9.33343768,4.35200937 L9.33343768,5.0457259 L16.7631251,5.0457259 C16.7631251,5.0457259 16.67635,4.51105441 16.525,4.35200937 Z M8.67156256,4.35102533 L4,4.35102533 L4,5.0457259 L8.67156256,5.0457259 L8.67156256,4.35102533 Z M27.9634374,3 L24.2115626,3 L23.9725,3.69470077 L27.9634374,3.69470077 L27.9634374,3 Z M21.085,3 L17.2965626,3 L17.2965626,3.69470077 L21.3240626,3.69470077 L21.085,3 Z M14.41,3 L9.33343768,3 L9.33343768,3.69470077 L15.9906249,3.69470077 C15.9906249,3.69470077 15.31063,3 14.41,3 Z M8.67156256,3 L4,3 L4,3.69470077 L8.67156256,3.69470077 L8.67156256,3 Z" id="Combined-Shape"></path>
            <path d="M3.23164067,27 L3.23164067,21.2617188 L2.44648442,21.2617188 L2.44648442,27 L3.23164067,27 Z M5.79601565,27 L5.79601565,23.6132812 C5.79601565,23.4778646 5.79276044,23.266276 5.78625003,22.9785156 C5.77973961,22.6907552 5.7764844,22.4765625 5.7764844,22.3359375 L5.7764844,22.1601562 L7.4249219,27 L8.19445315,27 L9.8311719,22.1601562 C9.8311719,22.4700521 9.82856773,22.7604167 9.8233594,23.03125 C9.81815107,23.3020833 9.8155469,23.4960938 9.8155469,23.6132812 L9.8155469,27 L10.5538282,27 L10.5538282,21.2617188 L9.45226565,21.2617188 L7.8155469,26.1132812 L6.1671094,21.2617188 L5.05382815,21.2617188 L5.05382815,27 L5.79601565,27 Z M14.3642969,27.1679688 C14.9762761,27.1679688 15.5133854,27.03125 15.975625,26.7578125 C16.4378646,26.484375 16.6689844,26.0299479 16.6689844,25.3945312 C16.6689844,24.8841146 16.4866927,24.4947917 16.1221094,24.2265625 C15.9111719,24.0729167 15.6116927,23.9518229 15.2236719,23.8632812 L15.2236719,23.8632812 L14.4189844,23.6796875 C13.8773177,23.5546875 13.5296615,23.4505208 13.3760156,23.3671875 C13.1416406,23.2369792 13.0244531,23.03125 13.0244531,22.75 C13.0244531,22.4947917 13.1247136,22.2708333 13.3252344,22.078125 C13.5257552,21.8854167 13.8551823,21.7890625 14.3135156,21.7890625 C14.881224,21.7890625 15.2835677,21.9388021 15.5205469,22.2382812 C15.6481511,22.4023438 15.7314844,22.6380208 15.7705469,22.9453125 L15.7705469,22.9453125 L16.5010156,22.9453125 C16.5010156,22.3072917 16.2907292,21.843099 15.8701563,21.5527344 C15.4495833,21.2623698 14.9385156,21.1171875 14.3369531,21.1171875 C13.6833073,21.1171875 13.178099,21.2825521 12.8213281,21.6132812 C12.4645573,21.9440104 12.2861719,22.3671875 12.2861719,22.8828125 C12.2861719,23.359375 12.4684636,23.7174479 12.8330469,23.9570312 C13.0439844,24.0950521 13.4033594,24.2213542 13.9111719,24.3359375 L13.9111719,24.3359375 L14.6885156,24.5117188 C15.1103906,24.6080729 15.4202865,24.7213542 15.6182031,24.8515625 C15.8135156,24.984375 15.9111719,25.2070312 15.9111719,25.5195312 C15.9111719,25.9361979 15.6794011,26.2252604 15.2158594,26.3867188 C14.9762761,26.4700521 14.7106511,26.5117188 14.4189844,26.5117188 C13.7679427,26.5117188 13.3135156,26.3216146 13.0557031,25.9414062 C12.9202865,25.7382812 12.8434636,25.4739583 12.8252344,25.1484375 L12.8252344,25.1484375 L12.0947656,25.1484375 C12.0869531,25.7682292 12.2848698,26.2591146 12.6885156,26.6210938 C13.0921615,26.9856771 13.6507552,27.1679688 14.3642969,27.1679688 Z M20.5849219,27 C21.5692969,27 22.2633073,26.5651042 22.6669531,25.6953125 C22.8961198,25.203125 23.0107031,24.6523438 23.0107031,24.0429688 C23.0107031,23.2539062 22.8166927,22.6067708 22.4286719,22.1015625 C21.993776,21.5416667 21.3817969,21.2617188 20.5927344,21.2617188 L20.5927344,21.2617188 L18.2685156,21.2617188 L18.2685156,27 L20.5849219,27 Z M20.4364844,26.3359375 L19.0497656,26.3359375 L19.0497656,21.9296875 L20.4286719,21.9296875 C21.056276,21.9296875 21.5113542,22.1263021 21.7939062,22.5195312 C22.0764583,22.9127604 22.2177344,23.4648438 22.2177344,24.1757812 C22.2177344,24.3606771 22.1982031,24.5611979 22.1591406,24.7773438 C22.0914323,25.1393229 21.9807552,25.4361979 21.8271094,25.6679688 C21.634401,25.9570312 21.3870052,26.1523438 21.0849219,26.2539062 C20.915651,26.3085938 20.6995052,26.3359375 20.4364844,26.3359375 L20.4364844,26.3359375 Z M26.9071093,27.1484375 C27.6805468,27.1484375 28.2951302,26.9023438 28.7508593,26.4101562 C29.1310677,26.0013021 29.355026,25.4947917 29.4227343,24.890625 L29.4227343,24.890625 L28.6649218,24.890625 C28.5867968,25.2682292 28.4683073,25.5729167 28.3094531,25.8046875 C28.0099739,26.2447917 27.573776,26.4648438 27.0008593,26.4648438 C26.3784635,26.4648438 25.9103646,26.2558594 25.5965625,25.8378906 C25.2827604,25.4199219 25.1258593,24.875 25.1258593,24.203125 C25.1258593,23.3828125 25.2996875,22.7740885 25.6473437,22.3769531 C25.995,21.9798177 26.4513802,21.78125 27.0164843,21.78125 C27.480026,21.78125 27.8400521,21.8893229 28.0965625,22.1054688 C28.3530729,22.3216146 28.5242968,22.6145833 28.6102343,22.984375 L28.6102343,22.984375 L29.3680468,22.984375 C29.323776,22.4973958 29.1011198,22.0625 28.7000781,21.6796875 C28.2990364,21.296875 27.7352343,21.1054688 27.0086718,21.1054688 C26.1571093,21.1054688 25.4891406,21.3997396 25.0047656,21.9882812 C24.5568489,22.5299479 24.3328906,23.2239583 24.3328906,24.0703125 C24.3328906,25.1848958 24.6310677,26.0091146 25.2274218,26.5429688 C25.6805468,26.9466146 26.2404427,27.1484375 26.9071093,27.1484375 Z" id="IMSDC" fill-rule="nonzero"></path>
        </g>
    </g>
</svg>