<?xml version="1.0" encoding="UTF-8" standalone="no"?>
<!DOCTYPE svg PUBLIC "-//W3C//DTD SVG 1.1//EN" "http://www.w3.org/Graphics/SVG/1.1/DTD/svg11.dtd">
<!-- Created with Vectornator (http://vectornator.io/) -->
<svg height="100%" stroke-miterlimit="10" style="fill-rule:nonzero;clip-rule:evenodd;stroke-linecap:round;stroke-linejoin:round;" version="1.1" viewBox="0 0 32 32" width="100%" xml:space="preserve" xmlns="http://www.w3.org/2000/svg" xmlns:vectornator="http://vectornator.io" xmlns:xlink="http://www.w3.org/1999/xlink">
<defs/>
<g id="IBM-MQ" vectornator:layerName="IBM MQ">
<g opacity="1" vectornator:layerName="Group">
<path d="M2 0L30 0C31.1046 0 32 0.895431 32 2L32 30C32 31.1046 31.1046 32 30 32L2 32C0.895431 32 0 31.1046 0 30L0 2C0 0.895431 0.895431 0 2 0Z" fill="#068021" fill-rule="evenodd" opacity="1" stroke="none" vectornator:layerName="Rectangle 2"/>
<path d="M2 0C0.89543 0 0 0.89543 0 2L0 16L32 16L32 2C32 0.89543 31.1046 0 30 0L2 0Z" fill="#000000" fill-rule="evenodd" opacity="1" stroke="none" vectornator:layerName="Combined Shape"/>
<path d="M4 3L4 3.6947L8.67156 3.6947L8.67156 3L4 3ZM9.33344 3L9.33344 3.6947L15.9906 3.6947C15.9906 3.6947 15.3106 3 14.41 3L9.33344 3ZM17.2966 3L17.2966 3.6947L21.3241 3.6947L21.085 3L17.2966 3ZM24.2116 3L23.9725 3.6947L27.9634 3.6947L27.9634 3L24.2116 3ZM4 4.35103L4 5.04573L8.67156 5.04573L8.67156 4.35103L4 4.35103ZM9.33344 4.35201L9.33344 5.04573L16.7631 5.04573C16.7631 5.04573 16.6763 4.51105 16.525 4.35201L9.33344 4.35201ZM17.2966 4.35201L17.2966 5.04573L21.7656 5.04573L21.5444 4.35201L17.2966 4.35201ZM23.7334 4.35201L23.5122 5.04573L27.9634 5.04573L27.9634 4.35201L23.7334 4.35201ZM5.3425 5.70205L5.3425 6.39774L7.36562 6.39774L7.36562 5.70205L5.3425 5.70205ZM10.6759 5.70205L10.6759 6.39774L12.6991 6.39774L12.6991 5.70205L10.6759 5.70205ZM14.6669 5.70205L14.6669 6.39774L16.69 6.39774C16.69 6.39774 16.8184 6.03034 16.8184 5.70205L14.6669 5.70205ZM18.6391 5.70205L18.6391 6.39774L22.2259 6.39774L21.9869 5.70205L18.6391 5.70205ZM23.2928 5.70205L23.0528 6.39774L26.6575 6.39774L26.6575 5.70205L23.2928 5.70205ZM5.3425 7.05406L5.3425 7.74876L7.36562 7.74876L7.36562 7.05406L5.3425 7.05406ZM10.6759 7.05406L10.6759 7.74876L15.8434 7.74876C15.8434 7.74876 16.2757 7.3923 16.4134 7.05406L10.6759 7.05406ZM18.6391 7.05406L18.6391 7.74876L20.6622 7.74876L20.6622 7.36205L20.7906 7.74876L24.4966 7.74876L24.6344 7.36205L24.6344 7.74876L26.6575 7.74876L26.6575 7.05406L22.8597 7.05406L22.6581 7.64249L22.4556 7.05406L18.6391 7.05406ZM5.3425 8.40509L5.3425 9.09979L7.36562 9.09979L7.36562 8.40509L5.3425 8.40509ZM10.6759 8.40509L10.6759 9.09979L16.4134 9.09979C16.2757 8.76265 15.8434 8.40509 15.8434 8.40509L10.6759 8.40509ZM18.6391 8.40509L18.6391 9.09979L20.6622 9.09979L20.6622 8.40509L18.6391 8.40509ZM21.0297 8.40509L21.2744 9.09979L24.0531 9.09979L24.2856 8.40509L21.0297 8.40509ZM24.6344 8.40509L24.6344 9.09979L26.6575 9.09979L26.6575 8.40509L24.6344 8.40509ZM5.3425 9.75611L5.3425 10.4508L7.36562 10.4508L7.36562 9.75611L5.3425 9.75611ZM10.6759 9.75611L10.6759 10.4508L12.6991 10.4508L12.6991 9.75611L10.6759 9.75611ZM14.6669 9.75611L14.6669 10.4508L16.8184 10.4508C16.8184 10.123 16.69 9.75611 16.69 9.75611L14.6669 9.75611ZM18.6391 9.75611L18.6391 10.4508L20.6622 10.4508L20.6622 9.75611L18.6391 9.75611ZM21.4891 9.75611L21.7263 10.4508L23.5891 10.4508L23.8281 9.75611L21.4891 9.75611ZM24.6344 9.75611L24.6344 10.4508L26.6575 10.4508L26.6575 9.75611L24.6344 9.75611ZM4.03656 11.1071L4.03656 11.8028L8.70812 11.8028L8.70812 11.1071L4.03656 11.1071ZM9.33344 11.1071L9.33344 11.8028L16.525 11.8028C16.6763 11.6435 16.7631 11.1071 16.7631 11.1071L9.33344 11.1071ZM17.3331 11.1071L17.3331 11.8028L20.6622 11.8028L20.6622 11.1071L17.3331 11.1071ZM21.9494 11.1071L22.1931 11.8028L23.1409 11.8028L23.3697 11.1071L21.9494 11.1071ZM24.6344 11.1071L24.6344 11.8028L28 11.8028L28 11.1071L24.6344 11.1071ZM4.03656 12.4591L4.03656 13.1538L8.70812 13.1538L8.70812 12.4591L4.03656 12.4591ZM9.33344 12.4591L9.33344 13.1529L14.41 13.1529C15.3106 13.1529 15.9906 12.4591 15.9906 12.4591L9.33344 12.4591ZM17.3331 12.4591L17.3331 13.1538L20.6622 13.1538L20.6622 12.4591L17.3331 12.4591ZM22.4116 12.4591L22.6459 13.1519L22.6863 13.1529L22.9244 12.4591L22.4116 12.4591ZM24.6344 12.4591L24.6344 13.1538L28 13.1538L28 12.4591L24.6344 12.4591Z" fill="#ffffff" fill-rule="nonzero" opacity="1" stroke="none" vectornator:layerName="Shape"/>
<path d="M15.5803 22.3154L16.3845 22.3154L16.3845 27L15.5803 27L15.5803 22.3154ZM15.5803 20.5444L16.3845 20.5444L16.3845 21.4409L15.5803 21.4409L15.5803 20.5444Z" fill="#ffffff" opacity="1" stroke="none" vectornator:layerName="MQ"/>
</g>
</g>
</svg>
