<?xml version="1.0" encoding="UTF-8"?>
<svg width="32px" height="32px" viewBox="0 0 32 32" version="1.1" xmlns="http://www.w3.org/2000/svg" xmlns:xlink="http://www.w3.org/1999/xlink">
    <title>dotnetcore</title>
    <g id="dotnetcore" stroke="none" stroke-width="1" fill="none" fill-rule="evenodd">
        <g id="netcore" transform="translate(0.492308, 0.000000)" fill="#5C2D91" fill-rule="nonzero">
            <path d="M15.7538462,0 C24.4544551,0 31.5076923,7.05323717 31.5076923,15.7538462 C31.5076923,24.4544551 24.4544551,31.5076923 15.7538462,31.5076923 C7.05323717,31.5076923 0,24.4544551 0,15.7538462 C0,7.05323717 7.05323717,0 15.7538462,0 Z M11.8843077,20.3027692 C11.3156213,20.2845733 10.7654408,20.5060746 10.368,20.9132308 C9.96047381,21.3455764 9.7455534,21.9246182 9.77230769,22.5181538 C9.75167144,23.0607267 9.94226642,23.5901572 10.304,23.9950769 C10.6712731,24.3787491 11.1863361,24.5851332 11.7169231,24.5612308 C12.1115968,24.5749384 12.5036541,24.4921332 12.8590769,24.32 L12.8590769,24.32 L12.864,23.8621538 C12.5371475,24.0522847 12.1638467,24.1477406 11.7858462,24.1378462 C11.3751749,24.1544689 10.9777423,23.9908201 10.6978462,23.6898462 C10.4094977,23.3562351 10.2613191,22.9240475 10.2843077,22.4836923 C10.2614534,22.0188342 10.4203536,21.5633203 10.7273846,21.2135385 C11.0228386,20.8886568 11.445345,20.7088668 11.8843077,20.7212308 C12.2283826,20.7158434 12.5678628,20.8007134 12.8689231,20.9673846 L12.8689231,20.9673846 L12.8689231,20.4750769 C12.5562285,20.3499463 12.2209132,20.2912662 11.8843077,20.3027692 Z M14.9415385,21.4449231 C14.5334675,21.426589 14.1360265,21.57808 13.8436923,21.8633846 C13.5574345,22.180344 13.4102437,22.5988622 13.4350769,23.0252308 C13.4150312,23.4281252 13.5547963,23.8226521 13.824,24.1230769 C14.0935117,24.4142097 14.4760929,24.5740676 14.8726154,24.5612308 C15.2767429,24.5733853 15.6663457,24.4100035 15.9409231,24.1132308 C16.217146,23.8026663 16.3603489,23.3960408 16.3396923,22.9809231 C16.3641143,22.5718924 16.2321214,22.1688743 15.9704615,21.8535385 C15.7036027,21.5736309 15.3277237,21.4243583 14.9415385,21.4449231 Z M20.4346137,21.464747 L20.3076923,21.4646154 C19.9311079,21.4539711 19.5696509,21.6130122 19.3230769,21.8978462 C19.0555196,22.2089893 18.9164595,22.6103273 18.9341538,23.0203077 C18.9091327,23.4292824 19.037246,23.8329272 19.2935385,24.1526154 C19.5452536,24.4270869 19.9062093,24.5750787 20.2781538,24.5563077 C20.6422487,24.5746229 21.0026937,24.4763197 21.3070769,24.2756923 L21.3070769,24.2756923 L21.3070769,23.8326154 C21.0478822,24.042868 20.7251165,24.159133 20.3913846,24.1624615 C20.1311418,24.1773888 19.8768719,24.0806946 19.6923077,23.8966154 C19.5168291,23.6841442 19.4272576,23.4136733 19.4412308,23.1384615 L19.4412308,23.1384615 L21.5236923,23.1384615 L21.5187692,22.8824615 C21.5421832,22.5080506 21.4303732,22.1376798 21.2036923,21.8387692 C20.9780738,21.5834319 20.6478945,21.4455549 20.3076923,21.4646154 Z M18.3581538,21.4892308 C18.1881528,21.4889082 18.023777,21.5501119 17.8953846,21.6615385 C17.7470003,21.7925638 17.6393516,21.9634347 17.5852308,22.1538462 L17.5852308,22.1538462 L17.5852308,21.5384615 L17.0929231,21.5384615 L17.0929231,24.4923077 L17.5852308,24.4923077 L17.5852308,22.9858462 C17.5699935,22.7118834 17.6405492,22.4399858 17.7870769,22.208 C17.8934412,22.0368292 18.0779917,21.9297899 18.2793846,21.9224615 C18.4061871,21.9134802 18.5324353,21.9463393 18.6387692,22.016 L18.6387692,22.016 L18.6387692,21.5286154 C18.5484571,21.4983065 18.4533201,21.484954 18.3581538,21.4892308 Z M14.9070769,21.8683077 C15.1765991,21.8541642 15.437174,21.9671408 15.6110769,22.1735385 C15.7896539,22.4201826 15.8766962,22.7213489 15.8572308,23.0252308 C15.8772082,23.3276405 15.7900608,23.6274278 15.6110769,23.872 C15.4347737,24.0741118 15.1748125,24.1831865 14.9070769,24.1673846 C14.6338105,24.1787243 14.3699141,24.0666587 14.1883077,23.8621538 C14.0000359,23.6290532 13.9052681,23.33422 13.9224615,23.0350769 C13.9044113,22.7267657 13.9988753,22.4223816 14.1883077,22.1784615 C14.3681157,21.9709476 14.6327421,21.8567595 14.9070769,21.8683077 Z M20.2929231,21.8781538 C20.4985416,21.8670144 20.6979841,21.9504176 20.8344615,22.1046154 C20.9717566,22.2870695 21.0413692,22.5115701 21.0313846,22.7396923 L21.0313846,22.7396923 L19.4363077,22.7446154 C19.4627935,22.5102293 19.5647337,22.2907988 19.7267692,22.1193846 C19.8732584,21.9630671 20.0787098,21.875527 20.2929231,21.8781538 Z M3.64307692,16.9353846 C3.45641405,16.9331149 3.2775284,17.0100357 3.15076923,17.1470769 C3.02030316,17.2775468 2.94759661,17.4548798 2.94892308,17.6393846 C2.94647335,17.8241048 3.01935201,18.0018576 3.15076923,18.1316923 C3.27875192,18.2664052 3.45728519,18.3413892 3.64307692,18.3384615 C3.82852207,18.3396188 4.00638039,18.2649183 4.13538462,18.1316923 C4.26909836,18.0030221 4.34389103,17.8249443 4.34215385,17.6393846 C4.3427409,17.4540529 4.26813037,17.2764088 4.13538462,17.1470769 C4.00756105,17.0115496 3.82937323,16.9349288 3.64307692,16.9353846 Z M7.56184615,9.24061538 L6.19815385,9.24061538 L6.19815385,18.2153846 L7.24676923,18.2153846 L7.24676923,11.7267692 C7.25782418,11.315874 7.2413772,10.9046995 7.19753846,10.496 L7.19753846,10.496 L7.23692308,10.496 C7.31183347,10.6927166 7.40755672,10.8808623 7.52246154,11.0572308 L7.52246154,11.0572308 L12.1353846,18.2153846 L13.4252308,18.2153846 L13.4252308,9.24061538 L12.3766154,9.24061538 L12.3766154,15.552 C12.3672831,15.9927475 12.3886682,16.4336097 12.4406154,16.8713846 L12.4406154,16.8713846 L12.416,16.8713846 C12.3602051,16.7630769 12.2387692,16.5628718 12.0516923,16.2707692 L12.0516923,16.2707692 L7.56184615,9.24061538 Z M20.3027692,9.24061538 L15.7538462,9.24061538 L15.7538462,18.2153846 L20.5243077,18.2153846 L20.5292308,17.2307692 L16.8270769,17.2307692 L16.8270769,14.1193846 L20.0664615,14.1193846 L20.0664615,13.1741538 L16.8270769,13.1741538 L16.8270769,10.1907692 L20.3027692,10.1907692 L20.3027692,9.24061538 Z M27.5692308,9.24061538 L21.3316923,9.24061538 L21.3316923,10.1907692 L23.9113846,10.1907692 L23.9113846,18.2153846 L24.96,18.2153846 L24.96,10.1907692 L27.5692308,10.1907692 L27.5692308,9.24061538 Z" id="Oval-2"></path>
        </g>
    </g>
</svg>