<svg xmlns="http://www.w3.org/2000/svg" xmlns:xlink="http://www.w3.org/1999/xlink" viewBox="0 0 84.53 83.53" fill="#fff" fill-rule="evenodd" stroke="#000" stroke-linecap="round" stroke-linejoin="round"><use xlink:href="#A" x="9.765" y="9.765"/><symbol id="A" overflow="visible"><g stroke="none" fill-rule="nonzero"><path d="M64 31.99c-.022 17.659-14.331 31.969-31.99 31.99C14.343 63.97.022 49.657 0 31.99.022 14.331 14.331.022 31.99 0c17.659.022 31.969 14.331 31.99 31.99z" fill="#ec1c24"/><path d="M29.256 25.194l7.675 7.675c1.113 1.113 2.929 1.113 4.023 0s1.113-2.929 0-4.023l-7.675-7.675a14.45 14.45 0 0 0-19.999-.273l-.293.273c-5.429 5.761-5.351 14.648.137 20.116l7.675 7.675c1.113 1.113 2.929 1.113 4.023 0s1.113-2.929 0-4.023l-7.636-7.636c-3.32-3.32-3.379-8.788-.078-12.167s8.789-3.281 12.148.078zm9.902-10.214c-1.113 1.113-1.113 2.929 0 4.023l7.675 7.675c3.32 3.32 3.379 8.789.059 12.167s-8.788 3.281-12.148-.078l-7.675-7.675c-1.113-1.113-2.929-1.113-4.023 0s-1.113 2.929 0 4.023l7.675 7.675c5.468 5.468 14.355 5.586 19.979.273l.293-.273c5.429-5.761 5.351-14.648-.137-20.116l-7.695-7.675c-1.113-1.113-2.93-1.113-4.023 0z"/></g></symbol></svg>