<?xml version="1.0" encoding="iso-8859-1"?>
<!-- Generator: Adobe Illustrator 19.0.0, SVG Export Plug-In . SVG Version: 6.00 Build 0)  -->
<svg xmlns="http://www.w3.org/2000/svg" xmlns:xlink="http://www.w3.org/1999/xlink" version="1.1" id="Capa_1" x="0px" y="0px" viewBox="0 0 512.001 512.001" style="enable-background:new 0 0 512.001 512.001;" xml:space="preserve" width="512px" height="512px">
<g>
	<g>
		<path d="M492.898,5.75h-33.923c-4.143,0-7.5,3.358-7.5,7.5s3.357,7.5,7.5,7.5h33.923c2.262,0,4.102,1.84,4.102,4.101v343.467    c0,2.261-1.84,4.101-4.102,4.101h-46.064V84.267c0-10.532-8.568-19.101-19.101-19.101H145.331V24.851    c0-2.261,1.84-4.101,4.101-4.101h278.926c4.143,0,7.5-3.358,7.5-7.5s-3.357-7.5-7.5-7.5H149.432    c-10.532,0-19.101,8.569-19.101,19.101v40.315H84.267c-10.532,0-19.101,8.569-19.101,19.101v40.315H19.102    C8.569,124.582,0,133.15,0,143.683V487.15c0,10.532,8.569,19.101,19.102,19.101h271.923c4.143,0,7.5-3.358,7.5-7.5    c0-4.142-3.357-7.5-7.5-7.5H19.102c-2.262,0-4.102-1.84-4.102-4.101V143.683c0-2.261,1.84-4.101,4.102-4.101h343.467    c2.261,0,4.101,1.84,4.101,4.101v140.673c0,4.142,3.357,7.5,7.5,7.5s7.5-3.358,7.5-7.5V143.683    c0-10.532-8.568-19.101-19.101-19.101H80.166V84.267c0-2.261,1.84-4.101,4.101-4.101h343.467c2.261,0,4.101,1.84,4.101,4.101    v343.467c0,2.261-1.84,4.101-4.101,4.101H381.67V314.974c0-4.142-3.357-7.5-7.5-7.5s-7.5,3.358-7.5,7.5V487.15    c0,2.261-1.84,4.101-4.101,4.101h-40.926c-4.143,0-7.5,3.358-7.5,7.5c0,4.142,3.357,7.5,7.5,7.5h40.926    c10.532,0,19.101-8.569,19.101-19.101v-40.315h46.064c10.532,0,19.101-8.569,19.101-19.101v-40.315h46.064    c10.532,0,19.102-8.569,19.102-19.101V24.851C512,14.318,503.431,5.75,492.898,5.75z" fill="#000000"/>
	</g>
</g>
<g>
	<g>
		<path d="M140.176,197.979h-48.33c-9.429,0-17.1,7.671-17.1,17.1v48.331c0,9.429,7.671,17.1,17.1,17.1h48.33    c9.429-0.001,17.1-7.672,17.1-17.1v-48.331C157.276,205.65,149.605,197.979,140.176,197.979z M142.277,263.41    c0,1.158-0.941,2.1-2.1,2.1h-48.33c-1.159-0.001-2.1-0.943-2.1-2.1v-48.331c0-1.158,0.941-2.1,2.1-2.1h48.33    c1.158,0,2.1,0.942,2.1,2.1V263.41z" fill="#000000"/>
	</g>
</g>
<g>
	<g>
		<path d="M158.514,416.315L127.87,357.58c-2.313-4.435-6.856-7.189-11.858-7.189c-5.002,0-9.546,2.754-11.858,7.189l-30.643,58.735    c-2.182,4.181-2.025,9.085,0.42,13.12c2.445,4.034,6.722,6.442,11.438,6.442h61.285c4.717,0,8.992-2.408,11.438-6.441    C160.537,425.403,160.696,420.498,158.514,416.315z M88.049,420.876l27.963-53.598l27.964,53.598H88.049z" fill="#000000"/>
	</g>
</g>
<g>
	<g>
		<path d="M275.771,282.224c-23.826,0-43.211,19.384-43.211,43.21s19.385,43.21,43.211,43.21s43.211-19.384,43.211-43.21    C318.982,301.608,299.597,282.224,275.771,282.224z M275.771,353.644c-15.556,0-28.211-12.655-28.211-28.21    s12.655-28.21,28.211-28.21c15.556,0,28.211,12.655,28.211,28.21S291.327,353.644,275.771,353.644z" fill="#000000"/>
	</g>
</g>
<g>
	<g>
		<path d="M275.771,385.633c-4.143,0-7.5,3.358-7.5,7.5v17.504H197.86c-4.143,0-7.5,3.358-7.5,7.5c0,4.142,3.358,7.5,7.5,7.5h77.911    c4.143,0,7.5-3.358,7.5-7.5v-25.004C283.271,388.991,279.914,385.633,275.771,385.633z" fill="#000000"/>
	</g>
</g>
<g>
	<g>
		<path d="M116.012,290.274c-4.143,0-7.5,3.358-7.5,7.5v32.041c0,4.142,3.357,7.5,7.5,7.5s7.5-3.358,7.5-7.5v-32.041    C123.512,293.632,120.155,290.274,116.012,290.274z" fill="#000000"/>
	</g>
</g>
<g>
	<g>
		<path d="M293.318,227.663l-18.267-18.267c-2.929-2.929-7.677-2.929-10.607,0c-2.929,2.929-2.929,7.677,0,10.606l5.59,5.59h-95.086    c-4.143,0.001-7.501,3.359-7.501,7.501c0,4.142,3.357,7.5,7.5,7.5h94.834l-5.338,5.338c-2.929,2.929-2.929,7.678,0.001,10.606    c1.464,1.465,3.384,2.197,5.303,2.197s3.839-0.732,5.304-2.197l18.267-18.268C296.247,235.34,296.247,230.591,293.318,227.663z" fill="#000000"/>
	</g>
</g>
<g>
</g>
<g>
</g>
<g>
</g>
<g>
</g>
<g>
</g>
<g>
</g>
<g>
</g>
<g>
</g>
<g>
</g>
<g>
</g>
<g>
</g>
<g>
</g>
<g>
</g>
<g>
</g>
<g>
</g>
</svg>
