<?xml version="1.0" encoding="UTF-8" standalone="no"?>
<!DOCTYPE svg PUBLIC "-//W3C//DTD SVG 1.1//EN" "http://www.w3.org/Graphics/SVG/1.1/DTD/svg11.dtd">
<!-- Created with Vectornator (http://vectornator.io/) -->
<svg height="100%" stroke-miterlimit="10" style="fill-rule:nonzero;clip-rule:evenodd;stroke-linecap:round;stroke-linejoin:round;" version="1.1" viewBox="0 0 32 32" width="100%" xml:space="preserve" xmlns="http://www.w3.org/2000/svg" xmlns:xlink="http://www.w3.org/1999/xlink">
<defs>
<path d="M1 4C1 2.34315 2.34315 1 4 1L28 1C29.6569 1 31 2.34315 31 4L31 28C31 29.6569 29.6569 31 28 31L4 31C2.34315 31 1 29.6569 1 28L1 4Z" id="Fill"/>
</defs>
<g id="Layer-1">
<g opacity="1">
<mask height="30" id="StrokeMask" maskUnits="userSpaceOnUse" width="30" x="1" y="1">
<rect fill="#000000" height="30" stroke="none" width="30" x="1" y="1"/>
<use fill="#ffffff" fill-rule="evenodd" stroke="none" xlink:href="#Fill"/>
</mask>
<use fill="none" mask="url(#StrokeMask)" stroke="#000000" stroke-linecap="butt" stroke-linejoin="round" stroke-width="2" xlink:href="#Fill"/>
</g>
<g opacity="1">
<path d="M7 8.28125L8.625 26.6875L16 28.7188L23.375 26.6875L25 8.28125L7 8.28125ZM10.3438 12.0312L16 12.0312L21.6562 12.0312L21.5938 12.6562L21.5 13.7812L21.4375 14.2812L16 14.2812L12.8125 14.2812L13 16.5938L16 16.5938L20.625 16.5938L21.25 16.5938L21.1875 17.2188L20.6562 23.1562L20.625 23.5312L16 24.8125L11.375 23.5312L11.0625 20L12.0938 20L13.3125 20L13.4688 21.7812L16 22.4688L18.5 21.7812L18.7812 18.875L16 18.875L10.9375 18.875L10.4062 12.6562L10.3438 12.0312Z" fill="#000000" fill-rule="nonzero" opacity="1" stroke="none"/>
<path d="M8.66549 3.28045L9.81209 3.28045L9.81209 4.41328L10.861 4.41328L10.861 3.28045L12.0076 3.28045L12.0076 6.71095L10.861 6.71095L10.861 5.56222L9.81214 5.56222L9.81214 6.71095L8.66554 6.71095L8.66554 3.28045L8.66549 3.28045Z" fill="#000000" fill-rule="nonzero" opacity="1" stroke="none"/>
<path d="M13.5154 4.41805L12.506 4.41805L12.506 3.28045L15.672 3.28045L15.672 4.41805L14.6621 4.41805L14.6621 6.71095L13.5155 6.71095L13.5155 4.41805L13.5154 4.41805Z" fill="#000000" fill-rule="nonzero" opacity="1" stroke="none"/>
<path d="M16.1744 3.28045L17.37 3.28045L18.1055 4.48583L18.8402 3.28045L20.0362 3.28045L20.0362 6.71095L18.8943 6.71095L18.8943 5.01061L18.1055 6.23034L18.0858 6.23034L17.2964 5.01061L17.2964 6.71095L16.1744 6.71095L16.1744 3.28045Z" fill="#000000" fill-rule="nonzero" opacity="1" stroke="none"/>
<path d="M20.6069 3.28045L21.7538 3.28045L21.7538 5.57702L23.3663 5.57702L23.3663 6.71095L20.6069 6.71095L20.6069 3.28045Z" fill="#000000" fill-rule="nonzero" opacity="1" stroke="none"/>
</g>
</g>
</svg>
