<?xml version="1.0" encoding="UTF-8" standalone="no"?>
<!DOCTYPE svg PUBLIC "-//W3C//DTD SVG 1.1//EN" "http://www.w3.org/Graphics/SVG/1.1/DTD/svg11.dtd">
<!-- Created with Vectornator (http://vectornator.io/) -->
<svg height="100.0pt" stroke-miterlimit="10" style="fill-rule:nonzero;clip-rule:evenodd;stroke-linecap:round;stroke-linejoin:round;" version="1.1" viewBox="0 0 100 100" width="100.0pt" xml:space="preserve" xmlns="http://www.w3.org/2000/svg" xmlns:xlink="http://www.w3.org/1999/xlink">
<defs/>
<g id="Layer-1">
<g fill="#000000" opacity="1" stroke="none">
<path d="M34.964 44.36C34.484 43.544 33.904 42.964 33.224 42.62C32.544 42.276 31.724 42.104 30.764 42.104C29.564 42.104 28.548 42.392 27.716 42.968C26.884 43.544 26.208 44.276 25.688 45.164C25.168 46.052 24.788 47.032 24.548 48.104C24.308 49.176 24.188 50.216 24.188 51.224C24.188 52.776 24.588 54.016 25.388 54.944C26.188 55.872 27.38 56.336 28.964 56.336C29.732 56.336 30.476 56.224 31.196 56C31.916 55.776 32.572 55.416 33.164 54.92L33.38 55.088C33.204 55.44 33.048 55.764 32.912 56.06C32.776 56.356 32.636 56.688 32.492 57.056C31.98 57.248 31.456 57.392 30.92 57.488C30.384 57.584 29.7 57.632 28.868 57.632C27.236 57.632 25.88 57.408 24.8 56.96C23.72 56.512 22.86 55.92 22.22 55.184C21.58 54.448 21.132 53.636 20.876 52.748C20.62 51.86 20.492 50.992 20.492 50.144C20.492 48.832 20.732 47.604 21.212 46.46C21.692 45.316 22.372 44.316 23.252 43.46C24.132 42.604 25.18 41.932 26.396 41.444C27.612 40.956 28.948 40.712 30.404 40.712C31.188 40.712 31.892 40.764 32.516 40.868C33.14 40.972 33.692 41.1 34.172 41.252C34.652 41.404 35.068 41.568 35.42 41.744C35.772 41.92 36.068 42.072 36.308 42.2C36.052 42.568 35.832 42.952 35.648 43.352C35.464 43.752 35.316 44.088 35.204 44.36L34.964 44.36Z"/>
<path d="M39.572 41C39.876 41.032 40.204 41.06 40.556 41.084C40.908 41.108 41.268 41.12 41.636 41.12C41.988 41.12 42.328 41.108 42.656 41.084C42.984 41.06 43.284 41.032 43.556 41C43.316 41.816 43.076 42.704 42.836 43.664C42.596 44.624 42.36 45.596 42.128 46.58C41.896 47.564 41.68 48.536 41.48 49.496C41.28 50.456 41.096 51.344 40.928 52.16C40.76 52.976 40.62 53.7 40.508 54.332C40.396 54.964 40.316 55.448 40.268 55.784L42.092 55.784C42.908 55.784 43.608 55.776 44.192 55.76C44.776 55.744 45.356 55.712 45.932 55.664C45.772 56 45.664 56.292 45.608 56.54C45.552 56.788 45.524 57.072 45.524 57.392C44.708 57.36 43.892 57.344 43.076 57.344C42.26 57.344 41.444 57.344 40.628 57.344C39.748 57.344 38.912 57.344 38.12 57.344C37.328 57.344 36.652 57.36 36.092 57.392C36.476 56.128 36.844 54.724 37.196 53.18C37.548 51.636 37.884 50.112 38.204 48.608C38.476 47.344 38.72 46.084 38.936 44.828C39.152 43.572 39.364 42.296 39.572 41Z"/>
<path d="M51.524 41C51.828 41.032 52.156 41.06 52.508 41.084C52.86 41.108 53.212 41.12 53.564 41.12C53.964 41.12 54.316 41.108 54.62 41.084C54.924 41.06 55.212 41.032 55.484 41C55.052 42.408 54.636 43.888 54.236 45.44C53.836 46.992 53.472 48.504 53.144 49.976C52.816 51.448 52.532 52.832 52.292 54.128C52.052 55.424 51.876 56.512 51.764 57.392C51.348 57.36 50.98 57.344 50.66 57.344C50.34 57.344 50.02 57.344 49.7 57.344C49.396 57.344 49.068 57.344 48.716 57.344C48.364 57.344 48.06 57.36 47.804 57.392C47.996 56.8 48.18 56.188 48.356 55.556C48.532 54.924 48.724 54.2 48.932 53.384C49.14 52.568 49.364 51.624 49.604 50.552C49.844 49.48 50.124 48.2 50.444 46.712C50.636 45.832 50.796 45.084 50.924 44.468C51.052 43.852 51.156 43.324 51.236 42.884C51.316 42.444 51.376 42.076 51.416 41.78C51.456 41.484 51.492 41.224 51.524 41Z"/>
<path d="M66.02 44.84C65.94 44.072 65.668 43.436 65.204 42.932C64.74 42.428 64.052 42.176 63.14 42.176C62.74 42.176 62.384 42.24 62.072 42.368C61.76 42.496 61.5 42.66 61.292 42.86C61.084 43.06 60.928 43.292 60.824 43.556C60.72 43.82 60.668 44.088 60.668 44.36C60.668 44.664 60.728 44.956 60.848 45.236C60.968 45.516 61.144 45.796 61.376 46.076C61.608 46.356 61.9 46.652 62.252 46.964C62.604 47.276 63.012 47.624 63.476 48.008C63.844 48.312 64.196 48.62 64.532 48.932C64.868 49.244 65.16 49.58 65.408 49.94C65.656 50.3 65.856 50.692 66.008 51.116C66.16 51.54 66.236 52.016 66.236 52.544C66.236 53.392 66.08 54.136 65.768 54.776C65.456 55.416 65.032 55.952 64.496 56.384C63.96 56.816 63.34 57.136 62.636 57.344C61.932 57.552 61.196 57.656 60.428 57.656C59.468 57.656 58.596 57.552 57.812 57.344C57.028 57.136 56.228 56.776 55.412 56.264C55.668 55.784 55.884 55.28 56.06 54.752C56.236 54.224 56.364 53.752 56.444 53.336L56.948 53.336C57.012 54.248 57.34 54.98 57.932 55.532C58.524 56.084 59.3 56.36 60.26 56.36C60.612 56.36 60.952 56.308 61.28 56.204C61.608 56.1 61.9 55.944 62.156 55.736C62.412 55.528 62.62 55.28 62.78 54.992C62.94 54.704 63.02 54.368 63.02 53.984C63.02 53.664 62.952 53.36 62.816 53.072C62.68 52.784 62.496 52.5 62.264 52.22C62.032 51.94 61.764 51.664 61.46 51.392C61.156 51.12 60.828 50.84 60.476 50.552C60.06 50.216 59.672 49.884 59.312 49.556C58.952 49.228 58.636 48.88 58.364 48.512C58.092 48.144 57.88 47.736 57.728 47.288C57.576 46.84 57.5 46.336 57.5 45.776C57.5 44.96 57.644 44.236 57.932 43.604C58.22 42.972 58.612 42.444 59.108 42.02C59.604 41.596 60.192 41.272 60.872 41.048C61.552 40.824 62.276 40.712 63.044 40.712C63.908 40.712 64.7 40.808 65.42 41C66.14 41.192 66.86 41.52 67.58 41.984C67.26 42.576 67.036 43.092 66.908 43.532C66.78 43.972 66.66 44.408 66.548 44.84L66.02 44.84Z"/>
<path d="M70.196 41C71.156 41.032 72.12 41.06 73.088 41.084C74.056 41.108 75.068 41.12 76.124 41.12L77.636 41.12C78.052 41.12 78.484 41.12 78.932 41.12C79.38 41.12 79.816 41.112 80.24 41.096C80.664 41.08 81.068 41.064 81.452 41.048C81.836 41.032 82.172 41.016 82.46 41C82.332 41.336 82.244 41.628 82.196 41.876C82.148 42.124 82.1 42.472 82.052 42.92C81.284 42.84 80.58 42.788 79.94 42.764C79.3 42.74 78.7 42.728 78.14 42.728C77.9 43.64 77.648 44.608 77.384 45.632C77.12 46.656 76.836 47.848 76.532 49.208C76.228 50.6 75.932 51.968 75.644 53.312C75.356 54.656 75.108 56.016 74.9 57.392C74.548 57.36 74.204 57.344 73.868 57.344C73.532 57.344 73.196 57.344 72.86 57.344C72.524 57.344 72.192 57.344 71.864 57.344C71.536 57.344 71.236 57.36 70.964 57.392C71.332 56.016 71.7 54.62 72.068 53.204C72.436 51.788 72.772 50.352 73.076 48.896C73.3 47.872 73.512 46.852 73.712 45.836C73.912 44.82 74.1 43.784 74.276 42.728L73.028 42.728C72.452 42.728 71.916 42.74 71.42 42.764C70.924 42.788 70.372 42.824 69.764 42.872C69.892 42.504 69.988 42.196 70.052 41.948C70.116 41.7 70.164 41.384 70.196 41Z"/>
</g>
</g>
</svg>
