<svg xmlns="http://www.w3.org/2000/svg" xmlns:xlink="http://www.w3.org/1999/xlink" viewBox="0 0 77 82" fill="#fff" fill-rule="evenodd" stroke="#000" stroke-linecap="round" stroke-linejoin="round"><use xlink:href="#A" x=".5" y=".5"/><symbol id="A" overflow="visible"><g fill="#000000" stroke="none"><path d="M38.311 63.374c-.198-.196-.396-.196-.595-.196V61.81v-1.174c0-.391-.396-.782-.991-.978-.595 0-.991.391-.991.978v3.716c0 .196 0 .196.198.196 0 .196.198.391.397.587l3.766 3.325c.397.391 1.19.391 1.586 0l.198-.196c.396-.391.396-1.174 0-1.565l-3.568-3.325zm-9.119.587c-.198 0-.396.196-.396.391s.198.391.396.391.397-.196.397-.391c.198-.196 0-.587-.397-.391zm7.732-6.651c.198 0 .397-.196.397-.391s-.198-.391-.397-.391-.397.196-.397.391.198.391.397.391zm7.73 6.651c0 .195.198.391.397.391s.396-.196.396-.391-.198-.391-.396-.391c-.198-.196-.397.196-.397.391zm-8.128 8.02c-.198 0-.396.196-.396.391s.198.391.396.391.397-.196.397-.391-.198-.391-.397-.391zm13.083-7.825v-.978l2.974-1.76c-.198-.978-.396-1.956-.793-2.934h0 0l-3.37.195c-.198-.391-.396-.782-.793-1.173l-.198-.196 1.784-2.934-.793-.782c-.396-.391-.991-.782-1.387-1.174l-2.974 1.565c-.595-.391-.991-.587-1.586-.782v-1.565-1.76h0c-.991-.391-1.982-.587-2.973-.782l-1.586 2.934h-.793-.991l-1.784-2.934c-.991.196-1.982.391-2.973.782h0l.198 3.325c-.595.196-.991.587-1.586.978l-2.973-1.76c-.397.391-.991.782-1.388 1.369l-.793.782.991 1.76h0l.793 1.174c-.396.587-.594.978-.793 1.565h-3.568c-.397.978-.595 1.956-.793 2.934l3.172 1.565v.978.978h0 0l-2.974 1.76c.198.978.396 1.956.793 2.934h0 0 1.784 1.586c.198.587.595.978.991 1.565l-1.784 2.934c.594.587.991 1.174 1.586 1.565.198.196.397.196.595.391l1.784-.978h0l1.19-.782c.595.391.991.587 1.586.782v3.521c.991.391 1.982.587 2.973.782l1.586-2.934h.991.991l.793 1.174.991 1.76c.991-.195 1.982-.391 2.973-.782h0v-1.76-1.565c.396-.196.991-.391 1.387-.782h.198l2.973 1.76c.397-.196.595-.587.991-.978l1.189-1.174-1.784-2.934v-.196c.198-.391.595-.978.793-1.369h1.586 1.784 0 0c.396-.978.595-1.956.793-2.934l-3.172-1.565c-.198-.978-.198-1.369-.198-1.565zm-10.704 9.389h0c-.595.196-.991.196-1.586.196-2.18 0-4.361-.587-5.947-1.956h0c-2.379-1.76-3.766-4.499-3.766-7.433 0-2.151.793-4.303 1.982-5.868 1.784-2.347 4.361-3.716 7.532-3.716 3.568 0 6.541 1.76 8.325 4.499.991 1.369 1.388 3.129 1.388 4.89 0 4.694-3.37 8.606-7.929 9.389zm32.311-13.301l-2.18-1.369-.198-1.76 1.982-2.347-1.189-2.152h-.396l-2.775.782-1.387-.978-.198-2.934-2.379-.782-.198.391-1.388 2.151-1.784.196-2.379-1.956-1.982 1.174v.391l.595 2.543-.991 1.369-2.974.196-.793 2.347.396.196 2.181 1.369.198 1.76-1.784 2.152c.198.391.198.782.396 1.174l.595 1.174h.396l2.577-.587 1.387.978.198 2.934 2.379.587.198-.391 1.387-2.151 1.784-.196 2.379 1.956 1.982-1.174v-.391l-.595-2.543.991-1.369 3.171-.196.595-2.347-.198-.196zm-6.938-.391c-.397 1.76-2.379 2.738-4.162 2.347s-2.775-2.347-2.379-4.108 2.379-2.934 4.163-2.347 2.775 2.347 2.379 4.108z"/><path d="M70.026 52.029l1.189 1.956c2.577-5.281 2.577-8.02 2.973-9.389 2.18-10.171 0-21.32-6.937-30.122C59.917 4.89 48.618 0 37.518 0c-7.929 0-16.056 2.543-22.795 7.628C-1.729 20.147-4.901 43.227 7.785 59.462c3.766 4.89 8.721 8.606 14.272 11.149l-1.189-3.912 1.982-.978c-1.982-.978-3.965-2.347-5.947-3.716-.198-3.521 0-8.802 2.181-14.67 1.586.196 2.973-.196 4.559-.782.793.782 1.784 1.565 2.577 2.151s3.171 2.152 4.757 3.13v-2.543l4.559-1.369-5.748-3.716c-.595-.391-1.189-.978-1.784-1.369 1.784-2.934 1.982-6.65.397-9.78l1.189-1.173c2.973-2.738 5.748-5.086 8.523-6.846l12.488 10.367c-.991 2.347-.991 5.085.793 7.041 2.379 3.13 6.74 3.521 9.911 1.369l.396-.391 6.541 4.499-1.586 4.499.595.391m-56.493 2.543C2.83 44.205 3.028 29.536 10.56 18.778c-.793 3.13-.991 7.628 1.388 12.91-2.577 3.325-2.775 8.215 0 11.736.198.196.396.587.793.782a49.02 49.02 0 0 0-1.982 11.149zm21.21-36.381c-2.974 1.956-5.947 4.499-9.118 7.824l-1.19 1.174c-1.784-.391-3.568-.196-5.352.391-2.973-6.259-2.775-11.149-2.379-13.888 1.189-1.173 2.18-2.151 3.568-3.129 1.784-1.369 3.568-2.347 5.55-3.325 2.379 3.716 5.55 7.433 8.92 10.953h0zm4.559-2.738h0 0l-9.118-9.78C30.58 5.477 33.95 4.89 37.32 4.89c7.532 0 14.866 2.543 20.813 7.433-4.757-.978-12.686-.782-21.606 3.912zm32.508 28.949c-1.388-.978-3.172-2.347-5.55-4.303.793-2.152.595-4.694-.991-6.65-2.18-2.738-5.946-3.521-9.118-1.76-3.37-2.934-6.938-6.259-10.902-10.171h0c11.497-6.064 19.624-5.477 20.417-5.477.198.196.198.391.396.391 6.541 8.411 8.325 18.582 5.748 27.971z"/></g></symbol></svg>