<?xml version="1.0" encoding="UTF-8" standalone="no"?>
<!DOCTYPE svg PUBLIC "-//W3C//DTD SVG 1.1//EN" "http://www.w3.org/Graphics/SVG/1.1/DTD/svg11.dtd">
<!-- Created with Vectornator (http://vectornator.io/) -->
<svg height="100%" stroke-miterlimit="10" style="fill-rule:nonzero;clip-rule:evenodd;stroke-linecap:round;stroke-linejoin:round;" version="1.1" viewBox="0 0 128 128" width="100%" xml:space="preserve" xmlns="http://www.w3.org/2000/svg" xmlns:vectornator="http://vectornator.io" xmlns:xlink="http://www.w3.org/1999/xlink">
<defs/>
<g id="Untitled" vectornator:layerName="Untitled">
<path d="M88.9996 58.959L85.776 58.959C85.2052 56.3332 84.0893 53.8566 82.5006 51.6895L84.9957 49.1944C86.0452 48.1448 86.0452 46.4432 84.9957 45.3936L82.6061 43.0039C81.556 41.9566 79.8564 41.9566 78.8063 43.0039L76.3102 45.5C74.1308 43.9061 71.6397 42.79 68.9996 42.2246L68.9996 39C68.9978 37.3439 67.6557 36.0018 65.9996 36L62.9684 36C61.3123 36.0018 59.9702 37.3439 59.9684 39L59.9684 42.2197C57.0263 42.7763 54.2186 43.8929 51.6979 45.5088L49.194 43.0029C48.1429 41.9568 46.4438 41.9572 45.3932 43.0039L43.0046 45.3935C41.9551 46.4431 41.9551 48.1447 43.0046 49.1943L45.5006 51.6904C43.9097 53.8716 42.7936 56.362 42.2242 59.0009L38.9996 59.0009C37.3435 59.0028 36.0014 60.3448 35.9996 62.0009L35.9996 64.9697C36.0014 66.6258 37.3435 67.9679 38.9996 67.9697L42.2047 67.9697C42.7091 70.9482 43.8343 73.7874 45.5074 76.3027L43.0045 78.8047C41.9552 79.8556 41.9565 81.5582 43.0074 82.6074L45.3932 84.9902C46.4444 86.0356 48.1428 86.0347 49.193 84.9882L51.6978 82.4834C54.2147 84.1009 57.0187 85.2201 59.9576 85.7802L59.9576 89C59.9594 90.6561 61.3015 91.9982 62.9576 92L65.9996 92C67.6557 91.9982 68.9978 90.6561 68.9996 89L68.9996 85.7763C71.6383 85.2054 74.1284 84.0891 76.3102 82.499L78.8072 84.9902C79.8569 86.0354 81.5539 86.0359 82.6041 84.9912L84.9938 82.6074C86.0442 81.5576 86.0446 79.855 84.9948 78.8047L82.4909 76.3008C84.0988 73.7653 85.2146 70.9496 85.7799 68.001L88.9997 68.001C90.6558 67.9992 91.9978 66.6571 91.9997 65.001L91.9997 61.959C91.9978 60.3029 90.6557 58.9608 88.9996 58.959ZM89.9996 65.001C89.9992 65.5531 89.5517 66.0006 88.9996 66.001L84.942 66.001C84.4505 66.0011 84.032 66.3584 83.9547 66.8438C83.4606 70.0716 82.2405 73.1451 80.3863 75.833C80.098 76.2309 80.1415 76.7794 80.4889 77.127L83.5797 80.2188C83.848 80.4873 83.8485 80.9223 83.5807 81.1914L81.191 83.5761C80.9225 83.8434 80.4883 83.843 80.2203 83.5751L77.1256 80.4873C76.7783 80.1409 76.2311 80.0975 75.8336 80.3847C73.5124 82.2277 70.7639 83.4557 67.8424 83.955C67.357 84.0323 66.9998 84.4508 66.9996 84.9423L66.9996 89C66.9993 89.5521 66.5518 89.9996 65.9996 90L62.9576 90C62.4055 89.9996 61.958 89.5521 61.9576 89L61.9576 84.9424C61.9575 84.4509 61.6002 84.0323 61.1149 83.955C57.8998 83.4554 54.8402 82.2322 52.1666 80.3779C51.7687 80.0893 51.2201 80.1328 50.8727 80.4804L47.7789 83.5742C47.5099 83.8418 47.0753 83.8418 46.8063 83.5742L44.4205 81.1914C44.1522 80.9228 44.1517 80.4878 44.4195 80.2187L47.5113 77.1269C47.8579 76.78 47.9021 76.2331 47.6158 75.8349C45.6974 73.1757 44.4714 70.0806 44.0484 66.8291C43.9783 66.336 43.5562 65.9697 43.0582 65.9697L38.9996 65.9697C38.4475 65.9693 38 65.5218 37.9996 64.9697L37.9996 62.0009C38 61.4488 38.4475 61.0013 38.9996 61.0009L43.0582 61.0009C43.5497 61.0008 43.9682 60.6435 44.0455 60.1582C44.5437 57.2362 45.7714 54.4872 47.6149 52.166C47.9024 51.768 47.8585 51.2202 47.5113 50.873L44.4186 47.7802C44.1503 47.5115 44.1503 47.0763 44.4186 46.8076L46.8072 44.4189C47.076 44.151 47.5106 44.1506 47.7799 44.4179L50.8727 47.5117C51.2202 47.859 51.7687 47.9025 52.1666 47.6142C54.8441 45.7615 57.9076 44.5414 61.1256 44.0458C61.611 43.9686 61.9683 43.55 61.9684 43.0585L61.9684 39C61.9688 38.4479 62.4163 38.0004 62.9684 38L65.9996 38C66.5518 38.0004 66.9993 38.4479 66.9996 39L66.9996 43.0586C66.9998 43.5501 67.357 43.9686 67.8424 44.0459C70.7638 44.5418 73.5123 45.7691 75.8317 47.6133C76.2294 47.9029 76.7789 47.8598 77.1266 47.5117L80.2203 44.4189C80.349 44.2899 80.5237 44.2172 80.706 44.217C80.8882 44.2168 81.0631 44.2891 81.192 44.4179L83.5817 46.8076C83.8499 47.0763 83.8499 47.5115 83.5817 47.7803L80.4889 50.873C80.1412 51.221 80.0982 51.77 80.3873 52.1679C82.228 54.4739 83.4552 57.2082 83.9547 60.1162C84.032 60.6015 84.4505 60.9588 84.942 60.9589L88.9996 60.9589C89.5517 60.9593 89.9992 61.4068 89.9996 61.9589L89.9996 65.001Z" fill="#000000" fill-rule="nonzero" opacity="1" stroke="none" vectornator:layerName="path"/>
<path d="M64.0006 52.0302C57.3904 52.0302 52.0319 57.3888 52.0319 63.999C52.0318 70.6091 57.3904 75.9677 64.0006 75.9677C70.6108 75.9677 75.9693 70.6092 75.9694 63.999C75.9619 57.3919 70.6077 52.0377 64.0006 52.0302ZM64.0006 73.9677C58.495 73.9677 54.0318 69.5046 54.0319 63.999C54.0319 58.4934 58.495 54.0302 64.0006 54.0302C69.5062 54.0302 73.9694 58.4934 73.9694 63.999C73.9633 69.5021 69.5037 73.9617 64.0006 73.9677Z" fill="#000000" fill-rule="nonzero" opacity="1" stroke="none" vectornator:layerName="path"/>
<path d="M53.1431 19.4866C53.2039 19.6037 53.2919 19.7045 53.3997 19.7805C53.4265 19.8082 53.455 19.8342 53.485 19.8584L63.485 25.8584C63.8017 26.0485 64.1975 26.0485 64.5143 25.8584L74.5143 19.8584C74.5442 19.8342 74.5727 19.8083 74.5995 19.7806C74.6551 19.7398 74.7061 19.6932 74.7518 19.6416C74.7916 19.5936 74.8265 19.5417 74.8561 19.4868C74.9253 19.3744 74.9666 19.247 74.9766 19.1153C74.9866 19.0777 74.9943 19.0395 74.9996 19.001L74.9996 7.00098C74.9973 6.88268 74.9737 6.76576 74.93 6.65579C74.9199 6.62857 74.9101 6.60293 74.8978 6.57693C74.8515 6.47444 74.7882 6.38054 74.7106 6.29922C74.7028 6.29141 74.6931 6.28659 74.6851 6.27902C74.6333 6.22773 74.576 6.18229 74.5142 6.14352L64.5142 0.14352C64.1973-0.0459347 63.8019-0.0459347 63.4849 0.14352L53.4849 6.14352C53.4233 6.18223 53.3661 6.22758 53.3144 6.27877C53.3063 6.28646 53.2963 6.29134 53.2885 6.29934C53.2109 6.38066 53.1476 6.47456 53.1013 6.57705C53.0891 6.60305 53.0793 6.62856 53.0692 6.65572C53.0255 6.76569 53.0019 6.88262 52.9996 7.00093L52.9996 19.0009C53.0049 19.0394 53.0125 19.0776 53.0226 19.1151C53.029 19.1831 53.0425 19.2502 53.063 19.3154C53.084 19.375 53.1108 19.4323 53.1431 19.4866ZM72.9996 18.4347L64.9457 23.2672C64.9762 23.1811 64.9943 23.0912 64.9996 23L64.9996 13.5672L72.9996 8.7672L72.9996 18.4347ZM63.9996 2.16696L72.0563 7.00096L63.9996 11.835L55.943 7.00094L63.9996 2.16696ZM54.9996 8.76718L62.9996 13.5672L62.9996 23C63.0049 23.0912 63.023 23.1812 63.0535 23.2673L54.9996 18.4347L54.9996 8.76718Z" fill="#000000" fill-rule="nonzero" opacity="1" stroke="none" vectornator:layerName="path"/>
<path d="M102.889 40.2516L102.89 40.2519L102.891 40.2519L102.891 40.2519C103.134 40.2389 103.367 40.1465 103.552 39.9889C103.566 39.9765 103.584 39.9723 103.597 39.9589L112.083 31.4736C112.165 31.3881 112.231 31.2886 112.278 31.1798C112.29 31.154 112.301 31.1295 112.31 31.1029C112.35 30.9973 112.372 30.8857 112.374 30.7728C112.374 30.7622 112.371 30.7522 112.371 30.7416C112.37 30.6685 112.362 30.5956 112.345 30.5244L109.517 19.2109C109.428 18.8524 109.148 18.5724 108.79 18.4834L97.4752 15.6543C97.4035 15.6375 97.3301 15.6288 97.2564 15.6286C97.2465 15.6283 97.2371 15.625 97.2272 15.6251C97.1148 15.6277 97.0035 15.6494 96.8983 15.6892C96.8708 15.6989 96.8453 15.7103 96.8186 15.7226C96.7102 15.7694 96.6111 15.8352 96.526 15.917L88.0416 24.4023C88.018 24.4334 87.9964 24.466 87.9769 24.4998C87.9334 24.5524 87.8956 24.6093 87.864 24.6697C87.812 24.7842 87.7783 24.906 87.7639 25.0309C87.7598 25.0999 87.763 25.1691 87.7736 25.2374C87.773 25.2755 87.7748 25.3136 87.7789 25.3515L90.607 36.665C90.696 37.0236 90.976 37.3035 91.3345 37.3925L102.648 40.2216C102.727 40.2414 102.807 40.2514 102.889 40.2516ZM107.723 20.2773L110.002 29.3925L100.886 27.1142L98.607 17.998L107.723 20.2773ZM92.1334 34.5282L89.8556 25.4164L96.6917 18.5795L98.9551 27.6314L92.2838 34.3017C92.2233 34.3698 92.1726 34.446 92.1334 34.5282ZM93.4713 35.8662C93.5535 35.827 93.6298 35.7764 93.6979 35.7158L100.369 29.0454L109.42 31.308L102.583 38.1449L93.4713 35.8662Z" fill="#000000" fill-rule="nonzero" opacity="1" stroke="none" vectornator:layerName="path"/>
<path d="M121.857 53.4853C121.818 53.4236 121.773 53.3663 121.722 53.3145C121.714 53.3065 121.709 53.2967 121.701 53.289C121.62 53.2113 121.526 53.148 121.424 53.1018C121.398 53.0895 121.372 53.0797 121.345 53.0696C121.235 53.0259 121.118 53.0023 121 53L109 53C108.96 53.0054 108.922 53.0132 108.883 53.0234C108.817 53.0298 108.751 53.0431 108.687 53.063C108.569 53.1071 108.459 53.1692 108.36 53.2473C108.308 53.2932 108.261 53.3446 108.22 53.4006C108.192 53.4273 108.166 53.4556 108.142 53.4853L102.142 63.4853C101.952 63.802 101.952 64.198 102.142 64.5146L108.142 74.5146C108.18 74.5743 108.224 74.6298 108.274 74.6801C108.283 74.6902 108.29 74.7025 108.3 74.7122C108.381 74.7903 108.475 74.8539 108.578 74.9C108.604 74.9119 108.629 74.9208 108.655 74.9305C108.764 74.9735 108.88 74.9969 108.998 74.9996L109 75L121 75C121.118 74.9977 121.235 74.9741 121.345 74.9304C121.372 74.9203 121.397 74.9105 121.423 74.8983C121.526 74.852 121.62 74.7887 121.701 74.7111C121.709 74.7033 121.714 74.6933 121.722 74.6852C121.773 74.6335 121.818 74.5763 121.857 74.5147L127.856 64.5147C128.046 64.198 128.046 63.802 127.856 63.4854L121.857 53.4853ZM109.566 55L119.233 55L114.433 63L105 63C104.909 63.0053 104.819 63.0234 104.733 63.0536L109.566 55ZM109.566 73L104.733 64.9463C104.819 64.9766 104.909 64.9947 105 65L114.433 65L119.233 73L109.566 73ZM121 72.0566L116.166 64L121 55.9434L125.833 64L121 72.0566Z" fill="#000000" fill-rule="nonzero" opacity="1" stroke="none" vectornator:layerName="path"/>
<path d="M112.278 96.8201C112.231 96.7113 112.165 96.6118 112.083 96.5263L103.597 88.041C103.566 88.0174 103.534 87.9958 103.5 87.9763C103.447 87.9326 103.39 87.8945 103.329 87.8628C103.214 87.8109 103.092 87.7772 102.967 87.763C102.899 87.7591 102.831 87.7624 102.763 87.7728C102.725 87.7723 102.686 87.7741 102.648 87.7783L91.3346 90.6074C90.976 90.6964 90.6961 90.9764 90.607 91.3349L87.7789 102.648C87.7748 102.686 87.773 102.724 87.7735 102.763C87.763 102.831 87.7598 102.9 87.7639 102.969C87.7783 103.094 87.812 103.216 87.864 103.33C87.8956 103.391 87.9334 103.448 87.9769 103.5C87.9964 103.534 88.018 103.567 88.0416 103.598L96.526 112.083C96.7138 112.27 96.9679 112.375 97.233 112.376C97.3147 112.376 97.396 112.366 97.4752 112.346L108.79 109.517C109.148 109.428 109.428 109.148 109.517 108.789L112.345 97.4756C112.362 97.4044 112.37 97.3315 112.371 97.2584C112.371 97.2478 112.374 97.2378 112.374 97.2272C112.372 97.1143 112.35 97.0026 112.31 96.8971C112.301 96.8705 112.29 96.8459 112.278 96.8201ZM102.583 89.8551L109.42 96.6919L100.369 98.9545L93.6978 92.2842C93.6298 92.2236 93.5535 92.173 93.4713 92.1337L102.583 89.8551ZM96.6917 109.42L89.8556 102.584L92.1334 93.4718C92.1726 93.554 92.2233 93.6302 92.2838 93.6982L98.9551 100.369L96.6917 109.42ZM107.723 107.723L98.6071 110.002L100.886 100.886L110.002 98.6074L107.723 107.723Z" fill="#000000" fill-rule="nonzero" opacity="1" stroke="none" vectornator:layerName="path"/>
<path d="M74.8561 108.513C74.8265 108.458 74.7915 108.406 74.7518 108.358C74.7061 108.307 74.655 108.26 74.5995 108.219C74.5727 108.192 74.5442 108.166 74.5143 108.142L64.5143 102.142C64.1973 101.952 63.8019 101.952 63.485 102.142L53.485 108.142C53.455 108.166 53.4265 108.192 53.3998 108.219C53.3442 108.26 53.2932 108.307 53.2475 108.358C53.1694 108.457 53.1072 108.567 53.063 108.685C53.0425 108.75 53.029 108.817 53.0226 108.885C53.0126 108.922 53.0049 108.96 52.9996 108.999L52.9996 120.999C53.002 121.117 53.0256 121.234 53.0693 121.344C53.0793 121.371 53.089 121.397 53.1013 121.423C53.1475 121.525 53.2108 121.619 53.2885 121.701C53.2963 121.709 53.3062 121.713 53.3143 121.721C53.3661 121.772 53.4233 121.818 53.4849 121.856L63.4849 127.856C63.8017 128.046 64.1975 128.046 64.5142 127.856L74.5142 121.856C74.576 121.818 74.6333 121.772 74.6851 121.721C74.6931 121.713 74.7028 121.709 74.7106 121.701C74.7883 121.619 74.8516 121.525 74.8978 121.423C74.9101 121.397 74.9199 121.371 74.93 121.344C74.9737 121.234 74.9973 121.117 74.9996 120.999L74.9996 108.999C74.9943 108.96 74.9866 108.922 74.9765 108.885C74.9701 108.817 74.9566 108.75 74.9362 108.685C74.9153 108.625 74.8885 108.567 74.8561 108.513ZM54.9996 109.565L63.0535 104.733C63.023 104.819 63.0049 104.909 62.9996 105L62.9996 114.433L54.9996 119.233L54.9996 109.565ZM63.9996 125.833L55.943 120.999L63.9996 116.165L72.0563 120.999L63.9996 125.833ZM72.9996 119.233L64.9996 114.433L64.9996 105C64.9944 104.909 64.9762 104.819 64.9458 104.733L72.9996 109.565L72.9996 119.233Z" fill="#000000" fill-rule="nonzero" opacity="1" stroke="none" vectornator:layerName="path"/>
<path d="M37.3932 91.3349C37.3042 90.9764 37.0242 90.6964 36.6656 90.6074L25.3522 87.7783C25.3137 87.774 25.2751 87.7721 25.2364 87.7726C25.1695 87.7623 25.1018 87.759 25.0343 87.7627C24.9097 87.7766 24.788 87.8098 24.6737 87.8612C24.6101 87.8939 24.5504 87.9336 24.4955 87.9795C24.4635 87.9981 24.4326 88.0187 24.4029 88.041L15.9176 96.5263C15.8355 96.6118 15.7694 96.7113 15.7225 96.8201C15.7106 96.8459 15.6996 96.8704 15.6901 96.897C15.6501 97.0026 15.6283 97.1142 15.6258 97.2271C15.6258 97.2378 15.6292 97.2477 15.6295 97.2583C15.6299 97.3314 15.6384 97.4043 15.6549 97.4755L18.483 108.789C18.572 109.148 18.852 109.428 19.2105 109.517L30.524 112.346C30.6032 112.366 30.6845 112.376 30.7662 112.376C31.0313 112.375 31.2854 112.27 31.4732 112.083L39.9586 103.598C39.9822 103.566 40.0038 103.534 40.0233 103.5C40.0668 103.448 40.1046 103.391 40.1362 103.33C40.1881 103.216 40.2219 103.094 40.2363 102.969C40.2404 102.9 40.2371 102.831 40.2266 102.762C40.2272 102.724 40.2254 102.686 40.2213 102.648L37.3932 91.3349ZM25.417 89.8551L34.5289 92.1337C34.4467 92.1729 34.3704 92.2236 34.3024 92.2842L27.6311 98.9545L18.5801 96.6919L25.417 89.8551ZM20.277 107.723L17.9987 98.6074L27.1139 100.886L29.3922 110.002L20.277 107.723ZM31.3077 109.42L29.0451 100.369L35.7165 93.6982C35.777 93.6302 35.8276 93.5539 35.8668 93.4718L38.1446 102.584L31.3077 109.42Z" fill="#000000" fill-rule="nonzero" opacity="1" stroke="none" vectornator:layerName="path"/>
<path d="M6.14318 74.5146C6.18191 74.5763 6.22729 74.6335 6.27849 74.6852C6.28618 74.6933 6.291 74.7032 6.299 74.711C6.38033 74.7887 6.47428 74.8521 6.57683 74.8983C6.60271 74.9106 6.62828 74.9203 6.65532 74.9303C6.76531 74.974 6.88226 74.9976 7.0006 75L19.0006 75L19.0023 74.9997C19.1198 74.997 19.2359 74.9735 19.3453 74.9305C19.3716 74.9208 19.3966 74.9119 19.4219 74.9C19.5249 74.8538 19.6192 74.7903 19.7007 74.7121C19.7105 74.7025 19.7167 74.6903 19.726 74.6804C19.7758 74.63 19.8201 74.5745 19.858 74.5146L25.858 64.5146C26.0484 64.198 26.0484 63.802 25.858 63.4853L19.858 53.4853C19.8339 53.4556 19.8081 53.4273 19.7806 53.4006C19.7395 53.3446 19.6926 53.2932 19.6405 53.2473C19.5417 53.1692 19.4314 53.1071 19.3134 53.063C19.2494 53.0431 19.1836 53.0298 19.1168 53.0234C19.0786 53.0132 19.0398 53.0054 19.0006 53L7.0006 53C6.71294 53.0021 6.44057 53.1299 6.25499 53.3497C6.2131 53.3909 6.17563 53.4364 6.14317 53.4854L0.14317 63.4854C-0.0472605 63.802-0.0472605 64.198 0.14317 64.5147L6.14318 74.5146ZM18.4344 73L8.76683 73L13.5668 65L23.0006 65C23.0914 64.9947 23.181 64.9766 23.2668 64.9463L18.4344 73ZM18.4344 55L23.2668 63.0536C23.181 63.0234 23.0914 63.0053 23.0006 63L13.5668 63L8.76682 55L18.4344 55ZM7.0006 55.9433L11.8346 64L7.00058 72.0566L2.16661 64L7.0006 55.9433Z" fill="#000000" fill-rule="nonzero" opacity="1" stroke="none" vectornator:layerName="path"/>
<path d="M37.3932 36.665L40.2213 25.3515C40.2254 25.3136 40.2272 25.2755 40.2267 25.2374C40.2372 25.1691 40.2404 25.0999 40.2363 25.0309C40.222 24.906 40.1882 24.7842 40.1362 24.6697C40.1046 24.6093 40.0668 24.5524 40.0234 24.4998C40.0038 24.466 39.9822 24.4334 39.9586 24.4023L31.4733 15.917C31.3879 15.835 31.2885 15.769 31.1799 15.7221C31.1537 15.7101 31.1289 15.699 31.102 15.6894C30.9966 15.6494 30.8851 15.6277 30.7723 15.6252C30.762 15.6251 30.7521 15.6286 30.7418 15.6288C30.6685 15.6292 30.5954 15.6377 30.524 15.6543L19.2106 18.4834C18.852 18.5724 18.572 18.8524 18.483 19.2109L15.6549 30.5244C15.6384 30.5956 15.6299 30.6685 15.6295 30.7416C15.6292 30.7522 15.6258 30.7622 15.6258 30.7728C15.6283 30.8857 15.6501 30.9973 15.6901 31.1029C15.6996 31.1295 15.7106 31.154 15.7225 31.1798C15.7694 31.2886 15.8355 31.3881 15.9176 31.4736L24.4029 39.959C24.4163 39.9723 24.4342 39.9766 24.448 39.989C24.6282 40.1554 24.8637 40.2491 25.109 40.252L25.1094 40.2519L25.11 40.252L25.1117 40.2516C25.1928 40.2515 25.2735 40.2415 25.3522 40.2217L36.6656 37.3926C37.0242 37.3036 37.3042 37.0236 37.3932 36.665ZM20.277 20.2773L29.3922 17.998L27.1139 27.1142L17.9986 29.3925L20.277 20.2773ZM25.417 38.1449L18.5801 31.308L27.6311 29.0454L34.3024 35.7158C34.3705 35.7763 34.4467 35.827 34.529 35.8662L25.417 38.1449ZM35.7164 34.3017L29.0451 27.6314L31.3077 18.5795L38.1446 25.4164L35.8668 34.5282C35.8276 34.446 35.777 34.3698 35.7164 34.3017Z" fill="#000000" fill-rule="nonzero" opacity="1" stroke="none" vectornator:layerName="path"/>
</g>
</svg>
