<?xml version="1.0" encoding="UTF-8" standalone="no"?>
<!DOCTYPE svg PUBLIC "-//W3C//DTD SVG 1.1//EN" "http://www.w3.org/Graphics/SVG/1.1/DTD/svg11.dtd">
<!-- Created with Vectornator (http://vectornator.io/) -->
<svg height="100%" stroke-miterlimit="10" style="fill-rule:nonzero;clip-rule:evenodd;stroke-linecap:round;stroke-linejoin:round;" version="1.1" viewBox="0 0 481 101" width="100%" xml:space="preserve" xmlns="http://www.w3.org/2000/svg" xmlns:vectornator="http://vectornator.io" xmlns:xlink="http://www.w3.org/1999/xlink">
<defs/>
<clipPath id="ArtboardFrame">
<rect height="101" width="481" x="0" y="0"/>
</clipPath>
<g clip-path="url(#ArtboardFrame)" id="Untitled" vectornator:layerName="Untitled">
<path d="M-0.598824-2.43689L481.041-2.43689L481.041 100.57L-0.598824 100.57L-0.598824-2.43689Z" fill="#0662c4" fill-rule="nonzero" opacity="1" stroke="none"/>
<g opacity="1" vectornator:layerName="g">
<g opacity="1" vectornator:layerName="g">
<g opacity="1" vectornator:layerName="g">
<path d="M29.8 0.2L61.5 0.2C64.7 0.2 67.8 0.5 70.9 1.1C73.9 1.7 76.6 2.8 78.9 4.3C81.2 5.8 83.1 7.9 84.5 10.5C85.9 13.1 86.6 16.5 86.6 20.6C86.6 24.1 86 27.3 84.8 30.3C83.6 33.2 81.9 35.8 79.8 37.9C77.7 40.1 75.1 41.8 72.1 43C69.1 44.2 65.9 44.9 62.5 45L62.5 45.2C70.7 46.6 74.8 51.4 74.8 59.9C74.8 62.9 74.7 65.9 74.5 68.9C74.3 71.9 74.2 74.8 74.2 77.4C74.2 78.8 74.3 80.3 74.5 81.7C74.7 83.1 75 84.5 75.5 85.9L70.3 85.9C69.8 84.8 69.5 83.5 69.4 82.1C69.3 80.7 69.2 79.1 69.2 77.2C69.2 75.8 69.2 74.4 69.3 73.1C69.3 71.8 69.4 70.5 69.4 69.2C69.4 67.9 69.5 66.5 69.5 65C69.5 63.5 69.6 61.9 69.6 60C69.6 57.1 69.1 54.8 68.2 53C67.3 51.2 65.9 49.9 64.1 49C62.3 48.1 60.1 47.5 57.6 47.2C55 46.9 52.2 46.8 49 46.8L25.3 46.8L16.9 85.8L11.7 85.8L29.8 0.2ZM26.2 42.4L57.3 42.4C60.7 42.4 63.8 41.9 66.7 41C69.6 40.1 72.2 38.8 74.3 37C76.5 35.3 78.2 33.1 79.4 30.6C80.6 28 81.3 25.1 81.3 21.7C81.3 18.2 80.8 15.3 79.7 13.1C78.7 10.9 77.2 9.2 75.3 7.9C73.4 6.7 71.1 5.8 68.4 5.4C65.7 5 62.7 4.7 59.3 4.7L34.1 4.7L26.2 42.4Z" fill="#ffffff" fill-rule="nonzero" opacity="1" stroke="none" vectornator:layerName="path"/>
<path d="M93.4 55.7C93.2 56.8 93.1 57.9 93 59.1C92.9 60.2 92.8 61.3 92.8 62.5C92.8 65.3 93.2 68 94.1 70.5C95 73.1 96.2 75.3 97.9 77.2C99.5 79.1 101.6 80.6 104 81.8C106.4 82.9 109.2 83.5 112.3 83.5C115.2 83.5 117.9 83 120.5 82C123.1 81 125.4 79.7 127.5 78C129.5 76.4 131.3 74.5 132.7 72.3C134.1 70.1 135.1 67.9 135.6 65.5L140.2 65.5C139.3 68.7 138 71.6 136.4 74.3C134.7 77 132.7 79.3 130.3 81.3C127.9 83.3 125.2 84.8 122.1 85.9C119 87 115.6 87.5 111.9 87.5C108 87.5 104.5 86.9 101.6 85.6C98.6 84.3 96.2 82.6 94.2 80.3C92.2 78.1 90.8 75.5 89.8 72.5C88.8 69.5 88.3 66.4 88.3 63.1C88.3 57.3 89.1 52 90.6 47.1C92.1 42.2 94.3 38 97.1 34.4C99.9 30.8 103.3 28 107.4 25.9C111.5 23.9 116 22.8 121.1 22.8C124.7 22.8 127.9 23.4 130.7 24.6C133.5 25.8 135.9 27.5 137.8 29.6C139.7 31.7 141.2 34.2 142.2 37.2C143.2 40.1 143.7 43.3 143.7 46.6C143.7 48.2 143.6 49.7 143.5 51.2C143.3 52.7 143.1 54.2 142.9 55.7L93.4 55.7ZM138.5 51.7C138.7 50.7 138.8 49.7 138.9 48.9C139 48.1 139.1 47.3 139.1 46.5C139.1 43.9 138.7 41.3 138 38.9C137.2 36.5 136.1 34.4 134.6 32.6C133.1 30.8 131.1 29.4 128.7 28.3C126.3 27.2 123.5 26.7 120.3 26.7C116.7 26.7 113.4 27.4 110.5 28.7C107.6 30.1 105 31.9 102.9 34.2C100.7 36.5 98.9 39.2 97.5 42.2C96.1 45.2 95 48.3 94.3 51.6L138.5 51.6L138.5 51.7Z" fill="#ffffff" fill-rule="nonzero" opacity="1" stroke="none" vectornator:layerName="path"/>
<path d="M155.3 42C156.9 35.1 160 30.2 164.5 27.2C169.1 24.2 174.8 22.8 181.8 22.8C183.3 22.8 185.2 23 187.4 23.3C189.6 23.7 191.7 24.4 193.7 25.5C195.7 26.6 197.4 28.1 198.8 29.9C200.2 31.8 200.9 34.3 200.9 37.4C200.9 38.8 200.7 40.5 200.3 42.7C199.9 44.9 199.5 47.1 199 49.2C198.5 51.4 198.1 53.3 197.6 55.1C197.2 56.9 196.9 58 196.8 58.5C196.4 60.1 196 61.9 195.5 63.8C195 65.7 194.6 67.6 194.2 69.4C193.8 71.2 193.5 72.9 193.2 74.5C192.9 76.1 192.8 77.3 192.8 78.2C192.8 79.3 193.1 80.3 193.6 81C194.2 81.8 195 82.1 196.1 82.1C196.7 82.1 197.4 82 198.1 81.9C198.8 81.7 199.5 81.6 200.1 81.4L199.4 85.5C198.5 85.7 197.6 85.9 196.7 86C195.8 86.1 194.9 86.1 194.1 86.1C192 86.1 190.5 85.4 189.5 83.9C188.5 82.4 188.1 81.1 188.1 79.7C188.1 79.1 188.2 78.2 188.5 77.2C188.7 76.2 188.9 75.3 189.1 74.5L188.9 74.5C187.7 76.7 186.2 78.7 184.3 80.3C182.5 81.9 180.5 83.2 178.4 84.3C176.3 85.3 174.2 86.1 171.9 86.6C169.7 87.1 167.5 87.3 165.5 87.3C162.9 87.3 160.4 87 158.1 86.4C155.8 85.8 153.8 84.8 152 83.5C150.3 82.2 148.9 80.5 147.9 78.4C146.9 76.3 146.4 73.8 146.4 70.7C146.4 66.8 147.2 63.6 148.7 61.1C150.2 58.6 152.2 56.7 154.8 55.3C157.3 53.9 160.2 53 163.4 52.5C166.6 52 170 51.7 173.6 51.6C177.9 51.4 181.5 51.1 184.4 50.7C187.3 50.3 189.6 49.6 191.4 48.7C193.2 47.8 194.4 46.6 195.2 45C196 43.5 196.3 41.6 196.3 39.2C196.3 35.4 195.1 32.3 192.8 30C190.4 27.7 186.5 26.6 180.8 26.6C175.3 26.6 170.7 27.8 167.2 30.3C163.7 32.7 161.2 36.6 159.9 41.9L155.3 41.9L155.3 42ZM194 51.1L193.8 51.1C192.9 52 191.7 52.7 190.1 53.2C188.5 53.7 186.8 54.2 184.9 54.5C183.1 54.9 181.2 55.1 179.3 55.3C177.4 55.5 175.8 55.6 174.6 55.7C171.7 55.8 168.9 56 166.1 56.3C163.3 56.6 160.8 57.3 158.6 58.3C156.4 59.3 154.6 60.8 153.3 62.8C151.9 64.8 151.3 67.4 151.3 70.8C151.3 73.1 151.7 75.1 152.6 76.7C153.5 78.3 154.6 79.6 156.1 80.6C157.5 81.6 159.2 82.3 161.1 82.8C163 83.2 165 83.5 167 83.5C170.7 83.5 173.9 82.9 176.7 81.6C179.5 80.3 181.8 78.6 183.8 76.4C185.8 74.2 187.4 71.7 188.7 68.8C190 65.9 191.1 62.9 192 59.7L194 51.1Z" fill="#ffffff" fill-rule="nonzero" opacity="1" stroke="none" vectornator:layerName="path"/>
<path d="M260.8 65.8C258.4 72.2 254.9 77.4 250.2 81.4C245.5 85.4 239.6 87.4 232.6 87.4C228.4 87.4 224.7 86.7 221.7 85.4C218.7 84.1 216.2 82.2 214.3 79.9C212.4 77.5 211 74.8 210.1 71.6C209.2 68.4 208.8 64.9 208.8 61C208.8 56.2 209.6 51.5 211.2 46.9C212.8 42.3 215.1 38.3 218 34.6C220.9 31 224.4 28.1 228.6 26C232.7 23.8 237.3 22.8 242.2 22.8C245.4 22.8 248.4 23.3 251.1 24.3C253.9 25.3 256.2 26.7 258.2 28.5C260.2 30.3 261.7 32.5 262.8 35C263.8 37.5 264.2 40.3 264 43.5L259.4 43.5C259.4 38.2 257.9 34.1 254.8 31.2C251.7 28.3 247.5 26.8 242.1 26.8C237.6 26.8 233.6 27.8 230 29.9C226.4 31.9 223.4 34.6 220.9 37.9C218.4 41.2 216.5 44.8 215.2 48.9C213.9 52.9 213.2 56.9 213.2 60.9C213.2 63.9 213.6 66.7 214.3 69.4C215 72.1 216.1 74.5 217.7 76.7C219.2 78.8 221.2 80.5 223.5 81.7C225.9 82.9 228.7 83.6 232 83.6C237.8 83.6 242.6 82 246.6 78.7C250.6 75.5 253.6 71.2 255.7 65.9L260.8 65.9L260.8 65.8Z" fill="#ffffff" fill-rule="nonzero" opacity="1" stroke="none" vectornator:layerName="path"/>
<path d="M284.8 0.2L289.4 0.2L281.5 37.2L281.7 37.2C284.4 32.9 287.9 29.4 292 26.7C296.2 24.1 301 22.7 306.5 22.7C308.8 22.7 311 23.1 313.2 23.8C315.3 24.6 317.2 25.7 318.8 27.2C320.4 28.7 321.7 30.5 322.6 32.6C323.6 34.7 324 37.1 324 39.7C324 40.4 323.9 41.3 323.8 42.5C323.7 43.6 323.5 44.8 323.3 46C323.1 47.2 322.9 48.3 322.7 49.4C322.5 50.5 322.3 51.4 322.2 52.1L311.7 99.7L307.1 99.7L317.6 52.2C317.7 51.6 317.8 50.8 318 49.8C318.2 48.8 318.4 47.7 318.6 46.5C318.8 45.3 319 44.2 319.1 43C319.3 41.8 319.3 40.8 319.3 39.9C319.3 36 318 32.8 315.5 30.4C313 28 309.4 26.7 304.7 26.7C300.8 26.7 297.3 27.6 294.2 29.5C291.1 31.3 288.4 33.7 286.2 36.6C283.9 39.5 282 42.8 280.5 46.3C279 49.9 277.9 53.4 277.1 56.8L271 85.9L266.4 85.9L284.8 0.2Z" fill="#ffffff" fill-rule="nonzero" opacity="1" stroke="none" vectornator:layerName="path"/>
</g>
<path d="M0.8 97L302.5 97L302.5 97L302.5 99.8L302.5 99.8L0.8 99.8L0.8 99.8L0.8 97L0.8 97Z" fill="#ffffff" fill-rule="nonzero" opacity="1" stroke="none" vectornator:layerName="rect"/>
<path d="M315.8 97L333.3 97L333.3 97L333.3 99.8L333.3 99.8L315.8 99.8L315.8 99.8L315.8 97L315.8 97Z" fill="#ffffff" fill-rule="nonzero" opacity="1" stroke="none" vectornator:layerName="rect"/>
</g>
<path d="M361.55 0.182L378.675 0.182L366.071 60.051C365.797 61.3297 365.569 62.6312 365.386 63.9555C365.203 65.2798 365.066 66.627 364.975 67.997C364.884 71.285 365.363 74.0478 366.413 76.2855C367.464 78.5232 368.948 80.327 370.866 81.697C372.784 83.067 375.022 84.0488 377.579 84.6425C380.136 85.2362 382.922 85.533 385.936 85.533C389.224 85.533 392.261 85.1677 395.046 84.437C397.832 83.7063 400.344 82.4048 402.582 80.5325C404.819 78.6602 406.806 76.1029 408.541 72.8605C410.276 69.6181 411.692 65.4854 412.788 60.462L425.666 0.182L442.791 0.182L429.913 61.558C429.091 65.5767 427.904 69.8693 426.351 74.436C424.798 79.0027 422.355 83.204 419.022 87.04C415.688 90.876 411.235 94.0498 405.664 96.5615C400.093 99.0732 392.877 100.329 384.018 100.329C379.177 100.329 374.565 99.7125 370.181 98.4795C365.797 97.2465 361.961 95.397 358.673 92.931C355.385 90.465 352.759 87.3369 350.796 83.5465C348.832 79.7561 347.85 75.3037 347.85 70.189C347.85 67.9057 348.01 65.6908 348.329 63.5445C348.649 61.3982 349.037 59.229 349.494 57.037L361.55 0.182ZM463.478 0.182L480.603 0.182L460.19 98L443.065 98L463.478 0.182Z" fill="#ffffff" fill-rule="evenodd" opacity="1" stroke="none" vectornator:layerName="path"/>
</g>
</g>
</svg>
