<?xml version="1.0" encoding="UTF-8"?>
<svg width="32px" height="32px" viewBox="0 0 32 32" version="1.1" xmlns="http://www.w3.org/2000/svg" xmlns:xlink="http://www.w3.org/1999/xlink">
    <title>springcloud</title>
    <g id="springcloud" stroke="none" stroke-width="1" fill="none" fill-rule="evenodd">
        <path d="M27.4187683,13.0658764 C27.026258,10.7441389 26.4374313,8.45989746 25.658626,6.23773819 C25.3563589,6.96364227 24.9692695,7.65123518 24.5054293,8.28617965 C22.1583535,5.87083204 18.8220719,4.683414 15.4767676,5.07278305 C12.1314633,5.4621521 9.15708747,7.38408468 7.427497,10.2739266 C9.07408978,10.3660695 10.6387176,11.022463 11.8582,12.1326975 C10.6160872,11.3135683 9.15810853,10.883042 7.67027525,10.8960458 C3.4340992,10.8960458 0,14.330145 0,18.5663211 C0,22.8024971 3.4340992,26.2365963 7.67027525,26.2365963 L25.3551532,26.2365963 C28.6411424,26.1767843 31.4091323,23.7647503 31.9178664,20.5178299 C32.4266005,17.2709095 30.5289923,14.12786 27.4187683,13.0658764 L27.4187683,13.0658764 Z M10.8946738,23.9074425 C10.5722181,24.3033705 9.99004065,24.3633736 9.59360761,24.0415389 C9.19717457,23.7197043 9.13625894,23.1376216 9.45747168,22.7406845 C9.77868442,22.3437474 10.3606709,22.2819193 10.7581111,22.6025094 C10.9531553,22.7561603 11.0782881,22.9817324 11.1053946,23.2285441 C11.1325011,23.4753559 11.0593081,23.7227095 10.9022607,23.9150293 L10.8946738,23.9074425 Z M25.6055183,20.6602834 C22.9273707,24.226089 17.2144951,23.0197845 13.5500609,23.1942814 C13.5500609,23.1942814 12.9051812,23.1942814 12.2451279,23.338431 C12.2451279,23.338431 12.4954929,23.2322155 12.8065525,23.126 C15.3784846,22.2383421 16.5999627,22.0562584 18.1628476,21.2520554 C21.0989471,19.7346914 24.0274597,16.4723587 24.6192316,13.0658764 C23.5039691,16.3433827 20.0671395,19.1353326 17.0324114,20.3037029 C15.078787,20.926264 13.0901087,21.4329336 11.0767575,21.8210669 L10.9250211,21.7376119 C8.31515497,20.4706129 8.24687359,14.8260187 12.9810494,13.0051818 C15.0598382,12.2085657 17.0399982,12.6486013 19.285697,12.109937 C21.6755454,11.5409255 24.4523216,9.75043596 25.575171,7.39852168 C26.8194095,11.1919318 28.3367736,17.0413702 25.6131051,20.6678703 L25.6055183,20.6602834 Z" id="Shape" fill="#68BD45" fill-rule="nonzero"></path>
    </g>
</svg>