<?xml version="1.0" encoding="UTF-8" standalone="no"?>
<!-- Created with Inkscape (http://www.inkscape.org/) -->

<svg
   xmlns:dc="http://purl.org/dc/elements/1.1/"
   xmlns:cc="http://creativecommons.org/ns#"
   xmlns:rdf="http://www.w3.org/1999/02/22-rdf-syntax-ns#"
   xmlns:svg="http://www.w3.org/2000/svg"
   xmlns="http://www.w3.org/2000/svg"
   xmlns:xlink="http://www.w3.org/1999/xlink"
   xmlns:sodipodi="http://sodipodi.sourceforge.net/DTD/sodipodi-0.dtd"
   xmlns:inkscape="http://www.inkscape.org/namespaces/inkscape"
   width="580.15167mm"
   height="199.11302mm"
   viewBox="0 0 580.15167 199.11302"
   version="1.1"
   id="svg856"
   inkscape:version="0.92.3 (2405546, 2018-03-11)"
   sodipodi:docname="shiro.svg">
  <defs
     id="defs850">
    <linearGradient
       inkscape:collect="always"
       id="linearGradient1487">
      <stop
         style="stop-color:#4274ca;stop-opacity:1"
         offset="0"
         id="stop1483" />
      <stop
         style="stop-color:#171e5a;stop-opacity:1"
         offset="1"
         id="stop1485" />
    </linearGradient>
    <linearGradient
       inkscape:collect="always"
       id="linearGradient1460">
      <stop
         style="stop-color:#ced2d5;stop-opacity:1"
         offset="0"
         id="stop1456" />
      <stop
         id="stop1464"
         offset="1"
         style="stop-color:#6a7681;stop-opacity:1" />
    </linearGradient>
    <radialGradient
       inkscape:collect="always"
       xlink:href="#linearGradient1460"
       id="radialGradient1466"
       cx="-247.18375"
       cy="-101.49687"
       fx="-247.18375"
       fy="-101.49687"
       r="290.07584"
       gradientTransform="matrix(0.94264036,0.13180326,-0.03231884,0.23114031,-17.45863,-48.350535)"
       gradientUnits="userSpaceOnUse" />
    <radialGradient
       inkscape:collect="always"
       xlink:href="#linearGradient1487"
       id="radialGradient1489"
       cx="-235.84052"
       cy="-109.55988"
       fx="-235.84052"
       fy="-109.55988"
       r="50.208981"
       gradientTransform="matrix(1.8506708,-0.11292089,0.11196233,1.8349608,212.88922,64.846881)"
       gradientUnits="userSpaceOnUse" />
    <linearGradient
       inkscape:collect="always"
       xlink:href="#linearGradient1487"
       id="linearGradient1497"
       x1="124.14541"
       y1="-121.1451"
       x2="124.14541"
       y2="-54.924953"
       gradientUnits="userSpaceOnUse"
       gradientTransform="translate(-50.940738,1.808905)" />
  </defs>
  <sodipodi:namedview
     id="base"
     pagecolor="#ffffff"
     bordercolor="#666666"
     borderopacity="1.0"
     inkscape:pageopacity="0.0"
     inkscape:pageshadow="2"
     inkscape:zoom="0.49497475"
     inkscape:cx="752.01592"
     inkscape:cy="-357.93154"
     inkscape:document-units="mm"
     inkscape:current-layer="layer1"
     showgrid="false"
     inkscape:window-width="3726"
     inkscape:window-height="2049"
     inkscape:window-x="114"
     inkscape:window-y="55"
     inkscape:window-maximized="1"
     fit-margin-top="0"
     fit-margin-left="0"
     fit-margin-right="0"
     fit-margin-bottom="0">
    <inkscape:grid
       type="xygrid"
       id="grid1499"
       originx="318.78933"
       originy="-303.34557" />
  </sodipodi:namedview>
  <metadata
     id="metadata853">
    <rdf:RDF>
      <cc:Work
         rdf:about="">
        <dc:format>image/svg+xml</dc:format>
        <dc:type
           rdf:resource="http://purl.org/dc/dcmitype/StillImage" />
        <dc:title></dc:title>
      </cc:Work>
    </rdf:RDF>
  </metadata>
  <g
     inkscape:label="Layer 1"
     inkscape:groupmode="layer"
     id="layer1"
     transform="translate(318.78933,205.45859)">
    <path
       style="fill:url(#radialGradient1466);fill-opacity:1;stroke-width:0.26458332"
       d="m -224.37597,-205.45855 c -2.37666,0.003 -4.95201,0.20322 -7.19129,0.59841 -18.57711,3.27846 -46.53952,17.05432 -82.37223,40.58099 l -4.84984,3.18378 0.16692,4.12378 c 0.46794,11.5676 0.95916,17.33051 2.14406,25.15764 1.59645,10.54574 3.98128,20.56851 7.17268,30.14338 5.31953,15.959681 15.43672,35.431668 26.67383,51.337947 1.74625,2.47185 3.31284,4.497017 3.48092,4.501017 0.16807,0.0039 0.63457,-0.558316 1.03663,-1.249536 2.13768,-3.67517 5.00479,-7.659297 7.845,-10.900628 0.6949,-0.793028 1.26242,-1.566939 1.26142,-1.719792 -10e-4,-0.152849 -0.90022,-1.528172 -1.99781,-3.056143 -4.95715,-6.900918 -9.61267,-14.77609 -14.15521,-23.944792 -4.05908,-8.192886 -6.27004,-13.455353 -8.72608,-20.769793 -4.00449,-11.92593 -6.77154,-25.61978 -7.95559,-39.36865 -0.27778,-3.22495 -0.27071,-3.83378 0.0496,-4.13257 0.5352,-0.49924 19.04653,-11.58268 26.43715,-15.829 24.7032,-14.19342 43.11479,-22.1867 54.09902,-23.48643 5.619,-0.66488 9.7153,0.69198 11.26598,3.73156 0.28977,0.56801 0.63922,1.03301 0.77618,1.03301 0.93738,0 1.23748,-6.46141 0.44235,-9.525 -1.35784,-5.23175 -4.50433,-8.45193 -9.60458,-9.82937 -1.44425,-0.39005 -3.62245,-0.58313 -5.99912,-0.57981 z m 75.62329,11.33471 -0.0718,5.41724 c -0.0395,2.97924 -0.0125,5.57112 0.06,5.75985 0.10339,0.26973 1.34108,0.32792 5.76037,0.27182 l 5.6286,-0.0718 v -5.68854 -5.68854 h -5.68855 z m -43.6919,14.53141 c -0.0382,-0.002 -0.0649,0.001 -0.0786,0.01 -0.11628,0.0719 -0.26988,1.29427 -0.34158,2.71663 -0.19245,3.81927 -1.67691,7.9788 -4.21112,11.79928 -0.56186,0.84704 -1.02164,1.69943 -1.02164,1.89394 0,0.21338 1.02327,0.68754 2.57969,1.19579 5.01822,1.63869 11.38798,4.31372 17.68264,7.4259 3.50445,1.73265 6.55374,3.36062 6.77633,3.61735 0.35812,0.41309 0.36489,0.90805 0.0568,4.3031 -1.90517,20.99853 -6.6766,39.10637 -15.05852,57.149998 -8.46714,18.22709 -21.13417,35.559113 -35.18803,48.146932 -14.01301,12.55123 -28.49291,21.260303 -36.91454,22.202263 -5.06528,0.56655 -8.78715,-1.222209 -10.8102,-5.195549 -0.97461,-1.91427 -1.18471,-1.475863 -1.01389,2.116667 0.45382,9.54417 5.07386,15.0782209 13.15527,15.7582109 7.08934,0.59652 14.58488,-1.2968012 24.47086,-6.1805009 10.57448,-5.22383 19.18405,-11.685762 29.10468,-21.844662 19.86537,-20.342479 34.67128,-47.085763 42.75295,-77.223709 3.07105,-11.45246 5.51811,-26.78458 5.84977,-36.64944 l 0.0801,-2.38125 -3.43958,-0.13229 -3.43959,-0.1323 v -4.7625 -4.7625 l 4.36563,-0.13229 4.36562,-0.13229 v -8.86354 -8.86354 h -8.86354 -8.86354 l -0.0744,3.43493 c -0.041,1.88909 -0.17151,3.53151 -0.28991,3.64991 -0.11841,0.11841 -1.15654,-0.2173 -2.30684,-0.74569 -5.4611,-2.50856 -18.14042,-7.36328 -19.32491,-7.41867 z m 51.89399,7.429 -0.0739,3.69176 c -0.0406,2.0303 -0.0135,3.84933 0.0605,4.04214 0.10509,0.27433 0.98981,0.33418 4.04265,0.27698 l 3.90829,-0.0734 v -3.96875 -3.96875 h -3.96875 z m 24.56491,10.45104 -7.58611,13.33924 c -4.17234,7.33641 -7.5861,13.46811 -7.5861,13.62604 0,0.18225 0.76452,0.28681 2.09342,0.28681 h 2.09393 l 1.62367,-2.91301 1.62316,-2.91351 10.89959,0.0692 10.89907,0.0687 1.1927,2.13217 c 2.122477,3.79476 1.84739,3.55638 4.108789,3.55638 1.248222,0 1.978176,-0.10582 1.978176,-0.28733 0,-0.15821 -3.405585,-6.28992 -7.568015,-13.62604 l -7.56801,-13.33872 h -3.10214 z m 66.145828,0 -7.586102,13.33924 c -4.172339,7.33641 -7.586098,13.46811 -7.586098,13.62604 0,0.18225 0.76451,0.28681 2.093412,0.28681 h 2.093928 l 1.623674,-2.91301 1.623155,-2.91351 10.899593,0.0692 10.899076,0.0687 1.192694,2.13217 c 2.12248,3.79476 1.847371,3.55638 4.108791,3.55638 1.248191,0 1.978176,-0.10582 1.978176,-0.28733 0,-0.15821 -3.405595,-6.28992 -7.568015,-13.62604 l -7.568014,-13.33872 h -3.102134 z m 35.219036,0.0341 c -10.27163,0.0635 -11.865573,1.20607 -12.727903,6.19859 -0.571981,3.31149 -0.385622,14.40034 0.276469,16.45946 0.85336,2.65391 2.466311,3.80872 5.98103,4.28191 v -5.2e-4 c 2.679909,0.3608 20.0200181,0.17106 21.29895837,-0.23306 1.35130913,-0.42697 2.66942883,-1.42149 3.17189903,-2.39314 0.4915403,-0.95055 1.0622148,-5.7999 0.7224369,-6.13967 -0.1340406,-0.134 -1.005713,-0.20772 -1.9368347,-0.16382 l -1.6929179,0.0801 -0.14779625,1.89601 c -0.24936978,3.20204 -0.90683819,3.54328 -7.26053695,3.76669 -2.4738515,0.0873 -6.5815055,0.0881 -9.1281245,0.003 -7.743132,-0.25997 -7.532526,0.0201 -7.537524,-10.03091 -0.003,-6.48601 0.03655,-7.09078 0.526065,-8.0698 1.013691,-2.0274 2.850163,-2.34006 12.790432,-2.17919 9.57973963,0.15504 9.93685834,0.27684 10.47739679,3.57239 l 0.291973,1.7818 H 2.0660209 3.6473217 l 0.078031,-1.77921 c 0.1054602,-2.40341 -0.3179101,-3.81436 -1.4996504,-4.99608 -1.71340989,-1.71342 -2.74989392,-1.88992 -11.8897134,-2.02314 -1.8447329,-0.0269 -3.4894279,-0.0401 -4.9568049,-0.031 z m -61.561614,0.008 c -1.269312,0.003 -2.697358,0.01 -4.307747,0.0191 l -12.170833,0.0713 -0.06873,13.22917 c -0.03788,7.27604 -0.0099,13.38392 0.06253,13.57282 0.0932,0.24328 0.615238,0.32048 1.789038,0.26458 l 1.656747,-0.0791 0.132291,-5.02708 0.132292,-5.02708 11.1125,-0.13229 c 10.7999,-0.12857 11.143244,-0.14868 12.196154,-0.71211 2.68791,-1.43831 3.396998,-3.30984 3.24218,-8.55503 -0.1139,-3.859 -0.660844,-5.39596 -2.307354,-6.48281 -1.473859,-0.97292 -2.583889,-1.16044 -11.469066,-1.14153 z m 83.5339183,0.0904 -0.068731,13.22917 c -0.03787,7.27604 -0.00987,13.38392 0.062529,13.57282 0.09321,0.24328 0.6152489,0.32048 1.7890384,0.26458 l 1.6567473,-0.0791 0.132291,-6.2177 0.132292,-6.21771 H 23.35878 35.661905 l 0.132291,6.21771 0.132292,6.2177 h 1.719792 1.719791 v -13.49375 -13.49375 H 37.64628 35.926488 l -0.132292,5.55625 -0.132291,5.55625 H 23.35878 11.055655 l -0.132292,-5.55625 -0.132291,-5.55625 H 9.0712799 Z m 36.5124997,0 -0.06873,13.22917 c -0.0379,7.27604 -0.01129,13.37922 0.05891,13.56248 0.100759,0.26258 2.902765,0.31879 13.297895,0.26459 l 13.170257,-0.0687 v -1.4552 -1.45521 l -11.377083,-0.13229 -11.377084,-0.1323 v -4.6302 -4.63021 l 10.847917,-0.13229 10.847917,-0.1323 v -1.4552 -1.45521 l -10.847917,-0.13229 -10.847917,-0.1323 v -3.96875 -3.96875 l 11.377084,-0.13229 11.377083,-0.13229 v -1.45521 -1.45521 H 57.093154 Z m -156.659688,3.0732 c 0.10837,0.001 0.2196,0.0452 0.35037,0.12764 0.54599,0.3444 8.23531,13.80808 8.25841,14.4601 0.0153,0.43182 -0.56245,0.46302 -8.56692,0.46302 -5.18823,0 -8.64534,-0.0999 -8.74004,-0.25321 -0.17063,-0.27607 7.29764,-13.57026 8.10494,-14.42754 0.24028,-0.25517 0.41263,-0.37199 0.59324,-0.37001 z m 66.145834,0 c 0.108368,0.001 0.219596,0.0452 0.350366,0.12764 0.545968,0.3444 8.23541,13.80808 8.258411,14.4601 0.0153,0.43182 -0.562444,0.46302 -8.56692,0.46302 -5.188209,0 -8.645334,-0.0999 -8.740034,-0.25321 -0.17063,-0.27607 7.29761,-13.57026 8.104931,-14.42754 0.240276,-0.25517 0.412633,-0.37199 0.593246,-0.37001 z m -42.306978,0.1018 9.85883,0.0553 c 9.193848,0.0514 9.939036,0.0906 11.047386,0.58084 1.509832,0.66787 1.715659,1.21397 1.715659,4.55373 0,3.06563 -0.31563,3.91579 -1.698088,4.57181 -1.32929,0.63079 -20.690911,0.99424 -20.92172,0.39274 -0.0802,-0.21003 -0.114216,-2.58044 -0.07441,-5.26789 z m 305.703294,33.47961 c 4.89125,-6.3e-4 9.77739,0.0201 13.8095,0.0625 -4.03222,-0.0425 -8.91807,-0.0632 -13.8095,-0.0625 z m -260.724128,1.18081 -0.06822,32.676042 c -0.0094,4.492956 -0.01433,8.791194 -0.01602,12.713952 0.0017,-3.922758 0.0072,-8.220996 0.01654,-12.713952 z m -20.239074,0.52865 c 0.462632,0.12981 0.906481,0.26776 1.332217,0.41341 -0.425736,-0.14565 -0.869585,-0.2836 -1.332217,-0.41341 z m 240.832312,3.66799 c -0.10702,0.10566 -0.21214,0.2133 -0.31573,0.32298 0.10359,-0.10968 0.20921,-0.21732 0.31626,-0.32298 -8e-5,9e-5 -4.2e-4,-8e-5 -5.3e-4,0 z m 82.14641,2.33991 c 0.17756,0.27843 0.34562,0.56647 0.50487,0.86507 -0.15925,-0.2986 -0.32731,-0.58664 -0.50487,-0.86507 z m -84.78396,1.42317 c -0.18677,0.39968 -0.36243,0.82085 -0.52813,1.26711 0.1657,-0.44626 0.34136,-0.86743 0.52813,-1.26711 z m 87.04379,4.48707 c 0.12705,0.54381 0.23987,1.07775 0.34054,1.62574 -0.10067,-0.54799 -0.21349,-1.08193 -0.34054,-1.62574 z m -335.78623,3.22564 c 0.09334,0.0841 0.18084,0.173 0.262001,0.26717 -0.08125,-0.0943 -0.168553,-0.18298 -0.262001,-0.26717 z m 0.262001,0.26717 c 0.243475,0.2825 0.433644,0.61191 0.581874,0.99787 -0.14823,-0.38596 -0.338399,-0.71537 -0.581874,-0.99787 z m -36.347131,-0.22996 c -0.0864,0.0874 -0.17171,0.1803 -0.25994,0.27905 0.0882,-0.0988 0.17408,-0.1917 0.26045,-0.27905 -9e-5,9e-5 -4.2e-4,-1e-4 -5.1e-4,0 z m 57.07248,0.43046 0.0098,4.49792 h 5.16e-4 z m -19.900077,1.64796 c 0.06447,0.31048 0.113359,0.64862 0.14986,1.01803 -0.0365,-0.36941 -0.08539,-0.70755 -0.14986,-1.01803 z m 0.14986,1.01803 0.18087,1.83193 h 5.16e-4 z m 216.826557,-0.90124 c 0.10771,0.0887 0.20963,0.18032 0.3054,0.27544 -0.0958,-0.0952 -0.19759,-0.18669 -0.3054,-0.27544 z m 96.17707,1.1529 c 0.1312,0.14886 0.2558,0.30392 0.37415,0.46664 -0.11835,-0.16272 -0.24295,-0.31778 -0.37415,-0.46664 z m -351.20956,1.38648 c 0.0554,0.34369 0.13287,0.64919 0.23461,0.92139 -0.10174,-0.2722 -0.17919,-0.5777 -0.23461,-0.92139 z m -101.58191,0.75603 c -0.25706,0.22988 -0.65106,0.55748 -1.15187,0.9586 0.50081,-0.40112 0.89481,-0.72872 1.15187,-0.9586 z m 143.909557,4.184755 c 0.834686,0.07147 1.613583,0.147719 2.342491,0.22996 -0.728908,-0.08224 -1.507805,-0.158491 -2.342491,-0.22996 z m 234.565003,3.795633 c -0.0373,0.481864 -0.0814,0.912072 -0.13382,1.30638 0.0524,-0.394308 0.0965,-0.824513 0.13382,-1.30638 z m -22.55935,2.444813 c -0.16293,0.09551 -0.33663,0.177642 -0.53433,0.248563 0.1977,-0.07092 0.3714,-0.153056 0.53433,-0.248563 z m -0.53433,0.248563 c -0.19769,0.07092 -0.41944,0.130871 -0.67799,0.182417 0.25855,-0.05155 0.4803,-0.111495 0.67799,-0.182417 z m -1.09503,0.25373 c -0.29879,0.04381 -0.64138,0.08041 -1.04024,0.112657 0.39886,-0.03225 0.74145,-0.06884 1.04024,-0.112657 z m -3.26078,0.236681 c -0.59793,0.02467 -1.27219,0.04828 -2.03552,0.07441 -0.80036,0.0274 -1.93079,0.05428 -3.28869,0.07906 1.3579,-0.02478 2.4883,-0.05115 3.28869,-0.07855 0.76333,-0.02613 1.43759,-0.05026 2.03552,-0.07493 z m -189.808559,3.442681 c 0.07178,0.229915 0.140758,0.465117 0.207737,0.705901 0.03726,0.133955 0.07363,0.297534 0.108006,0.487825 -0.03438,-0.190291 -0.07023,-0.35387 -0.107487,-0.487825 -0.06698,-0.240784 -0.13648,-0.475986 -0.208256,-0.705901 z m 0.315743,1.193726 c 0.06876,0.380585 0.131358,0.867183 0.187584,1.431954 -0.05623,-0.564771 -0.118827,-1.051369 -0.187584,-1.431954 z m 0.187584,1.431954 c 0.05623,0.564774 0.10595,1.208125 0.148313,1.902211 -0.04236,-0.694086 -0.09209,-1.337437 -0.148313,-1.902211 z m 0.20619,2.978113 c 0.06985,1.476327 0.109434,3.10148 0.11317,4.656048 -0.0037,-1.554568 -0.04331,-3.179721 -0.11317,-4.656048 z m 0.109038,5.805331 c -0.0072,0.752766 -0.0237,1.473732 -0.05013,2.136304 0.02641,-0.662437 0.0429,-1.383725 0.05013,-2.136304 z m 312.642414,4.591968 c -0.10067,0.547987 -0.21349,1.081932 -0.34054,1.625741 0.12705,-0.543809 0.23987,-1.077754 0.34054,-1.625741 z m -313.006217,0.877465 c -0.08965,0.551071 -0.191344,1.082952 -0.305408,1.596286 0.114064,-0.513334 0.215757,-1.045215 0.305408,-1.596286 z m -0.485759,2.352312 c -0.126373,0.494707 -0.264805,0.970915 -0.415996,1.428853 0.151191,-0.457938 0.289623,-0.934146 0.415996,-1.428853 z m -1.181322,3.367752 c -0.18892,0.403992 -0.390205,0.79027 -0.604615,1.159102 0.21441,-0.368832 0.415695,-0.75511 0.604615,-1.159102 z m 312.577798,0.0739 c -0.15925,0.298598 -0.32731,0.586118 -0.50487,0.864547 0.17756,-0.278429 0.34562,-0.565949 0.50487,-0.864547 z m -314.234545,2.628262 c -0.253153,0.317304 -0.519086,0.617998 -0.798401,0.901756 0.279318,-0.283758 0.545248,-0.584452 0.798401,-0.901756 z M 181.00444,-59.2065 c 0.28835,0.122751 0.58645,0.239835 0.89504,0.351399 -0.30859,-0.111564 -0.60669,-0.228648 -0.89504,-0.351399 z m 55.20698,2.36678 c -1.46568,0.02832 -3.29673,0.05137 -5.37178,0.06976 2.07505,-0.01839 3.9061,-0.04144 5.37178,-0.06976 z m -480.60322,4.00079 c -2.40032,1.574664 -4.48526,2.952999 -6.31228,4.174939 1.82702,-1.22194 3.91196,-2.600275 6.31228,-4.174939 z m -35.13997,24.300325 c -0.004,0.520582 0.0129,1.033404 0.0501,1.538407 -0.0372,-0.505003 -0.054,-1.017825 -0.0501,-1.538407 z"
       id="path1423"
       inkscape:connector-curvature="0" />
    <path
       style="fill:url(#radialGradient1489);fill-opacity:1;stroke-width:0.26458332"
       d="m -274.44256,-18.83884 c -5.52181,-6.10181 -5.79259,-14.41606 -0.7981,-24.50618 3.80745,-7.69199 9.8894,-15.47165 19.92123,-25.48202 10.05638,-10.03486 21.14178,-19.33437 37.54489,-31.4963 3.22803,-2.3934 5.71483,-4.38514 5.52622,-4.42612 -0.18861,-0.041 -2.06543,0.65648 -4.17072,1.54985 -16.63564,7.05939 -30.62077,11.59512 -39.54654,12.82599 -3.92113,0.54073 -9.96976,0.40543 -12.56771,-0.28112 -6.47541,-1.71125 -11.97126,-6.61036 -15.35414,-13.68701 -1.56039,-3.26419 -2.14805,-5.83604 -2.16189,-9.46135 -0.0254,-6.64759 2.63392,-12.63516 8.08892,-18.21259 4.37943,-4.47774 7.47214,-6.53256 27.03862,-17.96472 12.73234,-7.43916 17.59104,-10.40728 24.06037,-14.69818 14.4216,-9.56541 20.8239,-16.12354 23.1841,-23.74841 1.08045,-3.49052 0.73225,-8.19609 -0.88568,-11.96905 -0.29832,-0.69565 -0.46445,-1.34276 -0.3692,-1.43802 0.30191,-0.3019 2.26939,1.82941 3.79038,4.106 8.32468,12.46029 2.77032,28.80714 -16.45862,48.43883 -8.74272,8.92582 -16.98316,15.98017 -30.6964,26.27809 -5.40029,4.05533 -6.83603,5.2393 -6.35345,5.2393 0.10421,0 3.24418,-1.14728 6.97771,-2.54954 20.16229,-7.57256 31.81857,-10.4788 40.39032,-10.07047 5.49214,0.26163 8.85929,1.58278 12.26826,4.81364 2.88357,2.73291 5.46824,6.65984 7.46349,11.33941 2.67579,6.27566 2.54984,12.83843 -0.35644,18.57244 -1.70226,3.35849 -6.10019,8.20645 -10.24718,11.29574 -1.09141,0.81305 -13.17625,8.72286 -26.85521,17.57737 -31.13048,20.15104 -34.73166,22.64778 -40.19114,27.86501 -5.82834,5.56971 -8.47274,10.41476 -8.44912,15.48036 0.009,1.8437 0.20057,2.89293 1.02866,5.6224 0.30625,1.00941 -0.2926,0.67628 -1.82163,-1.01335 z"
       id="path1423-3"
       inkscape:connector-curvature="0"
       sodipodi:nodetypes="csssccsccccscccccssscsscccscccc" />
    <path
       style="fill:url(#linearGradient1497);fill-opacity:1;stroke-width:0.26458332"
       d="m -112.13589,-52.219839 c -12.60952,-0.83397 -18.09614,-3.59871 -20.08529,-10.12107 -0.65036,-2.13249 -1.14404,-7.03317 -1.02972,-10.22169 l 0.0806,-2.24895 h 9.78472 9.78472 l 0.30491,2.14529 c 0.35146,2.47284 0.75569,3.21856 2.17798,4.01794 1.77144,0.99559 4.19772,1.14309 18.825765,1.14445 14.212958,10e-4 16.983318,-0.1509 18.779148,-1.03167 1.38856,-0.68102 1.62177,-1.36613 1.53598,-4.51229 -0.0737,-2.70297 -0.0842,-2.74279 -0.92035,-3.48939 -0.46519,-0.41536 -1.29862,-0.88834 -1.85209,-1.05102 -0.55345,-0.16271 -5.11393,-0.46443 -10.13441,-0.67049 -25.250153,-1.03639 -28.932623,-1.20736 -31.736973,-1.47352 -9.25437,-0.87829 -13.69007,-4.00449 -15.27704,-10.76692 -0.39323,-1.67567 -0.47861,-3.19577 -0.47861,-8.521746 0,-5.973645 0.0492,-6.669145 0.62712,-8.863545 0.82702,-3.14026 1.8917,-5.19139 3.65344,-7.03839 1.74013,-1.82434 4.18456,-3.16896 7.09653,-3.90361 4.27337,-1.07812 7.68069,-1.22884 27.781211,-1.22884 16.986522,0 19.434282,0.0524 22.598202,0.48392 9.65597,1.31691 13.82704,4.14514 15.56053,10.55095 0.33896,1.25248 0.45308,2.77981 0.46051,6.16306 l 0.0101,4.497915 h -9.78959 -9.78958 l -0.18102,-1.831785 c -0.29202,-2.95524 -1.37687,-3.93283 -4.88873,-4.40546 -1.36318,-0.18346 -6.880824,-0.24727 -15.585813,-0.18025 -14.99073,0.11542 -15.69587,0.18831 -17.10758,1.7683 -0.66805,0.74767 -0.73356,1.00407 -0.73266,2.86744 0.001,2.415101 0.55154,3.581791 1.96904,4.174051 1.34592,0.56236 4.7337,0.86163 13.243495,1.1699 19.787918,0.7168 22.712428,0.8387 25.929098,1.0809 7.13793,0.53742 10.49285,1.326 13.24991,3.11441 2.81975,1.82907 4.48816,4.26495 5.55985,8.11748 0.59621,2.14329 0.83399,11.93667 0.37227,15.33179 -0.62037,4.56144 -2.01332,7.89468 -4.24786,10.16473 -3.09137,3.14051 -6.64892,4.21459 -15.86021,4.78844 -5.07907,0.31641 -34.826323,0.30118 -39.687413,-0.0203 z m 304.8,0.007 c -9.19668,-0.58353 -13.53471,-1.90762 -16.82837,-5.13653 -2.62758,-2.57592 -3.86588,-5.61182 -4.79798,-11.76323 -0.68842,-4.54321 -0.68977,-29.366116 -0.003,-33.888101 0.85195,-5.60051 2.01736,-8.73884 4.13737,-11.14195 3.21227,-3.64118 8.01123,-5.16265 18.2082,-5.77278 5.80615,-0.34741 39.29306,-0.35161 45.0555,-0.006 10.07282,0.60475 14.21495,1.81695 17.62209,5.15713 1.94773,1.90944 3.1038,4.07684 3.94057,7.38771 1.13075,4.4743 1.32379,7.583245 1.32379,21.319581 0,13.73635 -0.19304,16.84528 -1.32379,21.31958 -0.83677,3.31087 -1.99284,5.47827 -3.94057,7.38771 -3.38868,3.32207 -7.48741,4.53061 -17.4898,5.15698 -4.90083,0.3069 -40.99947,0.29082 -45.90518,-0.0205 z m 34.39583,-17.29451 c 7.27345,-0.16787 9.53231,-0.67856 11.59809,-2.62216 2.03486,-1.9145 2.42547,-4.02481 2.42295,-13.09053 -0.003,-10.03524 -0.63756,-13.217996 -3.06205,-15.352091 -2.31579,-2.03845 -4.40766,-2.22032 -23.94066,-2.0814 -16.35501,0.11631 -17.49139,0.19781 -19.57404,1.40375 -1.3567,0.7856 -2.5246,2.710895 -3.0798,5.077131 -0.41272,1.75899 -0.48011,3.27175 -0.48011,10.77745 0,7.6611 0.0584,8.92021 0.47633,10.27295 0.85505,2.76752 3.01024,4.51944 6.4172,5.21648 1.61327,0.33005 14.85924,0.70854 20.62314,0.58929 1.74625,-0.0361 5.61578,-0.12203 8.59895,-0.19087 z m -271.868517,16.19594 c -0.0699,-0.1836 -0.0965,-15.03803 -0.059,-33.00985 l 0.0681,-32.676041 h 10.45107 10.45104 l 0.13229,11.77396 0.1323,11.773951 H -1.0109321 21.610971 l 0.13227,-11.773951 0.13229,-11.77396 h 10.451042 10.45104 v 32.940621 32.94063 H 32.326573 21.875531 l -0.13229,-11.77396 -0.13227,-11.77397 H -1.0109321 -23.632777 l -0.1323,11.77397 -0.13229,11.77396 -10.39204,0.0692 c -8.17213,0.0544 -10.41916,-0.002 -10.51909,-0.26458 z m 97.102089,0 c -0.0699,-0.1836 -0.0965,-15.03803 -0.059,-33.00985 l 0.0681,-32.676041 h 10.45105 10.45101 v 32.940621 32.94063 l -10.39198,0.0692 c -8.17216,0.0544 -10.41916,-0.002 -10.51912,-0.26458 z m 30.42714,1.5e-4 c -0.0699,-0.18368 -0.0965,-15.03818 -0.0591,-33.01 l 0.0681,-32.676041 33.602168,-0.0746 c 22.37764,-0.0497 34.35331,0.0184 35.85104,0.20399 1.70318,0.21099 2.76609,0.53096 4.37986,1.31847 3.68779,1.79962 5.67624,3.96743 6.83464,7.45107 1.03764,3.12043 1.29204,6.24092 1.15385,14.153261 -0.12923,7.40058 -0.2925,8.62932 -1.51329,11.38915 -0.98996,2.23796 -3.85786,4.5047 -6.82016,5.39053 -1.10435,0.33025 -1.44672,0.71252 -0.79375,0.88631 3.52536,0.93825 4.30672,1.3155 5.78358,2.79234 1.25129,1.2513 1.60414,1.81722 2.06663,3.31456 0.81195,2.62883 1.18192,8.45914 0.90699,14.29367 l -0.22439,4.7625 -9.73048,0.0694 c -7.64352,0.0545 -9.75738,-0.002 -9.85583,-0.26457 -0.069,-0.1837 -0.23366,-2.77478 -0.36605,-5.75796 -0.26101,-5.88223 -0.54338,-7.20916 -1.81989,-8.55268 -1.41359,-1.48777 -1.81943,-1.57421 -8.52254,-1.8152 -3.41974,-0.12295 -11.75412,-0.19196 -18.52084,-0.15335 l -12.30319,0.0702 -0.13229,8.20208 -0.1323,8.20208 -9.862808,0.0694 c -7.74864,0.0545 -9.89004,-0.002 -9.98995,-0.26457 z m 52.131998,-33.24708 c 6.10661,-0.20904 6.50293,-0.28804 7.87757,-1.57048 1.08522,-1.01241 1.51514,-2.82684 1.51514,-6.3945 0,-4.656946 -0.55684,-6.055791 -2.91042,-7.311231 -0.87905,-0.46891 -1.87928,-0.49397 -19.71145,-0.49397 H 102.838 l -0.0703,7.669691 c -0.0387,4.21833 -0.0127,7.81998 0.0578,8.00365 0.10092,0.26296 2.89903,0.32991 13.16728,0.31502 7.17145,-0.0104 15.65835,-0.10858 18.85987,-0.21818 z"
       id="path1423-3-4"
       inkscape:connector-curvature="0"
       sodipodi:nodetypes="ccccccccccccccscssccsccccccccsccccccsccccccssccscccsccsccccccscsscccccccccccccccccccccccccccccccccccccccccccscsccccccccccccccsccccccccscscccsc" />
  </g>
</svg>
