<?xml version="1.0"?>
<svg xmlns="http://www.w3.org/2000/svg" height="512px" viewBox="0 0 480 480" width="512px"><path d="m472 200h-40v-32c0-4.417969-3.582031-8-8-8h-102.457031l-73.542969-29.414062v-50.585938h40c22.089844 0 40-17.910156 40-40s-17.910156-40-40-40h-96c-22.089844 0-40 17.910156-40 40s17.910156 40 40 40h40v50.585938l-73.542969 29.414062h-102.457031c-4.417969 0-8 3.582031-8 8v32h-40c-4.417969 0-8 3.582031-8 8v64c0 4.417969 3.582031 8 8 8h96c4.417969 0 8-3.582031 8-8v-64c0-4.417969-3.582031-8-8-8h-40v-24h94.457031l73.542969 29.414062v66.585938h-72c-4.417969 0-8 3.582031-8 8v64c0 4.417969 3.582031 8 8 8h72v48h-40c-22.089844 0-40 17.910156-40 40s17.910156 40 40 40h96c22.089844 0 40-17.910156 40-40s-17.910156-40-40-40h-40v-48h72c4.417969 0 8-3.582031 8-8v-64c0-4.417969-3.582031-8-8-8h-72v-66.585938l73.542969-29.414062h94.457031v24h-40c-4.417969 0-8 3.582031-8 8v64c0 4.417969 3.582031 8 8 8h96c4.417969 0 8-3.582031 8-8v-64c0-4.417969-3.582031-8-8-8zm-376 16v48h-80v-48zm96-152c-13.253906 0-24-10.746094-24-24s10.746094-24 24-24h96c13.253906 0 24 10.746094 24 24s-10.746094 24-24 24zm96 352c13.253906 0 24 10.746094 24 24s-10.746094 24-24 24h-96c-13.253906 0-24-10.746094-24-24s10.746094-24 24-24zm24-128v48h-144v-48zm-72-96.617188-58.464844-23.382812 58.464844-23.382812 58.464844 23.382812zm224 72.617188h-80v-48h80zm0 0" fill="#6b32c7"/><path d="m384 368h72v16h-72zm0 0" fill="#6b32c7"/><path d="m384 392h96v16h-96zm0 0" fill="#6b32c7"/><path d="m432 416h48v16h-48zm0 0" fill="#6b32c7"/><path d="m384 416h40v16h-40zm0 0" fill="#6b32c7"/><path d="m384 440h96v16h-96zm0 0" fill="#6b32c7"/><path d="m432 464h48v16h-48zm0 0" fill="#6b32c7"/><path d="m384 464h40v16h-40zm0 0" fill="#6b32c7"/><path d="m464 368h16v16h-16zm0 0" fill="#6b32c7"/></svg>
