<?xml version="1.0" encoding="UTF-8" standalone="no"?>
<!DOCTYPE svg PUBLIC "-//W3C//DTD SVG 1.1//EN" "http://www.w3.org/Graphics/SVG/1.1/DTD/svg11.dtd">
<!-- Created with Vectornator (http://vectornator.io/) -->
<svg height="100%" stroke-miterlimit="10" style="fill-rule:nonzero;clip-rule:evenodd;stroke-linecap:round;stroke-linejoin:round;" version="1.1" viewBox="0 0 29.325 30.7061" width="100%" xml:space="preserve" xmlns="http://www.w3.org/2000/svg" xmlns:vectornator="http://vectornator.io" xmlns:xlink="http://www.w3.org/1999/xlink">
<defs/>
<clipPath id="ArtboardFrame">
<rect height="30.7061" width="29.325" x="0" y="0"/>
</clipPath>
<g clip-path="url(#ArtboardFrame)" id="Untitled" vectornator:layerName="Untitled">
<g opacity="1" vectornator:layerName="g">
<path d="M14.447 0.928C6.552 0.928 0.115 7.294 0.002 15.162C-0.114 23.153 6.369 29.775 14.362 29.822C16.83 29.836 19.207 29.232 21.319 28.085C21.4157 28.0322 21.4807 27.9356 21.493 27.8261C21.5054 27.7166 21.4636 27.608 21.381 27.535L20.029 26.337C19.755 26.0918 19.3645 26.0256 19.025 26.167C17.5316 26.8012 15.9224 27.1173 14.3 27.095C7.842 27.015 2.624 21.642 2.727 15.185C2.829 8.809 8.047 3.653 14.447 3.653L26.167 3.653L26.167 24.487L19.517 18.578C19.4141 18.4872 19.2778 18.4438 19.1413 18.4582C19.0048 18.4727 18.8806 18.5437 18.799 18.654C17.6884 20.1307 15.9051 20.9439 14.062 20.814C11.382 20.628 9.212 18.471 9.011 15.794C8.89583 14.28 9.41655 12.7864 10.4481 11.6722C11.4796 10.5579 12.9286 9.92375 14.447 9.922C17.2695 9.92612 19.6237 12.0808 19.877 14.892C19.8973 15.1397 20.0118 15.3702 20.197 15.536L21.929 17.071C22.02 17.1515 22.1473 17.177 22.2623 17.1377C22.3772 17.0984 22.4623 17.0004 22.485 16.881C22.613 16.1962 22.6533 15.498 22.605 14.803C22.326 10.736 19.031 7.463 14.962 7.213C10.297 6.925 6.396 10.575 6.272 15.149C6.152 19.608 9.804 23.451 14.263 23.549C16.0498 23.5913 17.8007 23.0438 19.245 21.991L27.934 29.694C28.306 30.024 28.894 29.76 28.894 29.262L28.894 1.475C28.894 1.17235 28.6487 0.927 28.346 0.927L14.446 0.927L14.447 0.928ZM4.12 46.04L4.12 44.72L5.63 44.72C6.01 44.72 6.347 44.663 6.64 44.55C6.94 44.43 7.193 44.263 7.4 44.05C7.607 43.837 7.763 43.587 7.87 43.3C7.98632 42.99 8.04397 42.6611 8.04 42.33C8.0457 41.9955 7.98801 41.663 7.87 41.35C7.763 41.057 7.607 40.807 7.4 40.6C7.193 40.393 6.94 40.237 6.64 40.13C6.31524 40.0182 5.97342 39.964 5.63 39.97L4.12 39.97L4.12 38.65L5.54 38.65C6.2 38.65 6.777 38.747 7.27 38.94C7.763 39.133 8.173 39.4 8.5 39.74C8.827 40.073 9.07 40.457 9.23 40.89C9.397 41.317 9.48 41.76 9.48 42.22L9.48 42.44C9.48 42.88 9.397 43.313 9.23 43.74C9.07 44.167 8.827 44.553 8.5 44.9C8.173 45.247 7.763 45.523 7.27 45.73C6.777 45.937 6.2 46.04 5.54 46.04L4.12 46.04ZM2.9 46.04L2.9 38.65L4.32 38.65L4.32 46.04L2.9 46.04ZM16.682 46.19C16.022 46.19 15.448 46.073 14.962 45.84C14.5034 45.6229 14.0948 45.3131 13.762 44.93C13.4581 44.5663 13.2181 44.1538 13.052 43.71C12.9045 43.3026 12.8267 42.8733 12.822 42.44L12.822 42.22C12.822 41.773 12.902 41.33 13.062 40.89C13.222 40.443 13.462 40.04 13.782 39.68C14.108 39.32 14.512 39.033 14.992 38.82C15.472 38.6 16.035 38.49 16.682 38.49C17.322 38.49 17.882 38.6 18.362 38.82C18.842 39.033 19.242 39.32 19.562 39.68C19.888 40.04 20.132 40.443 20.292 40.89C20.452 41.33 20.532 41.773 20.532 42.22L20.532 42.44C20.532 42.847 20.452 43.27 20.292 43.71C20.138 44.143 19.902 44.55 19.582 44.93C19.252 45.316 18.8427 45.6264 18.382 45.84C17.902 46.073 17.335 46.19 16.682 46.19ZM16.682 44.87C17.055 44.87 17.388 44.803 17.682 44.67C17.982 44.537 18.235 44.353 18.442 44.12C18.655 43.88 18.815 43.61 18.922 43.31C19.035 43.003 19.092 42.68 19.092 42.34C19.092 41.973 19.035 41.637 18.922 41.33C18.8207 41.0323 18.657 40.7595 18.442 40.53C18.235 40.303 17.982 40.127 17.682 40C17.382 39.873 17.048 39.81 16.682 39.81C16.308 39.81 15.972 39.873 15.672 40C15.372 40.127 15.115 40.303 14.902 40.53C14.6915 40.7629 14.5285 41.0347 14.422 41.33C14.315 41.637 14.262 41.973 14.262 42.34C14.262 42.68 14.315 43.003 14.422 43.31C14.535 43.61 14.695 43.88 14.902 44.12C15.115 44.353 15.372 44.537 15.672 44.67C15.972 44.803 16.308 44.87 16.682 44.87ZM27.694 46.19C27.034 46.19 26.467 46.073 25.994 45.84C25.521 45.607 25.134 45.303 24.834 44.93C24.541 44.557 24.324 44.15 24.184 43.71C24.044 43.27 23.974 42.847 23.974 42.44L23.974 42.22C23.974 41.767 24.044 41.32 24.184 40.88C24.331 40.44 24.554 40.04 24.854 39.68C25.154 39.32 25.534 39.033 25.994 38.82C26.461 38.6 27.011 38.49 27.644 38.49C28.304 38.49 28.877 38.61 29.364 38.85C29.857 39.083 30.251 39.417 30.544 39.85C30.837 40.277 31.014 40.777 31.074 41.35L29.644 41.35C29.6019 41.0427 29.4776 40.7524 29.284 40.51C29.1052 40.2775 28.8667 40.0978 28.594 39.99C28.2929 39.8659 27.9696 39.8046 27.644 39.81C27.284 39.81 26.964 39.873 26.684 40C26.404 40.12 26.171 40.293 25.984 40.52C25.797 40.747 25.654 41.013 25.554 41.32C25.461 41.627 25.414 41.967 25.414 42.34C25.414 42.7 25.461 43.033 25.554 43.34C25.654 43.647 25.801 43.917 25.994 44.15C26.187 44.377 26.424 44.553 26.704 44.68C26.991 44.807 27.321 44.87 27.694 44.87C28.241 44.87 28.701 44.737 29.074 44.47C29.454 44.197 29.684 43.817 29.764 43.33L31.194 43.33C31.127 43.85 30.951 44.327 30.664 44.76C30.377 45.193 29.984 45.54 29.484 45.8C28.984 46.06 28.387 46.19 27.694 46.19ZM37.902 46.19C37.222 46.19 36.649 46.06 36.182 45.8C35.715 45.54 35.359 45.177 35.112 44.71C34.872 44.237 34.752 43.683 34.752 43.05L34.752 38.7L36.172 38.7L36.172 43.13C36.172 43.477 36.239 43.783 36.372 44.05C36.506 44.31 36.699 44.513 36.952 44.66C37.212 44.8 37.529 44.87 37.902 44.87C38.269 44.87 38.579 44.8 38.832 44.66C39.092 44.513 39.286 44.31 39.412 44.05C39.546 43.79 39.612 43.483 39.612 43.13L39.612 38.7L41.032 38.7L41.032 43.05C41.032 43.683 40.912 44.237 40.672 44.71C40.439 45.177 40.089 45.54 39.622 45.8C39.155 46.06 38.582 46.19 37.902 46.19ZM45.195 46L45.195 38.7L47.135 38.7L48.965 43.06L49.145 43.06L50.965 38.7L52.935 38.7L52.935 46L51.525 46L51.525 39.77L51.705 39.79L49.735 44.51L48.285 44.51L46.305 39.79L46.495 39.77L46.495 46L45.195 46ZM57.235 46L57.235 38.7L58.625 38.7L58.625 46L57.235 46ZM58.425 46L58.425 44.8L61.735 44.8L61.735 46L58.425 46ZM58.425 42.89L58.425 41.69L61.475 41.69L61.475 42.89L58.425 42.89ZM58.425 39.9L58.425 38.7L61.655 38.7L61.655 39.9L58.425 39.9ZM65.693 46L65.693 38.7L68.023 38.7L71.093 44.82L71.423 44.82L71.223 45L71.223 38.7L72.563 38.7L72.563 46L70.223 46L67.153 39.88L66.813 39.88L67.013 39.7L67.013 46L65.693 46ZM78.305 46L78.305 39.75L79.725 39.75L79.725 46L78.305 46ZM76.195 39.95L76.195 38.7L81.835 38.7L81.835 39.95L76.195 39.95ZM84.133 46L86.623 38.7L88.943 38.7L91.503 46L90.043 46L87.873 39.67L88.383 39.89L87.133 39.89L87.653 39.67L85.553 46L84.133 46ZM85.873 44.06L86.323 42.86L89.283 42.86L89.723 44.06L85.873 44.06ZM95.913 46L95.913 39.75L97.333 39.75L97.333 46L95.913 46ZM93.803 39.95L93.803 38.7L99.443 38.7L99.443 39.95L93.803 39.95ZM103.096 46L103.096 38.7L104.516 38.7L104.516 46L103.096 46ZM112.268 46.19C111.608 46.19 111.034 46.073 110.548 45.84C110.089 45.6229 109.681 45.3131 109.348 44.93C109.044 44.5665 108.804 44.154 108.638 43.71C108.49 43.3027 108.412 42.8733 108.408 42.44L108.408 42.22C108.408 41.773 108.488 41.33 108.648 40.89C108.808 40.443 109.048 40.04 109.368 39.68C109.694 39.32 110.098 39.033 110.577 38.82C111.058 38.6 111.621 38.49 112.268 38.49C112.908 38.49 113.468 38.6 113.948 38.82C114.428 39.033 114.828 39.32 115.148 39.68C115.474 40.04 115.718 40.443 115.878 40.89C116.038 41.33 116.118 41.773 116.118 42.22L116.118 42.44C116.118 42.847 116.038 43.27 115.878 43.71C115.717 44.1562 115.476 44.5695 115.168 44.93C114.838 45.3157 114.429 45.6261 113.968 45.84C113.488 46.073 112.921 46.19 112.268 46.19ZM112.268 44.87C112.641 44.87 112.974 44.803 113.268 44.67C113.568 44.537 113.821 44.353 114.028 44.12C114.241 43.88 114.401 43.61 114.508 43.31C114.621 43.003 114.678 42.68 114.678 42.34C114.682 41.9959 114.624 41.6539 114.508 41.33C114.303 40.7301 113.852 40.2462 113.268 40C112.968 39.873 112.634 39.81 112.268 39.81C111.894 39.81 111.558 39.873 111.258 40C110.958 40.127 110.701 40.303 110.488 40.53C110.277 40.7628 110.114 41.0346 110.008 41.33C109.901 41.637 109.848 41.973 109.848 42.34C109.848 42.68 109.901 43.003 110.008 43.31C110.121 43.61 110.281 43.88 110.488 44.12C110.701 44.353 110.958 44.537 111.258 44.67C111.558 44.803 111.894 44.87 112.268 44.87ZM119.99 46L119.99 38.7L122.32 38.7L125.39 44.82L125.72 44.82L125.52 45L125.52 38.7L126.86 38.7L126.86 46L124.52 46L121.45 39.88L121.11 39.88L121.31 39.7L121.31 46L119.99 46Z" fill="#000000" fill-rule="nonzero" opacity="1" stroke="none" vectornator:layerName="path"/>
</g>
</g>
</svg>
