<?xml version="1.0" encoding="UTF-8" standalone="no"?>
<!DOCTYPE svg PUBLIC "-//W3C//DTD SVG 1.1//EN" "http://www.w3.org/Graphics/SVG/1.1/DTD/svg11.dtd">
<!-- Created with Vectornator (http://vectornator.io/) -->
<svg height="256.0pt" stroke-miterlimit="10" style="fill-rule:nonzero;clip-rule:evenodd;stroke-linecap:round;stroke-linejoin:round;" version="1.1" viewBox="0 0 256 256" width="256.0pt" xml:space="preserve" xmlns="http://www.w3.org/2000/svg" xmlns:xlink="http://www.w3.org/1999/xlink">
<defs/>
<g id="Untitled">
<path d="M0 0L256 0L256 256L0 256L0 0Z" fill="#000000" fill-rule="nonzero" opacity="1" stroke="none"/>
<path d="M110.4 44.777C143.402 44.777 166.4 54.859 166.4 63.908C166.4 72.958 143.402 83.039 110.4 83.039C77.398 83.039 54.4 72.957 54.4 63.909C54.4 54.859 77.398 44.777 110.4 44.777M109.744 214.423C77.13 214.423 54.4 204.121 54.4 194.877L54.4 167.08C64.387 175.44 84.71 180.924 109.315 180.924C114.986 180.924 120.652 180.612 126.288 179.99L125.581 173.651C120.224 174.244 114.749 174.547 109.315 174.547C78.867 174.547 57.056 165.517 54.4 156.777L54.4 122.417C64.387 130.778 84.71 136.259 109.315 136.259C115.107 136.259 120.822 135.94 126.301 135.309L125.568 128.977C120.33 129.579 114.864 129.882 109.315 129.882C78.867 129.882 57.056 120.855 54.4 112.116L54.4 75.374C63.613 83.24 82.618 89.417 110.4 89.417C138.182 89.417 157.187 83.24 166.4 75.374L166.4 86.228L172.8 86.228L172.8 63.908C172.8 51.543 150.931 38.4 110.4 38.4C69.869 38.4 48 51.543 48 63.908L48 194.878C48 209.653 74.544 220.8 109.744 220.8C138.016 220.8 161.894 213.342 169.162 202.246L163.798 198.761C158.704 206.544 138.499 214.423 109.744 214.423M186.262 134.936C188.064 134.936 189.654 135.653 190.739 136.961C192.736 139.352 192.413 142.974 192.218 144.256C192.31 150.996 196.032 152.314 196.464 152.444C197.84 152.859 198.81 154.15 198.774 155.584C198.739 157.02 197.789 158.264 196.39 158.611C196.029 158.722 192.214 160.071 192.214 167.029C192.288 170.781 190.486 174.943 186.358 175.067L183.901 175.067L183.901 168.69L185.591 168.69C185.718 168.266 185.818 167.6 185.814 167.073C185.814 161.254 187.766 157.68 189.853 155.521C187.766 153.366 185.814 149.801 185.814 144.004C185.814 143.81 185.834 143.612 185.869 143.421C185.99 142.735 185.99 141.836 185.888 141.313L183.901 141.313L183.901 134.936L186.262 134.936ZM171.286 134.936L173.747 134.936L173.747 141.313L172.061 141.313C171.913 141.839 171.836 142.383 171.834 142.93C171.834 148.749 169.884 152.323 167.798 154.482C169.885 156.637 171.834 160.202 171.834 165.999C171.834 166.196 171.814 166.391 171.782 166.582C171.661 167.268 171.661 168.167 171.763 168.69L173.747 168.69L173.747 175.067L171.386 175.067C169.584 175.067 167.994 174.349 166.906 173.045C164.912 170.654 165.238 167.032 165.43 165.747C165.34 159.009 161.616 157.689 161.184 157.562C159.804 157.144 158.838 155.852 158.87 154.418C158.906 152.986 159.86 151.74 161.258 151.392C161.622 151.28 165.434 149.932 165.434 142.974C165.36 139.224 167.158 135.06 171.286 134.936M204.8 188.261L150.4 188.261L150.4 111.736L185.6 111.736L185.6 124.49C185.6 126.25 187.03 127.679 188.8 127.679L204.8 127.679L204.8 188.261ZM192 111.736L192.784 111.736L202.458 121.302L192 121.302L192 111.736ZM210.253 120.026L196.355 106.284C195.756 105.69 194.946 105.358 194.102 105.359L190.832 105.359L180.954 93.734C180.344 93.0175 179.45 92.6047 178.509 92.605L134.4 92.605C132.63 92.605 131.2 94.034 131.2 95.794L131.2 178.695C131.2 180.455 132.63 181.884 134.4 181.884L140.8 181.884L140.8 175.507L137.6 175.507L137.6 98.982L177.024 98.982L182.444 105.359L147.2 105.359C145.43 105.359 144 106.788 144 108.548L144 191.45C144 193.21 145.43 194.638 147.2 194.638L208 194.638C209.77 194.638 211.2 193.21 211.2 191.45L211.2 122.29C211.2 121.439 210.859 120.624 210.253 120.026" fill="#ffffff" fill-rule="nonzero" opacity="1" stroke="none"/>
</g>
</svg>
