<?xml version="1.0" encoding="UTF-8" standalone="no"?>
<!DOCTYPE svg PUBLIC "-//W3C//DTD SVG 1.1//EN" "http://www.w3.org/Graphics/SVG/1.1/DTD/svg11.dtd">
<!-- Created with Vectornator (http://vectornator.io/) -->
<svg height="100%" stroke-miterlimit="10" style="fill-rule:nonzero;clip-rule:evenodd;stroke-linecap:round;stroke-linejoin:round;" version="1.1" viewBox="1 1 400 400" width="100%" xml:space="preserve" xmlns="http://www.w3.org/2000/svg" xmlns:vectornator="http://vectornator.io" xmlns:xlink="http://www.w3.org/1999/xlink">
<defs/>
<g id="Layer">
<path d="M1 201C1 267.667 1 334.333 1 401C67.6667 401 134.333 401 201 401C267.667 401 334.333 401 401 401C401 334.333 401 267.667 401 201C401 134.333 401 67.6667 401 1C334.333 1 267.667 1 201 1C134.333 1 67.6667 1 1 1C1 67.6667 1 134.333 1 201ZM132 105C143 105 154 105 165 105C176 105 187 105 198 105C198 116 198 127 198 138C198 149 198 160 198 171C187 171 176 171 165 171C154 171 143 171 132 171C132 160 132 149 132 138C132 127 132 116 132 105ZM237.5 105C242.5 105 246.833 105.833 250.5 107.5C254.167 109.167 257.5 111.5 260.5 114.5C263.5 117.5 265.833 121 267.5 125C269.167 129 270 133.5 270 138.5C270 143.5 269.167 147.833 267.5 151.5C265.833 155.167 263.5 158.5 260.5 161.5C257.5 164.5 254 166.833 250 168.5C246 170.167 241.5 171 236.5 171C231.5 171 227.167 170.167 223.5 168.5C219.833 166.833 216.5 164.5 213.5 161.5C210.5 158.5 208.167 155 206.5 151C204.833 147 204 142.5 204 137.5C204 132.5 204.833 128.167 206.5 124.5C208.167 120.833 210.5 117.5 213.5 114.5C216.5 111.5 220 109.167 224 107.5C228 105.833 232.5 105 237.5 105ZM192.5 177C194.333 177 196.167 177 198 177C198 197 198 217 198 237C198 257 198 277 198 297C196.167 297 194.333 297 192.5 297C188.833 297 184.5 296.333 179.5 295C174.5 293.667 168.833 291.167 162.5 287.5C156.167 283.833 150.5 279 145.5 273C140.5 267 137 261.167 135 255.5C133 249.833 132.167 243 132.5 235C132.833 227 134.833 219.333 138.5 212C142.167 204.667 147.167 198.333 153.5 193C159.833 187.667 167 183.667 175 181C183 178.333 188.833 177 192.5 177Z" fill="#000000" fill-rule="nonzero" opacity="1" stroke="none"/>
</g>
</svg>
