<svg xmlns="http://www.w3.org/2000/svg" viewBox="0 0 364 364"><g fill="none" stroke-width="2"><path stroke="#ff8080" d="M163.96 133.62a1 .99 45.3 0 1 1.69.01l10 16.13q1.03 1.67-.93 1.52-4.86-.36-9.71-.4-.49-.01-4.86.37-2.12.18-4.26-.13-2.18-.32-.98 1.53l3.82 5.89a1 .98-15.9 0 0 .84.46h21.73a1.01.99-15.3 0 1 .86.48l4.14 6.87a1.02 1.01 73.8 0 0 .86.48l7.88-.02q1.83 0 .84-1.54-12.28-19.13-24.51-38.3c-4.44-6.95-9.34-6.03-13.57.6q-12.06 18.88-24.15 37.76-1 1.55.85 1.54l7.97-.07a1.01 1-74.3 0 0 .83-.47l20.66-32.71m197.26-6.17a5.13 5.13 0 0 0-5.13-5.13 5.13 5.13 0 0 0-5.13 5.13 5.13 5.13 0 0 0 5.13 5.13 5.13 5.13 0 0 0 5.13-5.13M62.36 165.31c22.76-8.53 15.81-43.04-9.11-42.71q-11.36.15-22.71.19-6.32.03-9.76 1.34c-18.61 7.08-18.99 34.63.08 41.31q3.74 1.32 12.95 1.32c8.53 0 21.29 1.27 28.55-1.45" vector-effect="non-scaling-stroke"/><path stroke="#ff8080" d="M116.51 152.66q11.53.33 15.52-10.69c.85-2.34.73-6.89-.15-9.15q-4.07-10.4-16.13-10.38-17.04.04-34.07.27a1 .99 89.7 0 0-.98 1l-.02 42.15a1 1 0 0 0 1.02 1l6.66-.15a1 1 0 0 0 .98-.99l.22-34.02a1.01 1-89.7 0 1 1-1q12.95.06 25.87.07c10.7.01 9.51 13.98.52 13.97q-10.79-.03-21.48-.27-2.77-.06-.68 1.76l23.52 20.46a1.01.99-26.6 0 0 .75.24q4.68-.45 9.38-.01 3.19.3.74-1.76l-13.2-11.09q-1.76-1.48.53-1.41m99.21 6.12c-15.49-.48-20.84-19.83-7.04-26.61q2.87-1.41 8.89-1.41 10.81-.01 21.66-.01a.99.99 0 0 0 .84-.47l3.8-5.94q.96-1.5-.81-1.54-13.06-.3-26.13-.12-6.87.09-10.65 1.56c-22.58 8.77-16.33 42.48 8.22 42.46q12.76-.02 25.56.11a1 .99 15.6 0 0 .85-.47l3.78-6q1-1.59-.87-1.53-14.09.41-28.1-.03m42.03-.88-.18-34.41a1 .99 0 0 0-1-.99h-6.31a1 1 0 0 0-1 1q-.03 19.87 0 39.75c0 2.35 2.6 3.53 4.84 3.52q18.77-.01 37.56.13a.98.96 16.4 0 0 .84-.45l3.99-6.13q1.01-1.55-.84-1.54l-36.89.11a1 1 0 0 1-1.01-.99m47.28-18.52q1.95-4.86 6.42-7.16 2.67-1.37 7.79-1.42 11.44-.11 22.92-.04a1 .98 15.9 0 0 .84-.46l4-6.22q.97-1.51-.83-1.54-13.26-.19-26.5.08-6.87.15-10.59 1.65c-18.58 7.5-18.26 34.5.53 41.18q3.57 1.27 10.58 1.27 11.24-.01 22.54.31a1 .98-71.9 0 0 .86-.45l4.1-6.19q1.07-1.61-.86-1.56-13.61.39-27.23-.03-5.72-.18-8.53-1.74-4.11-2.28-6.08-6.89a1.01 1.01 0 0 1 .92-1.4l33.98-.15a1.01.99-72.8 0 0 .83-.45l3.88-5.87q1.03-1.55-.83-1.55h-37.81a1 1 0 0 1-.93-1.37" vector-effect="non-scaling-stroke"/><path stroke="gray" d="M349.43 189.5a.5.5 0 0 0-.5-.5H6.47a.5.5 0 0 0-.5.5v1.5a.5.5 0 0 0 .5.5h342.46a.5.5 0 0 0 .5-.5v-1.5m-224.519 36.529a12.47 12.47 0 0 0-12.25-12.686l-2.36-.041a12.47 12.47 0 0 0-12.686 12.25l-.086 4.94a12.47 12.47 0 0 0 12.25 12.685l2.36.041a12.47 12.47 0 0 0 12.686-12.25l.086-4.94m89.399 12.412q-2.94-.83-3.16-4.13a.99.99 0 0 0-1.03-.93l-4.4.16a1 .99 88.8 0 0-.96 1.01q.08 6.15 5.9 8.01c5.96 1.9 15.33.65 17.26-6.47 2.5-9.2-8.54-9.81-14.36-11.95a.99.98 86 0 1-.55-.48c-3.17-6.18 6.78-8.44 8.27-2.18a1 1 0 0 0 .97.77h4.19a1 .99 87.4 0 0 .99-1.09q-.49-5.54-6.07-7.12c-5.76-1.62-13.57-.62-15.43 5.89-3.72 13.04 19.94 9.15 15.01 16.64-1.35 2.05-4.55 2.45-6.63 1.87m46.182-12.124a12.53 12.53 0 0 0-12.108-12.938l-2.378-.08a12.53 12.53 0 0 0-12.939 12.108l-.159 4.798a12.53 12.53 0 0 0 12.108 12.938l2.378.08a12.53 12.53 0 0 0 12.939-12.108l.159-4.798M54.71 231.55q2.73-.07 5.49-.25c4.84-.33 7.59-3.48 7.69-8.3q.18-8.96-10.47-9.18-5.88-.11-9.2.07a1.01 1.01 0 0 0-.95 1.01l.21 26.86a1 .99 89.4 0 0 1 .99l4.31-.01a1.01 1.01 0 0 0 1-1.01l-.05-9.18a.99.99 0 0 1 .97-1m25.1 6.2a.31.31 0 0 1-.31-.31v-6.88a.31.31 0 0 1 .31-.31h11.55a.31.31 0 0 0 .31-.29l.3-4.38a.31.31 0 0 0-.31-.33H79.81a.31.31 0 0 1-.31-.31V219a.31.31 0 0 1 .31-.31l12.63.09a.31.31 0 0 0 .31-.31v-4.41a.31.31 0 0 0-.31-.31H73.56a.31.31 0 0 0-.31.31v28.13a.31.31 0 0 0 .31.31H92.7a.31.31 0 0 0 .31-.3l.07-4.13a.31.31 0 0 0-.31-.32H79.81m58.66-6.18q5.28.02 6.77-.35c8.61-2.15 8.67-14.48.01-16.98q-3.42-.98-13.29-.46a1 1 0 0 0-.95.99l-.04 26.98a1 1 0 0 0 1 1h4.55a1.01 1 90 0 0 1-1.01l-.06-9.16a1.01 1.01 0 0 1 1.01-1.01m25.17 5.93a.39.39 0 0 1-.39-.39v-22.97a.39.39 0 0 0-.39-.39h-5.72a.39.39 0 0 0-.39.39v27.97a.39.39 0 0 0 .39.39l17.97.02a.39.39 0 0 0 .39-.39v-4.24a.39.39 0 0 0-.39-.39h-11.47m23.43.25a.32.32 0 0 1-.32-.32v-6.86a.32.32 0 0 1 .32-.32h11.61a.32.32 0 0 0 .32-.32v-4.36a.32.32 0 0 0-.32-.32h-11.61a.32.32 0 0 1-.32-.32v-5.86a.32.32 0 0 1 .32-.32h12.36a.32.32 0 0 0 .32-.32v-4.36a.32.32 0 0 0-.32-.32h-18.61a.32.32 0 0 0-.32.32v28.12a.32.32 0 0 0 .32.32l19.14.08a.32.32 0 0 0 .32-.32l.07-4.2a.32.32 0 0 0-.32-.32h-12.96m86-12.25a.32.32 0 0 1-.32-.32v-6.11a.32.32 0 0 1 .32-.32h11.86a.32.32 0 0 0 .32-.32v-4.36a.32.32 0 0 0-.32-.32h-18.16a.32.32 0 0 0-.32.32l.23 28.35a.32.32 0 0 0 .34.32l5.5-.32a.32.32 0 0 0 .3-.32l-.1-11.28a.32.32 0 0 1 .32-.32h11.14a.32.32 0 0 0 .32-.32v-4.36a.32.32 0 0 0-.32-.32h-11.11m24.29-6.75a.44.44 0 0 1 .44.44l-.17 23.12a.44.44 0 0 0 .44.44h5.28a.44.44 0 0 0 .44-.44l-.06-23.3a.44.44 0 0 1 .46-.44l7.84.26a.44.44 0 0 0 .46-.44l.04-4.19a.44.44 0 0 0-.44-.45h-22.65a.44.44 0 0 0-.44.44v4.12a.44.44 0 0 0 .44.44h7.92" vector-effect="non-scaling-stroke"/><path stroke="#ff8080" d="M357.87 127.34q-.32.93.22 1.74.96 1.44 1.43-.23 1.12-3.97-3.18-5.33a.8.8 0 0 0-.92.33q-.54.86 1.29.69a1 .97 61.8 0 1 .73.23c1 .83.85 1.34.43 2.57m-3.78 1.93.08-3.5q.04-1.63-1.09-.46-.66.66-.62 1.69.15 3.79 3.54 4.03 2.33.16.84-1.64l-.45-.54q-.76-.92-.9.27-.04.37-.32.63-1.11 1.05-1.08-.48" vector-effect="non-scaling-stroke"/><path stroke="#ff8080" d="M356.77 126.37a.64.64 0 0 0-.64-.64.64.64 0 0 0-.64.64.64.64 0 0 0 .64.64.64.64 0 0 0 .64-.64m-289.2 17.67a13.2 13.2 0 0 0-13.2-13.2H28.55a13.2 13.2 0 0 0-13.2 13.2v1.42a13.2 13.2 0 0 0 13.2 13.2h25.82a13.2 13.2 0 0 0 13.2-13.2v-1.42" vector-effect="non-scaling-stroke"/><path stroke="gray" d="M111.164 238.84a10.62 7.35 90.3 0 0 7.406-10.582 10.62 7.35 90.3 0 0-7.294-10.658 10.62 7.35 90.3 0 0-7.406 10.582 10.62 7.35 90.3 0 0 7.294 10.658m135.568-.01a10.61 7.37 90.1 0 0 7.388-10.597 10.61 7.37 90.1 0 0-7.352-10.623 10.61 7.37 90.1 0 0-7.388 10.597 10.61 7.37 90.1 0 0 7.352 10.623M54.3 226.67c9.17 1.83 9.9-9.87.01-7.88a1 1 0 0 0-.81.98v5.92a1 1 0 0 0 .8.98m83.9.09c9.23.45 9.46-8.94-.04-8.06a1 .99-2.5 0 0-.91.99v6.07a1 1 0 0 0 .95 1" vector-effect="non-scaling-stroke"/></g><path fill="#fff" d="M0 0h364v364H0V0Zm163.96 133.62a1 .99 45.3 0 1 1.69.01l10 16.13q1.03 1.67-.93 1.52-4.86-.36-9.71-.4-.49-.01-4.86.37-2.12.18-4.26-.13-2.18-.32-.98 1.53l3.82 5.89a1 .98-15.9 0 0 .84.46h21.73a1.01.99-15.3 0 1 .86.48l4.14 6.87a1.02 1.01 73.8 0 0 .86.48l7.88-.02q1.83 0 .84-1.54-12.28-19.13-24.51-38.3c-4.44-6.95-9.34-6.03-13.57.6q-12.06 18.88-24.15 37.76-1 1.55.85 1.54l7.97-.07a1.01 1-74.3 0 0 .83-.47l20.66-32.71Zm197.26-6.17a5.13 5.13 0 0 0-5.13-5.13 5.13 5.13 0 0 0-5.13 5.13 5.13 5.13 0 0 0 5.13 5.13 5.13 5.13 0 0 0 5.13-5.13ZM62.36 165.31c22.76-8.53 15.81-43.04-9.11-42.71q-11.36.15-22.71.19-6.32.03-9.76 1.34c-18.61 7.08-18.99 34.63.08 41.31q3.74 1.32 12.95 1.32c8.53 0 21.29 1.27 28.55-1.45Zm54.15-12.65q11.53.33 15.52-10.69c.85-2.34.73-6.89-.15-9.15q-4.07-10.4-16.13-10.38-17.04.04-34.07.27a1 .99 89.7 0 0-.98 1l-.02 42.15a1 1 0 0 0 1.02 1l6.66-.15a1 1 0 0 0 .98-.99l.22-34.02a1.01 1-89.7 0 1 1-1q12.95.06 25.87.07c10.7.01 9.51 13.98.52 13.97q-10.79-.03-21.48-.27-2.77-.06-.68 1.76l23.52 20.46a1.01.99-26.6 0 0 .75.24q4.68-.45 9.38-.01 3.19.3.74-1.76l-13.2-11.09q-1.76-1.48.53-1.41Zm99.21 6.12c-15.49-.48-20.84-19.83-7.04-26.61q2.87-1.41 8.89-1.41 10.81-.01 21.66-.01a.99.99 0 0 0 .84-.47l3.8-5.94q.96-1.5-.81-1.54-13.06-.3-26.13-.12-6.87.09-10.65 1.56c-22.58 8.77-16.33 42.48 8.22 42.46q12.76-.02 25.56.11a1 .99 15.6 0 0 .85-.47l3.78-6q1-1.59-.87-1.53-14.09.41-28.1-.03Zm42.03-.88-.18-34.41a1 .99 0 0 0-1-.99h-6.31a1 1 0 0 0-1 1q-.03 19.87 0 39.75c0 2.35 2.6 3.53 4.84 3.52q18.77-.01 37.56.13a.98.96 16.4 0 0 .84-.45l3.99-6.13q1.01-1.55-.84-1.54l-36.89.11a1 1 0 0 1-1.01-.99Zm47.28-18.52q1.95-4.86 6.42-7.16 2.67-1.37 7.79-1.42 11.44-.11 22.92-.04a1 .98 15.9 0 0 .84-.46l4-6.22q.97-1.51-.83-1.54-13.26-.19-26.5.08-6.87.15-10.59 1.65c-18.58 7.5-18.26 34.5.53 41.18q3.57 1.27 10.58 1.27 11.24-.01 22.54.31a1 .98-71.9 0 0 .86-.45l4.1-6.19q1.07-1.61-.86-1.56-13.61.39-27.23-.03-5.72-.18-8.53-1.74-4.11-2.28-6.08-6.89a1.01 1.01 0 0 1 .92-1.4l33.98-.15a1.01.99-72.8 0 0 .83-.45l3.88-5.87q1.03-1.55-.83-1.55h-37.81a1 1 0 0 1-.93-1.37Zm44.4 50.12a.5.5 0 0 0-.5-.5H6.47a.5.5 0 0 0-.5.5v1.5a.5.5 0 0 0 .5.5h342.46a.5.5 0 0 0 .5-.5v-1.5Zm-224.519 36.529a12.47 12.47 0 0 0-12.25-12.686l-2.36-.041a12.47 12.47 0 0 0-12.686 12.25l-.086 4.94a12.47 12.47 0 0 0 12.25 12.685l2.36.041a12.47 12.47 0 0 0 12.686-12.25l.086-4.94Zm89.399 12.411q-2.94-.83-3.16-4.13a.99.99 0 0 0-1.03-.93l-4.4.16a1 .99 88.8 0 0-.96 1.01q.08 6.15 5.9 8.01c5.96 1.9 15.33.65 17.26-6.47 2.5-9.2-8.54-9.81-14.36-11.95a.99.98 86 0 1-.55-.48c-3.17-6.18 6.78-8.44 8.27-2.18a1 1 0 0 0 .97.77h4.19a1 .99 87.4 0 0 .99-1.09q-.49-5.54-6.07-7.12c-5.76-1.62-13.57-.62-15.43 5.89-3.72 13.04 19.94 9.15 15.01 16.64-1.35 2.05-4.55 2.45-6.63 1.87Zm46.182-12.124a12.53 12.53 0 0 0-12.108-12.938l-2.378-.08a12.53 12.53 0 0 0-12.939 12.108l-.159 4.798a12.53 12.53 0 0 0 12.108 12.938l2.378.08a12.53 12.53 0 0 0 12.939-12.108l.159-4.798ZM54.71 231.55q2.73-.07 5.49-.25c4.84-.33 7.59-3.48 7.69-8.3q.18-8.96-10.47-9.18-5.88-.11-9.2.07a1.01 1.01 0 0 0-.95 1.01l.21 26.86a1 .99 89.4 0 0 1 .99l4.31-.01a1.01 1.01 0 0 0 1-1.01l-.05-9.18a.99.99 0 0 1 .97-1Zm25.1 6.2a.31.31 0 0 1-.31-.31v-6.88a.31.31 0 0 1 .31-.31h11.55a.31.31 0 0 0 .31-.29l.3-4.38a.31.31 0 0 0-.31-.33H79.81a.31.31 0 0 1-.31-.31V219a.31.31 0 0 1 .31-.31l12.63.09a.31.31 0 0 0 .31-.31v-4.41a.31.31 0 0 0-.31-.31H73.56a.31.31 0 0 0-.31.31v28.13a.31.31 0 0 0 .31.31H92.7a.31.31 0 0 0 .31-.3l.07-4.13a.31.31 0 0 0-.31-.32H79.81Zm58.66-6.18q5.28.02 6.77-.35c8.61-2.15 8.67-14.48.01-16.98q-3.42-.98-13.29-.46a1 1 0 0 0-.95.99l-.04 26.98a1 1 0 0 0 1 1h4.55a1.01 1 90 0 0 1-1.01l-.06-9.16a1.01 1.01 0 0 1 1.01-1.01Zm25.17 5.93a.39.39 0 0 1-.39-.39v-22.97a.39.39 0 0 0-.39-.39h-5.72a.39.39 0 0 0-.39.39v27.97a.39.39 0 0 0 .39.39l17.97.02a.39.39 0 0 0 .39-.39v-4.24a.39.39 0 0 0-.39-.39h-11.47Zm23.43.25a.32.32 0 0 1-.32-.32v-6.86a.32.32 0 0 1 .32-.32h11.61a.32.32 0 0 0 .32-.32v-4.36a.32.32 0 0 0-.32-.32h-11.61a.32.32 0 0 1-.32-.32v-5.86a.32.32 0 0 1 .32-.32h12.36a.32.32 0 0 0 .32-.32v-4.36a.32.32 0 0 0-.32-.32h-18.61a.32.32 0 0 0-.32.32v28.12a.32.32 0 0 0 .32.32l19.14.08a.32.32 0 0 0 .32-.32l.07-4.2a.32.32 0 0 0-.32-.32h-12.96Zm86-12.25a.32.32 0 0 1-.32-.32v-6.11a.32.32 0 0 1 .32-.32h11.86a.32.32 0 0 0 .32-.32v-4.36a.32.32 0 0 0-.32-.32h-18.16a.32.32 0 0 0-.32.32l.23 28.35a.32.32 0 0 0 .34.32l5.5-.32a.32.32 0 0 0 .3-.32l-.1-11.28a.32.32 0 0 1 .32-.32h11.14a.32.32 0 0 0 .32-.32v-4.36a.32.32 0 0 0-.32-.32h-11.11Zm24.29-6.75a.44.44 0 0 1 .44.44l-.17 23.12a.44.44 0 0 0 .44.44h5.28a.44.44 0 0 0 .44-.44l-.06-23.3a.44.44 0 0 1 .46-.44l7.84.26a.44.44 0 0 0 .46-.44l.04-4.19a.44.44 0 0 0-.44-.45h-22.65a.44.44 0 0 0-.44.44v4.12a.44.44 0 0 0 .44.44h7.92Z"/><path fill="red" d="m163.96 133.62-20.66 32.71a1.01 1-74.3 0 1-.83.47l-7.97.07q-1.85.01-.85-1.54 12.09-18.88 24.15-37.76c4.23-6.63 9.13-7.55 13.57-.6q12.23 19.17 24.51 38.3.99 1.54-.84 1.54l-7.88.02a1.02 1.01 73.8 0 1-.86-.48l-4.14-6.87a1.01.99-15.3 0 0-.86-.48h-21.73a1 .98-15.9 0 1-.84-.46l-3.82-5.89q-1.2-1.85.98-1.53 2.14.31 4.26.13 4.37-.38 4.86-.37 4.85.04 9.71.4 1.96.15.93-1.52l-10-16.13a1 .99 45.3 0 0-1.69-.01Zm197.26-6.17a5.13 5.13 0 0 1-5.13 5.13 5.13 5.13 0 0 1-5.13-5.13 5.13 5.13 0 0 1 5.13-5.13 5.13 5.13 0 0 1 5.13 5.13Zm-3.35-.11q-.32.93.22 1.74.96 1.44 1.43-.23 1.12-3.97-3.18-5.33a.8.8 0 0 0-.92.33q-.54.86 1.29.69a1 .97 61.8 0 1 .73.23c1 .83.85 1.34.43 2.57Zm-3.78 1.93.08-3.5q.04-1.63-1.09-.46-.66.66-.62 1.69.15 3.79 3.54 4.03 2.33.16.84-1.64l-.45-.54q-.76-.92-.9.27-.04.37-.32.63-1.11 1.05-1.08-.48Zm2.68-2.9a.64.64 0 0 0-.64-.64.64.64 0 0 0-.64.64.64.64 0 0 0 .64.64.64.64 0 0 0 .64-.64ZM53.25 122.6c24.92-.33 31.87 34.18 9.11 42.71-7.26 2.72-20.02 1.45-28.55 1.45q-9.21 0-12.95-1.32c-19.07-6.68-18.69-34.23-.08-41.31q3.44-1.31 9.76-1.34 11.35-.04 22.71-.19Zm14.32 21.44a13.2 13.2 0 0 0-13.2-13.2H28.55a13.2 13.2 0 0 0-13.2 13.2v1.42a13.2 13.2 0 0 0 13.2 13.2h25.82a13.2 13.2 0 0 0 13.2-13.2v-1.42Z"/><path fill="red" d="M116.51 152.66q-2.29-.07-.53 1.41l13.2 11.09q2.45 2.06-.74 1.76-4.7-.44-9.38.01a1.01.99-26.6 0 1-.75-.24l-23.52-20.46q-2.09-1.82.68-1.76 10.69.24 21.48.27c8.99.01 10.18-13.96-.52-13.97q-12.92-.01-25.87-.07a1.01 1-89.7 0 0-1 1l-.22 34.02a1 1 0 0 1-.98.99l-6.66.15a1 1 0 0 1-1.02-1l.02-42.15a1 .99 89.7 0 1 .98-1q17.03-.23 34.07-.27 12.06-.02 16.13 10.38c.88 2.26 1 6.81.15 9.15q-3.99 11.02-15.52 10.69Zm92.17-20.49c-13.8 6.78-8.45 26.13 7.04 26.61q14.01.44 28.1.03 1.87-.06.87 1.53l-3.78 6a1 .99 15.6 0 1-.85.47q-12.8-.13-25.56-.11c-24.55.02-30.8-33.69-8.22-42.46q3.78-1.47 10.65-1.56 13.07-.18 26.13.12 1.77.04.81 1.54l-3.8 5.94a.99.99 0 0 1-.84.47q-10.85 0-21.66.01-6.02 0-8.89 1.41Zm50.08 26.72 36.89-.11q1.85-.01.84 1.54l-3.99 6.13a.98.96 16.4 0 1-.84.45q-18.79-.14-37.56-.13c-2.24.01-4.84-1.17-4.84-3.52q-.03-19.88 0-39.75a1 1 0 0 1 1-1h6.31a1 .99 0 0 1 1 .99l.18 34.41a1 1 0 0 0 1.01.99Zm47.2-18.14h37.81q1.86 0 .83 1.55l-3.88 5.87a1.01.99-72.8 0 1-.83.45l-33.98.15a1.01 1.01 0 0 0-.92 1.4q1.97 4.61 6.08 6.89 2.81 1.56 8.53 1.74 13.62.42 27.23.03 1.93-.05.86 1.56l-4.1 6.19a1 .98-71.9 0 1-.86.45q-11.3-.32-22.54-.31-7.01 0-10.58-1.27c-18.79-6.68-19.11-33.68-.53-41.18q3.72-1.5 10.59-1.65 13.24-.27 26.5-.08 1.8.03.83 1.54l-4 6.22a1 .98 15.9 0 1-.84.46q-11.48-.07-22.92.04-5.12.05-7.79 1.42-4.47 2.3-6.42 7.16a1 1 0 0 0 .93 1.37Z"/><path fill="#fff" d="M357.87 127.34c.42-1.23.57-1.74-.43-2.57a1 .97 61.8 0 0-.73-.23q-1.83.17-1.29-.69a.8.8 0 0 1 .92-.33q4.3 1.36 3.18 5.33-.47 1.67-1.43.23-.54-.81-.22-1.74Zm-2.7 2.41q.28-.26.32-.63.14-1.19.9-.27l.45.54q1.49 1.8-.84 1.64-3.39-.24-3.54-4.03-.04-1.03.62-1.69 1.13-1.17 1.09.46l-.08 3.5q-.03 1.53 1.08.48Z"/><circle cx="356.13" cy="126.37" r=".64" fill="#fff"/><rect width="52.22" height="27.82" x="15.35" y="130.84" fill="#fff" rx="13.2"/><rect width="343.46" height="2.5" x="5.97" y="189" rx=".5"/><path d="M124.825 230.968a12.47 12.47 0 0 1-12.686 12.25l-2.36-.04a12.47 12.47 0 0 1-12.25-12.687l.086-4.939a12.47 12.47 0 0 1 12.686-12.25l2.36.04a12.47 12.47 0 0 1 12.25 12.687l-.086 4.939Zm-13.66 7.872a10.62 7.35 90.3 0 0 7.405-10.582 10.62 7.35 90.3 0 0-7.294-10.658 10.62 7.35 90.3 0 0-7.406 10.582 10.62 7.35 90.3 0 0 7.294 10.658Zm103.145-.4c2.08.58 5.28.18 6.63-1.87 4.93-7.49-18.73-3.6-15.01-16.64 1.86-6.51 9.67-7.51 15.43-5.89q5.58 1.58 6.07 7.12a1 .99 87.4 0 1-.99 1.09h-4.19a1 1 0 0 1-.97-.77c-1.49-6.26-11.44-4-8.27 2.18a.99.98 86 0 0 .55.48c5.82 2.14 16.86 2.75 14.36 11.95-1.93 7.12-11.3 8.37-17.26 6.47q-5.82-1.86-5.9-8.01a1 .99 88.8 0 1 .96-1.01l4.4-.16a.99.99 0 0 1 1.03.93q.22 3.3 3.16 4.13Zm46.023-7.326a12.53 12.53 0 0 1-12.939 12.107l-2.378-.079a12.53 12.53 0 0 1-12.108-12.938l.16-4.798a12.53 12.53 0 0 1 12.938-12.107l2.378.079a12.53 12.53 0 0 1 12.108 12.938l-.16 4.798Zm-13.602 7.716a10.61 7.37 90.1 0 0 7.389-10.597 10.61 7.37 90.1 0 0-7.352-10.623 10.61 7.37 90.1 0 0-7.388 10.597 10.61 7.37 90.1 0 0 7.352 10.623ZM53.74 232.55l.05 9.18a1.01 1.01 0 0 1-1 1.01l-4.31.01a1 .99 89.4 0 1-1-.99l-.21-26.86a1.01 1.01 0 0 1 .95-1.01q3.32-.18 9.2-.07 10.65.22 10.47 9.18c-.1 4.82-2.85 7.97-7.69 8.3q-2.76.18-5.49.25a.99.99 0 0 0-.97 1Zm.56-5.88c9.17 1.83 9.9-9.87.01-7.88a1 1 0 0 0-.81.98v5.92a1 1 0 0 0 .8.98Zm25.51 11.08h12.96a.31.31 0 0 1 .31.32l-.07 4.13a.31.31 0 0 1-.31.3H73.56a.31.31 0 0 1-.31-.31v-28.13a.31.31 0 0 1 .31-.31h18.88a.31.31 0 0 1 .31.31v4.41a.31.31 0 0 1-.31.31l-12.63-.09a.31.31 0 0 0-.31.31v5.94a.31.31 0 0 0 .31.31h11.85a.31.31 0 0 1 .31.33l-.3 4.38a.31.31 0 0 1-.31.29H79.81a.31.31 0 0 0-.31.31v6.88a.31.31 0 0 0 .31.31Zm57.65-5.17.06 9.16a1.01 1-90 0 1-1 1.01h-4.55a1 1 0 0 1-1-1l.04-26.98a1 1 0 0 1 .95-.99q9.87-.52 13.29.46c8.66 2.5 8.6 14.83-.01 16.98q-1.49.37-6.77.35a1.01 1.01 0 0 0-1.01 1.01Zm.74-5.82c9.23.45 9.46-8.94-.04-8.06a1 .99-2.5 0 0-.91.99v6.07a1 1 0 0 0 .95 1Zm25.44 10.74h11.47a.39.39 0 0 1 .39.39v4.24a.39.39 0 0 1-.39.39l-17.97-.02a.39.39 0 0 1-.39-.39v-27.97a.39.39 0 0 1 .39-.39h5.72a.39.39 0 0 1 .39.39v22.97a.39.39 0 0 0 .39.39Zm23.43.25h12.96a.32.32 0 0 1 .32.32l-.07 4.2a.32.32 0 0 1-.32.32l-19.14-.08a.32.32 0 0 1-.32-.32v-28.12a.32.32 0 0 1 .32-.32h18.61a.32.32 0 0 1 .32.32v4.36a.32.32 0 0 1-.32.32h-12.36a.32.32 0 0 0-.32.32v5.86a.32.32 0 0 0 .32.32h11.61a.32.32 0 0 1 .32.32v4.36a.32.32 0 0 1-.32.32h-11.61a.32.32 0 0 0-.32.32v6.86a.32.32 0 0 0 .32.32Zm86-12.25h11.11a.32.32 0 0 1 .32.32v4.36a.32.32 0 0 1-.32.32h-11.14a.32.32 0 0 0-.32.32l.1 11.28a.32.32 0 0 1-.3.32l-5.5.32a.32.32 0 0 1-.34-.32l-.23-28.35a.32.32 0 0 1 .32-.32h18.16a.32.32 0 0 1 .32.32v4.36a.32.32 0 0 1-.32.32h-11.86a.32.32 0 0 0-.32.32v6.11a.32.32 0 0 0 .32.32Zm24.29-6.75h-7.92a.44.44 0 0 1-.44-.44v-4.12a.44.44 0 0 1 .44-.44h22.65a.44.44 0 0 1 .44.45l-.04 4.19a.44.44 0 0 1-.46.44l-7.84-.26a.44.44 0 0 0-.46.44l.06 23.3a.44.44 0 0 1-.44.44h-5.28a.44.44 0 0 1-.44-.44l.17-23.12a.44.44 0 0 0-.44-.44Z"/><ellipse fill="#fff" rx="10.62" ry="7.35" transform="rotate(90.3 -57.904 169.43)"/><ellipse fill="#fff" rx="10.61" ry="7.37" transform="rotate(90.1 9.464 237.27)"/><path fill="#fff" d="M54.31 218.79c9.89-1.99 9.16 9.71-.01 7.88a1 1 0 0 1-.8-.98v-5.92a1 1 0 0 1 .81-.98Zm83.85-.09c9.5-.88 9.27 8.51.04 8.06a1 1 0 0 1-.95-1v-6.07a1 .99-2.5 0 1 .91-.99Z"/></svg>