<svg id="svg" xmlns="http://www.w3.org/2000/svg" xmlns:xlink="http://www.w3.org/1999/xlink" width="400" height="400" viewBox="0, 0, 400,400"><g id="svgg"><path id="path0" d="M100.000 5.911 C 100.000 10.117,105.501 19.782,119.068 39.411 C 141.086 71.268,146.820 82.183,144.885 88.554 C 144.143 90.999,134.433 115.050,123.309 142.000 C 96.003 208.150,95.057 200.564,138.276 262.000 C 153.803 284.073,153.776 283.209,138.819 278.861 C 58.643 255.554,41.425 352.566,119.067 390.147 C 149.677 404.963,163.285 393.550,135.222 376.599 C 118.019 366.208,111.827 347.883,119.891 331.226 C 131.391 307.469,156.731 306.610,181.961 329.123 C 205.927 350.507,220.713 334.932,198.295 311.917 C 181.581 294.758,158.058 253.079,158.020 240.558 C 157.995 232.396,165.338 212.458,185.111 167.000 C 205.075 121.101,206.088 111.382,192.735 93.851 C 180.609 77.932,120.262 7.577,115.274 3.544 C 107.952 -2.375,100.000 -1.143,100.000 5.911 M289.562 148.428 L 289.000 172.856 273.500 174.994 L 258.000 177.132 258.000 153.566 L 258.000 130.000 252.000 130.000 L 246.000 130.000 246.000 154.063 C 246.000 181.028,247.084 179.277,229.000 181.518 L 217.000 183.005 216.408 197.742 C 215.825 212.229,215.893 212.461,220.408 211.352 C 222.933 210.731,229.725 209.607,235.500 208.854 L 246.000 207.485 246.000 228.512 L 246.000 249.539 234.500 250.888 C 215.283 253.143,216.000 252.466,216.000 268.357 L 216.000 282.445 222.500 281.355 C 226.075 280.755,232.797 279.680,237.437 278.967 L 245.874 277.670 246.437 302.335 L 247.000 327.000 252.000 327.000 L 257.000 327.000 257.558 301.695 L 258.117 276.390 270.722 274.195 C 291.616 270.557,290.000 268.728,290.000 296.000 L 290.000 320.000 296.000 320.000 L 302.000 320.000 302.000 294.235 L 302.000 268.470 317.000 267.064 L 332.000 265.659 332.000 250.695 C 332.000 237.389,331.612 235.843,328.500 236.746 C 326.575 237.305,319.825 238.370,313.500 239.112 L 302.000 240.461 302.000 219.489 L 302.000 198.517 314.135 197.144 C 332.389 195.079,332.000 195.460,332.000 179.627 L 332.000 165.682 326.500 166.765 C 323.475 167.361,316.725 168.435,311.500 169.151 L 302.000 170.454 302.000 147.227 L 302.000 124.000 296.062 124.000 L 290.123 124.000 289.562 148.428 M290.000 220.865 C 290.000 243.951,290.846 242.588,275.000 245.009 C 270.600 245.681,264.944 246.653,262.432 247.170 C 257.872 248.109,257.865 248.071,258.432 226.573 L 259.000 205.035 273.000 202.788 C 280.700 201.552,287.675 200.419,288.500 200.270 C 289.325 200.122,290.000 209.389,290.000 220.865 " stroke="none" fill="#000000" fill-rule="evenodd"></path></g></svg>