<svg xmlns="http://www.w3.org/2000/svg" xmlns:xlink="http://www.w3.org/1999/xlink" viewBox="0 0 65.519 32.519" fill="#fff" fill-rule="evenodd" stroke="#000" stroke-linecap="round" stroke-linejoin="round"><use xlink:href="#A" x=".76" y=".76"/><symbol id="A" overflow="visible"><g stroke="none" fill-rule="nonzero"><path d="M63.897 16.86l.076 6.085-23.224-3.126-13.856 1.492-13.427-1.543L.114 21.35.099 19.807l13.376-1.972v-6.733l13.519 3.296.026 5.293 13.622-1.803-.039-6.774z" fill="#3f9afb"/><path d="M40.648 22.091l23.3 2.415v5.969H.065L0 28.893h13.427v-6.785l13.467 1.322v5.306h13.752z" fill="#0b70e0"/><path d="M26.999 12.478l-.04-1.634 13.402-3.995V0l23.508 9.458v5.89L40.493 8.915 27 12.495z" fill="#9eccfd"/><path d="M13.496 19.919L.144 21.502.129 19.959l13.376-1.972v-6.732l13.519 3.296.026 5.293 13.622-1.803-.039-6.775 23.29 5.745.076 6.085-23.224-3.126-13.856 1.492z" fill="#3f9afb"/><path d="M40.675 22.23l23.3 2.415v5.969H.095L.03 29.032h13.427v-6.785l13.467 1.322v5.306h13.752z" fill="#0b70e0"/><path d="M27.027 12.615l-.04-1.634 13.402-3.995V.122L63.897 9.58v5.89L40.521 9.037l-13.493 3.58z" fill="#9eccfd"/></g></symbol></svg>