<?xml version="1.0" encoding="iso-8859-1"?>
<!-- Generator: Adobe Illustrator 16.0.0, SVG Export Plug-In . SVG Version: 6.00 Build 0)  -->
<!DOCTYPE svg PUBLIC "-//W3C//DTD SVG 1.1//EN" "http://www.w3.org/Graphics/SVG/1.1/DTD/svg11.dtd">
<svg xmlns="http://www.w3.org/2000/svg" xmlns:xlink="http://www.w3.org/1999/xlink" version="1.1" id="Capa_1" x="0px" y="0px" width="512px" height="512px" viewBox="0 0 174.594 174.594" style="enable-background:new 0 0 174.594 174.594;" xml:space="preserve">
<g>
	<g>
		<path d="M111.55,77.591V58.194c0,5.355-10.862,9.697-24.253,9.697c-13.393,0-24.25-4.341-24.25-9.697v19.397    c0,5.364,10.857,9.703,24.25,9.703C100.688,87.294,111.55,82.955,111.55,77.591z" fill="#6b32c7"/>
		<path d="M87.297,38.797c13.391,0,24.253-4.342,24.253-9.703V9.697C111.55,4.338,100.688,0,87.297,0    c-13.393,0-24.25,4.338-24.25,9.703V29.1C63.047,34.455,73.904,38.797,87.297,38.797z M87.297,2.426    c13.329,0,21.824,4.308,21.824,7.277c0,2.968-8.495,7.276-21.824,7.276c-13.326,0-21.823-4.308-21.823-7.276    C65.474,6.734,73.971,2.426,87.297,2.426z" fill="#6b32c7"/>
		<path d="M38.806,155.188c-13.393,0-24.25-4.335-24.25-9.693v19.4c0,5.357,10.857,9.699,24.25,9.699s24.247-4.342,24.247-9.699    v-19.4C63.047,150.853,52.199,155.188,38.806,155.188z" fill="#6b32c7"/>
		<path d="M135.785,130.941c-13.39,0-24.247-4.336-24.247-9.707v11.436H63.047v-11.436c0,5.359-10.854,9.707-24.247,9.707    c-13.393,0-24.25-4.336-24.25-9.707v19.4c0,5.358,10.857,9.706,24.25,9.706c13.394,0,24.247-4.341,24.247-9.706v-1.729h48.491    v1.729c0,5.358,10.857,9.706,24.247,9.706c13.396,0,24.253-4.341,24.253-9.706v-19.4    C160.038,126.605,149.182,130.941,135.785,130.941z" fill="#6b32c7"/>
		<path d="M135.785,155.188c-13.39,0-24.247-4.335-24.247-9.693v19.4c0,5.357,10.857,9.699,24.247,9.699    c13.396,0,24.253-4.342,24.253-9.699v-19.4C160.038,150.853,149.182,155.188,135.785,155.188z" fill="#6b32c7"/>
		<path d="M139.561,87.443l-28.022-44.826v-8.674c0.012,5.365-10.851,9.703-24.241,9.703c-13.393,0-24.25-4.338-24.25-9.703v8.674    L35.028,87.443C23.44,88.174,14.55,92.15,14.55,96.988v19.399c0,5.358,10.857,9.706,24.25,9.706    c13.394,0,24.247-4.348,24.247-9.706V96.988c0-4.869-8.979-8.854-20.657-9.551l20.846-33.359    c0.953,5.008,11.298,8.966,24.061,8.966s23.108-3.952,24.059-8.966l20.85,33.359c-11.68,0.697-20.655,4.683-20.655,9.551v19.399    c0,5.358,10.852,9.706,24.247,9.706c13.391,0,24.247-4.348,24.247-9.706V96.988C160.038,92.15,151.154,88.174,139.561,87.443z     M60.63,97c0,2.965-8.5,7.271-21.824,7.271c-13.326,0-21.824-4.306-21.824-7.271c0-2.972,8.498-7.279,21.824-7.279    C52.129,89.721,60.63,94.028,60.63,97z M135.785,104.271c-13.323,0-21.823-4.312-21.823-7.282c0-2.966,8.5-7.274,21.823-7.274    c13.329,0,21.823,4.308,21.823,7.274C157.608,99.959,149.114,104.271,135.785,104.271z" fill="#6b32c7"/>
	</g>
</g>
<g>
</g>
<g>
</g>
<g>
</g>
<g>
</g>
<g>
</g>
<g>
</g>
<g>
</g>
<g>
</g>
<g>
</g>
<g>
</g>
<g>
</g>
<g>
</g>
<g>
</g>
<g>
</g>
<g>
</g>
</svg>
