<?xml version="1.0" encoding="UTF-8" standalone="no"?>
<!DOCTYPE svg PUBLIC "-//W3C//DTD SVG 1.1//EN" "http://www.w3.org/Graphics/SVG/1.1/DTD/svg11.dtd">
<!-- Created with Vectornator (http://vectornator.io/) -->
<svg height="100%" stroke-miterlimit="10" style="fill-rule:nonzero;clip-rule:evenodd;stroke-linecap:round;stroke-linejoin:round;" version="1.1" viewBox="0 0 200 200" width="100%" xml:space="preserve" xmlns="http://www.w3.org/2000/svg" xmlns:vectornator="http://vectornator.io" xmlns:xlink="http://www.w3.org/1999/xlink">
<defs/>
<g id="Untitled" vectornator:layerName="Untitled">
<path d="M93.0078 0L106.141 0L107.785 0.214844C112.648 0.957031 117.66 1.70703 122.426 2.92578C140.273 7.31641 156.766 17.3008 169.168 30.8398C181.484 44.1328 189.84 61.125 192.852 78.9922C194.352 85.793 193.883 92.1914 193.949 99.168C194.082 106.449 192.773 113.809 190.773 120.793C186.801 135.074 179.434 148.465 169.375 159.375C168.676 160.293 167.602 161.125 167.707 162.383C168.918 164.043 170.383 165.523 171.707 167.102C167.59 164.309 164.609 160.773 160.984 157.352C157.008 153.602 153.398 149.41 149.199 145.91C145.816 148.641 142.715 151.648 139.109 154.09C135.324 156.676 131.391 159.043 127.535 161.5C124.441 162.551 121.457 163.816 118.426 165.008C103.023 170.324 86.207 171.332 70.3906 167.215C43.8516 160.832 21.3242 140.508 12.25 114.766C9.04297 106.465 7.82422 97.9922 7.13281 89.1758C6.79297 83.8008 7.72656 78.6992 8.21484 73.375C9.74219 64.0156 12.8086 54.832 17.3984 46.5234C21.793 38.6836 27.3164 30.8242 34.4766 25.2734C50.4258 10.3086 71.293 1.77344 93.0078 0Z" fill="#9cc5e5" fill-rule="nonzero" opacity="1" stroke="none" vectornator:layerName="path"/>
<path d="M144.215 39.9336C164.391 56.1016 174.508 83.9414 169 109.25C166.441 122.574 159.625 135.574 150.035 145.184C147.852 143.684 146 141.883 144.191 139.965C140.34 136.141 136.574 132.234 132.641 128.5C129.641 131.332 126.59 134.059 123.109 136.273C113.043 143.023 101.199 146.008 89.1602 146.074C78.4414 145.559 67.9844 142.535 58.8984 136.758C45.625 128.641 36.1172 115.066 32.625 99.9336C30.7148 93.2852 31.0742 86.8516 31.3164 79.9766C32.6016 69.4492 36.582 59.082 42.9922 50.6094C52.0664 39.6914 63.957 31.3164 77.6016 27.1836C99.9336 19.6758 126.16 24.875 144.215 39.9336Z" fill="#549ecf" fill-rule="nonzero" opacity="1" stroke="none" vectornator:layerName="path"/>
<path d="M140.332 68.8516C146.727 78.668 149.008 91.1328 146.918 102.617C145.25 112.059 140.617 120.574 134.133 127.574C132.082 126.234 130.383 124.727 128.734 122.934C124.918 118.867 120.742 115.184 117.102 110.977C120.699 105.965 123.141 100.449 122.875 94.1602C122.309 86.9414 118.758 79.7422 112.582 75.7266C107.742 72.2578 101.715 70.8594 95.8242 71.6484C91.1406 72.207 86.6406 74.4922 83 77.4258C82.3594 78.4766 83.6484 79.168 84.1836 79.9492C94.7422 90.543 105.418 101.023 115.859 111.727C109.199 118.258 100.141 121.965 90.832 122.148C77.5664 122.234 64.9844 114.516 58.8594 102.793C55.6406 96.1406 53.9336 88.168 55.3516 80.8398C56.3828 73.6602 59.8008 66.75 64.9766 61.668C67.543 59.1016 69.8984 56.5898 73.0352 54.707C78.2344 51.6914 83.5156 49.0742 89.4414 47.8164C108.426 43.0664 130.301 51.9844 140.332 68.8516Z" fill="#9cc5e5" fill-rule="nonzero" opacity="1" stroke="none" vectornator:layerName="path"/>
<path d="M149.199 145.91C153.398 149.41 157.008 153.602 160.984 157.352C164.609 160.773 167.59 164.309 171.707 167.102C175.5 171.676 180.977 175.184 184.102 180.207C177.59 186.309 171.543 192.883 165.043 198.992C152.566 186.465 140.043 173.992 127.535 161.5C131.391 159.043 135.324 156.676 139.109 154.09C142.715 151.648 145.816 148.641 149.199 145.91Z" fill="#549ecf" fill-rule="nonzero" opacity="1" stroke="none" vectornator:layerName="path"/>
</g>
</svg>
