<?xml version="1.0" encoding="UTF-8" standalone="no"?>
<!DOCTYPE svg PUBLIC "-//W3C//DTD SVG 1.1//EN" "http://www.w3.org/Graphics/SVG/1.1/DTD/svg11.dtd">
<!-- Created with Vectornator (http://vectornator.io/) -->
<svg height="18.0pt" stroke-miterlimit="10" style="fill-rule:nonzero;clip-rule:evenodd;stroke-linecap:round;stroke-linejoin:round;" version="1.1" viewBox="0 0 18 18" width="18.0pt" xml:space="preserve" xmlns="http://www.w3.org/2000/svg" xmlns:xlink="http://www.w3.org/1999/xlink">
<defs>
<path d="M18 10.075C17.9403 8.09438 16.4543 6.44875 14.49 6.188C14.3682 3.40046 12.0289 1.22828 9.24 1.313C7.01855 1.27137 5.01336 2.6381 4.24 4.721C1.87383 5.0089 0.0724604 6.98148 0 9.364C0.104652 12.061 2.37061 14.1656 5.068 14.071C5.219 14.071 5.368 14.064 5.515 14.052L13.722 14.052C13.7955 14.0508 13.8685 14.0397 13.939 14.019C16.1302 14.0033 17.9203 12.2648 18 10.075Z" id="Fill"/>
</defs>
<g id="b59a3860-e924-4d5f-b847-0f0976124add">
<g opacity="1">
<g opacity="1">
<mask height="12.7635" id="StrokeMask" maskUnits="userSpaceOnUse" width="18" x="0" y="1.3106">
<rect fill="#000000" height="12.7635" stroke="none" width="18" x="0" y="1.3106"/>
<use fill="#ffffff" fill-rule="evenodd" stroke="none" xlink:href="#Fill"/>
</mask>
<use fill="none" mask="url(#StrokeMask)" stroke="#000000" stroke-linecap="butt" stroke-linejoin="round" stroke-width="1" xlink:href="#Fill"/>
</g>
<path d="M5.71875 14.4062C5.56631 14.4029 5.44078 14.5351 5.4375 14.6875L5.4375 16.4062C5.44024 16.5587 5.56631 16.6903 5.71875 16.6875L12.0625 16.6875C12.2149 16.6903 12.341 16.5587 12.3438 16.4062L12.3438 14.6875C12.3399 14.5357 12.2143 14.404 12.0625 14.4062L5.71875 14.4062ZM11.2812 14.8125L11.6562 14.8125C11.696 14.8125 11.75 14.8665 11.75 14.9062L11.75 15.25C11.75 15.2881 11.6944 15.3125 11.6562 15.3125L11.2812 15.3125C11.2415 15.3125 11.2188 15.2898 11.2188 15.25L11.2188 14.9062C11.2176 14.8873 11.2369 14.8576 11.25 14.8438C11.2631 14.8299 11.2622 14.8125 11.2812 14.8125ZM11.2812 15.6875L11.6562 15.6875C11.696 15.6875 11.75 15.7102 11.75 15.75L11.75 16.125C11.75 16.1631 11.6944 16.1875 11.6562 16.1875L11.2812 16.1875C11.2431 16.1875 11.2188 16.1631 11.2188 16.125L11.2188 15.75C11.2188 15.7119 11.2431 15.6875 11.2812 15.6875Z" fill="#000000" fill-rule="nonzero" opacity="1" stroke="none"/>
<path d="M5.71875 11.8125C5.56631 11.8091 5.44078 11.9101 5.4375 12.0625L5.4375 13.8125C5.44078 13.9645 5.56669 14.0653 5.71875 14.0625L12.0625 14.0625C12.2146 14.0653 12.3405 13.9645 12.3438 13.8125L12.3438 12.0625C12.3399 11.9107 12.2143 11.8103 12.0625 11.8125L5.71875 11.8125ZM11.2812 12.2188L11.6562 12.2188C11.696 12.2188 11.7187 12.2727 11.7188 12.3125L11.7188 12.6562C11.7188 12.6944 11.6944 12.7188 11.6562 12.7188L11.2812 12.7188C11.2431 12.7188 11.1875 12.6944 11.1875 12.6562L11.1875 12.3125C11.1891 12.2739 11.2426 12.2187 11.2812 12.2188ZM11.2188 13.0938C11.2319 13.0808 11.2628 13.0935 11.2812 13.0938L11.6562 13.0938C11.696 13.0938 11.7187 13.1165 11.7188 13.1562L11.7188 13.5C11.7188 13.5398 11.696 13.5937 11.6562 13.5938L11.2812 13.5938C11.2415 13.5938 11.1875 13.5398 11.1875 13.5L11.1875 13.1562C11.1875 13.1378 11.2056 13.1067 11.2188 13.0938Z" fill="#000000" fill-rule="nonzero" opacity="1" stroke="none"/>
<path d="M5.65625 9C5.58288 8.99839 5.49042 9.01165 5.4375 9.0625C5.38458 9.11335 5.37631 9.17662 5.375 9.25L5.375 11C5.37828 11.1522 5.50403 11.2835 5.65625 11.2812L12 11.2812C12.1522 11.2835 12.278 11.1522 12.2812 11L12.2812 9.25C12.278 9.0978 12.1522 8.99777 12 9L10.5312 9L9.21875 10.3125C9.10551 10.4257 8.89449 10.4257 8.78125 10.3125L7.46875 9L5.65625 9ZM11.2188 9.40625L11.5938 9.40625C11.6335 9.40625 11.6562 9.46024 11.6562 9.5L11.6562 9.84375C11.6562 9.88186 11.6319 9.90625 11.5938 9.90625L11.2188 9.90625C11.179 9.90625 11.125 9.88351 11.125 9.84375L11.125 9.5C11.125 9.48153 11.1431 9.45047 11.1562 9.4375C11.1694 9.42453 11.2003 9.40598 11.2188 9.40625ZM11.2188 10.2812L11.5938 10.2812C11.6335 10.2813 11.6562 10.304 11.6562 10.3438L11.6562 10.6875C11.6563 10.7256 11.6319 10.7812 11.5938 10.7812L11.2188 10.7812C11.1806 10.7812 11.125 10.7256 11.125 10.6875L11.125 10.3438C11.1266 10.3068 11.1818 10.2812 11.2188 10.2812Z" fill="#000000" fill-rule="nonzero" opacity="1" stroke="none"/>
<path d="M11.635 7.4L9.205 9.83C9.09176 9.94317 8.90824 9.94317 8.795 9.83L6.365 7.4C6.32846 7.36273 6.31776 7.30722 6.33782 7.25904C6.35788 7.21085 6.40481 7.17934 6.457 7.179L7.951 7.179C8.02224 7.179 8.08 7.12124 8.08 7.05L8.08 4.014C8.08 3.95877 8.12477 3.914 8.18 3.914L9.816 3.914C9.87123 3.914 9.916 3.95877 9.916 4.014L9.916 7.051C9.916 7.12224 9.97376 7.18 10.045 7.18L11.539 7.18C11.5915 7.17911 11.6394 7.20987 11.6604 7.25799C11.6814 7.3061 11.6714 7.36213 11.635 7.4Z" fill="#000000" fill-rule="nonzero" opacity="1" stroke="none"/>
</g>
</g>
</svg>
