<?xml version="1.0" encoding="UTF-8"?>
<svg width="512px" height="512px" viewBox="0 0 512 512" version="1.1" xmlns="http://www.w3.org/2000/svg" xmlns:xlink="http://www.w3.org/1999/xlink">
    <title>coldfusion-plain</title>
    <g id="Page-1" stroke="none" stroke-width="1" fill="none" fill-rule="evenodd">
        <g id="coldfusion-plain" fill="#000000" fill-rule="nonzero">
            <path d="M256,0 C397.384896,0 512,114.615104 512,256 C512,397.384896 397.384896,512 256,512 C114.615104,512 0,397.384896 0,256 C0,114.615104 114.615104,0 256,0 Z M174.118,128.64 C139.616,128.64 111.782,139.981 90.612,162.664 C69.441,185.347 58.856,217.187 58.856,258.183 C58.856,296.941 69.382,327.491 90.443,349.838 C111.5,372.185 138.384,383.358 171.093,383.358 C197.527,383.358 219.34,376.834 236.536,363.784 C253.73,350.736 266.024,330.768 273.416,303.885 L273.416,303.885 L225.194,288.596 C221.049,306.632 214.216,319.847 204.696,328.248 C195.174,336.649 183.804,340.849 170.587,340.849 C152.664,340.849 138.103,334.241 126.903,321.023 C115.701,307.807 110.101,285.629 110.101,254.487 C110.101,225.142 115.786,203.913 127.156,190.808 C138.524,177.703 153.338,171.15 171.598,171.15 C184.815,171.15 196.045,174.848 205.286,182.24 C214.526,189.632 220.602,199.714 223.516,212.483 L223.516,212.483 L272.746,200.722 C267.144,181.008 258.743,165.886 247.543,155.356 C228.724,137.546 204.248,128.64 174.118,128.64 Z M376.244,128.64 C363.138,128.64 352.301,130.967 343.732,135.613 C335.162,140.263 329.282,146.284 326.09,153.676 C322.897,161.069 321.301,172.272 321.301,187.28 L321.301,187.28 L321.301,200.722 L295.09,200.722 L295.092,237.854 L321.303,237.854 L321.303,379.157 L368.516,379.157 L368.516,237.852 L403.801,237.852 L403.801,200.72 L368.516,200.72 L368.516,188.119 C368.516,179.045 369.998,172.913 372.968,169.72 C375.934,166.528 380.836,164.932 387.67,164.932 C394.614,164.932 401.838,165.83 409.344,167.621 L409.344,167.621 L415.729,134.689 C402.846,130.656 389.686,128.64 376.244,128.64 Z" id="Oval-2"></path>
        </g>
    </g>
</svg>