<svg xmlns="http://www.w3.org/2000/svg" xmlns:xlink="http://www.w3.org/1999/xlink" viewBox="0 0 69.883 54.883" fill="#fff" fill-rule="evenodd" stroke="#000" stroke-linecap="round" stroke-linejoin="round"><use xlink:href="#A" x="2.442" y="2.442"/><symbol id="A" overflow="visible"><path d="M26.182 33.99c0 1.88 0 4.814-3.516 4.814-2.148 0-3.003-1.162-3.516-3.105-1.875 2.246-4.199 3.418-6.997 3.418C5.254 39.112 0 33.238 0 24.947c0-8.057 5.42-14.234 12.158-14.234 2.695 0 5.357 1.06 6.997 3.379.225-1.766 1.735-3.086 3.516-3.071 3.516 0 3.516 2.9 3.516 4.815V34zm-13.008-1.631c3.823 0 5.664-3.892 5.664-7.407s-1.773-7.51-5.664-7.51c-4.028 0-5.835 3.994-5.835 7.51s1.841 7.407 5.835 7.407zm15.137-17.237c0-2.456 1.538-4.102 3.687-4.102 2.051 0 3.208 1.123 3.687 3.076 1.367-2.246 4.233-3.379 6.997-3.379 7.92 0 11.846 7.407 11.846 14.541 0 6.934-4.712 13.819-12.119 13.819-2.476-.017-4.863-.925-6.724-2.559v9.024c0 2.456-1.538 4.102-3.687 4.102s-3.687-1.636-3.687-4.102v-30.42zm13.096 17.237c3.823 0 5.733-3.994 5.733-7.407 0-3.481-1.875-7.51-5.733-7.51-3.926 0-5.762 3.686-5.762 7.236 0 3.613 1.709 7.681 5.762 7.681zm22.598-28.33c0 2.285-1.846 4.233-4.131 4.233-2.183 0-4.131-1.977-4.131-4.233 0-2.08 1.943-4.028 4.131-4.028s4.131 1.875 4.131 4.028zm-7.813 11.094c0-2.456 1.538-4.102 3.687-4.102s3.686 1.636 3.686 4.102v19.58c0 2.456-1.538 4.102-3.686 4.102s-3.687-1.636-3.687-4.102z" stroke="none" fill="#000000" fill-rule="nonzero"/></symbol></svg>