<svg class="attachment-200107 logo-mendix-word" fill="none" height="26.41" viewBox="0 0 493 115" width="115.22" xmlns="http://www.w3.org/2000/svg">
<path d="M89.5603 35.4171C76.6691 35.4171 67.9844 41.6592 64.592 48.7154H64.1849C60.6568 41.3878 52.922 35.4171 41.3877 35.4171C32.0246 35.4171 24.6969 38.9452 19.5404 47.0871H19.1333L17.9121 37.0454H0V113.036H22.5258V75.1764C22.5258 63.5065 26.7324 55.3646 36.2312 55.3646C43.2875 55.3646 47.3584 59.1641 47.3584 71.1055V113.036H69.7485V75.1764C69.7485 63.3708 73.9551 55.3646 83.4539 55.3646C90.5102 55.3646 94.5811 59.1641 94.5811 71.1055V113.036H117.107V62.5566C117.107 54.5504 112.9 35.4171 89.5603 35.4171Z" fill="currentColor"></path>
<path d="M163.501 35.4171C142.603 35.4171 126.591 50.8866 126.591 75.4478C126.591 100.416 142.739 114.664 164.993 114.664C178.834 114.664 189.147 110.051 193.761 106.387L186.569 87.6606H185.484C180.87 91.1887 174.356 94.9883 164.586 94.9883C155.087 94.9883 148.981 89.9675 148.574 82.6398H198.918C198.918 82.6398 199.053 78.1618 199.053 75.8549C199.053 51.7008 184.941 35.4171 163.501 35.4171ZM163.908 54.5504C172.457 54.5504 177.749 60.3854 178.427 66.3561H149.388C150.338 60.2497 155.494 54.5504 163.908 54.5504Z" fill="currentColor"></path>
<path d="M252.516 35.4171C242.203 35.4171 233.79 40.3022 229.447 47.0871H229.04L227.819 37.0454H209.907V113.036H232.433V75.1764C232.433 61.8781 240.439 55.3646 248.309 55.3646C255.094 55.3646 260.251 59.8426 260.251 68.7987V113.036H282.777V62.1495C282.777 47.6298 273.006 35.4171 252.516 35.4171Z" fill="currentColor"></path>
<path d="M368.771 113.036V12.3485H347.059V44.9159H346.788C342.581 38.9452 335.118 35.4171 326.162 35.4171C305.807 35.4171 292.237 53.3291 292.237 76.1263C292.237 98.245 305.128 114.664 325.619 114.664C337.696 114.664 344.345 109.915 348.687 102.994H349.094L350.994 113.036H368.771ZM331.454 55.3646C341.224 55.3646 347.873 63.5065 347.873 75.0407C347.873 87.3892 341.088 93.9027 331.182 93.9027C321.276 93.9027 314.627 86.7107 314.627 75.1764C314.627 63.6422 321.684 55.3646 331.454 55.3646Z" fill="currentColor"></path>
<path d="M395.035 0C385.944 0 380.923 5.5636 380.923 13.8412C380.923 21.983 385.944 27.9537 395.035 27.9537C404.127 27.9537 409.148 21.983 409.148 13.8412C409.148 5.5636 404.127 0 395.035 0ZM406.027 113.036V37.0454H383.637V113.036H406.027Z" fill="currentColor"></path>
<path d="M467.958 74.6337L490.348 37.0454H464.158L453.031 60.2497L441.904 37.0454H415.714L438.105 74.6337L413.543 113.036H440.004L453.031 89.0176L466.058 113.036H492.519L467.958 74.6337Z" fill="currentColor"></path>
</svg>