<?xml version="1.0" encoding="UTF-8" standalone="no"?>
<!DOCTYPE svg PUBLIC "-//W3C//DTD SVG 1.1//EN" "http://www.w3.org/Graphics/SVG/1.1/DTD/svg11.dtd">
<!-- Created with Vectornator (http://vectornator.io/) -->
<svg height="28.0px" stroke-miterlimit="10" style="fill-rule:nonzero;clip-rule:evenodd;stroke-linecap:round;stroke-linejoin:round;" version="1.1" viewBox="0 0 28 28" width="28.0px" xml:space="preserve" xmlns="http://www.w3.org/2000/svg" xmlns:xlink="http://www.w3.org/1999/xlink">
<defs/>
<g id="Layer-1">
<g opacity="1">
<g fill="#000000" opacity="1" stroke="none">
<path d="M4.00365 11.3087L4.06957 12.7106L3.92016 12.7106C3.74145 12.2946 3.55614 12.0104 3.36425 11.8581C3.17236 11.7057 2.98119 11.6295 2.79076 11.6295C2.67065 11.6295 2.56811 11.6698 2.48315 11.7504C2.39819 11.831 2.3557 11.924 2.3557 12.0294C2.3557 12.1085 2.385 12.1847 2.4436 12.258C2.53735 12.3781 2.79955 12.5839 3.23022 12.8754C3.66088 13.1669 3.94433 13.4145 4.08056 13.6181C4.21679 13.8217 4.2849 14.0495 4.2849 14.3014C4.2849 14.5299 4.22778 14.7541 4.11352 14.9738C3.99926 15.1935 3.83813 15.362 3.63012 15.4792C3.42211 15.5963 3.19213 15.6549 2.94018 15.6549C2.74389 15.6549 2.48168 15.5934 2.15356 15.4704C2.06567 15.4381 2.00561 15.422 1.97338 15.422C1.8767 15.422 1.79613 15.4953 1.73168 15.6418L1.58666 15.6418L1.51635 14.1652L1.66576 14.1652C1.7976 14.5519 1.97851 14.8419 2.20849 15.0353C2.43847 15.2287 2.656 15.3253 2.86108 15.3253C3.0017 15.3253 3.11669 15.2821 3.20605 15.1957C3.2954 15.1093 3.34008 15.0045 3.34008 14.8815C3.34008 14.7409 3.29613 14.6193 3.20824 14.5168C3.12035 14.4142 2.92406 14.2589 2.61938 14.0509C2.17113 13.7404 1.8811 13.5031 1.74926 13.339C1.5559 13.0988 1.45922 12.8336 1.45922 12.5436C1.45922 12.2272 1.56835 11.9408 1.78661 11.6845C2.00487 11.4281 2.32055 11.3 2.73363 11.3C2.95629 11.3 3.17162 11.3542 3.37963 11.4626C3.45873 11.5065 3.52319 11.5285 3.57299 11.5285C3.62572 11.5285 3.6682 11.5175 3.70043 11.4955C3.73266 11.4735 3.78393 11.4113 3.85424 11.3087L4.00365 11.3087Z"/>
<path d="M6.84692 11.3C7.20434 11.3 7.53686 11.3922 7.84447 11.5768C8.15209 11.7614 8.38573 12.0236 8.5454 12.3634C8.70507 12.7033 8.7849 13.0753 8.7849 13.4796C8.7849 14.0627 8.63695 14.5504 8.34106 14.943C7.98363 15.4176 7.48998 15.6549 6.8601 15.6549C6.24194 15.6549 5.76586 15.4381 5.43188 15.0045C5.09789 14.571 4.9309 14.0685 4.9309 13.4972C4.9309 12.9084 5.10155 12.3949 5.44286 11.9569C5.78417 11.5189 6.25219 11.3 6.84692 11.3ZM6.86449 11.612C6.71508 11.612 6.58691 11.6684 6.47997 11.7812C6.37304 11.8939 6.30273 12.1166 6.26904 12.4491C6.23534 12.7816 6.2185 13.2438 6.2185 13.8356C6.2185 14.1491 6.23901 14.442 6.28002 14.7145C6.31225 14.9225 6.3811 15.0807 6.48656 15.1891C6.59203 15.2975 6.71215 15.3517 6.84692 15.3517C6.97875 15.3517 7.08862 15.3151 7.17651 15.2418C7.29076 15.1422 7.36694 15.0031 7.40502 14.8244C7.46362 14.546 7.49291 13.9835 7.49291 13.1369C7.49291 12.6388 7.46508 12.2968 7.40942 12.1107C7.35375 11.9247 7.27172 11.7892 7.16332 11.7043C7.08715 11.6427 6.98754 11.612 6.86449 11.612Z"/>
<path d="M11.0173 9.5729L11.0173 14.6793C11.0173 14.9694 11.051 15.1547 11.1184 15.2353C11.1858 15.3158 11.3176 15.362 11.5139 15.3737L11.5139 15.5319L9.29467 15.5319L9.29467 15.3737C9.47631 15.3678 9.61108 15.3151 9.69897 15.2155C9.75756 15.1481 9.78686 14.9694 9.78686 14.6793L9.78686 10.4254C9.78686 10.1383 9.75317 9.9545 9.68578 9.87393C9.6184 9.79336 9.48803 9.74722 9.29467 9.7355L9.29467 9.5729L11.0173 9.5729Z"/>
<path d="M14.177 14.9254C13.676 15.3678 13.2263 15.589 12.8279 15.589C12.5935 15.589 12.3987 15.5121 12.2434 15.3583C12.0881 15.2045 12.0105 15.0119 12.0105 14.7804C12.0105 14.4669 12.1453 14.185 12.4148 13.9345C12.6843 13.684 13.2717 13.3507 14.177 12.9347L14.177 12.5216C14.177 12.2111 14.1601 12.0155 14.1265 11.935C14.0928 11.8544 14.029 11.7841 13.9353 11.724C13.8415 11.664 13.7361 11.6339 13.6189 11.6339C13.4285 11.6339 13.2717 11.6764 13.1487 11.7614C13.0725 11.8141 13.0344 11.8756 13.0344 11.946C13.0344 12.0075 13.0754 12.0836 13.1575 12.1745C13.2688 12.3004 13.3245 12.422 13.3245 12.5392C13.3245 12.6828 13.271 12.8051 13.1641 12.9062C13.0571 13.0072 12.9172 13.0578 12.7444 13.0578C12.5598 13.0578 12.4053 13.0021 12.2808 12.8908C12.1562 12.7794 12.094 12.6491 12.094 12.4997C12.094 12.2887 12.1775 12.0873 12.3445 11.8954C12.5115 11.7035 12.7444 11.5563 13.0432 11.4538C13.342 11.3512 13.6526 11.3 13.9748 11.3C14.3645 11.3 14.6728 11.3827 14.8999 11.5482C15.1269 11.7138 15.2742 11.8932 15.3415 12.0866C15.3826 12.2096 15.4031 12.4923 15.4031 12.9347L15.4031 14.5299C15.4031 14.7174 15.4104 14.8354 15.425 14.8837C15.4397 14.932 15.4617 14.9679 15.491 14.9914C15.5203 15.0148 15.5539 15.0265 15.592 15.0265C15.6682 15.0265 15.7458 14.9723 15.8249 14.8639L15.9568 14.9694C15.8103 15.1862 15.6587 15.3437 15.5019 15.4418C15.3452 15.5399 15.1672 15.589 14.968 15.589C14.7336 15.589 14.5505 15.5341 14.4187 15.4242C14.2869 15.3144 14.2063 15.1481 14.177 14.9254ZM14.177 14.6046L14.177 13.2292C13.8225 13.4372 13.5588 13.6598 13.386 13.8971C13.2717 14.0553 13.2146 14.215 13.2146 14.3761C13.2146 14.5109 13.2629 14.6295 13.3596 14.7321C13.4329 14.8112 13.5354 14.8507 13.6672 14.8507C13.8137 14.8507 13.9836 14.7687 14.177 14.6046Z"/>
<path d="M19.7624 14.4728L19.8987 14.5783C19.7053 14.9416 19.4643 15.2118 19.1758 15.3891C18.8872 15.5663 18.5803 15.6549 18.2551 15.6549C17.7073 15.6549 17.2693 15.4484 16.9412 15.0353C16.613 14.6222 16.449 14.1256 16.449 13.5456C16.449 12.986 16.5984 12.4938 16.8972 12.069C17.2576 11.5563 17.7541 11.3 18.387 11.3C18.8118 11.3 19.1494 11.4069 19.3999 11.6208C19.6504 11.8346 19.7756 12.0734 19.7756 12.3371C19.7756 12.5041 19.7251 12.6374 19.624 12.737C19.5229 12.8366 19.3904 12.8864 19.2263 12.8864C19.0535 12.8864 18.9106 12.8293 18.7978 12.715C18.6851 12.6007 18.6155 12.3971 18.5891 12.1042C18.5715 11.9196 18.529 11.7907 18.4617 11.7174C18.3943 11.6442 18.3152 11.6076 18.2244 11.6076C18.0837 11.6076 17.9636 11.6823 17.864 11.8317C17.7117 12.0573 17.6355 12.403 17.6355 12.8688C17.6355 13.2555 17.697 13.6254 17.8201 13.9784C17.9431 14.3314 18.1116 14.5944 18.3254 14.7672C18.4866 14.8932 18.677 14.9562 18.8967 14.9562C19.0403 14.9562 19.1765 14.9225 19.3054 14.8551C19.4343 14.7877 19.5867 14.6603 19.7624 14.4728Z"/>
<path d="M23.8845 13.3302L21.6301 13.3302C21.6565 13.8752 21.8015 14.3058 22.0652 14.6222C22.2673 14.8654 22.5105 14.987 22.7947 14.987C22.9705 14.987 23.1301 14.9379 23.2737 14.8397C23.4172 14.7416 23.571 14.5651 23.7351 14.3102L23.8845 14.4069C23.6619 14.861 23.4158 15.1825 23.1462 15.3715C22.8767 15.5605 22.5647 15.6549 22.2102 15.6549C21.6008 15.6549 21.1394 15.4206 20.8259 14.9518C20.574 14.5739 20.448 14.1051 20.448 13.5456C20.448 12.86 20.6333 12.3144 21.0039 11.9086C21.3745 11.5028 21.8088 11.3 22.3069 11.3C22.7229 11.3 23.084 11.4706 23.3901 11.8119C23.6963 12.1532 23.8611 12.6593 23.8845 13.3302ZM22.8035 13.0358C22.8035 12.5641 22.7778 12.2404 22.7266 12.0646C22.6753 11.8888 22.5955 11.7555 22.4871 11.6647C22.4255 11.612 22.3435 11.5856 22.241 11.5856C22.0886 11.5856 21.9641 11.6603 21.8674 11.8097C21.6946 12.0705 21.6081 12.4279 21.6081 12.882L21.6081 13.0358L22.8035 13.0358Z"/>
</g>
<path d="M24.0533 14.1102C24.0533 13.3249 24.6898 12.6884 25.475 12.6884C26.2602 12.6884 26.8967 13.3249 26.8967 14.1102C26.8967 14.8954 26.2602 15.5319 25.475 15.5319C24.6898 15.5319 24.0533 14.8954 24.0533 14.1102Z" fill="#000000" fill-rule="nonzero" opacity="1" stroke="none"/>
</g>
</g>
</svg>
