<?xml version="1.0" encoding="UTF-8" standalone="no"?>
<!-- Created with Inkscape (http://www.inkscape.org/) -->

<svg
   xmlns:dc="http://purl.org/dc/elements/1.1/"
   xmlns:cc="http://creativecommons.org/ns#"
   xmlns:rdf="http://www.w3.org/1999/02/22-rdf-syntax-ns#"
   xmlns:svg="http://www.w3.org/2000/svg"
   xmlns="http://www.w3.org/2000/svg"
   xmlns:sodipodi="http://sodipodi.sourceforge.net/DTD/sodipodi-0.dtd"
   xmlns:inkscape="http://www.inkscape.org/namespaces/inkscape"
   width="266.15314mm"
   height="172.67409mm"
   viewBox="0 0 266.15314 172.67409"
   version="1.1"
   id="svg1526"
   sodipodi:docname="streams.svg"
   inkscape:version="0.92.3 (2405546, 2018-03-11)">
  <defs
     id="defs1520">
    <filter
       style="color-interpolation-filters:sRGB"
       inkscape:label="Drop Shadow"
       id="filter2420">
      <feFlood
         flood-opacity="1"
         flood-color="rgb(0,0,0)"
         result="flood"
         id="feFlood2410" />
      <feComposite
         in="flood"
         in2="SourceGraphic"
         operator="in"
         result="composite1"
         id="feComposite2412" />
      <feGaussianBlur
         in="composite1"
         stdDeviation="0.8"
         result="blur"
         id="feGaussianBlur2414" />
      <feOffset
         dx="0.8"
         dy="0.8"
         result="offset"
         id="feOffset2416" />
      <feComposite
         in="SourceGraphic"
         in2="offset"
         operator="over"
         result="composite2"
         id="feComposite2418" />
    </filter>
  </defs>
  <sodipodi:namedview
     id="base"
     pagecolor="#ffffff"
     bordercolor="#666666"
     borderopacity="1.0"
     inkscape:pageopacity="0.0"
     inkscape:pageshadow="2"
     inkscape:zoom="1.4"
     inkscape:cx="197.86659"
     inkscape:cy="248.16153"
     inkscape:document-units="mm"
     inkscape:current-layer="g2082"
     showgrid="false"
     inkscape:window-width="3726"
     inkscape:window-height="2049"
     inkscape:window-x="114"
     inkscape:window-y="55"
     inkscape:window-maximized="1"
     fit-margin-top="0"
     fit-margin-left="0"
     fit-margin-right="0"
     fit-margin-bottom="0" />
  <metadata
     id="metadata1523">
    <rdf:RDF>
      <cc:Work
         rdf:about="">
        <dc:format>image/svg+xml</dc:format>
        <dc:type
           rdf:resource="http://purl.org/dc/dcmitype/StillImage" />
        <dc:title></dc:title>
      </cc:Work>
    </rdf:RDF>
  </metadata>
  <g
     inkscape:label="Layer 1"
     inkscape:groupmode="layer"
     id="layer1"
     transform="translate(172.17065,-41.976007)">
    <g
       id="g2082"
       transform="translate(49.177593,-37.952273)">
      <path
         style="fill:#9ea0a1;stroke-width:0.26458335"
         d="m 30.885243,167.53938 c -49.098911,113.03403 -24.5494557,56.51702 0,0 z"
         id="path2090"
         inkscape:connector-curvature="0"
         sodipodi:nodetypes="cc" />
      <path
         style="fill:#759abf;stroke-width:0.26458335"
         d="m -189.93827,199.72087 c -10.66172,-10.65805 -19.38495,-19.55818 -19.38495,-19.77807 0,-0.21988 12.6041,-13.00347 28.00911,-28.40797 24.56304,-24.56222 28.0706,-27.97418 28.50886,-27.73182 0.27485,0.152 2.28418,2.07003 4.46518,4.26229 2.18099,2.19227 4.14575,3.98594 4.36613,3.98594 0.22037,0 12.12788,-11.72766 26.46113,-26.06146 14.33325,-14.333804 26.178087,-26.06146 26.321859,-26.06146 0.143775,0 10.29421,10.030187 22.556526,22.2893 l 22.295117,22.28931 8.401757,-8.39868 c 4.620966,-4.61927 8.520329,-8.39868 8.665252,-8.39868 0.345273,0 59.926159,59.58379 59.926159,59.92908 0,0.14556 -11.519527,11.78372 -25.5989455,25.86258 l -25.5989485,25.59793 h -75.004639 -75.004637 z m 147.744962,12.10224 c 7.288517,-7.36396 11.394482,-12.94596 14.813359,-20.13852 1.759373,-3.70134 3.289149,-8.29909 3.95143,-11.87606 0.593286,-3.20432 0.67195,-10.25752 0.141643,-12.7 -0.536075,-2.46904 -1.877968,-6.70666 -2.71121,-8.56182 -3.51967,-7.83636 -10.768348,-12.70398 -21.929304,-14.72592 -5.246333,-0.95044 -7.893539,-1.16649 -17.859375,-1.45759 -12.254921,-0.35795 -16.141891,-0.86652 -19.099472,-2.49898 -5.611833,-3.09748 -2.097024,-10.16959 7.169521,-14.42571 4.182403,-1.92097 11.572033,-3.89567 16.295576,-4.3546 0.945885,-0.0919 2.180714,-0.23459 2.744065,-0.3171 l 1.024271,-0.15001 -2.347187,-2.37064 c -1.290955,-1.30386 -2.543109,-2.47911 -2.782568,-2.61167 -0.807839,-0.44723 -10.301092,1.74953 -16.22747,3.75507 -14.739903,4.98812 -25.668851,12.80804 -29.397541,21.03466 -3.47764,7.67272 0.45346,12.75058 11.820786,15.26912 4.385678,0.97169 9.190564,1.44844 17.570852,1.74341 13.458463,0.4737 19.679653,1.93365 23.744135,5.57212 3.414096,3.05625 4.9286,8.15331 4.048336,13.62466 -0.967637,6.01442 -3.504361,10.62661 -8.740462,15.89163 -5.506239,5.53666 -12.464537,9.86245 -21.676958,13.47599 -8.696318,3.4111 -12.619509,4.24749 -24.230259,5.16564 -8.27125,0.65407 -10.00474,0.59342 -14.83008,-0.51888 -10.77593,-2.48398 -18.41823,-7.26307 -21.47442,-13.42899 -1.09919,-2.21764 -1.13404,-2.36641 -1.13404,-4.84042 0,-2.35238 0.0581,-2.64028 0.74083,-3.67293 1.59678,-2.41504 4.8556,-3.83194 12.49772,-5.43387 10.05281,-2.10725 14.67499,-4.71515 14.67499,-8.27985 0,-1.28167 -1.25901,-3.40153 -2.95001,-4.9671 -5.16612,-4.78291 -14.34668,-7.60538 -24.4799,-7.52608 l -2.6003,0.0203 2.69522,0.74626 c 4.44359,1.23034 6.22073,1.86784 7.84093,2.81269 0.84718,0.49405 1.61066,0.89828 1.69663,0.89828 0.59071,0 2.84232,1.8408 3.38567,2.76796 0.79929,1.36388 0.82629,2.23258 0.0982,3.15825 -1.14166,1.45139 -3.68863,2.3598 -10.82182,3.85974 -4.06276,0.85431 -7.36843,1.78697 -9.45159,2.66666 -1.61192,0.6807 -4.30072,2.48965 -4.90342,3.29889 l -0.46439,0.62353 1.12585,-0.6437 c 1.08199,-0.61863 3.645,-0.93704 3.63551,-0.45165 -0.002,0.10914 -0.62251,0.4961 -1.37859,0.8599 -3.38993,1.63111 -4.99778,6.4259 -3.77428,11.25535 0.59183,2.33608 2.28472,5.57395 3.97164,7.59621 1.06571,1.27758 1.36128,1.78594 1.03838,1.78594 -0.24826,0 -1.24058,-0.80367 -2.20515,-1.78594 -2.94707,-3.00113 -4.60452,-7.17192 -4.60004,-11.57552 0.001,-1.16417 0.13387,-2.58622 0.29486,-3.16012 0.46969,-1.67434 0.12016,-1.41714 -0.39059,0.28741 -0.64783,2.16204 -0.58594,5.94505 0.14224,8.69354 1.14507,4.32206 3.78519,8.79166 7.53488,12.75617 2.06804,2.18652 5.75203,5.41329 6.51428,5.70578 0.21828,0.0838 22.44039,0.13128 49.382468,0.10559 l 48.985596,-0.0467 z m 2.997168,-14.24214 c 0,-0.18614 0.420584,-0.74607 0.93463,-1.24431 2.192322,-2.12488 5.04634,-7.07417 6.502128,-11.27566 1.355365,-3.91166 1.843307,-6.70046 2.006869,-11.47018 0.253797,-7.40107 -0.604001,-11.74388 -3.723587,-18.85156 -0.239511,-0.5457 -0.329808,-0.99219 -0.200662,-0.99219 0.129148,0 0.790482,0.57281 1.469633,1.27291 4.566002,4.70685 7.143001,11.59761 7.143001,19.10001 0,8.01212 -2.801564,14.99142 -7.97782,19.87443 -2.403141,2.26701 -6.154192,4.45305 -6.154192,3.58655 z m -83.60833,-18.27666 c 0,-0.18689 0.22469,-0.54315 0.49931,-0.79168 0.27462,-0.24853 0.83723,-1.18972 1.25024,-2.09153 0.59748,-1.30457 0.77117,-2.11277 0.84993,-3.95476 0.0544,-1.27331 0.19236,-2.3151 0.30647,-2.3151 0.11411,0 0.63012,0.46782 1.14669,1.0396 2.00464,2.2189 1.7719,4.66279 -0.64072,6.7279 -1.24854,1.0687 -3.41192,1.94724 -3.41192,1.38557 z m 19.88079,-27.04354 c -1.54448,-0.76964 -3.07959,-2.59668 -3.86429,-4.59912 -0.62553,-1.59627 -0.64082,-4.73085 -0.0319,-6.55385 0.51548,-1.5434 2.32895,-4.02948 2.93931,-4.02948 0.60932,0 0.4646,0.50746 -0.43784,1.53527 -1.26086,1.43604 -1.80485,2.86461 -1.81146,4.75708 -0.0105,2.99166 1.4347,5.17956 4.4773,6.7784 1.745959,0.91748 1.858161,1.02939 1.699268,1.69486 -0.09357,0.39188 -0.220228,0.80181 -0.281458,0.91095 -0.21876,0.38995 -1.32141,0.18733 -2.68888,-0.49411 z m -46.30788,-15.84715 1.094,0.98836 1.35347,-1.35347 1.35347,-1.35347 -3.89926,-3.89925 -3.89925,-3.89926 -3.70538,3.69829 c -2.03796,2.03406 -3.70538,3.88595 -3.70538,4.11533 0,0.22937 1.19345,1.58958 2.65211,3.02269 l 2.65212,2.60565 2.50505,-2.45662 2.50505,-2.45662 z m 126.678021,-14.3462 c 1.032029,-1.1301 1.876825,-2.14056 1.877325,-2.24548 0.0013,-0.28017 -6.533351,-6.9772 -7.742545,-7.9349 l -1.033584,-0.81861 -4.475022,4.46921 c -2.461265,2.45807 -4.475025,4.6536 -4.475025,4.87896 0,0.22535 0.593185,0.994 1.318191,1.70811 l 1.318191,1.29837 2.263548,-2.2094 2.263547,-2.20939 2.881051,2.83905 c 2.519828,2.4831 2.946678,2.80393 3.404478,2.55893 0.287888,-0.15408 1.367817,-1.20476 2.399845,-2.33485 z m -69.933246,-15.00744 c 2.241273,-1.27742 2.434516,-1.26724 3.176344,0.1673 0.212424,0.41078 0.563272,0.74687 0.779664,0.74687 0.216392,0 2.260534,-1.06693 4.542539,-2.37097 2.973639,-1.69927 4.240741,-2.29492 4.472569,-2.10252 0.177911,0.14765 0.898914,1.27373 1.60223,2.50241 0.703318,1.22867 1.400799,2.23433 1.549963,2.2348 0.149162,5.3e-4 1.159597,-0.8935 2.24541,-1.9866 l 1.974208,-1.98747 -9.719427,-9.719433 -9.719426,-9.719427 -9.525469,9.522708 c -5.239,5.237489 -9.52546,9.698722 -9.52546,9.913842 0,0.48225 3.16174,3.71266 3.63374,3.71266 0.18795,0 2.20882,-1.06693 4.49083,-2.37097 4.478473,-2.55919 4.470001,-2.55766 5.292107,-0.95559 0.762643,1.4862 2.183815,3.59115 2.424594,3.59115 0.130582,0 1.168098,-0.53044 2.305584,-1.17876 z"
         id="path2088"
         inkscape:connector-curvature="0"
         sodipodi:nodetypes="sssccsssscsssscccssssscscccsccccsssssssssssscssccccsscccccccccccscccscscscsscsscssscsssccsccscccscccccccccccccsscccccccccsscccccccccsscccccccsssscsc" />
      <path
         style="fill:#5e6164;stroke-width:0.26458335"
         d="m -189.93827,199.72083 c -10.66172,-10.65805 -19.38495,-19.55818 -19.38495,-19.77807 0,-0.21988 12.6041,-13.00347 28.00911,-28.40797 24.56304,-24.56222 28.0706,-27.97418 28.50886,-27.73182 0.27485,0.152 2.28418,2.07003 4.46518,4.26229 2.18099,2.19227 4.14575,3.98594 4.36613,3.98594 0.22037,0 12.12788,-11.72766 26.46113,-26.06146 14.33325,-14.333804 26.178087,-26.06146 26.321859,-26.06146 0.143775,0 10.29421,10.030187 22.556526,22.2893 l 22.295117,22.28931 8.401757,-8.39868 c 4.620966,-4.61927 8.520329,-8.39868 8.665252,-8.39868 0.345273,0 59.926159,59.58379 59.926159,59.92908 0,0.14556 -11.519527,11.78372 -25.5989455,25.86258 l -25.5989485,25.59793 h -75.004639 -75.004637 z m 144.971967,15.11783 c 1.555684,-0.83257 8.387599,-8.21549 11.596915,-12.53222 7.013998,-9.43426 10.851986,-19.73075 10.836757,-29.07268 -0.0065,-3.97717 -0.296963,-6.09768 -1.346494,-9.82944 -2.235422,-7.94836 -6.334898,-13.11555 -13.068057,-16.47167 -6.706237,-3.3427 -14.025448,-4.56203 -29.765625,-4.95874 -14.400747,-0.36296 -18.981258,-1.42891 -20.233828,-4.70872 -0.765839,-2.00532 0.05428,-4.27086 2.49831,-6.90146 4.011176,-4.31738 13.146863,-7.78992 23.760221,-9.03144 1.825173,-0.2135 3.382502,-0.45218 3.460729,-0.53041 0.16715,-0.16715 -2.712707,-3.13847 -4.536522,-4.6806 l -1.268796,-1.07283 -2.964537,0.58374 c -17.907559,3.52613 -32.441288,10.81367 -39.72746,19.92026 -2.93109,3.66342 -4.61574,7.82883 -4.28742,10.60098 0.62409,5.26946 6.05245,8.74145 16.421865,10.50348 2.951178,0.50148 4.916519,0.64088 18.543698,1.31534 15.165364,0.75059 21.602086,4.11326 23.312589,12.17895 0.628737,2.96474 0.373644,6.82825 -0.663837,10.05416 -2.824631,8.78283 -11.30835,17.05737 -23.483382,22.90437 -5.813957,2.79212 -12.933458,5.24404 -18.480588,6.36462 -3.124348,0.63115 -5.138552,0.86726 -12.224405,1.43298 -7.42797,0.59304 -8.55948,0.55494 -13.41236,-0.45163 -13.67566,-2.83655 -23.20442,-10.37219 -23.17305,-18.32596 0.0174,-4.42212 3.12159,-6.46304 12.91374,-8.49055 8.4382,-1.74717 12.64688,-3.59656 14.37077,-6.31486 1.42818,-2.252 0.79477,-4.52543 -2.03349,-7.29855 -3.99242,-3.91458 -11.63602,-6.93422 -19.03912,-7.5215 -5.17059,-0.41018 -11.4409,-0.59068 -10.98021,-0.31607 0.21828,0.13011 1.65753,0.53932 3.19834,0.90936 4.03349,0.96867 8.52682,2.46998 9.97247,3.332 0.68694,0.40962 1.81049,1.06002 2.49679,1.44534 1.44395,0.81071 2.51167,2.08983 2.75342,3.29856 0.14933,0.74668 0.0413,0.96745 -0.92241,1.88417 -1.2584,1.19708 -3.33946,1.94485 -8.38434,3.01265 -4.91208,1.03969 -6.46219,1.42288 -8.66561,2.14215 -7.87645,2.57113 -11.37168,7.05339 -10.94162,14.03147 0.33685,5.4658 2.78767,10.76411 7.45407,16.11458 1.60755,1.84321 5.98604,5.80229 7.13993,6.456 0.74532,0.42224 98.084282,0.44604 98.872547,0.0242 z m -104.265257,-78.42508 1.094,0.98836 1.35347,-1.35347 1.35347,-1.35347 -3.89926,-3.89925 -3.89925,-3.89926 -3.70538,3.69829 c -2.03796,2.03406 -3.70538,3.88595 -3.70538,4.11533 0,0.22937 1.19345,1.58958 2.65211,3.02269 l 2.65212,2.60565 2.50505,-2.45662 2.50505,-2.45662 z m 126.678021,-14.3462 c 1.032029,-1.1301 1.876825,-2.14056 1.877325,-2.24548 0.0013,-0.28017 -6.533351,-6.9772 -7.742545,-7.9349 l -1.033584,-0.81861 -4.475022,4.46921 c -2.461265,2.45807 -4.475025,4.6536 -4.475025,4.87896 0,0.22535 0.593185,0.994 1.318191,1.70811 l 1.318191,1.29837 2.263548,-2.2094 2.263547,-2.20939 2.881051,2.83905 c 2.519828,2.4831 2.946678,2.80393 3.404478,2.55893 0.287888,-0.15408 1.367817,-1.20476 2.399845,-2.33485 z m -69.933246,-15.00744 c 2.241273,-1.27742 2.434516,-1.26724 3.176344,0.1673 0.212424,0.41078 0.563272,0.74687 0.779664,0.74687 0.216392,0 2.260534,-1.06693 4.542539,-2.37097 2.973639,-1.69927 4.240741,-2.29492 4.472569,-2.10252 0.177911,0.14765 0.898914,1.27373 1.60223,2.50241 0.703318,1.22867 1.400799,2.23433 1.549963,2.2348 0.149162,5.3e-4 1.159597,-0.8935 2.24541,-1.9866 l 1.974208,-1.98747 -9.719427,-9.719433 -9.719426,-9.719427 -9.525469,9.522708 c -5.239,5.237489 -9.52546,9.698722 -9.52546,9.913842 0,0.48225 3.16174,3.71266 3.63374,3.71266 0.18795,0 2.20882,-1.06693 4.49083,-2.37097 4.478473,-2.55919 4.470001,-2.55766 5.292107,-0.95559 0.762643,1.4862 2.183815,3.59115 2.424594,3.59115 0.130582,0 1.168098,-0.53044 2.305584,-1.17876 z"
         id="path2086"
         inkscape:connector-curvature="0"
         sodipodi:nodetypes="sssccsssscsssscccscscsssssccccscssssssssccscssccccccsscscccccccccsscccccccccsscccccccccsscccccccsssscsc" />
      <path
         style="fill:#010101;stroke-width:0.26458335"
         d="m -189.70084,199.47647 c -10.64679,-10.64693 -19.3578,-19.48558 -19.3578,-19.64144 0,-0.15586 12.56048,-12.84552 27.91218,-28.19924 l 27.91217,-27.91586 4.43598,4.43022 c 2.43978,2.43662 4.55353,4.43021 4.69722,4.43021 0.14369,0 12.07841,-11.81671 26.5216,-26.25935 l 26.260346,-26.259353 22.291773,22.290603 c 12.260474,12.25983 22.469417,22.2906 22.686539,22.2906 0.21712,0 4.149003,-3.75286 8.737518,-8.33969 l 8.342754,-8.33971 29.71570912,29.70481 C 16.798787,154.00591 30.170416,167.49214 30.169876,167.63766 c -5.29e-4,0.14552 -11.460895,11.72435 -25.4674606,25.73073 l -25.4664794,25.46614 h -74.78949 -74.789486 z m 147.080576,13.9341 c 9.65317,-9.50065 15.875138,-19.05879 18.861892,-28.97546 1.236541,-4.10559 1.591919,-6.66636 1.596747,-11.50579 0.0048,-4.80968 -0.277016,-6.53002 -1.86373,-11.37708 -3.91985,-11.97428 -13.535141,-17.94391 -31.310368,-19.43895 -1.819011,-0.15299 -7.176823,-0.39187 -11.90625,-0.53084 -11.271713,-0.33121 -15.066415,-0.89292 -17.941444,-2.65581 -2.445147,-1.4993 -2.007269,-5.26567 0.968058,-8.32666 4.602522,-4.73505 12.716428,-7.59617 26.299948,-9.2739 0.795084,-0.0982 1.256771,-0.28515 1.256771,-0.50889 0,-0.19452 -1.353452,-1.61597 -3.007672,-3.15879 -2.155704,-2.01053 -3.194659,-2.80512 -3.667781,-2.80512 -2.175338,0 -12.397394,2.60076 -17.666214,4.49476 -10.336934,3.71584 -19.159243,9.16429 -24.092393,14.8789 -2.05219,2.37727 -3.21467,4.1733 -4.29696,6.63874 -0.74185,1.68992 -0.83527,2.18041 -0.84084,4.41468 -0.008,3.06038 0.3742,3.98622 2.5165,6.10188 3.46008,3.41705 10.482633,5.59453 20.363693,6.31416 2.110052,0.15368 6.75349,0.39915 10.31875,0.54549 12.225028,0.50181 18.392169,2.17985 22.008717,5.98844 3.787851,3.98899 4.32232,11.80942 1.267523,18.54663 -4.100182,9.04276 -15.508438,18.02485 -28.964781,22.80491 -1.309688,0.46524 -3.036094,1.08996 -3.836459,1.38828 -0.800364,0.29832 -2.110052,0.69138 -2.910416,0.87346 -0.800365,0.18208 -2.110052,0.51334 -2.910417,0.73613 -4.125957,1.14852 -14.60877,2.31729 -20.78402,2.31729 -6.73507,0 -15.94537,-2.84549 -21.79266,-6.73275 -2.18266,-1.45104 -5.4547,-4.83651 -6.42868,-6.65155 -0.84062,-1.56653 -1.53006,-4.02912 -1.53006,-5.4652 0,-2.14875 1.45276,-4.20374 3.83051,-5.41846 2.07541,-1.06026 3.82722,-1.58249 9.17564,-2.73534 7.43954,-1.6036 10.88723,-2.94251 13.14268,-5.10395 1.48906,-1.42701 1.89701,-2.24438 1.89701,-3.80089 0,-4.20363 -6.29335,-9.05514 -14.99533,-11.55984 -1.76257,-0.50732 -4.43771,-1.05454 -5.94477,-1.21606 -3.533,-0.37864 -13.41629,-0.71738 -13.81024,-0.47333 -0.5884,0.36451 0.22777,0.69007 3.52017,1.40414 3.88954,0.84358 9.65422,2.63941 10.59267,3.29986 0.3638,0.25603 1.38615,0.82968 2.27188,1.27477 2.05802,1.03417 3.28437,2.39054 3.28437,3.6326 0,2.03385 -2.07515,2.9656 -10.58888,4.75446 -7.79219,1.63725 -11.68128,3.20941 -14.5816,5.89459 -2.773,2.5673 -3.83067,5.61287 -3.60344,10.37612 0.26535,5.56235 2.81809,10.97199 7.78594,16.49959 1.72343,1.91762 4.40151,4.37388 6.27998,5.75984 l 1.03472,0.76342 49.559712,-0.0682 49.55971,-0.0682 z M -152.71725,138.26891 c 1.26404,-1.23693 2.41705,-2.24896 2.56226,-2.24896 0.14521,0 0.60622,0.35718 1.02448,0.79375 0.41825,0.43656 0.88292,0.79375 1.03259,0.79375 0.43194,0 2.80386,-2.45085 2.80386,-2.89716 0,-0.53245 -7.41376,-7.95076 -7.94588,-7.95076 -0.46297,0 -7.92912,7.41658 -7.92912,7.87647 0,0.37769 5.49335,5.88186 5.87029,5.88186 0.1558,0 1.31748,-1.01203 2.58152,-2.24895 z m 129.986189,-15.67105 c 1.276186,-1.27027 2.320338,-2.48935 2.320338,-2.70906 0,-0.5283 -8.474512,-9.00427 -9.002718,-9.00427 -0.439859,0 -9.518116,8.98771 -9.518116,9.42318 0,0.47649 2.680534,3.27682 3.136638,3.27682 0.246666,0 1.33549,-0.89297 2.419612,-1.98437 1.084123,-1.09141 2.095408,-1.98438 2.2473,-1.98438 0.151894,0 1.462328,1.19063 2.912075,2.64583 1.449748,1.45521 2.754847,2.64584 2.90022,2.64584 0.14537,0 1.308465,-1.03932 2.584651,-2.30959 z m -69.880046,-15.15291 c 0.979792,-0.58209 1.950233,-1.05834 2.156539,-1.05834 0.206304,0 0.597924,0.41376 0.870263,0.91947 0.27234,0.5057 0.640405,0.97519 0.817919,1.04331 0.177517,0.0681 2.182694,-0.94095 4.455949,-2.24238 2.273255,-1.30142 4.275426,-2.36477 4.449265,-2.36298 0.173842,0.002 0.918271,1.04327 1.654291,2.31442 0.776063,1.34031 1.540508,2.35014 1.819773,2.40392 0.556458,0.10717 4.382635,-3.53983 4.382635,-4.17739 0,-0.45749 -19.02096,-19.5942 -19.475681,-19.5942 -0.211425,0 -16.582666,16.20602 -19.668346,19.46985 -0.20504,0.21688 3.78952,4.07807 4.21894,4.07807 0.22551,0 2.16584,-1.01203 4.31182,-2.24896 2.14599,-1.23693 4.054132,-2.24896 4.240309,-2.24896 0.186179,0 0.856941,0.92273 1.490583,2.05052 1.832086,3.26083 1.673614,3.19954 4.275741,1.65365 z"
         id="path2084"
         inkscape:connector-curvature="0"
         sodipodi:nodetypes="sssccsscssccscscccssssscssccsssscscsccsscsscsccscccsccssscsssssccccscssssssscssssscscsscsccccccsscscscc" />
      <g
         id="g2107"
         transform="translate(125.61668,-103.43331)"
         style="filter:url(#filter2420)">
        <path
           style="fill:#a4d0fa;stroke-width:0.26458335"
           d="m -125.50133,347.29578 c -2.344,-0.8769 -1.66488,-2.95404 1.52098,-4.65209 0.88061,-0.46936 1.60446,-0.93569 1.60857,-1.0363 0.0137,-0.33536 -1.72419,-3.48572 -1.92414,-3.48798 -0.10828,-0.001 -0.84065,0.98003 -1.62747,2.18058 -2.39434,3.65329 -4.26919,5.29287 -6.09794,5.33274 -1.776,0.0387 -2.26417,-0.55742 -2.26417,-2.76494 0,-0.98007 0.23786,-2.93795 0.52857,-4.35084 0.29071,-1.41289 0.46228,-2.67616 0.38126,-2.80725 -0.27321,-0.44206 -0.88636,-0.2428 -1.84624,0.59998 -1.08799,0.95527 -5.52079,7.49443 -5.77973,8.52611 -0.10629,0.4235 -0.41438,0.74272 -0.81348,0.84289 -1.4621,0.36696 -1.51356,-0.34846 -0.41025,-5.70342 0.66832,-3.2437 0.73368,-3.886 0.42666,-4.19302 -0.52515,-0.52515 -1.26499,-0.0495 -2.51221,1.61526 -1.04669,1.39706 -3.35708,5.68791 -3.91316,7.26751 -0.35371,1.00477 -0.97361,1.33018 -1.57816,0.82845 -0.35899,-0.29793 -0.40264,-0.72249 -0.26832,-2.60928 0.0882,-1.23941 0.23804,-2.64041 0.3329,-3.11336 0.24479,-1.22046 -0.3576,-1.1163 -1.34888,0.23324 -2.12148,2.88821 -5.64046,5.2091 -7.39817,4.87936 -1.23095,-0.23093 -1.78014,-1.18848 -1.93671,-3.37674 -0.0709,-0.9911 -0.20904,-1.802 -0.30694,-1.802 -0.0979,0 -0.74397,0.77081 -1.43571,1.71292 -1.53244,2.08708 -3.05366,3.42476 -4.5403,3.99251 -1.02739,0.39237 -1.1852,0.39254 -1.94006,0.002 -1.02519,-0.53007 -1.6244,-1.65467 -1.6244,-3.04858 0,-0.58931 -0.12192,-1.07147 -0.27092,-1.07147 -0.149,0 -1.13127,0.65562 -2.18281,1.45693 -4.14571,3.15918 -7.61736,3.79921 -9.952,1.83474 -1.05528,-0.88795 -1.44564,-2.19274 -1.29283,-4.32129 0.28293,-3.94129 3.29323,-6.95974 6.99663,-7.01557 2.55638,-0.0385 3.7098,1.19928 3.15972,3.39095 -0.38757,1.54423 -4.06249,3.86049 -6.12495,3.86049 -1.36653,0 -1.82445,0.46376 -1.57579,1.5959 0.35548,1.61851 2.54563,2.27499 4.86259,1.45752 2.31324,-0.81616 5.58606,-3.55708 7.43712,-6.22842 1.92399,-2.7766 3.92689,-4.23334 5.82051,-4.23334 0.44488,0 1.45629,0.22756 2.2476,0.50568 1.41645,0.49784 1.45409,0.49784 2.43058,0 1.33873,-0.68252 1.77323,-0.65799 1.58754,0.0896 -0.0813,0.32742 -0.33368,1.30968 -0.56078,2.18281 -0.45794,1.76053 -0.63699,5.22884 -0.31755,6.15095 0.49178,1.41958 2.20522,0.91779 4.62804,-1.35537 2.18308,-2.04823 3.7448,-4.27888 3.7448,-5.34881 0,-0.74456 0.11603,-0.92102 0.70241,-1.06819 0.38632,-0.097 0.89234,-0.0547 1.12448,0.0938 0.46922,0.30033 0.4887,0.7402 0.18327,4.1392 -0.22942,2.55307 0.0213,2.84158 0.86356,0.99376 0.72581,-1.59232 2.59446,-4.15023 3.76199,-5.14959 1.37376,-1.17589 2.46682,-1.45882 3.17164,-0.82096 0.73867,0.66849 0.64481,2.20813 -0.42244,6.92923 -0.24622,1.08915 0.36312,0.61492 1.18985,-0.92604 1.04129,-1.94086 3.33441,-4.77406 4.4995,-5.55921 1.27564,-0.85965 2.01641,-0.98806 2.78704,-0.48313 0.83821,0.54922 0.8702,1.886 0.13036,5.44703 -0.28722,1.38244 -0.52378,2.88591 -0.52569,3.34104 -0.007,1.67224 1.34453,1.8156 3.04457,0.32295 1.31239,-1.1523 4.01668,-5.37357 4.49375,-7.01453 0.41517,-1.42807 1.60577,-2.73488 2.49167,-2.73488 0.56914,0 1.34362,0.80737 1.34362,1.40069 0,0.23814 -0.35719,0.83979 -0.79375,1.33701 -0.43656,0.49722 -0.79375,1.05024 -0.79375,1.22894 0,0.1787 0.37378,1.02619 0.83061,1.8833 0.62136,1.16579 0.97492,1.55839 1.40341,1.55839 0.82321,0 2.72445,-1.28041 4.25242,-2.86384 1.27841,-1.32481 2.24481,-1.75579 2.24481,-1.00111 0,0.48485 -2.93269,3.18736 -4.65317,4.28793 l -1.35759,0.86845 0.11124,1.27251 c 0.26856,3.07201 -3.05461,5.58262 -5.95381,4.498 z m 3.24855,-1.57183 c 0.85606,-0.74382 1.22048,-2.48554 0.57211,-2.73435 -0.5812,-0.22303 -2.77369,1.09689 -3.1334,1.88637 -0.6229,1.36711 1.25013,1.98723 2.56129,0.84798 z m -42.07215,-3.70417 c 2.0544,-2.1219 4.23456,-5.31371 4.01693,-5.88087 -0.24273,-0.63254 -2.25624,-1.44888 -3.59004,-1.45551 -1.03766,-0.005 -1.29387,0.12364 -2.26765,1.13993 -1.71457,1.78943 -2.58759,5.81581 -1.5746,7.26206 0.73553,1.05012 1.64023,0.76785 3.41536,-1.06561 z m -13.85597,-3.25403 c 1.61537,-0.81857 2.35582,-1.7719 2.35582,-3.03311 0,-1.26796 -0.50953,-1.69957 -1.76574,-1.49572 -1.68875,0.27405 -3.79051,2.92833 -3.79051,4.78699 0,0.70945 0.0399,0.73217 0.97757,0.55626 0.53767,-0.10086 1.53795,-0.46736 2.22286,-0.81442 z m -39.97752,8.19212 c -2.90074,-1.0624 -3.85845,-2.45551 -2.76312,-4.01932 0.58448,-0.83446 0.85565,-0.73718 1.34345,0.48195 0.75206,1.87959 3.43578,2.67977 5.57811,1.66317 1.00539,-0.47709 1.9244,-1.73207 1.92599,-2.63009 0.002,-0.83025 -1.13549,-2.36409 -3.49865,-4.71992 -2.27859,-2.27153 -2.58578,-2.79536 -2.58578,-4.40935 0,-2.4788 2.06361,-4.30419 5.24138,-4.63633 1.19265,-0.12466 1.77988,-0.0532 2.54447,0.30962 1.16312,0.55193 1.38869,0.97628 0.98729,1.85726 l -0.29226,0.64143 -0.97007,-0.65831 c -2.28918,-1.55347 -5.68744,-0.16687 -5.64935,2.30512 0.0145,0.94008 0.52069,1.63323 2.17074,2.97244 1.87113,1.51863 3.28777,3.33674 3.65099,4.68561 0.56152,2.08535 -0.72722,4.39709 -3.06348,5.49526 -1.18612,0.55754 -3.85864,0.9402 -4.61971,0.66146 z m 13.73517,-1.77103 c -0.49234,-0.33179 -1.05211,-0.89734 -1.24392,-1.25677 -0.51011,-0.95589 -0.26125,-4.97053 0.4562,-7.35934 0.32101,-1.06883 0.51946,-2.11063 0.44099,-2.31511 -0.0987,-0.25731 -0.59326,-0.37178 -1.60618,-0.37178 -1.57082,0 -1.76863,-0.22405 -0.93434,-1.05833 0.38841,-0.38841 0.88194,-0.52917 1.85542,-0.52917 h 1.32625 l 0.64759,-1.4643 c 0.51003,-1.15328 0.84472,-1.54668 1.57566,-1.85209 0.51045,-0.21327 1.05097,-0.38777 1.20116,-0.38777 0.42325,0 0.32453,0.71399 -0.25608,1.85208 -0.95833,1.87847 -1.00734,1.85208 3.43958,1.85208 2.18281,0 3.96875,0.0963 3.96875,0.21402 0,0.1177 -0.16865,0.44513 -0.37479,0.7276 -0.3334,0.45688 -0.80781,0.5282 -4.29667,0.64588 l -3.92189,0.13229 -0.34882,0.72938 c -0.68361,1.42942 -1.48868,6.20677 -1.22456,7.2666 0.48873,1.96108 2.55267,2.17072 4.54888,0.46204 1.08578,-0.92939 1.57553,-0.87768 1.25492,0.13248 -0.2353,0.74135 -2.05029,2.09945 -3.58514,2.68265 -1.67008,0.63458 -1.83807,0.6287 -2.92301,-0.10244 z m 8.54275,0.28575 c -0.44836,-0.44835 -0.40497,-1.01449 0.35151,-4.58682 0.36795,-1.7376 0.69867,-3.86622 0.73494,-4.73027 0.061,-1.45444 0.12003,-1.58902 0.79493,-1.81399 1.58899,-0.52967 1.80737,0.17604 1.1016,3.55993 -0.22203,1.06454 -0.46818,2.14389 -0.547,2.39855 -0.31044,1.00303 0.46138,0.38438 1.23861,-0.9928 0.45188,-0.8007 1.63467,-2.32643 2.62841,-3.39052 2.05414,-2.19955 3.57674,-3.06364 4.70401,-2.66957 0.96316,0.3367 1.08342,1.3801 0.24937,2.16364 -0.55453,0.52095 -0.71187,0.54912 -1.4696,0.26311 -0.72832,-0.27491 -0.98351,-0.24764 -1.8006,0.1924 -1.4905,0.80268 -4.94709,5.65162 -5.65969,7.93947 -0.55135,1.77015 -1.52536,2.468 -2.32649,1.66687 z m 91.8511,-11.64024 c -0.12118,-0.18996 -0.28353,-1.00023 -0.36078,-1.80059 l -0.14045,-1.45521 -0.5706,1.07604 c -1.08373,2.04371 -1.95769,2.13342 -2.31337,0.23745 -0.2773,-1.47811 -0.94173,-1.00052 -0.94173,0.67691 0,0.84905 -0.42824,1.25907 -0.86199,0.82532 -0.2059,-0.2059 -0.16212,-0.80297 0.15534,-2.11824 0.24314,-1.00734 0.44206,-2.20518 0.44206,-2.66187 0,-0.92825 0.57627,-1.3236 1.18859,-0.81543 0.21345,0.17715 0.46511,0.90267 0.55924,1.61227 0.0941,0.7096 0.32247,1.49713 0.50742,1.75007 0.2981,0.40767 0.43091,0.25958 1.16979,-1.30426 0.50749,-1.0741 1.04337,-1.83075 1.37001,-1.93442 0.29508,-0.0937 0.57448,-0.12964 0.62089,-0.08 0.0464,0.0497 0.12675,1.45772 0.1785,3.129 0.0825,2.6645 0.0401,3.04913 -0.34425,3.1235 -0.24109,0.0466 -0.53749,-0.0706 -0.65867,-0.26056 z m -9.74471,-0.46766 c -0.0965,-0.15613 -0.0312,-1.17778 0.14501,-2.27032 0.17625,-1.09255 0.2446,-2.06231 0.15189,-2.15501 -0.0927,-0.0927 -0.47073,-0.0309 -0.84005,0.1374 -0.92152,0.41987 -1.21545,-0.30497 -0.43866,-1.08175 0.54432,-0.54433 0.56998,-0.54549 1.61708,-0.0733 0.77316,0.34864 1.39139,0.43491 2.26179,0.31561 1.33587,-0.1831 1.59078,0.18179 0.69398,0.99339 -0.42644,0.38592 -0.58797,0.4034 -1.05173,0.11378 -0.80958,-0.50559 -1.0668,-0.0731 -1.29084,2.17016 -0.15177,1.51964 -0.29579,1.9848 -0.63467,2.04982 -0.24109,0.0462 -0.5173,-0.0436 -0.6138,-0.19977 z"
           id="path2111"
           inkscape:connector-curvature="0"
           sodipodi:nodetypes="ccscccsscccccsccccssccscccsssccccscscscscccssccccccccscccccsssscssscccccsccsccccsccscsccccccccsccccccccsccsscscscccscsscscsccccccccsccccscccsccccccsscsccccccccccccccccsccsccc" />
        <path
           style="fill:#000000;fill-opacity:1;stroke-width:0.26458335"
           d="m -305.93394,353.29397 c -0.58463,-0.24684 -0.36477,-1.93344 1.39355,-10.69041 0.94836,-4.72308 1.69098,-8.76547 1.65026,-8.98307 -0.0527,-0.28155 -0.34321,-0.37246 -1.00744,-0.31523 -0.64297,0.0554 -1.15646,-0.095 -1.65026,-0.48345 -1.26489,-0.99497 -0.953,-1.24398 1.73056,-1.38166 1.34606,-0.0691 2.67422,-0.22215 2.95147,-0.3402 0.47629,-0.20282 0.49411,-0.11744 0.32336,1.54921 -0.19971,1.94924 -0.12046,2.03112 1.20796,1.24804 2.09658,-1.23591 4.03679,-0.84374 5.61871,1.13568 0.74971,0.93811 0.81204,1.17345 0.80589,3.04271 -0.006,1.66965 -0.1293,2.25863 -0.70398,3.34888 -1.62853,3.0896 -5.18578,4.91753 -8.03746,4.13015 -0.56405,-0.15574 -1.12076,-0.18794 -1.23715,-0.0716 -0.39372,0.39372 -1.29664,5.7128 -1.14127,6.72318 0.10796,0.70205 0.055,0.99324 -0.18128,0.9958 -0.18362,0.002 -0.57198,0.0549 -0.86302,0.11759 -0.29105,0.0627 -0.678,0.0511 -0.8599,-0.0257 z m 8.41771,-9.16144 c 1.556,-1.04859 2.40135,-2.5458 2.56111,-4.53602 0.22827,-2.84376 -0.93417,-4.65433 -2.98819,-4.65433 -0.86106,0 -2.29619,0.65858 -2.90779,1.33439 -0.3986,0.44045 -1.66732,5.62307 -1.69838,6.93773 -0.006,0.25679 0.37593,0.70283 0.84887,0.99119 1.1967,0.72964 3.04112,0.69748 4.18438,-0.073 z m 28.14014,1.68499 c -1.30676,-0.5935 -2.12906,-1.58421 -2.52308,-3.03981 -0.16207,-0.59876 -0.33803,-1.24048 -0.391,-1.42603 -0.0589,-0.20629 -0.8287,0.27755 -1.98116,1.24519 -4.08003,3.42574 -6.37964,3.04907 -6.76788,-1.10856 -0.0916,-0.981 -0.25116,-1.78363 -0.35455,-1.78363 -0.10339,0 -0.68441,0.70769 -1.29114,1.57265 -1.37524,1.96053 -3.56603,3.90681 -4.82526,4.28671 -3.05729,0.92235 -4.43334,-3.31725 -2.48547,-7.65768 1.01801,-2.26843 3.04662,-4.13138 4.96452,-4.5591 1.21946,-0.27197 1.58417,-0.24351 2.99867,0.234 l 1.61034,0.54362 1.11854,-0.55341 c 0.64374,-0.31849 1.21431,-0.45388 1.34417,-0.31895 0.12523,0.13012 0.002,1.11752 -0.27696,2.21882 -0.54906,2.1678 -0.68338,6.06391 -0.23776,6.89656 0.86862,1.62305 4.34547,-0.78447 7.16777,-4.96325 2.00064,-2.96222 3.86726,-4.11015 6.75832,-4.15624 1.38394,-0.0221 1.73615,0.0716 2.3151,0.61541 0.83395,0.78339 0.85505,1.16188 0.10378,1.8618 -0.78942,0.73545 -0.9331,0.6912 -1.4698,-0.45271 -0.40525,-0.86374 -0.59832,-1.00308 -1.49133,-1.07634 -1.38896,-0.11393 -2.40042,0.35433 -3.34704,1.54952 -1.01863,1.28613 -1.57944,2.89443 -1.57944,4.52952 0,4.55906 3.88729,5.61264 7.93262,2.14998 1.40241,-1.2004 4.02418,-4.46005 4.4374,-5.51702 0.45964,-1.1757 1.71291,-7.77836 1.55469,-8.19067 -0.097,-0.25268 -0.41584,-0.31656 -1.05916,-0.21216 -0.75665,0.12279 -1.04506,0.0247 -1.62087,-0.55107 -0.38524,-0.38525 -0.65985,-0.82221 -0.61024,-0.97103 0.0522,-0.15661 1.33985,-0.303 3.0568,-0.34753 2.88986,-0.0749 2.96354,-0.0626 2.84862,0.47655 -0.0649,0.30441 -0.43069,2.16082 -0.81291,4.12535 -0.38222,1.96453 -0.9187,4.51775 -1.19216,5.67382 -0.27347,1.15607 -0.44826,2.15091 -0.38842,2.21074 0.0598,0.0598 0.63286,-0.70744 1.27339,-1.70507 2.11704,-3.29729 4.64725,-4.93542 6.12628,-3.96633 1.14466,0.75001 1.48037,1.79276 1.6533,5.1353 0.0883,1.70642 0.25942,3.37047 0.38029,3.69789 0.36827,0.99758 1.21764,0.70994 3.02312,-1.02378 1.2418,-1.19244 1.79942,-1.96019 2.11605,-2.91347 0.53282,-1.60419 2.65573,-3.991 4.04366,-4.54633 1.81439,-0.72598 2.88694,-0.80906 4.16135,-0.32236 1.3096,0.50014 1.70535,1.02304 1.70535,2.25325 0,1.17689 -0.5987,2.17837 -1.79992,3.01082 -1.28084,0.88762 -3.50726,1.75594 -4.50234,1.75594 -1.14276,0 -1.74903,0.56891 -1.5312,1.43682 0.5475,2.18141 2.99949,2.65731 5.99052,1.16268 1.78565,-0.89231 5.20223,-3.94056 6.47465,-5.77665 0.71297,-1.02882 1.45371,-1.39607 1.45371,-0.72073 0,0.91453 -2.78908,4.33898 -4.90564,6.02318 -2.48254,1.97542 -4.84215,2.99165 -7.00062,3.01503 -1.52265,0.0165 -1.88419,-0.0775 -2.70713,-0.70401 -0.57462,-0.43745 -1.13007,-1.19514 -1.40622,-1.91823 -0.25105,-0.65735 -0.5188,-1.19518 -0.59502,-1.19518 -0.0762,0 -0.81872,0.64876 -1.65001,1.44168 -1.63456,1.5591 -2.58537,1.96254 -3.569,1.51437 -1.23113,-0.56094 -1.55023,-1.47517 -1.73593,-4.97347 -0.24451,-4.60603 -0.99136,-5.55001 -2.99746,-3.78863 -1.48275,1.30187 -4.7672,6.92503 -5.1685,8.84876 -0.12497,0.59906 -0.33107,0.81326 -0.84028,0.87327 -1.19731,0.14113 -1.38163,-0.43887 -0.91899,-2.89177 0.22626,-1.19967 0.35425,-2.23836 0.28442,-2.3082 -0.0698,-0.0698 -0.87115,0.64987 -1.78069,1.59935 -2.51592,2.62638 -5.26361,4.1889 -7.34226,4.17527 -0.3638,-0.002 -1.14707,-0.22488 -1.74059,-0.49445 z m -15.86865,-3.36205 c 1.64492,-1.64492 4.646,-5.87901 4.47775,-6.31746 -0.20815,-0.54242 -2.58141,-1.46042 -3.77554,-1.46042 -2.09742,0 -3.85333,2.50242 -4.17531,5.95039 -0.3025,3.23946 1.24622,4.05437 3.4731,1.82749 z m 48.25661,-3.15903 c 2.48286,-0.73733 4.11855,-2.81724 3.49837,-4.44844 -0.22885,-0.60192 -0.4199,-0.69957 -1.36866,-0.69957 -0.96593,0 -1.25567,0.15585 -2.3364,1.25677 -1.24659,1.26988 -2.08091,3.09239 -1.77755,3.88293 0.19714,0.51375 0.28106,0.5141 1.98424,0.008 z m -86.68612,6.44074 c -0.51564,-0.51564 -0.3728,-1.30184 0.60854,-3.34955 0.50932,-1.06278 0.92604,-2.04168 0.92604,-2.17535 0,-0.13366 -0.59531,-0.24302 -1.32292,-0.24302 -0.7276,0 -1.32291,-0.10061 -1.32291,-0.22358 0,-0.58933 1.16554,-1.19698 2.50975,-1.30846 1.44192,-0.11957 1.44452,-0.1214 2.8931,-2.04602 4.28438,-5.69232 6.54457,-7.87985 7.68818,-7.441 0.2367,0.0908 0.3719,1.41566 0.48095,4.71281 0.16419,4.96441 0.73339,8.33824 1.72901,10.24837 0.70422,1.35107 0.70825,1.24939 -0.0697,1.75913 -0.4975,0.32597 -0.76656,0.35603 -1.18456,0.13232 -0.74237,-0.3973 -1.09463,-1.11632 -1.75619,-3.58461 l -0.56732,-2.11667 -0.96682,0.0132 c -0.53174,0.007 -2.10296,0.037 -3.49159,0.0661 l -2.52477,0.0529 -0.78231,1.65365 c -0.43616,0.92196 -0.7824,2.09555 -0.78251,2.65238 -1.8e-4,0.82853 -0.11587,1.04271 -0.6789,1.25677 -0.86928,0.3305 -1.00074,0.32486 -1.38506,-0.0595 z m 10.35929,-7.29259 c 0.21166,-0.34248 -0.4798,-6.81216 -0.72361,-6.77046 -0.31927,0.0546 -3.04033,3.41836 -4.09594,5.06339 -0.48022,0.74836 -0.7969,1.484 -0.70374,1.63474 0.19516,0.31577 5.33127,0.38303 5.52329,0.0723 z"
           id="path2109"
           inkscape:connector-curvature="0" />
      </g>
      <path
         style="opacity:1;fill:#a4d0fa;fill-opacity:1;stroke:#a4d0fa;stroke-width:1.13385832;stroke-linecap:round;stroke-linejoin:bevel;stroke-miterlimit:4;stroke-dasharray:none;stroke-opacity:1"
         d="m -332.83962,667.88697 -23.77769,-0.13623 -5.40703,-4.33177 c -6.91906,-5.54313 -19.02757,-17.27927 -24.11609,-23.37447 -12.50796,-14.98247 -21.03525,-31.46806 -24.04815,-46.4917 -1.26286,-6.29719 -1.22807,-21.6644 0.0601,-26.55499 0.88424,-3.35698 2.27823,-6.68384 1.58726,-3.78807 -0.16572,0.69448 -0.5663,3.95166 -0.89018,7.23819 -1.3744,13.94634 2.35458,29.20008 9.96858,40.77746 4.12797,6.27673 15.02994,16.66451 16.22998,15.46448 0.42814,-0.42815 -1.11697,-2.9762 -3.88485,-6.40651 -7.73801,-9.58994 -14.09729,-22.38246 -16.19451,-32.57742 -0.98371,-4.78197 -0.7263,-14.4206 0.51256,-19.1929 2.33769,-9.00514 7.42855,-15.92558 14.44073,-19.63054 6.42392,-3.39415 6.78306,-4.3645 1.61169,-4.35459 -3.58105,0.007 -7.23406,0.87273 -10.30414,2.44236 -1.16955,0.59795 -2.29167,1.08718 -2.4936,1.08718 -0.70759,0 2.63066,-3.134 5.88275,-5.52282 10.84813,-7.96849 20.33418,-11.39326 49.71997,-17.95046 23.62542,-5.27183 32.22802,-8.03656 37.17614,-11.94783 6.64417,-5.25191 5.82349,-12.02135 -2.37302,-19.57393 -3.27511,-3.01781 -5.12821,-4.16102 -13.47679,-8.31407 -11.10526,-5.52439 -12.76044,-6.14434 -27.86228,-10.43595 -6.11143,-1.73673 -11.22532,-3.27336 -11.36422,-3.41476 -0.3968,-0.40393 21.32702,0.31765 27.7792,0.92271 18.83341,1.76614 36.62246,6.48937 51.26524,13.61164 8.93964,4.34824 15.16802,8.47566 20.71867,13.7298 16.83877,15.9393 15.07229,28.04042 -5.55614,38.06185 -9.42422,4.57835 -19.90398,7.76108 -40.66888,12.35125 -28.04925,6.20041 -39.83205,11.64488 -45.45687,21.00424 l -1.76777,2.94145 -0.16903,8.80247 c -0.19112,9.95259 0.0631,11.46078 2.98419,17.70118 8.06156,17.22234 24.91647,31.76268 48.70262,42.01466 16.07668,6.92914 38.45601,12.865 53.2325,14.11928 13.12563,1.11416 56.35908,-2.23732 78.73116,-6.10329 22.09862,-3.81871 47.71678,-12.70308 74.107464,-25.70043 24.594715,-12.11285 41.834463,-24.34699 58.847538,-41.76101 18.485357,-18.92099 27.625414,-35.60275 31.3338963,-57.18833 1.2125821,-7.05793 1.3026473,-17.3023 0.2076823,-23.62224 -3.5482816,-20.48003 -16.5663906,-34.84059 -37.8611836,-41.76548 -15.16634,-4.93197 -32.534615,-7.14553 -67.932757,-8.65795 -26.90791,-1.14967 -38.76932,-2.09004 -51.96983,-4.12014 -36.71747,-5.64677 -57.02208,-16.70606 -61.93846,-33.73597 -1.39732,-4.84019 -0.86298,-13.86646 1.17529,-19.8535 6.14706,-18.05584 21.24848,-35.69061 44.5477,-52.02084 28.93995,-20.28376 71.33667,-37.18654 115.409929,-46.01177 10.678944,-2.13835 13.555126,-2.40782 15.000357,-1.40539 2.241801,1.55494 18.073932,17.67991 17.701241,18.02865 -0.207192,0.19387 -3.899623,0.73597 -8.205398,1.20467 -20.620719,2.24465 -43.104573,7.64001 -60.235769,14.45454 -26.06902,10.36987 -43.25354,26.98759 -43.29382,41.86585 -0.0196,7.24321 3.98019,12.63868 12.38536,16.707 10.97369,5.31158 25.66858,6.98678 74.981788,8.54782 9.028238,0.28579 20.506097,0.74721 25.506352,1.02537 63.144827,3.51273 101.185323,21.93917 118.448831,57.37545 4.574485,9.3899 11.097273,30.67358 12.110607,39.51645 0.649326,5.66679 0.640336,25.39807 -0.01515,33.14901 -1.489167,17.60901 -7.924076,38.30647 -18.487186,59.46279 -12.41435,24.86408 -24.951283,41.68142 -52.186829,70.00467 l -11.57658,12.03891 -78.147578,0.3363 c -71.760745,0.30882 -213.276305,0.28669 -270.705655,-0.0423 z M 44.869669,601.71467 C 65.6095,590.48786 81.32367,569.05688 87.960555,542.94735 c 2.029361,-7.98351 2.809724,-14.27979 3.105956,-25.05998 0.219764,-7.99733 0.08942,-11.78642 -0.599409,-17.42513 -2.879061,-23.56777 -12.208325,-43.97778 -26.831233,-58.69977 -2.358216,-2.3742 -4.505275,-4.31672 -4.771238,-4.31672 -1.029245,0 -0.372721,2.46069 2.488011,9.32528 5.287532,12.68789 8.338869,22.69884 10.152987,33.31029 2.880369,16.84835 2.215239,43.35867 -1.520254,60.59364 -4.352116,20.07995 -16.056501,43.72859 -28.248391,57.07572 -6.251692,6.84407 -5.034075,8.3848 3.132685,3.96399 z M -271.01201,532.88625 c 2.6768,-1.33978 5.13495,-3.0836 7.16677,-5.08412 8.04133,-7.91745 8.10219,-16.91594 0.17066,-25.23131 -1.57419,-1.65039 -3.15214,-3.00069 -3.50655,-3.00069 -0.68582,0 -0.87057,1.19305 -1.72791,11.15788 -0.69592,8.08852 -2.9024,13.99954 -7.51961,20.14447 -1.14189,1.51971 -2.07616,3.05333 -2.07616,3.40805 0,1.28379 3.40991,0.64927 7.4928,-1.39428 z m 77.65609,-98.35243 c 0.73144,-0.49474 1.72423,-3.46945 1.72423,-5.16638 0,-1.70272 -0.69955,-2.30633 -6.16669,-5.32107 -8.29128,-4.57204 -13.1109,-9.44009 -15.62451,-15.78152 -0.97863,-2.46896 -1.14929,-3.85085 -1.16794,-9.45744 -0.0273,-8.20191 0.78525,-10.62914 5.82754,-17.40848 3.5848,-4.81975 4.18576,-6.64488 2.30602,-7.00336 -2.20212,-0.41995 -9.23231,8.9224 -11.43924,15.2015 -2.51955,7.16857 -2.39972,19.1931 0.25641,25.72987 3.64317,8.9659 11.11641,16.32011 19.18988,18.88421 2.31432,0.73502 4.29883,0.86072 5.0943,0.32267 z"
         id="path2113"
         inkscape:connector-curvature="0"
         transform="matrix(0.26458333,0,0,0.26458333,-49.177593,37.952273)" />
    </g>
  </g>
</svg>
