<?xml version="1.0" encoding="UTF-8"?>
<svg width="128px" height="128px" viewBox="0 0 128 128" version="1.1" xmlns="http://www.w3.org/2000/svg" xmlns:xlink="http://www.w3.org/1999/xlink">
    <title>jade-original</title>
    <g id="jade-original" stroke="none" stroke-width="1" fill="none" fill-rule="evenodd">
        <path d="M4.98913043,91 C3.31718532,91 1.65415847,90.7621588 0,90.2864693 L0,83.6004228 C1.56522522,83.9527854 3.02370866,84.1289641 4.37549407,84.1289641 C6.13637244,84.1289641 7.56372971,83.5960237 8.6576087,82.5301268 C9.75148768,81.46423 10.5474283,79.7773195 11.0454545,77.4693446 L18.8626482,41 L27,41 L18.9160079,78.6057082 C17.9911021,82.9221498 16.430347,86.0669387 14.2336957,88.0401691 C12.0370444,90.0133996 8.95555343,91 4.98913043,91 Z M48.5132193,69.7547684 L36.007776,69.7547684 L31.4603421,79 L23,79 L43.251944,40 L53.1135303,40 L57,79 L49.1477449,79 L48.5132193,69.7547684 Z M48,63 L47.2972973,53.6885759 C47.1171162,51.3651423 47.027027,49.1215549 47.027027,46.9577465 L47.027027,46 C46.2342303,48.1283362 45.2522581,50.3807915 44.0810811,52.7574335 L39,63 L48,63 Z M95,55.75171 C95,60.731215 94.1511896,65.0570952 92.4535433,68.7294802 C90.755897,72.4018651 88.3004098,75.1983488 85.0870079,77.119015 C81.873606,79.0396813 78.0842738,80 73.7188976,80 L62,80 L70.0291339,41 L80.3188976,41 C84.9960864,41 88.6121919,42.2715331 91.1673228,44.8146375 C93.7224537,47.3577419 95,51.0033962 95,55.75171 Z M73.8361204,73 C76.4760444,73 78.7770247,72.3347405 80.7391304,71.0042017 C82.7012361,69.6736628 84.235223,67.7172748 85.3411371,65.134979 C86.4470512,62.5526832 87,59.598406 87,56.2720588 C87,53.5759669 86.3534067,51.5232914 85.0602007,50.1139706 C83.7669946,48.7046498 81.9074815,48 79.4816054,48 L76.4046823,48 L71,73 L73.8361204,73 Z M119.748004,80 L98,80 L106.225377,41 L128,41 L126.562555,47.7756498 L112.933452,47.7756498 L111.149956,56.3385773 L123.847382,56.3385773 L122.383319,63.1142271 L109.685892,63.1142271 L107.556344,73.1709986 L121.185448,73.1709986 L119.748004,80 Z" id="JADE" fill="#000000"></path>
    </g>
</svg>