<?xml version="1.0" encoding="UTF-8" standalone="no"?>
<!-- Created with Inkscape (http://www.inkscape.org/) -->

<svg
   xmlns:dc="http://purl.org/dc/elements/1.1/"
   xmlns:cc="http://creativecommons.org/ns#"
   xmlns:rdf="http://www.w3.org/1999/02/22-rdf-syntax-ns#"
   xmlns:svg="http://www.w3.org/2000/svg"
   xmlns="http://www.w3.org/2000/svg"
   xmlns:sodipodi="http://sodipodi.sourceforge.net/DTD/sodipodi-0.dtd"
   xmlns:inkscape="http://www.inkscape.org/namespaces/inkscape"
   width="82.396492mm"
   height="24.089628mm"
   viewBox="0 0 82.396492 24.089628"
   version="1.1"
   id="svg29383"
   inkscape:version="0.92.3 (2405546, 2018-03-11)"
   sodipodi:docname="mnemonic.svg">
  <defs
     id="defs29377" />
  <sodipodi:namedview
     id="base"
     pagecolor="#ffffff"
     bordercolor="#666666"
     borderopacity="1.0"
     inkscape:pageopacity="0.0"
     inkscape:pageshadow="2"
     inkscape:zoom="3.959798"
     inkscape:cx="179.28574"
     inkscape:cy="5.8688056"
     inkscape:document-units="mm"
     inkscape:current-layer="layer1"
     showgrid="false"
     inkscape:window-width="3726"
     inkscape:window-height="2049"
     inkscape:window-x="114"
     inkscape:window-y="55"
     inkscape:window-maximized="1"
     fit-margin-top="0"
     fit-margin-left="0"
     fit-margin-right="0"
     fit-margin-bottom="0" />
  <metadata
     id="metadata29380">
    <rdf:RDF>
      <cc:Work
         rdf:about="">
        <dc:format>image/svg+xml</dc:format>
        <dc:type
           rdf:resource="http://purl.org/dc/dcmitype/StillImage" />
        <dc:title></dc:title>
      </cc:Work>
    </rdf:RDF>
  </metadata>
  <g
     inkscape:label="Layer 1"
     inkscape:groupmode="layer"
     id="layer1"
     transform="translate(167.25447,-135.7459)">
    <path
       style="fill:none;fill-rule:evenodd;stroke:#1cb200;stroke-width:0.26458332px;stroke-linecap:butt;stroke-linejoin:miter;stroke-opacity:1"
       d="m -121.94457,141.41555 7.74851,2.50409 12.66221,0.56697 8.409967,-1.74814 -7.228797,-4.29948 -1.18117,6.09486 -5.90589,-3.35453 6.99257,-2.78758 -12.94569,-1.18117 5.95312,4.01599 -6.52009,2.64584 0.61422,-6.66183 z"
       id="path29988"
       inkscape:connector-curvature="0" />
    <circle
       style="opacity:1;fill:#fd6500;fill-opacity:1;stroke:none;stroke-width:0.25;stroke-linecap:round;stroke-linejoin:round;stroke-miterlimit:4;stroke-dasharray:none;stroke-opacity:0.96862745"
       id="path29939"
       cx="-121.80282"
       cy="141.3683"
       r="1.4646577" />
    <circle
       style="opacity:1;fill:#fd6500;fill-opacity:1;stroke:none;stroke-width:0.25;stroke-linecap:round;stroke-linejoin:round;stroke-miterlimit:4;stroke-dasharray:none;stroke-opacity:0.96862745"
       id="path29939-7"
       cx="-113.39285"
       cy="137.21056"
       r="1.4646577" />
    <circle
       style="opacity:1;fill:#fd6500;fill-opacity:1;stroke:none;stroke-width:0.25;stroke-linecap:round;stroke-linejoin:round;stroke-miterlimit:4;stroke-dasharray:none;stroke-opacity:0.96862745"
       id="path29939-5"
       cx="-114.1488"
       cy="143.96687"
       r="1.4646577" />
    <circle
       style="opacity:1;fill:#fd6500;fill-opacity:1;stroke:none;stroke-width:0.25;stroke-linecap:round;stroke-linejoin:round;stroke-miterlimit:4;stroke-dasharray:none;stroke-opacity:0.96862745"
       id="path29939-1"
       cx="-107.62872"
       cy="141.08482"
       r="1.4646577" />
    <circle
       style="opacity:1;fill:#fd6500;fill-opacity:1;stroke:none;stroke-width:0.25;stroke-linecap:round;stroke-linejoin:round;stroke-miterlimit:4;stroke-dasharray:none;stroke-opacity:0.96862745"
       id="path29939-3"
       cx="-100.44717"
       cy="138.3445"
       r="1.4646577" />
    <circle
       style="opacity:1;fill:#fd6500;fill-opacity:1;stroke:none;stroke-width:0.25;stroke-linecap:round;stroke-linejoin:round;stroke-miterlimit:4;stroke-dasharray:none;stroke-opacity:0.96862745"
       id="path29939-2"
       cx="-101.5811"
       cy="144.4866"
       r="1.4646577" />
    <circle
       style="opacity:1;fill:#fd6500;fill-opacity:1;stroke:none;stroke-width:0.25;stroke-linecap:round;stroke-linejoin:round;stroke-miterlimit:4;stroke-dasharray:none;stroke-opacity:0.96862745"
       id="path29939-9"
       cx="-93.218376"
       cy="142.69122"
       r="1.4646577" />
    <g
       aria-label="APACHE
MNEMONIC"
       style="font-style:normal;font-variant:normal;font-weight:normal;font-stretch:normal;font-size:8.82066441px;line-height:125%;font-family:Montserrat;-inkscape-font-specification:Montserrat;letter-spacing:0px;word-spacing:0px;fill:#000000;fill-opacity:1;stroke:none;stroke-width:0.32075143px;stroke-linecap:butt;stroke-linejoin:miter;stroke-opacity:1"
       id="text29992">
      <path
         d="m -165.9133,145.15426 -0.47899,1.08799 h -0.86218 l 2.10755,-4.78305 h 0.86218 l 2.10755,4.78305 h -0.86218 l -0.47899,-1.08799 z m 2.06649,-0.74585 -0.86902,-1.9707 -0.86902,1.9707 z"
         style="font-size:6.84269714px;stroke-width:0.32075143px"
         id="path831" />
      <path
         d="m -159.86992,141.4592 q 1.08799,0 1.58751,0.41741 0.49951,0.4174 0.49951,1.28642 0,0.86903 -0.5132,1.27275 -0.50636,0.40372 -1.56013,0.40372 h -0.8485 v 1.40275 h -0.80744 v -4.78305 z m 0.10264,2.64813 q 0.67059,0 0.91008,-0.25318 0.24634,-0.26003 0.24634,-0.7527 0,-0.49952 -0.30792,-0.7048 -0.30792,-0.20528 -0.96482,-0.20528 h -0.82113 v 1.91596 z"
         style="font-size:6.84269714px;stroke-width:0.32075143px"
         id="path833" />
      <path
         d="m -156.41104,145.15426 -0.47899,1.08799 h -0.86218 l 2.10755,-4.78305 h 0.86218 l 2.10755,4.78305 h -0.86218 l -0.47899,-1.08799 z m 2.06649,-0.74585 -0.86902,-1.9707 -0.86902,1.9707 z"
         style="font-size:6.84269714px;stroke-width:0.32075143px"
         id="path835" />
      <path
         d="m -149.82708,145.51008 q 0.4174,0 0.71848,-0.13685 0.30108,-0.1437 0.62953,-0.45162 l 0.52004,0.53373 q -0.75954,0.84165 -1.84752,0.84165 -1.08115,0 -1.79963,-0.69795 -0.71164,-0.69796 -0.71164,-1.76542 0,-1.06746 0.72532,-1.7791 0.73217,-0.71164 1.84069,-0.71164 1.11536,0 1.86121,0.82112 l -0.5132,0.5611 q -0.34214,-0.32845 -0.65006,-0.45846 -0.30108,-0.13001 -0.71164,-0.13001 -0.72532,0 -1.218,0.47215 -0.49267,0.4653 -0.49267,1.19747 0,0.72532 0.48583,1.218 0.49267,0.48583 1.16326,0.48583 z"
         style="font-size:6.84269714px;stroke-width:0.32075143px"
         id="path837" />
      <path
         d="m -146.97143,146.24225 v -4.78305 h 0.80743 v 2.07334 h 2.37442 v -2.07334 h 0.80744 v 4.78305 h -0.80744 v -1.95701 h -2.37442 v 1.95701 z"
         style="font-size:6.84269714px;stroke-width:0.32075143px"
         id="path839" />
      <path
         d="m -138.29254,141.4592 v 0.75954 h -2.55233 v 1.2659 h 2.29231 v 0.71848 h -2.29231 v 1.27959 h 2.63444 v 0.75954 h -3.44188 v -4.78305 z"
         style="font-size:6.84269714px;stroke-width:0.32075143px"
         id="path841" />
      <path
         d="m -155.769,159.57379 v -10.28457 q 0,-0.0924 -0.0924,-0.0924 h -0.58505 q -0.0308,0 -0.0924,0.10778 l -4.34169,6.89744 -4.32629,-6.89744 q -0.0616,-0.10778 -0.10778,-0.10778 h -0.56965 q -0.10777,0 -0.10777,0.10778 v 10.28457 q 0,0.0924 0.10777,0.0924 h 0.58505 q 0.0924,0 0.0924,-0.10778 v -8.80655 l 3.98758,6.32779 q 0.0462,0.0924 0.15396,0.0924 h 0.3849 q 0.10777,0 0.15396,-0.0924 l 3.98758,-6.32779 v 8.82195 q 0,0.0924 0.0924,0.0924 h 0.58505 q 0.0924,0 0.0924,-0.10778 z"
         style="font-style:normal;font-variant:normal;font-weight:300;font-stretch:normal;font-size:15.39606857px;font-family:HouschkaLight;-inkscape-font-specification:'HouschkaLight Light';stroke-width:0.32075143px"
         id="path843" />
      <path
         d="m -144.20463,159.57379 v -10.28457 q 0,-0.0924 -0.10777,-0.0924 h -0.55426 q -0.0924,0 -0.0924,0.10778 v 9.02209 l -7.52868,-9.08368 q -0.0462,-0.0462 -0.0924,-0.0462 h -0.55426 q -0.10777,0 -0.10777,0.10778 v 10.28457 q 0,0.0924 0.10777,0.0924 h 0.55426 q 0.10777,0 0.10777,-0.10778 l -0.0154,-9.03749 7.54408,9.08368 q 0.0308,0.0308 0.0462,0.0462 0.0154,0 0.0308,0.0154 h 0.55426 q 0.10777,0 0.10777,-0.10778 z"
         style="font-style:normal;font-variant:normal;font-weight:300;font-stretch:normal;font-size:15.39606857px;font-family:HouschkaLight;-inkscape-font-specification:'HouschkaLight Light';stroke-width:0.32075143px"
         id="path845" />
      <path
         d="m -134.38266,159.57379 v -0.52346 q 0,-0.0924 -0.0924,-0.0924 h -6.38937 v -4.17233 h 5.57338 q 0.10777,0 0.10777,-0.10778 v -0.52346 q 0,-0.0924 -0.10777,-0.0924 h -5.57338 v -4.14154 h 6.38937 q 0.0924,0 0.0924,-0.10777 v -0.52347 q 0,-0.0924 -0.0924,-0.0924 h -7.08219 q -0.10777,0 -0.10777,0.10778 v 10.28457 q 0,0.0924 0.10777,0.0924 h 7.08219 q 0.0924,0 0.0924,-0.10778 z"
         style="font-style:normal;font-variant:normal;font-weight:300;font-stretch:normal;font-size:15.39606857px;font-family:HouschkaLight;-inkscape-font-specification:'HouschkaLight Light';stroke-width:0.32075143px"
         id="path847" />
      <path
         d="m -122.54116,159.57379 v -10.28457 q 0,-0.0924 -0.0924,-0.0924 h -0.58505 q -0.0308,0 -0.0924,0.10778 l -4.34169,6.89744 -4.3263,-6.89744 q -0.0616,-0.10778 -0.10777,-0.10778 h -0.56966 q -0.10777,0 -0.10777,0.10778 v 10.28457 q 0,0.0924 0.10777,0.0924 h 0.58505 q 0.0924,0 0.0924,-0.10778 v -8.80655 l 3.98758,6.32779 q 0.0462,0.0924 0.15396,0.0924 h 0.3849 q 0.10778,0 0.15397,-0.0924 l 3.98758,-6.32779 v 8.82195 q 0,0.0924 0.0924,0.0924 h 0.58505 q 0.0924,0 0.0924,-0.10778 z"
         style="font-style:normal;font-variant:normal;font-weight:300;font-stretch:normal;font-size:15.39606857px;font-family:HouschkaLight;-inkscape-font-specification:'HouschkaLight Light';stroke-width:0.32075143px"
         id="path849" />
      <path
         d="m -109.79129,154.4469 q 0,-2.21703 -1.60119,-3.81822 -1.5858,-1.5858 -3.81823,-1.5858 -2.26322,0 -3.84901,1.5858 -1.5858,1.58579 -1.5858,3.81822 0,2.23243 1.5858,3.80283 1.58579,1.5704 3.84901,1.5704 2.21704,0 3.81823,-1.5704 1.60119,-1.60119 1.60119,-3.80283 z m -0.7852,0 q 0,1.89372 -1.37025,3.26397 -1.37025,1.33946 -3.26397,1.33946 -1.9245,0 -3.27936,-1.33946 -1.35485,-1.35485 -1.35485,-3.26397 0,-1.90911 1.35485,-3.26396 1.37025,-1.37025 3.27936,-1.37025 1.89372,0 3.26397,1.37025 1.37025,1.37025 1.37025,3.26396 z"
         style="font-style:normal;font-variant:normal;font-weight:300;font-stretch:normal;font-size:15.39606857px;font-family:HouschkaLight;-inkscape-font-specification:'HouschkaLight Light';stroke-width:0.32075143px"
         id="path851" />
      <path
         d="m -98.858397,159.57379 v -10.28457 q 0,-0.0924 -0.107773,-0.0924 h -0.554258 q -0.09238,0 -0.09238,0.10778 v 9.02209 l -7.528675,-9.08368 q -0.0462,-0.0462 -0.0924,-0.0462 h -0.55426 q -0.10777,0 -0.10777,0.10778 v 10.28457 q 0,0.0924 0.10777,0.0924 h 0.55426 q 0.10777,0 0.10777,-0.10778 l -0.0154,-9.03749 7.544071,9.08368 q 0.03079,0.0308 0.04619,0.0462 0.0154,0 0.03079,0.0154 h 0.554258 q 0.107773,0 0.107773,-0.10778 z"
         style="font-style:normal;font-variant:normal;font-weight:300;font-stretch:normal;font-size:15.39606857px;font-family:HouschkaLight;-inkscape-font-specification:'HouschkaLight Light';stroke-width:0.32075143px"
         id="path853" />
      <path
         d="m -95.502776,159.57379 v -10.28457 q 0,-0.0924 -0.107773,-0.0924 h -0.600446 q -0.107773,0 -0.107773,0.10778 v 10.28457 q 0,0.0924 0.107773,0.0924 h 0.600446 q 0.107773,0 0.107773,-0.10778 z"
         style="font-style:normal;font-variant:normal;font-weight:300;font-stretch:normal;font-size:15.39606857px;font-family:HouschkaLight;-inkscape-font-specification:'HouschkaLight Light';stroke-width:0.32075143px"
         id="path855" />
      <path
         d="m -84.882614,158.58845 -0.338713,-0.47728 q -0.06158,-0.0924 -0.138565,-0.0154 -1.401042,0.95456 -2.848273,0.95456 -1.87832,0 -3.233174,-1.33946 -1.354854,-1.35485 -1.354854,-3.27936 0,-1.86293 1.354854,-3.21778 1.37025,-1.37025 3.233174,-1.37025 1.401043,0 2.863669,0.95456 0.07698,0.077 0.138565,-0.0154 l 0.323317,-0.49268 q 0.04619,-0.0616 -0.03079,-0.13856 -1.647379,-1.09312 -3.294759,-1.09312 -2.201637,0 -3.802829,1.60119 -1.601191,1.60119 -1.601191,3.77204 0,2.26322 1.585795,3.83362 1.585795,1.5704 3.818225,1.5704 1.924509,0 3.294759,-1.10852 0.09238,-0.077 0.03079,-0.13856 z"
         style="font-style:normal;font-variant:normal;font-weight:300;font-stretch:normal;font-size:15.39606857px;font-family:HouschkaLight;-inkscape-font-specification:'HouschkaLight Light';stroke-width:0.32075143px"
         id="path857" />
    </g>
  </g>
</svg>
