<?xml version="1.0" encoding="UTF-8" standalone="no"?>
<!-- Created with Inkscape (http://www.inkscape.org/) -->

<svg
   xmlns:dc="http://purl.org/dc/elements/1.1/"
   xmlns:cc="http://creativecommons.org/ns#"
   xmlns:rdf="http://www.w3.org/1999/02/22-rdf-syntax-ns#"
   xmlns:svg="http://www.w3.org/2000/svg"
   xmlns="http://www.w3.org/2000/svg"
   xmlns:sodipodi="http://sodipodi.sourceforge.net/DTD/sodipodi-0.dtd"
   xmlns:inkscape="http://www.inkscape.org/namespaces/inkscape"
   width="228.77911mm"
   height="48.697411mm"
   viewBox="0 0 228.77911 48.697411"
   version="1.1"
   id="svg846"
   inkscape:version="0.92.3 (2405546, 2018-03-11)"
   sodipodi:docname="dubbo.svg">
  <defs
     id="defs840" />
  <sodipodi:namedview
     id="base"
     pagecolor="#ffffff"
     bordercolor="#666666"
     borderopacity="1.0"
     inkscape:pageopacity="0.0"
     inkscape:pageshadow="2"
     inkscape:zoom="0.7"
     inkscape:cx="-453.51422"
     inkscape:cy="145.00875"
     inkscape:document-units="mm"
     inkscape:current-layer="layer1"
     showgrid="false"
     fit-margin-top="0"
     fit-margin-left="0"
     fit-margin-right="0"
     fit-margin-bottom="0"
     inkscape:window-width="3726"
     inkscape:window-height="2049"
     inkscape:window-x="114"
     inkscape:window-y="55"
     inkscape:window-maximized="1" />
  <metadata
     id="metadata843">
    <rdf:RDF>
      <cc:Work
         rdf:about="">
        <dc:format>image/svg+xml</dc:format>
        <dc:type
           rdf:resource="http://purl.org/dc/dcmitype/StillImage" />
        <dc:title></dc:title>
      </cc:Work>
    </rdf:RDF>
  </metadata>
  <g
     inkscape:label="Layer 1"
     inkscape:groupmode="layer"
     id="layer1"
     transform="translate(-0.17385226,-138.50282)">
    <path
       style="fill:#203044;fill-opacity:1;stroke-width:0.07663076"
       d="m 64.080202,187.18471 c -0.019,-0.0172 -0.25874,-0.0506 -0.53269,-0.0743 -2.40588,-0.20817 -5.19887,-1.00022 -7.3673,-2.08927 -5.01039,-2.51637 -8.04345,-6.89416 -8.57061,-12.37048 -0.0598,-0.62158 -0.0782,-5.69083 -0.0622,-17.2036 l 0.0226,-16.32235 h 18.73623 18.73622 l 0.0223,16.32235 c 0.0153,11.21379 -0.004,16.59817 -0.0601,17.2036 -0.38592,4.12736 -2.20404,7.63183 -5.31548,10.24576 -1.99851,1.67895 -4.70432,2.99964 -7.55894,3.68947 -0.59571,0.14396 -1.90306,0.38713 -2.75871,0.51313 -0.38311,0.0564 -5.2365,0.13498 -5.29125,0.0856 z m 5.48282,-17.40766 v -3.29512 h -3.33343 -3.33344 l -0.02,3.21847 c -0.011,1.77016 -0.003,3.26195 0.0171,3.31509 0.0292,0.0761 0.74095,0.0924 3.35346,0.0767 l 3.31637,-0.02 z m 0,-15.9392 v -3.29512 h -3.33343 -3.33344 l -0.02,3.21847 c -0.011,1.77016 -0.003,3.26195 0.0171,3.3151 0.0292,0.0761 0.74095,0.0924 3.35346,0.0767 l 3.31637,-0.02 z m 134.518268,33.34353 c -0.0172,-0.0153 -0.25541,-0.0476 -0.52937,-0.0717 -1.28848,-0.11345 -2.83836,-0.41695 -4.55953,-0.89285 -2.90914,-0.80437 -6.10801,-2.66036 -8.30409,-4.81806 -3.63313,-3.56963 -5.67661,-8.21762 -6.42338,-14.61032 -0.19195,-1.64326 -0.19004,-6.2555 0.003,-7.89263 0.57049,-4.83132 1.81585,-8.463 4.00932,-11.69189 3.40345,-5.01001 8.99757,-8.06078 15.82985,-8.63287 1.59887,-0.13387 4.71214,-0.0625 6.18578,0.14183 8.64376,1.19846 14.69498,6.18333 17.29069,14.24371 0.67742,2.10356 1.05719,4.10015 1.31187,6.89677 0.076,0.83495 0.0771,5.0247 0.001,5.9772 -0.31935,4.02521 -1.19137,7.33339 -2.73706,10.38347 -1.95508,3.85792 -4.89959,6.79145 -8.69047,8.65806 -2.39256,1.17808 -4.22317,1.70711 -7.71072,2.2283 -0.36199,0.0541 -5.62364,0.12914 -5.67773,0.081 z m 4.26006,-8.46732 c 0.85783,-0.282 1.47611,-0.6677 2.15418,-1.34383 0.5007,-0.49927 0.68171,-0.74643 0.93088,-1.27114 0.55228,-1.16297 0.51658,-0.23896 0.51658,-13.37207 0,-13.35525 0.0517,-12.1675 -0.58168,-13.35748 -0.69903,-1.31327 -1.80796,-2.17823 -3.26499,-2.54669 -0.55953,-0.14149 -0.82675,-0.15026 -4.00878,-0.13163 l -3.40927,0.02 v 1.60925 1.60924 l 1.53261,0.0405 c 1.45131,0.0384 1.55578,0.0513 1.96915,0.24294 0.53071,0.24605 1.03969,0.73905 1.29168,1.25113 l 0.18756,0.38115 0.0202,10.81846 0.0202,10.81845 -0.16552,0.44239 c -0.22403,0.59879 -0.74008,1.14228 -1.34832,1.42 -0.47054,0.21485 -0.49758,0.21792 -1.9196,0.21792 -1.01965,0 -1.46929,0.0269 -1.5343,0.092 -0.10245,0.10245 -0.1363,3.13328 -0.0361,3.23347 0.0307,0.0307 1.64284,0.0438 3.58249,0.0291 3.43705,-0.0261 3.54028,-0.0312 4.06307,-0.20311 z M 0.22715226,186.31872 c -0.0293,-0.0293 -0.0533,-10.66962 -0.0533,-23.64515 V 139.0817 l 11.55208974,0.0251 c 12.74836,0.0277 11.87328,-0.005 13.9657,0.52198 4.35077,1.09567 8.18325,4.00717 10.87903,8.2647 0.50666,0.80018 1.35635,2.49734 1.70999,3.41552 0.91932,2.38686 1.5592,5.43812 1.81592,8.65927 0.1028,1.28994 0.0371,5.41542 -0.10548,6.62856 -0.44316,3.76905 -1.10843,6.32256 -2.26786,8.70466 -1.4608,3.00129 -3.05046,5.08555 -5.44109,7.134 -1.84896,1.58429 -4.56722,2.93614 -6.98893,3.47572 -1.929,0.42979 -1.22499,0.40725 -13.59062,0.43507 -6.2821997,0.0141 -11.44615974,0.002 -11.47545974,-0.0276 z M 22.072742,177.33064 c 0.0137,-1.03464 -0.007,-1.5933 -0.0611,-1.64756 -0.05,-0.0502 -0.68402,-0.0974 -1.63003,-0.12141 -1.43213,-0.0364 -1.57406,-0.0528 -1.89304,-0.21875 -0.46872,-0.24388 -0.96702,-0.73583 -1.21339,-1.19791 l -0.20423,-0.38316 v -10.9582 -10.9582 l 0.17675,-0.35527 c 0.28562,-0.57407 0.66627,-0.95734 1.22301,-1.23142 l 0.51207,-0.25209 1.53458,-0.0385 1.53459,-0.0385 v -1.60924 -1.60925 h -3.60165 c -3.54814,0 -3.60904,0.003 -4.09974,0.17411 -1.75355,0.61293 -2.93966,1.8423 -3.42376,3.54861 -0.13229,0.46629 -0.13958,1.11001 -0.13958,12.33143 0,11.35132 0.006,11.86157 0.14424,12.37586 0.3075,1.14365 1.11694,2.27067 2.09897,2.9225 0.51088,0.33911 1.38399,0.69109 1.94888,0.78567 0.22317,0.0374 1.90581,0.0632 3.7392,0.0573 l 3.33344,-0.0106 z m 72.03116,8.98565 c -0.12756,-0.0348 -0.13327,-1.20677 -0.11494,-23.61407 l 0.0193,-23.57747 12.107658,-0.0218 c 12.22034,-0.022 12.88792,-0.01 14.19933,0.25691 1.54147,0.31359 3.43134,1.14006 4.76679,2.08459 1.42105,1.00509 2.96258,2.74031 3.81151,4.29045 2.53795,4.63425 1.98725,10.34528 -1.38983,14.41352 -0.25718,0.30981 -0.50078,0.60976 -0.54133,0.66655 -0.0549,0.0769 0.14152,0.32429 0.76971,0.96932 1.27504,1.30921 2.01613,2.33613 2.75174,3.81307 3.217,6.45904 1.10985,14.35921 -4.89183,18.34057 -1.73665,1.15204 -3.40741,1.80867 -5.74377,2.25735 -0.55339,0.10628 -2.12043,0.1229 -13.11927,0.13913 -6.869948,0.0101 -12.551218,0.002 -12.625038,-0.0182 z m 12.417638,-8.18649 c 0.18292,-0.42146 0.63795,-1.47322 1.01118,-2.33723 0.97863,-2.26549 2.16001,-4.9953 2.73599,-6.32204 0.27445,-0.63221 0.69887,-1.615 0.94314,-2.18398 0.45535,-1.06067 0.85828,-1.99121 2.22312,-5.13426 0.4301,-0.99045 0.98147,-2.26635 1.22526,-2.83534 0.24379,-0.56898 0.79554,-1.84488 1.22609,-2.83534 0.43056,-0.99045 0.9829,-2.26635 1.22743,-2.83533 0.24452,-0.56899 0.79571,-1.84489 1.22486,-2.83534 1.54696,-3.57032 1.68578,-3.90135 1.68578,-4.01999 0,-0.10715 -0.24258,-0.11818 -2.20145,-0.10009 l -2.20143,0.0203 -0.58851,1.34104 c -0.32367,0.73757 -1.14689,2.63418 -1.82935,4.21469 -0.68247,1.58051 -1.45809,3.37367 -1.7236,3.9848 -0.26551,0.61113 -1.04139,2.40429 -1.72419,3.9848 -0.68279,1.58051 -1.45866,3.37367 -1.72415,3.9848 -0.2655,0.61113 -0.81725,1.88703 -1.22613,2.83534 -0.40888,0.94831 -0.96787,2.24145 -1.2422,2.87365 -1.25989,2.90351 -1.5087,3.47835 -2.20569,5.09595 -0.4086,0.94831 -0.94549,2.18616 -1.19306,2.75079 -0.24758,0.56463 -0.43163,1.05655 -0.40901,1.09316 0.0226,0.0366 1.02938,0.0574 2.23724,0.0462 l 2.19612,-0.0203 z m 33.71409,8.18649 c -0.12757,-0.0348 -0.13327,-1.20677 -0.11495,-23.61407 l 0.0193,-23.57747 12.10766,-0.0218 c 12.22034,-0.022 12.88792,-0.01 14.19933,0.25691 1.54147,0.31359 3.43133,1.14006 4.76679,2.08459 0.92803,0.65638 2.34245,2.07221 3.00473,3.00771 1.20565,1.70307 2.01016,3.72608 2.28492,5.74569 0.11505,0.84563 0.11634,2.62074 0.003,3.44839 -0.33173,2.41213 -1.36298,4.71987 -2.95337,6.60907 -0.27482,0.32645 -0.49967,0.62043 -0.49967,0.65328 0,0.0328 0.26251,0.31749 0.58334,0.63253 2.92612,2.87328 4.47428,6.4787 4.47428,10.41987 0,5.34566 -2.85109,10.12046 -7.58644,12.7052 -0.82647,0.45113 -2.15793,0.96828 -3.10053,1.2043 -1.89608,0.47476 -0.92392,0.44379 -14.56286,0.46392 -6.86995,0.0101 -12.55122,0.002 -12.62505,-0.0182 z m 12.41764,-8.18649 c 0.18292,-0.42146 0.63794,-1.47322 1.01117,-2.33723 0.97863,-2.26549 2.16001,-4.9953 2.73599,-6.32204 0.27445,-0.63221 0.69887,-1.615 0.94314,-2.18398 0.45535,-1.06067 0.85828,-1.99121 2.22313,-5.13426 0.4301,-0.99045 0.98146,-2.26635 1.22525,-2.83534 0.2438,-0.56898 0.79554,-1.84488 1.2261,-2.83534 0.43055,-0.99045 0.98289,-2.26635 1.22742,-2.83533 0.24452,-0.56899 0.79571,-1.84489 1.22486,-2.83534 1.54696,-3.57032 1.68578,-3.90135 1.68578,-4.01999 0,-0.10715 -0.24258,-0.11818 -2.20144,-0.10009 l -2.20144,0.0203 -0.58851,1.34104 c -0.32367,0.73757 -1.14688,2.63418 -1.82935,4.21469 -0.68246,1.58051 -1.45808,3.37367 -1.72359,3.9848 -0.26551,0.61113 -1.0414,2.40429 -1.7242,3.9848 -0.68279,1.58051 -1.45866,3.37367 -1.72415,3.9848 -0.26549,0.61113 -0.81725,1.88703 -1.22613,2.83534 -0.40888,0.94831 -0.96786,2.24145 -1.24219,2.87365 -1.2599,2.90351 -1.50871,3.47835 -2.2057,5.09595 -0.4086,0.94831 -0.94548,2.18616 -1.19306,2.75079 -0.24758,0.56463 -0.43163,1.05655 -0.40901,1.09316 0.0226,0.0366 1.02938,0.0574 2.23724,0.0462 l 2.19612,-0.0203 z"
       id="path1402"
       inkscape:connector-curvature="0" />
  </g>
</svg>
