<?xml version="1.0" encoding="UTF-8" standalone="no"?>
<!DOCTYPE svg PUBLIC "-//W3C//DTD SVG 1.1//EN" "http://www.w3.org/Graphics/SVG/1.1/DTD/svg11.dtd">
<!-- Created with Vectornator (http://vectornator.io/) -->
<svg height="100%" stroke-miterlimit="10" style="fill-rule:nonzero;clip-rule:evenodd;stroke-linecap:round;stroke-linejoin:round;" version="1.1" viewBox="0 0 262 53" width="100%" xml:space="preserve" xmlns="http://www.w3.org/2000/svg" xmlns:vectornator="http://vectornator.io" xmlns:xlink="http://www.w3.org/1999/xlink">
<defs/>
<g id="marklogic-logo-footer" vectornator:layerName="marklogic-logo-footer">
<g opacity="1" vectornator:layerName="marklogic-logo-footer">
<path d="M75.5 42.2L61 42.2L61 40.2C62.2 40.2 63.2 40.1 63.7 39.8C64.3 39.6 64.7 39.2 64.8 38.7C65 38.2 65.1 37.6 65.1 36.8L65.1 18.7L54.2 42.2L52.9 42.2L41.9 18.8L41.9 36C41.9 36.9 41.9 37.6 42 38.1C42.1 38.6 42.2 39 42.5 39.3C42.8 39.6 43.2 39.9 43.7 40.1C44.3 40.3 45.1 40.3 46.1 40.3L46.1 42.3L35.4 42.3L35.4 40.3C36.4 40.3 37.2 40.2 37.8 40C38.4 39.8 38.8 39.6 39 39.2C39.3 38.9 39.4 38.5 39.5 38C39.6 37.5 39.6 36.8 39.6 35.9L39.6 19.5C39.6 18.3 39.5 17.4 39.4 16.9C39.3 16.4 38.9 16 38.3 15.7C37.7 15.4 36.8 15.3 35.4 15.3L35.4 13.3L46 13.3L55.6 33.7L65.2 13.3L75.5 13.3L75.5 15.3C73.7 15.3 72.6 15.6 72.1 16.1C71.6 16.6 71.3 17.5 71.3 18.7L71.3 36.8C71.3 37.6 71.4 38.2 71.6 38.7C71.8 39.2 72.2 39.6 72.8 39.8C73.4 40.1 74.3 40.2 75.6 40.2L75.6 42.2L75.5 42.2Z" fill="#000000" fill-rule="nonzero" opacity="1" stroke="none" vectornator:layerName="Shape"/>
<path d="M99.5 37.7C99.5 38.8 99.3 39.7 98.8 40.5C98.4 41.3 97.8 41.8 97 42.2C96.3 42.6 95.4 42.7 94.5 42.7C93.3 42.7 92.3 42.4 91.5 41.9C90.7 41.3 90.2 40.7 90.1 39.9C87.7 41.8 85.3 42.8 83 42.8C81.5 42.8 80.2 42.4 79.2 41.7C78.2 41 77.7 40 77.7 38.8C77.7 37.8 78 36.9 78.5 36.1C79 35.3 79.8 34.6 80.8 33.9C81.8 33.3 83 32.7 84.4 32.2C85.8 31.7 87.6 31.2 89.7 30.7L89.7 29.5C89.7 28.5 89.5 27.7 89 27.1C88.5 26.5 87.6 26.2 86.4 26.2C85.3 26.2 84.5 26.4 84 26.9C83.5 27.4 83.2 28 83 29C82.9 29.7 82.7 30.2 82.4 30.6C82.1 31 81.5 31.2 80.5 31.2C79.9 31.2 79.4 31 78.9 30.7C78.4 30.4 78.2 29.9 78.2 29.2C78.2 27.9 78.9 26.7 80.3 25.8C81.7 24.8 83.9 24.3 86.9 24.3C90 24.3 92.2 24.8 93.3 25.9C94.5 26.9 95.1 28.4 95.1 30.1L95.1 36.8C95.1 37.7 95.1 38.3 95.2 38.7C95.2 39.1 95.4 39.4 95.6 39.6C95.8 39.8 96.1 39.9 96.5 39.9C96.9 39.9 97.2 39.7 97.5 39.3C97.8 38.9 97.9 38.5 97.9 37.9L99.5 37.9L99.5 37.7ZM89.7 37.8L89.7 32.5C87 33.4 85.3 34.2 84.6 35C83.9 35.8 83.5 36.6 83.5 37.4C83.5 38.1 83.7 38.6 84.1 39C84.5 39.4 85.1 39.6 85.8 39.6C86.6 39.6 87.3 39.4 87.9 39.1C88.4 38.8 89 38.4 89.7 37.8Z" fill="#000000" fill-rule="nonzero" opacity="1" stroke="none" vectornator:layerName="Shape"/>
<path d="M119.5 27.4C119.5 28.2 119.2 28.9 118.7 29.3C118.2 29.8 117.6 30 116.9 30C116.1 30 115.4 29.6 114.8 28.8C114.5 28.4 114.3 28.2 114.1 28C113.9 27.8 113.7 27.8 113.3 27.8C112.2 27.8 111.3 28.4 110.7 29.6C110.1 30.8 109.8 32 109.8 33.3L109.8 37C109.8 38.2 110 39 110.3 39.4C110.6 39.8 111.4 40.1 112.7 40.1L113.8 40.1L113.8 42.1L100.6 42.1L100.6 40.1L101.7 40.1C102.9 40.1 103.6 39.9 103.9 39.4C104.2 38.9 104.3 38.1 104.3 37L104.3 30.8C104.3 29.9 104.2 29.2 104 28.8C103.8 28.4 103.5 28.1 103 28C102.5 27.9 101.7 27.8 100.6 27.8L100.6 25.8L108.9 24C109.1 24.7 109.3 26.3 109.5 28.6C109.9 27.8 110.4 27 111.1 26.3C111.7 25.6 112.5 25 113.3 24.6C114.1 24.2 114.9 24 115.8 24C117 24 117.9 24.3 118.6 25C119.2 25.7 119.5 26.5 119.5 27.4" fill="#000000" fill-rule="nonzero" opacity="1" stroke="none" vectornator:layerName="Shape"/>
<path d="M143.7 42.2L133.1 42.2L133.1 40.2C134.3 40.2 135 40 135 39.5C135 39.2 134.8 38.8 134.5 38.4L130.6 33.3L128.4 34.8L128.4 37.5C128.4 38.4 128.5 39 128.7 39.4C128.9 39.8 129.1 40 129.4 40.1C129.7 40.2 130.2 40.2 130.9 40.2L130.9 42.2L119.9 42.2L119.9 40.2C120.7 40.2 121.4 40.1 121.8 40C122.2 39.8 122.5 39.5 122.7 39.1C122.9 38.7 123 38 123 37.1L123 19C123 18.3 122.9 17.8 122.7 17.5C122.5 17.2 122.2 17 121.8 16.9C121.4 16.8 120.8 16.7 119.9 16.7L119.9 14.7L128.5 12.8L128.5 32.4L134.5 28.3C134.9 28 135.1 27.8 135.3 27.7C135.4 27.6 135.5 27.4 135.5 27.3C135.5 26.9 135.2 26.7 134.5 26.7L133.3 26.7L133.3 24.7L142.3 24.7L142.3 26.7C140.8 26.8 139.2 27.5 137.5 28.7L135.3 30.2L141 37.9C141.6 38.7 142.1 39.2 142.5 39.6C142.9 40 143.3 40.2 143.8 40.2L143.8 42.2L143.7 42.2Z" fill="#000000" fill-rule="nonzero" opacity="1" stroke="none" vectornator:layerName="Shape"/>
<path d="M194.8 33.4C194.8 35.3 194.3 37 193.4 38.4C192.5 39.8 191.2 40.9 189.6 41.7C188 42.5 186.3 42.8 184.4 42.8C182.6 42.8 180.9 42.5 179.3 41.8C177.7 41.1 176.4 40 175.4 38.6C174.4 37.2 173.9 35.4 173.9 33.4C173.9 30.3 174.9 28 177 26.4C179.1 24.8 181.6 24 184.5 24C186.7 24 188.5 24.4 190.1 25.3C191.7 26.2 192.8 27.3 193.6 28.7C194.4 30.2 194.8 31.7 194.8 33.4M189 33.3C189 30.9 188.7 29.1 188 27.9C187.4 26.7 186.1 26.1 184.3 26.1C183.1 26.1 182.2 26.4 181.5 26.9C180.8 27.4 180.4 28.2 180.1 29.4C179.8 30.5 179.7 32 179.7 33.7C179.7 35.9 180 37.6 180.6 39C181.2 40.3 182.5 41 184.4 41C185.7 41 186.7 40.6 187.3 39.9C188 39.2 188.4 38.2 188.6 37.1C188.9 35.9 189 34.7 189 33.3" fill="#d13239" fill-rule="nonzero" opacity="1" stroke="none" vectornator:layerName="Shape"/>
<path d="M218.9 25.9C218.9 26.4 218.8 26.8 218.5 27.1C218.2 27.4 217.9 27.6 217.6 27.6C217.2 27.6 216.7 27.4 216.3 27C216.2 27 216.1 26.9 215.9 26.7C215.7 26.6 215.6 26.5 215.5 26.4C215.4 26.3 215.3 26.3 215.1 26.3C214.7 26.3 214.3 26.4 214.1 26.7C214.6 27.3 215 27.9 215.2 28.4C215.5 28.9 215.6 29.6 215.6 30.5C215.6 31.6 215.3 32.6 214.8 33.4C214.3 34.2 213.6 34.7 212.8 35.2C212 35.6 211.1 35.9 210.2 36.1C209.3 36.3 208.2 36.5 206.8 36.7C203.5 37.1 201.8 37.8 201.8 38.7C201.8 39.1 202 39.4 202.6 39.5C203.1 39.7 203.8 39.7 204.8 39.7L208 39.7C209 39.7 210 39.8 211 39.9C212 40 212.9 40.3 213.9 40.6C214.9 41 215.7 41.6 216.4 42.5C217.1 43.4 217.4 44.5 217.4 45.9C217.4 46.9 217.1 48 216.5 49C215.9 50 214.7 50.9 213.1 51.7C211.5 52.4 209.3 52.8 206.6 52.8C204.5 52.8 202.3 52.5 200.2 52C198.1 51.4 197 50.2 197 48.2C197 47.5 197.2 46.9 197.6 46.3C198 45.7 198.6 45.5 199.4 45.5C200.1 45.5 200.6 45.6 201 45.9C200.7 46.4 200.5 46.9 200.5 47.5C200.5 48.4 201 49.2 202.1 49.9C203.2 50.6 204.8 50.9 207 50.9C209.2 50.9 210.9 50.6 212.2 50C213.5 49.4 214.1 48.5 214.1 47.5C214.1 46.8 213.8 46.2 213.3 45.8C212.8 45.4 212 45.2 211 45.1C210 45 208.4 44.9 206.3 44.9C203.7 44.9 201.7 44.6 200.2 44C198.7 43.5 198 42.3 198 40.6C198 39.1 198.6 38.1 199.7 37.4C200.8 36.7 202.2 36.2 203.8 35.9C200 35.2 198.1 33.4 198.1 30.5C198.1 29.6 198.4 28.6 198.9 27.6C199.4 26.6 200.3 25.8 201.6 25.1C202.9 24.4 204.6 24.1 206.8 24.1C209.6 24.1 211.7 24.8 213.2 26.1C214.1 24.8 215.2 24.2 216.6 24.2C217.3 24.2 217.9 24.4 218.3 24.7C218.7 25 218.9 25.4 218.9 25.9M210.1 30.4C210.1 29.2 209.8 28.1 209.3 27.3C208.8 26.4 207.9 26 206.8 26C205.6 26 204.7 26.4 204.2 27.2C203.7 28 203.4 29 203.4 30.2C203.4 31.4 203.6 32.4 204.1 33.4C204.6 34.4 205.5 34.9 206.8 34.9C207.8 34.9 208.6 34.5 209.2 33.8C209.8 32.9 210.1 31.8 210.1 30.4" fill="#d13239" fill-rule="nonzero" opacity="1" stroke="none" vectornator:layerName="Shape"/>
<path d="M232.7 42.2L221.2 42.2L221.2 40.2L221.8 40.2C222.6 40.2 223.2 40.1 223.6 39.9C224 39.7 224.2 39.4 224.3 38.9C224.4 38.5 224.4 37.9 224.4 37.1L224.4 30.8C224.4 29.9 224.3 29.3 224.2 28.9C224.1 28.5 223.8 28.3 223.4 28.1C223 27.9 222.2 27.8 221.2 27.8L221.2 25.8L229.9 24L229.9 37.1C229.9 38.3 230 39.1 230.3 39.5C230.6 39.9 231.4 40.2 232.7 40.2L232.7 42.2ZM230.3 15.7C230.3 16.6 230 17.3 229.4 17.9C228.8 18.5 228.1 18.8 227.2 18.8C226.4 18.8 225.6 18.5 225 17.9C224.4 17.3 224.1 16.6 224.1 15.7C224.1 14.9 224.4 14.1 225 13.5C225.6 12.9 226.3 12.6 227.2 12.6C228.1 12.6 228.8 12.9 229.4 13.5C230 14.1 230.3 14.8 230.3 15.7Z" fill="#d13239" fill-rule="nonzero" opacity="1" stroke="none" vectornator:layerName="Shape"/>
<path d="M252.8 37.8C251.1 41.1 248.3 42.8 244.5 42.8C242.7 42.8 241 42.4 239.5 41.7C237.9 41 236.7 39.9 235.7 38.6C234.7 37.2 234.3 35.6 234.3 33.8C234.3 32.5 234.6 31.3 235.1 30.1C235.6 28.9 236.4 27.9 237.3 27C238.3 26.1 239.4 25.3 240.8 24.8C242.1 24.3 243.6 24 245.1 24C247.1 24 248.8 24.4 250.3 25.2C251.8 26 252.5 27 252.5 28.4C252.5 29 252.3 29.6 251.8 30C251.3 30.4 250.8 30.7 250.2 30.7C249.6 30.7 249.2 30.6 248.9 30.3C248.6 30 248.4 29.8 248.3 29.5C248.2 29.2 248.1 28.7 247.9 28C247.7 27.3 247.4 26.8 247 26.5C246.6 26.2 246 26.1 245.2 26.1C243.9 26.1 242.8 26.6 241.8 27.5C240.8 28.4 240.3 30.2 240.3 32.9C240.3 34.3 240.5 35.6 240.9 36.8C241.3 38 241.9 38.9 242.8 39.6C243.7 40.3 244.7 40.6 246 40.6C247.4 40.6 248.5 40.3 249.2 39.6C249.9 38.9 250.6 38.1 251.2 37.2L252.8 37.8Z" fill="#d13239" fill-rule="nonzero" opacity="1" stroke="none" vectornator:layerName="Shape"/>
<path d="M160.3 39.8C161.8 39.8 163.2 39.7 164.4 39.4C165.6 39.2 166.8 38.5 167.8 37.4C168.8 36.3 169.5 34.7 169.7 32.5L171.7 32.5L171.5 42.1L160.3 42.1L160.2 42.1L146.3 42.1L146.3 40.1C148.1 40.1 149.2 39.8 149.7 39.3C150.2 38.8 150.5 37.9 150.5 36.7L150.5 18.7C150.5 17.9 150.4 17.2 150.2 16.8C150 16.3 149.6 16 149 15.7C148.4 15.4 147.5 15.3 146.2 15.3L146.2 13.3L160.7 13.3L160.7 15.3C159.5 15.3 158.6 15.4 158 15.7C157.4 15.9 157 16.3 156.8 16.7C156.6 17.2 156.5 17.8 156.5 18.7L156.5 35.3C156.5 36.6 156.6 37.5 156.7 38.1C156.8 38.7 157.2 39.1 157.7 39.4C158.4 39.6 159.1 39.8 160.3 39.8Z" fill="#d13239" fill-rule="nonzero" opacity="1" stroke="none" vectornator:layerName="Shape"/>
<path d="M17 33.1C18.5 33.1 19.8 31.8 19.8 30.3L19.8 16.1C19.8 14.5 18.5 13.3 17 13.3L2.8 13.3C1.3 13.3 0 14.6 0 16.1L0 30.3C0 31.9 1.3 33.1 2.8 33.1L17 33.1Z" fill="#d13239" fill-rule="nonzero" opacity="1" stroke="none" vectornator:layerName="Shape"/>
<path d="M30 11.4C31.2 11.4 32.2 10.4 32.2 9.2L32.2 2.2C32.2 1 31.2 0 30 0L23 0C21.8 0 20.8 1 20.8 2.2L20.8 9.2C20.8 10.4 21.8 11.4 23 11.4L30 11.4Z" fill="#d13239" fill-rule="nonzero" opacity="1" stroke="none" vectornator:layerName="Shape"/>
<path d="M256.3 26.8C256.3 26.4 256.4 26 256.5 25.7C256.6 25.4 256.8 25.1 257.1 24.8C257.3 24.6 257.6 24.4 258 24.2C258.3 24.1 258.7 24 259.1 24C259.5 24 259.9 24.1 260.2 24.2C260.5 24.3 260.8 24.5 261.1 24.8C261.3 25 261.5 25.3 261.7 25.7C261.8 26 261.9 26.4 261.9 26.8C261.9 27.2 261.8 27.6 261.7 27.9C261.6 28.2 261.4 28.5 261.1 28.8C260.9 29 260.6 29.2 260.2 29.4C259.9 29.5 259.5 29.6 259.1 29.6C258.7 29.6 258.3 29.5 258 29.4C257.7 29.3 257.4 29.1 257.1 28.8C256.9 28.6 256.7 28.3 256.5 27.9C256.4 27.6 256.3 27.2 256.3 26.8ZM256.9 26.8C256.9 27.1 257 27.4 257.1 27.7C257.2 28 257.3 28.2 257.5 28.4C257.7 28.6 257.9 28.8 258.2 28.9C258.5 29 258.8 29.1 259.1 29.1C259.4 29.1 259.7 29 260 28.9C260.3 28.8 260.5 28.6 260.7 28.4C260.9 28.2 261 28 261.1 27.7C261.2 27.4 261.3 27.1 261.3 26.8C261.3 26.5 261.2 26.2 261.1 25.9C261 25.6 260.9 25.4 260.7 25.2C260.5 25 260.3 24.8 260 24.7C259.7 24.6 259.4 24.5 259.1 24.5C258.8 24.5 258.5 24.6 258.2 24.7C257.9 24.8 257.7 25 257.5 25.2C257.3 25.4 257.2 25.6 257.1 25.9C257 26.2 256.9 26.5 256.9 26.8ZM259.5 27.1L260.3 28.3L259.6 28.3L258.9 27.2L258.6 27.2L258.6 28.3L258 28.3L258 25.5L259 25.5C259.1 25.5 259.3 25.5 259.4 25.5C259.5 25.5 259.7 25.6 259.8 25.6C259.9 25.7 260 25.8 260.1 25.9C260.2 26 260.2 26.1 260.2 26.3C260.2 26.5 260.1 26.7 260 26.8C259.9 26.9 259.7 27 259.5 27.1ZM258.7 25.9L258.7 26.7L259 26.7C259.2 26.7 259.4 26.7 259.5 26.6C259.6 26.5 259.7 26.4 259.7 26.3C259.7 26.2 259.7 26.1 259.6 26C259.5 25.9 259.4 25.9 259.2 25.9C259.2 25.9 258.7 25.9 258.7 25.9Z" fill="#d13239" fill-rule="nonzero" opacity="1" stroke="none" vectornator:layerName="Shape"/>
</g>
</g>
</svg>
