<?xml version="1.0" encoding="UTF-8"?>
<svg width="128px" height="128px" viewBox="0 0 128 128" version="1.1" xmlns="http://www.w3.org/2000/svg" xmlns:xlink="http://www.w3.org/1999/xlink">
    <title>apachecassandra-plain</title>
    <g id="apachecassandra-plain" stroke="none" stroke-width="1" fill="none" fill-rule="evenodd">
        <g id="cassandra" transform="translate(0.446512, 22.099225)" fill-rule="nonzero">
            <g id="Group" transform="translate(6.995349, 63.900775)" fill="#000000">
                <path d="M7.88837209,6.54883721 C8.97984496,6.54883721 9.97209302,6.79689922 10.5178295,7.29302326 C10.6170543,8.08682171 9.87286822,9.37674419 9.42635659,9.37674419 C8.88062016,9.17829457 8.38449612,9.07906977 7.73953488,9.07906977 C5.15968992,9.07906977 3.86976744,11.7581395 3.86976744,14.3875969 C3.86976744,16.0248062 4.41550388,17.0170543 5.75503876,17.0170543 C7.14418605,17.0170543 8.53333333,16.0744186 9.32713178,15.379845 C9.5255814,15.5286822 9.77364341,15.9751938 9.77364341,16.4713178 C9.77364341,17.0170543 9.6248062,17.5627907 9.07906977,18.1085271 C8.18604651,19.0015504 6.64806202,19.7953488 4.41550388,19.7953488 C1.88527132,19.7953488 0.0992248062,18.3565891 0.0992248062,14.9829457 C0.198449612,10.5178295 3.07596899,6.54883721 7.88837209,6.54883721 Z M16.2232558,16.8682171 C17.6124031,16.8682171 20.1426357,14.4372093 20.8372093,9.77364341 C20.8868217,9.47596899 20.8868217,9.42635659 20.9364341,9.12868217 C20.6387597,9.02945736 20.1922481,8.93023256 19.7953488,8.93023256 C18.7534884,8.93023256 17.6620155,9.22790698 16.7193798,10.5674419 C15.7271318,11.9565891 15.2806202,13.6930233 15.2806202,15.0821705 C15.2806202,16.2232558 15.627907,16.8682171 16.2232558,16.8682171 L16.2232558,16.8682171 Z M11.6589147,15.5782946 C11.6589147,13.8914729 12.2046512,11.0139535 14.3379845,8.88062016 C16.1736434,6.99534884 18.3565891,6.54883721 20.3906977,6.54883721 C21.7302326,6.54883721 23.5162791,6.99534884 24.6573643,7.19379845 C24.3596899,8.43410853 23.7147287,13.1472868 23.3674419,15.875969 C23.2186047,17.0170543 23.1689922,18.6542636 23.2186047,19.2496124 C22.275969,19.6465116 20.5395349,19.7457364 20.0434109,19.7457364 C19.7953488,19.7457364 19.7457364,18.6046512 19.7953488,17.4635659 C19.8449612,17.1162791 19.8945736,16.5705426 19.8945736,16.3224806 C18.8031008,18.1581395 16.620155,19.696124 14.3379845,19.696124 C12.7007752,19.7457364 11.6589147,18.3565891 11.6589147,15.5782946 L11.6589147,15.5782946 Z M31.7023256,6.54883721 C32.8434109,6.54883721 33.9844961,6.99534884 34.4806202,7.49147287 C34.4310078,8.28527132 33.8356589,9.6248062 32.8434109,9.22790698 C32.3968992,9.07906977 32,8.97984496 31.4046512,8.97984496 C30.6604651,8.97984496 29.9658915,9.32713178 29.9658915,10.0217054 C29.9658915,10.5674419 30.3627907,10.9643411 32.248062,12.303876 C33.5875969,13.296124 34.1333333,14.1891473 34.1333333,15.4294574 C34.1333333,17.5131783 32.1984496,19.7457364 28.7751938,19.7457364 C27.3860465,19.7457364 26.1457364,19.2 25.7984496,18.6542636 C25.3023256,17.8108527 25.6992248,16.124031 26.2449612,16.4217054 C26.9891473,16.7689922 28.179845,17.1658915 29.172093,17.1658915 C30.1147287,17.1658915 30.7100775,16.7193798 30.7100775,16.1736434 C30.7100775,15.6775194 30.2635659,15.2806202 28.5767442,14.0403101 C27.1379845,12.9488372 26.6914729,11.9565891 26.6914729,10.8651163 C26.6914729,8.48372093 28.7255814,6.54883721 31.7023256,6.54883721 L31.7023256,6.54883721 Z M41.475969,6.54883721 C42.6170543,6.54883721 43.7581395,6.99534884 44.2542636,7.49147287 C44.2046512,8.28527132 43.6093023,9.6248062 42.6170543,9.22790698 C42.1705426,9.07906977 41.7736434,8.97984496 41.1782946,8.97984496 C40.4341085,8.97984496 39.7395349,9.32713178 39.7395349,10.0217054 C39.7395349,10.5674419 40.1364341,10.9643411 42.0217054,12.303876 C43.3612403,13.296124 43.9069767,14.1891473 43.9069767,15.4294574 C43.9069767,17.5131783 41.972093,19.7457364 38.5488372,19.7457364 C37.1596899,19.7457364 35.9689922,19.2 35.572093,18.6542636 C35.075969,17.8108527 35.4728682,16.124031 36.0186047,16.4217054 C36.7627907,16.7689922 37.9534884,17.1658915 38.9457364,17.1658915 C39.8883721,17.1658915 40.4837209,16.7193798 40.4837209,16.1736434 C40.4837209,15.6775194 40.0372093,15.2806202 38.3503876,14.0403101 C36.9116279,12.9488372 36.4651163,11.9565891 36.4651163,10.8651163 C36.4651163,8.48372093 38.4992248,6.54883721 41.475969,6.54883721 L41.475969,6.54883721 Z M50.3565891,16.8682171 C51.7457364,16.8682171 54.275969,14.4372093 54.9705426,9.77364341 C55.020155,9.47596899 55.020155,9.42635659 55.0697674,9.12868217 C54.772093,9.02945736 54.3255814,8.93023256 53.9286822,8.93023256 C52.8868217,8.93023256 51.7953488,9.22790698 50.8527132,10.5674419 C49.8604651,11.9565891 49.4139535,13.6930233 49.4139535,15.0821705 C49.4635659,16.2232558 49.7612403,16.8682171 50.3565891,16.8682171 L50.3565891,16.8682171 Z M45.7922481,15.5782946 C45.7922481,13.8914729 46.3379845,11.0139535 48.4713178,8.88062016 C50.3069767,6.99534884 52.4899225,6.54883721 54.524031,6.54883721 C55.8635659,6.54883721 57.6496124,6.99534884 58.7906977,7.19379845 C58.4930233,8.43410853 57.848062,13.1472868 57.5007752,15.875969 C57.351938,17.0170543 57.3023256,18.6542636 57.351938,19.2496124 C56.4093023,19.6465116 54.6728682,19.7457364 54.1767442,19.7457364 C53.9286822,19.7457364 53.8790698,18.6046512 53.9286822,17.4635659 C53.9782946,17.1162791 54.027907,16.5705426 54.027907,16.3224806 C52.9364341,18.1581395 50.7534884,19.696124 48.4713178,19.696124 C46.8837209,19.7457364 45.7922481,18.3565891 45.7922481,15.5782946 L45.7922481,15.5782946 Z M65.1906977,10.220155 C66.4806202,8.13643411 68.1674419,6.54883721 70.5488372,6.54883721 C72.5829457,6.54883721 73.227907,8.43410853 72.8310078,11.0635659 C72.6325581,12.303876 72.2852713,14.0899225 72.0868217,15.7271318 C71.8883721,17.1162791 71.7395349,18.3565891 71.7891473,19.2 C71.0449612,19.5472868 68.9116279,19.696124 68.4155039,19.696124 C68.2170543,19.696124 68.1674419,18.1581395 68.4651163,16.5209302 C68.7131783,15.1813953 69.1596899,12.7007752 69.4077519,11.2620155 C69.5565891,10.4186047 69.5069767,9.42635659 68.7131783,9.42635659 C67.6713178,9.42635659 65.1906977,11.1131783 63.9503876,17.9596899 C63.8511628,18.5054264 63.6527132,18.8527132 63.3054264,19.0511628 C62.8589147,19.2992248 61.9658915,19.5472868 60.1302326,19.5472868 C60.4775194,17.8108527 61.0232558,14.2883721 61.420155,11.6589147 C61.7674419,9.27751938 61.9162791,7.73953488 61.8666667,7.14418605 C62.3627907,6.99534884 64.8930233,6.4496124 65.1410853,6.4496124 C65.4387597,6.4496124 65.4883721,7.34263566 65.2403101,9.42635659 C65.1906977,9.6248062 65.1906977,9.92248062 65.1410853,10.1209302 L65.1906977,10.1209302 L65.1906977,10.220155 L65.1906977,10.220155 Z M79.5782946,16.8186047 C80.8186047,16.8186047 83.3488372,14.4868217 84.0434109,10.3689922 C84.0930233,10.1209302 84.1426357,9.72403101 84.1922481,9.47596899 C83.8449612,9.12868217 83.3488372,8.93023256 82.5550388,8.93023256 C79.6775194,8.93023256 78.4372093,12.3534884 78.4372093,14.8341085 C78.4868217,16.124031 78.9333333,16.8186047 79.5782946,16.8186047 Z M77.7426357,19.7457364 C75.9069767,19.7457364 74.8155039,18.1085271 74.8155039,15.379845 C74.8155039,10.8155039 77.6930233,6.59844961 82.5054264,6.59844961 C83.3488372,6.59844961 84.1426357,6.84651163 84.5891473,7.09457364 C84.8372093,5.80465116 85.4325581,1.78604651 85.4821705,0.595348837 C86.275969,0.446511628 87.9627907,0.198449612 88.7565891,0.198449612 C89.0542636,0.198449612 89.1534884,0.496124031 89.0542636,1.24031008 C88.3596899,5.50697674 87.1689922,13.6434109 86.9209302,15.4294574 C86.772093,16.9674419 86.7224806,18.455814 86.772093,19.2992248 C85.8790698,19.696124 84.0434109,19.7953488 83.5472868,19.7953488 C83.3488372,19.7953488 83.2496124,18.5054264 83.2992248,17.3147287 C83.3488372,16.9674419 83.3984496,16.4217054 83.3984496,16.3224806 C81.8604651,18.6046512 79.9255814,19.7457364 77.7426357,19.7457364 L77.7426357,19.7457364 Z M94.3131783,10.6170543 C95.8015504,7.29302326 97.5875969,6.54883721 98.7782946,6.54883721 C99.1255814,6.54883721 99.7209302,6.79689922 99.9689922,7.04496124 C100.068217,7.9875969 99.324031,9.82325581 98.6790698,10.5674419 C98.3317829,10.4186047 97.9348837,10.220155 97.4387597,10.220155 C96.496124,10.220155 94.5612403,11.7085271 93.3705426,18.1581395 C93.2713178,18.703876 93.1224806,18.9023256 92.8248062,19.0511628 C92.3286822,19.3488372 90.4434109,19.5472868 89.5503876,19.5968992 C89.9968992,17.2651163 90.6914729,12.551938 90.9891473,9.77364341 C91.0883721,9.07906977 91.0883721,7.73953488 91.0387597,7.24341085 C91.5844961,6.99534884 93.7178295,6.49922481 94.1643411,6.49922481 C94.4124031,6.49922481 94.6108527,8.0372093 94.2139535,10.5674419 L94.3131783,10.5674419 L94.3131783,10.6170543 L94.3131783,10.6170543 Z M104.285271,16.8682171 C105.674419,16.8682171 108.204651,14.4372093 108.899225,9.77364341 C108.948837,9.47596899 108.948837,9.42635659 108.99845,9.12868217 C108.700775,9.02945736 108.254264,8.93023256 107.857364,8.93023256 C106.815504,8.93023256 105.724031,9.22790698 104.781395,10.5674419 C103.789147,11.9565891 103.342636,13.6930233 103.342636,15.0821705 C103.392248,16.2232558 103.689922,16.8682171 104.285271,16.8682171 L104.285271,16.8682171 Z M99.7209302,15.5782946 C99.7209302,13.8914729 100.266667,11.0139535 102.4,8.88062016 C104.235659,6.99534884 106.418605,6.54883721 108.452713,6.54883721 C109.792248,6.54883721 111.578295,6.99534884 112.71938,7.19379845 C112.421705,8.43410853 111.776744,13.1472868 111.429457,15.875969 C111.28062,17.0170543 111.231008,18.6542636 111.28062,19.2496124 C110.337984,19.6465116 108.60155,19.7457364 108.105426,19.7457364 C107.857364,19.7457364 107.807752,18.6046512 107.857364,17.4635659 C107.906977,17.1162791 107.956589,16.5705426 107.956589,16.3224806 C106.865116,18.1581395 104.682171,19.696124 102.4,19.696124 C100.812403,19.7457364 99.7209302,18.3565891 99.7209302,15.5782946 L99.7209302,15.5782946 Z" id="Shape"></path>
            </g>
            <path d="M47.8263566,18.3565891 C48.4217054,17.0666667 49.2651163,16.4713178 50.1085271,15.4294574 C50.0093023,15.1813953 49.8108527,14.3379845 49.8108527,14.0899225 C49.8108527,12.8 50.8527132,11.8077519 52.0930233,11.8077519 C52.3906977,11.8077519 52.6883721,11.8573643 52.9364341,11.9565891 C56.7565891,9.02945736 61.7674419,7.78914729 66.827907,8.93023256 C67.2744186,9.02945736 67.7209302,9.17829457 68.1674419,9.27751938 C63.2062016,8.58294574 57.5503876,10.3689922 53.7302326,13.4449612 C53.8294574,13.7426357 54.1767442,14.4868217 54.1767442,14.8341085 C54.1767442,16.124031 53.3333333,16.4217054 52.0930233,16.4217054 C51.7953488,16.4217054 51.5472868,16.372093 51.2496124,16.2728682 C50.4062016,17.4139535 49.3147287,19.6465116 48.8186047,21.0356589 C50.951938,22.9209302 52.8372093,23.6155039 55.3178295,24.5581395 C55.3178295,24.4589147 55.4170543,24.3100775 55.4170543,24.2108527 C55.4170543,20.3906977 58.7906977,17.2651163 62.6108527,17.2651163 C66.0341085,17.2651163 68.9116279,19.7457364 69.4573643,23.020155 C71.1937984,21.9286822 72.8310078,21.0852713 74.0713178,19.4976744 C73.7736434,19.1503876 73.475969,18.1085271 73.475969,17.6124031 C73.475969,16.4713178 74.4186047,15.5286822 75.5596899,15.5286822 C75.7085271,15.5286822 75.8573643,15.5286822 76.055814,15.5782946 C76.7007752,14.2387597 77.1968992,12.8496124 77.4945736,11.4108527 C71.4914729,6.94573643 59.8821705,7.59069767 59.8821705,7.59069767 C59.8821705,7.59069767 50.6542636,7.09457364 44.4031008,10.1705426 C44.8496124,13.048062 46.0403101,15.9255814 47.8263566,18.3565891" id="Shape" fill="#000000"></path>
            <path d="M76.5023256,16.620155 C76.9488372,17.0170543 77.1472868,17.3147287 77.3457364,17.6620155 C77.8914729,18.6542636 76.8,19.5968992 75.6093023,19.5968992 C75.5100775,19.5968992 75.3612403,19.5968992 75.2620155,19.5472868 C73.972093,21.5813953 71.6899225,24.1612403 69.655814,25.5007752 C72.7813953,25.9968992 75.7085271,27.2372093 77.9906977,29.172093 C79.6775194,26.1457364 80.9674419,21.7302326 80.9674419,18.0093023 C80.9674419,15.1813953 79.7271318,13.0976744 77.8418605,11.5596899 C77.7922481,13.0976744 76.9488372,15.2310078 76.5023256,16.620155 M51.2992248,35.8697674 C52.3410853,32.9922481 54.8713178,30.8093023 57.3023256,28.8744186 C56.9550388,28.3782946 56.4093023,27.1875969 56.2108527,26.6418605 C53.2837209,25.7488372 50.703876,24.0620155 48.6697674,21.8790698 C48.6697674,21.9286822 48.620155,22.027907 48.620155,22.0775194 C48.2232558,23.7643411 48.1736434,25.5007752 48.372093,27.1379845 C49.7612403,27.3860465 50.8527132,28.6263566 50.8527132,30.1147287 C50.8527132,31.0077519 50.0589147,32.248062 49.4635659,32.8434109 C50.0589147,34.1333333 50.5054264,34.827907 51.2992248,35.8697674" id="Shape" fill="#000000"></path>
            <path d="M51.1007752,38.2511628 C49.8604651,37.0108527 49.0170543,34.579845 48.2232558,33.0418605 C48.0744186,33.0418605 47.9255814,33.0914729 47.7767442,33.0914729 C46.0899225,33.0914729 44.3534884,31.7023256 44.7503876,30.0651163 C44.9488372,29.172093 45.5937984,28.5767442 46.5860465,28.0806202 C46.3379845,26.1953488 46.2883721,23.5658915 46.7348837,21.6310078 C46.8341085,21.0852713 47.1317829,20.8372093 47.2806202,20.2914729 C45.4449612,17.6124031 44.2542636,14.0403101 44.2542636,10.5178295 L44.2542636,10.1209302 C41.1286822,11.7085271 38.7968992,14.1395349 38.7968992,18.0093023 C38.7968992,26.5922481 43.7581395,35.0263566 51.1007752,38.3007752 L51.1007752,38.2511628 M69.2093023,26.3937984 C68.2666667,29.0728682 65.6868217,31.0573643 62.6604651,31.0573643 C61.0232558,31.0573643 59.5348837,30.5116279 58.3937984,29.5689922 C55.9627907,31.4542636 53.7302326,34.7782946 52.6387597,37.7054264 C53.1348837,38.2511628 53.4821705,38.6976744 54.0775194,39.1937984 C55.7643411,39.6403101 58.1457364,39.1937984 59.9813953,39.1937984 C67.3736434,39.1937984 73.972093,35.9193798 77.7426357,30.1147287 C75.1627907,28.3286822 72.1860465,26.6418605 69.2093023,26.3937984" id="Shape" fill="#373535"></path>
            <path d="M47.627907,19.3488372 C48.2232558,18.0589147 48.9178295,16.9178295 49.7612403,15.8263566 C49.6620155,15.5782946 49.6124031,15.2806202 49.6124031,15.0325581 C49.6124031,13.7426357 50.6542636,12.7503876 51.8945736,12.7503876 C52.1922481,12.7503876 52.4899225,12.8 52.7379845,12.8992248 C56.5581395,9.97209302 61.5689922,8.73178295 66.6294574,9.87286822 C67.075969,9.97209302 67.5224806,10.1209302 67.9689922,10.220155 C63.0077519,9.5255814 57.848062,11.0635659 54.027907,14.1395349 C54.1271318,14.4372093 54.2263566,14.7348837 54.2263566,15.0325581 C54.2263566,16.3224806 53.1844961,17.3147287 51.944186,17.3147287 C51.6465116,17.3147287 51.3984496,17.2651163 51.1007752,17.1658915 C50.2573643,18.3069767 49.5131783,19.5968992 49.0170543,20.9860465 C50.8527132,22.9209302 53.0852713,24.5085271 55.5658915,25.4015504 L55.5658915,25.0542636 C55.5658915,21.2341085 58.6914729,18.1085271 62.5116279,18.1085271 C65.9348837,18.1085271 68.8124031,20.5891473 69.3581395,23.8635659 C71.0945736,22.772093 72.5829457,21.3829457 73.8728682,19.7457364 C73.5751938,19.3984496 73.3767442,18.951938 73.3767442,18.455814 C73.3767442,17.3147287 74.3193798,16.372093 75.4604651,16.372093 C75.6093023,16.372093 75.7581395,16.372093 75.9565891,16.4217054 C76.6015504,15.0821705 77.0976744,13.6930233 77.3953488,12.2542636 C71.3922481,7.78914729 59.7829457,8.43410853 59.7829457,8.43410853 C59.7829457,8.43410853 50.5550388,7.9379845 44.303876,11.0139535 C44.6511628,14.0403101 45.8418605,16.9178295 47.627907,19.3488372" id="Shape" fill="#000000"></path>
            <path d="M76.8,16.9674419 C77.2465116,17.3643411 77.4945736,17.9100775 77.4945736,18.5054264 C77.4945736,19.6465116 76.551938,20.5891473 75.4108527,20.5891473 C75.3116279,20.5891473 75.1627907,20.5891473 75.0635659,20.5395349 C73.7736434,22.5736434 72.0372093,24.3100775 70.0031008,25.6 C72.979845,26.0465116 75.8077519,27.3364341 78.1395349,29.2713178 C79.8263566,26.2449612 80.8186047,22.7224806 80.8186047,19.0015504 C80.8186047,16.1736434 79.5782946,14.0899225 77.6930233,12.551938 C77.5937984,14.0899225 77.296124,15.5782946 76.8,16.9674419 M51.5968992,36.5147287 C52.6387597,33.6372093 54.4248062,31.1069767 56.855814,29.172093 C56.5085271,28.675969 56.2108527,28.179845 56.0124031,27.5844961 C53.0852713,26.6914729 50.5054264,25.0046512 48.4713178,22.8217054 C48.4713178,22.8713178 48.4217054,22.9705426 48.4217054,23.020155 C48.0248062,24.7069767 47.9751938,26.4434109 48.1736434,28.0806202 C49.5627907,28.3286822 50.6542636,29.5689922 50.6542636,31.0573643 C50.6542636,31.9503876 50.2573643,32.744186 49.6620155,33.2899225 C50.1581395,34.4310078 50.8527132,35.5224806 51.5968992,36.5147287" id="Shape" fill="#000000"></path>
            <path d="M51.1007752,38.2015504 C49.8604651,36.9612403 48.8186047,35.572093 48.0248062,34.0341085 C47.875969,34.0341085 47.7271318,34.0837209 47.5782946,34.0837209 C45.8914729,34.0837209 44.551938,32.744186 44.551938,31.0573643 C44.551938,29.8666667 45.2465116,28.8248062 46.2387597,28.3286822 C45.9906977,26.4434109 46.0899225,24.5581395 46.5364341,22.6232558 C46.6356589,22.0775194 46.8341085,21.5317829 46.9829457,20.9860465 C45.1472868,18.3069767 44.055814,15.0325581 44.055814,11.5100775 L44.055814,11.1131783 C40.9302326,12.7007752 38.5984496,15.1317829 38.5984496,19.0015504 C38.5984496,27.5844961 43.7085271,34.9767442 51.0511628,38.2511628 C51.1007752,38.2511628 51.1007752,38.2511628 51.1007752,38.2015504 M69.0108527,27.3860465 C68.0682171,30.0651163 65.4883721,32.0496124 62.4620155,32.0496124 C60.8248062,32.0496124 59.3364341,31.503876 58.1953488,30.5612403 C55.7643411,32.4465116 53.9286822,35.0263566 52.7875969,37.9534884 C53.2837209,38.4992248 53.8294574,38.9953488 54.3751938,39.4914729 C56.0620155,39.9379845 57.848062,40.1860465 59.6837209,40.1860465 C67.075969,40.1860465 73.6248062,36.3658915 77.3953488,30.5612403 C74.9147287,28.7751938 71.9875969,27.6341085 69.0108527,27.3860465" id="Shape" fill="#000000"></path>
            <path d="M1.73643411,36.3658915 C21.6310078,16.4713178 37.5069767,10.3193798 51.944186,7.54108527 C53.8294574,7.19379845 54.2263566,2.97674419 54.2263566,2.97674419 C54.2263566,2.97674419 54.4744186,6.05271318 55.8139535,6.4496124 C57.1534884,6.84651163 58.8899225,1.6372093 58.8899225,1.6372093 C58.8899225,1.6372093 57.3023256,6.30077519 58.8899225,6.59844961 C60.4775194,6.84651163 63.4542636,2.03410853 63.4542636,2.03410853 C63.4542636,2.03410853 62.2635659,6.15193798 63.0573643,6.4496124 C63.8511628,6.69767442 67.8697674,0.446511628 67.8697674,0.446511628 C67.8697674,0.446511628 65.4883721,4.56434109 67.7209302,5.01085271 C70.0031008,5.40775194 73.3271318,2.18294574 73.3271318,2.18294574 C73.3271318,2.18294574 70.7472868,5.11007752 71.8883721,5.55658915 C76.8496124,7.29302326 80.8186047,0.893023256 80.8186047,0.893023256 C80.8186047,0.893023256 79.875969,3.72093023 77.4945736,6.79689922 C82.703876,8.13643411 86.5736434,0.297674419 86.5736434,0.297674419 L82.703876,8.13643411 C84.6883721,9.22790698 92.7255814,3.55271368e-15 92.7255814,3.55271368e-15 C92.7255814,3.55271368e-15 88.6077519,7.19379845 86.1767442,8.68217054 C87.5162791,9.6248062 92.3286822,5.35813953 92.3286822,5.35813953 C92.3286822,5.35813953 88.4589147,10.1705426 89.9472868,10.4186047 C92.0806202,12.1550388 99.9689922,1.48837209 99.9689922,1.48837209 C99.9689922,1.48837209 96.8434109,7.78914729 92.3286822,12.7007752 C96.0992248,14.5860465 105.575194,2.43100775 105.575194,2.43100775 C105.575194,2.43100775 105.327132,6.30077519 98.4806202,12.4527132 C103.541085,11.8077519 110.089922,2.18294574 110.089922,2.18294574 C110.089922,2.18294574 107.708527,9.37674419 101.953488,14.4868217 C106.914729,13.9906977 114.902326,1.68682171 114.902326,1.68682171 C114.902326,1.68682171 111.826357,10.220155 105.575194,15.1813953 C112.52093,16.7193798 122.542636,6.3503876 122.542636,6.3503876 C122.542636,6.3503876 118.623256,13.6930233 113.463566,16.7193798 C119.218605,18.9023256 127.106977,9.82325581 127.106977,9.82325581 C127.106977,9.82325581 119.218605,21.9782946 106.666667,21.4325581 C102.548837,21.2341085 90.096124,8.93023256 63.4046512,9.92248062 C28.0806202,11.2620155 20.5891473,26.1953488 1.73643411,36.3658915" id="Shape" fill="#000000"></path>
            <path d="M0,38.8465116 C10.5178295,44.1054264 20.1426357,38.0527132 32.248062,41.475969 C41.475969,44.055814 52.6883721,47.2806202 67.9193798,45.048062 C83.1503876,42.8651163 96.1488372,36.2170543 102.4,24.4093023 C104.334884,19.1503876 112.223256,25.6 112.223256,25.6 C112.223256,25.6 106.468217,23.2186047 106.617054,24.3100775 C106.765891,25.4511628 115.249612,29.3705426 115.249612,29.3705426 C115.249612,29.3705426 107.55969,26.9891473 108.055814,28.7751938 C108.502326,30.5612403 117.68062,37.8046512 117.68062,37.8046512 C117.68062,37.8046512 107.311628,29.9162791 106.468217,31.0077519 C105.624806,32.0992248 110.883721,36.4155039 110.883721,36.4155039 C110.883721,36.4155039 102.151938,31.0077519 99.075969,32.5953488 C96.8434109,33.7364341 108.155039,41.1286822 108.155039,41.1286822 C108.155039,41.1286822 100.812403,35.5224806 99.075969,37.0108527 C97.3395349,38.4992248 107.36124,50.5054264 107.36124,50.5054264 C107.36124,50.5054264 96,38.2015504 94.8589147,38.7968992 C93.7178295,39.3922481 97.9844961,45.296124 97.9844961,45.296124 C97.9844961,45.296124 92.3286822,39.1937984 90.7906977,40.2356589 C89.2527132,41.3271318 98.7782946,57.2527132 98.7782946,57.2527132 C98.7782946,57.2527132 88.4093023,40.8806202 84.1426357,43.6093023 C90.8899225,58.3937984 88.3596899,60.4775194 88.3596899,60.4775194 C88.3596899,60.4775194 87.5162791,45.4449612 79.1317829,45.8418605 C74.9147287,46.0403101 81.1162791,57.0542636 81.1162791,57.0542636 C81.1162791,57.0542636 75.4604651,47.0325581 71.6403101,47.2310078 C78.6356589,60.5271318 76.1550388,65.8852713 76.1550388,65.8852713 C76.1550388,65.8852713 77.296124,54.524031 67.820155,48.2232558 C71.4418605,51.448062 65.5379845,65.8852713 65.5379845,65.8852713 C65.5379845,65.8852713 70.6976744,44.6015504 61.7178295,48.6697674 C60.2790698,49.3147287 61.6186047,59.2868217 61.6186047,59.2868217 C61.6186047,59.2868217 59.8325581,47.875969 57.103876,48.4713178 C55.5162791,48.8186047 47.0821705,64.2976744 47.0821705,64.2976744 C47.0821705,64.2976744 53.9782946,47.5782946 51.8945736,48.2728682 C50.3565891,48.7689922 47.4790698,55.6651163 47.4790698,55.6651163 C47.4790698,55.6651163 48.8682171,48.8682171 47.4790698,48.4713178 C46.0899225,48.0744186 38.2511628,55.6651163 38.2511628,55.6651163 C38.2511628,55.6651163 44.055814,48.8682171 43.0635659,47.4294574 C41.5255814,45.296124 39.7891473,45.1968992 37.655814,46.0403101 C34.579845,47.2310078 30.4620155,52.8372093 30.4620155,52.8372093 C30.4620155,52.8372093 34.579845,47.1317829 33.8852713,45.048062 C32.744186,41.6248062 20.8868217,51.6465116 20.8868217,51.6465116 C20.8868217,51.6465116 27.8821705,45.048062 26.2945736,43.6093023 C24.7069767,42.220155 15.9751938,42.6170543 13.296124,42.6170543 C5.20930233,42.6666667 2.43100775,40.7813953 0,38.8465116" id="Shape" fill="#000000"></path>
        </g>
    </g>
</svg>