<?xml version="1.0" encoding="UTF-8"?>
<svg width="128px" height="128px" viewBox="0 0 128 128" version="1.1" xmlns="http://www.w3.org/2000/svg" xmlns:xlink="http://www.w3.org/1999/xlink">
    <title>apachecassandra-original</title>
    <g id="apachecassandra-original" stroke="none" stroke-width="1" fill="none" fill-rule="evenodd">
        <g id="cassandra" transform="translate(0.000000, 22.000000)" fill-rule="nonzero">
            <g id="Group" transform="translate(7.441860, 64.000000)" fill="#373535">
                <path d="M7.88837209,6.54883721 C8.97984496,6.54883721 9.97209302,6.79689922 10.5178295,7.29302326 C10.6170543,8.08682171 9.87286822,9.37674419 9.42635659,9.37674419 C8.88062016,9.17829457 8.38449612,9.07906977 7.73953488,9.07906977 C5.15968992,9.07906977 3.86976744,11.7581395 3.86976744,14.3875969 C3.86976744,16.0248062 4.41550388,17.0170543 5.75503876,17.0170543 C7.14418605,17.0170543 8.53333333,16.0744186 9.32713178,15.379845 C9.5255814,15.5286822 9.77364341,15.9751938 9.77364341,16.4713178 C9.77364341,17.0170543 9.6248062,17.5627907 9.07906977,18.1085271 C8.18604651,19.0015504 6.64806202,19.7953488 4.41550388,19.7953488 C1.88527132,19.7953488 0.0992248062,18.3565891 0.0992248062,14.9829457 C0.198449612,10.5178295 3.07596899,6.54883721 7.88837209,6.54883721 Z M16.2232558,16.8682171 C17.6124031,16.8682171 20.1426357,14.4372093 20.8372093,9.77364341 C20.8868217,9.47596899 20.8868217,9.42635659 20.9364341,9.12868217 C20.6387597,9.02945736 20.1922481,8.93023256 19.7953488,8.93023256 C18.7534884,8.93023256 17.6620155,9.22790698 16.7193798,10.5674419 C15.7271318,11.9565891 15.2806202,13.6930233 15.2806202,15.0821705 C15.2806202,16.2232558 15.627907,16.8682171 16.2232558,16.8682171 L16.2232558,16.8682171 Z M11.6589147,15.5782946 C11.6589147,13.8914729 12.2046512,11.0139535 14.3379845,8.88062016 C16.1736434,6.99534884 18.3565891,6.54883721 20.3906977,6.54883721 C21.7302326,6.54883721 23.5162791,6.99534884 24.6573643,7.19379845 C24.3596899,8.43410853 23.7147287,13.1472868 23.3674419,15.875969 C23.2186047,17.0170543 23.1689922,18.6542636 23.2186047,19.2496124 C22.275969,19.6465116 20.5395349,19.7457364 20.0434109,19.7457364 C19.7953488,19.7457364 19.7457364,18.6046512 19.7953488,17.4635659 C19.8449612,17.1162791 19.8945736,16.5705426 19.8945736,16.3224806 C18.8031008,18.1581395 16.620155,19.696124 14.3379845,19.696124 C12.7007752,19.7457364 11.6589147,18.3565891 11.6589147,15.5782946 L11.6589147,15.5782946 Z M31.7023256,6.54883721 C32.8434109,6.54883721 33.9844961,6.99534884 34.4806202,7.49147287 C34.4310078,8.28527132 33.8356589,9.6248062 32.8434109,9.22790698 C32.3968992,9.07906977 32,8.97984496 31.4046512,8.97984496 C30.6604651,8.97984496 29.9658915,9.32713178 29.9658915,10.0217054 C29.9658915,10.5674419 30.3627907,10.9643411 32.248062,12.303876 C33.5875969,13.296124 34.1333333,14.1891473 34.1333333,15.4294574 C34.1333333,17.5131783 32.1984496,19.7457364 28.7751938,19.7457364 C27.3860465,19.7457364 26.1457364,19.2 25.7984496,18.6542636 C25.3023256,17.8108527 25.6992248,16.124031 26.2449612,16.4217054 C26.9891473,16.7689922 28.179845,17.1658915 29.172093,17.1658915 C30.1147287,17.1658915 30.7100775,16.7193798 30.7100775,16.1736434 C30.7100775,15.6775194 30.2635659,15.2806202 28.5767442,14.0403101 C27.1379845,12.9488372 26.6914729,11.9565891 26.6914729,10.8651163 C26.6914729,8.48372093 28.7255814,6.54883721 31.7023256,6.54883721 L31.7023256,6.54883721 Z M41.475969,6.54883721 C42.6170543,6.54883721 43.7581395,6.99534884 44.2542636,7.49147287 C44.2046512,8.28527132 43.6093023,9.6248062 42.6170543,9.22790698 C42.1705426,9.07906977 41.7736434,8.97984496 41.1782946,8.97984496 C40.4341085,8.97984496 39.7395349,9.32713178 39.7395349,10.0217054 C39.7395349,10.5674419 40.1364341,10.9643411 42.0217054,12.303876 C43.3612403,13.296124 43.9069767,14.1891473 43.9069767,15.4294574 C43.9069767,17.5131783 41.972093,19.7457364 38.5488372,19.7457364 C37.1596899,19.7457364 35.9689922,19.2 35.572093,18.6542636 C35.075969,17.8108527 35.4728682,16.124031 36.0186047,16.4217054 C36.7627907,16.7689922 37.9534884,17.1658915 38.9457364,17.1658915 C39.8883721,17.1658915 40.4837209,16.7193798 40.4837209,16.1736434 C40.4837209,15.6775194 40.0372093,15.2806202 38.3503876,14.0403101 C36.9116279,12.9488372 36.4651163,11.9565891 36.4651163,10.8651163 C36.4651163,8.48372093 38.4992248,6.54883721 41.475969,6.54883721 L41.475969,6.54883721 Z M50.3565891,16.8682171 C51.7457364,16.8682171 54.275969,14.4372093 54.9705426,9.77364341 C55.020155,9.47596899 55.020155,9.42635659 55.0697674,9.12868217 C54.772093,9.02945736 54.3255814,8.93023256 53.9286822,8.93023256 C52.8868217,8.93023256 51.7953488,9.22790698 50.8527132,10.5674419 C49.8604651,11.9565891 49.4139535,13.6930233 49.4139535,15.0821705 C49.4635659,16.2232558 49.7612403,16.8682171 50.3565891,16.8682171 L50.3565891,16.8682171 Z M45.7922481,15.5782946 C45.7922481,13.8914729 46.3379845,11.0139535 48.4713178,8.88062016 C50.3069767,6.99534884 52.4899225,6.54883721 54.524031,6.54883721 C55.8635659,6.54883721 57.6496124,6.99534884 58.7906977,7.19379845 C58.4930233,8.43410853 57.848062,13.1472868 57.5007752,15.875969 C57.351938,17.0170543 57.3023256,18.6542636 57.351938,19.2496124 C56.4093023,19.6465116 54.6728682,19.7457364 54.1767442,19.7457364 C53.9286822,19.7457364 53.8790698,18.6046512 53.9286822,17.4635659 C53.9782946,17.1162791 54.027907,16.5705426 54.027907,16.3224806 C52.9364341,18.1581395 50.7534884,19.696124 48.4713178,19.696124 C46.8837209,19.7457364 45.7922481,18.3565891 45.7922481,15.5782946 L45.7922481,15.5782946 Z M65.1906977,10.220155 C66.4806202,8.13643411 68.1674419,6.54883721 70.5488372,6.54883721 C72.5829457,6.54883721 73.227907,8.43410853 72.8310078,11.0635659 C72.6325581,12.303876 72.2852713,14.0899225 72.0868217,15.7271318 C71.8883721,17.1162791 71.7395349,18.3565891 71.7891473,19.2 C71.0449612,19.5472868 68.9116279,19.696124 68.4155039,19.696124 C68.2170543,19.696124 68.1674419,18.1581395 68.4651163,16.5209302 C68.7131783,15.1813953 69.1596899,12.7007752 69.4077519,11.2620155 C69.5565891,10.4186047 69.5069767,9.42635659 68.7131783,9.42635659 C67.6713178,9.42635659 65.1906977,11.1131783 63.9503876,17.9596899 C63.8511628,18.5054264 63.6527132,18.8527132 63.3054264,19.0511628 C62.8589147,19.2992248 61.9658915,19.5472868 60.1302326,19.5472868 C60.4775194,17.8108527 61.0232558,14.2883721 61.420155,11.6589147 C61.7674419,9.27751938 61.9162791,7.73953488 61.8666667,7.14418605 C62.3627907,6.99534884 64.8930233,6.4496124 65.1410853,6.4496124 C65.4387597,6.4496124 65.4883721,7.34263566 65.2403101,9.42635659 C65.1906977,9.6248062 65.1906977,9.92248062 65.1410853,10.1209302 L65.1906977,10.1209302 L65.1906977,10.220155 L65.1906977,10.220155 Z M79.5782946,16.8186047 C80.8186047,16.8186047 83.3488372,14.4868217 84.0434109,10.3689922 C84.0930233,10.1209302 84.1426357,9.72403101 84.1922481,9.47596899 C83.8449612,9.12868217 83.3488372,8.93023256 82.5550388,8.93023256 C79.6775194,8.93023256 78.4372093,12.3534884 78.4372093,14.8341085 C78.4868217,16.124031 78.9333333,16.8186047 79.5782946,16.8186047 Z M77.7426357,19.7457364 C75.9069767,19.7457364 74.8155039,18.1085271 74.8155039,15.379845 C74.8155039,10.8155039 77.6930233,6.59844961 82.5054264,6.59844961 C83.3488372,6.59844961 84.1426357,6.84651163 84.5891473,7.09457364 C84.8372093,5.80465116 85.4325581,1.78604651 85.4821705,0.595348837 C86.275969,0.446511628 87.9627907,0.198449612 88.7565891,0.198449612 C89.0542636,0.198449612 89.1534884,0.496124031 89.0542636,1.24031008 C88.3596899,5.50697674 87.1689922,13.6434109 86.9209302,15.4294574 C86.772093,16.9674419 86.7224806,18.455814 86.772093,19.2992248 C85.8790698,19.696124 84.0434109,19.7953488 83.5472868,19.7953488 C83.3488372,19.7953488 83.2496124,18.5054264 83.2992248,17.3147287 C83.3488372,16.9674419 83.3984496,16.4217054 83.3984496,16.3224806 C81.8604651,18.6046512 79.9255814,19.7457364 77.7426357,19.7457364 L77.7426357,19.7457364 Z M94.3131783,10.6170543 C95.8015504,7.29302326 97.5875969,6.54883721 98.7782946,6.54883721 C99.1255814,6.54883721 99.7209302,6.79689922 99.9689922,7.04496124 C100.068217,7.9875969 99.324031,9.82325581 98.6790698,10.5674419 C98.3317829,10.4186047 97.9348837,10.220155 97.4387597,10.220155 C96.496124,10.220155 94.5612403,11.7085271 93.3705426,18.1581395 C93.2713178,18.703876 93.1224806,18.9023256 92.8248062,19.0511628 C92.3286822,19.3488372 90.4434109,19.5472868 89.5503876,19.5968992 C89.9968992,17.2651163 90.6914729,12.551938 90.9891473,9.77364341 C91.0883721,9.07906977 91.0883721,7.73953488 91.0387597,7.24341085 C91.5844961,6.99534884 93.7178295,6.49922481 94.1643411,6.49922481 C94.4124031,6.49922481 94.6108527,8.0372093 94.2139535,10.5674419 L94.3131783,10.5674419 L94.3131783,10.6170543 L94.3131783,10.6170543 Z M104.285271,16.8682171 C105.674419,16.8682171 108.204651,14.4372093 108.899225,9.77364341 C108.948837,9.47596899 108.948837,9.42635659 108.99845,9.12868217 C108.700775,9.02945736 108.254264,8.93023256 107.857364,8.93023256 C106.815504,8.93023256 105.724031,9.22790698 104.781395,10.5674419 C103.789147,11.9565891 103.342636,13.6930233 103.342636,15.0821705 C103.392248,16.2232558 103.689922,16.8682171 104.285271,16.8682171 L104.285271,16.8682171 Z M99.7209302,15.5782946 C99.7209302,13.8914729 100.266667,11.0139535 102.4,8.88062016 C104.235659,6.99534884 106.418605,6.54883721 108.452713,6.54883721 C109.792248,6.54883721 111.578295,6.99534884 112.71938,7.19379845 C112.421705,8.43410853 111.776744,13.1472868 111.429457,15.875969 C111.28062,17.0170543 111.231008,18.6542636 111.28062,19.2496124 C110.337984,19.6465116 108.60155,19.7457364 108.105426,19.7457364 C107.857364,19.7457364 107.807752,18.6046512 107.857364,17.4635659 C107.906977,17.1162791 107.956589,16.5705426 107.956589,16.3224806 C106.865116,18.1581395 104.682171,19.696124 102.4,19.696124 C100.812403,19.7457364 99.7209302,18.3565891 99.7209302,15.5782946 L99.7209302,15.5782946 Z" id="Shape"></path>
            </g>
            <path d="M101.953488,22.5736434 C102.896124,33.4387597 85.779845,43.8077519 63.7023256,45.6930233 C41.6248062,47.5782946 23.020155,40.2852713 22.0775194,29.420155 C21.1348837,18.5550388 38.2511628,8.18604651 60.3286822,6.30077519 C82.3565891,4.41550388 101.010853,11.6589147 101.953488,22.5736434" id="Shape" fill="#BBE6FB"></path>
            <path d="M60.924031,7.54108527 C52.4899225,7.39224806 42.6666667,10.7658915 35.324031,13.8914729 C34.579845,16.0744186 34.1333333,18.4062016 34.1333333,20.8372093 C34.1333333,33.7364341 45.7922481,44.2046512 60.179845,44.2046512 C74.5674419,44.2046512 86.275969,33.7860465 86.275969,20.8372093 C86.275969,16.7689922 85.0852713,12.8992248 83.0511628,9.5751938 C77.1968992,8.68217054 69.1100775,7.68992248 60.924031,7.54108527" id="Shape" fill="#FFFFFF"></path>
            <path d="M60.2294574,7.54108527 C55.5658915,7.24341085 47.5286822,9.6744186 40.8310078,12.1054264 C39.7891473,14.4868217 39.2434109,17.1162791 39.2434109,19.8945736 C39.2434109,31.2062016 49.5131783,40.3844961 60.3286822,40.3844961 C71.0945736,40.3844961 80.620155,31.2062016 81.4139535,19.8945736 C81.6620155,16.2232558 80.4217054,12.7503876 78.6356589,9.77364341 C71.7395349,8.58294574 64.3968992,7.83875969 60.2294574,7.54108527" id="Shape" fill="#FFFFFF"></path>
            <path d="M48.2728682,18.455814 C48.8682171,17.1658915 49.7116279,16.5705426 50.5550388,15.5286822 C50.455814,15.2806202 50.2573643,14.4372093 50.2573643,14.1891473 C50.2573643,12.8992248 51.2992248,11.9069767 52.5395349,11.9069767 C52.8372093,11.9069767 53.1348837,11.9565891 53.3829457,12.055814 C57.2031008,9.12868217 62.2139535,7.88837209 67.2744186,9.02945736 C67.7209302,9.12868217 68.1674419,9.27751938 68.6139535,9.37674419 C63.6527132,8.68217054 57.9968992,10.4682171 54.1767442,13.544186 C54.275969,13.8418605 54.6232558,14.5860465 54.6232558,14.9333333 C54.6232558,16.2232558 53.779845,16.5209302 52.5395349,16.5209302 C52.2418605,16.5209302 51.9937984,16.4713178 51.696124,16.372093 C50.8527132,17.5131783 49.7612403,19.7457364 49.2651163,21.1348837 C51.3984496,23.020155 53.2837209,23.7147287 55.7643411,24.6573643 C55.7643411,24.5581395 55.8635659,24.4093023 55.8635659,24.3100775 C55.8635659,20.4899225 59.2372093,17.3643411 63.0573643,17.3643411 C66.4806202,17.3643411 69.3581395,19.8449612 69.903876,23.1193798 C71.6403101,22.027907 73.2775194,21.1844961 74.5178295,19.5968992 C74.220155,19.2496124 73.9224806,18.2077519 73.9224806,17.7116279 C73.9224806,16.5705426 74.8651163,15.627907 76.0062016,15.627907 C76.1550388,15.627907 76.303876,15.627907 76.5023256,15.6775194 C77.1472868,14.3379845 77.6434109,12.9488372 77.9410853,11.5100775 C71.9379845,7.04496124 60.3286822,7.68992248 60.3286822,7.68992248 C60.3286822,7.68992248 51.1007752,7.19379845 44.8496124,10.2697674 C45.296124,13.1472868 46.4868217,16.0248062 48.2728682,18.455814" id="Shape" fill="#373535"></path>
            <path d="M76.9488372,16.7193798 C77.3953488,17.1162791 77.5937984,17.4139535 77.7922481,17.7612403 C78.3379845,18.7534884 77.2465116,19.696124 76.055814,19.696124 C75.9565891,19.696124 75.8077519,19.696124 75.7085271,19.6465116 C74.4186047,21.6806202 72.1364341,24.2604651 70.1023256,25.6 C73.227907,26.096124 76.1550388,27.3364341 78.4372093,29.2713178 C80.124031,26.2449612 81.4139535,21.8294574 81.4139535,18.1085271 C81.4139535,15.2806202 80.1736434,13.1968992 78.2883721,11.6589147 C78.2387597,13.1968992 77.3953488,15.3302326 76.9488372,16.7193798 M51.7457364,35.9689922 C52.7875969,33.0914729 55.3178295,30.9085271 57.7488372,28.9736434 C57.4015504,28.4775194 56.855814,27.2868217 56.6573643,26.7410853 C53.7302326,25.848062 51.1503876,24.1612403 49.1162791,21.9782946 C49.1162791,22.027907 49.0666667,22.1271318 49.0666667,22.1767442 C48.6697674,23.8635659 48.620155,25.6 48.8186047,27.2372093 C50.2077519,27.4852713 51.2992248,28.7255814 51.2992248,30.2139535 C51.2992248,31.1069767 50.5054264,32.3472868 49.9100775,32.9426357 C50.5054264,34.2325581 50.951938,34.9271318 51.7457364,35.9689922" id="Shape" fill="#373535"></path>
            <path d="M51.5472868,38.3503876 C50.3069767,37.1100775 49.4635659,34.6790698 48.6697674,33.1410853 C48.5209302,33.1410853 48.372093,33.1906977 48.2232558,33.1906977 C46.5364341,33.1906977 44.8,31.8015504 45.1968992,30.1643411 C45.3953488,29.2713178 46.0403101,28.675969 47.0325581,28.179845 C46.7844961,26.2945736 46.7348837,23.6651163 47.1813953,21.7302326 C47.2806202,21.1844961 47.5782946,20.9364341 47.7271318,20.3906977 C45.8914729,17.7116279 44.7007752,14.1395349 44.7007752,10.6170543 L44.7007752,10.220155 C41.5751938,11.8077519 39.2434109,14.2387597 39.2434109,18.1085271 C39.2434109,26.6914729 44.2046512,35.1255814 51.5472868,38.4 L51.5472868,38.3503876 M69.655814,26.4930233 C68.7131783,29.172093 66.1333333,31.1565891 63.1069767,31.1565891 C61.4697674,31.1565891 59.9813953,30.6108527 58.8403101,29.6682171 C56.4093023,31.5534884 54.1767442,34.8775194 53.0852713,37.8046512 C53.5813953,38.3503876 53.9286822,38.7968992 54.524031,39.2930233 C56.2108527,39.7395349 58.5922481,39.2930233 60.427907,39.2930233 C67.820155,39.2930233 74.4186047,36.0186047 78.1891473,30.2139535 C75.6093023,28.427907 72.6325581,26.7410853 69.655814,26.4930233" id="Shape" fill="#373535"></path>
            <path d="M48.0744186,19.448062 C48.6697674,18.1581395 49.3643411,17.0170543 50.2077519,15.9255814 C50.1085271,15.6775194 50.0589147,15.379845 50.0589147,15.1317829 C50.0589147,13.8418605 51.1007752,12.8496124 52.3410853,12.8496124 C52.6387597,12.8496124 52.9364341,12.8992248 53.1844961,12.9984496 C57.0046512,10.0713178 62.0155039,8.83100775 67.075969,9.97209302 C67.5224806,10.0713178 67.9689922,10.220155 68.4155039,10.3193798 C63.4542636,9.6248062 58.2945736,11.1627907 54.4744186,14.2387597 C54.5736434,14.5364341 54.6728682,14.8341085 54.6728682,15.1317829 C54.6728682,16.4217054 53.6310078,17.4139535 52.3906977,17.4139535 C52.0930233,17.4139535 51.8449612,17.3643411 51.5472868,17.2651163 C50.703876,18.4062016 49.9596899,19.696124 49.4635659,21.0852713 C51.2992248,23.020155 53.5317829,24.6077519 56.0124031,25.5007752 L56.0124031,25.1534884 C56.0124031,21.3333333 59.1379845,18.2077519 62.9581395,18.2077519 C66.3813953,18.2077519 69.2589147,20.6883721 69.8046512,23.9627907 C71.5410853,22.8713178 73.0294574,21.4821705 74.3193798,19.8449612 C74.0217054,19.4976744 73.8232558,19.0511628 73.8232558,18.5550388 C73.8232558,17.4139535 74.7658915,16.4713178 75.9069767,16.4713178 C76.055814,16.4713178 76.2046512,16.4713178 76.4031008,16.5209302 C77.048062,15.1813953 77.544186,13.7922481 77.8418605,12.3534884 C71.8387597,7.88837209 60.2294574,8.53333333 60.2294574,8.53333333 C60.2294574,8.53333333 51.0015504,8.0372093 44.7503876,11.1131783 C45.0976744,14.1395349 46.2883721,17.0170543 48.0744186,19.448062" id="Shape" fill="#1287B1"></path>
            <path d="M77.2465116,17.0666667 C77.6930233,17.4635659 77.9410853,18.0093023 77.9410853,18.6046512 C77.9410853,19.7457364 76.9984496,20.6883721 75.8573643,20.6883721 C75.7581395,20.6883721 75.6093023,20.6883721 75.5100775,20.6387597 C74.220155,22.6728682 72.4837209,24.4093023 70.4496124,25.6992248 C73.4263566,26.1457364 76.2542636,27.4356589 78.5860465,29.3705426 C80.2728682,26.344186 81.2651163,22.8217054 81.2651163,19.1007752 C81.2651163,16.2728682 80.0248062,14.1891473 78.1395349,12.6511628 C78.0403101,14.1891473 77.7426357,15.6775194 77.2465116,17.0666667 M52.0434109,36.6139535 C53.0852713,33.7364341 54.8713178,31.2062016 57.3023256,29.2713178 C56.9550388,28.7751938 56.6573643,28.2790698 56.4589147,27.6837209 C53.5317829,26.7906977 50.951938,25.103876 48.9178295,22.9209302 C48.9178295,22.9705426 48.8682171,23.0697674 48.8682171,23.1193798 C48.4713178,24.8062016 48.4217054,26.5426357 48.620155,28.179845 C50.0093023,28.427907 51.1007752,29.6682171 51.1007752,31.1565891 C51.1007752,32.0496124 50.703876,32.8434109 50.1085271,33.3891473 C50.6046512,34.5302326 51.2992248,35.6217054 52.0434109,36.6139535" id="Shape" fill="#1287B1"></path>
            <path d="M51.5472868,38.3007752 C50.3069767,37.0604651 49.2651163,35.6713178 48.4713178,34.1333333 C48.3224806,34.1333333 48.1736434,34.1829457 48.0248062,34.1829457 C46.3379845,34.1829457 44.9984496,32.8434109 44.9984496,31.1565891 C44.9984496,29.9658915 45.6930233,28.924031 46.6852713,28.427907 C46.4372093,26.5426357 46.5364341,24.6573643 46.9829457,22.7224806 C47.0821705,22.1767442 47.2806202,21.6310078 47.4294574,21.0852713 C45.5937984,18.4062016 44.5023256,15.1317829 44.5023256,11.6093023 L44.5023256,11.2124031 C41.3767442,12.8 39.0449612,15.2310078 39.0449612,19.1007752 C39.0449612,27.6837209 44.1550388,35.075969 51.4976744,38.3503876 C51.5472868,38.3503876 51.5472868,38.3503876 51.5472868,38.3007752 M69.4573643,27.4852713 C68.5147287,30.1643411 65.9348837,32.1488372 62.9085271,32.1488372 C61.2713178,32.1488372 59.7829457,31.6031008 58.6418605,30.6604651 C56.2108527,32.5457364 54.3751938,35.1255814 53.2341085,38.0527132 C53.7302326,38.5984496 54.275969,39.0945736 54.8217054,39.5906977 C56.5085271,40.0372093 58.2945736,40.2852713 60.1302326,40.2852713 C67.5224806,40.2852713 74.0713178,36.4651163 77.8418605,30.6604651 C75.3612403,28.8744186 72.4341085,27.7333333 69.4573643,27.4852713" id="Shape" fill="#1287B1"></path>
            <polygon id="Shape" fill="#FFFFFF" points="69.7054264 25.6992248 76.1054264 24.1612403 69.655814 23.8139535 74.9147287 19.8449612 68.9612403 21.9782946 72.979845 16.372093 67.3736434 20.0930233 69.3085271 13.544186 65.4883721 18.951938 65.3891473 12.1054264 62.8589147 18.2077519 60.7751938 12.055814 60.8744186 19.2992248 57.2527132 12.8 59.2372093 19.696124 53.3333333 15.4294574 57.9472868 21.2341085 50.6046512 18.5550388 56.3596899 22.8217054 48.9674419 23.0697674 56.5581395 25.0046512 48.9674419 26.6418605 56.4589147 27.1875969 50.1581395 31.2062016 56.6573643 28.8744186 52.1426357 34.579845 57.848062 29.9658915 55.8139535 37.6062016 60.2294574 31.3550388 59.6341085 38.6976744 62.1147287 32 64.248062 38.9953488 64.744186 31.9503876 67.9193798 37.9534884 66.0341085 31.1069767 71.7891473 35.572093 68.0682171 29.8666667 74.4186047 32.3472868 69.5565891 27.5844961 76.055814 28.0806202 69.7054264 25.6992248"></polygon>
            <path d="M1.38914729,37.9534884 C21.2837209,18.0589147 37.1596899,11.9069767 51.5968992,9.12868217 C53.4821705,8.78139535 53.8790698,4.56434109 53.8790698,4.56434109 C53.8790698,4.56434109 54.1271318,7.64031008 55.4666667,8.0372093 C56.8062016,8.43410853 58.5426357,3.2248062 58.5426357,3.2248062 C58.5426357,3.2248062 56.9550388,7.88837209 58.5426357,8.18604651 C60.1302326,8.43410853 63.1069767,3.62170543 63.1069767,3.62170543 C63.1069767,3.62170543 61.9162791,7.73953488 62.7100775,8.0372093 C63.503876,8.28527132 67.5224806,2.03410853 67.5224806,2.03410853 C67.5224806,2.03410853 65.1410853,6.15193798 67.3736434,6.59844961 C69.655814,6.99534884 72.979845,3.77054264 72.979845,3.77054264 C72.979845,3.77054264 70.4,6.69767442 71.5410853,7.14418605 C76.5023256,8.88062016 80.4713178,2.48062016 80.4713178,2.48062016 C80.4713178,2.48062016 79.5286822,5.30852713 77.1472868,8.38449612 C82.3565891,9.72403101 86.2263566,1.88527132 86.2263566,1.88527132 L82.3565891,9.72403101 C84.3410853,10.7162791 92.3286822,1.48837209 92.3286822,1.48837209 C92.3286822,1.48837209 88.2108527,8.68217054 85.779845,10.1705426 C87.1193798,11.2620155 91.9317829,6.94573643 91.9317829,6.94573643 C91.9317829,6.94573643 88.0620155,11.7581395 89.5503876,12.0062016 C91.6837209,13.7426357 99.572093,3.07596899 99.572093,3.07596899 C99.572093,3.07596899 96.496124,9.37674419 91.9813953,14.2883721 C95.751938,16.2232558 105.178295,4.06821705 105.178295,4.06821705 C105.178295,4.06821705 104.930233,7.9379845 98.0837209,14.0899225 C103.144186,13.4449612 109.693023,3.82015504 109.693023,3.82015504 C109.693023,3.82015504 107.311628,11.0139535 101.556589,16.124031 C106.517829,15.627907 114.505426,3.32403101 114.505426,3.32403101 C114.505426,3.32403101 111.429457,11.8573643 105.178295,16.8186047 C112.124031,18.3565891 122.145736,7.9875969 122.145736,7.9875969 C122.145736,7.9875969 118.226357,15.3302326 113.066667,18.3565891 C118.821705,20.5395349 126.710078,11.4604651 126.710078,11.4604651 C126.710078,11.4604651 118.821705,23.6155039 106.269767,23.0697674 C102.151938,22.8713178 89.6992248,10.5674419 63.0077519,11.5596899 C27.6837209,12.8496124 20.2418605,27.8325581 1.38914729,37.9534884" id="Shape" fill-opacity="0.35" fill="#373535"></path>
            <path d="M2.18294574,36.4651163 C22.0775194,16.5705426 37.9534884,10.4186047 52.3906977,7.64031008 C54.275969,7.29302326 54.6728682,3.07596899 54.6728682,3.07596899 C54.6728682,3.07596899 54.9209302,6.15193798 56.2604651,6.54883721 C57.6,6.94573643 59.3364341,1.73643411 59.3364341,1.73643411 C59.3364341,1.73643411 57.7488372,6.4 59.3364341,6.69767442 C60.924031,6.94573643 63.9007752,2.13333333 63.9007752,2.13333333 C63.9007752,2.13333333 62.7100775,6.25116279 63.503876,6.54883721 C64.2976744,6.79689922 68.3162791,0.545736434 68.3162791,0.545736434 C68.3162791,0.545736434 65.9348837,4.66356589 68.1674419,5.11007752 C70.4496124,5.50697674 73.7736434,2.28217054 73.7736434,2.28217054 C73.7736434,2.28217054 71.1937984,5.20930233 72.3348837,5.65581395 C77.296124,7.39224806 81.2651163,0.992248062 81.2651163,0.992248062 C81.2651163,0.992248062 80.3224806,3.82015504 77.9410853,6.89612403 C83.1503876,8.23565891 87.020155,0.396899225 87.020155,0.396899225 L83.1503876,8.23565891 C85.1348837,9.32713178 93.172093,0.0992248062 93.172093,0.0992248062 C93.172093,0.0992248062 89.0542636,7.29302326 86.6232558,8.78139535 C87.9627907,9.72403101 92.7751938,5.45736434 92.7751938,5.45736434 C92.7751938,5.45736434 88.9054264,10.2697674 90.3937984,10.5178295 C92.5271318,12.2542636 100.415504,1.5875969 100.415504,1.5875969 C100.415504,1.5875969 97.2899225,7.88837209 92.7751938,12.8 C96.5457364,14.6852713 106.021705,2.53023256 106.021705,2.53023256 C106.021705,2.53023256 105.773643,6.4 98.9271318,12.551938 C103.987597,11.9069767 110.536434,2.28217054 110.536434,2.28217054 C110.536434,2.28217054 108.155039,9.47596899 102.4,14.5860465 C107.36124,14.0899225 115.348837,1.78604651 115.348837,1.78604651 C115.348837,1.78604651 112.272868,10.3193798 106.021705,15.2806202 C112.967442,16.8186047 122.989147,6.4496124 122.989147,6.4496124 C122.989147,6.4496124 119.069767,13.7922481 113.910078,16.8186047 C119.665116,19.0015504 127.553488,9.92248062 127.553488,9.92248062 C127.553488,9.92248062 119.665116,22.0775194 107.113178,21.5317829 C102.995349,21.3333333 90.5426357,9.02945736 63.8511628,10.0217054 C28.5271318,11.3612403 21.0356589,26.2945736 2.18294574,36.4651163" id="Shape" fill="#373535"></path>
            <path d="M0.893023256,40.1364341 C11.4108527,45.3953488 21.0356589,39.3426357 33.1410853,42.7658915 C42.3689922,45.3457364 53.5813953,48.5705426 68.8124031,46.3379845 C84.0434109,44.1550388 97.0418605,37.5069767 103.293023,25.6992248 C105.227907,20.4403101 113.116279,26.8899225 113.116279,26.8899225 C113.116279,26.8899225 107.36124,24.5085271 107.510078,25.6 C107.658915,26.7410853 116.142636,30.6604651 116.142636,30.6604651 C116.142636,30.6604651 108.452713,28.2790698 108.948837,30.0651163 C109.395349,31.8511628 118.573643,39.0945736 118.573643,39.0945736 C118.573643,39.0945736 108.105426,31.255814 107.262016,32.3472868 C106.368992,33.4387597 111.677519,37.7550388 111.677519,37.7550388 C111.677519,37.7550388 102.945736,32.3472868 99.8697674,33.9348837 C97.6372093,35.075969 108.948837,42.4682171 108.948837,42.4682171 C108.948837,42.4682171 101.606202,36.8620155 99.8697674,38.3503876 C98.1333333,39.8387597 108.155039,51.8449612 108.155039,51.8449612 C108.155039,51.8449612 96.744186,39.5410853 95.6031008,40.1364341 C94.4620155,40.7317829 98.7286822,46.6356589 98.7286822,46.6356589 C98.7286822,46.6356589 93.172093,40.4837209 91.6341085,41.5255814 C90.096124,42.6170543 99.6713178,58.5426357 99.6713178,58.5426357 C99.6713178,58.5426357 89.3023256,42.220155 84.9860465,44.9488372 C91.6837209,59.6837209 89.2031008,61.7674419 89.2031008,61.7674419 C89.2031008,61.7674419 88.3596899,46.7348837 79.9751938,47.1317829 C75.7581395,47.3302326 81.9596899,58.344186 81.9596899,58.344186 C81.9596899,58.344186 76.2542636,48.2728682 72.4341085,48.4713178 C79.4294574,61.7674419 76.9488372,67.1255814 76.9488372,67.1255814 C76.9488372,67.1255814 78.0899225,55.7643411 68.6139535,49.4635659 C72.2356589,52.6883721 66.3317829,67.1255814 66.3317829,67.1255814 C66.3317829,67.1255814 71.4914729,45.8418605 62.5116279,49.9100775 C61.0728682,50.5550388 62.4124031,60.5271318 62.4124031,60.5271318 C62.4124031,60.5271318 60.6263566,49.1162791 57.8976744,49.7116279 C56.3100775,50.0589147 47.875969,65.5379845 47.875969,65.5379845 C47.875969,65.5379845 54.772093,48.8186047 52.6883721,49.5131783 C51.1503876,50.0093023 48.2728682,56.9054264 48.2728682,56.9054264 C48.2728682,56.9054264 49.6620155,50.1085271 48.2728682,49.7116279 C46.8837209,49.3147287 39.0449612,56.9054264 39.0449612,56.9054264 C39.0449612,56.9054264 44.8496124,50.1085271 43.8573643,48.6697674 C42.3193798,46.5364341 40.5829457,46.4372093 38.4496124,47.2806202 C35.3736434,48.4713178 31.255814,54.0775194 31.255814,54.0775194 C31.255814,54.0775194 35.3736434,48.372093 34.6790698,46.2883721 C33.5379845,42.8651163 21.6806202,52.8868217 21.6806202,52.8868217 C21.6806202,52.8868217 28.675969,46.2883721 27.0883721,44.8496124 C25.5007752,43.4604651 16.7689922,43.8573643 14.0899225,43.8573643 C6.10232558,43.9565891 3.32403101,42.0713178 0.893023256,40.1364341" id="Shape" fill-opacity="0.35" fill="#373535"></path>
            <path d="M0.446511628,38.9457364 C10.9643411,44.2046512 20.5891473,38.151938 32.6945736,41.5751938 C41.9224806,44.1550388 53.1348837,47.379845 68.3658915,45.1472868 C83.5968992,42.9643411 96.5953488,36.3162791 102.846512,24.5085271 C104.781395,19.2496124 112.669767,25.6992248 112.669767,25.6992248 C112.669767,25.6992248 106.914729,23.3178295 107.063566,24.4093023 C107.212403,25.5503876 115.696124,29.4697674 115.696124,29.4697674 C115.696124,29.4697674 108.006202,27.0883721 108.502326,28.8744186 C108.948837,30.6604651 118.127132,37.903876 118.127132,37.903876 C118.127132,37.903876 107.75814,30.0155039 106.914729,31.1069767 C106.071318,32.1984496 111.330233,36.5147287 111.330233,36.5147287 C111.330233,36.5147287 102.59845,31.1069767 99.5224806,32.6945736 C97.2899225,33.8356589 108.60155,41.227907 108.60155,41.227907 C108.60155,41.227907 101.258915,35.6217054 99.5224806,37.1100775 C97.7860465,38.5984496 107.807752,50.6046512 107.807752,50.6046512 C107.807752,50.6046512 96.4465116,38.3007752 95.3054264,38.896124 C94.1643411,39.4914729 98.4310078,45.3953488 98.4310078,45.3953488 C98.4310078,45.3953488 92.7751938,39.2930233 91.2372093,40.3348837 C89.6992248,41.4263566 99.2248062,57.351938 99.2248062,57.351938 C99.2248062,57.351938 88.855814,40.979845 84.5891473,43.7085271 C91.3364341,58.4930233 88.8062016,60.5767442 88.8062016,60.5767442 C88.8062016,60.5767442 87.9627907,45.544186 79.5782946,45.9410853 C75.3612403,46.1395349 81.5627907,57.1534884 81.5627907,57.1534884 C81.5627907,57.1534884 75.9069767,47.1317829 72.0868217,47.3302326 C79.0821705,60.6263566 76.6015504,65.9844961 76.6015504,65.9844961 C76.6015504,65.9844961 77.7426357,54.6232558 68.2666667,48.3224806 C71.8883721,51.5472868 65.9844961,65.9844961 65.9844961,65.9844961 C65.9844961,65.9844961 71.144186,44.7007752 62.1643411,48.7689922 C60.7255814,49.4139535 62.0651163,59.3860465 62.0651163,59.3860465 C62.0651163,59.3860465 60.2790698,47.9751938 57.5503876,48.5705426 C55.9627907,48.9178295 47.5286822,64.3968992 47.5286822,64.3968992 C47.5286822,64.3968992 54.4248062,47.6775194 52.3410853,48.372093 C50.8031008,48.8682171 47.9255814,55.7643411 47.9255814,55.7643411 C47.9255814,55.7643411 49.3147287,48.9674419 47.9255814,48.5705426 C46.5364341,48.1736434 38.6976744,55.7643411 38.6976744,55.7643411 C38.6976744,55.7643411 44.5023256,48.9674419 43.5100775,47.5286822 C41.972093,45.3953488 40.2356589,45.296124 38.1023256,46.1395349 C35.0263566,47.3302326 30.9085271,52.9364341 30.9085271,52.9364341 C30.9085271,52.9364341 35.0263566,47.2310078 34.3317829,45.1472868 C33.1906977,41.724031 21.3333333,51.7457364 21.3333333,51.7457364 C21.3333333,51.7457364 28.3286822,45.1472868 26.7410853,43.7085271 C25.1534884,42.3193798 16.4217054,42.7162791 13.7426357,42.7162791 C5.65581395,42.7658915 2.87751938,40.8806202 0.446511628,38.9457364" id="Shape" fill="#373535"></path>
        </g>
    </g>
</svg>