<?xml version="1.0" encoding="UTF-8"?>
<!DOCTYPE svg PUBLIC "-//W3C//DTD SVG 1.1//EN" "http://www.w3.org/Graphics/SVG/1.1/DTD/svg11.dtd">
<!-- Creator: CorelDRAW -->
<svg xmlns="http://www.w3.org/2000/svg" xml:space="preserve" width="7.11111in" height="7.11111in" version="1.1" style="shape-rendering:geometricPrecision; text-rendering:geometricPrecision; image-rendering:optimizeQuality; fill-rule:evenodd; clip-rule:evenodd"
viewBox="0 0 7111 7111"
 xmlns:xlink="http://www.w3.org/1999/xlink">
 <defs>
  <style type="text/css">
   <![CDATA[
    .fil0 {fill:black}
   ]]>
  </style>
 </defs>
 <g id="Layer_x0020_1">
  <metadata id="CorelCorpID_0Corel-Layer"/>
  <path class="fil0" d="M2737 3960l-15 0 0 15c0,67 -54,121 -121,121 -66,0 -120,-54 -120,-121l0 -15 -15 0c-67,0 -121,-54 -121,-120 0,-67 54,-121 121,-121l15 0 0 -15c0,-67 54,-121 120,-121 67,0 121,54 121,121l0 15 15 0c67,0 121,54 121,121 0,66 -54,120 -121,120zm-2433 1962l0 -4064c0,-66 54,-120 121,-120l771 0 0 -550c0,-66 54,-121 120,-121l186 0 0 -304c0,-408 332,-740 740,-740 408,0 740,332 740,740l0 304 186 0c66,0 120,55 120,121l0 550 535 0 0 -550c0,-66 54,-121 121,-121l185 0 0 -304c0,-408 332,-740 740,-740 408,0 740,332 740,740l0 304 186 0c66,0 121,55 121,121l0 550 771 0c66,0 120,54 120,120l0 4064 183 0c67,0 121,54 121,121l0 924c0,67 -54,121 -121,121l-6869 0c-67,0 -121,-54 -121,-121l0 -924c0,-67 54,-121 121,-121l183 0zm892 -3943l-651 0 0 3943 6021 0 0 -3943 -650 0 0 203 327 0c66,0 120,54 120,120l0 3297c0,66 -54,120 -120,120l-5374 0c-67,0 -121,-54 -121,-120l0 -3297c0,-66 54,-120 121,-120l327 0 0 -203zm4478 -670l-1610 0 0 1112 1610 0c0,-371 0,-741 0,-1112zm-1851 670l-535 0 0 203 535 0 0 -203zm-776 -670l-1610 0 0 1112 1610 0 0 -1112zm-1851 1114l-207 0 0 3055 5133 0 0 -3055 -206 0 0 119c0,66 -55,121 -121,121l-1851 0c-67,0 -121,-55 -121,-121l0 -119 -535 0 0 119c0,66 -54,121 -120,121l-1852 0c-66,0 -120,-55 -120,-121l0 -119zm-954 4423l6628 0 0 -683 -2107 0 0 342c0,67 -54,121 -121,121l-2173 0c-67,0 -121,-54 -121,-121l0 -342 -2106 0 0 683zm2348 -462l1931 0 0 -221 -1931 0 0 221zm3100 -1499l-4269 0c-67,0 -121,-54 -121,-121 0,-67 54,-121 121,-121l4269 0c67,0 121,54 121,121 0,67 -54,121 -121,121zm-608 -462l-3053 0c-67,0 -121,-54 -121,-120l0 -927c0,-66 54,-120 121,-120l3053 0c67,0 121,54 121,120l0 927c0,66 -54,120 -121,120zm-2932 -241l2811 0 0 -685 -2811 0 0 685zm340 -1899l-496 0c-67,0 -121,-54 -121,-121l0 -594c0,-66 54,-121 121,-121l496 0c67,0 121,55 121,121l0 594c0,67 -54,121 -121,121zm-376 -242l255 0 0 -352 -255 0 0 352zm-370 -974l996 0 0 -304c0,-275 -223,-498 -498,-498 -275,0 -498,223 -498,498l0 304zm3373 1216l-496 0c-67,0 -121,-54 -121,-121l0 -594c0,-66 54,-121 121,-121l496 0c67,0 121,55 121,121l0 594c0,67 -54,121 -121,121zm-375 -242l255 0 0 -352 -255 0 0 352zm-371 -974l997 0 0 -304c0,-275 -224,-498 -499,-498 -275,0 -498,223 -498,498l0 304zm139 3029c-67,0 -121,-54 -121,-121l0 -15 -15 0c-66,0 -120,-54 -120,-120 0,-67 54,-121 120,-121l15 0 0 -15c0,-67 54,-121 121,-121 67,0 121,54 121,121l0 15 14 0c67,0 121,54 121,121 0,66 -54,120 -121,120l-14 0 0 15c0,67 -54,121 -121,121zm-636 0c-67,0 -121,-54 -121,-121l0 -15 -15 0c-67,0 -121,-54 -121,-120 0,-67 54,-121 121,-121l15 0 0 -15c0,-67 54,-121 121,-121 66,0 120,54 120,121l0 15 15 0c67,0 121,54 121,121 0,66 -54,120 -121,120l-15 0 0 15c0,67 -54,121 -120,121zm-637 0c-66,0 -120,-54 -120,-121l0 -15 -15 0c-67,0 -121,-54 -121,-120 0,-67 54,-121 121,-121l15 0 0 -15c0,-67 54,-121 120,-121 67,0 121,54 121,121l0 15 15 0c67,0 121,54 121,121 0,66 -54,120 -121,120l-15 0 0 15c0,67 -54,121 -121,121z"/>
 </g>
</svg>
