<?xml version="1.0" encoding="UTF-8" standalone="no"?>
<!DOCTYPE svg PUBLIC "-//W3C//DTD SVG 1.1//EN" "http://www.w3.org/Graphics/SVG/1.1/DTD/svg11.dtd">
<!-- Created with Vectornator (http://vectornator.io/) -->
<svg height="100%" stroke-miterlimit="10" style="fill-rule:nonzero;clip-rule:evenodd;stroke-linecap:round;stroke-linejoin:round;" version="1.1" viewBox="0 0 300 300" width="100%" xml:space="preserve" xmlns="http://www.w3.org/2000/svg" xmlns:vectornator="http://vectornator.io" xmlns:xlink="http://www.w3.org/1999/xlink">
<defs/>
<g id="Layer-1" vectornator:layerName="Layer 1">
<path d="M88 38.5C88 42.6667 88 46.8333 88 51C92.1667 51 96.3333 51 100.5 51C104.667 51 108.833 51 113 51C113 46.8333 113 42.6667 113 38.5C113 34.3333 113 30.1667 113 26C108.833 26 104.667 26 100.5 26C96.3333 26 92.1667 26 88 26C88 30.1667 88 34.3333 88 38.5ZM138 76C138 92.6667 138 109.333 138 126C154.667 126 171.333 126 188 126C204.667 126 221.333 126 238 126C238 109.333 238 92.6667 238 76C238 59.3333 238 42.6667 238 26C221.333 26 204.667 26 188 26C171.333 26 154.667 26 138 26C138 42.6667 138 59.3333 138 76ZM251 28C251 28.6667 251 29.3333 251 30C252.333 30 253.667 30 255 30C256.333 30 257.667 30 259 30C259 33.5 259 37 259 40.5C259 44 259 47.5 259 51C259.667 51 260.333 51 261 51C261.667 51 262.333 51 263 51C263 47.5 263 44 263 40.5C263 37 263 33.5 263 30C264.333 30 265.667 30 267 30C268.333 30 269.667 30 271 30C271 29.3333 271 28.6667 271 28C271 27.3333 271 26.6667 271 26C267.667 26 264.333 26 261 26C257.667 26 254.333 26 251 26C251 26.6667 251 27.3333 251 28ZM276 38.5C276 42.6667 276 46.8333 276 51C276.667 51 277.333 51 278 51C278.667 51 279.333 51 280 51C280 47.5 280 44 280 40.5C280 37 280 33.5 280 30C280.667 30 281.333 30 282 30C282.667 30 283.333 30 284 30C284 33.5 284 37 284 40.5C284 44 284 47.5 284 51C284.667 51 285.333 51 286 51C286.667 51 287.333 51 288 51C288 47.5 288 44 288 40.5C288 37 288 33.5 288 30C288.667 30 289.333 30 290 30C290.667 30 291.333 30 292 30C292 33.5 292 37 292 40.5C292 44 292 47.5 292 51C292.667 51 293.333 51 294 51C294.667 51 295.333 51 296 51C296 46.8333 296 42.6667 296 38.5C296 34.3333 296 30.1667 296 26C292.667 26 289.333 26 286 26C282.667 26 279.333 26 276 26C276 30.1667 276 34.3333 276 38.5ZM88 82C88 88.3333 88 94.6667 88 101C79.6667 101 71.3333 101 63 101C54.6667 101 46.3333 101 38 101C38 96.8333 38 92.6667 38 88.5C38 84.3333 38 80.1667 38 76C33.8333 76 29.6667 76 25.5 76C21.3333 76 17.1667 76 13 76C13 84.3333 13 92.6667 13 101C13 109.333 13 117.667 13 126C29.6667 126 46.3333 126 63 126C79.6667 126 96.3333 126 113 126C113 115.5 113 105 113 94.5C113 84 113 73.5 113 63C108.833 63 104.667 63 100.5 63C96.3333 63 92.1667 63 88 63C88 69.3333 88 75.6667 88 82ZM163 75C167.333 75 171.667 75 176 75C180.333 75 184.667 75 189 75C189 79.3333 189 83.6667 189 88C189 92.3333 189 96.6667 189 101C184.667 101 180.333 101 176 101C171.667 101 167.333 101 163 101C163 96.6667 163 92.3333 163 88C163 83.6667 163 79.3333 163 75ZM13 201C13 217.667 13 234.333 13 251C29.6667 251 46.3333 251 63 251C79.6667 251 96.3333 251 113 251C113 234.333 113 217.667 113 201C113 184.333 113 167.667 113 151C96.3333 151 79.6667 151 63 151C46.3333 151 29.6667 151 13 151C13 167.667 13 184.333 13 201ZM138 201C138 217.667 138 234.333 138 251C144.333 251 150.667 251 157 251C163.333 251 169.667 251 176 251C176 255.167 176 259.333 176 263.5C176 267.667 176 271.833 176 276C180 276 184 276 188 276C192 276 196 276 200 276C200 271.833 200 267.667 200 263.5C200 259.333 200 255.167 200 251C206.333 251 212.667 251 219 251C225.333 251 231.667 251 238 251C238 234.333 238 217.667 238 201C238 184.333 238 167.667 238 151C221.333 151 204.667 151 188 151C171.333 151 154.667 151 138 151C138 167.667 138 184.333 138 201ZM63 176C67.1667 176 71.3333 176 75.5 176C79.6667 176 83.8333 176 88 176C88 180.167 88 184.333 88 188.5C88 192.667 88 196.833 88 201C83.8333 201 79.6667 201 75.5 201C71.3333 201 67.1667 201 63 201C63 196.833 63 192.667 63 188.5C63 184.333 63 180.167 63 176ZM163 176C171.333 176 179.667 176 188 176C196.333 176 204.667 176 213 176C213 184.333 213 192.667 213 201C213 209.333 213 217.667 213 226C210.833 226 208.667 226 206.5 226C204.333 226 202.167 226 200 226C200 223.833 200 221.667 200 219.5C200 217.333 200 215.167 200 213C196 213 192 213 188 213C184 213 180 213 176 213C176 215.167 176 217.333 176 219.5C176 221.667 176 223.833 176 226C173.833 226 171.667 226 169.5 226C167.333 226 165.167 226 163 226C163 217.667 163 209.333 163 201C163 192.667 163 184.333 163 176Z" fill="#000000" fill-rule="nonzero" opacity="1" stroke="none" vectornator:layerName="Curve 1"/>
</g>
</svg>
