<?xml version="1.0" encoding="UTF-8" standalone="no"?>
<!-- Created with Inkscape (http://www.inkscape.org/) -->

<svg
   xmlns:dc="http://purl.org/dc/elements/1.1/"
   xmlns:cc="http://creativecommons.org/ns#"
   xmlns:rdf="http://www.w3.org/1999/02/22-rdf-syntax-ns#"
   xmlns:svg="http://www.w3.org/2000/svg"
   xmlns="http://www.w3.org/2000/svg"
   xmlns:xlink="http://www.w3.org/1999/xlink"
   xmlns:sodipodi="http://sodipodi.sourceforge.net/DTD/sodipodi-0.dtd"
   xmlns:inkscape="http://www.inkscape.org/namespaces/inkscape"
   width="281.34903mm"
   height="100.75655mm"
   viewBox="0 0 281.34903 100.75655"
   version="1.1"
   id="svg7343"
   inkscape:version="0.92.3 (2405546, 2018-03-11)"
   sodipodi:docname="synapse.svg">
  <defs
     id="defs7337">
    <linearGradient
       inkscape:collect="always"
       id="linearGradient7997">
      <stop
         style="stop-color:#595e66;stop-opacity:0.23529412"
         offset="0"
         id="stop7993" />
      <stop
         id="stop8001"
         offset="0.13401698"
         style="stop-color:#475770;stop-opacity:0.76078433" />
      <stop
         style="stop-color:#575b64;stop-opacity:0.21960784"
         offset="0.27354211"
         id="stop8003" />
      <stop
         id="stop8005"
         offset="0.42002046"
         style="stop-color:#8cccdc;stop-opacity:0.93725491" />
      <stop
         style="stop-color:#595f5f;stop-opacity:0.16862746"
         offset="0.67823362"
         id="stop8009" />
      <stop
         style="stop-color:#4d596d;stop-opacity:0.59607846"
         offset="0.80562252"
         id="stop8007" />
      <stop
         style="stop-color:#000000;stop-opacity:0;"
         offset="1"
         id="stop7995" />
    </linearGradient>
    <linearGradient
       inkscape:collect="always"
       id="linearGradient7984">
      <stop
         style="stop-color:#6b6b6b;stop-opacity:1"
         offset="0"
         id="stop7980" />
      <stop
         style="stop-color:#212121;stop-opacity:1"
         offset="1"
         id="stop7982" />
    </linearGradient>
    <linearGradient
       inkscape:collect="always"
       xlink:href="#linearGradient7984"
       id="linearGradient7986"
       x1="64.347107"
       y1="166.67778"
       x2="63.812565"
       y2="207.03548"
       gradientUnits="userSpaceOnUse" />
    <linearGradient
       inkscape:collect="always"
       xlink:href="#linearGradient7997"
       id="linearGradient7999"
       x1="-54.320564"
       y1="65.649895"
       x2="-137.17412"
       y2="164.80688"
       gradientUnits="userSpaceOnUse"
       gradientTransform="translate(44.712162,40.942664)" />
    <linearGradient
       inkscape:collect="always"
       xlink:href="#linearGradient7984"
       id="linearGradient8011"
       gradientUnits="userSpaceOnUse"
       x1="64.347107"
       y1="166.67778"
       x2="63.812565"
       y2="207.03548" />
    <linearGradient
       inkscape:collect="always"
       xlink:href="#linearGradient7984"
       id="linearGradient8013"
       gradientUnits="userSpaceOnUse"
       x1="64.347107"
       y1="166.67778"
       x2="63.812565"
       y2="207.03548" />
  </defs>
  <sodipodi:namedview
     id="base"
     pagecolor="#ffffff"
     bordercolor="#666666"
     borderopacity="1.0"
     inkscape:pageopacity="0.0"
     inkscape:pageshadow="2"
     inkscape:zoom="0.98994949"
     inkscape:cx="-75.975828"
     inkscape:cy="99.161215"
     inkscape:document-units="mm"
     inkscape:current-layer="layer1"
     showgrid="false"
     fit-margin-top="0"
     fit-margin-left="0"
     fit-margin-right="0"
     fit-margin-bottom="0"
     inkscape:window-width="3726"
     inkscape:window-height="2049"
     inkscape:window-x="114"
     inkscape:window-y="55"
     inkscape:window-maximized="1" />
  <metadata
     id="metadata7340">
    <rdf:RDF>
      <cc:Work
         rdf:about="">
        <dc:format>image/svg+xml</dc:format>
        <dc:type
           rdf:resource="http://purl.org/dc/dcmitype/StillImage" />
        <dc:title></dc:title>
      </cc:Work>
    </rdf:RDF>
  </metadata>
  <g
     inkscape:label="Layer 1"
     inkscape:groupmode="layer"
     id="layer1"
     transform="translate(99.716514,1.2820527)">
    <g
       id="g7899"
       transform="translate(1.1339286,-106.21131)">
      <g
         id="g7990">
        <path
           id="path7929-35"
           style="fill:url(#linearGradient7999);fill-opacity:1;stroke-width:0.26458338"
           d="m -9.5583983,156.2175 c -0.41744,2.78368 -2.9062097,8.8587 -4.9740297,12.14144 -4.134074,6.56301 -11.870564,12.14842 -20.134264,14.53608 -2.356289,0.68081 -4.02836,0.8783 -3.760009,0.4441 0.0793,-0.12835 1.723458,-0.85769 3.653628,-1.62077 9.819971,-3.8822 15.279341,-7.99696 19.339175,-14.576 1.2324,-1.99713 3.37334,-6.55369 4.80507,-10.22664 0.8569597,-2.19844 1.3429394,-2.51542 1.0704297,-0.69821 z m 6.9027379,6.45491 c -0.15615,2.01547 -1.21824,5.55123 -2.34394,7.80319 -2.9899288,5.98131 -7.3709476,9.9625 -15.1515606,13.76879 -3.986911,1.95041 -7.113129,3.04424 -10.889472,3.81013 -2.79785,0.56744 -5.3824,0.71578 -5.3824,0.30893 0,-0.12987 1.577581,-0.62112 3.505732,-1.09167 6.51034,-1.58881 11.97067,-3.81766 16.999483,-6.93902 5.82398,-3.61493 9.5739079,-8.61786 12.0263176,-16.04481 1.12383,-3.4034 1.40258,-3.7678 1.23584,-1.61554 z m -63.4460176,39.69322 c -0.63198,-1.34607 -1.58915,-2.95752 -2.12703,-3.581 -1.53812,-1.78288 -2.5588,-2.1683 -6.42925,-2.42776 -1.84547,-0.12372 -4.36745,-0.4855 -5.60437,-0.80398 -3.22729,-0.83092 -3.82436,-0.6995 -8.33659,1.83508 -4.34946,2.44314 -6.94375,3.72037 -7.557386,3.72068 -0.430867,2.2e-4 -2.139508,-2.3639 -1.940818,-2.68537 0.0618,-0.10006 0.870034,-0.60561 1.795991,-1.12343 2.014153,-1.12639 5.616853,-3.9989 6.447653,-5.14087 1.03257,-1.4193 0.69183,-2.29366 -1.8255,-4.68436 -2.63796,-2.50526 -4.266896,-3.5672 -6.257064,-4.07912 -2.798758,-0.71991 -3.409528,-1.16648 -2.559858,-1.87164 0.557577,-0.46275 4.072849,-0.14693 5.508222,0.49488 1.47725,0.66053 5.09154,3.38464 6.35115,4.78689 1.8431,2.05184 2.48165,4.34206 1.62732,5.83656 -0.59598,1.04256 -0.49214,1.07291 1.12448,0.32873 1.86282,-0.85751 3.34174,-0.87606 6.28386,-0.0788 1.16416,0.31547 3.55072,0.67969 5.30346,0.80939 2.11754,0.15669 3.58232,0.40701 4.36562,0.74605 1.70402,0.73755 3.47762,2.42505 4.40917,4.19514 0.92393,1.75557 1.84088,5.06435 1.5869,5.72621 -0.38797,1.01104 -1.02916,0.41801 -2.16596,-2.00328 z m 2.07685,-3.04271 c -0.99637,-1.56435 -2.87013,-4.26459 -4.1639,-6.00055 -2.89978,-3.89087 -3.60089,-5.32186 -3.60435,-7.35673 -0.002,-1.30508 0.10547,-1.63798 0.77038,-2.38125 l 0.77296,-0.86407 h 4.84943 c 5.13991,0 6.39437,0.22883 6.65184,1.21339 0.16738,0.64003 -0.0972,0.69679 -4.18365,0.89738 -1.74625,0.0857 -3.85961,0.22678 -4.69636,0.31348 -1.49505,0.15491 -1.52125,0.17192 -1.51554,0.98336 0.008,1.20157 0.7175,2.57756 3.01597,5.8528 2.20218,3.13805 4.65113,7.73652 4.65113,8.73357 0,0.76041 -0.25202,1.45289 -0.52876,1.45289 -0.11416,0 -1.02277,-1.27992 -2.01915,-2.84427 z m -4.28057,-18.72335 c -2.09753,-0.91115 -8.57994,-7.60857 -10.23962,-10.57925 -1.01048,-1.80867 -1.35,-2.91145 -0.96888,-3.147 0.50468,-0.31191 1.08446,0.16489 2.64723,2.17703 0.86642,1.11556 3.22938,3.65279 5.251,5.63828 3.90843,3.83856 4.45505,4.16926 6.96375,4.21307 2.89962,0.0506 4.47492,0.52362 4.49387,1.3493 0.0163,0.71288 -6.6519,0.99817 -8.14735,0.34857 z m -26.24443,-1.18064 c -5.061925,-0.7713 -5.415245,-0.90284 -4.604018,-1.71408 0.367777,-0.36777 1.129904,-0.42081 5.422868,-0.37741 l 4.99497,0.0505 1.52486,-1.06503 c 0.83867,-0.58577 2.16224,-1.38627 2.94127,-1.7789 1.59971,-0.80626 1.5766,-0.61804 0.4566,-3.71995 -0.3678,-1.01865 -0.6718,-2.30685 -0.67556,-2.86268 -0.006,-0.89579 0.0602,-1.00098 0.58312,-0.92604 0.45995,0.0659 0.92383,0.75501 2.10519,3.12726 0.83339,1.67349 1.52041,3.37554 1.52672,3.78234 0.015,0.96791 -0.8314,1.78931 -2.93311,2.84642 -0.92709,0.46631 -2.14109,1.20678 -2.69777,1.64549 -2.04281,1.60992 -3.49593,1.77667 -8.64514,0.99207 z m 32.27916,-14.23871 c 0,-0.41608 2.64541,-3.32619 4.67462,-5.14238 1.85421,-1.65956 10.220007,-8.46883 22.509897,-18.32173 2.36393,-1.89519 4.19566,-3.48014 4.07051,-3.52212 -0.12515,-0.042 -0.84329,0.16638 -1.59587,0.46303 -1.80191,0.71024 -2.05356,0.68503 -2.53937,-0.25441 -0.24842,-0.4804 -0.61929,-0.79375 -0.93944,-0.79375 -1.15919,0 -5.65802,2.5997 -10.61978,6.13677 -3.44507,2.45587 -6.52066,5.17287 -12.517857,11.05838 -4.63454,4.54823 -6.81647,6.37136 -7.18464,6.00319 -0.19135,-0.19135 5.33728,-6.09309 9.46791,-10.10687 6.931017,-6.73497 15.353347,-12.69983 21.911977,-15.51851 4.7186,-2.02789 7.96547,-4.93971 7.52471,-6.7482 -0.22264,-0.91352 -3.4718,-4.17985 -5.49245,-5.52148 -0.83573,-0.55489 -2.30309,-1.19834 -3.39814,-1.4901 -2.27828,-0.60703 -2.85734,-1.03012 -2.31093,-1.6885 0.30987,-0.37337 0.68338,-0.41158 2.48619,-0.25431 2.46513,0.21503 3.35747,0.59868 6.27602,2.69826 4.34359,3.12473 6.14131,6.29434 4.8506,8.5522 -0.5926,1.03665 -0.48925,1.077 0.99219,0.38729 1.731666,-0.80621 3.568076,-0.83872 6.283846,-0.11125 1.09141,0.29236 3.46932,0.65088 5.28425,0.79671 2.5189,0.20239 3.6285091,0.4156 4.6885025,0.90088 1.6847131,0.77129 3.5050621,2.5855 4.4037241,4.38889 0.910429,1.82699 1.694032,5.18948 1.30097,5.58254 -0.556779,0.55678 -1.085371,-0.008 -2.18966,-2.33786 -2.1671757,-4.57316 -3.5056861,-5.54681 -7.9447666,-5.77911 -1.52069,-0.0796 -4.07377,-0.43768 -5.67352,-0.79577 -1.59974,-0.35809 -3.19867,-0.65107 -3.55317,-0.65107 -0.96063,0 -5.409416,2.34539 -6.496176,3.42478 -0.521,0.51746 -1.50954,1.58039 -2.19674,2.36207 -1.50757,1.71482 -6.1631,5.64786 -17.25674,14.57867 -4.58391,3.69022 -9.691127,7.88043 -11.349377,9.31157 -2.84944,2.45918 -3.46729,2.88545 -3.46729,2.39219 z m -16.01671,-18.20805 c 0.41744,-2.78368 2.90621,-8.8587 4.97403,-12.14144 4.13407,-6.56301 11.87056,-12.14842 20.134257,-14.53608 2.35629,-0.68081 4.02836,-0.8783 3.76001,-0.4441 -0.0793,0.12835 -1.72346,0.85769 -3.65363,1.62077 -9.819967,3.8822 -15.279337,7.99696 -19.339167,14.576 -1.2324,1.99713 -3.37334,6.55369 -4.80507,10.22664 -0.85696,2.19843 -1.34294,2.51542 -1.07043,0.69821 z m -6.90274,-6.45491 c 0.15615,-2.01547 1.21823,-5.55123 2.34394,-7.80319 2.98993,-5.98131 7.37095,-9.9625 15.15156,-13.76879 3.98691,-1.95041 7.11313,-3.04424 10.88947,-3.81013 2.797847,-0.56744 5.382397,-0.71578 5.382397,-0.30893 0,0.12987 -1.57758,0.62112 -3.50573,1.09167 -6.510337,1.58881 -11.970667,3.81766 -16.999477,6.93902 -5.82398,3.61493 -9.57391,8.61786 -12.02632,16.0448 -1.12383,3.40341 -1.40258,3.76781 -1.23584,1.61555 z m 82.6433946,-3.63601 c -1.215792,-1.85539 -3.188166,-4.68312 -4.3830524,-6.28385 -1.6753911,-2.24443 -2.3014898,-3.33046 -2.7361155,-4.74605 -0.5113117,-1.66534 -0.5291217,-1.93312 -0.191998,-2.88645 0.7040007,-1.99081 1.2128024,-2.158 6.5445649,-2.15056 5.0317368,0.007 6.1848548,0.2514 6.3416098,1.34395 0.07524,0.52439 -0.07575,0.56048 -3.04270786,0.72726 -5.83871994,0.32823 -7.18684734,0.48935 -7.33548034,0.87668 -0.2922347,0.76156 0.7652887,2.91856 3.1598234,6.445 3.45651897,5.09042 4.86099088,8.01546 4.51348191,9.40005 -0.08937,0.35608 -0.27433897,0.64741 -0.41104597,0.64741 -0.136705,0 -1.24328994,-1.51805 -2.45907994,-3.37344 z m -2.520204,-17.79331 c -1.8658354,-0.27921 -2.8604328,-1.01392 -6.6648876,-4.92336 -3.91521,-4.02325 -6.44199,-7.79759 -5.99683,-8.95765 0.26818,-0.69889 1.09047,-0.0983 2.77558,2.02717 2.1752,2.74366 8.2937879,8.7043 9.4987956,9.25358 0.552186,0.25171 2.059088,0.51714 3.496294,0.61586 3.0166709,0.2072 3.3531628,0.28725 3.5686979,0.84892 0.2786159,0.72607 -0.09767,0.83452 -4.3501449,1.25387 -0.509323,0.0502 -1.5567,-0.003 -2.327505,-0.11839 z m -27.1735336,-1.47379 c -3.24589,-0.48447 -5.12309,-0.89919 -5.28959,-1.16859 -0.0766,-0.12391 0.0584,-0.42296 0.30003,-0.66455 0.38462,-0.38462 1.05458,-0.42842 5.38571,-0.35206 l 4.94645,0.0872 1.56203,-1.09038 c 0.85912,-0.59971 2.187116,-1.40539 2.951096,-1.79039 1.50132,-0.75659 1.62315,-1.05868 0.95097,-2.35789 -0.5729,-1.10732 -1.14231,-3.26944 -1.14627,-4.35249 -0.002,-0.68153 0.10548,-0.85989 0.52048,-0.85989 0.40456,0 0.88585,0.72428 2.11667,3.18535 0.87618,1.75195 1.59305,3.48377 1.59305,3.84849 0,0.85628 -0.89894,1.73997 -2.67857,2.63311 -0.78236,0.39265 -2.00889,1.13144 -2.725616,1.64177 -2.49261,1.77479 -3.71178,1.95297 -8.48644,1.24032 z"
           inkscape:connector-curvature="0" />
      </g>
      <g
         id="g7978"
         style="fill:url(#linearGradient7986);fill-opacity:1">
        <path
           sodipodi:nodetypes="ccccccccccccccccccscscsccssccccccccscccscccccccscsccccccscccscccccscscsccsccscsccscccccccsccsccccccccccsscccccccccccsccccssccccsccscscsccssccccccccsssccccccccccccccccccsccscsccccsscsccccc"
           inkscape:connector-curvature="0"
           id="path7929-3"
           d="m -17.864834,205.37904 c -0.36628,-0.36628 -0.46805,-5.94283 -0.11848,-6.49274 0.14853,-0.23365 2.55061,-0.3382 9.1184202,-0.39687 l 8.91677,-0.0797 0.73149,-0.73185 c 0.65286,-0.65318 0.74171,-0.95668 0.82648,-2.82333 l 0.095,-2.09148 -6.44322,-0.0917 c -7.0467102,-0.10025 -7.4288102,-0.17305 -9.4943002,-1.80895 -1.41716,-1.1224 -3.04626,-3.66305 -3.42189,-5.33655 -0.17329,-0.77202 -0.35865,-1.54482 -0.41191,-1.71732 0,0 -0.258572,-13.73018 0.09321,-16.39385 0.16577,-1.15789 0.24204,-1.25521 1.19534,-1.52525 l 2.98619,-0.14689 c 0.12751,0.12751 1.2432,0.26689 2.47931,0.30973 l 2.2474802,0.0779 0.0773,2.05052 0.05501,5.83062 v 4.46845 c 0,4.75876 0.24116,5.98918 1.28313,6.54682 0.32098,0.17179 2.28347,0.28588 4.91719,0.28588 h 4.38302 v -9.23877 c 0,-5.08133 0.0723,-9.42711 0.1606,-9.6573 0.24119,-0.62852 8.6980258,-0.62852 8.9392158,0 0.0883,0.23019 0.1606,7.17033 0.1606,15.42254 0,16.30273 -0.0405,16.82534 -1.4959102,19.30933 -0.88586,1.51191 -2.44056,3.04545 -3.850916,3.79854 -1.12379,0.60006 -1.24834,0.60708 -12.1181696,0.68317 -8.4733602,0.0593 -11.0577002,0.002 -11.3109402,-0.25136 z m -0.10237,-28.67362 c 0.0532,-2.68554 0.0192,-5.08461 -0.0754,-5.33126 0,0 -0.126434,16.1014 0.0754,5.33126 z m 101.815117,28.804 c -0.097,-0.097 -0.17639,-8.96298 -0.17639,-19.70215 0,-19.41782 0.003,-19.52737 0.54275,-19.81623 0.37542,-0.20092 3.74024,-0.26496 10.91406,-0.20775 10.235977,0.0816 10.389277,0.0908 11.747617,0.70514 1.73499,0.78461 3.84804,2.99018 4.78958,4.99928 l 0.71329,1.52206 v 9.525 9.525 l -0.7091,1.5129 c -0.84039,1.79301 -2.82374,3.99926 -4.31147,4.796 -0.98624,0.52816 -1.5532,0.58003 -7.679437,0.70256 l -6.61458,0.13229 -0.0756,2.89471 c -0.0416,1.59209 -0.20499,3.0506 -0.36312,3.24114 -0.21464,0.25863 -1.34115,0.34644 -4.44436,0.34644 -2.28626,0 -4.23622,-0.0794 -4.33323,-0.17639 z m 17.917667,-13.83516 c 1.38292,-0.52578 1.48511,-1.17059 1.48511,-9.37064 v -7.53346 l -0.68498,-0.81405 -0.68498,-0.81405 h -4.458777 c -2.45233,0 -4.51281,0.0893 -4.57885,0.19844 -0.066,0.10914 -0.0554,4.33586 0.0237,9.3927 l 0.14373,9.19428 h 4.04454 c 2.22449,0 4.344237,-0.11395 4.710537,-0.25322 z m 57.12186,7.39838 c -0.75954,-0.11342 -1.91045,-0.51653 -2.55759,-0.89578 -1.58708,-0.93008 -3.48287,-3.15252 -4.20243,-4.92647 -0.57166,-1.40936 -0.59026,-1.74693 -0.59026,-10.71562 0,-9.07368 0.0124,-9.29108 0.61399,-10.78089 0.8106,-2.00739 2.84557,-4.20859 4.75967,-5.14855 l 1.5055,-0.73931 h 7.54064 c 7.19722,0 7.59767,0.0264 8.79332,0.57862 1.68503,0.77833 3.63625,2.78589 4.58412,4.71642 0.72959,1.48601 0.77777,1.78103 0.77777,4.76341 0,3.05674 -0.0334,3.24716 -0.86627,4.94022 -1.05318,2.14083 -3.19043,4.20304 -4.99229,4.817 -1.00492,0.34242 -2.44568,0.42495 -7.41773,0.42495 h -6.17059 v 2.01084 c 0,1.93405 0.0343,2.04518 0.89959,2.91041 l 0.89958,0.89959 h 8.74839 c 8.37851,0 8.75999,0.0216 9.0223,0.51177 0.34245,0.63987 0.35475,5.82968 0.0151,6.36739 -0.21482,0.34007 -1.66278,0.40227 -10.11627,0.43455 -5.42607,0.0207 -10.48701,-0.0551 -11.24655,-0.16855 z m 11.27417,-20.74472 c 1.1951,-1.08269 1.26466,-3.30849 0.14129,-4.52064 -0.60248,-0.65008 -0.7016,-0.66522 -4.35367,-0.66522 h -3.73713 l -0.7734,0.7734 c -0.71565,0.71564 -0.77341,0.91979 -0.77341,2.73402 0,1.07835 0.0891,2.04975 0.19804,2.15867 0.10893,0.10892 2.12075,0.15853 4.47072,0.11024 3.75163,-0.0771 4.34033,-0.14909 4.82756,-0.59047 z M 15.866772,198.48217 c -0.0726,-0.33086 -0.0564,-7.74532 0.0359,-16.47657 l 0.16782,-15.875 2.381246,-0.20915 c 1.30969,-0.11504 6.19125,-0.17457 10.847925,-0.13229 l 8.46666,0.0769 1.50882,0.74093 c 2.54636,1.25043 4.61031,4.00528 5.24724,7.00375 0.16215,0.76335 0.23796,5.94479 0.19444,13.28969 l -0.0713,12.03854 h -4.49792 -4.49791 l -0.1323,-12.21588 -0.13229,-12.21588 -0.64143,-0.68256 -0.64143,-0.68255 h -4.58158 -4.581575 l -0.0687,12.89844 -0.0687,12.89843 -4.40151,0.0724 c -4.389606,0.0722 -4.401876,0.0708 -4.533436,-0.52917 z m 39.362041,-0.0345 c -1.66252,-0.78108 -3.65943,-2.90541 -4.58256,-4.87498 -0.64027,-1.36604 -0.7091,-1.80827 -0.7091,-4.55561 0,-2.74182 0.0696,-3.1912 0.7039,-4.54426 0.85188,-1.81724 2.54458,-3.70979 4.17567,-4.6687 l 1.20584,-0.70892 6.68073,-0.0827 6.68073,-0.0827 v -2.07986 c 0,-1.85154 -0.0752,-2.16921 -0.68498,-2.8939 l -0.68498,-0.81405 h -8.7871 c -6.48164,0 -8.87041,-0.0833 -9.1046,-0.3175 -0.21097,-0.21096 -0.3175,-1.36201 -0.3175,-3.43028 0,-2.86794 0.0427,-3.13562 0.54274,-3.40324 0.37542,-0.20092 3.74024,-0.26496 10.91407,-0.20775 l 10.37131,0.0827 1.5055,0.73931 c 1.91412,0.93996 3.94906,3.14116 4.75968,5.14855 0.61292,1.51784 0.61399,1.54272 0.61399,14.35276 v 12.83229 l -10.98021,0.0651 -10.98021,0.0651 z m 14.15521,-9.43059 v -2.91042 h -4.38597 -4.38599 l -0.77339,0.7734 c -0.65472,0.65473 -0.7734,0.98264 -0.7734,2.13702 0,1.15438 0.11868,1.48229 0.7734,2.13702 l 0.77339,0.7734 h 4.38599 4.38597 z m 48.269327,9.70803 c -0.073,-0.19037 -0.0991,-1.76795 -0.0578,-3.50573 l 0.075,-3.15959 9.08522,-0.13229 9.08522,-0.1323 0.63822,-0.74235 c 0.97214,-1.13077 0.90737,-3.13024 -0.13518,-4.17279 l -0.7734,-0.7734 -5.37816,-0.0116 c -3.83022,-0.008 -5.6677,-0.11489 -6.38412,-0.37043 -1.58593,-0.56569 -3.05346,-1.71716 -4.16269,-3.26619 -1.52549,-2.13031 -1.97574,-3.68385 -1.9716,-6.80281 0.003,-2.31128 0.0933,-2.83829 0.71329,-4.16789 0.93559,-2.0063 3.04879,-4.21364 4.78606,-4.99929 1.3601,-0.61508 1.50041,-0.62335 11.91557,-0.70263 7.78996,-0.0593 10.63704,7.9e-4 10.91405,0.23083 0.57968,0.48108 0.54039,6.7407 -0.0437,6.96484 -0.23018,0.0883 -4.32725,0.1606 -9.1046,0.1606 h -8.68609 l -0.68498,0.81405 c -0.99191,1.17882 -0.95603,2.84275 0.0865,4.01042 l 0.77145,0.86407 5.90928,0.13229 c 5.3949,0.12078 6.0014,0.18175 6.96761,0.70046 1.58152,0.84905 3.23361,2.66046 4.18232,4.58564 0.80804,1.63971 0.84476,1.85249 0.84476,4.89479 0,2.9497 -0.0539,3.29036 -0.74266,4.69313 -0.95813,1.95141 -2.73808,3.77011 -4.48642,4.58409 l -1.3855,0.64505 -10.92236,0.003 c -8.7549,0.002 -10.94873,-0.0661 -11.0552,-0.34355 z"
           style="fill:url(#linearGradient8011);fill-opacity:1;stroke-width:0.26458338" />
        <path
           sodipodi:nodetypes="cccccccccccccsccscsccccsscsccccc"
           inkscape:connector-curvature="0"
           id="path7929-3-0"
           d="m -51.081154,198.70322 c -0.073,-0.19037 -0.0991,-1.76795 -0.0578,-3.50573 l 0.075,-3.15959 9.08522,-0.13229 9.085219,-0.1323 0.63822,-0.74235 c 0.97214,-1.13077 0.90737,-3.13024 -0.13518,-4.17279 l -0.7734,-0.7734 -5.378159,-0.0116 c -3.83022,-0.008 -5.6677,-0.11489 -6.38412,-0.37043 -1.58593,-0.56569 -3.05346,-1.71716 -4.16269,-3.26619 -1.52549,-2.13031 -1.97574,-3.68385 -1.9716,-6.80281 0.003,-2.31128 0.0933,-2.83829 0.71329,-4.16789 0.93559,-2.0063 3.04879,-4.21364 4.78606,-4.99929 1.3601,-0.61508 1.50041,-0.62335 11.915569,-0.70263 7.78996,-0.0593 10.63704,7.9e-4 10.91405,0.23083 0.57968,0.48108 0.54039,6.7407 -0.0437,6.96484 -0.23018,0.0883 -4.32725,0.1606 -9.1046,0.1606 h -8.686089 l -0.68498,0.81405 c -0.99191,1.17882 -0.95603,2.84275 0.0865,4.01042 l 0.77145,0.86407 5.90928,0.13229 c 5.394899,0.12078 6.001399,0.18175 6.967609,0.70046 1.58152,0.84905 3.23361,2.66046 4.18232,4.58564 0.80804,1.63971 0.84476,1.85249 0.84476,4.89479 0,2.9497 -0.0539,3.29036 -0.74266,4.69313 -0.95813,1.95141 -2.73808,3.77011 -4.48642,4.58409 l -1.3855,0.64505 -10.922359,0.003 c -8.7549,0.002 -10.94873,-0.0661 -11.0552,-0.34355 z"
           style="fill:url(#linearGradient8013);fill-opacity:1;stroke-width:0.26458341" />
      </g>
    </g>
  </g>
</svg>
