<?xml version="1.0" encoding="UTF-8" standalone="no"?>
<!-- Created with Inkscape (http://www.inkscape.org/) -->

<svg
   xmlns:dc="http://purl.org/dc/elements/1.1/"
   xmlns:cc="http://creativecommons.org/ns#"
   xmlns:rdf="http://www.w3.org/1999/02/22-rdf-syntax-ns#"
   xmlns:svg="http://www.w3.org/2000/svg"
   xmlns="http://www.w3.org/2000/svg"
   xmlns:sodipodi="http://sodipodi.sourceforge.net/DTD/sodipodi-0.dtd"
   xmlns:inkscape="http://www.inkscape.org/namespaces/inkscape"
   width="267.97748mm"
   height="192.35283mm"
   viewBox="0 0 267.97748 192.35283"
   version="1.1"
   id="svg6897"
   inkscape:version="0.92.3 (2405546, 2018-03-11)"
   sodipodi:docname="openwebbeans.svg">
  <defs
     id="defs6891" />
  <sodipodi:namedview
     id="base"
     pagecolor="#ffffff"
     bordercolor="#666666"
     borderopacity="1.0"
     inkscape:pageopacity="0.0"
     inkscape:pageshadow="2"
     inkscape:zoom="0.98994949"
     inkscape:cx="490.49349"
     inkscape:cy="373.23997"
     inkscape:document-units="mm"
     inkscape:current-layer="layer1"
     showgrid="false"
     fit-margin-top="0"
     fit-margin-left="0"
     fit-margin-right="0"
     fit-margin-bottom="0"
     inkscape:window-width="3726"
     inkscape:window-height="2049"
     inkscape:window-x="114"
     inkscape:window-y="55"
     inkscape:window-maximized="1" />
  <metadata
     id="metadata6894">
    <rdf:RDF>
      <cc:Work
         rdf:about="">
        <dc:format>image/svg+xml</dc:format>
        <dc:type
           rdf:resource="http://purl.org/dc/dcmitype/StillImage" />
        <dc:title></dc:title>
      </cc:Work>
    </rdf:RDF>
  </metadata>
  <g
     inkscape:label="Layer 1"
     inkscape:groupmode="layer"
     id="layer1"
     transform="translate(249.59486,-55.233582)">
    <g
       id="g7453"
       transform="translate(-230.6536,-27.528761)">
      <path
         style="fill:#9a9a9a;stroke-width:0.26458332"
         d="m 73.948575,263.51754 c -1.635564,-0.58367 -3.018213,-1.63079 -4.219136,-3.19528 -1.691486,-2.20356 -1.666571,-1.84063 -1.591524,-23.18236 l 0.06789,-19.30702 h 3.439584 3.439583 l 0.06791,19.03112 c 0.06154,17.24682 0.1088,19.07629 0.504029,19.51302 0.585039,0.64646 1.743837,0.60976 2.363616,-0.0749 0.47938,-0.52953 0.507616,-1.20504 0.577405,-13.81334 0.05586,-10.09211 0.150598,-13.30564 0.396875,-13.46211 0.38122,-0.2422 5.513864,-0.28666 6.122691,-0.053 0.373872,0.14347 0.418515,1.56493 0.418515,13.32577 0,12.91823 0.01029,13.17826 0.54837,13.86232 0.607248,0.77199 1.461884,0.89443 2.245331,0.32166 0.498041,-0.3641 0.517597,-0.95488 0.645883,-19.51302 l 0.132291,-19.13754 h 3.439584 3.439583 v 19.84375 19.84375 l -0.77578,1.53206 c -0.911024,1.79915 -2.576441,3.42488 -4.325466,4.22239 -1.934652,0.88215 -5.249378,0.8286 -7.268025,-0.11742 l -1.521354,-0.71296 -1.506881,0.68987 c -2.019353,0.92449 -4.692058,1.07872 -6.640973,0.38322 z m 33.150975,0.25458 c -2.54771,-0.66639 -4.55494,-2.32147 -5.74357,-4.73593 l -0.87101,-1.76927 v -10.85348 c 0,-10.63003 0.012,-10.87919 0.58247,-12.10223 0.79137,-1.6966 2.55834,-3.55126 4.16941,-4.37634 1.90786,-0.97708 4.9865,-1.12743 7.061,-0.34486 2.87309,1.08383 4.9171,3.59352 5.49442,6.74615 0.32689,1.78511 0.38748,12.81198 0.0731,13.30683 -0.14833,0.23349 -1.61487,0.34496 -5.22147,0.39687 l -5.0152,0.0722 -0.075,2.83541 c -0.0676,2.5552 -0.0218,2.88857 0.46302,3.37343 0.54103,0.54103 1.47873,0.6968 2.01978,0.33554 0.56893,-0.37989 0.8995,-1.36866 0.8995,-2.69053 v -1.34031 h 3.43455 3.43454 l 0.18126,0.72222 c 0.26556,1.05807 -0.27724,4.33948 -0.94651,5.72202 -1.3558,2.80071 -4.23344,4.67745 -7.40185,4.82736 -0.95958,0.0454 -2.10188,-0.0109 -2.53845,-0.12507 z m 3.77913,-23.74019 c 0.0849,-3.02634 -0.27066,-3.87665 -1.62107,-3.87665 -1.44821,0 -1.76118,0.64595 -1.76118,3.63493 0,1.48116 0.0846,2.77759 0.18793,2.88095 0.10336,0.10336 0.84751,0.15297 1.65365,0.11024 l 1.46571,-0.0777 z m 11.62958,23.81313 c -0.10734,-0.10734 -0.19516,-10.53376 -0.19516,-23.16982 v -22.97465 h 3.41127 c 2.86656,0 3.43692,0.0668 3.57188,0.41851 0.0883,0.23019 0.1606,2.72193 0.1606,5.53721 v 5.1187 l 1.52135,0.16075 c 2.36222,0.24959 3.52262,0.62933 5.02048,1.64296 1.54174,1.04333 2.74641,2.67669 3.3791,4.58155 0.36216,1.09036 0.40998,2.73666 0.34316,11.81351 l -0.0776,10.5466 -0.73302,1.49265 c -0.85523,1.74151 -2.6277,3.47584 -4.37987,4.28561 -1.11268,0.51423 -1.76968,0.58028 -6.53204,0.65666 -2.91222,0.0467 -5.38276,-0.003 -5.49011,-0.11024 z m 9.63973,-7.42402 c 0.45157,-0.40867 0.48386,-1.06936 0.48386,-9.90267 v -9.46479 l -0.71352,-0.56125 c -0.45671,-0.35925 -1.00427,-0.53281 -1.52135,-0.48223 l -0.80784,0.079 -0.0692,10.38489 -0.0692,10.3849 h 1.10672 c 0.65852,0 1.30267,-0.17733 1.59057,-0.43788 z m 11.99026,7.27041 c -0.0735,-0.19263 -0.1029,-10.58961 -0.0653,-23.1044 l 0.0683,-22.75417 5.20087,-0.0717 c 4.70414,-0.0648 5.3396,-0.0197 6.6535,0.47185 2.03809,0.76254 3.69229,2.31157 4.73851,4.43721 l 0.86962,1.76685 v 6.35516 6.35517 l -0.75771,1.64022 -0.75771,1.64021 0.55922,1.1552 c 0.93777,1.93717 1.14467,3.91452 1.04433,9.9807 -0.0909,5.49795 -0.11794,5.74295 -0.79175,7.18636 -0.88753,1.90123 -2.51175,3.52656 -4.41661,4.41962 -1.43719,0.67381 -1.69934,0.70388 -6.85298,0.78626 -4.26314,0.0682 -5.38595,0.014 -5.49226,-0.26458 z m 9.92484,-7.3617 c 0.49365,-0.49365 0.52917,-0.88194 0.52917,-5.78515 0,-4.9494 -0.0326,-5.29745 -0.55918,-5.96687 -0.47168,-0.59964 -0.73046,-0.69838 -1.65365,-0.63099 l -1.09446,0.0799 -0.0713,6.07969 c -0.0392,3.34383 -0.0132,6.2311 0.0578,6.41615 0.2121,0.55272 2.18212,0.41672 2.79155,-0.19272 z m 0,-20.10833 c 0.4908,-0.4908 0.52917,-0.88194 0.52917,-5.39465 0,-5.71035 -0.11697,-6.04342 -2.13828,-6.0886 l -1.16901,-0.0261 -0.0716,5.68199 c -0.0394,3.1251 -0.0133,5.83378 0.0578,6.01928 0.2124,0.55351 2.18182,0.41814 2.79186,-0.1919 z m 17.78132,27.29612 c -2.54788,-0.90924 -4.75656,-3.21108 -5.48479,-5.71614 -0.34324,-1.1807 -0.39613,-3.05824 -0.33301,-11.82252 l 0.075,-10.41892 0.7015,-1.49632 c 0.82795,-1.76602 2.41496,-3.39127 4.14227,-4.24209 1.03339,-0.50901 1.66322,-0.61159 3.75518,-0.61159 2.13193,0 2.71335,0.0983 3.82956,0.6476 1.67701,0.82523 3.2782,2.42668 4.11426,4.1149 0.64244,1.29727 0.65672,1.46517 0.73658,8.65934 l 0.0814,7.33642 -5.10852,0.0719 -5.10852,0.0719 -0.0754,2.87929 c -0.084,3.20488 0.17829,3.86758 1.53065,3.86758 1.03751,0 1.5875,-0.75596 1.5875,-2.18201 0,-2.10669 -0.10074,-2.05132 3.73248,-2.05132 h 3.41127 v 2.10674 c 0,2.67822 -0.67292,4.5511 -2.27571,6.3338 -2.3253,2.58629 -6.12828,3.58746 -9.31172,2.45141 z m 4.43963,-23.52581 c -0.004,-3.03109 -0.0629,-3.25275 -0.98813,-3.74001 -0.45881,-0.24161 -0.73182,-0.24161 -1.19063,0 -0.92525,0.48726 -0.98382,0.70892 -0.98813,3.74001 l -0.004,2.84427 h 1.5875 1.5875 l -0.004,-2.84427 z m 17.54589,23.52115 c -1.85483,-0.6448 -3.40322,-1.76025 -4.34641,-3.13112 -1.41262,-2.05319 -1.6523,-3.05584 -1.66427,-6.96242 -0.0103,-3.36153 0.0324,-3.66537 0.72507,-5.15938 1.43335,-3.09159 3.76738,-4.74136 7.4464,-5.26337 l 2.1255,-0.30158 0.075,-2.66744 c 0.0852,-3.03263 -0.26951,-3.87229 -1.63593,-3.87229 -1.13404,0 -1.59719,0.66908 -1.74632,2.52282 l -0.13229,1.64436 -3.22754,0.0742 c -3.90456,0.0897 -3.94509,0.0562 -3.65656,-3.02281 0.34342,-3.66481 2.46031,-6.57884 5.65455,-7.78382 2.0745,-0.78257 5.15314,-0.63222 7.061,0.34486 1.61107,0.82508 3.37804,2.67974 4.16941,4.37634 0.57742,1.23793 0.58247,1.37148 0.58247,15.40396 v 14.15521 l -5.02708,0.0604 c -4.27138,0.0513 -5.23392,-0.0115 -6.40296,-0.41789 z m 4.28629,-10.09354 v -3.30729 l -0.98847,-0.0819 c -0.77016,-0.0638 -1.13536,0.065 -1.65364,0.58329 -0.59399,0.59399 -0.66518,0.8807 -0.66518,2.67897 0,2.90391 0.45968,3.61996 2.24896,3.50325 l 1.05833,-0.069 z m 11.69328,10.41446 c -0.10115,-0.10115 -0.18391,-7.96039 -0.18391,-17.46498 v -17.28107 l 0.69587,-0.17465 c 0.38273,-0.0961 2.73422,-0.1108 5.22552,-0.0328 3.80043,0.11904 4.77799,0.23588 6.0722,0.72571 2.07323,0.7847 4.15331,2.85437 4.91514,4.89056 0.54572,1.45856 0.55687,1.81004 0.48996,15.43316 l -0.0685,13.94062 h -3.30729 -3.30729 l -0.13229,-13.41837 c -0.14911,-15.12432 -0.0236,-14.29396 -2.16836,-14.33898 l -1.13893,-0.0239 -0.1323,13.89062 -0.13229,13.89063 -3.32182,0.0737 c -1.827,0.0405 -3.40458,-0.009 -3.50573,-0.11024 z m 27.99422,-0.18539 c -1.80557,-0.59806 -2.65466,-1.15616 -3.99633,-2.62675 -1.44003,-1.57841 -2.09585,-3.15203 -2.36105,-5.66529 -0.29442,-2.7902 -0.37269,-2.73078 3.59708,-2.73078 h 3.42176 v 1.41952 c 0,2.39333 1.57438,3.62068 2.91927,2.27578 0.48486,-0.48486 0.53063,-0.81823 0.46303,-3.37343 l -0.075,-2.83541 -5.08962,-0.0719 -5.08962,-0.0719 -0.16616,-0.66203 c -0.0914,-0.36411 -0.11232,-3.48694 -0.0465,-6.93961 0.1424,-7.47147 0.39683,-8.48783 2.70175,-10.79275 3.48518,-3.48518 9.21134,-3.36574 12.54239,0.26162 1.75601,1.91221 2.2651,3.2758 2.27944,6.10563 l 0.0122,2.38125 -3.13748,0.0748 c -2.02637,0.0483 -3.26343,-0.0298 -3.49317,-0.22042 -0.19825,-0.16452 -0.39055,-0.94703 -0.43441,-1.76764 -0.0653,-1.2213 -0.19397,-1.55823 -0.75464,-1.97548 -0.54639,-0.40664 -0.81353,-0.45074 -1.39381,-0.23012 -1.00015,0.38025 -1.26819,1.30975 -1.18076,4.09461 l 0.0754,2.40551 5.15937,0.14678 c 2.83766,0.0807 5.19766,0.17002 5.24444,0.19843 0.0468,0.0284 0.0463,3.29612 0,7.26156 -0.0842,7.042 -0.10144,7.2407 -0.73808,8.53282 -0.8419,1.70868 -2.69981,3.55546 -4.3729,4.3467 -1.60491,0.75901 -4.51587,0.97829 -6.08542,0.45841 z"
         id="path7463"
         inkscape:connector-curvature="0"
         sodipodi:nodetypes="ccscccsccsccsccscccccssccccccccsccccccccccscccccccccsscccccscscsccccccscccccsccccccscccccccccccccccscccccsccccccccsccccccccccccscccccccssscsccccccccccccccsccccscccccccsccccccccsccccscccccccccscccccccccsscscccccccsccccccccccccccccc" />
      <path
         style="fill:#00bcdd;stroke-width:0.26458332"
         d="M 2.897819,274.93878 C 2.800805,274.84177 2.72143,264.5556 2.72143,252.08063 c 0,-20.43872 0.041388,-22.69764 0.4185145,-22.84236 0.6470314,-0.24829 6.8924125,-0.17408 9.0624505,0.10768 3.336404,0.4332 5.479595,1.99055 6.896449,5.01131 l 0.688211,1.46729 0.08439,9.51003 c 0.09091,10.24387 -0.06949,12.22281 -1.137817,14.03788 -1.497142,2.54363 -3.984829,4.07254 -7.000176,4.30224 -0.954792,0.0727 -1.8848125,0.25039 -2.0667136,0.39479 -0.2451735,0.19464 -0.3307291,1.65729 -0.3307291,5.65412 v 5.39156 H 6.2051114 c -1.7219983,0 -3.2102787,-0.0794 -3.3072924,-0.17639 z m 9.757511,-18.46471 0.649433,-0.64943 v -9.2928 -9.29279 l -0.773398,-0.7734 c -0.829897,-0.82989 -2.274935,-1.05881 -2.8778517,-0.4559 -0.2359872,0.23599 -0.3175,2.94178 -0.3175,10.53924 0,5.62196 0.079375,10.30111 0.1763897,10.39812 0.097012,0.097 0.697738,0.17639 1.334942,0.17639 0.877292,0 1.316217,-0.15766 1.807985,-0.64943 z m -25.985521,6.79031 c -2.512002,-0.89758 -4.410198,-2.82674 -5.240217,-5.32569 -0.368338,-1.10896 -0.41056,-3.26396 -0.345648,-17.64183 l 0.07395,-16.37856 0.623365,-1.19063 c 0.849772,-1.62306 2.289687,-3.08142 3.874551,-3.92419 1.164761,-0.61937 1.623412,-0.70347 3.836459,-0.70347 2.2119926,0 2.6742652,0.0847 3.8532469,0.70578 1.6004556,0.84314 3.1398295,2.47626 3.9156262,4.15408 0.558687,1.20827 0.5655013,1.42387 0.5655013,17.89176 0,16.546 -0.00423,16.6779 -0.5741564,17.91133 -0.7327614,1.58582 -2.5181869,3.37287 -4.1675208,4.1713 -1.7605034,0.85224 -4.5519042,0.99588 -6.4151522,0.33012 z m 4.0621727,-6.71616 0.6123651,-0.57529 v -15.16742 c 0,-14.81464 -0.012308,-15.17973 -0.5291666,-15.69659 -0.6469957,-0.64699 -2.0254262,-0.69375 -2.6911452,-0.0913 -0.458128,0.4146 -0.483855,1.25166 -0.483855,15.74271 0,14.95204 0.0122,15.31702 0.529167,15.83399 0.692656,0.69265 1.797407,0.67277 2.5626347,-0.0461 z m 39.5670613,6.70701 c -1.918385,-0.68477 -3.732035,-2.29112 -4.691155,-4.15496 l -0.79375,-1.54248 v -11.1312 -11.13121 l 0.704744,-1.32292 c 1.552308,-2.91392 4.328605,-4.62322 7.516352,-4.62762 1.029102,-0.001 2.427399,0.18696 3.10732,0.41864 1.59625,0.5439 3.721915,2.46429 4.627364,4.18051 l 0.71297,1.35139 0.0817,7.20989 0.0817,7.2099 h -4.756412 c -2.616028,0 -4.944745,0.0723 -5.174927,0.1606 -0.347218,0.13324 -0.418515,0.66627 -0.418515,3.12888 0,2.76061 0.04284,3.00853 0.612365,3.54357 0.709559,0.66659 1.674563,0.72963 2.430343,0.15875 0.396391,-0.29942 0.562361,-0.81181 0.661458,-2.04211 l 0.132292,-1.6424 3.241146,-0.0743 3.241146,-0.0743 v 1.9826 c 0,3.62286 -1.69911,6.5331 -4.660056,7.98176 -1.954507,0.95625 -4.668946,1.1263 -6.656081,0.41699 z m 4.701553,-23.28863 c 0,-2.80468 -0.05596,-3.18464 -0.532582,-3.61598 -0.754415,-0.68273 -2.081435,-0.6231 -2.683648,0.1206 -0.41036,0.50677 -0.487936,1.08167 -0.487936,3.61597 v 3.0134 h 1.852083 1.852083 z m 11.553473,23.5951 c -0.09701,-0.097 -0.17639,-7.76197 -0.17639,-17.03323 0,-14.78098 0.04967,-16.89806 0.403331,-17.19157 0.492604,-0.40883 9.212154,-0.19797 10.756083,0.2601 1.474057,0.43735 3.399411,1.85208 4.367559,3.20924 1.627978,2.28212 1.683641,2.89117 1.607296,17.58657 l -0.06864,13.21298 -3.241146,0.0743 -3.241145,0.0743 -0.0084,-13.30345 c -0.0063,-10.04046 -0.08747,-13.40643 -0.330729,-13.72326 -0.744339,-0.96947 -2.647932,-1.38208 -3.312107,-0.71791 -0.238773,0.23878 -0.3175,3.71593 -0.3175,14.02292 v 13.70542 h -3.130902 c -1.721998,0 -3.21028,-0.0794 -3.307292,-0.17639 z m 44.802777,-79.08088 c -2.871788,-0.61679 -5.910117,-2.29807 -8.08713,-4.47509 -1.531811,-1.53181 -2.164419,-2.43482 -3.26345,-4.65837 -2.408756,-4.87338 -2.672853,-8.30937 -1.100627,-14.31953 0.963009,-3.6813 1.034325,-5.47503 0.267036,-6.71653 -0.786342,-1.27232 -1.864768,-1.83032 -5.559568,-2.87663 -4.608071,-1.30494 -7.315261,-2.69523 -9.493041,-4.87522 -3.641844,-3.64552 -5.82172,-8.38793 -6.04225,-13.14516 -0.112183,-2.42 -0.03386,-3.02211 0.860396,-6.61458 1.09905,-4.41518 1.131025,-5.86702 0.159271,-7.23172 -0.789093,-1.10818 -2.013325,-1.69643 -5.605592,-2.6935 -1.64811,-0.45745 -3.639748,-1.11618 -4.425862,-1.46383 -4.388123,-1.94064 -8.03206,-6.10054 -9.711476,-11.08656 -0.879488,-2.61112 -1.000411,-6.405984 -0.290174,-9.106475 2.32777,-8.850751 11.300116,-14.187655 20.077898,-11.942676 4.92038,1.258421 8.706861,4.395961 11.036999,9.145438 2.259039,4.604557 2.483593,8.087653 0.925772,14.359793 -1.072365,4.31757 -1.078408,5.16728 -0.04763,6.69685 0.824654,1.22371 1.71059,1.66976 5.412909,2.72531 1.77868,0.50712 3.966457,1.25075 4.86173,1.65252 3.232565,1.45069 6.002554,4.12919 8.118551,7.8504 2.776543,4.88286 3.255016,9.18337 1.689423,15.18454 -1.752269,6.71672 -1.067086,8.02086 5.125381,9.75535 5.094588,1.42697 6.942598,2.40951 9.645008,5.12804 3.72988,3.75211 5.24612,7.01459 5.47889,11.78886 0.24136,4.95057 -1.25557,8.88815 -4.67929,12.30852 -4.1474,4.14336 -9.726632,5.81869 -15.353174,4.61025 z M 57.933438,105.42939 c 2.430611,-1.25691 3.784905,-3.45026 3.784905,-6.129837 0,-3.544322 -2.454278,-6.311769 -5.91158,-6.665904 -2.710797,-0.27767 -5.241933,1.069471 -6.578632,3.501333 -0.591804,1.076669 -0.721424,1.645257 -0.721424,3.164571 0,1.522087 0.12854,2.083917 0.721424,3.153237 0.820274,1.47944 2.168017,2.66388 3.665574,3.22142 1.264145,0.47063 3.9042,0.34239 5.039733,-0.24482 z"
         id="path7461"
         inkscape:connector-curvature="0"
         sodipodi:nodetypes="cscsccscccscscccccccscsccsscccsccsccccccsccscccsccccccscccscsccscccscccsccscccscsccssccccccscsccscsscccsscscssssscccssccccscssssscc" />
      <path
         style="fill:#008bd3;stroke-width:0.26458332"
         d="M 2.897819,274.93878 C 2.800805,274.84177 2.72143,264.5556 2.72143,252.08063 c 0,-20.43872 0.041388,-22.69764 0.4185145,-22.84236 0.6470314,-0.24829 6.8924125,-0.17408 9.0624505,0.10768 3.336404,0.4332 5.479595,1.99055 6.896449,5.01131 l 0.688211,1.46729 0.08439,9.51003 c 0.09091,10.24387 -0.06949,12.22281 -1.137817,14.03788 -1.497142,2.54363 -3.984829,4.07254 -7.000176,4.30224 -0.954792,0.0727 -1.8848125,0.25039 -2.0667136,0.39479 -0.2451735,0.19464 -0.3307291,1.65729 -0.3307291,5.65412 v 5.39156 H 6.2051114 c -1.7219983,0 -3.2102787,-0.0794 -3.3072924,-0.17639 z m 9.757511,-18.46471 0.649433,-0.64943 v -9.2928 -9.29279 l -0.773398,-0.7734 c -0.829897,-0.82989 -2.274935,-1.05881 -2.8778517,-0.4559 -0.2359872,0.23599 -0.3175,2.94178 -0.3175,10.53924 0,5.62196 0.079375,10.30111 0.1763897,10.39812 0.097012,0.097 0.697738,0.17639 1.334942,0.17639 0.877292,0 1.316217,-0.15766 1.807985,-0.64943 z m -25.985521,6.79031 c -2.512002,-0.89758 -4.410198,-2.82674 -5.240217,-5.32569 -0.368338,-1.10896 -0.41056,-3.26396 -0.345648,-17.64183 l 0.07395,-16.37856 0.623365,-1.19063 c 0.849772,-1.62306 2.289687,-3.08142 3.874551,-3.92419 1.164761,-0.61937 1.623412,-0.70347 3.836459,-0.70347 2.2119926,0 2.6742652,0.0847 3.8532469,0.70578 1.6004556,0.84314 3.1398295,2.47626 3.9156262,4.15408 0.558687,1.20827 0.5655013,1.42387 0.5655013,17.89176 0,16.546 -0.00423,16.6779 -0.5741564,17.91133 -0.7327614,1.58582 -2.5181869,3.37287 -4.1675208,4.1713 -1.7605034,0.85224 -4.5519042,0.99588 -6.4151522,0.33012 z m 4.0621727,-6.71616 0.6123651,-0.57529 v -15.16742 c 0,-14.81464 -0.012308,-15.17973 -0.5291666,-15.69659 -0.6469957,-0.64699 -2.0254262,-0.69375 -2.6911452,-0.0913 -0.458128,0.4146 -0.483855,1.25166 -0.483855,15.74271 0,14.95204 0.0122,15.31702 0.529167,15.83399 0.692656,0.69265 1.797407,0.67277 2.5626347,-0.0461 z m 39.5670613,6.70701 c -1.918385,-0.68477 -3.732035,-2.29112 -4.691155,-4.15496 l -0.79375,-1.54248 v -11.1312 -11.13121 l 0.704744,-1.32292 c 1.552308,-2.91392 4.328605,-4.62322 7.516352,-4.62762 1.029102,-0.001 2.427399,0.18696 3.10732,0.41864 1.59625,0.5439 3.721915,2.46429 4.627364,4.18051 l 0.71297,1.35139 0.0817,7.20989 0.0817,7.2099 h -4.756412 c -2.616028,0 -4.944745,0.0723 -5.174927,0.1606 -0.347218,0.13324 -0.418515,0.66627 -0.418515,3.12888 0,2.76061 0.04284,3.00853 0.612365,3.54357 0.709559,0.66659 1.674563,0.72963 2.430343,0.15875 0.396391,-0.29942 0.562361,-0.81181 0.661458,-2.04211 l 0.132292,-1.6424 3.241146,-0.0743 3.241146,-0.0743 v 1.9826 c 0,3.62286 -1.69911,6.5331 -4.660056,7.98176 -1.954507,0.95625 -4.668946,1.1263 -6.656081,0.41699 z m 4.701553,-23.28863 c 0,-2.80468 -0.05596,-3.18464 -0.532582,-3.61598 -0.754415,-0.68273 -2.081435,-0.6231 -2.683648,0.1206 -0.41036,0.50677 -0.487936,1.08167 -0.487936,3.61597 v 3.0134 h 1.852083 1.852083 z m 11.553473,23.5951 c -0.09701,-0.097 -0.17639,-7.76197 -0.17639,-17.03323 0,-14.78098 0.04967,-16.89806 0.403331,-17.19157 0.492604,-0.40883 9.212154,-0.19797 10.756083,0.2601 1.474057,0.43735 3.399411,1.85208 4.367559,3.20924 1.627978,2.28212 1.683641,2.89117 1.607296,17.58657 l -0.06864,13.21298 -3.241146,0.0743 -3.241145,0.0743 -0.0084,-13.30345 c -0.0063,-10.04046 -0.08747,-13.40643 -0.330729,-13.72326 -0.744339,-0.96947 -2.647932,-1.38208 -3.312107,-0.71791 -0.238773,0.23878 -0.3175,3.71593 -0.3175,14.02292 v 13.70542 h -3.130902 c -1.721998,0 -3.21028,-0.0794 -3.307292,-0.17639 z m 84.014481,-79.45156 c -2.90423,-0.78717 -4.95843,-1.99117 -7.22738,-4.23606 -1.70593,-1.68784 -2.21868,-2.41899 -3.3462,-4.77141 -1.63981,-3.42128 -1.91521,-4.55373 -1.91521,-7.87554 0,-2.12168 0.17911,-3.32744 0.95077,-6.40057 1.11476,-4.43953 1.08031,-5.57319 -0.21418,-7.04752 -1.08169,-1.23197 -1.7245,-1.53527 -5.55794,-2.62235 -4.8185,-1.36641 -6.7934,-2.42462 -9.33386,-5.00135 -2.38019,-2.41416 -3.939883,-4.95018 -5.059528,-8.22662 -0.627052,-1.83496 -0.722048,-2.52163 -0.713769,-5.15938 0.0081,-2.58202 0.139332,-3.52342 0.866759,-6.21771 1.259028,-4.66328 1.129468,-6.12665 -0.695984,-7.86107 -0.846127,-0.80394 -1.749369,-1.16186 -5.533877,-2.19287 -3.981375,-1.08465 -6.232429,-2.29703 -8.597426,-4.63043 -2.190792,-2.16152 -3.83001,-4.70331 -4.777689,-7.40833 -0.89394,-2.55163 -0.886537,-7.532517 0.01529,-10.285866 2.101581,-6.4163 7.803489,-10.74311 14.607932,-11.085012 5.006065,-0.251539 8.978112,1.248468 12.422082,4.691089 1.55983,1.559212 2.27417,2.542277 3.21944,4.430536 2.33489,4.664177 2.61547,8.690413 1.02617,14.725213 -0.91737,3.48336 -1.00002,4.53352 -0.45873,5.82899 0.76899,1.84046 2.36495,2.74586 6.8262,3.87255 5.99124,1.51307 10.08307,4.9105 12.76673,10.60015 2.11264,4.47902 2.31409,7.95731 0.81082,13.99943 -1.03586,4.16342 -1.05341,5.25889 -0.1087,6.78747 0.78038,1.26268 1.87852,1.8217 5.68395,2.89348 5.65161,1.59176 8.84924,3.59254 11.35611,7.10561 4.70931,6.59951 4.73096,14.25701 0.0576,20.3874 -1.90042,2.49294 -4.45595,4.27719 -7.84963,5.48056 -2.22973,0.79065 -6.71849,0.89756 -9.21978,0.21961 z m 6.95559,-9.38625 c 2.40875,-1.00644 4.09655,-3.64123 4.10095,-6.40193 0.003,-1.94305 -0.47242,-3.18371 -1.77131,-4.62142 -1.85135,-2.04922 -4.35723,-2.76732 -6.97931,-2.00003 -5.7478,1.68195 -6.7906,9.50555 -1.66718,12.50808 0.66185,0.38786 1.58055,0.8007 2.04156,0.91742 1.03738,0.26263 3.16276,0.0627 4.27529,-0.40212 z M 98.261925,105.34533 c 2.721085,-1.481 4.216245,-4.79211 3.448715,-7.637345 -1.05327,-3.904468 -4.890879,-6.122173 -8.686012,-5.019538 -3.083266,0.895809 -5.46405,4.406596 -4.991645,7.360853 0.806413,5.04302 5.873546,7.66653 10.228942,5.29603 z"
         id="path7459"
         inkscape:connector-curvature="0"
         sodipodi:nodetypes="cscsccscccscscccccccscsccsscccsccsccccccsccscccsccccccscccscsccscccscccsccscccscsccssccccccscscccscsscccscsccsssscccccscccscccccccccccsssss" />
      <path
         style="fill:#0157bf;stroke-width:0.26458332"
         d="M 2.897819,274.93878 C 2.800805,274.84177 2.72143,264.5556 2.72143,252.08063 c 0,-20.43872 0.041388,-22.69764 0.4185145,-22.84236 0.6470314,-0.24829 6.8924125,-0.17408 9.0624505,0.10768 3.336404,0.4332 5.479595,1.99055 6.896449,5.01131 l 0.688211,1.46729 0.08439,9.51003 c 0.09091,10.24387 -0.06949,12.22281 -1.137817,14.03788 -1.497142,2.54363 -3.984829,4.07254 -7.000176,4.30224 -0.954792,0.0727 -1.8848125,0.25039 -2.0667136,0.39479 -0.2451735,0.19464 -0.3307291,1.65729 -0.3307291,5.65412 v 5.39156 H 6.2051114 c -1.7219983,0 -3.2102787,-0.0794 -3.3072924,-0.17639 z m 9.757511,-18.46471 0.649433,-0.64943 v -9.2928 -9.29279 l -0.773398,-0.7734 c -0.829897,-0.82989 -2.274935,-1.05881 -2.8778517,-0.4559 -0.2359872,0.23599 -0.3175,2.94178 -0.3175,10.53924 0,5.62196 0.079375,10.30111 0.1763897,10.39812 0.097012,0.097 0.697738,0.17639 1.334942,0.17639 0.877292,0 1.316217,-0.15766 1.807985,-0.64943 z m -25.985521,6.79031 c -2.512002,-0.89758 -4.410198,-2.82674 -5.240217,-5.32569 -0.368338,-1.10896 -0.41056,-3.26396 -0.345648,-17.64183 l 0.07395,-16.37856 0.623365,-1.19063 c 0.849772,-1.62306 2.289687,-3.08142 3.874551,-3.92419 1.164761,-0.61937 1.623412,-0.70347 3.836459,-0.70347 2.2119926,0 2.6742652,0.0847 3.8532469,0.70578 1.6004556,0.84314 3.1398295,2.47626 3.9156262,4.15408 0.558687,1.20827 0.5655013,1.42387 0.5655013,17.89176 0,16.546 -0.00423,16.6779 -0.5741564,17.91133 -0.7327614,1.58582 -2.5181869,3.37287 -4.1675208,4.1713 -1.7605034,0.85224 -4.5519042,0.99588 -6.4151522,0.33012 z m 4.0621727,-6.71616 0.6123651,-0.57529 v -15.16742 c 0,-14.81464 -0.012308,-15.17973 -0.5291666,-15.69659 -0.6469957,-0.64699 -2.0254262,-0.69375 -2.6911452,-0.0913 -0.458128,0.4146 -0.483855,1.25166 -0.483855,15.74271 0,14.95204 0.0122,15.31702 0.529167,15.83399 0.692656,0.69265 1.797407,0.67277 2.5626347,-0.0461 z m 39.5670613,6.70701 c -1.918385,-0.68477 -3.732035,-2.29112 -4.691155,-4.15496 l -0.79375,-1.54248 v -11.1312 -11.13121 l 0.704744,-1.32292 c 1.552308,-2.91392 4.328605,-4.62322 7.516352,-4.62762 1.029102,-0.001 2.427399,0.18696 3.10732,0.41864 1.59625,0.5439 3.721915,2.46429 4.627364,4.18051 l 0.71297,1.35139 0.0817,7.20989 0.0817,7.2099 h -4.756412 c -2.616028,0 -4.944745,0.0723 -5.174927,0.1606 -0.347218,0.13324 -0.418515,0.66627 -0.418515,3.12888 0,2.76061 0.04284,3.00853 0.612365,3.54357 0.709559,0.66659 1.674563,0.72963 2.430343,0.15875 0.396391,-0.29942 0.562361,-0.81181 0.661458,-2.04211 l 0.132292,-1.6424 3.241146,-0.0743 3.241146,-0.0743 v 1.9826 c 0,3.62286 -1.69911,6.5331 -4.660056,7.98176 -1.954507,0.95625 -4.668946,1.1263 -6.656081,0.41699 z m 4.701553,-23.28863 c 0,-2.80468 -0.05596,-3.18464 -0.532582,-3.61598 -0.754415,-0.68273 -2.081435,-0.6231 -2.683648,0.1206 -0.41036,0.50677 -0.487936,1.08167 -0.487936,3.61597 v 3.0134 h 1.852083 1.852083 z m 11.553473,23.5951 c -0.09701,-0.097 -0.17639,-7.76197 -0.17639,-17.03323 0,-14.78098 0.04967,-16.89806 0.403331,-17.19157 0.492604,-0.40883 9.212154,-0.19797 10.756083,0.2601 1.474057,0.43735 3.399411,1.85208 4.367559,3.20924 1.627978,2.28212 1.683641,2.89117 1.607296,17.58657 l -0.06864,13.21298 -3.241146,0.0743 -3.241145,0.0743 -0.0084,-13.30345 c -0.0063,-10.04046 -0.08747,-13.40643 -0.330729,-13.72326 -0.744339,-0.96947 -2.647932,-1.38208 -3.312107,-0.71791 -0.238773,0.23878 -0.3175,3.71593 -0.3175,14.02292 v 13.70542 h -3.130902 c -1.721998,0 -3.21028,-0.0794 -3.307292,-0.17639 z M 150.22664,149.47259 c -2.63903,-0.75966 -4.86722,-2.10743 -7.04106,-4.25893 -1.64362,-1.62673 -2.2406,-2.45971 -3.24637,-4.52976 -2.27499,-4.68231 -2.52411,-8.36007 -0.96571,-14.25694 1.19867,-4.53572 1.06077,-6.06802 -0.69564,-7.72985 -0.9008,-0.85229 -1.41469,-1.0615 -5.47658,-2.22963 -4.58197,-1.31768 -6.26236,-2.22557 -8.76839,-4.73743 -3.66592,-3.67443 -5.15357,-6.90601 -5.35925,-11.64178 -0.22137,-5.096984 1.20181,-8.840539 4.67589,-12.29957 5.08377,-5.061754 12.75833,-6.207211 19.15496,-2.858953 2.55636,1.3381 5.64689,4.58566 7.00255,7.358348 2.36248,4.831896 2.58257,8.037015 0.9993,14.552975 -0.88929,3.6599 -0.96399,4.22339 -0.69321,5.229 0.43176,1.60345 1.62947,2.84466 3.37525,3.49784 1.40881,0.5271 1.53242,0.53252 2.77037,0.12134 2.40191,-0.79779 3.71215,-2.40963 3.7368,-4.59696 0.007,-0.66517 -0.37563,-2.80984 -0.85141,-4.76594 -0.78179,-3.21427 -0.8547,-3.85081 -0.75766,-6.614578 0.1738,-4.949831 1.65076,-8.318036 5.23703,-11.943008 8.78387,-8.878662 24.01776,-4.636177 27.11582,7.551482 0.5051,1.987077 0.50936,5.602644 0.009,7.724064 -0.46063,1.95334 -1.86056,4.90868 -3.17056,6.69325 -2.4506,3.33839 -5.46831,5.24526 -10.66717,6.74051 -4.02239,1.15688 -4.54003,1.36805 -5.43945,2.21904 -1.77002,1.67471 -1.90749,3.3242 -0.66132,7.93489 0.70368,2.60352 0.83848,3.57751 0.84943,6.13734 0.0117,2.74461 -0.0672,3.26982 -0.80592,5.36078 -1.10826,3.13704 -2.25121,4.98613 -4.4518,7.20219 -2.06096,2.07545 -4.55028,3.53659 -7.18194,4.21554 -2.19003,0.565 -6.60148,0.52681 -8.69306,-0.0753 z m 27.52444,-43.89699 c 5.52711,-2.84699 4.89479,-10.954676 -1.00723,-12.915013 -4.89505,-1.625873 -10.06091,2.977932 -8.94362,7.970523 0.7929,3.54304 3.76124,5.81342 7.30502,5.58738 0.90353,-0.0576 2.05083,-0.33641 2.64583,-0.64289 z"
         id="path7457"
         inkscape:connector-curvature="0" />
      <path
         style="fill:#4e4e4e;stroke-width:0.26458332"
         d="M 2.897819,274.93878 C 2.800805,274.84177 2.72143,264.5556 2.72143,252.08063 c 0,-20.43872 0.041388,-22.69764 0.4185145,-22.84236 0.6470314,-0.24829 6.8924125,-0.17408 9.0624505,0.10768 3.336404,0.4332 5.479595,1.99055 6.896449,5.01131 l 0.688211,1.46729 0.08439,9.51003 c 0.09091,10.24387 -0.06949,12.22281 -1.137817,14.03788 -1.497142,2.54363 -3.984829,4.07254 -7.000176,4.30224 -0.954792,0.0727 -1.8848125,0.25039 -2.0667136,0.39479 -0.2451735,0.19464 -0.3307291,1.65729 -0.3307291,5.65412 v 5.39156 H 6.2051114 c -1.7219983,0 -3.2102787,-0.0794 -3.3072924,-0.17639 z m 9.757511,-18.46471 0.649433,-0.64943 v -9.2928 -9.29279 l -0.773398,-0.7734 c -0.829897,-0.82989 -2.274935,-1.05881 -2.8778517,-0.4559 -0.2359872,0.23599 -0.3175,2.94178 -0.3175,10.53924 0,5.62196 0.079375,10.30111 0.1763897,10.39812 0.097012,0.097 0.697738,0.17639 1.334942,0.17639 0.877292,0 1.316217,-0.15766 1.807985,-0.64943 z m -25.985521,6.79031 c -2.512002,-0.89758 -4.410198,-2.82674 -5.240217,-5.32569 -0.368338,-1.10896 -0.41056,-3.26396 -0.345648,-17.64183 l 0.07395,-16.37856 0.623365,-1.19063 c 0.849772,-1.62306 2.289687,-3.08142 3.874551,-3.92419 1.164761,-0.61937 1.623412,-0.70347 3.836459,-0.70347 2.2119926,0 2.6742652,0.0847 3.8532469,0.70578 1.6004556,0.84314 3.1398295,2.47626 3.9156262,4.15408 0.558687,1.20827 0.5655013,1.42387 0.5655013,17.89176 0,16.546 -0.00423,16.6779 -0.5741564,17.91133 -0.7327614,1.58582 -2.5181869,3.37287 -4.1675208,4.1713 -1.7605034,0.85224 -4.5519042,0.99588 -6.4151522,0.33012 z m 4.0621727,-6.71616 0.6123651,-0.57529 v -15.16742 c 0,-14.81464 -0.012308,-15.17973 -0.5291666,-15.69659 -0.6469957,-0.64699 -2.0254262,-0.69375 -2.6911452,-0.0913 -0.458128,0.4146 -0.483855,1.25166 -0.483855,15.74271 0,14.95204 0.0122,15.31702 0.529167,15.83399 0.692656,0.69265 1.797407,0.67277 2.5626347,-0.0461 z m 39.5670613,6.70701 c -1.918385,-0.68477 -3.732035,-2.29112 -4.691155,-4.15496 l -0.79375,-1.54248 v -11.1312 -11.13121 l 0.704744,-1.32292 c 1.552308,-2.91392 4.328605,-4.62322 7.516352,-4.62762 1.029102,-0.001 2.427399,0.18696 3.10732,0.41864 1.59625,0.5439 3.721915,2.46429 4.627364,4.18051 l 0.71297,1.35139 0.0817,7.20989 0.0817,7.2099 h -4.756412 c -2.616028,0 -4.944745,0.0723 -5.174927,0.1606 -0.347218,0.13324 -0.418515,0.66627 -0.418515,3.12888 0,2.76061 0.04284,3.00853 0.612365,3.54357 0.709559,0.66659 1.674563,0.72963 2.430343,0.15875 0.396391,-0.29942 0.562361,-0.81181 0.661458,-2.04211 l 0.132292,-1.6424 3.241146,-0.0743 3.241146,-0.0743 v 1.9826 c 0,3.62286 -1.69911,6.5331 -4.660056,7.98176 -1.954507,0.95625 -4.668946,1.1263 -6.656081,0.41699 z m 4.701553,-23.28863 c 0,-2.80468 -0.05596,-3.18464 -0.532582,-3.61598 -0.754415,-0.68273 -2.081435,-0.6231 -2.683648,0.1206 -0.41036,0.50677 -0.487936,1.08167 -0.487936,3.61597 v 3.0134 h 1.852083 1.852083 z m 11.553473,23.5951 c -0.09701,-0.097 -0.17639,-7.76197 -0.17639,-17.03323 0,-14.78098 0.04967,-16.89806 0.403331,-17.19157 0.492604,-0.40883 9.212154,-0.19797 10.756083,0.2601 1.474057,0.43735 3.399411,1.85208 4.367559,3.20924 1.627978,2.28212 1.683641,2.89117 1.607296,17.58657 l -0.06864,13.21298 -3.241146,0.0743 -3.241145,0.0743 -0.0084,-13.30345 c -0.0063,-10.04046 -0.08747,-13.40643 -0.330729,-13.72326 -0.744339,-0.96947 -2.647932,-1.38208 -3.312107,-0.71791 -0.238773,0.23878 -0.3175,3.71593 -0.3175,14.02292 v 13.70542 h -3.130902 c -1.721998,0 -3.21028,-0.0794 -3.307292,-0.17639 z"
         id="path7455"
         inkscape:connector-curvature="0" />
    </g>
  </g>
</svg>
