<?xml version="1.0" encoding="UTF-8" standalone="no"?>
<!DOCTYPE svg PUBLIC "-//W3C//DTD SVG 1.1//EN" "http://www.w3.org/Graphics/SVG/1.1/DTD/svg11.dtd">
<!-- Created with Vectornator (http://vectornator.io/) -->
<svg height="100%" stroke-miterlimit="10" style="fill-rule:nonzero;clip-rule:evenodd;stroke-linecap:round;stroke-linejoin:round;" version="1.1" viewBox="0 0 32 32" width="100%" xml:space="preserve" xmlns="http://www.w3.org/2000/svg" xmlns:vectornator="http://vectornator.io" xmlns:xlink="http://www.w3.org/1999/xlink">
<defs/>
<g id="IBM-Mainframe" vectornator:layerName="IBM Mainframe">
<path d="M2 0C0.89543 0 0 0.89543 0 2L0 30C0 31.1046 0.89543 32 2 32L30 32C31.1046 32 32 31.1046 32 30L32 2C32 0.89543 31.1046 0 30 0L2 0ZM10.3125 7L22.4375 7L22.4375 8.46875L22.4375 9.15625L22.4375 24.375L22.4375 24.7188L22.4375 25L10.3125 25L10.3125 23.5312L10.3125 9.15625L10.3125 7ZM3.375 9.96875L9.8125 9.96875L9.8125 12.9062L5.625 12.9062L5.625 14.4062L9.8125 14.4062L9.8125 16.125L5.625 16.125L5.625 17.5938L9.8125 17.5938L9.8125 23.5312L3.375 23.5312L3.375 9.96875ZM13.2812 9.96875L13.2812 11.4375L19.2188 11.4375L19.2188 9.96875L13.2812 9.96875ZM22.875 9.96875L29.375 9.96875L29.375 23.5312L22.875 23.5312L22.875 17.5938L26.9062 17.5938L26.9062 16.125L22.875 16.125L22.875 14.4062L26.9062 14.4062L26.9062 12.9062L22.875 12.9062L22.875 9.96875ZM13.2812 12.9062L13.2812 14.4062L19.2188 14.4062L19.2188 12.9062L13.2812 12.9062ZM13.2812 16.125L13.2812 17.5938L19.2188 17.5938L19.2188 16.125L13.2812 16.125Z" fill="#000000" fill-rule="nonzero" opacity="1" stroke="none" vectornator:layerName="Curve 1"/>
</g>
</svg>
