<?xml version="1.0" encoding="UTF-8" standalone="no"?>
<!-- Generator: Adobe Illustrator 19.0.0, SVG Export Plug-In . SVG Version: 6.00 Build 0)  -->

<svg
   xmlns:dc="http://purl.org/dc/elements/1.1/"
   xmlns:cc="http://creativecommons.org/ns#"
   xmlns:rdf="http://www.w3.org/1999/02/22-rdf-syntax-ns#"
   xmlns:svg="http://www.w3.org/2000/svg"
   xmlns="http://www.w3.org/2000/svg"
   xmlns:sodipodi="http://sodipodi.sourceforge.net/DTD/sodipodi-0.dtd"
   xmlns:inkscape="http://www.inkscape.org/namespaces/inkscape"
   version="1.1"
   x="0px"
   y="0px"
   viewBox="-223 283 119.24283 121.1384"
   xml:space="preserve"
   id="svg26688"
   sodipodi:docname="james-1.svg"
   width="119.24284"
   height="121.1384"
   inkscape:version="0.92.3 (2405546, 2018-03-11)"><metadata
   id="metadata26694"><rdf:RDF><cc:Work
       rdf:about=""><dc:format>image/svg+xml</dc:format><dc:type
         rdf:resource="http://purl.org/dc/dcmitype/StillImage" /><dc:title></dc:title></cc:Work></rdf:RDF></metadata><defs
   id="defs26692" /><sodipodi:namedview
   pagecolor="#ffffff"
   bordercolor="#666666"
   borderopacity="1"
   objecttolerance="10"
   gridtolerance="10"
   guidetolerance="10"
   inkscape:pageopacity="0"
   inkscape:pageshadow="2"
   inkscape:window-width="3726"
   inkscape:window-height="2049"
   id="namedview26690"
   showgrid="false"
   fit-margin-top="0"
   fit-margin-left="0"
   fit-margin-right="0"
   fit-margin-bottom="0"
   inkscape:zoom="8.2807017"
   inkscape:cx="61.03948"
   inkscape:cy="26.78332"
   inkscape:window-x="114"
   inkscape:window-y="55"
   inkscape:window-maximized="1"
   inkscape:current-layer="g26633" />
<style
   type="text/css"
   id="style26611">
	.st0{display:none;}
	.st1{display:inline;}
	.st2{fill:#FFFFFF;}
	.st3{fill:#E74A24;}
	.st4{fill:none;}
	.st5{fill:url(#SVGID_1_);}
	.st6{fill:#E4262A;}
	.st7{font-family:'Poppins-Regular';}
	.st8{font-size:28px;}
</style>
<g
   id="Calque_2"
   class="st0"
   style="display:none"
   transform="translate(-20.96052,-19.644918)">
	<rect
   x="-233.5"
   y="269.29999"
   class="st1"
   width="186"
   height="258"
   id="rect26613"
   style="display:inline" />
</g>
<g
   id="Calque_1"
   transform="translate(-20.96052,-19.644918)">
	<g
   id="g26633"
   transform="translate(1.4491525,3.0190678)">
		
		<path
   class="st3"
   d="m -102.01144,309.32585 c -3.2,-2.1 -6.5,-3.9 -9.9,-4.7 -3.4,-0.9 -7,-0.7 -10.2,0.7 l -0.6,0.3 -0.3,0.1 -0.2,0.1 h -0.1 v 0 0 c 0,0 -0.1,0 0,0 v 0 c -0.4,0.3 -0.9,0.5 -1.3,0.7 -0.9,0.5 -1.8,0.9 -2.7,1.2 -1.9,0.6 -3.8,1.1 -5.9,0.9 -1,-0.1 -2,-0.5 -2.9,-1.1 -0.9,-0.6 -1.5,-1.4 -2,-2.3 -0.9,-1.8 -1.2,-3.7 -1.3,-5.6 0.3,1.9 0.9,3.7 1.9,5.2 0.5,0.7 1.2,1.4 1.9,1.8 0.8,0.4 1.6,0.6 2.5,0.7 1.7,0.1 3.5,-0.4 5.2,-1.2 0.8,-0.4 1.6,-0.8 2.4,-1.2 0.4,-0.2 0.8,-0.5 1.1,-0.7 l 0.7,-0.4 c 0.2,-0.1 0.4,-0.3 0.7,-0.4 1.8,-1 3.8,-1.6 5.8,-1.7 2,-0.1 4.1,0.1 6,0.8 1.9,0.6 3.7,1.6 5.2,2.8 1.6,1 3,2.4 4,4 z"
   id="path26618"
   inkscape:connector-curvature="0"
   style="fill:#e74a24" />
		<path
   class="st4"
   d="m -174.11144,325.42585 c -0.3,0.2 8.2,10.4 20.9,20 3.7,2.9 7.4,5.3 10.7,7.4 0.3,-0.4 0.5,-0.8 0.7,-1.1 -3.2,-2.1 -6.8,-4.6 -10.5,-7.4 -12.6,-9.6 -21.4,-19.2 -21.8,-18.9 z"
   id="path26620"
   inkscape:connector-curvature="0"
   style="fill:none" />
		
			<linearGradient
   id="SVGID_1_"
   gradientUnits="userSpaceOnUse"
   x1="8.0298004"
   y1="783.66193"
   x2="46.133598"
   y2="783.66193"
   gradientTransform="matrix(-0.1008,-0.9949,-0.9949,0.1008,621.90646,284.20725)">
			<stop
   offset="0"
   style="stop-color:#FBC315"
   id="stop26622" />
			<stop
   offset="0.4969"
   style="stop-color:#E74A24"
   id="stop26624" />
			<stop
   offset="1"
   style="stop-color:#E4262A"
   id="stop26626" />
		</linearGradient>
		<path
   class="st5"
   d="m -154.61144,344.52585 c -12.7,-9.6 -21.2,-19.7 -20.9,-20 0.3,-0.3 9.2,9.3 21.8,18.8 3.7,2.8 7.3,5.3 10.5,7.4 0,-0.1 0.1,-0.1 0.1,-0.2 0.5,-1 0.9,-2.1 1.2,-3.2 -2.3,-4.5 -7.9,-10.8 -14.4,-16.5 -1.5,-1.3 -3,-2.4 -4.5,-3.4 -0.3,2.7 -1,4.6 -1,4.6 0,0 -0.7,-2.6 -0.7,-5.7 -1,-0.6 -2.1,-1.2 -3.1,-1.7 0,3.1 -0.9,5.4 -0.9,5.4 0,0 -1.8,-3.1 -2,-6.8 0,0 0,0 0,-0.1 -6.1,-2.8 -11.3,-4.2 -11.3,-4.2 -0.1,-0.1 0.4,13 10.1,23 0.3,0 0.7,0 1,0 3.5,0 6.5,1.3 6.5,1.3 0,0 -1.8,1.1 -4.6,1.5 1,0.8 2,1.5 3,2.1 2.5,-0.9 4.7,-1.2 4.7,-1.2 0,0 -1.1,1.1 -3,2.2 6.7,3.7 12.8,5.6 16.7,5.8 0.5,-0.6 1,-1.2 1.4,-1.8 -3.2,-2 -6.8,-4.4 -10.6,-7.3 z"
   id="path26629"
   inkscape:connector-curvature="0"
   style="fill:url(#SVGID_1_)" />
		<path
   class="st6"
   d="m -109.31144,309.12585 c -2.4,0.2 -4.9,0.6 -7.3,1.3 -4.8,1.4 -9.5,3.8 -13.4,7.5 -2,1.8 -3.6,4 -5,6.3 -1.4,2.3 -2.5,4.8 -3.2,7.4 -0.7,2.6 -1.2,5.2 -1.3,7.8 0,0.6 -0.1,1.3 -0.1,2 v 0.9 0.8 c 0,1 -0.1,2 -0.3,3 -0.1,0.7 -0.3,1.5 -0.5,2.2 -0.3,1.1 -0.7,2.2 -1.2,3.2 0,0.1 -0.1,0.1 -0.1,0.2 -0.2,0.4 -0.5,0.8 -0.7,1.1 -0.4,0.6 -0.9,1.2 -1.4,1.8 -0.4,0.4 -0.8,0.8 -1.2,1.2 -2.9,2.5 -6.9,4.3 -11.1,5.4 -4.3,1.1 -8.9,1.7 -13.5,2.1 -4.7,0.3 -9.4,0.4 -14.2,0.2 4.5,1.8 9.2,2.9 14,3.7 4.8,0.7 9.8,0.9 14.8,0.3 2.5,-0.3 5.1,-0.9 7.6,-1.8 2.5,-0.9 5,-2.1 7.2,-3.8 2.3,-1.7 4.2,-3.9 5.7,-6.4 0.7,-1.3 1.3,-2.6 1.8,-3.9 0.5,-1.3 0.8,-2.7 1,-4.1 0.2,-1.4 0.4,-2.7 0.4,-4.1 0,-0.3 0,-0.7 0,-1 v -0.9 c 0,-0.5 0,-1 0,-1.6 0.1,-2.1 0.4,-4.2 0.8,-6.2 0.9,-4 2.7,-7.8 5.3,-11 2.6,-3.2 6.1,-6 10.1,-8.2 4,-2.2 8.3,-3.9 13,-5.2 -2.3,-0.4 -4.7,-0.4 -7.2,-0.2 z"
   id="path26631"
   inkscape:connector-curvature="0"
   style="fill:#e4262a" />
	</g>
	
</g>
<g
   aria-label="James
Enterprise Mail Server"
   style="font-style:normal;font-variant:normal;font-weight:normal;font-stretch:normal;font-size:27.5px;line-height:125%;font-family:Montserrat;-inkscape-font-specification:Montserrat;letter-spacing:0px;word-spacing:0px;fill:#000000;fill-opacity:1;stroke:none;stroke-width:1px;stroke-linecap:butt;stroke-linejoin:miter;stroke-opacity:1"
   id="text27241"
   transform="translate(-20.96052,-19.644918)"><path
     d="m -198.59414,385.14032 v -3.95733 h 12.69333 v 17.21067 q 0,4.55466 -2.31467,6.832 -2.31466,2.27733 -5.936,2.27733 -4.55466,0 -7.76533,-3.21067 l 2.50133,-3.472 q 2.53867,2.42667 4.96534,2.42667 1.71733,0 2.912,-1.15733 1.232,-1.15734 1.232,-3.472 v -13.47734 z"
     style="font-size:37.33333206px"
     id="path27245"
     inkscape:connector-curvature="0" /><path
     d="m -163.68864,407.27899 h -3.808 v -2.65067 q -2.464,2.94934 -6.608,2.94934 -3.09867,0 -5.152,-1.75467 -2.016,-1.75467 -2.016,-4.66667 0,-2.94933 2.16533,-4.40533 2.16533,-1.456 5.86133,-1.456 h 5.41334 v -0.74667 q 0,-3.95733 -4.40534,-3.95733 -2.76266,0 -5.74933,2.016 l -1.86667,-2.61333 q 3.62134,-2.87467 8.21334,-2.87467 3.50933,0 5.712,1.792 2.24,1.75467 2.24,5.56267 z m -4.18134,-7.392 v -1.68 h -4.704 q -4.51733,0 -4.51733,2.83733 0,1.456 1.12,2.24 1.12,0.74667 3.09867,0.74667 2.016,0 3.50933,-1.12 1.49333,-1.12 1.49333,-3.024 z"
     style="font-size:37.33333206px"
     id="path27247"
     inkscape:connector-curvature="0" /><path
     d="m -153.65006,396.52699 v 10.752 h -4.18133 v -19.86133 h 4.18133 v 3.62133 q 0.896,-1.82933 2.688,-2.87467 1.82933,-1.04533 3.92,-1.04533 4.704,0 6.384,3.88267 2.94933,-3.88267 7.35467,-3.88267 3.36,0 5.41333,2.05333 2.09067,2.05334 2.09067,5.936 v 12.17067 h -4.18134 v -10.90133 q 0,-5.488 -4.55466,-5.488 -2.128,0 -3.73334,1.38133 -1.568,1.344 -1.64266,3.95733 v 11.05067 h -4.18134 v -10.90133 q 0,-2.83734 -1.008,-4.144 -1.008,-1.344 -3.17333,-1.344 -2.16533,0 -3.77067,1.456 -1.60533,1.41866 -1.60533,4.18133 z"
     style="font-size:37.33333206px"
     id="path27249"
     inkscape:connector-curvature="0" /><path
     d="m -101.50764,399.17766 h -15.568 q 0.14933,2.16533 1.97866,3.50933 1.82934,1.30667 4.18134,1.30667 3.73333,0 5.67466,-2.352 l 2.38934,2.61333 q -3.21067,3.32267 -8.36267,3.32267 -4.18133,0 -7.13067,-2.76267 -2.912,-2.8 -2.912,-7.46667 0,-4.704 2.98667,-7.46666 2.98667,-2.76267 7.01867,-2.76267 4.06933,0 6.90666,2.464 2.83734,2.42667 2.83734,6.72 z m -15.568,-3.28534 h 11.38666 q 0,-2.50133 -1.568,-3.84533 -1.568,-1.344 -3.88266,-1.344 -2.27734,0 -4.10667,1.41867 -1.82933,1.38133 -1.82933,3.77066 z"
     style="font-size:37.33333206px"
     id="path27251"
     inkscape:connector-curvature="0" /><path
     d="m -82.796646,401.34299 q 0,2.83733 -2.053333,4.55467 -2.053333,1.68 -5.264,1.68 -2.165333,0 -4.517333,-0.784 -2.314666,-0.784 -4.106666,-2.20267 l 2.016,-3.248 q 3.471999,2.61333 6.719999,2.61333 1.418667,0 2.24,-0.63466 0.821334,-0.672 0.821334,-1.68 0,-1.49334 -3.957334,-2.688 -0.298666,-0.112 -0.448,-0.14934 -6.197333,-1.68 -6.197333,-5.6 0,-2.76266 2.128,-4.40533 2.165333,-1.68 5.6,-1.68 3.434667,0 6.496,2.016 l -1.568,3.09867 q -2.426667,-1.60534 -5.264,-1.60534 -1.493333,0 -2.426667,0.56 -0.933333,0.52267 -0.933333,1.60534 0,0.97066 0.970667,1.41866 0.672,0.336 1.866666,0.63467 1.232,0.29867 2.165334,0.59733 0.933333,0.29867 1.792,0.672 0.896,0.37334 1.903999,1.04534 2.016,1.344 2.016,4.18133 z"
     style="font-size:37.33333206px"
     id="path27253"
     inkscape:connector-curvature="0" /><path
     d="m -196.80214,414.25799 v 1.184 h -3.97867 v 1.97333 h 3.57333 v 1.12 h -3.57333 v 1.99467 h 4.10667 v 1.184 h -5.36534 v -7.456 z"
     style="font-size:10.66666698px"
     id="path27255"
     inkscape:connector-curvature="0" /><path
     d="m -194.03631,418.64199 v 3.072 h -1.19467 v -5.67467 h 1.19467 v 1.03467 q 0.288,-0.52267 0.78933,-0.82133 0.512,-0.29867 1.09867,-0.29867 0.96,0 1.54667,0.58667 0.59733,0.58666 0.59733,1.696 v 3.47733 h -1.19467 v -3.11467 q 0,-1.568 -1.30133,-1.568 -0.61867,0 -1.07733,0.416 -0.45867,0.40534 -0.45867,1.19467 z"
     style="font-size:10.66666698px"
     id="path27257"
     inkscape:connector-curvature="0" /><path
     d="m -186.94648,416.99932 v 2.88 q 0,0.40534 0.21334,0.65067 0.21333,0.23467 0.59733,0.23467 0.384,0 0.736,-0.37334 l 0.49067,0.84267 q -0.62934,0.56533 -1.39734,0.56533 -0.75733,0 -1.30133,-0.52266 -0.53333,-0.53334 -0.53333,-1.42934 v -2.848 h -0.71467 v -0.96 h 0.71467 v -1.78133 h 1.19466 v 1.78133 h 1.49334 v 0.96 z"
     style="font-size:10.66666698px"
     id="path27259"
     inkscape:connector-curvature="0" /><path
     d="m -178.68014,419.39932 h -4.448 q 0.0427,0.61867 0.56533,1.00267 0.52267,0.37333 1.19467,0.37333 1.06666,0 1.62133,-0.672 l 0.68267,0.74667 q -0.91734,0.94933 -2.38934,0.94933 -1.19466,0 -2.03733,-0.78933 -0.832,-0.8 -0.832,-2.13333 0,-1.344 0.85333,-2.13334 0.85334,-0.78933 2.00534,-0.78933 1.16266,0 1.97333,0.704 0.81067,0.69333 0.81067,1.92 z m -4.448,-0.93866 h 3.25333 q 0,-0.71467 -0.448,-1.09867 -0.448,-0.384 -1.10933,-0.384 -0.65067,0 -1.17334,0.40533 -0.52266,0.39467 -0.52266,1.07734 z"
     style="font-size:10.66666698px"
     id="path27261"
     inkscape:connector-curvature="0" /><path
     d="m -174.40081,417.15932 q -0.88533,0 -1.33333,0.576 -0.448,0.576 -0.448,1.54667 v 2.432 h -1.19467 v -5.67467 h 1.19467 v 1.14134 q 0.288,-0.53334 0.77866,-0.87467 0.50134,-0.34133 1.056,-0.352 l 0.0107,1.20533 q -0.032,0 -0.064,0 z"
     style="font-size:10.66666698px"
     id="path27263"
     inkscape:connector-curvature="0" /><path
     d="m -170.10764,415.95399 q 1.14133,0 1.952,0.78933 0.81066,0.78934 0.81066,2.10134 0,1.312 -0.81066,2.13333 -0.8,0.82133 -1.87734,0.82133 -1.06666,0 -1.92,-0.93866 v 2.92266 h -1.19466 v -7.744 h 1.19466 v 0.992 q 0.704,-1.07733 1.84534,-1.07733 z m -1.86667,2.93333 q 0,0.81067 0.49067,1.33334 0.49066,0.512 1.19466,0.512 0.704,0 1.22667,-0.512 0.52267,-0.512 0.52267,-1.32267 0,-0.82133 -0.512,-1.35467 -0.512,-0.544 -1.22667,-0.544 -0.71467,0 -1.20533,0.544 -0.49067,0.53334 -0.49067,1.344 z"
     style="font-size:10.66666698px"
     id="path27265"
     inkscape:connector-curvature="0" /><path
     d="m -163.00497,417.15932 q -0.88534,0 -1.33334,0.576 -0.448,0.576 -0.448,1.54667 v 2.432 h -1.19466 v -5.67467 h 1.19466 v 1.14134 q 0.288,-0.53334 0.77867,-0.87467 0.50133,-0.34133 1.056,-0.352 l 0.0107,1.20533 q -0.032,0 -0.064,0 z"
     style="font-size:10.66666698px"
     id="path27267"
     inkscape:connector-curvature="0" /><path
     d="m -160.55714,421.71399 h -1.19467 v -5.67467 h 1.19467 z m -1.12,-6.80533 q -0.224,-0.224 -0.224,-0.53334 0,-0.30933 0.224,-0.53333 0.224,-0.224 0.53333,-0.224 0.30934,0 0.53334,0.224 0.224,0.224 0.224,0.53333 0,0.30934 -0.224,0.53334 -0.224,0.224 -0.53334,0.224 -0.30933,0 -0.53333,-0.224 z"
     style="font-size:10.66666698px"
     id="path27269"
     inkscape:connector-curvature="0" /><path
     d="m -154.79248,420.01799 q 0,0.81067 -0.58666,1.30133 -0.58667,0.48 -1.504,0.48 -0.61867,0 -1.29067,-0.224 -0.66133,-0.224 -1.17333,-0.62933 l 0.576,-0.928 q 0.992,0.74667 1.92,0.74667 0.40533,0 0.64,-0.18134 0.23466,-0.192 0.23466,-0.48 0,-0.42666 -1.13066,-0.768 -0.0853,-0.032 -0.128,-0.0427 -1.77067,-0.48 -1.77067,-1.6 0,-0.78934 0.608,-1.25867 0.61867,-0.48 1.6,-0.48 0.98133,0 1.856,0.576 l -0.448,0.88533 q -0.69333,-0.45866 -1.504,-0.45866 -0.42667,0 -0.69333,0.16 -0.26667,0.14933 -0.26667,0.45866 0,0.27734 0.27733,0.40534 0.192,0.096 0.53334,0.18133 0.352,0.0853 0.61866,0.17067 0.26667,0.0853 0.512,0.192 0.256,0.10666 0.544,0.29866 0.576,0.384 0.576,1.19467 z"
     style="font-size:10.66666698px"
     id="path27271"
     inkscape:connector-curvature="0" /><path
     d="m -148.15931,419.39932 h -4.448 q 0.0427,0.61867 0.56534,1.00267 0.52266,0.37333 1.19466,0.37333 1.06667,0 1.62134,-0.672 l 0.68266,0.74667 q -0.91733,0.94933 -2.38933,0.94933 -1.19467,0 -2.03733,-0.78933 -0.832,-0.8 -0.832,-2.13333 0,-1.344 0.85333,-2.13334 0.85333,-0.78933 2.00533,-0.78933 1.16267,0 1.97334,0.704 0.81066,0.69333 0.81066,1.92 z m -4.448,-0.93866 h 3.25334 q 0,-0.71467 -0.448,-1.09867 -0.448,-0.384 -1.10934,-0.384 -0.65066,0 -1.17333,0.40533 -0.52267,0.39467 -0.52267,1.07734 z"
     style="font-size:10.66666698px"
     id="path27273"
     inkscape:connector-curvature="0" /><path
     d="m -142.50997,421.71399 h -1.25867 v -7.456 h 1.96267 l 2.25066,4.68267 2.25067,-4.68267 h 1.952 v 7.456 h -1.25867 v -5.824 l -2.60266,5.17333 h -0.704 l -2.592,-5.17333 z"
     style="font-size:10.66666698px"
     id="path27275"
     inkscape:connector-curvature="0" /><path
     d="m -128.86281,421.71399 h -1.088 v -0.75733 q -0.704,0.84266 -1.888,0.84266 -0.88533,0 -1.472,-0.50133 -0.576,-0.50133 -0.576,-1.33333 0,-0.84267 0.61867,-1.25867 0.61866,-0.416 1.67466,-0.416 h 1.54667 v -0.21333 q 0,-1.13067 -1.25867,-1.13067 -0.78933,0 -1.64266,0.576 l -0.53334,-0.74667 q 1.03467,-0.82133 2.34667,-0.82133 1.00267,0 1.632,0.512 0.64,0.50133 0.64,1.58933 z m -1.19467,-2.112 v -0.48 h -1.344 q -1.29066,0 -1.29066,0.81067 0,0.416 0.32,0.64 0.32,0.21333 0.88533,0.21333 0.576,0 1.00267,-0.32 0.42666,-0.32 0.42666,-0.864 z"
     style="font-size:10.66666698px"
     id="path27277"
     inkscape:connector-curvature="0" /><path
     d="m -125.99464,421.71399 h -1.19467 v -5.67467 h 1.19467 z m -1.12,-6.80533 q -0.224,-0.224 -0.224,-0.53334 0,-0.30933 0.224,-0.53333 0.224,-0.224 0.53333,-0.224 0.30934,0 0.53334,0.224 0.224,0.224 0.224,0.53333 0,0.30934 -0.224,0.53334 -0.224,0.224 -0.53334,0.224 -0.30933,0 -0.53333,-0.224 z"
     style="font-size:10.66666698px"
     id="path27279"
     inkscape:connector-curvature="0" /><path
     d="m -123.07798,421.71399 h -1.19466 v -7.91467 h 1.19466 z"
     style="font-size:10.66666698px"
     id="path27281"
     inkscape:connector-curvature="0" /><path
     d="m -116.01797,415.23932 q -0.544,0 -0.896,0.224 -0.352,0.224 -0.352,0.68267 0,0.448 0.352,0.69333 0.352,0.23467 1.49333,0.512 1.152,0.27734 1.728,0.77867 0.58667,0.50133 0.58667,1.48267 0,0.97066 -0.736,1.57866 -0.736,0.608 -1.93067,0.608 -1.74933,0 -3.104,-1.20533 l 0.78933,-0.94933 q 1.13067,0.98133 2.34667,0.98133 0.608,0 0.96,-0.256 0.36267,-0.26667 0.36267,-0.69333 0,-0.43734 -0.34134,-0.672 -0.33066,-0.24534 -1.152,-0.43734 -0.82133,-0.20266 -1.248,-0.36266 -0.42666,-0.17067 -0.75733,-0.43734 -0.66133,-0.50133 -0.66133,-1.536 0,-1.03466 0.74666,-1.58933 0.75734,-0.56533 1.86667,-0.56533 0.71467,0 1.41867,0.23466 0.704,0.23467 1.216,0.66134 l -0.672,0.94933 q -0.33067,-0.29867 -0.896,-0.49067 -0.56534,-0.192 -1.12,-0.192 z"
     style="font-size:10.66666698px"
     id="path27283"
     inkscape:connector-curvature="0" /><path
     d="m -106.43014,419.39932 h -4.448 q 0.0427,0.61867 0.56533,1.00267 0.52267,0.37333 1.19467,0.37333 1.06666,0 1.62133,-0.672 l 0.68267,0.74667 q -0.91734,0.94933 -2.38934,0.94933 -1.19466,0 -2.03733,-0.78933 -0.832,-0.8 -0.832,-2.13333 0,-1.344 0.85333,-2.13334 0.85334,-0.78933 2.00534,-0.78933 1.16266,0 1.97333,0.704 0.81067,0.69333 0.81067,1.92 z m -4.448,-0.93866 h 3.25333 q 0,-0.71467 -0.448,-1.09867 -0.448,-0.384 -1.10933,-0.384 -0.65067,0 -1.17334,0.40533 -0.52266,0.39467 -0.52266,1.07734 z"
     style="font-size:10.66666698px"
     id="path27285"
     inkscape:connector-curvature="0" /><path
     d="m -102.15081,417.15932 q -0.88533,0 -1.33333,0.576 -0.448,0.576 -0.448,1.54667 v 2.432 h -1.19467 v -5.67467 h 1.19467 v 1.14134 q 0.288,-0.53334 0.77867,-0.87467 0.50133,-0.34133 1.056,-0.352 l 0.0107,1.20533 q -0.032,0 -0.064,0 z"
     style="font-size:10.66666698px"
     id="path27287"
     inkscape:connector-curvature="0" /><path
     d="m -99.393642,421.71399 -2.282668,-5.67467 h 1.23733 l 1.728004,4.288 1.728,-4.288 h 1.237334 l -2.282667,5.67467 z"
     style="font-size:10.66666698px"
     id="path27289"
     inkscape:connector-curvature="0" /><path
     d="m -89.513471,419.39932 h -4.448 q 0.04267,0.61867 0.565334,1.00267 0.522666,0.37333 1.194666,0.37333 1.066667,0 1.621334,-0.672 l 0.682666,0.74667 q -0.917333,0.94933 -2.389333,0.94933 -1.194667,0 -2.037333,-0.78933 -0.832,-0.8 -0.832,-2.13333 0,-1.344 0.853333,-2.13334 0.853333,-0.78933 2.005333,-0.78933 1.162667,0 1.973334,0.704 0.810666,0.69333 0.810666,1.92 z m -4.448,-0.93866 h 3.253334 q 0,-0.71467 -0.448,-1.09867 -0.448,-0.384 -1.109334,-0.384 -0.650666,0 -1.173333,0.40533 -0.522667,0.39467 -0.522667,1.07734 z"
     style="font-size:10.66666698px"
     id="path27291"
     inkscape:connector-curvature="0" /><path
     d="m -85.234135,417.15932 q -0.885333,0 -1.333333,0.576 -0.448,0.576 -0.448,1.54667 v 2.432 h -1.194667 v -5.67467 h 1.194667 v 1.14134 q 0.288,-0.53334 0.778667,-0.87467 0.501333,-0.34133 1.056,-0.352 l 0.01067,1.20533 q -0.032,0 -0.064,0 z"
     style="font-size:10.66666698px"
     id="path27293"
     inkscape:connector-curvature="0" /></g></svg>