<?xml version="1.0" encoding="UTF-8" standalone="no"?>
<!DOCTYPE svg PUBLIC "-//W3C//DTD SVG 1.1//EN" "http://www.w3.org/Graphics/SVG/1.1/DTD/svg11.dtd">
<!-- Created with Vectornator (http://vectornator.io/) -->
<svg height="100%" stroke-miterlimit="10" style="fill-rule:nonzero;clip-rule:evenodd;stroke-linecap:round;stroke-linejoin:round;" version="1.1" viewBox="0 0 32 32" width="100%" xml:space="preserve" xmlns="http://www.w3.org/2000/svg" xmlns:vectornator="http://vectornator.io" xmlns:xlink="http://www.w3.org/1999/xlink">
<defs>
<clipPath id="TextBounds">
<rect height="11" transform="matrix(1 0 0 1 0 18)" width="32" x="0" y="0"/>
</clipPath>
</defs>
<g id="IBM-MQ" vectornator:layerName="IBM MQ">
<g opacity="1">
<path d="M2 0C0.89543 0 0 0.89543 0 2L0 16L32 16L32 2C32 0.89543 31.1046 0 30 0L2 0Z" fill="#000000" fill-rule="evenodd" opacity="1" stroke="none"/>
<path d="M4 3L4 3.6947L8.67156 3.6947L8.67156 3L4 3ZM9.33344 3L9.33344 3.6947L15.9906 3.6947C15.9906 3.6947 15.3106 3 14.41 3L9.33344 3ZM17.2966 3L17.2966 3.6947L21.3241 3.6947L21.085 3L17.2966 3ZM24.2116 3L23.9725 3.6947L27.9634 3.6947L27.9634 3L24.2116 3ZM4 4.35103L4 5.04573L8.67156 5.04573L8.67156 4.35103L4 4.35103ZM9.33344 4.35201L9.33344 5.04573L16.7631 5.04573C16.7631 5.04573 16.6763 4.51105 16.525 4.35201L9.33344 4.35201ZM17.2966 4.35201L17.2966 5.04573L21.7656 5.04573L21.5444 4.35201L17.2966 4.35201ZM23.7334 4.35201L23.5122 5.04573L27.9634 5.04573L27.9634 4.35201L23.7334 4.35201ZM5.3425 5.70205L5.3425 6.39774L7.36562 6.39774L7.36562 5.70205L5.3425 5.70205ZM10.6759 5.70205L10.6759 6.39774L12.6991 6.39774L12.6991 5.70205L10.6759 5.70205ZM14.6669 5.70205L14.6669 6.39774L16.69 6.39774C16.69 6.39774 16.8184 6.03034 16.8184 5.70205L14.6669 5.70205ZM18.6391 5.70205L18.6391 6.39774L22.2259 6.39774L21.9869 5.70205L18.6391 5.70205ZM23.2928 5.70205L23.0528 6.39774L26.6575 6.39774L26.6575 5.70205L23.2928 5.70205ZM5.3425 7.05406L5.3425 7.74876L7.36562 7.74876L7.36562 7.05406L5.3425 7.05406ZM10.6759 7.05406L10.6759 7.74876L15.8434 7.74876C15.8434 7.74876 16.2757 7.3923 16.4134 7.05406L10.6759 7.05406ZM18.6391 7.05406L18.6391 7.74876L20.6622 7.74876L20.6622 7.36205L20.7906 7.74876L24.4966 7.74876L24.6344 7.36205L24.6344 7.74876L26.6575 7.74876L26.6575 7.05406L22.8597 7.05406L22.6581 7.64249L22.4556 7.05406L18.6391 7.05406ZM5.3425 8.40509L5.3425 9.09979L7.36562 9.09979L7.36562 8.40509L5.3425 8.40509ZM10.6759 8.40509L10.6759 9.09979L16.4134 9.09979C16.2757 8.76265 15.8434 8.40509 15.8434 8.40509L10.6759 8.40509ZM18.6391 8.40509L18.6391 9.09979L20.6622 9.09979L20.6622 8.40509L18.6391 8.40509ZM21.0297 8.40509L21.2744 9.09979L24.0531 9.09979L24.2856 8.40509L21.0297 8.40509ZM24.6344 8.40509L24.6344 9.09979L26.6575 9.09979L26.6575 8.40509L24.6344 8.40509ZM5.3425 9.75611L5.3425 10.4508L7.36562 10.4508L7.36562 9.75611L5.3425 9.75611ZM10.6759 9.75611L10.6759 10.4508L12.6991 10.4508L12.6991 9.75611L10.6759 9.75611ZM14.6669 9.75611L14.6669 10.4508L16.8184 10.4508C16.8184 10.123 16.69 9.75611 16.69 9.75611L14.6669 9.75611ZM18.6391 9.75611L18.6391 10.4508L20.6622 10.4508L20.6622 9.75611L18.6391 9.75611ZM21.4891 9.75611L21.7263 10.4508L23.5891 10.4508L23.8281 9.75611L21.4891 9.75611ZM24.6344 9.75611L24.6344 10.4508L26.6575 10.4508L26.6575 9.75611L24.6344 9.75611ZM4.03656 11.1071L4.03656 11.8028L8.70812 11.8028L8.70812 11.1071L4.03656 11.1071ZM9.33344 11.1071L9.33344 11.8028L16.525 11.8028C16.6763 11.6435 16.7631 11.1071 16.7631 11.1071L9.33344 11.1071ZM17.3331 11.1071L17.3331 11.8028L20.6622 11.8028L20.6622 11.1071L17.3331 11.1071ZM21.9494 11.1071L22.1931 11.8028L23.1409 11.8028L23.3697 11.1071L21.9494 11.1071ZM24.6344 11.1071L24.6344 11.8028L28 11.8028L28 11.1071L24.6344 11.1071ZM4.03656 12.4591L4.03656 13.1538L8.70812 13.1538L8.70812 12.4591L4.03656 12.4591ZM9.33344 12.4591L9.33344 13.1529L14.41 13.1529C15.3106 13.1529 15.9906 12.4591 15.9906 12.4591L9.33344 12.4591ZM17.3331 12.4591L17.3331 13.1538L20.6622 13.1538L20.6622 12.4591L17.3331 12.4591ZM22.4116 12.4591L22.6459 13.1519L22.6863 13.1529L22.9244 12.4591L22.4116 12.4591ZM24.6344 12.4591L24.6344 13.1538L28 13.1538L28 12.4591L24.6344 12.4591Z" fill="#ffffff" fill-rule="nonzero" opacity="1" stroke="none"/>
<g fill="#000000" opacity="1" stroke="none">
<path clip-path="url(#TextBounds)" d="M12.4141 26.2529C12.71 26.2529 12.9531 26.2222 13.1436 26.1606C13.4834 26.0464 13.7617 25.8267 13.9785 25.5015C14.1514 25.2407 14.2759 24.9067 14.3521 24.4995C14.396 24.2563 14.418 24.0308 14.418 23.8228C14.418 23.0229 14.259 22.4019 13.9412 21.9595C13.6233 21.5171 13.1113 21.2959 12.4053 21.2959L10.854 21.2959L10.854 26.2529L12.4141 26.2529ZM9.9751 20.5444L12.5898 20.5444C13.4775 20.5444 14.166 20.8594 14.6553 21.4893C15.0918 22.0576 15.3101 22.7856 15.3101 23.6733C15.3101 24.3589 15.1812 24.9785 14.9233 25.5322C14.4692 26.5107 13.6885 27 12.5811 27L9.9751 27L9.9751 20.5444Z"/>
<path clip-path="url(#TextBounds)" d="M22.3413 26.9824L21.9019 27.5142L20.9043 26.7539C20.6641 26.8857 20.4041 26.9912 20.1243 27.0703C19.8445 27.1494 19.5391 27.189 19.208 27.189C18.2061 27.189 17.4209 26.8608 16.8525 26.2046C16.3516 25.5659 16.1011 24.7661 16.1011 23.8052C16.1011 22.9321 16.3179 22.1851 16.7515 21.564C17.3081 20.7671 18.1313 20.3687 19.2212 20.3687C20.3608 20.3687 21.2046 20.7349 21.7524 21.4673C22.1802 22.0386 22.394 22.7695 22.394 23.6602C22.394 24.0762 22.3428 24.4761 22.2402 24.8599C22.085 25.4458 21.8228 25.9233 21.4536 26.2925L22.3413 26.9824ZM19.3135 26.4067C19.4951 26.4067 19.665 26.3943 19.8232 26.3694C19.9814 26.3445 20.1191 26.2954 20.2363 26.2222L19.5288 25.6685L19.9683 25.1279L20.812 25.7827C21.0786 25.478 21.2595 25.1367 21.3547 24.7588C21.45 24.3809 21.4976 24.019 21.4976 23.6733C21.4976 22.9146 21.2991 22.3037 20.9021 21.8408C20.5051 21.3779 19.9624 21.1465 19.2739 21.1465C18.5767 21.1465 18.0244 21.3684 17.6172 21.8123C17.21 22.2561 17.0063 22.9395 17.0063 23.8623C17.0063 24.6387 17.2019 25.2568 17.593 25.7168C17.9841 26.1768 18.5576 26.4067 19.3135 26.4067Z"/>
</g>
</g>
</g>
</svg>
