<?xml version="1.0"?>
<svg xmlns="http://www.w3.org/2000/svg" viewBox="0 -32 512 512" width="512px" height="512px"><path d="m102.648438 0h306.707031c16.675781 0 31.828125 6.816406 42.808593 17.796875 10.980469 10.980469 17.796876 26.132813 17.796876 42.808594v162.902343c0 16.675782-6.816407 31.828126-17.796876 42.808594-10.976562 10.980469-26.132812 17.796875-42.808593 17.796875h-143.339844v71.972657h24.027344c5.53125 0 10.015625 4.480468 10.015625 10.011718v19h20.183594c5.527343 0 10.011718 4.480469 10.011718 10.011719v11.894531h131.742188c5.523437 0 10 4.476563 10 10 0 5.523438-4.476563 10-10 10v.027344h-131.742188v11.894531c0 5.527344-4.484375 10.011719-10.015625 10.011719h-128.476562c-5.53125 0-10.015625-4.480469-10.015625-10.011719v-11.894531h-131.742188v-.027344c-5.523437 0-10-4.476562-10-10 0-5.523437 4.476563-10 10-10h131.742188v-11.894531c0-5.53125 4.484375-10.011719 10.015625-10.011719h20.183593v-19c0-5.53125 4.480469-10.011718 10.011719-10.011718h24.03125v-71.972657h-143.339843c-16.679688 0-31.832032-6.816406-42.8125-17.796875-10.976563-10.980468-17.792969-26.132812-17.792969-42.808594v-162.902343c0-16.679688 6.816406-31.832031 17.792969-42.8125 10.980468-10.976563 26.132812-17.792969 42.8125-17.792969zm-92.648438 407c5.523438 0 10 4.480469 10 10.003906 0 5.523438-4.476562 10-10 10s-10-4.476562-10-10c0-5.523437 4.476562-10.003906 10-10.003906zm492 0c5.523438 0 10 4.480469 10 10.003906 0 5.523438-4.476562 10-10 10s-10-4.476562-10-10c0-5.523437 4.476562-10.003906 10-10.003906zm-300.222656 21.910156h108.449218v-23.785156h-20.183593c-5.53125 0-10.011719-4.484375-10.011719-10.015625v-18.996094h-48.058594v18.996094c0 5.53125-4.484375 10.015625-10.015625 10.015625h-20.183593c.003906 7.925781.003906 15.855469.003906 23.785156zm-102.15625-211.304687h131.511718c5.53125 0 10.015626-4.480469 10.015626-10.011719s-4.484376-10.015625-10.015626-10.015625h-131.511718c-5.53125 0-10.015625 4.484375-10.015625 10.015625s4.484375 10.011719 10.015625 10.011719zm0-41.132813h131.511718c5.53125 0 10.015626-4.484375 10.015626-10.015625 0-5.527343-4.484376-10.015625-10.015626-10.015625h-131.511718c-5.53125 0-10.015625 4.484375-10.015625 10.015625.003906 5.53125 4.484375 10.015625 10.015625 10.015625zm0-41.136718h131.511718c5.53125 0 10.015626-4.484376 10.015626-10.015626 0-5.527343-4.484376-10.011718-10.015626-10.011718h-131.511718c-5.53125 0-10.015625 4.480468-10.015625 10.011718.003906 5.53125 4.484375 10.015626 10.015625 10.015626zm253.761718 57.1875c5.121094 3.375 10.871094 5.054687 17.0625 5.054687 8.59375 0 16.375-3.480469 22.007813-9.113281 5.632813-5.628906 9.113281-13.410156 9.113281-22.007813 0-8.59375-3.480468-16.375-9.113281-22.007812-5.632813-5.632813-13.414063-9.113281-22.007813-9.113281-6.207031 0-11.945312 1.683593-17.0625 5.054687 4.527344 7.636719 7.128907 16.546875 7.128907 26.066406s-2.597657 18.433594-7.128907 26.066407zm-13.460937-67.085938c-8.523437-6.363281-19.101563-10.128906-30.558594-10.128906-14.125 0-26.914062 5.722656-36.167969 14.980468-9.257812 9.257813-14.984374 22.042969-14.984374 36.167969s5.726562 26.910157 14.984374 36.167969c9.253907 9.257812 22.042969 14.980469 36.167969 14.980469 11.453125 0 22.03125-3.765625 30.558594-10.128907 8.773437 6.519532 19.578125 10.128907 30.523437 10.128907 14.125 0 26.910157-5.726563 36.167969-14.980469 9.257813-9.257812 14.984375-22.042969 14.984375-36.167969s-5.726562-26.910156-14.984375-36.167969c-9.257812-9.257812-22.042969-14.980468-36.167969-14.980468-10.933593 0-21.765624 3.621094-30.523437 10.128906zm-8.550781 19.011719c-5.632813-5.632813-13.414063-9.113281-22.007813-9.113281-8.597656 0-16.378906 3.480468-22.007812 9.113281-5.632813 5.632812-9.117188 13.414062-9.117188 22.007812 0 8.597657 3.484375 16.378907 9.117188 22.007813 5.628906 5.632812 13.410156 9.113281 22.007812 9.113281 8.59375 0 16.375-3.480469 22.007813-9.113281 5.628906-5.628906 9.113281-13.410156 9.113281-22.007813 0-8.59375-3.484375-16.375-9.113281-22.007812zm-269.132813-87.527344h387.527344c-.886719-9.6875-5.222656-18.425781-11.761719-24.964844-7.359375-7.359375-17.5-11.929687-28.648437-11.929687h-306.707031c-11.148438 0-21.292969 4.566406-28.652344 11.929687-6.539063 6.539063-10.875 15.277344-11.757813 24.964844zm387.695313 20.027344h-387.863282v146.558593c0 11.148438 4.566407 21.289063 11.925782 28.648438s17.5 11.929688 28.648437 11.929688h306.710938c11.148437 0 21.289062-4.570313 28.648437-11.929688 7.359375-7.355469 11.929688-17.5 11.929688-28.648438zm0 0" fill-rule="evenodd" fill="#000000"/></svg>
