<?xml version="1.0" encoding="UTF-8" standalone="no"?>
<!DOCTYPE svg PUBLIC "-//W3C//DTD SVG 1.1//EN" "http://www.w3.org/Graphics/SVG/1.1/DTD/svg11.dtd">
<!-- Created with Vectornator (http://vectornator.io/) -->
<svg height="100%" stroke-miterlimit="10" style="fill-rule:nonzero;clip-rule:evenodd;stroke-linecap:round;stroke-linejoin:round;" version="1.1" viewBox="0 0 32 32" width="100%" xml:space="preserve" xmlns="http://www.w3.org/2000/svg" xmlns:vectornator="http://vectornator.io" xmlns:xlink="http://www.w3.org/1999/xlink">
<defs/>
<g id="Untitled" vectornator:layerName="Untitled">
<path d="M1 4.125C0.801 4.125 0.625 4.301 0.625 4.5L0.625 27.5C0.625 27.699 0.801 27.875 1 27.875L31 27.875C31.199 27.875 31.375 27.699 31.375 27.5L31.375 4.5C31.375 4.301 31.199 4.125 31 4.125L1 4.125ZM4.59375 12.75C5.67751 12.75 6.3887 13.2556 6.8125 14.1875L5.96875 14.6562C5.75263 14.0648 5.31907 13.6562 4.59375 13.6562C3.63439 13.6563 3.03125 14.3758 3.03125 15.5312L3.03125 16.4688C3.03125 17.6252 3.63439 18.3438 4.59375 18.3438C5.33699 18.3437 5.8067 17.8906 6.03125 17.2812L6.84375 17.7812C6.42205 18.6858 5.67751 19.25 4.59375 19.25C2.96284 19.25 1.9677 18.0969 1.96875 16C1.96875 13.9031 2.96284 12.75 4.59375 12.75ZM10.2188 12.7812C11.8497 12.7812 12.9375 13.8936 12.9375 16C12.9375 18.1053 11.8497 19.25 10.2188 19.25C8.58784 19.25 7.5323 18.1053 7.53125 16C7.53125 13.8936 8.58784 12.7812 10.2188 12.7812ZM22.5 12.7812C24.1309 12.7812 25.2188 13.8936 25.2188 16C25.2188 18.1053 24.1309 19.25 22.5 19.25C20.8691 19.25 19.8136 18.1053 19.8125 16C19.8125 13.8936 20.8691 12.7812 22.5 12.7812ZM14.1875 12.875L16.9688 12.875C17.9987 12.875 18.625 13.5227 18.625 14.5C18.625 15.4414 18.0426 15.7672 17.5312 15.8125L17.5312 15.875C18.0426 15.8929 18.8438 16.2635 18.8438 17.3125C18.8438 18.3246 18.1725 19.125 17.25 19.125L14.1875 19.125C14.1875 19.125 14.1875 12.875 14.1875 12.875ZM26.4688 12.875L27.5 12.875L27.5 18.2188L30.0312 18.2188L30.0312 19.125L26.4688 19.125L26.4688 12.875ZM10.2188 13.6562C9.25096 13.6563 8.625 14.3625 8.625 15.5L8.625 16.5C8.625 17.6386 9.25096 18.3438 10.2188 18.3438C11.1865 18.3438 11.8448 17.6386 11.8438 16.5L11.8438 15.5C11.8438 14.3625 11.1865 13.6562 10.2188 13.6562ZM22.5 13.6562C21.5322 13.6563 20.9062 14.3625 20.9062 15.5L20.9062 16.5C20.9062 17.6386 21.5322 18.3438 22.5 18.3438C23.4678 18.3438 24.125 17.6386 24.125 16.5L24.125 15.5C24.125 14.3625 23.4678 13.6562 22.5 13.6562ZM15.1875 13.75L15.1875 15.5312L16.7812 15.5312C17.2757 15.5312 17.5625 15.2567 17.5625 14.7812L17.5625 14.5C17.5625 14.0256 17.2746 13.75 16.7812 13.75L15.1875 13.75ZM15.1875 16.375L15.1875 18.25L16.9375 18.25C17.4572 18.25 17.7812 17.979 17.7812 17.4688L17.7812 17.1562C17.7813 16.6449 17.4583 16.375 16.9375 16.375L15.1875 16.375Z" fill="#000000" fill-rule="nonzero" opacity="1" stroke="none" vectornator:layerName="Curve 1"/>
</g>
</svg>
