<?xml version="1.0" encoding="UTF-8"?>
<svg width="32px" height="32px" viewBox="0 0 32 32" version="1.1" xmlns="http://www.w3.org/2000/svg" xmlns:xlink="http://www.w3.org/1999/xlink">
    <title>dotnetentity</title>
    <g id="dotnetentity" stroke="none" stroke-width="1" fill="none" fill-rule="evenodd">
        <g id="netframework" transform="translate(0.489588, 0.000000)" fill="#5C2D91" fill-rule="nonzero">
            <path d="M15.6668083,0 C24.3193476,0 31.3336167,7.01426901 31.3336167,15.6668083 C31.3336167,24.3193476 24.3193476,31.3336167 15.6668083,31.3336167 C7.01426901,31.3336167 0,24.3193476 0,15.6668083 C0,7.01426901 7.01426901,0 15.6668083,0 Z M8.60477688,21.5690608 L6.22864428,21.5690608 L6.22864428,25.103558 L8.62952826,25.103558 L8.62952826,24.9154475 L6.44645644,24.9154475 L6.44645644,23.3610608 L8.4760697,23.3610608 L8.4760697,23.1729503 L6.44645644,23.1729503 L6.44645644,21.7571713 L8.60477688,21.7571713 L8.60477688,21.5690608 Z M10.0686443,21.5690608 L9.79637909,21.5690608 L9.79637909,25.103558 L10.0141912,25.103558 L10.0141912,21.8363757 L10.0240918,21.8363757 L12.2715172,25.103558 L12.5289316,25.103558 L12.5289316,21.5690608 L12.3111194,21.5690608 L12.3111194,24.8114917 L12.3012189,24.8114917 L10.0686443,21.5690608 Z M16.2748763,21.5690608 L13.5670752,21.5690608 L13.5670752,21.7571713 L14.8095946,21.7571713 L14.8095946,25.103558 L15.0274067,25.103558 L15.0274067,21.7571713 L16.2748763,21.7571713 L16.2748763,21.5690608 Z M17.5308321,21.5690608 L17.31302,21.5690608 L17.31302,25.103558 L17.5308321,25.103558 L17.5308321,21.5690608 Z M21.2767769,21.5690608 L18.5689758,21.5690608 L18.5689758,21.7571713 L19.8114951,21.7571713 L19.8114951,25.103558 L20.0293073,25.103558 L20.0293073,21.7571713 L21.2767769,21.7571713 L21.2767769,21.5690608 Z M22.1466111,21.5690608 L21.8990973,21.5690608 L23.3099261,23.6234254 L23.3099261,25.103558 L23.5277382,25.103558 L23.5277382,23.6234254 L24.9484675,21.5690608 L24.705904,21.5690608 L23.4237824,23.4402652 L22.1466111,21.5690608 Z M3.62294943,16.841819 C3.43731784,16.8395618 3.2594205,16.9160576 3.13336167,17.0523417 C3.00361641,17.1820907 2.93131154,17.358444 2.93263068,17.5419295 C2.93019449,17.7256291 3.00267051,17.9023998 3.13336167,18.0315172 C3.26063726,18.1654859 3.43818417,18.2400556 3.62294943,18.2371441 C3.80737002,18.2382949 3.98424569,18.1640071 4.11253719,18.0315172 C4.24551219,17.9035578 4.31989164,17.7264639 4.31816405,17.5419295 C4.31874786,17.3576217 4.24454954,17.180959 4.11253719,17.0523417 C3.98541983,16.9175631 3.80821647,16.8413657 3.62294943,16.841819 Z M7.520068,9.18956226 L6.1639099,9.18956226 L6.1639099,18.1147471 L7.20673183,18.1147471 L7.20673183,11.6619805 C7.2177257,11.2533554 7.20136959,10.8444525 7.15777306,10.438011 L7.15777306,10.438011 L7.19694008,10.438011 C7.2714366,10.6336408 7.366631,10.820747 7.48090098,10.9961411 L7.48090098,10.9961411 L12.0683383,18.1147471 L13.3510582,18.1147471 L13.3510582,9.18956226 L12.3082363,9.18956226 L12.3082363,15.4660773 C12.2989556,15.9043898 12.3202225,16.3428162 12.3718827,16.7781725 L12.3718827,16.7781725 L12.3474033,16.7781725 C12.2919167,16.6704632 12.1711517,16.4713642 11.9851084,16.1808755 L11.9851084,16.1808755 L7.520068,9.18956226 Z M20.1905992,9.18956226 L15.6668083,9.18956226 L15.6668083,18.1147471 L20.4109137,18.1147471 L20.4158096,17.1355716 L16.7341096,17.1355716 L16.7341096,14.041377 L19.9555971,14.041377 L19.9555971,13.1013685 L16.7341096,13.1013685 L16.7341096,10.1344666 L20.1905992,10.1344666 L20.1905992,9.18956226 Z M27.4169146,9.18956226 L21.2138377,9.18956226 L21.2138377,10.1344666 L23.7792775,10.1344666 L23.7792775,18.1147471 L24.8269953,18.1147471 L24.8269953,10.1344666 L27.4169146,10.1344666 L27.4169146,9.18956226 Z" id="Oval-2"></path>
        </g>
    </g>
</svg>