<?xml version="1.0"?>
<svg xmlns="http://www.w3.org/2000/svg" height="512px" viewBox="0 -24 480 480" width="512px" class=""><g><path d="m416 408c0 4.417969-3.582031 8-8 8h-384c-4.417969 0-8-3.582031-8-8v-328h400v96h16v-152c0-13.253906-10.746094-24-24-24h-384c-13.253906 0-24 10.746094-24 24v384c0 13.253906 10.746094 24 24 24h384c13.253906 0 24-10.746094 24-24v-8h-16zm-392-392h384c4.417969 0 8 3.582031 8 8v40h-400v-40c0-4.417969 3.582031-8 8-8zm0 0" data-original="#000000" class="active-path" data-old_color="#0A8365" fill="#000000"/><path d="m48 32h16v16h-16zm0 0" data-original="#000000" class="active-path" data-old_color="#0A8365" fill="#000000"/><path d="m80 32h16v16h-16zm0 0" data-original="#000000" class="active-path" data-old_color="#0A8365" fill="#000000"/><path d="m112 32h16v16h-16zm0 0" data-original="#000000" class="active-path" data-old_color="#0A8365" fill="#000000"/><path d="m176 32h176v16h-176zm0 0" data-original="#000000" class="active-path" data-old_color="#0A8365" fill="#000000"/><path d="m256 312h16v16h-16zm0 0" data-original="#000000" class="active-path" data-old_color="#0A8365" fill="#000000"/><path d="m288 312h16v16h-16zm0 0" data-original="#000000" class="active-path" data-old_color="#0A8365" fill="#000000"/><path d="m320 312h16v16h-16zm0 0" data-original="#000000" class="active-path" data-old_color="#0A8365" fill="#000000"/><path d="m368 304h16v32h-16zm0 0" data-original="#000000" class="active-path" data-old_color="#0A8365" fill="#000000"/><path d="m400 304h16v32h-16zm0 0" data-original="#000000" class="active-path" data-old_color="#0A8365" fill="#000000"/><path d="m432 304h16v32h-16zm0 0" data-original="#000000" class="active-path" data-old_color="#0A8365" fill="#000000"/><path d="m464 272c8.835938 0 16-7.164062 16-16v-48c0-8.835938-7.164062-16-16-16h-224c-8.835938 0-16 7.164062-16 16v48c0 8.835938 7.164062 16 16 16h8v8h-8c-8.835938 0-16 7.164062-16 16v48c0 8.835938 7.164062 16 16 16h8v16c0 4.417969 3.582031 8 8 8h32c4.417969 0 8-3.582031 8-8v-16h112v16c0 4.417969 3.582031 8 8 8h32c4.417969 0 8-3.582031 8-8v-16h8c8.835938 0 16-7.164062 16-16v-48c0-8.835938-7.164062-16-16-16h-8v-8zm-224-64h224v48h-224zm56 72v-8h112v8zm-32-8h16v8h-16zm16 96h-16v-8h16zm160 0h-16v-8h16zm24-24h-224v-48h224zm-24-64h-16v-8h16zm0 0" data-original="#000000" class="active-path" data-old_color="#0A8365" fill="#000000"/><path d="m256 224h16v16h-16zm0 0" data-original="#000000" class="active-path" data-old_color="#0A8365" fill="#000000"/><path d="m288 224h16v16h-16zm0 0" data-original="#000000" class="active-path" data-old_color="#0A8365" fill="#000000"/><path d="m320 224h16v16h-16zm0 0" data-original="#000000" class="active-path" data-old_color="#0A8365" fill="#000000"/><path d="m368 216h16v32h-16zm0 0" data-original="#000000" class="active-path" data-old_color="#0A8365" fill="#000000"/><path d="m400 216h16v32h-16zm0 0" data-original="#000000" class="active-path" data-old_color="#0A8365" fill="#000000"/><path d="m432 216h16v32h-16zm0 0" data-original="#000000" class="active-path" data-old_color="#0A8365" fill="#000000"/><path d="m72 160c13.253906 0 24-10.746094 24-24s-10.746094-24-24-24-24 10.746094-24 24 10.746094 24 24 24zm0-32c4.417969 0 8 3.582031 8 8s-3.582031 8-8 8-8-3.582031-8-8 3.582031-8 8-8zm0 0" data-original="#000000" class="active-path" data-old_color="#0A8365" fill="#000000"/><path d="m72 400c13.253906 0 24-10.746094 24-24s-10.746094-24-24-24-24 10.746094-24 24 10.746094 24 24 24zm0-32c4.417969 0 8 3.582031 8 8s-3.582031 8-8 8-8-3.582031-8-8 3.582031-8 8-8zm0 0" data-original="#000000" class="active-path" data-old_color="#0A8365" fill="#000000"/><path d="m152 176h56c13.253906 0 24-10.746094 24-24v-16c0-4.417969 3.582031-8 8-8h48v-16h-48c-13.253906 0-24 10.746094-24 24v16c0 4.417969-3.582031 8-8 8h-56v-8c0-13.253906-10.746094-24-24-24h-16v16h16c4.417969 0 8 3.582031 8 8v80h-24v16h24v48c0 4.417969-3.582031 8-8 8h-40c-13.253906 0-24 10.746094-24 24v8h16v-8c0-4.417969 3.582031-8 8-8h40c13.253906 0 24-10.746094 24-24v-8h16v32c0 8.835938 7.164062 16 16 16h24v-16h-24v-80h24v-16h-24c-8.835938 0-16 7.164062-16 16v32h-16zm0 0" data-original="#000000" class="active-path" data-old_color="#0A8365" fill="#000000"/><path d="m304 120c0 13.253906 10.746094 24 24 24s24-10.746094 24-24-10.746094-24-24-24-24 10.746094-24 24zm32 0c0 4.417969-3.582031 8-8 8s-8-3.582031-8-8 3.582031-8 8-8 8 3.582031 8 8zm0 0" data-original="#000000" class="active-path" data-old_color="#0A8365" fill="#000000"/><path d="m72 264c13.253906 0 24-10.746094 24-24s-10.746094-24-24-24-24 10.746094-24 24 10.746094 24 24 24zm0-32c4.417969 0 8 3.582031 8 8s-3.582031 8-8 8-8-3.582031-8-8 3.582031-8 8-8zm0 0" data-original="#000000" class="active-path" data-old_color="#0A8365" fill="#000000"/></g> </svg>
