<?xml version="1.0" encoding="UTF-8" standalone="no"?>
<!-- Created with Inkscape (http://www.inkscape.org/) -->

<svg
   xmlns:dc="http://purl.org/dc/elements/1.1/"
   xmlns:cc="http://creativecommons.org/ns#"
   xmlns:rdf="http://www.w3.org/1999/02/22-rdf-syntax-ns#"
   xmlns:svg="http://www.w3.org/2000/svg"
   xmlns="http://www.w3.org/2000/svg"
   xmlns:sodipodi="http://sodipodi.sourceforge.net/DTD/sodipodi-0.dtd"
   xmlns:inkscape="http://www.inkscape.org/namespaces/inkscape"
   width="76.011459mm"
   height="76.011459mm"
   viewBox="0 0 76.011459 76.011459"
   version="1.1"
   id="svg3161"
   inkscape:version="0.92.3 (2405546, 2018-03-11)"
   sodipodi:docname="geronimo.svg">
  <defs
     id="defs3155">
    <linearGradient
       id="SVGID_1_-7"
       gradientUnits="userSpaceOnUse"
       x1="-6873.6479"
       y1="2774.2998"
       x2="-6636.2373"
       y2="2496.6895"
       gradientTransform="matrix(0.4345,-0.9318,-0.9318,-0.4345,6223.4761,-5052.7427)">
      <stop
         offset="0"
         style="stop-color:#F59723"
         id="stop3172-5" />
      <stop
         offset="0.3123"
         style="stop-color:#F69822"
         id="stop3174-3" />
      <stop
         offset="0.8383"
         style="stop-color:#E87726"
         id="stop3176-5" />
    </linearGradient>
    <linearGradient
       id="SVGID_2_-6"
       gradientUnits="userSpaceOnUse"
       x1="-8630.7197"
       y1="2804.9607"
       x2="-6936.9253"
       y2="2804.9607"
       gradientTransform="matrix(0.4345,-0.9318,-0.9318,-0.4345,6223.4761,-5052.7427)">
      <stop
         offset="0.3233"
         style="stop-color:#9C2063"
         id="stop3197-2" />
      <stop
         offset="0.6302"
         style="stop-color:#C82037"
         id="stop3199-9" />
      <stop
         offset="0.7514"
         style="stop-color:#CC2135"
         id="stop3201-1" />
      <stop
         offset="1"
         style="stop-color:#E87726"
         id="stop3203-2" />
    </linearGradient>
    <linearGradient
       id="SVGID_3_-7"
       gradientUnits="userSpaceOnUse"
       x1="-8426.2559"
       y1="2635.2839"
       x2="-7416.9194"
       y2="2635.2839"
       gradientTransform="matrix(0.4345,-0.9318,-0.9318,-0.4345,6223.4761,-5052.7427)">
      <stop
         offset="0"
         style="stop-color:#282661"
         id="stop3208-0" />
      <stop
         offset="9.548389e-02"
         style="stop-color:#662E8C"
         id="stop3210-9" />
      <stop
         offset="0.7882"
         style="stop-color:#9E2064"
         id="stop3212-3" />
      <stop
         offset="0.9487"
         style="stop-color:#CC2032"
         id="stop3214-6" />
    </linearGradient>
    <linearGradient
       id="SVGID_4_-0"
       gradientUnits="userSpaceOnUse"
       x1="-8535.5879"
       y1="2820.8604"
       x2="-6841.793"
       y2="2820.8604"
       gradientTransform="matrix(0.4345,-0.9318,-0.9318,-0.4345,6223.4761,-5052.7427)">
      <stop
         offset="0.3233"
         style="stop-color:#9C2063"
         id="stop3219-6" />
      <stop
         offset="0.6302"
         style="stop-color:#C82037"
         id="stop3221-2" />
      <stop
         offset="0.7514"
         style="stop-color:#CC2135"
         id="stop3223-6" />
      <stop
         offset="1"
         style="stop-color:#E87726"
         id="stop3225-1" />
    </linearGradient>
    <linearGradient
       id="SVGID_5_-8"
       gradientUnits="userSpaceOnUse"
       x1="-8412.0576"
       y1="2797.8789"
       x2="-7521.9175"
       y2="2797.8789"
       gradientTransform="matrix(0.4345,-0.9318,-0.9318,-0.4345,6223.4761,-5052.7427)">
      <stop
         offset="0"
         style="stop-color:#282661"
         id="stop3230-7" />
      <stop
         offset="9.548389e-02"
         style="stop-color:#662E8C"
         id="stop3232-9" />
      <stop
         offset="0.7882"
         style="stop-color:#9E2064"
         id="stop3234-2" />
      <stop
         offset="0.9487"
         style="stop-color:#CC2032"
         id="stop3236-0" />
    </linearGradient>
    <linearGradient
       id="SVGID_6_-2"
       gradientUnits="userSpaceOnUse"
       x1="-8535.5879"
       y1="2645.4897"
       x2="-6841.793"
       y2="2645.4897"
       gradientTransform="matrix(0.4345,-0.9318,-0.9318,-0.4345,6299.3627,-5052.7427)">
      <stop
         offset="0.3233"
         style="stop-color:#9C2063"
         id="stop3241-3" />
      <stop
         offset="0.6302"
         style="stop-color:#C82037"
         id="stop3243-7" />
      <stop
         offset="0.7514"
         style="stop-color:#CC2135"
         id="stop3245-5" />
      <stop
         offset="1"
         style="stop-color:#E87726"
         id="stop3247-9" />
    </linearGradient>
    <linearGradient
       id="SVGID_7_-2"
       gradientUnits="userSpaceOnUse"
       x1="-8640.6592"
       y1="2654.2649"
       x2="-6946.8647"
       y2="2654.2649"
       gradientTransform="matrix(0.4345,-0.9318,-0.9318,-0.4345,6223.4761,-5052.7427)">
      <stop
         offset="0.3233"
         style="stop-color:#9C2063"
         id="stop3252-2" />
      <stop
         offset="0.6302"
         style="stop-color:#C82037"
         id="stop3254-8" />
      <stop
         offset="0.7514"
         style="stop-color:#CC2135"
         id="stop3256-9" />
      <stop
         offset="1"
         style="stop-color:#E87726"
         id="stop3258-7" />
    </linearGradient>
    <linearGradient
       id="SVGID_8_-3"
       gradientUnits="userSpaceOnUse"
       x1="-8535.5889"
       y1="2593.446"
       x2="-6841.7925"
       y2="2593.446"
       gradientTransform="matrix(0.4345,-0.9318,-0.9318,-0.4345,6223.4761,-5052.7427)">
      <stop
         offset="0.3233"
         style="stop-color:#9C2063"
         id="stop3267-6" />
      <stop
         offset="0.6302"
         style="stop-color:#C82037"
         id="stop3269-1" />
      <stop
         offset="0.7514"
         style="stop-color:#CC2135"
         id="stop3271-2" />
      <stop
         offset="1"
         style="stop-color:#E87726"
         id="stop3273-9" />
    </linearGradient>
    <linearGradient
       id="SVGID_9_-3"
       gradientUnits="userSpaceOnUse"
       x1="-8535.5889"
       y1="2599.3242"
       x2="-6841.7925"
       y2="2599.3242"
       gradientTransform="matrix(0.4345,-0.9318,-0.9318,-0.4345,6223.4761,-5052.7427)">
      <stop
         offset="0.3233"
         style="stop-color:#9C2063"
         id="stop3282-1" />
      <stop
         offset="0.6302"
         style="stop-color:#C82037"
         id="stop3284-9" />
      <stop
         offset="0.7514"
         style="stop-color:#CC2135"
         id="stop3286-4" />
      <stop
         offset="1"
         style="stop-color:#E87726"
         id="stop3288-7" />
    </linearGradient>
    <linearGradient
       id="SVGID_10_-8"
       gradientUnits="userSpaceOnUse"
       x1="-7584.0386"
       y1="2600.5515"
       x2="-7209.6543"
       y2="2600.5515"
       gradientTransform="matrix(0.4345,-0.9318,-0.9318,-0.4345,6223.4761,-5052.7427)">
      <stop
         offset="0.3233"
         style="stop-color:#9C2063"
         id="stop3297-4" />
      <stop
         offset="0.6302"
         style="stop-color:#C82037"
         id="stop3299-5" />
      <stop
         offset="0.7514"
         style="stop-color:#CC2135"
         id="stop3301-0" />
      <stop
         offset="1"
         style="stop-color:#E87726"
         id="stop3303-3" />
    </linearGradient>
    <clipPath
       clipPathUnits="userSpaceOnUse"
       id="clipPath6443">
      <g
         id="g6947"
         transform="translate(-94.198556,-11.936248)"
         style="fill:#000000;fill-opacity:1">
        <g
           style="fill:#000000;fill-opacity:1"
           transform="matrix(-0.03737168,0.00986854,0.00939762,0.03924438,-0.32798954,98.133427)"
           id="g6543">
          <linearGradient
             gradientTransform="matrix(0.4345,-0.9318,-0.9318,-0.4345,6223.4761,-5052.7427)"
             y2="2496.6895"
             x2="-6636.2373"
             y1="2774.2998"
             x1="-6873.6479"
             gradientUnits="userSpaceOnUse"
             id="linearGradient6451">
            <stop
               id="stop6445"
               style="stop-color:#F59723"
               offset="0" />
            <stop
               id="stop6447"
               style="stop-color:#F69822"
               offset="0.3123" />
            <stop
               id="stop6449"
               style="stop-color:#E87726"
               offset="0.8383" />
          </linearGradient>
          <linearGradient
             gradientTransform="matrix(0.4345,-0.9318,-0.9318,-0.4345,6223.4761,-5052.7427)"
             y2="2804.9607"
             x2="-6936.9253"
             y1="2804.9607"
             x1="-8630.7197"
             gradientUnits="userSpaceOnUse"
             id="linearGradient6461">
            <stop
               id="stop6453"
               style="stop-color:#9C2063"
               offset="0.3233" />
            <stop
               id="stop6455"
               style="stop-color:#C82037"
               offset="0.6302" />
            <stop
               id="stop6457"
               style="stop-color:#CC2135"
               offset="0.7514" />
            <stop
               id="stop6459"
               style="stop-color:#E87726"
               offset="1" />
          </linearGradient>
          <linearGradient
             gradientTransform="matrix(0.4345,-0.9318,-0.9318,-0.4345,6223.4761,-5052.7427)"
             y2="2635.2839"
             x2="-7416.9194"
             y1="2635.2839"
             x1="-8426.2559"
             gradientUnits="userSpaceOnUse"
             id="linearGradient6471">
            <stop
               id="stop6463"
               style="stop-color:#282661"
               offset="0" />
            <stop
               id="stop6465"
               style="stop-color:#662E8C"
               offset="9.548389e-02" />
            <stop
               id="stop6467"
               style="stop-color:#9E2064"
               offset="0.7882" />
            <stop
               id="stop6469"
               style="stop-color:#CC2032"
               offset="0.9487" />
          </linearGradient>
          <linearGradient
             gradientTransform="matrix(0.4345,-0.9318,-0.9318,-0.4345,6223.4761,-5052.7427)"
             y2="2820.8604"
             x2="-6841.793"
             y1="2820.8604"
             x1="-8535.5879"
             gradientUnits="userSpaceOnUse"
             id="linearGradient6481">
            <stop
               id="stop6473"
               style="stop-color:#9C2063"
               offset="0.3233" />
            <stop
               id="stop6475"
               style="stop-color:#C82037"
               offset="0.6302" />
            <stop
               id="stop6477"
               style="stop-color:#CC2135"
               offset="0.7514" />
            <stop
               id="stop6479"
               style="stop-color:#E87726"
               offset="1" />
          </linearGradient>
          <linearGradient
             gradientTransform="matrix(0.4345,-0.9318,-0.9318,-0.4345,6223.4761,-5052.7427)"
             y2="2797.8789"
             x2="-7521.9175"
             y1="2797.8789"
             x1="-8412.0576"
             gradientUnits="userSpaceOnUse"
             id="linearGradient6491">
            <stop
               id="stop6483"
               style="stop-color:#282661"
               offset="0" />
            <stop
               id="stop6485"
               style="stop-color:#662E8C"
               offset="9.548389e-02" />
            <stop
               id="stop6487"
               style="stop-color:#9E2064"
               offset="0.7882" />
            <stop
               id="stop6489"
               style="stop-color:#CC2032"
               offset="0.9487" />
          </linearGradient>
          <linearGradient
             gradientTransform="matrix(0.4345,-0.9318,-0.9318,-0.4345,6223.4761,-5052.7427)"
             y2="2645.4897"
             x2="-6841.793"
             y1="2645.4897"
             x1="-8535.5879"
             gradientUnits="userSpaceOnUse"
             id="linearGradient6501">
            <stop
               id="stop6493"
               style="stop-color:#9C2063"
               offset="0.3233" />
            <stop
               id="stop6495"
               style="stop-color:#C82037"
               offset="0.6302" />
            <stop
               id="stop6497"
               style="stop-color:#CC2135"
               offset="0.7514" />
            <stop
               id="stop6499"
               style="stop-color:#E87726"
               offset="1" />
          </linearGradient>
          <linearGradient
             gradientTransform="matrix(0.4345,-0.9318,-0.9318,-0.4345,6223.4761,-5052.7427)"
             y2="2654.2649"
             x2="-6946.8647"
             y1="2654.2649"
             x1="-8640.6592"
             gradientUnits="userSpaceOnUse"
             id="linearGradient6511">
            <stop
               id="stop6503"
               style="stop-color:#9C2063"
               offset="0.3233" />
            <stop
               id="stop6505"
               style="stop-color:#C82037"
               offset="0.6302" />
            <stop
               id="stop6507"
               style="stop-color:#CC2135"
               offset="0.7514" />
            <stop
               id="stop6509"
               style="stop-color:#E87726"
               offset="1" />
          </linearGradient>
          <linearGradient
             gradientTransform="matrix(0.4345,-0.9318,-0.9318,-0.4345,6223.4761,-5052.7427)"
             y2="2593.446"
             x2="-6841.7925"
             y1="2593.446"
             x1="-8535.5889"
             gradientUnits="userSpaceOnUse"
             id="linearGradient6521">
            <stop
               id="stop6513"
               style="stop-color:#9C2063"
               offset="0.3233" />
            <stop
               id="stop6515"
               style="stop-color:#C82037"
               offset="0.6302" />
            <stop
               id="stop6517"
               style="stop-color:#CC2135"
               offset="0.7514" />
            <stop
               id="stop6519"
               style="stop-color:#E87726"
               offset="1" />
          </linearGradient>
          <linearGradient
             gradientTransform="matrix(0.4345,-0.9318,-0.9318,-0.4345,6223.4761,-5052.7427)"
             y2="2599.3242"
             x2="-6841.7925"
             y1="2599.3242"
             x1="-8535.5889"
             gradientUnits="userSpaceOnUse"
             id="linearGradient6531">
            <stop
               id="stop6523"
               style="stop-color:#9C2063"
               offset="0.3233" />
            <stop
               id="stop6525"
               style="stop-color:#C82037"
               offset="0.6302" />
            <stop
               id="stop6527"
               style="stop-color:#CC2135"
               offset="0.7514" />
            <stop
               id="stop6529"
               style="stop-color:#E87726"
               offset="1" />
          </linearGradient>
          <linearGradient
             gradientTransform="matrix(0.4345,-0.9318,-0.9318,-0.4345,6223.4761,-5052.7427)"
             y2="2600.5515"
             x2="-7209.6543"
             y1="2600.5515"
             x1="-7584.0386"
             gradientUnits="userSpaceOnUse"
             id="linearGradient6541">
            <stop
               id="stop6533"
               style="stop-color:#9C2063"
               offset="0.3233" />
            <stop
               id="stop6535"
               style="stop-color:#C82037"
               offset="0.6302" />
            <stop
               id="stop6537"
               style="stop-color:#CC2135"
               offset="0.7514" />
            <stop
               id="stop6539"
               style="stop-color:#E87726"
               offset="1" />
          </linearGradient>
        </g>
        <g
           style="fill:#000000;fill-opacity:1"
           transform="matrix(-0.00773472,0.02150069,-0.02150069,-0.00773472,-3.1231524,142.63498)"
           id="g6643">
          <linearGradient
             gradientTransform="matrix(0.4345,-0.9318,-0.9318,-0.4345,6223.4761,-5052.7427)"
             y2="2496.6895"
             x2="-6636.2373"
             y1="2774.2998"
             x1="-6873.6479"
             gradientUnits="userSpaceOnUse"
             id="linearGradient6551">
            <stop
               id="stop6545"
               style="stop-color:#F59723"
               offset="0" />
            <stop
               id="stop6547"
               style="stop-color:#F69822"
               offset="0.3123" />
            <stop
               id="stop6549"
               style="stop-color:#E87726"
               offset="0.8383" />
          </linearGradient>
          <linearGradient
             gradientTransform="matrix(0.4345,-0.9318,-0.9318,-0.4345,6223.4761,-5052.7427)"
             y2="2804.9607"
             x2="-6936.9253"
             y1="2804.9607"
             x1="-8630.7197"
             gradientUnits="userSpaceOnUse"
             id="linearGradient6561">
            <stop
               id="stop6553"
               style="stop-color:#9C2063"
               offset="0.3233" />
            <stop
               id="stop6555"
               style="stop-color:#C82037"
               offset="0.6302" />
            <stop
               id="stop6557"
               style="stop-color:#CC2135"
               offset="0.7514" />
            <stop
               id="stop6559"
               style="stop-color:#E87726"
               offset="1" />
          </linearGradient>
          <linearGradient
             gradientTransform="matrix(0.4345,-0.9318,-0.9318,-0.4345,6223.4761,-5052.7427)"
             y2="2635.2839"
             x2="-7416.9194"
             y1="2635.2839"
             x1="-8426.2559"
             gradientUnits="userSpaceOnUse"
             id="linearGradient6571">
            <stop
               id="stop6563"
               style="stop-color:#282661"
               offset="0" />
            <stop
               id="stop6565"
               style="stop-color:#662E8C"
               offset="9.548389e-02" />
            <stop
               id="stop6567"
               style="stop-color:#9E2064"
               offset="0.7882" />
            <stop
               id="stop6569"
               style="stop-color:#CC2032"
               offset="0.9487" />
          </linearGradient>
          <linearGradient
             gradientTransform="matrix(0.4345,-0.9318,-0.9318,-0.4345,6223.4761,-5052.7427)"
             y2="2820.8604"
             x2="-6841.793"
             y1="2820.8604"
             x1="-8535.5879"
             gradientUnits="userSpaceOnUse"
             id="linearGradient6581">
            <stop
               id="stop6573"
               style="stop-color:#9C2063"
               offset="0.3233" />
            <stop
               id="stop6575"
               style="stop-color:#C82037"
               offset="0.6302" />
            <stop
               id="stop6577"
               style="stop-color:#CC2135"
               offset="0.7514" />
            <stop
               id="stop6579"
               style="stop-color:#E87726"
               offset="1" />
          </linearGradient>
          <linearGradient
             gradientTransform="matrix(0.4345,-0.9318,-0.9318,-0.4345,6223.4761,-5052.7427)"
             y2="2797.8789"
             x2="-7521.9175"
             y1="2797.8789"
             x1="-8412.0576"
             gradientUnits="userSpaceOnUse"
             id="linearGradient6591">
            <stop
               id="stop6583"
               style="stop-color:#282661"
               offset="0" />
            <stop
               id="stop6585"
               style="stop-color:#662E8C"
               offset="9.548389e-02" />
            <stop
               id="stop6587"
               style="stop-color:#9E2064"
               offset="0.7882" />
            <stop
               id="stop6589"
               style="stop-color:#CC2032"
               offset="0.9487" />
          </linearGradient>
          <linearGradient
             gradientTransform="matrix(0.4345,-0.9318,-0.9318,-0.4345,6223.4761,-5052.7427)"
             y2="2645.4897"
             x2="-6841.793"
             y1="2645.4897"
             x1="-8535.5879"
             gradientUnits="userSpaceOnUse"
             id="linearGradient6601">
            <stop
               id="stop6593"
               style="stop-color:#9C2063"
               offset="0.3233" />
            <stop
               id="stop6595"
               style="stop-color:#C82037"
               offset="0.6302" />
            <stop
               id="stop6597"
               style="stop-color:#CC2135"
               offset="0.7514" />
            <stop
               id="stop6599"
               style="stop-color:#E87726"
               offset="1" />
          </linearGradient>
          <linearGradient
             gradientTransform="matrix(0.4345,-0.9318,-0.9318,-0.4345,6223.4761,-5052.7427)"
             y2="2654.2649"
             x2="-6946.8647"
             y1="2654.2649"
             x1="-8640.6592"
             gradientUnits="userSpaceOnUse"
             id="linearGradient6611">
            <stop
               id="stop6603"
               style="stop-color:#9C2063"
               offset="0.3233" />
            <stop
               id="stop6605"
               style="stop-color:#C82037"
               offset="0.6302" />
            <stop
               id="stop6607"
               style="stop-color:#CC2135"
               offset="0.7514" />
            <stop
               id="stop6609"
               style="stop-color:#E87726"
               offset="1" />
          </linearGradient>
          <linearGradient
             gradientTransform="matrix(0.4345,-0.9318,-0.9318,-0.4345,6223.4761,-5052.7427)"
             y2="2593.446"
             x2="-6841.7925"
             y1="2593.446"
             x1="-8535.5889"
             gradientUnits="userSpaceOnUse"
             id="linearGradient6621">
            <stop
               id="stop6613"
               style="stop-color:#9C2063"
               offset="0.3233" />
            <stop
               id="stop6615"
               style="stop-color:#C82037"
               offset="0.6302" />
            <stop
               id="stop6617"
               style="stop-color:#CC2135"
               offset="0.7514" />
            <stop
               id="stop6619"
               style="stop-color:#E87726"
               offset="1" />
          </linearGradient>
          <linearGradient
             gradientTransform="matrix(0.4345,-0.9318,-0.9318,-0.4345,6223.4761,-5052.7427)"
             y2="2599.3242"
             x2="-6841.7925"
             y1="2599.3242"
             x1="-8535.5889"
             gradientUnits="userSpaceOnUse"
             id="linearGradient6631">
            <stop
               id="stop6623"
               style="stop-color:#9C2063"
               offset="0.3233" />
            <stop
               id="stop6625"
               style="stop-color:#C82037"
               offset="0.6302" />
            <stop
               id="stop6627"
               style="stop-color:#CC2135"
               offset="0.7514" />
            <stop
               id="stop6629"
               style="stop-color:#E87726"
               offset="1" />
          </linearGradient>
          <linearGradient
             gradientTransform="matrix(0.4345,-0.9318,-0.9318,-0.4345,6223.4761,-5052.7427)"
             y2="2600.5515"
             x2="-7209.6543"
             y1="2600.5515"
             x1="-7584.0386"
             gradientUnits="userSpaceOnUse"
             id="linearGradient6641">
            <stop
               id="stop6633"
               style="stop-color:#9C2063"
               offset="0.3233" />
            <stop
               id="stop6635"
               style="stop-color:#C82037"
               offset="0.6302" />
            <stop
               id="stop6637"
               style="stop-color:#CC2135"
               offset="0.7514" />
            <stop
               id="stop6639"
               style="stop-color:#E87726"
               offset="1" />
          </linearGradient>
        </g>
        <g
           style="fill:#000000;fill-opacity:1"
           transform="matrix(-0.00773472,0.02150069,-0.02150069,-0.00773472,22.162592,109.70155)"
           id="g6743">
          <linearGradient
             gradientTransform="matrix(0.4345,-0.9318,-0.9318,-0.4345,6223.4761,-5052.7427)"
             y2="2496.6895"
             x2="-6636.2373"
             y1="2774.2998"
             x1="-6873.6479"
             gradientUnits="userSpaceOnUse"
             id="linearGradient6651">
            <stop
               id="stop6645"
               style="stop-color:#F59723"
               offset="0" />
            <stop
               id="stop6647"
               style="stop-color:#F69822"
               offset="0.3123" />
            <stop
               id="stop6649"
               style="stop-color:#E87726"
               offset="0.8383" />
          </linearGradient>
          <linearGradient
             gradientTransform="matrix(0.4345,-0.9318,-0.9318,-0.4345,6223.4761,-5052.7427)"
             y2="2804.9607"
             x2="-6936.9253"
             y1="2804.9607"
             x1="-8630.7197"
             gradientUnits="userSpaceOnUse"
             id="linearGradient6661">
            <stop
               id="stop6653"
               style="stop-color:#9C2063"
               offset="0.3233" />
            <stop
               id="stop6655"
               style="stop-color:#C82037"
               offset="0.6302" />
            <stop
               id="stop6657"
               style="stop-color:#CC2135"
               offset="0.7514" />
            <stop
               id="stop6659"
               style="stop-color:#E87726"
               offset="1" />
          </linearGradient>
          <linearGradient
             gradientTransform="matrix(0.4345,-0.9318,-0.9318,-0.4345,6223.4761,-5052.7427)"
             y2="2635.2839"
             x2="-7416.9194"
             y1="2635.2839"
             x1="-8426.2559"
             gradientUnits="userSpaceOnUse"
             id="linearGradient6671">
            <stop
               id="stop6663"
               style="stop-color:#282661"
               offset="0" />
            <stop
               id="stop6665"
               style="stop-color:#662E8C"
               offset="9.548389e-02" />
            <stop
               id="stop6667"
               style="stop-color:#9E2064"
               offset="0.7882" />
            <stop
               id="stop6669"
               style="stop-color:#CC2032"
               offset="0.9487" />
          </linearGradient>
          <linearGradient
             gradientTransform="matrix(0.4345,-0.9318,-0.9318,-0.4345,6223.4761,-5052.7427)"
             y2="2820.8604"
             x2="-6841.793"
             y1="2820.8604"
             x1="-8535.5879"
             gradientUnits="userSpaceOnUse"
             id="linearGradient6681">
            <stop
               id="stop6673"
               style="stop-color:#9C2063"
               offset="0.3233" />
            <stop
               id="stop6675"
               style="stop-color:#C82037"
               offset="0.6302" />
            <stop
               id="stop6677"
               style="stop-color:#CC2135"
               offset="0.7514" />
            <stop
               id="stop6679"
               style="stop-color:#E87726"
               offset="1" />
          </linearGradient>
          <linearGradient
             gradientTransform="matrix(0.4345,-0.9318,-0.9318,-0.4345,6223.4761,-5052.7427)"
             y2="2797.8789"
             x2="-7521.9175"
             y1="2797.8789"
             x1="-8412.0576"
             gradientUnits="userSpaceOnUse"
             id="linearGradient6691">
            <stop
               id="stop6683"
               style="stop-color:#282661"
               offset="0" />
            <stop
               id="stop6685"
               style="stop-color:#662E8C"
               offset="9.548389e-02" />
            <stop
               id="stop6687"
               style="stop-color:#9E2064"
               offset="0.7882" />
            <stop
               id="stop6689"
               style="stop-color:#CC2032"
               offset="0.9487" />
          </linearGradient>
          <linearGradient
             gradientTransform="matrix(0.4345,-0.9318,-0.9318,-0.4345,6223.4761,-5052.7427)"
             y2="2645.4897"
             x2="-6841.793"
             y1="2645.4897"
             x1="-8535.5879"
             gradientUnits="userSpaceOnUse"
             id="linearGradient6701">
            <stop
               id="stop6693"
               style="stop-color:#9C2063"
               offset="0.3233" />
            <stop
               id="stop6695"
               style="stop-color:#C82037"
               offset="0.6302" />
            <stop
               id="stop6697"
               style="stop-color:#CC2135"
               offset="0.7514" />
            <stop
               id="stop6699"
               style="stop-color:#E87726"
               offset="1" />
          </linearGradient>
          <linearGradient
             gradientTransform="matrix(0.4345,-0.9318,-0.9318,-0.4345,6223.4761,-5052.7427)"
             y2="2654.2649"
             x2="-6946.8647"
             y1="2654.2649"
             x1="-8640.6592"
             gradientUnits="userSpaceOnUse"
             id="linearGradient6711">
            <stop
               id="stop6703"
               style="stop-color:#9C2063"
               offset="0.3233" />
            <stop
               id="stop6705"
               style="stop-color:#C82037"
               offset="0.6302" />
            <stop
               id="stop6707"
               style="stop-color:#CC2135"
               offset="0.7514" />
            <stop
               id="stop6709"
               style="stop-color:#E87726"
               offset="1" />
          </linearGradient>
          <linearGradient
             gradientTransform="matrix(0.4345,-0.9318,-0.9318,-0.4345,6223.4761,-5052.7427)"
             y2="2593.446"
             x2="-6841.7925"
             y1="2593.446"
             x1="-8535.5889"
             gradientUnits="userSpaceOnUse"
             id="linearGradient6721">
            <stop
               id="stop6713"
               style="stop-color:#9C2063"
               offset="0.3233" />
            <stop
               id="stop6715"
               style="stop-color:#C82037"
               offset="0.6302" />
            <stop
               id="stop6717"
               style="stop-color:#CC2135"
               offset="0.7514" />
            <stop
               id="stop6719"
               style="stop-color:#E87726"
               offset="1" />
          </linearGradient>
          <linearGradient
             gradientTransform="matrix(0.4345,-0.9318,-0.9318,-0.4345,6223.4761,-5052.7427)"
             y2="2599.3242"
             x2="-6841.7925"
             y1="2599.3242"
             x1="-8535.5889"
             gradientUnits="userSpaceOnUse"
             id="linearGradient6731">
            <stop
               id="stop6723"
               style="stop-color:#9C2063"
               offset="0.3233" />
            <stop
               id="stop6725"
               style="stop-color:#C82037"
               offset="0.6302" />
            <stop
               id="stop6727"
               style="stop-color:#CC2135"
               offset="0.7514" />
            <stop
               id="stop6729"
               style="stop-color:#E87726"
               offset="1" />
          </linearGradient>
          <linearGradient
             gradientTransform="matrix(0.4345,-0.9318,-0.9318,-0.4345,6223.4761,-5052.7427)"
             y2="2600.5515"
             x2="-7209.6543"
             y1="2600.5515"
             x1="-7584.0386"
             gradientUnits="userSpaceOnUse"
             id="linearGradient6741">
            <stop
               id="stop6733"
               style="stop-color:#9C2063"
               offset="0.3233" />
            <stop
               id="stop6735"
               style="stop-color:#C82037"
               offset="0.6302" />
            <stop
               id="stop6737"
               style="stop-color:#CC2135"
               offset="0.7514" />
            <stop
               id="stop6739"
               style="stop-color:#E87726"
               offset="1" />
          </linearGradient>
        </g>
        <g
           style="fill:#000000;fill-opacity:1"
           transform="matrix(-0.02305456,0.00608789,0.00579738,0.02420982,-25.321095,149.0483)"
           id="g6843">
          <linearGradient
             gradientTransform="matrix(0.4345,-0.9318,-0.9318,-0.4345,6223.4761,-5052.7427)"
             y2="2496.6895"
             x2="-6636.2373"
             y1="2774.2998"
             x1="-6873.6479"
             gradientUnits="userSpaceOnUse"
             id="linearGradient6751">
            <stop
               id="stop6745"
               style="stop-color:#F59723"
               offset="0" />
            <stop
               id="stop6747"
               style="stop-color:#F69822"
               offset="0.3123" />
            <stop
               id="stop6749"
               style="stop-color:#E87726"
               offset="0.8383" />
          </linearGradient>
          <linearGradient
             gradientTransform="matrix(0.4345,-0.9318,-0.9318,-0.4345,6223.4761,-5052.7427)"
             y2="2804.9607"
             x2="-6936.9253"
             y1="2804.9607"
             x1="-8630.7197"
             gradientUnits="userSpaceOnUse"
             id="linearGradient6761">
            <stop
               id="stop6753"
               style="stop-color:#9C2063"
               offset="0.3233" />
            <stop
               id="stop6755"
               style="stop-color:#C82037"
               offset="0.6302" />
            <stop
               id="stop6757"
               style="stop-color:#CC2135"
               offset="0.7514" />
            <stop
               id="stop6759"
               style="stop-color:#E87726"
               offset="1" />
          </linearGradient>
          <linearGradient
             gradientTransform="matrix(0.4345,-0.9318,-0.9318,-0.4345,6223.4761,-5052.7427)"
             y2="2635.2839"
             x2="-7416.9194"
             y1="2635.2839"
             x1="-8426.2559"
             gradientUnits="userSpaceOnUse"
             id="linearGradient6771">
            <stop
               id="stop6763"
               style="stop-color:#282661"
               offset="0" />
            <stop
               id="stop6765"
               style="stop-color:#662E8C"
               offset="9.548389e-02" />
            <stop
               id="stop6767"
               style="stop-color:#9E2064"
               offset="0.7882" />
            <stop
               id="stop6769"
               style="stop-color:#CC2032"
               offset="0.9487" />
          </linearGradient>
          <linearGradient
             gradientTransform="matrix(0.4345,-0.9318,-0.9318,-0.4345,6223.4761,-5052.7427)"
             y2="2820.8604"
             x2="-6841.793"
             y1="2820.8604"
             x1="-8535.5879"
             gradientUnits="userSpaceOnUse"
             id="linearGradient6781">
            <stop
               id="stop6773"
               style="stop-color:#9C2063"
               offset="0.3233" />
            <stop
               id="stop6775"
               style="stop-color:#C82037"
               offset="0.6302" />
            <stop
               id="stop6777"
               style="stop-color:#CC2135"
               offset="0.7514" />
            <stop
               id="stop6779"
               style="stop-color:#E87726"
               offset="1" />
          </linearGradient>
          <linearGradient
             gradientTransform="matrix(0.4345,-0.9318,-0.9318,-0.4345,6223.4761,-5052.7427)"
             y2="2797.8789"
             x2="-7521.9175"
             y1="2797.8789"
             x1="-8412.0576"
             gradientUnits="userSpaceOnUse"
             id="linearGradient6791">
            <stop
               id="stop6783"
               style="stop-color:#282661"
               offset="0" />
            <stop
               id="stop6785"
               style="stop-color:#662E8C"
               offset="9.548389e-02" />
            <stop
               id="stop6787"
               style="stop-color:#9E2064"
               offset="0.7882" />
            <stop
               id="stop6789"
               style="stop-color:#CC2032"
               offset="0.9487" />
          </linearGradient>
          <linearGradient
             gradientTransform="matrix(0.4345,-0.9318,-0.9318,-0.4345,6223.4761,-5052.7427)"
             y2="2645.4897"
             x2="-6841.793"
             y1="2645.4897"
             x1="-8535.5879"
             gradientUnits="userSpaceOnUse"
             id="linearGradient6801">
            <stop
               id="stop6793"
               style="stop-color:#9C2063"
               offset="0.3233" />
            <stop
               id="stop6795"
               style="stop-color:#C82037"
               offset="0.6302" />
            <stop
               id="stop6797"
               style="stop-color:#CC2135"
               offset="0.7514" />
            <stop
               id="stop6799"
               style="stop-color:#E87726"
               offset="1" />
          </linearGradient>
          <linearGradient
             gradientTransform="matrix(0.4345,-0.9318,-0.9318,-0.4345,6223.4761,-5052.7427)"
             y2="2654.2649"
             x2="-6946.8647"
             y1="2654.2649"
             x1="-8640.6592"
             gradientUnits="userSpaceOnUse"
             id="linearGradient6811">
            <stop
               id="stop6803"
               style="stop-color:#9C2063"
               offset="0.3233" />
            <stop
               id="stop6805"
               style="stop-color:#C82037"
               offset="0.6302" />
            <stop
               id="stop6807"
               style="stop-color:#CC2135"
               offset="0.7514" />
            <stop
               id="stop6809"
               style="stop-color:#E87726"
               offset="1" />
          </linearGradient>
          <linearGradient
             gradientTransform="matrix(0.4345,-0.9318,-0.9318,-0.4345,6223.4761,-5052.7427)"
             y2="2593.446"
             x2="-6841.7925"
             y1="2593.446"
             x1="-8535.5889"
             gradientUnits="userSpaceOnUse"
             id="linearGradient6821">
            <stop
               id="stop6813"
               style="stop-color:#9C2063"
               offset="0.3233" />
            <stop
               id="stop6815"
               style="stop-color:#C82037"
               offset="0.6302" />
            <stop
               id="stop6817"
               style="stop-color:#CC2135"
               offset="0.7514" />
            <stop
               id="stop6819"
               style="stop-color:#E87726"
               offset="1" />
          </linearGradient>
          <linearGradient
             gradientTransform="matrix(0.4345,-0.9318,-0.9318,-0.4345,6223.4761,-5052.7427)"
             y2="2599.3242"
             x2="-6841.7925"
             y1="2599.3242"
             x1="-8535.5889"
             gradientUnits="userSpaceOnUse"
             id="linearGradient6831">
            <stop
               id="stop6823"
               style="stop-color:#9C2063"
               offset="0.3233" />
            <stop
               id="stop6825"
               style="stop-color:#C82037"
               offset="0.6302" />
            <stop
               id="stop6827"
               style="stop-color:#CC2135"
               offset="0.7514" />
            <stop
               id="stop6829"
               style="stop-color:#E87726"
               offset="1" />
          </linearGradient>
          <linearGradient
             gradientTransform="matrix(0.4345,-0.9318,-0.9318,-0.4345,6223.4761,-5052.7427)"
             y2="2600.5515"
             x2="-7209.6543"
             y1="2600.5515"
             x1="-7584.0386"
             gradientUnits="userSpaceOnUse"
             id="linearGradient6841">
            <stop
               id="stop6833"
               style="stop-color:#9C2063"
               offset="0.3233" />
            <stop
               id="stop6835"
               style="stop-color:#C82037"
               offset="0.6302" />
            <stop
               id="stop6837"
               style="stop-color:#CC2135"
               offset="0.7514" />
            <stop
               id="stop6839"
               style="stop-color:#E87726"
               offset="1" />
          </linearGradient>
        </g>
        <g
           style="fill:#000000;fill-opacity:1"
           transform="matrix(-0.03737168,0.00986854,0.00939762,0.03924438,37.798615,73.858075)"
           id="g6945">
          <linearGradient
             gradientTransform="matrix(0.4345,-0.9318,-0.9318,-0.4345,6223.4761,-5052.7427)"
             y2="2496.6895"
             x2="-6636.2373"
             y1="2774.2998"
             x1="-6873.6479"
             gradientUnits="userSpaceOnUse"
             id="linearGradient6851">
            <stop
               id="stop6845"
               style="stop-color:#F59723"
               offset="0" />
            <stop
               id="stop6847"
               style="stop-color:#F69822"
               offset="0.3123" />
            <stop
               id="stop6849"
               style="stop-color:#E87726"
               offset="0.8383" />
          </linearGradient>
          <linearGradient
             gradientTransform="matrix(0.4345,-0.9318,-0.9318,-0.4345,6223.4761,-5052.7427)"
             y2="2804.9607"
             x2="-6936.9253"
             y1="2804.9607"
             x1="-8630.7197"
             gradientUnits="userSpaceOnUse"
             id="linearGradient6861">
            <stop
               id="stop6853"
               style="stop-color:#9C2063"
               offset="0.3233" />
            <stop
               id="stop6855"
               style="stop-color:#C82037"
               offset="0.6302" />
            <stop
               id="stop6857"
               style="stop-color:#CC2135"
               offset="0.7514" />
            <stop
               id="stop6859"
               style="stop-color:#E87726"
               offset="1" />
          </linearGradient>
          <linearGradient
             gradientTransform="matrix(0.4345,-0.9318,-0.9318,-0.4345,6223.4761,-5052.7427)"
             y2="2635.2839"
             x2="-7416.9194"
             y1="2635.2839"
             x1="-8426.2559"
             gradientUnits="userSpaceOnUse"
             id="linearGradient6871">
            <stop
               id="stop6863"
               style="stop-color:#282661"
               offset="0" />
            <stop
               id="stop6865"
               style="stop-color:#662E8C"
               offset="9.548389e-02" />
            <stop
               id="stop6867"
               style="stop-color:#9E2064"
               offset="0.7882" />
            <stop
               id="stop6869"
               style="stop-color:#CC2032"
               offset="0.9487" />
          </linearGradient>
          <linearGradient
             gradientTransform="matrix(0.4345,-0.9318,-0.9318,-0.4345,6223.4761,-5052.7427)"
             y2="2820.8604"
             x2="-6841.793"
             y1="2820.8604"
             x1="-8535.5879"
             gradientUnits="userSpaceOnUse"
             id="linearGradient6881">
            <stop
               id="stop6873"
               style="stop-color:#9C2063"
               offset="0.3233" />
            <stop
               id="stop6875"
               style="stop-color:#C82037"
               offset="0.6302" />
            <stop
               id="stop6877"
               style="stop-color:#CC2135"
               offset="0.7514" />
            <stop
               id="stop6879"
               style="stop-color:#E87726"
               offset="1" />
          </linearGradient>
          <linearGradient
             gradientTransform="matrix(0.4345,-0.9318,-0.9318,-0.4345,6223.4761,-5052.7427)"
             y2="2797.8789"
             x2="-7521.9175"
             y1="2797.8789"
             x1="-8412.0576"
             gradientUnits="userSpaceOnUse"
             id="linearGradient6891">
            <stop
               id="stop6883"
               style="stop-color:#282661"
               offset="0" />
            <stop
               id="stop6885"
               style="stop-color:#662E8C"
               offset="9.548389e-02" />
            <stop
               id="stop6887"
               style="stop-color:#9E2064"
               offset="0.7882" />
            <stop
               id="stop6889"
               style="stop-color:#CC2032"
               offset="0.9487" />
          </linearGradient>
          <linearGradient
             gradientTransform="matrix(0.4345,-0.9318,-0.9318,-0.4345,6223.4761,-5052.7427)"
             y2="2645.4897"
             x2="-6841.793"
             y1="2645.4897"
             x1="-8535.5879"
             gradientUnits="userSpaceOnUse"
             id="linearGradient6901">
            <stop
               id="stop6893"
               style="stop-color:#9C2063"
               offset="0.3233" />
            <stop
               id="stop6895"
               style="stop-color:#C82037"
               offset="0.6302" />
            <stop
               id="stop6897"
               style="stop-color:#CC2135"
               offset="0.7514" />
            <stop
               id="stop6899"
               style="stop-color:#E87726"
               offset="1" />
          </linearGradient>
          <linearGradient
             gradientTransform="matrix(0.4345,-0.9318,-0.9318,-0.4345,6223.4761,-5052.7427)"
             y2="2654.2649"
             x2="-6946.8647"
             y1="2654.2649"
             x1="-8640.6592"
             gradientUnits="userSpaceOnUse"
             id="linearGradient6911">
            <stop
               id="stop6903"
               style="stop-color:#9C2063"
               offset="0.3233" />
            <stop
               id="stop6905"
               style="stop-color:#C82037"
               offset="0.6302" />
            <stop
               id="stop6907"
               style="stop-color:#CC2135"
               offset="0.7514" />
            <stop
               id="stop6909"
               style="stop-color:#E87726"
               offset="1" />
          </linearGradient>
          <linearGradient
             gradientTransform="matrix(0.4345,-0.9318,-0.9318,-0.4345,6223.4761,-5052.7427)"
             y2="2593.446"
             x2="-6841.7925"
             y1="2593.446"
             x1="-8535.5889"
             gradientUnits="userSpaceOnUse"
             id="linearGradient6921">
            <stop
               id="stop6913"
               style="stop-color:#9C2063"
               offset="0.3233" />
            <stop
               id="stop6915"
               style="stop-color:#C82037"
               offset="0.6302" />
            <stop
               id="stop6917"
               style="stop-color:#CC2135"
               offset="0.7514" />
            <stop
               id="stop6919"
               style="stop-color:#E87726"
               offset="1" />
          </linearGradient>
          <linearGradient
             gradientTransform="matrix(0.4345,-0.9318,-0.9318,-0.4345,6223.4761,-5052.7427)"
             y2="2599.3242"
             x2="-6841.7925"
             y1="2599.3242"
             x1="-8535.5889"
             gradientUnits="userSpaceOnUse"
             id="linearGradient6931">
            <stop
               id="stop6923"
               style="stop-color:#9C2063"
               offset="0.3233" />
            <stop
               id="stop6925"
               style="stop-color:#C82037"
               offset="0.6302" />
            <stop
               id="stop6927"
               style="stop-color:#CC2135"
               offset="0.7514" />
            <stop
               id="stop6929"
               style="stop-color:#E87726"
               offset="1" />
          </linearGradient>
          <linearGradient
             gradientTransform="matrix(0.4345,-0.9318,-0.9318,-0.4345,6223.4761,-5052.7427)"
             y2="2600.5515"
             x2="-7209.6543"
             y1="2600.5515"
             x1="-7584.0386"
             gradientUnits="userSpaceOnUse"
             id="linearGradient6941">
            <stop
               id="stop6933"
               style="stop-color:#9C2063"
               offset="0.3233" />
            <stop
               id="stop6935"
               style="stop-color:#C82037"
               offset="0.6302" />
            <stop
               id="stop6937"
               style="stop-color:#CC2135"
               offset="0.7514" />
            <stop
               id="stop6939"
               style="stop-color:#E87726"
               offset="1" />
          </linearGradient>
          <path
             id="path6943"
             style="fill:#000000;fill-opacity:1"
             d="m 586.6,709.6 c 0.1,0 0.1,-0.1 0,0 v 0 0 0 c 0.1,-0.1 0.1,0 0,0 z m 0,0 c 0.1,0 0.1,-0.1 0,0 v 0 0 0 c 0.1,-0.1 0.1,0 0,0 z m 0,0 c 0.1,0 0.1,-0.1 0,0 v 0 0 0 c 0.1,-0.1 0.1,0 0,0 z m 0,0 c 1,-0.1 2.1,-0.3 3.1,-0.5 -1,0.1 -2,0.4 -3.1,0.5 z m 0,0 c 1,-0.1 2.1,-0.3 3.1,-0.5 -1,0.1 -2,0.4 -3.1,0.5 z m 0,0 c 1,-0.1 2.1,-0.3 3.1,-0.5 -1,0.1 -2,0.4 -3.1,0.5 z m -26.1,83.2 c -3.3,0.6 -6.6,1.1 -10,1.5 v 0 c 3.4,-0.3 6.8,-0.9 10,-1.5 z m 0,0 c -3.3,0.6 -6.6,1.1 -10,1.5 v 0 c 3.4,-0.3 6.8,-0.9 10,-1.5 z m 0,0 c -3.3,0.6 -6.6,1.1 -10,1.5 v 0 c 3.4,-0.3 6.8,-0.9 10,-1.5 z M 666.1,230.2 c -14.5,22.3 -30.3,47.6 -47.5,76.3 -0.9,1.4 -1.9,3.1 -2.7,4.5 -14.7,24.8 -30.3,52 -46.9,81.9 -14.2,25.8 -29,53.4 -44.4,83.1 -13.4,25.9 -27.2,53.4 -41.5,82.5 l 163.3,-17.9 c 47.6,-21.9 68.8,-41.6 89.4,-70.3 5.4,-7.9 11,-16.1 16.4,-24.7 16.8,-26.2 33.2,-55 47.9,-83.7 14.2,-27.7 26.7,-55.1 36.3,-79.9 6.1,-15.7 11,-30.3 14.4,-43.2 3,-11.3 5.3,-22.1 7.1,-32.4 -63.3,10.9 -141.2,21.3 -191.8,23.8 z m -183.8,330 c -1.9,3.8 -3.7,7.6 -5.6,11.4 -5.6,11.5 -11.2,23.2 -17,35.2 -6.2,13 -12.4,26.2 -18.7,39.8 -3.2,6.8 -6.4,13.7 -9.6,20.7 -9.6,20.9 -19.3,42.5 -29.2,64.8 -12.1,27.3 -24.6,55.8 -37.1,85.4 -11.9,28.2 -24.2,57.3 -36.4,87.5 -11.7,28.6 -23.5,58.2 -35.5,88.6 -10.7,27.1 -21.5,55.1 -32.3,83.8 -0.5,1.3 -1,2.8 -1.5,4.1 -10.8,28.5 -21.7,57.8 -32.6,87.8 -0.2,0.7 -0.5,1.3 -0.7,2.1 l 52,-5.7 c -1,-0.2 -2.1,-0.3 -3.1,-0.5 62.1,-7.7 144.8,-54.2 198.1,-111.5 24.6,-26.4 46.9,-57.6 67.5,-94.1 15.3,-27.1 29.8,-57.3 43.6,-90.6 12,-29.1 23.5,-60.7 34.6,-94.8 -14.3,7.5 -30.6,13.1 -48.6,16.9 -3.2,0.7 -6.4,1.3 -9.7,1.9 -3.3,0.6 -6.6,1.1 -10,1.5 v 0 0 c 0,0 0.1,0 0.1,-0.1 58,-22.3 94.5,-65.3 121,-118 -15.2,10.4 -40,24 -69.7,30.5 -4,0.9 -8.1,1.6 -12.3,2.3 -1,0.1 -2.1,0.3 -3.1,0.5 v 0 0 h 0.1 c 0,0 0,0 0.1,0 v 0 c 20.2,-8.4 37.1,-17.9 51.8,-29 3.2,-2.4 6.3,-4.8 9.1,-7.4 4.5,-3.9 8.7,-8 12.9,-12.2 2.6,-2.8 5.1,-5.6 7.6,-8.5 5.8,-6.9 11.2,-14.3 16.2,-22.3 1.5,-2.5 3.1,-4.9 4.5,-7.5 2,-3.7 3.8,-7.4 5.6,-10.9 8.1,-16.2 14.6,-30.8 19.7,-43.5 2.6,-6.4 4.8,-12.2 6.8,-17.8 0.8,-2.2 1.5,-4.3 2.2,-6.4 2.1,-6.1 3.7,-11.5 5,-16.3 2,-7.2 3.2,-12.9 3.8,-17 v 0 0 c -2,1.5 -4.2,3.1 -6.8,4.6 -17.5,10.5 -47.5,19.9 -71.7,24.4 l 47.7,-5.2 -47.7,5.2 c -0.3,0.1 -0.7,0.1 -1.1,0.2 -2.5,0.4 -4.8,0.8 -7.3,1.1 0.4,-0.2 0.8,-0.4 1.2,-0.6 l -163.3,17.9 c 0,0.4 -0.3,1.1 -0.6,1.7 z M 146.2,1034 c -8.1,40.8 -13.9,81.4 -16.8,121.8 -0.1,1.4 -0.2,2.8 -0.3,4.2 -20.2,-32.3 -74.1,-63.8 -74,-63.5 38.7,56 68,111.6 72.3,166.2 -20.7,4.2 -49,-1.9 -81.7,-13.9 34.1,31.4 59.7,40 69.8,42.4 -31.4,2 -64,23.5 -96.9,48.3 48.1,-19.6 87,-27.4 114.8,-21.1 -44.2,125 -88.4,263 -132.7,409.6 13.6,-4 21.7,-13.2 26.2,-25.5 7.9,-26.5 60.2,-200.7 142.3,-429.4 2.4,-6.5 4.7,-13.1 7.1,-19.6 0.6,-1.9 1.3,-3.7 2,-5.4 8.6,-24 17.7,-48.5 26.9,-73.5 2.1,-5.7 4.2,-11.4 6.4,-17.1 0,-0.1 0.1,-0.2 0.1,-0.3 L 147,1029.7 c -0.2,1.3 -0.5,2.8 -0.8,4.3 z m 99.3,34.1 c 11.2,-29 22.8,-58.4 34.6,-88 11.4,-28.4 23,-57 35,-85.6 12,-28.6 24.2,-57.5 36.6,-86.3 12.6,-29.3 25.6,-58.5 38.9,-87.6 13.1,-28.8 26.3,-57.4 39.8,-85.6 4.8,-10.2 9.8,-20.4 14.7,-30.5 8.5,-17.5 17.1,-34.9 25.8,-52.1 0.5,-0.9 0.9,-1.9 1.4,-2.8 L 408,422.6 c -1,1.7 -2.1,3.5 -3.2,5.1 -15,24.5 -29.9,49.5 -44.5,75 -14.8,25.8 -29.3,52.1 -43.5,78.8 -11.9,22.5 -23.6,45.1 -35.1,68.1 -2.3,4.6 -4.5,9.3 -6.8,13.9 -14,28.9 -26.6,56.6 -38.1,83.5 -13,30.3 -24.4,59.3 -34.3,86.8 -6.6,18.1 -12.5,35.5 -18,52.3 -4.5,14.3 -8.7,28.7 -12.9,43 -9.6,33.6 -17.9,67.2 -24.7,100.6 l 64.6,127.5 c 8.5,-22.8 17.3,-46 26.3,-69.4 2.7,-6.7 5.1,-13.3 7.7,-19.7 z m -24.3,116.3 c -8.5,23.3 -17.1,47.2 -25.6,71.5 -0.1,0.3 -0.2,0.7 -0.4,1 -1.2,3.4 -2.5,6.9 -3.6,10.3 -5.8,16.4 -10.8,31.2 -22.3,64.7 18.9,8.6 34.1,31.4 48.5,57.2 -1.5,-26.7 -12.5,-51.8 -33.6,-71.2 93.3,4.2 173.7,-19.4 215.3,-87.6 3.7,-6.1 7.1,-12.4 10.2,-19.3 -18.9,24 -42.4,34.1 -86.5,31.7 -0.1,0 -0.2,0.1 -0.3,0.1 0.1,0 0.2,-0.1 0.3,-0.1 65,-29.1 97.5,-57 126.4,-103.2 6.8,-11 13.5,-22.9 20.3,-36.2 -56.8,58.3 -122.5,74.9 -191.8,62.3 l -52,5.7 c -1.7,4.4 -3.2,8.7 -4.9,13.1 z M 514,469.2 c 15,-28.1 30.2,-55.5 45.5,-82.1 15.9,-27.8 32.1,-54.6 48.4,-80.6 0.9,-1.5 2,-3.1 2.9,-4.6 16.1,-25.5 32.4,-50.1 48.7,-73.5 l -49.3,-93.2 c -3.7,4.5 -7.4,9.1 -11.2,13.9 -14.3,17.8 -29,36.8 -44.2,57.1 -17.1,22.8 -34.6,47.2 -52.5,72.8 -16.4,23.6 -33.2,48.3 -50,74 -14.3,21.8 -28.5,44.2 -42.7,67.2 -0.5,0.8 -1,1.7 -1.5,2.6 l 64.3,127 C 486,522.3 500,495.4 514,469.2 Z m 72.7,240.3 c 0,0 0,0.1 0,0 -0.1,0 -0.1,0 -0.1,0.1 1,-0.1 2.1,-0.3 3.1,-0.5 4.2,-0.6 8.3,-1.3 12.3,-2.3 -5,0.9 -10,1.8 -15.3,2.7 z m 0,0 c 0,0 0,0.1 0,0 -0.1,0 -0.1,0 -0.1,0.1 1,-0.1 2.1,-0.3 3.1,-0.5 4.2,-0.6 8.3,-1.3 12.3,-2.3 -5,0.9 -10,1.8 -15.3,2.7 z M 570.2,791 c -6.3,1.1 -12.7,2.3 -19.4,3.4 0,0 -0.1,0 -0.1,0.1 3.4,-0.5 6.7,-1 10,-1.5 3.1,-0.7 6.3,-1.3 9.5,-2 z m 0,0 c -6.3,1.1 -12.7,2.3 -19.4,3.4 0,0 -0.1,0 -0.1,0.1 3.4,-0.5 6.7,-1 10,-1.5 3.1,-0.7 6.3,-1.3 9.5,-2 z m 16.4,-81.4 z m 15.4,-2.7 c -4,0.9 -8.1,1.6 -12.3,2.3 4.2,-0.7 8.3,-1.5 12.3,-2.3 z m 50.5,-167 c 0.3,-0.1 0.7,-0.1 1.1,-0.2 l -7.1,0.8 c -0.4,0.2 -0.8,0.4 -1.2,0.6 2.3,-0.5 4.8,-0.9 7.2,-1.2 z M 736.1,8.1 c -27.1,16 -72.2,61.3 -125.8,127 l 49.3,93.2 C 694.3,178.8 729.5,134.1 765,96 c 2.8,-3 4.1,-4.4 4.1,-4.4 -1.3,1.4 -2.8,3 -4.1,4.4 -11.5,12.6 -46.4,53.4 -99,134.2 50.7,-2.5 128.5,-12.9 192,-23.7 19,-105.9 -18.5,-154.3 -18.5,-154.3 0,0 -47.6,-77 -103.4,-44.1 z m 1667.434,1832.1966 c 0.062,0 0.062,-0.062 0,0 v 0 0 0 c 0.062,-0.062 0.062,0 0,0 z m 0,0 c 0.062,0 0.062,-0.062 0,0 v 0 0 0 c 0.062,-0.062 0.062,0 0,0 z m 0,0 c 0.062,0 0.062,-0.062 0,0 v 0 0 0 c 0.062,-0.062 0.062,0 0,0 z m 0,0 c 0.6169,-0.062 1.2954,-0.1851 1.9123,-0.3085 -0.6169,0.062 -1.2338,0.2468 -1.9123,0.3085 z m 0,0 c 0.6169,-0.062 1.2954,-0.1851 1.9123,-0.3085 -0.6169,0.062 -1.2338,0.2468 -1.9123,0.3085 z m 0,0 c 0.6169,-0.062 1.2954,-0.1851 1.9123,-0.3085 -0.6169,0.062 -1.2338,0.2468 -1.9123,0.3085 z m -16.1011,51.326 c -2.0358,0.3701 -4.0715,0.6786 -6.169,0.9253 v 0 c 2.0975,-0.185 4.1949,-0.5552 6.169,-0.9253 z m 0,0 c -2.0358,0.3701 -4.0715,0.6786 -6.169,0.9253 v 0 c 2.0975,-0.185 4.1949,-0.5552 6.169,-0.9253 z m 0,0 c -2.0358,0.3701 -4.0715,0.6786 -6.169,0.9253 v 0 c 2.0975,-0.185 4.1949,-0.5552 6.169,-0.9253 z m 65.1445,-347.0674 c -8.945,13.7568 -18.692,29.3644 -29.3027,47.0694 -0.5552,0.8636 -1.1721,1.9124 -1.6656,2.776 -9.0684,15.2991 -18.6921,32.0788 -28.9326,50.5241 -8.76,15.916 -17.8901,32.9424 -27.3903,51.2643 -8.2665,15.9777 -16.7797,32.9424 -25.6013,50.8942 l 100.7396,-11.0426 c 29.3644,-13.51 42.4427,-25.663 55.1508,-43.368 3.3313,-4.8735 6.7859,-9.932 10.1171,-15.2374 10.364,-16.1627 20.4811,-33.9294 29.5495,-51.6344 8.76,-17.0881 16.4712,-33.9912 22.3934,-49.2903 3.7631,-9.6853 6.7859,-18.692 8.8834,-26.65 1.8507,-6.971 3.2696,-13.6335 4.38,-19.9875 -39.0497,6.7242 -87.1062,13.1399 -118.3213,14.6822 z m -113.386,203.5767 c -1.1721,2.3442 -2.2826,4.6884 -3.4547,7.0326 -3.4546,7.0944 -6.9092,14.3121 -10.4873,21.7149 -3.8247,8.0197 -7.6495,16.1627 -11.536,24.5526 -1.974,4.1949 -3.9481,8.4515 -5.9222,12.7698 -5.9222,12.8932 -11.9061,26.2182 -18.0134,39.975 -7.4645,16.8414 -15.1758,34.423 -22.887,52.6832 -7.3411,17.3966 -14.929,35.3483 -22.4551,53.9787 -7.2177,17.6433 -14.4972,35.9035 -21.8999,54.6572 -6.6009,16.718 -13.2634,33.9912 -19.9259,51.6962 -0.3084,0.8019 -0.6169,1.7273 -0.9253,2.5293 -6.6625,17.5816 -13.3867,35.6567 -20.1109,54.1637 -0.1234,0.4318 -0.3085,0.802 -0.4319,1.2955 l 32.0788,-3.5163 c -0.6169,-0.1234 -1.2955,-0.1851 -1.9124,-0.3085 38.3094,-4.7501 89.327,-33.4359 122.2077,-68.7843 15.1757,-16.2861 28.9326,-35.5333 41.6407,-58.0502 9.4386,-16.7179 18.3836,-35.3483 26.8968,-55.891 7.4028,-17.9518 14.4971,-37.4458 21.3447,-58.482 -8.8216,4.6267 -18.8771,8.0813 -29.9813,10.4256 -1.9741,0.4318 -3.9481,0.8019 -5.9839,1.1721 -2.0358,0.3701 -4.0715,0.6786 -6.169,0.9253 v 0 0 c 0,0 0.062,0 0.062,-0.062 35.7801,-13.7568 58.297,-40.2835 74.6448,-72.7941 -9.3769,6.4158 -24.676,14.8056 -42.9979,18.8155 -2.4676,0.5552 -4.9969,0.987 -7.5878,1.4188 -0.6169,0.062 -1.2955,0.1851 -1.9124,0.3085 v 0 0 h 0.062 c 0,0 0,0 0.062,0 v 0 c 12.4613,-5.182 22.8869,-11.0425 31.9553,-17.8901 1.9741,-1.4806 3.8865,-2.9611 5.6138,-4.5651 2.7761,-2.4059 5.367,-4.9351 7.958,-7.5261 1.6039,-1.7273 3.1462,-3.4547 4.6884,-5.2437 3.5781,-4.2566 6.9093,-8.8216 9.9938,-13.7568 0.9254,-1.5423 1.9124,-3.0228 2.7761,-4.6268 1.2337,-2.2825 2.3442,-4.565 3.4546,-6.7242 4.9969,-9.9937 9.0067,-19.0005 12.1529,-26.8351 1.6039,-3.9481 2.9611,-7.5261 4.1949,-10.9808 0.4935,-1.3572 0.9254,-2.6526 1.3572,-3.9481 1.2955,-3.7631 2.2825,-7.0944 3.0845,-10.0555 1.2338,-4.4417 1.9741,-7.958 2.3442,-10.4873 v 0 0 c -1.2338,0.9254 -2.591,1.9124 -4.1949,2.8378 -10.7958,6.4774 -29.3027,12.2763 -44.2317,15.0523 l 29.4261,-3.2079 -29.4261,3.2079 c -0.1851,0.062 -0.4318,0.062 -0.6786,0.1234 -1.5422,0.2468 -2.9611,0.4935 -4.5033,0.6786 0.2467,-0.1234 0.4935,-0.2468 0.7402,-0.3702 l -100.7396,11.0426 c 0,0.2467 -0.1851,0.6785 -0.3701,1.0487 z m -207.3398,292.2868 c -4.9969,25.1695 -8.5749,50.2156 -10.3639,75.1383 -0.062,0.8636 -0.1234,1.7273 -0.1851,2.591 -12.4614,-19.9259 -45.7122,-39.3582 -45.6505,-39.1731 23.874,34.5463 41.9491,68.8459 44.6018,102.5286 -12.7698,2.591 -30.2281,-1.1721 -50.4007,-8.5749 21.0363,19.3706 36.8289,24.6759 43.0596,26.1565 -19.3706,1.2338 -39.4816,14.4971 -59.7775,29.7962 29.6728,-12.0912 53.6702,-16.903 70.82,-13.0165 -27.2669,77.1123 -54.5339,162.2444 -81.8625,252.6818 8.3898,-2.4676 13.3867,-8.1431 16.1628,-15.7309 4.8735,-16.3478 37.1373,-123.8117 87.7847,-264.8965 1.4805,-4.0098 2.8994,-8.0814 4.38,-12.0912 0.3701,-1.1721 0.8019,-2.2825 1.2338,-3.3313 5.3053,-14.8055 10.9191,-29.9196 16.5945,-45.342 1.2955,-3.5164 2.591,-7.0327 3.9482,-10.549 0,-0.062 0.062,-0.1234 0.062,-0.1851 l -39.9134,-78.6546 c -0.1234,0.802 -0.3084,1.7273 -0.4935,2.6527 z m 61.2581,21.0362 c 6.9092,-17.8901 14.0653,-36.0269 21.3447,-54.2871 7.0326,-17.5199 14.1887,-35.1632 21.5914,-52.8066 7.4028,-17.6433 14.929,-35.4717 22.5785,-53.2383 7.773,-18.0752 15.7927,-36.0886 23.9974,-54.0404 8.0814,-17.7667 16.2245,-35.41 24.5526,-52.8066 2.9611,-6.2923 6.0456,-12.5847 9.0684,-18.8154 5.2437,-10.7957 10.549,-21.5298 15.916,-32.1404 0.3085,-0.5552 0.5552,-1.1721 0.8637,-1.7273 l -39.6667,-78.3462 c -0.6169,1.0487 -1.2954,2.1591 -1.974,3.1462 -9.2535,15.114 -18.4453,30.5365 -27.452,46.2674 -9.1301,15.916 -18.0752,32.1404 -26.8351,48.6117 -7.3411,13.8802 -14.5589,27.8221 -21.6532,42.0108 -1.4189,2.8377 -2.7761,5.7371 -4.1949,8.5749 -8.6366,17.8284 -16.4095,34.9165 -23.5039,51.511 -8.0197,18.6921 -15.0523,36.5822 -21.1596,53.5469 -4.0715,11.1659 -7.7112,21.8999 -11.1042,32.2638 -2.776,8.8217 -5.367,17.705 -7.958,26.5267 -5.9222,20.7278 -11.0425,41.4556 -15.2374,62.06 l 39.8517,78.6546 c 5.2436,-14.0653 10.6724,-28.3773 16.2244,-42.8128 1.6657,-4.1332 3.1462,-8.2047 4.7502,-12.1529 z m -14.9907,71.7454 c -5.2436,14.3737 -10.5489,29.1176 -15.7926,44.1083 -0.062,0.185 -0.1234,0.4318 -0.2467,0.6169 -0.7403,2.0974 -1.5423,4.2566 -2.2209,6.354 -3.578,10.1172 -6.6625,19.2473 -13.7568,39.9134 11.6594,5.3053 21.0362,19.3706 29.9196,35.2866 -0.9254,-16.4712 -7.7113,-31.9554 -20.7278,-43.9232 57.5567,2.591 107.1554,-11.9679 132.8184,-54.0404 2.2825,-3.7631 4.3799,-7.6495 6.2923,-11.9061 -11.6594,14.8055 -26.1565,21.0362 -53.3617,19.5557 -0.062,0 -0.1234,0.062 -0.1851,0.062 0.062,0 0.1234,-0.062 0.1851,-0.062 40.0984,-17.9518 60.1476,-35.1633 77.976,-63.664 4.1949,-6.7859 8.3281,-14.127 12.5231,-22.3318 -35.0399,35.9653 -75.5702,46.2058 -118.3213,38.4329 l -32.0788,3.5163 c -1.0487,2.7144 -1.974,5.367 -3.0228,8.0814 z m 180.6281,-441.2062 c 9.2534,-17.3349 18.6303,-34.2379 28.0689,-50.6474 9.8087,-17.1498 19.8024,-33.6827 29.8579,-49.7221 0.5552,-0.9254 1.2338,-1.9124 1.789,-2.8377 9.9321,-15.731 19.9875,-30.9067 30.043,-45.3421 l -30.4132,-57.495 c -2.2825,2.776 -4.565,5.6138 -6.9092,8.5749 -8.8217,10.9808 -17.8901,22.7019 -27.267,35.2249 -10.5489,14.0653 -21.3447,29.1177 -32.3872,44.9103 -10.1171,14.5588 -20.481,29.7962 -30.8449,45.6505 -8.8217,13.4484 -17.5816,27.267 -26.3416,41.4556 -0.3085,0.4935 -0.6169,1.0488 -0.9254,1.604 l 39.6667,78.3461 c 8.3898,-16.9647 17.0264,-33.5593 25.663,-49.722 z m 44.8486,148.2408 c 0,0 0,0.062 0,0 -0.062,0 -0.062,0 -0.062,0.062 0.6169,-0.062 1.2954,-0.1851 1.9123,-0.3085 2.591,-0.3701 5.1203,-0.8019 7.5879,-1.4188 -3.0845,0.5552 -6.169,1.1104 -9.4385,1.6656 z m 0,0 c 0,0 0,0.062 0,0 -0.062,0 -0.062,0 -0.062,0.062 0.6169,-0.062 1.2954,-0.1851 1.9123,-0.3085 2.591,-0.3701 5.1203,-0.8019 7.5879,-1.4188 -3.0845,0.5552 -6.169,1.1104 -9.4385,1.6656 z m -10.1789,50.2773 c -3.8864,0.6786 -7.8346,1.4188 -11.9678,2.0974 0,0 -0.062,0 -0.062,0.062 2.0974,-0.3084 4.1332,-0.6169 6.169,-0.9253 1.9124,-0.4319 3.8864,-0.802 5.8605,-1.2338 z m 0,0 c -3.8864,0.6786 -7.8346,1.4188 -11.9678,2.0974 0,0 -0.062,0 -0.062,0.062 2.0974,-0.3084 4.1332,-0.6169 6.169,-0.9253 1.9124,-0.4319 3.8864,-0.802 5.8605,-1.2338 z m 10.1172,-50.2156 z m 9.5002,-1.6656 c -2.4676,0.5552 -4.9969,0.987 -7.5879,1.4188 2.591,-0.4318 5.1203,-0.9253 7.5879,-1.4188 z m 31.1534,-103.0222 c 0.1851,-0.062 0.4318,-0.062 0.6786,-0.1234 l -4.38,0.4936 c -0.2467,0.1233 -0.4935,0.2467 -0.7403,0.3701 1.4189,-0.3085 2.9611,-0.5552 4.4417,-0.7403 z m 51.5727,-328.0669 c -16.7179,9.8704 -44.5401,37.8159 -77.6059,78.3462 l 30.4132,57.495 c 21.4064,-30.5365 43.1212,-58.1119 65.0211,-81.6158 1.7274,-1.8507 2.5293,-2.7143 2.5293,-2.7143 -0.8019,0.8636 -1.7273,1.8507 -2.5293,2.7143 -7.0943,7.773 -28.6241,32.9424 -61.073,82.7879 31.2768,-1.5423 79.2716,-7.958 118.4447,-14.6205 11.721,-65.3296 -11.4127,-95.1876 -11.4127,-95.1876 0,0 -29.3644,-47.5012 -63.7874,-27.2052 z M 1150.6075,805.52696 c 0.032,0.0466 -0.017,0.0788 0,0 v 0 0 0 c -0.017,0.0788 0.032,0.0466 0,0 z m 0,0 c 0.032,0.0466 -0.017,0.0788 0,0 v 0 0 0 c -0.017,0.0788 0.032,0.0466 0,0 z m 0,0 c 0.032,0.0466 -0.017,0.0788 0,0 v 0 0 0 c -0.017,0.0788 0.032,0.0466 0,0 z m 0,0 c 0.2748,0.49848 0.5326,1.07573 0.7579,1.60636 -0.2748,-0.49848 -0.4507,-1.06125 -0.7579,-1.60636 z m 0,0 c 0.2748,0.49848 0.5326,1.07573 0.7579,1.60636 -0.2748,-0.49848 -0.4507,-1.06125 -0.7579,-1.60636 z m 0,0 c 0.2748,0.49848 0.5326,1.07573 0.7579,1.60636 -0.2748,-0.49848 -0.4507,-1.06125 -0.7579,-1.60636 z m 32.6791,-38.91492 c -0.7732,-1.73176 -1.596,-3.43138 -2.5006,-5.14549 v 0 c 0.9541,1.68196 1.7598,3.46036 2.5006,5.14549 z m 0,0 c -0.7732,-1.73176 -1.596,-3.43138 -2.5006,-5.14549 v 0 c 0.9541,1.68196 1.7598,3.46036 2.5006,5.14549 z m 0,0 c -0.7732,-1.73176 -1.596,-3.43138 -2.5006,-5.14549 v 0 c 0.9541,1.68196 1.7598,3.46036 2.5006,5.14549 z M 939.32531,996.69768 c 6.32575,-13.92989 13.71348,-29.43034 22.32854,-46.67654 0.40048,-0.86971 0.91688,-1.88249 1.34978,-2.70557 7.49713,-14.82676 15.88923,-30.84467 25.29222,-48.19679 8.15374,-14.91503 17.00305,-30.68845 26.69625,-47.41669 8.4625,-14.5741 17.5866,-29.84904 27.3397,-45.87145 l 44.096,81.90604 c 4.6041,29.23697 1.7364,45.45556 -5.7762,64.2873 -2.1557,5.05756 -4.3948,10.30482 -6.8965,15.58738 -7.5086,16.25607 -16.4325,33.16134 -25.8581,49.24174 -9.0933,15.5257 -18.5894,30.1623 -27.7401,42.6108 -5.7857,7.8912 -11.4165,14.8692 -16.6931,20.6013 -4.615,5.0312 -9.20976,9.5753 -13.71939,13.7255 -15.13403,-33.0226 -35.24911,-72.6929 -50.4191,-97.09302 z M 1042.9131,804.91113 c 1.263,-2.1075 2.5584,-4.16836 3.8215,-6.27586 3.8709,-6.308 7.8407,-12.68029 11.8941,-19.24228 4.4181,-7.06996 8.9351,-14.2042 13.6175,-21.51366 2.325,-3.67804 4.6994,-7.38823 7.1233,-11.13056 7.2222,-11.19485 14.7582,-22.66134 22.5754,-34.4461 9.5764,-14.41789 19.6164,-29.40803 30.2004,-44.75175 10.0863,-14.61392 20.4879,-29.70366 31.4659,-45.10034 10.3489,-14.64922 21.1598,-29.66652 32.3015,-45.03422 9.9314,-13.70073 20.2754,-27.73739 30.9656,-41.99906 0.4807,-0.65103 1.0603,-1.36636 1.5411,-2.01739 10.5912,-14.19738 21.5456,-28.69854 32.8462,-43.4247 0.2813,-0.31828 0.4807,-0.65104 0.8115,-1.00146 l 14.0415,26.08155 c -0.4231,-0.40204 -0.8292,-0.88287 -1.2523,-1.28491 16.3273,31.43439 20.1476,84.94705 9.0949,128.22101 -5.0784,19.95776 -13.2761,40.38586 -24.6458,61.72481 -8.4399,15.84586 -18.6721,32.31512 -30.6643,49.4544 -10.4988,14.94984 -22.3961,30.4701 -35.6592,46.60743 -0.9278,-9.07935 -3.4437,-18.48065 -7.4008,-28.09612 -0.6914,-1.71727 -1.4323,-3.4024 -2.2056,-5.13417 -0.7732,-1.73176 -1.596,-3.43138 -2.5006,-5.14549 v 0 0 c 0,0 0.033,0.0466 -0.017,0.0788 7.7784,34.21541 -1.6502,65.05841 -19.1176,94.35602 0.2143,-10.43122 -1.1016,-26.36785 -7.5171,-42.30731 -0.8519,-2.15463 -1.8351,-4.2916 -2.8508,-6.47521 -0.2748,-0.49848 -0.5325,-1.07573 -0.7579,-1.60635 v 0 0 l 0.033,0.0466 c 0,0 0,0 0.032,0.0466 v 0 c 2.3958,12.12002 3.1777,23.05472 2.455,33.47778 -0.1492,2.26372 -0.3308,4.4808 -0.7087,6.62228 -0.4694,3.35211 -1.1351,6.6286 -1.8501,9.93724 -0.5416,2.11249 -1.1156,4.17835 -1.739,6.27636 -1.5315,4.92265 -3.4398,9.81949 -5.7746,14.72266 -0.7499,1.5031 -1.4179,3.02068 -2.2496,4.50929 -1.1812,2.12198 -2.4272,4.1507 -3.5743,6.11514 -5.3844,8.98459 -10.4965,16.70875 -15.1229,23.16931 -2.3217,3.26967 -4.4765,6.15994 -6.5971,8.89266 -0.8285,1.08023 -1.64,2.08168 -2.4515,3.08313 -2.3355,2.94007 -4.4869,5.42197 -6.439,7.5711 -2.9119,3.24702 -5.3414,5.63882 -7.1742,7.23651 v 0 0 c 0.093,-1.41482 0.1711,-2.95506 0.07,-4.64968 -0.4819,-11.53594 -5.5607,-28.54746 -11.1819,-41.27921 l 12.8945,23.9156 -12.8945,-23.9156 c -0.048,-0.17204 -0.1776,-0.35858 -0.2578,-0.57726 -0.6128,-1.2944 -1.1607,-2.49555 -1.823,-3.75781 0.031,0.25082 0.062,0.50164 0.092,0.75246 l -44.0959,-81.90604 c 0.1978,-0.12857 0.4467,-0.49348 0.6461,-0.82624 z m 125.3147,-309.03192 c 17.549,-16.89196 35.7447,-32.64706 54.7819,-46.9855 0.6598,-0.49665 1.3197,-0.9933 1.9796,-1.48994 -22.5216,0.96249 -55.5742,-14.04762 -55.3935,-14.09741 40.2393,0.0466 77.233,-4.16174 105.6264,-19.707 -4.6347,-11.00315 -16.8269,-22.23963 -33.3633,-33.63149 26.5834,5.80884 39.1364,14.98262 43.5979,18.92114 -9.1919,-15.28575 -9.1304,-37.39914 -7.5343,-60.71317 5.9036,28.73083 14.6593,49.37842 26.7883,60.31745 47.4802,-60.79166 101.3887,-125.762 159.5175,-193.54334 2.4316,7.62789 0.5086,14.36242 -4.1146,20.41461 -10.5425,12.20213 -79.7254,92.58582 -166.1958,204.3846 -2.436,3.20854 -4.9539,6.4026 -7.39,9.61114 -0.745,0.89054 -1.4081,1.79556 -2.0217,2.66844 -9.0794,11.72497 -18.2439,23.84383 -27.6232,36.17004 -2.1377,2.81149 -4.2754,5.62299 -6.3807,8.48112 -0.05,0.0321 -0.067,0.11092 -0.1159,0.14306 l -84.0255,10.8115 c 0.578,-0.51113 1.2225,-1.13319 1.8669,-1.75525 z m 49.0585,35.34592 c -10.7088,14.54463 -21.4857,29.40437 -32.2966,44.42166 -10.3473,14.44503 -20.7286,29.04762 -30.9803,43.83674 -10.2516,14.78912 -20.5867,29.76794 -30.8076,44.80788 -10.4032,15.29393 -20.6273,30.74225 -30.7046,46.29832 -9.9939,15.36638 -19.8565,30.7151 -29.4239,46.07514 -3.4875,5.51707 -6.9102,11.1274 -10.3158,16.65896 -5.8976,9.58899 -11.7133,19.19248 -17.3977,28.77831 -0.2829,0.52246 -0.6477,1.03043 -0.9307,1.55289 l -83.64846,10.83731 c 0.5164,-1.01277 1.04983,-2.10433 1.48436,-3.1316 7.25151,-14.87022 14.7827,-29.85454 22.6584,-44.85967 7.9592,-15.19483 16.26292,-30.41048 24.8617,-45.6148 7.2677,-12.78172 14.6496,-25.50231 22.2942,-38.25822 1.5289,-2.55118 3.1397,-5.08787 4.6686,-7.63905 9.7515,-15.81822 19.3636,-30.59785 28.9367,-44.60736 10.768,-15.80189 21.412,-30.43979 31.8006,-43.89603 6.8103,-8.89582 13.5015,-17.24021 20.0256,-25.20519 5.6122,-6.69506 11.3711,-13.28237 17.0805,-19.83753 13.5023,-15.2771 27.426,-29.94798 41.7372,-43.85506 l 83.993,-10.85814 c -8.5184,11.29262 -17.1373,22.85371 -25.7903,34.57235 -2.4376,3.41274 -4.9231,6.65342 -7.2449,9.92309 z m 49.6304,-48.7151 c 8.7657,-11.45333 17.7956,-23.14616 27.0557,-34.92093 0.1159,-0.14307 0.2813,-0.31828 0.3648,-0.50797 1.2922,-1.65249 2.6014,-3.38376 3.926,-4.98961 6.2291,-7.97632 11.9264,-15.06526 24.7632,-31.19626 10.3806,6.04934 26.5833,5.80884 44.0101,4.23096 -13.6892,7.88288 -29.6675,10.82129 -46.1019,7.21754 32.3278,42.1589 46.7262,87.23806 26.4901,128.55959 -1.8168,3.68621 -3.8297,7.2968 -6.2365,10.96035 5.7397,-16.52821 3.1146,-30.73357 -12.3709,-50.52744 -0.032,-0.0466 -0.015,-0.12541 -0.048,-0.17204 0.032,0.0466 0.015,0.12541 0.048,0.17204 6.6855,39.66553 3.4268,63.78949 -10.0483,92.11695 -3.2346,6.70688 -6.9467,13.65643 -11.3186,21.10262 10.4123,-45.22757 -2.6813,-81.20157 -31.3812,-109.46838 l -14.0416,-26.08155 c 1.6246,-2.2071 3.2646,-4.28878 4.8891,-6.49587 z m -258.7241,366.4347 c -9.03164,16.0274 -17.65233,31.92307 -25.84501,47.60821 -8.59152,16.35068 -16.59129,32.51981 -24.16304,48.47843 -0.44992,0.90186 -0.88445,1.92912 -1.33438,2.83098 -7.38935,15.70463 -14.26881,31.21324 -20.55488,46.33612 l -62.07123,6.96773 c 1.02555,-3.17191 2.10054,-6.37595 3.24201,-9.69092 4.16539,-12.39016 8.79448,-25.35258 13.90429,-38.96604 5.72999,-15.30309 12.12147,-31.307 18.97665,-47.88318 6.35255,-15.2338 13.11935,-31.00772 20.38063,-47.10307 6.14336,-13.67592 12.61583,-27.49806 19.385,-41.51306 0.23347,-0.49032 0.5164,-1.01278 0.79932,-1.53524 l 83.64854,-10.83731 c -9.1889,15.18167 -17.9515,30.35701 -26.3679,45.30735 z m 142.3979,-43.33899 c 0,0 0.049,-0.0321 0,0 -0.032,-0.0466 -0.032,-0.0466 0.017,-0.0788 0.2748,0.49848 0.5326,1.07573 0.7579,1.60636 1.0651,2.15146 2.0483,4.28843 2.8507,6.47521 -1.1761,-2.62097 -2.3522,-5.24193 -3.6256,-8.00279 z m 0,0 c 0,0 0.049,-0.0321 0,0 -0.032,-0.0466 -0.032,-0.0466 0.017,-0.0788 0.2748,0.49848 0.5326,1.07573 0.7579,1.60636 1.0651,2.15146 2.0483,4.28843 2.8507,6.47521 -1.1761,-2.62097 -2.3522,-5.24193 -3.6256,-8.00279 z m 34.9511,-33.89167 c -1.4987,-3.29149 -2.9804,-6.66175 -4.6089,-10.13977 0,0 -0.032,-0.0466 0.017,-0.0788 0.8551,1.74625 1.6778,3.44587 2.5006,5.14549 0.659,1.67064 1.3998,3.35577 2.0912,5.07305 z m 0,0 c -1.4987,-3.29149 -2.9804,-6.66175 -4.6089,-10.13977 0,0 -0.032,-0.0466 0.017,-0.0788 0.8551,1.74625 1.6778,3.44587 2.5006,5.14549 0.659,1.67064 1.3998,3.35577 2.0912,5.07305 z m -34.9341,33.81289 z m 3.6581,8.04942 c -0.8519,-2.15463 -1.8351,-4.2916 -2.8508,-6.47521 1.0157,2.18361 1.9494,4.35273 2.8508,6.47521 z m -66.2061,77.22994 c 0.048,0.17204 0.1775,0.35858 0.2577,0.57725 l -1.9065,-3.56812 c -0.031,-0.25082 -0.061,-0.50164 -0.092,-0.75246 0.4985,1.23329 1.1112,2.5277 1.7411,3.74333 z M 852.1953,1100.7323 c -0.87487,-17.7806 6.90262,-53.3734 22.01174,-99.4873 l 62.07122,-6.96775 c -13.22638,32.09295 -23.91709,62.87615 -31.24689,91.67775 -0.57562,2.2701 -0.8464,3.3263 -0.8464,3.3263 0.27078,-1.0562 0.57561,-2.27 0.8464,-3.3263 2.50189,-9.4129 11.36136,-38.8026 34.26152,-89.30395 15.20241,24.44675 35.28506,64.07045 50.53339,97.15415 -46.20611,42.9006 -82.29821,40.9707 -82.29821,40.9707 0,0 -53.50928,2.5532 -55.33277,-34.0436 z m 1133.2493,334.0518 c 0.032,0.047 -0.017,0.079 0,0 v 0 0 0 c -0.017,0.079 0.032,0.047 0,0 z m 0,0 c 0.032,0.047 -0.017,0.079 0,0 v 0 0 0 c -0.017,0.079 0.032,0.047 0,0 z m 0,0 c 0.032,0.047 -0.017,0.079 0,0 v 0 0 0 c -0.017,0.079 0.032,0.047 0,0 z m 0,0 c 0.2748,0.4985 0.5325,1.0757 0.7579,1.6064 -0.2748,-0.4985 -0.4507,-1.0613 -0.7579,-1.6064 z m 0,0 c 0.2748,0.4985 0.5325,1.0757 0.7579,1.6064 -0.2748,-0.4985 -0.4507,-1.0613 -0.7579,-1.6064 z m 0,0 c 0.2748,0.4985 0.5325,1.0757 0.7579,1.6064 -0.2748,-0.4985 -0.4507,-1.0613 -0.7579,-1.6064 z m 32.6791,-38.9149 c -0.7733,-1.7318 -1.596,-3.4314 -2.5006,-5.1455 v 0 c 0.9541,1.682 1.7598,3.4604 2.5006,5.1455 z m 0,0 c -0.7733,-1.7318 -1.596,-3.4314 -2.5006,-5.1455 v 0 c 0.9541,1.682 1.7598,3.4604 2.5006,5.1455 z m 0,0 c -0.7733,-1.7318 -1.596,-3.4314 -2.5006,-5.1455 v 0 c 0.9541,1.682 1.7598,3.4604 2.5006,5.1455 z m -243.9613,230.0856 c 6.3257,-13.9299 13.7135,-29.4303 22.3285,-46.6765 0.4005,-0.8697 0.9169,-1.8825 1.3498,-2.7056 7.4971,-14.8267 15.8892,-30.8446 25.2922,-48.1968 8.1538,-14.915 17.0031,-30.6884 26.6962,-47.4167 8.4626,-14.5741 17.5867,-29.849 27.3398,-45.8714 l 44.0959,81.906 c 4.6042,29.237 1.7365,45.4556 -5.7762,64.2873 -2.1556,5.0576 -4.3947,10.3049 -6.8965,15.5874 -7.5085,16.2561 -16.4324,33.1614 -25.858,49.2417 -9.0933,15.5258 -18.5894,30.1624 -27.7402,42.6108 -5.7856,7.8912 -11.4164,14.8692 -16.693,20.6013 -4.615,5.0313 -9.2098,9.5754 -13.7194,13.7256 -15.134,-33.0226 -35.2491,-72.693 -50.4191,-97.0931 z m 103.5878,-191.7865 c 1.263,-2.1075 2.5584,-4.1684 3.8214,-6.2759 3.871,-6.308 7.8408,-12.6803 11.8941,-19.2423 4.4182,-7.0699 8.9352,-14.2042 13.6176,-21.5136 2.325,-3.6781 4.6994,-7.3882 7.1233,-11.1306 7.2222,-11.1948 14.7582,-22.6613 22.5754,-34.4461 9.5763,-14.4179 19.6164,-29.408 30.2004,-44.7517 10.0863,-14.6139 20.4879,-29.7037 31.4658,-45.1004 10.3489,-14.6492 21.1599,-29.6665 32.3016,-45.0342 9.9314,-13.7007 20.2754,-27.7374 30.9656,-41.999 0.4807,-0.6511 1.0603,-1.3664 1.541,-2.0174 10.5913,-14.1974 21.5457,-28.6986 32.8463,-43.4247 0.2813,-0.3183 0.4807,-0.6511 0.8115,-1.0015 l 14.0415,26.0816 c -0.4231,-0.4021 -0.8292,-0.8829 -1.2524,-1.285 16.3274,31.4344 20.1476,84.9471 9.095,128.2211 -5.0784,19.9577 -13.2761,40.3858 -24.6458,61.7248 -8.4399,15.8458 -18.6722,32.3151 -30.6643,49.4544 -10.4989,14.9498 -22.3961,30.4701 -35.6592,46.6074 -0.9279,-9.0794 -3.4437,-18.4807 -7.4009,-28.0961 -0.6914,-1.7173 -1.4322,-3.4024 -2.2055,-5.1342 -0.7733,-1.7318 -1.596,-3.4314 -2.5006,-5.1455 v 0 0 c 0,0 0.032,0.047 -0.017,0.079 7.7784,34.2154 -1.6502,65.0584 -19.1177,94.356 0.2144,-10.4312 -1.1015,-26.3678 -7.5171,-42.3073 -0.8519,-2.1546 -1.8351,-4.2916 -2.8507,-6.4752 -0.2748,-0.4985 -0.5326,-1.0757 -0.7579,-1.6064 v 0 0 l 0.032,0.047 c 0,0 0,0 0.033,0.047 v 0 c 2.3958,12.12 3.1776,23.0547 2.455,33.4778 -0.1492,2.2637 -0.3309,4.4808 -0.7087,6.6223 -0.4694,3.3521 -1.1351,6.6286 -1.8502,9.9372 -0.5415,2.1125 -1.1155,4.1784 -1.739,6.2764 -1.5314,4.9226 -3.4398,9.8195 -5.7745,14.7226 -0.7499,1.5031 -1.4179,3.0207 -2.2496,4.5093 -1.1812,2.122 -2.4272,4.1507 -3.5743,6.1152 -5.3844,8.9845 -10.4965,16.7087 -15.1229,23.1693 -2.3217,3.2696 -4.4765,6.1599 -6.5972,8.8926 -0.8285,1.0803 -1.6399,2.0817 -2.4514,3.0832 -2.3355,2.94 -4.487,5.4219 -6.439,7.5711 -2.9119,3.247 -5.3414,5.6388 -7.1743,7.2365 v 0 0 c 0.093,-1.4149 0.1712,-2.9551 0.07,-4.6497 -0.4819,-11.536 -5.5607,-28.5475 -11.182,-41.2792 l 12.8946,23.9156 -12.8946,-23.9156 c -0.048,-0.1721 -0.1775,-0.3586 -0.2577,-0.5773 -0.6128,-1.2944 -1.1608,-2.4955 -1.823,-3.7578 0.031,0.2508 0.062,0.5016 0.092,0.7525 l -44.0959,-81.9061 c 0.1978,-0.1285 0.4466,-0.4935 0.6461,-0.8262 z m 125.3147,-309.0319 c 17.5489,-16.892 35.7447,-32.6471 54.7818,-46.9855 0.6599,-0.4967 1.3198,-0.9933 1.9796,-1.49 -22.5215,0.9625 -55.5742,-14.0476 -55.3934,-14.0974 40.2393,0.047 77.233,-4.1617 105.6264,-19.707 -4.6348,-11.0031 -16.827,-22.2396 -33.3633,-33.6315 26.5834,5.8089 39.1364,14.9826 43.5979,18.9212 -9.1919,-15.2858 -9.1304,-37.39918 -7.5343,-60.71321 5.9036,28.73083 14.6593,49.37841 26.7882,60.31741 47.4802,-60.79161 101.3888,-125.76195 159.5176,-193.54329 2.4316,7.62789 0.5086,14.36242 -4.1146,20.4146 -10.5426,12.20213 -79.7254,92.58582 -166.1958,204.38459 -2.4361,3.2086 -4.954,6.4026 -7.39,9.6112 -0.745,0.8905 -1.4081,1.7955 -2.0218,2.6684 -9.0793,11.725 -18.2438,23.8438 -27.6231,36.17 -2.1378,2.8115 -4.2755,5.623 -6.3807,8.4812 -0.049,0.032 -0.066,0.1109 -0.116,0.143 l -84.0254,10.8115 c 0.578,-0.5111 1.2224,-1.1332 1.8669,-1.7552 z m 49.0585,35.3459 c -10.7088,14.5446 -21.4857,29.4044 -32.2967,44.4216 -10.3472,14.4451 -20.7286,29.0477 -30.9802,43.8368 -10.2516,14.7891 -20.5867,29.7679 -30.8076,44.8079 -10.4032,15.2939 -20.6273,30.7422 -30.7047,46.2983 -9.9938,15.3664 -19.8564,30.7151 -29.4239,46.0751 -3.4875,5.5171 -6.9101,11.1274 -10.3157,16.659 -5.8976,9.589 -11.7133,19.1925 -17.3977,28.7783 -0.283,0.5225 -0.6478,1.0304 -0.9307,1.5529 l -83.6485,10.8373 c 0.5164,-1.0128 1.0498,-2.1043 1.4844,-3.1316 7.2515,-14.8702 14.7827,-29.8545 22.6584,-44.8597 7.9592,-15.1948 16.2629,-30.4105 24.8617,-45.6148 7.2676,-12.7817 14.6496,-25.5023 22.2942,-38.2582 1.5289,-2.5512 3.1397,-5.0879 4.6686,-7.639 9.7515,-15.8183 19.3636,-30.5979 28.9367,-44.6074 10.768,-15.8019 21.412,-30.4398 31.8006,-43.896 6.8103,-8.8959 13.5014,-17.2402 20.0256,-25.2052 5.6122,-6.6951 11.3711,-13.2824 17.0805,-19.8375 13.5022,-15.2772 27.426,-29.948 41.7372,-43.8551 l 83.993,-10.8581 c -8.5184,11.2926 -17.1373,22.8537 -25.7903,34.5723 -2.4377,3.4127 -4.9231,6.6534 -7.2449,9.9231 z m 49.6304,-48.7151 c 8.7656,-11.4533 17.7956,-23.1462 27.0557,-34.9209 0.1159,-0.1431 0.2813,-0.3183 0.3648,-0.508 1.2922,-1.6525 2.6014,-3.3838 3.926,-4.9896 6.2291,-7.9763 11.9264,-15.0653 24.7631,-31.1963 10.3807,6.0494 26.5834,5.8089 44.0102,4.231 -13.6892,7.8829 -29.6675,10.8213 -46.102,7.2175 32.3279,42.1589 46.7263,87.2381 26.4901,128.5596 -1.8167,3.6862 -3.8296,7.2968 -6.2365,10.9604 5.7398,-16.5283 3.1147,-30.7336 -12.3708,-50.5275 -0.032,-0.047 -0.015,-0.1254 -0.048,-0.172 0.032,0.047 0.015,0.1254 0.048,0.172 6.6855,39.6655 3.4268,63.7895 -10.0483,92.117 -3.2346,6.7068 -6.9467,13.6564 -11.3186,21.1026 10.4123,-45.2276 -2.6813,-81.2016 -31.3812,-109.4684 l -14.0416,-26.0815 c 1.6246,-2.2071 3.2645,-4.2888 4.8891,-6.4959 z m -258.7241,366.4347 c -9.0317,16.0274 -17.6524,31.9231 -25.845,47.6082 -8.5916,16.3507 -16.5913,32.5198 -24.1631,48.4784 -0.4499,0.9019 -0.8844,1.9291 -1.3344,2.831 -7.3893,15.7046 -14.2688,31.2132 -20.5548,46.3361 l -62.0713,6.9678 c 1.0256,-3.1719 2.1006,-6.376 3.242,-9.691 4.1654,-12.3901 8.7945,-25.3525 13.9043,-38.966 5.73,-15.3031 12.1215,-31.307 18.9767,-47.8832 6.3525,-15.2338 13.1193,-31.0077 20.3806,-47.1031 6.1434,-13.6759 12.6158,-27.498 19.385,-41.513 0.2335,-0.4903 0.5164,-1.0128 0.7993,-1.5353 l 83.6485,-10.8373 c -9.1889,15.1817 -17.9514,30.357 -26.3678,45.3074 z m 142.3979,-43.339 c 0,0 0.049,-0.032 0,0 -0.033,-0.047 -0.033,-0.047 0.017,-0.079 0.2748,0.4985 0.5325,1.0757 0.7579,1.6064 1.065,2.1514 2.0483,4.2884 2.8507,6.4752 -1.1761,-2.621 -2.3522,-5.2419 -3.6256,-8.0028 z m 0,0 c 0,0 0.049,-0.032 0,0 -0.033,-0.047 -0.033,-0.047 0.017,-0.079 0.2748,0.4985 0.5325,1.0757 0.7579,1.6064 1.065,2.1514 2.0483,4.2884 2.8507,6.4752 -1.1761,-2.621 -2.3522,-5.2419 -3.6256,-8.0028 z m 34.9511,-33.8917 c -1.4987,-3.2915 -2.9805,-6.6617 -4.6089,-10.1397 0,0 -0.032,-0.047 0.017,-0.079 0.8551,1.7462 1.6778,3.4459 2.5005,5.1455 0.659,1.6706 1.3999,3.3557 2.0913,5.073 z m 0,0 c -1.4987,-3.2915 -2.9805,-6.6617 -4.6089,-10.1397 0,0 -0.032,-0.047 0.017,-0.079 0.8551,1.7462 1.6778,3.4459 2.5005,5.1455 0.659,1.6706 1.3999,3.3557 2.0913,5.073 z m -34.9341,33.8129 z m 3.6581,8.0494 c -0.8519,-2.1546 -1.8352,-4.2916 -2.8508,-6.4752 1.0156,2.1836 1.9494,4.3528 2.8508,6.4752 z m -66.2062,77.23 c 0.048,0.172 0.1775,0.3586 0.2578,0.5772 l -1.9065,-3.5681 c -0.031,-0.2508 -0.062,-0.5016 -0.092,-0.7525 0.4985,1.2333 1.1113,2.5277 1.7411,3.7434 z m -235.8641,209.926 c -0.8749,-17.7807 6.9026,-53.3734 22.0117,-99.4874 l 62.0712,-6.9677 c -13.2263,32.0929 -23.9171,62.8762 -31.2469,91.6778 -0.5756,2.27 -0.8464,3.3263 -0.8464,3.3263 0.2708,-1.0563 0.5757,-2.2701 0.8464,-3.3263 2.5019,-9.413 11.3614,-38.8027 34.2616,-89.304 15.2024,24.4467 35.285,64.0704 50.5334,97.1542 -46.2062,42.9005 -82.2983,40.9706 -82.2983,40.9706 0,0 -53.5092,2.5532 -55.3327,-34.0435 z m 5.3901,-679.8949 c 0.1,0 0.1,-0.1 0,0 v 0 0 0 c 0.1,-0.1 0.1,0 0,0 z m 0,0 c 0.1,0 0.1,-0.1 0,0 v 0 0 0 c 0.1,-0.1 0.1,0 0,0 z m 0,0 c 0.1,0 0.1,-0.1 0,0 v 0 0 0 c 0.1,-0.1 0.1,0 0,0 z m 0,0 c 1,-0.1 2.1,-0.3 3.1,-0.5 -1,0.1 -2,0.4 -3.1,0.5 z m 0,0 c 1,-0.1 2.1,-0.3 3.1,-0.5 -1,0.1 -2,0.4 -3.1,0.5 z m 0,0 c 1,-0.1 2.1,-0.3 3.1,-0.5 -1,0.1 -2,0.4 -3.1,0.5 z m -26.1,83.2 c -3.3,0.6 -6.6,1.1 -10,1.5 v 0 c 3.4,-0.3 6.8,-0.9 10,-1.5 z m 0,0 c -3.3,0.6 -6.6,1.1 -10,1.5 v 0 c 3.4,-0.3 6.8,-0.9 10,-1.5 z m 0,0 c -3.3,0.6 -6.6,1.1 -10,1.5 v 0 c 3.4,-0.3 6.8,-0.9 10,-1.5 z m 105.6,-562.60002 c -14.5,22.3 -30.3,47.6 -47.5,76.3 -0.9,1.4 -1.9,3.1 -2.7,4.5 -14.7,24.8 -30.3,52 -46.9,81.9 -14.2,25.8 -29,53.4 -44.4,83.1 -13.4,25.9 -27.2,53.4 -41.5,82.5 l 163.3,-17.9 c 47.6,-21.9 68.8,-41.6 89.4,-70.3 5.4,-7.9 11,-16.1 16.4,-24.7 16.8,-26.2 33.2,-55 47.9,-83.7 14.2,-27.7 26.7,-55.1 36.3,-79.9 6.1,-15.7 11,-30.3 14.4,-43.2 3,-11.3 5.3,-22.1 7.1,-32.4 -63.3,10.9 -141.2,21.3 -191.8,23.8 z m -183.8,330 c -1.9,3.8 -3.7,7.6 -5.6,11.4 -5.6,11.5 -11.2,23.2 -17,35.2 -6.2,13 -12.4,26.2 -18.7,39.8 -3.2,6.8 -6.4,13.70002 -9.6,20.70002 -9.6,20.9 -19.3,42.5 -29.2,64.8 -12.1,27.3 -24.6,55.8 -37.1,85.4 -11.9,28.2 -24.2,57.3 -36.4,87.5 -11.7,28.6 -23.5,58.2 -35.5,88.6 -10.7,27.1 -21.5,55.1 -32.3,83.8 -0.5,1.3 -1,2.8 -1.5,4.1 -10.8,28.5 -21.7,57.8 -32.6,87.8 -0.2,0.7 -0.5,1.3 -0.7,2.1 l 52,-5.7 c -1,-0.2 -2.1,-0.3 -3.1,-0.5 62.1,-7.7 144.8,-54.2 198.1,-111.5 24.6,-26.4 46.9,-57.6 67.5,-94.1 15.3,-27.1 29.8,-57.3 43.6,-90.6 12,-29.1 23.5,-60.7 34.6,-94.8 -14.3,7.5 -30.6,13.1 -48.6,16.9 -3.2,0.7 -6.4,1.3 -9.7,1.9 -3.3,0.6 -6.6,1.1 -10,1.5 v 0 0 c 0,0 0.1,0 0.1,-0.1 58,-22.3 94.5,-65.3 121,-118 -15.2,10.4 -40,24 -69.7,30.5 -4,0.9 -8.1,1.6 -12.3,2.3 -1,0.1 -2.1,0.3 -3.1,0.5 v 0 0 h 0.1 c 0,0 0,0 0.1,0 v 0 c 20.2,-8.4 37.1,-17.9 51.8,-29 3.2,-2.4 6.3,-4.8 9.1,-7.4 4.5,-3.9 8.7,-8 12.9,-12.2 2.6,-2.80002 5.1,-5.60002 7.6,-8.50002 5.8,-6.9 11.2,-14.3 16.2,-22.3 1.5,-2.5 3.1,-4.9 4.5,-7.5 2,-3.7 3.8,-7.4 5.6,-10.9 8.1,-16.2 14.6,-30.8 19.7,-43.5 2.6,-6.4 4.8,-12.2 6.8,-17.8 0.8,-2.2 1.5,-4.3 2.2,-6.4 2.1,-6.1 3.7,-11.5 5,-16.3 2,-7.2 3.2,-12.9 3.8,-17 v 0 0 c -2,1.5 -4.2,3.1 -6.8,4.6 -17.5,10.5 -47.5,19.9 -71.7,24.4 l 47.7,-5.2 -47.7,5.2 c -0.3,0.1 -0.7,0.1 -1.1,0.2 -2.5,0.4 -4.8,0.8 -7.3,1.1 0.4,-0.2 0.8,-0.4 1.2,-0.6 l -163.3,17.9 c 0,0.4 -0.3,1.1 -0.6,1.7 z m -336.1,473.80002 c -8.1,40.8 -13.9,81.4 -16.8,121.8 -0.1,1.4 -0.2,2.8 -0.3,4.2 -20.2,-32.3 -74.1,-63.8 -74,-63.5 38.7,56 68,111.6 72.3,166.2 -20.7,4.2 -49,-1.9 -81.7,-13.9 34.1,31.4 59.7,40 69.8,42.4 -31.4,2 -64,23.5 -96.9,48.3 48.1,-19.6 87,-27.4 114.8,-21.1 -44.2,125 -88.4,263 -132.7,409.6 13.6,-4 21.7,-13.2 26.2,-25.5 7.9,-26.5 60.2,-200.7 142.3,-429.4 2.4,-6.5 4.7,-13.1 7.1,-19.6 0.6,-1.9 1.3,-3.7 2,-5.4 8.6,-24 17.7,-48.5 26.9,-73.5 2.1,-5.7 4.2,-11.4 6.4,-17.1 0,-0.1 0.1,-0.2 0.1,-0.3 l -64.7,-127.5 c -0.2,1.3 -0.5,2.8 -0.8,4.3 z m 99.3,34.1 c 11.2,-29 22.8,-58.4 34.6,-88 11.4,-28.4 23,-57 35,-85.6 12,-28.6 24.2,-57.5 36.6,-86.3 12.6,-29.3 25.6,-58.5 38.9,-87.6 13.1,-28.8 26.3,-57.4 39.8,-85.60002 4.8,-10.2 9.8,-20.4 14.7,-30.5 8.5,-17.5 17.1,-34.9 25.8,-52.1 0.5,-0.9 0.9,-1.9 1.4,-2.8 l -64.3,-127 c -1,1.7 -2.1,3.5 -3.2,5.1 -15,24.5 -29.9,49.5 -44.5,75 -14.8,25.8 -29.3,52.1 -43.5,78.8 -11.9,22.5 -23.6,45.1 -35.1,68.1 -2.3,4.6 -4.5,9.3 -6.8,13.90002 -14,28.9 -26.6,56.6 -38.1,83.5 -13,30.3 -24.4,59.3 -34.3,86.8 -6.6,18.1 -12.5,35.5 -18,52.3 -4.5,14.3 -8.7,28.7 -12.9,43 -9.6,33.6 -17.9,67.2 -24.7,100.6 l 64.6,127.5 c 8.5,-22.8 17.3,-46 26.3,-69.4 2.7,-6.7 5.1,-13.3 7.7,-19.7 z m -24.3,116.3 c -8.5,23.3 -17.1,47.2 -25.6,71.5 -0.1,0.3 -0.2,0.7 -0.4,1 -1.2,3.4 -2.5,6.9 -3.6,10.3 -5.8,16.4 -10.8,31.2 -22.3,64.7 18.9,8.6 34.1,31.4 48.5,57.2 -1.5,-26.7 -12.5,-51.8 -33.6,-71.2 93.3,4.2 173.7,-19.4 215.3,-87.6 3.7,-6.1 7.1,-12.4 10.2,-19.3 -18.9,24 -42.4,34.1 -86.5,31.7 -0.1,0 -0.2,0.1 -0.3,0.1 0.1,0 0.2,-0.1 0.3,-0.1 65,-29.1 97.5,-57 126.4,-103.2 6.8,-11 13.5,-22.9 20.3,-36.2 -56.8,58.3 -122.5,74.9 -191.8,62.3 l -52,5.7 c -1.7,4.4 -3.2,8.7 -4.9,13.1 z m 292.8,-715.20002 c 15,-28.1 30.2,-55.5 45.5,-82.1 15.9,-27.8 32.1,-54.6 48.4,-80.6 0.9,-1.5 2,-3.1 2.9,-4.6 16.1,-25.5 32.4,-50.1 48.7,-73.5 l -49.3,-93.2 c -3.7,4.5 -7.4,9.1 -11.2,13.9 -14.3,17.8 -29,36.8 -44.2,57.1 -17.1,22.8 -34.6,47.2 -52.5,72.8 -16.4,23.6 -33.2,48.3 -50,74 -14.3,21.8 -28.5,44.2 -42.7,67.2 -0.5,0.8 -1,1.7 -1.5,2.6 l 64.3,127 c 13.6,-27.5 27.6,-54.4 41.6,-80.6 z m 72.7,240.30002 c 0,0 0,0.1 0,0 -0.1,0 -0.1,0 -0.1,0.1 1,-0.1 2.1,-0.3 3.1,-0.5 4.2,-0.6 8.3,-1.3 12.3,-2.3 -5,0.9 -10,1.8 -15.3,2.7 z m 0,0 c 0,0 0,0.1 0,0 -0.1,0 -0.1,0 -0.1,0.1 1,-0.1 2.1,-0.3 3.1,-0.5 4.2,-0.6 8.3,-1.3 12.3,-2.3 -5,0.9 -10,1.8 -15.3,2.7 z m -16.5,81.5 c -6.3,1.1 -12.7,2.3 -19.4,3.4 0,0 -0.1,0 -0.1,0.1 3.4,-0.5 6.7,-1 10,-1.5 3.1,-0.7 6.3,-1.3 9.5,-2 z m 0,0 c -6.3,1.1 -12.7,2.3 -19.4,3.4 0,0 -0.1,0 -0.1,0.1 3.4,-0.5 6.7,-1 10,-1.5 3.1,-0.7 6.3,-1.3 9.5,-2 z m 16.4,-81.4 z m 15.4,-2.7 c -4,0.9 -8.1,1.6 -12.3,2.3 4.2,-0.7 8.3,-1.5 12.3,-2.3 z m 50.5,-167.00002 c 0.3,-0.1 0.7,-0.1 1.1,-0.2 l -7.1,0.8 c -0.4,0.2 -0.8,0.4 -1.2,0.6 2.3,-0.5 4.8,-0.9 7.2,-1.2 z m 83.6,-531.8 c -27.1,16 -72.2,61.3 -125.8,127 l 49.3,93.2 c 34.7,-49.5 69.9,-94.2 105.4,-132.3 2.8,-3 4.1,-4.4 4.1,-4.4 -1.3,1.4 -2.8,3 -4.1,4.4 -11.5,12.6 -46.4,53.4 -99,134.2 50.7,-2.5 128.5,-12.9 192,-23.7 19,-105.9 -18.5,-154.3 -18.5,-154.3 0,0 -47.6,-77 -103.4,-44.1 z"
             inkscape:connector-curvature="0" />
        </g>
      </g>
    </clipPath>
    <filter
       style="color-interpolation-filters:sRGB"
       inkscape:label="Drop Shadow"
       id="filter7055">
      <feFlood
         flood-opacity="0.588235"
         flood-color="rgb(30,62,105)"
         result="flood"
         id="feFlood7045" />
      <feComposite
         in="flood"
         in2="SourceGraphic"
         operator="in"
         result="composite1"
         id="feComposite7047" />
      <feGaussianBlur
         in="composite1"
         stdDeviation="1.1"
         result="blur"
         id="feGaussianBlur7049" />
      <feOffset
         dx="1.1"
         dy="1.06952"
         result="offset"
         id="feOffset7051" />
      <feComposite
         in="SourceGraphic"
         in2="offset"
         operator="over"
         result="composite2"
         id="feComposite7053" />
    </filter>
  </defs>
  <sodipodi:namedview
     id="base"
     pagecolor="#ffffff"
     bordercolor="#666666"
     borderopacity="1.0"
     inkscape:pageopacity="0.0"
     inkscape:pageshadow="2"
     inkscape:zoom="2.8"
     inkscape:cx="-44.564152"
     inkscape:cy="114.80095"
     inkscape:document-units="mm"
     inkscape:current-layer="layer1"
     showgrid="false"
     inkscape:window-width="3726"
     inkscape:window-height="2049"
     inkscape:window-x="114"
     inkscape:window-y="55"
     inkscape:window-maximized="1"
     fit-margin-top="0"
     fit-margin-left="0"
     fit-margin-right="0"
     fit-margin-bottom="0" />
  <metadata
     id="metadata3158">
    <rdf:RDF>
      <cc:Work
         rdf:about="">
        <dc:format>image/svg+xml</dc:format>
        <dc:type
           rdf:resource="http://purl.org/dc/dcmitype/StillImage" />
        <dc:title></dc:title>
      </cc:Work>
    </rdf:RDF>
  </metadata>
  <g
     inkscape:label="Layer 1"
     inkscape:groupmode="layer"
     id="layer1"
     transform="translate(60.604384,-97.8509)">
    <rect
       style="opacity:1;fill:#1376c2;fill-opacity:1;stroke:#ffffff;stroke-width:1.20000005;stroke-linecap:round;stroke-linejoin:bevel;stroke-miterlimit:4;stroke-dasharray:none;stroke-opacity:1;filter:url(#filter7055)"
       id="rect3717"
       width="63.34288"
       height="63.34288"
       x="-54.270096"
       y="104.18519" />
    <rect
       style="opacity:1;fill:#c5def1;fill-opacity:0.40705884;stroke:#fff6f6;stroke-width:1.20000005;stroke-linecap:round;stroke-linejoin:bevel;stroke-miterlimit:4;stroke-dasharray:none;stroke-opacity:1"
       id="rect3717-8"
       width="63.34288"
       height="63.34288"
       x="-132.87457"
       y="93.349396"
       clip-path="url(#clipPath6443)"
       transform="translate(78.604477,10.835793)" />
    <g
       aria-label="TM"
       style="font-style:normal;font-variant:normal;font-weight:normal;font-stretch:normal;font-size:5.14761543px;line-height:125%;font-family:'Myriad Pro';-inkscape-font-specification:'Myriad Pro';letter-spacing:0px;word-spacing:0px;fill:#ffffff;fill-opacity:1;stroke:none;stroke-width:0.187186px;stroke-linecap:butt;stroke-linejoin:miter;stroke-opacity:1"
       id="text3725">
      <path
         d="m 1.9732613,110.03222 h 0.4529901 v -3.08857 h 1.0604088 v -0.38092 H 0.91800012 v 0.38092 H 1.9732613 Z"
         style="fill:#ffffff;fill-opacity:1;stroke-width:0.187186px"
         id="path7057" />
      <path
         d="M 6.8794213,110.03222 H 7.3169686 L 7.1007687,106.56273 H 6.5293834 l -0.6177138,1.67812 c -0.1544285,0.43755 -0.2779713,0.81847 -0.3654807,1.16851 H 5.530746 C 5.4432366,109.04902 5.3248414,108.6681 5.1807082,108.24085 L 4.5887324,106.56273 H 4.0173471 l -0.2419379,3.46949 h 0.427252 l 0.092657,-1.48766 c 0.030886,-0.51991 0.056624,-1.10159 0.066919,-1.53399 h 0.010295 c 0.097805,0.41181 0.2367903,0.85965 0.401514,1.34867 l 0.56109,1.65239 h 0.3397427 l 0.6125662,-1.68327 c 0.1750189,-0.47358 0.3191522,-0.91113 0.4375473,-1.31779 h 0.015443 c -0.00515,0.4324 0.025738,1.01408 0.051476,1.49795 z"
         style="fill:#ffffff;fill-opacity:1;stroke-width:0.187186px"
         id="path7059" />
    </g>
    <g
       aria-label="G"
       transform="scale(1.0021429,0.99786169)"
       style="font-style:normal;font-variant:normal;font-weight:normal;font-stretch:normal;font-size:92.78355408px;line-height:125%;font-family:'Myriad Pro';-inkscape-font-specification:'Myriad Pro';letter-spacing:0px;word-spacing:0px;fill:#000000;fill-opacity:1;stroke:none;stroke-width:3.37394738px;stroke-linecap:butt;stroke-linejoin:miter;stroke-opacity:1"
       id="text3721">
      <path
         d="M -0.10878862,104.24809 1.4768678,123.6384 h -1.58565642 q -2.40113688,-7.24871 -6.20671238,-10.91838 -5.481841,-5.30062 -14.08969,-5.30062 -11.733858,0 -17.849961,9.28742 -5.119405,7.83767 -5.119405,18.66544 0,8.78907 3.397835,16.03778 3.397835,7.24872 8.879676,10.64655 5.527145,3.35253 11.326118,3.35253 3.397835,0 6.569148,-0.86078 3.171313,-0.86079 6.116103,-2.53705 v -17.75935 q 0,-4.62106 -0.7248715,-6.0255 -0.679567,-1.44974 -2.1746145,-2.17461 -1.449743,-0.77018 -5.16471,-0.77018 v -1.72157 H 8.634974 v 1.72157 H 7.5023623 q -3.5337486,0 -4.8475783,2.35583 -0.9060894,1.67627 -0.9060894,6.61446 v 18.80135 q -5.210014,2.80888 -10.2841146,4.12271 -5.074101,1.31383 -11.280813,1.31383 -17.804657,0 -27.046768,-11.41673 -6.931584,-8.56254 -6.931584,-19.75275 0,-8.1095 3.896184,-15.53943 4.621056,-8.83437 12.685252,-13.59134 6.750366,-3.94149 15.947173,-3.94149 3.352531,0 6.070799,0.54365 2.763573,0.54366 7.7923688,2.40114 2.5370503,0.95139 3.3978352,0.95139 0.8607849,0 1.449743,-0.77017 0.6342626,-0.81548 0.770176,-3.12601 z"
         style="font-style:normal;font-variant:normal;font-weight:normal;font-stretch:normal;font-family:'Times New Roman';-inkscape-font-specification:'Times New Roman, ';fill:#ffffff;fill-opacity:1;stroke-width:3.37394738px"
         id="path7062" />
    </g>
  </g>
</svg>
