<?xml version="1.0" encoding="UTF-8" standalone="no"?>
<!DOCTYPE svg PUBLIC "-//W3C//DTD SVG 1.1//EN" "http://www.w3.org/Graphics/SVG/1.1/DTD/svg11.dtd">
<!-- Created with Vectornator (http://vectornator.io/) -->
<svg height="100%" stroke-miterlimit="10" style="fill-rule:nonzero;clip-rule:evenodd;stroke-linecap:round;stroke-linejoin:round;" version="1.1" viewBox="0 0 102.324 115.68" width="100%" xml:space="preserve" xmlns="http://www.w3.org/2000/svg" xmlns:vectornator="http://vectornator.io" xmlns:xlink="http://www.w3.org/1999/xlink">
<defs/>
<clipPath id="ArtboardFrame">
<rect height="115.68" width="102.324" x="0" y="0"/>
</clipPath>
<g clip-path="url(#ArtboardFrame)" id="Untitled" vectornator:layerName="Untitled">
<g opacity="1" vectornator:layerName="coreui-base">
<g opacity="1" vectornator:layerName="Group">
<path d="M96 25.1244L57 2.6077C53.2872 0.464106 48.7128 0.464106 45 2.6077L6 25.1243C2.29226 27.273 0.0069326 31.2313 0 35.5167L0 80.55C0.00684534 84.8353 2.2922 88.7937 6 90.9423L45 113.459C48.7128 115.603 53.2872 115.603 57 113.459L96 90.9423C99.7078 88.7937 101.993 84.8353 102 80.55L102 35.5167C101.993 31.2314 99.7078 27.273 96 25.1244ZM94 80.55C94 81.9791 93.2376 83.2996 92 84.0141L53 106.531C51.7624 107.245 50.2376 107.245 49 106.531L10 84.0141C8.7624 83.2996 8 81.9791 8 80.55L8 35.5167C8 34.0876 8.7624 32.7671 10 32.0526L49 9.5359C50.2376 8.82137 51.7624 8.82137 53 9.5359L92 32.0526C93.2376 32.7671 94 34.0876 94 35.5167L94 80.55Z" fill="#000000" fill-rule="nonzero" opacity="1" stroke="none" vectornator:layerName="path"/>
<path d="M74.0216 71.0713L71.1556 71.0713C70.4828 71.0713 69.8208 71.241 69.231 71.5648L51.95 81.05L32 69.5315L32 46.554L51.95 35.0354L69.2394 44.4904C69.8279 44.8122 70.4879 44.9809 71.1586 44.9809L74.0218 44.9809C75.1264 44.9809 76.0218 44.0855 76.0218 42.9809L76.0218 40.2691C76.0218 39.5381 75.6231 38.8653 74.9818 38.5144L55.793 28.0188C53.3405 26.685 50.3715 26.719 47.9502 28.1088L28 39.6262C25.5283 41.059 24.0049 43.6979 24 46.5549L24 69.5309C24 72.3891 25.5248 75.0301 28 76.4592L47.95 87.9778C50.372 89.3664 53.3408 89.3996 55.7933 88.0657L74.9833 77.5345C75.6233 77.1833 76.0211 76.5112 76.0211 75.7812L76.0211 73.0712C76.021 71.9669 75.1259 71.0716 74.0216 71.0713Z" fill="#000000" fill-rule="nonzero" opacity="1" stroke="none" vectornator:layerName="path"/>
</g>
<g opacity="1" vectornator:layerName="Group">
<path d="M168.745 34.4285C160.464 34.4376 153.754 41.1477 153.745 49.428L153.745 66.7054C153.745 74.9897 160.46 81.7054 168.745 81.7054C177.029 81.7054 183.745 74.9897 183.745 66.7054L183.745 49.428C183.735 41.1477 177.025 34.4376 168.745 34.4285L168.745 34.4285ZM175.745 66.7054C175.745 70.5714 172.611 73.7054 168.745 73.7054C164.879 73.7054 161.745 70.5714 161.745 66.7054L161.745 49.428C161.745 45.562 164.879 42.428 168.745 42.428C172.611 42.428 175.745 45.562 175.745 49.428L175.745 66.7054Z" fill="#000000" fill-rule="nonzero" opacity="1" stroke="none" vectornator:layerName="path"/>
<path d="M132.079 42.4878C133.929 42.2448 135.799 42.7493 137.276 43.8896C138.753 45.0299 139.714 46.7118 139.947 48.563C140.01 49.0584 140.432 49.4294 140.931 49.428L146.962 49.428C147.243 49.4256 147.511 49.3059 147.701 49.0976C147.89 48.8894 147.984 48.6115 147.96 48.3309C147.355 40.2062 140.382 34.0461 132.244 34.4472C124.161 34.9999 117.913 41.7622 118 49.8635L118 66.27C117.913 74.3713 124.161 81.1336 132.244 81.6863C140.381 82.0872 147.354 75.9271 147.96 67.8025C147.984 67.5219 147.89 67.244 147.7 67.0357C147.511 66.8275 147.243 66.7077 146.961 66.7054L140.931 66.7054C140.431 66.704 140.009 67.075 139.947 67.5704C139.714 69.4217 138.752 71.1037 137.276 72.2441C135.799 73.3845 133.928 73.8891 132.078 73.6461C128.543 73.1044 125.948 70.0378 126 66.4612L126 49.6724C125.948 46.0958 128.543 43.0292 132.079 42.4878L132.079 42.4878Z" fill="#000000" fill-rule="nonzero" opacity="1" stroke="none" vectornator:layerName="path"/>
<path d="M214.922 61.9944C219.288 60.0371 222.1 55.7015 222.106 50.9173L222.106 47.2161C222.106 40.5062 216.667 35.0667 209.957 35.0667L193 35.0667C192.448 35.0667 192 35.5144 192 36.0667L192 80.0667C192 80.619 192.448 81.0667 193 81.0667L199 81.0667C199.552 81.0667 200 80.619 200 80.0667L200 63.0667L206.621 63.0667L214.537 80.4805C214.699 80.8374 215.055 81.0667 215.447 81.0667L222.038 81.0667C222.378 81.0667 222.695 80.8938 222.879 80.6079C223.062 80.3221 223.089 79.9624 222.948 79.6529L214.922 61.9944ZM214.106 50.9173C214.104 53.2078 212.248 55.064 209.957 55.0667L200.106 55.0667L200.106 43.0667L209.957 43.0667C212.248 43.0694 214.104 44.9256 214.106 47.2161L214.106 50.9173Z" fill="#000000" fill-rule="nonzero" opacity="1" stroke="none" vectornator:layerName="path"/>
<path d="M257 35.0667L231 35.0667C230.448 35.0667 230 35.5144 230 36.0667L230 80.0667C230 80.619 230.448 81.0667 231 81.0667L257 81.0667C257.552 81.0667 258 80.619 258 80.0667L258 74.0667C258 73.5144 257.552 73.0667 257 73.0667L238 73.0667L238 61.0667L251 61.0667C251.552 61.0667 252 60.619 252 60.0667L252 54.0667C252 53.5144 251.552 53.0667 251 53.0667L238 53.0667L238 43.0667L257 43.0667C257.552 43.0667 258 42.619 258 42.0667L258 36.0667C258 35.5144 257.552 35.0667 257 35.0667Z" fill="#000000" fill-rule="nonzero" opacity="1" stroke="none" vectornator:layerName="path"/>
<path d="M295 35.0667L289 35.0667C288.448 35.0667 288 35.5144 288 36.0667L288 58.7142C288.112 61.2876 286.803 63.7148 284.591 65.0348C282.379 66.3549 279.621 66.3549 277.409 65.0348C275.197 63.7148 273.888 61.2876 274 58.7142L274 36.0667C274 35.5144 273.552 35.0667 273 35.0667L267 35.0667C266.448 35.0667 266 35.5144 266 36.0667L266 58.7142C265.89 64.1459 268.724 69.2129 273.411 71.9611C278.097 74.7093 283.903 74.7093 288.589 71.9611C293.276 69.2129 296.11 64.1459 296 58.7142L296 36.0667C296 35.5144 295.552 35.0667 295 35.0667Z" fill="#000000" fill-rule="nonzero" opacity="1" stroke="none" vectornator:layerName="path"/>
<path d="M305 35.0667L311 35.0667C311.552 35.0667 312 35.5144 312 36.0667L312 72.0667C312 72.619 311.552 73.0667 311 73.0667L305 73.0667C304.448 73.0667 304 72.619 304 72.0667L304 36.0667C304 35.5144 304.448 35.0667 305 35.0667Z" fill="#000000" fill-rule="nonzero" opacity="1" stroke="none" vectornator:layerName="rect"/>
</g>
</g>
<g opacity="1" vectornator:layerName="coreui-base">
<g opacity="1" vectornator:layerName="Group">
<path d="M96 25.1244L57 2.6077C53.2872 0.464106 48.7128 0.464106 45 2.6077L6 25.1243C2.29226 27.273 0.0069326 31.2313 0 35.5167L0 80.55C0.00684534 84.8353 2.2922 88.7937 6 90.9423L45 113.459C48.7128 115.603 53.2872 115.603 57 113.459L96 90.9423C99.7078 88.7937 101.993 84.8353 102 80.55L102 35.5167C101.993 31.2314 99.7078 27.273 96 25.1244ZM94 80.55C94 81.9791 93.2376 83.2996 92 84.0141L53 106.531C51.7624 107.245 50.2376 107.245 49 106.531L10 84.0141C8.7624 83.2996 8 81.9791 8 80.55L8 35.5167C8 34.0876 8.7624 32.7671 10 32.0526L49 9.5359C50.2376 8.82137 51.7624 8.82137 53 9.5359L92 32.0526C93.2376 32.7671 94 34.0876 94 35.5167L94 80.55Z" fill="#000000" fill-rule="nonzero" opacity="1" stroke="none" vectornator:layerName="path"/>
<path d="M74.0216 71.0713L71.1556 71.0713C70.4828 71.0713 69.8208 71.241 69.231 71.5648L51.95 81.05L32 69.5315L32 46.554L51.95 35.0354L69.2394 44.4904C69.8279 44.8122 70.4879 44.9809 71.1586 44.9809L74.0218 44.9809C75.1264 44.9809 76.0218 44.0855 76.0218 42.9809L76.0218 40.2691C76.0218 39.5381 75.6231 38.8653 74.9818 38.5144L55.793 28.0188C53.3405 26.685 50.3715 26.719 47.9502 28.1088L28 39.6262C25.5283 41.059 24.0049 43.6979 24 46.5549L24 69.5309C24 72.3891 25.5248 75.0301 28 76.4592L47.95 87.9778C50.372 89.3664 53.3408 89.3996 55.7933 88.0657L74.9833 77.5345C75.6233 77.1833 76.0211 76.5112 76.0211 75.7812L76.0211 73.0712C76.021 71.9669 75.1259 71.0716 74.0216 71.0713Z" fill="#000000" fill-rule="nonzero" opacity="1" stroke="none" vectornator:layerName="path"/>
</g>
<g opacity="1" vectornator:layerName="Group">
<path d="M168.745 34.4285C160.464 34.4376 153.754 41.1477 153.745 49.428L153.745 66.7054C153.745 74.9897 160.46 81.7054 168.745 81.7054C177.029 81.7054 183.745 74.9897 183.745 66.7054L183.745 49.428C183.735 41.1477 177.025 34.4376 168.745 34.4285L168.745 34.4285ZM175.745 66.7054C175.745 70.5714 172.611 73.7054 168.745 73.7054C164.879 73.7054 161.745 70.5714 161.745 66.7054L161.745 49.428C161.745 45.562 164.879 42.428 168.745 42.428C172.611 42.428 175.745 45.562 175.745 49.428L175.745 66.7054Z" fill="#000000" fill-rule="nonzero" opacity="1" stroke="none" vectornator:layerName="path"/>
<path d="M132.079 42.4878C133.929 42.2448 135.799 42.7493 137.276 43.8896C138.753 45.0299 139.714 46.7118 139.947 48.563C140.01 49.0584 140.432 49.4294 140.931 49.428L146.962 49.428C147.243 49.4256 147.511 49.3059 147.701 49.0976C147.89 48.8894 147.984 48.6115 147.96 48.3309C147.355 40.2062 140.382 34.0461 132.244 34.4472C124.161 34.9999 117.913 41.7622 118 49.8635L118 66.27C117.913 74.3713 124.161 81.1336 132.244 81.6863C140.381 82.0872 147.354 75.9271 147.96 67.8025C147.984 67.5219 147.89 67.244 147.7 67.0357C147.511 66.8275 147.243 66.7077 146.961 66.7054L140.931 66.7054C140.431 66.704 140.009 67.075 139.947 67.5704C139.714 69.4217 138.752 71.1037 137.276 72.2441C135.799 73.3845 133.928 73.8891 132.078 73.6461C128.543 73.1044 125.948 70.0378 126 66.4612L126 49.6724C125.948 46.0958 128.543 43.0292 132.079 42.4878L132.079 42.4878Z" fill="#000000" fill-rule="nonzero" opacity="1" stroke="none" vectornator:layerName="path"/>
<path d="M214.922 61.9944C219.288 60.0371 222.1 55.7015 222.106 50.9173L222.106 47.2161C222.106 40.5062 216.667 35.0667 209.957 35.0667L193 35.0667C192.448 35.0667 192 35.5144 192 36.0667L192 80.0667C192 80.619 192.448 81.0667 193 81.0667L199 81.0667C199.552 81.0667 200 80.619 200 80.0667L200 63.0667L206.621 63.0667L214.537 80.4805C214.699 80.8374 215.055 81.0667 215.447 81.0667L222.038 81.0667C222.378 81.0667 222.695 80.8938 222.879 80.6079C223.062 80.3221 223.089 79.9624 222.948 79.6529L214.922 61.9944ZM214.106 50.9173C214.104 53.2078 212.248 55.064 209.958 55.0667L200.106 55.0667L200.106 43.0667L209.958 43.0667C212.248 43.0694 214.104 44.9256 214.106 47.2161L214.106 50.9173Z" fill="#000000" fill-rule="nonzero" opacity="1" stroke="none" vectornator:layerName="path"/>
<path d="M257 35.0667L231 35.0667C230.448 35.0667 230 35.5144 230 36.0667L230 80.0667C230 80.619 230.448 81.0667 231 81.0667L257 81.0667C257.552 81.0667 258 80.619 258 80.0667L258 74.0667C258 73.5144 257.552 73.0667 257 73.0667L238 73.0667L238 61.0667L251 61.0667C251.552 61.0667 252 60.619 252 60.0667L252 54.0667C252 53.5144 251.552 53.0667 251 53.0667L238 53.0667L238 43.0667L257 43.0667C257.552 43.0667 258 42.619 258 42.0667L258 36.0667C258 35.5144 257.552 35.0667 257 35.0667Z" fill="#000000" fill-rule="nonzero" opacity="1" stroke="none" vectornator:layerName="path"/>
<path d="M295 35.0667L289 35.0667C288.448 35.0667 288 35.5144 288 36.0667L288 58.7142C288.112 61.2876 286.803 63.7148 284.591 65.0348C282.379 66.3549 279.621 66.3549 277.409 65.0348C275.197 63.7148 273.888 61.2876 274 58.7142L274 36.0667C274 35.5144 273.552 35.0667 273 35.0667L267 35.0667C266.448 35.0667 266 35.5144 266 36.0667L266 58.7142C265.89 64.1459 268.724 69.2129 273.411 71.9611C278.097 74.7093 283.903 74.7093 288.589 71.9611C293.276 69.2129 296.11 64.1459 296 58.7142L296 36.0667C296 35.5144 295.552 35.0667 295 35.0667Z" fill="#000000" fill-rule="nonzero" opacity="1" stroke="none" vectornator:layerName="path"/>
<path d="M305 35.0667L311 35.0667C311.552 35.0667 312 35.5144 312 36.0667L312 72.0667C312 72.619 311.552 73.0667 311 73.0667L305 73.0667C304.448 73.0667 304 72.619 304 72.0667L304 36.0667C304 35.5144 304.448 35.0667 305 35.0667Z" fill="#000000" fill-rule="nonzero" opacity="1" stroke="none" vectornator:layerName="rect"/>
</g>
</g>
</g>
</svg>
