<?xml version="1.0" encoding="UTF-8"?>
<svg width="32px" height="32px" viewBox="0 0 32 32" version="1.1" xmlns="http://www.w3.org/2000/svg" xmlns:xlink="http://www.w3.org/1999/xlink">
    <title>aspdotnetmvc</title>
    <g id="aspdotnetmvc" stroke="none" stroke-width="1" fill="none" fill-rule="evenodd">
        <g id="ICONS" transform="translate(0.008358, 0.142088)" fill="#633BA3" fill-rule="nonzero">
            <path d="M15.8971487,0 C24.6769014,0 31.7942973,7.11739589 31.7942973,15.8971487 C31.7942973,24.6769014 24.6769014,31.7942973 15.8971487,31.7942973 C7.11739589,31.7942973 0,24.6769014 0,15.8971487 C0,7.11739589 7.11739589,0 15.8971487,0 Z M20.3429686,22.8579119 C20.0531283,22.8579119 19.784388,22.9092753 19.5367396,23.0120035 C19.2890912,23.1147317 19.0744658,23.2568981 18.892857,23.4385069 C18.7112482,23.6201157 18.5690818,23.8356583 18.4663536,24.0851411 C18.3636254,24.3346239 18.3122621,24.6079502 18.3122621,24.9051283 C18.3122621,25.2023063 18.3627082,25.4756327 18.463602,25.7251155 C18.5644958,25.9745983 18.7048278,26.1901409 18.8846021,26.3717497 C19.0643765,26.5533585 19.2790019,26.6955249 19.5284847,26.7982531 C19.7779675,26.9009813 20.0494594,26.9523446 20.3429686,26.9523446 C20.5190741,26.9523446 20.681419,26.9330834 20.830008,26.8945603 C20.978597,26.8560372 21.114343,26.8037567 21.23725,26.7377171 C21.3601569,26.6716776 21.4683868,26.5946326 21.5619429,26.5065798 C21.6554989,26.418527 21.7352956,26.3249724 21.8013351,26.225913 L21.8013351,26.225913 L21.493152,26.0277953 C21.357404,26.2295829 21.1886388,26.3763353 20.9868512,26.4680569 C20.7850636,26.5597785 20.5722727,26.6056386 20.3484719,26.6056386 C20.0989891,26.6056386 19.8742745,26.5597785 19.6743213,26.4680569 C19.4743682,26.3763353 19.3046858,26.252513 19.1652689,26.0965862 C19.025852,25.9406594 18.9185393,25.7599706 18.8433276,25.5545141 C18.7681159,25.3490577 18.7305106,25.1325979 18.7305106,24.9051283 C18.7305106,24.6776587 18.7671987,24.4611989 18.840576,24.2557424 C18.9139533,24.050286 19.0203488,23.8695971 19.1597656,23.7136704 C19.2991825,23.5577436 19.4688649,23.4339213 19.6688181,23.3421997 C19.8687712,23.250478 20.0953202,23.2046179 20.3484719,23.2046179 C20.4732133,23.2046179 20.589698,23.2192932 20.6979295,23.2486441 C20.806161,23.277995 20.9061361,23.3165175 20.9978577,23.3642127 C21.0895794,23.411908 21.169376,23.4669401 21.23725,23.5293108 C21.305124,23.5916815 21.3592389,23.6540513 21.3995964,23.716422 L21.3995964,23.716422 L21.7297926,23.4742781 C21.663753,23.3788877 21.5812048,23.2935878 21.4821455,23.2183761 C21.3830861,23.1431644 21.2730218,23.0789602 21.1519493,23.0257616 C21.0308767,22.9725631 20.9015512,22.931289 20.7639688,22.9019381 C20.6263863,22.8725872 20.4860544,22.8579119 20.3429686,22.8579119 Z M10.5970016,22.9569708 L9.99164188,22.9569708 L9.99164188,26.8532858 L10.3878773,26.8532858 L10.3878773,23.4687749 L10.3988838,23.4687749 L11.8077209,26.8532858 L12.0168452,26.8532858 L13.4256822,23.4687749 L13.4366888,23.4687749 L13.4366888,26.8532858 L13.8329242,26.8532858 L13.8329242,22.9569708 L13.2275645,22.9569708 L11.9232896,26.1818869 L11.9177863,26.1818869 L10.5970016,22.9569708 Z M14.9416712,22.9569708 L14.5124161,22.9569708 L15.998299,26.8532858 L16.4165475,26.8532858 L17.9079336,22.9569708 L17.4841818,22.9569708 L16.2184298,26.3414817 L16.2074232,26.3414817 L14.9416712,22.9569708 Z M7.31660741,19.5036784 C7.17771437,19.50112 7.04418448,19.5572633 6.94885003,19.6583037 C6.85038953,19.7567847 6.79609995,19.8910006 6.79840383,20.0302402 C6.7962717,20.1682189 6.85062201,20.3010752 6.94885003,20.3979975 C7.04418448,20.499038 7.17771437,20.5551812 7.31660741,20.5526228 C7.60579518,20.5526319 7.84087398,20.3194188 7.84316912,20.0302402 C7.84486194,19.8902935 7.78895077,19.7558044 7.68854386,19.6583037 C7.59132935,19.5574766 7.45665015,19.5014863 7.31660741,19.5036784 Z M9.66523979,13.7741856 L8.64972793,13.7741856 L8.64972793,20.4606835 L9.43121236,20.4606835 L9.43121236,15.6255097 C9.43904847,15.3199412 9.42648337,15.0141904 9.39360081,14.7102953 L9.39360081,14.7102953 L9.42285424,14.7102953 C9.47884638,14.8567751 9.5502941,14.9968687 9.63598636,15.1282014 L9.63598636,15.1282014 L13.0711746,20.4606835 L14.0323587,20.4606835 L14.0156425,13.7741856 L13.234158,13.7741856 L13.2342866,18.8077912 C13.2394427,19.0263562 13.2547341,19.2446234 13.2801277,19.4618878 L13.2801277,19.4618878 L13.2492026,19.4052198 C13.2001683,19.3187411 13.1199303,19.1885772 13.0084887,19.0147283 L13.0084887,19.0147283 L9.66523979,13.7741856 Z M18.5039541,13.7741856 L15.1147355,13.7741856 L15.1147355,20.4606835 L18.6544003,20.4606835 L18.6544003,19.7377059 L15.89622,19.7377059 L15.89622,17.4016107 L18.3075383,17.4016107 L18.3075383,16.6995284 L15.89622,16.6995284 L15.89622,14.4804469 L18.5039541,14.4804469 L18.5039541,13.7741856 Z M23.890764,13.7741856 L19.2561852,13.7741856 L19.2561852,14.4804469 L21.1785533,14.4804469 L21.1785533,20.4606835 L21.9600377,20.4606835 L21.9600377,14.4804469 L23.8865849,14.4804469 L23.890764,13.7741856 Z M17.9469528,5.06765775 L17.7015744,5.07338025 C17.4195578,5.07502561 17.1388257,5.11152079 16.8657622,5.18203584 C16.601053,5.24754317 16.3494778,5.35778398 16.1218893,5.50800261 C15.9066916,5.65118516 15.7266773,5.84120024 15.5953276,6.06381775 C15.3576134,6.5097096 15.3315574,7.0384919 15.5242835,7.50559385 C15.612033,7.68401141 15.7309091,7.84534325 15.8753247,7.98200682 C16.0333706,8.14201088 16.2101728,8.28233005 16.4018864,8.39991294 C16.6024813,8.52249873 16.8197925,8.64229848 17.0538199,8.7593122 L17.0538199,8.7593122 L17.6681419,9.0602046 C17.8430592,9.15101806 18.0094932,9.25731206 18.1654502,9.37781325 C18.2969341,9.47765782 18.4088579,9.60091569 18.495596,9.74139157 C18.7265839,10.1624324 18.6267021,10.6881261 18.2573895,10.9951099 C17.9354866,11.196439 17.5578688,11.2901117 17.1791918,11.2625698 C17.0264525,11.2613733 16.8740814,11.2473943 16.7236741,11.2207792 C16.556805,11.1931482 16.3920383,11.1540511 16.2305449,11.1037655 C16.071061,11.0538037 15.9159207,10.990909 15.7666691,10.9157078 C15.6297811,10.8485967 15.5019898,10.7643387 15.3863745,10.6649641 L15.3863745,10.6649641 L15.3863745,11.5843575 C15.4910445,11.6473222 15.6034182,11.6964857 15.7206994,11.7306247 C15.8712227,11.7806757 16.0247616,11.8211541 16.1803961,11.8518175 C16.3419865,11.8852499 16.5007908,11.9103243 16.6568091,11.9270406 C16.7872027,11.9425025 16.9183396,11.9508729 17.0496409,11.9521307 C17.3531308,11.9529475 17.6558084,11.920718 17.9523181,11.8559965 C18.2210913,11.7995356 18.4773828,11.6947534 18.7087281,11.546746 C18.9256432,11.4069265 19.1049991,11.2160919 19.2311108,10.9909309 C19.366785,10.7337853 19.4330447,10.4456996 19.4233476,10.1551186 C19.4273818,9.92702431 19.3787592,9.70107221 19.2812595,9.49482696 C19.1840182,9.2986953 19.0539907,9.12061405 18.8967859,8.96826525 C18.7252254,8.80797025 18.5359448,8.66776242 18.3326126,8.55035914 C18.1125154,8.41662918 17.8854531,8.29265037 17.6514257,8.17842269 C17.4173982,8.06419502 17.2112312,7.95832547 17.0329246,7.86081405 C16.8718073,7.77694177 16.719247,7.67756766 16.577407,7.5641007 C16.4618334,7.47167674 16.3665231,7.35645081 16.2974099,7.22559675 C16.2302023,7.08781854 16.1972298,6.93585855 16.2012914,6.78261627 C16.1967749,6.61905247 16.2403673,6.45776035 16.3266633,6.31874048 C16.4102688,6.19099959 16.52171,6.08384463 16.6526301,6.00531089 C16.7933887,5.92133725 16.9474355,5.86197976 17.1081477,5.82979032 C17.2771319,5.79384308 17.449407,5.77563514 17.6221722,5.77546253 C18.1588063,5.75524256 18.6885974,5.90119053 19.1391714,6.19336864 L19.1391714,6.19336864 L19.1391714,5.31158674 C18.6840477,5.12485908 18.1926016,5.0434276 17.7015744,5.07338025 Z M12.1434231,5.16949866 L11.3326852,5.16949866 L8.7709207,11.8559965 L9.64434448,11.8559965 L10.3088152,9.98377712 L13.1255024,9.98377712 L13.84848,11.8559965 L14.7135457,11.8559965 L12.1434231,5.16949866 Z M22.4196974,5.14757259 L22.2191395,5.15278241 L20.3845317,5.15278241 L20.3845317,11.8392803 L21.1660161,11.8392803 L21.1660161,9.33184358 L22.0561561,9.30676921 C22.7014712,9.34010362 23.334743,9.12302463 23.823899,8.70080534 C24.2586352,8.30292872 24.498226,7.73523584 24.4800116,7.14619459 C24.5127905,6.59251479 24.2967189,6.05310207 23.890764,5.67516506 C23.4183293,5.29842018 22.8220277,5.11207592 22.2191395,5.15278241 Z M11.729696,5.98859465 L11.7561195,6.13954869 C11.7765542,6.23962977 11.8026086,6.3385223 11.8341725,6.43575419 L11.8341725,6.43575419 L12.8831169,9.28169484 L10.5804542,9.28169484 L11.6210404,6.43575419 C11.6707317,6.29030076 11.7070998,6.14063191 11.729696,5.98859465 L11.729696,5.98859465 Z M22.1104839,5.88411812 C23.1524632,5.88411812 23.6734528,6.32431256 23.6734528,7.20470144 C23.6981114,7.59804311 23.544673,7.98163903 23.2555467,8.24946673 C22.8976958,8.52359258 22.451276,8.65603047 22.0018283,8.62140318 L22.0018283,8.62140318 L21.1660161,8.62140318 L21.1660161,5.88411812 Z" id="Oval-2"></path>
        </g>
    </g>
</svg>