<?xml version="1.0" encoding="UTF-8"?>
<svg width="128px" height="128px" viewBox="0 0 128 128" version="1.1" xmlns="http://www.w3.org/2000/svg" xmlns:xlink="http://www.w3.org/1999/xlink">
    <title>apachecamel-plain</title>
    <g id="apachecamel-plain" stroke="none" stroke-width="1" fill="none" fill-rule="evenodd">
        <g id="Apache_Camel_Logo" transform="translate(-0.105320, 1.924182)">
            <g id="g4801" transform="translate(0.000000, 0.238083)">
                <g id="g4803" transform="translate(3.025638, 0.000000)" fill="#000000" fill-rule="nonzero">
                    <path d="M61.5046747,0 C95.6160933,0 123.268862,27.6527684 123.268862,61.764187 C123.268862,95.8756055 95.6160933,123.528374 61.5046747,123.528374 C50.6285054,123.528374 40.4089258,120.717179 31.5329157,115.781768 C36.5468134,115.027664 41.4521333,113.643428 45.2196219,111.124196 C66.9560178,96.5964123 72.3529043,68.958053 81.2336891,55.606984 C86.7648371,47.2778061 112.688185,48.0005242 114.437053,44.4911584 C117.208557,38.9403547 108.900064,30.6195987 106.12849,30.6195987 L83.9826188,30.6195987 C82.4353013,30.6195987 80.0041158,27.8638648 78.4538726,27.8638648 L70.1453099,27.8638648 C70.1453099,27.8638648 66.4640817,22.2654321 63.1957687,22.0427639 C62.7288682,22.0109584 62.2750835,22.0709033 61.8367473,22.2904703 C56.3025946,25.065882 61.8367473,36.1620299 61.8367473,36.1620299 C45.2254632,50.0420215 48.7545304,73.7514795 29.3746677,73.7514795 C21.7044518,73.7514795 14.0632133,67.3309052 6.21206273,60.9616034 L5.32234365,60.2411172 C5.1739034,60.1211886 5.02538521,60.0013652 4.87678748,59.8816904 L3.98423377,59.1657737 C2.66279641,58.1106794 1.33484354,57.0741359 -0.00074592525,56.0865145 C2.86457569,24.6361128 29.307589,0 61.5046747,0 Z" id="path4805-2"></path>
                </g>
                <g id="g4811" transform="translate(0.000000, 22.034818)"></g>
            </g>
        </g>
    </g>
</svg>