<?xml version="1.0" encoding="UTF-8"?>
<svg width="128px" height="128px" viewBox="0 0 128 128" version="1.1" xmlns="http://www.w3.org/2000/svg" xmlns:xlink="http://www.w3.org/1999/xlink">
    <title>apachecamel-original</title>
    <defs>
        <linearGradient x1="-12.5587708%" y1="108.214287%" x2="101.308762%" y2="-1.96427308%" id="linearGradient-1">
            <stop stop-color="#F69923" offset="0%"></stop>
            <stop stop-color="#F79A23" offset="10.995827%"></stop>
            <stop stop-color="#E97826" offset="94.502056%"></stop>
        </linearGradient>
        <linearGradient x1="-12.5587708%" y1="108.214287%" x2="101.308762%" y2="-1.96427308%" id="linearGradient-2">
            <stop stop-color="#F69923" offset="0%"></stop>
            <stop stop-color="#F79A23" offset="8.047844%"></stop>
            <stop stop-color="#E97826" offset="41.874287%"></stop>
        </linearGradient>
        <linearGradient x1="74.6417151%" y1="-3.06262325%" x2="6.79552271%" y2="100.059123%" id="linearGradient-3">
            <stop stop-color="#F6E423" offset="0%"></stop>
            <stop stop-color="#F79A23" offset="41.190839%"></stop>
            <stop stop-color="#E97826" offset="73.270744%"></stop>
        </linearGradient>
    </defs>
    <g id="apachecamel-original" stroke="none" stroke-width="1" fill="none" fill-rule="evenodd">
        <g id="Apache_Camel_Logo" transform="translate(-1.000000, 1.000000)" fill-rule="nonzero">
            <g id="g4801" transform="translate(0.529572, 0.174654)">
                <g id="g4803" transform="translate(2.993364, 0.412502)" fill="url(#linearGradient-1)" stroke="url(#linearGradient-2)" stroke-linejoin="round" stroke-width="1.56350576">
                    <circle id="path4805" cx="61.9020573" cy="62.3392969" r="61.764187"></circle>
                </g>
                <path d="M48.9809344,34.467548 C48.1052931,34.467548 47.218227,34.4725821 46.3339974,34.4984292 C45.3060502,34.5288145 43.9250435,34.855732 42.3328136,35.3924753 C69.2299874,55.8502414 78.8991619,92.7555738 62.2771758,124.827908 C62.8416949,124.842607 63.4019098,124.889566 63.9699844,124.889566 C94.348252,124.889566 119.735249,103.685754 126.296116,75.2545968 C107.01892,52.6201628 80.874097,34.5162362 48.9809344,34.467548 L48.9809344,34.467548 Z" id="path4807" fill="url(#linearGradient-3)" opacity="0.75"></path>
                <path d="M42.9771611,35.054704 C34.0497064,38.0789028 17.0189304,48.7313542 0.644740213,62.9558453 C1.88825015,96.84133 29.1565314,124.00438 62.9127779,124.889566 C79.5274753,92.6739932 69.8625406,55.603837 42.9771611,35.054704 Z" id="path4809" fill="#28170B" opacity="0.75"></path>
                <g id="g4811" transform="translate(0.057584, 22.724429)" fill="#FFFFFF">
                    <path d="M66.528931,0.305947156 C66.0620306,0.274141651 65.6082459,0.334086606 65.1699096,0.553653578 C59.635757,3.32906532 65.1699096,14.4252132 65.1699096,14.4252132 C48.5586256,28.3052048 52.0876928,52.0146628 32.7078301,52.0146628 C22.1431931,52.0146628 11.6335296,39.8340859 0.554619107,32.3839288 C0.411995988,34.1409897 0.307524306,35.9157072 0.307524306,37.7096169 C0.307524306,61.9992925 13.6606559,83.1519743 33.3873408,94.2486176 C38.9052346,93.5518591 44.4151917,92.1540914 48.5527842,89.3873791 C70.2891802,74.8595956 75.6860667,47.2212363 84.5668515,33.8701673 C90.0979995,25.5409894 116.021348,26.2637075 117.770215,22.7543417 C120.54172,17.203538 112.233226,8.88278202 109.461653,8.88278202 L87.3157812,8.88278202 C85.7684637,8.88278202 83.3372781,6.12704807 81.787035,6.12704807 L73.4784723,6.12704807 C73.4784723,6.12704807 69.7972441,0.528615413 66.528931,0.305947156 Z" id="path4813"></path>
                </g>
            </g>
        </g>
    </g>
</svg>