<?xml version="1.0" encoding="UTF-8"?>
<svg width="32px" height="32px" viewBox="0 0 32 32" version="1.1" xmlns="http://www.w3.org/2000/svg" xmlns:xlink="http://www.w3.org/1999/xlink">
    <title>ibmcobol-plain</title>
    <g id="ibmcobol-plain" stroke="none" stroke-width="1" fill="none" fill-rule="evenodd">
        <g id="Group" fill="#000000">
            <path d="M30,0 C31.1045695,-2.02906125e-16 32,0.8954305 32,2 L32,16 L0,16 L0,2 C-1.3527075e-16,0.8954305 0.8954305,2.02906125e-16 2,0 L30,0 Z M28,12.4591454 L24.6343751,12.4591454 L24.6343751,13.1538462 L28,13.1538462 L28,12.4591454 Z M20.6621874,12.4591454 L17.3331249,12.4591454 L17.3331249,13.1538462 L20.6621874,13.1538462 L20.6621874,12.4591454 Z M8.70812488,12.4591454 L4.03656232,12.4591454 L4.03656232,13.1538462 L8.70812488,13.1538462 L8.70812488,12.4591454 Z M22.9243751,12.4591454 L22.4115626,12.4591454 L22.6459377,13.1518778 L22.68625,13.1528622 L22.9243751,12.4591454 Z M15.9906249,12.4591454 L9.33343768,12.4591454 L9.33343768,13.1528622 L14.41,13.1528622 C15.3106298,13.1528622 15.9906249,12.4591454 15.9906249,12.4591454 Z M28,11.1071361 L24.6343751,11.1071361 L24.6343751,11.8028206 L28,11.8028206 L28,11.1071361 Z M23.3696874,11.1071361 L21.9493749,11.1071361 L22.1931249,11.8028206 L23.1409374,11.8028206 L23.3696874,11.1071361 Z M20.6621874,11.1071361 L17.3331249,11.1071361 L17.3331249,11.8028206 L20.6621874,11.8028206 L20.6621874,11.1071361 Z M16.7631251,11.1071361 L9.33343768,11.1071361 L9.33343768,11.8028206 L16.525,11.8028206 C16.67635,11.6435237 16.7631251,11.1071361 16.7631251,11.1071361 Z M8.70812488,11.1071361 L4.03656232,11.1071361 L4.03656232,11.8028206 L8.70812488,11.8028206 L8.70812488,11.1071361 Z M26.6575,9.75611082 L24.6343751,9.75611082 L24.6343751,10.4508111 L26.6575,10.4508111 L26.6575,9.75611082 Z M23.8281249,9.75611082 L21.4890623,9.75611082 L21.72625,10.4508111 L23.5890623,10.4508111 L23.8281249,9.75611082 Z M20.6621874,9.75611082 L18.6390626,9.75611082 L18.6390626,10.4508111 L20.6621874,10.4508111 L20.6621874,9.75611082 Z M16.69,9.75611082 L14.6668751,9.75611082 L14.6668751,10.4508111 L16.8184374,10.4508111 C16.8184374,10.1229604 16.69,9.75611082 16.69,9.75611082 Z M12.6990623,9.75611082 L10.6759377,9.75611082 L10.6759377,10.4508111 L12.6990623,10.4508111 L12.6990623,9.75611082 Z M7.36562488,9.75611082 L5.3424999,9.75611082 L5.3424999,10.4508111 L7.36562488,10.4508111 L7.36562488,9.75611082 Z M15.8434377,8.40508548 L10.6759377,8.40508548 L10.6759377,9.09978575 L16.4134374,9.09978575 C16.2756777,8.76264556 15.8434377,8.40508548 15.8434377,8.40508548 Z M7.36562488,8.40508548 L5.3424999,8.40508548 L5.3424999,9.09978575 L7.36562488,9.09978575 L7.36562488,8.40508548 Z M20.6621874,8.40508548 L18.6390626,8.40508548 L18.6390626,9.09978575 L20.6621874,9.09978575 L20.6621874,8.40508548 Z M24.2856251,8.40508548 L21.0296874,8.40508548 L21.2743751,9.09978575 L24.0531251,9.09978575 L24.2856251,8.40508548 Z M26.6575,8.40508548 L24.6343751,8.40508548 L24.6343751,9.09978575 L26.6575,9.09978575 L26.6575,8.40508548 Z M22.4556251,7.05406015 L18.6390626,7.05406015 L18.6390626,7.74876042 L20.6621874,7.74876042 L20.6621874,7.36205042 L20.7906249,7.74876042 L24.4965626,7.74876042 L24.6343751,7.36205042 L24.6343751,7.74876042 L26.6575,7.74876042 L26.6575,7.05406015 L22.8596874,7.05406015 L22.6581249,7.64248899 L22.4556251,7.05406015 Z M16.4134374,7.05406015 L10.6759377,7.05406015 L10.6759377,7.74876042 L15.8434377,7.74876042 C15.8434379,7.74876042 16.2757074,7.39230254 16.4134374,7.05406015 Z M7.36562488,7.05406015 L5.3424999,7.05406015 L5.3424999,7.74876042 L7.36562488,7.74876042 L7.36562488,7.05406015 Z M26.6575,5.70205066 L23.2928126,5.70205066 L23.0528126,6.39773508 L26.6575,6.39773508 L26.6575,5.70205066 Z M21.9868751,5.70205066 L18.6390626,5.70205066 L18.6390626,6.39773508 L22.2259377,6.39773508 L21.9868751,5.70205066 Z M16.8184374,5.70205066 L14.6668751,5.70205066 L14.6668751,6.39773508 L16.69,6.39773508 C16.6900002,6.39773508 16.8184374,6.03034304 16.8184374,5.70205066 Z M12.6990623,5.70205066 L10.6759377,5.70205066 L10.6759377,6.39773508 L12.6990623,6.39773508 L12.6990623,5.70205066 Z M7.36562488,5.70205066 L5.3424999,5.70205066 L5.3424999,6.39773508 L7.36562488,6.39773508 L7.36562488,5.70205066 Z M27.9634374,4.35200937 L23.7334374,4.35200937 L23.5121874,5.0457259 L27.9634374,5.0457259 L27.9634374,4.35200937 Z M21.5443749,4.35200937 L17.2965626,4.35200937 L17.2965626,5.0457259 L21.7656251,5.0457259 L21.5443749,4.35200937 Z M16.525,4.35200937 L9.33343768,4.35200937 L9.33343768,5.0457259 L16.7631251,5.0457259 C16.7631251,5.0457259 16.67635,4.51105441 16.525,4.35200937 Z M8.67156256,4.35102533 L4,4.35102533 L4,5.0457259 L8.67156256,5.0457259 L8.67156256,4.35102533 Z M27.9634374,3 L24.2115626,3 L23.9725,3.69470077 L27.9634374,3.69470077 L27.9634374,3 Z M21.085,3 L17.2965626,3 L17.2965626,3.69470077 L21.3240626,3.69470077 L21.085,3 Z M14.41,3 L9.33343768,3 L9.33343768,3.69470077 L15.9906249,3.69470077 C15.9906249,3.69470077 15.31063,3 14.41,3 Z M8.67156256,3 L4,3 L4,3.69470077 L8.67156256,3.69470077 L8.67156256,3 Z" id="Combined-Shape"></path>
            <g id="COBOL" transform="translate(0.897656, 21.105469)" fill-rule="nonzero">
                <path d="M2.67578125,0 C3.40234375,0 3.96614583,0.19140625 4.3671875,0.57421875 C4.76822917,0.95703125 4.99088542,1.39192708 5.03515625,1.87890625 L4.27734375,1.87890625 C4.19140625,1.50911458 4.02018229,1.21614583 3.76367188,1 C3.50716146,0.783854167 3.14713542,0.67578125 2.68359375,0.67578125 C2.11848958,0.67578125 1.66210937,0.874348958 1.31445312,1.27148438 C0.966796875,1.66861979 0.79296875,2.27734375 0.79296875,3.09765625 C0.79296875,3.76953125 0.949869792,4.31445312 1.26367188,4.73242188 C1.57747396,5.15039062 2.04557292,5.359375 2.66796875,5.359375 C3.24088542,5.359375 3.67708333,5.13932292 3.9765625,4.69921875 C4.13541667,4.46744792 4.25390625,4.16276042 4.33203125,3.78515625 L5.08984375,3.78515625 C5.02213542,4.38932292 4.79817708,4.89583333 4.41796875,5.3046875 C3.96223958,5.796875 3.34765625,6.04296875 2.57421875,6.04296875 C1.90755208,6.04296875 1.34765625,5.84114583 0.89453125,5.4375 C0.298177083,4.90364583 0,4.07942708 0,2.96484375 C0,2.11848958 0.223958333,1.42447917 0.671875,0.8828125 C1.15625,0.294270833 1.82421875,0 2.67578125,0 Z" id="Path"></path>
                <path d="M9.09171873,0 C10.1047396,0 10.8547396,0.325520833 11.3417187,0.9765625 C11.7219271,1.484375 11.9120312,2.13411458 11.9120312,2.92578125 C11.9120312,3.78255208 11.6945833,4.49479167 11.2596875,5.0625 C10.7492708,5.72916667 10.0214062,6.0625 9.07609373,6.0625 C8.19328123,6.0625 7.49927082,5.77083333 6.99406248,5.1875 C6.54354165,4.625 6.31828123,3.9140625 6.31828123,3.0546875 C6.31828123,2.27864583 6.51098957,1.61458333 6.89640623,1.0625 C7.3911979,0.354166667 8.12296873,0 9.09171873,0 Z M9.16984373,5.3671875 C9.85473957,5.3671875 10.3501823,5.12174479 10.6561719,4.63085938 C10.9621614,4.13997396 11.1151562,3.57552083 11.1151562,2.9375 C11.1151562,2.26302083 10.9387239,1.72005208 10.5858594,1.30859375 C10.2329948,0.897135417 9.7505729,0.69140625 9.13859373,0.69140625 C8.54484373,0.69140625 8.06046873,0.895182292 7.68546873,1.30273438 C7.31046873,1.71028646 7.12296873,2.31119792 7.12296873,3.10546875 C7.12296873,3.74088542 7.28377602,4.27669271 7.60539061,4.71289062 C7.92700519,5.14908854 8.44848957,5.3671875 9.16984373,5.3671875 Z" id="Shape"></path>
                <path d="M15.5740625,2.58203125 C15.9021875,2.58203125 16.1573958,2.53645833 16.3396875,2.4453125 C16.6261458,2.30208333 16.769375,2.04427083 16.769375,1.671875 C16.769375,1.296875 16.6170312,1.04427083 16.3123437,0.9140625 C16.1404687,0.841145833 15.8852604,0.8046875 15.5467187,0.8046875 L14.16,0.8046875 L14.16,2.58203125 L15.5740625,2.58203125 Z M15.8357812,5.23046875 C16.3123437,5.23046875 16.6521875,5.09244792 16.8553125,4.81640625 C16.9829166,4.64192708 17.0467187,4.43098958 17.0467187,4.18359375 C17.0467187,3.76692708 16.8605208,3.48307292 16.488125,3.33203125 C16.2902083,3.25130208 16.0284895,3.2109375 15.7029687,3.2109375 L14.16,3.2109375 L14.16,5.23046875 L15.8357812,5.23046875 Z M13.3982812,0.15625 L15.863125,0.15625 C16.535,0.15625 17.0128645,0.356770833 17.2967187,0.7578125 C17.4633854,0.994791667 17.5467187,1.26822917 17.5467187,1.578125 C17.5467187,1.94010417 17.4438541,2.23697917 17.238125,2.46875 C17.1313541,2.59114583 16.9777083,2.703125 16.7771875,2.8046875 C17.0714583,2.91666667 17.2915104,3.04296875 17.4373437,3.18359375 C17.6951562,3.43359375 17.8240625,3.77864583 17.8240625,4.21875 C17.8240625,4.58854167 17.708177,4.92317708 17.4764062,5.22265625 C17.130052,5.67057292 16.5792708,5.89453125 15.8240625,5.89453125 L13.3982812,5.89453125 L13.3982812,0.15625 Z" id="Shape"></path>
                <path d="M21.8103124,0 C22.8233333,0 23.5733333,0.325520833 24.0603124,0.9765625 C24.4405208,1.484375 24.6306249,2.13411458 24.6306249,2.92578125 C24.6306249,3.78255208 24.413177,4.49479167 23.9782812,5.0625 C23.4678645,5.72916667 22.7399999,6.0625 21.7946874,6.0625 C20.9118749,6.0625 20.2178645,5.77083333 19.7126562,5.1875 C19.2621354,4.625 19.0368749,3.9140625 19.0368749,3.0546875 C19.0368749,2.27864583 19.2295833,1.61458333 19.6149999,1.0625 C20.1097916,0.354166667 20.8415624,0 21.8103124,0 Z M21.8884374,5.3671875 C22.5733333,5.3671875 23.068776,5.12174479 23.3747656,4.63085938 C23.6807552,4.13997396 23.8337499,3.57552083 23.8337499,2.9375 C23.8337499,2.26302083 23.6573177,1.72005208 23.3044531,1.30859375 C22.9515885,0.897135417 22.4691666,0.69140625 21.8571874,0.69140625 C21.2634374,0.69140625 20.7790624,0.895182292 20.4040624,1.30273438 C20.0290624,1.71028646 19.8415624,2.31119792 19.8415624,3.10546875 C19.8415624,3.74088542 20.0023697,4.27669271 20.3239843,4.71289062 C20.6455989,5.14908854 21.1670833,5.3671875 21.8884374,5.3671875 Z" id="Shape"></path>
                <polygon id="Path" points="26.1364062 0.15625 26.9137499 0.15625 26.9137499 5.2109375 29.8199999 5.2109375 29.8199999 5.89453125 26.1364062 5.89453125"></polygon>
            </g>
        </g>
    </g>
</svg>