<?xml version="1.0" encoding="UTF-8" standalone="no"?>
<!DOCTYPE svg PUBLIC "-//W3C//DTD SVG 1.1//EN" "http://www.w3.org/Graphics/SVG/1.1/DTD/svg11.dtd">
<!-- Created with Vectornator (http://vectornator.io/) -->
<svg height="100%" stroke-miterlimit="10" style="fill-rule:nonzero;clip-rule:evenodd;stroke-linecap:round;stroke-linejoin:round;" version="1.1" viewBox="0 0 32 32" width="100%" xml:space="preserve" xmlns="http://www.w3.org/2000/svg" xmlns:vectornator="http://vectornator.io" xmlns:xlink="http://www.w3.org/1999/xlink">
<defs/>
<g id="dotnetasp" vectornator:layerName="dotnetasp">
<g opacity="1">
<path d="M11.0151 22.5431L11.9609 22.5431L13.9164 27.6204L12.9636 27.6204L12.4871 26.2764L10.4604 26.2764L9.984 27.6204L9.06667 27.6204L11.0151 22.5431ZM10.7022 25.6009L12.2524 25.6009L11.4916 23.4178L11.4702 23.4178L10.7022 25.6009ZM14.9831 25.928C14.9831 26.1224 15.0163 26.2883 15.0827 26.4258C15.149 26.5633 15.2415 26.6759 15.36 26.7636C15.4785 26.8513 15.6148 26.9153 15.7689 26.9556C15.923 26.9959 16.0901 27.016 16.2702 27.016C16.4646 27.016 16.6305 26.9935 16.768 26.9484C16.9055 26.9034 17.0169 26.8453 17.1022 26.7742C17.1876 26.7031 17.2492 26.6213 17.2871 26.5289C17.325 26.4364 17.344 26.3428 17.344 26.248C17.344 26.0536 17.3001 25.9102 17.2124 25.8178C17.1247 25.7253 17.0287 25.6601 16.9244 25.6222C16.7443 25.5559 16.5345 25.493 16.2951 25.4338C16.0557 25.3745 15.7606 25.2975 15.4098 25.2027C15.1917 25.1458 15.0104 25.0711 14.8658 24.9787C14.7212 24.8862 14.6062 24.7831 14.5209 24.6693C14.4356 24.5556 14.3751 24.4347 14.3396 24.3067C14.304 24.1787 14.2862 24.0483 14.2862 23.9156C14.2862 23.6596 14.3396 23.4379 14.4462 23.2507C14.5529 23.0634 14.6939 22.9081 14.8693 22.7849C15.0447 22.6616 15.2439 22.5704 15.4667 22.5111C15.6895 22.4519 15.9147 22.4222 16.1422 22.4222C16.4077 22.4222 16.6578 22.4566 16.8924 22.5253C17.1271 22.5941 17.3333 22.6972 17.5111 22.8347C17.6889 22.9721 17.8299 23.1416 17.9342 23.3431C18.0385 23.5446 18.0907 23.7781 18.0907 24.0436L17.2018 24.0436C17.1781 23.7164 17.0667 23.4853 16.8676 23.3502C16.6684 23.2151 16.4148 23.1476 16.1067 23.1476C16.0024 23.1476 15.8957 23.1582 15.7867 23.1796C15.6776 23.2009 15.5781 23.2364 15.488 23.2862C15.3979 23.336 15.3233 23.4036 15.264 23.4889C15.2047 23.5742 15.1751 23.6809 15.1751 23.8089C15.1751 23.989 15.2308 24.1301 15.3422 24.232C15.4536 24.3339 15.5994 24.411 15.7796 24.4631C15.7985 24.4679 15.8732 24.488 16.0036 24.5236C16.1339 24.5591 16.2797 24.5982 16.4409 24.6409C16.6021 24.6836 16.7597 24.725 16.9138 24.7653C17.0679 24.8056 17.1781 24.8353 17.2444 24.8542C17.4104 24.9064 17.555 24.9775 17.6782 25.0676C17.8015 25.1576 17.9046 25.2607 17.9876 25.3769C18.0705 25.493 18.1321 25.6175 18.1724 25.7502C18.2127 25.883 18.2329 26.0157 18.2329 26.1484C18.2329 26.4329 18.1748 26.6759 18.0587 26.8773C17.9425 27.0788 17.7896 27.2436 17.6 27.3716C17.4104 27.4996 17.1947 27.5932 16.9529 27.6524C16.7111 27.7117 16.4646 27.7413 16.2133 27.7413C15.9241 27.7413 15.6516 27.7058 15.3956 27.6347C15.1396 27.5636 14.9167 27.4545 14.7271 27.3076C14.5375 27.1606 14.3858 26.9721 14.272 26.7422C14.1582 26.5123 14.099 26.2409 14.0942 25.928L14.9831 25.928ZM19.008 22.5431L21.248 22.5431C21.6083 22.5431 21.9022 22.5953 22.1298 22.6996C22.3573 22.8039 22.5327 22.9342 22.656 23.0907C22.7793 23.2471 22.8634 23.4178 22.9084 23.6027C22.9535 23.7876 22.976 23.9582 22.976 24.1147C22.976 24.2711 22.9535 24.4406 22.9084 24.6231C22.8634 24.8056 22.7793 24.9751 22.656 25.1316C22.5327 25.288 22.3573 25.4172 22.1298 25.5191C21.9022 25.621 21.6083 25.672 21.248 25.672L19.8969 25.672L19.8969 27.6204L19.008 27.6204L19.008 22.5431ZM19.8969 24.9467L21.1982 24.9467C21.2978 24.9467 21.3997 24.9324 21.504 24.904C21.6083 24.8756 21.7043 24.8293 21.792 24.7653C21.8797 24.7013 21.9508 24.616 22.0053 24.5093C22.0599 24.4027 22.0871 24.2687 22.0871 24.1076C22.0871 23.9416 22.0634 23.8041 22.016 23.6951C21.9686 23.5861 21.9046 23.4996 21.824 23.4356C21.7434 23.3716 21.651 23.3277 21.5467 23.304C21.4424 23.2803 21.331 23.2684 21.2124 23.2684L19.8969 23.2684L19.8969 24.9467Z" fill="#000000" fill-rule="evenodd" opacity="1" stroke="none"/>
</g>
<g opacity="1">
<g opacity="1">
<path d="M11.5355 6.17884C13.3996 9.39017 13.7617 15.5913 16.8166 16.3036L16.8166 16.3036C17.0566 16.2595 17.2971 16.1928 17.5381 16.1087L17.5381 16.1087C14.7961 14.7651 14.0381 8.74351 11.9212 5.84448L11.9212 5.84448C11.7929 5.95119 11.6642 6.06298 11.5355 6.17884" fill="#000000" fill-rule="nonzero" opacity="1" stroke="none"/>
<path d="M14.2214 4.26903C13.966 4.26903 13.707 4.29405 13.447 4.34342C12.767 4.47162 12.0763 4.76442 11.3798 5.20751C11.5701 5.3952 11.7511 5.61006 11.9214 5.84444C12.6296 5.25674 13.3332 4.82239 14.0342 4.56134C14.2973 4.46391 14.5594 4.39059 14.8224 4.34239C14.6327 4.29414 14.4327 4.26903 14.2214 4.26903" fill="#000000" fill-rule="nonzero" opacity="1" stroke="none"/>
<path d="M19.6196 15.6133C19.4873 15.4872 19.3617 15.3487 19.2381 15.201C18.6688 15.6041 18.1016 15.9098 17.538 16.1087C17.7385 16.2067 17.9488 16.2795 18.1719 16.3247C18.3447 16.3599 18.5237 16.378 18.7119 16.378C19.3442 16.378 19.8442 16.3031 20.2699 16.099C20.0355 15.9723 19.8206 15.8082 19.6196 15.6133" fill="#000000" fill-rule="nonzero" opacity="1" stroke="none"/>
<path d="M14.034 4.56192C16.7951 6.00603 17.0351 12.5456 19.2382 15.201L19.2382 15.201C19.3859 15.0969 19.532 14.9867 19.6782 14.8702L19.6782 14.8702C18.2992 11.8153 17.9048 5.10805 14.8227 4.34189L14.8227 4.34189C14.5597 4.39112 14.2971 4.46399 14.034 4.56192" fill="#000000" fill-rule="nonzero" opacity="1" stroke="none"/>
<path d="M11.9212 5.84448C14.0381 8.74351 14.7961 14.7651 17.5381 16.1087L17.5381 16.1087C18.1017 15.9098 18.6689 15.6041 19.2382 15.201L19.2382 15.201C17.0351 12.5456 16.7951 6.00603 14.034 4.56192L14.034 4.56192C13.333 4.82243 12.6294 5.25678 11.9212 5.84448" fill="#000000" fill-rule="nonzero" opacity="1" stroke="none"/>
<path d="M9.74312 6.50963C9.41132 7.25993 9.07234 8.24606 8.66259 9.53327C9.47747 8.38503 10.2898 7.3958 11.0975 6.59428C10.9862 6.2522 10.8667 5.93682 10.738 5.65576C10.4077 5.9086 10.0749 6.19324 9.74312 6.50963" fill="#000000" fill-rule="nonzero" opacity="1" stroke="none"/>
<path d="M11.0322 5.43943C10.9348 5.50917 10.8369 5.58047 10.7384 5.65584C10.8671 5.93687 10.9861 6.25228 11.0974 6.59432C11.244 6.45072 11.3896 6.31176 11.5353 6.17893C11.3789 5.9102 11.2127 5.66199 11.0322 5.43943" fill="#000000" fill-rule="nonzero" opacity="1" stroke="none"/>
<path d="M11.3798 5.20751C11.2639 5.28086 11.1486 5.35827 11.0322 5.4393C11.2127 5.66187 11.3788 5.91007 11.5358 6.17933C11.6645 6.0629 11.7932 5.95061 11.9214 5.84444C11.7511 5.6101 11.5701 5.3952 11.3798 5.20751" fill="#000000" fill-rule="nonzero" opacity="1" stroke="none"/>
<path d="M9.74315 6.50963C10.075 6.19324 10.4078 5.9086 10.738 5.6558C10.6627 5.49067 10.5847 5.33784 10.5011 5.19783C10.2339 5.52193 9.98984 5.94963 9.74315 6.50963" fill="#000000" fill-rule="nonzero" opacity="1" stroke="none"/>
<path d="M9.98303 4.55449C10.1738 4.71449 10.3445 4.93451 10.501 5.19811C10.5502 5.13759 10.6 5.08168 10.6518 5.02937C10.4349 4.82682 10.2005 4.66066 9.9461 4.53554C9.95636 4.54123 9.96661 4.5458 9.97728 4.55031C9.97728 4.55031 9.98134 4.55437 9.98307 4.55437" fill="#000000" fill-rule="nonzero" opacity="1" stroke="none"/>
<path d="M10.6516 5.02924C10.5998 5.08209 10.5506 5.13747 10.5008 5.19799C10.5844 5.33797 10.6623 5.4903 10.7383 5.65592C10.8367 5.58056 10.9347 5.50925 11.0321 5.43951C10.9116 5.29079 10.7844 5.15285 10.6516 5.02924" fill="#000000" fill-rule="nonzero" opacity="1" stroke="none"/>
<path d="M3.15744 16.6775L3.15744 16.6775C3.87438 16.5862 4.71028 16.1595 5.26004 15.1364L5.26004 15.1364C6.40005 13.0154 7.53442 11.121 8.66213 9.53224L8.66213 9.53224C9.07239 8.24451 9.41086 7.2589 9.74317 6.50861L9.74317 6.50861C7.49545 8.64813 5.23901 12.2056 3.15744 16.6765" fill="#000000" fill-rule="nonzero" opacity="1" stroke="none"/>
<path d="M1.94858 13.7704C1.47218 14.6889 0.951152 15.6673 0.371123 16.7017C0.621916 16.7017 0.984998 16.7017 1.38705 16.7017C1.52142 15.6745 1.71219 14.695 1.94858 13.7709" fill="#000000" fill-rule="nonzero" opacity="1" stroke="none"/>
<path d="M8.96009 4.29168C8.95186 4.29168 8.94572 4.29574 8.93855 4.29574L8.93855 4.29574C8.92624 4.2998 8.9134 4.2998 8.9006 4.30113L8.9006 4.30113C8.89298 4.30113 8.88575 4.30113 8.87804 4.30519L8.87804 4.30519C8.86417 4.30925 8.85137 4.30966 8.83803 4.3122L8.83803 4.3122C8.83183 4.3122 8.82573 4.3122 8.8206 4.31626L8.8206 4.31626C8.79134 4.32114 8.76264 4.32652 8.73392 4.33144L8.73392 4.33144C8.72884 4.33144 8.72722 4.33144 8.72417 4.33144L8.72417 4.33144C8.70932 4.3355 8.69595 4.33764 8.68212 4.33967L8.68212 4.33967C8.67491 4.34373 8.66776 4.34373 8.66108 4.34536L8.66108 4.34536C8.64725 4.34942 8.63338 4.35115 8.62005 4.35358L8.62005 4.35358C8.61284 4.35765 8.60725 4.35765 8.60056 4.35805L8.60056 4.35805C8.55287 4.36954 8.50569 4.38186 8.45799 4.39498L8.45799 4.39498C8.45291 4.39498 8.44774 4.39905 8.44159 4.39986L8.44159 4.39986C8.42723 4.40392 8.41336 4.40809 8.39851 4.41258L8.39851 4.41258C8.39232 4.41664 8.38517 4.41664 8.37902 4.41827L8.37902 4.41827C8.36466 4.42233 8.3503 4.42649 8.33645 4.43098L8.33645 4.43098C8.33087 4.43098 8.3262 4.43505 8.32107 4.43505L8.32107 4.43505C8.28825 4.44735 8.25595 4.45966 8.2221 4.46992L8.2221 4.46992L8.2221 4.46992L8.2221 4.46992C8.20774 4.47439 8.19235 4.48017 8.17697 4.48551L8.17697 4.48551C8.17077 4.48957 8.16516 4.49048 8.15801 4.49333L8.15801 4.49333C8.14365 4.4978 8.1293 4.50359 8.11596 4.50892L8.11596 4.50892C8.11088 4.51299 8.10571 4.51339 8.10213 4.51553L8.10213 4.51553C5.87544 5.39451 4.61388 8.64174 1.95128 13.7726L1.95128 13.7726C1.71487 14.6967 1.52358 15.6762 1.38974 16.7034L1.38974 16.7034L1.5323 16.7034C1.93385 16.7034 2.04718 16.6993 2.50924 16.6993L2.50924 16.6993L2.53283 16.6993L2.60155 16.6993L2.62514 16.6993L2.63182 16.6993L2.65541 16.6993L2.66875 16.6993L2.67798 16.6993L2.69644 16.6993L2.75388 16.6993L2.81131 16.6993L2.85952 16.6993L2.87232 16.6993C2.90001 16.6993 2.92822 16.6993 2.95694 16.6993L2.95694 16.6993C2.98873 16.6953 3.02155 16.6953 3.05489 16.6927L3.05489 16.6927C3.05489 16.6927 3.06002 16.6927 3.06104 16.6927L3.06104 16.6927C3.07491 16.6927 3.08874 16.6887 3.10207 16.6887L3.10207 16.6887C3.1072 16.6887 3.10769 16.6887 3.11179 16.6887L3.11179 16.6887C3.12664 16.6887 3.14359 16.6846 3.16 16.6829L3.16 16.6829L3.16 16.6829C5.24156 12.212 7.498 8.65454 9.74572 6.51502L9.74572 6.51502C9.99291 5.95502 10.2365 5.52731 10.5032 5.20374L10.5032 5.20374C10.3473 4.94015 10.1765 4.71963 9.98573 4.55959L9.98573 4.55959C9.98573 4.55959 9.98055 4.55959 9.98015 4.55553L9.98015 4.55553C9.96936 4.55106 9.95915 4.54568 9.94836 4.54035L9.94836 4.54035C9.93756 4.53456 9.92834 4.53009 9.91709 4.52435L9.91709 4.52435C9.90734 4.52029 9.89605 4.51491 9.88632 4.50958L9.88632 4.50958C9.87299 4.50552 9.8622 4.49973 9.85043 4.49439L9.85043 4.49439C9.84068 4.49033 9.83196 4.48617 9.8222 4.48209L9.8222 4.48209C9.80217 4.47427 9.7822 4.46609 9.76323 4.45748L9.76323 4.45748C9.75449 4.45341 9.74632 4.45128 9.73807 4.44803L9.73807 4.44803C9.72425 4.44305 9.70833 4.43654 9.69397 4.43038L9.69397 4.43038C9.68676 4.42632 9.67858 4.42551 9.67039 4.42256L9.67039 4.42256C9.64938 4.41555 9.62885 4.40821 9.60935 4.40164L9.60935 4.40164C9.60427 4.40164 9.60427 4.40164 9.60427 4.40164L9.60427 4.40164C9.58067 4.39381 9.5576 4.3881 9.5335 4.38153L9.5335 4.38153C9.52791 4.37747 9.52324 4.37747 9.51762 4.37666L9.51762 4.37666C9.49657 4.37086 9.47811 4.36517 9.45813 4.35983L9.45813 4.35983C9.45305 4.35983 9.44838 4.35577 9.4443 4.35577L9.4443 4.35577C9.3961 4.34305 9.34635 4.3328 9.2961 4.32336L9.2961 4.32336C9.29092 4.32336 9.28585 4.3193 9.28072 4.3193L9.28072 4.3193C9.25918 4.31524 9.23815 4.31148 9.21662 4.30904L9.21662 4.30904C9.21143 4.30498 9.20839 4.30498 9.20382 4.30498L9.20382 4.30498C9.17817 4.30091 9.15304 4.29797 9.12791 4.29512L9.12791 4.29512C9.12283 4.29512 9.11917 4.29512 9.11458 4.29512L9.11458 4.29512C9.09407 4.29106 9.07511 4.29065 9.05612 4.28852L9.05612 4.28852C9.02379 4.29258 8.99304 4.29431 8.96278 4.29715" fill="#000000" fill-rule="nonzero" opacity="1" stroke="none"/>
<path d="M22.8695 15.9775C22.7977 16.014 22.7259 16.0487 22.6551 16.08C25.3895 14.8605 28.6511 10.0235 30.2127 4.00141L29.8963 4.00141C26.3085 10.4102 25.1547 14.7005 22.8695 15.9775" fill="#000000" fill-rule="nonzero" opacity="1" stroke="none"/>
<path d="M21.084 15.439C21.6789 14.7129 22.1635 13.4785 22.825 11.4441C22.0619 12.4923 21.2938 13.3934 20.525 14.1282C20.525 14.1323 20.525 14.1323 20.5209 14.1348C20.6887 14.6374 20.8727 15.081 21.0825 15.4389" fill="#000000" fill-rule="nonzero" opacity="1" stroke="none"/>
<path d="M21.084 15.439C20.8814 15.6862 20.6671 15.8744 20.4286 16.0139C20.3763 16.0443 20.3235 16.0729 20.2696 16.0991C20.5214 16.2349 20.7963 16.3257 21.104 16.3621L21.104 16.3621L21.104 16.3621C21.149 16.3666 21.1937 16.3708 21.2404 16.374L21.2486 16.374C21.2695 16.374 21.2917 16.374 21.3143 16.3781L21.3233 16.3781C21.3459 16.3781 21.3685 16.3781 21.3905 16.3781C21.4147 16.3781 21.4387 16.3781 21.4628 16.3781C21.4706 16.3781 21.478 16.3781 21.4854 16.3781C21.5018 16.3781 21.5194 16.3781 21.5367 16.3781C21.5449 16.3781 21.5535 16.3781 21.5617 16.374C21.5777 16.374 21.5945 16.374 21.6109 16.37C21.615 16.37 21.615 16.37 21.6167 16.37C21.6233 16.37 21.629 16.37 21.6352 16.37C21.652 16.37 21.6705 16.3659 21.6885 16.3642L21.6926 16.3642C21.698 16.3642 21.7036 16.3601 21.709 16.3601C21.7279 16.356 21.7476 16.3543 21.7659 16.3515C21.7721 16.3515 21.7766 16.3515 21.7828 16.3515C21.8037 16.3474 21.8253 16.3449 21.8468 16.3408L21.8509 16.3408C21.855 16.3408 21.8554 16.3408 21.8571 16.3408C21.9002 16.3326 21.9422 16.3244 21.9848 16.3137C21.6319 16.1845 21.3366 15.8799 21.0822 15.446" fill="#000000" fill-rule="nonzero" opacity="1" stroke="none"/>
<path d="M20.5226 14.1349L20.5226 14.1309C20.2411 14.4001 19.96 14.6468 19.6795 14.8698C19.5328 14.9863 19.3867 15.0965 19.239 15.2006C19.3626 15.3483 19.4882 15.4868 19.6205 15.6129C19.8216 15.8078 20.0364 15.9719 20.2708 16.0986C20.3241 16.0723 20.3775 16.0437 20.4292 16.0134C20.6682 15.874 20.8826 15.6858 21.0852 15.4386C20.8754 15.0806 20.6913 14.637 20.5236 14.1344" fill="#000000" fill-rule="nonzero" opacity="1" stroke="none"/>
<path d="M28.8942 4.00141L27.5639 4.00141C27.5193 4.00141 27.4752 4.00141 27.4316 4.00141L27.4316 4.00141C27.389 4.00141 27.348 4.00141 27.3065 4.00141L27.3065 4.00141L27.3016 4.00141C27.2155 4.00548 27.1319 4.00842 27.0493 4.01372L27.0493 4.01372C27.0103 4.09734 26.9703 4.18095 26.9318 4.26505L26.9318 4.26505C25.6134 7.07325 24.2288 9.50664 22.8231 11.441L22.8231 11.441C22.1621 13.4754 21.6769 14.7098 21.082 15.436L21.082 15.436C21.3364 15.8698 21.6323 16.1749 21.9841 16.3042L21.9841 16.3042C21.9944 16.3001 22.0026 16.3001 22.0118 16.298L22.0118 16.298C22.0118 16.298 22.0169 16.298 22.0175 16.298L22.0175 16.298C22.0237 16.298 22.0303 16.2939 22.037 16.2939L22.037 16.2939C22.0513 16.2898 22.0667 16.2873 22.0811 16.2828L22.0811 16.2828C22.0903 16.2788 22.098 16.2783 22.1073 16.2754L22.1073 16.2754C22.1206 16.2713 22.1344 16.2684 22.1467 16.2651L22.1467 16.2651C22.155 16.2611 22.1631 16.2598 22.1713 16.2581L22.1713 16.2581C22.1919 16.2515 22.2103 16.2466 22.2298 16.2405L22.2298 16.2405C22.2391 16.2364 22.2488 16.2331 22.2591 16.2306L22.2591 16.2306C22.2703 16.2266 22.2816 16.2236 22.2919 16.2187L22.2919 16.2187C22.3037 16.2147 22.3155 16.2125 22.3257 16.2081L22.3257 16.2081C22.335 16.204 22.3447 16.2015 22.3534 16.1978L22.3534 16.1978C22.3765 16.1896 22.3991 16.1826 22.4221 16.1736L22.4221 16.1736C22.4283 16.1736 22.4344 16.1679 22.4411 16.1666L22.4411 16.1666C22.455 16.1608 22.4693 16.1563 22.4832 16.1502L22.4832 16.1502C22.4883 16.1461 22.4945 16.1457 22.5011 16.1436L22.5011 16.1436C22.5493 16.1235 22.5991 16.103 22.6488 16.0805L22.6488 16.0805L22.654 16.0805L22.654 16.0805C22.7248 16.0493 22.7966 16.0143 22.8678 15.978L22.8678 15.978C25.1535 14.701 26.3074 10.4107 29.8951 4.00191L29.8951 4.00191L28.8931 4.00191L28.8942 4.00141Z" fill="#000000" fill-rule="nonzero" opacity="1" stroke="none"/>
<path d="M9.05353 4.28302C9.05922 4.28302 9.06432 4.28302 9.06993 4.28709C9.08376 4.28709 9.09763 4.28709 9.11147 4.29156C9.11665 4.29156 9.12123 4.29156 9.12534 4.29156C9.15045 4.29562 9.17559 4.29775 9.20124 4.30141C9.20591 4.30141 9.20997 4.30141 9.21404 4.30547C9.23504 4.30954 9.2566 4.31289 9.27814 4.31614C9.28281 4.31614 9.28894 4.3202 9.29406 4.3202C9.34329 4.33006 9.39355 4.34031 9.44175 4.35303C9.44632 4.35303 9.451 4.35709 9.45509 4.35709C9.4756 4.36197 9.49406 4.36816 9.51457 4.3739C9.52077 4.3739 9.52532 4.37797 9.53099 4.37888C9.5551 4.38508 9.57766 4.39119 9.60125 4.39898C9.60226 4.39898 9.60368 4.39898 9.60643 4.40305C9.6264 4.40914 9.64692 4.417 9.66796 4.42396C9.67619 4.42803 9.68384 4.42975 9.69155 4.43179C9.70591 4.43798 9.72183 4.44409 9.73566 4.44984C9.74388 4.44984 9.75206 4.45553 9.76076 4.45847C9.77971 4.46711 9.79974 4.47488 9.81922 4.48309C9.82948 4.48715 9.83818 4.49172 9.84794 4.49539C9.85923 4.50118 9.871 4.50647 9.88331 4.51058C9.89356 4.51545 9.90485 4.52083 9.91457 4.52534C9.92536 4.53113 9.93558 4.5356 9.94587 4.54134C10.2002 4.66647 10.4346 4.83316 10.6515 5.03522C10.7315 4.95111 10.8151 4.8757 10.9018 4.80802C10.4274 4.4716 9.88998 4.2798 9.26997 4.2798C9.19817 4.2798 9.12638 4.28387 9.05356 4.28925" fill="#000000" fill-rule="nonzero" opacity="1" stroke="none"/>
<path d="M10.6516 5.02924C10.7844 5.15281 10.9116 5.29079 11.0321 5.43951C11.1485 5.35849 11.2639 5.28053 11.3798 5.20771C11.228 5.05591 11.068 4.9195 10.9013 4.80204C10.8147 4.86924 10.7316 4.94514 10.6516 5.02924" fill="#000000" fill-rule="nonzero" opacity="1" stroke="none"/>
<g opacity="1">
<path d="M9.05341 4.28294C9.12623 4.27678 9.19802 4.27422 9.26982 4.27422C9.88983 4.27422 10.4273 4.46602 10.9016 4.80192C11.4022 4.40704 12.0073 4.26909 12.8478 4.26909L8.7775 4.26909C8.87135 4.26909 8.96315 4.27473 9.05341 4.28294" fill="#000000" fill-rule="nonzero" opacity="1" stroke="none"/>
</g>
<g opacity="1">
<path d="M12.8478 4.26909C12.0073 4.26909 11.4022 4.40704 10.9016 4.80192C11.0678 4.91936 11.2278 5.05577 11.3796 5.20757C12.0765 4.76448 12.7668 4.47115 13.4473 4.34294C13.7068 4.29422 13.9658 4.26909 14.2212 4.26909C14.2212 4.26909 12.8478 4.26909 12.8478 4.26909Z" fill="#000000" fill-rule="nonzero" opacity="1" stroke="none"/>
</g>
</g>
</g>
</g>
</svg>
