<?xml version="1.0" encoding="UTF-8" standalone="no"?>
<!DOCTYPE svg PUBLIC "-//W3C//DTD SVG 1.1//EN" "http://www.w3.org/Graphics/SVG/1.1/DTD/svg11.dtd">
<!-- Created with Vectornator (http://vectornator.io/) -->
<svg height="100%" stroke-miterlimit="10" style="fill-rule:nonzero;clip-rule:evenodd;stroke-linecap:round;stroke-linejoin:round;" version="1.1" viewBox="0 0 32 32" width="100%" xml:space="preserve" xmlns="http://www.w3.org/2000/svg" xmlns:vectornator="http://vectornator.io" xmlns:xlink="http://www.w3.org/1999/xlink">
<defs>
<linearGradient gradientTransform="matrix(1 0 0 1 0 0)" gradientUnits="userSpaceOnUse" id="LinearGradient" x1="13.9569" x2="13.9569" y1="5.18837" y2="20.3995">
<stop offset="0" stop-color="#0994dc"/>
<stop offset="0.350006" stop-color="#66cef5"/>
<stop offset="0.350006" stop-color="#66cef5"/>
<stop offset="0.846161" stop-color="#127bca"/>
<stop offset="0.846161" stop-color="#127bca"/>
<stop offset="1" stop-color="#127bca"/>
</linearGradient>
<linearGradient gradientTransform="matrix(1 0 0 1 0 0)" gradientUnits="userSpaceOnUse" id="LinearGradient_2" x1="14.5369" x2="14.5369" y1="4.80326" y2="20.402">
<stop offset="0" stop-color="#0e76bc"/>
<stop offset="0.360001" stop-color="#36aee8"/>
<stop offset="0.360001" stop-color="#36aee8"/>
<stop offset="0.846161" stop-color="#00adef"/>
<stop offset="0.846161" stop-color="#00adef"/>
<stop offset="1" stop-color="#00adef"/>
</linearGradient>
<linearGradient gradientTransform="matrix(1 0 0 1 0 0)" gradientUnits="userSpaceOnUse" id="LinearGradient_3" x1="17.672" x2="17.672" y1="17.0275" y2="4.61577">
<stop offset="0" stop-color="#1c63b7"/>
<stop offset="0.5" stop-color="#33bdf2"/>
<stop offset="1" stop-color="#33bdf2" stop-opacity="0.419608"/>
</linearGradient>
<linearGradient gradientTransform="matrix(1 0 0 1 0 0)" gradientUnits="userSpaceOnUse" id="LinearGradient_4" x1="16.8561" x2="16.8561" y1="3.22273" y2="19.4183">
<stop offset="0" stop-color="#166ab8"/>
<stop offset="0.399994" stop-color="#36aee8"/>
<stop offset="0.399994" stop-color="#36aee8"/>
<stop offset="0.846161" stop-color="#0798dd"/>
<stop offset="0.846161" stop-color="#0798dd"/>
<stop offset="1" stop-color="#0798dd"/>
</linearGradient>
<linearGradient gradientTransform="matrix(1 0 0 1 0 0)" gradientUnits="userSpaceOnUse" id="LinearGradient_5" x1="15.5796" x2="15.5796" y1="3.30785" y2="20.5297">
<stop offset="0" stop-color="#124379"/>
<stop offset="0.389999" stop-color="#1487cb"/>
<stop offset="0.389999" stop-color="#1487cb"/>
<stop offset="0.780228" stop-color="#165197"/>
<stop offset="0.780228" stop-color="#165197"/>
<stop offset="1" stop-color="#165197"/>
</linearGradient>
<linearGradient gradientTransform="matrix(1 0 0 1 0 0)" gradientUnits="userSpaceOnUse" id="LinearGradient_6" x1="8.6626" x2="11.0975" y1="8.59454" y2="8.59454">
<stop offset="0" stop-color="#33bdf2" stop-opacity="0.698039"/>
<stop offset="1" stop-color="#1dacd8"/>
</linearGradient>
<linearGradient gradientTransform="matrix(1 0 0 1 0 0)" gradientUnits="userSpaceOnUse" id="LinearGradient_7" x1="26.9494" x2="26.9494" y1="16.7165" y2="4.62574">
<stop offset="0" stop-color="#136ab4"/>
<stop offset="0.6" stop-color="#59caf5" stop-opacity="0.54902"/>
<stop offset="1" stop-color="#59caf5" stop-opacity="0.235294"/>
</linearGradient>
<linearGradient gradientTransform="matrix(1 0 0 1 0 0)" gradientUnits="userSpaceOnUse" id="LinearGradient_8" x1="0.0220763" x2="9.05348" y1="11.4837" y2="11.4837">
<stop offset="0" stop-color="#05a1e6" stop-opacity="0.247059"/>
<stop offset="1" stop-color="#05a1e6"/>
</linearGradient>
<linearGradient gradientTransform="matrix(1 0 0 1 0 0)" gradientUnits="userSpaceOnUse" id="LinearGradient_9" x1="5.02403" x2="5.02403" y1="17.021" y2="4.64104">
<stop offset="0" stop-color="#318ed5"/>
<stop offset="1" stop-color="#38a7e4"/>
</linearGradient>
<linearGradient gradientTransform="matrix(1 0 0 1 0 0)" gradientUnits="userSpaceOnUse" id="LinearGradient_10" x1="5.80328" x2="5.80328" y1="17.0646" y2="5.03057">
<stop offset="0" stop-color="#05a1e6"/>
<stop offset="1" stop-color="#05a1e6" stop-opacity="0.54902"/>
</linearGradient>
<linearGradient gradientTransform="matrix(1 0 0 1 0 0)" gradientUnits="userSpaceOnUse" id="LinearGradient_11" x1="6.45031" x2="6.45031" y1="17.6786" y2="7.50964">
<stop offset="0" stop-color="#1959a6"/>
<stop offset="0.5" stop-color="#05a1e6"/>
<stop offset="0.5" stop-color="#05a1e6"/>
<stop offset="0.917587" stop-color="#7ec5ea"/>
<stop offset="1" stop-color="#7ec5ea"/>
</linearGradient>
<linearGradient gradientTransform="matrix(1 0 0 1 0 0)" gradientUnits="userSpaceOnUse" id="LinearGradient_12" x1="6.83995" x2="4.89577" y1="17.029" y2="6.00301">
<stop offset="0" stop-color="#165096"/>
<stop offset="1" stop-color="#0d82ca"/>
</linearGradient>
<linearGradient gradientTransform="matrix(1 0 0 1 0 0)" gradientUnits="userSpaceOnUse" id="LinearGradient_13" x1="24.8791" x2="24.8791" y1="10.7935" y2="5.03136">
<stop offset="0" stop-color="#05a1e6"/>
<stop offset="0.873627" stop-color="#0495d6"/>
<stop offset="1" stop-color="#0495d6"/>
</linearGradient>
<linearGradient gradientTransform="matrix(1 0 0 1 0 0)" gradientUnits="userSpaceOnUse" id="LinearGradient_14" x1="27.5874" x2="25.2446" y1="4.49877" y2="17.7858">
<stop offset="0" stop-color="#38a7e4" stop-opacity="0.329412"/>
<stop offset="0.961533" stop-color="#0e88d3"/>
<stop offset="0.961533" stop-color="#0e88d3"/>
<stop offset="1" stop-color="#0e88d3"/>
</linearGradient>
<linearGradient gradientTransform="matrix(1 0 0 1 0 0)" gradientUnits="userSpaceOnUse" id="LinearGradient_15" x1="25.4901" x2="25.4901" y1="4.96502" y2="17.5357">
<stop offset="0" stop-color="#168cd4"/>
<stop offset="0.5" stop-color="#1c87cc"/>
<stop offset="1" stop-color="#154b8d"/>
</linearGradient>
<linearGradient gradientTransform="matrix(1 1.22465e-16 1.22465e-16 -1 -6.99854e-16 11.4295)" gradientUnits="userSpaceOnUse" id="LinearGradient_16" x1="9.45618" x2="12.3518" y1="6.72287" y2="5.52186">
<stop offset="0" stop-color="#97d6ee"/>
<stop offset="0.703293" stop-color="#55c1ea"/>
<stop offset="1" stop-color="#55c1ea"/>
</linearGradient>
<linearGradient gradientTransform="matrix(1 1.22465e-16 1.22465e-16 -1 -6.99854e-16 11.4295)" gradientUnits="userSpaceOnUse" id="LinearGradient_17" x1="11.1304" x2="13.4173" y1="5.28104" y2="6.31777">
<stop offset="0" stop-color="#7accec"/>
<stop offset="1" stop-color="#3fb7ed"/>
</linearGradient>
<linearGradient gradientTransform="matrix(1 0 0 1 0 0)" gradientUnits="userSpaceOnUse" id="LinearGradient_18" x1="23.7883" x2="23.7883" y1="5.66013" y2="17.9555">
<stop offset="0" stop-color="#1da7e7"/>
<stop offset="1" stop-color="#37abe7" stop-opacity="0"/>
</linearGradient>
</defs>
<g id="dotnetasp" vectornator:layerName="dotnetasp">
<g opacity="1">
<path d="M11.0976 7.59428C12.2468 11.1087 12.6822 17.378 16.0427 17.378L16.0427 17.378C16.2986 17.378 16.5571 17.353 16.8166 17.3036L16.8166 17.3036C13.7617 16.5913 13.3996 10.3902 11.5355 7.17884L11.5355 7.17884C11.3893 7.31168 11.2442 7.45014 11.0976 7.59428" fill="url(#LinearGradient)" fill-rule="nonzero" opacity="1" stroke="none"/>
<path d="M11.5355 7.17884C13.3996 10.3902 13.7617 16.5913 16.8166 17.3036L16.8166 17.3036C17.0566 17.2595 17.2971 17.1928 17.5381 17.1087L17.5381 17.1087C14.7961 15.7651 14.0381 9.74351 11.9212 6.84448L11.9212 6.84448C11.7929 6.95119 11.6642 7.06298 11.5355 7.17884" fill="url(#LinearGradient_2)" fill-rule="nonzero" opacity="1" stroke="none"/>
<path d="M14.2214 5.26903C13.966 5.26903 13.707 5.29405 13.447 5.34342C12.767 5.47162 12.0763 5.76442 11.3798 6.20751C11.5701 6.3952 11.7511 6.61006 11.9214 6.84444C12.6296 6.25674 13.3332 5.82239 14.0342 5.56134C14.2973 5.46391 14.5594 5.39059 14.8224 5.34239C14.6327 5.29414 14.4327 5.26903 14.2214 5.26903" fill="#14559a" fill-rule="nonzero" opacity="1" stroke="none"/>
<path d="M19.6787 15.8702C19.9592 15.6472 20.2402 15.4005 20.5218 15.1313C19.3541 11.6333 18.9361 5.2742 15.552 5.2742C15.3099 5.2742 15.0658 5.29677 14.8222 5.34189C17.9048 6.10859 18.2997 12.8153 19.6787 15.8702" fill="url(#LinearGradient_3)" fill-rule="nonzero" opacity="1" stroke="none"/>
<path d="M14.8223 5.62963C14.6326 5.39238 14.4326 5.26883 14.2213 5.26883L15.5521 5.29283C15.31 5.29283 15.0659 5.40388 14.8223 5.62863" fill="#3092c4" fill-rule="nonzero" opacity="1" stroke="none"/>
<path d="M19.6196 16.6133C19.4873 16.4872 19.3617 16.3487 19.2381 16.201C18.6688 16.6041 18.1016 16.9098 17.538 17.1087C17.7385 17.2067 17.9488 17.2795 18.1719 17.3247C18.3447 17.3599 18.5237 17.378 18.7119 17.378C19.3442 17.378 19.8442 17.3031 20.2699 17.099C20.0355 16.9723 19.8206 16.8082 19.6196 16.6133" fill="#1969bc" fill-rule="nonzero" opacity="1" stroke="none"/>
<path d="M14.034 5.56192C16.7951 7.00603 17.0351 13.5456 19.2382 16.201L19.2382 16.201C19.3859 16.0969 19.532 15.9867 19.6782 15.8702L19.6782 15.8702C18.2992 12.8153 17.9048 6.10805 14.8227 5.34189L14.8227 5.34189C14.5597 5.39112 14.2971 5.46399 14.034 5.56192" fill="url(#LinearGradient_4)" fill-rule="nonzero" opacity="1" stroke="none"/>
<path d="M11.9212 6.84448C14.0381 9.74351 14.7961 15.7651 17.5381 17.1087L17.5381 17.1087C18.1017 16.9098 18.6689 16.6041 19.2382 16.201L19.2382 16.201C17.0351 13.5456 16.7951 7.00603 14.034 5.56192L14.034 5.56192C13.333 5.82243 12.6294 6.25678 11.9212 6.84448" fill="url(#LinearGradient_5)" fill-rule="nonzero" opacity="1" stroke="none"/>
<path d="M9.74312 7.50963C9.41132 8.25993 9.07234 9.24606 8.66259 10.5333C9.47747 9.38503 10.2898 8.3958 11.0975 7.59428C10.9862 7.2522 10.8667 6.93682 10.738 6.65576C10.4077 6.9086 10.0749 7.19324 9.74312 7.50963" fill="url(#LinearGradient_6)" fill-rule="nonzero" opacity="1" stroke="none"/>
<path d="M11.0322 6.43943C10.9348 6.50917 10.8369 6.58047 10.7384 6.65584C10.8671 6.93687 10.9861 7.25228 11.0974 7.59432C11.244 7.45072 11.3896 7.31176 11.5353 7.17893C11.3789 6.9102 11.2127 6.66199 11.0322 6.43943" fill="#2b74b1" fill-rule="nonzero" opacity="1" stroke="none"/>
<path d="M11.3798 6.20751C11.2639 6.28086 11.1486 6.35827 11.0322 6.4393C11.2127 6.66187 11.3788 6.91007 11.5358 7.17933C11.6645 7.0629 11.7932 6.95061 11.9214 6.84444C11.7511 6.6101 11.5701 6.3952 11.3798 6.20751" fill="#125a9e" fill-rule="nonzero" opacity="1" stroke="none"/>
<path d="M30.2127 5.00141C28.6511 11.0235 25.3895 15.8605 22.6551 17.08L22.65 17.08C22.6002 17.1026 22.551 17.1231 22.5023 17.1431C22.4956 17.1471 22.4895 17.1476 22.4843 17.1501C22.4699 17.1559 22.4566 17.1603 22.4422 17.1661C22.4355 17.1701 22.4294 17.1715 22.4233 17.1739C22.4002 17.1821 22.3777 17.1891 22.3551 17.1981C22.3453 17.2022 22.3361 17.2047 22.3269 17.208C22.3166 17.212 22.3048 17.2158 22.293 17.2191C22.2828 17.2231 22.272 17.2261 22.2602 17.2305C22.2504 17.2346 22.2402 17.2363 22.231 17.2404C22.211 17.2462 22.1925 17.2511 22.1725 17.258C22.1643 17.258 22.1566 17.2625 22.1479 17.2646C22.1356 17.2687 22.1217 17.2716 22.1084 17.2753C22.0992 17.2794 22.0915 17.2807 22.0817 17.2827C22.0679 17.2868 22.0525 17.2905 22.0386 17.2938C22.0202 17.2979 22.0038 17.3016 21.9863 17.3053C22.1099 17.3509 22.2387 17.374 22.3776 17.374C24.9705 17.374 27.5848 12.7273 31.9106 5L30.2121 5L30.2127 5.00141Z" fill="url(#LinearGradient_7)" fill-rule="nonzero" opacity="1" stroke="none"/>
<path d="M8.09951 5.51342C8.10114 5.51342 8.10317 5.50936 8.10418 5.50936C8.10622 5.50936 8.10936 5.50936 8.11038 5.5053C8.11038 5.5053 8.11241 5.5053 8.11363 5.5053C8.12799 5.50042 8.14132 5.49463 8.15568 5.4893C8.15934 5.4893 8.16127 5.4893 8.16391 5.48523C8.16756 5.48523 8.17112 5.48117 8.1747 5.48066C8.19009 5.47578 8.20547 5.46999 8.21983 5.46466C8.21983 5.46466 8.22146 5.46466 8.22227 5.46466C8.25665 5.45441 8.28842 5.44169 8.32175 5.4298C8.32643 5.4298 8.331 5.42573 8.33661 5.42573C8.35047 5.42126 8.36484 5.41628 8.37917 5.41301C8.38588 5.40895 8.39251 5.40895 8.39865 5.40682C8.41351 5.40235 8.42791 5.39737 8.44174 5.3941C8.44793 5.3941 8.45355 5.39003 8.45814 5.38963C8.50584 5.3765 8.55302 5.36419 8.60071 5.3527C8.60742 5.3527 8.61302 5.34864 8.6202 5.34823C8.63402 5.34417 8.64687 5.34203 8.66174 5.34C8.66793 5.33594 8.67507 5.33594 8.68226 5.33381C8.69608 5.32974 8.70941 5.32934 8.7243 5.32598C8.72796 5.32598 8.72989 5.32598 8.73406 5.32598C8.76277 5.32019 8.79201 5.31532 8.82073 5.30998C8.82591 5.30998 8.8325 5.30998 8.83816 5.30998C8.85199 5.30592 8.8643 5.30551 8.87817 5.30297C8.88579 5.30297 8.89355 5.29891 8.90073 5.29891C8.91353 5.29891 8.92637 5.29485 8.93917 5.29312C8.94588 5.29312 8.9525 5.29312 8.96022 5.28906C8.99045 5.28499 9.02175 5.28337 9.05355 5.28083C8.96381 5.27219 8.87149 5.26646 8.77765 5.26646C5.85761 5.26646 1.83448 10.6845 0.022145 17.701C0.022145 17.701 0.154454 17.701 0.371381 17.701C0.951388 16.6666 1.47242 15.6881 1.94884 14.7697C3.21809 9.79986 5.80325 6.41056 8.09969 5.51262" fill="url(#LinearGradient_8)" fill-rule="nonzero" opacity="1" stroke="none"/>
<path d="M9.74315 7.50963C10.075 7.19324 10.4078 6.9086 10.738 6.6558C10.6627 6.49067 10.5847 6.33784 10.5011 6.19783C10.2339 6.52193 9.98984 6.94963 9.74315 7.50963" fill="#0d82ca" fill-rule="nonzero" opacity="1" stroke="none"/>
<path d="M9.98303 5.55449C10.1738 5.71449 10.3445 5.93451 10.501 6.19811C10.5502 6.13759 10.6 6.08168 10.6518 6.02937C10.4349 5.82682 10.2005 5.66066 9.9461 5.53554C9.95636 5.54123 9.96661 5.5458 9.97728 5.55031C9.97728 5.55031 9.98134 5.55437 9.98307 5.55437" fill="#0d82ca" fill-rule="nonzero" opacity="1" stroke="none"/>
<path d="M1.94871 14.7703C4.61131 9.63939 5.87286 6.39216 8.09956 5.51318L8.09956 5.51318C5.80363 6.41169 3.21796 9.80094 1.94871 14.7703" fill="url(#LinearGradient_9)" fill-rule="nonzero" opacity="1" stroke="none"/>
<path d="M10.6516 6.02924C10.5998 6.08209 10.5506 6.13747 10.5008 6.19799C10.5844 6.33797 10.6623 6.4903 10.7383 6.65592C10.8367 6.58056 10.9347 6.50925 11.0321 6.43951C10.9116 6.29079 10.7844 6.15285 10.6516 6.02924" fill="#127bca" fill-rule="nonzero" opacity="1" stroke="none"/>
<path d="M3.15744 17.6785L3.15744 17.6785C3.14103 17.6826 3.12462 17.6826 3.10924 17.6843C3.10411 17.6843 3.10308 17.6843 3.1 17.6843C3.08613 17.6843 3.07178 17.6884 3.05898 17.6884C3.05898 17.6884 3.05385 17.6884 3.05229 17.6884C3.01898 17.6924 2.98614 17.6924 2.95434 17.695L2.94408 17.695C5.63899 17.6196 6.8708 16.2703 7.48209 14.3133C7.94671 12.8297 8.32827 11.58 8.66263 10.5313C7.53389 12.12 6.40003 14.0139 5.26001 16.1354C4.71026 17.158 3.87435 17.5852 3.15742 17.6765" fill="url(#LinearGradient_10)" fill-rule="nonzero" opacity="1" stroke="none"/>
<path d="M3.15744 17.6775L3.15744 17.6775C3.87438 17.5862 4.71028 17.1595 5.26004 16.1364L5.26004 16.1364C6.40005 14.0154 7.53442 12.121 8.66213 10.5322L8.66213 10.5322C9.07239 9.24451 9.41086 8.2589 9.74317 7.50861L9.74317 7.50861C7.49545 9.64813 5.23901 13.2056 3.15744 17.6765" fill="url(#LinearGradient_11)" fill-rule="nonzero" opacity="1" stroke="none"/>
<path d="M1.94858 14.7704C1.47218 15.6889 0.951152 16.6673 0.371123 17.7017C0.621916 17.7017 0.984998 17.7017 1.38705 17.7017C1.52142 16.6745 1.71219 15.695 1.94858 14.7709" fill="#05a1e6" fill-rule="nonzero" opacity="1" stroke="none"/>
<path d="M8.96009 5.29168C8.95186 5.29168 8.94572 5.29574 8.93855 5.29574L8.93855 5.29574C8.92624 5.2998 8.9134 5.2998 8.9006 5.30113L8.9006 5.30113C8.89298 5.30113 8.88575 5.30113 8.87804 5.30519L8.87804 5.30519C8.86417 5.30925 8.85137 5.30966 8.83803 5.3122L8.83803 5.3122C8.83183 5.3122 8.82573 5.3122 8.8206 5.31626L8.8206 5.31626C8.79134 5.32114 8.76264 5.32652 8.73392 5.33144L8.73392 5.33144C8.72884 5.33144 8.72722 5.33144 8.72417 5.33144L8.72417 5.33144C8.70932 5.3355 8.69595 5.33764 8.68212 5.33967L8.68212 5.33967C8.67491 5.34373 8.66776 5.34373 8.66108 5.34536L8.66108 5.34536C8.64725 5.34942 8.63338 5.35115 8.62005 5.35358L8.62005 5.35358C8.61284 5.35765 8.60725 5.35765 8.60056 5.35805L8.60056 5.35805C8.55287 5.36954 8.50569 5.38186 8.45799 5.39498L8.45799 5.39498C8.45291 5.39498 8.44774 5.39905 8.44159 5.39986L8.44159 5.39986C8.42723 5.40392 8.41336 5.40809 8.39851 5.41258L8.39851 5.41258C8.39232 5.41664 8.38517 5.41664 8.37902 5.41827L8.37902 5.41827C8.36466 5.42233 8.3503 5.42649 8.33645 5.43098L8.33645 5.43098C8.33087 5.43098 8.3262 5.43505 8.32107 5.43505L8.32107 5.43505C8.28825 5.44735 8.25595 5.45966 8.2221 5.46992L8.2221 5.46992L8.2221 5.46992L8.2221 5.46992C8.20774 5.47439 8.19235 5.48017 8.17697 5.48551L8.17697 5.48551C8.17077 5.48957 8.16516 5.49048 8.15801 5.49333L8.15801 5.49333C8.14365 5.4978 8.1293 5.50359 8.11596 5.50892L8.11596 5.50892C8.11088 5.51299 8.10571 5.51339 8.10213 5.51553L8.10213 5.51553C5.87544 6.39451 4.61388 9.64174 1.95128 14.7726L1.95128 14.7726C1.71487 15.6967 1.52358 16.6762 1.38974 17.7034L1.38974 17.7034L1.5323 17.7034C1.93385 17.7034 2.04718 17.6993 2.50924 17.6993L2.50924 17.6993L2.53283 17.6993L2.60155 17.6993L2.62514 17.6993L2.63182 17.6993L2.65541 17.6993L2.66875 17.6993L2.67798 17.6993L2.69644 17.6993L2.75388 17.6993L2.81131 17.6993L2.85952 17.6993L2.87232 17.6993C2.90001 17.6993 2.92822 17.6993 2.95694 17.6993L2.95694 17.6993C2.98873 17.6953 3.02155 17.6953 3.05489 17.6927L3.05489 17.6927C3.05489 17.6927 3.06002 17.6927 3.06104 17.6927L3.06104 17.6927C3.07491 17.6927 3.08874 17.6887 3.10207 17.6887L3.10207 17.6887C3.1072 17.6887 3.10769 17.6887 3.11179 17.6887L3.11179 17.6887C3.12664 17.6887 3.14359 17.6846 3.16 17.6829L3.16 17.6829L3.16 17.6829C5.24156 13.212 7.498 9.65454 9.74572 7.51502L9.74572 7.51502C9.99291 6.95502 10.2365 6.52731 10.5032 6.20374L10.5032 6.20374C10.3473 5.94015 10.1765 5.71963 9.98573 5.55959L9.98573 5.55959C9.98573 5.55959 9.98055 5.55959 9.98015 5.55553L9.98015 5.55553C9.96936 5.55106 9.95915 5.54568 9.94836 5.54035L9.94836 5.54035C9.93756 5.53456 9.92834 5.53009 9.91709 5.52435L9.91709 5.52435C9.90734 5.52029 9.89605 5.51491 9.88632 5.50958L9.88632 5.50958C9.87299 5.50552 9.8622 5.49973 9.85043 5.49439L9.85043 5.49439C9.84068 5.49033 9.83196 5.48617 9.8222 5.48209L9.8222 5.48209C9.80217 5.47427 9.7822 5.46609 9.76323 5.45748L9.76323 5.45748C9.75449 5.45341 9.74632 5.45128 9.73807 5.44803L9.73807 5.44803C9.72425 5.44305 9.70833 5.43654 9.69397 5.43038L9.69397 5.43038C9.68676 5.42632 9.67858 5.42551 9.67039 5.42256L9.67039 5.42256C9.64938 5.41555 9.62885 5.40821 9.60935 5.40164L9.60935 5.40164C9.60427 5.40164 9.60427 5.40164 9.60427 5.40164L9.60427 5.40164C9.58067 5.39381 9.5576 5.3881 9.5335 5.38153L9.5335 5.38153C9.52791 5.37747 9.52324 5.37747 9.51762 5.37666L9.51762 5.37666C9.49657 5.37086 9.47811 5.36517 9.45813 5.35983L9.45813 5.35983C9.45305 5.35983 9.44838 5.35577 9.4443 5.35577L9.4443 5.35577C9.3961 5.34305 9.34635 5.3328 9.2961 5.32336L9.2961 5.32336C9.29092 5.32336 9.28585 5.3193 9.28072 5.3193L9.28072 5.3193C9.25918 5.31524 9.23815 5.31148 9.21662 5.30904L9.21662 5.30904C9.21143 5.30498 9.20839 5.30498 9.20382 5.30498L9.20382 5.30498C9.17817 5.30091 9.15304 5.29797 9.12791 5.29512L9.12791 5.29512C9.12283 5.29512 9.11917 5.29512 9.11458 5.29512L9.11458 5.29512C9.09407 5.29106 9.07511 5.29065 9.05612 5.28852L9.05612 5.28852C9.02379 5.29258 8.99304 5.29431 8.96278 5.29715" fill="url(#LinearGradient_12)" fill-rule="nonzero" opacity="1" stroke="none"/>
<path d="M24.1131 8.33528C23.6008 9.97634 23.1859 11.3302 22.8249 12.4441L22.8249 12.4441C24.2305 10.5097 25.6152 8.07629 26.9337 5.26809L26.9337 5.26809C25.3957 5.75113 24.5752 6.85682 24.1131 8.33528" fill="url(#LinearGradient_13)" fill-rule="nonzero" opacity="1" stroke="none"/>
<path d="M22.8695 16.9775C22.7977 17.014 22.7259 17.0487 22.6551 17.08C25.3895 15.8605 28.6511 11.0235 30.2127 5.00141L29.8963 5.00141C26.3085 11.4102 25.1547 15.7005 22.8695 16.9775" fill="url(#LinearGradient_14)" fill-rule="nonzero" opacity="1" stroke="none"/>
<path d="M21.084 16.439C21.6789 15.7129 22.1635 14.4785 22.825 12.4441C22.0619 13.4923 21.2938 14.3934 20.525 15.1282C20.525 15.1323 20.525 15.1323 20.5209 15.1348C20.6887 15.6374 20.8727 16.081 21.0825 16.4389" fill="#079ae1" fill-rule="nonzero" opacity="1" stroke="none"/>
<path d="M21.084 16.439C20.8814 16.6862 20.6671 16.8744 20.4286 17.0139C20.3763 17.0443 20.3235 17.0729 20.2696 17.0991C20.5214 17.2349 20.7963 17.3257 21.104 17.3621L21.104 17.3621L21.104 17.3621C21.149 17.3666 21.1937 17.3708 21.2404 17.374L21.2486 17.374C21.2695 17.374 21.2917 17.374 21.3143 17.3781L21.3233 17.3781C21.3459 17.3781 21.3685 17.3781 21.3905 17.3781C21.4147 17.3781 21.4387 17.3781 21.4628 17.3781C21.4706 17.3781 21.478 17.3781 21.4854 17.3781C21.5018 17.3781 21.5194 17.3781 21.5367 17.3781C21.5449 17.3781 21.5535 17.3781 21.5617 17.374C21.5777 17.374 21.5945 17.374 21.6109 17.37C21.615 17.37 21.615 17.37 21.6167 17.37C21.6233 17.37 21.629 17.37 21.6352 17.37C21.652 17.37 21.6705 17.3659 21.6885 17.3642L21.6926 17.3642C21.698 17.3642 21.7036 17.3601 21.709 17.3601C21.7279 17.356 21.7476 17.3543 21.7659 17.3515C21.7721 17.3515 21.7766 17.3515 21.7828 17.3515C21.8037 17.3474 21.8253 17.3449 21.8468 17.3408L21.8509 17.3408C21.855 17.3408 21.8554 17.3408 21.8571 17.3408C21.9002 17.3326 21.9422 17.3244 21.9848 17.3137C21.6319 17.1845 21.3366 16.8799 21.0822 16.446" fill="#1969bc" fill-rule="nonzero" opacity="1" stroke="none"/>
<path d="M16.0428 17.6088C16.2987 17.6088 16.5572 17.5624 16.8167 17.4698C17.0567 17.3889 17.2972 17.265 17.5382 17.1088C17.7387 17.2907 17.949 17.426 18.1716 17.5098C18.3444 17.5753 18.5239 17.6088 18.7121 17.6088L16.0428 17.6088Z" fill="#1e5cb3" fill-rule="nonzero" opacity="1" stroke="none"/>
<path d="M18.7121 17.599C19.3439 17.599 19.8445 17.4648 20.2696 17.0991C20.5214 17.3426 20.7963 17.5052 21.104 17.5705L21.104 17.5705L21.104 17.5705C21.1491 17.5785 21.1937 17.586 21.2404 17.5918L21.2486 17.5918C21.2695 17.5918 21.2917 17.5918 21.3143 17.5991L21.3237 17.5991C21.3463 17.5991 21.3688 17.5991 21.3909 17.5991L18.7103 17.5991L18.7121 17.599Z" fill="#1e5cb3" fill-rule="nonzero" opacity="1" stroke="none"/>
<path d="M21.3925 17.6444C21.4171 17.6444 21.4412 17.6444 21.4653 17.6444C21.4723 17.6444 21.4805 17.6444 21.4879 17.6444C21.5043 17.6444 21.5211 17.6444 21.5387 17.6444C21.5473 17.6444 21.5555 17.6444 21.5637 17.6244C21.5797 17.6244 21.5965 17.6244 21.6135 17.6044C21.6175 17.6044 21.6175 17.6044 21.6189 17.6044C21.6255 17.6044 21.6316 17.6044 21.6377 17.6044C21.6545 17.6044 21.673 17.5844 21.6906 17.5764C21.6906 17.5764 21.6946 17.5764 21.695 17.5764C21.7004 17.5764 21.7057 17.5564 21.711 17.5564C21.7299 17.5364 21.7496 17.5284 21.7679 17.5139C21.7741 17.5139 21.779 17.5139 21.7856 17.4939C21.8065 17.4739 21.8282 17.4634 21.8497 17.4435L21.8538 17.4435C21.8578 17.4435 21.8582 17.4435 21.86 17.4435C21.9031 17.403 21.9451 17.3627 21.9876 17.3102L21.9876 17.3102C22.1112 17.5347 22.24 17.6484 22.3789 17.6484L21.3933 17.6684L21.3925 17.6444Z" fill="#1d60b5" fill-rule="nonzero" opacity="1" stroke="none"/>
<path d="M20.5226 15.1349L20.5226 15.1309C20.2411 15.4001 19.96 15.6468 19.6795 15.8698C19.5328 15.9863 19.3867 16.0965 19.239 16.2006C19.3626 16.3483 19.4882 16.4868 19.6205 16.6129C19.8216 16.8078 20.0364 16.9719 20.2708 17.0986C20.3241 17.0723 20.3775 17.0437 20.4292 17.0134C20.6682 16.874 20.8826 16.6858 21.0852 16.4386C20.8754 16.0806 20.6913 15.637 20.5236 15.1344" fill="#175fab" fill-rule="nonzero" opacity="1" stroke="none"/>
<path d="M28.8942 5.00141L27.5639 5.00141C27.5193 5.00141 27.4752 5.00141 27.4316 5.00141L27.4316 5.00141C27.389 5.00141 27.348 5.00141 27.3065 5.00141L27.3065 5.00141L27.3016 5.00141C27.2155 5.00548 27.1319 5.00842 27.0493 5.01372L27.0493 5.01372C27.0103 5.09734 26.9703 5.18095 26.9318 5.26505L26.9318 5.26505C25.6134 8.07325 24.2288 10.5066 22.8231 12.441L22.8231 12.441C22.1621 14.4754 21.6769 15.7098 21.082 16.436L21.082 16.436C21.3364 16.8698 21.6323 17.1749 21.9841 17.3042L21.9841 17.3042C21.9944 17.3001 22.0026 17.3001 22.0118 17.298L22.0118 17.298C22.0118 17.298 22.0169 17.298 22.0175 17.298L22.0175 17.298C22.0237 17.298 22.0303 17.2939 22.037 17.2939L22.037 17.2939C22.0513 17.2898 22.0667 17.2873 22.0811 17.2828L22.0811 17.2828C22.0903 17.2788 22.098 17.2783 22.1073 17.2754L22.1073 17.2754C22.1206 17.2713 22.1344 17.2684 22.1467 17.2651L22.1467 17.2651C22.155 17.2611 22.1631 17.2598 22.1713 17.2581L22.1713 17.2581C22.1919 17.2515 22.2103 17.2466 22.2298 17.2405L22.2298 17.2405C22.2391 17.2364 22.2488 17.2331 22.2591 17.2306L22.2591 17.2306C22.2703 17.2266 22.2816 17.2236 22.2919 17.2187L22.2919 17.2187C22.3037 17.2147 22.3155 17.2125 22.3257 17.2081L22.3257 17.2081C22.335 17.204 22.3447 17.2015 22.3534 17.1978L22.3534 17.1978C22.3765 17.1896 22.3991 17.1826 22.4221 17.1736L22.4221 17.1736C22.4283 17.1736 22.4344 17.1679 22.4411 17.1666L22.4411 17.1666C22.455 17.1608 22.4693 17.1563 22.4832 17.1502L22.4832 17.1502C22.4883 17.1461 22.4945 17.1457 22.5011 17.1436L22.5011 17.1436C22.5493 17.1235 22.5991 17.103 22.6488 17.0805L22.6488 17.0805L22.654 17.0805L22.654 17.0805C22.7248 17.0493 22.7966 17.0143 22.8678 16.978L22.8678 16.978C25.1535 15.701 26.3074 11.4107 29.8951 5.00191L29.8951 5.00191L28.8931 5.00191L28.8942 5.00141Z" fill="url(#LinearGradient_15)" fill-rule="nonzero" opacity="1" stroke="none"/>
<path d="M9.05353 5.28302C9.05922 5.28302 9.06432 5.28302 9.06993 5.28709C9.08376 5.28709 9.09763 5.28709 9.11147 5.29156C9.11665 5.29156 9.12123 5.29156 9.12534 5.29156C9.15045 5.29562 9.17559 5.29775 9.20124 5.30141C9.20591 5.30141 9.20997 5.30141 9.21404 5.30547C9.23504 5.30954 9.2566 5.31289 9.27814 5.31614C9.28281 5.31614 9.28894 5.3202 9.29406 5.3202C9.34329 5.33006 9.39355 5.34031 9.44175 5.35303C9.44632 5.35303 9.451 5.35709 9.45509 5.35709C9.4756 5.36197 9.49406 5.36816 9.51457 5.3739C9.52077 5.3739 9.52532 5.37797 9.53099 5.37888C9.5551 5.38508 9.57766 5.39119 9.60125 5.39898C9.60226 5.39898 9.60368 5.39898 9.60643 5.40305C9.6264 5.40914 9.64692 5.417 9.66796 5.42396C9.67619 5.42803 9.68384 5.42975 9.69155 5.43179C9.70591 5.43798 9.72183 5.44409 9.73566 5.44984C9.74388 5.44984 9.75206 5.45553 9.76076 5.45847C9.77971 5.46711 9.79974 5.47488 9.81922 5.48309C9.82948 5.48715 9.83818 5.49172 9.84794 5.49539C9.85923 5.50118 9.871 5.50647 9.88331 5.51058C9.89356 5.51545 9.90485 5.52083 9.91457 5.52534C9.92536 5.53113 9.93558 5.5356 9.94587 5.54134C10.2002 5.66647 10.4346 5.83316 10.6515 6.03522C10.7315 5.95111 10.8151 5.8757 10.9018 5.80802C10.4274 5.4716 9.88998 5.2798 9.26997 5.2798C9.19817 5.2798 9.12638 5.28387 9.05356 5.28925" fill="#7dcbec" fill-rule="nonzero" opacity="1" stroke="none"/>
<path d="M10.6516 6.02924C10.7844 6.15281 10.9116 6.29079 11.0321 6.43951C11.1485 6.35849 11.2639 6.28053 11.3798 6.20771C11.228 6.05591 11.068 5.9195 10.9013 5.80204C10.8147 5.86924 10.7316 5.94514 10.6516 6.02924" fill="#5ec5ed" fill-rule="nonzero" opacity="1" stroke="none"/>
<g opacity="1">
<path d="M9.05341 5.28294C9.12623 5.27678 9.19802 5.27422 9.26982 5.27422C9.88983 5.27422 10.4273 5.46602 10.9016 5.80192C11.4022 5.40704 12.0073 5.26909 12.8478 5.26909L8.7775 5.26909C8.87135 5.26909 8.96315 5.27473 9.05341 5.28294" fill="url(#LinearGradient_16)" fill-rule="nonzero" opacity="1" stroke="none"/>
</g>
<g opacity="1">
<path d="M12.8478 5.26909C12.0073 5.26909 11.4022 5.40704 10.9016 5.80192C11.0678 5.91936 11.2278 6.05577 11.3796 6.20757C12.0765 5.76448 12.7668 5.47115 13.4473 5.34294C13.7068 5.29422 13.9658 5.26909 14.2212 5.26909C14.2212 5.26909 12.8478 5.26909 12.8478 5.26909Z" fill="url(#LinearGradient_17)" fill-rule="nonzero" opacity="1" stroke="none"/>
</g>
<path d="M22.8249 12.4451C23.1864 11.3302 23.6003 9.97687 24.1136 8.33528C24.5762 6.85629 25.3952 5.75064 26.9331 5.26809C26.9738 5.1855 27.0121 5.10037 27.0516 5.01676C24.5444 5.16704 23.3726 6.44242 22.7828 8.33119C21.7515 11.6287 21.1269 13.7661 20.5254 15.1282C21.2936 14.3938 22.0618 13.4923 22.8249 12.4451" fill="url(#LinearGradient_18)" fill-rule="nonzero" opacity="1" stroke="none"/>
<path d="M11.0151 22.5431L11.9609 22.5431L13.9164 27.6204L12.9636 27.6204L12.4871 26.2764L10.4604 26.2764L9.984 27.6204L9.06667 27.6204L11.0151 22.5431ZM10.7022 25.6009L12.2524 25.6009L11.4916 23.4178L11.4702 23.4178L10.7022 25.6009ZM14.9831 25.928C14.9831 26.1224 15.0163 26.2883 15.0827 26.4258C15.149 26.5633 15.2415 26.6759 15.36 26.7636C15.4785 26.8513 15.6148 26.9153 15.7689 26.9556C15.923 26.9959 16.0901 27.016 16.2702 27.016C16.4646 27.016 16.6305 26.9935 16.768 26.9484C16.9055 26.9034 17.0169 26.8453 17.1022 26.7742C17.1876 26.7031 17.2492 26.6213 17.2871 26.5289C17.325 26.4364 17.344 26.3428 17.344 26.248C17.344 26.0536 17.3001 25.9102 17.2124 25.8178C17.1247 25.7253 17.0287 25.6601 16.9244 25.6222C16.7443 25.5559 16.5345 25.493 16.2951 25.4338C16.0557 25.3745 15.7606 25.2975 15.4098 25.2027C15.1917 25.1458 15.0104 25.0711 14.8658 24.9787C14.7212 24.8862 14.6062 24.7831 14.5209 24.6693C14.4356 24.5556 14.3751 24.4347 14.3396 24.3067C14.304 24.1787 14.2862 24.0483 14.2862 23.9156C14.2862 23.6596 14.3396 23.4379 14.4462 23.2507C14.5529 23.0634 14.6939 22.9081 14.8693 22.7849C15.0447 22.6616 15.2439 22.5704 15.4667 22.5111C15.6895 22.4519 15.9147 22.4222 16.1422 22.4222C16.4077 22.4222 16.6578 22.4566 16.8924 22.5253C17.1271 22.5941 17.3333 22.6972 17.5111 22.8347C17.6889 22.9721 17.8299 23.1416 17.9342 23.3431C18.0385 23.5446 18.0907 23.7781 18.0907 24.0436L17.2018 24.0436C17.1781 23.7164 17.0667 23.4853 16.8676 23.3502C16.6684 23.2151 16.4148 23.1476 16.1067 23.1476C16.0024 23.1476 15.8957 23.1582 15.7867 23.1796C15.6776 23.2009 15.5781 23.2364 15.488 23.2862C15.3979 23.336 15.3233 23.4036 15.264 23.4889C15.2047 23.5742 15.1751 23.6809 15.1751 23.8089C15.1751 23.989 15.2308 24.1301 15.3422 24.232C15.4536 24.3339 15.5994 24.411 15.7796 24.4631C15.7985 24.4679 15.8732 24.488 16.0036 24.5236C16.1339 24.5591 16.2797 24.5982 16.4409 24.6409C16.6021 24.6836 16.7597 24.725 16.9138 24.7653C17.0679 24.8056 17.1781 24.8353 17.2444 24.8542C17.4104 24.9064 17.555 24.9775 17.6782 25.0676C17.8015 25.1576 17.9046 25.2607 17.9876 25.3769C18.0705 25.493 18.1321 25.6175 18.1724 25.7502C18.2127 25.883 18.2329 26.0157 18.2329 26.1484C18.2329 26.4329 18.1748 26.6759 18.0587 26.8773C17.9425 27.0788 17.7896 27.2436 17.6 27.3716C17.4104 27.4996 17.1947 27.5932 16.9529 27.6524C16.7111 27.7117 16.4646 27.7413 16.2133 27.7413C15.9241 27.7413 15.6516 27.7058 15.3956 27.6347C15.1396 27.5636 14.9167 27.4545 14.7271 27.3076C14.5375 27.1606 14.3858 26.9721 14.272 26.7422C14.1582 26.5123 14.099 26.2409 14.0942 25.928L14.9831 25.928ZM19.008 22.5431L21.248 22.5431C21.6083 22.5431 21.9022 22.5953 22.1298 22.6996C22.3573 22.8039 22.5327 22.9342 22.656 23.0907C22.7793 23.2471 22.8634 23.4178 22.9084 23.6027C22.9535 23.7876 22.976 23.9582 22.976 24.1147C22.976 24.2711 22.9535 24.4406 22.9084 24.6231C22.8634 24.8056 22.7793 24.9751 22.656 25.1316C22.5327 25.288 22.3573 25.4172 22.1298 25.5191C21.9022 25.621 21.6083 25.672 21.248 25.672L19.8969 25.672L19.8969 27.6204L19.008 27.6204L19.008 22.5431ZM19.8969 24.9467L21.1982 24.9467C21.2978 24.9467 21.3997 24.9324 21.504 24.904C21.6083 24.8756 21.7043 24.8293 21.792 24.7653C21.8797 24.7013 21.9508 24.616 22.0053 24.5093C22.0599 24.4027 22.0871 24.2687 22.0871 24.1076C22.0871 23.9416 22.0634 23.8041 22.016 23.6951C21.9686 23.5861 21.9046 23.4996 21.824 23.4356C21.7434 23.3716 21.651 23.3277 21.5467 23.304C21.4424 23.2803 21.331 23.2684 21.2124 23.2684L19.8969 23.2684L19.8969 24.9467Z" fill="#4a4a4a" fill-rule="evenodd" opacity="1" stroke="none"/>
</g>
</g>
</svg>
