<?xml version="1.0" encoding="UTF-8" standalone="no"?>
<!DOCTYPE svg PUBLIC "-//W3C//DTD SVG 1.1//EN" "http://www.w3.org/Graphics/SVG/1.1/DTD/svg11.dtd">
<!-- Created with Vectornator (http://vectornator.io/) -->
<svg height="2500.0pt" stroke-miterlimit="10" style="fill-rule:nonzero;clip-rule:evenodd;stroke-linecap:round;stroke-linejoin:round;" version="1.1" viewBox="0 0 2500 2500" width="2500.0pt" xml:space="preserve" xmlns="http://www.w3.org/2000/svg" xmlns:xlink="http://www.w3.org/1999/xlink">
<defs/>
<g id="Untitled">
<g opacity="1">
<path d="M0 0L2500 0L2500 2500L0 2500L0 0Z" fill="#ffffff" fill-rule="evenodd" opacity="0" stroke="none"/>
<path d="M446.277 1189.31C446.277 1186.03 439.714 1182.75 436.433 1182.75L259.279 1182.75C252.716 1182.75 249.435 1186.03 249.435 1189.31L249.435 1225.4L446.277 1225.4L446.277 1189.31ZM183.82 1382.85L183.82 1182.75C183.82 1149.95 206.79 1120.42 249.435 1120.42L452.826 1120.42C485.627 1120.42 511.878 1149.95 511.878 1182.75L511.878 1382.85L446.264 1382.85L446.264 1284.43L252.716 1284.43L252.716 1382.85L183.82 1382.85ZM567.648 1117.14L807.121 1117.14C849.766 1117.14 885.861 1156.5 885.861 1205.71L885.861 1294.29C885.861 1343.49 849.766 1382.85 807.121 1382.85L567.648 1382.85L567.648 1117.14ZM826.81 1294.29L826.81 1205.71C826.81 1192.58 816.965 1182.74 807.121 1182.74L633.262 1182.74L633.262 1317.24L807.134 1317.24C816.965 1317.24 826.81 1304.12 826.81 1294.29ZM1197.51 1189.31C1197.51 1186.03 1190.95 1182.75 1184.39 1182.75L1010.53 1182.75C1003.96 1182.75 1000.68 1186.03 1000.68 1189.31L1000.68 1225.4L1197.51 1225.4L1197.51 1189.31ZM935.068 1382.85L935.068 1182.75C935.068 1149.95 958.038 1120.42 1000.68 1120.42L1204.07 1120.42C1236.87 1120.42 1263.14 1149.95 1263.14 1182.75L1263.14 1382.85L1197.51 1382.85L1197.51 1284.43L1000.68 1284.43L1000.68 1382.85L935.068 1382.85ZM2234.17 1277.87C2244 1277.87 2253.86 1287.73 2253.86 1300.84C2253.86 1310.67 2244 1320.53 2234.17 1320.53L2099.66 1320.53C2076.71 1320.53 2076.71 1297.56 2076.71 1297.56L2014.36 1297.56L2014.36 1320.53C2014.36 1320.53 2014.36 1343.49 2034.05 1363.16C2053.74 1379.58 2076.71 1379.58 2076.71 1379.58L2234.17 1379.58C2280.1 1379.58 2316.17 1343.49 2316.17 1300.85C2316.17 1254.93 2280.1 1218.83 2234.17 1218.83L2096.39 1218.83C2083.27 1218.83 2073.42 1208.99 2073.42 1199.15C2073.42 1189.3 2083.28 1179.46 2096.39 1179.46L2230.88 1179.46C2250.57 1179.46 2250.57 1199.15 2250.57 1199.15L2312.91 1199.15L2312.91 1179.47C2312.91 1179.47 2316.18 1156.5 2293.22 1136.83C2273.53 1117.14 2253.86 1117.14 2253.86 1117.14L2096.39 1117.14C2050.47 1117.14 2014.37 1156.5 2014.37 1199.15C2014.37 1241.79 2050.47 1277.87 2096.39 1277.87C2096.39 1277.87 2234.17 1277.87 2234.17 1277.87ZM1902.83 1189.31C1902.83 1186.03 1896.27 1182.75 1892.98 1182.75L1715.84 1182.75C1709.27 1182.75 1706 1186.03 1706 1189.31L1706 1225.4L1902.83 1225.4L1902.83 1189.31ZM1640.4 1382.85L1640.4 1182.75C1640.4 1149.95 1663.36 1120.42 1706.02 1120.42L1909.41 1120.42C1942.21 1120.42 1968.46 1149.95 1968.46 1182.75L1968.46 1382.85L1902.85 1382.85L1902.85 1284.43L1706.02 1284.43L1706.02 1382.85L1640.4 1382.85ZM1515.71 1179.47L1381.23 1179.47L1381.23 1218.83L1515.71 1218.83C1528.84 1218.83 1535.4 1212.27 1535.4 1199.15C1535.4 1189.31 1528.84 1179.47 1515.71 1179.47ZM1496.04 1281.17L1502.6 1281.17L1450.11 1281.17L1496.04 1281.17ZM1502.6 1281.17L1381.23 1281.17L1381.23 1320.53L1515.71 1320.53C1528.84 1320.53 1535.4 1310.67 1535.4 1300.84C1535.4 1287.72 1528.84 1281.15 1515.71 1281.15L1502.6 1281.15L1502.6 1281.17ZM1312.33 1120.42L1515.72 1120.42C1558.38 1120.42 1594.45 1156.51 1594.45 1199.16C1594.45 1212.28 1591.18 1235.24 1578.06 1251.63C1587.91 1264.76 1594.45 1281.17 1594.45 1300.85C1594.45 1320.54 1587.91 1350.05 1558.38 1369.74C1558.38 1369.74 1545.26 1382.86 1496.04 1382.86L1312.33 1382.86C1312.33 1382.86 1312.33 1120.42 1312.33 1120.42Z" fill="#3c8dcb" fill-rule="evenodd" opacity="1" stroke="none"/>
</g>
</g>
</svg>
