<?xml version="1.0" encoding="UTF-8" standalone="no"?>
<!DOCTYPE svg PUBLIC "-//W3C//DTD SVG 1.1//EN" "http://www.w3.org/Graphics/SVG/1.1/DTD/svg11.dtd">
<!-- Created with Vectornator (http://vectornator.io/) -->
<svg height="18.0pt" stroke-miterlimit="10" style="fill-rule:nonzero;clip-rule:evenodd;stroke-linecap:round;stroke-linejoin:round;" version="1.1" viewBox="0 0 18 18" width="18.0pt" xml:space="preserve" xmlns="http://www.w3.org/2000/svg" xmlns:xlink="http://www.w3.org/1999/xlink">
<defs>
<path d="M14.969 7.53C15.7566 10.8266 13.7226 14.1375 10.426 14.9251C7.12939 15.7126 3.81851 13.6786 3.03095 10.382C2.24339 7.08542 4.27739 3.77455 7.574 2.987C10.8706 2.19946 14.1814 4.23342 14.969 7.53Z" id="Fill"/>
<path d="M14.969 7.53C15.7566 10.8266 13.7226 14.1375 10.426 14.9251C7.12939 15.7126 3.81851 13.6786 3.03095 10.382C2.24339 7.08542 4.27739 3.77455 7.574 2.987C10.8706 2.19946 14.1814 4.23342 14.969 7.53Z" id="Fill_2"/>
<path d="M5.709 13.115C6.30363 13.1306 6.85997 12.8226 7.16239 12.3103C7.46481 11.7981 7.46579 11.1622 7.16493 10.6491C6.86407 10.1359 6.30867 9.82624 5.714 9.84C5.71884 9.79349 5.72117 9.74676 5.721 9.7C5.71275 8.79013 4.96989 8.05845 4.06 8.064L2.832 8.064C2.5888 9.90085 3.17302 11.7509 4.427 13.115L5.709 13.115Z" id="Fill_3"/>
<path d="M15.045 7.815C15.045 7.8 15.045 7.785 15.038 7.771C14.8402 6.70092 14.3541 5.70514 13.632 4.891C13.5383 4.85305 13.4417 4.82295 13.343 4.801C12.8106 4.6491 12.238 4.74979 11.7893 5.07418C11.3407 5.39857 11.0656 5.91082 11.043 6.464C10.9766 6.45633 10.9098 6.45199 10.843 6.451C9.99736 6.45093 9.27456 7.05986 9.13106 7.89323C8.98755 8.7266 9.46505 9.54222 10.262 9.825C10.4343 9.89253 10.6179 9.92647 10.803 9.925L12.833 9.925C13.6481 9.308 14.3902 8.60009 15.045 7.815Z" id="Fill_4"/>
</defs>
<g id="Untitled">
<path d="M2.954 5.266C2.90724 5.26627 2.86232 5.24781 2.82925 5.21475C2.79619 5.18168 2.77773 5.13676 2.778 5.09L2.778 5.09C2.77635 3.98114 1.87786 3.08265 0.769 3.081C0.672187 3.081 0.59355 3.00281 0.593 2.906L0.593 2.906C0.593 2.8088 0.671798 2.73 0.769 2.73C1.87824 2.72835 2.7769 1.82925 2.778 0.72C2.77773 0.67324 2.79619 0.628318 2.82925 0.595253C2.86232 0.562189 2.90724 0.543732 2.954 0.544L2.954 0.544C3.00076 0.543732 3.04568 0.562189 3.07875 0.595253C3.11181 0.628318 3.13027 0.67324 3.13 0.72L3.13 0.72C3.13165 1.82886 4.03014 2.72735 5.139 2.729C5.18576 2.72873 5.23068 2.74719 5.26375 2.78025C5.29681 2.81332 5.31527 2.85824 5.315 2.905L5.315 2.905C5.31527 2.95176 5.29681 2.99668 5.26375 3.02975C5.23068 3.06281 5.18576 3.08127 5.139 3.081L5.139 3.081C4.02992 3.0821 3.1311 3.98092 3.13 5.09C3.12945 5.18697 3.05097 5.26545 2.954 5.266Z" fill="#000000" fill-rule="nonzero" opacity="1" stroke="none"/>
<path d="M15.611 17.456C15.5331 17.456 15.47 17.3929 15.47 17.315L15.47 17.315C15.4689 16.4279 14.7501 15.7091 13.863 15.708C13.7855 15.708 13.7225 15.6455 13.722 15.568L13.722 15.568C13.722 15.4901 13.7851 15.427 13.863 15.427L13.863 15.427C14.7503 15.4264 15.4694 14.7073 15.47 13.82C15.47 13.7421 15.5331 13.679 15.611 13.679L15.611 13.679C15.6889 13.679 15.752 13.7421 15.752 13.82L15.752 13.82C15.7526 14.7073 16.4717 15.4264 17.359 15.427C17.4369 15.427 17.5 15.4901 17.5 15.568C17.5 15.6459 17.4369 15.709 17.359 15.709L17.359 15.709C16.4719 15.7101 15.7531 16.4289 15.752 17.316C15.7515 17.3935 15.6885 17.456 15.611 17.456Z" fill="#000000" fill-rule="nonzero" opacity="1" stroke="none"/>
<g opacity="1">
<g opacity="1">
<mask height="12.2768" id="StrokeMask" maskUnits="userSpaceOnUse" width="12.2768" x="2.86158" y="2.81763">
<rect fill="#000000" height="12.2768" stroke="none" width="12.2768" x="2.86158" y="2.81763"/>
<use fill="#ffffff" fill-rule="evenodd" stroke="none" xlink:href="#Fill"/>
</mask>
<use fill="none" mask="url(#StrokeMask)" stroke="#000000" stroke-linecap="butt" stroke-linejoin="round" stroke-width="1" xlink:href="#Fill"/>
</g>
<g opacity="1">
<g opacity="1">
<mask height="12.2768" id="StrokeMask_2" maskUnits="userSpaceOnUse" width="12.2768" x="2.86158" y="2.81763">
<rect fill="#000000" height="12.2768" stroke="none" width="12.2768" x="2.86158" y="2.81763"/>
<use fill="#ffffff" fill-rule="evenodd" stroke="none" xlink:href="#Fill_2"/>
</mask>
<use fill="none" mask="url(#StrokeMask_2)" stroke="#000000" stroke-linecap="butt" stroke-linejoin="round" stroke-width="1" xlink:href="#Fill_2"/>
</g>
<clipPath clip-rule="nonzero" id="ClipPath">
<use xlink:href="#Fill_2"/>
</clipPath>
<g clip-path="url(#ClipPath)">
<g opacity="1">
<mask height="5.0516" id="StrokeMask_3" maskUnits="userSpaceOnUse" width="4.61202" x="2.77788" y="8.06397">
<rect fill="#000000" height="5.0516" stroke="none" width="4.61202" x="2.77788" y="8.06397"/>
<use fill="#ffffff" fill-rule="evenodd" stroke="none" xlink:href="#Fill_3"/>
</mask>
<use fill="none" mask="url(#StrokeMask_3)" stroke="#000000" stroke-linecap="butt" stroke-linejoin="round" stroke-width="1" xlink:href="#Fill_3"/>
</g>
<g opacity="1">
<mask height="5.19336" id="StrokeMask_4" maskUnits="userSpaceOnUse" width="5.9393" x="9.1057" y="4.73168">
<rect fill="#000000" height="5.19336" stroke="none" width="5.9393" x="9.1057" y="4.73168"/>
<use fill="#ffffff" fill-rule="evenodd" stroke="none" xlink:href="#Fill_4"/>
</mask>
<use fill="none" mask="url(#StrokeMask_4)" stroke="#000000" stroke-linecap="butt" stroke-linejoin="round" stroke-width="1" xlink:href="#Fill_4"/>
</g>
</g>
</g>
</g>
<path d="M17.191 3.832C16.562 2.785 15.091 2.377 13.036 2.683C12.3319 2.78278 11.6361 2.93385 10.954 3.135C11.4951 3.3218 12.0089 3.57972 12.482 3.902C12.723 3.849 12.965 3.786 13.197 3.751C13.562 3.69418 13.9306 3.66443 14.3 3.662C15.0336 3.55624 15.771 3.82911 16.259 4.387L16.259 4.387C16.642 5.025 16.319 6.116 15.373 7.387C14.0583 9.02342 12.4472 10.3977 10.624 11.438C8.84163 12.5504 6.86597 13.3178 4.8 13.7C3.236 13.934 2.118 13.7 1.735 13.064C1.352 12.428 1.675 11.334 2.621 10.069C2.738 9.912 2.767 9.835 2.9 9.677C2.83749 9.13486 2.84623 8.58687 2.926 8.047C2.50085 8.47315 2.10966 8.93188 1.756 9.419C0.517 11.076 0.181 12.566 0.809 13.613C1.48414 14.5162 2.58885 14.992 3.709 14.862C4.1279 14.8598 4.54606 14.8264 4.96 14.762C7.16528 14.3595 9.27504 13.5453 11.179 12.362C13.1235 11.2492 14.8405 9.7795 16.24 8.03C17.483 6.369 17.819 4.88 17.191 3.832Z" fill="#000000" fill-rule="nonzero" opacity="1" stroke="none"/>
</g>
</svg>
