<?xml version="1.0" encoding="UTF-8" standalone="no"?>
<!DOCTYPE svg PUBLIC "-//W3C//DTD SVG 1.1//EN" "http://www.w3.org/Graphics/SVG/1.1/DTD/svg11.dtd">
<!-- Created with Vectornator (http://vectornator.io/) -->
<svg height="100%" stroke-miterlimit="10" style="fill-rule:nonzero;clip-rule:evenodd;stroke-linecap:round;stroke-linejoin:round;" version="1.1" viewBox="0 0 110 110" width="100%" xml:space="preserve" xmlns="http://www.w3.org/2000/svg" xmlns:vectornator="http://vectornator.io" xmlns:xlink="http://www.w3.org/1999/xlink">
<defs/>
<g id="Layer-1" vectornator:layerName="Layer 1">
<path d="M5.40869 72.3798C9.37848 72.3917 25.2576 72.4392 29.2274 72.4511C29.2393 68.3981 29.2869 52.1862 29.2987 48.1332C25.3171 48.1332 9.39037 48.1332 5.40869 48.1332C5.40869 52.1743 5.40869 68.3387 5.40869 72.3798ZM92.019 49.5595C89.6968 50.0717 87.9021 50.8989 86.207 52.6616C82.045 56.9896 82.1339 64.6061 86.6349 68.6715C89.5088 71.2673 93.542 72.0157 97.2606 71.1318C102.748 69.8275 105.67 64.8314 105.39 59.4007C105.351 58.6318 105.229 57.8634 105.034 57.1187C104.694 55.8227 104.161 54.5267 103.322 53.4817C101.711 51.4742 99.2148 49.8068 96.6188 49.4525C95.0992 49.2451 93.5167 49.2291 92.019 49.5595ZM36.0022 71.0248C40.1028 71.0248 40.1028 71.0248 44.2033 71.0248C44.1557 70.7016 44.3041 70.2729 44.0607 70.055C43.5906 69.6343 42.8393 69.6778 42.3117 69.332C42.1381 69.2181 41.9834 68.9399 42.0775 68.7548C43.2428 66.4647 44.6833 64.3254 45.9861 62.1107C47.2698 64.357 48.7017 66.525 49.8371 68.8498C49.9275 69.035 49.7176 69.2842 49.5429 69.3936C49.1415 69.6449 48.5241 69.5219 48.2049 69.8717C47.9436 70.158 48.1044 70.6405 48.0542 71.0248C54.6864 71.0248 54.6864 71.0248 61.3185 71.0248C61.2651 70.6683 61.447 70.1709 61.1581 69.9551C60.5862 69.5279 59.7124 69.7319 59.0989 69.3668C58.7137 69.1376 58.4127 68.7074 58.3234 68.2681C58.0403 66.8762 58.042 65.4384 58.0114 64.0183C57.9469 61.0297 58.0292 58.0398 58.0381 55.0506C62.5071 60.4229 66.6978 66.0395 71.4451 71.1675C71.8357 71.5894 72.5861 71.3101 73.1566 71.3814C73.2183 65.7008 73.1386 60.017 73.3416 54.3397C73.3723 53.4806 73.4794 52.5852 73.8564 51.8125C74.041 51.434 74.4984 51.195 74.9127 51.1194C75.2963 51.0495 75.7493 51.1592 76.0448 51.4136C76.3631 51.6877 76.5658 52.1348 76.5797 52.5546C76.7499 57.7297 76.7646 62.9132 76.5932 68.0882C76.5777 68.5567 76.391 69.0837 76.0225 69.3735C75.4817 69.7989 74.617 69.6387 74.078 70.0664C73.8251 70.267 73.9867 70.7054 73.941 71.0248C78.8617 71.0248 78.8617 71.0248 83.7823 71.0248C83.7021 70.6772 83.8201 70.205 83.5416 69.9819C83.0596 69.5957 82.3265 69.6993 81.7766 69.4181C81.5511 69.3027 81.3225 69.0835 81.293 68.832C81.0921 67.1184 81.1068 65.3848 81.1014 63.6595C81.0892 59.7703 80.9967 55.8743 81.2402 51.9927C81.2593 51.6877 81.6033 51.4716 81.8747 51.3312C82.4122 51.053 83.133 51.1535 83.6018 50.7707C83.8635 50.557 83.7222 50.1058 83.7823 49.7734C75.9378 49.7734 75.9378 49.7734 68.0933 49.7734C68.1825 50.1211 68.0671 50.6101 68.3608 50.8164C68.9739 51.247 69.8412 51.1354 70.5109 51.4714C70.8062 51.6196 71.0922 51.8974 71.1598 52.2209C71.4511 53.6148 71.5053 55.0515 71.5565 56.4747C71.648 59.0173 71.5773 61.5632 71.5877 64.1074C68.6629 60.8584 65.8376 57.5169 62.8133 54.3603C61.9456 53.4547 60.9566 52.6638 59.9313 51.9414C59.0836 51.3442 58.1785 50.8111 57.2187 50.4184C56.4106 50.0878 55.5457 49.8625 54.6755 49.7913C52.9022 49.6462 51.1171 49.7794 49.3379 49.7734C49.4062 50.127 49.2911 50.5767 49.5429 50.8342C49.9251 51.2251 50.592 51.1934 51.0369 51.511C51.1775 51.6114 51.2469 51.8457 51.186 52.0073C50.8502 52.8977 50.3875 53.7398 49.8905 54.5514C49.3051 55.5077 48.595 56.3818 47.9472 57.297C46.937 55.4867 45.8271 53.7284 44.9164 51.866C44.849 51.7282 44.9625 51.533 45.0818 51.4366C45.4464 51.1419 46.0125 51.1092 46.3056 50.7433C46.509 50.4894 46.3779 50.0967 46.414 49.7734C41.4577 49.7734 41.4577 49.7734 36.5014 49.7734C36.5014 50.0064 36.4228 50.7142 36.7425 50.8747C37.3453 51.1773 38.0725 51.1586 38.6854 51.4404C39.1254 51.6427 39.569 51.9128 39.8532 52.305C41.2577 54.2435 42.4776 56.3109 43.7041 58.3667C44.0899 59.0133 44.725 59.6501 44.6839 60.402C44.6292 61.4026 43.9805 62.2946 43.4431 63.1404C42.3534 64.8555 41.1138 66.4754 39.8264 68.0475C39.4697 68.4831 39.0363 68.881 38.5339 69.135C37.7948 69.5087 36.8327 69.4013 36.1691 69.8967C35.8645 70.1241 36.0578 70.6488 36.0022 71.0248ZM6.83497 49.8447C11.0068 49.8447 11.0068 49.8447 15.1787 49.8447C15.1787 51.378 15.1787 51.378 15.1787 52.9112C13.6811 52.9469 13.6811 52.9469 12.1835 52.9825C14.7864 55.5498 14.7864 55.5498 17.3894 58.1171C19.921 55.5498 19.921 55.5498 22.4526 52.9825C20.9551 52.9469 20.9551 52.9469 19.4575 52.9112C19.4575 51.378 19.4575 51.378 19.4575 49.8447C23.665 49.8447 23.665 49.8447 27.8725 49.8447C27.8725 54.0166 27.8725 54.0166 27.8725 58.1884C26.3036 58.1884 26.3036 58.1884 24.7347 58.1884C24.699 56.7265 24.699 56.7265 24.6634 55.2645C22.1317 57.814 22.1317 57.814 19.6001 60.3635C22.1317 62.9129 22.1317 62.9129 24.6634 65.4624C24.699 63.9648 24.699 63.9648 24.7347 62.4672C26.3036 62.4672 26.3036 62.4672 27.8725 62.4672C27.8725 66.6391 27.8725 66.6391 27.8725 70.8109C23.665 70.8109 23.665 70.8109 19.4575 70.8109C19.4742 69.8595 19.111 67.9947 20.5652 67.7532C21.2099 67.6461 21.871 67.6998 22.524 67.6731C19.9388 65.1415 19.9388 65.1415 17.3537 62.6098C14.7686 65.1415 14.7686 65.1415 12.1835 67.6731C12.8212 67.6998 13.4674 67.6461 14.0966 67.7532C15.5135 67.9941 15.1711 69.892 15.1787 70.8109C11.0068 70.8109 11.0068 70.8109 6.83497 70.8109C6.83497 66.6391 6.83497 66.6391 6.83497 62.4672C7.50332 62.4785 8.17768 62.4109 8.84004 62.5009C10.2944 62.6986 10.0121 64.4823 10.0441 65.4624C12.5757 62.8594 12.5757 62.8594 15.1073 60.2565C12.5757 57.7249 12.5757 57.7249 10.0441 55.1932C10.0066 56.0791 10.2663 57.2413 9.58945 57.814C9.3459 58.0201 9.01847 58.1305 8.70231 58.1734C8.08551 58.2573 7.45741 58.1834 6.83497 58.1884C6.83497 54.0166 6.83497 54.0166 6.83497 49.8447ZM95.7496 50.9768C97.1188 51.449 98.0735 52.4927 98.7604 53.7291C100.444 56.7599 100.511 60.1072 100.229 63.4834C100.004 66.1813 98.5249 69.7198 95.4332 70.0621C92.5636 70.3798 90.3006 68.3365 89.2712 65.8078C88.5627 64.0672 88.2435 62.2994 88.2327 60.4259C88.2135 57.0928 88.6958 52.79 92.0904 51.0927C92.4569 50.9094 92.8603 50.7863 93.267 50.7361C94.0922 50.6344 94.9637 50.7057 95.7496 50.9768ZM55.2034 51.6365C55.8024 52.3448 56.2368 52.9501 56.282 53.8957C56.34 55.1064 56.3668 56.3189 56.3689 57.531C56.3728 59.7619 56.3583 61.9932 56.2999 64.2233C56.2578 65.8283 56.2503 67.3719 55.7561 68.8854C55.3294 68.6177 54.9604 68.2414 54.6842 67.8202C53.2606 65.65 51.8552 63.4675 50.4878 61.2616C49.9302 60.362 49.0737 59.5517 48.9103 58.506C48.8241 57.9537 49.5086 57.5605 49.8393 57.1098C51.2993 55.1197 52.4824 53.4625 54.2585 51.8772C55.0496 51.4966 55.0567 51.463 55.2034 51.6365Z" fill="#000000" fill-rule="nonzero" opacity="1" stroke="none"/>
</g>
</svg>
