<?xml version="1.0" encoding="UTF-8" standalone="no"?>
<!-- Created with Inkscape (http://www.inkscape.org/) -->

<svg
   xmlns:dc="http://purl.org/dc/elements/1.1/"
   xmlns:cc="http://creativecommons.org/ns#"
   xmlns:rdf="http://www.w3.org/1999/02/22-rdf-syntax-ns#"
   xmlns:svg="http://www.w3.org/2000/svg"
   xmlns="http://www.w3.org/2000/svg"
   xmlns:xlink="http://www.w3.org/1999/xlink"
   xmlns:sodipodi="http://sodipodi.sourceforge.net/DTD/sodipodi-0.dtd"
   xmlns:inkscape="http://www.inkscape.org/namespaces/inkscape"
   width="297.55853mm"
   height="126.6288mm"
   viewBox="0 0 297.55853 126.6288"
   version="1.1"
   id="svg8"
   inkscape:version="0.92.3 (2405546, 2018-03-11)"
   sodipodi:docname="bval.svg">
  <defs
     id="defs2">
    <linearGradient
       inkscape:collect="always"
       id="linearGradient1260">
      <stop
         style="stop-color:#9e7046;stop-opacity:1"
         offset="0"
         id="stop1256" />
      <stop
         style="stop-color:#482710;stop-opacity:1"
         offset="1"
         id="stop1258" />
    </linearGradient>
    <linearGradient
       id="linearGradient1254"
       inkscape:collect="always">
      <stop
         id="stop1250"
         offset="0"
         style="stop-color:#caa780;stop-opacity:1" />
      <stop
         id="stop1252"
         offset="1"
         style="stop-color:#4f2d16;stop-opacity:1" />
    </linearGradient>
    <linearGradient
       inkscape:collect="always"
       id="linearGradient1246">
      <stop
         style="stop-color:#603712;stop-opacity:1"
         offset="0"
         id="stop1242" />
      <stop
         style="stop-color:#180c05;stop-opacity:1"
         offset="1"
         id="stop1244" />
    </linearGradient>
    <linearGradient
       inkscape:collect="always"
       id="linearGradient1069">
      <stop
         style="stop-color:#caa780;stop-opacity:1"
         offset="0"
         id="stop1065" />
      <stop
         style="stop-color:#4a2812;stop-opacity:1"
         offset="1"
         id="stop1067" />
    </linearGradient>
    <linearGradient
       inkscape:collect="always"
       id="linearGradient1055">
      <stop
         style="stop-color:#7c512b;stop-opacity:1"
         offset="0"
         id="stop1051" />
      <stop
         style="stop-color:#190d05;stop-opacity:1"
         offset="1"
         id="stop1053" />
    </linearGradient>
    <linearGradient
       inkscape:collect="always"
       id="linearGradient1045">
      <stop
         style="stop-color:#a3764b;stop-opacity:1"
         offset="0"
         id="stop1041" />
      <stop
         style="stop-color:#43230e;stop-opacity:1"
         offset="1"
         id="stop1043" />
    </linearGradient>
    <linearGradient
       id="linearGradient1035"
       inkscape:collect="always">
      <stop
         id="stop1027"
         offset="0"
         style="stop-color:#3ba2f2;stop-opacity:1" />
      <stop
         style="stop-color:#3888cc;stop-opacity:1"
         offset="0.54585379"
         id="stop1029" />
      <stop
         style="stop-color:#2579c6;stop-opacity:1"
         offset="0.54585379"
         id="stop1031" />
      <stop
         id="stop1033"
         offset="1"
         style="stop-color:#1a5b97;stop-opacity:1" />
    </linearGradient>
    <linearGradient
       inkscape:collect="always"
       id="linearGradient1023">
      <stop
         style="stop-color:#3e9dec;stop-opacity:1"
         offset="0"
         id="stop1019" />
      <stop
         style="stop-color:#75bafc;stop-opacity:1"
         offset="1"
         id="stop1021" />
    </linearGradient>
    <linearGradient
       inkscape:collect="always"
       id="linearGradient1000-3">
      <stop
         style="stop-color:#3ba2f2;stop-opacity:1"
         offset="0"
         id="stop992" />
      <stop
         id="stop994"
         offset="0.54585379"
         style="stop-color:#3888cc;stop-opacity:1" />
      <stop
         id="stop996"
         offset="0.54585379"
         style="stop-color:#2579c6;stop-opacity:1" />
      <stop
         style="stop-color:#175ea7;stop-opacity:1"
         offset="1"
         id="stop998" />
    </linearGradient>
    <linearGradient
       id="linearGradient973-5"
       inkscape:collect="always">
      <stop
         id="stop965"
         offset="0"
         style="stop-color:#1a5b97;stop-opacity:1" />
      <stop
         style="stop-color:#165087;stop-opacity:1"
         offset="0.54585379"
         id="stop967" />
      <stop
         style="stop-color:#185691;stop-opacity:1"
         offset="0.54585379"
         id="stop969" />
      <stop
         id="stop971"
         offset="1"
         style="stop-color:#1e64a2;stop-opacity:1" />
    </linearGradient>
    <linearGradient
       inkscape:collect="always"
       id="linearGradient927-7">
      <stop
         style="stop-color:#12579e;stop-opacity:1"
         offset="0"
         id="stop923" />
      <stop
         id="stop933"
         offset="0.54585379"
         style="stop-color:#4a90cc;stop-opacity:1" />
      <stop
         id="stop931"
         offset="0.54585379"
         style="stop-color:#3684c8;stop-opacity:1" />
      <stop
         style="stop-color:#6dbef9;stop-opacity:1"
         offset="1"
         id="stop925" />
    </linearGradient>
    <linearGradient
       inkscape:collect="always"
       id="linearGradient919-6">
      <stop
         style="stop-color:#2c89d5;stop-opacity:0.98039216"
         offset="0"
         id="stop915" />
      <stop
         style="stop-color:#155b9d;stop-opacity:0.96862745"
         offset="1"
         id="stop917" />
    </linearGradient>
    <linearGradient
       inkscape:collect="always"
       xlink:href="#linearGradient919-6"
       id="linearGradient921"
       x1="360.26071"
       y1="421.47134"
       x2="402.5506"
       y2="421.47134"
       gradientUnits="userSpaceOnUse" />
    <linearGradient
       inkscape:collect="always"
       xlink:href="#linearGradient927-7"
       id="linearGradient929"
       x1="167.2905"
       y1="476.93521"
       x2="285.87466"
       y2="535.84894"
       gradientUnits="userSpaceOnUse" />
    <linearGradient
       inkscape:collect="always"
       xlink:href="#linearGradient973-5"
       id="linearGradient949"
       x1="224.75894"
       y1="668.96118"
       x2="254.22914"
       y2="559.07263"
       gradientUnits="userSpaceOnUse"
       gradientTransform="scale(0.26458333)" />
    <linearGradient
       inkscape:collect="always"
       xlink:href="#linearGradient1000-3"
       id="linearGradient981"
       x1="-13.649862"
       y1="597.0694"
       x2="81.963074"
       y2="541.86725"
       gradientUnits="userSpaceOnUse"
       gradientTransform="scale(0.26458333)" />
    <linearGradient
       inkscape:collect="always"
       xlink:href="#linearGradient1035"
       id="linearGradient1008"
       x1="-59.512192"
       y1="677.7738"
       x2="10.016376"
       y2="747.30237"
       gradientUnits="userSpaceOnUse"
       gradientTransform="scale(0.26458333)" />
    <linearGradient
       inkscape:collect="always"
       xlink:href="#linearGradient1023"
       id="linearGradient1025"
       x1="-51.163677"
       y1="563.2569"
       x2="-13.952229"
       y2="563.2569"
       gradientUnits="userSpaceOnUse"
       gradientTransform="scale(0.26458333)" />
    <radialGradient
       inkscape:collect="always"
       xlink:href="#linearGradient1045"
       id="radialGradient1049"
       cx="-26.138552"
       cy="101.03701"
       fx="-26.138552"
       fy="101.03701"
       r="72.673805"
       gradientTransform="matrix(0.97358713,0.19569989,-0.10339221,0.49131608,14.269248,61.434177)"
       gradientUnits="userSpaceOnUse" />
    <radialGradient
       inkscape:collect="always"
       xlink:href="#linearGradient1055"
       id="radialGradient1059"
       cx="-7.1144404"
       cy="156.40639"
       fx="-7.1144404"
       fy="156.40639"
       r="74.385941"
       gradientTransform="matrix(1.0680593,0.76106292,-0.27396103,0.38447098,36.995207,94.360536)"
       gradientUnits="userSpaceOnUse" />
    <linearGradient
       inkscape:collect="always"
       xlink:href="#linearGradient1254"
       id="linearGradient1071"
       x1="-39.048332"
       y1="133.72298"
       x2="106.63286"
       y2="133.72298"
       gradientUnits="userSpaceOnUse"
       gradientTransform="matrix(0.99396534,0,0,0.97143941,-0.24793989,3.819266)" />
    <linearGradient
       inkscape:collect="always"
       xlink:href="#linearGradient1069"
       id="linearGradient1073"
       x1="-32.73698"
       y1="125.22767"
       x2="111.79359"
       y2="125.22767"
       gradientUnits="userSpaceOnUse"
       gradientTransform="matrix(0.98341281,0,0,0.97602433,0.65528935,2.1251987)" />
    <radialGradient
       inkscape:collect="always"
       xlink:href="#linearGradient1246"
       id="radialGradient1248"
       cx="29.194822"
       cy="89.809662"
       fx="29.194822"
       fy="89.809662"
       r="69.690529"
       gradientTransform="matrix(0.86418932,0.17166259,-0.0486849,0.24509109,8.4389946,85.139279)"
       gradientUnits="userSpaceOnUse" />
    <radialGradient
       inkscape:collect="always"
       xlink:href="#linearGradient1260"
       id="radialGradient1262"
       cx="-8.4985476"
       cy="75.258492"
       fx="-8.4985476"
       fy="75.258492"
       r="70.599777"
       gradientTransform="matrix(0.7028226,-0.00946425,0.00688658,0.51140317,4.0229914,61.007306)"
       gradientUnits="userSpaceOnUse" />
  </defs>
  <sodipodi:namedview
     id="base"
     pagecolor="#ffffff"
     bordercolor="#666666"
     borderopacity="1.0"
     inkscape:pageopacity="0.0"
     inkscape:pageshadow="2"
     inkscape:zoom="1.4"
     inkscape:cx="568.32295"
     inkscape:cy="173.3289"
     inkscape:document-units="mm"
     inkscape:current-layer="layer1"
     showgrid="false"
     inkscape:snap-global="false"
     inkscape:window-width="3726"
     inkscape:window-height="2049"
     inkscape:window-x="114"
     inkscape:window-y="55"
     inkscape:window-maximized="1"
     fit-margin-top="0"
     fit-margin-left="0"
     fit-margin-right="0"
     fit-margin-bottom="0" />
  <metadata
     id="metadata5">
    <rdf:RDF>
      <cc:Work
         rdf:about="">
        <dc:format>image/svg+xml</dc:format>
        <dc:type
           rdf:resource="http://purl.org/dc/dcmitype/StillImage" />
        <dc:title></dc:title>
      </cc:Work>
    </rdf:RDF>
  </metadata>
  <g
     inkscape:label="Layer 1"
     inkscape:groupmode="layer"
     id="layer1"
     transform="translate(43.370433,-88.456648)">
    <g
       id="g1183">
      <path
         inkscape:connector-curvature="0"
         id="path1063"
         d="m -31.270535,94.676967 1.062963,48.509413 134.597722,20.44612 c 0,0 -3.07131,12.16077 -5.861585,16.83798 0,0 6.393065,-5.34539 9.581955,-20.31248 0,0 -11.161111,-39.15498 -53.679641,-48.24215 -42.51853,-9.08716 -85.701414,-17.238883 -85.701414,-17.238883"
         style="fill:url(#radialGradient1248);fill-opacity:1;fill-rule:evenodd;stroke:none;stroke-width:0.26382557px;stroke-linecap:butt;stroke-linejoin:miter;stroke-opacity:1"
         sodipodi:nodetypes="cccccsc" />
      <path
         inkscape:connector-curvature="0"
         id="path1037"
         d="m -36.738094,99.727413 c 0,0 -15.852136,25.166217 1.458516,54.951557 19.200867,33.03771 62.295605,56.1888 101.428787,45.70309 39.133181,-10.4857 39.021351,-36.74956 39.021351,-36.74956 0,0 -32.139162,-33.60914 -72.496862,-35.34639 -40.3576969,-1.73725 -52.573813,-6.77624 -69.411792,-28.558697 z"
         style="opacity:1;fill:url(#radialGradient1059);fill-opacity:1;fill-rule:evenodd;stroke:none;stroke-width:1.5;stroke-linecap:butt;stroke-linejoin:miter;stroke-miterlimit:4;stroke-dasharray:none;stroke-opacity:1"
         sodipodi:nodetypes="csscsc" />
      <path
         inkscape:connector-curvature="0"
         id="path1039"
         d="m -34.650473,98.258747 c 0,0 -18.894592,18.728233 25.9015206,45.825783 43.3955394,26.25033 83.5490154,32.06505 113.0369024,18.69379 0,0 -30.683342,-32.19488 -70.531838,-35.1807 -39.8484981,-2.9858 -45.560112,-2.33671 -68.406585,-29.338873 z"
         style="fill:url(#radialGradient1049);fill-opacity:1;fill-rule:evenodd;stroke:url(#linearGradient1071);stroke-width:1.71961617;stroke-linecap:butt;stroke-linejoin:miter;stroke-miterlimit:4;stroke-dasharray:none;stroke-opacity:1;paint-order:normal"
         sodipodi:nodetypes="cscsc" />
      <path
         inkscape:connector-curvature="0"
         id="path1061"
         d="m -30.096555,94.532219 c 0,0 41.133877,-22.825386 121.167525,26.999171 0,0 22.81838,14.02148 16.6901,36.9119 0,0 -23.261008,-40.56396 -55.721288,-44.08559 -32.46028,-3.52164 -60.3209266,0.65215 -82.136337,-19.825481 z"
         style="fill:url(#radialGradient1262);fill-opacity:1;fill-rule:evenodd;stroke:url(#linearGradient1073);stroke-width:1.71449518;stroke-linecap:butt;stroke-linejoin:miter;stroke-miterlimit:4;stroke-dasharray:none;stroke-opacity:1"
         sodipodi:nodetypes="cccsc" />
      <path
         style="opacity:0.50899999;fill:#36200f;fill-opacity:1;fill-rule:evenodd;stroke:#36200f;stroke-width:1.71449518;stroke-linecap:butt;stroke-linejoin:miter;stroke-miterlimit:4;stroke-dasharray:none;stroke-opacity:1"
         d="m 45.156625,98.632473 c -4.659046,4.376297 -5.553652,9.009017 -5.966045,14.644587 4.198403,0.27403 8.480282,0.6066 12.848828,1.08055 32.460279,3.52163 55.721662,44.08568 55.721662,44.08568 C 113.88936,135.55287 91.070616,121.53133 91.070616,121.53133 73.983425,110.89379 58.67579,103.57607 45.156625,98.632473 Z m -7.51427,29.352207 c -2.960468,11.11779 -19.046246,20.20489 -29.8870657,25.18348 37.0049307,18.33925 70.8228397,21.26782 96.5326107,9.60975 0,0 -28.706232,-30.1174 -66.645545,-34.79323 z"
         id="path1061-1"
         inkscape:connector-curvature="0" />
    </g>
    <g
       id="g892"
       style="opacity:1">
      <path
         inkscape:connector-curvature="0"
         id="path879"
         d="M -13.363476,156.95077 28.33057,213.211 c 0,0 1.469982,4.14268 4.677216,0 3.207235,-4.14268 74.300924,-95.68249 74.300924,-95.68249 l -4.05363,-7.02109 -8.533197,-4.92665 -63.651802,55.11177 c 0,0 -1.084902,0.49513 -2.405425,-0.26727 -1.320522,-0.7624 -32.4732471,-19.17659 -32.4732471,-19.17659 l -9.6217019,7.88445 z"
         style="fill:#1a5b97;fill-opacity:1;fill-rule:evenodd;stroke:none;stroke-width:0.26458332px;stroke-linecap:butt;stroke-linejoin:miter;stroke-opacity:1" />
      <path
         d="m 97.553377,112.38357 9.755333,5.14494 -4.05363,-7.02109 -8.533197,-4.92665 m -63.184079,69.67796 66.015573,-62.87516 -2.831494,-6.8028 m -98.1963868,42.61692 34.9650608,26.9193 -1.222282,-14.03501 m -43.431299,-4.26484 9.6885202,-8.61945 -0.334087,-6.68174"
         style="fill:none;fill-opacity:0.43971635;fill-rule:evenodd;stroke:#ffffff;stroke-width:0.6;stroke-linecap:round;stroke-linejoin:bevel;stroke-miterlimit:4;stroke-dasharray:none;stroke-opacity:0.73522459"
         id="path887"
         inkscape:connector-curvature="0"
         sodipodi:nodetypes="ccccccccccccc" />
    </g>
    <path
       style="opacity:1;fill:url(#linearGradient921);fill-opacity:1;stroke:none;stroke-width:0.4049494;stroke-linecap:round;stroke-linejoin:bevel;stroke-miterlimit:4;stroke-dasharray:none;stroke-opacity:0.73522459;paint-order:fill markers stroke"
       d="m 360.55585,401.8476 c -0.37933,0.71522 0.51248,1.52649 0.60895,2.26388 2.75725,6.6781 5.46743,13.40575 8.36057,20.00835 10.81502,5.6794 21.57894,11.47794 32.47474,17.00337 0.87187,-0.22819 -0.1563,-1.15455 -0.30444,-1.65083 -4.00941,-7.08492 -8.06513,-14.15973 -12.19974,-21.16272 -9.56262,-5.49384 -19.06176,-11.10271 -28.68652,-16.48437 l -0.17789,0.0157 z"
       id="path894"
       inkscape:connector-curvature="0"
       transform="scale(0.26458333)" />
    <path
       style="opacity:1;fill:url(#linearGradient929);fill-opacity:1;stroke:none;stroke-width:0.4049494;stroke-linecap:round;stroke-linejoin:bevel;stroke-miterlimit:4;stroke-dasharray:none;stroke-opacity:0.73522459;paint-order:fill markers stroke"
       d="m 356.85188,399.78042 c -79.25369,68.63536 -158.52313,137.25124 -237.79471,205.86497 -0.9855,0.85823 -2.0224,1.73948 -3.33112,2.03473 -0.76889,0.66195 -0.0391,1.86741 -0.17367,2.71927 1.43593,16.43016 2.85037,32.87798 4.3537,49.29244 0.72771,0.48074 1.31403,-0.7573 1.85684,-1.06982 81.76369,-77.87432 163.56816,-155.7062 245.3041,-233.60941 1.06888,-0.69191 -0.21787,-1.82435 -0.36503,-2.70003 -3.13979,-7.46941 -6.20286,-14.97173 -9.40438,-22.41426 -0.12648,-0.17682 -0.25602,-0.18176 -0.44573,-0.11789 z"
       id="path896"
       inkscape:connector-curvature="0"
       transform="scale(0.26458333)" />
    <path
       style="opacity:1;fill:url(#linearGradient1025);fill-opacity:1;stroke:none;stroke-width:0.10714286;stroke-linecap:round;stroke-linejoin:bevel;stroke-miterlimit:4;stroke-dasharray:none;stroke-opacity:0.73522459;paint-order:fill markers stroke"
       d="m -4.010149,141.29878 c -0.5835117,0.35464 -1.2155773,1.08883 -1.7611243,1.50261 -2.568866,2.08269 -5.1186597,4.18836 -7.6814187,6.27833 -0.0656,0.68471 -0.003,1.39782 -0.01936,2.09342 0.01935,1.76189 -0.0023,3.52639 0.09124,5.28606 0.153438,0.16831 0.313424,-0.17598 0.454505,-0.23682 3.0606487,-2.69875 6.1205777,-5.39858 9.1605409,-8.12055 0.058145,-0.42033 -0.027144,-0.86618 -0.023119,-1.295 l -0.2048104,-5.37558 z"
       id="path898"
       inkscape:connector-curvature="0"
       sodipodi:nodetypes="cccccccccc" />
    <path
       style="opacity:1;fill:url(#linearGradient949);fill-opacity:1;stroke:none;stroke-width:0.15152289;stroke-linecap:round;stroke-linejoin:bevel;stroke-miterlimit:4;stroke-dasharray:none;stroke-opacity:0.73522459;paint-order:fill markers stroke"
       d="m 97.603863,112.79239 c -7.662263,7.19632 -15.259395,14.46258 -22.883576,21.69952 -14.349894,13.65292 -28.691363,27.31473 -43.03751,40.97166 -0.05813,2.48124 -0.0095,4.98446 -0.02651,7.47415 0.01101,10.10806 -0.0353,20.21637 0.02429,30.32426 0.03972,0.38506 -0.04635,0.80926 0.09227,1.174 0.255259,0.0695 0.417425,-0.3025 0.596006,-0.44174 2.535904,-3.06936 4.914172,-6.2656 7.37594,-9.39437 21.726318,-27.98148 43.460865,-55.95663 65.179407,-83.94411 0.71032,-0.96648 1.50392,-1.88907 2.14217,-2.89944 -0.33303,-0.31524 -0.83426,-0.45878 -1.22645,-0.71106 -2.71474,-1.43161 -5.42295,-2.87765 -8.160607,-4.26461 l -0.066,0.0103 z"
       id="path937"
       inkscape:connector-curvature="0" />
    <path
       style="opacity:1;fill:url(#linearGradient1008);fill-opacity:1;stroke:none;stroke-width:0.15152289;stroke-linecap:round;stroke-linejoin:bevel;stroke-miterlimit:4;stroke-dasharray:none;stroke-opacity:0.73522459;paint-order:fill markers stroke"
       d="m -3.5119746,148.5808 c -3.2151517,2.86432 -6.4744287,5.68069 -9.6549804,8.58264 0.05374,0.35108 0.44841,0.63719 0.627407,0.96344 10.9233843,14.73833 21.825317,29.49233 32.760493,44.22188 2.619617,3.55995 5.289103,7.09331 7.886973,10.66309 0.460912,0.76643 0.876342,1.70804 1.803283,2.00291 0.536938,0.18266 1.156753,-0.0132 1.595395,-0.30746 -0.01132,-13.04383 -0.0226,-26.08766 -0.0338,-39.1315 -1.071269,-0.91916 -2.249326,-1.7511 -3.361397,-2.63693 C 17.603705,164.8186 7.098725,156.69479 -3.4110958,148.57728 l -0.066777,0.002 z"
       id="path939"
       inkscape:connector-curvature="0" />
    <path
       style="fill:#278cda;stroke-width:0.26458335"
       d="m 193.05049,178.04665 c -5.3913,-1.17151 -7.99226,-6.82392 -6.0171,-13.07642 0.56026,-1.77354 0.91801,-2.39235 2.15639,-3.72995 2.80056,-3.02493 6.15774,-4.35106 12.03003,-4.75201 2.08725,-0.14251 4.705,-0.26088 5.81722,-0.26304 2.2289,-0.004 2.34341,-0.0902 2.34341,-1.75849 0,-2.33532 -1.49789,-3.34288 -5.18798,-3.48972 -2.79884,-0.11138 -5.7079,0.51058 -9.331,1.99496 -1.29059,0.52875 -2.31394,0.80974 -2.45075,0.67293 -0.35988,-0.35988 0.98448,-6.47821 1.50745,-6.86062 0.23865,-0.1745 1.99959,-0.70976 3.9132,-1.18945 3.20879,-0.80436 3.79812,-0.87117 7.58033,-0.85936 3.71866,0.0116 4.30118,0.079 6.24751,0.72226 3.80278,1.25691 5.68798,3.3344 6.06108,6.67933 0.19072,1.70979 -0.1375,4.72094 -0.92104,8.44986 -0.27519,1.30969 -0.86367,4.28625 -1.30772,6.61459 -1.69218,8.87274 -1.8778,9.73541 -2.17064,10.08827 -0.3825,0.46088 -7.3748,0.52673 -7.82781,0.0737 -0.16377,-0.16376 -0.22894,-0.73717 -0.15038,-1.32292 0.16993,-1.26689 -0.12944,-1.32013 -1.46787,-0.26105 -1.54364,1.22147 -2.98271,1.85203 -5.19094,2.27453 -2.4468,0.46815 -3.4509,0.46683 -5.63339,-0.007 z m 8.19143,-5.85706 c 2.82014,-0.79129 5.07428,-3.50868 6.1597,-7.4256 0.6474,-2.33623 0.55203,-2.45831 -1.91548,-2.45202 -4.56438,0.0116 -7.84764,0.97193 -9.14483,2.67477 -2.0161,2.64653 -1.25384,6.2544 1.52975,7.24057 1.36398,0.48322 1.52047,0.48147 3.37086,-0.0377 z m -75.06021,5.21897 c -0.18066,-0.29231 0.11434,-2.06092 1.57014,-9.41329 0.34577,-1.74625 1.00385,-5.13954 1.46241,-7.54063 0.45856,-2.40109 1.17178,-6.09203 1.58493,-8.20208 0.41315,-2.11005 1.12369,-5.80099 1.57896,-8.20209 0.45528,-2.40109 1.06782,-5.46299 1.36121,-6.80422 0.52789,-2.41326 0.5426,-2.44032 1.4155,-2.60407 0.48513,-0.091 4.31724,-0.11231 8.5158,-0.0473 9.99709,0.15472 12.11914,0.6659 14.62844,3.52383 1.61438,1.83869 1.92362,2.9262 1.82437,6.41583 -0.0788,2.77124 -0.16625,3.24757 -0.85275,4.64571 -1.04267,2.12351 -2.53181,3.4943 -5.12205,4.71497 -1.20055,0.56576 -2.18281,1.06465 -2.18281,1.10863 0,0.044 0.78446,0.47816 1.74325,0.96481 2.1303,1.08129 3.34878,2.45122 4.06403,4.56917 0.73697,2.18232 0.69631,4.35363 -0.13538,7.22943 -0.78208,2.70423 -1.73045,4.31639 -3.52853,5.99829 -1.65102,1.54432 -2.96971,2.19854 -6.08443,3.01854 -2.43387,0.64075 -2.94496,0.6746 -12.0968,0.80105 -7.1168,0.0983 -9.60425,0.0533 -9.74629,-0.17655 z m 18.77269,-7.19638 c 2.06141,-0.57202 4.00444,-2.55205 4.47731,-4.56257 0.34953,-1.48612 0.20944,-4.35614 -0.25065,-5.13501 -0.63531,-1.0755 -1.92451,-1.86548 -3.54631,-2.17304 -1.70915,-0.32414 -6.88999,-0.34903 -7.38466,-0.0355 -0.37008,0.23457 -2.409,9.79711 -2.41852,11.34284 l -0.005,0.8599 4.0349,-0.002 c 2.21919,-7.9e-4 4.51114,-0.13363 5.09323,-0.29515 z m 3.56043,-19.6214 c 2.09395,-0.85161 2.95847,-2.16822 3.12472,-4.75874 0.12164,-1.89537 0.0999,-1.98422 -0.7102,-2.90691 -1.05819,-1.20521 -2.41126,-1.52049 -6.52545,-1.52049 -2.41554,0 -3.06827,0.0789 -3.18581,0.38523 -0.29941,0.78024 -1.88476,9.01408 -1.77252,9.20592 0.0639,0.10914 1.80571,0.19478 3.8708,0.19031 3.25651,-0.007 3.94626,-0.086 5.19846,-0.59532 z m 16.62122,26.70041 c -0.27396,-0.27395 -0.44298,-2.33783 -0.69879,-8.5328 -0.18558,-4.4943 -0.44156,-10.19552 -0.56883,-12.66937 -0.12728,-2.47386 -0.36805,-8.23461 -0.53504,-12.80167 -0.25249,-6.90528 -0.24383,-8.34164 0.0514,-8.52876 0.43679,-0.27684 7.11439,-0.30122 7.54465,-0.0275 0.49408,0.31427 0.59758,2.4504 0.89985,18.57148 0.1568,8.36285 0.35362,15.31606 0.43738,15.45157 0.16875,0.27306 0.97284,-1.17366 1.67173,-3.00779 0.43597,-1.14413 1.33412,-3.36549 7.00696,-17.33021 1.41875,-3.4925 2.90792,-7.18344 3.30926,-8.20208 1.88337,-4.78017 2.18114,-5.38163 2.73835,-5.53119 0.97635,-0.26206 7.055,-0.16882 7.58792,0.11639 0.46913,0.25107 0.48083,0.3442 0.14128,1.12448 -0.20362,0.4679 -1.04798,2.39854 -1.87636,4.29032 -0.82838,1.89177 -2.9128,6.7138 -4.63204,10.71562 -1.71924,4.00182 -3.80473,8.82386 -4.63442,10.71563 -0.82969,1.89177 -1.78197,4.09442 -2.11618,4.89479 -0.33422,0.80036 -1.04808,2.46724 -1.58637,3.70416 -0.53829,1.23693 -1.20956,2.82937 -1.49171,3.53875 -0.72571,1.82458 -1.56881,3.43933 -1.91467,3.66709 -0.16235,0.10691 -2.6977,0.19621 -5.6341,0.19844 -4.16392,0.003 -5.41844,-0.0755 -5.70027,-0.35731 z m 61.44231,0.0869 c -2.57144,-0.30643 -4.59102,-1.16085 -5.63967,-2.38596 -1.69102,-1.97556 -1.88582,-4.06835 -0.83072,-8.92463 0.37035,-1.70461 0.95802,-4.40897 1.30593,-6.0097 0.34791,-1.60073 0.81398,-3.80339 1.03571,-4.8948 0.55813,-2.74728 1.87096,-8.89399 2.53868,-11.88625 0.85437,-3.82866 1.10382,-3.56839 -3.56931,-3.72416 l -3.96875,-0.13229 0.0705,-1.5875 c 0.0388,-0.87313 0.21737,-2.30188 0.39687,-3.175 l 0.32637,-1.5875 8.53281,-0.0698 c 8.00219,-0.0655 8.53278,-0.0408 8.53228,0.39688 -5.2e-4,0.42814 -0.80807,4.44885 -2.53834,12.63752 -0.36898,1.74625 -1.01689,4.84187 -1.4398,6.87917 -0.42291,2.03729 -1.19516,5.72823 -1.7161,8.20208 -1.46096,6.93771 -1.53917,7.4098 -1.35151,8.1575 0.35562,1.41692 1.1176,1.61949 6.63688,1.76437 l 5.03961,0.1323 -0.0336,0.66145 c -0.0473,0.93211 -0.98848,5.09199 -1.24214,5.4901 -0.23962,0.37606 -9.05758,0.4171 -12.08575,0.0562 z"
       id="path1228"
       inkscape:connector-curvature="0" />
    <g
       aria-label="APACHE"
       style="font-style:normal;font-variant:normal;font-weight:bold;font-stretch:normal;font-size:15.04054356px;line-height:125%;font-family:Montserrat;-inkscape-font-specification:'Montserrat Bold';letter-spacing:0px;word-spacing:0px;fill:#818181;fill-opacity:0.99215686;stroke:none;stroke-width:1.12804067px;stroke-linecap:butt;stroke-linejoin:miter;stroke-opacity:1"
       id="text1232">
      <path
         d="m 180.55145,129.39149 -0.97763,-2.27112 h -4.40688 l -0.97764,2.27112 h -2.49673 l 4.54225,-10.51334 h 2.27112 l 4.54224,10.51334 z m -3.17355,-7.3849 -1.32357,3.05323 h 2.6321 z"
         style="fill:#818181;fill-opacity:0.99215686;stroke-width:1.12804067px"
         id="path1320" />
      <path
         d="m 187.96856,118.87815 q 2.42152,0 3.51948,0.94756 1.113,0.93251 1.113,2.88778 0,1.94023 -1.14308,2.84267 -1.12804,0.90243 -3.45932,0.90243 h -1.39877 v 2.9329 h -2.34633 v -10.51334 z m 0.21056,5.54997 q 1.17317,0 1.5943,-0.46626 0.42114,-0.4813 0.42114,-1.38373 0,-0.91747 -0.5565,-1.29349 -0.54146,-0.39105 -1.69958,-0.39105 h -1.33861 v 3.53453 z"
         style="fill:#818181;fill-opacity:0.99215686;stroke-width:1.12804067px"
         id="path1322" />
      <path
         d="m 201.32033,129.39149 -0.97764,-2.27112 h -4.40688 l -0.97763,2.27112 h -2.49673 l 4.54224,-10.51334 h 2.27113 l 4.54224,10.51334 z m -3.17356,-7.3849 -1.32356,3.05323 h 2.63209 z"
         style="fill:#818181;fill-opacity:0.99215686;stroke-width:1.12804067px"
         id="path1324" />
      <path
         d="m 209.85043,127.3159 q 1.72967,0 2.82762,-1.36869 l 1.50406,1.54918 q -1.78983,2.01543 -4.22639,2.01543 -2.42153,0 -4.00079,-1.53414 -1.56421,-1.53413 -1.56421,-3.86542 0,-2.34632 1.59429,-3.91054 1.60934,-1.56421 3.92558,-1.56421 2.58698,0 4.33168,1.97031 l -1.45893,1.65446 q -1.113,-1.38373 -2.76746,-1.38373 -1.32357,0 -2.27112,0.87235 -0.93252,0.85731 -0.93252,2.33128 0,1.45894 0.88739,2.34633 0.8874,0.88739 2.1508,0.88739 z"
         style="fill:#818181;fill-opacity:0.99215686;stroke-width:1.12804067px"
         id="path1326" />
      <path
         d="m 222.56604,118.87815 h 2.34632 v 10.51334 h -2.34632 v -4.13614 h -4.18127 v 4.13614 h -2.34633 v -10.51334 h 2.34633 v 4.39184 h 4.18127 z"
         style="fill:#818181;fill-opacity:0.99215686;stroke-width:1.12804067px"
         id="path1328" />
      <path
         d="m 235.07554,118.87815 v 2.09064 h -5.23411 v 2.16584 h 4.70769 v 2.00039 h -4.70769 v 2.18088 h 5.39955 v 2.07559 h -7.74588 v -10.51334 z"
         style="fill:#818181;fill-opacity:0.99215686;stroke-width:1.12804067px"
         id="path1330" />
    </g>
    <g
       aria-label="TM"
       style="font-style:normal;font-variant:normal;font-weight:bold;font-stretch:normal;font-size:8.16248417px;line-height:125%;font-family:Montserrat;-inkscape-font-specification:'Montserrat Bold';letter-spacing:0px;word-spacing:0px;fill:#7d7d7d;fill-opacity:1;stroke:none;stroke-width:0.61218631px;stroke-linecap:butt;stroke-linejoin:miter;stroke-opacity:1"
       id="text1236">
      <path
         d="m 245.26306,172.72122 v 4.60364 h -1.27335 v -4.60364 h -1.61617 v -1.10194 h 4.50569 v 1.10194 z"
         style="fill:#7d7d7d;fill-opacity:1;stroke-width:0.61218631px"
         id="path1315" />
      <path
         d="m 252.91475,173.73337 -1.54271,3.11807 h -0.75911 l -1.53455,-3.11807 v 3.59149 h -1.27335 v -5.70558 h 1.72229 l 1.46925,3.1344 1.4774,-3.1344 h 1.71413 v 5.70558 h -1.27335 z"
         style="fill:#7d7d7d;fill-opacity:1;stroke-width:0.61218631px"
         id="path1317" />
    </g>
    <path
       style="fill:#c3d4e4;fill-opacity:1;fill-rule:evenodd;stroke:none;stroke-width:0.26458332px;stroke-linecap:butt;stroke-linejoin:miter;stroke-opacity:1"
       d="m -3.4110959,148.57728 35.0938729,26.88629 v 0.98565 z"
       id="path1238"
       inkscape:connector-curvature="0" />
    <path
       style="opacity:1;fill:url(#linearGradient981);fill-opacity:1;stroke:none;stroke-width:0.15152289;stroke-linecap:round;stroke-linejoin:bevel;stroke-miterlimit:4;stroke-dasharray:none;stroke-opacity:0.73522459;paint-order:fill markers stroke"
       d="m -3.5358567,141.48341 c 0.1075867,2.1781 0.152419,4.36495 0.3691921,6.53571 0.2046537,0.34881 0.6571074,0.51986 0.944219,0.80788 11.0881839,8.575 22.2581006,17.16714 33.3813926,25.6963 l -0.01085,-0.62432 c -0.372272,-4.30739 -0.713224,-8.61922 -1.146466,-12.92029 -0.104781,-0.34617 -0.594691,-0.17857 -0.827781,-0.3765 -2.570226,-1.37642 -5.040203,-2.93328 -7.563691,-4.39551 C 12.875,151.03798 3.9242323,145.67182 -3.5358667,141.41251 Z"
       id="path941"
       inkscape:connector-curvature="0"
       sodipodi:nodetypes="cccccccccc" />
    <path
       style="fill:#c3d4e4;fill-opacity:1;fill-rule:evenodd;stroke:none;stroke-width:0.26458332px;stroke-linecap:butt;stroke-linejoin:miter;stroke-opacity:1"
       d="M 31.682777,176.44922 97.679292,112.78065 31.465291,174.85057 Z"
       id="path1240"
       inkscape:connector-curvature="0"
       sodipodi:nodetypes="cccc" />
    <path
       id="path1268"
       style="fill:#512f18;fill-opacity:1;fill-rule:evenodd;stroke:none;stroke-width:0.26359499px;stroke-linecap:butt;stroke-linejoin:miter;stroke-opacity:1"
       d="m 105.74355,163.05919 c 0,0 0.41037,3.90565 -0.98233,7.81447 0,0 0.14913,-5.08535 -0.65139,-7.09917"
       inkscape:connector-curvature="0"
       sodipodi:nodetypes="ccc" />
  </g>
</svg>
