<?xml version="1.0" encoding="utf-8"?>
<!-- Generator: Adobe Illustrator 19.2.1, SVG Export Plug-In . SVG Version: 6.00 Build 0)  -->
<svg version="1.1" id="layer" xmlns="http://www.w3.org/2000/svg" xmlns:xlink="http://www.w3.org/1999/xlink" x="0px" y="0px"
	 viewBox="0 0 652 652" style="enable-background:new 0 0 652 652;" xml:space="preserve">
<style type="text/css">
	.st0{fill:#000000;}
	.st1{fill:#FFFFFF;}
	.st2{fill:#000000;}
</style>
<path class="st0" d="M20.2,255.9c0-5.1,4.1-9.1,9.1-9.1h105.2c5.1,0,9.1,4.1,9.1,9.1v105.2c0,5.1-4.1,9.1-9.1,9.1H29.3
	c-5.1,0-9.1-4.1-9.1-9.1V255.9z"/>
<path class="st1" d="M38.5,267.4c0-1.3,1-2.3,2.3-2.3h13.7c1.3,0,2.3,1,2.3,2.3v13.7c0,1.3-1,2.3-2.3,2.3H40.8c-1.3,0-2.3-1-2.3-2.3
	V267.4z"/>
<path class="st1" d="M63.6,265.1c-1.3,0-2.3,1-2.3,2.3v13.7c0,1.3,1,2.3,2.3,2.3h13.7c1.3,0,2.3-1,2.3-2.3v-13.7
	c0-1.3-1-2.3-2.3-2.3H63.6z"/>
<path class="st1" d="M84.2,267.4c0-1.3,1-2.3,2.3-2.3h13.7c1.3,0,2.3,1,2.3,2.3v13.7c0,1.3-1,2.3-2.3,2.3H86.5c-1.3,0-2.3-1-2.3-2.3
	V267.4z"/>
<path class="st1" d="M40.8,288c-1.3,0-2.3,1-2.3,2.3V304c0,1.3,1,2.3,2.3,2.3h13.7c1.3,0,2.3-1,2.3-2.3v-13.7c0-1.3-1-2.3-2.3-2.3
	H40.8z"/>
<path class="st1" d="M61.3,290.2c0-1.3,1-2.3,2.3-2.3h13.7c1.3,0,2.3,1,2.3,2.3V304c0,1.3-1,2.3-2.3,2.3H63.6c-1.3,0-2.3-1-2.3-2.3
	V290.2z"/>
<path class="st1" d="M109.4,288c-1.3,0-2.3,1-2.3,2.3V304c0,1.3,1,2.3,2.3,2.3h13.7c1.3,0,2.3-1,2.3-2.3v-13.7c0-1.3-1-2.3-2.3-2.3
	H109.4z"/>
<path class="st1" d="M38.5,313.1c0-1.3,1-2.3,2.3-2.3h13.7c1.3,0,2.3,1,2.3,2.3v13.7c0,1.3-1,2.3-2.3,2.3H40.8c-1.3,0-2.3-1-2.3-2.3
	V313.1z"/>
<path class="st1" d="M86.5,310.8c-1.3,0-2.3,1-2.3,2.3v13.7c0,1.3,1,2.3,2.3,2.3h13.7c1.3,0,2.3-1,2.3-2.3v-13.7
	c0-1.3-1-2.3-2.3-2.3H86.5z"/>
<path class="st1" d="M107.1,313.1c0-1.3,1-2.3,2.3-2.3h13.7c1.3,0,2.3,1,2.3,2.3v13.7c0,1.3-1,2.3-2.3,2.3h-13.7
	c-1.3,0-2.3-1-2.3-2.3V313.1z"/>
<path class="st1" d="M63.6,333.7c-1.3,0-2.3,1-2.3,2.3v13.7c0,1.3,1,2.3,2.3,2.3h13.7c1.3,0,2.3-1,2.3-2.3V336c0-1.3-1-2.3-2.3-2.3
	H63.6z"/>
<path class="st1" d="M84.2,336c0-1.3,1-2.3,2.3-2.3h13.7c1.3,0,2.3,1,2.3,2.3v13.7c0,1.3-1,2.3-2.3,2.3H86.5c-1.3,0-2.3-1-2.3-2.3
	V336z"/>
<path class="st1" d="M109.4,333.7c-1.3,0-2.3,1-2.3,2.3v13.7c0,1.3,1,2.3,2.3,2.3h13.7c1.3,0,2.3-1,2.3-2.3V336c0-1.3-1-2.3-2.3-2.3
	H109.4z"/>

</svg>
