<?xml version="1.0" encoding="UTF-8" standalone="no"?>
<!DOCTYPE svg PUBLIC "-//W3C//DTD SVG 1.1//EN" "http://www.w3.org/Graphics/SVG/1.1/DTD/svg11.dtd">
<!-- Created with Vectornator (http://vectornator.io/) -->
<svg height="831.0pt" stroke-miterlimit="10" style="fill-rule:nonzero;clip-rule:evenodd;stroke-linecap:round;stroke-linejoin:round;" version="1.1" viewBox="0 0 831 831" width="831.0pt" xml:space="preserve" xmlns="http://www.w3.org/2000/svg" xmlns:xlink="http://www.w3.org/1999/xlink">
<defs/>
<clipPath id="ArtboardFrame">
<rect height="831" width="831" x="0" y="0"/>
</clipPath>
<g clip-path="url(#ArtboardFrame)" id="Layer-1">
<g opacity="1">
<path d="M138 0C322.515-7.47863 507.336-0.968518 692 0C729.521 0.196787 772.334 26.0385 795 55C814.938 80.4763 830.94 112.885 831 146C831.327 325.666 831.961 505.336 831 685C830.605 758.91 759.101 830.865 685 831C505.334 831.327 325.666 831.645 146 831C77.0018 830.752 0.252549 763.724 0 692C-0.650231 507.334-1.28238 322.662 0 138C0.512225 64.2397 71.2249 2.70648 138 0Z" fill="#0246cc" fill-opacity="0.996078" fill-rule="nonzero" opacity="1" stroke="none"/>
<path d="M145 341C171 351.4 193.574 368.558 221 378C335.608 417.455 496.407 417.569 610 377C636.78 367.436 658.947 353.526 684 341C684 376.333 685.535 411.7 684 447C683.851 450.429 681.059 453.254 679 456C656.036 486.619 585.506 500.725 549 507C520.36 511.923 488.932 516.167 460 517C378.411 519.348 293.321 517.107 215 491C192.921 483.64 165.603 474.723 150 456C147.803 453.364 145.149 450.429 145 447C143.465 411.7 145 376.333 145 341Z" fill="#95bffe" fill-rule="nonzero" opacity="1" stroke="none"/>
<path d="M682 508C682.333 539.667 683.913 571.345 683 603C682.905 606.282 680.922 609.339 679 612C664.801 631.66 635.46 640.46 614 648C569.191 663.744 520.98 669.085 474 673C384.954 680.42 285.456 676.093 201 644C193.185 641.03 185.518 637.657 178 634C169.961 630.089 144.466 617.002 144 605C142.758 573.024 144 541 144 509C170.367 519.547 193.118 532.439 221 540C318.577 566.462 427.285 570.341 527 555C581.278 546.65 634.346 536.592 682 508Z" fill="#277dfe" fill-rule="nonzero" opacity="1" stroke="none"/>
<path d="M306 189C325.862 189 335.326 208.04 322 225C320.515 226.89 318.209 228.053 316 229C294.835 238.071 273.333 246.333 252 255C273.333 264.333 295.058 272.82 316 283C335.217 292.341 329.888 328.193 306 323C285.499 318.543 265.197 306.122 246 298C229.098 290.849 208.111 285.578 193 275C179.399 265.479 181.624 242.566 196 235C205.644 229.924 215.968 226.259 226 222C251.302 211.259 276.667 200.667 306 189Z" fill="#fdfdfe" fill-rule="nonzero" opacity="1" stroke="none"/>
<path d="M515 189C534.929 189 556.377 202.481 574 210C588.976 216.39 604.022 222.616 619 229C632.839 234.898 632.633 232.712 640 241C649.018 251.145 645.909 271.152 633 277C597.078 293.273 560.784 308.781 524 323C520.891 324.202 517.245 323.763 514 323C507.908 321.567 503.34 315.897 502 310C496.324 285.024 521.273 279.363 539 272C551.977 266.61 565 261.333 578 256C572 253.333 566.061 250.525 560 248C546.058 242.191 531.925 236.849 518 231C500.532 223.663 494.28 202.54 515 189Z" fill="#fdfdfe" fill-rule="nonzero" opacity="1" stroke="none"/>
<path d="M436 136C477.451 127.802 455.465 181.677 449 206C439.07 243.356 429.015 280.67 419 318C415.207 332.138 413.852 354.929 405 367C391.22 385.791 362.604 372.549 368 350C376.431 314.772 386.614 279.986 396 245C397.614 238.986 399.386 233.014 401 227C407.681 202.099 409.786 141.185 436 136Z" fill="#fcfdfe" fill-rule="nonzero" opacity="1" stroke="none"/>
</g>
</g>
</svg>
