<?xml version="1.0" encoding="UTF-8"?>
<svg width="32px" height="32px" viewBox="0 0 32 32" version="1.1" xmlns="http://www.w3.org/2000/svg" xmlns:xlink="http://www.w3.org/1999/xlink">
    <title>dotnetado</title>
    <defs>
        <linearGradient x1="49.9972467%" y1="-19.5160457%" x2="49.9972467%" y2="129.625092%" id="linearGradient-1">
            <stop stop-color="#0994DC" offset="0%"></stop>
            <stop stop-color="#66CEF5" offset="35.000601%"></stop>
            <stop stop-color="#66CEF5" offset="35.000601%"></stop>
            <stop stop-color="#127BCA" offset="84.616101%"></stop>
            <stop stop-color="#127BCA" offset="84.616101%"></stop>
            <stop stop-color="#127BCA" offset="100%"></stop>
        </linearGradient>
        <linearGradient x1="50.0007616%" y1="-19.5161868%" x2="50.0007616%" y2="129.624154%" id="linearGradient-2">
            <stop stop-color="#0E76BC" offset="0%"></stop>
            <stop stop-color="#36AEE8" offset="36.0001%"></stop>
            <stop stop-color="#36AEE8" offset="36.0001%"></stop>
            <stop stop-color="#00ADEF" offset="84.616101%"></stop>
            <stop stop-color="#00ADEF" offset="84.616101%"></stop>
            <stop stop-color="#00ADEF" offset="100%"></stop>
        </linearGradient>
        <linearGradient x1="49.9991979%" y1="110.921751%" x2="49.9991979%" y2="-6.21395776%" id="linearGradient-3">
            <stop stop-color="#1C63B7" offset="0%"></stop>
            <stop stop-color="#33BDF2" offset="50%"></stop>
            <stop stop-color="#33BDF2" stop-opacity="0.41960785" offset="100%"></stop>
        </linearGradient>
        <linearGradient x1="50.0009899%" y1="-19.5149993%" x2="50.0009899%" y2="129.627315%" id="linearGradient-4">
            <stop stop-color="#166AB8" offset="0%"></stop>
            <stop stop-color="#36AEE8" offset="39.999399%"></stop>
            <stop stop-color="#36AEE8" offset="39.999399%"></stop>
            <stop stop-color="#0798DD" offset="84.616101%"></stop>
            <stop stop-color="#0798DD" offset="84.616101%"></stop>
            <stop stop-color="#0798DD" offset="100%"></stop>
        </linearGradient>
        <linearGradient x1="49.9985422%" y1="-19.5211325%" x2="49.9985422%" y2="129.626892%" id="linearGradient-5">
            <stop stop-color="#124379" offset="0%"></stop>
            <stop stop-color="#1487CB" offset="38.9999%"></stop>
            <stop stop-color="#1487CB" offset="38.9999%"></stop>
            <stop stop-color="#165197" offset="78.022802%"></stop>
            <stop stop-color="#165197" offset="78.022802%"></stop>
            <stop stop-color="#165197" offset="100%"></stop>
        </linearGradient>
        <linearGradient x1="0.000304652977%" y1="50.000544%" x2="100.000291%" y2="50.000544%" id="linearGradient-6">
            <stop stop-color="#33BDF2" stop-opacity="0.69803923" offset="0%"></stop>
            <stop stop-color="#1DACD8" offset="100%"></stop>
        </linearGradient>
        <linearGradient x1="50.0095709%" y1="94.6864084%" x2="50.0095709%" y2="-3.02458407%" id="linearGradient-7">
            <stop stop-color="#136AB4" offset="0%"></stop>
            <stop stop-color="#59CAF5" stop-opacity="0.54901963" offset="60.000002%"></stop>
            <stop stop-color="#59CAF5" stop-opacity="0.23529412" offset="100%"></stop>
        </linearGradient>
        <linearGradient x1="-0.000760861053%" y1="49.999714%" x2="99.9992241%" y2="49.999714%" id="linearGradient-8">
            <stop stop-color="#05A1E6" stop-opacity="0.24705882" offset="0%"></stop>
            <stop stop-color="#05A1E6" offset="100%"></stop>
        </linearGradient>
        <linearGradient x1="49.9983236%" y1="124.313712%" x2="49.9983236%" y2="-9.42137278%" id="linearGradient-9">
            <stop stop-color="#318ED5" offset="0%"></stop>
            <stop stop-color="#38A7E4" offset="100%"></stop>
        </linearGradient>
        <linearGradient x1="49.99857%" y1="91.1999524%" x2="49.99857%" y2="-76.7854074%" id="linearGradient-10">
            <stop stop-color="#05A1E6" offset="0%"></stop>
            <stop stop-color="#05A1E6" stop-opacity="0.54901963" offset="100%"></stop>
        </linearGradient>
        <linearGradient x1="50.0000694%" y1="100.01049%" x2="50.0000694%" y2="0.0101898204%" id="linearGradient-11">
            <stop stop-color="#1959A6" offset="0%"></stop>
            <stop stop-color="#05A1E6" offset="50%"></stop>
            <stop stop-color="#05A1E6" offset="50%"></stop>
            <stop stop-color="#7EC5EA" offset="91.758698%"></stop>
            <stop stop-color="#7EC5EA" offset="100%"></stop>
        </linearGradient>
        <linearGradient x1="55.2831016%" y1="94.5677442%" x2="43.7874517%" y2="5.75513731%" id="linearGradient-12">
            <stop stop-color="#165096" offset="0%"></stop>
            <stop stop-color="#0D82CA" offset="100%"></stop>
        </linearGradient>
        <linearGradient x1="49.9946843%" y1="76.9980959%" x2="49.9946843%" y2="-3.29893613%" id="linearGradient-13">
            <stop stop-color="#05A1E6" offset="0%"></stop>
            <stop stop-color="#0495D6" offset="87.362701%"></stop>
            <stop stop-color="#0495D6" offset="100%"></stop>
        </linearGradient>
        <linearGradient x1="55.9754729%" y1="-4.16143813%" x2="43.8388846%" y2="105.843625%" id="linearGradient-14">
            <stop stop-color="#38A7E4" stop-opacity="0.32941177" offset="0%"></stop>
            <stop stop-color="#0E88D3" offset="96.153301%"></stop>
            <stop stop-color="#0E88D3" offset="96.153301%"></stop>
            <stop stop-color="#0E88D3" offset="100%"></stop>
        </linearGradient>
        <linearGradient x1="50.016714%" y1="-0.295776148%" x2="50.016714%" y2="101.881944%" id="linearGradient-15">
            <stop stop-color="#168CD4" offset="0%"></stop>
            <stop stop-color="#1C87CC" offset="50%"></stop>
            <stop stop-color="#154B8D" offset="100%"></stop>
        </linearGradient>
        <linearGradient x1="16.6738062%" y1="52.6658158%" x2="87.8125992%" y2="48.8032611%" id="linearGradient-16">
            <stop stop-color="#97D6EE" offset="0%"></stop>
            <stop stop-color="#55C1EA" offset="70.329303%"></stop>
            <stop stop-color="#55C1EA" offset="100%"></stop>
        </linearGradient>
        <linearGradient x1="6.89015912%" y1="46.5072412%" x2="75.7828966%" y2="55.3367487%" id="linearGradient-17">
            <stop stop-color="#7ACCEC" offset="0%"></stop>
            <stop stop-color="#3FB7ED" offset="100%"></stop>
        </linearGradient>
        <linearGradient x1="49.9966533%" y1="6.36281892%" x2="49.9966533%" y2="127.96135%" id="linearGradient-18">
            <stop stop-color="#1DA7E7" offset="0%"></stop>
            <stop stop-color="#37ABE7" stop-opacity="0" offset="100%"></stop>
        </linearGradient>
    </defs>
    <g id="dotnetado" stroke="none" stroke-width="1" fill="none" fill-rule="evenodd">
        <g id="Microsoft_.NET_Logo" transform="translate(0.000000, 4.000000)" fill-rule="nonzero">
            <path d="M11.0975553,2.59427556 C12.2467921,6.10865778 12.6821851,12.3779962 16.0427439,12.3779962 L16.0427439,12.3779962 C16.2986423,12.3779962 16.5571109,12.3529651 16.8166055,12.303614 L16.8166055,12.303614 C13.7616924,11.5913143 13.3996353,5.39017143 11.5355083,2.17884444 L11.5355083,2.17884444 C11.3893445,2.31168 11.2442169,2.45014349 11.0975553,2.59427556" id="path12339" fill="url(#linearGradient-1)"></path>
            <path d="M11.5355083,2.17884444 C13.3996353,5.39017143 13.7616924,11.5913143 16.8166055,12.303614 L16.8166055,12.303614 C17.0566055,12.2595149 17.2971236,12.1928432 17.5381496,12.108739 L17.5381496,12.108739 C14.7960645,10.7651352 14.0381013,4.7435073 11.921154,1.84448 L11.921154,1.84448 C11.7929407,1.9511873 11.6642296,2.06298413 11.5355083,2.17884444" id="path12367" fill="url(#linearGradient-2)"></path>
            <path d="M14.2214055,0.269033651 C13.966015,0.269033651 13.7070182,0.294054603 13.4470359,0.343415873 C12.7670207,0.471619048 12.0762677,0.764424127 11.3798461,1.2075073 C11.5700886,1.3952 11.7510969,1.61005714 11.9213572,1.84443937 C12.6295832,1.25673651 13.333187,0.822389841 14.034241,0.561340952 C14.2973013,0.463908571 14.5593763,0.390593016 14.8224366,0.342389841 C14.6326918,0.294135873 14.4326867,0.269033651 14.2214055,0.269033651" id="path12379" fill="#14559A"></path>
            <path d="M19.6786956,10.8702375 C19.9592086,10.6471822 20.2402397,10.4004876 20.5217788,10.1312813 C19.3540734,6.63326476 18.9361229,0.274204444 15.5519655,0.274204444 C15.3099134,0.274204444 15.0658093,0.296766984 14.8222131,0.341892063 C17.9048188,1.10859175 18.2996988,7.81534476 19.6786956,10.8702375" id="path12459" fill="url(#linearGradient-3)"></path>
            <path d="M14.8223147,0.629630476 C14.6325699,0.392380476 14.432575,0.268830476 14.2212836,0.268830476 L15.5520772,0.292830476 C15.310015,0.292830476 15.0659109,0.403880476 14.8223147,0.628630476" id="path12521" fill="#3092C4"></path>
            <path d="M19.6195921,11.6133486 C19.4872848,11.4871975 19.361662,11.348734 19.2380505,11.2010362 C18.6688061,11.6041143 18.1016239,11.90976 17.538048,12.108739 C17.7385407,12.2067098 17.9487959,12.2795378 18.171902,12.3246629 C18.344702,12.3599441 18.5236988,12.3779962 18.7118893,12.3779962 C19.3442194,12.3779962 19.8442118,12.3031263 20.2698524,12.0990171 C20.0355109,11.9723276 19.8206232,11.8082235 19.6195921,11.6133486" id="path12525" fill="#1969BC"></path>
            <path d="M14.0339972,0.56192 C16.795069,2.00603429 17.035069,8.54561524 19.2381724,11.2010362 L19.2381724,11.2010362 C19.3858702,11.0969498 19.5320239,10.9866768 19.6781775,10.8702375 L19.6781775,10.8702375 C18.2991909,7.81534476 17.9048188,1.10805333 14.8227312,0.341892063 L14.8227312,0.341892063 C14.5596505,0.39112127 14.2970778,0.463989841 14.0339972,0.56192" id="path12553" fill="url(#linearGradient-4)"></path>
            <path d="M11.921154,1.84448 C14.0381013,4.7435073 14.7960645,10.7651352 17.5381496,12.108739 L17.5381496,12.108739 C18.1017458,11.90976 18.6689382,11.6041143 19.2381724,11.2010362 L19.2381724,11.2010362 C17.035069,8.54561524 16.795069,2.00603429 14.0339972,0.56192 L14.0339972,0.56192 C13.3329636,0.822430476 12.6293699,1.25677714 11.921154,1.84448" id="path12581" fill="url(#linearGradient-5)"></path>
            <path d="M9.74312229,2.50963302 C9.41131784,3.25992635 9.07234133,4.24606476 8.66258895,5.5332673 C9.47747149,4.38502603 10.289794,3.39579937 11.0974943,2.59427556 C10.9862156,2.25220063 10.8667286,1.93682286 10.7380074,1.65576127 C10.407747,1.9086019 10.0749166,2.19323937 9.74312229,2.50963302" id="path12651" fill="url(#linearGradient-6)"></path>
            <path d="M11.0322347,1.43943111 C10.9347921,1.50917079 10.836862,1.58047492 10.7384036,1.65584254 C10.8671045,1.93687365 10.9860734,2.2522819 11.0973826,2.59431619 C11.2440137,2.45072254 11.3896493,2.31176127 11.535295,2.17892571 C11.3789013,1.91019683 11.2127451,1.66198857 11.0322347,1.43943111" id="path12655" fill="#2B74B1"></path>
            <path d="M11.3798461,1.2075073 C11.2639451,1.28086349 11.1485826,1.35827302 11.0321534,1.43929905 C11.2126639,1.66186667 11.3788201,1.91007492 11.5357521,2.17933206 C11.6644836,2.06290286 11.7931845,1.95060825 11.9213978,1.84443937 C11.7511375,1.61009778 11.5701293,1.3952 11.3798461,1.2075073" id="path12659" fill="#125A9E"></path>
            <path d="M30.2126994,0.00141206349 C28.6511197,6.02352762 25.3895375,10.8605156 22.6551426,12.0800203 C22.6551426,12.0800203 22.6499617,12.0800203 22.6499617,12.0800203 C22.6002245,12.1025829 22.5509851,12.1231035 22.502274,12.1430756 C22.4955693,12.147139 22.489474,12.147647 22.4843032,12.1500851 C22.4699388,12.1558756 22.4566105,12.1603454 22.4422461,12.1660851 C22.4355413,12.1701486 22.4294461,12.1714692 22.4233001,12.1739073 C22.4002397,12.1821359 22.3776569,12.1890946 22.3550943,12.1981156 C22.345342,12.202179 22.3361382,12.2047187 22.3268632,12.2079695 C22.3166029,12.212033 22.3047883,12.2157917 22.2930143,12.2190527 C22.2827642,12.2231162 22.2720163,12.2260622 22.2601915,12.2305321 C22.2504391,12.2345956 22.2401788,12.2363225 22.2309851,12.240386 C22.2109623,12.2461765 22.1925445,12.2510527 22.1725217,12.2580216 C22.1642931,12.2580216 22.1566436,12.2624914 22.147907,12.2646248 C22.1355947,12.2686883 22.121728,12.2716343 22.1083997,12.2752914 C22.0991553,12.2793549 22.0914956,12.2806756 22.0817331,12.2827073 C22.0678664,12.2867708 22.0524759,12.2905295 22.0386499,12.2937905 C22.0201915,12.297854 22.0037851,12.3016127 21.9863426,12.30528 C22.1099337,12.3509333 22.238655,12.3739937 22.3776366,12.3739937 C24.9704899,12.3739937 27.5848391,7.72728889 31.9105585,0 L30.2120797,0 L30.2126994,0.00141206349 Z" id="path12741" fill="url(#linearGradient-7)"></path>
            <path d="M8.09951086,0.513422222 C8.10113625,0.513422222 8.103168,0.50935873 8.10418387,0.50935873 C8.10621562,0.50935873 8.10936483,0.50935873 8.1103807,0.505295238 C8.1103807,0.505295238 8.11241244,0.505295238 8.11363149,0.505295238 C8.12798578,0.500419048 8.14132419,0.494628571 8.15567848,0.489295238 C8.15933562,0.489295238 8.16126578,0.489295238 8.16390705,0.485231746 C8.16756419,0.485231746 8.17111975,0.481168254 8.17469562,0.480660317 C8.1900861,0.475784127 8.20546641,0.469993651 8.21983086,0.464660317 C8.21983086,0.464660317 8.22145625,0.464660317 8.22226895,0.464660317 C8.2566461,0.454410159 8.2884226,0.441691429 8.3217534,0.429795556 C8.32642641,0.429795556 8.33099784,0.425732063 8.33660546,0.425732063 C8.35047213,0.421262222 8.36483657,0.416284444 8.37917054,0.413013333 C8.3858753,0.408949841 8.39250895,0.408949841 8.39865498,0.406816508 C8.41350705,0.402346667 8.42791213,0.397368889 8.44173816,0.394097778 C8.44793498,0.394097778 8.45355276,0.390034286 8.45814451,0.389627937 C8.50583975,0.376502857 8.55301689,0.364190476 8.60071213,0.352700952 C8.60741689,0.352700952 8.61302451,0.34863746 8.62019657,0.348231111 C8.6340226,0.344167619 8.6468734,0.342034286 8.66173562,0.34000254 C8.66793244,0.335939048 8.67507403,0.335939048 8.68225625,0.333805714 C8.69608229,0.329742222 8.70941054,0.329335873 8.72430324,0.325983492 C8.72796038,0.325983492 8.72989054,0.325983492 8.73405562,0.325983492 C8.76277435,0.320193016 8.79201117,0.315316825 8.8207299,0.309983492 C8.82591086,0.309983492 8.83250387,0.309983492 8.83816229,0.309983492 C8.85198832,0.30592 8.8643007,0.305513651 8.87816737,0.302973968 C8.88578641,0.302973968 8.89354768,0.298910476 8.9007299,0.298910476 C8.9135299,0.298910476 8.92637054,0.294846984 8.93917054,0.29312 C8.9458753,0.29312 8.95249879,0.29312 8.96021943,0.289056508 C8.99045181,0.284993016 9.02175086,0.283367619 9.05354768,0.280827937 C8.96380546,0.272193016 8.87149308,0.266463492 8.77764673,0.266463492 C5.85760914,0.266463492 1.83447771,5.68446984 0.0221450159,12.7009727 C0.0221450159,12.7009727 0.154454349,12.7009727 0.371380825,12.7009727 C0.951388444,11.666621 1.47242159,10.6881422 1.9488386,9.76965079 C3.2180866,4.79985778 5.80324978,1.41056 8.09969371,0.512619683" id="path12803" fill="url(#linearGradient-8)"></path>
            <path d="M9.74315276,2.50963302 C10.0749674,2.19323937 10.4077775,1.9086019 10.7380378,1.6558019 C10.6626702,1.49067175 10.5847223,1.33784381 10.5011058,1.19782603 C10.2339413,1.52193016 9.98983721,1.94963302 9.74315276,2.50963302" id="path12807" fill="#0D82CA"></path>
            <path d="M9.98303086,0.554493968 C10.1738017,0.714493968 10.3445496,0.934511746 10.5009839,1.19811048 C10.5502131,1.13759492 10.5999807,1.08168127 10.6517597,1.02937397 C10.4348505,0.826819048 10.2004683,0.660662857 9.94610387,0.535537778 C9.95636419,0.541226667 9.96661435,0.545798095 9.97728102,0.550308571 C9.97728102,0.550308571 9.98134451,0.554372063 9.98307149,0.554372063" id="path12811" fill="#0D82CA"></path>
            <path d="M1.94870756,9.77025016 C4.61130768,4.63939048 5.87286349,1.39216254 8.09956165,0.513178413 L8.09956165,0.513178413 C5.80363175,1.41168762 3.21795556,4.80094476 1.94870756,9.77025016" id="path12831" fill="url(#linearGradient-9)"></path>
            <path d="M10.651587,1.0292419 C10.5998182,1.08208762 10.550589,1.13747302 10.5008213,1.19798857 C10.5844277,1.33796571 10.6623451,1.49029587 10.7382817,1.65592381 C10.8367401,1.58055619 10.9346702,1.50925206 11.0321128,1.43951238 C10.9116201,1.29078857 10.7844328,1.15285333 10.651587,1.0292419" id="path12843" fill="#127BCA"></path>
            <path d="M3.15744203,12.6785117 L3.15744203,12.6785117 C3.14103162,12.6825752 3.12462121,12.6825752 3.10923581,12.6843022 C3.10410565,12.6843022 3.10307962,12.6843022 3.10000152,12.6843022 C3.08613486,12.6843022 3.07177549,12.6883657 3.05897549,12.6883657 C3.05897549,12.6883657 3.05384533,12.6883657 3.05229105,12.6883657 C3.01897752,12.6924292 2.98613638,12.6924292 2.95434057,12.6949689 L2.94408432,12.6949689 C5.63899327,12.6195606 6.87080229,11.2702883 7.48209371,9.31334095 C7.9467134,7.82974984 8.32826514,6.57997206 8.66262959,5.53125587 C7.53389308,7.12 6.40002641,9.01385143 5.26001371,11.1354311 C4.71026184,12.1580089 3.87435378,12.5851733 3.1574207,12.6765003" id="path12923" fill="url(#linearGradient-10)"></path>
            <path d="M3.15744203,12.6774857 L3.15744203,12.6774857 C3.87437511,12.5861587 4.71028419,12.1594921 5.26003505,11.1364165 L5.26003505,11.1364165 C6.40004673,9.01536508 7.53442133,7.1209854 8.66213181,5.53224127 L8.66213181,5.53224127 C9.07239213,4.24451048 9.4108607,3.25890032 9.74317308,2.50860698 L9.74317308,2.50860698 C7.49545244,4.64812698 5.23900851,8.20563302 3.15744203,12.6764597" id="path12949" fill="url(#linearGradient-11)"></path>
            <path d="M1.94858057,9.77037206 C1.47218387,10.6888635 0.951151746,11.6673422 0.371122794,12.701694 C0.621916444,12.701694 0.984997587,12.701694 1.38705473,12.701694 C1.52141613,11.6744737 1.71218794,10.694979 1.94858057,9.77085968" id="path12961" fill="#05A1E6"></path>
            <path d="M8.96008737,0.29167746 C8.95185879,0.29167746 8.94572292,0.295740952 8.93855086,0.295740952 L8.93855086,0.295740952 C8.92623848,0.299804444 8.91339784,0.299804444 8.90059784,0.301125079 L8.90059784,0.301125079 C8.89297879,0.301125079 8.88574578,0.301125079 8.8780353,0.305188571 L8.8780353,0.305188571 C8.86416863,0.309252063 8.85136863,0.309658413 8.83803022,0.312198095 L8.83803022,0.312198095 C8.8318334,0.312198095 8.825728,0.312198095 8.82059784,0.316261587 L8.82059784,0.316261587 C8.7913407,0.321137778 8.76264229,0.326521905 8.73392356,0.33143873 L8.73392356,0.33143873 C8.72884419,0.33143873 8.72721879,0.33143873 8.72417117,0.33143873 L8.72417117,0.33143873 C8.70931911,0.335502222 8.69595022,0.337635556 8.68212419,0.339667302 L8.68212419,0.339667302 C8.67491149,0.343730794 8.66775975,0.343730794 8.6610753,0.34535619 L8.6610753,0.34535619 C8.64724927,0.349419683 8.6333826,0.351146667 8.62005435,0.353584762 L8.62005435,0.353584762 C8.61284165,0.357648254 8.60725435,0.357648254 8.60055975,0.358054603 L8.60055975,0.358054603 C8.55287467,0.369544127 8.50568737,0.381856508 8.45799213,0.394981587 L8.45799213,0.394981587 C8.45291276,0.394981587 8.44774197,0.399045079 8.44158578,0.399857778 L8.44158578,0.399857778 C8.42723149,0.40392127 8.41336483,0.408086349 8.39851276,0.412576508 L8.39851276,0.412576508 C8.39231594,0.41664 8.38517435,0.41664 8.37901816,0.418265397 L8.37901816,0.418265397 C8.36466387,0.422328889 8.35029943,0.426493968 8.33645308,0.430984127 L8.33645308,0.430984127 C8.33086578,0.430984127 8.32620292,0.435047619 8.32107276,0.435047619 L8.32107276,0.435047619 C8.2882499,0.447349841 8.25594514,0.459662222 8.22209625,0.46992254 L8.22209625,0.46992254 C8.22209625,0.46992254 8.22209625,0.46992254 8.22209625,0.46992254 L8.22209625,0.46992254 C8.20774197,0.474392381 8.19235149,0.480172698 8.17697117,0.485506032 L8.17697117,0.485506032 C8.17077435,0.489569524 8.16515657,0.49048381 8.15801498,0.493328254 L8.15801498,0.493328254 C8.14365054,0.497798095 8.12929625,0.503588571 8.11595784,0.508921905 L8.11595784,0.508921905 C8.11087848,0.512985397 8.10570768,0.513391746 8.10213181,0.515525079 L8.10213181,0.515525079 C5.87543873,1.39450921 4.61388292,4.64173714 1.95128279,9.77259683 L1.95128279,9.77259683 C1.71486883,10.6967162 1.523584,11.6762108 1.38973663,12.7033905 L1.38973663,12.7033905 L1.53230222,12.7033905 C1.93384635,12.7033905 2.04718121,12.699327 2.50923886,12.699327 L2.50923886,12.699327 L2.53282844,12.699327 L2.60154717,12.699327 L2.62513778,12.699327 L2.63182222,12.699327 L2.65541181,12.699327 L2.66874514,12.699327 L2.67797943,12.699327 L2.69644089,12.699327 L2.75387835,12.699327 L2.81131479,12.699327 L2.85952,12.699327 L2.87232102,12.699327 C2.90001371,12.699327 2.92821841,12.699327 2.95693714,12.699327 L2.95693714,12.699327 C2.98873194,12.6952635 3.02155378,12.6952635 3.05488762,12.6927238 L3.05488762,12.6927238 C3.05488762,12.6927238 3.06001778,12.6927238 3.06104381,12.6927238 L3.06104381,12.6927238 C3.07491048,12.6927238 3.08873651,12.6886603 3.10206984,12.6886603 L3.10206984,12.6886603 C3.1072,12.6886603 3.10768762,12.6886603 3.11179175,12.6886603 L3.11179175,12.6886603 C3.12664279,12.6886603 3.14358654,12.6845968 3.15999695,12.6828698 L3.15999695,12.6828698 L3.15999695,12.6828698 C5.24156444,8.21204317 7.49800229,4.65453714 9.74572292,2.51501714 L9.74572292,2.51501714 C9.99290514,1.95501714 10.2365013,1.52731429 10.5031782,1.20373841 L10.5031782,1.20373841 C10.3472721,0.940149841 10.1765039,0.719634286 9.98573308,0.559593651 L9.98573308,0.559593651 C9.98573308,0.559593651 9.98055213,0.559593651 9.98014578,0.555530159 L9.98014578,0.555530159 C9.96935721,0.551060317 9.95914768,0.54567619 9.94835911,0.540353016 L9.94835911,0.540353016 C9.93756038,0.53456254 9.92833625,0.530092698 9.91709054,0.524353016 L9.91709054,0.524353016 C9.90733816,0.520289524 9.89605181,0.514905397 9.88631975,0.509582222 L9.88631975,0.509582222 C9.87299149,0.50551873 9.86220292,0.499728254 9.85042895,0.494394921 L9.85042895,0.494394921 C9.84067657,0.490331429 9.83196038,0.486166349 9.82219784,0.482092698 L9.82219784,0.482092698 C9.80217498,0.474270476 9.78220292,0.466092698 9.76322641,0.457478095 L9.76322641,0.457478095 C9.7544899,0.453414603 9.74632229,0.45128127 9.7380734,0.448030476 L9.7380734,0.448030476 C9.72424737,0.443052698 9.70832863,0.436540952 9.69397435,0.430384762 L9.69397435,0.430384762 C9.68676165,0.42632127 9.67858387,0.425508571 9.67038578,0.42256254 L9.67038578,0.42256254 C9.64937752,0.415553016 9.62884673,0.408208254 9.60935213,0.401635556 L9.60935213,0.401635556 C9.60427276,0.401635556 9.60427276,0.401635556 9.60427276,0.401635556 L9.60427276,0.401635556 C9.58067403,0.393813333 9.55760356,0.388104127 9.53349689,0.381531429 L9.53349689,0.381531429 C9.52790959,0.377467937 9.52323657,0.377467937 9.51761879,0.376655238 L9.51761879,0.376655238 C9.4965699,0.370864762 9.47811149,0.365165714 9.45812927,0.359832381 L9.45812927,0.359832381 C9.4530499,0.359832381 9.44837689,0.355768889 9.44430324,0.355768889 L9.44430324,0.355768889 C9.39610006,0.343050159 9.34635276,0.3328 9.29609752,0.32336254 L9.29609752,0.32336254 C9.29091657,0.32336254 9.28584737,0.319299048 9.28071721,0.319299048 L9.28071721,0.319299048 C9.2591807,0.315235556 9.23815213,0.311476825 9.21661562,0.30903873 L9.21661562,0.30903873 C9.21143467,0.304975238 9.20838705,0.304975238 9.20381562,0.304975238 L9.20381562,0.304975238 C9.17817498,0.300911746 9.15304229,0.297965714 9.12790959,0.29512127 L9.12790959,0.29512127 C9.12283022,0.29512127 9.11917308,0.29512127 9.11458133,0.29512127 L9.11458133,0.29512127 C9.09407086,0.291057778 9.07511467,0.290651429 9.05611784,0.288518095 L9.05611784,0.288518095 C9.02379276,0.292581587 8.99304229,0.294308571 8.96277943,0.297153016" id="path12981" fill="url(#linearGradient-12)"></path>
            <path d="M24.1131134,3.33528381 C23.6007985,4.97633524 23.1859159,6.33019937 22.824895,7.44406349 L22.824895,7.44406349 C24.2305483,5.50967873 25.6151832,3.07628698 26.9336848,0.268088889 L26.9336848,0.268088889 C25.3956937,0.751126349 24.5751731,1.85682286 24.1131134,3.33528381" id="path13003" fill="url(#linearGradient-13)"></path>
            <path d="M22.869502,11.9774578 C22.7977102,12.0139683 22.7259185,12.0487213 22.6551426,12.0800203 C25.3895375,10.8605156 28.6511197,6.02352762 30.2126994,0.00141206349 L29.8962651,0.00141206349 C26.3085267,6.41019937 25.1546677,10.7005156 22.869502,11.9774578" id="path13093" fill="url(#linearGradient-14)"></path>
            <path d="M21.0839832,11.4390248 C21.6788582,10.7128686 22.1634601,9.47851175 22.8250474,7.44410413 C22.0619236,8.49232254 21.2937509,9.39338159 20.5249991,10.1282438 C20.5249991,10.1323073 20.5249991,10.1323073 20.5209356,10.134847 C20.6886563,10.6374197 20.8727324,11.0809905 21.0825001,11.4389435" id="path13097" fill="#079AE1"></path>
            <path d="M21.0839832,11.4390248 C20.8813978,11.6862171 20.667069,11.8744381 20.4285826,12.0139276 C20.3762753,12.0442921 20.3234804,12.0728889 20.2696086,12.0990578 C20.5214334,12.234941 20.7962677,12.3257295 21.1039553,12.3621181 L21.1039553,12.3621181 L21.1039553,12.3621181 C21.1490499,12.3665879 21.1936874,12.370753 21.2403769,12.374014 L21.2486055,12.374014 C21.2695324,12.374014 21.2916886,12.374014 21.3142512,12.3780775 L21.3232924,12.3780775 C21.3458651,12.3780775 21.3684683,12.3780775 21.3904924,12.3780775 C21.4147007,12.3780775 21.4387058,12.3780775 21.4628226,12.3780775 C21.4706448,12.3780775 21.4780099,12.3780775 21.4853953,12.3780775 C21.5018017,12.3780775 21.5194372,12.3780775 21.5366766,12.3780775 C21.5449051,12.3780775 21.5534893,12.3780775 21.5616975,12.374014 C21.5776975,12.374014 21.5945204,12.374014 21.6109267,12.3699505 C21.6149902,12.3699505 21.6149902,12.3699505 21.6167172,12.3699505 C21.6233204,12.3699505 21.6290194,12.3699505 21.6351756,12.3699505 C21.6519985,12.3699505 21.6704569,12.365887 21.688509,12.36416 C21.688509,12.36416 21.6925724,12.36416 21.6925724,12.36416 C21.6979566,12.36416 21.7036455,12.3600965 21.7089788,12.3600965 C21.7278537,12.356033 21.7475515,12.354306 21.7659286,12.3514616 C21.7721255,12.3514616 21.7765953,12.3514616 21.7827515,12.3514616 C21.8036683,12.3473981 21.8252963,12.3448584 21.8468328,12.3407949 L21.8508963,12.3407949 C21.8549597,12.3407949 21.8553661,12.3407949 21.8570931,12.3407949 C21.9001763,12.3325663 21.9422232,12.3243886 21.984768,12.3137219 C21.6319451,12.1844825 21.3365597,11.8798629 21.0821953,11.446014" id="path13101" fill="#1969BC"></path>
            <path d="M16.0428048,12.6088203 C16.2987236,12.6088203 16.5571921,12.5623574 16.8166766,12.4697899 C17.0566867,12.3888807 17.2971845,12.2649984 17.5382105,12.1088203 C17.7387439,12.2907483 17.9489991,12.4259869 18.1715667,12.5097824 C18.3443769,12.5752983 18.5238613,12.6088203 18.7120924,12.6088203 L16.0428048,12.6088203 Z" id="path13105" fill="#1E5CB3"></path>
            <path d="M18.7121331,12.5989528 C19.343935,12.5989528 19.8444556,12.4648065 20.2696086,12.0990984 C20.5213928,12.342564 20.7962677,12.5052324 21.1039553,12.5705036 L21.1039553,12.5705036 L21.1039553,12.5705036 C21.1490905,12.5785123 21.193728,12.585975 21.2403769,12.5918177 L21.2486055,12.5918177 C21.2695324,12.5918177 21.2916886,12.5918177 21.3142512,12.5990984 L21.3236988,12.5990984 C21.3462613,12.5990984 21.3688239,12.5990984 21.3908988,12.5990984 L18.7103248,12.5990984 L18.7121331,12.5989528 Z" id="path13109" fill="#1E5CB3"></path>
            <path d="M21.3924937,12.6444163 C21.4171083,12.6444163 21.4412353,12.6444163 21.4653217,12.6444163 C21.4723312,12.6444163 21.4804988,12.6444163 21.4878842,12.6444163 C21.5042905,12.6444163 21.5211134,12.6444163 21.5386778,12.6444163 C21.5473128,12.6444163 21.5554905,12.6444163 21.5636988,12.6244163 C21.5796988,12.6244163 21.5965217,12.6244163 21.6134664,12.6044163 C21.6175299,12.6044163 21.6175299,12.6044163 21.6188505,12.6044163 C21.6254537,12.6044163 21.6315693,12.6044163 21.6377255,12.6044163 C21.6545382,12.6044163 21.6730067,12.5844163 21.690561,12.5764163 C21.690561,12.5764163 21.6946245,12.5764163 21.6950309,12.5764163 C21.700415,12.5764163 21.7056975,12.5564163 21.7110309,12.5564163 C21.7299058,12.5364163 21.7496036,12.5284163 21.7679401,12.5139163 C21.7741369,12.5139163 21.7790131,12.5139163 21.7855756,12.4939163 C21.8065026,12.4739163 21.828161,12.4634163 21.8497077,12.4434663 L21.8537712,12.4434663 C21.8578347,12.4434663 21.858241,12.4434663 21.859968,12.4434663 C21.9030512,12.4029663 21.9450982,12.3626663 21.9876429,12.3101663 L21.9876429,12.3101663 C22.1112137,12.5347163 22.2399553,12.6484163 22.3789064,12.6484163 L21.3932556,12.6684163 L21.3924937,12.6444163 Z" id="path13113" fill="#1D60B5"></path>
            <path d="M20.5225813,10.1349283 C20.5225813,10.1349283 20.5225813,10.1308648 20.5225813,10.1308648 C20.2410524,10.4000813 19.9600213,10.6467759 19.679488,10.8698311 C19.5328163,10.9862603 19.3866829,11.0965029 19.2389953,11.2006298 C19.3625661,11.3483175 19.4882296,11.486781 19.6205369,11.6129422 C19.821568,11.8077765 20.036415,11.9719213 20.2707972,12.0985702 C20.3241305,12.0723098 20.3774639,12.0436724 20.4292429,12.01344 C20.6682169,11.8739505 20.8825864,11.68576 21.0851718,11.4385778 C20.8754042,11.0806248 20.6913178,10.6370032 20.5236074,10.1344406" id="path13117" fill="#175FAB"></path>
            <path d="M28.894208,0.00141206349 L27.5639324,0.00141206349 C27.519295,0.00141206349 27.4751858,0.00141206349 27.431615,0.00141206349 L27.431615,0.00141206349 C27.3890296,0.00141206349 27.3480086,0.00141206349 27.3064899,0.00141206349 L27.3064899,0.00141206349 L27.3016137,0.00141206349 C27.2154575,0.00547555556 27.1318918,0.0084215873 27.0493013,0.0137244444 L27.0493013,0.0137244444 C27.0103324,0.0973409524 26.9703274,0.180947302 26.9318461,0.265051429 L26.9318461,0.265051429 C25.6133851,3.07324952 24.2287502,5.50664127 22.8230969,7.44102603 L22.8230969,7.44102603 C22.1620582,9.47539302 21.676928,10.7097905 21.0820429,11.4359568 L21.0820429,11.4359568 C21.3364074,11.8698057 21.6323109,12.174913 21.9841077,12.3041524 L21.9841077,12.3041524 C21.994368,12.3000889 22.0025661,12.3000889 22.0118004,12.2979556 L22.0118004,12.2979556 C22.0118004,12.2979556 22.0168797,12.2979556 22.0174893,12.2979556 L22.0174893,12.2979556 C22.0236861,12.2979556 22.0302893,12.2938921 22.0369839,12.2938921 L22.0369839,12.2938921 C22.0513382,12.2898286 22.0667286,12.2872889 22.0810829,12.282819 L22.0810829,12.282819 C22.0903274,12.2787556 22.097987,12.2783492 22.107262,12.2754032 L22.107262,12.2754032 C22.1205902,12.2713397 22.1344163,12.2683937 22.1467286,12.2651429 L22.1467286,12.2651429 C22.1549572,12.2610794 22.163135,12.2597587 22.1713432,12.2581333 L22.1713432,12.2581333 C22.1918537,12.2515302 22.2103121,12.2466438 22.2298067,12.2404876 L22.2298067,12.2404876 C22.2390512,12.2364241 22.2488036,12.2330717 22.2590537,12.2306337 L22.2590537,12.2306337 C22.2703401,12.2265702 22.2816163,12.2236241 22.2918766,12.2187378 L22.2918766,12.2187378 C22.3036912,12.2146743 22.3154651,12.212541 22.3257255,12.2080711 L22.3257255,12.2080711 C22.3349699,12.2040076 22.3446817,12.2014679 22.3534182,12.1978108 L22.3534182,12.1978108 C22.3764683,12.1895822 22.3990613,12.1826337 22.4221318,12.1736025 L22.4221318,12.1736025 C22.4283286,12.1736025 22.4344442,12.1679137 22.4411286,12.166593 L22.4411286,12.166593 C22.4549547,12.1608025 22.4693191,12.1563327 22.4831858,12.1501765 L22.4831858,12.1501765 C22.4882651,12.146113 22.494462,12.1457067 22.5011058,12.1435733 L22.5011058,12.1435733 C22.5493191,12.1234692 22.5990563,12.1029587 22.6488036,12.0805181 L22.6488036,12.0805181 C22.6488036,12.0805181 22.6539845,12.0805181 22.6539845,12.0805181 L22.6539845,12.0805181 C22.7247502,12.049341 22.7965521,12.0143441 22.8678359,11.9779556 L22.8678359,11.9779556 C25.1535096,10.7010133 26.307389,6.41069714 29.8951274,0.00190984127 L29.8951274,0.00190984127 L28.8930601,0.00190984127 L28.894208,0.00141206349 Z" id="path13139" fill="url(#linearGradient-15)"></path>
            <path d="M9.05352737,0.283022222 C9.05921625,0.283022222 9.06431594,0.283022222 9.06993371,0.287085714 C9.08375975,0.287085714 9.09762641,0.287085714 9.11147276,0.291555556 C9.11665371,0.291555556 9.12122514,0.291555556 9.12533943,0.291555556 C9.15045181,0.295619048 9.17559467,0.297752381 9.2012353,0.301409524 C9.20590832,0.301409524 9.20997181,0.301409524 9.2140353,0.305473016 C9.23504356,0.309536508 9.25660038,0.312888889 9.27813689,0.316139683 C9.2828099,0.316139683 9.28893562,0.320203175 9.29405562,0.320203175 C9.34329498,0.330057143 9.39355022,0.340307302 9.4417534,0.353026032 C9.44632483,0.353026032 9.45099784,0.357089524 9.45509181,0.357089524 C9.47560229,0.361965714 9.4940607,0.36816254 9.51457117,0.373902222 C9.520768,0.373902222 9.52531911,0.377965714 9.53098768,0.37888 C9.55510451,0.385076825 9.57765689,0.391192381 9.60124546,0.398984127 C9.60226133,0.398984127 9.60368356,0.398984127 9.60642641,0.403047619 C9.62639848,0.409142857 9.64691911,0.416995556 9.66795784,0.423964444 C9.67618641,0.428027937 9.68383594,0.429754921 9.69154641,0.431786667 C9.70591086,0.437983492 9.72182959,0.444088889 9.73565562,0.44983873 C9.74388419,0.44983873 9.75206197,0.455527619 9.76075784,0.458473651 C9.77971403,0.467108571 9.79973689,0.47488 9.81922133,0.483088254 C9.82948165,0.487151746 9.83817752,0.491723175 9.84794006,0.495390476 C9.85922641,0.501180952 9.87100038,0.506473651 9.88331276,0.510577778 C9.89356292,0.515453968 9.90484927,0.520827937 9.91457117,0.525338413 C9.92535975,0.531128889 9.93557943,0.53559873 9.94587022,0.541338413 C10.2002347,0.666473651 10.4345966,0.833158095 10.6515261,1.03521524 C10.7315261,0.951111111 10.8151121,0.875702857 10.9017864,0.808015238 C10.4274143,0.47159873 9.88997689,0.279801905 9.26996927,0.279801905 C9.19816737,0.279801905 9.12637562,0.283865397 9.05355784,0.289249524" id="path13231" fill="#7DCBEC"></path>
            <path d="M10.6515972,1.0292419 C10.7844226,1.1528127 10.9115997,1.29078857 11.0321128,1.43951238 C11.1485217,1.35848635 11.2639147,1.28052825 11.3798156,1.20771048 C11.2280137,1.05590857 11.0680137,0.919497143 10.9013394,0.802041905 C10.8146753,0.869241905 10.7315972,0.945137778 10.6515972,1.0292419" id="path13235" fill="#5EC5ED"></path>
            <g id="g13243" transform="translate(10.874456, 0.714738) scale(-1, 1) rotate(-180.000000) translate(-10.874456, -0.714738) translate(8.566732, 0.201911)" fill="url(#linearGradient-16)">
                <path d="M0.486673307,0.944628273 C0.559494813,0.950782203 0.631290665,0.953346341 0.703086516,0.953346341 C1.32309498,0.953346341 1.86053821,0.761548852 2.33490365,0.425646833 C2.8354233,0.820524016 3.44055976,0.958474616 4.28108405,0.958474616 L0.210772107,0.958474616 C0.304619541,0.958474616 0.396415665,0.952833513 0.486673307,0.944628273" id="path13245"></path>
            </g>
            <g id="g13253" transform="translate(12.669352, 0.714738) scale(-1, 1) rotate(-180.000000) translate(-12.669352, -0.714738) translate(10.618042, 0.201911)" fill="url(#linearGradient-17)">
                <path d="M2.22977401,0.958474616 C1.38924972,0.958474616 0.784113263,0.820524016 0.283593613,0.425646833 C0.449749726,0.308209333 0.609751909,0.171797216 0.761548852,0.0200002729 C1.45848144,0.463083241 2.14874727,0.756420577 2.82926937,0.884627454 C3.08876009,0.933346068 3.34773798,0.958474616 3.60312608,0.958474616 L2.22977401,0.958474616 L2.22977401,0.958474616 Z" id="path13255"></path>
            </g>
            <path d="M22.824895,7.44508952 C23.186434,6.33019937 23.6002804,4.97687365 24.1136213,3.33528381 C24.5761991,1.8562946 25.3951858,0.75063873 26.9331464,0.268088889 C26.9737712,0.185498413 27.0121305,0.100368254 27.0516378,0.0167619048 C24.5444023,0.16704 23.3725928,1.44241778 22.7828378,3.33118984 C21.7515439,6.62866286 21.126914,8.76613079 20.525375,10.1282032 C21.2935883,9.39382857 22.0618017,8.4922819 22.824895,7.44508952" id="path13333" fill="url(#linearGradient-18)"></path>
        </g>
        <g id="ADO.NET" transform="translate(0.649000, 21.883000)" fill="#4A4A4A" fill-rule="nonzero">
            <path d="M1.918,0.119 L2.849,0.119 L4.774,5.117 L3.836,5.117 L3.367,3.794 L1.372,3.794 L0.903,5.117 L0,5.117 L1.918,0.119 Z M1.61,3.129 L3.136,3.129 L2.387,0.98 L2.366,0.98 L1.61,3.129 Z" id="Shape"></path>
            <path d="M5.25,0.119 L7.322,0.119 C7.70466667,0.119 8.036,0.184333333 8.316,0.315 C8.596,0.445666667 8.82466667,0.624166667 9.002,0.8505 C9.17933333,1.07683333 9.31116667,1.34166667 9.3975,1.645 C9.48383333,1.94833333 9.527,2.27266667 9.527,2.618 C9.527,2.96333333 9.48383333,3.28766667 9.3975,3.591 C9.31116667,3.89433333 9.17933333,4.15916667 9.002,4.3855 C8.82466667,4.61183333 8.596,4.79033333 8.316,4.921 C8.036,5.05166667 7.70466667,5.117 7.322,5.117 L5.25,5.117 L5.25,0.119 Z M6.125,4.403 L6.986,4.403 C7.32666667,4.403 7.6055,4.3575 7.8225,4.2665 C8.0395,4.1755 8.20983333,4.0495 8.3335,3.8885 C8.45716667,3.7275 8.54116667,3.5385 8.5855,3.3215 C8.62983333,3.1045 8.652,2.87 8.652,2.618 C8.652,2.366 8.62983333,2.1315 8.5855,1.9145 C8.54116667,1.6975 8.45716667,1.5085 8.3335,1.3475 C8.20983333,1.1865 8.0395,1.0605 7.8225,0.9695 C7.6055,0.8785 7.32666667,0.833 6.986,0.833 L6.125,0.833 L6.125,4.403 Z" id="Shape"></path>
            <path d="M12.432,0.714 C12.166,0.714 11.9361667,0.767666667 11.7425,0.875 C11.5488333,0.982333333 11.3913333,1.12583333 11.27,1.3055 C11.1486667,1.48516667 11.0588333,1.68933333 11.0005,1.918 C10.9421667,2.14666667 10.913,2.38 10.913,2.618 C10.913,2.856 10.9421667,3.08933333 11.0005,3.318 C11.0588333,3.54666667 11.1486667,3.75083333 11.27,3.9305 C11.3913333,4.11016667 11.5488333,4.25366667 11.7425,4.361 C11.9361667,4.46833333 12.166,4.522 12.432,4.522 C12.698,4.522 12.9278333,4.46833333 13.1215,4.361 C13.3151667,4.25366667 13.4726667,4.11016667 13.594,3.9305 C13.7153333,3.75083333 13.8051667,3.54666667 13.8635,3.318 C13.9218333,3.08933333 13.951,2.856 13.951,2.618 C13.951,2.38 13.9218333,2.14666667 13.8635,1.918 C13.8051667,1.68933333 13.7153333,1.48516667 13.594,1.3055 C13.4726667,1.12583333 13.3151667,0.982333333 13.1215,0.875 C12.9278333,0.767666667 12.698,0.714 12.432,0.714 Z M12.432,0 C12.8053333,0 13.1401667,0.07 13.4365,0.21 C13.7328333,0.35 13.9836667,0.539 14.189,0.777 C14.3943333,1.015 14.5518333,1.29266667 14.6615,1.61 C14.7711667,1.92733333 14.826,2.26333333 14.826,2.618 C14.826,2.97733333 14.7711667,3.31566667 14.6615,3.633 C14.5518333,3.95033333 14.3943333,4.228 14.189,4.466 C13.9836667,4.704 13.7328333,4.89183333 13.4365,5.0295 C13.1401667,5.16716667 12.8053333,5.236 12.432,5.236 C12.0586667,5.236 11.7238333,5.16716667 11.4275,5.0295 C11.1311667,4.89183333 10.8803333,4.704 10.675,4.466 C10.4696667,4.228 10.3121667,3.95033333 10.2025,3.633 C10.0928333,3.31566667 10.038,2.97733333 10.038,2.618 C10.038,2.26333333 10.0928333,1.92733333 10.2025,1.61 C10.3121667,1.29266667 10.4696667,1.015 10.675,0.777 C10.8803333,0.539 11.1311667,0.35 11.4275,0.21 C11.7238333,0.07 12.0586667,0 12.432,0 Z" id="Shape"></path>
            <polygon id="Path" points="15.575 4.172 16.548 4.172 16.548 5.117 15.575 5.117"></polygon>
            <polygon id="Path" points="17.535 0.119 18.459 0.119 20.741 3.801 20.755 3.801 20.755 0.119 21.588 0.119 21.588 5.117 20.664 5.117 18.389 1.442 18.368 1.442 18.368 5.117 17.535 5.117"></polygon>
            <polygon id="Path" points="22.624 0.119 26.222 0.119 26.222 0.875 23.499 0.875 23.499 2.184 26.019 2.184 26.019 2.898 23.499 2.898 23.499 4.361 26.271 4.361 26.271 5.117 22.624 5.117"></polygon>
            <polygon id="Path" points="26.558 0.119 30.604 0.119 30.604 0.875 29.015 0.875 29.015 5.117 28.14 5.117 28.14 0.875 26.558 0.875"></polygon>
        </g>
    </g>
</svg>