<?xml version="1.0" encoding="utf-8"?>
<!-- Generator: Adobe Illustrator 15.0.2, SVG Export Plug-In . SVG Version: 6.00 Build 0)  -->
<!DOCTYPE svg PUBLIC "-//W3C//DTD SVG 1.1//EN" "http://www.w3.org/Graphics/SVG/1.1/DTD/svg11.dtd">
<svg version="1.1" xmlns="http://www.w3.org/2000/svg" xmlns:xlink="http://www.w3.org/1999/xlink" x="0px" y="0px" width="256px"
	 height="256px" viewBox="0 0 256 256" enable-background="new 0 0 256 256" xml:space="preserve">
<g id="black_disk">
	<circle cx="128" cy="128" r="127"/>
</g>
<g id="grey">
	<circle fill="#A1A1A1" cx="128" cy="128" r="122"/>
</g>
<g id="red">
	<linearGradient id="SVGID_1_" gradientUnits="userSpaceOnUse" x1="77.1396" y1="233.9023" x2="150.1398" y2="81.9023">
		<stop  offset="0" style="stop-color:#591401"/>
		<stop  offset="0.4176" style="stop-color:#7E1F02"/>
		<stop  offset="0.7825" style="stop-color:#982603"/>
		<stop  offset="1" style="stop-color:#A22903"/>
	</linearGradient>
	<circle fill="url(#SVGID_1_)" cx="128" cy="128" r="122"/>
</g>
<g id="yellow" display="none">
	<linearGradient id="SVGID_2_" gradientUnits="userSpaceOnUse" x1="87.8301" y1="240.2227" x2="150.8299" y2="64.2235">
		<stop  offset="0" style="stop-color:#C1A327"/>
		<stop  offset="1" style="stop-color:#E2C537"/>
	</linearGradient>
	<circle display="inline" fill="url(#SVGID_2_)" cx="128" cy="128" r="122"/>
</g>
<g id="blue" display="none">
	<linearGradient id="SVGID_3_" gradientUnits="userSpaceOnUse" x1="128.0005" y1="248" x2="128.0005" y2="4.9487">
		<stop  offset="0" style="stop-color:#4A5D75"/>
		<stop  offset="0.0315" style="stop-color:#4D6078"/>
		<stop  offset="0.4614" style="stop-color:#738A9D"/>
		<stop  offset="0.7989" style="stop-color:#8BA4B4"/>
		<stop  offset="1" style="stop-color:#94AEBD"/>
	</linearGradient>
	<circle display="inline" fill="url(#SVGID_3_)" cx="128" cy="128" r="122"/>
</g>
<g id="gradient">
	<radialGradient id="SVGID_4_" cx="108" cy="80" r="174.011" gradientUnits="userSpaceOnUse">
		<stop  offset="0" style="stop-color:#FFFFFF"/>
		<stop  offset="0.3252" style="stop-color:#FDFDFD"/>
		<stop  offset="0.4424" style="stop-color:#F6F6F6"/>
		<stop  offset="0.5259" style="stop-color:#EBEBEB"/>
		<stop  offset="0.5934" style="stop-color:#DADADA"/>
		<stop  offset="0.6513" style="stop-color:#C4C4C4"/>
		<stop  offset="0.7025" style="stop-color:#A8A8A8"/>
		<stop  offset="0.7489" style="stop-color:#888888"/>
		<stop  offset="0.7915" style="stop-color:#626262"/>
		<stop  offset="0.8311" style="stop-color:#373737"/>
		<stop  offset="0.8663" style="stop-color:#090909"/>
		<stop  offset="0.8727" style="stop-color:#000000"/>
		<stop  offset="0.8901" style="stop-color:#040404"/>
		<stop  offset="0.9076" style="stop-color:#101010"/>
		<stop  offset="0.9251" style="stop-color:#242424"/>
		<stop  offset="0.9427" style="stop-color:#404040"/>
		<stop  offset="0.9603" style="stop-color:#656565"/>
		<stop  offset="0.9779" style="stop-color:#919191"/>
		<stop  offset="0.9952" style="stop-color:#C5C5C5"/>
		<stop  offset="1" style="stop-color:#D5D5D5"/>
	</radialGradient>
	<circle opacity="0.33" fill="url(#SVGID_4_)" cx="128" cy="128" r="122"/>
</g>
<g id="bird">
	<g>
		<defs>
			<circle id="SVGID_5_" cx="128" cy="128" r="122"/>
		</defs>
		<clipPath id="SVGID_6_">
			<use xlink:href="#SVGID_5_"  overflow="visible"/>
		</clipPath>
		<g clip-path="url(#SVGID_6_)">
			<path fill="#FFFFFF" d="M303.369,142.999l-0.035-0.132l-0.046-0.115c-0.285-0.769-0.722-1.509-1.27-2.05
				c-0.232-0.229-0.452-0.393-0.573-0.485l-0.108-0.095l-0.227-0.163c-0.402-0.272-0.816-0.507-1.222-0.708
				c-0.784-0.39-1.673-0.76-2.781-1.182c-2.187-0.847-5.22-1.875-9.116-3.063c-7.788-2.378-18.949-5.387-32.964-8.537
				c-3.357-0.758-6.893-1.52-10.581-2.286c0.157-0.407,0.262-0.847,0.311-1.302c0.021-0.194,0.027-0.356,0.027-0.502
				c-0.014-2.302-1.577-4.307-3.876-4.827c-38.017-8.586-67.395-14.542-117.231-28.89l3.761-6.252
				c0.47-0.78,0.699-1.671,0.699-2.549c0-0.623-0.112-1.218-0.325-1.78c-0.131-0.328-0.292-0.642-0.479-0.929
				c6.85-10.323,20.641-28.093,39.991-39.621l4.351-2.6l-4.141-2.926c-0.188-0.13-10.14-7.159-26.947-12.837l0.104-0.171
				l-4.218-1.133c-9.649-2.584-23.979-5.388-37.804-5.96l-0.211-0.008v-0.033l-1.922-0.048l-0.513-0.019v0.011l-0.79-0.022
				c-1.333-0.021-2.681-0.041-4.05-0.041c-11.191,0-23.592,0.999-37.173,3.422l-1.601,0.29
				C28.347,18.499,11.606,26.589,8.659,27.791l-0.277,0.115l-0.019-0.029L7,28.476l-1.304,0.533l0.012,0.029l-0.045,0.023
				c-16.602,7.264-30.158,17.039-41.066,27.352l-2.967,2.804l1.35,0.926c-0.218-0.008-0.432-0.018-0.635-0.029l-1.489-0.06
				l-1.031,1.064c-21.227,21.888-31.159,44.795-33.627,50.688c-5.048,12.086-4.477,22.71-5.096,31.418
				c-0.69,8.74-1.99,15.181-10.206,21.966c-0.456,0.245-1.27,0.704-2.15,1.325c-0.648,0.461-1.337,1-1.993,1.73
				c-0.617,0.738-1.432,1.723-1.49,3.533c-0.03,1.184,0.603,2.48,1.402,3.208c0.803,0.749,1.648,1.144,2.553,1.451
				c0.865,0.285,1.703,0.381,2.514,0.381c4.155-0.091,8.329-2.238,12.362-4.974c3.979-2.818,7.553-6.161,9.376-9.929
				c1.562-3.355,6.129-15.056,11.218-26.571c2.533-5.727,5.177-11.364,7.547-15.71c2.218-4.307,4.813-7.486,5.029-7.396
				c3.404-1.944,7.277-3.775,10.591-4.703c0.289,0.584,0.692,1.11,1.183,1.535l7.382,6.351c-2.948,3.396-4.929,5.987-5.569,6.491
				c-0.892,0.94-4.553,2.533-7.524,3.285c-1.553,0.42-2.975,0.733-4.004,0.935c-0.518,0.104-0.937,0.183-1.215,0.228
				c-0.144,0.028-0.255,0.048-0.331,0.057c-0.037,0.006-0.065,0.013-0.091,0.018c-0.012,0-0.018,0.004-0.026,0.004
				c-0.022,0.002-0.045,0.007-0.066,0.013c-0.008,0-0.016,0-0.024,0c-0.004,0-0.01,0-0.016,0c-1.518,0.279-2.868,1.275-3.565,2.713
				c-0.319,0.633-0.5,1.391-0.5,2.159c0,0.824,0.216,1.667,0.623,2.392c0.044,0.072,5.1,9.314,6.393,11.278l0.102,0.155l0.115,0.142
				c0.767,1.184,2.73,2.018,3.697,1.998l0.094,0.028l0.569-0.02c0.809-0.044,1.631-0.169,2.525-0.355
				c-2.121,3.027-4.221,7.388-6.631,14.66c-4.618,4.444-34.099,33.63-60.667,78.977c-27.311,46.832-47.275,112.661-47.397,138.087
				c0,1.519,0.07,2.91,0.236,4.207c0.107,1.065,0.663,2.421,1.778,3.261c1.102,0.836,2.259,0.979,3.084,0.979
				c1.607-0.03,2.749-0.443,3.854-0.728c0.927-0.267,1.77-0.454,2.23-0.485c0.048,0.243,0.096,0.628,0.094,1.154
				c0.003,1.386-0.309,3.696-1.159,6.989c-0.805,2.392-19.624,58.296-25.849,81.746c-1.801,6.811-2.653,14.232-2.653,21.466
				c0.009,9.475,1.44,18.603,4.392,25.713c1.485,3.546,3.351,6.623,5.806,8.954c2.42,2.302,5.589,3.824,9.078,3.824h0.063
				c0.151,0,0.317,0,0.507,0c9.043-0.432,15.382-6.68,19.751-14.602c4.451-8,7.441-18.152,9.919-28.389
				c4.454-18.443,18.241-71.903,20.577-80.958l4.797-2.881c0.315,1.576,0.83,3.345,1.673,5.122c1.913,4.3,6.642,8.667,13.973,8.561
				c5.001-0.02,11.026-1.754,18.711-5.837c31.932-17.052,92.597-63.115,143.08-112.875c34.452-34.048,44.27-52.165,47.02-60.981
				c0.358,0.249,0.719,0.5,1.086,0.726c0.994,0.546,1.689,1.16,3.575,1.277c0.756,0.03,2.042-0.295,2.888-1.277
				c0.834-0.98,0.968-2.012,0.968-2.695c-0.022-1.176-0.312-1.996-0.708-3.04c-0.352-0.859-0.958-2.249-1.584-3.798
				c0.282,0.076,0.629,0.137,1.05,0.169c1.022,0.098,2.577-0.758,3.036-1.728c0.523-0.931,0.523-1.567,0.537-2.065
				c-0.043-1.509-0.436-2.619-1.177-4.73c-0.551-1.479-1.315-3.35-2.364-5.744c0.324,0.065,0.685,0.11,1.092,0.132
				c0.653,0,1.686-0.132,2.659-0.974c0.983-0.859,1.306-2.152,1.282-2.942c-0.075-1.695-0.626-2.622-1.388-4.033
				c-0.743-1.297-1.81-2.858-3.327-4.874c0.216-0.178,0.416-0.379,0.573-0.612c0.698-0.985,0.745-1.814,0.751-2.367
				c-0.053-1.413-0.41-2.147-0.757-3.1c-0.552-1.347-1.27-2.771-1.833-3.962c-0.283-0.578-0.531-1.111-0.666-1.444
				c-0.032-0.091-0.066-0.167-0.085-0.231l-0.026-0.147c-0.013-0.007-0.819-4.885-0.804-8.329c-0.006-0.762,0.043-1.446,0.105-1.886
				c0.501-0.329,0.812-0.674,1.239-1.063c3.62-3.697,10.256-13.237,13.474-19.724c8.606-1.203,80.663-10.968,108.595-10.994
				l0.212,0.007c12.864-0.007,21.505-0.316,27.345-0.861c5.708-0.676,8.948-0.975,11.899-3.344c1.01-0.945,1.73-2.059,1.994-3.52
				l0.094-0.174v-0.872C303.605,144.09,303.531,143.56,303.369,142.999z"/>
			<path fill="#8E1F1E" d="M-87.257,167.951c18.562-14.854,7.012-32.184,16.5-54.87c2.396-5.73,12.158-28.229,32.953-49.665
				c3.858,0.176,10.223,0.634,12.716,1.843c4.108,1.992-4.11-3.738-8.047-6.444C-22.457,48.721-9.222,39.181,6.991,32.085
				l9.576,16.514L9.912,30.848c3.126-1.28,19.372-9.146,43.06-12.137c0.702,6.664,2.428,22.516,2.754,20.163
				c0.284-2.031-0.657-14.508-1.131-20.448c15.033-2.689,28.556-3.602,40.565-3.334v12.952l3.38-12.84
				c13.47,0.548,27.647,3.317,37.082,5.849c-3.246,5.454-4.85,15.082-3.246,10.049c1.682-5.291,3.259-7.617,5.509-9.35
				c17.395,5.623,27.747,12.945,27.747,12.945c-29.708,17.735-46.209,49.095-46.209,49.095l-143.562,20.624
				c-5.361-2.476-13.614,1.237-20.214,4.952c-6.6,3.713-22.278,44.961-25.167,51.152c-2.886,6.188-15.263,14.443-20.213,12.791
				C-94.683,171.662-87.257,167.951-87.257,167.951z"/>
			
				<radialGradient id="SVGID_7_" cx="184.4746" cy="208.7891" r="183.6731" gradientTransform="matrix(-1 0 0 1 175.1865 0)" gradientUnits="userSpaceOnUse">
				<stop  offset="0" style="stop-color:#B6C542"/>
				<stop  offset="1" style="stop-color:#567636"/>
			</radialGradient>
			<path fill="url(#SVGID_7_)" d="M-159.63,476.641c6.286-23.718,25.814-81.625,25.814-81.625
				c5.703-21.858-9.066-6.971-9.768-12.555c-2.512-20.124,18.141-91.383,46.743-140.214c28.599-48.835,60.687-78.829,60.687-78.829
				c5.893-18.104,9.491-17.185,14.316-22.307c4.829-5.129-4.825-1.211-4.825-1.211s8.442-14.776,15.983-19.903
				c7.541-5.13,3.015-7.539,3.015-7.539c4.224-6.638,45.846-22.621,49.165-24.731c3.312-2.11,58.208,3.016,58.208,3.016
				l34.077,10.565c3.141,4.513,5.325,11.69,5.325,11.69l2.485,0.182c45.67,3.392,84.854,10.243,112.716,16.509
				c13.929,3.139,25.029,6.131,32.712,8.47c3.847,1.178,6.826,2.188,8.905,2.994c1.05,0.394,1.862,0.738,2.485,1.057
				c0.312,0.155,0.574,0.301,0.843,0.484c0.246,0.232,0.581,0.279,0.947,1.238c0.066,0.222,0.103,0.481,0.103,0.752
				c0.016,0.803-0.409,1.585-0.918,2.044c-1.774,1.498-4.385,1.959-10.08,2.574c-5.659,0.534-14.228,0.851-27.036,0.854
				c-28.661-0.011-102.373,10.06-109.555,11.066l-1.151,0.16l-0.184-0.293c-2.489,6.244-12.68,20.815-14.883,21.643
				c-2.417,0.904-0.302,13.273-0.302,13.273c0,1.503,5.43,9.948,2.413,8.738c-3.013-1.204-4.826-2.106,0,4.227
				c9.838,12.912-0.301,6.031-0.301,6.031s-6.332-7.242-1.51,3.315c8.976,19.635,2.115,10.555,2.115,10.555
				c-8.371-7.667-1.629,6.956-0.305,10.258c2.718,6.755-7.037-2.43-7.037-2.43s3.181,15.312-47.042,64.844
				C34.308,351.069-26.383,397.109-57.78,413.856c-31.394,16.735-29.997-10.473-29.997-10.473l-10.459,6.287
				c0,0-16.042,62.081-20.929,82.312c-4.886,20.23-11.862,39.768-26.514,40.463C-160.324,533.145-165.905,500.354-159.63,476.641z"
				/>
			<g>
				<path fill="#F6EE70" d="M132.002,144.755c3.558-1.857,3.531-3.302,1.731-4.415c19.304,0.161,86.904,0.708,88.454,0.752
					c1.814,0.03,3.863-0.608,3.863-0.608c-17.159-2.843-111.176-3.642-111.176-3.642l0.434,0.104
					c-0.686-0.043-1.096-0.062-1.096-0.062s18.369-6.703,23.618-11.949c3.136-3.14,3.047-6.783,2.463-9.215
					c88.095,6.539,151.189,26.423,151.77,28.454c0.58,2.037-5.538,3.791-34.987,3.791c-27.979,0-99.147,9.742-106.145,10.712
					c-2.213-3.471-6.467-7.073-14.555-6.924C120.919,152.045,119.758,151.17,132.002,144.755z"/>
			</g>
			<path fill="#FFFFFF" stroke="#221F1F" stroke-width="3.3003" stroke-linecap="round" stroke-linejoin="round" d="
				M-25.866,125.622c1.837-1.651,4.553-5.59,9.36-10.64l-11.206-9.646c9.364-9.493,25-21.823,49.774-31.314
				c4.41-1.198,17.294-10.921,37.279-11.081c6.663-0.009,13.853,1.145,21.292,3.629c15.791,5.23,29.821,9.586,42.561,13.292
				l-7.073,11.768c53.797,15.702,84.219,21.834,123.715,30.75c0,0-73.273,1.583-82.727,2.368c-7.31,0.611-11.794-6.757-17.818-8.32
				c-0.757,0.728-1.712,1.44-3.06,2.067c-6.184,2.854-16.165,4.753-19.965-3.81c-3.803-8.552-12.842-12.35-18.541-9.023
				c-5.7,3.327-10.455,13.308-5.231,20.916c5.231,7.604,9.032,13.304,6.656,17.584c-2.375,4.283-11.884,12.835-17.588,13.785
				c-5.707,0.951-21.39-30.896-48.012-30.421c-26.621,0.477-67.977,16.164-68.926,14.735c-0.949-1.427-6.181-10.932-6.181-10.932
				S-30.296,129.61-25.866,125.622z"/>
			<path fill="#94AEBD" d="M104.176,90.047c1.36,0.41,2.705,0.818,4.037,1.213l5.502-9.382c0,0-34.07-10.432-42.178-12.748
				c-8.107-2.314-28.963-0.695-39.858,5.563c-10.892,6.258-20.385,8.809-26.417,12.051c-6.025,3.246-19.695,12.977-19.695,12.977
				l5.751,7.92c7.919-6.627,19.317-14.035,36.054-20.521c11.215-4.345,22.873-14.517,45.16-7.129
				C83.895,83.758,94.393,87.083,104.176,90.047"/>
			<path fill="#94AEBD" d="M151.118,108.865c16.885,4.182,31.695,7.331,45.995,10.283c-17.985,0.468-35.862,0.994-40.431,1.368
				c-0.141,0.018-0.298,0.02-0.466,0.02c-1.462,0.03-3.098-0.729-5.232-2.185c-0.935-1.206-2.515-3.392-3.332-5.466
				C146.744,110.567,149.669,109.331,151.118,108.865z"/>
			<path fill="#94AEBD" d="M-22.593,130.015v-0.006c3.141-2.969,6.105-7.658,12.646-13.894c0.604,3.022,2.172,6.547,6.979,8.185
				c7.165,2.446,22.717-4.892,39.319-2.791c10.947,1.381,19.749,6.993,31.807,5.766c7.966-0.806,9.788-6.815,8.245-13.417
				c-1.547-6.638,7.186-9.039,14.371-15.294c4.612-4.016,8.85-3.224,9.569-1.627c1.39,3.254-3.732,4.324-5.146,5.153
				c-5.683,3.474-9.791,10.097-9.938,17.857c-0.01,3.367,0.935,6.957,3.121,10.144c4.239,5.878,6.802,10.773,6.511,11.908
				c-0.015,0.305-0.026,0.305-0.105,0.465c-0.539,1.089-3.334,4.28-6.365,6.733c-2.354,2.007-5.159,3.672-6.716,4.302
				c-0.693-0.561-1.775-1.617-3.03-2.968c-2.57-2.734-5.932-6.645-10.033-10.626c-8.145-7.916-19.523-16.591-34.529-16.628
				c-0.22,0-0.49,0-0.689,0.007c-13.15,0.249-28.846,3.839-42.202,7.406c-10.326,2.791-19.673,5.675-24.069,6.868
				c-0.373-0.672-0.786-1.401-1.19-2.118C-30.358,134.356-26.074,133.022-22.593,130.015z"/>
			<path fill="#94AEBD" d="M119.486,100.426c4.889,1.399,9.601,2.703,14.154,3.919c0.784,0.422,2.3,1.395,3.549,3.271
				c1.342,2.01,0.39,5.466-3.065,7.091c-2.329,1.095-5.417,1.971-7.831,1.951c-2.974-0.192-4.188-0.588-5.538-3.272
				c-2.164-4.775-5.591-8.435-9.571-10.678C109.42,101.118,116.485,99.67,119.486,100.426z"/>
			<path d="M111.302,117.298c0,3.563-3.121,6.456-6.968,6.456c-3.854,0-6.974-2.893-6.974-6.456c0-3.57,3.119-6.456,6.974-6.456
				C108.181,110.842,111.302,113.728,111.302,117.298z"/>
			<path fill="#FFFFFF" d="M103.887,114.003c0,0.965-0.789,1.753-1.754,1.753c-0.972,0-1.757-0.788-1.757-1.753
				c0-0.972,0.785-1.757,1.757-1.757C103.098,112.246,103.887,113.031,103.887,114.003z"/>
		</g>
	</g>
</g>
</svg>
