<?xml version="1.0" encoding="UTF-8" standalone="no"?>
<!DOCTYPE svg PUBLIC "-//W3C//DTD SVG 1.1//EN" "http://www.w3.org/Graphics/SVG/1.1/DTD/svg11.dtd">
<!-- Created with Vectornator (http://vectornator.io/) -->
<svg height="100%" stroke-miterlimit="10" style="fill-rule:nonzero;clip-rule:evenodd;stroke-linecap:round;stroke-linejoin:round;" version="1.1" viewBox="0 0 300 300" width="100%" xml:space="preserve" xmlns="http://www.w3.org/2000/svg" xmlns:vectornator="http://vectornator.io" xmlns:xlink="http://www.w3.org/1999/xlink">
<defs/>
<g id="Untitled" vectornator:layerName="Untitled">
<path d="M284.7 227.1C280.7 227.1 277.3 223.8 277.3 219.7C277.3 215.6 280.6 212.3 284.7 212.3C288.8 212.3 292.1 215.6 292.1 219.7C292.1 223.7 288.8 227.1 284.7 227.1ZM284.7 213.2C281.1 213.2 278.4 215.9 278.4 219.6C278.4 223.4 281.1 226 284.7 226C288.3 226 291 223.3 291 219.6C291 215.9 288.3 213.2 284.7 213.2ZM286.8 224.1L284.6 220.9C284.1 220.3 283.9 220 283.2 220L283.2 224L281.9 224L281.9 215L284.8 215C286.6 215 287.6 216.2 287.6 217.6C287.6 218.9 286.7 219.7 285.2 219.9C285.6 220.2 285.8 220.5 286.2 221.1L288.3 224L286.8 224.1L286.8 224.1ZM284.6 216.2L283.3 216.2L283.3 219L284.2 219C285.2 219 286.3 218.9 286.3 217.6C286.3 216.7 285.8 216.2 284.6 216.2ZM21.4 242.8C21.1 242.8 20.8 242.9 20.6 243.2C20.4 243.4 20.2 243.5 20 243.7C19.7 243.9 19.4 244.1 19.1 244.2C18.7 244.4 18.4 244.4 17.8 244.4C17.4 244.4 17.1 244.3 16.7 244.2C16.4 244.1 16.1 243.9 15.9 243.6C15.6 243.3 15.4 243 15.3 242.7C15.1 242.3 15.1 241.8 15.1 241.2L15.1 226L22.4 226L22.4 223.5L15 223.5L15 214.7L13.5 214.7C13.1 214.7 12.9 214.9 12.8 215C12.6 215.2 12.5 215.4 12.5 215.6L11.9 223.4L7.9 223.7L7.9 225C7.9 225.4 8.1 225.6 8.2 225.7C8.4 225.9 8.7 226 8.9 226L11.7 226L11.7 241.3C11.7 243.2 12.2 244.7 13.2 245.6C14.1 246.5 15.5 247 17.2 247C18.2 247 19.2 246.8 20.1 246.4C21 245.9 21.8 245.4 22.5 244.7L22.7 244.4L21.9 243.1C21.8 243 21.6 242.8 21.4 242.8ZM44 225.2C43.2 224.3 42.2 223.6 41 223.2C39.8 222.7 38.6 222.5 37.2 222.5C35.5 222.5 34 222.8 32.6 223.4C31.2 224 30.1 224.9 29.2 225.9C28.3 226.9 27.5 228.2 27.1 229.7C26.7 231.2 26.4 232.7 26.4 234.4C26.4 236.4 26.7 238.2 27.1 239.7C27.7 241.3 28.4 242.6 29.3 243.7C30.3 244.8 31.4 245.6 32.8 246.2C34.2 246.8 35.6 247 37.3 247C38.2 247 39 246.9 40 246.7C40.9 246.5 41.7 246.3 42.5 246C43.2 245.7 44 245.4 44.6 244.9C45.2 244.4 45.8 244 46.2 243.5L46.4 243.2L45.6 242.2C45.4 241.9 45.1 241.7 44.8 241.7C44.5 241.7 44.2 241.9 43.8 242.2C43.5 242.5 43.1 242.8 42.5 243C41.9 243.3 41.2 243.6 40.5 243.8C39.7 244.1 38.8 244.2 37.7 244.2C36.5 244.2 35.3 244 34.4 243.6C33.4 243.1 32.6 242.6 31.9 241.8C31.2 241 30.6 239.9 30.2 238.7C29.8 237.4 29.6 235.9 29.6 234.3L45.9 234.3C46.3 234.3 46.5 234.2 46.7 233.9C46.9 233.7 46.9 233.3 46.9 233C46.9 231.3 46.6 229.9 46.2 228.6C45.4 227.2 44.8 226.1 44 225.2ZM43.8 232L29.5 232C29.7 231 29.9 230.2 30.2 229.3C30.6 228.4 31.1 227.6 31.8 226.9C32.5 226.2 33.2 225.8 34.1 225.4C35 225 36 224.8 37.1 224.8C38.1 224.8 39 225 39.8 225.4C40.6 225.8 41.4 226.2 41.9 226.9C42.5 227.5 42.9 228.3 43.3 229.2C43.6 230.1 43.8 231 43.8 232ZM69.1 241.9L69.1 241.9C68.7 241.9 68.4 242.1 68 242.5C67.7 242.8 67.4 243.1 66.9 243.3C66.4 243.6 65.9 243.9 65.2 244.1C64.5 244.4 63.6 244.5 62.5 244.5C61.4 244.5 60.3 244.3 59.4 243.9C58.5 243.5 57.7 242.9 57 242.1C56.3 241.3 55.8 240.3 55.4 239.1C55 237.9 54.8 236.5 54.8 235C54.8 233.5 55 232.2 55.4 231C55.8 229.8 56.2 228.8 57 228C57.6 227.2 58.5 226.5 59.5 226.1C60.5 225.6 61.6 225.5 62.8 225.5C63.7 225.5 64.5 225.6 65.1 225.8C65.7 226 66.3 226.3 66.7 226.4C67.2 226.7 67.4 226.9 67.7 227C68.4 227.6 68.9 227.4 69.2 227.3C69.3 227.2 69.4 227.1 69.5 227L70.3 225.9L70 225.6C69.1 224.8 68.1 224 66.9 223.6C65.7 223.1 64.3 222.9 62.8 222.9C61.1 222.9 59.5 223.2 58.2 223.8C56.8 224.4 55.7 225.3 54.8 226.4C53.9 227.5 53.1 228.8 52.7 230.3C52.2 231.8 52 233.4 52 235.3C52 237.2 52.3 238.9 52.7 240.4C53.2 241.9 53.9 243.2 54.8 244.3C55.7 245.3 56.8 246.1 58.1 246.7C59.4 247.3 60.8 247.5 62.3 247.5C63.2 247.5 64 247.4 64.9 247.2C65.7 247 66.5 246.8 67.2 246.5C67.9 246.2 68.6 245.9 69.1 245.4C69.7 244.9 70.1 244.5 70.6 244L70.8 243.7L70 242.7C69.6 242.1 69.3 241.9 69.1 241.9ZM93.3 224.9C92.7 224.1 91.7 223.4 90.7 223.1C89.7 222.6 88.5 222.5 87.2 222.5C85.5 222.5 83.8 222.9 82.4 223.7C81.3 224.3 80.3 225.1 79.5 226L79.5 212.2L76.4 212.2L76.4 246.7L79.5 246.7L79.5 229.1C80.4 227.8 81.5 226.9 82.7 226.2C83.9 225.5 85.3 225.1 86.7 225.1C88.5 225.1 90 225.7 90.8 226.8C91.7 227.9 92.2 229.6 92.2 231.6L92.2 246.8L95.3 246.8L95.3 231.6C95.3 230.2 95.1 228.9 94.7 227.8C94.5 226.8 94 225.7 93.3 224.9ZM120.2 224.9C119.6 224.1 118.6 223.4 117.6 223.1C116.6 222.6 115.4 222.5 114.1 222.5C112.3 222.5 110.7 223 109.2 223.8C108.1 224.4 107.1 225.3 106.1 226.3L105.9 223.9C105.8 223.3 105.3 223 104.8 223L103.2 223L103.2 246.9L106.3 246.9L106.3 229.3C107.2 228 108.3 227.1 109.5 226.4C110.7 225.7 112.1 225.3 113.5 225.3C115.3 225.3 116.8 225.9 117.6 227C118.5 228.1 119 229.8 119 231.8L119 247L122.1 247L122.1 231.8C122.1 230.4 121.9 229.1 121.5 228C121.4 226.8 120.8 225.7 120.2 224.9ZM147.6 225.8C146.7 224.7 145.5 223.9 144.1 223.3C142.7 222.7 141.2 222.4 139.5 222.4C137.8 222.4 136.3 222.7 134.9 223.3C133.5 223.9 132.4 224.8 131.4 225.8C130.5 226.9 129.7 228.2 129.3 229.7C128.8 231.2 128.6 232.9 128.6 234.8C128.6 236.6 128.9 238.3 129.3 239.9C129.8 241.4 130.5 242.7 131.4 243.8C132.3 244.9 133.5 245.7 134.9 246.3C136.3 246.9 137.8 247.1 139.5 247.1C141.2 247.1 142.7 246.8 144.1 246.3C145.5 245.7 146.6 244.9 147.6 243.8C148.5 242.7 149.3 241.4 149.7 239.9C150.2 238.4 150.4 236.8 150.4 234.8C150.4 233 150.1 231.3 149.7 229.7C149.2 228.2 148.5 226.9 147.6 225.8ZM147.3 234.8C147.3 236.3 147.1 237.6 146.8 238.8C146.4 240 146 241 145.3 241.8C144.6 242.6 143.8 243.3 142.9 243.7C142 244.2 140.8 244.3 139.5 244.3C138.2 244.3 137 244.1 136.1 243.7C135.2 243.2 134.4 242.6 133.7 241.8C133.1 241 132.6 240 132.2 238.8C131.8 237.6 131.7 236.2 131.7 234.8C131.7 233.3 131.9 232 132.2 230.8C132.6 229.6 133 228.6 133.7 227.8C134.3 227 135.2 226.3 136.1 225.9C137 225.4 138.2 225.3 139.5 225.3C140.8 225.3 142 225.5 142.9 225.9C143.8 226.4 144.6 227 145.3 227.8C145.9 228.6 146.4 229.6 146.8 230.8C147.1 231.9 147.3 233.3 147.3 234.8ZM157.4 212.2L160.5 212.2L160.5 246.7L157.4 246.7L157.4 212.2ZM186.4 225.8C185.5 224.7 184.3 223.9 182.9 223.3C181.5 222.7 180 222.4 178.3 222.4C176.6 222.4 175.1 222.7 173.7 223.3C172.3 223.9 171.2 224.8 170.2 225.8C169.3 226.9 168.5 228.2 168.1 229.7C167.7 231.2 167.4 232.9 167.4 234.8C167.4 236.6 167.7 238.3 168.1 239.9C168.6 241.4 169.3 242.7 170.2 243.8C171.1 244.9 172.3 245.7 173.7 246.3C175.1 246.9 176.6 247.1 178.3 247.1C180 247.1 181.5 246.8 182.9 246.3C184.3 245.7 185.4 244.9 186.4 243.8C187.3 242.7 188.1 241.4 188.5 239.9C189 238.4 189.2 236.8 189.2 234.8C189.2 233 188.9 231.3 188.5 229.7C188 228.2 187.3 226.9 186.4 225.8ZM186.1 234.8C186.1 236.3 185.9 237.6 185.6 238.8C185.3 240 184.8 241 184.1 241.8C183.5 242.6 182.6 243.3 181.7 243.7C180.8 244.2 179.6 244.3 178.3 244.3C177 244.3 175.8 244.1 174.9 243.7C174 243.2 173.2 242.6 172.5 241.8C171.9 241 171.4 240 171 238.8C170.6 237.6 170.5 236.2 170.5 234.8C170.5 233.3 170.7 232 171 230.8C171.4 229.6 171.8 228.6 172.5 227.8C173.1 227 174 226.3 174.9 225.9C175.9 225.4 177 225.3 178.3 225.3C179.6 225.3 180.8 225.5 181.7 225.9C182.6 226.4 183.4 227 184.1 227.8C184.7 228.6 185.2 229.6 185.6 230.8C185.9 231.9 186.1 233.3 186.1 234.8ZM206.9 222.8L206.9 222.8C206 222.5 205.1 222.4 204 222.4C202.7 222.4 201.5 222.6 200.5 223C199.4 223.4 198.5 223.9 197.7 224.6C197 225.2 196.3 226.1 196 227.1C195.5 228 195.4 229.1 195.4 230.3C195.4 231.8 195.8 233.1 196.4 234.2C197 235.1 197.6 235.9 198.5 236.5C198.2 236.7 198 236.9 197.9 237.1C197.5 237.5 197.2 237.8 196.9 238.2C196.6 238.6 196.4 238.9 196.3 239.4C196.1 239.8 196.1 240.2 196.1 240.6C196.1 241.6 196.4 242.3 196.9 243C197.2 243.3 197.5 243.6 198 243.8C197 244.3 196.2 244.9 195.5 245.5C194.6 246.4 194.2 247.6 194.2 248.9C194.2 249.8 194.4 250.6 194.8 251.5C195.2 252.4 195.9 253 196.8 253.6C197.6 254.2 198.7 254.7 200 255C201.3 255.4 202.8 255.6 204.4 255.6C206.1 255.6 207.5 255.4 208.8 255C210.1 254.5 211.3 254 212.2 253.3C213.1 252.6 213.9 251.7 214.4 250.8C214.9 249.9 215.1 248.9 215.1 247.9C215.1 246.8 214.8 245.9 214.3 245.1C213.7 244.5 213.1 243.9 212.3 243.5C211.5 243.1 210.6 242.9 209.5 242.8C208.5 242.6 207.5 242.5 206.5 242.5C205.5 242.4 204.5 242.4 203.5 242.3C202.6 242.2 201.7 242.1 200.9 242C200.2 241.8 199.6 241.6 199.2 241.3C198.8 241 198.6 240.7 198.6 240.1C198.6 239.7 198.8 239.3 199.1 238.9C199.4 238.5 199.8 238.2 200.3 237.8C201.3 238.2 202.5 238.4 203.8 238.4C205.1 238.4 206.3 238.2 207.3 237.8C208.4 237.4 209.3 236.9 210.1 236.2C210.8 235.6 211.5 234.7 211.8 233.7C212.3 232.8 212.4 231.7 212.4 230.5C212.4 229.6 212.3 228.8 212 228C211.8 227.4 211.6 227 211.4 226.5L214.2 226.3C215.1 226.1 215.2 225.5 215.2 225.2L215.2 224L208.9 224C208.4 223.4 207.7 223.1 206.9 222.8ZM209.7 230.3C209.7 231.1 209.6 231.9 209.3 232.5C209 233.1 208.7 233.7 208.2 234.2C207.7 234.7 207.1 235 206.5 235.3C205.8 235.6 204.9 235.7 204 235.7C203.1 235.7 202.3 235.6 201.5 235.3C200.7 235 200.2 234.7 199.8 234.2C199.3 233.7 199 233.2 198.7 232.5C198.4 231.9 198.3 231.1 198.3 230.3C198.3 229.5 198.4 228.7 198.7 228.1C199 227.5 199.3 226.9 199.8 226.4C200.3 225.9 200.9 225.6 201.5 225.3C202.2 225 203.1 224.9 204 224.9C204.9 224.9 205.7 225 206.5 225.3C207.2 225.6 207.8 225.9 208.2 226.4C208.7 226.9 209 227.4 209.3 228.1C209.5 228.8 209.7 229.5 209.7 230.3ZM197 247.2C197.2 246.8 197.5 246.4 197.7 246.1C198.1 245.7 198.4 245.5 198.9 245.2C199.4 244.9 199.8 244.6 200.4 244.5C201.2 244.6 202.1 244.7 202.9 244.8C203.8 244.9 204.7 244.9 205.6 245C206.4 245.1 207.3 245.1 208.2 245.2C209 245.3 209.7 245.5 210.3 245.7C210.9 245.9 211.3 246.3 211.7 246.6C212 247 212.2 247.4 212.2 248.1C212.2 248.8 212 249.5 211.6 250C211.2 250.6 210.7 251.1 209.9 251.6C209.1 252.1 208.3 252.4 207.4 252.6C206.4 252.9 205.4 253 204.3 253C203.1 253 202 252.9 201.1 252.6C200.2 252.3 199.4 252 198.8 251.7C198.2 251.3 197.7 250.9 197.4 250.3C197.1 249.7 196.9 249.2 196.9 248.6C196.8 248 196.9 247.5 197 247.2ZM221.2 222.8L224.2 222.8L224.2 246.7L221.2 246.7L221.2 222.8ZM224.5 213.6C224.3 213.4 224 213.2 223.8 213C223.2 212.7 222.5 212.7 221.9 213C221.6 213.1 221.3 213.3 221.2 213.6C221 213.8 220.8 214.1 220.6 214.4C220.5 214.7 220.4 215 220.4 215.4C220.4 215.8 220.5 216 220.6 216.3C220.7 216.6 220.9 216.9 221.2 217C221.4 217.2 221.7 217.4 221.9 217.6C222.2 217.7 222.5 217.8 222.8 217.8C223.2 217.8 223.4 217.7 223.7 217.6C224 217.5 224.3 217.3 224.4 217C224.6 216.8 224.8 216.5 225 216.3C225.2 216 225.2 215.7 225.2 215.3C225.2 214.9 225.1 214.7 225 214.3C224.9 214.1 224.7 213.8 224.5 213.6ZM248.9 225.2C248.1 224.3 247.1 223.6 245.9 223.2C244.7 222.7 243.5 222.5 242.1 222.5C240.4 222.5 238.9 222.8 237.5 223.4C236.1 224 235 224.9 234.1 225.9C233.2 226.9 232.4 228.2 232 229.7C231.5 231.2 231.3 232.7 231.3 234.4C231.3 236.4 231.6 238.2 232 239.7C232.6 241.3 233.3 242.6 234.2 243.7C235.2 244.8 236.3 245.6 237.7 246.2C239.1 246.8 240.5 247 242.2 247C243.1 247 243.9 246.9 244.9 246.7C245.8 246.5 246.6 246.3 247.4 246C248.2 245.7 248.9 245.4 249.5 244.9C250.1 244.4 250.7 244 251.1 243.5L251.3 243.2L250.5 242.2C250.3 241.9 250 241.7 249.7 241.7C249.4 241.7 249.1 241.9 248.7 242.2C248.4 242.5 248 242.8 247.4 243C246.8 243.3 246.2 243.6 245.4 243.8C244.6 244.1 243.7 244.2 242.6 244.2C241.4 244.2 240.2 244 239.3 243.6C238.3 243.1 237.5 242.6 236.8 241.8C236.1 241 235.5 239.9 235.1 238.7C234.7 237.4 234.5 235.9 234.5 234.3L250.8 234.3C251.2 234.3 251.4 234.2 251.6 233.9C251.8 233.7 251.8 233.3 251.8 233C251.8 231.3 251.5 229.9 251.1 228.6C250.4 227.2 249.7 226.1 248.9 225.2ZM248.8 232L234.5 232C234.7 231.1 234.9 230.2 235.2 229.3C235.6 228.4 236.1 227.6 236.8 226.9C237.5 226.2 238.2 225.8 239.1 225.4C240 225 241 224.8 242.1 224.8C243.1 224.8 244 225 244.8 225.4C245.6 225.8 246.4 226.2 246.9 226.9C247.5 227.5 247.9 228.3 248.3 229.2C248.5 230.1 248.7 231 248.8 232ZM272 237C271.6 236.3 271.1 235.7 270.4 235.3C269.7 234.9 269 234.5 268.3 234.1C267.5 233.8 266.7 233.5 265.9 233.3C265.1 233 264.3 232.8 263.6 232.6C262.9 232.3 262.2 232 261.7 231.8C261.1 231.5 260.7 231.2 260.4 230.7C260.1 230.3 259.9 229.8 259.9 229.1C259.9 228.5 260 228.1 260.3 227.6C260.6 227.1 260.9 226.7 261.3 226.3C261.8 225.9 262.3 225.7 263 225.4C263.6 225.2 264.4 225 265.1 225C266 225 266.8 225.1 267.3 225.3C267.9 225.5 268.4 225.7 268.9 225.9C269.4 226.1 269.6 226.4 269.9 226.5C270.4 226.8 270.7 227 271.1 226.9C271.4 226.8 271.6 226.6 271.7 226.3L272.3 225.2L272 224.9C271.1 224.1 270 223.3 268.9 223C267.8 222.5 266.4 222.4 265 222.4C263.8 222.4 262.7 222.6 261.7 223C260.7 223.4 259.9 223.8 259.1 224.5C258.4 225.1 257.8 225.8 257.4 226.6C257 227.4 256.8 228.3 256.8 229.2C256.8 230.2 257 231.1 257.4 231.8C257.8 232.5 258.3 233.1 259 233.5C259.7 233.9 260.4 234.3 261.1 234.7C261.8 235 262.7 235.3 263.5 235.5C264.3 235.8 265.1 236 265.8 236.2C266.5 236.5 267.2 236.8 267.7 237C268.3 237.4 268.7 237.7 269 238.2C269.3 238.7 269.5 239.2 269.5 239.9C269.5 240.5 269.4 241.1 269.1 241.7C268.8 242.3 268.5 242.8 268.1 243.2C267.6 243.7 267.1 243.9 266.4 244.2C265.7 244.5 264.9 244.6 264 244.6C263 244.6 262.2 244.5 261.5 244.2C260.9 243.9 260.3 243.7 259.8 243.5C259.3 243.2 259 242.9 258.7 242.8C257.9 242.1 257.2 242.3 257 242.5C256.8 242.6 256.7 242.8 256.6 242.9L255.9 244L256.2 244.3C257.1 245.1 258.2 245.9 259.4 246.4C260.6 247 262.1 247.2 263.7 247.2C265.1 247.2 266.3 247 267.3 246.6C268.3 246.2 269.2 245.7 270 245C270.7 244.4 271.3 243.5 271.7 242.6C272.1 241.7 272.3 240.7 272.3 239.7C272.7 238.5 272.5 237.7 272 237Z" fill="#000000" fill-rule="nonzero" opacity="1" stroke="none" vectornator:layerName="path"/>
<path d="M50.5 134.6C54.6 134.6 58.3 133.9 61.4 132.4C64.5 130.9 67.7 128.6 70.9 125.3L70.9 110.4C64.5 110.7 59.1 111.2 55 112.1C50.9 113 47.6 113.9 45.2 115.2C42.8 116.4 41.1 117.9 40.1 119.4C39.2 121 38.7 122.7 38.7 124.5C38.7 128.2 39.7 130.8 41.7 132.2C43.7 133.8 46.6 134.6 50.5 134.6M87.5 154.2C84.5 154.2 82.2 153.7 80.6 152.9C79 152.1 77.8 150.3 76.7 147.8L74.4 141.9C71.7 144.2 69.2 146.2 66.6 147.9C64.1 149.6 61.5 151.1 58.9 152.3C56.3 153.5 53.4 154.4 50.4 155C47.4 155.6 44.1 155.9 40.4 155.9C35.5 155.9 31 155.3 27 154C23 152.7 19.6 150.9 16.8 148.4C14 145.9 11.8 142.8 10.3 139.1C8.8 135.4 8 131.1 8 126.3C8 122.5 9 118.6 10.9 114.5C12.8 110.4 16.2 106.9 20.9 103.6C25.7 100.3 32.1 97.5 40.2 95.3C48.3 93.1 58.5 91.8 70.8 91.5L70.8 86.9C70.8 80.6 69.5 76.1 66.9 73.3C64.3 70.5 60.6 69.1 55.9 69.1C52.1 69.1 49 69.6 46.5 70.3C44.1 71.1 41.9 72 40 73.1C38.1 74.1 36.2 75 34.5 75.9C32.7 76.7 30.5 77.2 28.1 77.2C25.9 77.2 24.1 76.6 22.5 75.5C20.9 74.4 19.7 73.1 18.7 71.5L12.9 61.4C19.5 55.7 26.7 51.5 34.7 48.6C42.6 45.8 51.2 44.4 60.2 44.4C66.7 44.4 72.5 45.4 77.8 47.5C83 49.6 87.5 52.6 91.1 56.3C94.7 60.1 97.5 64.6 99.5 69.7C101.4 74.8 102.4 80.5 102.4 86.7L102.4 153.9L87.6 153.9L87.6 154.2L87.5 154.2ZM181.4 70.1C180.6 71.4 179.7 72.3 178.7 72.9C177.8 73.5 176.6 73.7 175.1 73.7C173.5 73.7 172.1 73.3 170.5 72.7C168.9 72.1 167.4 71.3 165.5 70.6C163.8 69.9 161.7 69.1 159.5 68.5C157.3 67.9 154.7 67.5 152 67.5C148 67.5 144.8 68.2 142.6 69.8C140.4 71.4 139.3 73.5 139.3 76.3C139.3 78.3 140 80 141.4 81.3C142.8 82.6 144.7 83.8 147.1 84.8C149.5 85.8 152.2 86.7 155.1 87.6C158 88.5 161.1 89.5 164.2 90.6C167.3 91.7 170.4 93 173.3 94.5C176.2 96 178.9 97.8 181.3 100C183.7 102.2 185.5 104.8 186.9 107.9C188.3 111 189 114.8 189 119.1C189 124.4 188 129.3 186.1 133.8C184.2 138.3 181.3 142.2 177.5 145.4C173.7 148.6 169 151.2 163.3 152.9C157.7 154.7 151.2 155.6 143.8 155.6C140.1 155.6 136.4 155.2 132.8 154.6C129.1 154 125.6 152.9 122.1 151.8C118.7 150.6 115.5 149.2 112.6 147.6C109.7 145.9 107.2 144.2 105.2 142.4L112.6 130.5C113.4 129.1 114.4 128 115.7 127.2C117 126.4 118.6 126 120.7 126C122.5 126 124.3 126.5 125.8 127.3C127.3 128.1 128.9 129 130.7 130C132.4 131 134.5 131.8 136.8 132.7C139.1 133.5 142 133.9 145.5 133.9C148 133.9 150.1 133.6 151.8 133.2C153.5 132.6 154.9 132 155.9 131.1C156.9 130.2 157.7 129.2 158.2 128.1C158.7 127 158.9 125.8 158.9 124.7C158.9 122.6 158.2 120.8 156.7 119.4C155.2 118 153.4 116.8 151 115.8C148.6 114.8 145.9 113.9 142.9 113C139.9 112.1 136.8 111.2 133.7 110.1C130.6 109 127.5 107.6 124.5 106.1C121.5 104.5 118.8 102.6 116.4 100.2C114 97.8 112.2 94.9 110.7 91.5C109.2 88 108.5 83.9 108.5 78.9C108.5 74.3 109.4 70 111.2 65.8C112.9 61.7 115.6 58.1 119.1 55C122.6 51.9 127 49.4 132.3 47.6C137.6 45.8 143.9 44.8 151 44.8C154.9 44.8 158.6 45.2 162.2 45.8C165.8 46.5 169.3 47.5 172.4 48.7C175.6 50 178.5 51.5 181.1 53.1C183.8 54.8 186.1 56.7 188.1 58.6L181.4 70.1ZM235.5 94.7C240.8 94.7 244.7 93.3 247.1 90.7C249.5 88 250.7 84.6 250.7 80.4C250.7 76.1 249.5 72.6 247.1 70.1C244.7 67.6 240.8 66.3 235.5 66.3C230.2 66.3 226.3 67.6 223.9 70.1C221.5 72.6 220.3 76 220.3 80.4C220.3 82.5 220.6 84.4 221.2 86.1C221.8 87.8 222.7 89.3 224 90.6C225.3 91.9 226.8 92.9 228.7 93.6C230.6 94.4 232.9 94.7 235.5 94.7M260.4 158.1C260.4 155.5 259.3 153.7 257 152.6C254.7 151.5 251.8 150.7 248.1 150.2C244.4 149.7 240.3 149.5 235.8 149.4C231.2 149.3 226.7 149 222.2 148.5C220.2 149.9 218.6 151.4 217.3 153.1C216 154.8 215.5 156.7 215.5 158.9C215.5 160.4 215.9 161.8 216.5 163C217.1 164.3 218.3 165.3 220 166.2C221.7 167.1 223.9 167.8 226.7 168.3C229.5 168.9 233 169 237.4 169C242 169 245.9 168.7 248.8 168.2C251.7 167.6 254.1 166.9 255.9 165.9C257.6 164.9 258.9 163.8 259.6 162.4C260 161.2 260.4 159.7 260.4 158.1M235.5 44.7C240.1 44.7 244.4 45.2 248.5 46.1C252.5 47 256.3 48.3 259.7 50L292.1 50L292.1 61.7C292.1 63.5 291.6 64.9 290.6 65.9C289.6 66.9 287.8 67.7 285.5 68.3L277.6 70C278.6 73.1 279.1 76.3 279.1 79.7C279.1 85.1 278 89.9 275.7 94.2C273.5 98.5 270.4 102.1 266.5 105.1C262.5 108.1 258 110.4 252.6 112.1C247.3 113.8 241.6 114.6 235.5 114.6C232.1 114.6 228.9 114.4 225.9 114C223.5 115.4 222.4 116.9 222.4 118.8C222.4 120.6 223.3 121.9 225.3 122.7C227.2 123.5 229.8 124.1 232.9 124.4C236.1 124.7 239.7 125 243.7 125C247.7 125.1 251.9 125.4 256.1 125.7C260.3 126.1 264.5 126.7 268.5 127.6C272.5 128.5 276.1 130 279.3 131.9C282.5 133.9 285 136.6 287 140C288.9 143.4 289.9 147.6 289.9 152.8C289.9 157.7 288.7 162.4 286.4 167C284 171.6 280.6 175.7 276 179.3C271.4 182.9 265.8 185.8 259.2 187.9C252.6 190.1 245 191.2 236.4 191.2C227.9 191.2 220.7 190.4 214.5 188.8C208.3 187.2 203.3 185.1 199.2 182.5C195.2 179.9 192.1 176.9 190.2 173.5C188.3 170.1 187.3 166.6 187.3 162.9C187.3 158.1 188.7 154.2 191.4 150.9C194.2 147.7 198 145.2 203 143.2C200.3 141.6 198.3 139.6 196.7 137C195.1 134.5 194.4 131.3 194.4 127.3C194.4 125.7 194.7 124 195.2 122.2C195.8 120.5 196.6 118.7 197.8 117.1C199 115.5 200.5 113.9 202.3 112.3C204.1 110.7 206.3 109.5 208.7 108.3C203.1 105.4 198.7 101.4 195.5 96.4C192.3 91.5 190.7 85.7 190.7 79.3C190.7 73.9 191.8 69 194.1 64.7C196.4 60.4 199.5 56.7 203.5 53.7C207.5 50.7 212.1 48.4 217.6 46.7C223.3 45.6 229.2 44.7 235.5 44.7" fill="#000000" fill-rule="nonzero" opacity="1" stroke="none" vectornator:layerName="path"/>
</g>
</svg>
