<?xml version="1.0" encoding="UTF-8"?>
<svg width="139px" height="161px" viewBox="0 0 139 161" version="1.1" xmlns="http://www.w3.org/2000/svg" xmlns:xlink="http://www.w3.org/1999/xlink">
    <title>birt</title>
    <g id="birt" stroke="none" stroke-width="1" fill="none" fill-rule="evenodd">
        <path d="M69.5,0 L138.34902,40.25 L138.34902,120.75 L69.5,161 L0.650980399,120.75 L0.650980399,40.25 L69.5,0 Z M69.5,6 L5.84713282,43.25 L5.84713282,117.75 L69.5,155 L133.152867,117.75 L133.152867,43.25 L69.5,6 Z" id="Polygon-2" fill="#43197F"></path>
        <path d="M69.315081,27.6276338 C69.5341043,27.9561688 69.6509804,28.3421842 69.6509804,28.7370342 L69.6509804,73.9296325 C69.6509804,74.5983389 69.3167781,75.2228015 68.7603808,75.5937331 L24.7603808,104.927066 C23.8413234,105.539771 22.5995847,105.291424 21.9868798,104.372366 C21.7678565,104.043831 21.6509804,103.657816 21.6509804,103.262966 L21.6509804,58.0703675 C21.6509804,57.4016611 21.9851827,56.7771985 22.54158,56.4062669 L66.54158,27.0729336 C67.4606374,26.4602287 68.7023761,26.7085764 69.315081,27.6276338 Z M65.3175782,34.621283 C64.7069471,33.7008465 63.4657716,33.4496995 62.545335,34.0603306 L62.545335,34.0603306 L26.545335,57.9432574 C25.9867712,58.3138169 25.6509804,58.9395509 25.6509804,59.6098552 L25.6509804,59.6098552 L25.6509804,96.2730716 C25.6509804,96.6663855 25.7669497,97.0509689 25.9843826,97.378717 C26.5950137,98.2991535 27.8361892,98.5503005 28.7566258,97.9396694 L28.7566258,97.9396694 L64.7566258,74.0567426 C65.3151896,73.6861831 65.6509804,73.0604491 65.6509804,72.3901448 L65.6509804,72.3901448 L65.6509804,35.7269284 C65.6509804,35.3336145 65.5350111,34.9490311 65.3175782,34.621283 Z" id="Rectangle-2" fill="#43197F"></path>
        <path d="M69.315081,56.6276338 C69.5341043,56.9561688 69.6509804,57.3421842 69.6509804,57.7370342 L69.6509804,102.929632 C69.6509804,103.598339 69.3167781,104.222802 68.7603808,104.593733 L24.7603808,133.927066 C23.8413234,134.539771 22.5995847,134.291424 21.9868798,133.372366 C21.7678565,133.043831 21.6509804,132.657816 21.6509804,132.262966 L21.6509804,87.0703675 C21.6509804,86.4016611 21.9851827,85.7771985 22.54158,85.4062669 L66.54158,56.0729336 C67.4606374,55.4602287 68.7023761,55.7085764 69.315081,56.6276338 Z M65.3175782,63.621283 C64.7069471,62.7008465 63.4657716,62.4496995 62.545335,63.0603306 L62.545335,63.0603306 L26.545335,86.9432574 C25.9867712,87.3138169 25.6509804,87.9395509 25.6509804,88.6098552 L25.6509804,88.6098552 L25.6509804,125.273072 C25.6509804,125.666386 25.7669497,126.050969 25.9843826,126.378717 C26.5950137,127.299154 27.8361892,127.5503 28.7566258,126.939669 L28.7566258,126.939669 L64.7566258,103.056743 C65.3151896,102.686183 65.6509804,102.060449 65.6509804,101.390145 L65.6509804,101.390145 L65.6509804,64.7269284 C65.6509804,64.3336145 65.5350111,63.9490311 65.3175782,63.621283 Z" id="Rectangle-2-Copy" fill="#43197F" transform="translate(45.650980, 95.000000) scale(1, -1) translate(-45.650980, -95.000000) "></path>
    </g>
</svg>