<?xml version="1.0" encoding="UTF-8" standalone="no"?>
<!DOCTYPE svg PUBLIC "-//W3C//DTD SVG 1.1//EN" "http://www.w3.org/Graphics/SVG/1.1/DTD/svg11.dtd">
<!-- Created with Vectornator (http://vectornator.io/) -->
<svg height="100%" stroke-miterlimit="10" style="fill-rule:nonzero;clip-rule:evenodd;stroke-linecap:round;stroke-linejoin:round;" version="1.1" viewBox="0 0 57 57" width="100%" xml:space="preserve" xmlns="http://www.w3.org/2000/svg" xmlns:vectornator="http://vectornator.io" xmlns:xlink="http://www.w3.org/1999/xlink">
<defs/>
<g id="Layer-1" vectornator:layerName="Layer 1">
<path d="M23.4107 6C23.4107 10 20.6964 12.8333 15.2679 14.5C12.5536 15.3333 9.83929 16.1667 7.125 17C8.14286 18 9.16071 19 10.1786 20C11.1964 21 12.2143 22 13.2321 23C14.25 21.8333 15.2679 20.6667 16.2857 19.5C18.3214 17.1667 20.0179 15.8333 21.375 15.5C22.0536 15.3333 22.7321 15.1667 23.4107 15C23.2411 16.6667 23.0714 18.3333 22.9018 20C22.5625 23.3333 19.1696 25.8333 12.7232 27.5C9.5 28.3333 6.27679 29.1667 3.05357 30C3.22321 30.6667 3.39286 31.3333 3.5625 32C3.73214 32.6667 3.90179 33.3333 4.07143 34C6.27679 33.3333 8.48214 32.6667 10.6875 32C15.0982 30.6667 17.8125 30 18.8304 30C19.3393 30 19.8482 30 20.3571 30C20.3571 30.3333 20.3571 30.6667 20.3571 31C20.3571 31.6667 19 34.1667 16.2857 38.5C13.5714 42.8333 10.1786 46.3333 6.10714 49C2.03571 51.6667 1.77636e-15 53.3333 1.77636e-15 54C1.77636e-15 54.3333 1.77636e-15 54.6667 1.77636e-15 55C1.1875 55 2.375 55 3.5625 55C5.9375 55 7.97321 54.5 9.66964 53.5C11.3661 52.5 12.2143 51.5 12.2143 50.5C12.2143 49.5 14.25 46.6667 18.3214 42C22.3929 37.3333 24.5982 33.8333 24.9375 31.5C25.2768 29.1667 29.0089 27.8333 36.1339 27.5C39.6964 27.3333 43.2589 27.1667 46.8214 27C46.4821 25.8333 46.1429 24.6667 45.8036 23.5C45.125 21.1667 41.9018 20.3333 36.1339 21C33.25 21.3333 30.3661 21.6667 27.4821 22C30.0268 19.5 32.5714 17 35.1161 14.5C37.6607 12 40.2054 9.5 42.75 7C42.0714 6.66667 41.3929 6.33333 40.7143 6C39.3571 5.33333 37.4911 6.66667 35.1161 10C32.7411 13.3333 31.0446 15.1667 30.0268 15.5C29.5179 15.6667 29.0089 15.8333 28.5 16C28.6696 13.5 28.8393 11 29.0089 8.5C29.3482 3.5 28.5 0.833333 26.4643 0.5C25.4464 0.333333 24.4286 0.166667 23.4107 0C23.4107 2 23.4107 4 23.4107 6ZM27.4821 40C26.8036 46 27.3125 50.3333 29.0089 53C30.7054 55.6667 35.7946 57 44.2768 57C48.5179 57 52.7589 57 57 57C56.8304 55.1667 56.6607 53.3333 56.4911 51.5C56.1518 47.8333 55.3036 44.3333 53.9464 41C53.2679 39.3333 52.5893 37.6667 51.9107 36C51.7411 38.1667 51.5714 40.3333 51.4018 42.5C51.0625 46.8333 49.875 49.5 47.8393 50.5C45.8036 51.5 43.5982 52 41.2232 52C38.8482 52 36.3036 51.1667 33.5893 49.5C30.875 47.8333 30.0268 44.5 31.0446 39.5C32.0625 34.5 31.8929 31.8333 30.5357 31.5C29.8571 31.3333 29.1786 31.1667 28.5 31C28.1607 34 27.8214 37 27.4821 40Z" fill="#000000" fill-rule="nonzero" opacity="1" stroke="none"/>
</g>
</svg>
