<svg xmlns="http://www.w3.org/2000/svg" xmlns:xlink="http://www.w3.org/1999/xlink" viewBox="0 0 59 65" fill="#fff" fill-rule="evenodd" stroke="#000" stroke-linecap="round" stroke-linejoin="round"><use xlink:href="#A" x=".5" y=".5"/><symbol id="A" overflow="visible"><g stroke="none" fill-rule="nonzero"><path d="M26.302 58.925L5.084 46.009V26.637l8.754 5.304v5.074c-1.384.923-2.306 2.537-2.306 4.382 0 2.768 2.306 5.305 5.305 5.305 2.768 0 5.305-2.306 5.305-5.305 0-1.845-.923-3.46-2.306-4.382v-6.688c.018-.97-.52-1.865-1.384-2.306l-14.3-8.764c-.923-.46-1.845-.46-2.768 0S0 20.641 0 21.794v25.83c-.018.97.52 1.865 1.384 2.306l22.37 13.607c.46.23.923.46 1.384.46.97.018 1.865-.52 2.306-1.384.46-1.153 0-2.768-1.153-3.7z" fill="#6f2fef"/><path d="M33.221 29.404l19.834-11.07c.923-.46 1.384-1.384 1.384-2.537 0-.923-.46-1.845-1.384-2.537L29.992.345c-.923-.46-1.845-.46-2.768 0L4.623 13.029c-1.384.692-1.845 2.537-1.153 3.92s2.537 1.845 3.92 1.153L28.608 6.111l17.297 9.686-15.683 8.764c-.692-.23-1.384-.46-2.306-.46-2.768 0-5.305 2.306-5.305 5.305 0 2.768 2.306 5.305 5.305 5.305 2.81-.273 5.03-2.496 5.305-5.305z" fill="#31e5ce"/><path d="M54.67 19.949c-1.614 0-2.768 1.153-2.768 2.768v23.522l-16.604 10.15v-8.995l3.46-2.076c.692.23 1.384.46 2.306.46 2.768 0 5.305-2.306 5.305-5.305 0-2.768-2.306-5.305-5.305-5.305a5.12 5.12 0 0 0-5.074 5.074l-4.613 2.768c-.864.44-1.402 1.336-1.384 2.306v15.683c0 .923.46 1.845 1.384 2.537.46.23.923.46 1.384.46s.923-.23 1.384-.46l22.14-13.607c.864-.44 1.402-1.336 1.384-2.306V22.716c-.23-1.614-1.384-2.768-2.998-2.768z" fill="#016afc"/></g></symbol></svg>