<?xml version="1.0" encoding="UTF-8" standalone="no"?>
<!DOCTYPE svg PUBLIC "-//W3C//DTD SVG 1.1//EN" "http://www.w3.org/Graphics/SVG/1.1/DTD/svg11.dtd">
<!-- Created with Vectornator (http://vectornator.io/) -->
<svg height="100%" stroke-miterlimit="10" style="fill-rule:nonzero;clip-rule:evenodd;stroke-linecap:round;stroke-linejoin:round;" version="1.1" viewBox="0 0 56 56" width="100%" xml:space="preserve" xmlns="http://www.w3.org/2000/svg" xmlns:vectornator="http://vectornator.io" xmlns:xlink="http://www.w3.org/1999/xlink">
<defs/>
<g id="Untitled" vectornator:layerName="Untitled">
<g opacity="1" vectornator:layerName="g">
<path d="M36.985 0L7.963 0C7.155 0 6.5 0.655 6.5 1.926L6.5 55C6.5 55.345 7.155 56 7.963 56L48.037 56C48.845 56 49.5 55.345 49.5 55L49.5 12.978C49.5 12.282 49.407 12.058 49.243 11.893L37.607 0.257C37.442 0.093 37.218 0 36.985 0Z" fill="#e9e9e0" fill-rule="nonzero" opacity="1" stroke="none" vectornator:layerName="path"/>
<path d="M37.5 0.151L37.5 12L49.349 12L37.5 0.151Z" fill="#d9d7ca" fill-rule="nonzero" opacity="1" stroke="none" vectornator:layerName="polygon"/>
<path d="M48.037 56L7.963 56C7.155 56 6.5 55.345 6.5 54.537L6.5 39L49.5 39L49.5 54.537C49.5 55.345 48.845 56 48.037 56Z" fill="#95a5a5" fill-rule="nonzero" opacity="1" stroke="none" vectornator:layerName="path"/>
<g opacity="0" vectornator:layerName="g">
<path d="M21.867 42.924L21.867 44.045L18.859 44.045L18.859 53L17.205 53L17.205 44.045L14.197 44.045L14.197 42.924L21.867 42.924Z" fill="#ffffff" fill-rule="nonzero" opacity="1" stroke="none" vectornator:layerName="path"/>
<path d="M28.443 48.105L31 53L29.1 53L27.5 49.199L27.363 49.199L25.641 53L23.741 53L26.298 48.105L23.577 42.923L25.45 42.923L27.227 47.025L27.364 47.025L29.292 42.923L31.165 42.923L28.443 48.105Z" fill="#ffffff" fill-rule="nonzero" opacity="1" stroke="none" vectornator:layerName="path"/>
<path d="M40.529 42.924L40.529 44.045L37.521 44.045L37.521 53L35.867 53L35.867 44.045L32.859 44.045L32.859 42.924L40.529 42.924Z" fill="#ffffff" fill-rule="nonzero" opacity="1" stroke="none" vectornator:layerName="path"/>
</g>
<path d="M18.5 13L12.5 13C11.947 13 11.5 12.552 11.5 12C11.5 11.448 11.947 11 12.5 11L18.5 11C19.053 11 19.5 11.448 19.5 12C19.5 12.552 19.053 13 18.5 13Z" fill="#c8bdb8" fill-rule="nonzero" opacity="1" stroke="none" vectornator:layerName="path"/>
<path d="M21.5 18L12.5 18C11.947 18 11.5 17.552 11.5 17C11.5 16.448 11.947 16 12.5 16L21.5 16C22.053 16 22.5 16.448 22.5 17C22.5 17.552 22.053 18 21.5 18Z" fill="#c8bdb8" fill-rule="nonzero" opacity="1" stroke="none" vectornator:layerName="path"/>
<path d="M25.5 18C25.24 18 24.979 17.89 24.79 17.71C24.609 17.52 24.5 17.27 24.5 17C24.5 16.73 24.609 16.48 24.8 16.29C25.16 15.92 25.84 15.92 26.21 16.29C26.39 16.48 26.5 16.74 26.5 17C26.5 17.26 26.39 17.52 26.21 17.71C26.02 17.89 25.76 18 25.5 18Z" fill="#c8bdb8" fill-rule="nonzero" opacity="1" stroke="none" vectornator:layerName="path"/>
<path d="M37.5 18L29.5 18C28.947 18 28.5 17.552 28.5 17C28.5 16.448 28.947 16 29.5 16L37.5 16C38.053 16 38.5 16.448 38.5 17C38.5 17.552 38.053 18 37.5 18Z" fill="#c8bdb8" fill-rule="nonzero" opacity="1" stroke="none" vectornator:layerName="path"/>
<path d="M12.5 33C12.24 33 11.979 32.89 11.79 32.71C11.609 32.52 11.5 32.26 11.5 32C11.5 31.74 11.609 31.48 11.79 31.29C12.16 30.92 12.84 30.92 13.21 31.3C13.39 31.48 13.5 31.74 13.5 32C13.5 32.26 13.39 32.52 13.21 32.71C13.02 32.89 12.76 33 12.5 33Z" fill="#c8bdb8" fill-rule="nonzero" opacity="1" stroke="none" vectornator:layerName="path"/>
<path d="M24.5 33L16.5 33C15.947 33 15.5 32.552 15.5 32C15.5 31.448 15.947 31 16.5 31L24.5 31C25.053 31 25.5 31.448 25.5 32C25.5 32.552 25.053 33 24.5 33Z" fill="#c8bdb8" fill-rule="nonzero" opacity="1" stroke="none" vectornator:layerName="path"/>
<path d="M43.5 18L41.5 18C40.947 18 40.5 17.552 40.5 17C40.5 16.448 40.947 16 41.5 16L43.5 16C44.053 16 44.5 16.448 44.5 17C44.5 17.552 44.053 18 43.5 18Z" fill="#c8bdb8" fill-rule="nonzero" opacity="1" stroke="none" vectornator:layerName="path"/>
<path d="M34.5 23L12.5 23C11.947 23 11.5 22.552 11.5 22C11.5 21.448 11.947 21 12.5 21L34.5 21C35.053 21 35.5 21.448 35.5 22C35.5 22.552 35.053 23 34.5 23Z" fill="#c8bdb8" fill-rule="nonzero" opacity="1" stroke="none" vectornator:layerName="path"/>
<path d="M43.5 23L37.5 23C36.947 23 36.5 22.552 36.5 22C36.5 21.448 36.947 21 37.5 21L43.5 21C44.053 21 44.5 21.448 44.5 22C44.5 22.552 44.053 23 43.5 23Z" fill="#c8bdb8" fill-rule="nonzero" opacity="1" stroke="none" vectornator:layerName="path"/>
<path d="M16.5 28L12.5 28C11.947 28 11.5 27.552 11.5 27C11.5 26.448 11.947 26 12.5 26L16.5 26C17.053 26 17.5 26.448 17.5 27C17.5 27.552 17.053 28 16.5 28Z" fill="#c8bdb8" fill-rule="nonzero" opacity="1" stroke="none" vectornator:layerName="path"/>
<path d="M30.5 28L20.5 28C19.947 28 19.5 27.552 19.5 27C19.5 26.448 19.947 26 20.5 26L30.5 26C31.053 26 31.5 26.448 31.5 27C31.5 27.552 31.053 28 30.5 28Z" fill="#c8bdb8" fill-rule="nonzero" opacity="1" stroke="none" vectornator:layerName="path"/>
<path d="M43.5 28L34.5 28C33.947 28 33.5 27.552 33.5 27C33.5 26.448 33.947 26 34.5 26L43.5 26C44.053 26 44.5 26.448 44.5 27C44.5 27.552 44.053 28 43.5 28Z" fill="#c8bdb8" fill-rule="nonzero" opacity="1" stroke="none" vectornator:layerName="path"/>
</g>
<g fill="#ffffff" opacity="1" stroke="none">
<path d="M17.4192 42.8477L18.7932 42.8477L18.7932 52.8897L17.4192 52.8897L17.4192 42.8477Z"/>
<path d="M23.0012 42.8477L24.6077 42.8477L29.68 50.9824L29.68 42.8477L30.9719 42.8477L30.9719 52.8897L29.4475 52.8897L24.3001 44.7617L24.3001 52.8897L23.0012 52.8897L23.0012 42.8477Z"/>
<path d="M35.4192 42.8477L36.7932 42.8477L36.7932 52.8897L35.4192 52.8897L35.4192 42.8477Z"/>
</g>
</g>
</svg>
