<?xml version="1.0" encoding="UTF-8" standalone="no"?>
<!DOCTYPE svg PUBLIC "-//W3C//DTD SVG 1.1//EN" "http://www.w3.org/Graphics/SVG/1.1/DTD/svg11.dtd">
<!-- Created with Vectornator (http://vectornator.io/) -->
<svg height="100%" stroke-miterlimit="10" style="fill-rule:nonzero;clip-rule:evenodd;stroke-linecap:round;stroke-linejoin:round;" version="1.1" viewBox="0 0 100 100" width="100%" xml:space="preserve" xmlns="http://www.w3.org/2000/svg" xmlns:vectornator="http://vectornator.io" xmlns:xlink="http://www.w3.org/1999/xlink">
<defs/>
<g id="Layer-1" vectornator:layerName="Layer 1">
<path d="M39.9935 50.1672C39.9935 44.6712 44.4488 40.2158 49.9448 40.2158C55.4408 40.2158 59.8961 44.6712 59.8961 50.1672C59.8961 55.6631 55.4408 60.1185 49.9448 60.1185C44.4488 60.1185 39.9935 55.6631 39.9935 50.1672Z" fill="#6db33f" fill-rule="nonzero" opacity="1" stroke="none"/>
<path d="M49.7188 22.1875C25.9705 22.1875 6.71875 34.7235 6.71875 50.1875C6.71875 65.6515 25.9705 78.1875 49.7188 78.1875C73.467 78.1875 92.7188 65.6515 92.7188 50.1875C92.7187 34.7235 73.467 22.1875 49.7188 22.1875ZM49.7188 25.1875C71.8101 25.1875 89.7187 36.3804 89.7188 50.1875C89.7187 63.9946 71.8102 75.1875 49.7188 75.1875C27.6274 75.1875 9.71875 63.9946 9.71875 50.1875C9.71875 36.3804 27.6274 25.1875 49.7188 25.1875Z" fill="#6db33f" fill-rule="nonzero" opacity="1" stroke="none"/>
<path d="M73.9675 36.1875C62.0933 15.6209 41.6109 5.21642 28.2187 12.9484C14.8266 20.6804 13.5959 43.6209 25.47 64.1875C37.3442 84.7541 57.8266 95.1586 71.2188 87.4266C84.6109 79.6946 85.8416 56.7541 73.9675 36.1875ZM71.3694 37.6875C82.4151 56.8192 81.6761 77.9249 69.7188 84.8285C57.7614 91.7321 39.1138 81.8192 28.0681 62.6875C17.0224 43.5558 17.7614 22.45 29.7187 15.5465C41.6761 8.64292 60.3237 18.5558 71.3694 37.6875Z" fill="#6db33f" fill-rule="nonzero" opacity="1" stroke="none"/>
<path d="M73.9675 64.1875C85.8416 43.6209 84.6109 20.6804 71.2187 12.9484C57.8266 5.21642 37.3442 15.6209 25.47 36.1875C13.5959 56.7541 14.8266 79.6946 28.2188 87.4266C41.6109 95.1586 62.0933 84.7541 73.9675 64.1875ZM71.3694 62.6875C60.3237 81.8192 41.6761 91.7321 29.7188 84.8285C17.7614 77.925 17.0224 56.8192 28.0681 37.6875C39.1138 18.5558 57.7614 8.64293 69.7187 15.5465C81.6761 22.45 82.4151 43.5558 71.3694 62.6875Z" fill="#6db33f" fill-rule="nonzero" opacity="1" stroke="none"/>
</g>
</svg>
