<?xml version="1.0" encoding="UTF-8" standalone="no"?>
<!DOCTYPE svg PUBLIC "-//W3C//DTD SVG 1.1//EN" "http://www.w3.org/Graphics/SVG/1.1/DTD/svg11.dtd">
<!-- Created with Vectornator (http://vectornator.io/) -->
<svg height="2500.0pt" stroke-miterlimit="10" style="fill-rule:nonzero;clip-rule:evenodd;stroke-linecap:round;stroke-linejoin:round;" version="1.1" viewBox="0 0 2500 2500" width="2500.0pt" xml:space="preserve" xmlns="http://www.w3.org/2000/svg" xmlns:xlink="http://www.w3.org/1999/xlink">
<defs/>
<g id="Untitled">
<g opacity="1">
<path d="M0 0L2500 0L2500 2500L0 2500L0 0Z" fill="#ffffff" fill-rule="evenodd" opacity="0" stroke="none"/>
<path d="M1439.72 1002.87C1443.29 999.294 1445.67 996.921 1446.87 994.535L1473.08 894.46C1477.84 876.587 1486.18 857.522 1486.18 837.263C1486.18 831.323 1481.42 826.55 1476.66 821.777C1419.49 791.999 1386.13 788.432 1334.87 787.226C1202.63 784.839 1108.51 877.768 1107.33 977.842C1104.95 1098.18 1203.83 1170.85 1253.88 1257.82C1272.94 1289.97 1284.85 1322.15 1283.66 1360.27C1283.66 1399.58 1253.88 1502.04 1150.21 1499.66C1097.8 1498.46 1047.76 1462.72 1048.96 1373.37L1048.96 1309.04C1047.76 1303.09 1047.76 1297.13 1043.02 1292.37C1040.6 1288.79 1033.47 1286.41 1028.71 1288.79C1019.19 1293.57 1016.79 1304.28 1013.22 1313.82C1007.26 1341.22 1001.29 1369.81 995.365 1397.21C994.171 1399.61 997.738 1399.61 995.365 1399.61C991.772 1419.87 988.192 1441.3 986.999 1461.55C985.806 1473.47 994.171 1484.18 1004.86 1491.34C1049.9 1514.47 1099.59 1527.1 1150.21 1528.28C1284.84 1530.67 1394.46 1412.71 1396.83 1297.16C1396.83 1282.85 1395.64 1269.75 1394.44 1257.85C1382.54 1187.55 1337.25 1141.08 1289.6 1082.7C1261 1045.77 1202.62 995.728 1205.02 930.205C1205.02 876.587 1249.09 818.224 1328.92 818.224C1434.96 820.597 1418.3 934.964 1419.48 986.208C1419.48 992.161 1419.48 996.934 1424.24 999.307C1429.01 1004.07 1434.96 1005.26 1439.72 1002.87Z" fill="#000000" fill-rule="evenodd" opacity="1" stroke="none"/>
<path d="M1946.05 1312.63C1932.95 1312.63 1928.19 1332.89 1915.09 1356.7C1888.88 1397.21 1847.18 1450.82 1826.91 1450.82C1819.76 1450.82 1819.76 1442.48 1819.76 1435.34C1819.76 1412.71 1842.41 1338.86 1868.61 1259.03C1905.54 1145.84 1949.64 1021.94 1949.64 1015.97C1949.64 1007.63 1948.45 1002.87 1936.54 1002.87C1927 1002.87 1913.9 1001.68 1894.82 1001.68C1859.07 1001.68 1856.7 1006.44 1854.31 1013.59C1836.43 1045.75 1811.42 1151.79 1760.18 1243.53C1757.79 1248.29 1754.23 1253.05 1751.84 1257.83C1683.93 1371.02 1596.97 1459.16 1558.84 1459.16C1544.54 1459.16 1536.19 1448.44 1536.19 1432.95C1536.19 1407.95 1563.6 1335.28 1593.39 1257.83C1627.94 1168.47 1664.9 1073.16 1664.9 1036.23C1664.9 1020.75 1656.54 988.581 1618.42 988.581C1514.79 988.581 1427.8 1156.57 1427.8 1175.63C1427.8 1181.58 1431.37 1186.36 1438.52 1186.36C1451.61 1186.36 1459.97 1158.95 1493.34 1113.67C1512.39 1085.08 1537.41 1062.44 1549.32 1062.44C1558.84 1062.44 1560.03 1069.59 1560.03 1075.56C1560.03 1092.24 1526.67 1172.05 1494.52 1257.85C1465.92 1334.1 1439.7 1415.09 1439.7 1462.76C1439.7 1493.74 1451.6 1523.53 1490.94 1523.53C1585.05 1523.53 1686.29 1405.59 1757.78 1299.54C1761.35 1295.98 1763.76 1295.98 1762.54 1301.93C1747.07 1344.82 1726.79 1428.2 1726.79 1479.45C1726.79 1500.89 1730.39 1525.92 1764.91 1525.92C1847.14 1525.92 1955.56 1362.69 1955.56 1324.58C1955.59 1318.6 1953.22 1312.63 1946.05 1312.63ZM2484.57 1320.98C2482.27 1316.53 2477.65 1313.76 2472.63 1313.84C2469.07 1313.84 2465.49 1317.4 2464.29 1320.98C2441.65 1360.29 2392.8 1446.09 2359.45 1448.45C2353.49 1448.45 2349.93 1442.5 2349.93 1436.53C2349.93 1416.29 2382.09 1338.86 2413.08 1257.85C2441.65 1183.98 2469.05 1106.53 2469.05 1066.02C2469.05 1010.02 2438.07 989.775 2401.14 989.775C2297.52 989.775 2187.91 1154.19 2150.97 1208.99C2148.56 1213.75 2147.4 1212.56 2148.56 1207.8C2166.44 1142.27 2187.9 1083.9 2187.9 1039.81C2187.9 1013.6 2175.96 986.195 2141.41 986.195C2068.76 986.195 1963.91 1129.16 1963.91 1164.91C1963.91 1172.05 1966.29 1176.81 1971.05 1176.81C1984.15 1176.81 1994.89 1152.99 2013.95 1126.77C2037.78 1097 2067.58 1058.86 2086.63 1058.86C2089.01 1058.86 2092.58 1061.25 2092.58 1071.96C2092.58 1094.61 2068.77 1172.04 2040.17 1257.83C2012.76 1341.23 1981.78 1432.95 1962.73 1493.73C1957.97 1508.02 1967.49 1511.6 2007.99 1511.6C2036.59 1511.6 2049.69 1515.17 2055.64 1492.53C2075.9 1417.48 2114.03 1332.89 2156.92 1257.83C2160.49 1249.48 2165.26 1242.35 2170.02 1234.01C2214.09 1156.57 2307.04 1045.77 2359.45 1045.77C2371.38 1045.77 2378.53 1055.3 2378.53 1073.17C2378.53 1099.38 2345.17 1175.63 2311.8 1257.85C2278.44 1340.05 2243.89 1428.2 2246.26 1477.05C2247.45 1504.44 2256.97 1524.71 2292.72 1524.71C2373.75 1524.71 2444.02 1412.71 2477.38 1353.15C2483.39 1343.62 2491.71 1332.9 2484.57 1320.98ZM155.417 1220.91C125.638 1251.88 75.5878 1251.88 44.616 1220.91C17.2109 1189.92 17.2109 1139.89 44.616 1110.11L226.906 927.818L274.557 976.675L92.2669 1160.15L105.379 1173.24L288.85 989.775L337.707 1038.63L155.417 1220.91ZM297.202 1107.72C328.174 1076.75 377.018 1076.75 407.99 1107.72C438.975 1138.69 438.975 1188.74 407.99 1218.52L226.906 1400.8L178.062 1351.96L360.339 1168.49L347.24 1155.37L163.769 1337.66L116.118 1290L297.202 1107.72ZM533.083 1485.38C564.068 1515.17 564.068 1565.2 533.083 1594.98C502.111 1624.77 452.074 1624.77 422.296 1594.98L240.018 1413.89L288.863 1365.05L472.333 1548.53L485.432 1534.22L301.962 1351.94L350.806 1303.09C350.806 1303.09 533.083 1485.38 533.083 1485.38ZM419.909 1343.62C388.924 1312.63 388.924 1262.61 419.909 1232.82C450.881 1201.84 499.725 1201.84 530.697 1232.82L712.987 1413.9L664.143 1462.76L480.672 1279.29L467.573 1293.59L649.85 1475.87L602.186 1524.73C602.186 1524.73 419.909 1343.62 419.909 1343.62ZM655.79 1220.91C624.818 1251.88 574.794 1251.88 544.99 1220.91C514.005 1189.92 514.005 1139.89 544.99 1110.11L726.073 927.818L774.93 976.675L591.46 1160.15L605.766 1173.24L789.236 989.775L836.887 1038.63C836.887 1038.63 655.79 1220.91 655.79 1220.91ZM797.589 1107.72C827.354 1076.75 877.392 1076.75 908.376 1107.72C939.361 1138.69 939.361 1187.55 908.376 1218.52L726.086 1400.8L677.242 1351.96L860.713 1168.49L847.626 1155.37L664.143 1337.66L615.286 1290L797.589 1107.72ZM533.083 985.002C564.068 1015.97 564.068 1064.82 533.083 1095.8C502.111 1126.77 452.074 1126.77 422.296 1095.8L240.005 914.706L288.85 865.862L472.32 1048.14L485.419 1035.03L301.962 851.582L350.806 802.725C350.806 802.725 533.083 985.002 533.083 985.002ZM419.909 843.242C388.924 813.451 388.924 763.413 419.909 732.442C450.881 701.457 499.725 701.457 530.697 732.442L712.987 914.719L664.143 962.37L480.672 780.092L467.573 793.192L649.85 976.662L602.186 1025.51L419.909 843.242ZM1172.86 1736.77L1172.86 1666.47C1172.86 1650.99 1168.11 1641.45 1153.79 1641.45C1137.11 1641.45 1121.63 1658.13 1121.63 1684.34L1121.63 1736.77L1101.37 1736.77L1101.37 1666.47C1101.37 1652.17 1098.98 1641.45 1083.49 1641.45C1065.62 1641.45 1051.33 1659.33 1051.33 1684.34L1051.33 1736.77L1031.07 1736.77L1031.07 1627.16L1051.33 1627.16C1051.33 1633.13 1050.14 1642.65 1048.94 1649.79C1056.09 1634.31 1070.41 1624.77 1089.45 1624.77C1113.27 1624.77 1119.25 1640.26 1120.42 1649.79C1125.19 1639.08 1137.1 1624.77 1158.55 1624.77C1179.99 1624.77 1193.11 1635.5 1193.11 1660.52L1193.11 1736.77L1172.86 1736.77ZM1346.81 1737.96C1320.59 1737.96 1297.94 1726.04 1297.94 1685.54C1297.94 1649.79 1317.01 1624.77 1353.94 1624.77C1362.28 1624.77 1371.8 1625.97 1378.95 1628.34L1376.56 1646.21C1369.41 1643.83 1361.09 1641.45 1352.75 1641.45C1331.29 1641.45 1319.39 1658.13 1319.39 1683.15C1319.39 1704.59 1327.73 1721.27 1351.55 1721.27C1361.07 1721.27 1370.61 1718.88 1377.75 1715.32L1380.14 1733.19C1369.3 1736.29 1358.08 1737.9 1346.81 1737.96ZM1467.13 1643.84C1442.12 1640.27 1431.38 1656.95 1431.38 1692.7L1431.38 1736.77L1411.12 1736.77L1411.12 1627.16L1430.2 1627.16C1430.2 1633.13 1430.2 1643.84 1427.82 1653.37L1429.01 1653.37C1433.77 1637.9 1444.48 1622.4 1467.13 1624.79L1467.13 1643.84ZM1540.99 1624.77C1506.44 1624.77 1484.99 1649.79 1484.99 1681.96L1484.99 1683.15C1484.99 1721.27 1505.24 1739.14 1536.2 1739.14C1568.37 1739.14 1591.03 1714.12 1592.21 1681.96L1592.21 1679.57C1592.22 1640.27 1569.58 1624.77 1540.99 1624.77ZM1538.62 1722.48C1518.36 1722.48 1506.45 1707 1506.45 1681.97L1506.45 1680.78C1506.45 1653.37 1521.92 1641.47 1538.62 1641.47C1560.04 1641.47 1570.78 1655.77 1570.78 1680.78L1570.78 1681.97C1570.78 1709.38 1555.28 1722.48 1538.62 1722.48ZM1644.63 1739.15C1636.29 1739.15 1627.96 1737.96 1620.82 1736.77L1622.01 1718.9C1629.16 1721.28 1637.48 1722.46 1647.02 1722.46C1661.34 1722.46 1672.05 1716.51 1672.05 1705.78C1672.05 1681.96 1619.64 1696.26 1619.64 1658.13C1619.64 1639.07 1635.11 1624.77 1664.93 1624.77C1670.86 1624.77 1679.2 1625.97 1686.33 1627.16L1686.33 1643.84C1678.63 1641.4 1670.59 1640.2 1662.52 1640.27C1648.2 1640.27 1639.9 1646.23 1639.9 1655.76C1639.9 1679.58 1693.5 1666.47 1693.5 1703.41C1693.49 1723.66 1675.6 1739.15 1644.63 1739.15ZM1767.36 1747.48C1754.24 1782.03 1743.53 1792.76 1718.49 1792.76C1713.76 1792.76 1707.78 1792.76 1703.02 1791.57L1705.41 1773.69C1710.17 1774.89 1714.93 1776.08 1719.7 1776.08C1732.83 1776.08 1738.8 1770.13 1747.11 1748.69L1751.87 1736.77L1708.97 1627.16L1732.81 1627.16L1754.24 1684.34C1757.81 1693.88 1760.19 1702.22 1762.58 1710.56C1764.96 1703.41 1769.75 1689.12 1774.51 1677.21L1792.37 1627.17L1815.01 1627.17C1815.01 1627.17 1767.36 1747.48 1767.36 1747.48ZM1856.7 1739.15C1848.36 1739.15 1840.03 1737.96 1832.86 1736.77L1834.05 1718.9C1840.03 1721.28 1849.55 1722.46 1857.89 1722.46C1873.37 1722.46 1884.1 1716.51 1884.1 1705.78C1884.1 1681.96 1830.47 1696.26 1830.47 1658.13C1830.47 1639.07 1847.17 1624.77 1876.96 1624.77C1882.91 1624.77 1891.25 1625.97 1898.38 1627.16L1897.19 1643.84C1889.9 1641.4 1882.26 1640.2 1874.57 1640.27C1860.25 1640.27 1851.93 1646.23 1851.93 1655.76C1851.93 1679.58 1905.53 1666.47 1905.53 1703.41C1905.54 1723.66 1886.49 1739.15 1856.7 1739.15ZM1973.45 1739.15C1950.83 1739.15 1943.66 1729.63 1943.66 1705.8L1943.66 1642.66L1919.85 1642.66L1919.85 1627.17L1943.66 1627.17L1943.66 1591.43L1963.92 1585.48L1963.92 1627.17L1996.09 1627.17L1996.09 1642.66L1963.92 1642.66L1963.92 1698.65C1963.92 1716.52 1967.49 1721.28 1980.59 1721.28C1985.37 1721.28 1991.33 1720.09 1996.09 1720.09L1996.09 1736.77C1988.97 1737.96 1980.6 1739.15 1973.45 1739.15ZM2114.05 1671.23C2114.05 1664.09 2112.85 1658.13 2111.66 1652.17C2105.71 1636.69 2092.58 1624.77 2068.77 1624.77C2047.32 1624.77 2033.02 1635.5 2024.67 1652.17C2020.76 1661.61 2018.74 1671.73 2018.72 1681.96C2018.72 1721.27 2037.8 1739.14 2072.35 1739.14C2086.64 1739.14 2099.73 1736.76 2110.47 1732L2108.05 1715.32C2099.71 1720.08 2086.63 1722.46 2075.9 1722.46C2050.87 1722.46 2038.96 1710.54 2040.16 1680.76L2114.02 1680.76C2114.05 1677.2 2114.05 1673.62 2114.05 1671.23ZM2040.18 1666.47C2041.38 1661.71 2042.57 1656.95 2044.94 1652.17C2049.7 1643.83 2058.04 1639.07 2068.78 1639.07C2079.49 1639.07 2086.64 1643.83 2091.4 1652.17C2092.59 1656.94 2093.79 1661.7 2093.79 1666.47C2093.79 1666.47 2040.18 1666.47 2040.18 1666.47ZM2286.78 1736.77L2286.78 1666.47C2286.78 1650.99 2283.21 1641.45 2267.72 1641.45C2252.23 1641.45 2236.74 1658.13 2236.74 1684.34L2236.74 1736.77L2215.29 1736.77L2215.29 1666.47C2215.29 1652.17 2212.9 1641.45 2197.43 1641.45C2179.54 1641.45 2165.26 1659.33 2165.26 1684.34L2165.26 1736.77L2145 1736.77L2145 1627.16L2165.26 1627.16C2165.26 1633.13 2164.07 1642.65 2162.88 1649.79L2164.07 1649.79C2170.02 1634.31 2184.32 1624.77 2203.38 1624.77C2227.22 1624.77 2233.17 1640.26 2234.37 1649.79C2239.13 1639.08 2251.03 1624.77 2273.68 1624.77C2295.13 1624.77 2307.04 1635.5 2307.04 1660.52L2307.04 1736.77C2307.04 1736.77 2286.78 1736.77 2286.78 1736.77ZM2363.03 1739.15C2354.69 1739.15 2346.36 1737.96 2339.21 1736.77L2340.41 1718.9C2347.55 1721.28 2355.88 1722.46 2365.41 1722.46C2379.73 1722.46 2390.44 1716.51 2390.44 1705.78C2390.44 1681.96 2338.01 1696.26 2338.01 1658.13C2338.01 1639.07 2353.51 1624.77 2383.32 1624.77C2389.25 1624.77 2397.59 1625.97 2404.72 1627.16L2404.72 1643.84C2397.02 1641.4 2388.99 1640.2 2380.91 1640.27C2366.59 1640.27 2358.27 1646.23 2358.27 1655.76C2358.27 1679.58 2411.9 1666.47 2411.9 1703.41C2411.9 1723.66 2394.01 1739.15 2363.03 1739.15ZM1250.29 1608.1C1258.62 1608.1 1264.58 1602.14 1264.58 1594.98C1264.58 1587.84 1258.62 1583.08 1250.29 1583.08C1243.15 1583.08 1237.19 1587.84 1237.19 1594.98C1237.19 1603.34 1243.16 1608.1 1250.29 1608.1ZM1224.09 1625.97L1224.09 1641.47L1240.77 1641.47L1240.77 1736.77L1261.01 1736.77L1261.01 1627.16C1261.01 1627.16 1224.09 1625.97 1224.09 1625.97Z" fill="#000000" fill-rule="evenodd" opacity="1" stroke="none"/>
</g>
</g>
</svg>
