<?xml version="1.0" encoding="UTF-8" standalone="no"?>
<!DOCTYPE svg PUBLIC "-//W3C//DTD SVG 1.1//EN" "http://www.w3.org/Graphics/SVG/1.1/DTD/svg11.dtd">
<!-- Created with Vectornator (http://vectornator.io/) -->
<svg height="100.0pt" stroke-miterlimit="10" style="fill-rule:nonzero;clip-rule:evenodd;stroke-linecap:round;stroke-linejoin:round;" version="1.1" viewBox="0 0 100 100" width="100.0pt" xml:space="preserve" xmlns="http://www.w3.org/2000/svg" xmlns:xlink="http://www.w3.org/1999/xlink">
<defs/>
<g id="Layer-1">
<g fill="#0c3270" opacity="1" stroke="none">
<path d="M10.724 41C11.444 41.064 12.264 41.1 13.184 41.108C14.104 41.116 14.996 41.12 15.86 41.12C16.692 41.12 17.472 41.108 18.2 41.084C18.928 41.06 19.564 41.032 20.108 41C19.9 41.416 19.772 41.744 19.724 41.984C19.676 42.224 19.668 42.512 19.7 42.848C19.38 42.816 19.076 42.788 18.788 42.764C18.5 42.74 18.156 42.716 17.756 42.692C17.356 42.668 16.88 42.652 16.328 42.644C15.776 42.636 15.076 42.632 14.228 42.632C13.956 43.592 13.712 44.552 13.496 45.512C13.28 46.472 13.108 47.272 12.98 47.912L14.924 47.912C15.34 47.912 15.708 47.912 16.028 47.912C16.364 47.912 16.668 47.904 16.94 47.888C17.212 47.872 17.476 47.856 17.732 47.84C17.988 47.824 18.244 47.808 18.5 47.792C18.276 48.272 18.152 48.64 18.128 48.896C18.104 49.152 18.1 49.408 18.116 49.664C17.284 49.568 16.38 49.508 15.404 49.484C14.428 49.46 13.508 49.448 12.644 49.448C12.42 50.504 12.208 51.564 12.008 52.628C11.808 53.692 11.644 54.76 11.516 55.832L13.436 55.832C13.836 55.832 14.188 55.828 14.492 55.82C14.796 55.812 15.084 55.804 15.356 55.796C15.628 55.788 15.9 55.772 16.172 55.748C16.444 55.724 16.748 55.696 17.084 55.664C16.876 56.144 16.752 56.504 16.712 56.744C16.672 56.984 16.668 57.2 16.7 57.392C15.74 57.36 14.848 57.344 14.024 57.344C13.2 57.344 12.428 57.344 11.708 57.344C10.844 57.344 10.048 57.344 9.32 57.344C8.592 57.344 7.908 57.36 7.268 57.392C7.428 56.928 7.616 56.268 7.832 55.412C8.048 54.556 8.276 53.604 8.516 52.556C8.756 51.508 8.992 50.412 9.224 49.268C9.456 48.124 9.672 47.028 9.872 45.98C10.072 44.932 10.248 43.968 10.4 43.088C10.552 42.208 10.66 41.512 10.724 41Z"/>
<path d="M23.204 52.064C23.5373 52.0773 23.874 52.0873 24.214 52.094C24.554 52.1007 24.8973 52.104 25.244 52.104C25.5507 52.104 25.8607 52.1007 26.174 52.094C26.4873 52.0873 26.7773 52.0773 27.044 52.064C26.964 51.624 26.8873 51.214 26.814 50.834C26.7407 50.454 26.6673 50.0807 26.594 49.714C26.5207 49.3473 26.4373 48.9773 26.344 48.604C26.2507 48.2307 26.144 47.824 26.024 47.384C25.544 48.1573 25.064 48.9307 24.584 49.704C24.104 50.4773 23.644 51.264 23.204 52.064ZM31.204 57.384C31.004 57.3573 30.754 57.344 30.454 57.344C30.154 57.344 29.8373 57.344 29.504 57.344C29.1573 57.344 28.8507 57.344 28.584 57.344C28.3173 57.344 28.0907 57.3573 27.904 57.384C27.864 57.1173 27.8207 56.7773 27.774 56.364C27.7273 55.9507 27.664 55.4773 27.584 54.944C27.5707 54.8773 27.5473 54.764 27.514 54.604C27.4807 54.444 27.4507 54.274 27.424 54.094C27.3973 53.914 27.3707 53.744 27.344 53.584C27.3173 53.424 27.2973 53.3173 27.284 53.264C26.8973 53.2507 26.5073 53.2407 26.114 53.234C25.7207 53.2273 25.264 53.224 24.744 53.224C24.224 53.224 23.8107 53.2273 23.504 53.234C23.1973 53.2407 22.8773 53.2507 22.544 53.264C22.2773 53.704 21.9673 54.254 21.614 54.914C21.2607 55.574 20.8307 56.3973 20.324 57.384C20.124 57.3573 19.8373 57.344 19.464 57.344C19.2773 57.344 19.104 57.344 18.944 57.344C18.784 57.344 18.644 57.3573 18.524 57.384C19.1773 56.3173 19.8373 55.2307 20.504 54.124C21.1707 53.0173 21.8307 51.8973 22.484 50.764C22.964 49.924 23.3773 49.204 23.724 48.604C24.0707 48.004 24.3673 47.4873 24.614 47.054C24.8607 46.6207 25.074 46.2473 25.254 45.934C25.434 45.6207 25.594 45.3373 25.734 45.084C25.874 44.8307 26.004 44.5873 26.124 44.354C26.244 44.1207 26.3773 43.8573 26.524 43.564C26.764 43.6307 27.0173 43.664 27.284 43.664C27.5907 43.664 27.844 43.6307 28.044 43.564C28.0573 43.6573 28.114 43.954 28.214 44.454C28.314 44.954 28.4407 45.5873 28.594 46.354C28.7473 47.1207 28.9273 47.9773 29.134 48.924C29.3407 49.8707 29.5573 50.844 29.784 51.844C30.0107 52.844 30.2473 53.824 30.494 54.784C30.7407 55.744 30.9773 56.6107 31.204 57.384Z"/>
<path d="M45.584 46.564C45.1707 45.884 44.604 45.3973 43.884 45.104C43.164 44.8107 42.404 44.664 41.604 44.664C40.4573 44.664 39.4973 44.914 38.724 45.414C37.9507 45.914 37.3273 46.5407 36.854 47.294C36.3807 48.0473 36.044 48.8607 35.844 49.734C35.644 50.6073 35.544 51.4173 35.544 52.164C35.544 52.7773 35.614 53.3507 35.754 53.884C35.894 54.4173 36.124 54.8807 36.444 55.274C36.764 55.6673 37.1807 55.974 37.694 56.194C38.2073 56.414 38.8307 56.524 39.564 56.524C39.9107 56.524 40.214 56.504 40.474 56.464C40.734 56.424 41.0173 56.3707 41.324 56.304C41.3773 56.1173 41.454 55.854 41.554 55.514C41.654 55.174 41.7607 54.784 41.874 54.344C41.9873 53.904 42.094 53.424 42.194 52.904C42.294 52.384 42.3773 51.8573 42.444 51.324C42.6707 51.3507 42.914 51.374 43.174 51.394C43.434 51.414 43.7173 51.424 44.024 51.424C44.3307 51.424 44.594 51.414 44.814 51.394C45.034 51.374 45.2507 51.3507 45.464 51.324C45.1707 52.284 44.9207 53.2307 44.714 54.164C44.5073 55.0973 44.344 56.044 44.224 57.004C43.8773 57.0973 43.5407 57.1773 43.214 57.244C42.8873 57.3107 42.5507 57.3707 42.204 57.424C41.8573 57.4773 41.4973 57.5207 41.124 57.554C40.7507 57.5873 40.344 57.604 39.904 57.604C38.5307 57.604 37.3707 57.4473 36.424 57.134C35.4773 56.8207 34.714 56.3807 34.134 55.814C33.554 55.2473 33.134 54.584 32.874 53.824C32.614 53.064 32.484 52.2573 32.484 51.404C32.484 50.3907 32.6807 49.4073 33.074 48.454C33.4673 47.5007 34.034 46.6573 34.774 45.924C35.514 45.1907 36.4207 44.6007 37.494 44.154C38.5673 43.7073 39.784 43.484 41.144 43.484C42.144 43.484 43.0807 43.584 43.954 43.784C44.8273 43.984 45.724 44.2973 46.644 44.724C46.4573 45.0973 46.304 45.4107 46.184 45.664C46.064 45.9173 45.944 46.2173 45.824 46.564L45.584 46.564Z"/>
<path d="M50.224 43.724C50.4773 43.7507 50.7507 43.774 51.044 43.794C51.3373 43.814 51.6373 43.824 51.944 43.824C52.2373 43.824 52.5207 43.814 52.794 43.794C53.0673 43.774 53.3173 43.7507 53.544 43.724C53.344 44.404 53.144 45.144 52.944 45.944C52.744 46.744 52.5473 47.554 52.354 48.374C52.1607 49.194 51.9807 50.004 51.814 50.804C51.6473 51.604 51.494 52.344 51.354 53.024C51.214 53.704 51.0973 54.3073 51.004 54.834C50.9107 55.3607 50.844 55.764 50.804 56.044L52.324 56.044C53.004 56.044 53.5873 56.0373 54.074 56.024C54.5607 56.0107 55.044 55.984 55.524 55.944C55.3907 56.224 55.3007 56.4673 55.254 56.674C55.2073 56.8807 55.184 57.1173 55.184 57.384C54.504 57.3573 53.824 57.344 53.144 57.344C52.464 57.344 51.784 57.344 51.104 57.344C50.3707 57.344 49.674 57.344 49.014 57.344C48.354 57.344 47.7907 57.3573 47.324 57.384C47.644 56.3307 47.9507 55.1607 48.244 53.874C48.5373 52.5873 48.8173 51.3173 49.084 50.064C49.3107 49.0107 49.514 47.9607 49.694 46.914C49.874 45.8673 50.0507 44.804 50.224 43.724Z"/>
<path d="M60.084 43.724C60.684 43.7773 61.3673 43.8073 62.134 43.814C62.9007 43.8207 63.644 43.824 64.364 43.824C65.0573 43.824 65.7073 43.814 66.314 43.794C66.9207 43.774 67.4507 43.7507 67.904 43.724C67.7307 44.0707 67.624 44.344 67.584 44.544C67.544 44.744 67.5373 44.984 67.564 45.264C67.2973 45.2373 67.044 45.214 66.804 45.194C66.564 45.174 66.2773 45.154 65.944 45.134C65.6107 45.114 65.214 45.1007 64.754 45.094C64.294 45.0873 63.7107 45.084 63.004 45.084C62.7773 45.884 62.574 46.684 62.394 47.484C62.214 48.284 62.0707 48.9507 61.964 49.484L63.584 49.484C63.9307 49.484 64.2373 49.484 64.504 49.484C64.784 49.484 65.0373 49.4773 65.264 49.464C65.4907 49.4507 65.7107 49.4373 65.924 49.424C66.1373 49.4107 66.3507 49.3973 66.564 49.384C66.3773 49.784 66.274 50.0907 66.254 50.304C66.234 50.5173 66.2307 50.7307 66.244 50.944C65.5507 50.864 64.7973 50.814 63.984 50.794C63.1707 50.774 62.404 50.764 61.684 50.764C61.4973 51.644 61.3207 52.5273 61.154 53.414C60.9873 54.3007 60.8507 55.1907 60.744 56.084L62.344 56.084C62.6773 56.084 62.9707 56.0807 63.224 56.074C63.4773 56.0673 63.7173 56.0607 63.944 56.054C64.1707 56.0473 64.3973 56.034 64.624 56.014C64.8507 55.994 65.104 55.9707 65.384 55.944C65.2107 56.344 65.1073 56.644 65.074 56.844C65.0407 57.044 65.0373 57.224 65.064 57.384C64.264 57.3573 63.5207 57.344 62.834 57.344C62.1473 57.344 61.504 57.344 60.904 57.344C60.184 57.344 59.5207 57.344 58.914 57.344C58.3073 57.344 57.7373 57.3573 57.204 57.384C57.3373 56.9973 57.494 56.4473 57.674 55.734C57.854 55.0207 58.044 54.2273 58.244 53.354C58.444 52.4807 58.6407 51.5673 58.834 50.614C59.0273 49.6607 59.2073 48.7473 59.374 47.874C59.5407 47.0007 59.6873 46.1973 59.814 45.464C59.9407 44.7307 60.0307 44.1507 60.084 43.724Z"/>
<path d="M75.668 51.632C75.668 51.344 75.644 51.064 75.596 50.792C75.548 50.52 75.46 50.28 75.332 50.072C75.204 49.864 75.028 49.696 74.804 49.568C74.58 49.44 74.3 49.376 73.964 49.376C73.436 49.376 72.988 49.576 72.62 49.976C72.252 50.376 71.952 50.856 71.72 51.416C71.488 51.976 71.324 52.556 71.228 53.156C71.132 53.756 71.084 54.256 71.084 54.656C71.084 55.232 71.224 55.74 71.504 56.18C71.784 56.62 72.244 56.84 72.884 56.84C73.412 56.84 73.852 56.64 74.204 56.24C74.556 55.84 74.84 55.36 75.056 54.8C75.272 54.24 75.428 53.664 75.524 53.072C75.62 52.48 75.668 52 75.668 51.632ZM77.132 44.432C77.132 43.888 77.024 43.412 76.808 43.004C76.592 42.596 76.172 42.392 75.548 42.392C75.1 42.392 74.724 42.536 74.42 42.824C74.116 43.112 73.872 43.468 73.688 43.892C73.504 44.316 73.372 44.76 73.292 45.224C73.212 45.688 73.172 46.088 73.172 46.424C73.172 47.048 73.308 47.54 73.58 47.9C73.852 48.26 74.244 48.44 74.756 48.44C75.188 48.44 75.556 48.292 75.86 47.996C76.164 47.7 76.408 47.344 76.592 46.928C76.776 46.512 76.912 46.076 77 45.62C77.088 45.164 77.132 44.768 77.132 44.432ZM76.628 49.28C77.316 49.584 77.872 50.052 78.296 50.684C78.72 51.316 78.932 52.072 78.932 52.952C78.932 53.128 78.908 53.368 78.86 53.672C78.812 53.976 78.724 54.304 78.596 54.656C78.468 55.008 78.276 55.364 78.02 55.724C77.764 56.084 77.436 56.408 77.036 56.696C76.636 56.984 76.14 57.212 75.548 57.38C74.956 57.548 74.252 57.632 73.436 57.632C72.716 57.632 72.016 57.556 71.336 57.404C70.656 57.252 70.056 56.992 69.536 56.624C69.016 56.256 68.596 55.784 68.276 55.208C67.956 54.632 67.796 53.936 67.796 53.12C67.796 52.448 67.912 51.852 68.144 51.332C68.376 50.812 68.688 50.368 69.08 50C69.472 49.632 69.932 49.344 70.46 49.136C70.988 48.928 71.548 48.8 72.14 48.752L72.14 48.536C71.468 48.184 70.968 47.748 70.64 47.228C70.312 46.708 70.148 46.064 70.148 45.296C70.148 44.864 70.228 44.42 70.388 43.964C70.548 43.508 70.816 43.092 71.192 42.716C71.568 42.34 72.064 42.036 72.68 41.804C73.296 41.572 74.06 41.456 74.972 41.456C75.916 41.456 76.716 41.576 77.372 41.816C78.028 42.056 78.564 42.368 78.98 42.752C79.396 43.136 79.696 43.572 79.88 44.06C80.064 44.548 80.156 45.04 80.156 45.536C80.156 46.592 79.836 47.4 79.196 47.96C78.556 48.52 77.7 48.888 76.628 49.064L76.628 49.28Z"/>
<path d="M89.012 51.632C89.012 51.344 88.988 51.064 88.94 50.792C88.892 50.52 88.804 50.28 88.676 50.072C88.548 49.864 88.372 49.696 88.148 49.568C87.924 49.44 87.644 49.376 87.308 49.376C86.78 49.376 86.332 49.576 85.964 49.976C85.596 50.376 85.296 50.856 85.064 51.416C84.832 51.976 84.668 52.556 84.572 53.156C84.476 53.756 84.428 54.256 84.428 54.656C84.428 55.232 84.568 55.74 84.848 56.18C85.128 56.62 85.588 56.84 86.228 56.84C86.756 56.84 87.196 56.64 87.548 56.24C87.9 55.84 88.184 55.36 88.4 54.8C88.616 54.24 88.772 53.664 88.868 53.072C88.964 52.48 89.012 52 89.012 51.632ZM90.476 44.432C90.476 43.888 90.368 43.412 90.152 43.004C89.936 42.596 89.516 42.392 88.892 42.392C88.444 42.392 88.068 42.536 87.764 42.824C87.46 43.112 87.216 43.468 87.032 43.892C86.848 44.316 86.716 44.76 86.636 45.224C86.556 45.688 86.516 46.088 86.516 46.424C86.516 47.048 86.652 47.54 86.924 47.9C87.196 48.26 87.588 48.44 88.1 48.44C88.532 48.44 88.9 48.292 89.204 47.996C89.508 47.7 89.752 47.344 89.936 46.928C90.12 46.512 90.256 46.076 90.344 45.62C90.432 45.164 90.476 44.768 90.476 44.432ZM89.972 49.28C90.66 49.584 91.216 50.052 91.64 50.684C92.064 51.316 92.276 52.072 92.276 52.952C92.276 53.128 92.252 53.368 92.204 53.672C92.156 53.976 92.068 54.304 91.94 54.656C91.812 55.008 91.62 55.364 91.364 55.724C91.108 56.084 90.78 56.408 90.38 56.696C89.98 56.984 89.484 57.212 88.892 57.38C88.3 57.548 87.596 57.632 86.78 57.632C86.06 57.632 85.36 57.556 84.68 57.404C84 57.252 83.4 56.992 82.88 56.624C82.36 56.256 81.94 55.784 81.62 55.208C81.3 54.632 81.14 53.936 81.14 53.12C81.14 52.448 81.256 51.852 81.488 51.332C81.72 50.812 82.032 50.368 82.424 50C82.816 49.632 83.276 49.344 83.804 49.136C84.332 48.928 84.892 48.8 85.484 48.752L85.484 48.536C84.812 48.184 84.312 47.748 83.984 47.228C83.656 46.708 83.492 46.064 83.492 45.296C83.492 44.864 83.572 44.42 83.732 43.964C83.892 43.508 84.16 43.092 84.536 42.716C84.912 42.34 85.408 42.036 86.024 41.804C86.64 41.572 87.404 41.456 88.316 41.456C89.26 41.456 90.06 41.576 90.716 41.816C91.372 42.056 91.908 42.368 92.324 42.752C92.74 43.136 93.04 43.572 93.224 44.06C93.408 44.548 93.5 45.04 93.5 45.536C93.5 46.592 93.18 47.4 92.54 47.96C91.9 48.52 91.044 48.888 89.972 49.064L89.972 49.28Z"/>
</g>
</g>
</svg>
