<?xml version="1.0" encoding="utf-8"?>
<!-- Generator: Adobe Illustrator 16.0.4, SVG Export Plug-In . SVG Version: 6.00 Build 0)  -->
<!DOCTYPE svg PUBLIC "-//W3C//DTD SVG 1.1//EN" "http://www.w3.org/Graphics/SVG/1.1/DTD/svg11.dtd">
<svg version="1.1" id="Layer_1" xmlns="http://www.w3.org/2000/svg" xmlns:xlink="http://www.w3.org/1999/xlink" x="0px" y="0px"
	 width="649.467px" height="223.489px" viewBox="0 0 649.467 223.489" enable-background="new 0 0 649.467 223.489"
	 xml:space="preserve">
<g>
	<g>
		<path fill="#15355E" d="M306.252,125.594c0,3.714,0,6.998-0.288,11.858c-1.008,16.568-11.011,27.85-31.866,27.841
			c-18.285-0.009-29.133-11.298-29.556-29.724l-0.144-5.856l12.285,0.005l0.285,5.858c0.709,13.568,7.135,19.998,18.847,20.004
			c11.428,0.003,17.144-7.278,18.004-18.849c0.144-2.857,0.146-6.427,0.146-11.569l0.027-60.423l12.285,0.007L306.252,125.594z"/>
		<path fill="#15355E" d="M393.955,136.485c-0.007,16.282-12.576,25.278-26.863,26.416c-4.002,0.426-6.715,0.426-10.431,0.422
			l-28.564-0.01l0.04-98.561l25.854,0.012c4.138,0.001,6.709,0.001,11.569,0.29c15.138,1.289,24.707,9.723,24.7,23.578
			c-0.004,12.142-7.008,20.139-18.291,22.562C386.535,113.913,393.958,122.914,393.955,136.485z M388.095,136.912
			c0.003-11.571-5.847-21.574-22.555-22.436c-3.291-0.287-5.287-0.287-7.571-0.288l-24.432-0.01l-0.017,44.422l25.286,0.01
			c2.284,0.002,4.712-0.141,6.569-0.28C376.807,157.475,388.088,151.196,388.095,136.912z M333.542,109.463l22.57,0.008
			c2.287,0.002,4.714-0.137,7.854-0.281c10.287-0.854,20.436-5.991,20.438-19.848c0.007-14.142-10.424-19.145-21.131-19.721
			c-3.146-0.143-5.573-0.143-9.003-0.144l-20.712-0.009L333.542,109.463z"/>
		<path fill="#15355E" d="M469.52,127.231l-59.99-0.023c0.845,24.423,14.266,33.574,27.41,33.58
			c11.426,0.002,22.286-6.563,26.009-20.848l5.565,0.002c-4.147,16.996-17.291,25.419-31.864,25.416
			c-17.995-0.009-32.847-13.439-32.837-39.867c0.01-23.854,15.016-39.42,34.155-39.412c21.285,0.008,31.705,18.011,31.698,37.58
			C469.667,124.372,469.664,125.373,469.52,127.231z M409.53,122.493l54.567,0.022c-0.85-23.286-13.7-31.861-26.415-31.867
			C424.542,90.645,410.395,100.924,409.53,122.493z"/>
		<path fill="#15355E" d="M513.824,86.537l-0.004,4.428c-13.57-1.003-23.146,7.849-23.156,30.705l-0.017,41.707l-5.425-0.002
			l0.03-75.278l5.425,0.003l-0.004,15.285l4.002-9.141c3.717-5.141,9.146-8.14,15.288-8.137
			C511.393,86.107,512.678,86.248,513.824,86.537z"/>
		<path fill="#15355E" d="M583.511,127.273l-59.993-0.021c0.85,24.425,14.272,33.57,27.413,33.574
			c11.43,0.006,22.285-6.558,26.005-20.841l5.574,0.002c-4.148,16.996-17.297,25.421-31.865,25.414
			c-17.998-0.007-32.851-13.44-32.841-39.867c0.011-23.854,15.015-39.417,34.159-39.41c21.28,0.008,31.701,18.009,31.695,37.581
			C583.659,124.417,583.659,125.418,583.511,127.273z M523.521,122.538l54.564,0.022c-0.851-23.286-13.701-31.862-26.413-31.865
			C538.532,90.688,524.388,100.967,523.521,122.538z"/>
		<path fill="#15355E" d="M622.068,159.713v4.285c-2.287,0.288-5.287,0.427-7.999,0.425c-7.43-0.002-11.284-3.287-11.85-10.576
			c-0.291-3.139-0.288-5.712-0.288-9.998l0.021-50.851l-9.281-0.003v-4.286l9.284,0.003l0.007-15.995l5.428,0.001l-0.007,15.997
			l14.572,0.007l-0.004,4.283L607.382,93l-0.02,51.14c-0.004,3.714-0.004,5.567,0.14,7.569
			C608.072,159.134,611.354,161.283,622.068,159.713z"/>
	</g>
	<g>
		<path fill="#FFFFFF" d="M22.068,117.14c0,0,108.661,46.236,213.113-83.193C235.181,33.947,140.354,303.146,22.068,117.14z"/>
		<path fill="#FFFFFF" d="M71.593,97.3c0,0,83.498,35.524,163.759-63.931C235.352,33.369,162.485,240.218,71.593,97.3z"/>
		<path fill="#FFFFFF" d="M113.649,80.265c0,0,62.336,26.523,122.253-47.727C235.903,32.539,181.5,186.971,113.649,80.265z"/>
	</g>
	<g>
		<path opacity="0.5" fill="#1B556B" d="M22.068,117.14c0,0,108.661,46.236,213.113-83.193
			C235.181,33.947,140.354,303.146,22.068,117.14z"/>
		<path opacity="0.7" fill="#5C86A3" d="M71.593,97.3c0,0,83.498,35.524,163.759-63.931C235.352,33.369,162.485,240.218,71.593,97.3
			z"/>
		<path opacity="0.7" fill="#8AB0D6" d="M113.649,80.265c0,0,62.336,26.522,122.253-47.727
			C235.903,32.539,181.5,186.971,113.649,80.265z"/>
	</g>
</g>
</svg>
