<?xml version="1.0" encoding="UTF-8"?>
<svg width="32px" height="32px" viewBox="0 0 32 32" version="1.1" xmlns="http://www.w3.org/2000/svg" xmlns:xlink="http://www.w3.org/1999/xlink">
    <title>ibmrpg-orginal</title>
    <g id="ibmrpg-orginal" stroke="none" stroke-width="1" fill="none" fill-rule="evenodd">
        <g id="Group">
            <rect id="Rectangle-2" fill="#541094" x="0" y="0" width="32" height="32" rx="2"></rect>
            <path d="M30,0 C31.1045695,-2.02906125e-16 32,0.8954305 32,2 L32,16 L0,16 L0,2 C-1.3527075e-16,0.8954305 0.8954305,2.02906125e-16 2,0 L30,0 Z" id="Combined-Shape" fill="#000000"></path>
            <path d="M4,3 L4,3.69470077 L8.67156256,3.69470077 L8.67156256,3 L4,3 Z M9.33343768,3 L9.33343768,3.69470077 L15.9906249,3.69470077 C15.9906249,3.69470077 15.31063,3 14.41,3 L9.33343768,3 Z M17.2965626,3 L17.2965626,3.69470077 L21.3240626,3.69470077 L21.085,3 L17.2965626,3 Z M24.2115626,3 L23.9725,3.69470077 L27.9634374,3.69470077 L27.9634374,3 L24.2115626,3 Z M4,4.35102533 L4,5.0457259 L8.67156256,5.0457259 L8.67156256,4.35102533 L4,4.35102533 Z M9.33343768,4.35200937 L9.33343768,5.0457259 L16.7631251,5.0457259 C16.7631251,5.0457259 16.67635,4.51105441 16.525,4.35200937 L9.33343768,4.35200937 Z M17.2965626,4.35200937 L17.2965626,5.0457259 L21.7656251,5.0457259 L21.5443749,4.35200937 L17.2965626,4.35200937 Z M23.7334374,4.35200937 L23.5121874,5.0457259 L27.9634374,5.0457259 L27.9634374,4.35200937 L23.7334374,4.35200937 Z M5.3424999,5.70205066 L5.3424999,6.39773508 L7.36562488,6.39773508 L7.36562488,5.70205066 L5.3424999,5.70205066 Z M10.6759377,5.70205066 L10.6759377,6.39773508 L12.6990623,6.39773508 L12.6990623,5.70205066 L10.6759377,5.70205066 Z M14.6668751,5.70205066 L14.6668751,6.39773508 L16.69,6.39773508 C16.6900002,6.39773508 16.8184374,6.03034304 16.8184374,5.70205066 L14.6668751,5.70205066 Z M18.6390626,5.70205066 L18.6390626,6.39773508 L22.2259377,6.39773508 L21.9868751,5.70205066 L18.6390626,5.70205066 Z M23.2928126,5.70205066 L23.0528126,6.39773508 L26.6575,6.39773508 L26.6575,5.70205066 L23.2928126,5.70205066 Z M5.3424999,7.05406015 L5.3424999,7.74876042 L7.36562488,7.74876042 L7.36562488,7.05406015 L5.3424999,7.05406015 Z M10.6759377,7.05406015 L10.6759377,7.74876042 L15.8434377,7.74876042 C15.8434379,7.74876042 16.2757074,7.39230254 16.4134374,7.05406015 L10.6759377,7.05406015 Z M18.6390626,7.05406015 L18.6390626,7.74876042 L20.6621874,7.74876042 L20.6621874,7.36205042 L20.7906249,7.74876042 L24.4965626,7.74876042 L24.6343751,7.36205042 L24.6343751,7.74876042 L26.6575,7.74876042 L26.6575,7.05406015 L22.8596874,7.05406015 L22.6581249,7.64248899 L22.4556251,7.05406015 L18.6390626,7.05406015 Z M5.3424999,8.40508548 L5.3424999,9.09978575 L7.36562488,9.09978575 L7.36562488,8.40508548 L5.3424999,8.40508548 Z M10.6759377,8.40508548 L10.6759377,9.09978575 L16.4134374,9.09978575 C16.2756777,8.76264556 15.8434377,8.40508548 15.8434377,8.40508548 L10.6759377,8.40508548 Z M18.6390626,8.40508548 L18.6390626,9.09978575 L20.6621874,9.09978575 L20.6621874,8.40508548 L18.6390626,8.40508548 Z M21.0296874,8.40508548 L21.2743751,9.09978575 L24.0531251,9.09978575 L24.2856251,8.40508548 L21.0296874,8.40508548 Z M24.6343751,8.40508548 L24.6343751,9.09978575 L26.6575,9.09978575 L26.6575,8.40508548 L24.6343751,8.40508548 Z M5.3424999,9.75611082 L5.3424999,10.4508111 L7.36562488,10.4508111 L7.36562488,9.75611082 L5.3424999,9.75611082 Z M10.6759377,9.75611082 L10.6759377,10.4508111 L12.6990623,10.4508111 L12.6990623,9.75611082 L10.6759377,9.75611082 Z M14.6668751,9.75611082 L14.6668751,10.4508111 L16.8184374,10.4508111 C16.8184374,10.1229604 16.69,9.75611082 16.69,9.75611082 L14.6668751,9.75611082 Z M18.6390626,9.75611082 L18.6390626,10.4508111 L20.6621874,10.4508111 L20.6621874,9.75611082 L18.6390626,9.75611082 Z M21.4890623,9.75611082 L21.72625,10.4508111 L23.5890623,10.4508111 L23.8281249,9.75611082 L21.4890623,9.75611082 Z M24.6343751,9.75611082 L24.6343751,10.4508111 L26.6575,10.4508111 L26.6575,9.75611082 L24.6343751,9.75611082 Z M4.03656232,11.1071361 L4.03656232,11.8028206 L8.70812488,11.8028206 L8.70812488,11.1071361 L4.03656232,11.1071361 Z M9.33343768,11.1071361 L9.33343768,11.8028206 L16.525,11.8028206 C16.67635,11.6435237 16.7631251,11.1071361 16.7631251,11.1071361 L9.33343768,11.1071361 Z M17.3331249,11.1071361 L17.3331249,11.8028206 L20.6621874,11.8028206 L20.6621874,11.1071361 L17.3331249,11.1071361 Z M21.9493749,11.1071361 L22.1931249,11.8028206 L23.1409374,11.8028206 L23.3696874,11.1071361 L21.9493749,11.1071361 Z M24.6343751,11.1071361 L24.6343751,11.8028206 L28,11.8028206 L28,11.1071361 L24.6343751,11.1071361 Z M4.03656232,12.4591454 L4.03656232,13.1538462 L8.70812488,13.1538462 L8.70812488,12.4591454 L4.03656232,12.4591454 Z M9.33343768,12.4591454 L9.33343768,13.1528622 L14.41,13.1528622 C15.3106298,13.1528622 15.9906249,12.4591454 15.9906249,12.4591454 L9.33343768,12.4591454 Z M17.3331249,12.4591454 L17.3331249,13.1538462 L20.6621874,13.1538462 L20.6621874,12.4591454 L17.3331249,12.4591454 Z M22.4115626,12.4591454 L22.6459377,13.1518778 L22.68625,13.1528622 L22.9243751,12.4591454 L22.4115626,12.4591454 Z M24.6343751,12.4591454 L24.6343751,13.1538462 L28,13.1538462 L28,12.4591454 L24.6343751,12.4591454 Z" id="Shape" fill="#FFFFFF" fill-rule="nonzero"></path>
            <path d="M7.04406253,27 L7.04406253,24.2314453 L9.03478518,24.2314453 C9.39220706,24.2314453 9.65441409,24.2709961 9.82140628,24.3500977 C10.114375,24.4936523 10.2711133,24.7763672 10.2916211,25.1982422 L10.2916211,25.1982422 L10.3443555,26.2749023 C10.3560742,26.5268555 10.3707227,26.6967773 10.3883008,26.784668 C10.4058789,26.8725586 10.4293164,26.9443359 10.4586133,27 L10.4586133,27 L11.5308789,27 L11.5308789,26.8549805 C11.3961133,26.7963867 11.3023633,26.6645508 11.2496289,26.4594727 C11.2174024,26.3393555 11.1968946,26.15625 11.1881055,25.9101562 L11.1881055,25.9101562 L11.1573438,25.0444336 C11.1426953,24.6694336 11.0716504,24.3984375 10.944209,24.2314453 C10.8167676,24.0644531 10.6270703,23.9296875 10.3751172,23.8271484 C10.6622266,23.6777344 10.8856153,23.4799805 11.0452832,23.2338867 C11.2049512,22.987793 11.2847852,22.6713867 11.2847852,22.284668 C11.2847852,21.543457 10.9815625,21.0351562 10.3751172,20.7597656 C10.0557813,20.6162109 9.65001956,20.5444336 9.15783206,20.5444336 L9.15783206,20.5444336 L6.16955081,20.5444336 L6.16955081,27 L7.04406253,27 Z M9.0655469,23.5019531 L7.04406253,23.5019531 L7.04406253,21.2958984 L9.17980471,21.2958984 C9.47863284,21.2958984 9.71740237,21.3398438 9.89611331,21.4277344 C10.2300977,21.5947266 10.3970899,21.9082031 10.3970899,22.3681641 C10.3970899,22.7958984 10.2777051,23.0917969 10.0389356,23.2558594 C9.80016604,23.4199219 9.47570315,23.5019531 9.0655469,23.5019531 L9.0655469,23.5019531 Z M14.1016016,27 L14.1016016,24.2709961 L16.131875,24.2709961 C16.7822656,24.2709961 17.2641992,24.0842285 17.5776758,23.7106934 C17.8911524,23.3371582 18.0478906,22.8984375 18.0478906,22.3945312 C18.0478906,21.8085938 17.8721094,21.3537598 17.5205469,21.0300293 C17.1689844,20.7062988 16.7060938,20.5444336 16.131875,20.5444336 L16.131875,20.5444336 L13.2270899,20.5444336 L13.2270899,27 L14.1016016,27 Z M15.8418359,23.5327148 L14.1016016,23.5327148 L14.1016016,21.2958984 L15.8418359,21.2958984 C16.17875,21.2958984 16.4438867,21.3413086 16.6372461,21.4321289 C16.9888086,21.6020508 17.1645899,21.9243164 17.1645899,22.3989258 C17.1645899,22.8208008 17.0422754,23.1152344 16.7976465,23.2822266 C16.5530176,23.4492188 16.2344141,23.5327148 15.8418359,23.5327148 L15.8418359,23.5327148 Z M22.3500586,27.1713867 C22.9418555,27.1713867 23.4296484,27.0629883 23.8134375,26.8461914 C24.0419531,26.7202148 24.3041601,26.4946289 24.6000586,26.1694336 L24.6000586,26.1694336 L24.8109961,27 L25.3734961,27 L25.3734961,23.5458984 L22.5390234,23.5458984 L22.5390234,24.2709961 L24.5605078,24.2709961 C24.5517187,25.0268555 24.3561621,25.5739746 23.9738379,25.9123535 C23.5915137,26.2507324 23.1088476,26.4199219 22.5258398,26.4199219 C21.7641211,26.4199219 21.2148047,26.1789551 20.8778906,25.6970215 C20.5409766,25.2150879 20.3725195,24.590332 20.3725195,23.8227539 C20.3725195,22.9350586 20.5768652,22.2670898 20.9855566,21.8188477 C21.394248,21.3706055 21.8974219,21.1464844 22.4950781,21.1464844 C22.9989844,21.1464844 23.4164648,21.2541504 23.7475195,21.4694824 C24.0785742,21.6848145 24.2968359,22.0283203 24.4023047,22.5 L24.4023047,22.5 L25.2680273,22.5 C25.1244726,21.65625 24.7318945,21.065918 24.090293,20.7290039 C23.6479101,20.4946289 23.1234961,20.3774414 22.5170508,20.3774414 C21.6322851,20.3774414 20.911582,20.6821289 20.3549414,21.2915039 C19.7690039,21.9301758 19.4760351,22.7900391 19.4760351,23.8710938 C19.4760351,24.9550781 19.7763281,25.8076172 20.3769141,26.4287109 C20.9276953,26.9238281 21.5854101,27.1713867 22.3500586,27.1713867 Z" id="RPG" fill="#FFFFFF" fill-rule="nonzero"></path>
        </g>
    </g>
</svg>