<svg xmlns="http://www.w3.org/2000/svg" xmlns:xlink="http://www.w3.org/1999/xlink" viewBox="0 0 57 66" fill="#fff" fill-rule="evenodd" stroke="#000" stroke-linecap="round" stroke-linejoin="round"><use xlink:href="#A" x=".5" y=".5"/><symbol id="A" overflow="visible"><path d="M55.058 9.836l-9.637 15.475c-2.941-4.627-8.053-7.418-13.536-7.391-3.62.084-7.055 1.615-9.537 4.25s-3.806 6.155-3.675 9.774c-.102 3.618 1.25 7.126 3.753 9.741s5.948 4.118 9.567 4.174c5.483.027 10.595-2.764 13.536-7.391l9.65 15.595A32 32 0 0 1 0 32.079 32 32 0 0 1 20.011 2.332a32 32 0 0 1 35.06 7.494z" stroke="none" fill="#000" fill-rule="nonzero"/></symbol></svg>