<?xml version="1.0" encoding="UTF-8" standalone="no"?>
<!DOCTYPE svg PUBLIC "-//W3C//DTD SVG 1.1//EN" "http://www.w3.org/Graphics/SVG/1.1/DTD/svg11.dtd">
<!-- Created with Vectornator (http://vectornator.io/) -->
<svg height="100%" stroke-miterlimit="10" style="fill-rule:nonzero;clip-rule:evenodd;stroke-linecap:round;stroke-linejoin:round;" version="1.1" viewBox="0 0 500 500" width="100%" xml:space="preserve" xmlns="http://www.w3.org/2000/svg" xmlns:vectornator="http://vectornator.io" xmlns:xlink="http://www.w3.org/1999/xlink">
<defs>
<linearGradient gradientTransform="matrix(1 0 0 1 0 0)" gradientUnits="userSpaceOnUse" id="LinearGradient" x1="367.979" x2="134.403" y1="468.1" y2="63.5336">
<stop offset="0" stop-color="#1973b4"/>
<stop offset="1" stop-color="#54b9de"/>
</linearGradient>
</defs>
<g id="Untitled" vectornator:layerName="Untitled">
<g opacity="1">
<clipPath id="ClipPath">
<path d="M244.446 0C244.446 0 244.394 20.8097 298.792 53.8588C404.409 118.026 404.053 176.853 404.053 189.198C404.053 241.639 349.473 275.539 324.149 248.102C324.149 248.102 348.998 229.66 348.998 201.302C348.998 201.302 330.775 213.313 321.25 215.384C321.25 215.384 333.674 193.433 327.876 154.917C327.876 154.917 317.936 174.382 286.047 190.12C286.047 190.12 298.471 162.372 286.875 135.866C286.875 135.866 289.36 168.999 213.984 204.201C138.609 239.404 161.801 274.607 161.801 274.607C161.801 274.607 176.827 258.651 202.336 269.857C236.848 285.018 222.901 345.856 167.404 345.856C113.373 345.856 77.909 287.097 77.909 241.214C77.909 222.243 79.9655 187.341 114.241 148.953C141.502 118.42 175.118 102.31 182.334 68.5468C144.974 103.165 77.6142 125.756 37.5562 184.999C1.57532 238.211 13.2571 308.596 19.7344 330.247C49.1094 428.435 140.14 500 247.885 500C379.387 500 487.362 394.767 487.362 263.264C487.362 64.1821 298.098 43.0575 244.446 0ZM212.586 243.709C208.579 244.641 204.742 242.964 198.338 241.017C192.351 239.196 190.232 239.545 190.232 239.545C194.275 236.821 198.509 234.393 202.902 232.278C209.263 229.349 214.696 229.197 217.223 235.024C218.884 238.854 215.871 242.944 212.586 243.709Z"/>
</clipPath>
<g clip-path="url(#ClipPath)">
<path d="M244.446 0C244.446 0 244.394 20.8097 298.792 53.8588C404.409 118.026 404.053 176.853 404.053 189.198C404.053 241.639 349.473 275.539 324.149 248.102C324.149 248.102 348.998 229.66 348.998 201.302C348.998 201.302 330.775 213.313 321.25 215.384C321.25 215.384 333.674 193.433 327.876 154.917C327.876 154.917 317.936 174.382 286.047 190.12C286.047 190.12 298.471 162.372 286.875 135.866C286.875 135.866 289.36 168.999 213.984 204.201C138.609 239.404 161.801 274.607 161.801 274.607C161.801 274.607 176.827 258.651 202.336 269.857C236.848 285.018 222.901 345.856 167.404 345.856C113.373 345.856 77.909 287.097 77.909 241.214C77.909 222.243 79.9655 187.341 114.241 148.953C141.502 118.42 175.118 102.31 182.334 68.5468C144.974 103.165 77.6142 125.756 37.5562 184.999C1.57532 238.211 13.2571 308.596 19.7344 330.247C49.1094 428.435 140.14 500 247.885 500C379.387 500 487.362 394.767 487.362 263.264C487.362 64.1821 298.098 43.0575 244.446 0Z" fill="#1973b4" fill-rule="nonzero" opacity="1" stroke="none"/>
<path d="M292.045 311.853C292.045 311.853 298.019 406.435 185.985 420.382C112.824 429.491 55.2415 382.87 30.2587 323.487C12.8666 282.147 11.2737 234.622 31.2224 195.41C31.2224 195.41-41.4328 264.66-38.0921 368.301C-34.6232 475.921 50.5325 617.354 370 576.422C476.211 562.814 515.167 413.988 516.742 325.622C518.699 215.747 467.288 163.668 467.288 163.668C467.288 163.668 494.119 241.301 432.278 303.143C397.819 337.601 339.185 349.526 292.045 311.853Z" fill="#54b9de" fill-rule="nonzero" opacity="0.4" stroke="none"/>
<path d="M464.505 366.726C464.505 366.726 357.692 399.318 292.045 311.853C292.045 311.853 320.764 423.175 198.387 495.469C198.387 495.469 240.788 621.18 380.845 558.772C425.784 538.747 459.639 441.975 464.505 366.726Z" fill="#54b9de" fill-rule="nonzero" opacity="0.6" stroke="none"/>
<path d="M278.544 527.101C278.544 527.101 345.37 441.902 292.045 311.853C292.045 311.853 339.926 409.674 425.745 444.246C425.745 444.246 374.426 530.158 278.544 527.101Z" fill="#54b9de" fill-rule="nonzero" opacity="0.8" stroke="none"/>
<path d="M230.777 248.695C272.706 227.082 286.147 190.053 286.147 190.053C286.147 190.053 298.572 162.289 286.968 135.764C286.968 135.764 289.454 168.92 214.023 204.149C138.591 239.378 161.801 274.607 161.801 274.607C165.751 271.086 169.509 268.713 176.956 266.709C189.368 263.37 208.904 259.969 230.777 248.695Z" fill="#54b9de" fill-rule="nonzero" opacity="0.6" stroke="none"/>
<path d="M232.938 264.04C265.344 264.04 302.831 248.978 321.382 215.345C324.28 210.089 326.863 201.557 328.146 193.528C330.193 180.732 330.404 171.212 328.038 153.922C328.038 153.922 321.896 171.127 286.147 190.053C273.171 196.922 256.535 203.792 234.536 210.468C149.298 236.337 161.801 274.607 161.801 274.607C175.234 265.716 175.315 264.04 232.938 264.04Z" fill="#54b9de" fill-rule="nonzero" opacity="0.4" stroke="none"/>
<path d="M232.938 264.04C262.73 264.04 303.232 265.715 324.269 248.082C337.17 237.268 348.949 222.976 349.171 201.197C349.171 201.197 331.523 212.845 321.378 215.35C307.344 218.814 282.091 224.127 258.987 222.816C180.581 218.365 161.801 274.607 161.801 274.607C172.613 264.609 185.77 264.04 232.938 264.04Z" fill="#54b9de" fill-rule="nonzero" opacity="0.2" stroke="none"/>
<path d="M244.446 0C244.446 0 244.394 20.8097 298.792 53.8588C404.409 118.026 404.053 176.853 404.053 189.198C404.053 241.639 349.473 275.539 324.149 248.102C324.149 248.102 348.998 229.66 348.998 201.302C348.998 201.302 330.775 213.313 321.25 215.384C321.25 215.384 333.674 193.433 327.876 154.917C327.876 154.917 317.936 174.382 286.047 190.12C286.047 190.12 298.471 162.372 286.875 135.866C286.875 135.866 289.36 168.999 213.984 204.201C138.609 239.404 161.801 274.607 161.801 274.607C161.801 274.607 176.827 258.651 202.336 269.857C236.848 285.018 222.901 345.856 167.404 345.856C113.373 345.856 77.909 287.097 77.909 241.214C77.909 222.243 79.9655 187.341 114.241 148.953C141.502 118.42 175.118 102.31 182.334 68.5468C144.974 103.165 77.6142 125.756 37.5562 184.999C1.57532 238.211 13.2571 308.596 19.7344 330.247C49.1094 428.435 140.14 500 247.885 500C379.387 500 487.362 394.767 487.362 263.264C487.362 64.1821 298.098 43.0575 244.446 0Z" fill="url(#LinearGradient)" fill-rule="nonzero" opacity="1" stroke="none"/>
</g>
</g>
</g>
</svg>
