<?xml version="1.0" encoding="UTF-8" standalone="no"?>
<!DOCTYPE svg PUBLIC "-//W3C//DTD SVG 1.1//EN" "http://www.w3.org/Graphics/SVG/1.1/DTD/svg11.dtd">
<!-- Created with Vectornator (http://vectornator.io/) -->
<svg height="100%" stroke-miterlimit="10" style="fill-rule:nonzero;clip-rule:evenodd;stroke-linecap:round;stroke-linejoin:round;" version="1.1" viewBox="0 0 300 300" width="100%" xml:space="preserve" xmlns="http://www.w3.org/2000/svg" xmlns:xlink="http://www.w3.org/1999/xlink">
<defs/>
<g id="Layer-1">
<g opacity="1">
<path d="M185.872 116.346C189.153 121.267 191.468 126.818 194.073 132.028C195.096 134.073 195.448 137.575 197.094 139.221C197.9 138.685 197.445 137.139 197.382 136.2C197.166 132.955 196.933 129.577 196.231 126.417C193.459 113.941 190.634 101.116 183.427 90.305C181.39 87.2504 179.423 84.1557 177.384 81.0972C176.855 80.3038 175.284 78.5635 175.801 77.7882C178.051 80.0382 179.936 82.9104 181.7 85.5572C182.437 85.189 185.323 88.5309 185.872 89.154C188.652 92.3047 191.55 95.4299 194.073 98.7934C202.111 109.511 208.319 119.666 211.194 132.603C212.343 137.776 214.365 143.211 214.647 148.429C214.722 149.819 214.791 151.21 214.791 152.601C214.791 153.427 214.149 154.549 214.791 155.191C215.71 154.579 215.91 151.993 216.229 150.875C217.444 146.624 217.945 142.267 218.1 137.927C218.192 135.338 218.244 132.748 218.244 130.157C218.244 128.485 217.417 129.187 216.517 128.287C216.094 128.711 216.365 129.015 215.942 129.438C215.024 128.52 215.792 126.845 215.654 125.554C215.466 123.802 214.568 121.311 214.215 119.367C213.195 113.756 211.623 108.425 209.899 103.253C208.899 100.253 208.149 96.8752 206.734 94.0457C203.953 88.4833 200.621 82.8275 197.814 77.2127C197.272 76.1284 194.601 72.656 195.224 72.0333C200.393 77.2022 205.285 82.7974 207.885 89.2979C208.58 91.0355 209.115 93.1972 209.899 94.765C210.454 95.8749 213.113 101.766 212.345 102.534C213.434 103.624 213.458 105.526 214.215 106.85C214.606 107.534 215.47 107.935 215.942 108.721C218.793 113.473 221.487 118.706 222.991 123.971C225.23 131.808 225.045 140.539 225.437 148.573C225.658 153.106 224.954 157.635 224.142 162.097C223.993 162.919 223.077 165.233 223.998 165.694C225.634 164.059 227.879 161.531 228.746 159.363C229.016 158.688 228.963 157.202 229.178 156.342C229.544 154.878 230.429 153.352 230.76 152.026C231.103 150.655 231.156 149.256 231.624 147.854C233.463 142.335 235.508 135.881 235.508 129.726C235.508 122.084 235.443 114.549 234.069 106.994C233.512 103.925 232.635 100.962 231.48 98.0741C230.891 96.6021 229.832 94.9365 229.466 93.4702C228.574 89.903 226.281 85.3339 224.43 82.2482C220.76 76.1313 215.296 70.7414 212.057 64.2642C212.201 64.1203 212.201 64.1203 212.345 63.9765C213.026 64.6264 214.606 66.484 215.942 67.2855C217.749 68.3698 220.226 69.2685 221.696 70.7384C222.056 70.4507 222.056 70.4507 222.416 70.163C222.056 69.8033 222.056 69.8033 221.696 69.4436C221.84 69.2278 221.84 69.2278 221.984 69.012C224.804 70.4217 226.626 73.8688 229.322 75.4862C229.914 75.8414 231.35 75.7128 232.199 76.3494C234.421 78.016 236.83 79.5419 238.817 81.5288C243.353 86.0641 247.08 91.3869 251.478 96.0599C254.299 99.0569 257.769 101.681 260.398 104.836C261.291 104.241 259.695 101.703 259.247 100.808C257.593 97.4988 255.952 91.1818 253.492 88.7224C253.348 88.7944 253.348 88.7944 253.204 88.8663C250.639 86.3008 249.908 82.1205 247.593 79.2269C243.493 74.1015 240.418 67.7417 236.515 62.5378C231.174 55.4165 224.684 49.4721 218.1 43.5467C211.485 37.5939 204.669 31.38 197.238 26.4259C186.06 18.9738 174.644 13.1162 161.126 9.73681C156.021 8.46044 150.627 6.5722 145.732 5.7084C144.878 5.55772 142.858 5.85508 142.135 5.13292C142.351 4.91711 142.351 4.91711 142.567 4.7013C141.802 3.93649 138.943 4.1647 138.107 4.12581C135.724 4.01497 130.842 3.83807 128.611 3.83807C118.121 3.83807 110.015 6.89623 102.715 14.1968C102.136 14.7749 97.602 20.9654 98.1106 22.1098C98.6708 23.3702 99.4091 22.261 99.8371 23.1169C100.643 24.7289 102.236 26.1391 103.29 27.7208C106.206 32.0951 108.405 36.4321 112.21 40.2376C117.88 45.9077 126.233 49.8753 133.071 52.6106C134.867 53.3287 136.902 53.9307 138.539 54.9126C146.5 59.6896 154.322 64.9416 161.126 71.7455C165.563 76.1823 169.409 82.0494 172.636 87.4276C174.848 91.1132 177.127 94.8262 178.967 98.5057C179.764 100.101 180.313 102.158 181.269 103.829C182.095 105.275 183.393 107.69 183.714 109.296C183.95 110.475 186.666 115.553 185.872 116.346Z" fill="#d269c1" fill-rule="nonzero" opacity="1" stroke="none"/>
<path d="M169.615 116.058C168.473 116.819 167.989 118.547 167.169 119.367C165.504 118.118 164.898 114.825 164.004 113.037C163.098 111.225 161.628 109.688 160.839 107.713C160.576 107.057 159.959 105.907 159.256 105.555C157.594 107.217 156.462 109.812 155.084 111.742C151.437 116.847 147.246 122.383 144.437 127.999C145.205 128.767 147.5 127.665 148.466 127.424C152.257 126.476 155.903 125.061 159.688 124.115C160.535 123.903 163.915 122.715 164.292 123.971C164.952 126.173 160.747 128.868 159.544 130.014C154.423 134.891 149.502 140.05 144.581 145.12C133.483 156.554 123.286 168.718 112.929 180.8C110.511 183.622 107.677 186.029 105.448 189.001C112.133 195.686 120.024 201.596 127.892 206.841C129.565 207.957 136.457 212.105 136.956 213.603C138.367 213.603 140.123 214.533 141.56 214.754C145.634 215.381 149.639 215.473 153.789 215.473C158.056 215.473 161.741 213.206 165.73 211.877C174.537 208.941 182.369 205.152 189.901 199.504C189.57 198.513 191.925 196.374 192.491 195.619C194.903 192.402 197.28 188.61 198.677 185.117C203.376 173.37 201.74 158.563 199.252 146.127C199.167 145.701 197.99 145.457 197.67 144.976C196.477 146.17 192.936 146.412 191.34 146.703C184.37 147.97 178.198 147.469 172.061 144.401C170.703 143.722 165.515 141.597 165.299 140.085C164.558 134.902 171.804 124.659 175.658 120.806C177.316 119.147 180.181 119.016 181.7 117.497C179.671 113.438 176.216 108.816 173.212 105.412C172.871 105.025 170.083 101.591 169.471 101.959C168.572 102.498 169.702 104.321 169.903 105.124C170.681 108.238 171.229 111.272 171.629 114.475C171.862 116.341 171.221 118.2 169.615 116.058Z" fill="#f8c52c" fill-rule="nonzero" opacity="1" stroke="none"/>
<path d="M96.3842 29.4472C95.8521 29.9793 96.3404 31.4214 95.5209 31.7492C94.9566 31.9749 94.0723 31.7799 93.5067 32.0369C85.6314 35.6166 78.1392 43.0816 72.9331 49.5893C70.6423 52.4528 67.9574 55.6982 66.6027 59.0848C62.6666 68.9251 59.9846 79.4328 59.9846 90.305C59.9846 97.4148 60.8282 104.29 61.5672 111.31C62.8655 123.644 64.5952 135.792 68.0414 147.854C69.3604 152.47 71.3961 156.658 73.7963 160.658C74.7098 162.181 76.098 164.254 76.5299 165.982C77.6056 170.285 80.5636 174.481 82.5725 178.498C86.6391 186.632 91.8466 194.695 97.5351 201.806C100.49 199.836 96.1582 194.16 94.9454 191.735C92.7802 187.404 90.1735 182.886 88.6151 178.211C88.0427 176.493 86.511 174.731 86.0254 173.031C84.9818 169.379 83.5283 164.872 81.7092 161.234C80.2704 158.356 79.7379 154.478 78.8318 151.307C74.687 136.8 74.9301 120.798 80.846 106.994C82.3156 103.565 84.2831 97.9894 86.6009 95.3405C88.0754 93.6554 91.9197 90.6636 92.068 88.2908C92.3689 83.4768 91.2936 78.8461 91.6364 74.0475C91.7184 72.8993 91.41 71.8281 92.2119 71.0262C92.6093 71.4236 93.4006 71.1772 93.5067 71.6017C94.1441 74.1514 94.5447 76.9046 95.2332 79.6585C96.4175 84.3957 98.0749 88.6939 98.2545 93.9018C98.3338 96.2029 98.3523 98.5057 98.3984 100.808C98.4379 102.784 97.7949 104.78 98.6861 106.563C101.318 103.931 103.115 100.236 105.016 97.067C105.303 96.5888 106.703 94.3975 106.455 93.9018C105.937 92.8648 103.308 96.3965 103.002 96.7792C102.355 96.1323 103.412 94.3891 103.722 93.6141C104.99 90.444 106.238 87.2147 107.318 83.9746C108.393 80.7519 108.777 77.3803 109.333 74.0475C109.414 73.5605 109.96 73.2377 110.052 72.7527C110.232 71.8082 109.88 68.4642 110.627 67.7171C112.136 69.2254 110.852 74.7034 112.21 76.0617C113.064 75.2073 113.022 71.4715 113.073 70.3068C113.167 68.1988 113.585 66.0236 113.073 63.9765C112.833 63.0173 111.496 62.7789 110.771 62.1061C109.176 60.6248 105.145 57.6647 104.441 55.2003C103.795 52.9387 102.292 51.3435 101.564 49.1577C100.197 45.0587 99.0392 40.9305 97.9667 36.6408C97.5758 35.0771 97.1901 30.2531 96.3842 29.4472Z" fill="#d269c1" fill-rule="nonzero" opacity="1" stroke="none"/>
<path d="M165.73 297.049C185.729 297.097 205.727 297.24 225.725 297.193C225.983 297.192 225.931 296.718 226.013 296.473C226.431 295.219 226.816 293.961 227.307 292.733C229.156 288.112 231.073 283.771 233.638 279.496C240.188 268.579 250.178 260.88 259.679 252.736C258.385 251.443 256.253 250.952 254.643 250.147C253.309 249.479 251.955 247.912 250.759 246.981C247.996 244.832 245.102 242.683 242.27 240.795C242.414 240.579 242.414 240.579 242.558 240.363C243.746 240.957 246.466 242.21 247.45 241.227C246.96 240.737 240.389 237.25 240.112 237.342C237.298 238.28 234.168 239.266 231.336 240.076C217.023 244.165 203.943 253.369 192.347 264.965C188.123 269.189 183.945 273.177 180.118 277.77C176.218 282.449 172.546 287.29 168.896 292.157C168.08 293.245 165.73 295.743 165.73 297.049Z" fill="#d269c1" fill-rule="nonzero" opacity="1" stroke="none"/>
<path d="M51.9278 245.974C50.5405 246.252 41.5709 248.129 41.1374 248.996C40.9209 249.429 45.1001 256.655 45.5974 257.484C51.2373 266.884 57.2714 276.384 64.3008 284.82C67.1774 288.272 70.1348 291.64 73.0769 295.035C73.1554 295.125 74.72 297.192 74.8034 297.193C94.5613 297.336 114.32 297.288 134.079 297.193C134.186 297.192 134.174 297.001 134.222 296.905C132.428 295.111 131.145 292.466 129.619 290.431C127.339 287.391 124.67 284.619 121.993 281.942C116.819 276.768 110.958 272.955 105.016 268.994C99.7864 265.507 94.4177 262.04 88.759 259.21C79.7808 254.721 70.1461 252.638 61.1356 248.132C58.736 246.933 54.239 247.854 51.9278 245.974Z" fill="#d269c1" fill-rule="nonzero" opacity="1" stroke="none"/>
<path d="M135.805 80.5217C132.767 83.5598 130.472 87.7284 127.892 91.1682C123.94 96.4383 119.468 101.297 115.519 106.563C114.039 108.537 112.657 110.573 111.059 112.461C110.862 112.694 109.209 114.287 109.333 114.907C109.557 116.031 113.485 115.168 114.512 115.339C117.548 115.845 120.42 117.252 122.857 119.079C128.49 123.305 131.646 128.745 134.51 134.474C134.901 135.256 136.974 137.891 136.524 138.79C135.988 139.863 133.9 139.931 132.928 140.66C131.892 141.437 130.602 141.734 129.331 142.243C125.54 143.759 122.437 146.149 118.253 146.847C112.154 147.863 106.084 146.957 100.413 144.689C99.0114 144.128 92.6146 140.814 91.7803 141.092C91.7803 143.733 85.305 148 84.4428 149.724C85.2108 150.492 87.7181 149.786 88.6151 149.724C91.1159 149.552 93.6013 149.267 96.0964 149.005C96.7007 148.941 98.4588 148.303 98.83 149.292C99.3647 150.718 97.1571 152.827 96.6719 154.04C95.1102 157.944 92.8105 161.823 91.2048 165.838C90.8754 166.661 92.5909 168.754 92.9312 169.434C94.2236 172.019 95.9064 174.683 96.9596 177.491C97.4622 178.832 98.263 180.922 99.5493 181.951C100.39 182.624 105.104 177.171 106.024 176.196C107.707 174.414 109.392 172.669 111.059 170.873C114.424 167.25 117.605 163.69 121.274 160.371C126.645 155.511 131.548 150.097 136.668 144.976C142.679 138.965 148.852 133.223 154.94 127.28C155.084 127.352 155.084 127.352 155.228 127.424C155.453 127.198 156.284 126.58 155.515 126.273C155.167 126.134 146.678 128.691 145.732 129.007C145.1 129.217 143.274 129.975 142.999 129.15C142.558 127.828 145.655 124.771 146.308 123.683C149.112 119.009 152.094 114.529 155.372 110.159C156.313 108.904 158.81 106.635 159.112 105.124C159.24 104.484 157.721 103.18 157.386 102.678C155.576 99.963 153.285 97.5558 151.199 95.0528C149.554 93.0789 147.819 90.1254 145.588 89.0102C141.962 87.1972 139.653 82.4455 135.805 80.5217Z" fill="#b81d90" fill-rule="nonzero" opacity="1" stroke="none"/>
<path d="M154.077 293.164C153.276 292.363 152.891 292.998 151.919 292.876C151.315 292.801 151.765 291.141 151.199 290.575C149.962 291.812 149.447 295.768 146.739 292.157C145.989 292.907 146.712 293.335 146.02 294.027C140.001 288.51 136.449 280.122 131.345 273.742C128.244 269.866 124.72 266.37 121.13 262.951C115.941 258.009 110 254.136 104.297 249.859C101.165 247.51 97.1218 244.568 93.3629 243.816C90.7196 243.288 88.5639 241.094 86.0254 240.795C80.8914 240.191 74.9063 241.165 70.0556 242.377C65.846 243.43 61.355 243.761 57.1072 244.823C55.7751 245.156 53.1929 245.141 52.2155 246.118C53.6184 247.521 57.5363 247.441 59.553 247.845C62.6962 248.473 66.3326 250.586 69.3363 251.873C74.9183 254.265 81.2442 256.32 87.0325 258.635C93.5713 261.251 99.1057 266.182 105.304 269.281C112.931 273.095 122.618 282.145 127.604 288.129C129.474 290.372 131.165 292.751 132.784 295.178C132.932 295.4 133.915 297.191 134.079 297.193C144.677 297.288 155.276 297.193 165.874 297.193C166.146 296.106 167.376 294.868 168.032 293.884C170.674 289.921 173.81 286.324 176.665 282.518C181.824 275.639 187.874 269.726 193.929 263.67C196.215 261.384 198.216 259.078 200.691 257.052C203.763 254.539 206.919 251.906 210.331 249.859C211.518 249.147 212.927 248.595 213.927 247.845C215.394 246.745 217.656 246.074 219.251 245.543C223.697 244.061 227.676 241.08 232.199 239.788C233.469 239.425 239.9 238.197 240.256 237.486C235.787 233.017 228.184 237.256 222.847 238.781C206.892 243.339 191.619 249.91 179.254 261.656C174.377 266.289 169.626 271.14 164.867 275.9C162.285 278.481 160.954 281.999 159.4 285.107C158.026 287.855 155.801 290.578 154.077 293.164Z" fill="#9b559a" fill-rule="nonzero" opacity="1" stroke="none"/>
<path d="M64.3008 60.8113C64.3727 60.9552 64.3727 60.9552 64.4446 61.099C63.4831 62.0606 63.173 64.4823 62.7182 65.8468C61.4643 69.6083 60.4726 73.6812 59.8407 77.7882C58.9319 83.6955 57.7761 90.2648 58.6898 96.2038C59.0751 98.7087 59.2652 102.445 59.2652 104.98C59.2652 106.189 59.8325 107.792 59.9846 109.008C60.5024 113.15 60.5084 117.413 61.2794 121.525C61.6879 123.704 62.2865 126.12 62.2865 128.287C62.2865 132.865 64.4729 137.577 65.0201 141.955C65.1857 143.279 67.0495 147.248 66.6027 148.141C67.0613 148.6 67.7846 150.094 67.4659 150.731C67.9263 151.191 68.0934 151.744 68.473 152.314C68.3292 152.458 68.3292 152.458 68.1853 152.601C67.8975 152.314 67.8975 152.314 67.6098 152.026C65.8576 153.778 65.4771 157.095 64.1569 159.076C60.4593 164.622 57.6707 170.293 52.9349 175.621C49.6122 179.359 46.11 182.877 42.5761 186.411C41.7238 187.264 39.043 189.141 39.6987 190.584C40.5695 192.5 44.8152 191.23 46.3168 191.015C51.8447 190.226 57.6223 188.168 62.2865 185.836C62.7658 185.596 68.7991 182.909 69.0485 182.958C69.7378 183.096 69.1231 183.891 68.9047 184.109C69.1864 184.673 69.0491 185.116 68.6169 185.548C68.8298 185.974 68.6739 186.642 68.3292 186.987C68.5454 187.419 68.1351 188.62 67.7537 189.001C67.9724 189.438 67.7961 189.534 67.4659 189.864C68.0819 191.096 63.1189 198.446 62.1427 199.504C61.3663 200.345 60.4241 201.759 59.8407 202.381C58.4491 203.865 56.941 205.237 55.5246 206.697C54.8858 207.356 54.0099 208.254 53.5104 208.711C52.4105 209.72 51.4451 210.868 50.3452 211.877C49.8925 212.292 49.3565 212.61 48.9065 213.028C48.9037 213.03 47.413 214.01 47.7555 214.466C49.1885 216.377 51.6934 215.126 53.3665 214.754C57.0914 213.926 60.8712 213.631 64.7324 212.74C65.5395 212.554 67.6693 211.849 68.6169 212.164C65.5367 215.245 62.7814 218.555 59.6969 221.516C57.85 223.289 55.1278 224.845 53.7981 226.839C53.0102 228.021 46.3373 233.783 47.18 235.328C48.0781 236.974 57.0934 235.328 58.8336 235.328C65.1605 235.328 71.3836 236.739 77.2492 238.205C78.6623 238.558 80.2342 238.601 81.2776 239.644C80.7752 240.146 76.2839 240.166 75.6666 240.219C72.487 240.496 69.4917 241.513 66.4588 241.946C64.7501 242.19 61.9959 241.805 60.704 243.097C62.7066 245.1 70.9497 242.245 73.7963 241.946C77.6924 241.536 81.8397 240.939 85.8815 240.939C86.7275 240.939 87.7972 241.82 88.4712 242.09C91.0188 243.109 93.8317 244.234 96.3842 245.255C100.506 246.904 104.122 250.145 107.75 252.736C116.236 258.797 124.508 265.411 131.057 273.598C136.542 280.454 140.593 288.224 146.308 294.891C146.523 294.747 146.523 294.747 146.739 294.603C145.42 291.965 142.982 289.443 141.416 286.834C133.553 273.729 123.699 262.863 111.347 253.599C107.786 250.929 103.715 246.921 99.5493 245.255C94.7269 243.326 89.5451 240.908 84.5867 238.925C76.7999 235.81 67.7616 234.381 59.4091 234.033C58.2103 233.983 57.0122 233.889 55.8123 233.889C54.8041 233.889 53.797 233.966 52.791 234.033C51.8796 234.094 49.8449 234.827 49.1942 234.177C49.9248 232.716 51.6883 231.343 52.791 230.148C55.6606 227.04 58.7265 224.475 61.8549 221.66C64.275 219.482 66.1819 216.901 68.473 214.61C72.434 210.649 77.0294 207.03 81.2776 203.388C83.6508 201.354 86.0307 199.298 88.4712 197.346C88.8252 197.062 90.7036 195.318 91.2048 195.619C91.8902 196.03 92.4426 197.166 92.9312 197.777C93.5067 197.274 93.5067 197.274 94.0822 196.77C92.6642 195.352 91.8095 193.387 90.6293 191.735C86.2478 185.601 83.0184 178.815 79.695 172.168C76.2316 165.241 72.305 158.081 69.4801 151.019C64.1568 137.711 63.2579 122.93 61.7111 109.008C60.4637 97.7823 59.4771 86.3681 61.7111 75.1985C64.3888 61.8096 70.5159 51.5749 80.2705 41.8202C83.148 38.9427 86.815 36.0302 90.4854 34.195C91.4532 33.7111 92.5444 32.6746 93.5067 32.3247C93.5403 32.3125 97.8402 31.4672 95.6648 30.7421C93.4403 30.0006 86.8229 34.7936 85.0183 35.9215C78.4622 40.019 72.9948 46.5747 68.6169 52.8983C67.0487 55.1636 66.2024 58.9096 64.3008 60.8113Z" fill="#4c3749" fill-rule="nonzero" opacity="1" stroke="none"/>
<path d="M107.462 197.921C106.121 199.262 102.877 198.86 101.851 200.655C101.318 201.588 103.336 204.199 103.722 204.971C104.841 207.21 110.347 215.424 110.052 217.488C109.902 218.536 108.455 217.449 108.182 217.2C107.278 216.379 106.396 215.529 105.592 214.61C102.457 211.028 99.5994 207.06 96.9596 203.1C94.135 204.984 91.3244 208.174 88.1835 209.431C85.0478 210.685 81.7073 213.255 79.1195 215.473C79.8572 216.58 83.2426 216.624 84.5867 217.2C90.085 219.556 96.111 221.286 101.42 224.825C110.049 230.578 118.58 244.327 123.288 253.743C124.855 256.877 127.886 259.343 129.475 262.52C129.331 262.663 129.331 262.663 129.187 262.807C133.652 267.272 137.332 271.97 140.553 277.338C142.147 279.996 143.047 283.046 144.437 285.827C144.917 286.786 146.918 289.793 146.739 290.862C146.564 291.915 146.274 290.95 146.452 292.013C146.556 292.638 147.538 293.612 148.178 293.74C148.986 293.901 149.987 293.468 150.48 292.876C151.331 291.856 151.541 289.72 152.063 288.416C152.668 286.903 153.527 285.344 154.221 283.956C156.614 279.17 160.772 275.084 164.148 270.864C169.833 263.757 175.673 256.789 182.995 251.298C190.341 245.788 198.56 241.361 207.165 238.493C211.264 237.127 215.528 236.069 219.538 234.465C222.674 233.21 225.908 232.117 229.178 231.299C230.128 231.062 232.332 230.967 232.487 229.573C232.598 228.57 232.279 227.975 231.624 227.271C230.445 226.005 229.25 224.753 228.027 223.53C226.578 222.081 224.698 220.784 222.991 219.646C218.787 216.843 214.288 214.375 210.187 211.445C207.438 209.482 204.201 206.921 201.123 205.69C197.775 204.351 194.154 202.422 190.908 200.799C190.62 201.086 190.62 201.086 190.332 201.374C192.566 204.054 198.918 206.386 202.13 207.992C205.106 209.48 207.746 211.879 210.618 213.603C214.37 215.854 218.05 218.222 221.696 220.653C224.624 222.605 227.416 224.933 229.897 227.415C230.311 227.829 231.089 228.298 230.904 228.854C230.577 229.834 226.295 230.397 225.149 230.724C219.548 232.324 213.99 234.492 208.46 236.335C194.779 240.895 182.501 248.626 172.061 259.067C168.197 262.93 164.825 267.463 161.414 271.727C160.839 271.152 160.839 271.152 160.263 270.576C164.943 261.217 171.687 252.62 176.377 243.241C177.017 241.96 180.951 236.363 180.549 235.759C176.998 238.6 174.848 243.663 172.348 247.413C165.941 257.025 160.458 266.703 154.508 276.619C153.044 279.059 151.957 281.486 150.912 284.1C150.501 285.128 150.248 286.778 149.473 287.553C148.813 286.893 148.479 285.423 148.034 284.532C146.317 281.098 145.012 277.48 143.286 274.029C140.896 269.248 138.335 264.847 135.949 260.074C134.833 257.843 133.099 255.971 132.208 253.743C130.978 250.667 128.946 247.412 127.029 244.536C124.906 241.352 123.213 237.869 120.986 234.752C120.213 233.669 119.009 232.27 120.267 231.012C121.971 232.715 124.675 226.942 125.302 225.688C127.786 220.72 126.589 214.94 126.166 209.862C126.076 208.783 122.522 207.537 121.706 207.129C117.721 205.136 110.554 201.013 107.462 197.921Z" fill="#3a8095" fill-rule="nonzero" opacity="1" stroke="none"/>
<path d="M131.489 219.214C131.036 219.667 131.162 220.453 131.057 221.084C130.746 222.952 129.753 225.207 129.043 226.983C127.582 230.637 124.749 233.494 122.137 236.91C122.033 237.047 123.655 239.331 123.864 239.644C125.528 242.141 127.639 245.055 128.755 247.845C130.702 252.712 134.541 256.697 136.524 261.656C137.797 264.838 140.264 269.903 142.279 272.591C144.566 275.639 145.148 281.645 147.603 284.1C149.035 282.668 149.063 279.629 149.761 277.77C150.476 275.863 151.126 273.708 151.919 271.727C152.609 270.002 154.076 268.635 154.796 266.836C156.969 261.405 160.52 255.675 163.141 250.434C164.472 247.772 168.008 244.604 168.176 241.658C168.438 237.069 167.968 232.483 166.881 228.134C166.643 227.182 166.863 223.84 165.73 223.386C164.857 223.037 160.544 225.403 159.544 225.688C158.472 225.995 156.93 226.189 155.947 226.408C152.26 227.227 148.418 225.82 145.013 224.969C140.33 223.798 135.846 222.486 131.489 219.214Z" fill="#f8c52c" fill-rule="nonzero" opacity="1" stroke="none"/>
<path d="M98.2545 21.9659C97.1978 23.0226 97.3913 26.3208 97.3913 27.5769C97.3913 31.215 98.0933 34.9889 98.9739 38.5112C99.2685 39.6897 100.617 42.6225 99.6932 43.5467C100.013 44.187 99.8432 45.4355 100.125 46.2802C102.202 52.5126 105.823 57.589 110.627 62.3939C111.267 63.0336 111.855 63.5831 112.642 63.9765C114.035 62.5832 111.401 59.6065 112.498 58.5093C109.468 54.7224 105.788 51.7077 103.578 47.2873C103.722 47.1435 103.722 47.1435 103.865 46.9996C105.33 48.4641 106.286 50.5659 107.606 52.179C109.609 54.6274 111.793 56.9153 114.224 58.941C121.544 65.041 130.572 68.6188 138.107 74.4791C148.217 82.3428 156.088 92.2426 163.141 102.822C164.292 101.671 160.937 97.0303 160.551 95.4844C160.157 93.9099 158.794 92.66 158.249 91.0244C156.032 84.3745 150.254 78.2398 146.308 72.321C146.452 72.1772 146.452 72.1772 146.595 72.0333C147.429 72.8666 148.941 74.0259 150.048 73.472C149.885 72.3306 149.665 72.7047 150.192 72.1772C153.02 74.2984 159.311 80.8742 160.839 84.694C161.381 86.0491 162.649 88.6186 163.716 89.7295C169.108 95.341 174.475 100.85 179.254 106.994C181.645 110.068 183.684 113.38 186.016 116.49C187.006 115.5 184.286 109.626 183.57 108.433C182.286 106.292 181.983 103.533 180.693 101.383C177.674 96.3516 175.236 90.895 171.773 85.7011C165.646 76.5101 158.235 65.9118 148.322 60.9552C144.86 59.2244 142.027 56.0201 138.539 54.6248C131.365 51.7554 124.011 48.7081 117.389 43.9783C109.518 38.3556 105.279 30.8486 100.125 23.1169C99.5543 22.2611 98.9742 22.6857 98.2545 21.9659Z" fill="#9b559a" fill-rule="nonzero" opacity="1" stroke="none"/>
<path d="M68.0414 151.594C67.7537 151.882 67.7537 151.882 67.4659 152.17C68.3443 153.048 65.7737 157.425 65.164 158.644C62.1371 164.698 58.6222 170.736 53.942 176.196C52.2181 178.208 50.4359 180.168 48.6187 182.095C46.2355 184.623 43.713 186.962 41.4251 189.577C42.187 190.719 47.5978 189.435 49.1942 189.145C54.4059 188.197 59.5965 185.531 64.5885 183.534C65.9189 183.002 68.6013 180.909 70.0556 181.232C71.0984 181.464 70.5787 183.371 70.4872 183.966C70.0981 186.495 69.424 189.07 68.473 191.447C67.6046 193.618 66.6058 195.543 65.3079 197.489C63.4519 200.273 61.1148 202.681 58.8336 205.115C56.0618 208.071 53.3706 211.068 50.2013 213.603C50.9773 214.767 53.1802 213.398 54.0859 213.172C57.6372 212.284 61.3072 212.28 64.7324 211.301C65.4223 211.104 68.7327 210.266 69.3363 210.87C68.7978 211.408 68.5041 211.846 68.0414 212.308C68.1853 212.524 68.1853 212.524 68.3292 212.74C75.062 206.007 83.0379 200.138 90.4854 194.18C86.0357 185.281 80.1035 177.577 76.386 168.284C74.7954 164.307 72.5171 160.69 70.6311 156.918C69.8226 155.301 69.2963 152.849 68.0414 151.594Z" fill="#734075" fill-rule="nonzero" opacity="1" stroke="none"/>
<path d="M120.267 230.724C118.126 232.329 121.236 235.486 122.281 237.054C126.242 233.093 128.381 229.213 130.194 224.681C130.417 224.125 131.61 219.513 131.633 219.502C131.719 219.459 131.842 219.446 131.92 219.502C133.174 220.397 134.254 221.388 135.661 222.092C139.694 224.108 143.958 225.327 148.322 226.12C151.934 226.777 156.081 227.275 159.544 225.976C160.461 225.632 164.794 223.516 165.586 223.674C166.193 223.796 166.392 227.53 166.594 228.134C167.433 230.652 167.15 233.213 167.457 236.047C167.487 236.325 167.88 236.487 167.888 236.766C167.934 238.349 168.032 239.931 168.032 241.514C168.032 243.87 163.819 248.019 162.853 250.434C160.753 255.684 157.066 261.72 154.508 266.836C153.693 268.467 152.062 270.002 151.631 271.727C151.122 273.761 150.034 275.805 149.473 277.77C148.962 279.559 148.87 282.545 147.459 283.956C148.108 285.254 148.533 287.621 149.473 288.56C150.385 287.648 150.818 284.839 151.343 283.525C152.568 280.462 154.236 277.745 155.947 274.892C163.857 261.71 171.786 248.976 180.405 236.047C180.549 236.119 180.549 236.119 180.693 236.191C181.873 235.011 178.949 233.287 178.103 232.019C176.378 229.431 174.973 226.834 174.219 223.818C173.347 220.33 173.212 217.199 173.212 213.459C173.212 213.021 173.695 210.488 173.212 210.294C172.877 210.16 168.079 212.197 167.313 212.452C160.943 214.575 155.971 216.624 148.897 216.624C143.888 216.624 137.347 215.823 132.928 213.172C132.255 212.768 126.27 209.554 126.166 209.575C126.033 209.601 125.902 209.729 125.878 209.862C125.499 211.947 126.741 215.619 126.741 218.063C126.741 222.239 125.493 225.402 123.288 228.71C122.732 229.543 121.43 231.887 120.267 230.724Z" fill="#b99632" fill-rule="nonzero" opacity="1" stroke="none"/>
<path d="M175.801 254.894C176.017 255.11 176.017 255.11 176.233 255.326C186.09 245.469 199.662 239.075 212.776 235.328C217.343 234.023 221.728 232.03 226.3 230.724C227.535 230.371 230.483 230.323 231.192 229.141C231.478 228.665 230.289 227.668 230.185 227.559C228.529 225.828 227.02 224.266 225.149 222.811C219.174 218.163 212.451 214.686 206.302 210.294C205.721 209.879 200.532 206.678 200.26 206.841C195.215 209.868 194.368 217.469 192.634 222.092C191.334 225.56 188.09 228.902 187.167 232.594C186.593 234.893 184.849 236.831 184.29 239.068C183.681 241.506 182.28 243.521 180.981 245.687C179.181 248.685 177.78 251.926 175.801 254.894Z" fill="#44c0d9" fill-rule="nonzero" opacity="1" stroke="none"/>
<path d="M263.132 249.139C263.542 249.549 263.306 249.352 263.851 249.715C262.033 251.533 259.308 252.906 257.233 254.463C251.964 258.415 246.903 263.066 242.27 267.699C237.753 272.216 232.615 278.887 230.185 284.964C228.629 288.854 227.462 293.286 225.581 297.049C226.228 297.121 226.228 297.121 226.876 297.193C231.829 282.335 239.908 270.411 252.485 259.93C256.406 256.663 260.316 252.983 264.57 250.147C264.832 249.972 266.643 251.068 266.872 251.298C265.137 253.38 262.685 254.582 260.542 256.189C257.807 258.24 255.183 260.537 252.629 262.807C241.966 272.285 232.21 283.193 228.746 297.049C229.394 297.121 229.394 297.121 230.041 297.193C233.986 285.357 240.26 276.327 249.32 267.267C252.752 263.835 256.747 260.664 260.542 257.628C262.81 255.813 265.8 254.488 267.448 252.017C268.381 252.483 269.155 253.011 270.037 253.599C264.831 259.384 258.421 264.208 252.917 269.713C245.176 277.453 237.619 286.833 234.213 297.049C245.963 297.097 257.712 297.24 269.462 297.193C269.607 297.192 270.328 296.758 270.469 296.617C270.253 296.401 270.253 296.401 270.037 296.186C270.272 295.716 270.106 295.974 270.613 295.466C269.836 294.689 270.158 292.67 269.75 291.582C268.265 287.622 267.876 278.774 264.57 275.468C264.714 275.324 264.714 275.324 264.858 275.18C266.816 277.138 268.054 279.99 269.174 282.23C269.65 283.182 269.816 284.742 270.613 285.539C271.423 284.729 271.957 283.862 271.044 282.949C271.116 282.805 271.116 282.805 271.188 282.662C269.887 281.36 269.481 279.247 268.743 277.77C267.695 275.675 266.136 273.623 264.714 271.727C263.184 269.687 261.122 267.983 259.535 265.972C259.446 265.86 259.445 265.653 259.535 265.541C262.023 262.43 265.434 259.786 268.455 257.196C269.711 256.119 271.377 255.048 271.908 253.456C272.232 252.483 270.597 252.084 270.181 251.585C269.742 251.058 264.97 247.898 264.426 247.988C263.857 248.083 263.54 248.731 263.132 249.139Z" fill="#353034" fill-rule="nonzero" opacity="1" stroke="none"/>
<path d="M227.307 163.248C225.371 165.185 223.736 167.902 221.984 170.154C220.665 171.85 219.332 173.538 217.956 175.189C217.237 176.052 216.529 176.926 215.798 177.779C215.263 178.403 213.708 181.3 212.633 180.225C212.493 180.086 214.587 176.706 214.791 176.196C215.92 173.374 217.572 170.2 217.956 167.133C218.066 166.249 218.919 164.499 218.244 163.823C216.762 164.811 215.425 171.61 213.927 173.607C211.707 176.568 210.178 180.189 207.885 183.246C205.077 186.99 201.718 190.201 198.677 193.749C200.103 195.65 203.075 195.94 205.151 196.77C208.057 197.933 214.001 201.16 216.085 203.244C218.985 206.144 222.155 208.01 225.581 210.294C226.354 210.809 228.345 212.71 229.034 212.021C227.85 209.652 226.735 207.207 225.725 204.683C225.006 202.886 224.243 201.079 223.711 199.216C223.317 197.837 222.158 192.684 223.998 192.454C225.873 192.22 228.1 194.426 229.609 195.331C233.263 197.524 237.295 200.609 241.119 201.374C242.196 201.589 245.628 203.484 246.586 202.525C239.831 194.419 234.542 185.218 230.76 175.765C229.525 172.676 228.701 169.065 228.027 165.694C227.849 164.807 227.996 163.936 227.307 163.248Z" fill="#734075" fill-rule="nonzero" opacity="1" stroke="none"/>
<path d="M59.6969 230.58C60.5301 231.83 65.4403 230.867 67.0343 231.012C73.0674 231.56 79.4275 233.272 85.1622 235.184C90.2938 236.894 94.3635 240.13 99.2616 242.09C109.781 246.297 120.559 254.854 129.331 262.951C129.547 262.735 129.547 262.735 129.762 262.52C128.214 259.422 124.863 256.962 123.576 253.743C122.125 250.115 119.308 246.679 117.246 243.241C113.368 236.779 108.526 230.155 102.715 225.401C100.901 223.917 98.7944 223.135 96.8158 221.948C94.4948 220.555 91.3379 219.007 88.759 218.639C85.684 218.199 82.5378 215.473 79.1195 215.473C78.8367 215.473 75.4605 218.642 74.6595 219.214C69.5533 222.861 64.9247 227.095 59.6969 230.58Z" fill="#44c0d9" fill-rule="nonzero" opacity="1" stroke="none"/>
<path d="M201.411 206.122C202.853 207.564 205.387 208.533 207.165 209.719C213.47 213.921 220.224 217.634 226.157 222.379C227.245 223.25 233.593 228.016 232.055 229.861C230.722 231.461 226.466 231.492 224.43 232.306C217.632 235.026 210.509 236.781 203.713 239.5C187.389 246.03 175.134 256.627 163.86 270.72C162.607 272.287 161.26 273.783 159.975 275.324C156.585 279.393 153.432 283.731 151.775 288.704C151.499 289.533 150.426 292.629 151.631 293.164C152.75 293.662 154.213 293.05 154.508 291.869C155.477 287.994 158.832 284.086 160.695 280.36C163.417 274.916 168.426 271.189 172.636 266.98C174.384 265.232 175.913 263.271 177.672 261.512C182.39 256.794 188.09 252.988 193.785 249.571C205.361 242.626 220.13 237.454 233.638 234.752C237.912 233.897 242.197 233.653 246.586 233.457C247.65 233.41 249.356 234.014 249.751 233.026C250.024 232.344 248.064 230.495 247.737 230.148C246.41 228.743 245.052 227.367 243.709 225.976C243.421 226.264 243.421 226.264 243.133 226.552C243.82 227.238 244.568 228.126 245.004 228.997C244.86 229.141 244.86 229.141 244.716 229.285C243.336 228.25 242.235 226.885 240.831 225.832C236.108 222.289 231.027 219.077 226.588 215.042C225.076 213.667 222.163 211.802 221.265 210.006C222.062 209.21 220.617 209.216 221.553 208.28C218.924 205.651 215.364 203.847 212.201 201.95C211.532 201.548 210.167 200.367 209.467 200.367C208.914 200.367 202.36 205.331 201.411 206.122Z" fill="#d269c1" fill-rule="nonzero" opacity="1" stroke="none"/>
<path d="M114.08 65.8468C112.672 67.2554 113.793 69.6669 113.793 71.6017C113.793 75.3416 112.804 79.3779 111.778 82.9675C108.55 94.2666 102.68 104.283 94.8016 113.037C94.9454 113.181 94.9454 113.181 95.0893 113.324C94.5369 113.956 93.3492 115.899 92.6435 116.202C90.5979 117.079 91.3297 112.683 91.3486 111.886C91.392 110.063 92.3978 104.303 90.917 102.822C89.0227 104.716 87.3318 109.992 86.0254 112.605C85.6667 113.323 85.5141 114.411 84.8744 115.051C85.3032 115.908 84.1315 118.441 84.0112 119.223C83.1695 124.694 82.8893 130.693 83.0041 136.2C83.0284 137.366 82.8564 138.786 83.7234 139.653C87.5807 135.796 89.3296 131.229 92.3557 126.992C93.6679 125.155 95.3215 123.613 96.6719 121.813C97.5853 120.595 98.0653 119.14 98.9739 117.928C101.69 114.307 104.397 110.681 107.031 106.994C114.401 96.6763 124.317 88.1856 131.345 77.6443C127.373 73.6719 121.152 72.4435 116.958 69.012C115.79 68.0564 115.116 66.8823 114.08 65.8468Z" fill="#f8c52c" fill-rule="nonzero" opacity="1" stroke="none"/>
<path d="M161.414 272.015C166.734 266.695 170.701 260.227 176.377 255.182C176.233 255.038 176.233 255.038 176.089 254.894C177.856 253.127 179.03 250.02 180.118 247.845C181.635 244.809 183.331 242.185 184.578 239.068C186.27 234.838 188.376 230.608 190.476 226.408C191.167 225.027 192.514 223.521 192.922 222.092C193.834 218.899 194.53 214.433 196.663 211.589C197.83 210.032 199.329 208.596 200.403 206.985C197.883 204.465 193.516 203.69 190.62 201.518C190.692 201.374 190.692 201.374 190.764 201.23C189.924 200.39 187.714 202.448 186.736 203.1C184.068 204.879 181.383 206.352 178.679 207.704C177.342 208.373 174.462 208.861 173.643 210.294C172.784 211.798 173.922 214.672 174.075 216.049C174.662 221.335 175.208 224.357 177.528 228.997C178.18 230.302 181.839 234.549 181.7 234.896C181.462 235.491 180.931 234.877 180.693 235.472C179.925 237.391 178.363 239.356 177.24 241.227C173.176 248 168.969 255.108 164.867 261.944C163.52 264.19 162.159 266.497 160.983 268.85C160.785 269.245 159.727 270.368 159.975 270.864C160.25 271.413 160.98 271.581 161.414 272.015Z" fill="#3b92ac" fill-rule="nonzero" opacity="1" stroke="none"/>
<path d="M31.6419 251.873C32.5659 253.721 32.8948 255.88 33.9438 257.628C36.8033 262.394 39.8944 267.515 42.4322 272.591C40.7322 274.291 38.8679 275.664 37.3967 277.626C34.6455 281.294 32.4249 285.875 29.7715 289.855C28.8006 291.312 25.7431 295.69 25.7431 297.049C28.4767 297.121 28.4767 297.121 31.2102 297.193C31.1383 296.977 31.1383 296.977 31.0664 296.761C30.633 296.761 29.5264 297.134 29.196 296.473C28.8572 295.796 30.2154 294.003 30.4909 293.452C32.0861 290.261 33.8973 286.904 35.958 283.813C36.1019 283.956 36.1019 283.956 36.2458 284.1C34.2534 288.085 32.8708 292.708 31.7857 297.049C41.9047 297.097 52.0237 297.24 62.1427 297.193C62.2499 297.192 62.2386 297.001 62.2865 296.905C57.1441 291.762 53.6689 284.848 48.9065 279.353C43.5502 273.172 39.9444 264.895 35.6703 257.772C34.2469 255.399 31.9148 252.236 35.6703 251.298C36.1386 251.18 36.9094 250.481 37.3967 250.578C38.0083 250.7 38.3273 253.192 38.5477 253.743C39.7227 256.681 40.8718 259.686 42.2884 262.52C47.2109 272.365 52.8678 281.557 60.1285 289.855C61.7375 291.694 63.1724 293.628 64.5885 295.61C64.652 295.699 65.5171 297.181 65.5956 297.193C66.2128 297.281 66.8425 297.193 67.4659 297.193C66.3727 293.913 62.2048 290.091 59.9846 287.553C52.5911 279.104 47.3923 269.418 42.4322 259.498C41.7014 258.036 38.1564 251.528 38.4038 250.29C38.4956 249.832 40.1681 249.48 40.5619 249.283C41.6141 250.336 42.0212 252.5 42.5761 253.887C43.3969 255.939 44.4694 257.762 45.5974 259.642C51.2196 269.012 57.1741 277.997 64.013 286.546C66.1387 289.203 68.4033 291.745 70.6311 294.315C70.8924 294.617 72.3604 297.157 72.6453 297.193C73.3591 297.282 74.084 297.193 74.8034 297.193C74.8034 295.812 72.3614 294.031 71.7821 293.452C69.6622 291.332 67.8035 288.85 65.8833 286.546C58.9382 278.212 52.7577 269.082 47.18 259.786C45.5396 257.052 43.9825 254.398 42.5761 251.585C42.2866 251.006 41.0685 249.335 41.7129 248.852C42.5836 248.199 44.8044 248.153 45.8852 247.845C49.6007 246.783 53.4742 245.95 57.251 245.111C58.5962 244.812 61.3159 244.787 62.2865 243.816C60.1413 241.671 55.9734 243.92 53.5104 244.536C48.7159 245.734 41.9777 246.394 38.1161 248.852C36.2382 250.047 33.3953 250.12 31.6419 251.873Z" fill="#353034" fill-rule="nonzero" opacity="1" stroke="none"/>
<path d="M209.18 168.571C207.721 167.113 209.096 164.447 209.036 162.385C209.032 162.249 208.753 162.233 208.748 162.097C208.656 159.653 208.786 157.205 208.748 154.76C208.638 147.689 207.553 140.679 206.014 133.754C205.579 131.795 204.892 127.165 203.569 125.841C203.103 126.307 203.259 126.438 202.849 126.848C205.691 132.531 204.038 135.695 199.252 139.797C198.351 138.895 199.382 137.049 198.389 136.056C197.981 136.465 197.464 136.764 197.094 137.207C196.797 137.564 197.421 138.032 196.951 138.502C196.807 138.358 196.807 138.358 196.663 138.214C196.062 138.816 196.353 138.483 195.8 139.221C196.256 139.906 196.142 140.769 196.519 141.523C194.51 143.532 190.493 143.825 187.887 143.825C179.301 143.825 173.068 134.428 173.068 126.561C173.068 124.369 178.586 122.141 179.542 120.23C179.273 119.961 178.681 119.022 178.247 118.935C177.445 118.775 174.768 121.264 174.363 121.669C171.991 124.041 167.655 130.23 166.881 133.323C166.661 134.205 164.241 138.189 165.155 138.646C165.393 138.765 165.637 138.545 165.73 138.358C166.662 136.495 167.73 134.402 168.896 132.459C169.705 131.111 170.569 129.661 171.485 128.287C171.955 128.757 171.887 129.892 172.061 130.589C172.612 132.794 173.414 135.167 174.363 137.063C177.028 142.393 184.168 145.552 189.901 145.552C192.515 145.552 194.584 144.505 196.807 143.394C197.418 144.005 197.138 144.77 197.67 145.408C199.82 147.988 198.985 142.158 199.109 141.811C199.371 141.076 200.836 140.308 201.411 139.797C202.845 138.521 203.752 137.394 204.863 135.912C205.783 136.832 205.653 139.5 205.871 140.804C206.493 144.541 207.022 148.347 207.022 152.17C207.022 158.405 207.309 164.638 207.309 170.873C207.309 171.082 206.624 174.197 208.029 173.319C209.437 172.439 210.457 169.758 211.194 168.284C213.455 163.761 215.057 158.995 216.661 154.184C217.228 152.484 217.268 149.404 218.531 148.141C219.145 148.756 218.798 149.863 218.819 150.731C218.849 151.979 218.918 153.225 218.963 154.472C219.176 160.431 215.65 166.852 213.064 172.024C201.69 194.773 181.563 206.743 158.825 214.322C155.47 215.441 149.72 215.186 146.739 215.186C138.171 215.186 131.58 210.7 124.439 207.129C120.129 204.974 116.073 201.994 111.922 199.504C110.275 198.515 108.778 196.241 107.318 198.065C110.841 201.587 116.54 204.618 120.986 206.841C128.766 210.731 134.763 215.181 144.006 216.337C147.419 216.763 151.044 217.133 154.508 216.768C157.484 216.455 159.987 215.555 162.709 214.466C165.167 213.483 171.06 212.302 172.78 210.582C172.996 210.726 172.996 210.726 173.212 210.87C172.848 211.598 173.068 212.57 173.068 213.315C173.068 215.282 172.924 217.247 172.924 219.214C172.924 222.472 174.582 227.036 176.377 229.429C177.995 231.587 178.72 233.55 180.981 235.472C181.328 235.767 181.879 235.294 181.988 235.04C182.211 234.521 178.427 230.526 177.816 228.997C176.789 226.431 175.152 223.702 174.65 220.941C174.368 219.39 174.609 217.606 174.363 216.049C174.134 214.602 173.644 212.017 173.931 210.294C174.03 209.702 175.88 209.319 176.233 209.143C178.475 208.022 180.859 206.83 183.139 205.69C188.618 202.951 192.796 198.101 197.814 194.756C198.07 194.585 202.538 196.823 202.993 197.202C204.609 198.549 207.442 199.57 209.324 200.511C212.092 201.895 215.008 203.917 217.668 205.69C217.956 205.474 217.956 205.474 218.244 205.259C215.787 202.802 213.586 201.131 210.618 199.648C208.843 198.76 207.141 196.98 205.151 196.482C202.898 195.919 200.833 195.15 198.965 193.749C203.719 188.994 210.411 182.397 213.064 175.765C213.903 173.669 215.214 171.612 216.085 169.434C216.519 168.35 216.844 166.661 217.668 165.838C218.324 166.493 217.441 168.617 217.236 169.434C216.658 171.75 215.53 174.142 214.503 176.196C213.909 177.385 212.673 178.623 212.345 179.937C211.771 182.232 214.885 179.3 215.078 179.074C215.654 178.402 216.239 177.739 216.805 177.06C217.524 176.197 218.251 175.34 218.963 174.47C220.087 173.096 221.183 171.698 222.272 170.298C223.927 168.17 225.599 166.054 227.164 163.967C227.841 164.645 227.407 165.65 228.027 166.269C229.174 165.122 227.318 163.665 228.027 162.673C229.175 161.065 230.582 159.432 231.48 157.637C230.835 156.992 231.063 156.788 230.473 156.198C229.046 157.625 228.234 159.758 227.02 161.378C224.076 165.303 220.684 169.084 217.956 173.175C217.812 173.031 217.812 173.031 217.668 172.887C219.822 168.58 219.97 162.697 219.97 158.069C219.97 155.213 220.506 152.439 220.258 149.58C220.045 147.137 219.251 144.537 219.251 142.099C219.251 136.136 219.813 130.352 218.963 124.403C218.189 118.988 217.263 112.083 214.791 107.138C214.557 106.672 212.876 100.897 211.913 102.822C211.508 103.632 213.091 106.8 213.352 107.713C214.714 112.482 216.19 117.166 216.949 122.101C217.763 127.392 217.956 132.374 217.956 137.783C217.956 145.753 215.591 153.836 212.633 161.234C211.749 163.442 210.9 166.851 209.18 168.571Z" fill="#4c3749" fill-rule="nonzero" opacity="1" stroke="none"/>
<path d="M211.769 64.1203C213.791 68.1634 217.3 71.3861 219.682 75.1985C224.888 83.5271 229.851 92.6607 232.631 102.39C233.715 106.187 234.489 110.436 234.789 114.332C235.051 117.736 234.558 121.752 235.364 124.978C235.753 126.531 235.22 128.434 235.22 129.87C235.22 134.144 234.44 139.118 233.062 143.25C232.571 144.722 231.632 146.371 231.336 147.854C231.096 149.053 230.889 150.594 230.473 151.738C230.096 152.774 227.97 158.587 228.602 159.22C229.895 158.358 230.822 156.096 231.624 154.76C233.327 151.921 234.669 148.733 236.515 146.271C237.544 144.9 237.684 143.076 238.529 141.667C241.222 137.18 241.462 130.641 241.982 125.697C243.584 110.48 237.964 94.063 230.185 81.0972C227.781 77.0905 225.864 73.0123 222.272 70.0191C222.056 70.2349 222.056 70.2349 221.84 70.4507C220.077 69.0399 217.767 68.3668 215.942 66.9978C214.666 66.0413 213.688 64.7385 212.489 63.6887C212.227 63.4595 211.782 64.1072 211.769 64.1203Z" fill="#dc89ce" fill-rule="nonzero" opacity="1" stroke="none"/>
<path d="M100.413 40.0938C99.8307 40.6757 100.893 42.4929 101.276 43.2589C102.737 46.1808 104.251 48.9202 106.167 51.6035C114.016 62.592 123.856 65.3012 133.791 72.7527C140.753 77.9747 146.632 84.0116 152.782 90.1611C153.492 90.8715 153.901 92.0842 154.508 92.8947C156.361 95.3654 158.179 97.8607 159.975 100.376C160.521 101.139 160.61 101.703 160.839 102.39C161.037 102.986 162.048 103.495 162.421 104.117C164.154 107.004 166.497 109.918 167.745 113.037C168.176 114.114 169.411 116.713 170.478 117.353C172.74 118.71 171.824 112.154 171.773 111.742C171.071 106.123 168.811 99.3429 166.306 94.3334C166.45 94.1895 166.45 94.1895 166.594 94.0457C171.594 99.0461 176.151 104.693 180.261 110.447C180.819 111.228 184.29 115.493 184.29 116.202C184.29 116.503 178.921 118.262 178.103 119.079C178.679 119.655 178.679 119.655 179.254 120.23C178.366 121.119 178.197 124.577 178.103 125.841C177.646 132.009 180.457 138.987 187.455 139.653C189.019 139.802 190.195 139.918 191.627 139.509C192.482 139.265 194.229 137.93 195.08 138.214C195.425 138.329 195.758 139.087 195.943 139.365C196.183 139.126 196.661 138.723 196.807 138.358C197.07 137.7 193.734 130.631 193.21 129.582C188.278 119.719 182.762 110.703 175.514 102.246C173.165 99.506 170.753 96.8546 168.32 94.1895C166.948 92.687 165.443 91.3121 164.004 89.8734C162.8 88.6697 161.86 86.1612 161.126 84.694C159.714 81.8683 157.086 79.1833 155.084 76.7811C153.769 75.2028 150.518 71.6076 150.048 71.8894C147.91 73.1722 152.417 76.0806 154.221 77.932C155.457 79.2011 156.47 80.6917 157.53 82.1043C162.943 89.3227 165.792 96.963 168.608 105.412C169.07 106.799 170.735 113.355 170.047 114.044C169.102 113.099 168.59 111.563 168.032 110.447C166.952 108.286 165.403 106.339 164.292 104.117C163.163 101.859 161.163 99.7075 159.688 97.6425C155.084 91.1978 150.204 85.1374 144.581 79.5146C135.004 69.9371 121.911 65.6962 112.066 56.639C108.524 53.38 105.75 49.6604 103.29 45.5609C102.45 44.1609 101.747 40.7608 100.413 40.0938Z" fill="#353034" fill-rule="nonzero" opacity="1" stroke="none"/>
<path d="M69.0485 213.891C66.6241 216.315 64.4213 218.95 61.9988 221.372C58.9541 224.417 55.4475 226.815 52.5033 230.005C51.8747 230.685 47.9697 233.815 49.0503 234.896C50.5612 234.141 54.1738 234.386 55.6684 234.321C61.2117 234.08 66.2768 234.687 71.6382 235.759C81.3749 237.707 90.9286 241.232 99.5493 245.543C103.654 247.595 107.532 251.134 111.203 253.887C118.258 259.178 125.073 264.748 130.77 271.583C136.635 278.621 140.359 287.061 146.164 294.027C147.154 293.285 146.16 293.024 146.883 292.301C142.842 284.219 139.577 276.254 133.647 269.138C121.632 254.72 105.193 245.775 89.7661 238.061C83.4605 234.909 74.6964 232.909 67.6098 232.163C65.2513 231.914 58.817 232.857 57.6827 231.155C57.2653 230.529 61.6566 227.971 62.2865 227.415C67.1626 223.112 72.4749 219.523 77.537 215.473C75.9434 213.88 69.7196 214.562 69.0485 213.891Z" fill="#d269c1" fill-rule="nonzero" opacity="1" stroke="none"/>
<path d="M137.388 77.7882C133.972 81.2041 131.196 85.3843 128.18 89.154C124.227 94.0948 119.979 98.8342 116.095 103.829C113.046 107.749 110.392 112.265 106.887 115.77C106.388 116.27 104.837 116.579 104.153 116.921C102.287 117.855 100.44 119.061 98.6861 120.23C99.4051 120.949 99.5809 120.693 100.125 121.237C101.158 120.721 102.288 119.747 103.29 119.079C103.434 119.223 103.434 119.223 103.578 119.367C101.945 121 101.377 125.549 101.276 127.568C101.171 129.659 100.949 131.427 101.707 133.323C104.776 140.995 113.946 140.938 119.26 135.625C122.209 132.676 121.849 128.412 121.849 124.546C121.849 123.024 121.029 120.129 119.835 118.935C120.534 118.062 120.46 118.455 121.13 117.785C119.411 116.065 115.84 115.231 113.505 115.051C112.258 114.955 110.649 115.647 109.764 114.763C111.056 112.179 113.534 109.947 115.231 107.57C120.362 100.387 126.331 93.7766 131.633 86.7082C132.58 85.4451 137.843 78.4707 137.388 77.7882Z" fill="#353034" fill-rule="nonzero" opacity="1" stroke="none"/>
<path d="M198.533 145.84C199.919 147.226 200.441 155.078 200.691 157.205C201.9 167.478 201.619 178.658 197.238 187.418C195.617 190.66 193.336 194.09 190.908 197.058C190.394 197.686 189.04 198.931 189.757 199.648C193.58 197.099 196.993 193.908 200.116 190.584C209.039 181.085 213.841 171.52 218.531 159.795C219.464 157.462 219.999 148.314 218.531 146.847C217.925 147.251 216.943 152.762 216.517 154.04C214.891 158.917 213.209 163.678 210.906 168.284C210.257 169.582 209.218 172.238 208.029 173.031C206.925 173.767 207.452 171.076 207.453 171.017C207.544 165.407 207.597 159.795 207.597 154.184C207.597 151.101 207.141 148.002 206.878 144.976C206.868 144.864 206.912 142.044 206.158 141.667C205.606 141.391 204.465 142.586 204 142.818C202.558 143.539 200.747 143.76 199.252 144.401C198.738 144.621 198.987 145.385 198.533 145.84Z" fill="#b99632" fill-rule="nonzero" opacity="1" stroke="none"/>
<path d="M181.988 85.1256C180.985 86.129 186.003 91.259 186.304 92.4631C187.296 96.4318 190.529 100.463 192.634 103.973C195.89 109.398 198.877 115.163 201.554 120.518C206.257 129.923 207.997 144.239 208.316 154.616C208.393 157.109 208.322 159.607 208.46 162.097C208.548 163.68 208.784 165.26 208.748 166.845C208.736 167.378 208.23 169.06 208.748 169.578C209.873 168.735 210.98 166.261 211.338 164.831C212.005 162.16 213.473 159.205 214.503 156.63C214.625 156.324 215.145 155.522 215.078 155.191C214.677 153.183 215.078 150.78 215.078 148.573C215.078 146.764 214.327 145.137 213.927 143.538C212.197 136.614 211.351 129.04 208.748 122.532C205.021 113.215 198.645 103.792 191.771 95.7721C188.766 92.2666 185.737 87.8034 181.988 85.1256Z" fill="#9b559a" fill-rule="nonzero" opacity="1" stroke="none"/>
<path d="M140.841 5.13292C141.745 6.03709 144.253 5.75793 145.444 5.99615C148.634 6.63408 152.36 7.4581 155.803 8.44197C163.319 10.5894 170.967 13.2566 178.103 15.6356C181.338 16.7137 184.612 19.3137 187.743 21.1027C188.954 21.795 190.512 22.32 191.627 23.1169C206.451 33.705 221.975 45.3197 233.926 59.6603C239.364 66.187 243.544 73.7278 248.169 80.6656C250.061 83.5042 251.154 86.5645 253.204 89.2979C254.107 88.3952 250.979 82.8322 250.327 81.5288C246.363 73.6015 243.101 65.7562 237.666 58.5093C232.68 51.8608 226.39 45.9379 220.546 40.0938C217.159 36.7074 213.076 33.669 209.18 30.886C194.682 20.5307 179.519 12.2489 161.99 7.86648C156.854 6.58256 151.537 5.79348 146.308 4.98904C144.755 4.75014 142.009 3.96477 140.841 5.13292Z" fill="#dc89ce" fill-rule="nonzero" opacity="1" stroke="none"/>
<path d="M100.7 183.678C101.968 184.946 103.228 186.425 104.297 187.85C118.622 173.525 131.123 157.49 145.301 142.962C149.801 138.351 154.268 133.707 158.825 129.15C160.298 127.677 162.332 126.595 163.285 124.69C162.536 123.941 160.61 124.715 159.688 124.978C158.678 125.267 157.105 125.405 156.235 125.985C154.523 127.126 153.333 129.541 151.919 131.021C150.161 132.86 148.394 134.689 146.595 136.488C131.087 151.996 114.995 167.001 100.7 183.678Z" fill="#44c0d9" fill-rule="nonzero" opacity="1" stroke="none"/>
<path d="M92.068 83.6869C91.2277 84.5272 92.0556 88.4532 90.917 90.1611C89.7699 91.8818 87.0545 93.4871 86.3131 95.3405C85.3737 97.6892 83.5519 99.7977 82.5725 102.246C79.9763 108.737 77.0542 115.794 76.0982 122.964C73.7656 140.459 79.9824 156.053 85.1622 171.593C85.8891 173.773 87.5649 175.923 88.3273 178.211C90.0911 183.502 92.9954 188.953 96.0964 193.605C96.3494 193.984 98.5983 200.561 98.5422 200.655C98.2609 201.124 97.2906 201.46 97.5351 201.95C99.7671 206.413 103.944 210.841 107.175 214.61C107.318 214.466 107.318 214.466 107.462 214.322C105.422 210.242 102.993 206.392 100.988 202.381C99.174 198.753 98.4858 194.374 96.3842 190.871C95.1305 188.782 94.7394 186.164 93.5067 184.109C91.0185 179.962 89.5504 174.83 88.0396 170.298C86.0355 164.286 82.5219 158.248 81.2776 152.026C80.001 145.643 79.4073 139.144 79.4073 132.603C79.4073 128.174 80.3658 123.736 80.9899 119.367C81.3286 116.996 81.5336 114.267 82.4286 112.03C84.7084 106.33 87.6617 100.817 89.9099 95.1966C90.5778 93.527 91.3202 91.8006 92.068 90.305C92.3324 89.7762 93.3629 89.0827 93.3629 88.4347C93.3629 87.5618 92.8243 86.712 92.6435 85.9889C92.4594 85.2526 92.6366 84.2555 92.068 83.6869Z" fill="#9b559a" fill-rule="nonzero" opacity="1" stroke="none"/>
<path d="M167.025 189.72C166.172 188.867 165.584 189.574 164.723 188.713C165.296 188.14 166.181 187.691 166.881 187.131C165.441 185.69 161.132 186.057 159.256 185.836C155.911 185.442 152.802 186.267 149.473 186.267C148.019 186.267 146.558 185.466 145.013 185.404C142.391 185.299 139.576 185.849 136.956 185.98C135.901 186.032 134.844 186.046 133.791 186.124C133.026 186.18 128.324 186.94 128.324 187.706C128.324 189.926 135.855 193.625 137.963 194.468C141.929 196.054 149.31 197.838 153.214 197.058C157.894 196.122 162.888 192.479 167.025 189.72Z" fill="#9f3327" fill-rule="nonzero" opacity="1" stroke="none"/>
<path d="M97.5351 122.676C94.5937 125.618 92.0866 129.698 89.7661 133.179C89.3067 133.868 87.4216 135.886 87.608 136.632C87.9867 138.146 89.6691 138.981 90.7732 140.085C92.5684 141.88 95.4693 142.884 97.8229 143.825C106.776 147.407 118.361 150.11 126.741 143.825C128.29 142.663 130.732 142.712 132.064 141.379C131.782 140.815 131.067 140.557 130.913 139.941C130.454 138.102 128.538 132.207 126.741 131.308C126.201 131.848 126.315 133.026 125.878 133.754C124.756 135.623 123.542 137.817 121.849 139.509C114.96 146.399 101.862 144.134 97.5351 135.481C96.3242 133.059 95.9399 129.946 96.3842 127.28C96.5603 126.223 98.1628 123.304 97.5351 122.676Z" fill="#f1f1ef" fill-rule="nonzero" opacity="1" stroke="none"/>
<path d="M214.791 106.85C213.786 107.855 216.019 112.195 216.373 113.612C218.338 121.472 219.395 129.342 219.395 137.495C219.395 139.262 218.963 141.069 218.963 142.818C218.963 144.979 219.638 147.273 219.826 149.436C220.276 154.606 220.181 160.153 219.395 165.262C219.241 166.259 216.994 174.515 217.093 174.614C219.059 172.647 220.707 170.193 222.416 167.996C222.775 167.534 224.142 166.295 224.142 165.694C224.142 161.276 225.407 156.487 225.725 151.882C225.935 148.836 225.729 145.862 225.581 142.818C224.956 130.005 222.936 117.032 214.791 106.85Z" fill="#9b559a" fill-rule="nonzero" opacity="1" stroke="none"/>
<path d="M112.786 60.9552C111.906 61.8346 112.734 64.1316 112.786 65.2713C112.997 69.9213 112.639 74.2766 111.635 78.7953C109.071 90.3333 103.435 100.267 96.0964 109.44C95.3662 108.71 96.3225 107.272 96.3842 106.563C96.5462 104.699 96.6125 102.175 96.528 100.232C96.2354 93.5009 93.6899 87.1143 92.9312 80.6656C92.567 77.5694 92.9072 74.4292 92.7874 71.3139C92.781 71.1476 92.4687 70.7949 92.3557 70.7384C91.2262 70.1737 91.4142 74.5492 91.3486 75.6301C91.2877 76.6365 91.2048 77.6432 91.2048 78.6514C91.2048 81.1526 91.7984 83.7595 92.3557 85.9889C92.491 86.5299 93.1996 87.9076 92.9312 88.5785C92.3447 90.0448 91.4396 91.8319 90.6293 93.1824C83.6772 104.769 79.7402 118.872 79.2634 132.459C79.1911 134.521 79.1195 136.583 79.1195 138.646C79.1195 140.197 79.4858 147.357 80.4144 148.285C80.6302 148.07 80.6302 148.07 80.846 147.854C80.9899 147.998 80.9899 147.998 81.1338 148.141C82.6235 147.024 81.0597 146.275 81.7092 144.976C83.6022 141.19 87.4095 138.18 89.3344 134.33C88.7333 133.729 89.0656 134.02 88.3273 133.467C85.7967 135.997 83.6918 139.125 81.7092 142.099C80.7794 141.169 81.2925 138.841 81.1338 137.783C80.668 134.678 81.3708 131.452 81.5654 128.143C82.1244 118.639 84.4709 109.815 88.6151 101.527C89.9726 98.8119 91.1057 95.9703 92.3557 93.4702C92.7445 92.6928 92.6929 91.6943 93.3629 91.0244C94.3766 92.0381 94.1759 94.4136 94.37 95.7721C94.9479 99.8175 95.6625 105.058 94.0822 109.008C93.7311 109.886 91.9919 113.914 93.3629 114.188C94.6334 114.442 95.4905 112.68 96.3842 111.742C98.4343 109.589 100.127 106.963 101.851 104.548C108.405 95.3727 113.448 83.2279 113.937 71.7455C114.008 70.0679 114.08 68.3892 114.08 66.71C114.08 65.2079 113.954 61.8313 112.786 60.9552Z" fill="#4c3749" fill-rule="nonzero" opacity="1" stroke="none"/>
<path d="M267.448 251.729C260.423 258.754 251.956 264.344 244.86 271.44C237.523 278.777 233.078 287.507 229.897 297.049C232.127 297.121 232.127 297.121 234.357 297.193C236.457 290.894 239.946 286.192 243.997 280.791C251.613 270.636 260.991 262.3 270.325 253.743C269.462 252.664 268.484 252.42 267.448 251.729Z" fill="#d269c1" fill-rule="nonzero" opacity="1" stroke="none"/>
<path d="M206.878 27.5769C206.229 28.2257 206.605 27.8814 205.727 28.584C208.119 30.9768 211.279 32.7954 213.927 34.9144C218.359 38.4596 222.414 42.2503 226.444 46.2802C234.709 54.5452 240.763 62.6893 245.723 72.6088C246.844 74.8516 248.576 77.2589 249.176 79.6585C250.192 83.7217 253.648 87.4739 254.643 91.456C255.617 95.3509 258.324 99.2185 259.822 102.966C260.285 104.122 261.958 106.054 261.549 107.282C256.038 101.771 249.805 96.9765 244.284 91.456C240.436 87.6081 237.526 83.0874 234.069 78.9391C233.878 79.0351 233.686 79.131 233.494 79.2269C232.847 78.5795 232.847 78.5795 232.199 77.932C231.983 78.1478 231.983 78.1478 231.768 78.3637C231.954 78.7363 231.954 78.8543 231.768 79.2269C235.697 83.1561 238.917 87.9764 242.702 92.0315C247.595 97.2738 253.14 101.992 258.528 106.706C259.261 107.348 263.287 111.64 264.283 109.152C264.711 108.082 262.767 105.758 262.412 104.692C261.146 100.893 258.627 97.3637 257.377 93.6141C256.569 91.1907 254.674 89.0467 253.924 86.4205C252.711 82.1759 250.308 78.326 248.457 74.623C245.565 68.8407 242.831 62.2572 238.386 57.0706C234.232 52.2253 229.528 47.4853 225.006 42.8273C221.174 38.8814 216.977 34.6936 212.345 31.6053C210.536 30.3992 208.473 29.1724 206.878 27.5769Z" fill="#353034" fill-rule="nonzero" opacity="1" stroke="none"/>
<path d="M40.418 248.996C39.8713 249.269 38.3713 249.509 38.1161 250.147C37.6496 251.313 41.6638 258.369 42.2884 259.93C46.6288 270.781 54.1796 280.925 61.7111 289.711C62.0641 290.123 67.1852 297.173 67.3221 297.193C69.0786 297.444 70.8734 297.286 72.6453 297.193C72.7524 297.187 72.7412 297.001 72.7892 296.905C70.7715 294.887 69.0595 292.338 67.1782 290.143C59.5476 281.241 53.039 271.661 47.0361 261.656C45.8194 259.628 43.8648 257.171 43.2955 254.894C42.8752 253.213 41.9667 250.256 40.418 248.996Z" fill="#44c0d9" fill-rule="nonzero" opacity="1" stroke="none"/>
<path d="M133.647 73.7598C131.03 76.3766 129.153 80.2167 126.741 83.1114C120.429 90.6858 113.664 97.91 107.606 105.699C104.536 109.647 101.685 113.786 98.6861 117.785C97.218 119.742 96.3369 121.794 94.6577 123.683C95.2355 124.261 95.3463 124.084 95.8087 124.546C96.3842 124.043 96.3842 124.043 96.9596 123.539C97.1035 123.683 97.1035 123.683 97.2474 123.827C96.4658 125 96.2698 127.044 96.0964 128.431C94.8221 138.625 106.313 146.106 115.807 143.394C120.446 142.068 124.121 137.844 126.166 133.754C127.081 131.924 127.043 126.978 128.036 125.985C129.921 127.87 133.307 133.545 133.935 136.056C134.186 137.063 135.225 138.859 136.237 139.365C137.597 138.005 135.185 135.248 134.51 133.898C132.202 129.282 129.346 124.213 125.159 120.518C123.667 119.202 121.565 116.775 119.835 118.504C120.699 119.368 125.855 122.533 125.878 123.108C125.968 125.36 125.97 127.618 125.878 129.87C125.799 131.805 124.002 134.596 122.857 136.2C117.373 143.877 106.862 143.945 100.413 137.495C96.9125 133.995 96.3981 124.19 100.269 121.094C99.7921 120.617 99.3242 120.814 98.9739 120.23C98.7699 119.89 100.243 118.298 100.413 118.072C102.057 115.88 103.71 113.686 105.304 111.454C111.89 102.233 119.671 93.963 126.741 85.1256C128.89 82.4399 130.879 79.6385 132.784 76.7811C133.326 75.9673 134.573 74.6856 133.647 73.7598Z" fill="#4c3749" fill-rule="nonzero" opacity="1" stroke="none"/>
<path d="M131.777 77.7882C129.023 80.5416 127.001 84.4386 124.439 87.4276C115.474 97.887 106.34 108.461 98.6861 119.943C98.83 120.086 98.83 120.086 98.9739 120.23C101.662 118.439 105.673 117.416 107.894 115.195C110.92 112.168 113.444 108.058 115.951 104.548C119.205 99.9924 123.152 95.7625 126.741 91.456C128.923 88.8372 130.94 86.0632 133.071 83.3992C133.261 83.1621 135.526 80.8267 135.373 80.5217C134.779 79.3334 132.938 78.3691 131.777 77.7882Z" fill="#44c0d9" fill-rule="nonzero" opacity="1" stroke="none"/>
<path d="M146.595 291.582C147.004 291.377 146.807 291.514 147.171 291.15C143.134 283.077 140.193 275.151 134.222 267.987C121.606 252.847 104.733 244.25 88.3273 236.047C83.0994 233.433 74.2475 231.837 68.473 231.012C66.9802 230.798 60.8735 230.893 60.4162 230.436C61.8669 228.985 63.7634 228.047 65.3079 226.695C72.4108 220.48 80.0675 214.937 87.8957 209.719C87.5121 209.383 87.1819 208.974 86.7448 208.711C86.6158 208.634 86.1786 209.136 86.1693 209.143C84.6096 210.313 82.7391 211.162 81.1338 212.308C78.9392 213.876 77.0501 215.805 74.9473 217.488C71.4887 220.254 67.6197 222.414 64.3008 225.401C62.1945 227.296 59.2887 228.763 57.3949 230.868C57.3307 230.939 57.352 231.07 57.3949 231.155C58.4928 233.351 65.0608 232.053 67.4659 232.306C73.6529 232.958 84.4127 235.137 89.7661 238.349C95.2995 241.669 101.72 244.686 107.462 247.557C109.916 248.784 112.133 250.852 114.368 252.448C119.491 256.107 124.878 260.081 129.331 264.534C133.936 269.139 138.041 274.76 140.841 280.36C142.38 283.439 144.202 289.188 146.595 291.582Z" fill="#4c3749" fill-rule="nonzero" opacity="1" stroke="none"/>
<path d="M175.801 77.5004C175.514 77.7882 175.514 77.7882 175.226 78.0759C181.759 87.8756 188.22 97.4424 191.483 108.864C192.114 111.073 193.235 113.389 193.641 115.626C194.592 120.856 196.014 126.006 196.519 131.308C196.642 132.597 196.359 136.184 197.382 137.207C197.79 136.799 198.297 136.491 198.677 136.056C198.928 135.769 198.336 135.285 198.677 134.905C199.298 134.215 200.315 133.399 200.691 132.459C200.822 132.133 197.577 130.426 198.965 128.575C200.123 127.031 201.793 127.374 202.993 128.575C203.405 128.163 203.4 127.374 203.137 126.848C203.547 126.438 203.391 126.307 203.856 125.841C201.979 122.086 200.824 118.339 198.965 114.619C196.186 109.061 192.676 103.706 189.469 98.3618C188.287 96.3914 187.629 93.654 186.304 91.8876C185.85 91.2828 185.265 90.9718 184.865 90.305C182.711 86.7139 180.331 83.3003 177.816 79.9462C177.264 79.2108 176.624 77.9119 175.801 77.5004Z" fill="#353034" fill-rule="nonzero" opacity="1" stroke="none"/>
<path d="M160.839 102.246C159.174 103.911 157.939 106.256 156.523 108.145C152.836 113.061 149.323 117.987 146.164 123.252C145.651 124.107 141.407 129.148 143.286 129.726C144.808 130.194 150.331 128.206 152.063 127.712C153.009 127.441 154.978 126.292 155.803 126.705C157.326 125.182 160.684 125.631 162.565 124.69C162.709 124.834 162.709 124.834 162.853 124.978C150.07 137.761 137.273 150.544 125.302 164.111C120.786 169.23 116.694 174.779 112.066 179.793C108.684 183.458 104.67 186.7 101.564 190.584C104.183 193.204 103.715 188.207 105.592 189.145C113.383 181.354 119.905 172.408 127.317 164.255C135.748 154.981 144.324 145.904 153.07 136.919C156.578 133.315 160.164 129.825 163.716 126.273C164.226 125.763 164.888 124.711 164.579 123.971C163.908 122.359 161.015 123.387 159.832 123.683C156.767 124.449 153.806 125.549 150.768 126.417C148.948 126.937 146.856 127.15 145.157 127.999C145.013 127.856 145.013 127.856 144.869 127.712C147.366 125.215 149.101 121.377 150.912 118.36C154.112 113.026 157.962 108 161.414 102.822C161.126 102.534 161.126 102.534 160.839 102.246Z" fill="#50472e" fill-rule="nonzero" opacity="1" stroke="none"/>
<path d="M228.315 165.694C227.099 166.909 229.753 173.463 230.329 175.189C233.543 184.831 239.636 194.089 246.155 202.237C246.011 202.381 246.011 202.381 245.867 202.525C243.826 201.505 241.279 201.323 239.249 200.511C235.527 199.022 231.782 196.146 228.027 193.893C226.813 193.164 223.403 190.683 222.847 193.461C222.045 197.472 224.207 202.654 226.013 206.266C226.63 207.5 228.719 210.665 228.315 211.877C225.546 209.108 221.404 207.222 218.244 205.115C217.956 205.33 217.956 205.33 217.668 205.546C219.707 207.585 222.409 209.138 224.718 210.87C230.826 215.451 237.038 219.982 242.558 225.257C244.201 226.827 245.843 228.398 247.45 230.005C247.775 230.33 249.464 231.956 249.464 232.594C249.464 233.517 247.652 233.004 246.73 233.026C245.531 233.054 244.331 233.103 243.133 233.17C241.587 233.256 238.16 232.964 236.947 234.177C239.105 236.335 244.588 234.868 247.593 234.752C251.955 234.585 251.597 234.258 250.471 231.443C250.377 231.21 250.334 230.467 250.183 230.292C247.905 227.655 245.135 225.298 242.558 222.955C238.986 219.708 234.308 217.108 231.192 213.603C230.663 213.008 230.403 211.737 230.041 211.013C228.618 208.167 227.276 205.251 226.013 202.093C225.339 200.41 223.341 195.126 224.574 193.893C226.014 195.333 228.893 196.053 230.617 197.202C234.096 199.521 237.654 201.658 241.551 202.957C242.75 203.356 247.205 204.934 247.881 203.244C248.401 201.945 245.439 199.173 244.716 198.209C242.348 195.051 238.647 190.517 237.235 186.987C235.345 182.264 232.629 177.919 230.617 172.887C229.848 170.967 229.72 167.1 228.315 165.694Z" fill="#353034" fill-rule="nonzero" opacity="1" stroke="none"/>
<path d="M68.9047 214.035C69.9731 215.103 75.6056 213.83 77.3931 215.617C81.8422 211.168 87.9106 208.305 92.9312 204.539C93.8021 203.886 95.5858 203.11 96.2403 202.237C96.4462 201.963 95.677 201.294 95.5209 201.086C94.9599 200.338 91.3266 195.229 90.917 195.331C88.8943 195.837 86.4009 198.951 84.8744 200.223C79.4837 204.715 74.0614 209.275 68.9047 214.035Z" fill="#9b559a" fill-rule="nonzero" opacity="1" stroke="none"/>
<path d="M93.5067 90.1611C91.8546 91.8133 91.04 96.0947 89.7661 98.218C88.3838 100.522 87.6195 103.153 86.6009 105.699C83.3948 113.715 81.5844 121.26 81.2776 130.157C81.1795 133.002 79.4354 140.832 81.4215 142.818C82.3958 141.844 83.0419 140.61 83.8673 139.509C83.3123 138.954 83.4505 136.708 83.4357 136.344C83.3243 133.615 83.3372 131.235 83.4357 128.575C83.735 120.493 85.0501 115.275 88.3273 108.721C89.1418 107.092 89.4769 104.837 90.7732 103.541C92.6363 105.404 88.1567 121.661 94.37 114.619C94.7072 114.237 95.0414 113.852 95.3771 113.468C95.1612 113.181 95.1612 113.181 94.9454 112.893C94.5232 113.315 93.5159 114.638 92.9312 113.468C92.487 112.58 94.4763 109.628 94.6577 108.721C95.6004 104.007 95.3732 98.2725 94.37 93.7579C94.1312 92.6835 94.3888 91.0432 93.5067 90.1611Z" fill="#b99632" fill-rule="nonzero" opacity="1" stroke="none"/>
<path d="M37.5406 250.147C36.417 250.521 33.6925 251.378 33.0806 252.448C32.6673 253.172 35.9026 258.524 36.3896 259.498C40.3208 267.361 45.1631 274.951 50.4891 281.798C52.4201 284.281 54.2809 286.826 56.2439 289.28C57.8242 291.255 59.33 293.299 60.8478 295.322C61.0266 295.561 61.9251 297.175 62.1427 297.193C63.3416 297.289 65.2016 297.981 65.7395 296.905C63.7544 294.92 62.2897 292.14 60.4162 289.999C51.3096 279.592 41.4092 264.326 37.5406 250.147Z" fill="#d269c1" fill-rule="nonzero" opacity="1" stroke="none"/>
<path d="M171.485 127.712C169.55 129.079 165.011 137.871 165.011 140.085C165.011 140.324 165.784 141.146 165.874 141.236C170.776 146.137 181.024 147.71 187.311 147.71C188.497 147.71 197.295 146.845 196.087 144.832C195.121 143.221 190.756 145.264 189.038 145.264C184.948 145.264 180.725 143.277 177.672 140.66C174.908 138.291 174.146 135.839 173.068 132.603C172.735 131.606 172.054 127.31 171.485 127.712Z" fill="#f1f1ef" fill-rule="nonzero" opacity="1" stroke="none"/>
<path d="M215.366 129.726C215.654 130.014 215.654 130.014 215.942 130.301C216.377 129.866 216.37 129.298 216.805 128.863C218.958 131.015 217.741 124.767 217.668 124.259C217.085 120.177 216.387 115.956 215.078 112.03C214.351 109.846 213.794 107.602 213.064 105.412C212.941 105.043 212.04 103.288 212.201 102.966C212.851 101.665 213.089 102.877 212.92 101.527C212.636 99.2522 211.169 96.7301 210.187 94.765C208.153 90.6981 207.009 85.685 204.144 82.1043C201.481 78.776 198.928 75.7747 195.943 72.6088C195.64 72.2871 195.315 71.5181 194.936 71.7455C193.797 72.429 196.273 74.6567 196.663 75.6301C197.861 78.6247 199.654 81.5835 201.267 84.4063C201.936 85.5775 203.139 86.7127 203.569 88.0031C204.267 90.0977 205.627 91.9978 206.446 94.0457C207.632 97.0096 208.439 100.492 209.611 103.541C209.927 104.362 210.845 105.495 211.05 106.419C211.941 110.429 212.823 114.563 213.64 118.648C214.355 122.226 215.236 125.644 215.366 129.15C215.393 129.865 215.723 129.011 215.366 129.726Z" fill="#dc89ce" fill-rule="nonzero" opacity="1" stroke="none"/>
<path d="M146.308 71.6017C146.092 71.8175 146.092 71.8175 145.876 72.0333C147.038 74.357 149.104 76.5242 150.624 78.6514C152.847 81.7636 154.865 84.9757 156.523 88.2908C156.894 89.0341 157.693 89.7879 157.961 90.5928C159.149 94.1554 161.494 97.4094 162.853 100.808C163.098 101.419 162.894 102.206 163.141 102.822C164.092 105.2 166.235 107.104 167.169 109.44C167.828 111.087 169.04 113.612 170.334 114.907C171.592 113.649 169.049 105.734 168.464 103.685C165.137 92.0421 158.605 82.301 149.904 73.3281C149.287 73.946 147.006 72.0204 146.308 71.6017Z" fill="#d269c1" fill-rule="nonzero" opacity="1" stroke="none"/>
<path d="M103.722 118.648C102.306 119.12 99.8033 120.796 98.9739 121.957C98.6512 122.409 98.5928 123.675 98.3984 124.259C97.1551 127.989 96.4779 132.584 98.9739 135.912C102.922 141.177 107.858 142.929 114.368 142.387C118.806 142.017 127.08 133.814 125.878 129.007C125.791 128.659 122.151 124.46 121.849 124.259C120.864 125.244 121.423 127.044 121.562 128.431C121.628 129.096 124.151 129.3 124.151 131.452C124.151 132.946 121.842 134.034 120.842 133.035C119.113 134.764 118.037 136.955 115.807 138.07C108.172 141.888 101.276 136.618 101.276 128.863C101.276 126.484 101.947 123.971 102.715 121.669C103.002 120.806 104.18 119.335 103.722 118.648Z" fill="#a9742a" fill-rule="nonzero" opacity="1" stroke="none"/>
<path d="M153.645 294.171C154.873 293.353 155.698 291.092 156.523 289.855C159.256 285.755 161.094 281.362 164.004 277.482C166.726 273.853 170.322 271.165 173.499 267.987C178.274 263.212 182.658 258.78 188.03 254.75C197.127 247.928 208.142 243.311 218.963 240.219C222.907 239.093 226.787 237.76 230.76 236.766C232.096 236.433 235.383 236.316 236.228 235.472C237.175 235.945 241.529 238.641 242.27 238.493C242.704 238.406 242.932 237.906 243.277 237.63C242.554 236.666 241.259 236.405 240.256 235.903C239.135 235.343 238.07 234.45 236.947 233.889C236.255 233.543 234.101 234.298 233.35 234.465C229.499 235.32 225.779 236.546 221.984 237.63C206.877 241.946 192.836 248.227 180.693 258.635C175.674 262.937 171.447 267.981 166.594 272.447C161.635 277.009 159.063 283.031 155.659 288.704C155.124 289.597 152.91 293.436 153.645 294.171Z" fill="#4c3749" fill-rule="nonzero" opacity="1" stroke="none"/>
<path d="M138.395 75.9178C138.029 76.284 137.186 77.8172 137.388 78.2198C136.978 78.6293 135.661 79.9707 135.661 80.5217C135.661 80.6116 140.923 85.0755 141.128 85.2695C142.385 86.4582 143.646 87.6431 144.869 88.8663C145.364 89.361 145.953 89.286 146.452 89.7295C150.935 93.715 155.605 100.079 158.968 105.124C159.501 104.592 161.27 102.794 161.27 101.959C161.27 100.845 158.639 98.3032 157.961 97.3547C154.807 92.939 151.799 88.7777 148.034 84.8379C146.417 83.146 144.797 81.4571 143.142 79.8024C141.827 78.487 140.087 76.7642 138.395 75.9178Z" fill="#882076" fill-rule="nonzero" opacity="1" stroke="none"/>
<path d="M226.732 297.049C227.811 297.121 227.811 297.121 228.89 297.193C232.278 283.64 242.125 272.304 252.485 263.095C255.599 260.327 258.797 257.496 262.268 255.182C263.743 254.199 266.533 252.839 267.304 251.298C267.023 251.017 264.868 249.636 264.57 249.859C260.481 252.926 256.563 256.363 252.629 259.642C239.192 270.84 231.931 281.45 226.732 297.049Z" fill="#44c0d9" fill-rule="nonzero" opacity="1" stroke="none"/>
<path d="M178.823 120.806C177.083 122.546 174.158 123.681 172.924 125.841C172.022 127.419 173.393 130.702 173.931 132.316C176.074 138.745 180.673 142.782 187.455 143.825C189.312 144.111 192.928 144.36 194.792 142.962C195.442 142.475 193.616 139.086 193.066 138.646C192.837 138.462 190.641 139.34 190.332 139.365C188.129 139.549 185.477 139.5 183.57 138.07C178.071 133.946 177.062 127.671 179.254 121.094C179.038 120.95 179.038 120.95 178.823 120.806Z" fill="#a9742a" fill-rule="nonzero" opacity="1" stroke="none"/>
<path d="M218.1 250.003C215.188 252.915 212.028 258.98 210.187 262.663C209.612 263.813 207.622 266.24 207.885 267.555C208.124 268.75 214.382 269.087 214.791 270.72C215.39 273.117 214.516 275.148 213.64 277.338C213.392 277.957 212.156 279.936 212.345 280.503C212.549 281.116 213.294 281.378 213.784 281.798C216.109 280.248 218.472 274.064 220.402 271.583C220.718 271.177 222.908 268.978 222.416 268.274C221.141 266.454 214.425 265.354 214.791 263.527C215.472 260.118 216.824 256.481 217.812 253.024C218.07 252.12 218.864 250.512 218.1 250.003Z" fill="#f2ea29" fill-rule="nonzero" opacity="1" stroke="none"/>
<path d="M154.94 126.992C149.793 132.139 144.253 136.816 139.114 141.955C128.806 152.263 118.482 162.59 108.469 173.175C105.679 176.125 102.833 179.762 99.5493 181.951C98.776 182.467 97.1517 185.347 96.528 184.973C92.8326 182.755 93.8105 178.083 91.2048 175.477C90.3822 176.3 91.1074 176.869 90.4854 177.491C91.918 180.356 92.9194 183.942 94.37 186.843C95.0618 188.227 95.2894 190.352 96.3842 191.447C97.3544 190.477 98.068 189.465 99.2616 188.569C98.7692 187.954 98.2603 187.355 97.8229 186.699C104.968 178.958 112.081 171.003 119.548 163.536C126.128 156.956 132.865 150.606 139.258 143.825C143.406 139.426 147.93 135.441 152.206 131.165C153.253 130.118 154.704 128.616 155.372 127.28C155.156 127.136 155.156 127.136 154.94 126.992Z" fill="#4c3749" fill-rule="nonzero" opacity="1" stroke="none"/>
<path d="M112.354 58.3655C111.562 59.1576 111.962 61.1604 113.073 61.5307C113.073 62.6955 113.056 65.0021 113.649 65.9907C116.772 71.1954 126.314 73.8781 131.201 77.7882C132.179 76.8107 132.743 75.476 133.503 74.3352C133.719 74.551 133.719 74.551 133.935 74.7669C135.904 72.7974 131.663 70.8429 130.05 69.8752C123.986 66.2365 118.091 62.6682 112.354 58.3655Z" fill="#b99632" fill-rule="nonzero" opacity="1" stroke="none"/>
<path d="M126.453 3.11871C127.899 4.5641 132.472 4.26969 133.935 4.26969C141.234 4.26969 148.339 5.41064 155.515 6.71551C174.189 10.1106 190.315 18.4533 205.727 28.7279C206.11 28.4401 206.494 28.1524 206.878 27.8647C203.056 24.0426 197.837 22.2209 193.354 19.2324C189.894 16.9259 186.147 15.2561 182.419 13.7652C177.24 11.6935 172.286 9.47614 167.025 7.72261C160.797 5.64642 154.087 5.03868 147.746 3.98194C146.506 3.77524 145.443 3.0703 144.293 2.6871C142.566 2.11131 144.193 3.02649 142.855 3.26258C142.076 3.40004 141.343 2.7113 140.553 2.6871C135.999 2.54769 131.439 2.54769 126.885 2.6871C126.682 2.69332 126.597 2.97484 126.453 3.11871Z" fill="#4c3749" fill-rule="nonzero" opacity="1" stroke="none"/>
<path d="M105.592 188.857C104.47 189.979 103.309 191.275 102.427 192.598C104.3 194.739 106.968 196.502 109.333 197.921C115.622 201.695 121.994 205.72 128.18 209.431C129.461 210.199 136.395 213.876 137.1 213.172C133.792 209.864 129.325 207.628 125.59 204.827C118.729 199.681 111.878 194.75 105.592 188.857Z" fill="#b99632" fill-rule="nonzero" opacity="1" stroke="none"/>
<path d="M190.189 200.799C190.404 201.086 190.404 201.086 190.62 201.374C190.764 201.23 190.764 201.23 190.908 201.086C193.62 202.442 199.331 204.186 201.411 206.266C203.994 204.199 206.937 202.293 209.611 200.511C207.509 198.408 203.133 196.711 200.403 195.619C199.921 195.426 198.267 194.139 197.814 194.468C195.153 196.403 192.962 198.949 190.189 200.799Z" fill="#9b559a" fill-rule="nonzero" opacity="1" stroke="none"/>
<path d="M208.748 262.376C209.493 263.121 209.106 262.788 209.899 263.383C210.745 262.537 211.27 261.146 211.913 260.074C213.766 256.986 215.673 253.858 217.668 250.866C218.428 251.626 217.535 253.423 217.236 254.319C216.332 257.033 215.861 259.78 215.078 262.52C214.964 262.92 214.43 263.451 214.503 263.814C215.031 266.457 220.497 266.1 222.128 268.274C222.672 269 219.626 272.064 219.251 272.591C216.179 276.892 213.703 281.703 210.762 286.114C210.153 285.506 211.127 284.753 210.331 283.956C209.795 284.492 207.851 290.295 209.036 289.999C210.785 289.562 212.405 286.959 213.352 285.539C215.828 281.826 218.253 278.137 220.546 274.317C221.388 272.913 223.546 270.495 223.711 268.85C224.003 265.926 220.876 265.644 218.819 264.821C218.293 264.611 216.021 264.359 216.229 263.527C217.191 259.68 218.53 255.907 219.395 252.017C219.586 251.154 220.503 248.654 219.97 247.988C218.714 246.418 216.937 249.3 216.229 250.29C213.568 254.016 210.794 258.284 208.748 262.376Z" fill="#4c3749" fill-rule="nonzero" opacity="1" stroke="none"/>
<path d="M95.5209 110.591C96.6679 109.444 98.1072 107.864 98.83 106.419C97.5748 105.163 98.6382 102.87 98.6861 101.095C98.7496 98.7463 98.7273 96.3952 98.6861 94.0457C98.5729 87.5901 96.1537 81.6139 94.6577 75.6301C94.4728 74.8904 94.007 71.3023 93.3629 71.0262C93.2292 70.9689 92.5146 70.931 92.4996 71.3139C92.4075 73.662 92.4635 76.014 92.4996 78.3637C92.55 81.6412 93.5097 84.6356 94.2261 87.8592C95.3702 93.0076 96.4312 98.0525 96.2403 103.397C96.2026 104.453 96.2274 105.515 96.0964 106.563C96.0153 107.212 94.9155 109.985 95.5209 110.591Z" fill="#9b559a" fill-rule="nonzero" opacity="1" stroke="none"/>
<path d="M96.8158 190.728C96.528 191.015 96.528 191.015 96.2403 191.303C97.6888 194.2 98.1362 197.676 99.8371 200.511C102.158 204.38 104.385 208.744 106.455 212.884C106.311 213.028 106.311 213.028 106.167 213.172C101.431 208.435 97.9459 202.113 93.9383 196.77C93.3629 197.274 93.3629 197.274 92.7874 197.777C94.0044 198.994 94.9196 200.572 95.9525 201.95C93.8679 204.729 89.6558 206.915 86.7448 208.855C87.0805 209.191 87.3448 209.618 87.7519 209.862C88.0148 210.02 89.9238 208.485 90.1977 208.28C92.4027 206.626 94.5241 204.916 96.8158 203.388C99.0965 205.669 100.697 208.779 102.715 211.301C103.558 212.356 104.414 213.449 105.304 214.466C105.372 214.544 109.857 220.385 110.34 217.488C110.552 216.215 108.84 213.981 108.182 212.884C105.786 208.89 103.882 204.594 101.42 200.655C101.169 200.253 101.117 199.157 100.988 198.64C100.382 196.216 98.8141 191.727 96.8158 190.728Z" fill="#353034" fill-rule="nonzero" opacity="1" stroke="none"/>
<path d="M238.961 97.4986C237.329 99.1304 238.666 100.495 239.249 102.534C240.502 106.921 241.71 111.778 241.839 116.346C241.924 119.366 242.029 122.388 241.982 125.41C241.852 133.899 238.483 141.617 234.789 149.005C233.567 151.448 231.621 153.759 230.329 156.342C230.821 156.834 230.588 157.033 231.192 157.637C232.783 156.364 233.789 153.882 234.645 152.17C236.984 147.491 239.349 143.668 240.975 138.79C241.29 137.846 242.915 134.037 242.414 133.035C243.366 132.083 243.16 128.164 243.277 126.992C243.635 123.412 243.565 119.8 243.565 116.202C243.565 111.116 241.908 105.763 240.4 101.239C239.987 100 239.95 98.487 238.961 97.4986Z" fill="#353034" fill-rule="nonzero" opacity="1" stroke="none"/>
<path d="M229.322 75.3423C230.602 76.8357 232.073 78.1551 233.494 79.5146C233.686 79.4187 233.878 79.3228 234.069 79.2269C237.008 82.1659 239.182 86.0423 241.982 89.154C246.241 93.8863 250.947 98.1147 255.65 102.39C257.483 104.057 259.763 106.749 261.981 107.857C262.66 107.178 261.275 104.994 260.686 104.404C260.542 104.476 260.542 104.476 260.398 104.548C256.549 100.7 252.499 97.1009 248.888 93.0386C244.925 88.5804 241.464 83.4292 236.947 79.5146C236.142 78.8173 230.476 74.1878 229.322 75.3423Z" fill="#9b559a" fill-rule="nonzero" opacity="1" stroke="none"/>
<path d="M85.8815 151.163C86.5326 152.465 86.3755 154.309 87.0325 155.623C88.4195 158.397 88.8688 161.758 90.6293 164.399C91.8001 163.618 91.9051 161.601 92.6435 160.371C94.4347 157.385 95.2824 152.696 97.8229 150.156C97.1966 149.216 95.3497 149.903 94.37 150.012C92.7004 150.197 86.8188 150.226 85.8815 151.163Z" fill="#f8c52c" fill-rule="nonzero" opacity="1" stroke="none"/>
<path d="M259.535 252.88C261.099 252.098 262.666 250.841 264.139 249.859C263.352 248.875 262.188 248.38 261.117 247.845C257.362 245.967 253.406 244.277 249.608 242.377C249 242.074 248.435 241.506 247.737 241.227C247.488 241.127 245.93 241.375 245.867 241.37C245.514 241.343 241.57 239.414 241.982 240.651C242.459 242.082 245.508 243.475 246.73 244.392C249.101 246.17 251.944 249.355 254.643 250.434C256.138 251.032 258.371 251.717 259.535 252.88Z" fill="#dc89ce" fill-rule="nonzero" opacity="1" stroke="none"/>
<path d="M110.34 66.1345C109.634 66.8405 110.002 71.0395 109.764 72.4649C109.714 72.7678 109.232 72.8803 109.189 73.1843C108.677 76.7662 108.33 80.3652 107.175 83.8308C106.059 87.1761 104.742 90.4866 103.434 93.7579C103.114 94.5582 102.081 96.5778 102.715 97.2109C104.114 95.9859 105.422 94.671 106.743 93.6141C107.07 93.3526 107.429 91.8989 107.606 91.456C109.025 87.9081 110.415 84.3911 111.347 80.6656C111.741 79.0877 113.178 75.303 111.922 74.0475C112.393 73.1065 111.188 66.7003 110.34 66.1345Z" fill="#dc89ce" fill-rule="nonzero" opacity="1" stroke="none"/>
<path d="M165.73 92.7508C165.49 92.9911 168.556 101.593 169.183 102.534C170.172 101.545 172.21 104.553 172.924 105.268C176.355 108.698 178.872 113.614 181.556 117.641C182.487 117.175 183.969 117.386 184.721 116.634C183.644 114.479 181.943 112.542 180.549 110.591C176.042 104.28 170.831 98.5798 165.73 92.7508Z" fill="#b99632" fill-rule="nonzero" opacity="1" stroke="none"/>
<path d="M91.2048 166.269C90.3852 167.089 90.3905 168.378 89.4783 169.291C88.7426 168.739 88.9329 168.897 88.1835 169.147C88.6493 170.078 88.676 169.871 89.4783 171.017C89.8778 171.588 90.2014 172.906 90.3415 173.607C91.0163 176.98 93.9396 183.042 96.528 185.26C97.2508 185.88 98.0325 184.082 98.6861 183.39C99.254 182.789 99.6275 182.449 100.125 181.951C97.7726 179.599 97.1495 177.152 95.8087 174.47C95.1874 173.227 93.9613 172.093 93.5067 170.729C93.1429 169.638 92.4343 166.884 91.2048 166.269Z" fill="#882076" fill-rule="nonzero" opacity="1" stroke="none"/>
<path d="M99.981 43.5467C101.193 42.3349 99.1504 37.5237 98.83 35.9215C97.7687 30.6149 96.253 23.2918 99.8371 18.513C103.573 13.5319 107.316 9.30602 113.073 7.00325C115.155 6.1704 122.822 5.16726 123.576 4.41356C123.432 4.26969 123.432 4.26969 123.288 4.12581C123.432 3.98194 123.432 3.98194 123.576 3.83807C122.414 2.67641 121.209 3.46525 119.835 3.6942C116.09 4.31848 113.092 5.19556 109.764 6.85938C106.469 8.50699 104.104 10.6974 101.42 14.053C96.621 20.0513 95.5508 24.3031 96.9596 32.7563C97.3732 35.2375 98.1653 41.731 99.981 43.5467Z" fill="#4c3749" fill-rule="nonzero" opacity="1" stroke="none"/>
<path d="M91.4925 140.085C88.3827 143.194 85.9909 147.397 82.2847 149.868C82.6931 150.276 82.8739 151.029 83.4357 151.163C86.6579 151.93 91.0222 150.799 94.2261 150.443C95.1829 150.337 96.4605 149.989 97.3913 150.3C95.7296 155.284 91.6217 159.998 90.3415 165.118C90.1251 165.984 87.8693 168.918 89.1906 169.578C89.8927 169.929 90.7061 167.842 90.917 167.42C92.01 165.234 92.7041 162.524 94.0822 160.227C95.6305 157.646 96.8523 154.687 98.2545 151.882C98.6071 151.177 99.539 149.758 98.9739 149.005C97.3942 146.899 86.8402 150.97 85.1622 149.292C87.0097 147.445 89.1716 145.868 90.6293 143.681C91.1138 142.955 92.5292 141.409 91.7803 140.66C91.8522 140.516 91.8522 140.516 91.9241 140.372C91.7083 140.229 91.7083 140.229 91.4925 140.085Z" fill="#4c3749" fill-rule="nonzero" opacity="1" stroke="none"/>
<path d="M221.409 208.136C220.294 209.251 221.812 209.171 220.977 210.006C221.988 212.029 224.784 213.82 226.444 215.33C230.539 219.052 235.259 222.242 239.68 225.401C240.958 226.313 244.474 229.959 245.291 229.141C244.839 228.237 244.053 227.342 243.421 226.552C243.637 226.336 243.637 226.336 243.853 226.12C239.033 221.3 233.602 217.245 228.171 213.172C225.929 211.49 223.816 209.58 221.409 208.136Z" fill="#dc89ce" fill-rule="nonzero" opacity="1" stroke="none"/>
<path d="M169.615 72.0333C168.55 72.7298 171.352 76.0174 171.773 77.0688C173.212 80.6675 175.616 84.4154 177.816 87.7153C178.502 88.7457 178.88 90.1755 179.542 91.1682C181.252 93.7335 182.266 97.047 183.57 99.6567C184.103 100.721 184.951 101.325 185.153 102.534C185.227 102.977 186.937 106.246 187.167 106.131C188.297 105.566 185.484 98.5422 185.009 97.3547C183.993 94.8136 182.67 91.6771 181.269 89.154C180.533 87.8294 179.302 86.5801 178.679 85.1256C177.627 82.6705 175.724 79.4485 173.931 77.3565C173.367 76.6986 170.013 71.7729 169.615 72.0333Z" fill="#dc89ce" fill-rule="nonzero" opacity="1" stroke="none"/>
<path d="M127.748 125.266C126.644 126.37 127.428 129.791 126.597 131.452C129.364 134.219 129.835 138.395 131.92 141.523C133.226 140.653 135.278 140.324 136.381 139.221C132.551 135.392 131.849 129.366 127.748 125.266Z" fill="#b3b4bb" fill-rule="nonzero" opacity="1" stroke="none"/>
<path d="M161.414 102.534C160.49 103.458 159.836 104.613 159.112 105.699C161.367 107.954 163.079 111.412 164.004 114.188C164.295 115.06 165.139 115.723 165.443 116.634C165.732 117.503 166.043 119.026 166.881 119.655C166.958 119.712 167.076 119.678 167.169 119.655C167.203 119.646 169.67 116.502 169.759 116.058C169.865 115.528 168.276 113.933 168.032 113.324C166.699 109.992 164.026 105.146 161.414 102.534Z" fill="#b99632" fill-rule="nonzero" opacity="1" stroke="none"/>
<path d="M82.4286 151.307C83.6634 152.541 83.8307 155.423 84.2989 157.062C85.0309 159.623 86.0114 162.12 86.7448 164.687C87.084 165.874 87.4778 168.722 88.6151 169.291C89.7908 168.115 89.6858 165.774 90.917 164.543C89.1129 161.837 88.7515 158.341 87.3202 155.479C86.7185 154.275 87.0341 152.316 86.1693 151.163C85.2847 149.983 83.3144 150.421 82.4286 151.307Z" fill="#b99632" fill-rule="nonzero" opacity="1" stroke="none"/>
<path d="M238.098 98.6496C238.673 98.0741 238.673 98.0741 239.249 97.4986C238.334 96.5837 237.933 94.1276 237.522 92.8947C236.265 89.1233 233.837 85.5238 232.055 81.9604C231.26 80.3709 229.75 78.7405 231.48 77.3565C229.25 74.8486 226.689 72.6335 224.142 70.4507C223.677 70.0522 222.023 67.9264 221.409 69.1559C220.952 70.0701 224.821 72.5676 225.293 73.0404C225.601 73.3483 225.57 74.0813 225.869 74.4791C227.255 76.3272 228.417 78.3898 229.609 80.3779C231.793 84.0174 233.637 88.0725 235.22 92.0315C235.975 93.9179 236.677 97.2286 238.098 98.6496Z" fill="#4c3749" fill-rule="nonzero" opacity="1" stroke="none"/>
<path d="M81.7092 146.99C81.2992 147.4 81.4967 147.165 81.1338 147.71C80.9899 147.566 80.9899 147.566 80.846 147.422C79.881 148.387 80.3056 151.342 81.2776 152.314C80.9415 152.986 82.9499 157.618 83.2918 158.644C84.8233 163.238 87.3037 167.786 88.4712 172.456C88.8494 173.969 89.4667 176.473 90.6293 177.635C91.4465 176.818 90.6268 176.343 91.4925 175.477C88.6752 169.843 86.9735 163.79 84.8744 157.493C84.3825 156.017 82.6622 152.164 83.4357 150.875C82.2531 149.692 82.7731 148.054 81.7092 146.99Z" fill="#353034" fill-rule="nonzero" opacity="1" stroke="none"/>
<path d="M263.707 273.454C263.491 273.67 263.491 273.67 263.275 273.885C266.241 276.851 267.837 283.887 268.599 287.697C269.006 289.733 268.976 294.117 270.469 295.61C271.022 295.057 272.569 294.643 272.915 293.884C273.216 293.221 272.129 289.33 271.764 288.416C269.631 283.085 268.049 277.796 263.707 273.454Z" fill="#525252" fill-rule="nonzero" opacity="1" stroke="none"/>
<path d="M153.214 168.715C153.815 169.316 153.482 169.025 154.221 169.578C152.367 171.432 147.435 171.179 145.301 169.578C144.241 168.784 141.118 164.846 140.265 166.125C139.867 166.723 143.541 170.132 144.437 170.729C148.139 173.197 153.602 172.363 157.098 169.866C158.881 168.593 160.735 166.494 159.544 164.111C159.688 163.967 159.688 163.967 159.832 163.823C159.413 163.405 158.852 163.523 158.393 163.248C156.257 161.967 156.748 165.744 155.659 166.989C154.851 167.913 153.961 167.967 153.214 168.715Z" fill="#835e31" fill-rule="nonzero" opacity="1" stroke="none"/>
<path d="M87.608 136.488C87.0049 137.091 83.5796 141.323 83.5796 141.955C83.5796 143.183 84.3928 144.486 84.5867 145.552C84.8561 147.034 84.2765 146.68 85.1622 147.566C87.3792 145.349 89.7428 142.997 91.4925 140.372C90.1948 139.075 88.9001 137.78 87.608 136.488Z" fill="#44c0d9" fill-rule="nonzero" opacity="1" stroke="none"/>
<path d="M108.182 122.82C104.024 124.603 105.399 130.689 110.052 130.301C113.626 130.004 113.977 123.056 110.196 122.82C109.526 122.778 108.799 122.555 108.182 122.82Z" fill="#f1f1ef" fill-rule="nonzero" opacity="1" stroke="none"/>
<path d="M164.867 189.145C166.557 190.835 168.155 188.803 169.471 187.706C169.211 187.316 167.845 186.555 167.313 186.555C166.584 186.555 165.104 188.006 164.579 188.426C163.41 189.361 160.432 189.476 158.968 189.72C155.205 190.348 151.557 189.864 147.746 189.864C145.331 189.864 143.341 190.227 140.984 189.864C138.345 189.458 135.589 187.787 132.784 188.138C132.468 188.177 132.418 188.661 132.496 188.857C132.746 189.482 135.433 189.347 136.237 189.577C138.978 190.36 141.333 191.159 144.293 191.159C147.691 191.159 149.377 191.07 152.926 191.159C156.86 191.257 161.253 190.952 164.867 189.145Z" fill="#7a2115" fill-rule="nonzero" opacity="1" stroke="none"/>
<path d="M203.281 127.568C203.065 127.784 203.065 127.784 202.849 127.999C201.799 127.299 201.411 130.589 200.979 131.452C200.439 132.532 198.464 134.099 198.245 135.193C198.095 135.942 198.45 137.181 198.533 137.927C198.562 138.187 198.262 139.733 198.965 140.085C199.3 140.252 201.956 137.669 202.13 137.495C204.752 134.872 204.794 132.721 203.856 129.438C203.668 128.78 203.799 128.086 203.281 127.568Z" fill="#835e31" fill-rule="nonzero" opacity="1" stroke="none"/>
<path d="M208.892 262.376C208.14 263.127 206.048 268.192 206.734 268.706C208.741 270.212 213.586 269.74 213.352 273.022C213.144 275.936 211.826 279.039 210.906 281.798C210.586 282.759 209.771 283.972 210.618 284.82C211.88 283.558 214.857 275.465 215.222 273.454C215.411 272.415 215.476 271.058 214.791 270.145C213.505 268.431 209.808 269.047 208.173 267.411C208.856 266.044 209.332 264.66 210.043 263.239C209.316 262.512 209.71 262.785 208.892 262.376Z" fill="#353034" fill-rule="nonzero" opacity="1" stroke="none"/>
<path d="M185.441 123.539C180.552 124.458 181.563 130.877 186.88 130.877C187.549 130.877 188.783 129.549 189.038 129.294C190.691 127.641 187.011 123.244 185.441 123.539Z" fill="#dddedd" fill-rule="nonzero" opacity="1" stroke="none"/>
<path d="M205.007 135.193C203.262 135.739 202.873 138.19 201.554 139.509C200.777 140.286 199.384 140.872 198.821 141.811C198.541 142.277 198.699 144.504 199.252 144.689C199.94 144.918 206.176 142.207 206.446 141.667C206.773 141.013 206.015 138.722 205.871 137.927C205.707 137.027 205.921 134.907 205.007 135.193Z" fill="#b3b4bb" fill-rule="nonzero" opacity="1" stroke="none"/>
<path d="M101.132 199.504C102.692 198.723 104.422 197.742 105.88 196.77C105.036 195.716 103.986 194.954 103.002 194.037C101.713 192.833 100.616 191.425 99.2616 190.296C98.8153 189.924 97.5749 190.927 97.679 191.447C97.9607 192.855 100.21 198.582 101.132 199.504Z" fill="#9b559a" fill-rule="nonzero" opacity="1" stroke="none"/>
<path d="M36.9651 281.654C33.2696 285.35 31.0325 292.225 28.7644 296.761C29.5174 297.514 30.8648 297.193 31.9296 297.193C33.2187 292.036 35.0173 286.845 37.3967 282.086C37.1809 281.87 37.1809 281.87 36.9651 281.654Z" fill="#525252" fill-rule="nonzero" opacity="1" stroke="none"/>
<path d="M119.979 118.36C119.763 118.576 119.763 118.576 119.548 118.792C120.649 120.444 120.638 122.758 121.562 124.259C122.077 125.097 122.961 125.648 123.576 126.417C124.452 127.512 125.028 129.308 125.878 130.157C125.974 130.062 126.16 130.005 126.166 129.87C126.258 127.618 126.258 125.36 126.166 123.108C126.139 122.445 120.918 118.986 119.979 118.36Z" fill="#835e31" fill-rule="nonzero" opacity="1" stroke="none"/>
<path d="M190.908 102.534C190.764 102.678 190.764 102.678 190.62 102.822C191.956 105.493 192.787 108.463 193.641 111.454C193.959 112.565 194.101 114.209 194.649 115.195C195.031 115.884 197.879 116.468 198.677 116.202C197.159 113.167 195.526 110.135 193.641 106.994C192.751 105.51 192.142 103.768 190.908 102.534Z" fill="#b99632" fill-rule="nonzero" opacity="1" stroke="none"/>
<path d="M134.654 73.0404C133.499 74.1958 132.648 76.4084 131.633 77.932C132.632 78.9318 134.111 79.6271 135.23 80.5217C139.494 77.6789 138.82 75.1231 134.654 73.0404Z" fill="#3b92ac" fill-rule="nonzero" opacity="1" stroke="none"/>
<path d="M247.018 239.068C246.37 239.716 246.37 239.716 245.723 240.363C247.863 242.503 252.9 244.531 255.794 245.255C256.263 245.372 258.201 246.785 258.672 246.55C259.188 246.291 259.504 245.745 259.966 245.399C259.332 244.764 258.306 244.562 257.521 244.248C255.307 243.362 253.482 241.799 251.334 241.083C250.049 240.654 247.988 240.039 247.018 239.068Z" fill="#191818" fill-rule="nonzero" opacity="1" stroke="none"/>
<path d="M271.476 284.1C271.309 284.267 270.54 285.042 270.469 285.395C270.29 286.289 271.54 287.919 271.764 288.704C272.163 290.103 272.305 291.732 272.627 293.02C273.086 294.855 268.954 294.594 269.894 296.473C269.533 296.834 269.391 296.688 269.03 297.049C270.517 297.097 272.005 297.28 273.49 297.193C274.431 297.137 274.265 295.4 274.21 294.459C274.092 292.454 273.951 287.87 272.483 286.402C272.555 286.258 272.555 286.258 272.627 286.114C272.225 285.712 272.28 285.336 271.908 284.964C271.98 284.82 271.98 284.82 272.052 284.676C271.764 284.388 271.764 284.388 271.476 284.1Z" fill="#4c3749" fill-rule="nonzero" opacity="1" stroke="none"/>
<path d="M100.7 183.534C99.669 184.565 98.6014 185.56 97.5351 186.555C98.3704 187.808 99.4519 188.855 100.413 190.008C102.052 191.976 103.075 189.268 104.441 187.706C103.113 186.378 102.025 184.858 100.7 183.534Z" fill="#3b92ac" fill-rule="nonzero" opacity="1" stroke="none"/>
<path d="M94.8016 123.683C91.7225 126.762 90.6089 130.377 88.1835 133.61C88.8812 134.308 88.5332 134.035 89.1906 134.474C91.9945 131.67 93.9046 127.834 96.0964 124.546C95.431 123.881 95.4719 124.13 94.8016 123.683Z" fill="#525252" fill-rule="nonzero" opacity="1" stroke="none"/>
<path d="M83.7234 141.955C81.8644 143.814 80.3238 147.619 82.5725 149.868C83.4738 149.042 84.3777 148.218 85.306 147.422C83.9837 146.1 85.1123 143.344 83.7234 141.955Z" fill="#3b92ac" fill-rule="nonzero" opacity="1" stroke="none"/>
<path d="M101.851 201.374C102.241 200.984 101.981 200.701 102.427 200.367C104.087 199.121 107.233 199.387 108.326 197.202C108.252 197.129 107.354 196.051 106.887 196.051C105.613 196.051 98.7866 199.842 101.851 201.374Z" fill="#191818" fill-rule="nonzero" opacity="1" stroke="none"/>
<path d="M200.691 132.316C201.828 131.179 201.678 129.192 202.418 127.712C200.399 125.693 195.715 129.828 200.691 132.316Z" fill="#525252" fill-rule="nonzero" opacity="1" stroke="none"/>
<path d="M101.707 190.44C101.125 191.022 101.044 191.479 100.7 192.166C102.245 193.711 104.816 197.671 107.031 196.195C105.734 194.898 103.799 194.044 102.715 192.598C103.266 192.046 103.072 192.255 103.865 191.303C104.388 190.676 104.938 190.07 105.448 189.433C105.692 189.127 105.378 188.424 105.016 188.713C103.65 189.806 103.29 192.022 101.707 190.44Z" fill="#353034" fill-rule="nonzero" opacity="1" stroke="none"/>
<path d="M121.849 128.431C121.125 128.385 121.604 129.865 121.562 130.589C121.527 131.175 120.532 132.679 120.698 133.179C121.293 134.961 125.868 132.221 124.151 130.014C123.381 129.023 122.935 128.5 121.849 128.431Z" fill="#c1975b" fill-rule="nonzero" opacity="1" stroke="none"/>
<path d="M192.922 138.79C193.966 139.834 193.893 141.774 194.936 142.818C195.52 142.527 196.152 142.322 196.663 141.811C197.301 141.173 195.566 136.146 192.922 138.79Z" fill="#835e31" fill-rule="nonzero" opacity="1" stroke="none"/>
<path d="M212.489 280.36C211.719 281.129 209.705 286.64 210.187 287.122C210.676 286.795 214.194 282.028 213.927 281.654C213.631 281.24 213.203 280.928 212.489 280.36Z" fill="#cdc829" fill-rule="nonzero" opacity="1" stroke="none"/>
<path d="M99.1177 188.426C98.5955 188.948 94.9244 191.573 97.8229 191.159C98.2217 191.102 98.8536 190.502 99.2616 190.584C99.9607 190.723 100.227 191.633 100.7 192.166C101.303 191.765 101.115 191.464 101.564 191.015C100.722 190.174 99.9585 189.266 99.1177 188.426Z" fill="#191818" fill-rule="nonzero" opacity="1" stroke="none"/>
<path d="M122.857 3.40646C123.072 3.62226 123.072 3.62226 123.288 3.83807C123.144 3.98194 123.144 3.98194 123 4.12581C123.974 5.09973 127.727 5.01029 128.755 3.98194C128.344 3.57094 127.46 3.21436 127.46 2.6871C126.642 2.6871 123.688 2.57495 122.857 3.40646Z" fill="#353034" fill-rule="nonzero" opacity="1" stroke="none"/>
<path d="M196.951 142.962C196.466 143.447 195.778 143.698 195.224 144.113C195.662 144.551 195.728 145.588 196.231 145.84C198.104 146.776 197.727 143.738 196.951 142.962Z" fill="#b3b4bb" fill-rule="nonzero" opacity="1" stroke="none"/>
<path d="M231.336 77.2127C230.828 77.7201 231.086 77.5533 230.617 77.7882C230.473 77.6443 230.473 77.6443 230.329 77.5004C230.041 77.7162 230.041 77.7162 229.753 77.932C230.189 78.3678 230.282 78.7256 230.617 79.2269C230.832 79.0111 230.832 79.0111 231.048 78.7953C231.192 78.9391 231.192 78.9391 231.336 79.083C231.48 79.0111 231.48 79.0111 231.624 78.9391C231.768 79.083 231.768 79.083 231.911 79.2269C232.266 78.8727 232.275 78.8022 232.055 78.3637C232.199 78.2198 232.199 78.2198 232.343 78.0759C231.839 77.6443 231.839 77.6443 231.336 77.2127Z" fill="#191818" fill-rule="nonzero" opacity="1" stroke="none"/>
</g>
</g>
</svg>
