<?xml version="1.0" encoding="UTF-8"?>
<svg width="100px" height="100px" viewBox="0 0 100 100" version="1.1" xmlns="http://www.w3.org/2000/svg" xmlns:xlink="http://www.w3.org/1999/xlink">
    <title>fluentmigrator</title>
    <g id="fluentmigrator" stroke="none" stroke-width="1" fill="none" fill-rule="evenodd">
        <g transform="translate(2.199592, 0.035324)" fill="#0A0A0A" id="path0">
            <path d="M34.6006832,5.13415307 C34.2863686,5.18194966 33.8751621,5.26871087 33.6870929,5.32741756 C33.4990237,5.38586448 32.4960745,5.48795177 31.4585767,5.55419161 C30.4208192,5.62043145 29.4526784,5.72147969 29.3069507,5.77888755 C29.1609633,5.83629542 28.325562,5.94409751 27.450157,6.01864981 C26.2373184,6.12177615 25.8118249,6.19580892 25.6634996,6.33036672 C25.5377737,6.44388363 25.1616353,6.54051587 24.6054804,6.6018202 C24.1308914,6.65429255 23.5981153,6.76495205 23.4214757,6.8478168 C23.2448361,6.93068154 22.6941362,7.04471798 22.1974673,7.10108679 C21.6675485,7.16135206 21.2319241,7.26629675 21.142825,7.35539583 C21.059181,7.43903987 20.8152625,7.56502546 20.6004376,7.63594105 C20.3856127,7.70659689 20.0928586,7.84609021 19.9499883,7.94557985 C19.8071181,8.04532927 19.4881278,8.15572901 19.2413519,8.19131669 C18.9943162,8.22690437 18.6903922,8.32171826 18.5659652,8.40198537 C18.4412785,8.48199271 18.1524208,8.57888471 17.9238284,8.61707004 C17.695236,8.65525536 17.3863765,8.77188944 17.2375317,8.8763146 C17.0886868,8.98099953 16.7699563,9.11945379 16.5288952,9.18439482 C16.2880939,9.24933584 15.9420881,9.39298538 15.760513,9.50390465 C15.5786782,9.61456415 15.3550213,9.70548159 15.2633246,9.70574135 C15.1718876,9.70574135 14.9752462,9.81873873 14.8264013,9.9564137 C14.6778163,10.0943484 14.413896,10.2382577 14.239854,10.2764431 C14.0658121,10.3146284 13.9234614,10.3858037 13.9234614,10.4341199 C13.9234614,10.5647812 13.0257167,11.1474321 12.6989334,11.228998 C12.5438543,11.2677028 12.2929221,11.4318738 12.1414797,11.5937068 C11.9897774,11.7555398 11.7983313,11.8880195 11.7159861,11.8880195 C11.6333811,11.8880195 11.4811594,11.9815346 11.3777732,12.0958308 C11.2743871,12.210127 11.1374915,12.303642 11.0735895,12.303642 C11.0096875,12.303642 10.7948626,12.4974261 10.5961431,12.7345907 C10.1423352,13.2756793 9.59501227,13.823262 9.10535695,14.2258963 C8.89702615,14.3973406 8.66193965,14.6545071 8.58297136,14.7973773 C8.50400308,14.9402476 8.34892391,15.2265076 8.23800465,15.4335396 C8.12734514,15.6405716 7.93511971,15.9390405 7.81095248,16.0969771 C7.68678524,16.2549137 7.58521748,16.4507758 7.58521748,16.5326015 C7.58521748,16.6141674 7.49222193,16.9001677 7.37844526,17.1679845 C7.26492835,17.4358012 7.10205626,18.1587247 7.01711341,18.7746254 C6.93191078,19.390526 6.81449741,19.9835675 6.75605049,20.0926684 C6.60850449,20.3682781 6.60850449,70.5308027 6.75605049,70.8064124 C6.81449741,70.9155133 6.93191078,71.5085547 7.01711341,72.1244554 C7.10205626,72.740356 7.26492835,73.4632795 7.37844526,73.7310963 C7.49222193,73.9989131 7.58521748,74.287511 7.58521748,74.3724538 C7.58521748,74.4576565 7.69899415,74.6626103 7.83822771,74.8278203 C7.97746126,74.99329 8.1218901,75.2504565 8.15929612,75.3995611 C8.19670215,75.5486656 8.31671317,75.7515414 8.42581408,75.8505115 C8.534915,75.9492219 8.62427385,76.0822211 8.62427385,76.1461231 C8.62427385,76.210025 8.81805787,76.4248499 9.05522248,76.6235695 C9.60306496,77.0830921 10.1366204,77.6166476 10.5961431,78.1644901 C10.7948626,78.4016547 11.0112461,78.5954387 11.0769664,78.5954387 C11.1426867,78.5954387 11.258022,78.6694715 11.3330938,78.7601291 C11.4084254,78.8507868 11.6442912,78.9946961 11.8572978,79.0798987 C12.0705641,79.1653611 12.2698031,79.2999189 12.3004553,79.3794067 C12.3308477,79.4588945 12.5230731,79.5939719 12.7277672,79.6794343 C12.9322016,79.7648966 13.1714443,79.9064681 13.2592446,79.9942683 C13.3470448,80.0820686 13.4829015,80.1540233 13.5613502,80.1540233 C13.639799,80.1540233 13.7650053,80.2381868 13.8395576,80.3410534 C13.9143696,80.44392 14.1239992,80.5886086 14.3055743,80.6623816 C14.4871494,80.7361546 14.7165211,80.8857787 14.8152315,80.9948796 C14.9139418,81.1037208 15.0710991,81.1930796 15.1643544,81.1930796 C15.2578695,81.1930796 15.5194519,81.2876338 15.7457065,81.4034885 C15.9722208,81.5190836 16.3395272,81.6629929 16.562145,81.7232581 C16.7847628,81.7835234 17.0886868,81.9180812 17.2375317,82.0227661 C17.3863765,82.1271913 17.6897809,82.2438254 17.9118792,82.2817509 C18.1339775,82.3196765 18.4838798,82.4409863 18.6896129,82.5511263 C18.8953461,82.6615261 19.2101802,82.7516642 19.3888979,82.7516642 C19.5678753,82.7516642 19.8255613,82.8384254 19.9619375,82.9444092 C20.0983136,83.0503929 20.3967826,83.1966401 20.625375,83.2691143 C20.8539674,83.3418482 21.1204853,83.4706912 21.2178969,83.5556341 C21.3194646,83.6444734 21.7797666,83.7522755 22.3021522,83.8096833 C22.8014188,83.8644936 23.3297789,83.9712566 23.4762859,84.046848 C23.6227928,84.1224393 24.1586862,84.2354367 24.667564,84.2975203 C25.2426817,84.3676566 25.6632398,84.4746794 25.7801336,84.5804034 C25.9198867,84.7069085 26.3196637,84.7749667 27.348849,84.8477007 C28.1083992,84.9014718 28.9638024,85.0108325 29.2495429,85.0908399 C29.5352834,85.171107 30.6574643,85.2900789 31.7432782,85.3557992 C32.9345563,85.4277539 33.9442593,85.5428294 34.2889663,85.6459557 C34.7838169,85.7940213 35.4864788,85.8161012 39.536201,85.8115794 L44.2119547,85.8046716 L45.0431998,85.5184116 C45.83574,85.2453995 46.4459259,84.8297769 46.4459259,84.563259 C46.4459259,84.4952008 46.5160622,84.3814241 46.6017843,84.3102488 C46.8228436,84.1268553 46.8228436,82.6233407 46.6017843,82.4399473 C46.5160622,82.3687719 46.4459259,82.2549952 46.4459259,82.1869371 C46.4459259,81.5224605 45.2364642,81.1925601 43.2768039,81.3221824 C41.0602369,81.4689491 34.8801894,81.3562115 34.2715621,81.1582712 C34.0047844,81.07151 33.1405492,80.9463037 32.3506066,80.8800639 C31.5609238,80.8138241 30.7504598,80.6886178 30.5496622,80.6018566 C30.3387337,80.5106794 29.6043806,80.4044358 28.8087232,80.3498854 C28.0517706,80.2981923 27.2335137,80.1898707 26.9903746,80.1088243 C26.7469756,80.0280377 26.2674511,79.9306261 25.9245625,79.8921811 C25.5816739,79.8539957 25.1205926,79.7316468 24.8997931,79.620208 C24.6792534,79.509029 24.1230985,79.3708345 23.6638356,79.3131669 C23.2048324,79.255759 22.7029682,79.1432812 22.5486683,79.0635336 C22.3946282,78.983786 22.022646,78.8861147 21.722099,78.846111 C21.3657026,78.798834 21.0835988,78.6884342 20.9113752,78.5286793 C20.7659073,78.3938618 20.5638109,78.2837218 20.4622431,78.2837218 C20.3606754,78.2837218 20.1455907,78.1738416 19.9840174,78.0395435 C19.7930908,77.8810874 19.4938426,77.7730256 19.1304326,77.7312036 C18.8226122,77.6956159 18.4953094,77.6002825 18.4030932,77.5192361 C18.3108769,77.4381897 18.0791673,77.3384403 17.8882407,77.2979171 C17.6970543,77.2571341 17.4432648,77.1116662 17.3237733,76.9745108 C17.2014245,76.8334589 16.9910155,76.7243579 16.8400926,76.7235786 C16.6933259,76.7227993 16.4561613,76.6539619 16.313291,76.5705776 C16.1704208,76.4871933 15.8924732,76.3430242 15.695572,76.2505482 C15.4986708,76.1578124 15.1479893,75.8783063 14.9162797,75.629712 C14.6845702,75.380858 14.3640213,75.1457715 14.2040066,75.1073265 C13.7395484,74.9958877 12.1858993,73.3998971 12.1009565,72.9471283 C12.0625114,72.7426939 11.9425004,72.4730588 11.833919,72.3481123 C11.7255974,72.222906 11.589481,71.9446986 11.5315536,71.7298737 C11.4736262,71.5150488 11.3572519,71.2069686 11.2728285,71.0448758 C11.0902144,70.6947138 11.0408592,63.0184251 11.2182781,62.551629 C11.4024508,62.067169 12.3739685,62.2279629 12.7285465,62.8020416 C12.7669916,62.8638654 12.981297,62.9877729 13.2049539,63.0771318 C13.4286108,63.1667504 13.6117444,63.2761111 13.6117444,63.3202709 C13.6117444,63.3644308 13.810464,63.4524909 14.0533434,63.5158733 C14.3250566,63.5870487 14.6910643,63.8117446 15.0043398,64.099823 C15.2846252,64.357509 15.6134866,64.5681777 15.7355757,64.5681777 C15.8576648,64.5681777 16.1402881,64.6611732 16.3634255,64.7749499 C16.5865628,64.8887265 16.921139,65.0105559 17.1066106,65.0453643 C17.2923419,65.0801727 17.5962659,65.2207051 17.7819972,65.3578605 C17.9679883,65.4950159 18.2394418,65.6093121 18.385689,65.6119098 C18.5316764,65.6142477 18.838198,65.6877609 19.0667904,65.7747819 C19.4340968,65.9147947 19.7502297,66.0018157 20.5282232,66.1766369 C20.6464159,66.2033926 20.852149,66.3197669 20.9856678,66.4356217 C21.1194463,66.5514765 21.3220623,66.6462904 21.4366182,66.6462904 C21.5509144,66.6462904 21.8826332,66.7572097 22.1738287,66.8928065 C22.465284,67.0286631 23.0074117,67.1710139 23.3788744,67.2097187 C23.750337,67.2484236 24.3114275,67.3463546 24.625742,67.4276608 C24.9400566,67.508967 25.5406311,67.624562 25.9604099,67.6848272 C26.3804485,67.7450925 26.8714026,67.8705586 27.0514191,67.9638139 C27.2802713,68.0825261 27.8496742,68.1614944 28.937826,68.2259159 C29.7950475,68.2765699 30.9073573,68.3864501 31.4097411,68.4698343 C33.4187566,68.8041507 42.6201203,68.9246813 43.6181339,68.629849 C44.5517261,68.3539796 45.3502409,66.8826757 44.9704658,66.1379321 C44.8675992,65.9360954 44.7831759,65.6991905 44.7829161,65.6111305 C44.7823966,65.3861748 44.186238,64.7759889 43.9669971,64.7759889 C43.8667282,64.7759889 43.623589,64.6541596 43.4269476,64.5053147 L43.0689926,64.2349003 L41.0947855,64.298023 C38.1859472,64.3907588 33.1917228,64.2063263 32.8675372,63.994099 C32.6802473,63.8712306 32.1487699,63.8039517 30.7772155,63.7296592 C29.7654344,63.6745892 28.6572807,63.5626308 28.3143921,63.4805454 C27.9715035,63.3984599 27.3402768,63.2802673 26.9119258,63.2174044 C26.483315,63.1548012 26.0240521,63.0324523 25.8910529,62.9451716 C25.7572744,62.8576311 25.2052757,62.7415165 24.6545758,62.6851477 C24.1072529,62.6290387 23.5370707,62.5199378 23.3871868,62.4425281 C23.2375627,62.3651184 22.856229,62.2536796 22.5398363,62.1952327 C22.2234437,62.1367857 21.5649417,61.8816974 21.0765852,61.6281676 C20.5879689,61.3748977 19.9634961,61.1338366 19.6884059,61.0925341 C19.4135755,61.0512316 19.0215915,60.9281034 18.8174169,60.8187427 C18.6135021,60.709382 18.3662066,60.6197634 18.2685353,60.6197634 C18.1706043,60.6197634 17.9695469,60.5078051 17.8220009,60.3709094 C17.6741951,60.2340138 17.3907925,60.091663 17.1918132,60.054257 C16.6800779,59.9581443 15.8158428,59.5043364 15.6872596,59.2640546 C15.6275138,59.1523561 15.5186727,59.0611789 15.4451594,59.0611789 C15.3716462,59.0611789 15.2100729,58.944285 15.0859057,58.8014148 C14.9617384,58.6585445 14.8012042,58.5408714 14.7295093,58.5398323 C14.5972894,58.5377542 13.8107237,58.0361498 13.5138134,57.7641768 C12.7243903,57.041513 12.4586516,56.7209642 12.211616,56.1920845 C12.0544587,55.85569 11.8424912,55.4868249 11.7409234,55.3725287 C11.6393557,55.2582325 11.5232411,55.0096383 11.4829777,54.8200105 C11.442974,54.6303827 11.3447832,54.3498375 11.2647759,54.1965767 C11.0629392,53.8095282 11.0470936,45.7386578 11.2478912,45.5804615 C11.6606563,45.2554966 11.9708147,45.3503105 13.0911772,46.1446691 C13.4182202,46.3763787 14.4590949,46.8966861 14.6045628,46.9008424 C14.6650878,46.9026607 14.866405,47.0164374 15.0523961,47.1535928 C15.2381274,47.2907483 15.5464674,47.4323197 15.737394,47.4679074 C15.9283206,47.5037548 16.1397686,47.5998675 16.207567,47.6811737 C16.2751057,47.7624799 16.5431822,47.8611902 16.8032061,47.9001548 C17.0634897,47.9391194 17.3635172,48.0583512 17.4700205,48.1648544 C17.5767836,48.2716175 17.7027692,48.3588982 17.7500462,48.3588982 C17.797583,48.3588982 18.0430601,48.493456 18.2955508,48.6576269 C18.583889,48.8451766 18.9675605,48.9831113 19.3252557,49.0283103 C19.6390507,49.0677944 20.0364898,49.1654657 20.2084536,49.2454731 C20.3806772,49.3252206 20.7544777,49.4418547 21.0394389,49.5041981 C21.3241404,49.5665415 21.6327401,49.6857732 21.7249564,49.7694172 C21.818991,49.8543601 22.2995546,49.9704747 22.8175242,50.0335973 C23.326402,50.0954212 23.8869729,50.2058209 24.0636125,50.2793342 C24.2402521,50.3525876 24.7312062,50.4455832 25.1546217,50.4861064 C25.5894668,50.5276686 26.1505572,50.662746 26.4440907,50.7965245 C26.7298312,50.926926 27.2909216,51.0653803 27.6909583,51.1043449 C28.090995,51.1433095 28.5585704,51.2487738 28.7300147,51.3383924 C28.9541911,51.455546 29.552168,51.5264616 30.8600803,51.5903635 C31.860172,51.6391992 33.1927618,51.7384291 33.8213909,51.8103837 C35.3150345,51.9815683 43.8025664,51.980789 45.1990582,51.8090849 C45.7419652,51.7423255 47.0561117,51.644914 48.1195859,51.5921819 C49.4921794,51.5243835 50.1418494,51.4508702 50.3595317,51.3381326 C50.5281186,51.2511116 51.0554397,51.1264249 51.5313275,51.0612241 C52.0074751,50.9960233 52.4989488,50.8757525 52.6238953,50.7941866 C52.7485821,50.7123609 53.2449912,50.5931292 53.7265939,50.5289675 C54.2084563,50.4650655 54.683305,50.3702516 54.7820154,50.3185585 C54.8807257,50.2668655 55.4410369,50.1528291 56.0270647,50.0650288 C56.6133522,49.9774883 57.1689876,49.8369559 57.2619832,49.7525326 C57.3549787,49.668369 57.7041017,49.5551119 58.0376388,49.5008212 C58.3709161,49.4465305 58.7880972,49.3337929 58.9642173,49.2501488 C59.1405971,49.1665048 59.5824558,49.0501305 59.9466451,48.9914238 C60.3523966,48.926223 60.6958047,48.8030948 60.8334797,48.6737323 C60.9568676,48.5578775 61.1044137,48.4628039 61.1610422,48.4628039 C61.2176708,48.4628039 61.4226247,48.34591 61.6161489,48.2030398 C61.8096732,48.0601695 62.0416425,47.9432757 62.1315209,47.9432757 C62.2211395,47.9432757 62.4629799,47.8531375 62.668713,47.7427378 C62.8744462,47.6325978 63.2111005,47.5107685 63.4170934,47.4720636 C63.6228265,47.4336185 63.9077877,47.2941252 64.0498787,47.1624248 C64.1919697,47.0304646 64.4506947,46.8914909 64.6247366,46.8533055 C64.7987786,46.8151202 64.9411293,46.7483608 64.9411293,46.7047205 C64.9411293,46.5870473 65.4344213,46.3846911 65.7217204,46.3846911 C65.8599149,46.3846911 66.0188905,46.2987092 66.0752593,46.1935047 C66.1316282,46.0883003 66.442306,45.8428232 66.7659721,45.6480001 C67.0896381,45.4531771 67.6933299,44.9546898 68.1073938,44.540366 C68.5214578,44.1260423 68.8926607,43.7870502 68.9321448,43.7870502 C69.0654038,43.7870502 70.2403168,42.5477157 70.2403168,42.4071833 C70.2403168,42.3302931 70.3312343,42.1700187 70.4424133,42.050787 C70.6429512,41.8354425 70.874401,41.428652 71.2658655,40.6033814 C71.3780835,40.3669961 71.5199147,40.1565872 71.5809593,40.1358061 C71.6420039,40.1152847 71.7324018,39.8807177 71.7820167,39.6147193 C71.8316317,39.3484611 71.9726836,39.0032346 72.0952922,38.8473762 L72.3184296,38.5637138 L72.3150526,28.6287763 L72.3119355,18.6938387 L72.0563276,18.1743106 C71.9157952,17.8885701 71.80046,17.5820484 71.7999404,17.4932091 C71.7994209,17.40411 71.6820075,17.17292 71.5391373,16.9793957 C71.396267,16.7858715 71.2793732,16.5726052 71.2793732,16.505586 C71.2793732,16.4388267 71.1853386,16.2645249 71.0705229,16.1185375 C70.9559669,15.9728099 70.832579,15.6974599 70.7967315,15.5070529 C70.7611438,15.3169055 70.6094416,15.0392177 70.4600772,14.8903729 C70.2088854,14.6399603 69.9008051,14.2682379 69.736894,14.0178253 C69.699488,13.9604174 69.4667393,13.7765045 69.2199635,13.6089566 C68.9729278,13.4414088 68.6227658,13.0980006 68.4417102,12.8457697 C68.2603949,12.5935388 67.9832266,12.320267 67.8255498,12.238701 C67.667873,12.1571351 67.5387702,12.0555673 67.5387702,12.012966 C67.5387702,11.970105 67.3751189,11.8472365 67.1751005,11.7394344 C66.9750822,11.6316323 66.8114308,11.5092835 66.8114308,11.4672017 C66.8114308,11.4253796 66.6244006,11.3162787 66.3958082,11.2248418 C66.1672158,11.1334048 65.9801857,11.016511 65.9801857,10.9653374 C65.9801857,10.9139041 65.8282237,10.8429886 65.6424924,10.8076606 C65.4497474,10.7707741 65.087896,10.542961 64.8000774,10.2774821 C64.4995304,10.0003138 64.1213138,9.76522733 63.8649267,9.69690937 C63.6282816,9.63352693 63.3820252,9.5389728 63.3178635,9.48650046 C63.2539615,9.43402811 62.9692601,9.32206979 62.6855977,9.23790622 C62.4019353,9.15348289 62.0847633,8.9906108 61.9808577,8.87579507 C61.8766923,8.76097934 61.6704396,8.66486663 61.5221143,8.66226899 C61.373789,8.65993111 61.065449,8.5869374 60.8368566,8.50017619 C60.6082642,8.41341499 60.1874464,8.2837927 59.9017059,8.21209781 C59.6159654,8.14014316 59.1951476,7.97986871 58.9665552,7.85596124 C58.0851756,7.37799531 57.5882469,7.20057643 56.8375287,7.09537198 C56.4096972,7.03562623 55.9083525,6.92340815 55.7236602,6.84625821 C55.538968,6.76910827 55.0539884,6.67299556 54.6456392,6.63273213 C54.1835189,6.58727341 53.7289317,6.46700263 53.4421522,6.31452111 C53.1132908,6.13969988 52.8111852,6.06930381 52.3890686,6.06904404 C51.668483,6.06878428 50.0423597,5.88461154 49.6150478,5.75498925 C49.4436035,5.70277667 48.485074,5.60874207 47.4849822,5.54587916 C46.1923961,5.46431323 45.5764954,5.38300707 45.3549167,5.26403512 C45.0024168,5.07492686 35.7296179,4.96296853 34.6006832,5.13415307 M43.3833072,9.75120007 C43.5131892,9.8356234 44.1303887,9.91615027 44.9938446,9.96134922 C46.6843893,10.0501885 47.7855293,10.1907209 47.9668446,10.3413841 C48.0408774,10.4026884 48.7692559,10.4946449 49.5854347,10.5455587 C50.4018732,10.5967322 51.3035144,10.7089503 51.5892549,10.7954517 C51.8749954,10.8816934 52.4745309,10.9952103 52.9218447,11.0474229 C53.434619,11.1074284 53.8079,11.2084766 53.9325868,11.321474 C54.0689629,11.444862 54.4222421,11.5272072 55.0726914,11.5874724 C55.5911805,11.635269 56.1416206,11.7438504 56.2959205,11.8290531 C56.4504802,11.9139959 56.8455813,12.0355655 57.1741829,12.0989479 C57.5027845,12.1625901 57.8313861,12.2742887 57.9043798,12.3472824 C57.9773735,12.4202761 58.2075245,12.5363907 58.4155955,12.6049684 C58.6236666,12.6738059 58.8491418,12.7964145 58.9166805,12.8777207 C58.9842191,12.9590269 59.2099541,13.0574774 59.4185447,13.0967018 C60.0749686,13.21983 61.4501597,13.740657 61.5771843,13.9144392 C61.6442034,14.0061359 61.8790302,14.1300434 62.0990504,14.1897891 C62.3193303,14.2495349 62.5694831,14.3588956 62.6552053,14.4324088 C62.7409274,14.5061818 62.9643246,14.5989176 63.1518742,14.6389213 C63.3612441,14.6833409 63.6859492,14.9077771 63.9950685,15.2218319 C64.2714575,15.5026369 64.5390145,15.7325281 64.5896685,15.7325281 C64.6400627,15.7327878 64.8063117,15.8379923 64.9593128,15.9663158 C65.1120541,16.094899 65.3879236,16.3169973 65.5723561,16.4598675 C66.372949,17.080444 66.7038885,17.4332036 66.8215616,17.7914183 C66.8906588,18.002087 67.0335291,18.2353551 67.1389933,18.3101672 C67.2447173,18.3847195 67.3312187,18.5016133 67.3314785,18.5699313 C67.331998,18.6379895 67.409148,18.8341114 67.5029228,19.0055557 C67.7039802,19.3723426 67.7561928,20.7145436 67.5782544,20.937681 C67.5143524,21.0179481 67.4299291,21.2616068 67.3907047,21.4790294 C67.3514803,21.6967117 67.2166628,21.9762178 67.0914565,22.1006448 C66.8542919,22.3357313 66.7932473,22.420934 66.4477611,23.0012469 C66.1828017,23.4462228 66.0456462,23.5745463 65.4055875,23.9764014 C65.1182884,24.1569374 64.7909857,24.3894263 64.6782481,24.4930721 C64.3210724,24.8216737 63.6547775,25.2146968 63.2786391,25.3188622 C63.0786208,25.3744517 62.8214543,25.5097888 62.7071581,25.619669 C62.2652994,26.0446431 61.8927977,26.3309031 61.7813589,26.3309031 C61.7174569,26.3309031 61.4974367,26.4207815 61.2924829,26.5306617 C61.087529,26.6402821 60.64593,26.7808145 60.3108343,26.8428981 C59.9757387,26.904722 59.6632425,27.0239537 59.6162252,27.1075977 C59.5694676,27.1915015 59.3338616,27.3107333 59.0930603,27.3730766 C58.8519992,27.4351603 58.5145656,27.5497162 58.3431213,27.6276455 C58.171677,27.7053149 57.6931916,27.8154549 57.2796471,27.8723432 C56.8222026,27.9354659 56.4268416,28.0552171 56.2699441,28.1786051 C56.1164235,28.2993954 55.7589881,28.4100549 55.3859669,28.4521367 C55.0412599,28.4913611 54.5975829,28.5908507 54.3996426,28.6734557 C54.2019622,28.7560607 53.5525519,28.8659409 52.9566531,28.9176339 C52.2690575,28.9773797 51.7788827,29.0737522 51.6147118,29.1810347 C51.4726208,29.27429 50.9608856,29.3953401 50.4774646,29.4504101 C49.9940436,29.5052203 49.4493183,29.6247118 49.2669639,29.7156292 C49.0487621,29.8244704 48.4305235,29.9138292 47.4569277,29.9772117 C46.6436063,30.0302036 45.7679416,30.1315115 45.5107751,30.2024271 C44.8366873,30.3881585 34.8957752,30.3840022 33.6655325,30.1972319 C33.1797736,30.1234589 32.1635765,30.024229 31.4071434,29.9764324 C30.4358855,29.9151281 29.9568805,29.840316 29.7760847,29.7221233 C29.6350328,29.6293876 29.1807054,29.5254819 28.7614461,29.4896345 C28.3247827,29.4522284 27.7821355,29.3252038 27.483147,29.1903862 C27.1358424,29.0334887 26.6703452,28.936337 26.0791221,28.8971126 C25.592584,28.8646421 25.0548723,28.784375 24.8842073,28.7189144 C24.7135423,28.6531941 24.2257053,28.532144 23.8004715,28.4500586 C23.3749779,28.3679731 22.9458476,28.2277005 22.8468775,28.1380819 C22.74505,28.0458656 22.3226736,27.9323487 21.8725024,27.8764995 C21.4353194,27.8222088 20.9066995,27.6860924 20.6973296,27.5738743 C20.4879598,27.4616562 20.2297543,27.3699595 20.1235107,27.3699595 C20.0170075,27.3699595 19.806079,27.2829385 19.6543768,27.176695 C19.5026746,27.0701917 19.1239385,26.9231652 18.8127411,26.849652 C18.501284,26.7761388 17.9635723,26.5602748 17.6178263,26.3701275 C17.2718205,26.1799802 16.8356766,25.9519073 16.6486465,25.8635875 C16.4616163,25.7750079 16.2161392,25.6103175 16.1031419,25.4973201 C15.9901445,25.3843227 15.8441571,25.2918467 15.7784367,25.2918467 C15.6101096,25.2918467 14.5468952,24.5730795 14.5468952,24.459043 C14.5468952,24.4070902 14.3715544,24.3169521 14.157249,24.2585052 C13.7338336,24.1434297 13.3389921,23.7535238 12.4020231,22.5258787 C12.2100574,22.2746868 12.0531599,22.0050516 12.0531599,21.9268627 C12.0531599,21.8484139 11.9804259,21.7242467 11.8915866,21.6504737 C11.2736078,21.1374396 11.2333444,19.1473869 11.8282042,18.4990157 C11.939643,18.3777058 12.0645895,18.1189808 12.1056322,17.9241577 C12.2012254,17.4739866 13.7338336,15.9060505 14.188161,15.7938324 C14.3570076,15.7522702 14.6819725,15.5161446 14.9105649,15.2693687 C15.1391573,15.0225928 15.4898388,14.7438659 15.6898572,14.6503509 C15.8898755,14.556576 16.1704208,14.4118874 16.313291,14.3285032 C16.4561613,14.2451189 16.6948845,14.1762814 16.8437293,14.1755021 C16.9923144,14.1747228 17.2403891,14.0570497 17.3944292,13.9141794 C17.548729,13.7713092 17.7308237,13.6528568 17.7994014,13.6510384 C17.8677194,13.6494798 18.1576161,13.5328457 18.4433566,13.3923134 C18.7290971,13.251781 19.1309521,13.1364457 19.3366853,13.1359262 C19.5619008,13.1351469 19.8068583,13.0512431 19.9533653,12.9242185 C20.086884,12.8083637 20.3159959,12.6844562 20.4627626,12.6486088 C20.6092696,12.6130211 20.8537076,12.4805414 21.0056696,12.3545558 C21.1654245,12.2218164 21.5023385,12.0958308 21.804704,12.0558271 C22.0925226,12.0176418 22.4904812,11.9184119 22.6892007,11.8352874 C22.8879202,11.7521629 23.4583622,11.6381264 23.9565897,11.5814979 C24.5098872,11.5183752 24.9327832,11.4147293 25.0434427,11.3147201 C25.1431921,11.224582 25.5458264,11.1048308 25.93833,11.048462 C26.3308335,10.9920931 26.8856896,10.8798751 27.1714301,10.7988287 C27.4571706,10.7177823 28.4575222,10.5990701 29.3942315,10.5351681 C30.5556367,10.4556803 31.1720569,10.3696984 31.3323314,10.2647537 C31.4926058,10.159809 32.0739579,10.0787626 33.1618499,10.0099251 C34.0390732,9.95459535 34.920193,9.85640453 35.1202114,9.79198303 C36.0449716,9.49429338 42.9354739,9.46026428 43.3833072,9.75120007 M12.4581321,28.5851359 C12.7781615,28.7963241 13.2252155,29.1436287 13.45147,29.356895 C13.6927908,29.5847081 14.0143788,29.7727773 14.2307623,29.8130408 C14.4331185,29.8504468 14.6689843,29.941624 14.7547065,30.0151372 C14.8404286,30.0889102 15.0801909,30.2034662 15.2877424,30.2699658 C15.4950341,30.3367252 15.7433686,30.4780368 15.8394813,30.5840206 C15.935594,30.6902641 16.2293872,30.8094958 16.4925282,30.84898 C16.7554095,30.8882044 17.1377823,31.0100337 17.3419568,31.1193944 C17.5458716,31.2287551 17.7918682,31.3183737 17.8882407,31.3183737 C17.984873,31.3183737 18.2025553,31.4352675 18.372441,31.5781378 C18.5423267,31.721008 18.7374095,31.8379019 18.8059873,31.8379019 C18.874565,31.8379019 19.0600365,31.9298584 19.2182329,32.042596 C19.3782476,32.1566324 19.8453034,32.2997624 20.2733946,32.3657425 C20.6955113,32.4309433 21.1578914,32.5431614 21.3007616,32.615116 C21.4436319,32.6870707 21.8595142,32.7977302 22.2250023,32.8608529 C22.5902306,32.9239756 22.975201,33.0533381 23.0798859,33.1484117 C23.2113265,33.2673837 23.5856466,33.3486898 24.2859706,33.4107735 C24.8442036,33.4603884 25.5167328,33.5697491 25.7801336,33.6536529 C26.0435344,33.7378165 26.6898275,33.8554896 27.2166291,33.9152353 C27.7434307,33.9749811 28.3460834,34.0955116 28.5559727,34.1833119 C28.7661219,34.2711121 29.4521589,34.3937208 30.080788,34.4558044 C30.7094171,34.5181478 31.3640226,34.6407564 31.5354669,34.7285567 C32.3381379,35.1392437 46.4537188,35.1233981 47.5681067,34.7103732 C47.8141033,34.6194558 48.5388452,34.4900933 49.1786441,34.4233339 C49.8187028,34.3563148 50.442916,34.236044 50.5655246,34.1557769 C50.688393,34.0755098 51.2494835,33.9625124 51.8123923,33.9048448 C52.3755608,33.8469174 53.0075669,33.7344395 53.2169367,33.6544322 C53.4263066,33.5746846 54.0341546,33.4780524 54.56771,33.439867 C55.2280303,33.39259 55.6400162,33.3089459 55.8584778,33.1777651 C56.0351174,33.0715216 56.479314,32.9172217 56.8455813,32.8348765 C57.2121085,32.7525313 57.7690427,32.6117391 58.0833572,32.5223803 C58.3976718,32.4330214 58.7995269,32.3592484 58.976686,32.3587289 C59.1535853,32.3579496 59.4076346,32.2626162 59.5414131,32.1467614 C59.6749318,32.0309066 59.9040438,31.9085577 60.0508105,31.8750481 C60.1973174,31.8415386 60.4809798,31.7069808 60.6809982,31.5760597 C60.8810165,31.4451386 61.2083193,31.304866 61.4083376,31.2646025 C61.608356,31.2243391 61.8421437,31.1313435 61.9278658,31.0578303 C62.013588,30.9843171 62.36375,30.8671635 62.7061191,30.7970272 C63.0744645,30.7216956 63.3820252,30.5933721 63.4596947,30.4827126 C63.5316493,30.379846 63.7275115,30.2658096 63.8950593,30.2289231 C64.0623474,30.1920366 64.2527545,30.098002 64.3176955,30.0195532 C64.3826365,29.9411045 64.5691471,29.8478492 64.7317595,29.8120017 C64.8943718,29.776414 65.1598507,29.6330243 65.3219435,29.4937907 C65.4840363,29.3545571 65.6999002,29.2405207 65.8017278,29.2402609 C65.9032955,29.2402609 66.0136953,29.1701246 66.0466853,29.0841427 C66.3116447,28.3931702 67.5837094,28.1388612 67.6969666,28.7542423 C67.8582801,29.6306864 67.6985252,37.7020763 67.5133134,38.0202873 C67.4138237,38.1917316 67.331998,38.4081151 67.3314785,38.5011106 C67.3312187,38.5941062 67.2603031,38.7289237 67.1738017,38.8006186 C67.08756,38.8723135 66.8693582,39.2074092 66.6893417,39.5453623 C66.4025621,40.083074 66.0420095,40.4555757 65.4492279,40.8257395 C65.3577909,40.8828876 64.9863283,41.1517434 64.6236976,41.4231969 C64.2610669,41.6946504 63.9220748,41.9167487 63.8703817,41.9167487 C63.8184289,41.9167487 63.6373733,42.0336425 63.4674876,42.1765128 C63.2976019,42.319383 63.0918687,42.4362769 63.0103028,42.4362769 C62.9284771,42.4362769 62.7632672,42.5492743 62.6429964,42.6877285 C62.5229854,42.825923 62.3011468,42.9698323 62.1502239,43.0074981 C61.999301,43.0451639 61.80214,43.1423157 61.7122616,43.2233621 C61.6221235,43.3046683 61.3353439,43.410652 61.0748005,43.4594877 C60.8142572,43.5080635 60.4599389,43.6485959 60.2874556,43.7714643 C60.1147125,43.8943327 59.9100184,43.9948615 59.8320891,43.9948615 C59.7544197,43.9948615 59.5203722,44.0862984 59.3120414,44.1977372 C59.1037106,44.3094358 58.6836721,44.4323042 58.3784493,44.471009 C58.0732264,44.5097139 57.5853895,44.6520646 57.2939342,44.7876615 C57.0027386,44.9229986 56.7167384,45.0339178 56.6585512,45.0339178 C56.600364,45.0339178 56.4299588,45.1305501 56.2800749,45.248483 C56.1156442,45.3775857 55.7280762,45.5040908 55.3049205,45.5661745 C54.9186513,45.6230628 54.4261386,45.7368395 54.2105344,45.8194444 C53.9949302,45.9017897 53.3340903,46.0114101 52.742088,46.0625836 C52.0466995,46.1231087 51.571591,46.2176628 51.4006662,46.3296211 C51.2315598,46.4405404 50.7473595,46.5387312 50.0636604,46.6010746 C49.4739959,46.6548458 48.7110688,46.7673236 48.3681802,46.8514872 C46.5160622,47.3047755 31.588199,47.2621742 30.3405521,46.8000539 C30.1976818,46.747062 29.5500899,46.6564044 28.9017188,46.5982172 C28.0774873,46.524704 27.6239392,46.4337865 27.395087,46.2961116 C27.1740278,46.1633721 26.7807449,46.0799878 26.1843266,46.0399842 C25.6985677,46.0072539 25.1140985,45.9147779 24.8855061,45.834251 C24.6569137,45.7537241 24.1558288,45.6292971 23.7721572,45.5576022 C23.3882259,45.4859073 23.0222183,45.3648573 22.9588358,45.2882269 C22.8951936,45.2118562 22.589711,45.096521 22.2800722,45.0323592 C21.9701737,44.9679377 21.6485857,44.8474072 21.5654612,44.7642827 C21.4823367,44.6808984 21.1433446,44.5637448 20.8118856,44.5037393 C20.4806864,44.4437338 20.1151983,44.3338536 19.9996033,44.2598208 C19.8840082,44.1857881 19.5964494,44.0925328 19.3603238,44.0525291 C19.1241983,44.0125254 18.7771534,43.866538 18.5890842,43.7275642 C18.401015,43.5888502 18.1745007,43.4748137 18.0854017,43.4742942 C17.9965623,43.4737747 17.6900407,43.3584394 17.4043002,43.217907 C17.1185597,43.0773747 16.8068428,42.9607406 16.7117691,42.959182 C16.5255183,42.9555453 16.1322354,42.6604533 15.7033649,42.2024892 C15.5560787,42.0453319 15.3550213,41.9167487 15.2565707,41.9167487 C15.1578603,41.9167487 14.9510881,41.7998549 14.7967882,41.6569846 C14.6427481,41.5141144 14.460134,41.3972205 14.3910367,41.3972205 C14.3219395,41.3972205 14.1434815,41.2920161 13.9941172,41.1634328 C13.8450126,41.0348496 13.488876,40.742615 13.202616,40.5140226 C12.9166157,40.2854302 12.6246409,39.9602056 12.5539851,39.7910991 C12.483589,39.6222525 12.3420176,39.4001542 12.2394107,39.2975473 C12.1370637,39.1952003 12.0531599,39.0502519 12.0531599,38.9756996 C12.0531599,38.9008876 11.9367856,38.6821662 11.7946946,38.4894213 C11.6523439,38.2969361 11.5047979,37.9722309 11.4666126,37.7680564 C11.4284272,37.5638818 11.3343926,37.2464501 11.2575025,37.0625371 C11.1486613,36.8017339 11.1180027,35.8252807 11.1180027,32.6332995 C11.1180027,28.3256316 11.1107358,28.3931702 11.5855845,28.2762764 C11.6998807,28.2482219 11.811839,28.2199076 11.8346983,28.2129709 C11.8572978,28.2066596 12.137843,28.3739477 12.4581321,28.5851359 M67.6990447,50.824579 C67.5870864,50.8528933 67.4000562,50.9386154 67.2834221,51.0149861 C67.1667881,51.091097 66.7438921,51.1853913 66.3438554,51.2243559 C65.9438187,51.2633206 65.3827283,51.4017748 65.0969878,51.5319166 C64.8112473,51.6623182 64.3670507,51.8018115 64.1098842,51.842075 C63.8527178,51.8823384 63.589317,51.9579297 63.5246357,52.0101423 C63.4596947,52.0620951 63.0427733,52.174573 62.5980572,52.2595158 C62.0294336,52.368357 61.7465505,52.4756396 61.6449827,52.6205879 C61.5654949,52.7341048 61.4205466,52.8268406 61.3228753,52.8268406 C61.2254637,52.8268406 60.9825843,52.9141214 60.7833452,53.0208844 C60.5841062,53.1273877 60.2656354,53.2489573 60.0754881,53.2905195 C59.8749502,53.3346794 59.5105012,53.5754807 59.207876,53.8643384 C58.9208367,54.1381298 58.4218299,54.4932273 58.0989431,54.6535017 C57.7760563,54.8137762 57.3583557,55.0761379 57.1705462,55.2366721 C56.9827368,55.3972063 56.793109,55.5283872 56.7486893,55.5283872 C56.7045294,55.5283872 56.3437171,55.8543911 55.9470573,56.2528693 C55.5503976,56.6513474 55.1791947,56.9796892 55.1220466,56.9825466 C55.0648985,56.9851442 54.8778683,57.1571081 54.706424,57.3643998 C54.3962657,57.7392394 54.0001255,58.1901899 53.6200906,58.6013964 C53.5104701,58.7201086 53.3896798,58.9401288 53.352014,59.090792 C53.3143483,59.2411954 53.0797813,59.5181039 52.8309273,59.7061731 C52.5820733,59.8945021 52.3202311,60.188555 52.2493155,60.3599993 C52.1783999,60.5314436 52.0272172,60.8119889 51.9134405,60.9834332 C51.7996638,61.1548775 51.6292586,61.4120439 51.5344447,61.5549142 C51.4398906,61.6977844 51.3022156,62.0017084 51.2289621,62.2303008 C51.1554489,62.4588932 51.0369964,62.7160597 50.9658211,62.8017818 C50.8946457,62.887504 50.7787909,63.136358 50.7086546,63.3545598 C50.6385183,63.5727616 50.5169487,63.7761569 50.4387597,63.8062896 C50.360311,63.8361624 50.2662764,64.0203352 50.2296496,64.215418 C50.1930229,64.4105008 50.0745705,64.6824739 49.9665086,64.8198891 C49.8576675,64.9583433 49.6994711,65.4557916 49.6119306,65.9358356 C49.5251694,66.412243 49.411133,66.9034569 49.3589204,67.0273643 C49.3064481,67.1512718 49.2108549,67.6422259 49.1464334,68.1183735 C49.0820119,68.5945211 48.9521298,69.1244399 48.8578355,69.2958842 C48.5694973,69.8200881 48.5398842,74.1581485 48.8204294,74.7924924 C48.9339463,75.0491393 49.0775959,75.6775086 49.1399393,76.1892439 C49.2020229,76.7007194 49.3176179,77.2760969 49.3965862,77.4678028 C49.4755545,77.6592489 49.572966,78.1050041 49.6129697,78.4580235 C49.6615456,78.8874135 49.7685684,79.2121187 49.9361162,79.4394122 C50.0737912,79.6259229 50.1865288,79.8334744 50.1865288,79.9004935 C50.1865288,79.9672529 50.2857587,80.1480487 50.4068088,80.3020888 C50.5278588,80.4561289 50.6709888,80.7774571 50.7245002,81.0159205 C50.7780116,81.2546437 50.8834759,81.5206422 50.9588075,81.6071436 C51.0338793,81.693645 51.1497341,81.9341866 51.2162337,82.1417381 C51.282993,82.3490298 51.4263828,82.5994424 51.535224,82.697893 C51.6443249,82.7966034 51.7622578,83.0093502 51.7978455,83.1709234 C51.8334332,83.3324967 51.9295459,83.5203061 52.0116313,83.5883643 C52.0937168,83.6564225 52.1607359,83.7805898 52.1607359,83.863974 C52.1607359,83.9473583 52.4046544,84.2572569 52.7026038,84.5526087 C53.3426625,85.1869526 53.8188101,85.8475327 53.8214078,86.1052186 C53.8224468,86.2065266 53.9284306,86.3301743 54.0570138,86.3795295 C54.185597,86.4288847 54.4510759,86.6844926 54.6469381,86.9473738 C54.8428002,87.2099953 55.0999666,87.4557322 55.2184191,87.4931382 C55.6002723,87.6139285 56.1125271,88.0716328 56.3839805,88.5347922 C56.5294484,88.7828669 56.7024513,88.9867817 56.7684314,88.9878208 C56.9029892,88.9898989 57.7352734,89.5182591 57.9872445,89.7613983 C58.0773827,89.8481595 58.3090922,89.9744048 58.502097,90.0416837 C58.8525187,90.1637728 59.3575001,90.460943 59.8497531,90.8344837 C59.9926233,90.9430651 60.2905727,91.0604785 60.5121515,91.0952869 C60.7334705,91.130355 60.990637,91.2269873 61.0836325,91.309852 C61.1763683,91.3927168 61.4496401,91.5129875 61.6907012,91.5771493 C61.9315025,91.641311 62.1652902,91.755867 62.2102294,91.8317181 C62.2549088,91.907829 62.4785657,92.028879 62.7071581,92.1010934 C62.9357505,92.1733079 63.2630533,92.3141 63.4344976,92.4143689 C63.6059419,92.5143781 64.0249414,92.6271157 64.3657518,92.6650413 C64.7063026,92.7027071 65.2206355,92.8006381 65.5087139,92.8827236 C67.2223776,93.3708203 73.1221397,93.3687422 74.5082409,92.8796064 C74.7300794,92.8014174 75.2046684,92.7071231 75.5631429,92.6702366 C75.9522695,92.6302329 76.3325641,92.5203527 76.506606,92.397744 C76.6668805,92.2844869 76.9572967,92.1662942 77.1516003,92.1348628 C77.3459038,92.1031716 77.5843673,91.9893949 77.681519,91.8821123 C77.7789306,91.77457 78.0496048,91.635856 78.2836522,91.5735126 C78.5174399,91.511429 78.7886336,91.3890801 78.8863049,91.3017993 C78.9839762,91.2147784 79.2801073,91.1191852 79.5445471,91.0893123 C79.8196373,91.0584004 80.049009,90.9726782 80.08096,90.889294 C80.1313542,90.7583728 80.353972,90.6144635 81.2418457,90.1390952 C81.3917296,90.0590879 81.6462984,89.8837471 81.8078717,89.7494491 C81.9694449,89.6154108 82.1663461,89.5055306 82.2453144,89.5055306 C82.3993545,89.5055306 83.564916,88.6010321 83.6329742,88.4285487 C83.7075265,88.2402197 84.476688,87.5359993 84.7782741,87.3801408 C84.9414059,87.2957175 85.2554607,87.0084184 85.47652,86.7413809 C85.6973194,86.4746032 85.9573433,86.1714585 86.0544951,86.0680724 C86.1513871,85.9646863 86.3046479,85.7371329 86.394786,85.5625714 C86.4849242,85.3882697 86.6044157,85.2453995 86.6600052,85.2453995 C86.7158544,85.2453995 86.7613132,85.1848745 86.7613132,85.1111015 C86.7613132,85.0373285 86.9745795,84.7684726 87.2353826,84.513644 C87.5200841,84.2356965 87.8814159,83.7047387 88.1393617,83.1859898 C88.375747,82.7103617 88.64772,82.2791533 88.7438327,82.22772 C88.8466993,82.17265 88.9474878,81.9435381 88.9882707,81.6720846 C89.0261963,81.4180353 89.1215297,81.1567127 89.1999785,81.0917716 C89.2784272,81.0265709 89.3735009,80.7904453 89.4114264,80.5667884 C89.4490922,80.3431315 89.5740388,80.0407661 89.6888545,79.8947787 C89.8878338,79.6420282 90.1304535,78.7411664 90.4572367,77.0446471 C90.5388026,76.6204523 90.6723214,76.1713202 90.754147,76.0468932 C91.1944472,75.3748835 91.2438024,69.5127872 90.81701,68.5763376 C90.702454,68.3243664 90.5458162,67.7287274 90.4694456,67.2523145 C90.3928152,66.7761724 90.2800776,66.2930112 90.2185135,66.178715 C90.1572092,66.0644188 90.0746042,65.7371161 90.0353798,65.4513756 C89.9958957,65.1656351 89.8738065,64.8043032 89.7639263,64.6487045 C89.6540461,64.4928461 89.5101368,64.1304752 89.4436372,63.8434358 C89.3773973,63.5561367 89.2862202,63.32131 89.241281,63.32131 C89.196082,63.32131 89.0877604,63.0805087 89.0002199,62.786196 C88.9129391,62.492143 88.7529245,62.1892581 88.6446028,62.113407 C88.536541,62.0375559 88.4178288,61.8154576 88.381202,61.6198552 C88.3443155,61.4242528 88.2531384,61.2133244 88.1783263,61.1512408 C88.1035142,61.0891571 87.9803861,60.8506937 87.9047947,60.621322 C87.8289436,60.3919503 87.7138681,60.2041409 87.6489271,60.2041409 C87.5177462,60.2041409 86.8311897,59.5129086 86.7202704,59.2689901 C86.4337506,58.6390622 85.08012,57.1371062 84.670472,56.994236 C84.505262,56.9365684 84.3255053,56.7820087 84.2704353,56.6505681 C84.1358775,56.3282008 83.9794995,56.156237 83.4882856,55.7902294 C83.2596932,55.6200839 82.9557692,55.3574624 82.8128989,55.2065395 C82.6700287,55.0558763 82.4258504,54.9023557 82.269992,54.8654692 C82.1143933,54.8285827 81.8122877,54.6797379 81.5985018,54.5347895 C81.2179474,54.276584 81.0618292,54.1456629 80.5976308,53.6954918 C80.4713854,53.5731429 80.1349909,53.4014388 79.8502895,53.3141581 C79.2478965,53.1299853 78.4969185,52.7730695 78.1646803,52.5133054 C78.0368763,52.4132962 77.662816,52.299 77.3334352,52.2592561 C77.0037945,52.2192524 76.6333709,52.1221006 76.509983,52.0428726 C76.386595,51.9639043 75.994611,51.8524655 75.638994,51.7950576 C75.2831172,51.7379095 74.9152912,51.6215352 74.8215164,51.5365924 C74.7277415,51.4516495 74.4417413,51.3534587 74.1861334,51.3183905 C73.4304797,51.2147447 72.7228823,51.0422613 72.4332453,50.8913384 C72.165948,50.7518451 68.2050651,50.6959958 67.6990447,50.824579 M72.9236799,55.6671012 C73.547893,55.7572394 74.0705384,55.8889398 74.173405,55.9819353 C74.2705567,56.0699953 74.5524008,56.1741607 74.7996962,56.2139046 C75.0469916,56.2533888 75.3618257,56.3900247 75.4992409,56.5173091 C75.6519822,56.6586208 75.9491523,56.7752548 76.2634669,56.8168171 C76.54635,56.8544829 76.8037762,56.9269571 76.8352076,56.9781306 C76.8668988,57.0293041 77.1204286,57.1467175 77.3988957,57.2391935 C77.6771031,57.3316695 77.9838844,57.4945416 78.0805167,57.6015644 C78.1771489,57.7083275 78.3680755,57.8236627 78.5047115,57.8579516 C78.8418852,57.9426347 79.5707833,58.4447587 80.095247,58.9536365 C80.3329311,59.1843071 80.5672384,59.3728958 80.6163338,59.3728958 C80.6654292,59.3728958 81.0711807,59.7266945 81.5177152,60.1592017 C81.9645094,60.5914491 82.4079267,61.0005776 82.5030004,61.068376 C82.598074,61.1359147 82.7939362,61.3782746 82.9378455,61.606867 C83.0820145,61.8354594 83.3581438,62.2193907 83.5519278,62.4599323 C84.0683388,63.1015496 84.3507024,63.5857499 84.4725317,64.0382589 C84.5320177,64.2587986 84.7681433,64.643769 84.997515,64.8934023 C85.2268867,65.1432954 85.4640513,65.5303439 85.5248361,65.753741 C85.5856209,65.9771381 85.6991378,66.2576833 85.7773268,66.3771748 C85.8555158,66.4966663 85.9498101,66.9216403 85.9866966,67.321677 C86.0298175,67.7848364 86.1277485,68.1537014 86.2568513,68.3370949 C86.781315,69.0833971 86.8124867,75.2725364 86.2955561,76.06144 C86.2051582,76.1996345 86.066704,76.6511045 85.9882552,77.0643891 C85.8038227,78.0361666 85.4619732,78.9949559 85.20117,79.2726437 C85.0876531,79.3931742 84.9949173,79.5290309 84.9949173,79.5742298 C84.9949173,79.6194288 84.8798418,79.7932109 84.7390497,79.960499 C84.5985173,80.1275273 84.4411003,80.4176838 84.3894072,80.6049737 C84.2774489,81.0104655 83.7854557,81.8165135 83.6498589,81.8165135 C83.5973865,81.8165135 83.5228342,81.9157433 83.4841294,82.0373129 C83.4126942,82.2627882 82.9407029,82.7984217 81.8151451,83.9315127 C80.624906,85.1298045 80.247209,85.452951 79.8934103,85.5747804 C79.6991068,85.6417995 79.3606341,85.898966 79.1413932,86.1465211 C78.9221524,86.3938165 78.6831694,86.5961728 78.6099159,86.5961728 C78.5366624,86.5961728 78.358724,86.6891683 78.2142952,86.8026852 C78.0698664,86.9162021 77.7176262,87.0593322 77.4313662,87.1208962 C77.1451062,87.1822006 76.8289733,87.3229927 76.7287043,87.433912 C76.6284354,87.5445715 76.4710184,87.6352292 76.3790619,87.6352292 C76.2871054,87.6352292 76.0385111,87.7279649 75.8268034,87.8414818 C75.6060039,87.9599343 75.0654349,88.0905956 74.5596742,88.1482632 C74.0744348,88.2033332 73.5650375,88.3220454 73.4273625,88.4124433 C72.6719685,88.9072939 67.3803142,88.8989815 66.6215432,88.401793 C66.4789327,88.3082779 65.9947325,88.1906048 65.5458601,88.1404703 C65.0920523,88.0898163 64.5577175,87.9570769 64.3431524,87.8422611 C64.1309251,87.7284845 63.8836297,87.6352292 63.7940111,87.6352292 C63.7041327,87.6352292 63.4721634,87.5183353 63.2786391,87.3754651 C63.0851149,87.2325948 62.8305461,87.1149217 62.7128729,87.1141424 C62.5954595,87.1133631 62.382453,87.0450451 62.2395827,86.9624401 C62.0967125,86.8798352 61.8629248,86.7541093 61.7200546,86.6831937 C61.5771843,86.6120184 61.2176708,86.3296548 60.9210202,86.0556037 C60.6243696,85.7812928 60.3230433,85.5571164 60.2510886,85.5571164 C60.0383418,85.5571164 59.3416545,85.0297953 59.2743756,84.8178278 C59.2403465,84.7100257 59.1515072,84.6219657 59.0769549,84.6219657 C59.0026624,84.6219657 58.6667874,84.3354459 58.3306527,83.9852839 C57.9947777,83.6348621 57.5718817,83.1966401 57.3913457,83.0109088 C57.2108097,82.8254372 56.9414343,82.4807302 56.7925895,82.2451242 C56.6440044,82.0092584 56.4816518,81.8165135 56.4322967,81.8165135 C56.3826817,81.8165135 56.2839714,81.6762408 56.2130558,81.5047965 C56.1421402,81.3333522 56.0462872,81.1930796 56.0000492,81.1930796 C55.9538112,81.1930796 55.8444505,80.9476026 55.7571698,80.647575 C55.6696293,80.3475475 55.502601,80.0207643 55.3859669,79.9212746 C55.2693328,79.821785 55.1739994,79.6724206 55.1739994,79.5895559 C55.1739994,79.5064314 55.0804843,79.3729126 54.9661881,79.2929053 C54.7095412,79.1131485 54.3723674,78.1852712 54.1700112,77.1002366 C54.0858476,76.6492861 53.9541472,76.217818 53.8775168,76.1411875 C53.7000979,75.9635089 53.632819,75.5491852 53.5011186,73.8157794 C53.3187642,71.4158189 53.4702067,69.118725 53.8676458,68.2568278 C53.9996059,67.9710873 54.1352028,67.4881858 54.1692319,67.1837423 C54.2424854,66.5265392 54.7017483,65.3196752 54.9778775,65.0575732 C55.0856796,64.9554859 55.1739994,64.8219672 55.1739994,64.7609226 C55.1739994,64.699878 55.2908932,64.5112893 55.4337635,64.3414036 C55.5766337,64.1715179 55.6935276,63.9517575 55.6935276,63.8530471 C55.6935276,63.7543367 55.8104214,63.5148343 55.9532917,63.32131 C56.0961619,63.1277858 56.2130558,62.9093242 56.2130558,62.8360707 C56.2130558,62.7625574 56.3299496,62.6261813 56.4728199,62.5324065 C56.6156901,62.4388914 56.732584,62.3032945 56.732584,62.2310801 C56.732584,62.1588657 56.8032398,62.0411926 56.8897412,61.9694977 C56.9759829,61.8978028 57.1370367,61.6349215 57.2474364,61.3852882 C57.3578361,61.1356549 57.5160325,60.9314803 57.5988972,60.9314803 C57.6820217,60.9314803 58.0236115,60.6493765 58.3581877,60.3044098 C58.6927638,59.9594431 59.1133219,59.5848633 59.2925591,59.4718659 C59.4717963,59.3588685 59.8320891,59.0684523 60.093152,58.8260924 C60.6342406,58.3242281 61.2059814,57.9467909 61.5610789,57.8576918 C61.6948574,57.8241823 61.9104616,57.6839096 62.0400839,57.5457152 C62.1697062,57.4077804 62.3403712,57.294783 62.4193395,57.294783 C62.498048,57.294783 62.764566,57.2028265 63.0113419,57.0903487 C63.2583775,56.9778708 63.6843906,56.8357799 63.9587015,56.7742158 C64.2327526,56.7126517 64.507583,56.597836 64.5691471,56.5186079 C64.630971,56.4393799 64.8917741,56.3206677 65.1489406,56.2546876 C65.406107,56.1889673 65.7289938,56.0627219 65.866409,55.9744021 C66.004084,55.8863421 66.611932,55.7468488 67.2171823,55.6647633 C69.6579257,55.3335641 70.617754,55.3340837 72.9236799,55.6671012 M66.5490691,63.9491598 C66.5121826,64.0086458 66.3106056,64.1265787 66.1012358,64.211002 C65.8677078,64.3050366 65.3385684,64.7694948 64.733318,65.4113719 C64.1904111,65.9872689 63.3838436,66.8270862 62.9409458,67.2777769 C62.498048,67.7284676 62.1356771,68.1285043 62.1356771,68.1666896 C62.1356771,68.204875 61.9018894,68.4602231 61.6161489,68.7340144 C61.3304084,69.0080655 61.0966207,69.2782202 61.0966207,69.334589 C61.0966207,69.3909578 60.8664697,69.5860406 60.585405,69.7681353 C60.2612194,69.9780247 60.0489921,70.1998632 60.0056115,70.3731258 C59.9682055,70.5235293 59.8679366,70.7238074 59.7829937,70.8181017 C59.253075,71.4062076 59.2912603,72.8359492 59.8601436,73.7038211 C60.0258731,73.9563118 60.16147,74.1981521 60.16147,74.241273 C60.16147,74.284134 60.313432,74.3693367 60.4991633,74.4309008 C60.8719248,74.5540289 61.3389806,75.0787524 61.5717293,75.6364659 C61.6548538,75.8351854 61.7808394,75.9977978 61.8517549,75.9977978 C61.9226705,75.9977978 62.1442493,76.2053493 62.3440079,76.4591388 C62.5437665,76.7126686 62.9232818,77.0872484 63.1872022,77.2911632 C63.4511225,77.495078 63.801804,77.8603063 63.9662347,78.1026662 C64.2296355,78.4907538 65.2014129,79.503574 65.7349684,79.946212 C66.0648688,80.2197436 67.7681419,80.163115 68.0824565,79.8682828 C68.2193522,79.7396995 68.3884586,79.6344951 68.4578156,79.6344951 C68.5274324,79.6344951 68.6131545,79.5526694 68.6484825,79.4526602 C68.6838104,79.352651 68.8087569,79.1640623 68.9261703,79.0336607 C69.2700979,78.6518075 69.3010099,77.5550835 68.9794219,77.1472539 C68.8443446,76.9760693 68.5934125,76.6443506 68.4219682,76.4100434 C68.2505239,76.1759959 68.0050468,75.8853199 67.8764636,75.7645296 C67.7478803,75.6437393 67.6426759,75.4847637 67.6426759,75.4115102 C67.6426759,75.3385165 67.5398093,75.182658 67.4138237,75.0655044 C66.8215616,74.5135057 66.9813165,74.4963613 73.2226684,74.4392132 C77.6984037,74.3981705 78.9086446,74.3592059 78.943453,74.2545209 C78.9676111,74.1815272 79.1585377,74.0347605 79.3676478,73.9279975 C80.7072512,73.2442984 80.5337288,70.9479838 79.072296,70.0185479 C78.980859,69.9603607 76.5632346,69.8977576 73.2327992,69.8673652 C69.0734565,69.8294396 67.5161708,69.7826821 67.4268119,69.6930635 C67.2254948,69.4917463 67.4060308,69.0701492 67.9507561,68.4687953 C68.2318208,68.1583772 68.5430182,67.773147 68.6425079,67.6131324 C68.7417378,67.4528579 68.8965572,67.261152 68.9861758,67.1871192 C69.2685393,66.9541109 69.2150279,65.5532031 68.9155199,65.3435735 C68.7869367,65.2534353 68.6812127,65.1240728 68.6806932,65.0557549 C68.6757577,64.4993402 66.8080539,63.5299006 66.5490691,63.9491598"></path>
        </g>
    </g>
</svg>