<?xml version="1.0" encoding="UTF-8" standalone="no"?>
<!DOCTYPE svg PUBLIC "-//W3C//DTD SVG 1.1//EN" "http://www.w3.org/Graphics/SVG/1.1/DTD/svg11.dtd">
<!-- Created with Vectornator (http://vectornator.io/) -->
<svg height="200.0pt" stroke-miterlimit="10" style="fill-rule:nonzero;clip-rule:evenodd;stroke-linecap:round;stroke-linejoin:round;" version="1.1" viewBox="0 0 200 200" width="200.0pt" xml:space="preserve" xmlns="http://www.w3.org/2000/svg" xmlns:xlink="http://www.w3.org/1999/xlink">
<defs/>
<g id="Layer-1">
<g fill="#000000" opacity="1" stroke="none">
<path d="M7.83222 89.1646L10.8878 89.1646L32.13 112.876L32.3744 112.876L32.3744 89.1646L34.77 89.1646L34.77 122.336L33.4989 122.336L10.4967 95.9846L10.3011 95.9846L10.3011 121.578L7.83222 121.578L7.83222 89.1646Z"/>
<path d="M59.9967 122.336C57.487 122.336 55.1444 121.888 52.9689 120.991C50.7933 120.095 48.903 118.869 47.2978 117.312C45.6926 115.756 44.4296 113.939 43.5089 111.861C42.5881 109.784 42.1278 107.563 42.1278 105.2C42.1278 103.652 42.3356 102.161 42.7511 100.727C43.1667 99.2928 43.7574 97.9565 44.5233 96.718C45.2893 95.4795 46.2141 94.3509 47.2978 93.3324C48.3815 92.3139 49.5833 91.4421 50.9033 90.7169C52.2233 89.9917 53.6533 89.4295 55.1933 89.0302C56.7333 88.6309 58.3344 88.4313 59.9967 88.4313C61.6752 88.4313 63.2804 88.6309 64.8122 89.0302C66.3441 89.4295 67.7741 89.9917 69.1022 90.7169C70.4304 91.4421 71.6322 92.3139 72.7078 93.3324C73.7833 94.3509 74.7081 95.4795 75.4822 96.718C76.2563 97.9565 76.8511 99.2928 77.2667 100.727C77.6822 102.161 77.89 103.652 77.89 105.2C77.89 106.781 77.6822 108.296 77.2667 109.747C76.8511 111.197 76.2563 112.558 75.4822 113.829C74.7081 115.1 73.7833 116.257 72.7078 117.3C71.6322 118.343 70.4304 119.239 69.1022 119.989C67.7741 120.739 66.3441 121.317 64.8122 121.725C63.2804 122.132 61.6752 122.336 59.9967 122.336ZM59.9967 120.722C61.8544 120.722 63.4963 120.335 64.9222 119.561C66.3481 118.787 67.55 117.708 68.5278 116.322C69.5056 114.937 70.243 113.299 70.74 111.409C71.237 109.519 71.4856 107.449 71.4856 105.2C71.4856 102.968 71.237 100.922 70.74 99.0646C70.243 97.2069 69.5056 95.6058 68.5278 94.2613C67.55 92.9169 66.3481 91.8739 64.9222 91.1324C63.4963 90.3909 61.8544 90.0202 59.9967 90.0202C58.1063 90.0202 56.4481 90.3909 55.0222 91.1324C53.5963 91.8739 52.3985 92.9169 51.4289 94.2613C50.4593 95.6058 49.73 97.2069 49.2411 99.0646C48.7522 100.922 48.5078 102.968 48.5078 105.2C48.5078 107.449 48.7522 109.519 49.2411 111.409C49.73 113.299 50.4593 114.937 51.4289 116.322C52.3985 117.708 53.5963 118.787 55.0222 119.561C56.4481 120.335 58.1063 120.722 59.9967 120.722Z"/>
<path d="M85.2233 89.1646L90.7967 89.1646L103.41 114.025L103.679 114.025L116.048 89.1646L121.523 89.1646L121.523 121.578L116.048 121.578L116.048 95.0069L115.877 95.0069L102.579 121.578L101.454 121.578L88.01 95.2269L87.6433 95.2269L87.6433 121.578L85.2233 121.578L85.2233 89.1646Z"/>
<path d="M143.01 88.4313L158.263 121.578L152.714 121.578L147.777 110.774L133.868 110.774L128.759 121.578L126.021 121.578L141.641 88.4313L143.01 88.4313ZM134.821 108.671L146.774 108.671L140.883 95.838L134.821 108.671Z"/>
<path d="M162.761 89.1646L173.566 89.1646C176.89 89.1646 179.75 89.4743 182.146 90.0935C184.541 90.7128 186.537 91.7069 188.134 93.0758C189.96 94.6402 191.333 96.4328 192.253 98.4535C193.174 100.474 193.634 102.682 193.634 105.078C193.634 107.359 193.223 109.502 192.4 111.507C191.577 113.511 190.371 115.259 188.782 116.75C187.193 118.241 185.23 119.419 182.891 120.282C180.553 121.146 177.876 121.578 174.861 121.578L162.761 121.578L162.761 89.1646ZM168.212 119.207L174.006 119.207C175.831 119.207 177.55 118.905 179.163 118.302C180.777 117.699 182.182 116.803 183.38 115.614C184.578 114.424 185.523 112.961 186.216 111.226C186.908 109.49 187.254 107.482 187.254 105.2C187.254 103.196 186.929 101.358 186.277 99.688C185.625 98.0176 184.712 96.5795 183.539 95.3735C182.366 94.1676 180.968 93.2306 179.347 92.5624C177.725 91.8943 175.953 91.5602 174.03 91.5602L168.212 91.5602L168.212 119.207Z"/>
</g>
</g>
</svg>
