<?xml version="1.0" encoding="UTF-8"?>
<svg width="32px" height="32px" viewBox="0 0 32 32" version="1.1" xmlns="http://www.w3.org/2000/svg" xmlns:xlink="http://www.w3.org/1999/xlink">
    <title>springthymleaf</title>
    <g id="springthymleaf" stroke="none" stroke-width="1" fill="none" fill-rule="evenodd">
        <g id="Group" fill-rule="nonzero">
            <rect id="rect4303" fill="#005F0F" x="0" y="0" width="31.7909518" height="31.8445319"></rect>
            <path d="M20.0822626,24.6447415 C20.0815968,24.6478917 20.0809302,24.6510417 20.0802626,24.6541915" id="path4305" fill="#FFFFFF"></path>
            <path d="M27.0951538,4.34202966 C23.1799365,9.13971581 18.3983702,13.1580717 13.2992291,16.6415087 C11.641553,17.8281102 9.81155944,18.8842192 8.53712744,20.5091463 C8.05038149,21.3643143 7.93291555,22.5685729 8.76512138,23.2624782 C10.1510552,24.5685694 12.3098115,24.8526827 14.0460624,24.1214948 C16.4768671,23.1956518 18.1556978,21.088111 19.5669272,18.9989971 C22.7160524,14.4621253 24.6258038,9.24376355 27.0951538,4.34202966 L27.0951538,4.34202966 Z" id="path4307" fill="#FFFFFF"></path>
            <path d="M24.8496083,6.00097851 C19.9749203,9.86340203 16.0757739,11.9507736 11.0904732,13.7463355 C9.58587122,14.3901478 7.97337046,15.2071891 7.27438322,16.7869859 C6.55471533,18.2816038 6.79058474,20.3658814 7.61615706,21.7497898 C7.5543936,21.1671978 7.86563252,20.2259619 8.32867252,19.7840868 C9.86516895,18.0729949 11.8664541,16.9518775 13.6268053,15.6526256 L13.6310085,15.6490451 L13.6352291,15.6462083 C17.7092079,12.848329 21.5286466,9.65116765 24.8496083,6.00097851 L24.8496083,6.00097851 Z" id="path4309" fill="#AEA99F"></path>
        </g>
    </g>
</svg>