<?xml version="1.0" encoding="UTF-8" standalone="no"?>
<!DOCTYPE svg PUBLIC "-//W3C//DTD SVG 1.1//EN" "http://www.w3.org/Graphics/SVG/1.1/DTD/svg11.dtd">
<!-- Created with Vectornator (http://vectornator.io/) -->
<svg height="100%" stroke-miterlimit="10" style="fill-rule:nonzero;clip-rule:evenodd;stroke-linecap:round;stroke-linejoin:round;" version="1.1" viewBox="0 0 100 100" width="100%" xml:space="preserve" xmlns="http://www.w3.org/2000/svg" xmlns:vectornator="http://vectornator.io" xmlns:xlink="http://www.w3.org/1999/xlink">
<defs/>
<g id="Layer-1" vectornator:layerName="Layer 1">
<path d="M46.125 10.625C24.4978 10.625 6.96875 28.1526 6.96875 49.7812C6.96875 71.4099 24.4978 88.9688 46.125 88.9688C57.7995 88.9687 68.1702 83.7674 75.3438 75.6562L65.2812 67.125C60.6214 72.4047 53.8766 75.8125 46.2812 75.8125C32.2298 75.8125 20.8438 64.4204 20.8438 50.375C20.8438 36.3296 32.2298 24.9375 46.2812 24.9375C53.3947 24.9375 59.8223 27.8609 64.4375 32.5625C68.9067 28.8156 69.8528 28.0518 75.0625 23.625C67.8975 15.7009 57.6509 10.625 46.125 10.625Z" fill="#000000" fill-rule="nonzero" opacity="1" stroke="none"/>
<path d="M46.5625 33.9688C38.1849 33.9687 31.4062 40.7474 31.4062 49.125C31.4062 57.5026 38.1849 64.3125 46.5625 64.3125C54.9401 64.3125 61.75 57.5026 61.75 49.125C61.75 40.7474 54.9401 33.9688 46.5625 33.9688ZM46.0938 41.0938C50.4409 41.0938 53.9688 44.6216 53.9688 48.9688C53.9688 53.3159 50.4409 56.8438 46.0938 56.8438C41.7466 56.8438 38.2188 53.3159 38.2188 48.9688C38.2188 44.6216 41.7466 41.0938 46.0938 41.0938Z" fill="#000000" fill-rule="nonzero" opacity="1" stroke="none"/>
<path d="M64.8891 43.41C64.8891 42.0722 65.9736 40.9876 67.3115 40.9876C68.6493 40.9876 69.7339 42.0722 69.7339 43.41C69.7339 44.7479 68.6493 45.8324 67.3115 45.8324C65.9736 45.8324 64.8891 44.7479 64.8891 43.41Z" fill="#000000" fill-rule="nonzero" opacity="1" stroke="none"/>
<path d="M64.926 55.1617C64.926 53.8238 66.0106 52.7393 67.3484 52.7393C68.6863 52.7393 69.7708 53.8238 69.7708 55.1617C69.7708 56.4995 68.6863 57.5841 67.3484 57.5841C66.0106 57.5841 64.926 56.4995 64.926 55.1617Z" fill="#000000" fill-rule="nonzero" opacity="1" stroke="none"/>
<path d="M72.55 34.35L94 34.35L94 40.41C94 40.41 80.6718 56.4702 80.6718 56.49C80.6718 56.5098 94 56.49 94 56.49L94 62.47L72.55 62.47C72.55 62.47 72.5857 56.462 72.55 56.49C72.5143 56.518 85.6689 40.41 85.6689 40.41L72.55 40.41L72.55 34.35Z" fill="#000000" fill-rule="nonzero" opacity="1" stroke="none"/>
</g>
</svg>
