<?xml version="1.0" encoding="UTF-8"?>
<svg width="42px" height="42px" viewBox="0 0 42 42" version="1.1" xmlns="http://www.w3.org/2000/svg" xmlns:xlink="http://www.w3.org/1999/xlink">
    <title>automapper</title>
    <g id="automapper" stroke="none" stroke-width="1" fill="none" fill-rule="evenodd">
        <rect id="Rectangle" fill="#000000" x="0" y="0" width="42" height="42" rx="8"></rect>
        <g id="shuffle-svgrepo-com" transform="translate(20.000000, 22.000000) scale(-1, 1) translate(-20.000000, -22.000000) translate(-3.000000, 9.000000)" fill="#FFFFFF" fill-rule="nonzero">
            <path d="M18.4050064,19.4709991 L19.8244157,17.5155311 C20.1650739,17.0468652 19.9947448,16.4408317 19.4459065,16.1499356 C18.906531,15.8590395 18.1873637,16.0044876 17.8467055,16.4731535 L16.4272962,18.4286215 C13.8534341,21.9759376 10.1818956,24.0122101 6.34002792,24.0122101 L1.15445285,24.0122101 C0.510987325,24.0122101 0,24.4566347 0,25.0061051 C0,25.5555754 0.520450053,26 1.15445285,26 L6.34949065,26 C11.0146157,25.9838391 15.4053216,23.6081878 18.4050064,19.4709991 Z" id="Path"></path>
            <path d="M45.6647497,0.315236427 L42.1290573,0 C42.1197772,0 42.1197772,0 42.1104972,0 L36.8487188,0 C32.2829428,0 27.9677276,2.57443082 25.0259573,7.05779335 L24.1721943,8.36252189 C23.8381132,8.8704028 24.0051538,9.52714536 24.5433956,9.84238179 C24.7289963,9.9474606 24.933157,10 25.1373177,10 C25.5177991,10 25.8890004,9.81611208 26.1024411,9.49211909 L26.9562041,8.18739054 C29.4803729,4.34325744 33.0810256,2.14535902 36.8487188,2.14535902 L42.1012172,2.14535902 C42.1104972,2.14535902 42.1104972,2.14535902 42.1197772,2.14535902 L45.6740297,1.83012259 C46.1101912,1.40980736 46.1101912,0.726795096 45.6647497,0.315236427 Z M42.99,2.02 C42.99,2.01 42.99,2.01 42.99,2 C42.99,1.99 42.99,1.99 42.99,1.98 L43.01,2 L42.99,2.02 Z" id="Shape"></path>
            <path d="M45.6621098,25.0129062 C46.1126301,24.6379062 46.1126301,24.0363437 45.6621098,23.6613437 L42.076719,23.3879062 C42.0673332,23.3879062 42.0673332,23.3879062 42.0579474,23.3879062 L36.9051214,23.3879062 C33.1038564,23.3879062 29.4527647,21.4191562 26.8998164,17.9894687 L18.433789,6.60665618 C15.4584779,2.59884368 11.0940624,0.309781176 6.47622934,0.309781176 L1.14507243,0.309781176 C0.50683534,0.309781176 0,0.739468676 0,1.27071868 C0,1.80196868 0.516221179,2.23165618 1.14507243,2.23165618 L6.4668435,2.23165618 C10.2681085,2.23165618 13.9192002,4.20040618 16.4721485,7.62228118 L24.9381759,19.0050937 C27.913487,23.0129062 32.2779025,25.3097812 36.8957356,25.3097812 L42.0485615,25.3097812 C42.0579474,25.3097812 42.0579474,25.3097812 42.0673332,25.3097812 L45.6621098,25.0129062 Z M43.2114764,24.3216235 L43.2344764,24.3430521 L43.2114764,24.3644806 C43.2114764,24.3537663 43.2114764,24.3537663 43.2114764,24.3430521 C43.2114764,24.3323378 43.2114764,24.3323378 43.2114764,24.3216235 Z" id="Shape"></path>
        </g>
        <g id="shuffle-svgrepo-com-copy" transform="translate(20.000000, 23.000000) scale(-1, 1) translate(-20.000000, -23.000000) translate(-3.000000, 10.000000)" fill="#FFFFFF" fill-rule="nonzero">
            <path d="M18.4050064,19.4709991 L19.8244157,17.5155311 C20.1650739,17.0468652 19.9947448,16.4408317 19.4459065,16.1499356 C18.906531,15.8590395 18.1873637,16.0044876 17.8467055,16.4731535 L16.4272962,18.4286215 C13.8534341,21.9759376 10.1818956,24.0122101 6.34002792,24.0122101 L1.15445285,24.0122101 C0.510987325,24.0122101 0,24.4566347 0,25.0061051 C0,25.5555754 0.520450053,26 1.15445285,26 L6.34949065,26 C11.0146157,25.9838391 15.4053216,23.6081878 18.4050064,19.4709991 Z" id="Path"></path>
            <path d="M45.6647497,0.315236427 L42.1290573,0 C42.1197772,0 42.1197772,0 42.1104972,0 L36.8487188,0 C32.2829428,0 27.9677276,2.57443082 25.0259573,7.05779335 L24.1721943,8.36252189 C23.8381132,8.8704028 24.0051538,9.52714536 24.5433956,9.84238179 C24.7289963,9.9474606 24.933157,10 25.1373177,10 C25.5177991,10 25.8890004,9.81611208 26.1024411,9.49211909 L26.9562041,8.18739054 C29.4803729,4.34325744 33.0810256,2.14535902 36.8487188,2.14535902 L42.1012172,2.14535902 C42.1104972,2.14535902 42.1104972,2.14535902 42.1197772,2.14535902 L45.6740297,1.83012259 C46.1101912,1.40980736 46.1101912,0.726795096 45.6647497,0.315236427 Z M42.99,2.02 C42.99,2.01 42.99,2.01 42.99,2 C42.99,1.99 42.99,1.99 42.99,1.98 L43.01,2 L42.99,2.02 Z" id="Shape"></path>
            <path d="M45.6621098,25.0129062 C46.1126301,24.6379062 46.1126301,24.0363437 45.6621098,23.6613437 L42.076719,23.3879062 C42.0673332,23.3879062 42.0673332,23.3879062 42.0579474,23.3879062 L36.9051214,23.3879062 C33.1038564,23.3879062 29.4527647,21.4191562 26.8998164,17.9894687 L18.433789,6.60665618 C15.4584779,2.59884368 11.0940624,0.309781176 6.47622934,0.309781176 L1.14507243,0.309781176 C0.50683534,0.309781176 0,0.739468676 0,1.27071868 C0,1.80196868 0.516221179,2.23165618 1.14507243,2.23165618 L6.4668435,2.23165618 C10.2681085,2.23165618 13.9192002,4.20040618 16.4721485,7.62228118 L24.9381759,19.0050937 C27.913487,23.0129062 32.2779025,25.3097812 36.8957356,25.3097812 L42.0485615,25.3097812 C42.0579474,25.3097812 42.0579474,25.3097812 42.0673332,25.3097812 L45.6621098,25.0129062 Z M43.2114764,24.3216235 L43.2344764,24.3430521 L43.2114764,24.3644806 C43.2114764,24.3537663 43.2114764,24.3537663 43.2114764,24.3430521 C43.2114764,24.3323378 43.2114764,24.3323378 43.2114764,24.3216235 Z" id="Shape"></path>
        </g>
        <g id="shuffle-svgrepo-com-copy-2" transform="translate(20.000000, 21.000000) scale(-1, 1) translate(-20.000000, -21.000000) translate(-3.000000, 8.000000)" fill="#FFFFFF" fill-rule="nonzero">
            <path d="M18.4050064,19.4709991 L19.8244157,17.5155311 C20.1650739,17.0468652 19.9947448,16.4408317 19.4459065,16.1499356 C18.906531,15.8590395 18.1873637,16.0044876 17.8467055,16.4731535 L16.4272962,18.4286215 C13.8534341,21.9759376 10.1818956,24.0122101 6.34002792,24.0122101 L1.15445285,24.0122101 C0.510987325,24.0122101 0,24.4566347 0,25.0061051 C0,25.5555754 0.520450053,26 1.15445285,26 L6.34949065,26 C11.0146157,25.9838391 15.4053216,23.6081878 18.4050064,19.4709991 Z" id="Path"></path>
            <path d="M45.6647497,0.315236427 L42.1290573,0 C42.1197772,0 42.1197772,0 42.1104972,0 L36.8487188,0 C32.2829428,0 27.9677276,2.57443082 25.0259573,7.05779335 L24.1721943,8.36252189 C23.8381132,8.8704028 24.0051538,9.52714536 24.5433956,9.84238179 C24.7289963,9.9474606 24.933157,10 25.1373177,10 C25.5177991,10 25.8890004,9.81611208 26.1024411,9.49211909 L26.9562041,8.18739054 C29.4803729,4.34325744 33.0810256,2.14535902 36.8487188,2.14535902 L42.1012172,2.14535902 C42.1104972,2.14535902 42.1104972,2.14535902 42.1197772,2.14535902 L45.6740297,1.83012259 C46.1101912,1.40980736 46.1101912,0.726795096 45.6647497,0.315236427 Z M42.99,2.02 C42.99,2.01 42.99,2.01 42.99,2 C42.99,1.99 42.99,1.99 42.99,1.98 L43.01,2 L42.99,2.02 Z" id="Shape"></path>
            <path d="M45.6621098,25.0129062 C46.1126301,24.6379062 46.1126301,24.0363437 45.6621098,23.6613437 L42.076719,23.3879062 C42.0673332,23.3879062 42.0673332,23.3879062 42.0579474,23.3879062 L36.9051214,23.3879062 C33.1038564,23.3879062 29.4527647,21.4191562 26.8998164,17.9894687 L18.433789,6.60665618 C15.4584779,2.59884368 11.0940624,0.309781176 6.47622934,0.309781176 L1.14507243,0.309781176 C0.50683534,0.309781176 0,0.739468676 0,1.27071868 C0,1.80196868 0.516221179,2.23165618 1.14507243,2.23165618 L6.4668435,2.23165618 C10.2681085,2.23165618 13.9192002,4.20040618 16.4721485,7.62228118 L24.9381759,19.0050937 C27.913487,23.0129062 32.2779025,25.3097812 36.8957356,25.3097812 L42.0485615,25.3097812 C42.0579474,25.3097812 42.0579474,25.3097812 42.0673332,25.3097812 L45.6621098,25.0129062 Z M43.2114764,24.3216235 L43.2344764,24.3430521 L43.2114764,24.3644806 C43.2114764,24.3537663 43.2114764,24.3537663 43.2114764,24.3430521 C43.2114764,24.3323378 43.2114764,24.3323378 43.2114764,24.3216235 Z" id="Shape"></path>
        </g>
    </g>
</svg>