<?xml version="1.0" encoding="UTF-8"?>
<svg width="74.78mm" height="28.98mm" inkscape:version="1.0.2 (e86c870879, 2021-01-15, custom)" sodipodi:docname="Apache_Felix_logo.svg" version="1.1" viewBox="0 0 74.78 28.98" xmlns="http://www.w3.org/2000/svg" xmlns:cc="http://creativecommons.org/ns#" xmlns:dc="http://purl.org/dc/elements/1.1/" xmlns:inkscape="http://www.inkscape.org/namespaces/inkscape" xmlns:rdf="http://www.w3.org/1999/02/22-rdf-syntax-ns#" xmlns:sodipodi="http://sodipodi.sourceforge.net/DTD/sodipodi-0.dtd" xmlns:xlink="http://www.w3.org/1999/xlink">
 <defs>
  <linearGradient id="cvfd" inkscape:collect="always">
   <stop style="stop-color:#044c81" offset="0"/>
   <stop style="stop-color:#3fcef8" offset="1"/>
  </linearGradient>
  <linearGradient id="cvfa" x1="-128.7" x2="-114.5" y1="145" y2="147.1" gradientUnits="userSpaceOnUse" xlink:href="#cvfd" inkscape:collect="always"/>
  <linearGradient id="cvfc" x1="92.68" x2="92.68" y1="79.24" y2="37.57" gradientTransform="matrix(.2646 0 0 .2646 -148.4 132.4)" gradientUnits="userSpaceOnUse" inkscape:collect="always">
   <stop style="stop-opacity:.07765" offset="0"/>
   <stop style="stop-color:#fff;stop-opacity:.4902" offset="1"/>
  </linearGradient>
  <linearGradient id="cvfb" x1="85.89" x2="85.89" y1="40.03" y2="76.01" gradientTransform="matrix(.2646 0 0 .2646 -148.3 132.4)" gradientUnits="userSpaceOnUse" inkscape:collect="always">
   <stop style="stop-opacity:.3106" offset="0"/>
   <stop style="stop-opacity:.4918" offset="1"/>
  </linearGradient>
  <linearGradient id="cvff" x1="-135.1" x2="-127.4" y1="154.6" y2="134.2" gradientTransform="translate(-.0167 -.008352)" gradientUnits="userSpaceOnUse" inkscape:collect="always">
   <stop style="stop-color:#2b2b2b;stop-opacity:.5812" offset="0"/>
   <stop style="stop-color:#101010;stop-opacity:.02353" offset=".4257"/>
   <stop style="stop-opacity:.5224" offset=".6893"/>
   <stop style="stop-color:#fff;stop-opacity:.9765" offset="1"/>
  </linearGradient>
  <linearGradient id="cvfe" x1="-124.9" x2="-137.3" y1="149.7" y2="140.1" gradientTransform="matrix(1 0 0 1.001 .02011 -.1262)" gradientUnits="userSpaceOnUse" inkscape:collect="always">
   <stop offset="0"/>
   <stop style="stop-opacity:.5694" offset=".4411"/>
   <stop style="stop-color:#fff;stop-opacity:.9553" offset="1"/>
  </linearGradient>
 </defs>
 <sodipodi:namedview id="cvfg" bordercolor="#666666" borderopacity="1.0" fit-margin-bottom="0" fit-margin-left="0" fit-margin-right="0" fit-margin-top="0" inkscape:current-layer="layer1" inkscape:cx="88.047409" inkscape:cy="69.91242" inkscape:document-rotation="0" inkscape:document-units="mm" inkscape:pageopacity="0.0" inkscape:pageshadow="2" inkscape:snap-global="false" inkscape:window-height="1014" inkscape:window-maximized="1" inkscape:window-width="1920" inkscape:window-x="0" inkscape:window-y="36" inkscape:zoom="3.959798" pagecolor="#ffffff" showgrid="false"/>
 <title>Apache Felix logo</title>
 <metadata>
  <rdf:RDF>
   <cc:Work rdf:about="">
    <dc:format>image/svg+xml</dc:format>
    <dc:type rdf:resource="http://purl.org/dc/dcmitype/StillImage"/>
    <dc:title>Apache Felix logo</dc:title>
   </cc:Work>
  </rdf:RDF>
 </metadata>
 <g transform="translate(148.4 -132.3)" inkscape:groupmode="layer" inkscape:label="Layer 1">
  <g transform="matrix(1.468 0 0 1.468 51.16 -71.99)" style="stroke:url(#cvfa)">
   <g transform="translate(-19.73 14.36)" style="stroke:url(#cvfa)"></g>
   <path d="m-121.4 144.4a1.728 1.728 0 0 1-1.728 1.728 1.728 1.728 0 0 1-1.728-1.728 1.728 1.728 0 0 1 1.728-1.728 1.728 1.728 0 0 1 1.728 1.728zm6.157 5.375a4.529 4.529 0 0 1-4.529 4.529 4.529 4.529 0 0 1-4.529-4.529 4.529 4.529 0 0 1 4.529-4.529 4.529 4.529 0 0 1 4.529 4.529zm-2.801 0a1.728 1.728 0 0 1-1.728 1.728 1.728 1.728 0 0 1-1.728-1.728 1.728 1.728 0 0 1 1.728-1.728 1.728 1.728 0 0 1 1.728 1.728zm-3.911 0a4.529 4.529 0 0 1-4.529 4.529 4.529 4.529 0 0 1-4.529-4.529 4.529 4.529 0 0 1 4.529-4.529 4.529 4.529 0 0 1 4.529 4.529zm-2.801 0a1.728 1.728 0 0 1-1.728 1.728 1.728 1.728 0 0 1-1.728-1.728 1.728 1.728 0 0 1 1.728-1.728 1.728 1.728 0 0 1 1.728 1.728zm6.157-5.375a4.529 4.529 0 0 1-4.529 4.529 4.529 4.529 0 0 1-4.529-4.529 4.529 4.529 0 0 1 4.529-4.529 4.529 4.529 0 0 1 4.529 4.529z" style="fill:none;stroke-linecap:round;stroke-linejoin:bevel;stroke-width:1.498;stroke:url(#cvfa)" inkscape:connector-curvature="0"/>
  </g>
  <path d="m-124.7 142.3c-1.285 0.0132-2.577 0.4549-3.559 1.29-9e-3 0.1195 0.1173 0.2171 0.1654 0.3242 0.3616 0.563 0.6314 1.179 0.8507 1.81 0.0743 0.1016 0.1514-0.0719 0.2081-0.1122 0.5287-0.5192 1.233-0.8781 1.974-0.956 0.5451-0.0377 1.104-0.0228 1.613 0.1993 1.111 0.4219 1.963 1.467 2.118 2.646 0.138 0.9769-0.1632 2.019-0.8385 2.751-0.6665 0.7378-1.673 1.161-2.668 1.085-0.8636-0.0117-1.689-0.4342-2.284-1.052-0.043-0.0722-0.1452-0.0813-0.1493 0.0206-0.2353 0.7148-0.5672 1.401-0.9924 2.025-0.023 0.1034 0.1289 0.1442 0.1838 0.2091 1.02 0.7696 2.302 1.188 3.581 1.137 1.853-0.0248 3.646-1.054 4.633-2.617 0.4856-0.7682 0.8104-1.652 0.8747-2.562 0.0117-0.648 0.0369-1.31-0.1552-1.937-0.423-1.675-1.659-3.114-3.247-3.792-0.7249-0.319-1.517-0.4792-2.309-0.4689zm-7.049 3.041c-0.0686 0.0341-0.0792 0.1288-0.1188 0.1892-0.0317 0.086-0.1401 0.1097-0.1429 0.2024 0.1569 0.2008 0.3575 0.4644 0.4716 0.6932 0.1887 0.3598 0.3072 0.7486 0.3666 1.149 8e-3 0.0476 0.065 0.0466 0.0917 0.0205 0.7335 0.1382 1.484 0.1455 2.227 0.1156 0.0717-0.029 0.0189-0.1245 0.0259-0.184-0.0535-0.6027-0.1953-1.2-0.4353-1.756-0.0324-0.074-0.1196-0.0229-0.1775-0.0307-0.4406 0.0226-0.8822-0.01-1.313-0.1044-0.339-0.0671-0.665-0.1817-0.9897-0.2941l-5e-3 -3.9e-4zm-5.007-2.565c-0.3734 0.1228-0.7101 0.3442-1.034 0.5636-1.145 0.8078-1.982 2.043-2.278 3.415-0.395 1.726 0.0804 3.623 1.25 4.953 0.8768 1.018 2.117 1.717 3.449 1.911 0.5038 0.0869 1.021 0.0688 1.528 0.0281 1.619-0.1852 3.133-1.105 4.039-2.46 0.6294-0.9214 0.9745-2.029 0.988-3.144-9e-3 -0.1154 0.0316-0.2807-0.0571-0.3609-0.7445 0.0199-1.493 0.0246-2.223-0.123-0.1024 0.0596-0.0366 0.219-0.0592 0.3143 0.0277 0.8432-0.2539 1.698-0.829 2.33-0.5176 0.5964-1.254 0.9968-2.034 1.113-0.7592 0.0914-1.558-0.0292-2.215-0.4392-1.042-0.6096-1.703-1.813-1.632-3.023 0.0169-0.8965 0.4442-1.777 1.117-2.367 0.3072-0.2917 0.6933-0.495 1.081-0.6584 0.1079-7.8e-4 0.0494-0.121 1.5e-4 -0.1645-0.4289-0.5688-0.7604-1.201-1.036-1.856-0.01-0.021-0.0316-0.0344-0.0549-0.0316zm2.074-2.414c-0.1917 7e-3 -0.3933-3e-3 -0.5766 0.0479 0.0127 0.7486 0.2373 1.487 0.5495 2.165 0.547 1.145 1.627 2.639 2.768 3.192 0.531-0.6752 0.988-1.745 1.064-2.115-0.2932-0.389-1.743-1.751-1.979-2.777-0.0426-0.1142-0.0232-0.2674-0.1066-0.3579-0.5658-0.1062-1.144-0.1623-1.72-0.1545zm4.985-5.946c-1.056-3e-3 -2.102 0.3404-2.987 0.9086-1.539 0.9936-2.547 2.768-2.589 4.602 2e-3 0.1574-0.0308 0.3215-4e-3 0.4744 0.4987 8e-3 1.005-0.0331 1.505 0.0243 0.2674 0.0124 0.5317 0.0928 0.7961 0.1022 0.0878-0.093 0.0148-0.2489 0.0313-0.3646-0.0266-1.069 0.5008-2.145 1.376-2.775 0.9611-0.7234 2.314-0.8498 3.398-0.341 1.178 0.5256 1.98 1.793 1.944 3.076 0.0172 0.1306-0.0295 0.2859 0.026 0.4039 0.2728-0.0153 0.555-0.0928 0.8354-0.1055 0.4828-0.0521 0.9733-0.0143 1.455-0.0223 0.0376-0.1978-4e-3 -0.4257 1e-3 -0.6351-0.0375-1.081-0.4389-2.136-1.067-3.011-0.9756-1.357-2.58-2.246-4.25-2.333-0.1569-5e-3 -0.314-6e-3 -0.471-5e-3zm-1.19 9.207c-0.1578 0.1377-0.2384 0.3522-0.3553 0.5255-0.2118 0.3694-0.4109 0.7501-0.5572 1.15 0.0371 0.1085 0.1965 0.1095 0.2863 0.1593 0.695 0.2423 1.438 0.3751 2.174 0.3078 0.1058-0.0505-0.0226-0.1817-0.0421-0.2541-0.3632-0.7149-0.853-1.374-1.474-1.884-0.0103-4e-3 -0.0207-7e-3 -0.0316-4e-3z" style="fill:#efff00" inkscape:connector-curvature="0"/>
  <g transform="translate(46.95 21.59)"></g>
  <rect x="-148.4" y="157.8" width="74.78" height="3.554" style="fill:#b3be0f"/>
  <text x="-113.92223" y="138.19125" style="fill:#9e9e9e;font-family:'Myriad Pro';font-size:6.519px;letter-spacing:0px;line-height:125%;stroke-width:.237px;word-spacing:0px" xml:space="preserve"><tspan x="-113.92223" y="138.19125" style="fill:#9e9e9e;stroke-width:.237px" sodipodi:role="line">APACHE</tspan></text>
  <text x="-114.25723" y="153.3996" style="fill:#000000;font-family:'Myriad Pro';font-size:18.66px;letter-spacing:0px;line-height:125%;stroke-width:.6786px;word-spacing:0px" xml:space="preserve"><tspan x="-114.25723" y="153.3996" style="font-family:Roboto;stroke-width:.6786px" sodipodi:role="line">felix</tspan></text>
  <path d="m-124.9 142.3c-1.209 0.0413-2.413 0.4824-3.345 1.256-0.1189 0.1758 0.1138 0.3484 0.175 0.4998 0.3347 0.5383 0.5549 1.135 0.8173 1.708 0.1167 0.0874 0.2259-0.1121 0.3185-0.1683 0.5314-0.4663 1.196-0.8269 1.91-0.8726 0.5855-0.0152 1.203-0.023 1.732 0.2678 1.163 0.5286 1.991 1.756 1.954 3.049-0.0165 1.142-0.6306 2.276-1.641 2.837-0.5692 0.3479-1.239 0.483-1.901 0.4396-0.8378-0.013-1.618-0.4522-2.216-1.025-0.0659-0.0769-0.1951-0.0832-0.2087 0.0406-0.2453 0.6832-0.5682 1.337-0.9511 1.953-0.0914 0.2223 0.208 0.3308 0.3417 0.4389 1.24 0.8643 2.828 1.206 4.312 0.9127 2.078-0.3577 3.846-1.988 4.437-4.003 0.2487-0.7409 0.1905-1.535 0.1822-2.304-0.0264-0.6612-0.295-1.285-0.5646-1.88-0.9134-1.884-2.953-3.177-5.054-3.15-0.0994-2e-3 -0.1989-1e-3 -0.2983 1.6e-4z" style="fill:url(#cvfc)" inkscape:connector-curvature="0"/>
  <path d="m-125.6 142.4c-0.9398 0.1643-1.842 0.5634-2.575 1.172-0.1189 0.1758 0.1135 0.3488 0.1747 0.5002 0.3347 0.5383 0.5551 1.135 0.8175 1.708 0.1167 0.0874 0.2257-0.1123 0.3183-0.1685 0.5314-0.4663 1.196-0.8272 1.91-0.8728 0.5855-0.0152 1.203-0.0226 1.732 0.2682 1.004 0.4563 1.757 1.433 1.92 2.524a5.696 5.696 0 0 0-4.298-5.131zm4.238 6.385c-0.2072 0.8738-0.7546 1.668-1.548 2.108-0.5692 0.3479-1.239 0.4826-1.901 0.4392-0.8378-0.013-1.618-0.452-2.215-1.025-0.0659-0.0769-0.1951-0.083-0.2088 0.0408-0.2453 0.6832-0.5684 1.337-0.9514 1.953-0.0914 0.2223 0.2079 0.3306 0.3416 0.4387 0.5227 0.3643 1.108 0.6345 1.72 0.8046a5.696 5.696 0 0 0 4.762-4.759z" style="fill:url(#cvfb)" inkscape:connector-curvature="0"/>
  <path d="m-129.7 134.4c-1.056-3e-3 -2.102 0.3408-2.987 0.909-1.539 0.9936-2.547 2.768-2.588 4.602 2e-3 0.1483-0.0258 0.3027-7e-3 0.448a5.134 5.94 67.02 0 1 0.7405-1.579 5.134 5.94 67.02 0 1 5.501-2.868 5.134 5.94 67.02 0 1 2.559 0.5772 5.134 5.94 67.02 0 1 2.573 3.364c-1e-3 -0.0347-4e-3 -0.0704-4e-3 -0.1044-0.0375-1.081-0.4388-2.136-1.067-3.011-0.9756-1.357-2.58-2.246-4.25-2.333-0.1569-5e-3 -0.3138-6e-3 -0.4708-5e-3zm0.6372 11.92a5.134 5.94 67.02 0 1-0.0997 0.0217 5.428 6.03 43.83 0 1-0.9157 2.963 5.428 6.03 43.83 0 1-7.921 2.501 5.428 6.03 43.83 0 1-1.765-1.643c0.2303 0.5554 0.5458 1.075 0.9441 1.528 0.8768 1.018 2.117 1.717 3.449 1.91 0.5038 0.0869 1.021 0.0691 1.529 0.0284 1.619-0.1852 3.132-1.106 4.039-2.46 0.6294-0.9214 0.9745-2.029 0.988-3.144-8e-3 -0.1041 0.0195-0.2456-0.0393-0.3318 0.0705-0.0294 0.0183-0.1241 0.0253-0.1834-0.0357-0.4026-0.1145-0.802-0.232-1.189z" style="fill:url(#cvff);opacity:.671" inkscape:connector-curvature="0"/>
  <circle cx="-150.7" cy="134.2" r="0" style="fill-opacity:.4165;fill:#ff00b9"/>
  <path d="m-130.1 134.4c-0.9318 0.0661-1.842 0.3921-2.626 0.8958-1.539 0.9945-2.547 2.77-2.588 4.606 2e-3 0.1575-0.0304 0.3217-4e-3 0.4748 0.0218 3.5e-4 0.0438-6.9e-4 0.0656-5.2e-4 -0.0156 3e-3 -0.0317 5e-3 -0.047 9e-3 0.0127 0.7493 0.2371 1.488 0.5493 2.167 0.5359 1.123 1.584 2.578 2.7 3.157-1.1e-4 2e-3 -2e-3 2e-3 -2e-3 4e-3 0.1569 0.2009 0.3577 0.4645 0.4718 0.6936 0.1887 0.3602 0.3069 0.7493 0.3664 1.15 4e-3 0.0216 0.0182 0.0319 0.0346 0.0357-0.0323 0.0747 3e-3 0.1877-0.0145 0.2622 0.0277 0.844-0.2543 1.7-0.8294 2.333-0.5176 0.5969-1.253 0.9977-2.034 1.114-0.7592 0.0915-1.558-0.0292-2.215-0.4396-1.042-0.6101-1.703-1.815-1.632-3.026 0.0169-0.8972 0.444-1.779 1.117-2.369 0.3072-0.292 0.6931-0.4953 1.081-0.6589 0.1079-7.7e-4 0.0498-0.121 5.2e-4 -0.1645-0.4289-0.5692-0.7607-1.202-1.037-1.858-0.01-0.021-0.0315-0.0343-0.0548-0.0315-0.3734 0.1229-0.7105 0.3446-1.035 0.5643-1.145 0.8086-1.981 2.044-2.277 3.418-0.395 1.727 0.0805 3.626 1.25 4.957 0.8768 1.019 2.117 1.718 3.449 1.912 0.3826 0.0661 0.7727 0.0708 1.161 0.0517-0.3745 0.0166-0.7506 0.01-1.12-0.0539-1.332-0.1941-2.572-0.8934-3.449-1.912-0.3983-0.4535-0.7138-0.9736-0.9441-1.529a5.43 6.032 43.59 0 0 1.765 1.645 5.43 6.032 43.59 0 0 7.921-2.503 5.43 6.032 43.59 0 0 0.9157-2.965 5.137 5.941 66.9 0 0 0.0605-0.0134c-0.0588-0.1947-0.1241-0.3874-0.2046-0.5741-0.01-0.0224-0.0259-0.0311-0.0434-0.0357 0.032-0.0613-0.0586-0.1629-0.0749-0.2234-0.3631-0.7156-0.8529-1.375-1.474-1.885-0.0103-4e-3 -0.0211-7e-3 -0.032-4e-3l-6e-3 6e-3c-0.3204-0.4103-1.729-1.746-1.962-2.758-0.0426-0.1143-0.0231-0.2673-0.1064-0.3579-2e-3 -3.8e-4 -4e-3 -6.5e-4 -6e-3 -1e-3 0.0725-0.094 7e-3 -0.2421 0.0227-0.3532-0.0266-1.07 0.5011-2.146 1.377-2.777 0.9611-0.7241 2.313-0.8506 3.398-0.3414 1.178 0.526 1.98 1.795 1.945 3.079 0.0172 0.1307-0.0297 0.2859 0.0258 0.404 0.2728-0.0153 0.5553-0.0928 0.8356-0.1055 0.4828-0.0521 0.9734-0.0142 1.455-0.0222 0.0376-0.1979-4e-3 -0.426 1e-3 -0.6356-2e-3 -0.0558-9e-3 -0.111-0.0129-0.1665a5.137 5.941 66.9 0 0-2.517-3.098 5.137 5.941 66.9 0 0-2.559-0.5777 5.137 5.941 66.9 0 0-5.501 2.87 5.137 5.941 66.9 0 0-0.7405 1.581c-0.0188-0.1454 9e-3 -0.3 7e-3 -0.4484 0.0413-1.836 1.049-3.611 2.588-4.606 0.7728-0.4964 1.668-0.8216 2.585-0.8943z" style="fill:url(#cvfe);opacity:.8" inkscape:connector-curvature="0"/>
 </g>
</svg>
