<svg xmlns="http://www.w3.org/2000/svg" height="800" width="1200" viewBox="-12.80304 -5.859875 110.95968 35.15925"><path d="M58.0752 13.474c0-.078.2015-.465.4477-.86l.4477-.7183-.8446.7771c-.6882.6333-.8446.691-.8446.3115 0-.2561.7442-1.1634 1.6537-2.0162 1.145-1.0735 1.5315-1.5855 1.2567-1.6645-1.551-.4457-2.6651-.6013-2.961-.4137-.1904.1208-.6212.2214-.9572.2236-.82.005-.4917.4865.6606.968.6218.2597.8815.5242.818.8328-.0529.257-.289.4187-.5465.3745-.5495-.211-.5952-.1451-.4534.3307.064.2154-.1191.4085-.2646.4085-.6719 0-3.7984-4.1234-3.912-5.1594-.2444-2.2291-.1674-3.1985.3046-3.8364l.4895-.6615-.166.7276c-.1976.867-.061.8997.8304.1985 1.119-.8802 3.054-.7241 4.9118.3961 1.943 1.1716 3.2412 1.3993 4.5194.7928.5279-.2505.9598-.5419.9598-.6474 0-.2852-1.2593-.8061-1.9488-.8061-2.0728 0-5.9232-2.2512-4.9429-2.8899.758-.4937 3.1662.331 5.7002 1.9519 1.0653.6814 1.7616.938 2.546.938.875 0 1.2501.1704 1.9792.8996 1.5319 1.5318.911 2.7672-1.2106 2.4088-.925-.1563-1.0888-.0873-1.8985.7994-1.3508 1.4794-6.3378 6.4755-6.4636 6.4755-.061 0-.111-.0637-.111-.1416zm9.1281-9.1373c0-.2042-.2084-.4114-.463-.4604-.4561-.0878-.6446.4736-.2811.837.2773.2774.7441.041.7441-.3766z"/><g style="line-height:125%;-inkscape-font-specification:Montserrat" aria-label="Apache Jackrabbit™" font-weight="400" font-size="9.9088" font-family="Montserrat" letter-spacing="0" word-spacing="0" fill="#839901" stroke-width=".3603"><path style="-inkscape-font-specification:'Montserrat Light'" d="M4.1903 22.1347l-.5314-1.204H1.0963l-.5246 1.204H0l2.112-4.7082h.5582l2.1053 4.7082zm-2.872-1.7017h2.1254l-1.0694-2.4213zM7.37 18.5767q.4977 0 .8811.2286.3901.2287.6054.639.2152.4036.2152.9282 0 .5179-.2152.9282-.2085.4035-.592.6322-.3833.222-.881.222-.4709 0-.8273-.2018-.3498-.2085-.5516-.5784v2.0648H5.48v-4.8427h.5246v.76q.2018-.3699.5516-.5716.3564-.2085.8138-.2085zm-.0942 3.1141q.3632 0 .6524-.1682.2893-.1748.4507-.4775.1614-.3027.1614-.686 0-.3767-.1614-.6794-.1614-.3094-.4507-.4775-.2892-.1749-.6524-.1749-.37 0-.6591.1749-.2892.1681-.4507.4708-.1614.3027-.1614.686 0 .3834.1614.6861.1615.3027.4507.4775.2892.1682.6591.1682zm4.9152.4439v-.5515q-.4237.5717-1.298.5717-.3565 0-.6323-.1413-.2757-.1412-.4237-.3833-.148-.2422-.148-.5448 0-.4641.3498-.7332.3497-.2757.9752-.2825h1.1636v-.222q0-.3968-.2421-.612-.2421-.222-.7062-.222-.5448 0-1.1233.4103l-.222-.3699q.3767-.2489.6928-.3632.3229-.1143.7534-.1143.6524 0 1.0021.3228.3565.3229.3632.8946l.007 2.3406zm-1.1971-.417q.4506 0 .7667-.2085.3229-.2152.4238-.5919v-.4305h-1.1031q-.9013 0-.9013.5785 0 .296.222.4775.222.1749.5919.1749zm5.3483-2.2532q-.4305-.417-1.056-.417-.3632 0-.6524.1681-.2825.1682-.444.4708-.1614.296-.1614.6794 0 .39.1615.6927.1614.296.4439.4641.2892.1682.6524.1682.3497 0 .6255-.1144.2825-.121.4708-.343l.3027.3094q-.2421.2892-.6053.4507-.3632.1614-.8139.1614-.5112 0-.908-.222-.3968-.2287-.6255-.6322-.222-.4103-.222-.935 0-.5178.222-.9214.2287-.4103.6255-.639.4036-.2286.908-.2286.4238 0 .7668.1412.3497.1345.5986.3834zm3.2321-.8878q.6323 0 .9888.3699.3564.3632.3564 1.0089v2.1792h-.5246V20.09q0-.4708-.269-.7399-.2624-.269-.7332-.269-.5582.007-.881.37-.3162.3564-.3162.9483v1.7353h-.5246V17.144h.5246v2.2465q.3498-.8004 1.3788-.8138zm3.9153 0q.8407 0 1.2645.538.4304.5314.39 1.4461h-2.892q.0672.5247.417.8408.3497.3161.8676.3161.3228 0 .6053-.1143.2825-.1211.491-.3363l.2892.3026q-.2556.2825-.6255.4372-.3632.148-.8004.148-.5179 0-.9214-.222-.3969-.2287-.6188-.6322-.222-.4103-.222-.935 0-.5178.222-.9214.222-.4103.6188-.639.4035-.2286.9147-.2286zm1.1838 1.5671q-.027-.5179-.3498-.8206-.3161-.3094-.834-.3094-.5112 0-.8475.3094-.3363.3027-.39.8206z" font-weight="300" font-size="6.726"/><path style="-inkscape-font-specification:'Montserrat Bold'" d="M29.225 16.5362v-1.3278h3.6068v4.5185q0 1.2386-.644 1.853-.6342.6143-1.635.6143-1.2485 0-2.18-.9612l.8027-1.1098q.6242.6738 1.308.6738.327 0 .5548-.2477.2378-.2576.2378-.763v-3.25zm9.541 5.5985h-1.3972v-.644q-.5747.7233-1.4268.7233-.8423 0-1.417-.4855-.5747-.4955-.5747-1.308 0-.8225.5945-1.2287.5945-.4063 1.625-.4063h1.1098v-.0297q0-.8521-.9017-.8521-.3864 0-.8224.1585-.426.1486-.7233.3765l-.664-.9611q1.0504-.763 2.398-.763.971 0 1.5854.4855.6144.4856.6144 1.536zm-1.4963-2.0313v-.2576h-.9314q-.8918 0-.8918.5549 0 .2873.2081.4459.218.1486.6143.1486.3964 0 .6937-.2378.3071-.2477.3071-.654zm5.4078.7927q.7432 0 1.3377-.7432l.8819.991q-1.0306 1.07-2.2295 1.07-1.199 0-2.0313-.753-.8225-.763-.8225-1.9818 0-1.2286.8324-1.9916.8422-.773 1.9917-.773.5747 0 1.1593.2379.5945.2378 1.0404.7035l-.7729 1.0107q-.2576-.3071-.6341-.4756-.3667-.1685-.7333-.1685-.5846 0-1.0107.3865-.4162.3765-.4162 1.0602 0 .6738.4162 1.0504.426.3765.9909.3765zm4.6971 1.2386h-1.4863v-7.3523h1.4863v3.7752l1.6548-1.7638h1.8727l-2.0313 2.1602 2.1106 3.1807h-1.7638l-1.3575-2.0412-.4855.5053zm7.2206-4.023q-.664 0-.9909.4757-.327.4657-.327 1.2386v2.3087H51.791v-5.331h1.4863v.7036q.2874-.327.7134-.555.436-.2278.882-.2377l.0098 1.3971zm5.7302 4.023h-1.3971v-.644q-.5747.7233-1.4269.7233-.8422 0-1.417-.4855-.5747-.4955-.5747-1.308 0-.8225.5946-1.2287.5945-.4063 1.625-.4063h1.1098v-.0297q0-.8521-.9017-.8521-.3864 0-.8224.1585-.4261.1486-.7234.3765l-.6639-.9611q1.0504-.763 2.398-.763.971 0 1.5854.4855.6143.4856.6143 1.536zm-1.4962-2.0313v-.2576h-.9314q-.8918 0-.8918.5549 0 .2873.208.4459.218.1486.6144.1486t.6936-.2378q.3072-.2477.3072-.654zm5.923-3.3888q.971 0 1.6944.763.7234.753.7234 1.942 0 1.1891-.7432 1.9918-.7432.8026-1.6944.8026-.9414 0-1.5656-.7828v.7035h-1.4863v-7.3523h1.4863v2.6159q.6143-.6837 1.5854-.6837zM63.147 19.479q0 .6441.3567 1.0603.3666.4062.8819.4062.5152 0 .9017-.4062.3864-.4162.3864-1.0603 0-.644-.3765-1.08-.3765-.436-.9017-.436-.5252 0-.8918.436-.3567.426-.3567 1.08zm8.2046-2.7644q.9711 0 1.6944.763.7234.753.7234 1.942 0 1.1891-.7432 1.9918-.7431.8026-1.6944.8026-.9413 0-1.5656-.7828v.7035H68.28v-7.3523h1.4863v2.6159q.6144-.6837 1.5854-.6837zm-1.6052 2.7645q0 .6441.3567 1.0603.3667.4062.882.4062.5152 0 .9016-.4062.3865-.4162.3865-1.0603 0-.644-.3766-1.08-.3765-.436-.9017-.436-.5251 0-.8918.436-.3567.426-.3567 1.08zm6.6193 2.6556h-1.4864v-5.331h1.4864zM74.9982 16.13q-.2477-.2577-.2477-.6243t.2477-.6144q.2577-.2576.6243-.2576t.6144.2576q.2576.2478.2576.6144 0 .3666-.2576.6243-.2478.2477-.6144.2477-.3666 0-.6243-.2477zm4.5578 1.744v2.388q0 .3071.1585.4855.1586.1684.3766.1684.4161 0 .7035-.3765l.5549 1.0404q-.6936.6342-1.4665.6342-.763 0-1.298-.5054-.5252-.5053-.5252-1.3773v-2.4574h-.6243v-1.0701h.6243v-1.5954h1.4962v1.5954h1.2881v1.0701z" font-weight="700"/><path style="-inkscape-font-specification:'Montserrat Light'" d="M81.4188 14.0053h1.5326v.2594h-.6245v1.7584h-.2883v-1.7584h-.6198zm1.8497 0h.3459l.6966 1.4172.6918-1.4172h.3508v2.0178h-.2643v-1.6143l-.687 1.4029h-.1826l-.687-1.4029v1.6143h-.2642z" font-weight="300" font-size="4.8043"/></g></svg>