<?xml version="1.0" encoding="UTF-8"?>
<svg width="17px" height="17px" viewBox="0 0 17 17" version="1.1" xmlns="http://www.w3.org/2000/svg" xmlns:xlink="http://www.w3.org/1999/xlink">
    <title>apachejackrabbit-original</title>
    <g id="apachejackrabbit-original" stroke="none" stroke-width="1" fill="none" fill-rule="evenodd">
        <g id="Apache_Jackrabbit-Logo." transform="translate(-52.000000, 3.000010)" fill="#000000" fill-rule="nonzero">
            <path d="M58.0752,13.4739903 C58.0752,13.3959903 58.2767,13.0089903 58.5229,12.6139903 L58.9706,11.8956903 L58.126,12.6727903 C57.4378,13.3060903 57.2814,13.3637903 57.2814,12.9842903 C57.2814,12.7281903 58.0256,11.8208903 58.9351,10.9680903 C60.0801,9.8945903 60.4666,9.3825903 60.1918,9.3035903 C58.6408,8.8578903 57.5267,8.7022903 57.2308,8.8898903 C57.0404,9.0106903 56.6096,9.1112903 56.2736,9.1134903 C55.4536,9.1184903 55.7819,9.5999903 56.9342,10.0814903 C57.556,10.3411903 57.8157,10.6056903 57.7522,10.9142903 C57.6993,11.1712903 57.4632,11.3329903 57.2057,11.2887903 C56.6562,11.0777903 56.6105,11.1436903 56.7523,11.6194903 C56.8163,11.8348903 56.6332,12.0279903 56.4877,12.0279903 C55.8158,12.0279903 52.6893,7.9045903 52.5757,6.8685903 C52.3313,4.6394903 52.4083,3.6700903 52.8803,3.0321903 L53.3698,2.3706903 L53.2038,3.0982903 C53.0062,3.9652903 53.1428,3.9979903 54.0342,3.2967903 C55.1532,2.4165903 57.0882,2.5726903 58.946,3.6928903 C60.889,4.8644903 62.1872,5.0921903 63.4654,4.4856903 C63.9933,4.2351903 64.4252,3.9437903 64.4252,3.8382903 C64.4252,3.5530903 63.1659,3.0321903 62.4764,3.0321903 C60.4036,3.0321903 56.5532,0.780990304 57.5335,0.142290304 C58.2915,-0.351409696 60.6997,0.473290304 63.2337,2.0941903 C64.299,2.7755903 64.9953,3.0321903 65.7797,3.0321903 C66.6547,3.0321903 67.0298,3.2025903 67.7589,3.9317903 C69.2908,5.4635903 68.6699,6.6989903 66.5483,6.3405903 C65.6233,6.1842903 65.4595,6.2532903 64.6498,7.1399903 C63.299,8.6193903 58.312,13.6154903 58.1862,13.6154903 C58.1252,13.6154903 58.0752,13.5517903 58.0752,13.4738903 L58.0752,13.4739903 Z M67.2033,4.3366903 C67.2033,4.1324903 66.9949,3.9252903 66.7403,3.8762903 C66.2842,3.7884903 66.0957,4.3498903 66.4592,4.7132903 C66.7365,4.9906903 67.2033,4.7542903 67.2033,4.3366903 L67.2033,4.3366903 Z" id="Shape"></path>
        </g>
    </g>
</svg>