<?xml version="1.0" encoding="UTF-8"?>
<!DOCTYPE svg PUBLIC "-//W3C//DTD SVG 1.1//EN" "http://www.w3.org/Graphics/SVG/1.1/DTD/svg11.dtd">
<!-- Creator: CorelDRAW -->
<svg xmlns="http://www.w3.org/2000/svg" xml:space="preserve" width="1.70666in" height="1.70666in" style="shape-rendering:geometricPrecision; text-rendering:geometricPrecision; image-rendering:optimizeQuality; fill-rule:evenodd; clip-rule:evenodd"
viewBox="0 0 1.70666 1.70666"
 xmlns:xlink="http://www.w3.org/1999/xlink">
 <defs>
  <style type="text/css">
   <![CDATA[
    .fil0 {fill:black}
   ]]>
  </style>
 </defs>
 <g id="Layer_x0020_1">
  <metadata id="CorelCorpID_0Corel-Layer"/>
  <g id="_469764808">
   <g>
    <g id="_469754032">
     <path id="_247473880" class="fil0" d="M1.65901 1.34095l-0.593047 0c-0.0262323,0 -0.0475669,-0.0213386 -0.0475669,-0.0475669l-3.93701e-006 -0.354102c0,-0.0262283 0.0213386,-0.0475669 0.0475709,-0.0475669l0.593047 0c0.0262283,0 0.0475709,0.0213386 0.0475709,0.0475669l0 0.354098c0,0.0262283 -0.0213425,0.0475709 -0.0475709,0.0475709zm-0.593047 -0.405906c-0.00229528,0 -0.00424016,0.00194094 -0.00424016,0.00424016l0 0.354094c0,0.00229921 0.00194488,0.00424016 0.00424016,0.00424016l0.593047 0c0.00229921,0 0.00424016,-0.00194488 0.00424016,-0.00424016l3.93701e-006 -0.354098c0,-0.00229528 -0.00194488,-0.00424016 -0.00424409,-0.00424016l-0.593047 3.93701e-006z"/>
    </g>
    <g id="_466597152">
     <path id="_247474192" class="fil0" d="M1.42006 1.49785l-0.11515 0c-0.0119646,0 -0.0216614,-0.00969685 -0.0216614,-0.0216654l0 -0.156902c0,-0.0119646 0.00969685,-0.0216654 0.0216614,-0.0216654l0.11515 3.93701e-006c0.0119685,0 0.0216654,0.00969685 0.0216654,0.0216654l0 0.156902c0,0.0119646 -0.00969685,0.0216614 -0.0216654,0.0216614zm-0.0934843 -0.0433268l0.0718189 0 0 -0.113575 -0.0718189 0 0 0.113575z"/>
    </g>
    <g id="_466597128">
     <path id="_247473976" class="fil0" d="M1.5147 1.59142l-0.304429 0c-0.0119646,0 -0.0216614,-0.00970079 -0.0216614,-0.0216654l0 -0.0467835c0,-0.0377402 0.0307008,-0.0684409 0.0684409,-0.0684409l0.210874 0c0.0377362,0 0.0684409,0.0307008 0.0684409,0.0684409l0 0.0467835c0,0.0119646 -0.00970079,0.0216654 -0.0216654,0.0216654zm-0.282764 -0.0433307l0.261098 0 0 -0.0251142c0,-0.0138504 -0.0112638,-0.0251142 -0.0251102,-0.0251142l-0.210874 -3.93701e-006c-0.0138465,0 -0.0251102,0.0112677 -0.0251102,0.0251142l-3.93701e-006 0.0251181z"/>
    </g>
    <g id="_466596552">
     <path id="_247474624" class="fil0" d="M1.68492 1.22293l-0.644858 0c-0.0119685,0 -0.0216654,-0.00970079 -0.0216654,-0.0216654 0,-0.0119646 0.00969685,-0.0216654 0.0216654,-0.0216654l0.644858 0c0.0119646,0 0.0216654,0.00970079 0.0216654,0.0216654 0,0.0119646 -0.00970079,0.0216654 -0.0216654,0.0216654z"/>
    </g>
    <g id="_466597032">
     <path id="_247473520" class="fil0" d="M1.39992 1.28194l-0.0748543 0c-0.0119646,0 -0.0216654,-0.00970079 -0.0216654,-0.0216654 0,-0.0119646 0.00970079,-0.0216654 0.0216654,-0.0216654l0.0748543 0c0.0119646,0 0.0216614,0.00970079 0.0216614,0.0216654 0,0.0119646 -0.00969685,0.0216654 -0.0216614,0.0216654z"/>
    </g>
    <g id="_466597200">
     <path id="_247473160" class="fil0" d="M0.640701 0.564492l-0.593051 0c-0.0262323,0 -0.0475709,-0.0213425 -0.0475709,-0.0475748l0 -0.354106c0,-0.0262323 0.0213425,-0.0475709 0.0475748,-0.0475709l0.593047 0c0.0262323,0 0.0475669,0.0213386 0.0475669,0.0475709l0 0.354106c0,0.0262323 -0.0213386,0.0475748 -0.0475669,0.0475748zm-0.593051 -0.405921c-0.00229921,0 -0.00424409,0.00194094 -0.00424409,0.00424016l0 0.354106c0,0.00230315 0.00194488,0.00424409 0.00424409,0.00424409l0.593047 0c0.00229921,0 0.00423622,-0.00194488 0.00423622,-0.00424409l0 -0.354106c0,-0.00229921 -0.00194094,-0.00424016 -0.00423622,-0.00424016l-0.593047 0z"/>
    </g>
    <g id="_214774296">
     <path id="_247473352" class="fil0" d="M0.401752 0.721386l-0.115154 0c-0.0119646,0 -0.0216654,-0.00969685 -0.0216654,-0.0216654l0 -0.156898c0,-0.0119646 0.00970079,-0.0216654 0.0216654,-0.0216654l0.11515 0c0.0119646,0 0.0216654,0.00970079 0.0216654,0.0216654l0 0.156898c3.93701e-006,0.0119685 -0.00969685,0.0216654 -0.0216614,0.0216654zm-0.0934882 -0.0433307l0.0718189 0 0 -0.113567 -0.0718189 0 0 0.113567z"/>
    </g>
    <g id="_214774536">
     <path id="_247473256" class="fil0" d="M0.49639 0.814945l-0.304429 0c-0.0119685,0 -0.0216654,-0.00969685 -0.0216654,-0.0216614l0 -0.0467835c0,-0.0377402 0.0307008,-0.0684449 0.0684409,-0.0684449l0.210878 0c0.0377362,0 0.0684409,0.0307047 0.0684409,0.0684449l0 0.0467835c0,0.0119646 -0.00970079,0.0216614 -0.0216654,0.0216614zm-0.282768 -0.0433268l0.261098 0 0 -0.0251181c0,-0.0138504 -0.0112638,-0.0251142 -0.0251102,-0.0251142l-0.210874 0c-0.0138465,0 -0.0251142,0.0112638 -0.0251142,0.0251142l0 0.0251181z"/>
    </g>
    <g id="_214774512">
     <path id="_247473736" class="fil0" d="M0.666606 0.446457l-0.644862 0c-0.0119646,0 -0.0216654,-0.00970079 -0.0216654,-0.0216654 0,-0.0119685 0.00970079,-0.0216654 0.0216654,-0.0216654l0.644866 0c0.0119646,0 0.0216654,0.00969685 0.0216654,0.0216654 0,0.0119646 -0.00970472,0.0216654 -0.0216693,0.0216654z"/>
    </g>
    <g id="_214774200">
     <path id="_247472752" class="fil0" d="M0.381598 0.505469l-0.0748504 0c-0.0119685,0 -0.0216654,-0.00969685 -0.0216654,-0.0216654 0,-0.0119646 0.00969685,-0.0216614 0.0216654,-0.0216614l0.0748504 0c0.0119685,0 0.0216654,0.00969685 0.0216654,0.0216614 0,0.0119685 -0.00969685,0.0216654 -0.0216654,0.0216654z"/>
    </g>
    <g id="_216596424">
     <path id="_247472512" class="fil0" d="M1.04006 1.138l-0.617169 0c-0.0119646,0 -0.0216654,-0.00969685 -0.0216654,-0.0216654 0,-0.0119646 0.00970079,-0.0216654 0.0216654,-0.0216654l0.617169 0c0.0119646,0 0.0216614,0.00970079 0.0216614,0.0216654 0,0.0119685 -0.00969685,0.0216654 -0.0216614,0.0216654zm-0.695878 -0.0787087c-0.0119646,0 -0.0216654,-0.00970079 -0.0216654,-0.0216654l0 -0.244339c0,-0.0119646 0.00970079,-0.0216654 0.0216654,-0.0216654 0.0119646,0 0.0216654,0.00970079 0.0216654,0.0216654l0 0.244339c0,0.0119646 -0.00970079,0.0216654 -0.0216654,0.0216654z"/>
    </g>
    <g id="_216596496">
     <path id="_247472584" class="fil0" d="M1.36248 0.935039c-0.0119646,0 -0.0216654,-0.00970079 -0.0216654,-0.0216654l0 -0.494803c0,-0.0119646 0.00970079,-0.0216654 0.0216654,-0.0216654 0.0119685,0 0.0216654,0.00970079 0.0216654,0.0216654l0 0.494803c0,0.0119606 -0.00969685,0.0216654 -0.0216654,0.0216654zm-0.0787087 -0.573512l-0.617169 0c-0.0119685,0 -0.0216654,-0.00970079 -0.0216654,-0.0216654 0,-0.0119646 0.00969685,-0.0216654 0.0216654,-0.0216654l0.617169 0c0.0119685,0 0.0216654,0.00970079 0.0216654,0.0216654 0,0.0119646 -0.00970079,0.0216654 -0.0216654,0.0216654z"/>
    </g>
    <g id="_214713408">
     <path id="_247472416" class="fil0" d="M0.344177 1.21671c-0.0553465,0 -0.100374,-0.0450276 -0.100374,-0.100374 0,-0.0553425 0.0450276,-0.100374 0.100374,-0.100374 0.0553465,0 0.100374,0.0450315 0.100374,0.100374 0,0.0553465 -0.0450276,0.100374 -0.100374,0.100374zm0 -0.157417c-0.0314528,0 -0.0570433,0.0255906 -0.0570433,0.0570433 0,0.0314528 0.0255906,0.0570433 0.0570433,0.0570433 0.0314567,0 0.0570433,-0.0255906 0.0570433,-0.0570433 0,-0.0314528 -0.0255906,-0.0570433 -0.0570433,-0.0570433z"/>
    </g>
    <g id="_214713576">
     <path id="_247473040" class="fil0" d="M1.36248 0.440236c-0.0553425,0 -0.10037,-0.0450276 -0.10037,-0.100374 0,-0.0553465 0.0450276,-0.100374 0.10037,-0.100374 0.0553465,0 0.100374,0.0450276 0.100374,0.100374 0,0.0553504 -0.0450276,0.100374 -0.100374,0.100374zm0 -0.157421c-0.0314528,0 -0.0570394,0.0255945 -0.0570394,0.0570472 0,0.0314567 0.0255906,0.0570433 0.0570394,0.0570433 0.0314567,0 0.0570433,-0.0255906 0.0570433,-0.0570433 3.93701e-006,-0.0314528 -0.0255866,-0.0570472 -0.0570433,-0.0570472z"/>
    </g>
   </g>
  </g>
 </g>
</svg>
