<?xml version="1.0" encoding="UTF-8" standalone="no"?>
<!-- Created with Inkscape (http://www.inkscape.org/) -->

<svg
   xmlns:dc="http://purl.org/dc/elements/1.1/"
   xmlns:cc="http://creativecommons.org/ns#"
   xmlns:rdf="http://www.w3.org/1999/02/22-rdf-syntax-ns#"
   xmlns:svg="http://www.w3.org/2000/svg"
   xmlns="http://www.w3.org/2000/svg"
   xmlns:sodipodi="http://sodipodi.sourceforge.net/DTD/sodipodi-0.dtd"
   xmlns:inkscape="http://www.inkscape.org/namespaces/inkscape"
   width="202.01855mm"
   height="21.442635mm"
   viewBox="0 0 202.01855 21.442635"
   version="1.1"
   id="svg4834"
   inkscape:version="0.92.3 (2405546, 2018-03-11)"
   sodipodi:docname="santuario.svg">
  <defs
     id="defs4828" />
  <sodipodi:namedview
     id="base"
     pagecolor="#ffffff"
     bordercolor="#666666"
     borderopacity="1.0"
     inkscape:pageopacity="0.0"
     inkscape:pageshadow="2"
     inkscape:zoom="0.35"
     inkscape:cx="-469.86251"
     inkscape:cy="-117.52215"
     inkscape:document-units="mm"
     inkscape:current-layer="layer1"
     showgrid="false"
     fit-margin-top="0"
     fit-margin-left="0"
     fit-margin-right="0"
     fit-margin-bottom="0"
     inkscape:window-width="3726"
     inkscape:window-height="2049"
     inkscape:window-x="114"
     inkscape:window-y="55"
     inkscape:window-maximized="1" />
  <metadata
     id="metadata4831">
    <rdf:RDF>
      <cc:Work
         rdf:about="">
        <dc:format>image/svg+xml</dc:format>
        <dc:type
           rdf:resource="http://purl.org/dc/dcmitype/StillImage" />
        <dc:title></dc:title>
      </cc:Work>
    </rdf:RDF>
  </metadata>
  <g
     inkscape:label="Layer 1"
     inkscape:groupmode="layer"
     id="layer1"
     transform="translate(-4.4993356,-96.296296)">
    <g
       aria-label="Apache Santuario"
       style="font-style:normal;font-variant:normal;font-weight:normal;font-stretch:normal;font-size:22.54746056px;line-height:125%;font-family:'Myriad Pro';-inkscape-font-specification:'Myriad Pro';letter-spacing:0px;word-spacing:0px;fill:#520000;fill-opacity:1;stroke:none;stroke-width:0.81990761px;stroke-linecap:butt;stroke-linejoin:miter;stroke-opacity:1"
       id="text5381">
      <path
         d="m 17.77979,113.36472 -1.465585,-3.40466 H 9.707799 l -1.4655849,3.40466 H 4.4993356 L 11.308669,97.604048 h 3.404666 l 6.809333,15.760672 z m -4.757514,-11.0708 -1.984177,4.57713 h 3.945806 z"
         style="font-style:normal;font-variant:normal;font-weight:bold;font-stretch:normal;font-family:Montserrat;-inkscape-font-specification:'Montserrat Bold';fill:#520000;fill-opacity:1;stroke-width:0.81990761px"
         id="path5383" />
      <path
         d="m 30.048778,101.03126 q 2.119462,0 3.765426,1.78125 1.668512,1.7587 1.668512,4.44185 0,2.68315 -1.668512,4.48695 -1.645964,1.80379 -3.878163,1.80379 -2.209651,0 -3.562499,-1.78125 v 5.97508 h -3.382119 v -16.50474 h 3.382119 v 1.35285 q 1.555775,-1.55578 3.675236,-1.55578 z m -3.720331,6.29074 q 0,1.46559 0.811709,2.41258 0.834256,0.92445 2.006724,0.92445 1.172468,0 2.051819,-0.92445 0.879351,-0.94699 0.879351,-2.41258 0,-1.46558 -0.856804,-2.45767 -0.856803,-0.99209 -2.051819,-0.99209 -1.195015,0 -2.029271,0.99209 -0.811709,0.96954 -0.811709,2.45767 z"
         style="font-style:normal;font-variant:normal;font-weight:bold;font-stretch:normal;font-family:Montserrat;-inkscape-font-specification:'Montserrat Bold';fill:#520000;fill-opacity:1;stroke-width:0.81990761px"
         id="path5385" />
      <path
         d="m 48.312573,113.36472 h -3.179192 v -1.46558 q -1.307753,1.64596 -3.246834,1.64596 -1.916535,0 -3.224287,-1.10482 -1.307753,-1.12738 -1.307753,-2.97627 0,-1.87144 1.352848,-2.79588 1.352847,-0.92445 3.697783,-0.92445 h 2.525316 v -0.0676 q 0,-1.93908 -2.051819,-1.93908 -0.879351,0 -1.871439,0.36076 -0.969541,0.33821 -1.645965,0.8568 l -1.51068,-2.1871 q 2.390031,-1.73616 5.456486,-1.73616 2.209651,0 3.607593,1.10483 1.397943,1.10482 1.397943,3.49485 z m -3.404667,-4.62223 v -0.58623 h -2.119461 q -2.029271,0 -2.029271,1.26266 0,0.65387 0.473496,1.01463 0.496044,0.33822 1.397943,0.33822 0.901898,0 1.578322,-0.54114 0.698971,-0.56369 0.698971,-1.48814 z"
         style="font-style:normal;font-variant:normal;font-weight:bold;font-stretch:normal;font-family:Montserrat;-inkscape-font-specification:'Montserrat Bold';fill:#520000;fill-opacity:1;stroke-width:0.81990761px"
         id="path5387" />
      <path
         d="m 57.213186,110.54629 q 1.69106,0 3.043907,-1.69106 l 2.006724,2.25475 q -2.344936,2.43512 -5.073178,2.43512 -2.728243,0 -4.62223,-1.7136 -1.871439,-1.73616 -1.871439,-4.5095 0,-2.79588 1.893987,-4.53204 1.916534,-1.7587 4.532039,-1.7587 1.307753,0 2.638053,0.54114 1.352848,0.54114 2.367484,1.60087 l -1.758702,2.29984 q -0.586234,-0.69897 -1.443038,-1.08228 -0.834256,-0.3833 -1.668512,-0.3833 -1.3303,0 -2.299841,0.87935 -0.946993,0.8568 -0.946993,2.41258 0,1.53322 0.946993,2.39003 0.969541,0.8568 2.254746,0.8568 z"
         style="font-style:normal;font-variant:normal;font-weight:bold;font-stretch:normal;font-family:Montserrat;-inkscape-font-specification:'Montserrat Bold';fill:#520000;fill-opacity:1;stroke-width:0.81990761px"
         id="path5389" />
      <path
         d="m 67.901386,106.82596 v 6.53876 H 64.519267 V 96.634507 h 3.382119 v 5.952533 q 1.533227,-1.55578 3.427214,-1.55578 1.916534,0 3.224287,1.35285 1.307752,1.35285 1.307752,3.60759 v 7.37302 H 72.47852 v -6.62895 q 0,-2.79589 -2.051819,-2.79589 -1.014635,0 -1.781249,0.74407 -0.744066,0.72152 -0.744066,2.14201 z"
         style="font-style:normal;font-variant:normal;font-weight:bold;font-stretch:normal;font-family:Montserrat;-inkscape-font-specification:'Montserrat Bold';fill:#520000;fill-opacity:1;stroke-width:0.81990761px"
         id="path5391" />
      <path
         d="m 89.426808,111.60602 q -2.051819,1.93908 -4.825156,1.93908 -2.750791,0 -4.554587,-1.69106 -1.803797,-1.7136 -1.803797,-4.57713 0,-2.86353 1.826344,-4.55459 1.848892,-1.69106 4.35166,-1.69106 2.502768,0 4.238923,1.51068 1.758701,1.51068 1.758701,4.14873 v 1.8038 h -8.838604 q 0.157832,0.99209 1.037183,1.62342 0.879351,0.63133 1.984177,0.63133 1.781249,0 2.93117,-1.19502 z m -2.435126,-5.52413 q -0.112737,-1.08227 -0.811708,-1.66851 -0.698971,-0.58623 -1.713607,-0.58623 -0.992088,0 -1.826344,0.60878 -0.834256,0.60878 -0.969541,1.64596 z"
         style="font-style:normal;font-variant:normal;font-weight:bold;font-stretch:normal;font-family:Montserrat;-inkscape-font-specification:'Montserrat Bold';fill:#520000;fill-opacity:1;stroke-width:0.81990761px"
         id="path5393" />
      <path
         d="m 104.19223,100.33229 q -0.87935,0 -1.39795,0.4284 -0.49604,0.40586 -0.49604,1.10483 0,0.67642 0.60878,1.08228 0.63133,0.40585 2.86353,0.96954 2.25475,0.54114 3.49486,1.64596 1.24011,1.10483 1.24011,3.22429 0,2.11946 -1.60087,3.44976 -1.57833,1.30775 -4.17128,1.30775 -3.74288,0 -6.741694,-2.77333 l 2.096914,-2.57042 q 2.54786,2.2322 4.71242,2.2322 0.96954,0 1.51068,-0.40585 0.56368,-0.4284 0.56368,-1.12737 0,-0.72152 -0.58623,-1.12738 -0.58623,-0.4284 -2.32239,-0.8568 -2.75079,-0.65388 -4.035993,-1.69106 -1.262658,-1.05973 -1.262658,-3.29193 0,-2.254745 1.600871,-3.472308 1.62342,-1.217563 4.03599,-1.217563 1.57833,0 3.15665,0.541139 1.57832,0.541139 2.75079,1.533227 l -1.78125,2.570415 q -2.05182,-1.55578 -4.23892,-1.55578 z"
         style="font-style:normal;font-variant:normal;font-weight:bold;font-stretch:normal;font-family:Montserrat;-inkscape-font-specification:'Montserrat Bold';fill:#520000;fill-opacity:1;stroke-width:0.81990761px"
         id="path5395" />
      <path
         d="m 123.48545,113.36472 h -3.17919 v -1.46558 q -1.30775,1.64596 -3.24683,1.64596 -1.91654,0 -3.22429,-1.10482 -1.30775,-1.12738 -1.30775,-2.97627 0,-1.87144 1.35285,-2.79588 1.35284,-0.92445 3.69778,-0.92445 h 2.52532 v -0.0676 q 0,-1.93908 -2.05182,-1.93908 -0.87935,0 -1.87144,0.36076 -0.96954,0.33821 -1.64597,0.8568 l -1.51068,-2.1871 q 2.39003,-1.73616 5.45649,-1.73616 2.20965,0 3.60759,1.10483 1.39794,1.10482 1.39794,3.49485 z m -3.40466,-4.62223 v -0.58623 h -2.11946 q -2.02927,0 -2.02927,1.26266 0,0.65387 0.47349,1.01463 0.49605,0.33822 1.39794,0.33822 0.9019,0 1.57833,-0.54114 0.69897,-0.56369 0.69897,-1.48814 z"
         style="font-style:normal;font-variant:normal;font-weight:bold;font-stretch:normal;font-family:Montserrat;-inkscape-font-specification:'Montserrat Bold';fill:#520000;fill-opacity:1;stroke-width:0.81990761px"
         id="path5397" />
      <path
         d="m 129.95094,106.60049 v 6.76423 h -3.38212 v -12.13053 h 3.38212 v 1.35285 q 1.53323,-1.55578 3.44976,-1.55578 1.91654,0 3.20174,1.35285 1.30776,1.35285 1.30776,3.60759 v 7.37302 h -3.38212 v -6.85442 q 0,-2.79589 -2.05182,-2.79589 -1.01464,0 -1.78125,0.74407 -0.74407,0.72152 -0.74407,2.14201 z"
         style="font-style:normal;font-variant:normal;font-weight:bold;font-stretch:normal;font-family:Montserrat;-inkscape-font-specification:'Montserrat Bold';fill:#520000;fill-opacity:1;stroke-width:0.81990761px"
         id="path5399" />
      <path
         d="m 144.82909,103.66932 v 5.43393 q 0,0.69897 0.36076,1.10483 0.36076,0.38331 0.85681,0.38331 0.94699,0 1.60087,-0.85681 l 1.26265,2.36749 q -1.57832,1.44303 -3.33702,1.44303 -1.73616,0 -2.95372,-1.14992 -1.19501,-1.14992 -1.19501,-3.13409 v -5.59177 h -1.42049 v -2.43513 h 1.42049 v -3.630142 h 3.40466 v 3.630142 h 2.93117 v 2.43513 z"
         style="font-style:normal;font-variant:normal;font-weight:bold;font-stretch:normal;font-family:Montserrat;-inkscape-font-specification:'Montserrat Bold';fill:#520000;fill-opacity:1;stroke-width:0.81990761px"
         id="path5401" />
      <path
         d="m 158.52562,107.77295 v -6.53876 h 3.40467 v 12.13053 h -3.40467 v -1.60087 q -1.26266,1.78125 -3.26938,1.78125 -1.98418,0 -3.33703,-1.24011 -1.35284,-1.26266 -1.35284,-3.72033 v -7.35047 h 3.40466 v 6.60641 q 0,2.79588 2.05182,2.79588 1.01464,0 1.7587,-0.72152 0.74407,-0.74406 0.74407,-2.14201 z"
         style="font-style:normal;font-variant:normal;font-weight:bold;font-stretch:normal;font-family:Montserrat;-inkscape-font-specification:'Montserrat Bold';fill:#520000;fill-opacity:1;stroke-width:0.81990761px"
         id="path5403" />
      <path
         d="m 175.4503,113.36472 h -3.17919 v -1.46558 q -1.30776,1.64596 -3.24684,1.64596 -1.91653,0 -3.22428,-1.10482 -1.30776,-1.12738 -1.30776,-2.97627 0,-1.87144 1.35285,-2.79588 1.35285,-0.92445 3.69778,-0.92445 h 2.52532 v -0.0676 q 0,-1.93908 -2.05182,-1.93908 -0.87935,0 -1.87144,0.36076 -0.96954,0.33821 -1.64596,0.8568 l -1.51068,-2.1871 q 2.39003,-1.73616 5.45648,-1.73616 2.20965,0 3.6076,1.10483 1.39794,1.10482 1.39794,3.49485 z m -3.40467,-4.62223 v -0.58623 h -2.11946 q -2.02927,0 -2.02927,1.26266 0,0.65387 0.4735,1.01463 0.49604,0.33822 1.39794,0.33822 0.9019,0 1.57832,-0.54114 0.69897,-0.56369 0.69897,-1.48814 z"
         style="font-style:normal;font-variant:normal;font-weight:bold;font-stretch:normal;font-family:Montserrat;-inkscape-font-specification:'Montserrat Bold';fill:#520000;fill-opacity:1;stroke-width:0.81990761px"
         id="path5405" />
      <path
         d="m 184.9146,104.21045 q -1.51068,0 -2.25475,1.08228 -0.74406,1.05973 -0.74406,2.81843 v 5.25356 h -3.38212 v -12.13053 h 3.38212 v 1.60087 q 0.65387,-0.74407 1.62341,-1.26266 0.99209,-0.51859 2.00673,-0.54114 l 0.0225,3.17919 z"
         style="font-style:normal;font-variant:normal;font-weight:bold;font-stretch:normal;font-family:Montserrat;-inkscape-font-specification:'Montserrat Bold';fill:#520000;fill-opacity:1;stroke-width:0.81990761px"
         id="path5407" />
      <path
         d="m 191.16377,113.36472 h -3.38212 v -12.13053 h 3.38212 z m -3.11155,-13.663758 q -0.56368,-0.586234 -0.56368,-1.42049 0,-0.834256 0.56368,-1.397942 0.58624,-0.586234 1.42049,-0.586234 0.83426,0 1.39795,0.586234 0.58623,0.563686 0.58623,1.397942 0,0.834256 -0.58623,1.42049 -0.56369,0.563688 -1.39795,0.563688 -0.83425,0 -1.42049,-0.563688 z"
         style="font-style:normal;font-variant:normal;font-weight:bold;font-stretch:normal;font-family:Montserrat;-inkscape-font-specification:'Montserrat Bold';fill:#520000;fill-opacity:1;stroke-width:0.81990761px"
         id="path5409" />
      <path
         d="m 197.09305,107.29946 q 0,1.48813 0.83425,2.43512 0.85681,0.92445 2.16456,0.92445 1.3303,0 2.16455,-0.92445 0.85681,-0.94699 0.85681,-2.43512 0,-1.48814 -0.85681,-2.43513 -0.83425,-0.94699 -2.16455,-0.94699 -1.30775,0 -2.16456,0.94699 -0.83425,0.94699 -0.83425,2.43513 z m 9.42483,0 q 0,2.63805 -1.82634,4.44185 -1.82634,1.80379 -4.59968,1.80379 -2.75079,0 -4.57714,-1.80379 -1.82634,-1.8038 -1.82634,-4.44185 0,-2.63806 1.82634,-4.44185 1.82635,-1.82635 4.57714,-1.82635 2.77334,0 4.59968,1.82635 1.82634,1.80379 1.82634,4.44185 z"
         style="font-style:normal;font-variant:normal;font-weight:bold;font-stretch:normal;font-family:Montserrat;-inkscape-font-specification:'Montserrat Bold';fill:#520000;fill-opacity:1;stroke-width:0.81990761px"
         id="path5411" />
    </g>
  </g>
</svg>
