<?xml version="1.0" encoding="UTF-8"?>
<svg width="352px" height="144px" viewBox="0 0 352 144" version="1.1" xmlns="http://www.w3.org/2000/svg" xmlns:xlink="http://www.w3.org/1999/xlink">
    <title>grpc-original</title>
    <defs>
        <polygon id="path-1" points="7.44729027 7.79729553 41.9152903 7.79729553 41.9152903 42.2652955 7.44729027 42.2652955"></polygon>
        <polygon id="path-3" points="5.17670973 4.63470447 25.3947097 4.63470447 25.3947097 24.8527045 5.17670973 24.8527045"></polygon>
    </defs>
    <g id="grpc-original" stroke="none" stroke-width="1" fill="none" fill-rule="evenodd">
        <g id="grpc-icon-color">
            <path d="M39.241,124.21 C41.8522422,127.683881 45.2457004,130.493206 49.146,132.41 C53.3640002,134.499294 58.0183429,135.555682 62.725,135.492 C66.5305038,135.591751 70.3187324,134.945602 73.876,133.59 C76.7210825,132.472446 79.2610592,130.696998 81.288,128.409 C83.1903855,126.179536 84.5791866,123.558976 85.356,120.733 C86.2028757,117.679292 86.6222025,114.522899 86.602,111.354 L86.602,100.334 L86.34,100.334 C83.8732492,104.243195 80.315434,107.344202 76.106,109.254 C72.0921625,111.001538 67.7587263,111.895128 63.381,111.878 C59.0911203,111.910436 54.8358491,111.108561 50.852,109.517 C47.0800888,108.019513 43.628919,105.815353 40.684,103.023 C37.7621596,100.217845 35.4411501,96.847924 33.862,93.118 C32.1814745,89.1797151 31.3327349,84.9366981 31.369,80.655 C31.3326255,76.3857531 32.1351488,72.1509307 33.731,68.191 C35.2395608,64.4444355 37.4429295,61.0168977 40.225,58.089 C43.0065075,55.1854669 46.356046,52.8857229 50.065,51.333 C54.0335326,49.6826146 58.2962477,48.8565413 62.594,48.905 C64.5509145,48.9166743 66.5034104,49.0922885 68.431,49.43 C70.5508273,49.8002532 72.6201721,50.4167609 74.597,51.267 C79.2904517,53.3008871 83.3475904,56.5644255 86.34,60.713 L86.602,60.713 L86.602,50.48 L95.261,50.48 L95.261,111.354 C95.2313117,114.930704 94.8131927,118.493601 94.014,121.98 C93.1780279,125.749651 91.5206345,129.288428 89.16,132.344 C86.474092,135.7145 83.0372701,138.410262 79.124,140.216 C74.8373333,142.314 69.2396667,143.363333 62.331,143.364 C56.7183692,143.459567 51.1431192,142.433862 45.932,140.347 C40.9455851,138.211091 36.4725784,135.035324 32.812,131.032 L39.241,124.21 Z M40.815,80.392 C40.7934601,83.5186043 41.3958829,86.6180904 42.587,89.509 C43.7223421,92.2837515 45.3685212,94.8206922 47.44,96.988 C49.4992706,99.1356087 51.9480859,100.872109 54.656,102.105 C57.4769911,103.387178 60.5444345,104.036368 63.643,104.007 C69.7794227,104.028948 75.692448,101.705949 80.173,97.513 C82.3733467,95.4366953 84.0967013,92.907448 85.224,90.1 C86.4391203,87.0130625 86.9976583,83.7067905 86.864,80.392 C86.886137,77.2832152 86.3531087,74.1954437 85.29,71.274 C84.2795322,68.4970515 82.7175123,65.9533266 80.698,63.796 C78.6220248,61.6092117 76.1221535,59.8684547 73.351,58.68 C70.2829383,57.3762917 66.9761968,56.7284319 63.643,56.778 C60.5444991,56.7492783 57.477194,57.3984397 54.656,58.68 C51.9489576,59.9139654 49.5003922,61.6499494 47.44,63.796 C45.3696319,65.9638064 43.7235888,68.5001985 42.587,71.274 C41.3962423,74.1653674 40.7938362,77.2651068 40.815,80.392 L40.815,80.392 Z M130.55,111.878 L121.105,111.878 L121.105,18.993 L149.705,18.993 C159.150333,18.993 166.606333,21.0483333 172.073,25.159 C177.538333,29.2723333 180.271667,35.4823333 180.273,43.789 C180.439735,49.8195218 178.251857,55.678012 174.173,60.123 C170.105,64.5403333 164.223,67.0983333 156.527,67.797 L183.29,111.878 L171.745,111.878 L146.293,68.716 L130.55,68.716 L130.55,111.878 Z M130.55,60.057 L147.343,60.057 C150.951395,60.1330622 154.552049,59.6912311 158.035,58.745 C160.582245,58.0638404 162.968322,56.88219 165.054,55.269 C166.736996,53.9148098 168.046637,52.1535928 168.859,50.152 C169.656688,48.1262814 170.057298,45.9660409 170.039,43.789 C170.049,41.655537 169.648384,39.5400792 168.859,37.558 C168.037188,35.543158 166.730091,33.7626894 165.054,32.375 C162.988014,30.7299893 160.594692,29.5449201 158.034,28.899 C154.543467,27.9999293 150.946752,27.5804079 147.343,27.652 L130.55,27.652 L130.55,60.057 Z M199.556,18.993 L226.583,18.993 C236.027667,18.993 243.483333,21.0483333 248.95,25.159 C254.415333,29.2723333 257.148667,35.4823333 257.15,43.789 C257.15,52.099 254.416667,58.3306667 248.95,62.484 C243.483333,66.6386667 236.027667,68.716 226.583,68.716 L209.003,68.716 L209.003,111.878 L199.556,111.878 L199.556,18.993 Z M209.003,60.057 L224.221,60.057 C227.829388,60.1329243 231.430023,59.6910956 234.913,58.745 C237.460492,58.0636876 239.846868,56.8820578 241.933,55.269 C243.615136,53.914443 244.924045,52.1532837 245.736,50.152 C246.534343,48.1264386 246.935304,45.9661345 246.917,43.789 C246.927299,41.6555096 246.526672,39.5399952 245.737,37.558 C244.915006,35.5432598 243.60794,33.7628324 241.932,32.375 C239.866159,30.7303505 237.473244,29.5453136 234.913,28.899 C231.42212,27.9999615 227.82508,27.5804413 224.221,27.652 L209.003,27.652 L209.003,60.057 Z M352,97.185 C350.337621,99.6471437 348.377069,101.894204 346.163,103.875 C343.766125,106.028849 341.097419,107.859424 338.225,109.32 C335.158652,110.885394 331.923739,112.095886 328.583,112.928 C324.999793,113.817517 321.31992,114.258228 317.628,114.24 C311.041205,114.301757 304.50787,113.053217 298.408,110.567 C286.775929,105.866174 277.561762,96.6281753 272.891,84.984 C267.993617,72.4121052 267.993617,58.4598948 272.891,45.888 C277.561626,34.2436176 286.776354,25.0057788 298.409,20.306 C304.508397,17.8192627 311.041444,16.5703728 317.628,16.632 C323.564047,16.6642028 329.440159,17.8216446 334.945,20.043 C340.816941,22.3926276 345.940837,26.2923188 349.77,31.326 L341.505,37.492 C340.395085,35.8385249 339.071641,34.3388902 337.569,33.032 C335.832792,31.4945609 333.916855,30.1729478 331.863,29.096 C329.669131,27.9404655 327.360618,27.0171275 324.975,26.341 C322.586961,25.6500379 320.113986,25.2966116 317.628,25.291 C312.117323,25.2006576 306.653915,26.3203063 301.623,28.571 C297.058421,30.6420234 292.971493,33.6347005 289.619,37.361 C286.301179,41.0971256 283.738933,45.4408888 282.074,50.152 C278.575955,60.0411096 278.575955,70.8308904 282.074,80.72 C283.738657,85.4309395 286.300941,89.7744254 289.619,93.51 C292.970598,97.2372897 297.057747,100.230129 301.623,102.3 C306.653514,104.551939 312.117201,105.671645 317.628,105.58 C320.069405,105.581556 322.505963,105.362667 324.908,104.926 C327.352667,104.476693 329.732618,103.727711 331.994,102.696 C334.377496,101.602831 336.587701,100.16586 338.554,98.431 C340.763122,96.457444 342.683907,94.1832012 344.26,91.675 L352,97.185 Z" id="Shape" fill="#244B5A" fill-rule="nonzero"></path>
            <g id="Clipped">
                <mask id="mask-2" fill="white">
                    <use xlink:href="#path-1"></use>
                </mask>
                <g id="Path" transform="translate(24.681290, 25.031296) rotate(-45.213000) translate(-24.681290, -25.031296) "></g>
                <g id="Group" mask="url(#mask-2)" fill-rule="nonzero">
                    <polygon id="Path" fill="#75CACA" points="0.74 0.66 0.309 4.476 0.309 0.66"></polygon>
                    <polygon id="Path" fill="#74CBCA" points="1.311 0.66 0.309 9.52 0.309 4.476 0.74 0.66"></polygon>
                    <polygon id="Path" fill="#74CBCA" points="1.88 0.66 0.309 14.562 0.309 9.52 1.311 0.66"></polygon>
                    <polygon id="Path" fill="#73CBCA" points="2.45 0.66 0.309 19.605 0.309 14.562 1.88 0.66"></polygon>
                    <polygon id="Path" fill="#73CBCA" points="3.02 0.66 0.309 24.648 0.309 19.605 2.45 0.66 3.02 0.66"></polygon>
                    <polygon id="Path" fill="#72C9C9" points="3.59 0.66 0.309 29.692 0.309 24.648 3.02 0.66"></polygon>
                    <polygon id="Path" fill="#72C9C9" points="4.16 0.66 0.309 34.735 0.309 29.692 3.59 0.66"></polygon>
                    <polygon id="Path" fill="#70CACA" points="4.729 0.66 0.309 39.778 0.309 34.735 4.16 0.66"></polygon>
                    <polygon id="Path" fill="#70CACA" points="5.299 0.66 0.309 44.821 0.309 39.778 4.729 0.66"></polygon>
                    <polygon id="Path" fill="#6FCAC8" points="5.87 0.66 0.365 49.374 0.309 49.368 0.309 44.821 5.299 0.66"></polygon>
                    <polygon id="Path" fill="#6EC8C8" points="6.439 0.66 0.931 49.404 0.629 49.404 0.365 49.374 5.87 0.66"></polygon>
                    <polygon id="Path" fill="#6EC8C8" points="7.008 0.66 1.501 49.404 0.931 49.404 6.439 0.66"></polygon>
                    <polygon id="Path" fill="#6CC9C9" points="7.579 0.66 2.071 49.404 1.501 49.404 7.008 0.66 7.579 0.66"></polygon>
                    <polygon id="Path" fill="#6DC9C8" points="8.149 0.66 2.641 49.404 2.071 49.404 7.579 0.66"></polygon>
                    <polygon id="Path" fill="#69C7C8" points="8.718 0.66 3.211 49.404 2.641 49.404 8.149 0.66"></polygon>
                    <polygon id="Path" fill="#69C7C8" points="9.288 0.66 3.78 49.404 3.211 49.404 8.718 0.66"></polygon>
                    <polygon id="Path" fill="#69C8C7" points="9.858 0.66 4.35 49.404 3.78 49.404 9.288 0.66"></polygon>
                    <polygon id="Path" fill="#68C8C7" points="10.428 0.66 4.92 49.404 4.35 49.404 9.858 0.66"></polygon>
                    <polygon id="Path" fill="#67C7C7" points="10.997 0.66 5.49 49.404 4.92 49.404 10.428 0.66"></polygon>
                    <polygon id="Path" fill="#65C7C7" points="11.567 0.66 6.06 49.404 5.49 49.404 10.997 0.66"></polygon>
                    <polygon id="Path" fill="#64C7C7" points="12.138 0.66 6.629 49.404 6.06 49.404 11.567 0.66"></polygon>
                    <polygon id="Path" fill="#63C6C6" points="12.707 0.66 7.199 49.404 6.629 49.404 12.138 0.66"></polygon>
                    <polygon id="Path" fill="#60C6C6" points="13.277 0.66 7.77 49.404 7.199 49.404 12.707 0.66"></polygon>
                    <polygon id="Path" fill="#60C6C5" points="13.846 0.66 8.339 49.404 7.77 49.404 13.277 0.66"></polygon>
                    <polygon id="Path" fill="#5FC6C5" points="14.417 0.66 8.909 49.404 8.339 49.404 13.846 0.66 14.417 0.66"></polygon>
                    <polygon id="Path" fill="#5CC5C4" points="14.987 0.66 9.479 49.404 8.909 49.404 14.417 0.66"></polygon>
                    <path d="M15.556,0.66 L10.049,49.404 L9.479,49.404 L14.987,0.66 L15.556,0.66 Z M16.126,0.66 L10.618,49.404 L10.049,49.404 L15.556,0.66 L16.126,0.66 L16.126,0.66 Z" id="Shape" fill="#5AC5C4"></path>
                    <polygon id="Path" fill="#57C4C4" points="16.696 0.66 11.188 49.404 10.618 49.404 16.126 0.66"></polygon>
                    <polygon id="Path" fill="#58C4C3" points="17.266 0.66 11.758 49.404 11.188 49.404 16.696 0.66"></polygon>
                    <polygon id="Path" fill="#55C4C3" points="17.835 0.66 12.328 49.404 11.758 49.404 17.266 0.66"></polygon>
                    <polygon id="Path" fill="#53C3C2" points="18.405 0.66 12.897 49.404 12.328 49.404 17.835 0.66"></polygon>
                    <polygon id="Path" fill="#52C3C2" points="18.975 0.66 13.467 49.404 12.897 49.404 18.405 0.66"></polygon>
                    <polygon id="Path" fill="#50C3C2" points="19.545 0.66 14.037 49.404 13.467 49.404 18.975 0.66"></polygon>
                    <polygon id="Path" fill="#50C1C0" points="20.114 0.66 14.607 49.404 14.037 49.404 19.545 0.66 20.114 0.66"></polygon>
                    <polygon id="Path" fill="#4BC2C0" points="20.685 0.66 15.177 49.404 14.607 49.404 20.114 0.66"></polygon>
                    <polygon id="Path" fill="#4CC1C0" points="21.255 0.66 15.747 49.404 15.177 49.404 20.685 0.66"></polygon>
                    <polygon id="Path" fill="#47C1BE" points="21.824 0.66 16.316 49.404 15.747 49.404 21.255 0.66"></polygon>
                    <polygon id="Path" fill="#46C0BE" points="22.394 0.66 16.887 49.404 16.316 49.404 21.824 0.66"></polygon>
                    <polygon id="Path" fill="#43C0BE" points="22.964 0.66 17.456 49.404 16.887 49.404 22.394 0.66"></polygon>
                    <polygon id="Path" fill="#40BFBD" points="23.534 0.66 18.026 49.404 17.456 49.404 22.964 0.66"></polygon>
                    <polygon id="Path" fill="#3BBFBD" points="24.104 0.66 18.596 49.404 18.026 49.404 23.534 0.66"></polygon>
                    <polygon id="Path" fill="#39BFBC" points="24.673 0.66 19.166 49.404 18.596 49.404 24.104 0.66 24.673 0.66"></polygon>
                    <polygon id="Path" fill="#34BEBD" points="25.243 0.66 19.735 49.404 19.166 49.404 24.673 0.66 25.243 0.66"></polygon>
                    <polygon id="Path" fill="#32BEBB" points="25.813 0.66 20.305 49.404 19.735 49.404 25.243 0.66"></polygon>
                    <polygon id="Path" fill="#2DBDBB" points="26.383 0.66 20.876 49.404 20.305 49.404 25.813 0.66 26.383 0.66"></polygon>
                    <polygon id="Path" fill="#24BCBB" points="26.952 0.66 21.445 49.404 20.876 49.404 26.383 0.66"></polygon>
                    <polygon id="Path" fill="#21BCB9" points="27.523 0.66 22.014 49.404 21.445 49.404 26.952 0.66"></polygon>
                    <polygon id="Path" fill="#18BBB9" points="28.093 0.66 22.584 49.404 22.014 49.404 27.523 0.66"></polygon>
                    <polygon id="Path" fill="#0FBAB9" points="28.662 0.66 23.155 49.404 22.584 49.404 28.093 0.66"></polygon>
                    <polygon id="Path" fill="#03BBB8" points="29.231 0.66 23.724 49.404 23.155 49.404 28.662 0.66 29.231 0.66"></polygon>
                    <polygon id="Path" fill="#06B8B6" points="29.802 0.66 24.294 49.404 23.724 49.404 29.231 0.66"></polygon>
                    <polygon id="Path" fill="#06B8B6" points="30.372 0.66 24.864 49.404 24.294 49.404 29.802 0.66"></polygon>
                    <polygon id="Path" fill="#03B7B5" points="30.941 0.66 25.434 49.404 24.864 49.404 30.372 0.66 30.941 0.66"></polygon>
                    <polygon id="Path" fill="#04B7B4" points="31.511 0.66 26.004 49.404 25.434 49.404 30.941 0.66"></polygon>
                    <polygon id="Path" fill="#00B6B5" points="32.081 0.66 26.573 49.404 26.004 49.404 31.511 0.66"></polygon>
                    <polygon id="Path" fill="#03B6B4" points="32.651 0.66 27.143 49.404 26.573 49.404 32.081 0.66"></polygon>
                    <polygon id="Path" fill="#05B6B2" points="33.221 0.66 27.713 49.404 27.143 49.404 32.651 0.66"></polygon>
                    <polygon id="Path" fill="#01B5B1" points="33.79 0.66 28.283 49.404 27.713 49.404 33.221 0.66 33.79 0.66"></polygon>
                    <polygon id="Path" fill="#01B5B1" points="34.361 0.66 28.852 49.404 28.283 49.404 33.79 0.66"></polygon>
                    <polygon id="Path" fill="#00B4B1" points="34.93 0.66 29.422 49.404 28.852 49.404 34.361 0.66"></polygon>
                    <polygon id="Path" fill="#00B3B0" points="35.5 0.66 29.993 49.404 29.422 49.404 34.93 0.66 35.5 0.66"></polygon>
                    <polygon id="Path" fill="#00B3B0" points="36.07 0.66 30.562 49.404 29.993 49.404 35.5 0.66"></polygon>
                    <polygon id="Path" fill="#00B2AF" points="36.64 0.66 31.132 49.404 30.562 49.404 36.07 0.66"></polygon>
                    <polygon id="Path" fill="#00B2AE" points="37.21 0.66 31.701 49.404 31.132 49.404 36.64 0.66"></polygon>
                    <polygon id="Path" fill="#00B1AE" points="37.779 0.66 32.272 49.404 31.701 49.404 37.21 0.66 37.779 0.66"></polygon>
                    <polygon id="Path" fill="#00B1AD" points="38.349 0.66 32.841 49.404 32.272 49.404 37.779 0.66 38.349 0.66"></polygon>
                    <polygon id="Path" fill="#00B0AC" points="38.919 0.66 33.411 49.404 32.841 49.404 38.349 0.66"></polygon>
                    <polygon id="Path" fill="#00AFAC" points="39.489 0.66 33.982 49.404 33.411 49.404 38.919 0.66 39.489 0.66"></polygon>
                    <polygon id="Path" fill="#00AFAC" points="48.735 0.66 49.054 0.695 49.054 49.404 33.982 49.404 39.489 0.66"></polygon>
                </g>
            </g>
            <g id="Clipped" transform="translate(76.000000, 10.000000)">
                <mask id="mask-4" fill="white">
                    <use xlink:href="#path-3"></use>
                </mask>
                <g id="Path" transform="translate(15.285710, 14.743704) rotate(-45.213000) translate(-15.285710, -14.743704) "></g>
                <g id="Group" mask="url(#mask-4)" fill-rule="nonzero">
                    <polygon id="Path" fill="#75CACA" points="29.581 8.799 29.192 0.447 29.581 0.447"></polygon>
                    <polygon id="Path" fill="#74CBCA" points="29.581 17.574 28.784 0.447 29.192 0.447 29.581 8.799"></polygon>
                    <polygon id="Path" fill="#74CBCA" points="29.581 26.349 28.374 0.447 28.784 0.447 29.581 17.574"></polygon>
                    <polygon id="Path" fill="#73CBCA" points="29.298 29.04 27.966 0.447 28.374 0.447 29.581 26.349 29.581 29.04"></polygon>
                    <polygon id="Path" fill="#72C9C9" points="28.888 29.04 27.557 0.447 27.966 0.447 29.298 29.04"></polygon>
                    <polygon id="Path" fill="#72C9C9" points="28.48 29.04 27.149 0.447 27.557 0.447 28.888 29.04"></polygon>
                    <polygon id="Path" fill="#70CACA" points="28.071 29.04 26.74 0.447 27.149 0.447 28.48 29.04"></polygon>
                    <polygon id="Path" fill="#6FCAC8" points="27.663 29.04 26.331 0.447 26.74 0.447 28.071 29.04 27.663 29.04"></polygon>
                    <path d="M27.254,29.04 L25.922,0.447 L26.331,0.447 L27.663,29.04 L27.254,29.04 Z M26.845,29.04 L25.514,0.447 L25.922,0.447 L27.254,29.04 L26.845,29.04 L26.845,29.04 Z" id="Shape" fill="#6EC8C8"></path>
                    <polygon id="Path" fill="#6CC9C9" points="26.437 29.04 25.104 0.447 25.514 0.447 26.845 29.04"></polygon>
                    <polygon id="Path" fill="#6DC9C8" points="26.028 29.04 24.696 0.447 25.104 0.447 26.437 29.04"></polygon>
                    <path d="M25.62,29.04 L24.287,0.447 L24.696,0.447 L26.028,29.04 L25.62,29.04 Z M25.21,29.04 L23.879,0.447 L24.287,0.447 L25.62,29.04 L25.21,29.04 Z" id="Shape" fill="#69C7C8"></path>
                    <polygon id="Path" fill="#69C8C7" points="24.802 29.04 23.47 0.447 23.879 0.447 25.21 29.04 24.802 29.04"></polygon>
                    <polygon id="Path" fill="#68C8C7" points="24.393 29.04 23.061 0.447 23.47 0.447 24.802 29.04"></polygon>
                    <polygon id="Path" fill="#67C7C7" points="23.985 29.04 22.652 0.447 23.061 0.447 24.393 29.04"></polygon>
                    <polygon id="Path" fill="#65C7C7" points="23.576 29.04 22.244 0.447 22.652 0.447 23.985 29.04"></polygon>
                    <polygon id="Path" fill="#64C7C7" points="23.167 29.04 21.836 0.447 22.244 0.447 23.576 29.04 23.167 29.04"></polygon>
                    <polygon id="Path" fill="#63C6C6" points="22.758 29.04 21.427 0.447 21.836 0.447 23.167 29.04"></polygon>
                    <polygon id="Path" fill="#60C6C6" points="22.349 29.04 21.018 0.447 21.427 0.447 22.758 29.04"></polygon>
                    <polygon id="Path" fill="#60C6C5" points="21.94 29.04 20.609 0.447 21.018 0.447 22.349 29.04"></polygon>
                    <polygon id="Path" fill="#5FC6C5" points="21.532 29.04 20.2 0.447 20.609 0.447 21.94 29.04 21.532 29.04"></polygon>
                    <polygon id="Path" fill="#5FC6C5" points="21.123 29.04 19.791 0.447 20.2 0.447 21.532 29.04"></polygon>
                    <polygon id="Path" fill="#5CC5C4" points="20.715 29.04 19.383 0.447 19.791 0.447 21.123 29.04"></polygon>
                    <polygon id="Path" fill="#5AC5C4" points="20.305 29.04 18.974 0.447 19.383 0.447 20.715 29.04"></polygon>
                    <polygon id="Path" fill="#5AC5C4" points="19.897 29.04 18.566 0.447 18.974 0.447 20.305 29.04"></polygon>
                    <polygon id="Path" fill="#57C4C4" points="19.489 29.04 18.156 0.447 18.566 0.447 19.897 29.04"></polygon>
                    <polygon id="Path" fill="#58C4C3" points="19.08 29.04 17.748 0.447 18.156 0.447 19.489 29.04"></polygon>
                    <polygon id="Path" fill="#55C4C3" points="18.672 29.04 17.339 0.447 17.748 0.447 19.08 29.04"></polygon>
                    <polygon id="Path" fill="#53C3C2" points="18.262 29.04 16.931 0.447 17.339 0.447 18.672 29.04"></polygon>
                    <polygon id="Path" fill="#53C3C2" points="17.854 29.04 16.522 0.447 16.931 0.447 18.262 29.04 17.854 29.04"></polygon>
                    <polygon id="Path" fill="#52C3C2" points="17.444 29.04 16.113 0.447 16.522 0.447 17.854 29.04"></polygon>
                    <polygon id="Path" fill="#50C3C2" points="17.036 29.04 15.704 0.447 16.113 0.447 17.444 29.04 17.036 29.04"></polygon>
                    <polygon id="Path" fill="#50C1C0" points="16.627 29.04 15.296 0.447 15.704 0.447 17.036 29.04 16.627 29.04"></polygon>
                    <polygon id="Path" fill="#4DC2C1" points="16.219 29.04 14.887 0.447 15.296 0.447 16.627 29.04 16.219 29.04"></polygon>
                    <polygon id="Path" fill="#4CC2C0" points="15.81 29.04 14.478 0.447 14.887 0.447 16.219 29.04"></polygon>
                    <polygon id="Path" fill="#4BC0BF" points="15.401 29.04 14.07 0.447 14.478 0.447 15.81 29.04 15.401 29.04"></polygon>
                    <polygon id="Path" fill="#47C1BE" points="14.992 29.04 13.661 0.447 14.07 0.447 15.401 29.04"></polygon>
                    <polygon id="Path" fill="#46C0BE" points="14.584 29.04 13.252 0.447 13.661 0.447 14.992 29.04 14.584 29.04"></polygon>
                    <polygon id="Path" fill="#43C0BE" points="14.175 29.04 12.843 0.447 13.252 0.447 14.584 29.04"></polygon>
                    <polygon id="Path" fill="#41C0BE" points="13.767 29.04 12.435 0.447 12.843 0.447 14.175 29.04"></polygon>
                    <polygon id="Path" fill="#40BFBD" points="13.357 29.04 12.026 0.447 12.435 0.447 13.767 29.04"></polygon>
                    <polygon id="Path" fill="#3BBFBD" points="12.949 29.04 11.618 0.447 12.026 0.447 13.357 29.04"></polygon>
                    <polygon id="Path" fill="#3CBFBC" points="12.54 29.04 11.208 0.447 11.618 0.447 12.949 29.04"></polygon>
                    <polygon id="Path" fill="#39BFBC" points="12.132 29.04 10.8 0.447 11.208 0.447 12.54 29.04 12.132 29.04"></polygon>
                    <polygon id="Path" fill="#34BEBD" points="11.722 29.04 10.391 0.447 10.8 0.447 12.132 29.04"></polygon>
                    <polygon id="Path" fill="#32BEBB" points="11.314 29.04 9.983 0.447 10.391 0.447 11.722 29.04"></polygon>
                    <polygon id="Path" fill="#2FBEBC" points="10.906 29.04 9.574 0.447 9.983 0.447 11.314 29.04 10.906 29.04"></polygon>
                    <polygon id="Path" fill="#2DBDBB" points="10.497 29.04 9.165 0.447 9.574 0.447 10.906 29.04"></polygon>
                    <polygon id="Path" fill="#2BBDBA" points="10.088 29.04 8.756 0.447 9.165 0.447 10.497 29.04"></polygon>
                    <polygon id="Path" fill="#24BCBB" points="9.679 29.04 8.348 0.447 8.756 0.447 10.088 29.04 9.679 29.04"></polygon>
                    <polygon id="Path" fill="#21BCB9" points="9.271 29.04 7.938 0.447 8.348 0.447 9.679 29.04"></polygon>
                    <polygon id="Path" fill="#18BBB9" points="8.862 29.04 7.53 0.447 7.938 0.447 9.271 29.04"></polygon>
                    <polygon id="Path" fill="#16BAB9" points="8.453 29.04 7.121 0.447 7.53 0.447 8.862 29.04"></polygon>
                    <polygon id="Path" fill="#11BAB7" points="8.044 29.04 6.713 0.447 7.121 0.447 8.453 29.04 8.044 29.04"></polygon>
                    <polygon id="Path" fill="#03BBB8" points="7.636 29.04 6.304 0.447 6.713 0.447 8.044 29.04 7.636 29.04"></polygon>
                    <polygon id="Path" fill="#06B8B6" points="7.227 29.04 5.895 0.447 6.304 0.447 7.636 29.04"></polygon>
                    <polygon id="Path" fill="#06B8B6" points="6.819 29.04 5.487 0.447 5.895 0.447 7.227 29.04"></polygon>
                    <polygon id="Path" fill="#06B8B6" points="6.409 29.04 5.078 0.447 5.487 0.447 6.819 29.04"></polygon>
                    <polygon id="Path" fill="#00B7B6" points="6.001 29.04 4.67 0.447 5.078 0.447 6.409 29.04"></polygon>
                    <polygon id="Path" fill="#03B7B5" points="5.592 29.04 4.261 0.447 4.67 0.447 6.001 29.04"></polygon>
                    <polygon id="Path" fill="#04B7B4" points="5.183 29.04 3.852 0.447 4.261 0.447 5.592 29.04"></polygon>
                    <polygon id="Path" fill="#00B6B5" points="4.774 29.04 3.443 0.447 3.852 0.447 5.183 29.04"></polygon>
                    <polygon id="Path" fill="#00B6B5" points="4.366 29.04 3.034 0.447 3.443 0.447 4.774 29.04 4.366 29.04"></polygon>
                    <polygon id="Path" fill="#00B6B5" points="3.957 29.04 2.625 0.447 3.034 0.447 4.366 29.04"></polygon>
                    <polygon id="Path" fill="#03B6B4" points="3.549 29.04 2.217 0.447 2.625 0.447 3.957 29.04"></polygon>
                    <polygon id="Path" fill="#03B6B4" points="3.14 29.04 1.808 0.447 2.217 0.447 3.549 29.04"></polygon>
                    <polygon id="Path" fill="#05B6B2" points="2.731 29.04 1.4 0.447 1.808 0.447 3.14 29.04"></polygon>
                    <polygon id="Path" fill="#01B5B1" points="2.323 29.04 0.99 0.447 1.4 0.447 2.731 29.04"></polygon>
                    <polygon id="Path" fill="#01B5B1" points="1.914 29.04 0.989 9.188 0.989 0.447 0.99 0.447 2.323 29.04"></polygon>
                    <polygon id="Path" fill="#01B5B1" points="1.506 29.04 0.989 17.963 0.989 9.188 1.914 29.04"></polygon>
                    <polygon id="Path" fill="#00B4B1" points="1.096 29.04 0.989 26.738 0.989 17.963 1.506 29.04"></polygon>
                    <polygon id="Path" fill="#00B4B1" points="0.989 26.738 1.096 29.04 0.989 29.04"></polygon>
                </g>
            </g>
            <polygon id="Path" fill="#244B5A" fill-rule="nonzero" points="25.663 10.295 10.959 25.11 25.772 39.814 38.305 39.768 25.163 26.731 90.058 26.491 84.37 32.217 90.637 32.194 97.99 24.786 90.582 17.435 84.316 17.457 90.046 23.142 25.151 23.383 38.195 10.248 25.663 10.295"></polygon>
        </g>
    </g>
</svg>