<?xml version="1.0" encoding="UTF-8" standalone="no"?>
<!DOCTYPE svg PUBLIC "-//W3C//DTD SVG 1.1//EN" "http://www.w3.org/Graphics/SVG/1.1/DTD/svg11.dtd">
<!-- Created with Vectornator (http://vectornator.io/) -->
<svg height="100%" stroke-miterlimit="10" style="fill-rule:nonzero;clip-rule:evenodd;stroke-linecap:round;stroke-linejoin:round;" version="1.1" viewBox="0 0 32 32" width="100%" xml:space="preserve" xmlns="http://www.w3.org/2000/svg" xmlns:vectornator="http://vectornator.io" xmlns:xlink="http://www.w3.org/1999/xlink">
<defs>
<path d="M1 4C1 2.34315 2.34315 1 4 1L28 1C29.6569 1 31 2.34315 31 4L31 28C31 29.6569 29.6569 31 28 31L4 31C2.34315 31 1 29.6569 1 28L1 4Z" id="Fill"/>
</defs>
<g id="Layer-1" vectornator:layerName="Layer 1">
<g opacity="1" vectornator:layerName="Rectangle 1">
<mask height="30" id="StrokeMask" maskUnits="userSpaceOnUse" width="30" x="1" y="1">
<rect fill="#000000" height="30" stroke="none" width="30" x="1" y="1"/>
<use fill="#ffffff" fill-rule="evenodd" stroke="none" xlink:href="#Fill"/>
</mask>
<use fill="none" mask="url(#StrokeMask)" stroke="#000000" stroke-linecap="butt" stroke-linejoin="round" stroke-width="2" xlink:href="#Fill"/>
</g>
<path d="M13.0161 15.6931L18.9469 15.6931C20.5979 15.6931 21.8984 14.2962 21.8984 12.6383L21.8984 6.98426C21.8984 5.37499 20.5495 4.166 18.938 3.89752C17.9182 3.72769 16.8644 3.65039 15.849 3.65528C14.8341 3.65995 13.894 3.7464 13.0411 3.89752C10.5282 4.34113 10.1014 5.27065 10.1014 6.98426L10.1014 9.1844L15.9999 9.1844L15.9999 9.99799L7.81851 9.99799C6.09289 9.99799 4.58166 11.0369 4.10917 13.0105C3.56386 15.2723 3.53966 16.6551 4.10917 19.0168C4.53122 20.7745 5.53905 21.9984 7.26486 21.9984L9.28784 21.9984L9.28784 19.3445C9.28784 17.3843 11.0021 15.6931 13.0161 15.6931ZM12.6423 7.73825C12.0268 7.73825 11.528 7.23403 11.528 6.61042C11.528 5.98416 12.0266 5.47527 12.6423 5.47527C13.2555 5.47527 13.7567 5.98416 13.7567 6.61042C13.7565 7.23403 13.2553 7.73825 12.6423 7.73825ZM27.8541 13.0105C27.4273 11.2922 26.6127 9.99799 24.8847 9.99799L22.712 9.99799L22.712 12.6383C22.712 14.6824 20.9233 16.3033 18.9469 16.3033L13.0161 16.3033C11.3914 16.3033 10.1014 17.7934 10.1014 19.4205L10.1014 25.0749C10.1014 26.6838 11.4733 27.6304 13.0429 28.0921C14.9227 28.6447 16.7029 28.7446 18.9518 28.0921C20.4466 27.6591 21.8984 26.7881 21.8984 25.0749L21.8984 22.812L15.9999 22.812L15.9999 21.9984L24.8847 21.9984C26.6103 21.9984 27.2536 20.8236 27.8541 19.0166C28.4738 17.1565 28.4472 15.3963 27.8541 13.0105ZM19.3206 24.3205C19.9362 24.3205 20.435 24.8248 20.435 25.4488C20.435 26.0744 19.9365 26.5835 19.3206 26.5835C18.7073 26.5835 18.2064 26.0746 18.2064 25.4488C18.2064 24.8248 18.7073 24.3205 19.3206 24.3205Z" fill="#000000" fill-rule="nonzero" opacity="1" stroke="none" vectornator:layerName="path 1"/>
</g>
</svg>
