<?xml version="1.0" encoding="UTF-8" standalone="no"?>
<!DOCTYPE svg PUBLIC "-//W3C//DTD SVG 1.1//EN" "http://www.w3.org/Graphics/SVG/1.1/DTD/svg11.dtd">
<!-- Created with Vectornator (http://vectornator.io/) -->
<svg height="100%" stroke-miterlimit="10" style="fill-rule:nonzero;clip-rule:evenodd;stroke-linecap:round;stroke-linejoin:round;" version="1.1" viewBox="0 0 32 32" width="100%" xml:space="preserve" xmlns="http://www.w3.org/2000/svg" xmlns:vectornator="http://vectornator.io" xmlns:xlink="http://www.w3.org/1999/xlink">
<defs/>
<g id="jee" vectornator:layerName="jee">
<g opacity="1" vectornator:layerName="java">
<g opacity="1" vectornator:layerName="Group">
<path d="M11.1476 18.2176C10.8898 18.2176 10.6338 18.201 10.3805 18.222C10.0187 18.2492 9.67206 18.3414 9.36807 18.5511C9.36629 18.5528 9.36362 18.5546 9.36096 18.5563C9.09074 18.7538 9.07385 19.0073 9.33696 19.2135C9.48362 19.3294 9.65251 19.4241 9.82495 19.4978C10.2534 19.6838 10.7094 19.7865 11.1689 19.8734C12.0943 20.0462 13.0294 20.1305 13.9689 20.177C14.9627 20.2261 15.9564 20.2261 16.9502 20.1726C18.0942 20.1103 19.2328 19.9936 20.3457 19.7119C20.8906 19.5742 21.4275 19.4048 21.8968 19.0845C22.0897 18.9538 22.2577 18.7976 22.3617 18.5844C22.4603 18.3808 22.4639 18.172 22.3964 17.9588C22.3875 17.9316 22.3804 17.9044 22.3679 17.8623C22.6292 17.9886 22.8728 18.1159 23.0506 18.3335C23.2532 18.5783 23.2621 18.9213 23.087 19.2346C22.9039 19.5601 22.6195 19.7768 22.303 19.9611C21.719 20.3024 21.079 20.5007 20.4275 20.6666C19.5608 20.8859 18.6808 21.0175 17.7929 21.1114C16.664 21.2316 15.5324 21.279 14.3982 21.2641C13.488 21.2509 12.5787 21.2018 11.6738 21.0965C10.9556 21.0123 10.2427 20.8991 9.54229 20.721C8.9974 20.5823 8.4623 20.4165 7.96808 20.1419C7.65964 19.9708 7.37609 19.7689 7.1912 19.4601C6.9761 19.0986 7.02498 18.7371 7.32631 18.4396C7.58053 18.1896 7.88986 18.029 8.22497 17.9176C8.86941 17.7017 9.52895 17.6719 10.1992 17.75C10.3245 17.7649 10.4329 17.8061 10.5378 17.8684C10.7405 17.9878 10.9467 18.1027 11.1476 18.2176Z" fill="#5382a1" fill-rule="nonzero" opacity="1" stroke="none" vectornator:layerName="Shape"/>
<path d="M15.7778 11.9475C15.7369 11.9194 15.696 11.8931 15.656 11.8641C14.9236 11.335 14.2382 10.7533 13.6347 10.0838C13.1982 9.5986 12.8089 9.08091 12.5662 8.47109C12.4 8.05694 12.3227 7.63051 12.4116 7.18653C12.4818 6.8338 12.6507 6.52582 12.8614 6.23714C13.2525 5.70454 13.7502 5.2746 14.2551 4.85431C14.8373 4.36996 15.4284 3.89615 16.0062 3.40566C16.472 3.00994 16.8986 2.57561 17.2231 2.05529C17.4506 1.69203 17.5991 1.30333 17.6071 0.870752C17.6115 0.639986 17.5804 0.413608 17.5004 0.196004C17.4871 0.160907 17.4755 0.125809 17.4631 0.0907119C17.472 0.0872021 17.48 0.0828149 17.488 0.0784278C17.5831 0.24865 17.6853 0.415363 17.7724 0.589972C18.0088 1.06291 18.1413 1.56129 18.1244 2.09302C18.1075 2.58877 17.9617 3.05118 17.7342 3.48902C17.4115 4.112 16.9618 4.6446 16.4809 5.15088C15.96 5.69928 15.4258 6.23627 14.9111 6.78993C14.6151 7.10844 14.3609 7.46029 14.2089 7.87356C14.0827 8.21752 14.0845 8.55357 14.2258 8.8949C14.6516 9.92676 15.1413 10.9262 15.7529 11.8659C15.7671 11.8869 15.7787 11.9106 15.7911 11.9335C15.7867 11.937 15.7813 11.9422 15.7778 11.9475Z" fill="#e76f00" fill-rule="nonzero" opacity="1" stroke="none" vectornator:layerName="Shape"/>
<path d="M13.2747 11.5421C12.9654 11.6334 12.6542 11.7194 12.3476 11.8194C12.0516 11.9159 11.7556 12.0194 11.4952 12.1932C11.4249 12.2397 11.3609 12.3011 11.3076 12.366C11.2356 12.452 11.2534 12.5319 11.3592 12.5687C11.4987 12.617 11.6427 12.66 11.7885 12.6775C12.1751 12.7214 12.5627 12.7644 12.952 12.7793C14.1831 12.8328 15.4151 12.81 16.6462 12.7363C17.3102 12.6968 17.976 12.6556 18.6382 12.5863C19.2382 12.524 19.8328 12.4222 20.4302 12.338C20.4506 12.3353 20.471 12.3318 20.5013 12.3441C20.3857 12.438 20.2728 12.5363 20.1528 12.624C19.8088 12.8767 19.4631 13.125 19.1164 13.3733C19.0879 13.3926 19.0551 13.4119 19.0222 13.4172C18.2524 13.5321 17.4844 13.6594 16.7111 13.7541C15.5298 13.8989 14.3404 13.9551 13.1502 13.9472C12.2783 13.9419 11.4072 13.898 10.5458 13.7559C10.0792 13.6795 9.61606 13.5822 9.19562 13.3549C9.08274 13.2935 8.97163 13.2163 8.88541 13.1215C8.66319 12.8811 8.7023 12.5591 8.96541 12.3283C9.21696 12.1089 9.52273 11.9949 9.83828 11.9054C10.5921 11.693 11.3663 11.6123 12.1449 11.5711C12.5227 11.5518 12.8996 11.5412 13.2765 11.5263C13.2756 11.5325 13.2747 11.5369 13.2747 11.5421Z" fill="#5382a1" fill-rule="nonzero" opacity="1" stroke="none" vectornator:layerName="Shape"/>
<path d="M16.4889 12.4204C16.7031 12.2309 16.8871 12.0177 17.0409 11.7781C17.1964 11.5333 17.3022 11.271 17.3164 10.9797C17.3333 10.6498 17.2186 10.3541 17.0462 10.0829C16.8275 9.73987 16.592 9.40819 16.3724 9.06687C16.1422 8.71063 15.9849 8.32632 15.9582 7.89901C15.9395 7.58576 15.9884 7.27778 16.08 6.97858C16.2951 6.27487 16.7466 5.74315 17.3395 5.31847C17.9848 4.85782 18.712 4.57441 19.4719 4.36558C20.0373 4.21027 20.6124 4.10585 21.2053 4.06549C21.1786 4.08392 21.1519 4.10234 21.1253 4.11902C20.4808 4.52176 19.8559 4.95082 19.2568 5.41499C18.8462 5.73262 18.4515 6.0678 18.1084 6.45738C18.0177 6.5618 17.9351 6.67323 17.8542 6.78554C17.5991 7.13652 17.6026 7.5182 17.7537 7.90076C17.8569 8.15873 17.9955 8.40353 18.12 8.65272C18.2648 8.94403 18.432 9.22744 18.5555 9.5284C18.8204 10.1689 18.7111 10.7717 18.3048 11.3245C17.9608 11.7913 17.4889 12.0888 16.9529 12.2932C16.8044 12.3494 16.6506 12.3932 16.4986 12.4424C16.4951 12.4345 16.4915 12.4283 16.4889 12.4204Z" fill="#e76f00" fill-rule="nonzero" opacity="1" stroke="none" vectornator:layerName="Shape"/>
<path d="M19.7182 15.5002C19.5875 15.5502 19.4675 15.5976 19.3439 15.6406C18.4791 15.9389 17.5902 16.1337 16.6826 16.2443C15.8551 16.3443 15.024 16.3856 14.1902 16.3487C13.3271 16.3083 12.4711 16.2224 11.6383 15.9776C11.3218 15.8845 11.0098 15.7757 10.7423 15.5757C10.6658 15.5195 10.5938 15.4476 10.5378 15.3704C10.4303 15.2212 10.4543 15.0308 10.5903 14.8474C10.76 14.6184 10.9947 14.4692 11.2463 14.3455C11.5032 14.2183 11.7734 14.1323 12.0596 14.099C12.1058 14.0937 12.152 14.0937 12.216 14.0902C12.1574 14.1516 12.1067 14.1999 12.0631 14.2543C11.9165 14.4298 11.9387 14.6044 12.128 14.7369C12.3511 14.893 12.6116 14.9588 12.8747 15.0089C13.8107 15.187 14.7547 15.1817 15.7013 15.1194C16.5013 15.0668 17.2933 14.9615 18.0622 14.7377C18.2888 14.6719 18.4515 14.6956 18.6391 14.8237C18.9608 15.0448 19.3022 15.2396 19.6337 15.4458C19.6595 15.4607 19.6835 15.4765 19.7182 15.5002Z" fill="#5382a1" fill-rule="nonzero" opacity="1" stroke="none" vectornator:layerName="Shape"/>
<path d="M12.8747 16.4715C12.8374 16.5286 12.8054 16.5707 12.7814 16.6163C12.7085 16.7532 12.7351 16.8717 12.8605 16.9647C13.0116 17.0779 13.1902 17.1226 13.3716 17.1595C13.8942 17.2639 14.424 17.2621 14.9529 17.2428C15.5475 17.2218 16.1404 17.1621 16.7218 17.0331C17.0969 16.9506 17.4631 16.8278 17.8346 16.7251C17.8693 16.7155 17.9191 16.7137 17.9466 16.7313C18.4026 17.0199 18.8551 17.3113 19.3093 17.6026C19.3208 17.6096 19.3306 17.6201 19.3582 17.6412C19.1768 17.7307 19.0106 17.8202 18.8391 17.8956C18.2311 18.1597 17.592 18.3168 16.9395 18.4265C16.0818 18.5704 15.216 18.6265 14.3458 18.6028C13.6453 18.5844 12.9511 18.5221 12.2765 18.3203C11.9885 18.2334 11.7085 18.1264 11.4836 17.9176C11.2747 17.721 11.2338 17.4806 11.3672 17.2297C11.4658 17.0428 11.6134 16.8997 11.7894 16.783C12.1138 16.5698 12.4747 16.4812 12.8747 16.4715Z" fill="#5382a1" fill-rule="nonzero" opacity="1" stroke="none" vectornator:layerName="Shape"/>
<path d="M10.1121 21.6151C10.3236 21.6598 10.5352 21.7046 10.7467 21.7476C11.568 21.9143 12.3956 22.0406 13.2294 22.1336C14.4053 22.2626 15.584 22.317 16.7662 22.2828C18.392 22.2372 19.9955 22.0441 21.5599 21.5835C22.4408 21.3246 23.2897 20.9895 24.0594 20.4867C24.3261 20.313 24.5688 20.1033 24.823 19.9093C24.8479 19.89 24.8719 19.8681 24.9101 19.8365C24.9074 20.0357 24.8665 20.2094 24.7972 20.3761C24.6808 20.656 24.4977 20.8894 24.2754 21.093C23.7714 21.5537 23.1706 21.8511 22.5359 22.0906C21.7306 22.3942 20.895 22.5829 20.0435 22.7127C19.0177 22.8707 17.9866 22.9312 16.9493 22.9198C16.1431 22.911 15.3395 22.8531 14.5396 22.7522C13.4054 22.6075 12.2907 22.3723 11.2018 22.0257C10.832 21.9073 10.4694 21.7713 10.1041 21.6423C10.1067 21.6344 10.1094 21.6256 10.1121 21.6151Z" fill="#5382a1" fill-rule="nonzero" opacity="1" stroke="none" vectornator:layerName="Shape"/>
<path d="M20.8453 12.0379C21.0195 11.9413 21.191 11.8343 21.3724 11.7518C21.6941 11.607 22.0346 11.5342 22.391 11.5333C23.2203 11.5307 23.8843 12.0809 24.0008 12.8916C24.1483 13.9103 23.8034 14.7448 23.0008 15.3941C22.4283 15.8556 21.7599 16.125 21.0533 16.3101C20.8719 16.3584 20.6879 16.3917 20.5048 16.4312C20.4719 16.4373 20.4373 16.4382 20.3973 16.4268C20.4168 16.411 20.4364 16.3961 20.4559 16.3803C20.9884 15.9907 21.4844 15.5625 21.9066 15.0562C22.2364 14.6614 22.5181 14.2385 22.6568 13.7392C22.7323 13.4672 22.7768 13.1908 22.6781 12.9162C22.5359 12.5205 22.2381 12.2783 21.8515 12.1326C21.5288 12.0115 21.1973 12.0001 20.8595 12.0616C20.8541 12.0537 20.8497 12.0458 20.8453 12.0379Z" fill="#5382a1" fill-rule="nonzero" opacity="1" stroke="none" vectornator:layerName="Shape"/>
</g>
</g>
<path d="M12.5 28.872C12.5 29.1227 12.4787 29.3653 12.436 29.6C12.3933 29.8347 12.3067 30.0453 12.176 30.232C12.0453 30.4187 11.856 30.568 11.608 30.68C11.36 30.792 11.0307 30.848 10.62 30.848C10.316 30.848 10.0573 30.8013 9.844 30.708C9.63067 30.6147 9.45467 30.4867 9.316 30.324C9.17733 30.1613 9.076 29.968 9.012 29.744C8.948 29.52 8.916 29.2773 8.916 29.016L8.916 28.712L9.916 28.712L9.916 29.008C9.916 29.3333 9.97067 29.5853 10.08 29.764C10.1893 29.9427 10.396 30.032 10.7 30.032C10.86 30.032 10.992 30.008 11.096 29.96C11.2 29.912 11.2827 29.8413 11.344 29.748C11.4053 29.6547 11.4467 29.5387 11.468 29.4C11.4893 29.2613 11.5 29.104 11.5 28.928L11.5 25L12.5 25L12.5 28.872ZM13.716 25L17.828 25L17.828 25.864L14.716 25.864L14.716 27.36L17.596 27.36L17.596 28.176L14.716 28.176L14.716 29.848L17.884 29.848L17.884 30.712L13.716 30.712L13.716 25ZM18.756 25L22.868 25L22.868 25.864L19.756 25.864L19.756 27.36L22.636 27.36L22.636 28.176L19.756 28.176L19.756 29.848L22.924 29.848L22.924 30.712L18.756 30.712L18.756 25Z" fill="#757575" fill-rule="evenodd" opacity="1" stroke="none" vectornator:layerName="JEE"/>
</g>
</svg>
