<?xml version="1.0" encoding="UTF-8"?>
<svg width="32px" height="32px" viewBox="0 0 32 32" version="1.1" xmlns="http://www.w3.org/2000/svg" xmlns:xlink="http://www.w3.org/1999/xlink">
    <title>vbnet-plain</title>
    <g id="vbnet-plain" stroke="none" stroke-width="1" fill="none" fill-rule="evenodd">
        <g id="vb" transform="translate(0.053329, 0.000000)" fill="#000000" fill-rule="nonzero">
            <path d="M16.1928246,0 C24.8934336,0 31.9466707,7.05323717 31.9466707,15.7538462 C31.9466707,24.4544551 24.8934336,31.5076923 16.1928246,31.5076923 C7.4922156,31.5076923 0.438978425,24.4544551 0.438978425,15.7538462 C0.438978425,7.05323717 7.4922156,0 16.1928246,0 Z M22.3736385,9.54531686 L22.1448246,9.55076923 L18.6149784,9.55076923 L18.6149784,21.9569231 L22.2186707,21.9569231 C23.2672546,21.9951779 24.2929761,21.6445039 25.0986707,20.9723077 C25.8529113,20.331615 26.2734819,19.3817056 26.2408246,18.3926154 C26.2735186,17.6263952 26.002883,16.8781673 25.4875938,16.3101538 C24.9546326,15.762206 24.2408994,15.4263315 23.4789784,15.3649231 L23.4789784,15.3649231 L23.4789784,15.3304615 C24.1089511,15.1389984 24.6610448,14.7508075 25.054363,14.2227692 C25.4440999,13.6925116 25.6498286,13.0493933 25.6402092,12.3913846 C25.6628891,11.5970401 25.3132591,10.8376875 24.6949784,10.3384615 C23.9656473,9.78098847 23.0615,9.50171518 22.1448246,9.55076923 Z M15.2672861,9.52615385 L11.7620553,19.3723077 C11.6303783,19.7355551 11.5379546,20.1118517 11.486363,20.4947692 L11.486363,20.4947692 L11.4519015,20.4947692 C11.4037493,20.1215906 11.3196666,19.753935 11.2008246,19.3969231 L11.2008246,19.3969231 L7.75467073,9.55076923 L6.13497842,9.55076923 L10.6346707,21.9569231 L12.254363,21.9569231 L16.8279015,9.55076923 L15.2672861,9.52615385 Z M20.0919015,16.1723077 L21.7411323,16.1772308 C23.7366195,16.1772308 24.734363,16.9091282 24.734363,18.3729231 C24.7650054,19.0043744 24.5057765,19.6152845 24.030363,20.032 C23.4678973,20.4636378 22.7689427,20.6785663 22.0611323,20.6375385 L22.0611323,20.6375385 L20.0919015,20.6375385 L20.0919015,16.1723077 Z M21.7411323,10.8455385 C23.326363,10.8455385 24.1189784,11.4477949 24.1189784,12.6523077 C24.1541481,13.2704898 23.9015404,13.870206 23.4346707,14.2769231 C22.9029473,14.6898114 22.241288,14.8993077 21.5688246,14.8676923 L21.5688246,14.8676923 L20.0919015,14.8676923 L20.0919015,10.8603077 Z" id="Oval-2"></path>
        </g>
    </g>
</svg>