<?xml version="1.0" encoding="UTF-8"?>
<svg width="28px" height="28px" viewBox="0 0 28 28" version="1.1" xmlns="http://www.w3.org/2000/svg" xmlns:xlink="http://www.w3.org/1999/xlink">
    <title>jax-rs</title>
    <g id="jax-rs" stroke="none" stroke-width="1" fill="none" fill-rule="evenodd">
        <rect id="Rectangle" fill="#000000" x="6" y="12" width="16" height="15"></rect>
        <path d="M19.6453089,3.64188073 L28,7.15647453 L26.2695257,12.5063767 L1.73047426,12.5063767 L0,7.15647453 L8.35469109,3.64188073 C8.12512991,4.06590399 8,4.52321011 8,5 C8,7.209139 10.6862915,9 14,9 C17.3137085,9 20,7.209139 20,5 C20,4.52321011 19.8748701,4.06590399 19.6453089,3.64188073 Z M14.5863597,2.92069548 C19.1033976,2.93451135 19.5,3.14432324 19.5,5 C19.5,6.93299662 17.0375661,8.5 14,8.5 C10.9624339,8.5 8.5,6.93299662 8.5,5 C8.5,3.14432324 8.89660241,2.93451135 13.4136403,2.92069548 Z" id="Combined-Shape" fill="#000000"></path>
    </g>
</svg>