<?xml version="1.0" encoding="UTF-8"?>
<svg width="28px" height="28px" viewBox="0 0 28 28" version="1.1" xmlns="http://www.w3.org/2000/svg" xmlns:xlink="http://www.w3.org/1999/xlink">
    <title>jax-rs colored</title>
    <g id="jax-rs-colored" stroke="none" stroke-width="1" fill="none" fill-rule="evenodd">
        <path d="M18.1172605,3 L28,7.15647453 L26.2695257,12.5063767 L22,12.506 L22,27 L6,27 L6,12.506 L1.73047426,12.5063767 L0,7.15647453 L9.88273946,3 L18.1172605,3 Z" id="Combined-Shape" fill="#F9C400"></path>
        <path d="M14,27 L6,27 L6,12.506 L1.73047426,12.5063767 L0,7.15647453 L9.88273946,3 L14,3 L14,27 Z" id="Combined-Shape-Copy" fill="#FCD855"></path>
        <path d="M14.5909435,3.5007978 C16.8313309,3.50744372 18.0735846,3.51287474 18.7410188,3.81191612 C19.0064952,4.19070933 19,4.51220018 19,4.9229804 C19,5.74583925 18.4548789,6.45256714 17.6806226,6.97866192 C16.7386691,7.61870421 15.4340993,7.99988435 14,7.99988435 C12.5659007,7.99988435 11.2613309,7.61870421 10.3193774,6.97866192 C9.54512112,6.45256714 9,5.74583925 9,4.9229804 C9,4.51220018 8.99350478,4.19070933 9.09471338,3.94978354 C9.92641543,3.51287474 11.1686691,3.50744372 13.4060901,3.5008022 L13.4060901,3.5008022 Z" id="Oval-Copy" stroke="#141313" stroke-width="2" fill="#F9C400"></path>
    </g>
</svg>