<?xml version="1.0" encoding="UTF-8" standalone="no"?>
<!DOCTYPE svg PUBLIC "-//W3C//DTD SVG 1.1//EN" "http://www.w3.org/Graphics/SVG/1.1/DTD/svg11.dtd">
<!-- Created with Vectornator (http://vectornator.io/) -->
<svg height="100%" stroke-miterlimit="10" style="fill-rule:nonzero;clip-rule:evenodd;stroke-linecap:round;stroke-linejoin:round;" version="1.1" viewBox="0 0 256 256" width="100%" xml:space="preserve" xmlns="http://www.w3.org/2000/svg" xmlns:vectornator="http://vectornator.io" xmlns:xlink="http://www.w3.org/1999/xlink">
<defs/>
<g id="Untitled" vectornator:layerName="Untitled">
<g opacity="1">
<path d="M70.956 195.781C70.553 195.781 70.145 195.729 69.737 195.621C67.235 194.95 65.747 192.374 66.418 189.87C74.175 160.911 72.692 83.434 72.675 82.653C72.622 80.064 74.682 77.918 77.274 77.868C77.307 77.865 77.339 77.865 77.37 77.865C79.919 77.865 82.01 79.903 82.062 82.465C82.128 85.7 83.585 162.069 75.488 192.303C74.926 194.398 73.028 195.781 70.956 195.781Z" fill="#000000" fill-rule="nonzero" opacity="1" stroke="none"/>
<path d="M138.613 137.416C129.172 137.416 121.221 133.526 120.708 133.267C118.39 132.109 117.45 129.289 118.609 126.972C119.766 124.66 122.575 123.715 124.9 124.868C125.179 125.006 139.677 131.961 149.419 124.762C151.502 123.216 154.441 123.659 155.983 125.744C157.525 127.828 157.084 130.766 155 132.308C149.78 136.168 143.958 137.416 138.613 137.416Z" fill="#000000" fill-rule="nonzero" opacity="1" stroke="none"/>
<path d="M157.21 182.926C153.459 182.926 149.213 182.697 144.437 182.406C141.849 182.247 139.88 180.02 140.038 177.43C140.196 174.843 142.402 172.889 145.01 173.033C154.849 173.637 165.995 174.324 168.68 171.054C170.634 168.67 170.222 162.142 167.452 151.654C160.656 125.922 166.564 117.252 172.637 111.149C173.062 110.726 173.457 110.332 173.796 109.942C177.901 105.257 191.203 98.005 193.826 96.6C196.112 95.374 198.957 96.236 200.18 98.519C201.404 100.805 200.545 103.648 198.261 104.875C192.356 108.038 183.054 113.622 180.862 116.123C180.403 116.65 179.869 117.192 179.295 117.77C175.808 121.275 170.537 126.57 176.528 149.253C180.362 163.778 180.192 171.819 175.937 177.006C172.118 181.664 166.024 182.926 157.21 182.926Z" fill="#000000" fill-rule="nonzero" opacity="1" stroke="none"/>
<path d="M147.883 250.904C136.284 250.904 124.908 245.728 116.96 236.355C98.258 214.296 84.584 214.501 84.425 214.482C81.834 214.656 79.674 212.582 79.547 210.026C79.419 207.47 81.316 205.288 83.867 205.112C85.699 205.005 102.365 204.623 124.12 230.283C132.371 240.014 144.781 243.825 156.506 240.223C179.349 233.209 195.522 200.696 200.871 151.022C205.6 107.119 208.399 62.229 186.69 38.06C173.782 23.684 152.743 16.698 122.373 16.698C57.157 16.698 43.728 59.201 40.982 77.476C36.847 104.994 47.441 133.5 63.65 138.485C66.128 139.248 67.52 141.874 66.757 144.353C65.994 146.829 63.369 148.214 60.89 147.457C40.207 141.098 26.839 108.413 31.697 76.081C38.17 33.018 72.067 7.309 122.374 7.309C155.562 7.309 178.885 15.317 193.677 31.788C217.966 58.833 215.161 106.017 210.206 152.028C202.302 225.388 174.894 244.396 159.262 249.198C155.52 250.346 151.69 250.904 147.883 250.904Z" fill="#000000" fill-rule="nonzero" opacity="1" stroke="none"/>
</g>
</g>
</svg>
