<svg xmlns="http://www.w3.org/2000/svg" xmlns:xlink="http://www.w3.org/1999/xlink" viewBox="0 0 58 65" fill="#fff" fill-rule="evenodd" stroke="#000" stroke-linecap="round" stroke-linejoin="round"><use xlink:href="#A" x=".5" y=".5"/><symbol id="A" overflow="visible"><path d="M0 63.7v-9.275h7.73V9.275H0V0h30.6c13.913 0 22.57 6.184 22.57 17.314 0 7.1-4.33 11.44-9.894 13.604 8.04 2.164 13.604 7.42 13.604 14.84C56.888 57.507 47.614 64 32.144 64H0zM18.24 9.285V26.6h11.44c8.657 0 12.986-3.092 12.986-8.657 0-5.874-4.638-8.657-13.295-8.657zm0 45.14h12.986c10.203 0 15.15-3.092 15.15-9.275s-5.256-9.275-15.768-9.275H18.241z" stroke="none" fill="#000000" fill-rule="nonzero"/></symbol></svg>