<?xml version="1.0" encoding="UTF-8" standalone="no"?>
<!DOCTYPE svg PUBLIC "-//W3C//DTD SVG 1.1//EN" "http://www.w3.org/Graphics/SVG/1.1/DTD/svg11.dtd">
<!-- Created with Vectornator (http://vectornator.io/) -->
<svg height="18.0pt" stroke-miterlimit="10" style="fill-rule:nonzero;clip-rule:evenodd;stroke-linecap:round;stroke-linejoin:round;" version="1.1" viewBox="0 0 18 18" width="18.0pt" xml:space="preserve" xmlns="http://www.w3.org/2000/svg" xmlns:xlink="http://www.w3.org/1999/xlink">
<defs/>
<g id="Untitled">
<g opacity="1">
<path d="M12.7 8.15L12.7 7.55L8.18 7.55L6.06 9.66L4.5 9.66L8.12 6L10.59 6L10.59 5.43L7.87 5.43L3.65 9.66L3.05 9.66L3.05 10.26L4.86 10.26L7 12.37L12.1 12.37L12.1 11.77L7.22 11.77L5.71 10.26L9.38 10.26L9.38 9.66L6.92 9.66L8.42 8.15L12.7 8.15Z" fill="#000000" fill-rule="nonzero" opacity="1" stroke="none"/>
<path d="M9.11 9.96C9.11 9.47951 9.49951 9.09 9.98 9.09C10.4605 9.09 10.85 9.47951 10.85 9.96C10.85 10.4405 10.4605 10.83 9.98 10.83C9.49951 10.83 9.11 10.4405 9.11 9.96Z" fill="#000000" fill-rule="nonzero" opacity="1" stroke="none"/>
<path d="M10.02 5.74C10.02 5.25951 10.4095 4.87 10.89 4.87C11.3705 4.87 11.76 5.25951 11.76 5.74C11.76 6.22049 11.3705 6.61 10.89 6.61C10.4095 6.61 10.02 6.22049 10.02 5.74Z" fill="#000000" fill-rule="nonzero" opacity="1" stroke="none"/>
<path d="M12.13 7.85C12.13 7.36951 12.5195 6.98 13 6.98C13.4805 6.98 13.87 7.36951 13.87 7.85C13.87 8.33049 13.4805 8.72 13 8.72C12.5195 8.72 12.13 8.33049 12.13 7.85Z" fill="#000000" fill-rule="nonzero" opacity="1" stroke="none"/>
<path d="M11.23 12.07C11.23 11.5895 11.6195 11.2 12.1 11.2C12.5805 11.2 12.97 11.5895 12.97 12.07C12.97 12.5505 12.5805 12.94 12.1 12.94C11.6195 12.94 11.23 12.5505 11.23 12.07Z" fill="#000000" fill-rule="nonzero" opacity="1" stroke="none"/>
<path d="M9.81 5.74C9.81 5.1601 10.2801 4.69 10.86 4.69C11.4399 4.69 11.91 5.1601 11.91 5.74C11.91 6.3199 11.4399 6.79 10.86 6.79C10.2801 6.79 9.81 6.3199 9.81 5.74Z" fill="#000000" fill-rule="nonzero" opacity="1" stroke="none"/>
<path d="M11.92 7.85C11.92 7.2701 12.3901 6.8 12.97 6.8C13.5499 6.8 14.02 7.2701 14.02 7.85C14.02 8.4299 13.5499 8.9 12.97 8.9C12.3901 8.9 11.92 8.4299 11.92 7.85Z" fill="#000000" fill-rule="nonzero" opacity="1" stroke="none"/>
<path d="M11.05 12.07C11.05 11.4901 11.5201 11.02 12.1 11.02C12.6799 11.02 13.15 11.4901 13.15 12.07C13.15 12.6499 12.6799 13.12 12.1 13.12C11.5201 13.12 11.05 12.6499 11.05 12.07Z" fill="#000000" fill-rule="nonzero" opacity="1" stroke="none"/>
<path d="M8.93 9.96C8.93 9.3801 9.4001 8.91 9.98 8.91C10.5599 8.91 11.03 9.3801 11.03 9.96C11.03 10.5399 10.5599 11.01 9.98 11.01C9.4001 11.01 8.93 10.5399 8.93 9.96Z" fill="#000000" fill-rule="nonzero" opacity="1" stroke="none"/>
<g opacity="1">
<path d="M1.07 1.43L2.36 1.43L2.36 1.43L2.36 5C2.36 5.16016 2.23016 5.29 2.07 5.29L0.79 5.29C0.629837 5.29 0.5 5.16016 0.5 5L0.5 2C0.5 1.6852 0.755198 1.43 1.07 1.43Z" fill="#000000" fill-rule="nonzero" opacity="1" stroke="none"/>
<path d="M1.07 1.43L2.36 1.43L2.36 1.43L2.36 5C2.36 5.16016 2.23016 5.29 2.07 5.29L0.79 5.29C0.629837 5.29 0.5 5.16016 0.5 5L0.5 2C0.5 1.6852 0.755198 1.43 1.07 1.43Z" fill="#000000" fill-rule="nonzero" opacity="0.5" stroke="none"/>
</g>
<g opacity="1">
<path d="M15.64 1.43L16.93 1.43C17.2448 1.43 17.5 1.6852 17.5 2L17.5 5C17.5 5.16016 17.3702 5.29 17.21 5.29L15.92 5.29C15.7638 5.28461 15.6399 5.15634 15.64 5L15.64 1.43L15.64 1.43Z" fill="#000000" fill-rule="nonzero" opacity="1" stroke="none"/>
<path d="M15.64 1.43L16.93 1.43C17.2448 1.43 17.5 1.6852 17.5 2L17.5 5C17.5 5.16016 17.3702 5.29 17.21 5.29L15.92 5.29C15.7638 5.28461 15.6399 5.15634 15.64 5L15.64 1.43L15.64 1.43Z" fill="#000000" fill-rule="nonzero" opacity="0.5" stroke="none"/>
</g>
<path d="M17.5 2L17.5 3.25L17.5 3.25L0.5 3.25L0.5 3.25L0.5 2C0.5 1.6852 0.755197 1.43 1.07 1.43L16.94 1.43C17.2509 1.43546 17.5 1.68906 17.5 2Z" fill="#000000" fill-rule="nonzero" opacity="1" stroke="none"/>
<g opacity="1">
<path d="M0.79 12.68L2.08 12.68C2.24016 12.68 2.37 12.8098 2.37 12.97L2.37 16.57L2.37 16.57L1.07 16.57C0.755198 16.57 0.5 16.3148 0.5 16L0.5 13C0.491474 12.918 0.518221 12.8363 0.573557 12.7753C0.628894 12.7142 0.707596 12.6796 0.79 12.68Z" fill="#000000" fill-rule="nonzero" opacity="1" stroke="none"/>
<path d="M0.79 12.68L2.08 12.68C2.24016 12.68 2.37 12.8098 2.37 12.97L2.37 16.57L2.37 16.57L1.07 16.57C0.755198 16.57 0.5 16.3148 0.5 16L0.5 13C0.491474 12.918 0.518221 12.8363 0.573557 12.7753C0.628894 12.7142 0.707596 12.6796 0.79 12.68Z" fill="#000000" fill-rule="nonzero" opacity="0.5" stroke="none"/>
</g>
<g opacity="1">
<path d="M15.92 12.68L17.21 12.68C17.3702 12.68 17.5 12.8098 17.5 12.97L17.5 15.97C17.5 16.2848 17.2448 16.54 16.93 16.54L15.64 16.54L15.64 16.54L15.64 13C15.6316 12.9197 15.6571 12.8396 15.7102 12.7789C15.7633 12.7182 15.8393 12.6823 15.92 12.68Z" fill="#000000" fill-rule="nonzero" opacity="1" stroke="none"/>
<path d="M15.92 12.68L17.21 12.68C17.3702 12.68 17.5 12.8098 17.5 12.97L17.5 15.97C17.5 16.2848 17.2448 16.54 16.93 16.54L15.64 16.54L15.64 16.54L15.64 13C15.6316 12.9197 15.6571 12.8396 15.7102 12.7789C15.7633 12.7182 15.8393 12.6823 15.92 12.68Z" fill="#000000" fill-rule="nonzero" opacity="0.5" stroke="none"/>
</g>
<path d="M0.5 16L0.5 14.75L0.5 14.75L17.5 14.75L17.5 14.75L17.5 16C17.5 16.3148 17.2448 16.57 16.93 16.57L1.07 16.57C0.755197 16.57 0.5 16.3148 0.5 16Z" fill="#000000" fill-rule="nonzero" opacity="1" stroke="none"/>
</g>
</g>
</svg>
