<?xml version="1.0" encoding="UTF-8" standalone="no"?>
<svg
   xmlns:dc="http://purl.org/dc/elements/1.1/"
   xmlns:cc="http://creativecommons.org/ns#"
   xmlns:rdf="http://www.w3.org/1999/02/22-rdf-syntax-ns#"
   xmlns:svg="http://www.w3.org/2000/svg"
   xmlns="http://www.w3.org/2000/svg"
   id="svg9287"
   version="1.1"
   viewBox="0 0 338.79898 173.18575"
   height="173.18575mm"
   width="338.79898mm">
  <defs
     id="defs9281" />
  <metadata
     id="metadata9284">
    <rdf:RDF>
      <cc:Work
         rdf:about="">
        <dc:format>image/svg+xml</dc:format>
        <dc:type
           rdf:resource="http://purl.org/dc/dcmitype/StillImage" />
        <dc:title></dc:title>
      </cc:Work>
    </rdf:RDF>
  </metadata>
  <g
     transform="translate(225.76524,21.967865)"
     id="layer1">
    <g
       transform="translate(307.67262,-182.18452)"
       id="g9843">
      <path
         id="path9847"
         d="m -279.05035,333.12443 c -2.41414,-0.50299 -3.59489,-1.20885 -4.30829,-2.57548 -0.48247,-0.92424 -0.5838,-1.44576 -0.4744,-2.44142 0.28681,-2.60954 2.22925,-3.89344 5.2587,-3.47586 4.5696,0.62989 6.38398,0.10111 7.85472,-2.28914 0.77067,-1.25251 2.92346,-6.02171 2.92346,-6.47654 0,-0.11781 -3.2833,-8.47194 -7.29618,-18.56473 -5.08169,-12.78087 -7.33983,-18.77354 -7.44003,-19.74426 -0.33216,-3.21827 2.60231,-5.99739 5.98903,-5.67197 1.67486,0.16094 2.83189,1.02407 3.82929,2.85664 0.4164,0.76507 2.92404,7.70831 5.57255,15.42944 2.6485,7.72113 4.93529,14.07836 5.08174,14.12718 0.14647,0.0488 2.26722,-5.65972 4.71276,-12.68565 5.11318,-14.68987 5.93728,-16.85226 6.90716,-18.12383 2.39998,-3.14654 7.97483,-1.51239 8.48172,2.48623 0.0817,0.64453 -0.1175,1.84888 -0.54941,3.32187 -1.07325,3.66032 -15.90481,42.35373 -17.47559,45.59137 -2.15808,4.44816 -4.46204,6.66871 -8.14428,7.84936 -2.08864,0.66969 -8.47915,0.89599 -10.92295,0.38679 z m -251.21248,-16.46119 c -0.50932,-0.22861 -1.25626,-0.7317 -1.65987,-1.11798 -1.54297,-1.47674 -1.51513,-0.94084 -1.51513,-29.1664 0,-27.84142 -0.0172,-27.47261 1.36771,-29.23331 1.81224,-2.30389 6.16734,-2.21285 7.96359,0.16649 1.14884,1.52178 1.24899,2.46701 1.25056,11.80275 10e-4,6.05581 0.0894,8.7974 0.28378,8.7974 0.15527,0 0.99008,-0.62508 1.85515,-1.38906 3.52983,-3.11739 6.58895,-4.391 11.10384,-4.62287 12.51746,-0.64287 20.15969,8.7079 19.48944,23.84664 -0.32016,7.23159 -2.91576,13.49852 -7.12891,17.21245 -1.77604,1.56559 -5.10087,3.21713 -7.47787,3.71447 -3.61614,0.75661 -7.97267,0.34293 -11.1125,-1.05521 -1.68557,-0.75057 -4.41735,-2.81216 -5.48227,-4.13731 -0.4532,-0.56395 -0.96601,-1.02536 -1.13958,-1.02536 -0.18701,0 -0.37534,0.57908 -0.46228,1.42145 -0.31638,3.06538 -2.13298,4.95737 -4.91219,5.11602 -0.95988,0.0548 -1.82986,-0.0637 -2.42347,-0.33017 z m 22.62331,-8.97454 c 1.65131,-0.80791 3.79246,-2.99423 4.71469,-4.81415 2.26312,-4.46606 2.29401,-12.21152 0.0675,-16.92668 -1.17438,-2.48703 -2.47085,-3.87219 -4.60896,-4.92426 -1.57107,-0.77306 -1.98636,-0.86142 -4.00642,-0.85244 -2.91131,0.0129 -4.93859,0.86828 -6.85125,2.89064 -2.74797,2.90557 -3.83221,6.18875 -3.84778,11.65142 -0.009,3.15692 0.0807,3.99734 0.60695,5.68854 0.82343,2.64613 1.1805,3.28557 2.7777,4.97438 1.44618,1.52912 3.24,2.58961 5.02236,2.96917 1.84217,0.39229 4.58151,0.0986 6.1252,-0.65662 z m 29.76608,8.96035 c -1.2083,-0.52399 -2.03834,-1.31816 -2.73962,-2.62123 -0.56743,-1.05437 -0.56956,-1.12729 -0.56956,-19.46566 v -18.40732 l 0.79375,-1.54835 c 0.97953,-1.91076 2.3811,-2.77972 4.48347,-2.77972 2.76727,0 4.45839,1.49823 5.05314,4.47677 0.15859,0.79423 0.40287,1.48223 0.54285,1.52889 0.13997,0.0466 0.46695,-0.27484 0.72663,-0.71443 0.98125,-1.66113 3.32772,-3.89387 4.73541,-4.50589 2.91482,-1.26727 6.937,-0.93434 10.49656,0.86885 2.38658,1.20898 3.28048,2.39424 3.39929,4.50722 0.10708,1.90458 -0.33448,2.83313 -1.9237,4.04529 -1.21795,0.92897 -2.66087,0.968 -5.28448,0.14294 -7.07913,-2.22621 -10.19292,0.20517 -11.54239,9.01279 -0.16319,1.0651 -0.37438,6.40138 -0.4693,11.85841 -0.16434,9.4472 -0.19963,9.9725 -0.73752,10.98021 -0.31071,0.58208 -0.84603,1.32054 -1.18959,1.64101 -1.44249,1.34553 -3.95077,1.77128 -5.77494,0.98022 z m 44.808,0.0309 c -2.58986,-0.47004 -3.56571,-0.81043 -6.22617,-2.17174 -5.10458,-2.61192 -8.66022,-7.21106 -10.31101,-13.33706 -0.51049,-1.89436 -0.60035,-2.89216 -0.60544,-6.72246 -0.007,-5.28158 0.43939,-7.43648 2.35689,-11.37708 2.56132,-5.26368 7.00222,-8.84951 13.00287,-10.49925 1.75617,-0.48281 2.79277,-0.57345 6.58234,-0.57555 4.15251,-0.002 4.67978,0.0531 6.86612,0.72173 7.65232,2.34019 12.55943,7.48231 14.49813,15.19249 0.83341,3.31441 0.83341,9.7609 0,13.07532 -2.12949,8.46897 -8.21226,14.21694 -16.59132,15.67812 -2.773,0.48357 -6.95604,0.49034 -9.57241,0.0155 z m 8.72263,-8.60856 c 1.9239,-0.72272 4.25785,-2.95559 5.25117,-5.02374 1.27976,-2.66454 1.64173,-4.56044 1.64173,-8.59896 0,-5.61836 -1.06559,-8.83114 -3.83042,-11.54883 -3.99421,-3.9261 -10.69754,-3.75138 -14.408,0.37554 -2.42726,2.69969 -3.39367,5.88151 -3.39367,11.17329 0,3.99209 0.35804,5.90819 1.5916,8.51752 1.3055,2.76152 4.0736,5.06682 6.76978,5.63795 1.71225,0.36271 4.64653,0.1176 6.37781,-0.53277 z m 41.5482,8.60856 c -2.58985,-0.47004 -3.56571,-0.81043 -6.22616,-2.17174 -5.10459,-2.61192 -8.66023,-7.21106 -10.31102,-13.33706 -0.51048,-1.89436 -0.60035,-2.89216 -0.60544,-6.72246 -0.007,-5.28158 0.43939,-7.43648 2.3569,-11.37708 2.56131,-5.26368 7.00222,-8.84951 13.00286,-10.49925 1.75617,-0.48281 2.79278,-0.57345 6.58235,-0.57555 4.15251,-0.002 4.67978,0.0531 6.86611,0.72173 7.65232,2.34019 12.55944,7.48231 14.49814,15.19249 0.8334,3.31441 0.8334,9.7609 0,13.07532 -2.1295,8.46897 -8.21227,14.21694 -16.59132,15.67812 -2.77301,0.48357 -6.95604,0.49034 -9.57242,0.0155 z m 8.72263,-8.60856 c 1.9239,-0.72272 4.25786,-2.95559 5.25118,-5.02374 1.27976,-2.66454 1.64173,-4.56044 1.64173,-8.59896 0,-5.61836 -1.06559,-8.83114 -3.83042,-11.54883 -3.99422,-3.9261 -10.69755,-3.75138 -14.408,0.37554 -2.42726,2.69969 -3.39368,5.88151 -3.39368,11.17329 0,3.99209 0.35805,5.90819 1.5916,8.51752 1.3055,2.76152 4.0736,5.06682 6.76978,5.63795 1.71225,0.36271 4.64653,0.1176 6.37781,-0.53277 z m 30.66855,8.4556 c -0.61988,-0.31494 -1.37827,-0.92541 -1.68531,-1.3566 -1.30379,-1.83101 -1.28867,-1.49592 -1.28867,-28.55594 0,-17.03266 0.093,-25.77867 0.28363,-26.66747 0.57135,-2.66411 2.69668,-4.50561 5.21497,-4.51852 2.11601,-0.0108 3.84817,1.06006 4.91204,3.0369 0.56019,1.04092 0.57083,1.29552 0.64658,15.47576 0.0423,7.92958 0.17212,14.51254 0.28837,14.62879 0.11626,0.11625 2.89949,-2.62112 6.18495,-6.08305 7.80465,-8.22383 9.38986,-9.76089 10.57294,-10.25184 4.20204,-1.74374 8.29015,2.29037 6.29138,6.20827 -0.68274,1.33828 -2.89707,3.69105 -6.59714,7.00957 -2.2049,1.97752 -2.9258,2.77949 -2.85406,3.175 0.0528,0.29104 2.80076,4.78316 6.1066,9.98249 6.11167,9.61224 7.30828,11.72449 7.31026,12.90396 0.005,3.04874 -2.32638,5.53534 -5.20424,5.55044 -3.00704,0.0158 -3.48773,-0.54153 -10.77493,-12.49253 -2.72744,-4.473 -5.06986,-8.20125 -5.20537,-8.28501 -0.13551,-0.0838 -1.28735,0.82821 -2.55962,2.02658 -1.27228,1.19837 -2.55136,2.39948 -2.84241,2.66912 -0.48831,0.45242 -0.53937,0.92449 -0.66145,6.11488 -0.12583,5.34988 -0.1646,5.68698 -0.79375,6.90134 -0.97607,1.88397 -2.50815,2.89155 -4.57363,3.00788 -1.29056,0.0727 -1.88643,-0.0305 -2.77114,-0.48002 z m 45.44666,0.1221 c -1.20831,-0.52399 -2.03835,-1.31816 -2.73962,-2.62123 l -0.56957,-1.05834 -0.0712,-26.17481 c -0.0794,-29.20525 -0.14651,-28.02346 1.69478,-29.86474 2.80302,-2.80303 7.83431,-1.51039 8.967,2.3038 0.3314,1.11594 0.38962,5.1423 0.38962,26.94369 0,17.59769 -0.0902,25.99013 -0.28795,26.77526 -0.794,3.15327 -4.43358,4.97543 -7.38307,3.69637 z m 67.20415,0 c -1.2083,-0.52399 -2.03832,-1.31816 -2.7396,-2.62123 -0.56444,-1.04882 -0.57031,-1.21891 -0.65275,-18.91771 -0.0594,-12.75554 0.004,-18.2611 0.22114,-19.26509 0.69498,-3.21023 3.81291,-4.86194 6.81225,-3.60874 1.88545,0.78779 3.21389,2.68429 3.2345,4.61758 0.0201,1.88513 0.33214,1.84762 2.5921,-0.31154 3.39429,-3.24287 7.07276,-4.70636 11.82944,-4.70636 6.07875,0 11.0327,2.76318 13.29516,7.41567 1.50452,3.09391 1.52151,3.30778 1.52151,19.16577 0,14.39198 -0.006,14.56373 -0.56957,15.61042 -1.05161,1.95408 -2.78844,3.0427 -4.85439,3.0427 -2.06595,0 -3.80278,-1.08862 -4.85439,-3.0427 -0.55398,-1.0294 -0.57375,-1.40921 -0.72276,-13.89063 -0.13108,-10.98107 -0.21818,-13.05826 -0.60368,-14.39864 -0.97432,-3.38786 -2.34756,-4.74738 -5.30738,-5.25438 -4.9448,-0.847 -9.43819,2.1853 -10.89136,7.3499 -0.3755,1.33445 -0.4726,3.46429 -0.60923,13.36145 -0.15716,11.3862 -0.18127,11.80882 -0.73194,12.8323 -0.31319,0.58208 -0.85053,1.32054 -1.19409,1.64101 -1.44251,1.34553 -3.95079,1.77128 -5.77496,0.98022 z m -228.53026,-78.92716 c -0.61928,-0.29041 -1.35049,-0.9054 -1.63734,-1.37707 -1.0691,-1.758 -1.11904,-3.21713 -1.03161,-30.14194 l 0.0838,-25.80409 0.66795,-1.2978 c 0.86939,-1.68918 2.35294,-2.52608 4.46689,-2.51986 3.12434,0.009 5.30959,2.42793 5.31473,5.88262 7.9e-4,0.54571 0.0948,0.99219 0.20895,0.99219 0.11411,0 0.85825,-0.66315 1.65364,-1.47366 2.00797,-2.04614 4.81583,-3.86399 7.14802,-4.62773 2.53857,-0.83133 7.39488,-0.90476 9.89474,-0.14961 8.26489,2.49662 13.29903,9.83548 13.81627,20.14163 0.27377,5.45515 -0.60302,10.04415 -2.75511,14.41979 -1.02189,2.07772 -1.62805,2.9062 -3.49595,4.77819 -2.41335,2.41861 -4.571,3.74773 -7.55138,4.65165 -2.4274,0.73621 -7.87334,0.66077 -10.18646,-0.14111 -2.28566,-0.79236 -4.51964,-2.27462 -6.60694,-4.3837 -0.94168,-0.95152 -1.79801,-1.73003 -1.90296,-1.73003 -0.10495,0 -0.22745,4.25648 -0.27223,9.45885 l -0.0814,9.45886 -0.69341,1.47864 c -0.89146,1.90096 -2.02923,2.64392 -4.28405,2.79747 -1.25258,0.0853 -1.89996,-0.0118 -2.75613,-0.41329 z m 23.02181,-25.2543 c 1.60135,-0.78346 3.8189,-2.96676 4.63187,-4.56031 1.34525,-2.63691 1.77577,-4.79391 1.76458,-8.84092 -0.008,-2.84633 -0.13305,-4.28031 -0.48502,-5.55625 -1.02235,-3.70615 -3.10734,-6.47074 -5.92276,-7.85326 -1.32858,-0.65241 -1.81646,-0.74493 -3.89981,-0.73954 -2.97987,0.008 -4.75385,0.74444 -6.85723,2.84781 -2.73379,2.73379 -3.69263,5.61827 -3.7127,11.16895 -0.0147,4.07033 0.27079,5.679 1.45573,8.20208 1.35184,2.87846 3.83459,5.09642 6.56887,5.86828 1.90117,0.53668 4.74569,0.30017 6.45647,-0.53684 z m -65.87843,8.95396 c -6.48389,-1.4091 -10.78706,-6.87866 -10.30981,-13.10433 0.37411,-4.88015 3.36717,-8.69834 8.19123,-10.44938 0.95232,-0.34567 4.39076,-1.1808 7.64097,-1.85585 7.42704,-1.54255 12.94158,-2.95138 13.42817,-3.43057 0.32345,-0.31855 0.31581,-0.66927 -0.0557,-2.55479 -0.80009,-4.06112 -2.45842,-5.43772 -6.86751,-5.70077 -1.44798,-0.0864 -3.23234,-0.0169 -4.28864,0.16708 -3.27868,0.57095 -4.89661,1.75785 -7.33051,5.37757 -1.71433,2.54959 -2.15544,2.84585 -4.23726,2.84585 -1.63772,0 -3.1927,-0.80531 -3.96364,-2.05272 -0.79508,-1.28646 -0.61011,-3.89422 0.42714,-6.0221 2.65577,-5.44822 10.35368,-8.44023 20.51718,-7.97457 8.54424,0.39147 13.14312,2.57317 15.29763,7.25719 1.38498,3.01104 1.63514,5.35611 1.64015,15.37529 0.005,9.51316 0.0391,9.8534 1.58835,15.71735 l 0.61409,2.3244 -0.51294,1.23769 c -1.03408,2.49511 -3.89323,3.7872 -6.32519,2.85842 -1.26329,-0.48245 -3.22121,-2.42571 -4.52792,-4.49401 -0.41949,-0.66399 -0.85859,-1.20746 -0.97579,-1.20772 -0.11719,-2.6e-4 -1.46927,0.82918 -3.00463,1.8432 -4.43426,2.9286 -8.53232,4.23743 -13.18646,4.21148 -1.16417,-0.006 -2.8557,-0.17241 -3.75896,-0.36871 z m 10.75965,-7.42183 c 1.83865,-0.41819 4.33341,-1.72393 5.6016,-2.93184 1.77634,-1.69191 2.84766,-5.21308 2.86661,-9.42184 0.0102,-2.26074 -0.12401,-2.39514 -1.75949,-1.76232 -0.40965,0.15851 -3.25216,0.86179 -6.31669,1.56284 -3.06452,0.70104 -6.01127,1.45823 -6.54833,1.68263 -3.48504,1.45614 -4.78036,4.62405 -3.19312,7.80923 1.48211,2.97421 4.8639,4.08151 9.34942,3.0613 z m 89.78202,7.42183 c -6.4839,-1.4091 -10.78706,-6.87866 -10.30981,-13.10433 0.3741,-4.88015 3.36717,-8.69834 8.19123,-10.44938 0.95231,-0.34567 4.39075,-1.1808 7.64097,-1.85585 7.42704,-1.54255 12.94158,-2.95138 13.42816,-3.43057 0.32346,-0.31855 0.31582,-0.66927 -0.0556,-2.55479 -0.80008,-4.06112 -2.45842,-5.43772 -6.8675,-5.70077 -1.44798,-0.0864 -3.23235,-0.0169 -4.28865,0.16708 -3.27867,0.57095 -4.89661,1.75785 -7.3305,5.37757 -1.71434,2.54959 -2.15545,2.84585 -4.23726,2.84585 -1.63772,0 -3.1927,-0.80531 -3.96364,-2.05272 -0.79508,-1.28646 -0.61012,-3.89422 0.42714,-6.0221 2.65577,-5.44822 10.35368,-8.44023 20.51718,-7.97457 8.54424,0.39147 13.14312,2.57317 15.29762,7.25719 1.38499,3.01104 1.63515,5.35611 1.64015,15.37529 0.005,9.51316 0.0391,9.8534 1.58836,15.71735 l 0.61409,2.3244 -0.51294,1.23769 c -1.03408,2.49511 -3.89324,3.7872 -6.3252,2.85842 -1.26328,-0.48245 -3.2212,-2.42571 -4.52791,-4.49401 -0.41949,-0.66399 -0.8586,-1.20746 -0.97579,-1.20772 -0.11719,-2.6e-4 -1.46927,0.82918 -3.00463,1.8432 -4.43426,2.9286 -8.53232,4.23743 -13.18646,4.21148 -1.16417,-0.006 -2.8557,-0.17241 -3.75896,-0.36871 z m 10.75965,-7.42183 c 1.83864,-0.41819 4.33341,-1.72393 5.60159,-2.93184 1.77635,-1.69191 2.84767,-5.21308 2.86661,-9.42184 0.0102,-2.26074 -0.124,-2.39514 -1.75948,-1.76232 -0.40966,0.15851 -3.25217,0.86179 -6.31669,1.56284 -3.06452,0.70104 -6.01127,1.45823 -6.54833,1.68263 -3.48504,1.45614 -4.78037,4.62405 -3.19312,7.80923 1.48211,2.97421 4.86389,4.08151 9.34942,3.0613 z m 46.26363,7.53559 c -8.83548,-1.29611 -14.79254,-6.64197 -16.92996,-15.19291 -0.85171,-3.40733 -0.85011,-10.02684 0.003,-13.49375 1.68742,-6.85542 6.10449,-12.20736 12.00211,-14.54235 5.57602,-2.20767 12.68978,-2.25221 18.23391,-0.11417 5.57825,2.1512 9.89974,6.67282 10.23439,10.70835 0.14884,1.79482 -0.0371,2.51013 -0.92772,3.56855 -1.35103,1.60561 -3.9884,2.29551 -5.58041,1.45976 -0.85807,-0.45045 -2.26445,-1.92241 -3.55999,-3.72597 -2.74983,-3.82814 -5.80052,-5.39084 -9.91799,-5.08042 -6.48927,0.48923 -10.49743,6.68876 -10.04148,15.53146 0.31593,6.12709 2.87555,10.57804 7.02337,12.21295 1.17927,0.46482 2.05169,0.59183 4.13996,0.60271 2.32685,0.0121 2.82686,-0.0709 4.14738,-0.68869 2.09009,-0.97782 3.7199,-2.56962 5.70154,-5.56857 1.81433,-2.74573 2.83569,-3.60756 4.54746,-3.83715 1.47427,-0.19774 2.79425,0.33885 3.8406,1.56128 3.88781,4.54204 -1.32217,12.54142 -10.16719,15.61068 -3.15439,1.09458 -8.95774,1.54442 -12.74922,0.98824 z m 34.88299,-0.10072 c -1.37241,-0.48933 -2.18405,-1.30581 -2.74638,-2.76279 -0.43866,-1.13654 -0.46968,-2.97292 -0.46968,-27.80753 v -26.59062 l 0.62737,-1.27423 c 0.80545,-1.63594 2.15533,-2.54632 4.06833,-2.74376 2.4844,-0.25641 4.40599,0.75357 5.5685,2.92679 0.56464,1.05555 0.58639,1.39161 0.66548,10.28547 0.045,5.05685 0.14478,9.19427 0.22178,9.19427 0.077,0 0.93158,-0.71443 1.89907,-1.58763 3.11609,-2.81239 6.34371,-4.14925 10.62968,-4.40274 6.26824,-0.37074 11.3888,2.35486 13.82522,7.35896 1.58517,3.25577 1.59147,3.32362 1.71029,18.41514 0.11949,15.17681 0.0727,15.74744 -1.43777,17.54258 -1.39385,1.65649 -3.97928,2.25635 -6.2439,1.44869 -1.34644,-0.4802 -1.99822,-1.09784 -2.66674,-2.52708 -0.53536,-1.14456 -0.56258,-1.69224 -0.70377,-14.15521 -0.14028,-12.38377 -0.17256,-13.04163 -0.72061,-14.68438 -1.25188,-3.75234 -2.8575,-4.90391 -6.80543,-4.88092 -1.91236,0.0111 -2.62279,0.13131 -3.60789,0.61029 -2.64694,1.28699 -4.59288,3.63055 -5.41564,6.52221 -0.38146,1.34066 -0.47564,3.39916 -0.61119,13.35884 -0.17326,12.73145 -0.19153,12.88849 -1.68885,14.51723 -1.35275,1.47148 -3.95739,1.99961 -6.09787,1.23642 z m 63.27743,0.11901 c -7.01188,-1.11388 -12.15604,-4.43038 -15.24436,-9.8282 -2.04677,-3.57738 -3.17357,-9.15818 -2.87166,-14.22276 0.64911,-10.88848 6.27237,-18.03427 15.98507,-20.3131 2.8239,-0.66255 8.96025,-0.64559 11.57287,0.032 7.95023,2.06185 13.33913,8.00158 14.4399,15.91586 0.46374,3.33421 -0.04,5.69156 -1.48775,6.96273 -1.87954,1.65027 -2.37844,1.70704 -16.39173,1.86542 l -12.7,0.14354 -0.0802,0.69168 c -0.12081,1.04119 0.64948,4.04807 1.46222,5.7079 1.05553,2.15567 2.79149,3.86596 4.96803,4.89461 1.71098,0.80863 2.05364,0.87536 4.49792,0.87597 4.18891,0.001 6.20524,-0.95051 11.08011,-5.229 2.65891,-2.33363 3.59868,-2.77782 5.10977,-2.41513 2.9959,0.71906 3.82058,3.12481 2.1899,6.38814 -1.71032,3.42263 -6.43739,6.72096 -11.50062,8.02458 -2.41628,0.62212 -8.53175,0.90256 -11.02942,0.50578 z m 13.1526,-26.20195 c 0.32732,-0.52958 -0.4544,-3.94729 -1.31223,-5.73731 -1.77398,-3.70166 -5.1341,-5.60432 -9.33608,-5.28653 -4.62127,0.34951 -7.83567,3.54874 -8.95385,8.91163 -0.21645,1.03808 -0.32403,1.99989 -0.23905,2.13737 0.22117,0.3579 19.61967,0.3333 19.84121,-0.0252 z"
         style="fill:#7e8083;stroke-width:0.26458332" />
      <path
         id="path9845"
         d="m -279.10189,332.93121 c -1.73191,-0.34182 -3.41905,-1.187 -3.93189,-1.96969 -0.68128,-1.03973 -0.776,-3.22803 -0.18902,-4.366 0.78613,-1.52403 1.89706,-1.9246 4.71101,-1.69867 3.45893,0.27771 4.85614,0.16675 6.00073,-0.47654 1.30709,-0.73462 2.07983,-1.88622 3.69588,-5.50784 l 1.32662,-2.97303 -7.33557,-18.41831 c -8.04447,-20.19817 -8.09845,-20.37211 -7.01638,-22.60738 0.8518,-1.7596 2.30616,-2.65534 4.48699,-2.76359 1.4015,-0.0696 1.92212,0.0197 2.60146,0.44595 1.78845,1.12222 1.95273,1.52692 8.95472,22.05919 2.51603,7.37788 3.5088,9.97677 3.79007,9.92188 0.21376,-0.0417 0.69917,-1.00374 1.10549,-2.19103 3.84884,-11.24651 8.93207,-25.49469 9.62816,-26.9875 1.22661,-2.63059 1.86306,-3.13887 4.0617,-3.24368 2.17035,-0.10346 3.56166,0.5776 4.47529,2.19074 0.74073,1.30786 0.75496,2.37467 0.0649,4.86476 -0.79637,2.87376 -16.20097,43.08439 -17.46874,45.59863 -2.50513,4.9682 -4.80441,7.00356 -9.03971,8.00212 -1.81345,0.42754 -7.98525,0.50221 -9.92174,0.11999 z m -251.29323,-16.49877 c -1.02244,-0.45442 -1.85405,-1.36663 -2.36862,-2.59818 -0.36034,-0.86241 -0.40951,-4.15279 -0.40951,-27.40742 0,-19.0529 0.084,-26.67832 0.30113,-27.32673 0.7604,-2.27114 2.33285,-3.41292 4.70023,-3.41292 2.28954,0 3.65514,0.83331 4.55274,2.77813 0.44384,0.96168 0.48898,1.87185 0.49426,9.96638 0.003,4.89942 0.0781,9.09638 0.16641,9.32656 0.24143,0.62916 0.71329,0.50874 1.57584,-0.40217 1.02453,-1.08199 3.60838,-2.91224 5.33609,-3.7798 2.03165,-1.02017 4.34413,-1.47661 7.50338,-1.48102 9.52252,-0.0133 16.06083,5.86883 17.8355,16.04552 0.5148,2.95209 0.50924,8.63488 -0.0114,11.63101 -1.41319,8.13279 -5.72626,13.9246 -12.03308,16.15861 -2.86872,1.01616 -7.48282,1.1759 -10.45027,0.3618 -2.97868,-0.81719 -4.97989,-1.97941 -7.22892,-4.19824 -1.07809,-1.06361 -2.10639,-1.87773 -2.28511,-1.80915 -0.18348,0.0704 -0.38923,0.8336 -0.4726,1.75304 -0.27142,2.99331 -2.15271,4.77889 -5.01274,4.75772 -0.76978,-0.006 -1.75679,-0.16911 -2.19335,-0.36314 z m 22.79959,-8.65058 c 2.94846,-1.40525 5.14061,-4.42375 6.06839,-8.35592 0.63373,-2.68593 0.56651,-8.08936 -0.13376,-10.7517 -1.31193,-4.98777 -4.13711,-7.96592 -8.17341,-8.61595 -3.29782,-0.5311 -6.41532,0.53047 -8.72278,2.97027 -2.65237,2.80449 -3.8094,6.29591 -3.82839,11.55238 -0.019,5.26912 0.9466,8.25591 3.5638,11.02321 2.96258,3.13248 7.41191,3.99559 11.22615,2.17771 z m 29.58299,8.66945 c -1.11917,-0.50739 -2.43433,-2.09104 -2.76916,-3.33449 -0.19117,-0.70998 -0.25907,-6.90442 -0.20957,-19.11962 l 0.0732,-18.06938 0.61802,-1.25493 c 0.8792,-1.78525 1.88356,-2.41632 4.03957,-2.53814 3.10524,-0.17547 4.43039,0.89108 5.20429,4.18866 0.23923,1.01935 0.55895,1.85029 0.7105,1.84654 0.15155,-0.004 0.6802,-0.6033 1.17479,-1.33234 1.28679,-1.89676 3.49779,-3.82331 4.95932,-4.32131 1.61628,-0.55072 5.12171,-0.55214 6.99184,-0.003 1.96961,0.57853 4.37588,1.89155 5.14789,2.80903 1.54959,1.84158 1.44834,4.22935 -0.25187,5.94034 -1.53066,1.54035 -2.43491,1.66206 -5.62415,0.757 -7.6879,-2.18172 -10.82118,0.37324 -11.99735,9.78298 -0.16371,1.30969 -0.37785,6.6675 -0.47587,11.90625 -0.19975,10.6751 -0.15798,10.44921 -2.24366,12.13497 -0.86465,0.69886 -1.25762,0.82499 -2.77813,0.89168 -1.09364,0.048 -2.0765,-0.0608 -2.56969,-0.28441 z m 44.45492,-0.0384 c -6.57135,-1.4527 -11.4254,-5.17275 -14.1598,-10.85178 -1.94918,-4.04824 -2.2422,-5.49971 -2.24337,-11.1125 -8e-4,-4.14898 0.0774,-5.04921 0.60722,-6.9881 2.67961,-9.80523 10.26183,-15.35362 20.99819,-15.36572 3.60644,-0.004 6.22999,0.44193 9.05691,1.53963 6.71902,2.609 11.37104,8.61662 12.60749,16.28133 0.52514,3.25533 0.20734,9.04362 -0.6549,11.92814 -1.14086,3.8166 -2.57396,6.2844 -5.17028,8.90325 -3.16456,3.19202 -6.1727,4.77207 -10.81213,5.67916 -2.4051,0.47024 -8.07514,0.46281 -10.22933,-0.0134 z m 6.84991,-7.55388 c 4.46687,-0.64569 7.55115,-3.72187 8.92401,-8.90058 0.76148,-2.87247 0.76505,-8.09763 0.008,-10.97455 -1.37565,-5.22431 -4.43781,-8.30394 -8.88272,-8.93342 -5.94341,-0.84169 -10.38691,2.43982 -12.0968,8.93342 -0.75173,2.85483 -0.75366,8.10387 -0.004,10.92946 1.3119,4.94489 4.04776,7.95084 8.02134,8.81324 2.09177,0.45399 1.85905,0.44634 4.03069,0.13243 z m 43.42092,7.55388 c -6.57135,-1.4527 -11.4254,-5.17275 -14.15979,-10.85178 -1.94918,-4.04824 -2.24221,-5.49971 -2.24338,-11.1125 -7.9e-4,-4.14898 0.0774,-5.04921 0.60723,-6.9881 2.67961,-9.80523 10.26182,-15.35362 20.99819,-15.36572 3.60643,-0.004 6.22998,0.44193 9.0569,1.53963 6.71903,2.609 11.37104,8.61662 12.60749,16.28133 0.52514,3.25533 0.20735,9.04362 -0.6549,11.92814 -1.14086,3.8166 -2.57395,6.2844 -5.17028,8.90325 -3.16455,3.19202 -6.1727,4.77207 -10.81213,5.67916 -2.4051,0.47024 -8.07514,0.46281 -10.22933,-0.0134 z m 6.84992,-7.55388 c 4.46686,-0.64569 7.55114,-3.72187 8.924,-8.90058 0.76148,-2.87247 0.76506,-8.09763 0.008,-10.97455 -1.37565,-5.22431 -4.43781,-8.30394 -8.88272,-8.93342 -5.9434,-0.84169 -10.38691,2.43982 -12.0968,8.93342 -0.75173,2.85483 -0.75366,8.10387 -0.004,10.92946 1.3119,4.94489 4.04776,7.95084 8.02134,8.81324 2.09178,0.45399 1.85905,0.44634 4.03069,0.13243 z m 32.91438,7.40517 c -0.59709,-0.31531 -1.2707,-1.01024 -1.71979,-1.77424 l -0.73826,-1.25591 -0.0712,-26.30878 c -0.0638,-23.59785 -0.0273,-26.4409 0.35472,-27.59102 0.82587,-2.48647 2.37751,-3.64708 4.87583,-3.64708 1.61741,0 2.79898,0.46902 3.76003,1.49252 1.5157,1.61419 1.53163,1.79146 1.53163,17.03994 0,7.68241 0.0723,14.15634 0.1606,14.38653 0.0883,0.23018 0.24686,0.41851 0.35229,0.41851 0.10543,0 2.13365,-2.05383 4.50714,-4.56406 7.13883,-7.55012 11.1522,-11.53072 12.05988,-11.96144 1.07457,-0.50992 3.35338,-0.52825 4.29834,-0.0346 1.47088,0.76843 2.24878,1.89165 2.37647,3.43144 0.18343,2.2119 -0.69055,3.54794 -4.9666,7.59244 -1.96602,1.85955 -3.902,3.63643 -4.30218,3.94863 -0.40018,0.31221 -0.7276,0.75103 -0.7276,0.97517 0,0.22415 2.69995,4.65058 5.9999,9.83653 3.29995,5.18595 6.33604,10.06616 6.74688,10.84493 1.14191,2.16457 0.91445,4.51909 -0.60361,6.24806 -0.99951,1.13838 -2.24826,1.55449 -4.23398,1.41085 -2.50211,-0.18098 -3.04044,-0.84546 -10.03139,-12.38214 -2.5132,-4.14734 -4.77685,-7.76205 -5.03034,-8.03269 -0.44504,-0.47516 -0.5597,-0.39964 -3.33491,2.19638 -1.5807,1.47865 -2.95494,2.89071 -3.05385,3.13791 -0.0989,0.24719 -0.18821,2.77755 -0.19844,5.62302 -0.0181,5.04661 -0.0358,5.20806 -0.7189,6.5789 -0.98799,1.98264 -2.52568,2.93615 -4.70931,2.92021 -1.06144,-0.008 -1.93298,-0.18656 -2.58338,-0.53003 z m 45.42662,0.173 c -1.10778,-0.48268 -2.43188,-2.06786 -2.76706,-3.31262 -0.19136,-0.71063 -0.25807,-9.44965 -0.20957,-27.454 l 0.0711,-26.41153 0.70166,-1.19347 c 0.94017,-1.59916 2.35024,-2.37841 4.3038,-2.37841 0.8216,0 1.87881,0.16086 2.34936,0.35746 1.13084,0.4725 2.47038,2.02973 2.81573,3.27333 0.38466,1.38518 0.38466,52.47199 0,53.85717 -0.34535,1.2436 -1.68489,2.80083 -2.81573,3.27333 -1.07838,0.45057 -3.40292,0.4447 -4.44932,-0.0113 z m 67.18852,-0.007 c -1.04751,-0.45613 -2.3346,-2.02153 -2.72015,-3.30831 -0.21347,-0.7125 -0.302,-6.29518 -0.302,-19.04362 0,-15.68029 0.0535,-18.1636 0.4095,-19.01569 0.83365,-1.99521 2.26248,-2.97167 4.34837,-2.97167 1.72667,0 2.84872,0.47929 3.88499,1.65952 0.79888,0.9099 1.41131,2.7787 1.41131,4.30663 0,0.35664 0.1356,0.64843 0.30133,0.64843 0.16574,0 1.23122,-0.88841 2.36776,-1.97425 3.47014,-3.31537 6.81117,-4.63251 11.7507,-4.63251 4.67646,0 8.02503,1.22798 10.73304,3.93601 1.54649,1.54648 2.28351,2.74998 3.24813,5.30386 0.53406,1.41399 0.55771,2.00453 0.64315,16.07083 0.0609,10.02544 -0.003,14.94053 -0.20133,15.68003 -0.35218,1.30788 -1.67351,2.87334 -2.83485,3.35857 -1.10101,0.46003 -3.29395,0.45832 -4.39909,-0.003 -0.92345,-0.38585 -2.15765,-1.69291 -2.64314,-2.79919 -0.1973,-0.44961 -0.35311,-4.88982 -0.46476,-13.24408 -0.15516,-11.61022 -0.21003,-12.7226 -0.7202,-14.60081 -0.98097,-3.61138 -2.46962,-5.06364 -5.6515,-5.5134 -5.34384,-0.75535 -10.08232,2.87714 -11.08321,8.49629 -0.17677,0.9924 -0.35552,6.19658 -0.43085,12.54396 -0.0708,5.96636 -0.2432,11.29597 -0.38309,11.84358 -0.31361,1.22763 -1.65632,2.79958 -2.79916,3.27709 -1.08447,0.45312 -3.40463,0.44386 -4.46495,-0.0178 z"
         style="fill:#6bb244;stroke-width:0.26458332" />
    </g>
  </g>
</svg>
