<?xml version="1.0" encoding="UTF-8"?>
<svg width="32px" height="32px" viewBox="0 0 32 32" version="1.1" xmlns="http://www.w3.org/2000/svg" xmlns:xlink="http://www.w3.org/1999/xlink">
    <title>ibminformix-original</title>
    <g id="ibminformix-original" stroke="none" stroke-width="1" fill="none" fill-rule="evenodd">
        <g id="Group">
            <rect id="Rectangle-2" fill="#4A90E2" x="0" y="0" width="32" height="32" rx="2"></rect>
            <path d="M30,0 C31.1045695,-2.02906125e-16 32,0.8954305 32,2 L32,16 L0,16 L0,2 C-1.3527075e-16,0.8954305 0.8954305,2.02906125e-16 2,0 L30,0 Z" id="Combined-Shape" fill="#000000"></path>
            <path d="M4,3 L4,3.69470077 L8.67156256,3.69470077 L8.67156256,3 L4,3 Z M9.33343768,3 L9.33343768,3.69470077 L15.9906249,3.69470077 C15.9906249,3.69470077 15.31063,3 14.41,3 L9.33343768,3 Z M17.2965626,3 L17.2965626,3.69470077 L21.3240626,3.69470077 L21.085,3 L17.2965626,3 Z M24.2115626,3 L23.9725,3.69470077 L27.9634374,3.69470077 L27.9634374,3 L24.2115626,3 Z M4,4.35102533 L4,5.0457259 L8.67156256,5.0457259 L8.67156256,4.35102533 L4,4.35102533 Z M9.33343768,4.35200937 L9.33343768,5.0457259 L16.7631251,5.0457259 C16.7631251,5.0457259 16.67635,4.51105441 16.525,4.35200937 L9.33343768,4.35200937 Z M17.2965626,4.35200937 L17.2965626,5.0457259 L21.7656251,5.0457259 L21.5443749,4.35200937 L17.2965626,4.35200937 Z M23.7334374,4.35200937 L23.5121874,5.0457259 L27.9634374,5.0457259 L27.9634374,4.35200937 L23.7334374,4.35200937 Z M5.3424999,5.70205066 L5.3424999,6.39773508 L7.36562488,6.39773508 L7.36562488,5.70205066 L5.3424999,5.70205066 Z M10.6759377,5.70205066 L10.6759377,6.39773508 L12.6990623,6.39773508 L12.6990623,5.70205066 L10.6759377,5.70205066 Z M14.6668751,5.70205066 L14.6668751,6.39773508 L16.69,6.39773508 C16.6900002,6.39773508 16.8184374,6.03034304 16.8184374,5.70205066 L14.6668751,5.70205066 Z M18.6390626,5.70205066 L18.6390626,6.39773508 L22.2259377,6.39773508 L21.9868751,5.70205066 L18.6390626,5.70205066 Z M23.2928126,5.70205066 L23.0528126,6.39773508 L26.6575,6.39773508 L26.6575,5.70205066 L23.2928126,5.70205066 Z M5.3424999,7.05406015 L5.3424999,7.74876042 L7.36562488,7.74876042 L7.36562488,7.05406015 L5.3424999,7.05406015 Z M10.6759377,7.05406015 L10.6759377,7.74876042 L15.8434377,7.74876042 C15.8434379,7.74876042 16.2757074,7.39230254 16.4134374,7.05406015 L10.6759377,7.05406015 Z M18.6390626,7.05406015 L18.6390626,7.74876042 L20.6621874,7.74876042 L20.6621874,7.36205042 L20.7906249,7.74876042 L24.4965626,7.74876042 L24.6343751,7.36205042 L24.6343751,7.74876042 L26.6575,7.74876042 L26.6575,7.05406015 L22.8596874,7.05406015 L22.6581249,7.64248899 L22.4556251,7.05406015 L18.6390626,7.05406015 Z M5.3424999,8.40508548 L5.3424999,9.09978575 L7.36562488,9.09978575 L7.36562488,8.40508548 L5.3424999,8.40508548 Z M10.6759377,8.40508548 L10.6759377,9.09978575 L16.4134374,9.09978575 C16.2756777,8.76264556 15.8434377,8.40508548 15.8434377,8.40508548 L10.6759377,8.40508548 Z M18.6390626,8.40508548 L18.6390626,9.09978575 L20.6621874,9.09978575 L20.6621874,8.40508548 L18.6390626,8.40508548 Z M21.0296874,8.40508548 L21.2743751,9.09978575 L24.0531251,9.09978575 L24.2856251,8.40508548 L21.0296874,8.40508548 Z M24.6343751,8.40508548 L24.6343751,9.09978575 L26.6575,9.09978575 L26.6575,8.40508548 L24.6343751,8.40508548 Z M5.3424999,9.75611082 L5.3424999,10.4508111 L7.36562488,10.4508111 L7.36562488,9.75611082 L5.3424999,9.75611082 Z M10.6759377,9.75611082 L10.6759377,10.4508111 L12.6990623,10.4508111 L12.6990623,9.75611082 L10.6759377,9.75611082 Z M14.6668751,9.75611082 L14.6668751,10.4508111 L16.8184374,10.4508111 C16.8184374,10.1229604 16.69,9.75611082 16.69,9.75611082 L14.6668751,9.75611082 Z M18.6390626,9.75611082 L18.6390626,10.4508111 L20.6621874,10.4508111 L20.6621874,9.75611082 L18.6390626,9.75611082 Z M21.4890623,9.75611082 L21.72625,10.4508111 L23.5890623,10.4508111 L23.8281249,9.75611082 L21.4890623,9.75611082 Z M24.6343751,9.75611082 L24.6343751,10.4508111 L26.6575,10.4508111 L26.6575,9.75611082 L24.6343751,9.75611082 Z M4.03656232,11.1071361 L4.03656232,11.8028206 L8.70812488,11.8028206 L8.70812488,11.1071361 L4.03656232,11.1071361 Z M9.33343768,11.1071361 L9.33343768,11.8028206 L16.525,11.8028206 C16.67635,11.6435237 16.7631251,11.1071361 16.7631251,11.1071361 L9.33343768,11.1071361 Z M17.3331249,11.1071361 L17.3331249,11.8028206 L20.6621874,11.8028206 L20.6621874,11.1071361 L17.3331249,11.1071361 Z M21.9493749,11.1071361 L22.1931249,11.8028206 L23.1409374,11.8028206 L23.3696874,11.1071361 L21.9493749,11.1071361 Z M24.6343751,11.1071361 L24.6343751,11.8028206 L28,11.8028206 L28,11.1071361 L24.6343751,11.1071361 Z M4.03656232,12.4591454 L4.03656232,13.1538462 L8.70812488,13.1538462 L8.70812488,12.4591454 L4.03656232,12.4591454 Z M9.33343768,12.4591454 L9.33343768,13.1528622 L14.41,13.1528622 C15.3106298,13.1528622 15.9906249,12.4591454 15.9906249,12.4591454 L9.33343768,12.4591454 Z M17.3331249,12.4591454 L17.3331249,13.1538462 L20.6621874,13.1538462 L20.6621874,12.4591454 L17.3331249,12.4591454 Z M22.4115626,12.4591454 L22.6459377,13.1518778 L22.68625,13.1528622 L22.9243751,12.4591454 L22.4115626,12.4591454 Z M24.6343751,12.4591454 L24.6343751,13.1538462 L28,13.1538462 L28,12.4591454 L24.6343751,12.4591454 Z" id="Shape" fill="#FFFFFF" fill-rule="nonzero"></path>
            <g id="Informix" transform="translate(2.098223, 20.447754)" fill="#FFFFFF" fill-rule="nonzero">
                <polygon id="Path" points="0.150634766 6.55224609 0.150634766 0.109863281 0.849365234 0.109863281 0.849365234 6.55224609"></polygon>
                <path d="M2.35436523,6.55224609 L2.35436523,1.88525391 L2.93883789,1.88525391 L2.93883789,2.54882812 C3.07946289,2.29101562 3.25158203,2.09838867 3.45519531,1.97094727 C3.65880859,1.84350586 3.89245117,1.77978516 4.15612304,1.77978516 C4.36120117,1.77978516 4.55089843,1.82006836 4.72521484,1.90063477 C4.89953125,1.98120117 5.04015625,2.08666992 5.14708984,2.21704102 C5.25402343,2.34741211 5.33385742,2.51660156 5.38659179,2.72460938 C5.43932617,2.93261719 5.46569335,3.25195312 5.46569335,3.68261719 L5.46569335,6.55224609 L4.81530273,6.55224609 L4.81530273,3.71337891 C4.81530273,3.37060547 4.78600585,3.12011719 4.7274121,2.96191406 C4.66881835,2.80371094 4.57726562,2.68139648 4.4527539,2.5949707 C4.32824218,2.50854492 4.18395507,2.46533203 4.01989257,2.46533203 C3.7093457,2.46533203 3.4617871,2.58105469 3.27721679,2.8125 C3.09264648,3.04394531 3.00036132,3.44091797 3.00036132,4.00341797 L3.00036132,6.55224609 L2.35436523,6.55224609 Z" id="Path"></path>
                <path d="M7.02342772,6.55224609 L7.02342772,2.50048828 L6.44774413,2.50048828 L6.44774413,1.88525391 L7.02342772,1.88525391 L7.02342772,1.38867188 C7.02342772,1.02246094 7.06151366,0.747802734 7.13768554,0.564697266 C7.21385741,0.381591797 7.33031249,0.241699219 7.48705077,0.145019531 C7.64378905,0.0483398438 7.84081054,0 8.07811522,0 C8.26268554,0 8.46483397,0.0263671875 8.68456054,0.0791015625 L8.58788085,0.769042969 C8.45311522,0.739746094 8.32567382,0.725097656 8.20555663,0.725097656 C8.01219726,0.725097656 7.87376952,0.775634766 7.79027343,0.876708984 C7.70677733,0.977783203 7.66502929,1.17041016 7.66502929,1.45458984 L7.66502929,1.88525391 L8.4120996,1.88525391 L8.4120996,2.50048828 L7.66502929,2.50048828 L7.66502929,6.55224609 L7.02342772,6.55224609 Z" id="Path"></path>
                <path d="M9.02940428,4.21875 C9.02940428,3.41308594 9.19859374,2.80517578 9.53697264,2.39501953 C9.87535155,1.98486328 10.3038183,1.77978516 10.822373,1.77978516 C11.3321387,1.77978516 11.7584082,1.98486328 12.1011816,2.39501953 C12.4439551,2.80517578 12.6153418,3.39697266 12.6153418,4.17041016 C12.6153418,5.00830078 12.4468848,5.63232422 12.1099707,6.04248047 C11.7730566,6.45263672 11.3438574,6.65771484 10.822373,6.65771484 C10.3096777,6.65771484 9.88267577,6.4519043 9.54136717,6.0402832 C9.20005858,5.62866211 9.02940428,5.02148438 9.02940428,4.21875 Z M9.6929785,4.21875 C9.6929785,4.82226562 9.80284178,5.27124023 10.0225683,5.56567383 C10.2422949,5.86010742 10.5147558,6.00732422 10.8399512,6.00732422 C11.1446387,6.00732422 11.4061133,5.85864258 11.624375,5.5612793 C11.8426367,5.26391602 11.9517676,4.81640625 11.9517676,4.21875 C11.9517676,3.61816406 11.8419043,3.1706543 11.6221777,2.8762207 C11.4024512,2.58178711 11.1299902,2.43457031 10.8047949,2.43457031 C10.4971777,2.43457031 10.2349707,2.58251953 10.0181738,2.87841797 C9.80137694,3.17431641 9.6929785,3.62109375 9.6929785,4.21875 Z" id="Shape"></path>
                <path d="M13.7555957,6.55224609 L13.7555957,1.88525391 L14.3400683,1.88525391 L14.3400683,2.59277344 C14.4894824,2.26464844 14.6264453,2.04711914 14.750957,1.94018555 C14.8754687,1.83325195 15.0153613,1.77978516 15.1706347,1.77978516 C15.3874316,1.77978516 15.608623,1.86474609 15.834209,2.03466797 L15.6144824,2.76855469 C15.4533496,2.65429688 15.2966113,2.59716797 15.1442676,2.59716797 C15.0065722,2.59716797 14.8805957,2.64550781 14.7663379,2.7421875 C14.6520801,2.83886719 14.5715137,2.97363281 14.5246387,3.14648438 C14.4426074,3.44824219 14.4015918,3.76904297 14.4015918,4.10888672 L14.4015918,6.55224609 L13.7555957,6.55224609 Z" id="Path"></path>
                <path d="M16.6009277,6.55224609 L16.6009277,1.88525391 L17.1810058,1.88525391 L17.1810058,2.54003906 C17.3099121,2.296875 17.4754394,2.109375 17.6775879,1.97753906 C17.8797363,1.84570312 18.1009277,1.77978516 18.3411621,1.77978516 C18.6106933,1.77978516 18.8384765,1.84936523 19.0245117,1.98852539 C19.2105469,2.12768555 19.3431152,2.33056641 19.4222168,2.59716797 C19.5745605,2.32470703 19.7496094,2.12036133 19.9473633,1.98413086 C20.1451172,1.84790039 20.3641113,1.77978516 20.6043457,1.77978516 C20.9705566,1.77978516 21.2591308,1.90429688 21.4700683,2.15332031 C21.6810058,2.40234375 21.7864746,2.80078125 21.7864746,3.34863281 L21.7864746,6.55224609 L21.1404785,6.55224609 L21.1404785,3.61230469 C21.1404785,3.27832031 21.1163086,3.04174805 21.0679687,2.90258789 C21.0196289,2.76342773 20.9412597,2.65576172 20.8328613,2.57958984 C20.7244629,2.50341797 20.6028808,2.46533203 20.4681152,2.46533203 C20.1897949,2.46533203 19.9627441,2.57592773 19.7869629,2.79711914 C19.6111816,3.01831055 19.523291,3.36621094 19.523291,3.84082031 L19.523291,6.55224609 L18.8729004,6.55224609 L18.8729004,3.52001953 C18.8729004,3.13330078 18.8135742,2.86083984 18.6949219,2.70263672 C18.5762695,2.54443359 18.4129394,2.46533203 18.2049316,2.46533203 C17.9090332,2.46533203 17.6753906,2.5847168 17.5040039,2.82348633 C17.3326172,3.06225586 17.2469238,3.49804688 17.2469238,4.13085938 L17.2469238,6.55224609 L16.6009277,6.55224609 Z" id="Path"></path>
                <path d="M23.1200879,1.01953125 L23.1200879,0.109863281 L23.766084,0.109863281 L23.766084,1.01953125 L23.1200879,1.01953125 Z M23.1200879,6.55224609 L23.1200879,1.88525391 L23.766084,1.88525391 L23.766084,6.55224609 L23.1200879,6.55224609 Z" id="Shape"></path>
                <path d="M24.717373,6.55224609 L26.114834,4.12646484 L24.8228418,1.88525391 L25.6314355,1.88525391 L26.2203027,2.97949219 C26.3287011,3.18164062 26.4180566,3.35595703 26.4883691,3.50244141 C26.5967675,3.30322266 26.6934472,3.13183594 26.7784082,2.98828125 L27.4244043,1.88525391 L28.1978418,1.88525391 L26.8750879,4.08251953 L28.298916,6.55224609 L27.5035058,6.55224609 L26.7168847,5.10205078 L26.5103418,4.7109375 L25.5039941,6.55224609 L24.717373,6.55224609 Z" id="Path"></path>
            </g>
        </g>
    </g>
</svg>