<?xml version="1.0" encoding="UTF-8"?>
<svg width="128px" height="128px" viewBox="0 0 128 128" version="1.1" xmlns="http://www.w3.org/2000/svg" xmlns:xlink="http://www.w3.org/1999/xlink">
    <title>koa</title>
    <g id="koa" stroke="none" stroke-width="1" fill="none" fill-rule="evenodd">
        <g transform="translate(14.223999, 31.000000)" fill="#4A4A4A" fill-rule="nonzero">
            <polygon id="Path" points="5.04 0 5.04 35.856 20.88 18 21.6 18 9.864 31.248 25.344 54 20.304 54 6.984 34.416 5.04 36.648 5.04 54 0 54 0 0"></polygon>
            <path d="M48.0480004,54.288 C43.0080004,54.288 38.9040004,52.848 35.7360004,49.968 C32.5680004,47.088 30.9840004,42.648 30.9840004,36.648 C30.9840004,30.648 32.6280004,25.992 35.9160004,22.68 C39.2040004,19.368 43.3800004,17.712 48.4440004,17.712 C53.5080004,17.712 57.6240004,19.152 60.7920004,22.032 C63.9600004,24.912 65.5440004,29.352 65.5440004,35.352 C65.5440004,41.352 63.9000004,46.008 60.6120004,49.32 C57.3240004,52.632 53.1360004,54.288 48.0480004,54.288 Z M48.5520004,18.288 C44.9040004,18.288 41.8800004,19.908 39.4800004,23.148 C37.0800004,26.388 35.8800004,30.9 35.8800004,36.684 C35.8800004,42.468 36.9840004,46.752 39.1920004,49.536 C41.4000004,52.32 44.3280004,53.712 47.9760004,53.712 C51.6240004,53.712 54.6480004,52.092 57.0480004,48.852 C59.4480004,45.612 60.6480004,41.1 60.6480004,35.316 C60.6480004,29.532 59.5440004,25.248 57.3360004,22.464 C55.1280004,19.68 52.2000004,18.288 48.5520004,18.288 Z" id="Shape"></path>
            <path d="M102.720001,54 C99.4560007,54 97.2240007,53.376 96.0240007,52.128 C94.9200007,51.072 94.3680007,50.16 94.3680007,49.392 L94.3680007,47.88 C92.0160007,52.152 88.2480007,54.288 83.0640007,54.288 C77.0160007,54.288 73.5840007,51.552 72.7680007,46.08 C72.6720007,45.504 72.6240007,44.916 72.6240007,44.316 C72.6240007,43.716 72.7200007,43.056 72.9120007,42.336 C73.1040007,41.616 73.6560007,40.824 74.5680007,39.96 C76.3920007,38.232 80.4000007,37.176 86.5920007,36.792 C88.1280007,36.648 89.5440007,36.576 90.8400007,36.576 C92.1360007,36.576 93.3120007,36.624 94.3680007,36.72 L94.3680007,24.768 C94.2720007,24.72 94.2720007,24.492 94.3680007,24.084 C94.4640007,23.676 94.3800007,23.148 94.1160007,22.5 C93.8520007,21.852 93.5040007,21.216 93.0720007,20.592 C92.6400007,19.968 91.8720007,19.428 90.7680007,18.972 C89.6640007,18.516 88.2240007,18.288 86.4480007,18.288 C84.6720007,18.288 82.5960007,18.612 80.2200007,19.26 C77.8440007,19.908 76.1040007,20.544 75.0000007,21.168 L74.7120007,20.664 C78.9840007,18.696 83.3280007,17.712 87.7440007,17.712 C92.6880007,17.712 95.9520007,18.6 97.5360007,20.376 C98.7840007,21.768 99.4080007,23.232 99.4080007,24.768 L99.4080007,48.888 C99.4080007,50.28 99.6840007,51.348 100.236001,52.092 C100.788001,52.836 101.352001,53.232 101.928001,53.28 L102.720001,53.424 L104.952001,53.424 L104.952001,54 L102.720001,54 Z M84.2160007,53.712 C86.7600007,53.712 89.0520007,52.836 91.0920007,51.084 C93.1320007,49.332 94.2240007,47.64 94.3680007,46.008 L94.3680007,37.296 C93.0720007,37.2 91.7640007,37.152 90.4440007,37.152 C89.1240007,37.152 87.8160007,37.224 86.5200007,37.368 C82.8720007,37.8 80.4960007,38.616 79.3920007,39.816 C78.2880007,41.016 77.7360007,42.672 77.7360007,44.784 C77.7360007,45.168 77.7600007,45.6 77.8080007,46.08 C78.2400007,51.168 80.3760007,53.712 84.2160007,53.712 Z" id="Shape"></path>
        </g>
    </g>
</svg>