<?xml version="1.0" encoding="UTF-8"?>
<!DOCTYPE svg PUBLIC "-//W3C//DTD SVG 1.1//EN" "http://www.w3.org/Graphics/SVG/1.1/DTD/svg11.dtd">
<!-- Creator: CorelDRAW -->
<svg xmlns="http://www.w3.org/2000/svg" xml:space="preserve" width="512px" height="512px" version="1.1" style="shape-rendering:geometricPrecision; text-rendering:geometricPrecision; image-rendering:optimizeQuality; fill-rule:evenodd; clip-rule:evenodd"
viewBox="0 0 512 512"
 xmlns:xlink="http://www.w3.org/1999/xlink">
 <defs>
  <style type="text/css">
   <![CDATA[
    .fil0 {fill:black}
   ]]>
  </style>
 </defs>
 <g id="Layer_x0020_1">
  <metadata id="CorelCorpID_0Corel-Layer"/>
  <g id="_597587800">
   <g>
    <g>
     <g>
      <path class="fil0" d="M283 77l-44 0c-4,0 -8,-4 -8,-8l0 -38c0,-4 4,-8 8,-8l44 0c4,0 8,4 8,8l0 39c-1,3 -4,7 -8,7zm-37 -15l30 0 0 -24 -30 0 0 24z"/>
     </g>
     <g>
      <path class="fil0" d="M256 174c-21,0 -38,-17 -38,-38l0 -5c0,-4 3,-7 7,-7 4,0 7,3 7,7l0 5c0,13 11,24 24,24 14,0 24,-11 24,-24 0,-12 -8,-22 -20,-24 -3,0 -6,-3 -6,-7l0 -35c0,-5 3,-8 8,-8 4,0 7,3 7,8l0 30c16,5 26,19 26,36 0,21 -18,38 -39,38z"/>
     </g>
    </g>
    <g>
     <g>
      <path class="fil0" d="M505 489l-498 0c-4,0 -7,-4 -7,-8l0 -234c0,-4 3,-8 7,-8l498 0c4,0 7,4 7,8l0 235c0,3 -3,7 -7,7zm-490 -15l483 0 0 -220 -483 0 0 220z"/>
     </g>
     <g>
      <path class="fil0" d="M61 441c-4,0 -7,-4 -7,-8l0 -138c0,-4 3,-8 7,-8 4,0 8,4 8,8l0 138c-1,4 -4,8 -8,8z"/>
     </g>
     <g>
      <path class="fil0" d="M126 441c-4,0 -8,-4 -8,-8l0 -138c0,-4 4,-8 8,-8 4,0 7,4 7,8l0 138c0,4 -3,8 -7,8z"/>
     </g>
     <g>
      <path class="fil0" d="M191 441c-4,0 -8,-4 -8,-8l0 -138c0,-4 4,-8 8,-8 4,0 7,4 7,8l0 138c0,4 -3,8 -7,8z"/>
     </g>
     <g>
      <path class="fil0" d="M256 441c-4,0 -8,-4 -8,-8l0 -138c0,-4 4,-8 8,-8 4,0 7,4 7,8l0 138c0,4 -3,8 -7,8z"/>
     </g>
     <g>
      <path class="fil0" d="M321 441c-4,0 -7,-4 -7,-8l0 -138c0,-4 3,-8 7,-8 4,0 8,4 8,8l0 138c-1,4 -4,8 -8,8z"/>
     </g>
     <g>
      <path class="fil0" d="M386 441c-4,0 -7,-4 -7,-8l0 -138c0,-4 3,-8 7,-8 4,0 8,4 8,8l0 138c-1,4 -4,8 -8,8z"/>
     </g>
     <g>
      <path class="fil0" d="M451 441c-4,0 -7,-4 -7,-8l0 -138c0,-4 3,-8 7,-8 5,0 8,4 8,8l0 138c-1,4 -4,8 -8,8z"/>
     </g>
     <g>
      <g>
       <path class="fil0" d="M98 254c-4,0 -7,-3 -7,-8l0 -22 -24 0 0 22c0,5 -3,8 -8,8 -4,0 -7,-3 -7,-8l0 -30c0,-4 3,-7 7,-7l39 0c4,0 7,3 7,7l0 30c1,5 -3,8 -7,8z"/>
      </g>
      <g>
       <path class="fil0" d="M453 254c-5,0 -8,-3 -8,-8l0 -22 -24 0 0 22c0,5 -3,8 -7,8 -4,0 -8,-3 -8,-8l0 -30c0,-4 4,-7 8,-7l38 0c4,0 8,3 8,7l0 30c0,5 -4,8 -7,8z"/>
      </g>
     </g>
    </g>
    <g>
     <path class="fil0" d="M79 224c-3,0 -6,-2 -7,-5 -1,-4 1,-8 5,-10l177 -49c1,-1 2,-1 3,0l178 50c4,1 6,5 5,9 -1,4 -5,6 -9,5l-175 -49 -175 49c-1,0 -1,0 -2,0z"/>
    </g>
   </g>
  </g>
 </g>
</svg>
