<?xml version="1.0" encoding="UTF-8"?>
<svg width="128px" height="128px" viewBox="0 0 128 128" version="1.1" xmlns="http://www.w3.org/2000/svg" xmlns:xlink="http://www.w3.org/1999/xlink">
    <title>dojo-plain</title>
    <g id="dojo-plain" stroke="none" stroke-width="1" fill="none" fill-rule="evenodd">
        <g id="dojo-1" transform="translate(0.000000, 34.000000)" fill="#000000">
            <path d="M32.71825,0 L38.72,0 L38.72,48.26925 L32.71825,48.26925 L32.71825,43.81425 C29.20075,47.2915 24.4235,49.358 19.37025,49.358 C12.768,49.358 4.0535,45.32375 1.05275,35.42225 C0.76425,34.506 0.5035,33.266 0.45275,32.64975 C0.1085,28.4925 0.26625,28.20925 0.45275,26.7585 C1.97575,14.9045 11.5675,10.05 19.37,10.05 C23.10325,10.05 26.49975,11.0775 29.36875,12.82225 L28.528,18.342 C26.12775,16.31325 23.007,15.001 19.37,15.001 C11.5675,15.001 5.25375,21.511 5.25375,29.556 C5.25375,36.98125 10.967,44.4075 19.37,44.4075 C24.9155,44.4075 30.46125,40.91825 32.718,35.19875 L32.718,0 L32.71825,0 Z M59.3365,10.16225 C51.49375,10.16225 41.3875,14.8605 40.32125,26.5145 C40.19,27.95025 40.06325,29.492 40.32125,32.28 C40.37725,32.88325 40.63475,34.097 40.9245,34.99375 C43.94125,44.68375 52.70025,48.63225 59.3365,48.63225 C69.59225,48.63225 78.642,40.44425 78.642,29.25225 C78.642,18.956 70.4855,10.16225 59.3365,10.16225 Z M59.3365,43.78725 C50.89025,43.78725 45.1475,36.51925 45.1475,29.25225 C45.1475,21.3785 51.49375,15.00725 59.3365,15.00725 C68.07225,15.00725 73.8155,22.27525 73.8155,29.25225 C73.8155,38.022 66.57625,43.78725 59.3365,43.78725 Z" id="Shape" fill-rule="nonzero"></path>
            <path d="M68.48,4.25625 C68.48,4.86675 68.15075,4.86675 67.8465,5.08125 L51.38825,5.08125 C51.38825,4.86675 51.05925,4.86675 51.05925,4.25625 C51.05925,3.84375 51.38825,3.84375 51.6925,3.6295 L68.15075,3.6295 C68.15075,3.84375 68.48,3.84375 68.48,4.25625" id="Path"></path>
            <path d="M82.074,1.594 L86.89075,1.594 L86.89075,8.8305 L82.074,8.8305 L82.074,1.594 Z M86.89075,45.82025 C87.22725,51.5855 79.81025,59.52025 79.81025,59.52025 L76.66725,55.13175 C80.74975,52.23675 82.026,47.6525 82.12225,45.5185 L82.074,11.2425 L86.89075,11.2425 L86.89075,45.82025 L86.89075,45.82025 Z M108.6945,10.16225 C100.852,10.16225 90.74575,14.86025 89.6795,26.5145 C89.548,27.95 89.42125,29.49175 89.6795,32.28 C89.7355,32.88325 89.993,34.097 90.283,34.9935 C93.299,44.6835 102.05875,48.6325 108.6945,48.6325 C118.95075,48.6325 128,40.44425 128,29.25175 C128,18.95575 119.84375,10.16225 108.6945,10.16225 Z M108.6945,43.78675 C100.24875,43.78675 94.50625,36.51925 94.50625,29.25175 C94.50625,21.37825 100.852,15.00675 108.6945,15.00675 C117.43075,15.00675 123.17375,22.275 123.17375,29.25175 C123.17375,38.022 115.934,43.78675 108.6945,43.78675 Z" id="Shape" fill-rule="nonzero"></path>
            <path d="M117.1125,4.25625 C117.1125,4.86675 116.7835,4.86675 116.47925,5.08125 L100.02075,5.08125 C100.02075,4.86675 99.69175,4.86675 99.69175,4.25625 C99.69175,3.84375 100.02075,3.84375 100.32475,3.6295 L116.7835,3.6295 C116.7835,3.84375 117.11225,3.84375 117.11225,4.25625" id="Path"></path>
        </g>
    </g>
</svg>