<?xml version="1.0" encoding="UTF-8" standalone="no"?>
<!DOCTYPE svg PUBLIC "-//W3C//DTD SVG 1.1//EN" "http://www.w3.org/Graphics/SVG/1.1/DTD/svg11.dtd">
<!-- Created with Vectornator (http://vectornator.io/) -->
<svg height="100%" stroke-miterlimit="10" style="fill-rule:nonzero;clip-rule:evenodd;stroke-linecap:round;stroke-linejoin:round;" version="1.1" viewBox="0 0 240 240" width="100%" xml:space="preserve" xmlns="http://www.w3.org/2000/svg" xmlns:vectornator="http://vectornator.io" xmlns:xlink="http://www.w3.org/1999/xlink">
<defs/>
<g id="Layer-1" vectornator:layerName="Layer 1">
<g fill="#000000" opacity="1" stroke="none">
<path d="M15.9148 126.887C14.0668 126.887 12.3508 126.551 10.7668 125.879C9.18281 125.207 7.81481 124.289 6.66281 123.125C5.51081 121.961 4.61081 120.587 3.96281 119.003C3.31481 117.419 2.99081 115.727 2.99081 113.927L2.99081 113.855C2.99081 112.055 3.31481 110.369 3.96281 108.797C4.61081 107.225 5.51081 105.845 6.66281 104.657C7.81481 103.469 9.19481 102.533 10.8028 101.849C12.4108 101.165 14.1868 100.823 16.1308 100.823C17.3068 100.823 18.3808 100.919 19.3528 101.111C20.3248 101.303 21.2068 101.567 21.9988 101.903C22.7908 102.239 23.5228 102.647 24.1948 103.127C24.8668 103.607 25.4908 104.135 26.0668 104.711L22.5388 108.779C21.5548 107.891 20.5528 107.195 19.5328 106.691C18.5128 106.187 17.3668 105.935 16.0948 105.935C15.0388 105.935 14.0608 106.139 13.1608 106.547C12.2608 106.955 11.4868 107.519 10.8388 108.239C10.1908 108.959 9.68681 109.793 9.32681 110.741C8.96681 111.689 8.78681 112.703 8.78681 113.783L8.78681 113.855C8.78681 114.935 8.96681 115.955 9.32681 116.915C9.68681 117.875 10.1848 118.715 10.8208 119.435C11.4568 120.155 12.2248 120.725 13.1248 121.145C14.0248 121.565 15.0148 121.775 16.0948 121.775C17.5348 121.775 18.7528 121.511 19.7488 120.983C20.7448 120.455 21.7348 119.735 22.7188 118.823L26.2468 122.387C25.5988 123.083 24.9268 123.707 24.2308 124.259C23.5348 124.811 22.7728 125.285 21.9448 125.681C21.1168 126.077 20.2108 126.377 19.2268 126.581C18.2428 126.785 17.1388 126.887 15.9148 126.887Z"/>
<path d="M46.9868 121.775C48.0908 121.775 49.1108 121.571 50.0468 121.163C50.9828 120.755 51.7808 120.191 52.4408 119.471C53.1008 118.751 53.6168 117.917 53.9888 116.969C54.3608 116.021 54.5468 115.007 54.5468 113.927L54.5468 113.855C54.5468 112.775 54.3608 111.755 53.9888 110.795C53.6168 109.835 53.0888 108.995 52.4048 108.275C51.7208 107.555 50.9108 106.985 49.9748 106.565C49.0388 106.145 48.0188 105.935 46.9148 105.935C45.7868 105.935 44.7608 106.139 43.8368 106.547C42.9128 106.955 42.1208 107.519 41.4608 108.239C40.8008 108.959 40.2848 109.793 39.9128 110.741C39.5408 111.689 39.3548 112.703 39.3548 113.783L39.3548 113.855C39.3548 114.935 39.5408 115.955 39.9128 116.915C40.2848 117.875 40.8128 118.715 41.4968 119.435C42.1808 120.155 42.9848 120.725 43.9088 121.145C44.8328 121.565 45.8588 121.775 46.9868 121.775ZM46.9148 126.887C44.9708 126.887 43.1828 126.545 41.5508 125.861C39.9188 125.177 38.5088 124.253 37.3208 123.089C36.1328 121.925 35.2088 120.557 34.5488 118.985C33.8888 117.413 33.5588 115.727 33.5588 113.927L33.5588 113.855C33.5588 112.055 33.8948 110.369 34.5668 108.797C35.2388 107.225 36.1688 105.845 37.3568 104.657C38.5448 103.469 39.9608 102.533 41.6048 101.849C43.2488 101.165 45.0428 100.823 46.9868 100.823C48.9308 100.823 50.7188 101.165 52.3508 101.849C53.9828 102.533 55.3928 103.457 56.5808 104.621C57.7688 105.785 58.6928 107.153 59.3528 108.725C60.0128 110.297 60.3428 111.983 60.3428 113.783L60.3428 113.855C60.3428 115.655 60.0068 117.341 59.3348 118.913C58.6628 120.485 57.7328 121.865 56.5448 123.053C55.3568 124.241 53.9408 125.177 52.2968 125.861C50.6528 126.545 48.8588 126.887 46.9148 126.887Z"/>
<path d="M79.1028 121.451C80.2308 121.451 81.2628 121.271 82.1988 120.911C83.1348 120.551 83.9328 120.035 84.5928 119.363C85.2528 118.691 85.7688 117.899 86.1408 116.987C86.5128 116.075 86.6988 115.055 86.6988 113.927L86.6988 113.855C86.6988 112.751 86.5128 111.731 86.1408 110.795C85.7688 109.859 85.2528 109.055 84.5928 108.383C83.9328 107.711 83.1348 107.189 82.1988 106.817C81.2628 106.445 80.2308 106.259 79.1028 106.259L74.8188 106.259L74.8188 121.451L79.1028 121.451ZM69.2748 101.255L79.1028 101.255C81.0708 101.255 82.8768 101.573 84.5208 102.209C86.1648 102.845 87.5808 103.727 88.7688 104.855C89.9568 105.983 90.8748 107.309 91.5228 108.833C92.1708 110.357 92.4948 112.007 92.4948 113.783L92.4948 113.855C92.4948 115.631 92.1708 117.287 91.5228 118.823C90.8748 120.359 89.9568 121.691 88.7688 122.819C87.5808 123.947 86.1648 124.835 84.5208 125.483C82.8768 126.131 81.0708 126.455 79.1028 126.455L69.2748 126.455L69.2748 101.255Z"/>
<path d="M101.427 101.255L120.435 101.255L120.435 106.187L106.935 106.187L106.935 111.299L118.815 111.299L118.815 116.231L106.935 116.231L106.935 121.523L120.615 121.523L120.615 126.455L101.427 126.455L101.427 101.255Z"/>
<path d="M129.907 100.967L132.499 100.967L132.499 112.019L146.395 112.019L146.395 100.967L148.987 100.967L148.987 126.455L146.395 126.455L146.395 114.395L132.499 114.395L132.499 126.455L129.907 126.455L129.907 100.967Z"/>
<path d="M159.575 126.455L156.731 126.455L167.747 100.967L170.267 100.967L181.211 126.455L178.331 126.455L175.523 119.759L162.347 119.759L159.575 126.455ZM163.319 117.383L174.551 117.383L168.935 103.847L163.319 117.383Z"/>
<path d="M197.919 127.103C195.999 127.103 194.427 126.773 193.203 126.113C191.979 125.453 191.007 124.619 190.287 123.611C189.567 122.603 189.069 121.505 188.793 120.317C188.517 119.129 188.379 118.007 188.379 116.951L188.379 100.967L190.971 100.967L190.971 116.663C190.971 117.695 191.091 118.697 191.331 119.669C191.571 120.641 191.961 121.505 192.501 122.261C193.041 123.017 193.755 123.629 194.643 124.097C195.531 124.565 196.623 124.799 197.919 124.799C199.215 124.799 200.307 124.565 201.195 124.097C202.083 123.629 202.797 123.017 203.337 122.261C203.877 121.505 204.267 120.641 204.507 119.669C204.747 118.697 204.867 117.695 204.867 116.663L204.867 100.967L207.459 100.967L207.459 116.951C207.459 118.007 207.321 119.129 207.045 120.317C206.769 121.505 206.271 122.603 205.551 123.611C204.831 124.619 203.853 125.453 202.617 126.113C201.381 126.773 199.815 127.103 197.919 127.103Z"/>
<path d="M230.431 105.071C229.879 104.303 229.171 103.685 228.307 103.217C227.443 102.749 226.399 102.515 225.175 102.515C224.551 102.515 223.915 102.611 223.267 102.803C222.619 102.995 222.031 103.289 221.503 103.685C220.975 104.081 220.549 104.579 220.225 105.179C219.901 105.779 219.739 106.487 219.739 107.303C219.739 108.119 219.895 108.791 220.207 109.319C220.519 109.847 220.933 110.297 221.449 110.669C221.965 111.041 222.553 111.347 223.213 111.587C223.873 111.827 224.563 112.067 225.283 112.307C226.171 112.595 227.065 112.907 227.965 113.243C228.865 113.579 229.675 114.017 230.395 114.557C231.115 115.097 231.703 115.781 232.159 116.609C232.615 117.437 232.843 118.487 232.843 119.759C232.843 121.031 232.597 122.129 232.105 123.053C231.613 123.977 230.977 124.739 230.197 125.339C229.417 125.939 228.529 126.383 227.533 126.671C226.537 126.959 225.535 127.103 224.527 127.103C223.759 127.103 222.991 127.025 222.223 126.869C221.455 126.713 220.723 126.479 220.027 126.167C219.331 125.855 218.683 125.459 218.083 124.979C217.483 124.499 216.955 123.947 216.499 123.323L218.731 121.667C219.283 122.579 220.057 123.341 221.053 123.953C222.049 124.565 223.219 124.871 224.563 124.871C225.211 124.871 225.871 124.769 226.543 124.565C227.215 124.361 227.821 124.049 228.361 123.629C228.901 123.209 229.345 122.693 229.693 122.081C230.041 121.469 230.215 120.755 230.215 119.939C230.215 119.051 230.041 118.313 229.693 117.725C229.345 117.137 228.883 116.645 228.307 116.249C227.731 115.853 227.071 115.523 226.327 115.259C225.583 114.995 224.803 114.731 223.987 114.467C223.147 114.203 222.319 113.903 221.503 113.567C220.687 113.231 219.955 112.793 219.307 112.253C218.659 111.713 218.137 111.047 217.741 110.255C217.345 109.463 217.147 108.491 217.147 107.339C217.147 106.115 217.393 105.059 217.885 104.171C218.377 103.283 219.019 102.551 219.811 101.975C220.603 101.399 221.479 100.979 222.439 100.715C223.399 100.451 224.347 100.319 225.283 100.319C227.011 100.319 228.487 100.625 229.711 101.237C230.935 101.849 231.859 102.575 232.483 103.415L230.431 105.071Z"/>
</g>
</g>
</svg>
