<?xml version="1.0" encoding="UTF-8" standalone="no"?>
<!DOCTYPE svg PUBLIC "-//W3C//DTD SVG 1.1//EN" "http://www.w3.org/Graphics/SVG/1.1/DTD/svg11.dtd">
<!-- Created with Vectornator (http://vectornator.io/) -->
<svg height="100%" stroke-miterlimit="10" style="fill-rule:nonzero;clip-rule:evenodd;stroke-linecap:round;stroke-linejoin:round;" version="1.1" viewBox="0 0 79.38 79.38" width="100%" xml:space="preserve" xmlns="http://www.w3.org/2000/svg" xmlns:vectornator="http://vectornator.io" xmlns:xlink="http://www.w3.org/1999/xlink">
<defs/>
<clipPath id="ArtboardFrame">
<rect height="79.38" width="79.38" x="0" y="0"/>
</clipPath>
<g clip-path="url(#ArtboardFrame)" id="Layer-1" vectornator:layerName="Layer 1">
<path d="M31.5 1.78571C29.1667 3.45238 27.8333 5.61905 27.5 8.28571C27.1667 10.9524 28 13.2857 30 15.2857C32 17.2857 34.1667 18.2857 36.5 18.2857C38.8333 18.2857 40.8333 17.619 42.5 16.2857C44.1667 14.9524 45.1667 12.9524 45.5 10.2857C45.8333 7.61905 45.5 5.45238 44.5 3.78571C43.5 2.11905 41.6667 0.952381 39 0.285714C36.3333-0.380952 33.8333 0.119048 31.5 1.78571ZM17.5 12.2857C15.1667 13.619 12.3333 16.4524 9 20.7857C5.66667 25.119 3.5 28.9524 2.5 32.2857C1.5 35.619 1 38.619 1 41.2857C1 43.9524 1.33333 45.619 2 46.2857C2.66667 46.9524 3.5 46.9524 4.5 46.2857C5.5 45.619 6.33333 42.4524 7 36.7857C7.66667 31.119 9.5 26.4524 12.5 22.7857C15.5 19.119 18.3333 16.4524 21 14.7857C22.3333 13.9524 23.6667 13.119 25 12.2857C24.3333 11.9524 23.6667 11.619 23 11.2857C21.6667 10.619 19.8333 10.9524 17.5 12.2857ZM48.5 11.7857C48.1667 12.7857 49.8333 14.4524 53.5 16.7857C57.1667 19.119 59.8333 21.4524 61.5 23.7857C63.1667 26.119 64.5 28.7857 65.5 31.7857C66.5 34.7857 67 37.9524 67 41.2857C67 44.619 67.5 46.4524 68.5 46.7857C69 46.9524 69.5 47.119 70 47.2857C70.1667 45.119 70.3333 42.9524 70.5 40.7857C70.8333 36.4524 70.1667 32.2857 68.5 28.2857C66.8333 24.2857 64.3333 20.619 61 17.2857C57.6667 13.9524 54.8333 11.9524 52.5 11.2857C50.1667 10.619 48.8333 10.7857 48.5 11.7857ZM24.5 40.2857C20.8333 41.619 18.5 42.7857 17.5 43.7857C16.5 44.7857 16.1667 45.7857 16.5 46.7857C16.6667 47.2857 16.8333 47.7857 17 48.2857C19.5 47.2857 22 46.2857 24.5 45.2857C29.5 43.2857 33.6667 42.2857 37 42.2857C40.3333 42.2857 44 43.2857 48 45.2857C52 47.2857 54.6667 48.119 56 47.7857C56.6667 47.619 57.3333 47.4524 58 47.2857C57.5 46.4524 57 45.619 56.5 44.7857C55.5 43.119 53.8333 41.7857 51.5 40.7857C49.1667 39.7857 45 39.119 39 38.7857C33 38.4524 28.1667 38.9524 24.5 40.2857ZM3 50.7857C1 52.4524 0 54.7857 0 57.7857C0 60.7857 0.833333 63.119 2.5 64.7857C4.16667 66.4524 6.33333 67.2857 9 67.2857C11.6667 67.2857 13.6667 66.7857 15 65.7857C16.3333 64.7857 17.3333 62.7857 18 59.7857C18.6667 56.7857 18 54.119 16 51.7857C14 49.4524 11.8333 48.2857 9.5 48.2857C7.16667 48.2857 5 49.119 3 50.7857ZM58.5 51.7857C56.8333 53.4524 56.1667 55.9524 56.5 59.2857C56.8333 62.619 58.1667 64.9524 60.5 66.2857C62.8333 67.619 65.1667 67.9524 67.5 67.2857C69.8333 66.619 71.6667 65.119 73 62.7857C74.3333 60.4524 74.6667 58.119 74 55.7857C73.3333 53.4524 72.3333 51.7857 71 50.7857C69.6667 49.7857 67.6667 49.2857 65 49.2857C62.3333 49.2857 60.1667 50.119 58.5 51.7857ZM10 52.7857C12 53.119 13.1667 54.119 13.5 55.7857C13.6667 56.619 13.8333 57.4524 14 58.2857C12.3333 58.2857 10.6667 58.2857 9 58.2857C7.33333 58.2857 5.66667 58.2857 4 58.2857C4.5 57.2857 5 56.2857 5.5 55.2857C6.5 53.2857 8 52.4524 10 52.7857ZM65 53.2857C66.3333 53.2857 67.5 53.7857 68.5 54.7857C69.5 55.7857 69.6667 57.4524 69 59.7857C68.3333 62.119 67 63.2857 65 63.2857C63 63.2857 61.6667 62.7857 61 61.7857C60.3333 60.7857 60 59.619 60 58.2857C60 56.9524 60.5 55.7857 61.5 54.7857C62.5 53.7857 63.6667 53.2857 65 53.2857ZM16 69.2857C16 70.619 18.5 72.2857 23.5 74.2857C28.5 76.2857 33.5 77.119 38.5 76.7857C43.5 76.4524 47.8333 75.2857 51.5 73.2857C55.1667 71.2857 56.8333 69.7857 56.5 68.7857C56.1667 67.7857 55.5 67.2857 54.5 67.2857C53.5 67.2857 52.1667 67.9524 50.5 69.2857C48.8333 70.619 45.8333 71.619 41.5 72.2857C37.1667 72.9524 31.8333 72.2857 25.5 70.2857C22.3333 69.2857 19.1667 68.2857 16 67.2857C16 67.9524 16 68.619 16 69.2857Z" fill="#000000" fill-rule="nonzero" opacity="1" stroke="none"/>
</g>
</svg>
