<?xml version="1.0" encoding="UTF-8"?>
<svg width="31px" height="31px" viewBox="0 0 31 31" version="1.1" xmlns="http://www.w3.org/2000/svg" xmlns:xlink="http://www.w3.org/1999/xlink">
    <title>mustache-plain</title>
    <g id="mustache-plain" stroke="none" stroke-width="1" fill="none" fill-rule="evenodd">
        <g id="}" transform="translate(15.593750, 15.039063) rotate(-90.000000) translate(-15.593750, -15.039063) translate(9.796875, 0.429688)" fill="#000000" fill-rule="nonzero">
            <path d="M11.59375,15.625 C10.875,15.6770833 10.2057292,15.7734375 9.5859375,15.9140625 C8.96614583,16.0546875 8.453125,16.2708333 8.046875,16.5625 C7.61979167,16.8645833 7.296875,17.2630208 7.078125,17.7578125 C6.859375,18.2526042 6.75,18.875 6.75,19.625 C6.75,20.1979167 6.7890625,20.8463542 6.8671875,21.5703125 C6.9453125,22.2942708 6.984375,22.96875 6.984375,23.59375 C6.984375,24.7708333 6.83072917,25.7161458 6.5234375,26.4296875 C6.21614583,27.1432292 5.76041667,27.7135417 5.15625,28.140625 C4.57291667,28.546875 3.84114583,28.828125 2.9609375,28.984375 C2.08072917,29.140625 1.09375,29.21875 0,29.21875 L0,27.96875 C0.427083333,27.9479167 0.901041667,27.9010417 1.421875,27.828125 C1.94270833,27.7552083 2.390625,27.609375 2.765625,27.390625 C3.171875,27.1510417 3.484375,26.8020833 3.703125,26.34375 C3.921875,25.8854167 4.03125,25.2864583 4.03125,24.546875 L4.03125,20.90625 C4.03125,19.8020833 4.16666667,18.890625 4.4375,18.171875 C4.70833333,17.453125 5.08854167,16.875 5.578125,16.4375 C6.05729167,16.0104167 6.62760417,15.6770833 7.2890625,15.4375 C7.95052083,15.1979167 8.65625,15.0052083 9.40625,14.859375 L9.40625,14.375 C8.61458333,14.2291667 7.89583333,14.0338542 7.25,13.7890625 C6.60416667,13.5442708 6.046875,13.2135417 5.578125,12.796875 C5.06770833,12.3489583 4.68229167,11.765625 4.421875,11.046875 C4.16145833,10.328125 4.03125,9.421875 4.03125,8.328125 L4.03125,4.671875 C4.03125,3.90104167 3.9140625,3.2890625 3.6796875,2.8359375 C3.4453125,2.3828125 3.140625,2.05208333 2.765625,1.84375 C2.44270833,1.66666667 2.00520833,1.53385417 1.453125,1.4453125 C0.901041667,1.35677083 0.416666667,1.30208333 0,1.28125 L0,0 C1.07291667,0 2.05208333,0.0807291667 2.9375,0.2421875 C3.82291667,0.403645833 4.5625,0.697916667 5.15625,1.125 C5.76041667,1.5625 6.21614583,2.15104167 6.5234375,2.890625 C6.83072917,3.63020833 6.984375,4.54166667 6.984375,5.625 C6.984375,6.25 6.9453125,6.921875 6.8671875,7.640625 C6.7890625,8.359375 6.75,9.015625 6.75,9.609375 C6.75,10.3177083 6.8515625,10.9192708 7.0546875,11.4140625 C7.2578125,11.9088542 7.58333333,12.3177083 8.03125,12.640625 C8.41666667,12.9114583 8.92447917,13.125 9.5546875,13.28125 C10.1848958,13.4375 10.8645833,13.546875 11.59375,13.609375 L11.59375,15.625 Z" id="Path"></path>
        </g>
    </g>
</svg>