<?xml version="1.0" encoding="UTF-8"?>
<svg width="32px" height="32px" viewBox="0 0 32 32" version="1.1" xmlns="http://www.w3.org/2000/svg" xmlns:xlink="http://www.w3.org/1999/xlink">
    <title>springboot</title>
    <g id="springboot" stroke="none" stroke-width="1" fill="none" fill-rule="evenodd">
        <path d="M31.5933924,14.6206989 L25.3015213,3.72772379 C24.6375134,2.71065865 23.5299166,2.0694184 22.3172711,2 L9.69657224,2 C8.48392675,2.0694184 7.37632996,2.71065865 6.71232206,3.72772379 L0.411211776,14.6206989 C-0.137070592,15.7040124 -0.137070592,16.9835938 0.411211776,18.0669073 L6.71232206,28.9875999 C7.37632996,30.004665 8.48392675,30.6459053 9.69657224,30.7153237 L22.2987928,30.7153237 C23.5114383,30.6459053 24.6190351,30.004665 25.283043,28.9875999 L31.5841533,18.0669073 C32.1353422,16.9850643 32.1387727,15.7054818 31.5933924,14.6206989 L31.5933924,14.6206989 Z M14.6395253,8.01469618 C14.5981571,7.52478349 14.8361312,7.05331224 15.2548482,6.79562654 C15.6735651,6.53794084 16.2016908,6.53794084 16.6204077,6.79562654 C17.0391246,7.05331224 17.2770988,7.52478349 17.2357306,8.01469618 L17.2357306,15.7755945 C17.2770988,16.2655072 17.0391246,16.7369784 16.6204077,16.9946641 C16.2016908,17.2523498 15.6735651,17.2523498 15.2548482,16.9946641 C14.8361312,16.7369784 14.5981571,16.2655072 14.6395253,15.7755945 L14.6395253,8.01469618 Z M15.9422475,24.5897575 C12.144938,24.5858113 8.77699822,22.150307 7.58373514,18.5453523 C6.39047206,14.9403976 7.6401468,10.9764333 10.6851629,8.70763353 C11.012688,8.4263923 11.4697242,8.35130248 11.8700173,8.51296514 C12.2703103,8.67462781 12.5470186,9.04604829 12.5873761,9.4758629 C12.6277336,9.90567751 12.4250015,10.3221151 12.0617984,10.5554665 C9.64885876,12.3857504 8.82918654,15.6453897 10.0893745,18.3993221 C11.3495624,21.1532545 14.3520848,22.6638735 17.3145152,22.0344107 C20.2769455,21.4049479 22.4058338,18.803997 22.4373803,15.7755945 C22.4323291,13.7081596 21.4488379,11.7651648 19.78574,10.5369881 C19.3253513,10.1416588 19.2494417,9.45745397 19.6119808,8.97082431 C19.9745199,8.48419464 20.6518358,8.36114278 21.1623756,8.6891552 C24.2262993,10.9469737 25.4949526,14.9164101 24.3084244,18.532696 C23.1218963,22.1489819 19.7482111,24.5952353 15.9422475,24.5989967 L15.9422475,24.5897575 Z" id="Shape" fill="#000000" fill-rule="nonzero"></path>
    </g>
</svg>