<?xml version="1.0" encoding="utf-8"?>
<!DOCTYPE svg PUBLIC "-//W3C//DTD SVG 1.1//EN" "http://www.w3.org/Graphics/SVG/1.1/DTD/svg11.dtd">
<svg version="1.1" id="Layer_1" xmlns="http://www.w3.org/2000/svg" xmlns:xlink="http://www.w3.org/1999/xlink" x="0px" y="0px"
	 viewBox="0 0 30 30" style="enable-background:new 0 0 32 32;" xml:space="preserve">
<path fill="#414142" d="M1.7,23.2c-0.6,0.8-1.1,1.4-1.4,2.1C0.2,25.4,0,25.9,0,26.2v0.4C0,27.4,0.6,28,1.4,28h21.2
	c0.8,0,1.4-0.6,1.4-1.4V10.3C12.4,12.3,5.3,18.6,1.7,23.2z"/>
<path fill="#f58220" d="M22.6,4H1.4C0.6,4,0,4.6,0,5.4v12.7c4.2-4.4,11.7-9.2,23.1-10.6c0.3,0,0.9-0.2,0.9-1V5.4
	C24,4.6,23.4,4,22.6,4z"/>
<path fill="#f58220" d="M148.9,11.4L148.9,11.4c0.4-0.1,0.5-0.3,0.5-0.6c0-0.2-0.1-0.4-0.2-0.5c-0.1-0.1-0.4-0.2-0.6-0.2h-0.7v2.2
	h0.4v-0.9h0.2c0.1,0,0.2,0.1,0.3,0.3l0.2,0.6h0.5l-0.3-0.6C149.1,11.6,149,11.5,148.9,11.4z M148.5,11.2h-0.3v-0.6h0.3
	c0.3,0,0.4,0.1,0.4,0.3c0,0.1,0,0.2-0.1,0.2C148.8,11.2,148.7,11.2,148.5,11.2z"/>
<path fill="#f58220" d="M149.9,10.1c-0.3-0.3-0.8-0.5-1.3-0.5c-0.5,0-1,0.2-1.3,0.5c-0.4,0.3-0.5,0.8-0.5,1.3c0,0.5,0.2,0.9,0.5,1.3
	c0.3,0.3,0.8,0.5,1.3,0.5c0.5,0,0.9-0.2,1.3-0.5c0.4-0.3,0.5-0.8,0.5-1.3C150.4,10.8,150.2,10.4,149.9,10.1z M149.6,12.4
	c-0.3,0.3-0.7,0.4-1.1,0.4c-0.4,0-0.8-0.1-1.1-0.4c-0.3-0.3-0.4-0.7-0.4-1.1c0-0.4,0.1-0.8,0.4-1.1c0.3-0.3,0.7-0.4,1.1-0.4
	c0.4,0,0.8,0.1,1.1,0.4c0.3,0.3,0.4,0.7,0.4,1.1C150.1,11.8,149.9,12.1,149.6,12.4z"/>
</svg>
