<?xml version="1.0" encoding="UTF-8"?>
<!DOCTYPE svg PUBLIC "-//W3C//DTD SVG 1.1//EN" "http://www.w3.org/Graphics/SVG/1.1/DTD/svg11.dtd">
<!-- Creator: CorelDRAW -->
<svg xmlns="http://www.w3.org/2000/svg" xml:space="preserve" width="1.70666in" height="1.70666in" version="1.1" style="shape-rendering:geometricPrecision; text-rendering:geometricPrecision; image-rendering:optimizeQuality; fill-rule:evenodd; clip-rule:evenodd"
viewBox="0 0 1707 1707"
 xmlns:xlink="http://www.w3.org/1999/xlink">
 <defs>
  <style type="text/css">
   <![CDATA[
    .fil0 {fill:black}
   ]]>
  </style>
 </defs>
 <g id="Layer_x0020_1">
  <metadata id="CorelCorpID_0Corel-Layer"/>
  <g id="_383537648">
   <g>
    <g>
     <g>
      <path class="fil0" d="M540 1123l-447 0c-36,0 -66,-30 -66,-66l0 -174c0,-36 30,-66 66,-66l447 0c36,0 67,30 67,66l0 174c0,36 -31,66 -67,66zm-447 -260c-10,0 -20,10 -20,20l0 174c0,10 10,20 20,20l447 0c10,0 20,-10 20,-20l0 -174c0,-10 -10,-20 -20,-20l-447 0z"/>
     </g>
     <g>
      <path class="fil0" d="M540 713l-447 0c-36,0 -66,-30 -66,-66l0 -170c0,-36 30,-67 66,-67l447 0c36,0 67,31 67,67l0 170c0,36 -31,66 -67,66zm-447 -256c-10,0 -20,9 -20,20l0 170c0,10 10,20 20,20l447 0c10,0 20,-10 20,-20l0 -170c0,-11 -10,-20 -20,-20l-447 0z"/>
     </g>
     <g>
      <path class="fil0" d="M540 307l-447 0c-36,0 -66,-31 -66,-67l0 -173c0,-36 30,-67 66,-67l447 0c36,0 67,31 67,67l0 173c0,36 -31,67 -67,67zm-447 -260c-10,0 -20,9 -20,20l0 173c0,10 10,20 20,20l447 0c10,0 20,-10 20,-20l0 -173c0,-11 -10,-20 -20,-20l-447 0z"/>
     </g>
     <g>
      <path class="fil0" d="M120 210c-13,0 -23,-10 -23,-23l0 -67c0,-13 10,-23 23,-23 13,0 23,10 23,23l0 67c0,13 -10,23 -23,23z"/>
     </g>
     <g>
      <path class="fil0" d="M177 210c-13,0 -24,-10 -24,-23l0 -67c0,-13 11,-23 24,-23 13,0 23,10 23,23l0 67c0,13 -10,23 -23,23z"/>
     </g>
     <g>
      <path class="fil0" d="M233 210c-13,0 -23,-10 -23,-23l0 -67c0,-13 10,-23 23,-23 13,0 24,10 24,23l0 67c0,13 -11,23 -24,23z"/>
     </g>
     <g>
      <path class="fil0" d="M513 177l-183 0c-13,0 -23,-11 -23,-24 0,-13 10,-23 23,-23l183 0c13,0 24,10 24,23 0,13 -11,24 -24,24z"/>
     </g>
     <g>
      <path class="fil0" d="M120 620c-13,0 -23,-10 -23,-23l0 -70c0,-13 10,-24 23,-24 13,0 23,11 23,24l0 70c0,13 -10,23 -23,23z"/>
     </g>
     <g>
      <path class="fil0" d="M177 620c-13,0 -24,-10 -24,-23l0 -70c0,-13 11,-24 24,-24 13,0 23,11 23,24l0 70c0,13 -10,23 -23,23z"/>
     </g>
     <g>
      <path class="fil0" d="M233 620c-13,0 -23,-10 -23,-23l0 -70c0,-13 10,-24 23,-24 13,0 24,11 24,24l0 70c0,13 -11,23 -24,23z"/>
     </g>
     <g>
      <path class="fil0" d="M513 583l-183 0c-13,0 -23,-10 -23,-23 0,-13 10,-23 23,-23l183 0c13,0 24,10 24,23 0,13 -11,23 -24,23z"/>
     </g>
     <g>
      <path class="fil0" d="M120 1027c-13,0 -23,-11 -23,-24l0 -66c0,-13 10,-24 23,-24 13,0 23,11 23,24l0 66c0,13 -10,24 -23,24z"/>
     </g>
     <g>
      <path class="fil0" d="M177 1027c-13,0 -24,-11 -24,-24l0 -66c0,-13 11,-24 24,-24 13,0 23,11 23,24l0 66c0,13 -10,24 -23,24z"/>
     </g>
     <g>
      <path class="fil0" d="M233 1027c-13,0 -23,-11 -23,-24l0 -66c0,-13 10,-24 23,-24 13,0 24,11 24,24l0 66c0,13 -11,24 -24,24z"/>
     </g>
     <g>
      <path class="fil0" d="M513 993l-183 0c-13,0 -23,-10 -23,-23 0,-13 10,-23 23,-23l183 0c13,0 24,10 24,23 0,13 -11,23 -24,23z"/>
     </g>
    </g>
    <g>
     <g>
      <path class="fil0" d="M1657 1340l-1607 0c-13,0 -23,-11 -23,-24l0 -116c0,-13 10,-23 23,-23l1607 0c13,0 23,10 23,23l0 116c0,13 -10,24 -23,24zm-1584 -47l1560 0 0 -70 -1560 0 0 70z"/>
     </g>
     <g>
      <path class="fil0" d="M1036 1707l-366 0c-8,0 -16,-5 -20,-11 -5,-7 -5,-16 -1,-23l183 -367c4,-8 12,-13 21,-13 9,0 17,5 21,13l183 367c4,7 4,16 -1,23 -4,6 -12,11 -20,11zm-328 -47l290 0 -145 -291 -145 291z"/>
     </g>
    </g>
    <g>
     <g>
      <path class="fil0" d="M1613 1123l-447 0c-36,0 -66,-30 -66,-66l0 -174c0,-36 30,-66 66,-66l447 0c36,0 67,30 67,66l0 174c0,36 -31,66 -67,66zm-447 -260c-10,0 -20,10 -20,20l0 174c0,10 10,20 20,20l447 0c10,0 20,-10 20,-20l0 -174c0,-10 -10,-20 -20,-20l-447 0z"/>
     </g>
     <g>
      <path class="fil0" d="M1613 713l-447 0c-36,0 -66,-30 -66,-66l0 -170c0,-36 30,-67 66,-67l447 0c36,0 67,31 67,67l0 170c0,36 -31,66 -67,66zm-447 -256c-10,0 -20,9 -20,20l0 170c0,10 10,20 20,20l447 0c10,0 20,-10 20,-20l0 -170c0,-11 -10,-20 -20,-20l-447 0z"/>
     </g>
     <g>
      <path class="fil0" d="M1613 307l-447 0c-36,0 -66,-31 -66,-67l0 -173c0,-36 30,-67 66,-67l447 0c36,0 67,31 67,67l0 173c0,36 -31,67 -67,67zm-447 -260c-10,0 -20,9 -20,20l0 173c0,10 10,20 20,20l447 0c10,0 20,-10 20,-20l0 -173c0,-11 -10,-20 -20,-20l-447 0z"/>
     </g>
     <g>
      <path class="fil0" d="M1193 210c-13,0 -23,-10 -23,-23l0 -67c0,-13 10,-23 23,-23 13,0 23,10 23,23l0 67c0,13 -10,23 -23,23z"/>
     </g>
     <g>
      <path class="fil0" d="M1250 210c-13,0 -24,-10 -24,-23l0 -67c0,-13 11,-23 24,-23 13,0 23,10 23,23l0 67c0,13 -10,23 -23,23z"/>
     </g>
     <g>
      <path class="fil0" d="M1306 210c-13,0 -23,-10 -23,-23l0 -67c0,-13 10,-23 23,-23 13,0 24,10 24,23l0 67c0,13 -11,23 -24,23z"/>
     </g>
     <g>
      <path class="fil0" d="M1586 177l-186 0c-13,0 -24,-11 -24,-24 0,-13 11,-23 24,-23l186 0c13,0 24,10 24,23 0,13 -11,24 -24,24z"/>
     </g>
     <g>
      <path class="fil0" d="M1193 620c-13,0 -23,-10 -23,-23l0 -70c0,-13 10,-24 23,-24 13,0 23,11 23,24l0 70c0,13 -10,23 -23,23z"/>
     </g>
     <g>
      <path class="fil0" d="M1250 620c-13,0 -24,-10 -24,-23l0 -70c0,-13 11,-24 24,-24 13,0 23,11 23,24l0 70c0,13 -10,23 -23,23z"/>
     </g>
     <g>
      <path class="fil0" d="M1306 620c-13,0 -23,-10 -23,-23l0 -70c0,-13 10,-24 23,-24 13,0 24,11 24,24l0 70c0,13 -11,23 -24,23z"/>
     </g>
     <g>
      <path class="fil0" d="M1586 583l-186 0c-13,0 -24,-10 -24,-23 0,-13 11,-23 24,-23l186 0c13,0 24,10 24,23 0,13 -11,23 -24,23z"/>
     </g>
     <g>
      <path class="fil0" d="M1193 1027c-13,0 -23,-11 -23,-24l0 -66c0,-13 10,-24 23,-24 13,0 23,11 23,24l0 66c0,13 -10,24 -23,24z"/>
     </g>
     <g>
      <path class="fil0" d="M1250 1027c-13,0 -24,-11 -24,-24l0 -66c0,-13 11,-24 24,-24 13,0 23,11 23,24l0 66c0,13 -10,24 -23,24z"/>
     </g>
     <g>
      <path class="fil0" d="M1306 1027c-13,0 -23,-11 -23,-24l0 -66c0,-13 10,-24 23,-24 13,0 24,11 24,24l0 66c0,13 -11,24 -24,24z"/>
     </g>
     <g>
      <path class="fil0" d="M1586 993l-186 0c-13,0 -24,-10 -24,-23 0,-13 11,-23 24,-23l186 0c13,0 24,10 24,23 0,13 -11,23 -24,23z"/>
     </g>
    </g>
   </g>
  </g>
 </g>
</svg>
