<?xml version="1.0" encoding="UTF-8" standalone="no"?>
<!DOCTYPE svg PUBLIC "-//W3C//DTD SVG 1.1//EN" "http://www.w3.org/Graphics/SVG/1.1/DTD/svg11.dtd">
<!-- Created with Vectornator (http://vectornator.io/) -->
<svg height="247.1999969482422px" stroke-miterlimit="10" style="fill-rule:nonzero;clip-rule:evenodd;stroke-linecap:round;stroke-linejoin:round;" version="1.1" viewBox="0 0 247.2 247.2" width="247.1999969482422px" xml:space="preserve" xmlns="http://www.w3.org/2000/svg" xmlns:xlink="http://www.w3.org/1999/xlink">
<defs>
<path d="M21.2 137.669L123.403 147.912L225.605 137.669L123.403 133.435L21.2 137.669Z" id="Fill"/>
<path d="M123.717 0.00016L123.717 123.214L144.118 123.214L144.118 10.201L123.717 0.00016Z" id="Fill_2"/>
<path d="M177.779 46.269L161.992 39.9538L161.992 123.214L177.779 123.214L177.779 46.269Z" id="Fill_3"/>
<path d="M203.779 73.3058L191.826 69.721L191.826 123.214L203.779 123.214L203.779 73.3058Z" id="Fill_4"/>
<path d="M215.739 123.214L226 123.214L226 65.553L215.739 61.4538L215.739 123.214Z" id="Fill_5"/>
<path d="M123.403 147.89L123.403 184.717L225.605 159.242L225.605 137.67L123.403 147.89Z" id="Fill_6"/>
<path d="M123.403 210.225L123.403 246.587L225.999 195.291L225.999 174.047L123.403 210.225Z" id="Fill_7"/>
</defs>
<g id="Untitled">
<g opacity="1">
<g opacity="1">
<mask height="14.4772" id="StrokeMask" maskUnits="userSpaceOnUse" width="204.405" x="21.2" y="133.435">
<rect fill="#000000" height="14.4772" stroke="none" width="204.405" x="21.2" y="133.435"/>
<use fill="#ffffff" fill-rule="evenodd" stroke="none" xlink:href="#Fill"/>
</mask>
<use fill="none" mask="url(#StrokeMask)" stroke="#000000" stroke-linecap="butt" stroke-linejoin="round" stroke-width="4" xlink:href="#Fill"/>
</g>
<path d="M123.594 0.0625L21.25 51.0938L21.25 123.219L123.594 123.219L123.594 0.0625Z" fill="#000000" fill-rule="nonzero" opacity="1" stroke="none"/>
<path d="M162 39.9688L144.094 45.1875L144.094 123.219L162 123.219L162 39.9688Z" fill="#000000" fill-rule="nonzero" opacity="1" stroke="none"/>
<path d="M162 123.219L156.941 105.993" fill="#9d5025" fill-rule="nonzero" opacity="1" stroke="none"/>
<path d="M191.826 65.8082L191.826 69.8057L203.49 73.3249L203.49 123.294L215.739 123.294L215.739 61.4538L191.826 65.8082Z" fill="#000000" fill-rule="nonzero" opacity="1" stroke="none"/>
<path d="M191.812 69.7188L177.75 72.0938L177.75 123.219L191.938 123.219L191.938 69.75L191.812 69.7188Z" fill="#000000" fill-rule="nonzero" opacity="1" stroke="none"/>
<g opacity="1">
<mask height="123.214" id="StrokeMask_2" maskUnits="userSpaceOnUse" width="20.4008" x="123.717" y="0.00016">
<rect fill="#000000" height="123.214" stroke="none" width="20.4008" x="123.717" y="0.00016"/>
<use fill="#ffffff" fill-rule="evenodd" stroke="none" xlink:href="#Fill_2"/>
</mask>
<use fill="none" mask="url(#StrokeMask_2)" stroke="#000000" stroke-linecap="butt" stroke-linejoin="round" stroke-width="4" xlink:href="#Fill_2"/>
</g>
<g opacity="1">
<mask height="83.26" id="StrokeMask_3" maskUnits="userSpaceOnUse" width="15.7864" x="161.992" y="39.9538">
<rect fill="#000000" height="83.26" stroke="none" width="15.7864" x="161.992" y="39.9538"/>
<use fill="#ffffff" fill-rule="evenodd" stroke="none" xlink:href="#Fill_3"/>
</mask>
<use fill="none" mask="url(#StrokeMask_3)" stroke="#000000" stroke-linecap="butt" stroke-linejoin="round" stroke-width="4" xlink:href="#Fill_3"/>
</g>
<g opacity="1">
<mask height="53.4928" id="StrokeMask_4" maskUnits="userSpaceOnUse" width="11.9528" x="191.826" y="69.721">
<rect fill="#000000" height="53.4928" stroke="none" width="11.9528" x="191.826" y="69.721"/>
<use fill="#ffffff" fill-rule="evenodd" stroke="none" xlink:href="#Fill_4"/>
</mask>
<use fill="none" mask="url(#StrokeMask_4)" stroke="#000000" stroke-linecap="butt" stroke-linejoin="round" stroke-width="4" xlink:href="#Fill_4"/>
</g>
<g opacity="1">
<mask height="61.76" id="StrokeMask_5" maskUnits="userSpaceOnUse" width="10.2608" x="215.739" y="61.4538">
<rect fill="#000000" height="61.76" stroke="none" width="10.2608" x="215.739" y="61.4538"/>
<use fill="#ffffff" fill-rule="evenodd" stroke="none" xlink:href="#Fill_5"/>
</mask>
<use fill="none" mask="url(#StrokeMask_5)" stroke="#000000" stroke-linecap="butt" stroke-linejoin="round" stroke-width="4" xlink:href="#Fill_5"/>
</g>
<g opacity="1">
<mask height="47.0472" id="StrokeMask_6" maskUnits="userSpaceOnUse" width="102.202" x="123.403" y="137.67">
<rect fill="#000000" height="47.0472" stroke="none" width="102.202" x="123.403" y="137.67"/>
<use fill="#ffffff" fill-rule="evenodd" stroke="none" xlink:href="#Fill_6"/>
</mask>
<use fill="none" mask="url(#StrokeMask_6)" stroke="#000000" stroke-linecap="butt" stroke-linejoin="round" stroke-width="4" xlink:href="#Fill_6"/>
</g>
<g opacity="1">
<mask height="72.54" id="StrokeMask_7" maskUnits="userSpaceOnUse" width="102.596" x="123.403" y="174.047">
<rect fill="#000000" height="72.54" stroke="none" width="102.596" x="123.403" y="174.047"/>
<use fill="#ffffff" fill-rule="evenodd" stroke="none" xlink:href="#Fill_7"/>
</mask>
<use fill="none" mask="url(#StrokeMask_7)" stroke="#000000" stroke-linecap="butt" stroke-linejoin="round" stroke-width="4" xlink:href="#Fill_7"/>
</g>
<path d="M21.2468 195.513L123.404 246.587L123.404 209.958L21.2468 174.047L21.2468 195.513Z" fill="#000000" fill-rule="nonzero" opacity="1" stroke="none"/>
<path d="M21.2 159.241L123.403 184.717L123.403 147.89L21.2 137.669L21.2 159.241Z" fill="#000000" fill-rule="nonzero" opacity="1" stroke="none"/>
</g>
</g>
</svg>
