<?xml version="1.0" encoding="UTF-8" standalone="no"?>
<!DOCTYPE svg PUBLIC "-//W3C//DTD SVG 1.1//EN" "http://www.w3.org/Graphics/SVG/1.1/DTD/svg11.dtd">
<!-- Created with Vectornator (http://vectornator.io/) -->
<svg height="409.6000061035156px" stroke-miterlimit="10" style="fill-rule:nonzero;clip-rule:evenodd;stroke-linecap:round;stroke-linejoin:round;" version="1.1" viewBox="0 0 409.6 409.6" width="409.6000061035156px" xml:space="preserve" xmlns="http://www.w3.org/2000/svg" xmlns:xlink="http://www.w3.org/1999/xlink">
<defs/>
<clipPath id="ArtboardFrame">
<rect height="409.6" width="409.6" x="0" y="0"/>
</clipPath>
<g clip-path="url(#ArtboardFrame)" id="Untitled">
<path d="M379.198 327.971C365.203 327.971 353.393 337.479 349.871 350.373L323.193 350.373L323.193 350.106C323.193 345.689 319.61 342.106 315.192 342.106C310.774 342.106 307.191 345.688 307.191 350.106L307.191 358.374C307.191 362.791 310.774 366.374 315.192 366.374L349.87 366.374C353.392 379.268 365.202 388.776 379.197 388.776C395.961 388.776 409.599 375.138 409.599 358.374C409.6 341.61 395.962 327.971 379.198 327.971ZM379.198 372.774C371.257 372.774 364.797 366.314 364.797 358.374C364.797 350.433 371.258 343.973 379.198 343.973C387.138 343.973 393.598 350.434 393.598 358.374C393.598 366.314 387.138 372.774 379.198 372.774Z" fill="#000000" fill-rule="nonzero" opacity="1" stroke="none"/>
<path d="M94.4072 43.1488L59.7288 43.1488C56.2072 30.2552 44.3976 20.7472 30.4024 20.7472C13.6384 20.7472 0 34.3856 0 51.1496C0 67.9136 13.6384 81.552 30.4024 81.552C44.3968 81.552 56.2064 72.044 59.7288 59.1504L86.4072 59.1504C86.4072 63.568 89.9896 67.1512 94.408 67.1512C98.8256 67.1512 102.409 63.5688 102.409 59.1504L102.409 51.1496C102.408 46.732 98.8256 43.1488 94.4072 43.1488ZM30.4024 65.5504C22.4616 65.5504 16.0016 59.0896 16.0016 51.1496C16.0016 43.2096 22.4624 36.7488 30.4024 36.7488C38.3424 36.7488 44.8032 43.2096 44.8032 51.1496C44.8032 59.0896 38.3432 65.5504 30.4024 65.5504Z" fill="#000000" fill-rule="nonzero" opacity="1" stroke="none"/>
<path d="M352.151 169.285L335.058 169.285C332.067 158.255 327.676 147.65 321.992 137.723L334.073 125.642C336.763 122.952 338.246 119.374 338.246 115.569C338.246 111.764 336.763 108.186 334.074 105.496L304.05 75.472C301.359 72.7816 297.781 71.2992 293.976 71.2992C290.171 71.2992 286.593 72.7816 283.903 75.4712L271.822 87.5528C261.894 81.8672 251.29 77.4776 240.26 74.4872L240.26 57.3944C240.26 49.54 233.87 43.1496 226.014 43.1496L183.554 43.1496C175.698 43.1496 169.308 49.54 169.308 57.3944L169.308 74.5304C158.295 77.5312 147.71 81.9272 137.804 87.6112L125.666 75.4736C122.975 72.7832 119.397 71.3008 115.592 71.3008C111.787 71.3008 108.209 72.7832 105.519 75.4728L75.4952 105.497C72.8048 108.187 71.3224 111.766 71.3224 115.57C71.3224 119.375 72.8048 122.954 75.4944 125.643L87.6776 137.826C82.0192 147.726 77.6488 158.296 74.6688 169.286L57.4168 169.286C49.5624 169.286 43.172 175.677 43.172 183.532L43.172 225.993C43.172 233.848 49.5624 240.238 57.4168 240.238L74.712 240.238C77.7016 251.212 82.0776 261.762 87.7344 271.641L75.4952 283.881C72.8048 286.571 71.3224 290.15 71.3224 293.954C71.3224 297.759 72.8048 301.338 75.4944 304.027L105.518 334.051C108.209 336.742 111.787 338.224 115.592 338.224C119.397 338.224 122.975 336.742 125.665 334.052L137.906 321.812C147.784 327.47 158.334 331.845 169.308 334.834L169.308 352.13C169.308 359.984 175.698 366.374 183.554 366.374L226.014 366.374C233.87 366.374 240.26 359.984 240.26 352.13L240.26 334.878C251.25 331.898 261.82 327.526 271.72 321.869L283.902 334.051C286.593 336.742 290.171 338.224 293.976 338.224C297.781 338.224 301.359 336.742 304.049 334.052L334.073 304.028C336.763 301.336 338.245 297.758 338.245 293.953C338.245 290.148 336.762 286.57 334.073 283.88L321.934 271.741C327.618 261.835 332.014 251.25 335.015 240.237L352.151 240.237C360.006 240.237 366.396 233.846 366.396 225.991L366.396 183.53C366.397 175.675 360.006 169.285 352.151 169.285ZM350.395 224.237L333.665 224.237C327.188 224.237 321.526 228.596 319.896 234.839C317.146 245.362 312.954 255.458 307.44 264.842C304.163 270.418 305.078 277.514 309.663 282.1L321.517 293.954L293.975 321.495L282.078 309.598C277.5 305.02 270.411 304.1 264.841 307.363C255.462 312.853 245.381 317.021 234.878 319.751C228.625 321.377 224.258 327.041 224.258 333.525L224.258 350.374L185.308 350.374L185.308 333.485C185.308 327.008 180.948 321.346 174.705 319.715C164.218 316.974 154.154 312.801 144.794 307.311C139.218 304.043 132.127 304.959 127.545 309.541L115.59 321.495L88.0488 293.954L100.003 281.999C104.585 277.418 105.502 270.325 102.233 264.75C96.7432 255.39 92.5696 245.326 89.8288 234.838C88.196 228.595 82.5336 224.236 76.0592 224.236L59.1712 224.236L59.1712 185.286L76.02 185.286C82.504 185.286 88.168 180.919 89.7944 174.665C92.524 164.163 96.6928 154.082 102.181 144.705C105.443 139.133 104.525 132.045 99.9464 127.466L88.0496 115.569L115.591 88.0272L127.445 99.8808C132.029 104.465 139.126 105.382 144.703 102.104C154.087 96.588 164.182 92.3976 174.706 89.648C180.949 88.0176 185.308 82.3552 185.308 75.8792L185.308 59.1504L224.258 59.1504L224.258 75.84C224.258 82.324 228.625 87.988 234.878 89.6144C245.416 92.3536 255.528 96.5392 264.931 102.054C270.506 105.322 277.597 104.406 282.179 99.8248L293.975 88.0288L321.517 115.57L309.721 127.366C305.139 131.948 304.222 139.041 307.491 144.615C313.007 154.018 317.192 164.13 319.932 174.668C321.558 180.921 327.222 185.287 333.706 185.287L350.395 185.287L350.395 224.237Z" fill="#000000" fill-rule="nonzero" opacity="1" stroke="none"/>
<path d="M379.198 20.7472C365.203 20.7472 353.393 30.2552 349.871 43.1488L315.193 43.1488C310.775 43.1488 307.192 46.7312 307.192 51.1496L307.192 59.1504C307.192 63.568 310.774 67.1512 315.193 67.1512C319.61 67.1512 323.194 63.5688 323.194 59.1504L349.872 59.1504C353.394 72.044 365.203 81.552 379.198 81.552C395.962 81.552 409.601 67.9136 409.601 51.1496C409.6 34.3856 395.962 20.7472 379.198 20.7472ZM379.198 65.5504C371.257 65.5504 364.797 59.0896 364.797 51.1496C364.797 43.2096 371.258 36.7488 379.198 36.7488C387.138 36.7488 393.598 43.2096 393.598 51.1496C393.598 59.0896 387.138 65.5504 379.198 65.5504Z" fill="#000000" fill-rule="nonzero" opacity="1" stroke="none"/>
<path d="M94.4072 342.106C89.9896 342.106 86.4064 345.688 86.4064 350.106L86.4064 350.373L59.7288 350.373C56.2072 337.479 44.3976 327.971 30.4024 327.971C13.6384 327.971 0 341.61 0 358.374C0 375.138 13.6384 388.776 30.4024 388.776C44.3968 388.776 56.2064 379.268 59.7288 366.374L94.4072 366.374C98.8248 366.374 102.408 362.792 102.408 358.374L102.408 350.106C102.408 345.689 98.8256 342.106 94.4072 342.106ZM30.4024 372.774C22.4616 372.774 16.0016 366.314 16.0016 358.374C16.0016 350.433 22.4624 343.973 30.4024 343.973C38.3424 343.973 44.8032 350.434 44.8032 358.374C44.8032 366.314 38.3432 372.774 30.4024 372.774Z" fill="#000000" fill-rule="nonzero" opacity="1" stroke="none"/>
<path d="M288.423 196.89L119.68 195.813L174.748 138.135L174.748 173.279L288.576 172.89L288.423 196.89Z" fill="#000000" fill-rule="nonzero" opacity="1" stroke="none"/>
<path d="M119.83 216.529L288.576 216.714L233.814 274.683L233.628 239.54L119.804 240.529L119.83 216.529Z" fill="#000000" fill-rule="nonzero" opacity="1" stroke="none"/>
</g>
</svg>
