<?xml version="1.0" encoding="UTF-8"?>
<svg width="128px" height="128px" viewBox="0 0 128 128" version="1.1" xmlns="http://www.w3.org/2000/svg" xmlns:xlink="http://www.w3.org/1999/xlink">
    <title>memcached-plain</title>
    <g id="memcached-plain" stroke="none" stroke-width="1" fill="none" fill-rule="evenodd">
        <g id="com.castsoftware.memcached" transform="translate(-0.000000, 0.000000)" fill="#000000" fill-rule="nonzero">
            <path d="M86.311811,0 C122.507087,0 127.67748,5.17593701 127.67748,41.4090079 L127.67748,86.2689764 C127.67748,122.502047 122.507087,127.67748 86.3113071,127.67748 L41.3661732,127.67748 C5.17089764,127.67748 0,122.502047 0,86.2689764 L0,41.4085039 C0,5.17593701 5.1703937,0 41.3661732,0 L86.311811,0 Z M45.7181732,24.0645039 L27.5557795,24.0645039 C22.7236233,54.6910539 23.5588068,83.8144202 24.1986122,95.5910242 L24.247969,96.4732951 C24.3942367,99.0131149 24.5215062,100.582504 24.5548838,100.979068 L24.5634016,101.078677 L24.5634016,101.078677 L44.1806614,101.078677 C42.3140787,91.1491024 35.6177638,45.7846929 41.1882835,45.6350236 C44.1736063,46.1087244 57.8131654,84.1211969 57.8131654,84.1211969 C57.8131654,84.1211969 60.8166299,83.7472756 63.8392441,83.7472756 C66.8618583,83.7472756 69.8658268,84.1211969 69.8658268,84.1211969 C69.8658268,84.1211969 73.5539635,73.8427606 77.5143351,63.9087848 L77.9723149,62.7646898 C81.4897753,54.0142828 85.1174602,45.8531578 86.4907087,45.6350236 C92.0607244,45.7846929 85.3644094,91.1491024 83.4983307,101.078677 L103.115087,101.078677 C103.115087,101.078677 103.1164,101.063781 103.118924,101.034267 L103.130026,100.902149 C103.362483,98.095466 106.147699,62.2482545 100.122709,24.0645039 L81.960315,24.0645039 C80.3247413,24.0838161 76.5188627,29.2573771 72.802357,34.7037254 L72.2963269,35.4476417 C72.1279764,35.6958717 71.9600227,35.944207 71.7926781,36.1921889 L71.2926838,36.9346166 C67.7255284,42.241182 64.5380205,47.1725354 63.8392441,47.1725354 C63.0754652,47.1725354 59.3383993,41.2810483 55.3821613,35.4476417 L54.8761312,34.7037254 C51.1596255,29.2573771 47.3537468,24.0838161 45.7181732,24.0645039 Z M55.3274961,91.7928819 C52.7632249,91.7928819 50.6844724,93.8716344 50.6844724,96.4359055 C50.6844724,99.0001767 52.7632249,101.078929 55.3274961,101.078929 C57.8917672,101.078929 59.9705197,99.0001767 59.9705197,96.4359055 C59.9705197,93.8716344 57.8917672,91.7928819 55.3274961,91.7928819 Z M72.3512441,91.7931339 C69.7871121,91.7931339 67.7084724,93.8717735 67.7084724,96.4359055 C67.7084724,99.0000375 69.7871121,101.078677 72.3512441,101.078677 C74.9153761,101.078677 76.9940157,99.0000375 76.9940157,96.4359055 C76.9940157,93.8717735 74.9153761,91.7931339 72.3512441,91.7931339 Z" id="Path-2"></path>
        </g>
    </g>
</svg>