<?xml version="1.0" encoding="UTF-8"?>
<svg width="128px" height="128px" viewBox="0 0 128 128" version="1.1" xmlns="http://www.w3.org/2000/svg" xmlns:xlink="http://www.w3.org/1999/xlink">
    <title>memcached-original</title>
    <defs>
        <linearGradient x1="50%" y1="100%" x2="50%" y2="0%" id="linearGradient-1">
            <stop stop-color="#574C4A" offset="0%"></stop>
            <stop stop-color="#80716D" offset="100%"></stop>
        </linearGradient>
        <linearGradient x1="88.778%" y1="98.342%" x2="30.149%" y2="-8.68%" id="linearGradient-2">
            <stop stop-color="#268D83" offset="0%"></stop>
            <stop stop-color="#2EA19E" offset="100%"></stop>
        </linearGradient>
        <radialGradient cx="41.406%" cy="42.708%" fx="41.406%" fy="42.708%" r="0%" id="radialGradient-3">
            <stop stop-color="#DB7C7C" offset="0%"></stop>
            <stop stop-color="#C83737" offset="100%"></stop>
        </radialGradient>
        <radialGradient cx="44.271%" cy="42.708%" fx="44.271%" fy="42.708%" r="0%" id="radialGradient-4">
            <stop stop-color="#DB7C7C" offset="0%"></stop>
            <stop stop-color="#C83737" offset="100%"></stop>
        </radialGradient>
    </defs>
    <g id="memcached-original" stroke="none" stroke-width="1" fill="none" fill-rule="evenodd">
        <g id="com.castsoftware.memcached" fill-rule="nonzero">
            <path d="M0,86.2689764 L0,41.4085039 C0,5.17593701 5.1703937,0 41.3661732,0 L86.311811,0 C122.507087,0 127.67748,5.17593701 127.67748,41.4090079 L127.67748,86.2689764 C127.67748,122.502047 122.507087,127.67748 86.3113071,127.67748 L41.3661732,127.67748 C5.17089764,127.67748 0,122.502047 0,86.2689764 Z" id="Path" fill="url(#linearGradient-1)"></path>
            <path d="M27.5557795,24.0645039 C21.280252,63.8392441 24.5634016,101.078677 24.5634016,101.078677 L44.1806614,101.078677 C42.3140787,91.1491024 35.6177638,45.7846929 41.1882835,45.6350236 C44.1736063,46.1087244 57.8131654,84.1211969 57.8131654,84.1211969 C57.8131654,84.1211969 60.8166299,83.7472756 63.8392441,83.7472756 C66.8618583,83.7472756 69.8658268,84.1211969 69.8658268,84.1211969 C69.8658268,84.1211969 83.5053858,46.1092283 86.4907087,45.6350236 C92.0607244,45.7846929 85.3644094,91.1491024 83.4983307,101.078677 L103.115087,101.078677 C103.115087,101.078677 106.39874,63.8392441 100.122709,24.0645039 L81.960315,24.0645039 C78.5033071,24.1053228 65.3505512,47.1725354 63.8392441,47.1725354 C62.327937,47.1725354 49.1751811,24.1053228 45.7181732,24.0645039 L27.5562835,24.0645039 L27.5557795,24.0645039 Z" id="Path" fill="url(#linearGradient-2)"></path>
            <path d="M59.9705197,96.4359055 C59.9705197,99.0001767 57.8917672,101.078929 55.3274961,101.078929 C52.7632249,101.078929 50.6844724,99.0001767 50.6844724,96.4359055 C50.6844724,93.8716344 52.7632249,91.7928819 55.3274961,91.7928819 C57.8917672,91.7928819 59.9705197,93.8716344 59.9705197,96.4359055 Z" id="Path" fill="url(#radialGradient-3)"></path>
            <path d="M76.9940157,96.4359055 C76.9940157,99.0000375 74.9153761,101.078677 72.3512441,101.078677 C69.7871121,101.078677 67.7084724,99.0000375 67.7084724,96.4359055 C67.7084724,93.8717735 69.7871121,91.7931339 72.3512441,91.7931339 C74.9153761,91.7931339 76.9940157,93.8717735 76.9940157,96.4359055 Z" id="Path" fill="url(#radialGradient-4)"></path>
            <path d="M99.1979843,25.3792756 C102.029102,44.5419843 102.693291,62.9326614 102.641386,76.632189 C102.587969,90.6446614 101.785197,99.7482835 101.785197,99.7482835 L85.2726929,99.7482835 L83.4983307,101.078677 L103.115087,101.078677 C103.115087,101.078677 106.39874,63.8392441 100.122709,24.0645039 L99.1979843,25.3797795 L99.1979843,25.3792756 Z M47.2148661,24.8954961 C52.368126,30.6282835 61.2812598,45.8426457 62.5093543,45.8426457 C59.2418268,41.664 51.215622,28.3318425 47.2148661,24.8954961 Z M39.8583937,44.3046299 C34.287874,44.4548031 40.984189,89.8192126 42.8507717,99.7482835 L25.7259843,99.7482835 L24.5634016,101.078677 L44.1806614,101.078677 C42.3236535,91.1994961 35.6862992,46.2377323 41.1051339,45.6350236 C40.600189,44.8771024 40.1647874,44.3535118 39.8583937,44.3046299 L39.8583937,44.3046299 Z M85.160315,44.3051339 C82.1754961,44.7788346 68.5354331,82.7913071 68.5354331,82.7913071 C68.5354331,82.7913071 65.5319685,82.4173858 62.5093543,82.4173858 C60.7208819,82.4173858 59.1813543,82.5272441 58.1402205,82.624 L57.8126614,84.1211969 C57.8126614,84.1211969 60.8166299,83.7472756 63.839748,83.7472756 C66.8618583,83.7472756 69.8658268,84.1211969 69.8658268,84.1211969 C69.8658268,84.1211969 83.4025827,46.3581732 86.4488819,45.6350236 C86.1208189,44.8035276 85.7151496,44.319748 85.160315,44.3046299 L85.160315,44.3051339 Z" id="Shape" fill="#000000" opacity="0.1"></path>
            <path d="M27.5557795,24.0645039 C21.280252,63.8392441 24.5634016,101.078677 24.5634016,101.078677 L25.7184252,99.7795276 C25.1273071,90.9938898 23.5484724,59.2226772 28.8856693,25.3938898 L47.0485669,25.3938898 C47.4330709,25.3989291 47.9491024,25.7138898 48.5447559,26.2253858 C47.3554646,24.9020472 46.3667402,24.0715591 45.7181732,24.0634961 L27.5562835,24.0634961 L27.5557795,24.0645039 Z M81.960315,24.0645039 C78.5033071,24.1053228 65.3505512,47.1730394 63.8392441,47.1730394 C64.4555591,47.9611969 64.9559685,48.5029291 65.1696378,48.5029291 C66.6804409,48.5029291 79.8331969,25.4352126 83.2902047,25.3943937 L99.3184252,25.3943937 L100.122709,24.064 L81.960315,24.064 L81.960315,24.0645039 Z M42.4350236,46.9649134 C46.8469921,53.5906772 57.8126614,84.1211969 57.8126614,84.1211969 L58.1336693,82.6325669 C55.4265197,75.2085669 45.1099213,47.3766299 42.5181732,46.9649134 C42.4899528,46.9659213 42.4627402,46.9618898 42.4350236,46.9649134 Z M87.8205984,46.9649134 C90.7797165,54.512378 85.1779528,92.1423622 83.4983307,101.078677 L85.2772283,99.6893228 C87.5489764,86.3622047 93.0192126,47.1050079 87.8205984,46.9649134 Z" id="Shape" fill="#FFFFFF" opacity="0.3"></path>
        </g>
    </g>
</svg>