<svg xmlns="http://www.w3.org/2000/svg" xmlns:xlink="http://www.w3.org/1999/xlink" viewBox="0 0 65 50" fill="#fff" fill-rule="evenodd" stroke="#000" stroke-linecap="round" stroke-linejoin="round"><use xlink:href="#A" x=".5" y=".5"/><symbol id="A" overflow="visible"><g fill-rule="nonzero"><path d="M61.492 48.247H2.13c-.565.001-1.107-.223-1.507-.623s-.624-.942-.623-1.507V2.13C-.001 1.565.223 1.023.623.623S1.565-.001 2.13 0h59.362c.565-.001 1.108.223 1.507.623s.624.942.623 1.507V46.12c0 1.218-.912 2.127-2.127 2.127z" stroke="#353639" stroke-linejoin="miter" fill="#fafafa" stroke-width=".38"/><g stroke="none"><g fill="#353639"><use xlink:href="#C"/><use xlink:href="#C" x="-10.654"/><use xlink:href="#C" x="10.728"/><path d="M55.024 42.007H8.601c-.838 0-1.521-.686-1.521-1.521v-25.04c0-.838.686-1.521 1.521-1.521H55.02c.838 0 1.521.686 1.521 1.521v25.04a1.48 1.48 0 0 1-1.521 1.521z"/></g><path d="M16.362 18.037h30.896v1.289H16.362zm0 3.5h30.896v1.289H16.362zm0 3.5h30.896v1.289H16.362zM40.87 38.353H22.607a1.2 1.2 0 0 1-1.218-1.218v-5.324a1.2 1.2 0 0 1 1.218-1.218H40.87a1.2 1.2 0 0 1 1.218 1.218v5.327a1.2 1.2 0 0 1-1.218 1.218z"/><g fill="#353639"><path d="M30.822 36.529l-1.598-1.521c-.303-.226-.303-.687 0-.989.226-.303.686-.303.989 0l1.598 1.521c.303.226.303.686 0 .989-.291.226-.698.226-.989 0z"/><path d="M34.096 33.41l-2.208 2.965c-.226.303-.644.38-.912.151s-.38-.645-.151-.912l2.208-2.965c.226-.303.644-.38.912-.151s.38.644.151.912z"/></g></g></g></symbol><defs ><path id="C" d="M40.261 7.837a3.34 3.34 0 1 1 6.697 0 3.34 3.34 0 1 1-6.697 0z"/></defs></svg>