<?xml version="1.0" encoding="utf-8"?>
<!-- Generator: Adobe Illustrator 13.0.2, SVG Export Plug-In  -->
<!DOCTYPE svg PUBLIC "-//W3C//DTD SVG 1.1//EN" "http://www.w3.org/Graphics/SVG/1.1/DTD/svg11.dtd" [
	<!ENTITY ns_flows "http://ns.adobe.com/Flows/1.0/">
]>
<svg version="1.1"
	 xmlns="http://www.w3.org/2000/svg" xmlns:xlink="http://www.w3.org/1999/xlink" xmlns:a="http://ns.adobe.com/AdobeSVGViewerExtensions/3.0/"
	 x="0px" y="0px" width="32px" height="32px" viewBox="-2.723 -0.053 32 32" enable-background="new -2.723 -0.053 32 32"
	 xml:space="preserve">
<defs>
</defs>
<radialGradient id="SVGID_1_" cx="85.3804" cy="1343.2407" r="3.1763" gradientTransform="matrix(3.0989 0 0 0.4686 -251.7003 -599.0164)" gradientUnits="userSpaceOnUse">
	<stop  offset="0" style="stop-color:#6D963E"/>
	<stop  offset="0.1372" style="stop-color:#93B170"/>
	<stop  offset="0.2788" style="stop-color:#B3C99B"/>
	<stop  offset="0.4226" style="stop-color:#CFDCBF"/>
	<stop  offset="0.5665" style="stop-color:#E4EBDB"/>
	<stop  offset="0.7104" style="stop-color:#F3F6EF"/>
	<stop  offset="0.8547" style="stop-color:#FCFDFB"/>
	<stop  offset="1" style="stop-color:#FFFFFF"/>
</radialGradient>
<ellipse opacity="0.41" fill="url(#SVGID_1_)" cx="12.888" cy="30.405" rx="9.841" ry="1.487"/>
<linearGradient id="SVGID_2_" gradientUnits="userSpaceOnUse" x1="8.229" y1="25.7241" x2="18.4517" y2="-0.2707">
	<stop  offset="0" style="stop-color:#2B464D"/>
	<stop  offset="0.6047" style="stop-color:#425B64"/>
	<stop  offset="1" style="stop-color:#4C636E"/>
</linearGradient>
<path fill="url(#SVGID_2_)" d="M13.152,0C5.901,0,0,5.899,0,13.15c0,7.441,6.023,13.724,13.152,13.724
	c7.128,0,13.15-6.283,13.15-13.724C26.302,5.899,20.405,0,13.152,0z"/>
<path fill="#CCD584" d="M2.697,14.32c0,5.559,4.505,10.651,10.063,10.651c5.557,0,10.062-5.093,10.062-10.651
	c0-5.558-4.505-10.062-10.062-10.062C7.202,4.257,2.697,8.762,2.697,14.32z"/>
<radialGradient id="SVGID_3_" cx="20.1978" cy="95.4028" r="5.4924" gradientTransform="matrix(3.9812 0 0 3.9812 -69.8154 -360.9262)" gradientUnits="userSpaceOnUse">
	<stop  offset="0" style="stop-color:#FFFFFF"/>
	<stop  offset="0.2218" style="stop-color:#FCFDF6"/>
	<stop  offset="0.5765" style="stop-color:#F4F7DF"/>
	<stop  offset="1" style="stop-color:#E7EEBB"/>
</radialGradient>
<path fill="url(#SVGID_3_)" d="M3.454,14.773c0,5.014,4.066,9.668,9.079,9.668c5.014,0,9.081-4.654,9.081-9.668
	s-4.066-9.079-9.081-9.079C7.52,5.694,3.454,9.759,3.454,14.773z"/>
<path fill="#F7FAEF" d="M13.268,16.447c3.104-1.839,4.835-1.061,4.835-1.061c1.652,0.954,0.965,2.75,0.965,2.75
	c-1.825,5.459-6.164,2.651-6.164,2.651s-0.577-0.34-0.869-0.603C11.504,17.86,12.44,16.937,13.268,16.447z"/>
<path fill="#F7FAEF" d="M9.296,17.193c-2.232-1.864-3.709-1.469-3.709-1.469c-1.437,0.546-1.125,2.064-1.125,2.064
	c0.748,4.579,4.563,2.906,4.563,2.906s0.501-0.194,0.767-0.366C10.519,18.546,9.893,17.69,9.296,17.193z"/>
<path fill="#DFE677" d="M18.702,16.127c0,0,0.988,4.162-3.244,4.371c0,0-1.656,0.052-3.181-0.241L18.702,16.127z"/>
<path fill="#DFE677" d="M4.868,16.765c0,0-1.094,3.077,2.314,3.464c0,0,1.078,0.125,2.465,0.086L4.868,16.765z"/>
<linearGradient id="SVGID_4_" gradientUnits="userSpaceOnUse" x1="7.3652" y1="21.4224" x2="7.3652" y2="10.5422">
	<stop  offset="0" style="stop-color:#2D3638"/>
	<stop  offset="0.2708" style="stop-color:#38454B"/>
	<stop  offset="0.7271" style="stop-color:#465B64"/>
	<stop  offset="1" style="stop-color:#4C636E"/>
</linearGradient>
<path fill="url(#SVGID_4_)" d="M4.898,16.667l0.107,0.011c1.946,0.307,3.058,0.49,3.569,0.786c1.052,0.61,1.47,1.5,1.299,2.605
	c-0.029,0.181-0.104,0.262-0.226,0.245L7.82,20.028c-2.25-0.348-3.236-1.437-2.952-3.263L4.898,16.667z"/>
<linearGradient id="SVGID_5_" gradientUnits="userSpaceOnUse" x1="15.3745" y1="21.4224" x2="15.3745" y2="10.5419">
	<stop  offset="0" style="stop-color:#2D3638"/>
	<stop  offset="0.2708" style="stop-color:#38454B"/>
	<stop  offset="0.7271" style="stop-color:#465B64"/>
	<stop  offset="1" style="stop-color:#4C636E"/>
</linearGradient>
<path fill="url(#SVGID_5_)" d="M18.702,16.127l-0.14,0.002c-2.509,0.185-3.935,0.297-4.619,0.62
	c-1.399,0.665-2.028,1.752-1.925,3.172c0.016,0.235,0.102,0.347,0.258,0.336l2.351-0.167c2.901-0.206,4.27-1.485,4.102-3.836
	L18.702,16.127z"/>
<linearGradient id="SVGID_6_" gradientUnits="userSpaceOnUse" x1="10.5723" y1="21.8511" x2="10.7194" y2="15.2309">
	<stop  offset="0" style="stop-color:#2B464D"/>
	<stop  offset="0.6047" style="stop-color:#425B64"/>
	<stop  offset="1" style="stop-color:#4C636E"/>
</linearGradient>
<path fill="url(#SVGID_6_)" d="M10.351,21.742l0.018,0.007l0.326-0.183l0.087-0.077c0.111-0.136,0.13-0.273,0.053-0.414
	c-0.013-0.021-0.026-0.027-0.042-0.019l-0.226,0.122c-0.275,0.156-0.353,0.345-0.229,0.57L10.351,21.742z"/>
<linearGradient id="SVGID_7_" gradientUnits="userSpaceOnUse" x1="11.4717" y1="21.8696" x2="11.6187" y2="15.2546">
	<stop  offset="0" style="stop-color:#2B464D"/>
	<stop  offset="0.6047" style="stop-color:#425B64"/>
	<stop  offset="1" style="stop-color:#4C636E"/>
</linearGradient>
<path fill="url(#SVGID_7_)" d="M11.245,21.048c-0.128,0.223-0.054,0.414,0.22,0.572l0.223,0.128
	c0.015,0.009,0.029,0.002,0.042-0.019c0.078-0.139,0.063-0.275-0.045-0.413l-0.089-0.081l-0.322-0.185l-0.018,0.004L11.245,21.048z"
	/>
</svg>
