<?xml version="1.0" encoding="utf-8"?>
<!-- Generator: Adobe Illustrator 16.0.1, SVG Export Plug-In . SVG Version: 6.00 Build 0)  -->
<!DOCTYPE svg PUBLIC "-//W3C//DTD SVG 1.1//EN" "http://www.w3.org/Graphics/SVG/1.1/DTD/svg11.dtd">
<svg version="1.1" id="Layer_1" xmlns="http://www.w3.org/2000/svg" xmlns:xlink="http://www.w3.org/1999/xlink" x="0px" y="0px"
	 width="600px" height="220px" viewBox="16.25 238.938 600 220" enable-background="new 16.25 238.938 600 220"
	 xml:space="preserve">
<g>
	<g>
		<g>
			<path fill="none" d="M459.736,325.778c-11.352,0-15.928,11.015-16.263,21.176h32.524
				C475.998,336.285,471.761,325.778,459.736,325.778z"/>
			<path fill="none" d="M498.563,366.803c0-0.863,0.018-1.522,0.05-2.027v-2.067h-55.99c-0.848,11.522,6.102,25.076,18.971,25.076
				c8.981,0,13.895-7.291,15.762-15.245l10.368,1.887l0.046,0.01C488.505,374.566,498.563,376.198,498.563,366.803z"/>
			<path fill="none" d="M564.387,327.138c-13.894,0-16.771,17.62-16.771,28.123c0,11.349,2.202,29.639,17.276,29.639
				c7.458,0,12.371-4.903,16.268-10.837v-36.592C576.756,332.218,571.671,327.138,564.387,327.138z"/>
			<path fill="#4D4D4F" d="M581.161,272.421v46.244c-7.12-6.266-13.218-11.349-23.38-11.349c-7.922,0-18.264,4.021-25.597,14.154
				c-8.478,4.672-8.481-4.956-8.481-4.956l-0.018,0.049v-44.142h-25.073v42.459c-0.315,3.453-1.049,5.401-2.78,5.998
				c-3.683,1.271-5.905-1.364-5.905-1.364l0.021,0.092c-7.518-9.191-18.442-12.289-30.893-12.289c-9.062,0-16.637,2.59-22.743,6.938
				c-1.853,1.086-3.525,1.578-5.166,0.593c-2.33-1.396-2.281-3.818-2.051-5.126l10.529-37.427h-29.107l-17.136,74.388
				c-1.232,4.298-2.537,5.726-5.012,5.718c-3.618-0.01-4.868-3.871-5.178-5.108l-15.565-74.997h-30.165l-14.156,72.182l0.011-0.131
				c-0.73,3.291-2.152,6.524-5.237,6.497c-3.211-0.027-4.513-3.046-4.974-4.623l-17.046-73.925h-30.353l38.797,136.83h26.553
				l16.521-80.017c0,0,1.152-5.022,5.017-5.022c3.126,0,3.897,2.031,4.638,5.022l16.522,80.017h27.377l10.653-37.867l-0.008,0.054
				c0,0,0.805-2.487,2.772-2.802c1.198-0.188,3.462-0.286,4.486,2.882c4.447,19.156,17.865,34.86,40.02,34.86
				c11.065,0,22.191-4.062,30.373-11.575l0.001,0.018c0.031-0.035,0.06-0.066,0.092-0.102c0.589-0.545,1.163-1.108,1.722-1.689
				c1.819-1.5,3.24-1.612,5.058-0.881c1.779,0.717,2.219,2.713,2.312,4.014v8.174h25.073v-10.875
				c0.18-1.387,0.835-3.417,3.127-3.848c1.771-0.335,3.225,0.519,5.593,3.435c6.926,9.766,16.936,13.331,27.408,13.331
				c10.501,0,16.431-3.227,24.053-9.995l2.205,7.952h20.16v-131.79H581.161z M459.736,325.778c12.025,0,16.262,10.507,16.262,21.176
				h-32.524C443.809,336.793,448.383,325.778,459.736,325.778z M477.355,372.54c-1.867,7.953-6.78,15.245-15.762,15.245
				c-12.869,0-19.818-13.554-18.971-25.076h55.99v2.067c-0.032,0.504-0.05,1.165-0.05,2.027c0,9.395-10.059,7.764-10.794,7.633
				l-0.047-0.011L477.355,372.54z M581.161,374.062c-3.896,5.934-8.81,10.837-16.268,10.837c-15.075,0-17.276-18.291-17.276-29.639
				c0-10.503,2.877-28.123,16.771-28.123c7.284,0,12.368,5.08,16.773,10.333V374.062L581.161,374.062z"/>
		</g>
		<g>
			<g>
				<path fill="#6A8892" d="M254.794,368.455h-0.005c-0.587-2.063-44.011-94.343-44.611-95.203
					c-0.644-0.854-1.413-1.699-2.427-2.441c-0.792-0.607-1.682-1.077-2.542-1.446c-0.792-0.344-1.814-0.695-3.034-0.861
					c-0.464-0.079-1.01-0.128-1.652-0.128c-0.434,0-1.003,0.021-1.731,0.147l-28.489,4.564c-0.108,0.021-0.206,0.07-0.317,0.087
					l-11.419-18.282c-0.696-1.115-1.582-2.014-2.418-2.66c-0.778-0.625-1.72-1.17-2.785-1.602c-0.892-0.382-1.872-0.675-2.87-0.811
					c-0.613-0.108-1.224-0.158-1.84-0.158c-0.41,0-0.856,0.029-1.367,0.088c-1.042,0.158-3.802,1.271-3.954,1.364
					c0,0-103.753,35.694-105.28,36.416c-2.148,1.065-4.122,2.395-5.819,4.164c-1.582,1.652-2.949,3.721-3.715,6.165
					c-0.42,1.354-0.646,2.778-0.643,4.224c-0.003,1.142,0.138,2.325,0.432,3.486l31.295,118.871
					c0.748,2.864,2.072,5.513,3.833,7.828c2.06,3.372,15.225,20.053,65.138,0.646c1.441-0.265,2.873-0.657,4.269-1.203
					l113.621-44.551c2.5-0.951,4.653-2.63,6.159-4.605c1.603-2.16,2.493-4.583,2.78-7.016c0.091-0.665,0.127-1.366,0.127-2.053
					C255.525,371.798,255.273,370.114,254.794,368.455z"/>
				<path fill="#6A8892" d="M59.054,435.179c-2.072-2.784-3.633-5.959-4.534-9.4l0,0L23.208,306.851
					c-0.387-1.557-0.59-3.127-0.59-4.702l0,0c0-0.021,0-0.043,0-0.066l0,0c0-0.013,0-0.03,0-0.042l0,0v-0.028
					c0-1.983,0.322-3.91,0.884-5.725l0,0c1.054-3.343,2.888-6.09,4.93-8.221l0,0c2.2-2.307,4.73-3.981,7.371-5.286l0,0
					c0.544-0.243,0.541-0.225,0.866-0.352l0,0c0.271-0.097,0.616-0.227,1.048-0.373l0,0c0.863-0.311,2.06-0.731,3.56-1.259l0,0
					c2.99-1.048,7.175-2.503,12.143-4.232l0,0c9.951-3.445,23.064-7.974,36.132-12.481l0,0c24.671-8.51,49.178-16.945,51.835-17.863
					l0,0c0.009,0,0.02-0.009,0.032-0.009l0,0c0.143-0.058,0.293-0.126,0.471-0.197l0,0c0.35-0.147,0.785-0.311,1.26-0.487l0,0
					c1.024-0.352,1.875-0.713,3.34-0.977l0,0l0.093-0.021l0.109-0.009c0.69-0.08,1.35-0.118,1.96-0.118l0,0
					c0.831,0,1.7,0.067,2.591,0.205l0,0l0,0c1.453,0.214,2.818,0.617,4.088,1.142l0,0l0,0c1.505,0.613,2.887,1.399,4.041,2.335l0,0
					c1.253,0.978,2.55,2.277,3.651,4.018l0,0l9.551,15.298l25.338-4.064c1.092-0.187,2.025-0.221,2.609-0.211l0,0
					c0.865,0,1.652,0.058,2.356,0.167l0,0l0,0c1.813,0.244,3.315,0.76,4.388,1.242l0,0c1.133,0.478,2.386,1.123,3.635,2.072l0,0
					c1.521,1.112,2.638,2.374,3.463,3.471l0,0l0.064,0.085l0.061,0.088c0.379,0.566,0.302,0.508,0.399,0.664l0,0
					c0.053,0.097,0.097,0.197,0.159,0.303l0,0c0.105,0.226,0.24,0.506,0.416,0.859l0,0c0.337,0.695,0.811,1.683,1.402,2.918l0,0
					c1.182,2.479,2.835,5.956,4.812,10.138l0,0c3.956,8.355,9.203,19.499,14.533,30.838l0,0
					c9.173,19.538,18.508,39.495,22.009,47.225l0,0h0.514l1.1,3.791c0.61,2.101,0.943,4.283,0.943,6.5l0,0
					c0,0.869-0.044,1.8-0.164,2.669l0,0c-0.385,3.282-1.6,6.604-3.815,9.586l0,0c-2.104,2.756-4.995,4.991-8.423,6.306l0,0
					l-113.627,44.55c-1.558,0.616-3.146,1.065-4.724,1.388l0,0c-17.949,6.918-31.512,9.4-41.89,9.412l0,0c-0.152,0-0.299,0-0.448,0
					l0,0C69.307,447.396,61.164,438.758,59.054,435.179L59.054,435.179z M33.385,304.229l31.301,118.883
					c0.563,2.16,1.57,4.191,2.923,5.959l0,0l0.167,0.223l0.141,0.226c0.704,0.87,4.372,7.222,20.22,7.361l0,0
					c8.749,0.009,21.236-2.143,38.529-8.866l0,0l0.476-0.185l0.493-0.087c1.127-0.206,2.231-0.509,3.289-0.929l0,0l113.674-44.571
					c1.517-0.57,2.941-1.673,3.8-2.816l0,0c1.03-1.397,1.591-2.911,1.793-4.603l0,0c0.053-0.362,0.082-0.839,0.082-1.339l0,0
					c0-1.027-0.134-2.08-0.407-3.146l0,0l-0.07-0.234c-0.039-0.089-0.097-0.226-0.17-0.402l0,0c-0.182-0.42-0.46-1.045-0.813-1.817
					l0,0c-0.707-1.562-1.716-3.761-2.958-6.448l0,0c-2.479-5.378-5.889-12.685-9.675-20.786l0,0
					c-7.58-16.203-16.687-35.571-23.013-48.951l0,0c-3.812-8.067-6.706-14.13-7.437-15.616l0,0c-0.35-0.42-0.675-0.743-1.065-1.027
					l0,0l-0.049-0.039l-0.068-0.05c-0.311-0.244-0.824-0.528-1.456-0.801l0,0c-0.455-0.197-0.989-0.376-1.625-0.458l0,0
					l-0.041-0.012l-0.073-0.009c-0.191-0.029-0.46-0.059-0.828-0.059l0,0c-0.282,0-0.487,0.009-0.902,0.067l0,0l-28.191,4.526
					c-0.118,0.03-0.264,0.067-0.441,0.108l0,0l-3.548,0.684l-13.329-21.344c-0.297-0.488-0.774-0.977-1.268-1.358l0,0
					c-0.326-0.265-0.822-0.566-1.45-0.822l0,0l-0.053-0.024l-0.041-0.014c-0.494-0.212-1.05-0.37-1.553-0.441l0,0l-0.07-0.008
					l-0.064-0.015c-0.294-0.053-0.605-0.073-0.96-0.08l0,0c-0.162,0.005-0.332,0.011-0.557,0.026l0,0
					c-0.044,0.018-0.103,0.03-0.168,0.053l0,0c-0.229,0.066-0.545,0.175-0.865,0.287l0,0c-0.479,0.177-0.995,0.382-1.283,0.499l0,0
					l-0.191,0.116l-0.551,0.185c-0.047,0.016-24.341,8.375-49.61,17.092l0,0c-25.245,8.707-51.556,17.808-55.127,19.116l0,0
					l-0.004-0.009c-1.704,0.849-3.092,1.818-4.269,3.053l0,0c-1.121,1.167-2.012,2.554-2.494,4.084l0,0
					c-0.255,0.824-0.391,1.657-0.405,2.476l0,0l0.006,0.079l-0.008,0.237C33.132,302.862,33.22,303.575,33.385,304.229
					L33.385,304.229z M253.41,368.854l1.384-0.399l0,0l0,0L253.41,368.854L253.41,368.854z M145.593,255.852v-0.005l0,0l0,0V255.852
					L145.593,255.852z"/>
			</g>
			
				<linearGradient id="SVGID_1_" gradientUnits="userSpaceOnUse" x1="197.9043" y1="51.1021" x2="679.7252" y2="-256.6029" gradientTransform="matrix(1 0 0 -1 -178 333)">
				<stop  offset="0" style="stop-color:#FFFFFF"/>
				<stop  offset="1" style="stop-color:#6A8892"/>
			</linearGradient>
			<path fill="url(#SVGID_1_)" d="M169.992,272.5l-11.089-17.757c-0.681-1.086-1.541-1.955-2.351-2.586
				c-0.757-0.61-1.671-1.141-2.707-1.558c-0.865-0.369-1.816-0.649-2.784-0.792c-0.6-0.098-1.192-0.147-1.79-0.147
				c-0.4,0-0.831,0.029-1.33,0.079c-1.009,0.156-3.692,1.242-3.838,1.33c0,0-100.781,34.673-102.264,35.377
				c-2.086,1.036-4.005,2.325-5.649,4.044c-1.541,1.603-2.866,3.614-3.609,5.99c-0.41,1.313-0.631,2.689-0.626,4.098
				c-0.006,1.112,0.136,2.256,0.417,3.391l30.399,115.466c0.728,2.776,2.011,5.357,3.722,7.596
				c0.886,1.447,3.891,5.423,11.151,7.779L170.3,272.415C170.195,272.431,170.1,272.48,169.992,272.5z"/>
			
				<linearGradient id="SVGID_2_" gradientUnits="userSpaceOnUse" x1="303.2617" y1="2.4326" x2="388.8997" y2="-107.9952" gradientTransform="matrix(1 0 0 -1 -178 333)">
				<stop  offset="0.0275" style="stop-color:#424F56"/>
				<stop  offset="0.5549" style="stop-color:#6F818B"/>
				<stop  offset="1" style="stop-color:#B0BFC8"/>
			</linearGradient>
			<path fill="url(#SVGID_2_)" d="M252.021,365.238h-0.006c-0.566-1.99-42.596-91.311-43.181-92.141
				c-0.622-0.831-1.364-1.652-2.347-2.366c-0.766-0.586-1.628-1.041-2.463-1.396c-0.765-0.337-1.753-0.674-2.934-0.836
				c-0.448-0.073-0.977-0.123-1.596-0.123c-0.42,0-0.975,0.021-1.679,0.139l-27.574,4.427l-92.326,161.81
				c9.122,2.961,24.992,3.351,51.935-7.126c1.395-0.243,2.779-0.634,4.133-1.16l109.976-43.117c2.417-0.917,4.504-2.54,5.96-4.458
				c1.552-2.089,2.409-4.433,2.688-6.789c0.088-0.647,0.125-1.321,0.125-1.984C252.731,368.476,252.484,366.841,252.021,365.238z"/>
		</g>
		<g>
			<g>
				<path fill="#6A8892" d="M77.712,434.81c-7.261-2.356-10.262-6.332-11.148-7.779c-1.711-2.238-2.996-4.819-3.723-7.596
					L32.443,303.967c-0.283-1.133-0.425-2.278-0.42-3.391c-0.005-1.408,0.217-2.784,0.625-4.097c0.742-2.375,2.072-4.386,3.609-5.99
					c1.647-1.72,3.563-3.008,5.65-4.044c1.484-0.705,102.266-35.377,102.266-35.377c0.145-0.088,2.826-1.174,3.839-1.33
					c0.354-0.039,0.671-0.059,0.977-0.067c-0.092,0-0.18-0.012-0.27-0.012c-0.411,0-0.854,0.03-1.368,0.088
					c-1.042,0.159-3.801,1.271-3.953,1.365c0,0-103.754,35.694-105.281,36.415c-2.148,1.065-4.121,2.396-5.813,4.164
					c-1.587,1.652-2.953,3.721-3.718,6.165c-0.423,1.354-0.649,2.776-0.643,4.224c-0.006,1.142,0.138,2.324,0.428,3.486
					l31.294,118.871c0.751,2.864,2.072,5.513,3.837,7.829c2.058,3.371,15.222,20.052,65.137,0.646
					c1.438-0.264,2.87-0.657,4.267-1.203l113.62-44.551c2.5-0.951,4.654-2.629,6.16-4.605c1.603-2.159,2.491-4.583,2.778-7.016
					c0.091-0.664,0.129-1.367,0.129-2.052c0-1.688-0.255-3.371-0.733-5.032h-0.005c-0.588-2.062-44.008-94.343-44.61-95.203
					c-0.646-0.853-1.413-1.699-2.431-2.441c-0.79-0.607-1.681-1.077-2.541-1.446c-0.792-0.344-1.811-0.695-3.035-0.86
					c-0.464-0.079-1.01-0.129-1.649-0.129c-0.162,0-0.36,0.012-0.563,0.021c0.419,0.021,0.804,0.05,1.129,0.103
					c1.186,0.162,2.168,0.499,2.938,0.836c0.833,0.356,1.693,0.811,2.458,1.396c0.986,0.714,1.725,1.535,2.351,2.365
					c0.583,0.832,42.614,90.151,43.18,92.142h0.002c0.467,1.604,0.71,3.237,0.71,4.878c0,0.663-0.035,1.337-0.12,1.984
					c-0.282,2.356-1.143,4.7-2.695,6.79c-1.457,1.917-3.542,3.541-5.96,4.457l-109.974,43.119c-1.353,0.526-2.738,0.917-4.135,1.16
					c-26.943,10.477-42.813,10.087-51.935,7.126"/>
				<path fill="#4D4D4F" d="M259.856,366.987l-1.095-3.791l-0.087-0.206c-3.507-7.729-13.262-27.48-22.444-47.019
					c-5.326-11.34-10.573-22.481-14.53-30.838c-1.974-4.181-3.634-7.658-4.812-10.138c-0.587-1.236-1.062-2.222-1.402-2.918
					c-0.174-0.354-0.308-0.633-0.417-0.859c-0.06-0.105-0.109-0.205-0.159-0.303c-0.095-0.155-0.021-0.097-0.399-0.663l-0.062-0.089
					l-0.062-0.085c-0.824-1.097-1.945-2.359-3.465-3.471c-1.25-0.949-2.501-1.594-3.633-2.072c-1.074-0.482-2.577-0.997-4.386-1.242
					c-0.708-0.108-1.494-0.167-2.355-0.167c-0.586-0.009-1.526,0.023-2.611,0.211l-25.34,4.064l-9.552-15.298
					c-1.098-1.741-2.397-3.041-3.648-4.018c-1.154-0.936-2.542-1.722-4.041-2.335l0,0c-1.271-0.525-2.633-0.928-4.088-1.142
					c-0.89-0.137-1.761-0.205-2.591-0.205c-0.613,0-1.271,0.038-1.96,0.118l-0.109,0.009l-0.097,0.021
					c-1.461,0.264-2.315,0.625-3.34,0.977c-0.475,0.176-0.909,0.34-1.256,0.487c-0.176,0.07-0.329,0.139-0.475,0.197
					c-0.009,0-0.021,0.008-0.033,0.008c-2.655,0.918-27.157,9.353-51.835,17.863c-13.064,4.507-26.179,9.036-36.127,12.481
					c-4.974,1.728-9.15,3.184-12.147,4.232c-1.5,0.528-2.696,0.948-3.556,1.259c-0.433,0.146-0.778,0.276-1.045,0.373
					c-0.333,0.127-0.328,0.109-0.872,0.352c-2.641,1.303-5.167,2.979-7.369,5.286c-2.042,2.131-3.879,4.878-4.931,8.221
					c-0.564,1.815-0.882,3.742-0.882,5.725v0.028c0,0.012,0,0.029,0,0.042c0,0.023,0,0.048,0,0.066c0,1.575,0.2,3.146,0.589,4.702
					l31.312,118.928c0.897,3.44,2.461,6.615,4.534,9.4c2.11,3.579,10.251,12.218,28.631,12.218c0.148,0,0.298,0,0.452,0
					c10.376-0.013,23.94-2.495,41.884-9.412c1.584-0.322,3.166-0.771,4.73-1.388l113.624-44.55c3.428-1.314,6.318-3.55,8.425-6.306
					c2.213-2.981,3.428-6.304,3.815-9.587c0.12-0.869,0.164-1.8,0.164-2.669C260.801,371.27,260.466,369.088,259.856,366.987z
					 M170.262,272.938l27.575-4.426c0.708-0.118,1.259-0.139,1.677-0.139c0.62,0,1.152,0.051,1.597,0.123
					c1.185,0.162,2.17,0.499,2.942,0.836c0.83,0.356,1.693,0.81,2.457,1.397c0.986,0.713,1.728,1.535,2.351,2.365
					c0.581,0.832,42.61,90.15,43.178,92.142h0.006c0.463,1.603,0.71,3.236,0.71,4.877c0,0.663-0.036,1.338-0.123,1.982
					c-0.278,2.357-1.139,4.702-2.69,6.793c-1.456,1.916-3.545,3.54-5.963,4.457l-109.969,43.116
					c-1.353,0.526-2.738,0.916-4.132,1.16c-13.578,5.289-24.339,7.798-32.851,8.62c-3.3,0.449-6.253,0.646-8.862,0.637
					c-15.848-0.14-19.518-6.491-20.222-7.361l-0.139-0.226l-0.167-0.223c-0.761-0.996-1.398-2.072-1.922-3.204
					c-1.3-1.967-2.307-4.125-2.914-6.434L32.392,303.967c-0.282-1.134-0.423-2.278-0.416-3.391
					c-0.006-1.408,0.218-2.784,0.622-4.098c0.746-2.375,2.072-4.386,3.616-5.99c1.643-1.72,3.561-3.008,5.647-4.044
					c1.484-0.705,102.266-35.376,102.266-35.376c0.141-0.089,2.822-1.174,3.837-1.331c0.496-0.049,0.927-0.079,1.33-0.079
					c0.598,0,1.192,0.05,1.79,0.146c0.969,0.144,1.916,0.423,2.785,0.792c1.036,0.417,1.948,0.948,2.706,1.558
					c0.807,0.631,1.672,1.5,2.347,2.586l11.091,17.757 M254.814,368.455l-1.384,0.398L254.814,368.455L254.814,368.455
					L254.814,368.455z"/>
			</g>
		</g>
	</g>
	<g>
		<g>
			<path fill="#6A8892" d="M61.261,418.59c-0.006-0.141-0.006-0.273-0.006-0.404l0,0c0.029-8.292,7.078-15.409,17.238-19.228l0,0
				c0.091-0.102,0.208-0.193,0.352-0.243l0,0c0-0.009,1.446-0.509,2.894-1.554l0,0c1.456-1.065,2.783-2.579,2.773-4.563l0,0
				c0-0.476-0.07-0.992-0.226-1.506l0,0c-0.479-1.247-0.771-2.563-0.804-3.923l0,0c-0.009-0.124-0.009-0.24-0.009-0.328l0,0
				c0.029-6.946,6.007-12.821,14.51-15.873l0,0c0.082-0.086,0.184-0.139,0.299-0.183l0,0c0-0.01,1.109-0.346,2.209-1.117l0,0
				c1.116-0.772,2.095-1.874,2.089-3.353l0,0c0-0.366-0.059-0.756-0.176-1.156l0,0c-0.42-1.06-0.681-2.183-0.711-3.33l0,0
				c-0.005-0.112-0.003-0.197-0.005-0.277l0,0c0.035-5.835,5.133-10.715,12.281-13.14l0,0c0.077-0.072,0.168-0.123,0.27-0.153l0,0
				c-0.006-0.008,0.869-0.271,1.734-0.872l0,0c0.877-0.613,1.618-1.444,1.615-2.551l0,0c-0.003-0.351-0.07-0.736-0.247-1.192l0,0
				c-0.043-0.11-0.06-0.239-0.05-0.351l0,0c-0.123-0.513-0.209-1.046-0.226-1.595l0,0c-0.003-0.088-0.003-0.163-0.003-0.222l0,0
				c0.032-4.858,4.293-8.867,10.189-10.836l0,0c0.05-0.029,0.106-0.062,0.162-0.075l0,0c0-0.013,0.655-0.221,1.306-0.699l0,0
				c0.669-0.479,1.207-1.12,1.207-1.939l0,0c-0.009-0.211-0.036-0.435-0.087-0.636l0,0c-0.311-0.748-0.511-1.555-0.535-2.362l0,0
				c-0.003-0.097-0.003-0.165-0.003-0.213l0,0c0.03-3.937,3.372-7.149,7.998-8.795l0,0c0.072-0.056,0.153-0.097,0.247-0.125l0,0
				c-0.003-0.016,0.508-0.177,1.012-0.542l0,0c0.517-0.369,0.907-0.845,0.898-1.429l0,0c0-0.191-0.032-0.408-0.139-0.674l0,0
				c-0.026-0.07-0.041-0.145-0.049-0.212l0,0c-0.177-0.513-0.285-1.051-0.293-1.588l0,0c-0.012-0.089-0.006-0.146-0.006-0.184l0,0
				c0.029-3.279,2.802-5.92,6.579-7.258l0,0c0.047-0.029,0.1-0.047,0.153-0.067l0,0c-0.003-0.01,0.385-0.125,0.766-0.405l0,0
				c0.396-0.283,0.663-0.626,0.658-1.021l0,0c0-0.129-0.03-0.287-0.104-0.482l0,0c-0.028-0.08-0.041-0.148-0.05-0.222l0,0
				c-0.153-0.445-0.252-0.905-0.264-1.36l0,0c-0.003-0.088-0.003-0.146-0.003-0.164l0,0c0.035-2.805,2.427-5.004,5.623-6.083l0,0
				c0.054-0.042,0.115-0.073,0.182-0.087l0,0c-0.003-0.016,0.29-0.103,0.575-0.309l0,0c0.299-0.221,0.467-0.448,0.464-0.697l0,0
				c-0.005-0.089-0.021-0.189-0.076-0.331l0,0c-0.038-0.109-0.056-0.22-0.047-0.311l0,0c-0.064-0.262-0.103-0.52-0.111-0.749l0,0
				c-0.015-0.101-0.006-0.168-0.006-0.182l0,0c0.035-2.521,2.246-4.438,5.027-5.268l0,0c0.258-0.076,0.749-0.455,0.674-0.633l0,0
				c0-0.049-0.012-0.108-0.047-0.211l0,0c-0.032-0.074-0.051-0.155-0.054-0.235l0,0c-0.103-0.293-0.176-0.605-0.184-0.904l0,0
				c-0.009-0.097-0.006-0.156-0.006-0.156l0,0c0.029-2.043,1.726-3.565,3.903-4.313l0,0c0.05-0.027,0.097-0.05,0.146-0.067l0,0
				c-0.002-0.012,0.15-0.05,0.296-0.159l0,0c0.156-0.12,0.185-0.191,0.18-0.22l0,0c-0.003-0.024-0.003-0.06-0.03-0.118l0,0
				c-0.021-0.053-0.032-0.117-0.046-0.17l0,0c-0.087-0.255-0.162-0.531-0.167-0.811l0,0c-0.005-0.087-0.003-0.137-0.003-0.137l0,0
				c0.026-1.729,1.426-2.977,3.184-3.611l0,0c0.05-0.028,0.109-0.048,0.165-0.07l0,0c0-0.009,0.044-0.009,0.12-0.058l0,0
				c0.068-0.039,0.132-0.089,0.153-0.118l0,0c0,0-0.003-0.009-0.006-0.023l0,0c-0.021-0.06-0.033-0.109-0.043-0.168l0,0
				c-0.08-0.217-0.144-0.443-0.147-0.669l0,0c-0.005-0.091-0.005-0.141-0.005-0.141l0,0c0.094-2.122,2.318-3.357,4.722-3.439l0,0
				c0.098,0,0.17,0,0.223,0l0,0c2.379,0.009,5.106,1.103,5.252,3.199l0,0l-0.757,0.026l0.757-0.026l-0.003,0.07h0.003
				c-0.014,1.273-0.534,2.292-1.69,2.853l0,0c-0.021,0.015-0.044,0.021-0.061,0.029l0,0c0.003,0.009-0.015,0.009-0.052,0.039l0,0
				c-0.009,0.005-0.015,0.011-0.027,0.026l0,0c0.012,0.009,0.021,0.018,0.032,0.023l0,0c0.044,0.053,0.079,0.111,0.108,0.168l0,0
				c0.334,0.472,0.558,1.036,0.572,1.728l0,0h0.006c-0.02,1.467-1.065,2.609-2.447,3.292l0,0c-0.044,0.041-0.095,0.08-0.15,0.109
				l0,0c0.003,0.009-0.058,0.029-0.123,0.088l0,0c-0.074,0.073-0.064,0.08-0.064,0.08l0,0c0.009,0-0.021,0.043,0.156,0.232l0,0
				c0.088,0.093,0.147,0.202,0.177,0.322l0,0c0.319,0.525,0.525,1.121,0.54,1.822l0,0v0.012c-0.015,1.723-1.26,3.094-2.943,3.918
				l0,0c-0.057,0.053-0.127,0.102-0.2,0.138l0,0c0,0-0.12,0.052-0.246,0.177l0,0c-0.135,0.117-0.179,0.228-0.177,0.251l0,0
				c0.009,0.026,0.009,0.138,0.227,0.382l0,0c0.058,0.059,0.108,0.139,0.141,0.211l0,0c0.423,0.649,0.686,1.392,0.707,2.228l0,0
				c0,0,0,0.021,0,0.067l0,0c-0.02,2.113-1.625,3.803-3.796,4.79l0,0c-0.047,0.037-0.106,0.067-0.164,0.088l0,0
				c0.006,0.009-0.189,0.079-0.373,0.229l0,0c-0.203,0.156-0.283,0.317-0.275,0.396l0,0c0.005,0.059,0.023,0.229,0.319,0.558l0,0
				c0.1,0.097,0.162,0.228,0.188,0.368l0,0c0.358,0.647,0.576,1.376,0.599,2.167l0,0c0,0.016,0,0.053,0,0.097l0,0
				c-0.018,2.441-1.857,4.432-4.417,5.611l0,0c-0.176,0.137-0.628,0.586-0.592,0.98l0,0c0,0.131,0.026,0.28,0.124,0.482l0,0
				c0.885,1.062,1.44,2.323,1.475,3.721l0,0c0,0.029,0,0.071,0,0.129l0,0c-0.009,2.803-2.078,5.153-5.021,6.6l0,0
				c0,0.006-0.003,0.01-0.003,0.01l0,0c0.003,0.012-0.25,0.187-0.513,0.521l0,0c-0.276,0.352-0.502,0.808-0.497,1.241l0,0
				c0.003,0.291,0.073,0.588,0.332,0.962l0,0c0.029,0.051,0.055,0.079,0.058,0.088l0,0c0.036,0.042,0.06,0.08,0.064,0.086l0,0
				l-0.006,0.008c0.032,0.036,0.061,0.074,0.082,0.128l0,0c0.711,1.095,1.149,2.33,1.18,3.66l0,0c0,0.043,0,0.092,0,0.156l0,0
				c-0.015,3.311-2.421,6.131-5.925,7.906l0,0c-0.032,0.039-0.079,0.077-0.123,0.111l0,0c0.006,0.01-0.417,0.281-0.839,0.763l0,0
				c-0.428,0.494-0.801,1.133-0.79,1.749l0,0c0.003,0.399,0.123,0.825,0.546,1.361l0,0c0.057,0.078,0.1,0.158,0.13,0.24l0,0
				c0.824,1.304,1.324,2.762,1.364,4.328l0,0c0,0.045,0,0.112,0.005,0.191l0,0c-0.017,4.048-3.01,7.519-7.387,9.689l0,0
				c-0.038,0.029-0.069,0.048-0.105,0.066l0,0c0,0.009-0.531,0.309-1.068,0.853l0,0c-0.542,0.554-1.012,1.287-1.003,2.056l0,0
				c0.002,0.494,0.164,1.055,0.725,1.759l0,0c0.093,0.124,0.15,0.259,0.162,0.41l0,0c0.872,1.494,1.403,3.126,1.446,4.872l0,0
				c0,0.073,0.006,0.15,0.006,0.249l0,0c-0.015,4.696-3.378,8.799-8.396,11.468l0,0c-0.041,0.033-0.088,0.077-0.138,0.106l0,0
				c0.006,0.013-0.716,0.44-1.444,1.192l0,0c-0.739,0.754-1.399,1.77-1.388,2.85l0,0c0,0.666,0.223,1.424,0.918,2.292l0,0
				c0.088,0.109,0.141,0.229,0.162,0.359l0,0c1.297,1.992,2.063,4.209,2.122,6.561l0,0c0,0.097,0.003,0.193,0.003,0.308l0,0
				c-0.018,6.01-5.449,11.257-12.184,14.53l0,0c-0.948,0.85-2.588,2.73-2.565,4.823l0,0c0,0.742,0.184,1.522,0.613,2.293l0,0
				c2.075,2.726,3.339,5.812,3.425,9.134l0,0c0.005,0.119,0.005,0.244,0.011,0.377l0,0c-0.097,12.1-14.808,21.695-32.874,22.197l0,0
				c-0.463,0.012-0.927,0.012-1.393,0.012l0,0C76.25,439.376,61.668,430.522,61.261,418.59L61.261,418.59z M79.561,400.19
				c-10.135,3.636-16.812,10.523-16.786,17.995l0,0c0,0.123,0,0.231,0.012,0.36l0,0c0.188,10.562,13.869,19.337,31.086,19.322l0,0
				c0.45,0,0.904-0.009,1.364-0.015l0,0c17.647-0.462,31.472-9.974,31.377-20.676l0,0c0-0.111,0-0.234-0.006-0.338l0,0
				c-0.082-2.955-1.189-5.732-3.172-8.334l0,0c-0.61-1.06-0.872-2.132-0.872-3.132l0,0c0.029-2.951,2.119-5.104,3.166-6.04l0,0
				l0.174-0.113c6.485-3.125,11.431-7.997,11.416-13.2l0,0c0-0.094,0-0.19-0.003-0.279l0,0c-0.057-2.15-0.787-4.183-2.081-6.054l0,0
				c-0.052-0.095-0.093-0.182-0.113-0.271l0,0c-0.705-0.982-1.016-1.982-1.013-2.916l0,0c0.076-2.823,2.497-4.616,3.312-5.158l0,0
				c0.064-0.09,0.146-0.162,0.249-0.221l0,0c4.859-2.52,7.818-6.269,7.806-10.237l0,0c0-0.085,0-0.146-0.003-0.22l0,0
				c-0.043-1.564-0.551-3.056-1.433-4.457l0,0c-0.049-0.077-0.084-0.162-0.1-0.251l0,0c-0.554-0.793-0.807-1.604-0.804-2.362l0,0
				c0.073-2.282,1.939-3.631,2.603-4.067l0,0c0.067-0.076,0.149-0.141,0.244-0.189l0,0c4.185-2.017,6.729-5.145,6.717-8.408l0,0
				c0-0.054-0.003-0.123-0.003-0.177l0,0c-0.035-1.294-0.467-2.535-1.239-3.695l0,0c-0.026-0.044-0.046-0.081-0.067-0.118l0,0
				c-0.508-0.7-0.743-1.44-0.737-2.132l0,0c0.053-1.8,1.33-3.004,1.957-3.503l0,0c0.074-0.141,0.188-0.26,0.337-0.33l0,0
				c3.38-1.626,5.4-4.122,5.385-6.696l0,0c0-0.058-0.002-0.102-0.002-0.139l0,0c-0.026-1.035-0.367-2.007-0.983-2.927l0,0
				c-0.018-0.027-0.032-0.049-0.044-0.079l0,0c0,0-0.002,0-0.005,0l0,0c-0.026-0.036-0.044-0.073-0.062-0.096l0,0
				c-0.43-0.608-0.621-1.257-0.615-1.85l0,0c0.039-1.464,0.983-2.427,1.408-2.799l0,0c0.074-0.111,0.176-0.198,0.303-0.264l0,0
				c2.731-1.298,4.337-3.296,4.325-5.309l0,0c0-0.041,0-0.085,0-0.108l0,0c-0.032-1.013-0.431-1.947-1.174-2.829l0,0l-0.087-0.138
				c-0.232-0.414-0.337-0.848-0.337-1.256l0,0c0.038-1.414,1.088-2.111,1.335-2.292l0,0l0.105-0.048
				c2.273-1.04,3.581-2.666,3.566-4.252l0,0c0-0.018,0-0.06,0-0.082l0,0c-0.015-0.572-0.197-1.116-0.522-1.651l0,0
				c-0.018-0.029-0.036-0.06-0.05-0.089l0,0c-0.341-0.432-0.531-0.903-0.526-1.367l0,0c0.091-1.198,0.937-1.699,1.356-1.917l0,0
				c0.055-0.047,0.117-0.082,0.182-0.11l0,0c1.97-0.851,3.084-2.199,3.064-3.475l0,0c0-0.015-0.004-0.06,0-0.067l0,0
				c-0.015-0.514-0.189-1.013-0.521-1.497l0,0c-0.008-0.003-0.017-0.015-0.022-0.029l0,0c-0.335-0.4-0.526-0.845-0.526-1.294l0,0
				c0.065-0.889,0.569-1.353,0.925-1.594l0,0c0.073-0.09,0.172-0.176,0.293-0.223l0,0c1.539-0.68,2.366-1.726,2.345-2.667l0,0
				c0,0-0.002-0.029,0-0.049l0,0c-0.011-0.391-0.15-0.772-0.425-1.148l0,0c-0.035-0.053-0.067-0.111-0.091-0.163l0,0
				c-0.229-0.323-0.358-0.669-0.358-1.03l0,0c0.05-0.745,0.449-1.138,0.728-1.349l0,0c0.07-0.075,0.168-0.147,0.276-0.197l0,0
				c1.195-0.531,1.802-1.348,1.782-2.022l0,0c0,0-0.003-0.029,0-0.029l0,0c-0.006-0.293-0.121-0.582-0.346-0.88l0,0
				c-0.006-0.019-0.017-0.032-0.026-0.047l0,0c-0.237-0.288-0.387-0.63-0.385-0.989l0,0c0.074-0.831,0.566-1.165,0.825-1.318l0,0
				c0.047-0.029,0.097-0.064,0.149-0.088l0,0c0.892-0.426,0.91-1.059,0.899-1.514l0,0c0,0,0-0.012,0-0.021l0,0l0,0
				c-0.009-0.382-0.403-1.016-1.175-1.285l-0.15-0.073c-0.659-0.337-1.446-0.369-2.408-0.369l0,0c-0.054,0-0.097,0-0.147,0.008l0,0
				c-0.986,0.015-1.86,0.302-2.444,0.692l0,0c-0.587,0.393-0.832,0.842-0.832,1.218l0,0h-0.334c0.006,0,0.011,0,0.014,0.006l0,0
				l0.32,0.014c0.003,0.098,0.036,0.229,0.115,0.396l0,0c0.052,0.111,0.076,0.238,0.073,0.355l0,0
				c0.015,0.08,0.018,0.156,0.018,0.244l0,0c-0.09,0.968-0.702,1.335-1.056,1.49l0,0c-0.067,0.06-0.146,0.104-0.229,0.124l0,0
				c-1.536,0.499-2.377,1.455-2.342,2.228l0,0h-0.25l0.25,0.038c0.006,0.144,0.049,0.314,0.146,0.525l0,0
				c0.047,0.111,0.064,0.217,0.064,0.32l0,0c0.022,0.118,0.039,0.235,0.039,0.353l0,0c-0.1,1.136-0.883,1.556-1.285,1.727l0,0
				c-0.064,0.049-0.133,0.08-0.212,0.112l0,0c-1.94,0.616-3.063,1.843-3.028,2.923l0,0h-0.185l0.185,0.043
				c0.003,0.215,0.073,0.449,0.194,0.72l0,0c0.053,0.117,0.073,0.249,0.058,0.375l0,0c0.024,0.132,0.035,0.248,0.035,0.366l0,0
				c-0.073,1.421-1.285,1.888-1.685,2.066l0,0c-2.517,0.757-4.046,2.356-4.02,3.82l0,0l0,0v0.015h-0.071l0.077,0.064
				c0.007,0.229,0.053,0.464,0.132,0.705l0,0c0.03,0.088,0.042,0.172,0.04,0.267l0,0c0.044,0.177,0.064,0.361,0.064,0.537l0,0
				c-0.094,1.478-1.23,2.087-1.781,2.317l0,0c-0.077,0.063-0.159,0.108-0.252,0.143l0,0c-2.99,0.937-4.836,2.861-4.808,4.717l0,0
				c0,0.038,0,0.038,0.009,0.076l0,0c0.006,0.39,0.094,0.753,0.25,1.144l0,0c0.041,0.09,0.056,0.181,0.059,0.273l0,0
				c0.071,0.25,0.103,0.494,0.103,0.734l0,0c-0.105,1.825-1.656,2.545-2.246,2.784l0,0c-0.056,0.038-0.121,0.072-0.188,0.088l0,0
				c-3.547,1.215-5.75,3.552-5.723,5.877l0,0c0,0.048,0,0.075,0.005,0.107l0,0c0.009,0.454,0.112,0.903,0.276,1.35l0,0
				c0.032,0.067,0.046,0.145,0.052,0.221l0,0c0.103,0.336,0.159,0.662,0.159,0.982l0,0c-0.105,2.017-1.787,2.919-2.565,3.249l0,0
				c-0.082,0.076-0.185,0.149-0.297,0.179l0,0c-4.478,1.49-7.331,4.438-7.298,7.463l0,0c0,0.061,0,0.088,0.005,0.136l0,0
				c0.018,0.636,0.165,1.252,0.441,1.925l0,0c0.117,0.396,0.175,0.785,0.175,1.15l0,0c-0.105,2.576-2.482,3.655-3.287,3.972l0,0
				c-0.068,0.049-0.145,0.094-0.227,0.123l0,0c-5.681,1.831-9.373,5.561-9.343,9.455l0,0c0,0.059,0,0.104,0.007,0.164l0,0
				c0.008,0.525,0.108,1.042,0.251,1.579l0,0c0.021,0.064,0.029,0.127,0.029,0.196l0,0c0.159,0.493,0.232,0.972,0.232,1.42l0,0
				c-0.111,3.002-2.92,4.295-3.999,4.71l0,0c-0.083,0.086-0.185,0.152-0.297,0.189l0,0c-7.023,2.285-11.624,6.901-11.6,11.816l0,0
				c0,0.079,0.005,0.144,0.005,0.221l0,0c0.026,0.969,0.244,1.91,0.62,2.885l0,0c0.184,0.581,0.27,1.135,0.267,1.66l0,0
				c-0.118,3.647-3.639,5.266-4.916,5.747l0,0c-0.08,0.092-0.182,0.161-0.299,0.198l0,0c-8.396,2.896-13.923,8.511-13.888,14.58l0,0
				c0,0.102,0,0.183,0.003,0.269l0,0c0.029,1.187,0.285,2.33,0.723,3.49l0,0c0.217,0.701,0.313,1.367,0.313,1.998l0,0
				c-0.118,4.449-4.506,6.636-6.113,7.313l0,0C79.84,400.037,79.711,400.14,79.561,400.19L79.561,400.19z"/>
			<path fill="#4D4D4F" d="M58.763,418.713L58.763,418.713c-0.014-0.215-0.014-0.396-0.014-0.543l0,0
				c0.114-9.726,7.994-17.36,18.476-21.415l0,0c0.194-0.135,0.417-0.265,0.681-0.363l0,0c0.006-0.003,0.008-0.007,0.008-0.007l0,0
				l0.086-0.03c0.041-0.021,0.091-0.03,0.152-0.062l0,0c0.123-0.05,0.305-0.135,0.531-0.235l0,0
				c0.441-0.205,1.036-0.521,1.576-0.921l0,0c1.177-0.858,1.781-1.769,1.752-2.517l0,0L82,392.598
				c-0.003-0.041-0.003-0.102,0.003-0.179l0,0c-0.012-0.185-0.038-0.358-0.053-0.432l0,0c-0.563-1.474-0.934-3.081-0.972-4.669l0,0
				c-0.015-0.215-0.015-0.386-0.015-0.489l0,0c0.123-8.416,6.973-14.811,15.821-18.086l0,0c0.134-0.086,0.266-0.15,0.382-0.206l0,0
				c0.043-0.021,0.073-0.032,0.102-0.048l0,0c0.08-0.028,0.112-0.042,0.132-0.05l0,0l0.082-0.03c0.038-0.012,0.07-0.021,0.111-0.039
				l0,0c0.091-0.033,0.215-0.086,0.367-0.156l0,0c0.308-0.132,0.718-0.338,1.098-0.601l0,0c0.762-0.548,1-0.967,1.012-1.236l0,0
				c-0.005-0.062-0.009-0.137,0-0.236l0,0c-0.002-0.042-0.005-0.071,0-0.063l0,0c-0.501-1.29-0.839-2.702-0.88-4.146l0,0
				c-0.011-0.203,0-0.306,0-0.398l0,0c0.12-7.328,6.116-12.733,13.64-15.374l0,0c0.073-0.042,0.146-0.084,0.218-0.115l0,0
				c0.005-0.002,0.011-0.008,0.017-0.013l0,0c0.124-0.06,0.162-0.072,0.206-0.091l0,0c0.07-0.032,0.091-0.044,0.123-0.052l0,0
				c0.038-0.01,0.07-0.021,0.101-0.033l0,0c0.073-0.029,0.176-0.069,0.287-0.119l0,0c0.226-0.095,0.531-0.247,0.746-0.399l0,0
				c0.405-0.292,0.52-0.407,0.549-0.459l0,0c-0.012-0.059-0.021-0.122-0.027-0.196l0,0c-0.005-0.026-0.015-0.056-0.029-0.093l0,0
				c-0.134-0.361-0.205-0.685-0.226-0.994l0,0c-0.123-0.565-0.209-1.17-0.235-1.831l0,0c0-0.131,0-0.233,0-0.307l0,0
				c0.132-6.397,5.364-10.955,11.7-13.121l0,0c0.082-0.041,0.118-0.054,0.149-0.066l0,0c0.071-0.033,0.082-0.042,0.112-0.05l0,0
				l0.074-0.025c0.049-0.021,0.1-0.04,0.173-0.077l0,0c0.142-0.062,0.329-0.167,0.49-0.292l0,0c0.029-0.017,0.058-0.038,0.082-0.059
				l0,0c-0.305-0.855-0.508-1.784-0.544-2.774l0,0c0-0.131,0-0.233,0-0.296l0,0c0.112-5.4,4.37-9.18,9.391-11.034l0,0
				c0.053-0.032,0.112-0.062,0.17-0.088l0,0c0.088-0.051,0.128-0.066,0.162-0.086l0,0c0.082-0.028,0.102-0.037,0.131-0.061l0,0
				c0.047-0.015,0.088-0.028,0.13-0.044l0,0c-0.174-0.581-0.291-1.207-0.309-1.875l0,0c-0.008-0.064-0.014-0.154-0.014-0.279l0,0
				c0,0,0.009-0.071,0.009-0.092l0,0c0.112-4.77,3.853-8.002,7.897-9.461l0,0c-0.088-0.398-0.146-0.822-0.16-1.262l0,0
				c0-0.114-0.011-0.206,0-0.266l0,0c0.119-4.195,3.326-6.956,6.625-8.165l0,0c-0.003-0.041-0.006-0.083-0.009-0.123l0,0
				c-0.018-0.134-0.026-0.253-0.026-0.369l0,0c0,0,0.008-0.054,0.008-0.092l0,0c0.114-3.559,2.606-5.914,5.417-7.126l0,0
				c-0.005-0.105-0.003-0.18-0.003-0.203l0,0c0-0.026,0-0.052,0-0.082l0,0l0,0c0.087-3.059,2.152-5.089,4.279-6.111l0,0
				c0.002-0.044,0.005-0.087,0.012-0.134l0,0c0.176-2.472,1.758-4.136,3.448-5.069l0,0c0.541-3.835,4.183-5.367,7.182-5.438l0,0
				c0.092-0.008,0.164-0.008,0.234,0l0,0c2.736,0.088,6.621,0.934,7.607,4.884l0,0c0.067,0.196,0.108,0.402,0.123,0.613l0,0
				c0.002,0.009,0.006,0.018,0.006,0.029l0,0c0.006,0.101,0.006,0.197,0.003,0.293l0,0c0.029,1.209-0.408,2.556-1.256,3.616l0,0
				c0.071,0.302,0.118,0.619,0.132,0.942l0,0c0.012,0.094,0.015,0.191,0.015,0.285l0,0c-0.041,1.892-0.957,3.356-2.131,4.381l0,0
				c0.131,0.478,0.208,0.992,0.22,1.535l0,0v0.032c-0.041,2.315-1.294,4.074-2.853,5.238l0,0c0.211,0.627,0.343,1.314,0.355,2.045
				l0,0v0.094c-0.062,2.923-1.85,5.06-3.906,6.329l0,0c0.235,0.681,0.378,1.43,0.405,2.243l0,0v0.111
				c-0.052,3.173-1.979,5.554-4.382,7.068l0,0c0.576,1.092,0.939,2.341,0.962,3.708l0,0v0.133c-0.036,3.88-2.618,6.783-5.761,8.504
				l0,0c0.852,1.379,1.405,2.998,1.444,4.801l0,0v0.164c-0.05,4.516-3.155,7.958-7.016,9.984l0,0
				c-0.009,0.011-0.018,0.017-0.023,0.021l0,0c-0.047,0.028-0.059,0.042-0.08,0.054l0,0c-0.003,0-0.003,0-0.006,0.002l0,0
				c-0.029,0.03-0.059,0.051-0.099,0.079l0,0c-0.082,0.071-0.183,0.165-0.276,0.276l0,0c-0.02,0.021-0.041,0.048-0.06,0.066l0,0
				c0.101,0.142,0.203,0.303,0.291,0.493l0,0c0.966,1.585,1.582,3.431,1.631,5.476l0,0c0,0,0,0.032,0.009,0.197l0,0
				c-0.062,5.381-3.919,9.524-8.525,11.775l0,0l-0.101,0.071l-0.003-0.004c-0.012,0.006-0.021,0.01-0.03,0.017l0,0l-0.058,0.049
				c-0.044,0.02-0.094,0.055-0.156,0.095l0,0c-0.111,0.089-0.276,0.215-0.396,0.346l0,0c-0.114,0.111-0.206,0.229-0.262,0.311l0,0
				c0.032,0.048,0.083,0.12,0.159,0.222l0,0c0.224,0.275,0.408,0.622,0.531,0.995l0,0c0.946,1.717,1.555,3.671,1.605,5.819l0,0
				c0,0,0.009,0.074,0.009,0.258l0,0c-0.047,5.922-4.138,10.661-9.543,13.579l0,0c-0.003,0-0.003,0-0.006,0l0,0
				c-0.006,0.004-0.006,0.007-0.012,0.01l0,0c-0.009,0.006-0.015,0.012-0.023,0.018l0,0c-0.038,0.031-0.058,0.042-0.076,0.051l0,0
				c-0.009,0.006-0.015,0.012-0.023,0.015l0,0c-0.032,0.024-0.05,0.035-0.077,0.054l0,0c-0.062,0.038-0.131,0.09-0.226,0.164l0,0
				c-0.193,0.141-0.449,0.354-0.708,0.63l0,0c-0.446,0.425-0.651,0.898-0.672,1.029l0,0c0,0.017,0,0.024,0,0.036l0,0l0,0l0,0v0.01
				h-0.005l0.005,0.022c0.018,0.08-0.041,0.184,0.346,0.707l0,0c0.218,0.263,0.387,0.558,0.511,0.858l0,0
				c1.405,2.252,2.278,4.835,2.346,7.645l0,0c0,0.05,0,0.151,0,0.308l0,0c-0.142,7.539-6.301,13.112-13.277,16.625l0,0
				c-0.646,0.64-1.429,1.826-1.481,2.513l0,0c0.003,0.031,0.003,0.061,0.003,0.088l0,0h-0.005h-0.006l0,0h0.006h0.005v0.07
				l0.012,0.053c0,0.338,0.07,0.674,0.101,0.778l0,0c2.324,3.049,3.837,6.661,3.932,10.499l0,0c0.009,0.224,0.009,0.366,0.009,0.551
				l0,0c-0.387,14.346-16.566,24.107-35.322,24.681l0,0c-0.493,0.01-0.975,0.01-1.443,0.01l0,0
				C75.611,441.842,59.55,432.853,58.763,418.713L58.763,418.713z M65.269,418.183c0,0.134,0.012,0.152,0.012,0.315l0,0
				c0.029,8.218,12.011,16.938,28.545,16.864l0,0h0.023c0.006,0,0.012,0,0.02,0l0,0l0,0c0.408,0,0.86-0.013,1.3-0.013l0,0
				c16.892-0.358,29.121-9.74,28.935-18.057l0,0c0.012-0.009,0.003-0.023,0.003-0.118l0,0h-0.003c0-0.11,0-0.202,0-0.262l0,0
				c-0.073-2.364-0.93-4.606-2.843-7.162l0,0c-0.819-1.427-1.198-2.938-1.198-4.403l0,0c0.092-4.196,2.803-6.785,4-7.88l0,0
				l0.308-0.234l0.441-0.266c6.118-2.885,10.151-7.439,9.998-10.929l0,0v-0.01c0-0.031,0-0.082,0.003-0.146l0,0
				c-0.003-0.033-0.003-0.063-0.003-0.08l0,0c-0.044-1.616-0.575-3.152-1.74-4.859l0,0c-0.056-0.104-0.13-0.228-0.2-0.389l0,0
				c-0.831-1.261-1.274-2.666-1.265-4.051l0,0c0,0-0.009-0.041,0.009-0.211l0,0c0.264-3.896,2.955-5.992,4.141-6.835l0,0
				c0.213-0.213,0.467-0.395,0.764-0.559l0,0c4.305-2.238,6.436-5.282,6.457-7.878l0,0l0,0c0-0.03-0.009-0.105,0-0.306l0,0
				c0-0.011-0.003-0.021-0.003-0.032l0,0c-0.006-0.025-0.009-0.064-0.006-0.113l0,0c-0.06-1.007-0.393-1.991-1.044-3.038l0,0
				c-0.088-0.137-0.167-0.291-0.241-0.451l0,0c-0.674-1.075-1.051-2.274-1.051-3.478l0,0c0-0.007,0-0.026,0.002-0.095l0,0h-0.002
				c0.191-3.459,2.554-5.251,3.531-5.934l0,0c0.223-0.19,0.467-0.353,0.739-0.49l0,0c3.663-1.771,5.333-4.253,5.3-6.11l0,0h-0.012
				c0.009-0.02,0.012-0.038,0.012-0.066l0,0v-0.086c-0.029-0.756-0.255-1.506-0.875-2.462l0,0c-0.745-1.054-1.174-2.295-1.174-3.534
				l0,0c0.064-0.037,0.039-0.046,0.011-0.09l0,0h-0.011c0.003-0.011,0.003-0.013,0.003-0.021l0,0
				c-0.032-0.061-0.057-0.175,0.032-0.428l0,0c0.266-2.433,1.693-3.93,2.564-4.688l0,0c0.278-0.346,0.646-0.663,1.116-0.883l0,0
				c2.817-1.354,3.973-3.179,3.97-4.35l0,0l0,0l-0.006-0.075l-0.003-0.006c0-0.007,0-0.016,0-0.027l0,0v-0.053
				c-0.011-0.509-0.159-0.963-0.61-1.687l0,0c-0.003-0.01-0.012-0.02-0.015-0.024l0,0v-0.002c-0.012-0.016-0.021-0.031-0.029-0.05
				l0,0l-0.029-0.046c-0.669-0.971-1.027-2.086-1.027-3.187l0,0c0-0.018-0.012-0.064,0.012-0.282l0,0
				c0.152-2.244,1.399-3.628,2.077-4.267l0,0c0.3-0.341,0.661-0.607,1.05-0.794l0,0c2.08-0.979,2.853-2.255,2.9-2.905l0,0h-0.003
				c0,0,0,0,0-0.133l0,0h0.003c0-0.004,0-0.005,0-0.011l0,0h-0.003v-0.007c0-0.019,0-0.038,0-0.06l0,0
				c-0.026-0.372-0.14-0.724-0.778-1.52l0,0l-0.164-0.276c-0.438-0.778-0.654-1.638-0.654-2.538l0,0
				c0.073-2.74,2.171-4.111,2.354-4.245l0,0l0.432-0.244l0.112-0.063c1.761-0.787,2.16-1.829,2.107-1.956l0,0v-0.01
				c0-0.002,0.003-0.006,0.003-0.008l0,0h-0.003v-0.012c0-0.073-0.006-0.147-0.146-0.408l0,0c-0.505-0.689-0.904-1.561-0.941-2.579
				l0,0h-0.006c0,0,0,0,0-0.129l0,0c-0.009-0.086-0.023-0.217,0.015-0.428l0,0c0.246-2.334,2.112-3.53,2.536-3.677l0,0l0.182-0.113
				l0.318-0.166c0.698-0.296,1.156-0.663,1.37-0.909l0,0c0.205-0.214,0.176-0.235,0.176-0.235l0,0v-0.021
				c0.003-0.015,0.005-0.029,0.009-0.049l0,0c-0.59-0.725-1.074-1.693-1.062-3.043l0,0c0.092-1.644,1.101-2.812,1.796-3.325l0,0
				c0.252-0.241,0.554-0.449,0.903-0.593l0,0c0.321-0.139,0.558-0.296,0.705-0.419l0,0c-0.411-0.623-0.722-1.441-0.722-2.506l0,0
				c0.077-1.567,1.065-2.715,1.662-3.146l0,0c0.203-0.177,0.443-0.34,0.76-0.497l0,0c-0.235-0.484-0.394-1.05-0.396-1.679l0,0l0,0
				v-0.021h0.005c0.015-0.05,0.006-0.126,0.006-0.235l0,0h-0.003c0-0.008,0.003-0.019,0.003-0.026l0,0
				c0-0.097,0.009-0.212,0.039-0.346l0,0c0.094-0.61,0.334-1.139,0.628-1.573l0,0l-0.146,0.012c-0.223,0-0.438,0.035-0.619,0.082
				l0,0c0.009,0.164,0.012,0.344,0.006,0.58l0,0c-0.123,1.889-1.567,3.108-2.351,3.466l0,0c-0.226,0.141-0.452,0.244-0.657,0.293
				l0,0c-0.18,0.053-0.329,0.114-0.446,0.176l0,0c0.011,0.082,0.025,0.159,0.033,0.238l0,0c0.029,0.197,0.052,0.461,0.043,0.884l0,0
				c-0.155,2.268-1.975,3.5-2.706,3.773l0,0c-0.191,0.098-0.363,0.164-0.525,0.227l0,0c-0.61,0.182-0.99,0.437-1.183,0.606l0,0
				c0.094,0.299,0.135,0.596,0.147,0.875l0,0c0.02,0.188,0.037,0.411,0.032,0.699l0,0c-0.165,3.061-2.939,4.146-3.152,4.217l0,0
				l-0.305,0.111c-0.921,0.276-1.59,0.696-1.937,1.033l0,0c-0.208,0.197-0.282,0.282-0.302,0.32l0,0
				c0.003,0.021,0.003,0.041,0.006,0.059l0,0l0,0c0.088,0.258,0.131,0.508,0.149,0.731l0,0c0.05,0.287,0.077,0.606,0.077,1.029l0,0
				c-0.182,2.67-2.172,3.976-3.105,4.379l0,0c-0.217,0.126-0.446,0.223-0.681,0.307l0,0c-2.278,0.674-3,2.006-3.045,2.248l0,0
				l0.005,0.105c0,0.042-0.009,0.062,0.032,0.184l0,0c0.123,0.284,0.197,0.559,0.238,0.815l0,0c0.094,0.407,0.138,0.83,0.138,1.356
				l0,0c-0.253,3.415-3.087,4.687-3.68,4.899l0,0l-0.441,0.186c-2.761,0.92-3.97,2.565-4.038,3.298l0,0
				c0,0.031,0.003,0.062,0.003,0.09l0,0h-0.003h-0.006l0,0l0,0h0.006h0.003v0.007l0.012,0.165c0,0.124,0.029,0.297,0.203,0.839l0,0
				l0.011,0.041c0.164,0.552,0.267,1.137,0.267,1.864l0,0c-0.223,3.237-2.583,4.733-3.769,5.281l0,0
				c-0.217,0.156-0.478,0.301-0.807,0.386l0,0c-3.761,1.229-5.563,3.542-5.593,4.874l0,0c0.003,0.036,0.005,0.07,0.005,0.102l0,0
				h-0.002h-0.003l0,0h0.003h0.002v0.027l0.008,0.152c0.015,0.292,0.065,0.576,0.332,1.272l0,0c0.183,0.613,0.285,1.238,0.285,1.975
				l0,0c-0.264,4.034-3.445,5.602-4.64,6.104l0,0c-0.166,0.096-0.363,0.184-0.609,0.271l0,0c-4.983,1.585-7.598,4.695-7.615,6.861
				l0,0c0,0.028,0.002,0.062,0.002,0.088l0,0l0,0h-0.002l0,0l0,0h0.002l0,0l0,0l0.012,0.049v0.197
				c0.009,0.231,0.051,0.534,0.217,1.231l0,0c0.2,0.668,0.303,1.351,0.294,2.103l0,0c-0.273,4.385-3.715,6.168-5.229,6.803l0,0
				c-0.229,0.154-0.49,0.287-0.787,0.381l0,0c-6.368,2.054-9.878,6.055-9.887,9.233l0,0c0,0.021,0.003,0.046,0.003,0.069l0,0h-0.003
				h-0.015l0,0h0.015h0.003v0.089l0.008,0.053c0,0,0,0.022,0,0.144l0,0c0.021,0.637,0.164,1.278,0.51,2.214l0,0
				c0.247,0.786,0.38,1.593,0.38,2.383l0,0h-0.029l0.029,0.1c-0.3,5.027-4.32,7.086-6.105,7.83l0,0
				c-0.255,0.178-0.525,0.306-0.792,0.397l0,0c-7.815,2.681-12.278,7.724-12.208,12.1l0,0c0.003,0,0.003,0.004,0.003,0.007l0,0
				v0.053h-0.011l0.011,0.06c0,0.102,0,0.154,0,0.204l0,0c0.029,0.873,0.203,1.721,0.613,2.815l0,0
				c0.285,0.934,0.428,1.851,0.428,2.802l0,0c-0.311,5.828-5.076,8.37-7.179,9.349l0,0c-0.27,0.219-0.589,0.407-0.959,0.53l0,0
				l0.003,0.008c-9.546,3.411-15.175,9.693-15.135,15.498l0,0c0,0.008,0,0.011,0,0.016l0,0v0.079h-0.005L65.269,418.183
				L65.269,418.183z M140.959,372.46c0.012-0.114,0.009-0.234-0.008-0.354l0,0c-0.006,0.004-0.012,0.006-0.015,0.009l0,0
				C140.953,372.228,140.959,372.344,140.959,372.46L140.959,372.46z M147.107,353.4l0.044-0.003L147.107,353.4L147.107,353.4z
				 M156.311,332.288c0.009-0.12,0-0.25-0.018-0.375l0,0c-0.006,0.002-0.009,0.006-0.011,0.009l0,0
				C156.299,332.038,156.311,332.164,156.311,332.288L156.311,332.288z M161.648,317.421c0.015-0.12,0.009-0.243-0.011-0.366l0,0
				c-0.003,0.002-0.006,0.006-0.012,0.007l0,0C161.64,317.181,161.648,317.301,161.648,317.421L161.648,317.421z M168.346,298.357
				c0.018-0.02,0.036-0.04,0.053-0.06l0,0C168.381,298.317,168.363,298.337,168.346,298.357L168.346,298.357z M168.445,298.237
				c0.005-0.005,0.015-0.015,0.018-0.02l0,0C168.46,298.223,168.451,298.232,168.445,298.237L168.445,298.237z M167.125,291.236
				l-0.021-0.033h-0.026C167.09,291.207,167.104,291.215,167.125,291.236L167.125,291.236z M169.458,283.858l0.039,0.049
				c-0.009-0.015-0.021-0.032-0.033-0.049l0,0H169.458L169.458,283.858z M169.56,283.858v-0.003l0,0l0,0V283.858L169.56,283.858z
				 M169.807,283.851l0.194-0.002h-0.194V283.851L169.807,283.851z M165.502,280.336c0-0.003,0.003-0.005,0.006-0.008l0,0
				c0,0,0,0-0.003,0l0,0C165.505,280.331,165.502,280.333,165.502,280.336L165.502,280.336z M126.577,405.246h0.006H126.577
				L126.577,405.246L126.577,405.246z M105.697,361.411h0.003H105.697L105.697,361.411L105.697,361.411z M133.312,324.595h0.002
				H133.312L133.312,324.595L133.312,324.595z M142.982,311.036h0.003H142.982L142.982,311.036z"/>
		</g>
		<path fill="#FFFFFF" d="M175.855,272.964c-0.042-1.446-2.41-2.521-4.664-2.462c-2.257,0.059-4.05,1.279-4.014,2.726
			c0.011,0.238,0.085,0.464,0.187,0.693l-0.043-0.038c0.328,0.839-0.734,1.198-0.734,1.198l0.035,0.003
			c-1.719,0.563-2.899,1.703-2.865,3.01c0.006,0.285,0.092,0.559,0.208,0.822l-0.041-0.035c0.41,1.057-0.919,1.491-0.919,1.491
			l0.03,0.009c-2.133,0.684-3.602,2.102-3.554,3.718c0.008,0.35,0.112,0.685,0.255,1.004l-0.068-0.05
			c0.438,1.118-0.695,1.681-1.045,1.822c-2.729,0.822-4.61,2.618-4.557,4.646c0.009,0.32,0.07,0.629,0.171,0.924l-0.053-0.038
			c0.64,1.641-1.438,2.325-1.438,2.325l0.052,0.012c-3.198,1.014-5.396,3.137-5.335,5.542c0.015,0.497,0.13,0.959,0.314,1.409
			l-0.047-0.044c0.804,2.062-1.796,2.917-1.796,2.917l0.027,0.006c-3.756,1.284-6.308,3.836-6.233,6.723
			c0.014,0.551,0.134,1.089,0.333,1.604l-0.035-0.032c0.998,2.574-2.248,3.637-2.248,3.637l0.093,0.023
			c-4.701,1.572-7.905,4.754-7.812,8.34c0.021,0.749,0.194,1.453,0.476,2.131c0.927,3.02-2.885,4.282-2.885,4.282l0.042,0.016
			c-5.929,1.919-9.988,5.882-9.867,10.368c0.018,0.598,0.126,1.186,0.285,1.758l-0.062-0.06c1.57,4.021-3.586,5.62-3.586,5.62
			l0.105,0.03c-7.283,2.369-12.261,7.255-12.113,12.777c0.026,1.068,0.264,2.101,0.654,3.092c1.479,4.733-4.602,6.627-4.602,6.627
			l0.129,0.032c-8.69,3-14.576,8.918-14.397,15.599c0.032,1.264,0.308,2.505,0.757,3.682c1.834,5.927-5.905,8.617-5.905,8.617
			l0.208,0.038c-10.454,3.756-17.497,10.971-17.282,19.09c0.308,11.556,15.189,20.53,33.234,20.042
			c18.043-0.469,32.424-10.232,32.118-21.791c-0.085-3.139-1.269-6.075-3.271-8.687c-2.17-3.797,0.812-7.052,2.136-8.229
			c6.75-3.24,11.994-8.436,11.844-14.188c-0.062-2.306-0.849-4.491-2.215-6.461l0.1,0.015c-3.36-4.173,2.119-7.463,2.119-7.463
			h-0.061c5.095-2.645,8.334-6.688,8.217-11.16c-0.049-1.715-0.607-3.346-1.552-4.836l0.108,0.021
			c-2.688-3.339,1.556-5.795,1.556-5.795l-0.032-0.009c4.411-2.122,7.243-5.518,7.146-9.287c-0.041-1.46-0.531-2.837-1.365-4.1
			l0.039,0.007c-2.153-2.666,1.245-4.974,1.245-4.974l-0.096-0.015c3.589-1.72,5.895-4.481,5.813-7.535
			c-0.03-1.187-0.433-2.315-1.115-3.338h0.008c-0.02-0.022-0.035-0.059-0.059-0.087c-0.023-0.023-0.047-0.067-0.067-0.098
			c-1.439-2.05,0.831-3.777,0.831-3.777l-0.036-0.005c2.938-1.393,4.828-3.64,4.763-6.128c-0.035-1.206-0.525-2.323-1.358-3.298
			c-0.772-1.445,0.525-2.406,0.749-2.556c2.467-1.122,4.07-2.976,4.017-5.038c-0.018-0.721-0.252-1.408-0.637-2.034l0.053,0.012
			c-1.45-1.558,0.604-2.394,0.604-2.394h-0.038c2.149-0.939,3.569-2.502,3.52-4.267c-0.019-0.684-0.252-1.329-0.661-1.905h0.018
			c-1.157-1.248,0.423-2.008,0.423-2.008h-0.082c1.713-0.763,2.838-2.025,2.797-3.442c-0.012-0.567-0.22-1.097-0.569-1.574
			l0.055,0.006c-0.93-0.998,0.244-1.602,0.244-1.602h-0.055c1.373-0.61,2.271-1.638,2.241-2.767c-0.015-0.478-0.2-0.918-0.502-1.326
			l0.015,0.008c-0.746-0.801,0.273-1.293,0.273-1.293h-0.012C175.583,274.713,175.875,273.856,175.855,272.964z"/>
	</g>
</g>
</svg>
