<?xml version="1.0" encoding="UTF-8" standalone="no"?>
<!DOCTYPE svg PUBLIC "-//W3C//DTD SVG 1.1//EN" "http://www.w3.org/Graphics/SVG/1.1/DTD/svg11.dtd">
<!-- Created with Vectornator (http://vectornator.io/) -->
<svg height="100%" stroke-miterlimit="10" style="fill-rule:nonzero;clip-rule:evenodd;stroke-linecap:round;stroke-linejoin:round;" version="1.1" viewBox="0 0 1707.41 568" width="100%" xml:space="preserve" xmlns="http://www.w3.org/2000/svg" xmlns:vectornator="http://vectornator.io" xmlns:xlink="http://www.w3.org/1999/xlink">
<defs/>
<clipPath id="ArtboardFrame">
<rect height="568" width="1707.41" x="0" y="0"/>
</clipPath>
<g clip-path="url(#ArtboardFrame)" id="Untitled" vectornator:layerName="Untitled">
<path d="M2035.52 524.58L2051.03 515.58C2054.1 521.733 2059.26 524.81 2066.53 524.81C2073.42 524.81 2077.6 521.73 2077.6 517.3C2077.6 512.87 2071.7 511.4 2061.6 509.3C2047.69 506.23 2038.71 500.57 2038.71 488.76C2038.71 476.08 2051.63 467.35 2066.03 467.35C2078.33 467.35 2086.82 470.67 2094.33 480.02L2079.44 488.51C2076.61 483.59 2072.44 481.25 2066.27 481.25C2059.88 481.25 2056.43 484.08 2056.43 487.89C2056.43 492.57 2063.43 493.55 2072.92 495.89C2085.84 499.21 2095.8 503.64 2095.8 516.69C2095.8 530.1 2082.64 539.33 2066.15 539.33C2052.5 539.22 2042.17 535.41 2035.52 524.58ZM2105.29 537.38L2105.29 477.46L2122.76 467.37L2122.76 537.37L2105.29 537.38ZM2134.94 537.38L2134.94 500.59C2134.94 481.76 2148.85 467.37 2168.16 467.37C2187.73 467.37 2201.39 482.75 2201.39 500.59L2201.39 537.38L2183.67 537.38L2183.67 501.82C2183.67 490.99 2177.02 484.59 2168.16 484.59C2158.44 484.59 2152.66 491.48 2152.66 501.82L2152.66 537.38L2134.94 537.38ZM2210.86 503.17C2210.86 482.17 2226 467.37 2247.16 467.37C2260.32 467.37 2272.16 474.26 2277.8 484.84L2262.66 493.84C2259.65 487.935 2253.54 484.261 2246.91 484.37C2236.58 484.37 2228.7 492.12 2228.7 503.19C2228.7 514.02 2235.96 522.26 2246.91 522.26C2253.91 522.26 2260.08 518.7 2262.91 512.79L2278.04 521.53C2271.71 532.584 2259.9 539.356 2247.16 539.24C2226.24 539.22 2210.86 524.21 2210.86 503.17ZM2287.52 537.38L2287.52 448.29L2305 438.2L2305 472.66C2309.79 469.383 2315.44 467.586 2321.24 467.49C2340.56 467.49 2353.97 480.65 2353.97 500.22L2353.97 537.38L2336.25 537.38L2336.25 501.82C2336.25 490.99 2329.61 484.59 2320.75 484.59C2311.03 484.59 2305.25 491.48 2305.25 501.82L2305.25 537.38L2287.52 537.38Z" fill="#000000" fill-rule="nonzero" opacity="1" stroke="none" vectornator:layerName="path"/>
<path d="M1928.84 507.23C1928.84 525.32 1914.94 539.47 1897.84 539.47C1887.38 539.47 1879.63 534.79 1874.7 527.41L1874.7 538L1864 538L1864 452.35L1874.7 452.35L1874.7 487.3C1879.63 479.79 1887.38 475.24 1897.84 475.24C1914.94 475.12 1928.84 489.14 1928.84 507.23ZM1918.14 507.23C1918.04 495.251 1908.26 485.613 1896.28 485.691C1884.3 485.768 1874.65 495.53 1874.7 507.51C1874.76 519.489 1884.5 529.163 1896.48 529.13C1908.79 529.13 1918.14 519.66 1918.14 507.23Z" fill="#000000" fill-rule="nonzero" opacity="1" stroke="none" vectornator:layerName="path"/>
<path d="M1993.2 476.59L1968.2 541.59C1963.03 555.25 1953.56 563.12 1941.01 562.26L1941.01 552.26C1949.25 552.87 1954.29 547.83 1957.49 539.83L1958.6 537.49L1931.9 476.58L1943.34 476.58L1964.14 524.58L1981.73 476.58L1993.2 476.59Z" fill="#000000" fill-rule="nonzero" opacity="1" stroke="none" vectornator:layerName="path"/>
<path d="M503.09 136.17L543.09 136.17L543.09 159.17C546.957 153.875 551.457 149.073 556.49 144.87C560.945 141.246 565.983 138.406 571.39 136.47C577.278 134.459 583.469 133.478 589.69 133.57C604.357 133.57 617.423 136.903 628.89 143.57C640.661 150.531 650.603 160.198 657.89 171.77C665.63 159.503 675.297 150.07 686.89 143.47C698.483 136.87 711.483 133.57 725.89 133.57C742.557 133.57 757.49 137.803 770.69 146.27C783.887 154.731 794.534 166.622 801.49 180.67C808.888 195.401 812.66 211.686 812.49 228.17L812.49 336.17L772.49 336.17L772.49 228.17C772.621 218.665 770.675 209.246 766.79 200.57C763.263 192.635 757.624 185.821 750.49 180.87C743.245 175.945 734.649 173.394 725.89 173.57C717.077 173.455 708.435 175.999 701.09 180.87C693.705 185.803 687.795 192.645 683.99 200.67C679.872 209.247 677.784 218.657 677.89 228.17L677.89 336.17L637.89 336.17L637.89 228.17C638.001 218.645 635.878 209.226 631.69 200.67C627.832 192.65 621.892 185.812 614.49 180.87C607.146 175.997 598.503 173.453 589.69 173.57C581.132 173.493 572.781 176.195 565.89 181.27C558.662 186.605 552.914 193.695 549.19 201.87C545.084 210.664 543 220.265 543.09 229.97L543.09 336.17L503.09 336.17L503.09 136.17Z" fill="#000000" fill-rule="nonzero" opacity="1" stroke="none" vectornator:layerName="path"/>
<path d="M1048.5 136.17L1048.5 336.17L1008.5 336.17L1008.5 305.77C1001.9 316.512 992.765 325.473 981.9 331.87C971.1 338.203 958.767 341.37 944.9 341.37C926.369 341.517 908.148 336.608 892.2 327.17C876.344 317.92 863.15 304.726 853.9 288.87C834.967 256.18 834.967 215.86 853.9 183.17C863.13 167.272 876.326 154.041 892.2 144.77C908.151 135.337 926.37 130.428 944.9 130.57C958.76 130.57 971.093 133.737 981.9 140.07C992.765 146.467 1001.9 155.428 1008.5 166.17L1008.5 136.17L1048.5 136.17ZM945.3 302.77C957.033 302.77 967.433 299.77 976.5 293.77C985.564 287.771 992.851 279.448 997.6 269.67C1002.68 259.242 1005.25 247.769 1005.1 236.17C1005.26 224.474 1002.69 212.902 997.6 202.37C992.888 192.568 985.593 184.236 976.5 178.27C967.427 172.337 957.027 169.37 945.3 169.37C933.871 169.284 922.647 172.402 912.9 178.37C892.771 190.655 880.552 212.589 880.7 236.17C880.588 247.891 883.627 259.426 889.5 269.57C895.197 279.533 903.358 287.866 913.2 293.77C922.857 299.692 933.972 302.809 945.3 302.77Z" fill="#000000" fill-rule="nonzero" opacity="1" stroke="none" vectornator:layerName="path"/>
<path d="M1138.5 136.17L1138.5 336.17L1098.5 336.17L1098.5 136.17L1138.5 136.17Z" fill="#000000" fill-rule="nonzero" opacity="1" stroke="none" vectornator:layerName="path"/>
<path d="M1188.5 36.17L1228.3 36.17L1228.3 336L1188.5 336L1188.5 36.17Z" fill="#000000" fill-rule="nonzero" opacity="1" stroke="none" vectornator:layerName="path"/>
<path d="M1232.7 436.17L1232.7 396.17C1240.75 396.257 1248.68 394.222 1255.7 390.27C1262.5 386.464 1268.19 380.949 1272.2 374.27C1276.28 367.481 1278.39 359.69 1278.3 351.77L1278.3 136.17L1318.3 136.17L1318.3 351.77C1318.42 366.676 1314.47 381.332 1306.9 394.17C1291.52 420.493 1263.19 436.53 1232.7 436.17Z" fill="#000000" fill-rule="nonzero" opacity="1" stroke="none" vectornator:layerName="path"/>
<path d="M1540.3 190.67C1532.17 172.343 1520.17 157.743 1504.3 146.87C1488.43 135.997 1470.49 130.563 1450.5 130.57C1432.79 130.449 1415.41 135.375 1400.4 144.77C1385.16 154.214 1372.62 167.443 1364 183.17C1346 216.069 1346 255.871 1364 288.77C1372.62 304.497 1385.16 317.726 1400.4 327.17C1426.74 343.412 1459.32 345.872 1487.8 333.77C1499.53 328.746 1510.19 321.515 1519.2 312.47C1528.32 303.358 1535.73 292.69 1541.1 280.97L1493.66 280.97C1489.47 285.981 1484.48 290.271 1478.9 293.67C1470.37 298.901 1460.51 301.574 1450.5 301.37C1441.11 301.359 1431.87 299.023 1423.6 294.57C1415.58 290.215 1408.75 283.967 1403.7 276.37C1398.43 268.465 1394.89 259.537 1393.3 250.17L1549.3 250.17C1551.43 228.843 1548.43 209.01 1540.3 190.67ZM1392.1 219.57C1393.48 209.792 1397.08 200.456 1402.6 192.27C1407.91 184.281 1415.04 177.666 1423.4 172.97C1440.26 163.566 1460.81 163.641 1477.6 173.17C1486.03 177.934 1493.23 184.614 1498.6 192.67C1504.07 200.716 1507.6 209.926 1508.9 219.57L1392.1 219.57Z" fill="#000000" fill-rule="nonzero" opacity="1" stroke="none" vectornator:layerName="path"/>
<path d="M1635 176L1635 336.2L1595 336.2L1595.2 176L1567.8 176L1567.8 136L1595.2 136L1595 73.4L1635 73.4L1635 136L1677.8 136L1677.8 176L1635 176Z" fill="#000000" fill-rule="nonzero" opacity="1" stroke="none" vectornator:layerName="path"/>
<path d="M1097.43 87C1097.43 75.2916 1106.92 65.8 1118.63 65.8C1130.34 65.8 1139.83 75.2916 1139.83 87C1139.83 98.7084 1130.34 108.2 1118.63 108.2C1106.92 108.2 1097.43 98.7084 1097.43 87Z" fill="#000000" fill-rule="nonzero" opacity="1" stroke="none" vectornator:layerName="circle"/>
<path d="M1277.1 87C1277.1 75.2916 1286.59 65.8 1298.3 65.8C1310.01 65.8 1319.5 75.2916 1319.5 87C1319.5 98.7084 1310.01 108.2 1298.3 108.2C1286.59 108.2 1277.1 98.7084 1277.1 87Z" fill="#000000" fill-rule="nonzero" opacity="1" stroke="none" vectornator:layerName="circle"/>
<path d="M2.15 180.82L153.5 249.7L184 219.21L106.51 184L346.67 91.57L254.33 331.68L219.33 254.58L188.82 285.08L190.43 288.63L257.43 436.17L417 21.27L2.15 180.82Z" fill="#000000" fill-rule="nonzero" opacity="1" stroke="none" vectornator:layerName="path"/>
<path d="M1787.88 135.87L1787.88 336.54L1868.15 336.54C1904.23 336.9 1937.73 317.856 1955.88 286.664C1974.03 255.472 1974.03 216.938 1955.88 185.746C1937.73 154.554 1904.23 135.51 1868.15 135.87L1787.88 135.87ZM1810.81 157.37L1868.15 157.37C1911.15 155.94 1946.98 190.37 1948.42 233.37C1949.86 276.37 1915.42 312.21 1872.42 313.64L1810.78 313.64L1810.78 157.37L1810.81 157.37ZM2150.52 157.37L2150.52 135.87L2014.35 135.87L2014.35 336.54L2154.82 336.54L2154.82 315L2037.29 315L2037.29 246.2L2139.06 246.2L2139.06 224.7L2037.29 224.7L2037.29 158.81L2150.52 157.37ZM2276.66 336.54L2358.36 135.87L2334 135.87L2265.19 309.31L2196.39 135.87L2172 135.87L2253.7 336.54L2276.66 336.54Z" fill="#000000" fill-rule="nonzero" opacity="1" stroke="none" vectornator:layerName="path"/>
</g>
</svg>
