<?xml version="1.0" encoding="UTF-8" standalone="no"?>
<!DOCTYPE svg PUBLIC "-//W3C//DTD SVG 1.1//EN" "http://www.w3.org/Graphics/SVG/1.1/DTD/svg11.dtd">
<!-- Created with Vectornator (http://vectornator.io/) -->
<svg height="100%" stroke-miterlimit="10" style="fill-rule:nonzero;clip-rule:evenodd;stroke-linecap:round;stroke-linejoin:round;" version="1.1" viewBox="0 0 32 32" width="100%" xml:space="preserve" xmlns="http://www.w3.org/2000/svg" xmlns:vectornator="http://vectornator.io" xmlns:xlink="http://www.w3.org/1999/xlink">
<defs/>
<g id="dotnetwpf" vectornator:layerName="dotnetwpf">
<path d="M8.20622 21.4222L9.10933 21.4222L10.0267 25.3049L10.0409 25.3049L11.0649 21.4222L11.9751 21.4222L12.9707 25.3049L12.9849 25.3049L13.9307 21.4222L14.8338 21.4222L13.4329 26.4996L12.5298 26.4996L11.5129 22.6169L11.4987 22.6169L10.4604 26.4996L9.54311 26.4996L8.20622 21.4222ZM15.4169 21.4222L17.6569 21.4222C18.0172 21.4222 18.3111 21.4744 18.5387 21.5787C18.7662 21.683 18.9416 21.8133 19.0649 21.9698C19.1881 22.1262 19.2723 22.2969 19.3173 22.4818C19.3624 22.6667 19.3849 22.8373 19.3849 22.9938C19.3849 23.1502 19.3624 23.3197 19.3173 23.5022C19.2723 23.6847 19.1881 23.8542 19.0649 24.0107C18.9416 24.1671 18.7662 24.2963 18.5387 24.3982C18.3111 24.5001 18.0172 24.5511 17.6569 24.5511L16.3058 24.5511L16.3058 26.4996L15.4169 26.4996L15.4169 21.4222ZM16.3058 23.8258L17.6071 23.8258C17.7067 23.8258 17.8086 23.8116 17.9129 23.7831C18.0172 23.7547 18.1132 23.7084 18.2009 23.6444C18.2886 23.5804 18.3597 23.4951 18.4142 23.3884C18.4687 23.2818 18.496 23.1479 18.496 22.9867C18.496 22.8207 18.4723 22.6833 18.4249 22.5742C18.3775 22.4652 18.3135 22.3787 18.2329 22.3147C18.1523 22.2507 18.0599 22.2068 17.9556 22.1831C17.8513 22.1594 17.7399 22.1476 17.6213 22.1476L16.3058 22.1476L16.3058 23.8258ZM20.16 21.4222L23.6658 21.4222L23.6658 22.1902L21.0489 22.1902L21.0489 23.52L23.3458 23.52L23.3458 24.2453L21.0489 24.2453L21.0489 26.4996L20.16 26.4996L20.16 21.4222Z" fill="#000000" fill-rule="evenodd" opacity="1" stroke="none"/>
<path d="M20.3489 15.4201C20.464 15.1242 20.5944 14.8329 20.6917 14.5312C21.2412 12.8265 21.7855 11.1204 22.3262 9.41282C22.534 8.75685 22.7617 8.11096 23.1705 7.54722C23.8171 6.65633 24.7178 6.18963 25.7838 6.02654C26.2037 5.96415 26.6275 5.93156 27.0521 5.92902C28.3172 5.91701 29.5828 5.92541 30.8481 5.92661C30.9154 5.92661 30.9826 5.93358 31.078 5.9391C31.047 6.01212 31.0302 6.06521 31.0033 6.11301C30.5337 6.95225 30.0733 7.79654 29.5897 8.62738C28.7478 10.0738 27.9045 11.5198 27.0362 12.9504C26.4792 13.8677 25.8751 14.7567 25.1898 15.5864C24.6842 16.1984 24.1519 16.7835 23.4734 17.2125C23.011 17.5048 22.5172 17.6758 21.9565 17.6729C19.9682 17.6621 17.9798 17.6701 15.9915 17.6672C15.4004 17.6662 14.8943 17.4411 14.4648 17.0419C13.8492 16.47 13.4817 15.742 13.181 14.9743C12.6323 13.5728 12.3251 12.1037 11.9725 10.6474C11.8073 9.96576 11.6194 9.28936 11.4405 8.61105C11.429 8.56709 11.4064 8.52602 11.3804 8.46285L11.2419 8.59303C10.4665 9.36334 9.78362 10.2122 9.17256 11.1146C9.0061 11.3606 8.95014 11.6848 8.85718 11.9772C8.51514 13.0508 8.20337 14.1348 7.83299 15.1984C7.47821 16.2173 6.84217 17.0278 5.848 17.5067C5.27153 17.7862 4.64161 17.9382 4.00113 17.9523C3.04515 17.9734 2.08869 17.9758 1.13247 17.9845C0.903799 17.9866 0.89323 17.9679 0.952799 17.7467C1.36281 16.2243 1.88236 14.7409 2.53329 13.305C3.2044 11.8237 3.99489 10.4111 4.99074 9.12099C5.66882 8.24259 6.41775 7.43216 7.35499 6.81942C7.83034 6.50885 8.33572 6.26337 8.91075 6.19876C9.00538 6.18795 9.10122 6.18122 9.19634 6.18122C11.2327 6.18026 13.2691 6.20092 15.3053 6.17185C16.3974 6.15624 17.1882 6.61742 17.7802 7.49654C18.1485 8.04322 18.412 8.64011 18.6337 9.2567C19.0807 10.5004 19.3586 11.79 19.6725 13.0705C19.8522 13.8034 20.0523 14.5312 20.2439 15.2611C20.2583 15.3159 20.2816 15.3683 20.3011 15.4216C20.3011 15.4216 20.3489 15.4201 20.3489 15.4201Z" fill="#000000" fill-rule="evenodd" opacity="1" stroke="none"/>
</g>
</svg>
