<?xml version="1.0" encoding="UTF-8" standalone="no"?>
<!DOCTYPE svg PUBLIC "-//W3C//DTD SVG 1.1//EN" "http://www.w3.org/Graphics/SVG/1.1/DTD/svg11.dtd">
<!-- Created with Vectornator (http://vectornator.io/) -->
<svg height="100%" stroke-miterlimit="10" style="fill-rule:nonzero;clip-rule:evenodd;stroke-linecap:round;stroke-linejoin:round;" version="1.1" viewBox="0 0 52 52" width="100%" xml:space="preserve" xmlns="http://www.w3.org/2000/svg" xmlns:vectornator="http://vectornator.io" xmlns:xlink="http://www.w3.org/1999/xlink">
<defs/>
<g id="Untitled" vectornator:layerName="Untitled">
<g opacity="1" vectornator:layerName="g">
<path d="M36.3879 33.2925L36.3879 25.346L22.847 25.346L14.9005 33.2925L36.3879 33.2925Z" fill="#ff8b00" fill-rule="nonzero" opacity="1" stroke="none" vectornator:layerName="path"/>
<path d="M51.6453 13.5851L34.6715 13.5851L26.6614 21.5316L51.6453 21.5316L51.6453 13.5851Z" fill="#55b2c6" fill-rule="nonzero" opacity="1" stroke="none" vectornator:layerName="path"/>
<path d="M7.01752 41.239L11.0862 37.1704L24.8178 37.1704L24.8178 45.117L7.01752 45.117L7.01752 41.239Z" fill="#ff0000" fill-rule="nonzero" opacity="1" stroke="none" vectornator:layerName="path"/>
<path d="M10.0054 29.4146L18.7784 29.4146L26.7885 21.4681L10.0054 21.4681L10.0054 29.4146Z" fill="#b4bbbf" fill-rule="nonzero" opacity="1" stroke="none" vectornator:layerName="path"/>
<path d="M0.406005 41.239L7.01752 41.239L14.9005 33.2925L0.406005 33.2925L0.406005 41.239Z" fill="#b4bbbf" fill-rule="nonzero" opacity="1" stroke="none" vectornator:layerName="path"/>
<path d="M34.6715 13.5851L30.6028 17.6537L4.66535 17.6537L4.66535 9.70718L34.6715 9.70718L34.6715 13.5851Z" fill="#b4bbbf" fill-rule="nonzero" opacity="1" stroke="none" vectornator:layerName="path"/>
</g>
</g>
</svg>
