<?xml version="1.0" encoding="UTF-8" standalone="no"?>
<!DOCTYPE svg PUBLIC "-//W3C//DTD SVG 1.1//EN" "http://www.w3.org/Graphics/SVG/1.1/DTD/svg11.dtd">
<!-- Created with Vectornator (http://vectornator.io/) -->
<svg height="100%" stroke-miterlimit="10" style="fill-rule:nonzero;clip-rule:evenodd;stroke-linecap:round;stroke-linejoin:round;" version="1.1" viewBox="0 0 32 32" width="100%" xml:space="preserve" xmlns="http://www.w3.org/2000/svg" xmlns:vectornator="http://vectornator.io" xmlns:xlink="http://www.w3.org/1999/xlink">
<defs/>
<g id="dotnetwcf" vectornator:layerName="dotnetwcf">
<path d="M8.01067 21.5431L8.91378 21.5431L9.83111 25.4258L9.84533 25.4258L10.8693 21.5431L11.7796 21.5431L12.7751 25.4258L12.7893 25.4258L13.7351 21.5431L14.6382 21.5431L13.2373 26.6204L12.3342 26.6204L11.3173 22.7378L11.3031 22.7378L10.2649 26.6204L9.34756 26.6204L8.01067 21.5431ZM18.6489 23.1573C18.611 23.0104 18.5588 22.8753 18.4924 22.752C18.4261 22.6287 18.3407 22.5221 18.2364 22.432C18.1321 22.3419 18.0101 22.272 17.8702 22.2222C17.7304 22.1724 17.568 22.1476 17.3831 22.1476C17.1129 22.1476 16.8794 22.2021 16.6827 22.3111C16.4859 22.4201 16.3259 22.5659 16.2027 22.7484C16.0794 22.931 15.9881 23.1384 15.9289 23.3707C15.8696 23.603 15.84 23.84 15.84 24.0818C15.84 24.3236 15.8696 24.5606 15.9289 24.7929C15.9881 25.0252 16.0794 25.2326 16.2027 25.4151C16.3259 25.5976 16.4859 25.7434 16.6827 25.8524C16.8794 25.9615 17.1129 26.016 17.3831 26.016C17.5822 26.016 17.7576 25.9816 17.9093 25.9129C18.061 25.8441 18.1914 25.7493 18.3004 25.6284C18.4095 25.5076 18.4948 25.3665 18.5564 25.2053C18.6181 25.0441 18.6584 24.8711 18.6773 24.6862L19.5449 24.6862C19.5259 24.9896 19.4607 25.267 19.3493 25.5182C19.2379 25.7695 19.0874 25.9864 18.8978 26.1689C18.7081 26.3514 18.4853 26.4924 18.2293 26.592C17.9733 26.6916 17.6913 26.7413 17.3831 26.7413C17.0038 26.7413 16.6637 26.6714 16.3627 26.5316C16.0616 26.3917 15.8068 26.2009 15.5982 25.9591C15.3896 25.7173 15.2296 25.4353 15.1182 25.1129C15.0068 24.7905 14.9511 24.4468 14.9511 24.0818C14.9511 23.7215 15.0068 23.3801 15.1182 23.0578C15.2296 22.7354 15.3896 22.4533 15.5982 22.2116C15.8068 21.9698 16.0616 21.7778 16.3627 21.6356C16.6637 21.4933 17.0038 21.4222 17.3831 21.4222C17.6676 21.4222 17.9354 21.4613 18.1867 21.5396C18.4379 21.6178 18.6596 21.7316 18.8516 21.8809C19.0436 22.0302 19.1988 22.2116 19.3173 22.4249C19.4359 22.6382 19.5093 22.8824 19.5378 23.1573L18.6489 23.1573ZM20.3556 21.5431L23.8613 21.5431L23.8613 22.3111L21.2444 22.3111L21.2444 23.6409L23.5413 23.6409L23.5413 24.3662L21.2444 24.3662L21.2444 26.6204L20.3556 26.6204L20.3556 21.5431Z" fill="#000000" fill-rule="evenodd" opacity="1" stroke="none"/>
<path d="M20.3489 15.4201C20.464 15.1242 20.5944 14.8329 20.6917 14.5312C21.2412 12.8265 21.7855 11.1204 22.3262 9.41282C22.534 8.75685 22.7617 8.11096 23.1705 7.54722C23.8171 6.65633 24.7178 6.18963 25.7838 6.02654C26.2037 5.96415 26.6275 5.93156 27.0521 5.92902C28.3172 5.91701 29.5828 5.92541 30.8481 5.92661C30.9154 5.92661 30.9826 5.93358 31.078 5.9391C31.047 6.01212 31.0302 6.06521 31.0033 6.11301C30.5337 6.95225 30.0733 7.79654 29.5897 8.62738C28.7478 10.0738 27.9045 11.5198 27.0362 12.9504C26.4792 13.8677 25.8751 14.7567 25.1898 15.5864C24.6842 16.1984 24.1519 16.7835 23.4734 17.2125C23.011 17.5048 22.5172 17.6758 21.9565 17.6729C19.9682 17.6621 17.9798 17.6701 15.9915 17.6672C15.4004 17.6662 14.8943 17.4411 14.4648 17.0419C13.8492 16.47 13.4817 15.742 13.181 14.9743C12.6323 13.5728 12.3251 12.1037 11.9725 10.6474C11.8073 9.96576 11.6194 9.28936 11.4405 8.61105C11.429 8.56709 11.4064 8.52602 11.3804 8.46285L11.2419 8.59303C10.4665 9.36334 9.78362 10.2122 9.17256 11.1146C9.0061 11.3606 8.95014 11.6848 8.85718 11.9772C8.51514 13.0508 8.20337 14.1348 7.83299 15.1984C7.47821 16.2173 6.84217 17.0278 5.848 17.5067C5.27153 17.7862 4.64161 17.9382 4.00113 17.9523C3.04515 17.9734 2.08869 17.9758 1.13247 17.9845C0.903799 17.9866 0.89323 17.9679 0.952799 17.7467C1.36281 16.2243 1.88236 14.7409 2.53329 13.305C3.2044 11.8237 3.99489 10.4111 4.99074 9.12099C5.66882 8.24259 6.41775 7.43216 7.35499 6.81942C7.83034 6.50885 8.33572 6.26337 8.91075 6.19876C9.00538 6.18795 9.10122 6.18122 9.19634 6.18122C11.2327 6.18026 13.2691 6.20092 15.3053 6.17185C16.3974 6.15624 17.1882 6.61742 17.7802 7.49654C18.1485 8.04322 18.412 8.64011 18.6337 9.2567C19.0807 10.5004 19.3586 11.79 19.6725 13.0705C19.8522 13.8034 20.0523 14.5312 20.2439 15.2611C20.2583 15.3159 20.2816 15.3683 20.3011 15.4216C20.3011 15.4216 20.3489 15.4201 20.3489 15.4201Z" fill="#000000" fill-rule="evenodd" opacity="1" stroke="none"/>
</g>
</svg>
