<svg xmlns="http://www.w3.org/2000/svg" xmlns:xlink="http://www.w3.org/1999/xlink" viewBox="0 0 64 65" fill="#fff" fill-rule="evenodd" stroke="#000" stroke-linecap="round" stroke-linejoin="round"><use xlink:href="#A" x=".5" y=".5"/><symbol id="A" overflow="visible"><path d="M0 14.13L28.986.534c1.672-.78 3.232-.67 4.903.1l27.303 12.828c.67.334 1.45.557 1.45 1.337 0 1.003-.892 1.114-1.56 1.45l-26.2 12.257c-2.452 1.114-4.57 1.114-7.02 0L0 15.579v-1.45zm0 34.658l5.126-2.563c2.117-1.114 4.123-.892 6.24.1l16.827 7.912c2.117 1.003 4.123 1.003 6.24 0l17.05-8.024c2.117-1.003 4.123-1.003 6.24 0 1.226.67 2.563 1.226 3.8 1.783.557.334 1.337.557 1.226 1.337 0 .67-.67 1.003-1.226 1.226L48.82 56.587l-14.377 6.685c-1.894.892-3.8 1.003-5.683.1L1.794 50.794c-.557-.223-1.003-.67-1.56-1.003-.223-.223-.223-.557-.223-1.003zm0-17.273l3.9-1.894c3-1.783 5.795-1.45 8.915.1 5.238 2.675 10.587 4.903 15.824 7.466 2.006.892 3.8.892 5.683 0l16.827-7.912c2.34-1.114 4.57-1.226 6.9 0 1.226.67 2.675 1.226 3.9 1.894 1.114.67 1.003 1.337 0 2.006-.334.223-.67.334-1.003.446L34.112 46.102c-1.783.892-3.566.892-5.35 0L1.906 33.632c-.67-.334-1.226-.78-1.894-1.114v-1.003z" stroke="none" fill="#000" fill-rule="nonzero"/></symbol></svg>