<?xml version="1.0" encoding="utf-8"?>
<!-- Generator: Adobe Illustrator 15.0.2, SVG Export Plug-In  -->
<!DOCTYPE svg PUBLIC "-//W3C//DTD SVG 1.1//EN" "http://www.w3.org/Graphics/SVG/1.1/DTD/svg11.dtd" [
	<!ENTITY ns_flows "http://ns.adobe.com/Flows/1.0/">
]>
<svg version="1.1"
	 xmlns="http://www.w3.org/2000/svg" xmlns:xlink="http://www.w3.org/1999/xlink" xmlns:a="http://ns.adobe.com/AdobeSVGViewerExtensions/3.0/"
	 x="0px" y="0px" width="256px" height="256px" viewBox="-1.592 -1.224 256 256"
	 overflow="visible" enable-background="new -1.592 -1.224 256 256" xml:space="preserve">
<defs>
</defs>
<radialGradient id="SVGID_1_" cx="-18.124" cy="-18.1631" r="124.1479" gradientTransform="matrix(1.6623 0 0 1.6623 111.9742 112.9553)" gradientUnits="userSpaceOnUse">
	<stop  offset="0.0184" style="stop-color:#DFE7EA"/>
	<stop  offset="0.2109" style="stop-color:#D5DEE4"/>
	<stop  offset="0.542" style="stop-color:#BBC8D4"/>
	<stop  offset="0.9695" style="stop-color:#93A8BD"/>
	<stop  offset="1" style="stop-color:#90A6BB"/>
</radialGradient>
<path fill="url(#SVGID_1_)" d="M253.093,126.547c0,69.89-56.658,126.544-126.548,126.544C56.657,253.091,0,196.437,0,126.547
	C0,56.656,56.657,0,126.544,0C196.435,0,253.093,56.656,253.093,126.547z"/>
<radialGradient id="SVGID_2_" cx="-17.436" cy="-19.7065" r="114.523" gradientTransform="matrix(1.6623 0 0 1.6623 111.9742 112.9553)" gradientUnits="userSpaceOnUse">
	<stop  offset="0" style="stop-color:#90A6BB"/>
	<stop  offset="0.2033" style="stop-color:#738397"/>
	<stop  offset="0.5568" style="stop-color:#4D5A6B"/>
	<stop  offset="0.8345" style="stop-color:#374554"/>
	<stop  offset="1" style="stop-color:#2F3D4C"/>
</radialGradient>
<path fill="url(#SVGID_2_)" d="M74.369,133.886c-0.054-3.872-0.056-7.742-0.01-11.61c0.02-1.605-1.321-2.882-3.007-2.848
	c-3.638,0.069-7.275,0.179-10.912,0.262c0.016-0.015,0.03-0.03,0.045-0.045c2.152-0.625,4.303-1.256,6.454-1.897
	c-0.73-0.647-1.448-1.274-2.172-1.915c0.948-0.744,1.918-1.448,2.903-2.113c9.731,6.936,19.275,11.362,23.803,13.231
	c-0.001,2.043-0.02,4.086-0.005,6.127c0.013,1.648,1.396,3.004,3.082,3.021c19.129,0.199,38.257,0.205,57.386,0.02
	c1.684-0.018,3.064-1.374,3.078-3.029c0.03-3.996,0.023-7.993-0.007-11.991c-0.017-1.655-1.399-3.014-3.082-3.033
	c-19.122-0.211-38.243-0.205-57.365,0.02c-1.682,0.022-3.07,1.379-3.083,3.03c-0.016,1.729-0.001,3.458-0.004,5.187
	c-4.553-1.894-13.809-6.218-23.265-12.938c8.781-5.792,18.517-8.624,23.658-9.766c-0.045,1.386-0.11,2.773-0.147,4.158
	c-0.045,1.652,1.282,2.959,2.964,2.925c19.04-0.401,38.083-0.413,57.126-0.037c1.679,0.03,3.01-1.281,2.967-2.936
	c-0.104-3.997-0.235-7.992-0.4-11.99c-0.071-1.653-1.468-3.059-3.11-3.128c-18.67-0.774-37.335-0.748-56.005,0.077
	c-1.646,0.073-3.042,1.479-3.118,3.129c-0.069,1.58-0.109,3.159-0.167,4.739c-5.069-0.759-14.573-2.756-22.457-7.531
	c10.12-7.849,19.227-12.979,23.655-15.198c-0.097,1.411-0.211,2.823-0.3,4.234c-0.104,1.652,1.135,2.91,2.761,2.822
	c18.426-1.01,36.853-1.042,55.28-0.094c1.627,0.082,2.869-1.185,2.771-2.838c-0.104-1.764-0.234-3.528-0.352-5.292
	c0.246,0.017,0.49,0.039,0.737,0.056c1.882,1.208,3.772,2.419,5.677,3.634c-0.083-1.076-0.177-2.15-0.265-3.225
	c3.728,0.312,7.456,0.687,11.184,1.098c0.185,1.708,0.395,3.417,0.56,5.125c0.154,1.607,1.588,3.026,3.214,3.18
	c18.428,1.781,36.854,4.538,55.28,8.272c1.627,0.324,2.676-0.412,2.315-1.659c-0.859-3.021-1.83-6.042-2.919-9.06
	c-0.452-1.247-2.099-2.651-3.655-3.123c-17.683-5.307-35.369-9.224-53.052-11.75c-1.554-0.227-2.648,0.907-2.455,2.513
	c0.24,1.975,0.433,3.947,0.647,5.92c-3.722-0.416-7.444-0.794-11.167-1.111c-0.092-1.11-0.177-2.219-0.273-3.33
	c-1.756,0.942-3.533,1.913-5.322,2.9c-0.182-0.013-0.364-0.029-0.546-0.042c-0.135-2.034-0.256-4.066-0.404-6.1
	c-0.093-1.198-0.838-2.281-1.83-2.836c0.006-0.009,0.01-0.021,0.016-0.031c1.843-0.752,3.677-1.485,5.493-2.189
	c-0.926-0.754-1.832-1.505-2.75-2.258c5.065-7.068,10.745-9.472,13.336-10.208c0.324,1.972,0.672,3.944,0.972,5.916
	c0.239,1.61,1.662,3.099,3.186,3.35c17.284,2.85,34.562,7.269,51.846,13.258c1.524,0.522,2.33-0.05,1.771-1.297
	c-1.345-3.018-2.803-6.039-4.374-9.06c-0.652-1.244-2.354-2.815-3.777-3.487c-16.168-7.558-32.335-13.136-48.503-16.737
	c-1.423-0.319-2.338,0.744-2.057,2.349c0.256,1.441,0.47,2.882,0.71,4.324c-2.573-1.493-7.852-4.969-13.179-11.202
	c0.164-0.063,0.335-0.136,0.499-0.199c-0.708-0.64-1.393-1.271-2.093-1.908c0.623-0.491,1.266-1.002,1.875-1.479
	c-0.349-0.227-0.688-0.444-1.037-0.669c3.807-4.868,7.697-6.492,9.626-6.994c0.357,1.651,0.741,3.302,1.081,4.953
	c0.324,1.607,1.699,3.169,3.078,3.512c15.621,3.917,31.24,9.985,46.861,18.206c1.377,0.721,1.904,0.312,1.145-0.934
	c-1.826-3.021-3.765-6.038-5.813-9.059c-0.856-1.247-2.577-2.982-3.816-3.851c-14.14-9.792-28.279-17.02-42.417-21.684
	c-1.24-0.413-1.942,0.577-1.574,2.185c0.465,2.013,0.88,4.028,1.318,6.042c-1.926,0.473-6.028,2.108-10.016,7.282
	c-1.306-0.845-2.612-1.689-3.896-2.517c-0.025-0.042-0.053-0.084-0.079-0.126c0.391-0.479,0.581-1.188,0.476-2.021
	c-0.502-3.997-1.034-7.994-1.594-11.991c-0.236-1.654-1.44-3.195-2.683-3.414c-14.138-2.484-28.279-2.402-42.417,0.244
	c-1.24,0.235-2.457,1.784-2.705,3.434c-0.237,1.582-0.444,3.165-0.671,4.748c-5.543,2.173-32.666,14.14-45.958,44.32
	c-0.893-0.136-1.803-0.291-2.675-0.408c-0.096,2.133-0.161,4.259-0.206,6.378c-9.256,2.031-18.512,4.433-27.765,7.226
	c-1.557,0.475-3.21,1.878-3.667,3.121c-1.088,3.006-2.068,6.017-2.934,9.023c-0.357,1.243,0.691,1.976,2.314,1.649
	c9.05-1.844,18.101-3.447,27.15-4.819c0.076,0.134,0.16,0.262,0.237,0.396c-0.284,1.958-0.547,3.919-0.779,5.877
	c1.079-0.659,2.153-1.335,3.23-2.004c2.425,3.498,5.224,6.721,8.216,9.68c-3.567,3.496-7.069,7.299-10.355,11.411
	c-0.978-0.484-1.964-0.984-2.937-1.455c-0.156,1.942-0.278,3.885-0.384,5.827c-0.079,0.109-0.16,0.216-0.239,0.324
	c-9.393,0.276-18.783,0.597-28.174,0.968c-1.688,0.069-3.112,1.136-3.158,2.379c-0.102,3.006-0.095,6.014,0.027,9.022
	c0.048,1.245,1.478,2.313,3.164,2.391c19.12,0.826,38.244,1.434,57.366,1.83C73.053,136.764,74.392,135.49,74.369,133.886z
	 M91.954,101.143c-0.022,0.616-0.044,1.232-0.065,1.847c-5.198,1.152-15.187,4.051-24.173,10.024
	c-3.688-2.653-7.386-5.669-10.838-9.047c4.035-3.925,8.143-7.446,12.112-10.552C77.052,98.337,86.821,100.379,91.954,101.143z
	 M69.037,92.712c-0.853-0.532-1.684-1.099-2.486-1.699c0.784-0.727,1.57-1.444,2.353-2.176c-2.016-0.38-4.018-0.732-6.014-1.067
	c-0.014-0.015-0.028-0.03-0.042-0.046c3.479-0.41,6.959-0.818,10.439-1.158c1.627-0.157,3.063-1.577,3.217-3.183
	c0.168-1.707,0.383-3.417,0.569-5.125c0.074-0.008,0.148-0.017,0.222-0.025c1.702,0.849,3.418,1.717,5.154,2.614
	c0.095-1.059,0.203-2.118,0.302-3.178c3.499-0.344,6.998-0.643,10.497-0.899c-0.008,0.127-0.019,0.256-0.026,0.384
	C88.827,79.343,79.457,84.603,69.037,92.712z M167.029,51.657c0.009,0.043,0.016,0.087,0.022,0.131
	c-2.561,0.695-8.468,3.102-13.712,10.441c-0.854-0.703-1.719-1.407-2.565-2.107c-0.032,2.156-0.086,4.316-0.144,6.478
	c-0.043,0.082-0.084,0.175-0.127,0.257c-0.216-0.07-0.438-0.125-0.667-0.142c-17.683-1.347-35.369-1.301-53.051,0.132
	c-1.557,0.129-2.932,1.582-3.066,3.231c-0.161,2.029-0.288,4.06-0.431,6.09c-3.494,0.259-6.989,0.562-10.483,0.91
	c0.105-1.102,0.202-2.203,0.315-3.304c-1.969,1.298-3.947,2.598-5.937,3.896c-0.016,0.001-0.032,0.004-0.047,0.005
	c0.219-1.968,0.412-3.935,0.656-5.903c0.196-1.604-0.896-2.734-2.453-2.505c-3.188,0.461-6.377,0.983-9.565,1.535
	c2.161-0.956,4.314-1.906,6.457-2.848c-0.593-0.565-1.152-1.099-1.733-1.652c9.524-8.205,19.778-12.48,24.882-14.161
	c-0.144,1.394-0.307,2.788-0.443,4.182c-0.164,1.649,0.947,2.858,2.471,2.718c17.28-1.619,34.562-1.668,51.845-0.151
	c1.524,0.133,2.643-1.086,2.485-2.742c-0.367-3.996-0.768-7.993-1.196-11.992c-0.105-0.961-0.596-1.861-1.264-2.486
	c0.011-0.024,0.021-0.045,0.033-0.069c1.339-0.55,2.659-1.073,3.971-1.586C158.865,46.595,164.452,50.188,167.029,51.657z
	 M55.513,68.302c-0.729-0.125-1.427-0.215-2.144-0.327c13.083-29.602,39.53-41.55,45.459-43.907c-0.32,2.245-0.652,4.49-0.951,6.735
	c-0.223,1.651,0.725,2.814,2.104,2.62c15.617-2.221,31.236-2.291,46.858-0.207c0.503,0.067,0.948-0.052,1.304-0.305
	c0.053,0.087,0.106,0.173,0.159,0.258c0.171,0.851,0.34,1.701,0.508,2.552c0.046,1.777,0.082,3.557,0.109,5.337
	c-0.039,0.08-0.079,0.155-0.118,0.237c-0.364-0.241-0.761-0.408-1.169-0.457c-16.168-1.915-32.333-1.851-48.5,0.189
	c-1.423,0.18-2.738,1.683-2.928,3.333c-0.272,2.39-0.511,4.78-0.76,7.17c-5.129,1.688-15.573,6.046-25.288,14.448
	c-0.659-0.628-1.336-1.273-1.978-1.886c-0.824,2.032-1.636,4.054-2.443,6.07c-0.248,0.257-0.495,0.513-0.74,0.775
	c-4.894,0.858-9.787,1.817-14.681,2.888C52.061,71.986,53.795,70.146,55.513,68.302z M48.39,94.01
	c0.934-0.581,1.87-1.152,2.802-1.739c-1.746-0.712-3.472-1.385-5.189-2.039c-0.05-0.088-0.104-0.173-0.155-0.261
	c5.402-0.813,10.804-1.515,16.206-2.16c0.112,0.124,0.224,0.249,0.339,0.369c0.27,1.949,0.554,3.905,0.874,5.872
	c0.939-0.86,1.875-1.735,2.813-2.603c0.786,0.59,1.6,1.145,2.433,1.67c-3.938,3.09-8.01,6.586-12.012,10.473
	C53.548,100.663,50.785,97.474,48.39,94.01z M56.436,104.402c3.424,3.341,7.089,6.334,10.745,8.971
	c-0.963,0.657-1.914,1.349-2.845,2.081c-0.845-0.746-1.699-1.505-2.538-2.238c-0.618,2.047-1.218,4.083-1.806,6.114
	c-0.124,0.126-0.247,0.253-0.369,0.38c-5.587,0.13-11.174,0.241-16.762,0.405c0.013-0.018,0.025-0.034,0.038-0.05
	c1.991-0.999,3.986-2.013,5.986-3.048c-0.896-0.456-1.781-0.882-2.674-1.326C49.457,111.624,52.913,107.862,56.436,104.402z"/>
<radialGradient id="SVGID_3_" cx="-17.4365" cy="-19.7075" r="114.5239" gradientTransform="matrix(1.6623 0 0 1.6623 111.9742 112.9553)" gradientUnits="userSpaceOnUse">
	<stop  offset="0" style="stop-color:#90A6BB"/>
	<stop  offset="0.2033" style="stop-color:#738397"/>
	<stop  offset="0.5568" style="stop-color:#4D5A6B"/>
	<stop  offset="0.8345" style="stop-color:#374554"/>
	<stop  offset="1" style="stop-color:#2F3D4C"/>
</radialGradient>
<path fill="url(#SVGID_3_)" d="M213.639,200.137c-15.621,8.223-31.24,14.292-46.861,18.205c-1.379,0.345-2.754,1.905-3.078,3.513
	c-0.405,1.975-0.86,3.948-1.293,5.923c-2.212-0.574-7.025-2.643-11.295-9.485c0.865-0.789,1.713-1.572,2.591-2.362
	c-1.613-0.626-3.25-1.29-4.905-1.977c-0.005-0.01-0.008-0.021-0.013-0.029c0.927-0.59,1.65-1.696,1.78-2.894
	c0.219-2.032,0.404-4.063,0.606-6.095c0.007,0,0.017-0.002,0.022-0.002c0.02-0.201,0.04-0.4,0.06-0.6
	c-0.008,0.002-0.014,0.002-0.022,0.002c0.174-1.766,0.365-3.531,0.527-5.296c0.153-1.657-0.964-2.876-2.488-2.746
	c-17.293,1.515-34.585,1.466-51.877-0.147c-1.528-0.141-2.639,1.068-2.475,2.72c0.171,1.753,0.372,3.505,0.556,5.259
	c-3.247-0.385-6.495-0.833-9.74-1.35c-0.15-1.056-0.311-2.11-0.454-3.166c-1.544,0.799-3.057,1.559-4.554,2.298
	c-0.089-0.014-0.179-0.033-0.269-0.049c-0.279-1.694-0.583-3.391-0.842-5.087c-0.243-1.605-1.67-3.097-3.194-3.35
	c-3.27-0.542-6.54-1.161-9.809-1.816c0.018-0.02,0.033-0.041,0.05-0.059c1.827-0.191,3.663-0.4,5.513-0.649
	c-0.778-0.771-1.568-1.536-2.349-2.306c7.325-5.641,18.101-7.572,23.545-8.213c0.113,1.578,0.209,3.154,0.332,4.729
	c0.134,1.649,1.511,3.103,3.069,3.231c17.692,1.43,35.385,1.473,53.079,0.134c1.555-0.12,2.925-1.568,3.049-3.223
	c0.296-3.998,0.562-7.996,0.798-11.992c0.098-1.653-1.145-2.921-2.774-2.841c-18.434,0.945-36.867,0.912-55.299-0.093
	c-1.626-0.084-2.866,1.172-2.761,2.823c0.136,2.207,0.308,4.416,0.465,6.623c-5.493,0.643-16.508,2.6-23.976,8.357
	c-0.948-0.93-1.889-1.862-2.841-2.787c-0.148,1.935-0.26,3.857-0.353,5.772c-0.099,0.113-0.193,0.228-0.288,0.344
	c-13.775-2.799-27.553-6.572-41.328-11.354c-1.529-0.524-2.332,0.044-1.771,1.284c1.348,3.01,2.811,6.018,4.384,9.025
	c0.655,1.241,2.364,2.811,3.787,3.481c13.621,6.385,27.243,11.352,40.864,14.936c0.301,2.283,0.604,4.571,0.912,6.871
	c0.607-0.36,1.264-0.749,1.893-1.122c7.625,13.619,20.693,16.681,24.292,17.278c0.223,1.562,0.427,3.124,0.661,4.687
	c0.249,1.65,1.465,3.199,2.705,3.434c14.138,2.647,28.279,2.728,42.417,0.247c1.242-0.22,2.446-1.762,2.683-3.415
	c0.56-3.998,1.092-7.996,1.594-11.992c0.21-1.654-0.745-2.83-2.124-2.646c-15.622,2.085-31.241,2.014-46.858-0.207
	c-1.38-0.193-2.328,0.969-2.104,2.619c0.304,2.28,0.641,4.561,0.965,6.839c-3.698-0.632-16.411-3.729-23.869-17.056
	c0.633-0.377,1.24-0.737,1.896-1.124c-1.399-1.377-2.811-2.779-4.221-4.186c2.279,0.592,4.558,1.151,6.837,1.664
	c1.423,0.32,2.337-0.735,2.052-2.341c-0.35-1.967-0.653-3.935-0.979-5.901c0.014,0.002,0.026,0.004,0.038,0.006
	c1.915,1.404,3.812,2.803,5.692,4.195c-0.166-1.101-0.313-2.201-0.471-3.302c3.24,0.519,6.48,0.973,9.72,1.359
	c0.215,2.029,0.414,4.059,0.644,6.089c0.19,1.652,1.505,3.153,2.928,3.333c16.181,2.037,32.362,2.101,48.547,0.189
	c0.207-0.025,0.41-0.085,0.609-0.164c0.037,0.085,0.072,0.178,0.109,0.261c-0.026,2.149-0.063,4.3-0.116,6.449
	c0.786-0.726,1.601-1.461,2.399-2.189c4.424,7.104,9.426,9.164,11.611,9.698c-0.373,1.692-0.718,3.385-1.108,5.075
	c-0.368,1.607,0.334,2.598,1.574,2.186c14.138-4.665,28.277-11.894,42.417-21.685c1.239-0.868,2.96-2.604,3.816-3.85
	c2.049-3.021,3.987-6.04,5.813-9.06C215.543,199.825,215.016,199.417,213.639,200.137z"/>
<radialGradient id="SVGID_4_" cx="-17.4355" cy="-19.7085" r="114.5234" gradientTransform="matrix(1.6623 0 0 1.6623 111.9742 112.9553)" gradientUnits="userSpaceOnUse">
	<stop  offset="0" style="stop-color:#90A6BB"/>
	<stop  offset="0.2033" style="stop-color:#738397"/>
	<stop  offset="0.5568" style="stop-color:#4D5A6B"/>
	<stop  offset="0.8345" style="stop-color:#374554"/>
	<stop  offset="1" style="stop-color:#2F3D4C"/>
</radialGradient>
<path fill="url(#SVGID_4_)" d="M230.351,160.336c-18.438,3.739-36.87,6.503-55.303,8.293c-1.627,0.158-3.063,1.576-3.217,3.182
	c-0.185,1.894-0.419,3.785-0.627,5.675c-3.916,0.448-7.833,0.838-11.75,1.176c0.088-1.069,0.184-2.137,0.264-3.205
	c-2.11,1.349-4.216,2.696-6.301,4.039c1.925,1.063,3.83,2.101,5.711,3.11c0.099-1.116,0.184-2.232,0.278-3.351
	c3.91-0.34,7.821-0.736,11.734-1.188c-0.199,1.785-0.373,3.57-0.592,5.354c-0.196,1.602,0.896,2.734,2.452,2.508
	c17.695-2.549,35.388-6.483,53.08-11.801c1.559-0.474,3.211-1.878,3.659-3.117c1.089-3.008,2.062-6.018,2.925-9.025
	C233.021,160.747,231.973,160.01,230.351,160.336z"/>
</svg>
