<?xml version="1.0" encoding="UTF-8" standalone="no"?>
<!DOCTYPE svg PUBLIC "-//W3C//DTD SVG 1.1//EN" "http://www.w3.org/Graphics/SVG/1.1/DTD/svg11.dtd">
<!-- Created with Vectornator (http://vectornator.io/) -->
<svg height="100%" stroke-miterlimit="10" style="fill-rule:nonzero;clip-rule:evenodd;stroke-linecap:round;stroke-linejoin:round;" version="1.1" viewBox="0 0 800 800" width="100%" xml:space="preserve" xmlns="http://www.w3.org/2000/svg" xmlns:vectornator="http://vectornator.io" xmlns:xlink="http://www.w3.org/1999/xlink">
<defs/>
<g id="Main-Icon" vectornator:layerName="Main Icon">
<g opacity="1">
<path d="M0.9 548.1L39.7 548.1C43.8 548.3 51.4 548.6 56.3 553.4C59.3 556.2 60.8 560.5 60.8 564.7C60.8 569.5 58.8 573.6 56.2 576.2C54.4 578 52.8 578.7 50.6 579.7C53.3 580.4 55.7 581.1 58.3 583.7C62 587.3 62.7 591.6 62.7 594.8C62.7 599.7 61.2 604.8 57.9 608.2C53 613.2 46.2 613.4 41.1 613.6L0.9 613.6L0.9 548.1ZM21.5 586.8L21.5 599.5L34.5 599.5C36.4 599.4 38.3 599.3 39.9 597.5C40.9 596.5 41.6 594.9 41.6 593.2C41.6 587.1 36 586.8 34.1 586.7L21.5 586.7L21.5 586.8ZM21.6 562L21.6 573.1L33 573.1C34.9 573.1 39.8 573.1 39.8 567.6C39.8 562.2 35.3 562 33.5 561.9L21.6 561.9L21.6 562Z" fill="#000000" fill-rule="nonzero" opacity="1" stroke="none"/>
<path d="M68.1 565.6L87.2 565.6L87.2 591.8C87.2 594.7 87.3 599.6 94.1 599.6C100.9 599.6 101 594.3 101.1 591.1L101.1 565.7L120.3 565.7L120.3 613.7L102.1 613.7L102.1 606.7C101.5 608.1 101.1 608.9 99.7 610.2C96.2 613.6 91.2 614.9 86.3 614.9C78.7 614.8 74.7 611.9 73 610.2C68.4 605.7 68.3 599.4 68.2 594.9L68.2 565.6L68.1 565.6Z" fill="#000000" fill-rule="nonzero" opacity="1" stroke="none"/>
<path d="M135 596.1C136.8 597.9 138.5 599.4 142.2 601C145.6 602.4 148.2 602.6 149.8 602.6C152.1 602.6 154.8 601.8 154.8 599.6C154.8 597.2 151.9 596.7 150 596.4C148.3 596.1 144.3 595.5 140 594.2C135.5 592.9 126.7 590.3 126.7 580.1C126.7 575.8 128.6 571.9 131.5 569.2C137.2 563.8 145.3 563.6 148.5 563.6C152.1 563.6 155.7 564.1 159.3 564.9C165.9 566.5 168.7 568.5 171.4 570.6L161.1 580C157.9 578 153.9 575.5 148.8 575.5C148.1 575.5 144.7 575.5 144.7 578C144.7 579.8 146 580 152.4 581.6C160.9 583.5 163 584 165.3 585.2C170.1 587.8 172.8 592.2 172.8 597.7C172.8 607.2 164.9 615.5 150 615.5C136.3 615.5 128.4 609.2 124.3 605.9L135 596.1Z" fill="#000000" fill-rule="nonzero" opacity="1" stroke="none"/>
<path d="M178.5 548.1L197.6 548.1L197.6 560.8L178.5 560.8L178.5 548.1ZM178.5 565.6L197.6 565.6L197.6 613.6L178.5 613.6L178.5 565.6Z" fill="#000000" fill-rule="nonzero" opacity="1" stroke="none"/>
<path d="M223.6 572C225.2 569.8 228.8 564.4 239.4 564.4C247 564.4 250.8 567.4 252.4 568.9C256.9 573.4 257.2 579.7 257.2 583.4L257.2 613.7L238 613.7L238 587.5C238 585.1 237.9 580.3 231.5 580.3C224.7 580.3 224.5 585.6 224.5 588.2L224.5 613.8L205.4 613.8L205.4 565.8L223.5 565.8L223.5 572L223.6 572Z" fill="#000000" fill-rule="nonzero" opacity="1" stroke="none"/>
<path d="M314.7 602.4C309 611 300.7 615.6 289.2 615.6C271.4 615.6 262.7 602.8 262.7 589.4C262.7 573.7 273.6 563.6 289.1 563.6C294.9 563.6 302.5 565.1 308.4 570.7C315.4 577.7 315.5 585.6 315.7 593L282.1 593C282.2 595.1 282.3 597.6 284.4 599.8C284.9 600.3 286.6 602 290.2 602C294.6 602 297 599.7 298.9 595.8L314.7 602.4ZM296.3 582.9C296.2 582.2 296.2 581.4 296 580.7C295.2 577.3 292.2 575.8 289.6 575.8C283.8 575.8 282.8 580.8 282.4 582.9L296.3 582.9Z" fill="#000000" fill-rule="nonzero" opacity="1" stroke="none"/>
<path d="M327.8 596.1C329.6 597.9 331.3 599.4 335 601C338.4 602.4 341 602.6 342.6 602.6C344.9 602.6 347.6 601.8 347.6 599.6C347.6 597.2 344.7 596.7 342.8 596.4C341.1 596.1 337.1 595.5 332.8 594.2C328.3 592.9 319.5 590.3 319.5 580.1C319.5 575.8 321.4 571.9 324.3 569.2C330 563.8 338.1 563.6 341.3 563.6C344.9 563.6 348.5 564.1 352.1 564.9C358.7 566.5 361.5 568.5 364.2 570.6L353.9 580C350.7 578 346.7 575.5 341.6 575.5C340.9 575.5 337.5 575.5 337.5 578C337.5 579.8 338.8 580 345.2 581.6C353.7 583.5 355.8 584 358.1 585.2C362.9 587.8 365.6 592.2 365.6 597.7C365.6 607.2 357.7 615.5 342.8 615.5C329.1 615.5 321.2 609.2 317.1 605.9L327.8 596.1Z" fill="#000000" fill-rule="nonzero" opacity="1" stroke="none"/>
<path d="M378.1 596.1C379.9 597.9 381.6 599.4 385.3 601C388.7 602.4 391.3 602.6 392.9 602.6C395.2 602.6 397.9 601.8 397.9 599.6C397.9 597.2 395 596.7 393.1 596.4C391.4 596.1 387.4 595.5 383.1 594.2C378.6 592.9 369.8 590.3 369.8 580.1C369.8 575.8 371.7 571.9 374.6 569.2C380.3 563.8 388.4 563.6 391.6 563.6C395.2 563.6 398.8 564.1 402.4 564.9C409 566.5 411.8 568.5 414.5 570.6L404.2 580C401 578 397 575.5 391.9 575.5C391.2 575.5 387.8 575.5 387.8 578C387.8 579.8 389.1 580 395.5 581.6C404 583.5 406.1 584 408.4 585.2C413.2 587.8 415.9 592.2 415.9 597.7C415.9 607.2 408 615.5 393.1 615.5C379.4 615.5 371.5 609.2 367.4 605.9L378.1 596.1Z" fill="#000000" fill-rule="nonzero" opacity="1" stroke="none"/>
<path d="M502.7 580.2C502.7 596.8 493 615.7 467.3 615.7C440.5 615.7 432.4 595.9 432.4 580.9C432.4 562.2 444 545.7 467.6 545.7C493.6 545.7 502.7 564.7 502.7 580.2ZM453.2 580.9C453.2 592.3 457.8 599.2 467.7 599.2C476 599.2 481.9 592.6 481.9 580.3C481.9 577.1 481.6 574.3 480.7 571.7C477.5 562.6 469.6 562.3 467.7 562.3C460.3 562.2 453.2 567.3 453.2 580.9Z" fill="#000000" fill-rule="nonzero" opacity="1" stroke="none"/>
<path d="M527.3 548.1L527.3 568.9C529.2 567.1 532.3 564.2 539.5 564.2C550 564.2 560.5 571.7 560.5 588.5C560.5 603.6 552.6 614.8 538.8 614.8C536.9 614.8 534.3 614.6 531.7 613.6C529.1 612.6 528.1 611.6 526.8 610.1L526.8 613.6L508.3 613.6L508.3 548.1C508.3 548.1 527.3 548.1 527.3 548.1ZM541.7 589.5C541.7 587.3 541.5 585.5 541.1 583.8C539.4 577.8 534.9 577.8 534.2 577.8C532.4 577.8 530.7 578.6 529.4 579.9C526.9 582.6 526.8 586.9 526.8 589.4C526.8 591.5 526.9 593.5 527.4 595.3C528.9 600.4 532.8 601 534.1 601C536 601 537.7 600.3 538.9 599C540.3 597.6 541.7 595 541.7 589.5Z" fill="#000000" fill-rule="nonzero" opacity="1" stroke="none"/>
<path d="M565.4 565.5L584.5 565.5L584.5 612.9C584.4 620 584.4 623.8 581.3 627.1C576.4 631.9 566 631.7 558.3 631.6L558.3 617.7C563.6 617.9 565.4 616.6 565.4 612.6L565.4 565.5Z" fill="#000000" fill-rule="nonzero" opacity="1" stroke="none"/>
<path d="M641.2 602.4C635.5 611 627.2 615.6 615.7 615.6C597.9 615.6 589.2 602.8 589.2 589.4C589.2 573.7 600.1 563.6 615.6 563.6C621.4 563.6 629 565.1 634.9 570.7C641.9 577.7 642 585.6 642.2 593L608.6 593C608.7 595.1 608.8 597.6 610.9 599.8C611.4 600.3 613.1 602 616.6 602C621 602 623.4 599.7 625.3 595.8L641.2 602.4ZM622.7 582.9C622.6 582.2 622.6 581.4 622.4 580.7C621.6 577.3 618.6 575.8 616 575.8C610.3 575.8 609.2 580.8 608.8 582.9L622.7 582.9Z" fill="#000000" fill-rule="nonzero" opacity="1" stroke="none"/>
<path d="M695.5 600.7C694.3 603.3 693.3 605.3 690.9 607.7C688.2 610.5 682 615.4 670.9 615.4C655 615.4 645.3 604.6 645.3 589.2C645.3 581.2 648.2 574.7 652.2 570.7C658.9 563.7 668.4 563.4 672 563.4C675.2 563.4 684.4 563.5 691.8 570.9C693.6 572.8 694.5 574.1 695.6 575.9L681 584.2C679.8 579.9 677.5 576.9 672.9 576.9C667.1 576.9 664.2 582.7 664.2 589.9C664.2 593.7 664.9 600.9 672.5 600.9C678.3 600.9 680.2 595.3 681 592.8L695.5 600.7Z" fill="#000000" fill-rule="nonzero" opacity="1" stroke="none"/>
<path d="M703.5 551.6L722.7 551.6L722.5 566.7L730.7 566.7L730.7 577.1L722.4 577.1L722.2 595.6C722.2 597.5 722.3 600.6 727.4 600.6C728.5 600.6 729.7 600.4 730.8 600.2L730.8 613.3C726.5 613.9 722.7 614.3 718.7 614.3C716.7 614.3 709.9 614.2 706.1 610.3C702.9 607.1 702.9 602.8 702.9 600.4L703.2 577.1L696.6 577.1L696.6 566.7L703.3 566.7L703.5 551.6Z" fill="#000000" fill-rule="nonzero" opacity="1" stroke="none"/>
<path d="M743 596.1C744.8 597.9 746.5 599.4 750.2 601C753.6 602.4 756.2 602.6 757.8 602.6C760.1 602.6 762.8 601.8 762.8 599.6C762.8 597.2 759.9 596.7 758 596.4C756.3 596.1 752.3 595.5 748 594.2C743.5 592.9 734.7 590.3 734.7 580.1C734.7 575.8 736.6 571.9 739.5 569.2C745.2 563.8 753.3 563.6 756.5 563.6C760.1 563.6 763.7 564.1 767.3 564.9C773.9 566.5 776.7 568.5 779.4 570.6L769.1 580C765.9 578 761.9 575.5 756.8 575.5C756.1 575.5 752.7 575.5 752.7 578C752.7 579.8 754 580 760.4 581.6C768.9 583.5 771 584 773.3 585.2C778.1 587.8 780.8 592.2 780.8 597.7C780.8 607.2 772.9 615.5 758 615.5C744.3 615.5 736.4 609.2 732.3 605.9L743 596.1Z" fill="#000000" fill-rule="nonzero" opacity="1" stroke="none"/>
<path d="M787.4 573.1L785.3 573.1L785.3 566.3L782.7 566.3L782.7 564.6L790 564.6L790 566.3L787.4 566.3C787.4 566.3 787.4 573.1 787.4 573.1ZM799.9 573.1L797.8 573.1L797.9 568.6L798 566.9L797.7 568.3L796.2 573.2L794.3 573.2L792.8 568.3L792.4 567L792.6 568.7L792.7 573.2L790.6 573.2L790.6 564.7L793.3 564.7L795.2 570.8L797 564.7L799.7 564.7L799.7 573.1L799.9 573.1Z" fill="#000000" fill-rule="nonzero" opacity="1" stroke="none"/>
</g>
<path d="M205.8 546C406.9 437.7 685.3 439.2 584.7 536.4C626.4 429.4 304 498.8 205.8 546Z" fill="#000000" fill-rule="nonzero" opacity="1" stroke="none"/>
<path d="M587.6 549.1C587.6 555.9 582.1 561.5 575.2 561.5C568.4 561.5 562.8 556 562.8 549.1C562.8 542.3 568.3 536.7 575.2 536.7C582 536.7 587.6 542.2 587.6 549.1Z" fill="#000000" fill-rule="nonzero" opacity="1" stroke="none"/>
<path d="M496.36 363.306L496.36 387.116L499.957 387.116L499.957 376.783L504.004 376.783L510.524 387.116L514.571 387.116L507.601 376.783C511.084 376.352 513.896 374.329 513.896 370.044C513.896 365.351 511.021 363.306 505.353 363.306L496.36 363.306ZM499.957 366.45L504.903 366.45C507.335 366.45 510.074 366.846 510.074 369.819C510.074 373.536 507.301 373.863 504.229 373.863L499.957 373.863L499.957 366.45ZM504.454 354.545C493.043 354.545 483.319 363.329 483.319 375.211C483.319 387.179 493.043 396.101 504.454 396.101C515.706 396.101 525.138 387.18 525.138 375.211C525.138 363.329 515.706 354.545 504.454 354.545ZM504.454 357.915C513.763 357.915 521.091 365.428 521.091 375.211C521.091 385.16 513.763 392.507 504.454 392.507C494.985 392.507 487.367 385.16 487.367 375.211C487.367 365.428 494.985 357.915 504.454 357.915Z" fill="#000000" fill-rule="evenodd" opacity="1" stroke="none"/>
<path d="M82.8964 92.5454L82.8964 411.756L409.335 411.756L728.85 92.5454L82.8964 92.5454ZM170.735 133.327L170.888 133.327C194.083 133.377 222.44 139.963 242.901 150.407L220.799 188.83C198.373 177.997 187.08 176.961 174.273 176.314C155.273 175.3 145.657 182.083 145.514 189.4C145.348 198.35 163.525 206.423 180.626 211.921C206.57 220.137 239.599 231.183 244.613 263.012L292.052 136.712L347.098 136.712L402.64 287.777L402.64 136.712L466.246 136.712L466.208 136.788C526.988 136.788 555.569 158.415 555.569 205.568C555.569 247.935 526.16 273.169 476.518 273.169L455.975 273.169L455.975 334.227L361.745 334.227L352.424 305.01C342.46 308.288 331.187 310.108 319.252 310.108C307.021 310.108 295.501 308.173 285.356 304.744L275.655 334.227L217.908 334.227L224.261 317.146L221.94 319.162C207.544 330.72 189.539 337.067 167.236 337.498L163.888 337.498C138.254 337.498 113.167 330.47 91.9504 318.401L111.58 279.408C132.862 291.973 146.215 294.756 164.23 294.397C173.576 294.188 180.339 292.532 184.735 287.967C187.404 285.236 188.776 281.764 188.92 278.077C189.085 267.949 174.665 263.203 157.002 257.762C142.685 253.277 126.454 247.282 113.748 237.98C98.7334 226.932 91.5907 213.126 91.9504 193.661C92.1878 179.45 97.4473 166.662 107.167 156.57C121.153 142.144 143.677 133.327 170.735 133.327ZM455.937 178.292L455.937 229.459L469.936 229.459C488.628 229.459 503.527 223.276 503.527 203.552C503.527 184.453 488.628 178.292 469.936 178.292L455.937 178.292ZM319.061 198.873L298.899 262.403C304.907 264.66 311.841 266.017 319.252 266.017L319.29 266.017C326.528 266.017 333.274 264.721 339.224 262.593L319.48 198.873L319.061 198.873Z" fill="#000000" fill-rule="nonzero" opacity="1" stroke="none"/>
</g>
</svg>
