<?xml version="1.0" encoding="UTF-8"?>
<svg width="100px" height="100px" viewBox="0 0 100 100" version="1.1" xmlns="http://www.w3.org/2000/svg" xmlns:xlink="http://www.w3.org/1999/xlink">
    <title>loopback-original</title>
    <g id="loopback-original" stroke="none" stroke-width="1" fill="none" fill-rule="evenodd">
        <g id="loopback" transform="translate(-5.000000, -14.000000)">
            <polygon id="Path" fill="#07582A" points="88.4633205 87.7055937 36.0917436 87.7055937 36.0917436 41.019305 25.6988417 41.019305 25.6988417 98.399329 55.4508767 98.399329 55.4508767 107.243243 88.4633205 87.7051599"></polygon>
            <path d="M78.3766048,58.6872879 C80.6402008,55.3926426 81.8750868,51.4803327 81.8750868,47.3617003 C81.8750868,36.0361126 72.6149609,26.7698412 61.2974151,26.7698412 L55.5357712,26.7698412 L55.5357712,19.7683398 L25.6988417,37.2714417 L61.0916731,37.2714417 C66.647575,37.2714417 70.9690249,41.8018505 70.9690249,47.1558121 C70.9690249,52.5097736 66.441833,57.0401824 61.0916731,57.0401824 L39.2795494,57.0401824 L39.2795494,67.7476712 L70.5571069,67.7476712 C75.9072668,67.7476712 80.4344588,72.27808 80.4344588,77.6320415 C80.4344588,80.1031341 79.6114908,82.3683385 77.9651208,84.015444 L89.8998926,84.015444 C90.5175526,81.9565622 90.9286025,79.8972459 90.9286025,77.6320415 C91.1347786,68.9834347 85.7846187,61.5701569 78.3766048,58.6872879 Z" id="Path" fill="#6CB433"></path>
        </g>
    </g>
</svg>