<?xml version="1.0" encoding="UTF-8"?>
<svg width="128px" height="128px" viewBox="0 0 128 128" version="1.1" xmlns="http://www.w3.org/2000/svg" xmlns:xlink="http://www.w3.org/1999/xlink">
    <title>hapi-plain</title>
    <g id="hapi-plain" stroke="none" stroke-width="1" fill="none" fill-rule="evenodd">
        <g id="hapi" transform="translate(0.000000, 15.000000)" fill="#0A0203" fill-rule="nonzero">
            <g id="Group" stroke="#0A0203" stroke-width="0.91796875">
                <path d="M10.1745,1.08 C10.6075,0.4125 11.4245,0.108 12.1815,0.0435 C12.8165,-0.0335 13.4405,0.1795 14.0275,0.402 C14.6115,0.7005 15.103,1.1485 15.6305,1.5345 C16.0985,1.8505 16.448,2.314 16.7425,2.7905 C17.164,3.7705 17.4325,4.8395 17.3175,5.9145 C17.1355,6.1265 16.9845,6.367 16.774,6.5505 C16.414,6.816 16,6.9955 15.587,7.158 L16.9415,8.65 C17.4435,9.141 17.723,9.7995 18.1055,10.379 C18.4405,9.965 18.977,9.84 19.3835,9.5195 C19.978,9.0845 20.5235,8.568 21.1935,8.248 C21.4015,8.1775 21.6275,8.2115 21.8435,8.1945 L22.041,8.3345 C22.062,9.0645 22.4325,9.713 22.6595,10.3895 C23.029,11.5575 23.401,12.7285 23.887,13.8535 C24.014,13.8585 24.14,13.8505 24.267,13.8465 C24.414,13.108 24.813,12.4665 25.161,11.813 C25.51,11.2415 25.7515,10.604 26.1785,10.0805 C26.711,9.396 27.175,8.6445 27.8295,8.069 L28.2245,8.079 C28.2645,8.951 28.1845,9.831 28.356,10.694 C28.5055,11.353 28.4025,12.0335 28.5075,12.696 C28.6325,13.651 28.4295,14.6445 28.734,15.575 C29.1795,16.3515 29.95,16.8585 30.4505,17.5915 C31.2105,18.428 31.9715,19.2655 32.715,20.118 C33.144,20.616 33.453,21.208 33.901,21.691 C34.255,22.086 34.531,22.546 34.9,22.9295 C35.08,23.1125 35.225,23.3265 35.3575,23.5465 C35.5765,23.9135 35.921,24.1815 36.1465,24.545 C36.371,24.853 36.568,25.204 36.871,25.438 C37.161,25.3305 37.41,25.088 37.7475,25.1705 L37.9415,25.3845 C38.1405,25.417 38.4035,25.384 38.504,25.606 C38.7325,26.0615 39.092,26.4405 39.273,26.9215 C39.6465,26.6775 40.058,26.4965 40.4355,26.2585 C40.9875,25.925 41.645,26.0285 42.2555,26.005 C42.779,25.975 43.287,26.224 43.808,26.085 C44.3765,25.935 44.848,26.4455 45.4155,26.3755 C45.7685,26.2705 46.0795,26.0655 46.413,25.914 C47.1055,25.6335 47.815,25.399 48.5235,25.165 C49.2905,24.78 50.1195,24.5575 50.935,24.312 C51.773,24.1845 52.608,24.022 53.455,23.9645 C53.8885,23.9095 54.314,23.7415 54.7565,23.825 C55.845,23.9735 56.938,24.134 58.0385,24.119 C58.818,24.0735 59.599,24.1665 60.365,24.3095 C60.9845,24.423 61.517,24.7835 62.126,24.931 C62.663,25.0935 63.1515,25.386 63.689,25.551 C64.7015,25.996 65.5075,26.8045 66.523,27.2475 C67.182,27.6675 67.9095,27.969 68.55,28.4175 C69.069,28.859 69.68,29.1855 70.146,29.691 C70.428,29.9745 70.6395,30.3325 70.9795,30.554 C71.277,30.756 71.6255,30.909 71.8155,31.235 C72.634,31.7775 73.1855,32.619 73.8625,33.316 C74.196,33.653 74.43,34.1075 74.8575,34.3375 C74.939,34.226 75.0125,34.1085 75.0865,33.992 C75.325,33.869 75.565,33.737 75.831,33.6805 C76.6292094,33.5324656 77.4411418,33.4716084 78.2525,33.499 C78.962,33.4665 79.6035,33.824 80.2975,33.9115 C80.882,33.957 81.383,34.2955 81.94,34.4485 C82.267,34.5595 82.6285,34.556 82.944,34.7095 C83.3825,34.918 83.834,35.0945 84.275,35.2975 C84.9115,35.733 85.52,36.21 86.184,36.6035 C86.5715,36.91 86.9215,37.2665 87.3385,37.538 C87.564,37.1165 88.0915,37.109 88.4745,36.911 C89.272,36.535 90.0835,36.166 90.8095,35.659 C91.3623435,35.3027544 91.9466103,34.9978176 92.555,34.748 C93.8735,34.0805 95.154,33.317 96.5655,32.863 C96.954,32.678 97.4155,32.642 97.743,32.3385 C97.4285,31.82 97.6765,31.235 97.759,30.6895 C97.835,30.162 98.1775,29.7275 98.543,29.3645 C99.2565,28.828 100.145,28.566 101.033,28.5895 C101.838,28.5125 102.604,28.9485 103.119,29.5475 C103.417654,29.9660424 103.662569,30.4204301 103.848,30.9 C103.6735,31.3085 103.6155,31.749 103.4945,32.173 C103.3485,32.667 102.9015,32.961 102.5605,33.311 C101.9995,33.7375 101.4505,34.238 100.7275,34.345 C100.1245,34.236 99.515,34.1625 98.91,34.055 C98.595,34.3325 98.3955,34.7255 98.0375,34.9535 C97.805,35.102 97.664,35.3485 97.4585,35.5255 C96.9015,35.9615 96.3785,36.4405 95.8195,36.8715 C95.0745,37.3755 94.2975,37.8315 93.55,38.3295 C93.101,38.6645 92.6985,39.0695 92.186,39.311 C91.1865,39.796 90.4175,40.6265 89.5215,41.267 C89.756,41.777 89.853,42.3335 89.9615,42.882 C90.0425,43.595 89.86,44.304 89.866,45.0185 C89.837,45.4495 89.9125,45.9005 89.7505,46.3125 C89.6325,46.6775 89.3805,46.984 89.3055,47.3645 C89.1625,47.988 88.8855,48.567 88.6965,49.175 C88.594,49.527 88.359,49.8135 88.201,50.14 C87.9045,50.7105 87.719,51.3375 87.378,51.887 C87.226,52.148 87.034,52.3835 86.8865,52.647 C86.58,53.2195 86.143,53.703 85.811,54.257 C85.366,54.7295 84.8565,55.152 84.5075,55.7085 C84.038,56.1125 83.66,56.6335 83.0775,56.8835 C83.069,57.1085 83.064,57.3325 83.067,57.5585 C82.8985,57.8445 82.768,58.1785 82.492,58.3785 C82.2815,58.512 82.0375,58.3825 81.827,58.3235 C81.735814,57.8212414 81.6856484,57.3123957 81.677,56.802 L81.632,57 C81.606,56.798 81.574,56.5955 81.5435,56.396 C81.5034358,56.1139085 81.4744136,55.8303587 81.4565,55.546 L81.1325,55.534 C80.8975,55.292 80.663,55.0465 80.5035,54.747 C80.052,54.335 79.76,53.7885 79.335,53.3555 C79.061,53.0135 78.6585,52.7805 78.453,52.3875 C78.0665,51.9705 77.7465,51.488 77.2955,51.136 C76.3205,50.2025 75.1835,49.47 74.091,48.6885 C73.423,48.3195 72.76,47.9335 72.041,47.6735 C71.006,47.0395 69.76,47.0095 68.641,46.6085 C68.133,46.3935 67.575,46.495 67.0445,46.4265 C66.1305,46.282 65.1995,46.3765 64.2795,46.377 C63.302,46.342 62.333,46.647 61.501,47.152 C61.1855,47.358 60.7785,47.271 60.4575,47.4685 C59.5875,47.952 58.6655,48.332 57.736,48.6785 C56.991,49.063 56.2725,49.5035 55.509,49.8565 C54.788,50.322 53.978,50.6255 53.276,51.125 C52.146,51.71 51.116,52.465 49.977,53.033 C48.932,53.7465 47.7235,54.191 46.7425,55.006 C45.9855,55.431 45.349,56.026 44.697,56.593 C44.422,56.8435 44.201,57.1505 43.891,57.359 C43.4835,57.624 43.263,58.0885 42.865,58.3685 L42.83,58.606 C42.705,58.679 42.578,58.7475 42.459,58.831 C42.4325,59.036 42.5005,59.2425 42.5125,59.449 C42.5675,59.8575 42.4825,60.279 42.6015,60.681 C42.7835,61.3655 42.9115,62.066 42.9585,62.774 C43.1525,64.589 43.5505,66.395 44.3105,68.057 C44.6105,68.591 44.724,69.2035 44.998,69.749 C45.233,70.225 45.4045,70.734 45.682,71.188 C45.9585,71.5595 46.135,71.9945 46.407,72.3695 C46.852,73.0265 47.1335,73.778 47.561,74.4455 C47.7395,74.7855 47.989,75.103 48.043,75.4945 C48.178,76.2585 48.3565,77.0195 48.6405,77.7425 C48.582,77.962 48.573,78.213 48.4105,78.3885 C48.1065,78.7365 47.7615,79.0655 47.329,79.242 C46.6205,79.581 45.8225,79.588 45.0555,79.643 C44.5315,79.7185 43.9915,79.7755 43.4745,79.627 C43.2965,79.546 43.1595,79.6985 43.029,79.793 C42.398,79.883 41.8335,80.2005 41.209,80.314 C40.771,80.4765 40.364,80.716 39.909,80.839 C38.9945,81.256 37.974,81.363 36.979,81.363 C36.159,81.441 35.342,81.532 34.5265,81.6495 C33.6385,81.6385 32.771,81.9065 31.88,81.8815 C31.3095,81.868 30.7335,81.906 30.168,81.8085 C29.044,81.6435 27.9895,81.2005 26.929,80.812 C26.3935,80.617 25.8945,80.3245 25.3355,80.1995 C24.408,79.974 23.5405,79.5525 22.723,79.0615 C22.4685,78.881 22.276,78.6295 22.056,78.4125 C21.1375,78.7675 20.341,79.39 19.395,79.679 C18.288,79.994 17.3735,80.728 16.329,81.19 C15.211,81.834 14.014,82.3215 12.8865,82.9485 C11.697,83.6115 10.4425,84.1385 9.203,84.6985 C8.8295,84.8765 8.3955,84.96 8.086,85.2525 C8.1155,86.0815 7.9345,86.9105 7.62,87.672 C7.3915,87.999 7.211,88.352 7.061,88.722 C6.2835,89.786 5.1335,90.4995 3.9495,91.0245 C3.5245,91.2475 3.0285,91.1535 2.5705,91.1235 C2.1105,91.038 1.6145,91.0125 1.209,90.7505 C0.6385,90.3665 0.2325,89.7555 0.077,89.082 C0.064,88.6245 0.027,88.1635 0.076,87.708 C0.1875,87.2425 0.4425,86.83 0.616,86.387 C0.84,85.807 1.327,85.399 1.7495,84.967 C2.2155,84.5395 2.6765,84.072 3.263,83.8145 C3.952,83.5745 4.68,83.391 5.415,83.484 C5.8565,83.5525 6.387,83.4625 6.722,83.827 C7.135,83.543 7.3765,83.101 7.689,82.7235 C8.734,81.977 9.6405,81.0445 10.692,80.3045 C11.2595,79.772 11.8605,79.2745 12.3865,78.7005 C12.9565,78.168 13.3915,77.4995 14.0165,77.0265 C14.609,76.556 15.0575,75.927 15.6705,75.4845 C16.207,75.1125 16.636,74.6105 17.142,74.201 C17.745,73.711 18.2825,73.1425 18.922,72.6985 L18.736,72.49 C18.539,71.7625 18.469,71.0145 18.4965,70.262 C18.5435,69.4405 18.289,68.6225 18.445,67.806 C18.53,67.114 18.92,66.517 19.113,65.857 C19.315,65.3555 19.562,64.871 19.8205,64.397 C20.445,63.6155 20.8115,62.6625 21.407,61.8595 C21.9405,61.0785 22.468,60.292 23.0875,59.5765 C23.3939261,59.1534371 23.8088476,58.8209126 24.2885,58.614 C24.1725,58.1575 24.2335,57.6775 24.1095,57.223 C23.8765,56.2785 23.779,55.308 23.6095,54.3515 C23.3485,53.5465 23.0205,52.7415 23.0265,51.878 C22.7645,50.7105 22.4225,49.4965 22.6875,48.2955 C22.8815,47.454 22.8805,46.579 23.1145,45.747 C23.2405,45.256 23.2585,44.731 23.501,44.2775 C23.802,43.6765 23.9025,42.9985 24.181,42.3905 C24.6935,41.613 25.091,40.7625 25.623,39.998 C25.988,39.5745 26.356,39.152 26.713,38.7225 C27.62,37.8595 28.5465,37.0155 29.465,36.163 C30.305,35.4465 30.9105,34.4785 31.836,33.8555 C32.201,33.544 32.591,33.265 32.967,32.968 C33.374,32.492 33.419,31.825 33.414,31.223 C33.379,30.595 33.8715,30.0665 34.4315,29.8705 C34.903,29.707 35.337,29.461 35.755,29.1885 C35.352,28.772 35.112,28.2355 34.7665,27.7755 C34.6925,27.6485 34.566,27.5315 34.578,27.3725 C34.6415,27.212 34.7315,27.0645 34.815,26.9155 C34.973,26.7955 35.124,26.6685 35.273,26.537 C33.4205,24.6795 31.7515,22.6455 30.1565,20.562 C29.4735,19.791 28.784,19.0295 28.0395,18.3185 C27.5335,17.8845 27.1165,17.3455 26.7625,16.7815 C26.5845,15.6415 26.7095,14.4805 26.512,13.3425 C26.194,13.8385 25.929,14.368 25.633,14.8775 C25.208,15.681 24.849,16.5315 24.271,17.2395 C24.0975,17.4495 23.887,17.6425 23.7925,17.9055 C23.6095,18.4445 23.733,19.041 23.5375,19.577 C23.3975,19.6145 23.2535,19.6335 23.1105,19.6585 C22.8555,19.3215 22.957,18.8835 22.8425,18.499 C22.456,17.158 22.216,15.779 21.8125,14.443 C21.6025,13.9715 21.4945,13.4645 21.3345,12.976 C21.1765,12.469 20.9635,11.9815 20.8495,11.462 C20.6175,11.604 20.4145,11.7835 20.1945,11.943 C19.6305,12.278 18.9635,12.432 18.473,12.888 C18.1955,13.1665 17.662,13.239 17.4045,12.8995 C17.102,12.52 16.8655,12.091 16.587,11.6935 C16.082,10.9765 15.834,10.1235 15.437,9.3485 C15.222,8.7185 14.898,8.14 14.622,7.538 C13.9834131,7.6133925 13.3367733,7.49877828 12.763,7.2085 C12.3045,6.971 11.739,6.8525 11.451,6.3775 C10.9945,5.8985 10.694,5.309 10.358,4.7445 C10.012,3.8785 9.748,2.9665 9.7005,2.0285 C9.6575,1.639 9.9795,1.3685 10.177,1.0785 L10.1745,1.08 Z M10.3665,2.2545 C10.308,2.522 10.4245,2.7895 10.4625,3.0525 C10.699,3.797 10.8425,4.6375 11.4155,5.2075 C11.7585,5.724 12.0815,6.356 12.7085,6.56 C13.2155,6.7385 13.7235,6.9365 14.265,6.9855 C14.269,6.7265 14.209,6.393 14.484,6.249 C14.7765,6.223 14.994,6.435 15.204,6.605 C15.528,6.513 15.8735,6.4565 16.164,6.276 C16.425,5.958 16.6435,5.552 16.57,5.1245 C16.5025,4.6155 16.481,4.0895 16.2845,3.609 L16.302,3.7315 C15.9985,2.6715 15.114,1.948 14.253,1.348 C13.551,0.991 12.764,0.6565 11.962,0.809 C11.2325,0.9685 10.592,1.532 10.3655,2.255 L10.3665,2.2545 L10.3665,2.2545 Z M15.678,8.3685 C15.993,8.9435 16.252,9.547 16.526,10.1415 C16.787,10.739 17.2145,11.241 17.492,11.83 C17.592,12.027 17.696,12.22 17.8045,12.4125 C18.6005,11.8125 19.6125,11.62 20.3995,11.0115 L20.7545,10.559 L21.0905,10.548 C21.2545,10.82 21.4295,11.108 21.419,11.439 C21.3995,12.248 21.9195,12.918 22.051,13.6935 C22.123,14.117 22.2855,14.515 22.429,14.917 C22.595,15.84 22.9075,16.7285 23.0865,17.6505 C23.31,17.4225 23.518,17.1805 23.7145,16.9305 C24.7705,15.2545 25.6475,13.4735 26.5115,11.6925 C26.5985,11.5505 26.7535,11.471 26.878,11.3655 L27.186,11.5375 C27.143,12.2895 27.186,13.0425 27.1415,13.7925 C27.153,14.3585 27.018,14.925 27.1225,15.4865 C27.17,15.7765 27.154,16.0715 27.191,16.3625 C27.421,16.7345 27.791,16.99 28.046,17.3425 C28.4035,17.833 28.9025,18.186 29.3125,18.6265 C29.7485,19.0465 30.0865,19.5555 30.4965,20.0005 C30.991,20.471 31.302,21.0925 31.7325,21.6185 C32.875,22.8985 33.9415,24.247 35.064,25.547 C35.2965,25.792 35.449,26.097 35.572,26.41 C35.861,26.2495 36.2285,26.0955 36.362,25.776 C35.9435,25.066 35.352,24.483 34.761,23.921 C34.275,23.311 33.742,22.7345 33.343,22.0595 C32.704,21.3765 32.192,20.587 31.581,19.879 C31.2325,19.3765 30.721,19.029 30.3495,18.5475 C29.663,17.6795 28.838,16.94 28.131,16.0925 C27.9325,15.491 28.056,14.8505 27.955,14.2335 C27.779,13.022 28.044,11.7865 27.828,10.581 C27.7895,10.1435 27.796,9.7045 27.774,9.266 C27.2275,9.8025 26.779,10.428 26.3655,11.071 C26.0865,11.6185 25.713,12.1095 25.44,12.66 C25.172,13.214 24.7715,13.6855 24.457,14.212 C24.2535,14.602 23.768,14.635 23.3835,14.614 C23.2575,14.3755 23.0985,14.154 22.9905,13.907 C22.842,13.475 22.8065,13.014 22.682,12.5745 C22.336,11.523 22.1725,10.4095 21.669,9.4165 L21.493,8.8975 C20.939,9.161 20.5335,9.6355 20.0355,9.981 C19.5645,10.241 19.035,10.385 18.603,10.719 C18.35,10.722 18.097,10.724 17.8445,10.7445 C17.652,10.3845 17.423,10.039 17.0875,9.798 C16.5525,9.412 16.2995,8.7445 15.7665,8.363 L15.8065,8.278 C15.781,7.943 15.3485,8.277 15.678,8.3675 L15.678,8.3685 L15.678,8.3685 Z M51.674,24.9085 C50.868,24.9295 50.147,25.3335 49.364,25.475 C48.729,25.612 48.193,26.0215 47.546,26.1165 C46.909,26.3915 46.2335,26.5895 45.642,26.9635 C45.32,27.1775 44.904,27.264 44.6855,27.6105 C43.614,28.1485 42.4455,28.4775 41.427,29.1235 C39.8829813,29.8745057 38.3720769,30.6917653 36.8985,31.573 C35.8365,32.1115 34.804,32.704 33.7505,33.256 C33.703,33.4495 33.654,33.643 33.6025,33.8365 C33.384,33.848 33.1345,33.763 32.9455,33.9115 C32.2825,34.3275 31.727,34.8865 31.138,35.399 C30.332,36.369 29.364,37.1795 28.438,38.029 C27.9555,38.5415 27.4345,39.0125 26.9365,39.509 C26.3,40.253 25.7015,41.036 25.245,41.9095 C25.187,41.9715 25.14,42.045 25.0885,42.1135 C25.6535,41.9415 26.197,41.6655 26.798,41.644 C27.254,41.6345 27.7045,41.5405 28.161,41.53 C28.973,41.5735 29.7695,41.3545 30.584,41.408 C31.234,41.3455 31.864,41.5265 32.507,41.568 C33.7545,41.979 35.0305,42.343 36.176,43.0065 C37.311,43.503 38.4295,44.103 39.311,44.9935 C40.233,45.77 41.179,46.5375 41.9135,47.5045 C42.2915,48.1055 42.7085,48.681 43.0785,49.2875 C43.858,48.424 44.9525,47.918 45.673,46.99 C45.941,46.601 46.395,46.437 46.7465,46.1455 C47.3015,45.6455 47.9685,45.304 48.5865,44.8955 C49.288,44.53 50.0145,44.213 50.7125,43.84 C51.1415,43.6055 51.636,43.552 52.074,43.3425 C52.5105,43.1285 53.038,43.091 53.362,42.6855 C54.162,42.4905 54.8635,42.033 55.6185,41.72 C56.077,41.5465 56.5395,41.381 56.9885,41.184 C57.548,40.9345 58.177,40.7785 58.611,40.3165 C59.74,39.983 60.776,39.4105 61.895,39.0515 C62.305,38.8865 62.686,38.6455 63.125,38.5585 C63.5865,38.4675 64.0205,38.2505 64.495,38.229 C65.21,38.2465 65.8925,37.974 66.6105,38.004 C67.2975,38.033 67.9415,37.6045 68.6275,37.784 C69.0945,37.8655 69.405,38.294 69.8475,38.447 C70.6635,38.7305 71.482,39.021 72.2425,39.437 C72.6995,39.6815 73.1975,39.864 73.604,40.1935 C74.247,40.8465 75.0695,41.2785 75.729,41.913 C76.309,42.538 76.9715,43.084 77.479,43.7745 C77.683,44.0605 77.8835,44.349 78.074,44.645 C78.4805,45.304 79.039,45.8535 79.407,46.539 C79.859,47.1935 80.0795,47.964 80.3325,48.711 C80.615,49.573 80.9605,50.4245 81.0855,51.33 C81.2475,52.009 81.5815,52.6455 81.6245,53.355 C81.9485,53.9515 81.844,54.651 82.007,55.29 C82.1305,55.8035 82.209,56.329 82.2635,56.855 L82.407,56.8595 C82.428,56.4025 82.496,55.9505 82.5285,55.4945 C82.554,54.78 82.4235,54.0735 82.3485,53.3665 C82.3515,52.6665 82.3455,51.9605 82.234,51.267 C82.138,50.8705 82.029,50.4755 81.964,50.073 C81.319,48.0505 80.94,45.921 79.9565,44.022 C79.428,42.598 79.0605,41.0895 78.2525,39.7905 C77.615,38.968 77.2485,37.9745 76.6075,37.1555 C76.2835,36.7345 75.8,36.4855 75.4525,36.087 C74.9355,35.608 74.5355,35.0155 73.9855,34.572 C73.292,33.8605 72.683,33.071 72.0095,32.341 C71.7395,31.9195 71.2945,31.6725 70.9595,31.313 C70.6995,31.0425 70.3885,30.833 70.1045,30.59 C69.3043761,29.7851796 68.4102776,29.079604 67.4415,28.4885 C66.8185,28.253 66.3085,27.818 65.7215,27.5155 C64.966,27.0855 64.25,26.5895 63.4895,26.1675 C62.9065,25.875 62.282,25.6845 61.6965,25.3975 C61.079,25.2555 60.4365,25.17 59.802,25.2275 C59.998,25.434 60.283,25.4915 60.5295,25.6135 C60.8585,25.7635 61.1225,26.034 61.4645,26.157 C62.1055,26.744 62.9545,27.038 63.5645,27.666 C64.547,28.53 65.3645,29.559 66.3115,30.461 C67.4515,31.764 68.5515,33.1235 69.3675,34.6635 C69.7305,35.4665 70.1175,36.2585 70.4975,37.0515 C70.7695,37.4955 70.674,38.0385 70.6875,38.535 L70.406,38.61 C69.992,37.384 69.367,36.2525 68.791,35.101 C68.1675,33.9835 67.4685,32.9055 66.657,31.9165 C66.134,31.2405 65.6555,30.519 65.0135,29.949 C64.5785,29.562 64.229,29.09 63.82,28.6805 C63.082,28.151 62.4325,27.4885 61.6205,27.0705 C61.1875,26.8345 60.748,26.607 60.348,26.3155 C59.7528234,25.9902011 59.1131975,25.7538579 58.4495,25.614 C57.7945,25.413 57.1425,25.2015 56.4735,25.06 C56.0595,24.9375 55.6335,24.859 55.2205,24.731 C54.6815,24.548 54.1225,24.7845 53.573,24.713 C52.9355,24.748 52.3105,24.895 51.672,24.908 L51.674,24.908 L51.674,24.9085 Z M37.409,25.9 C36.724,26.4015 36.041,26.9135 35.269,27.27 C35.334,27.409 35.403,27.5685 35.5735,27.597 L35.482,27.642 C35.838,27.9895 36.143,28.385 36.2975,28.8665 C36.9285,28.48 37.56,28.0835 38.1275,27.6035 C38.296672,27.4593355 38.4879535,27.3433511 38.694,27.26 C38.419,26.938 38.2895,26.5155 37.987,26.215 C37.918,26.078 37.8545,25.94 37.795,25.8 C37.6575,25.791 37.5135,25.7975 37.4085,25.9 L37.409,25.9 Z M39.647,27.4525 C39.282,27.8035 38.8065,27.9995 38.412,28.3115 C37.898,28.7415 37.2985,29.044 36.7435,29.413 C36.1155,29.72 35.5915,30.209 34.9375,30.4675 C34.678,30.596 34.3795,30.7125 34.2305,30.98 C34.0005,31.386 34.0735,31.8665 34.0165,32.311 C34.8795,31.858 35.7405,31.3945 36.6245,30.982 C37.223,30.7955 37.64,30.286 38.2055,30.032 C38.6395,29.837 39.0315,29.5565 39.4725,29.375 C39.7765,29.2445 39.9755,28.9685 40.226,28.7645 C40.8225,28.389 41.442,28.0535 42.068,27.7295 L42.113,27.7595 C42.3722415,27.6593069 42.6380274,27.5769484 42.9085,27.513 C43.4025,27.3095 43.8925,27.099 44.3845,26.893 C44.5025,27.0595 44.727,26.7515 44.5145,26.713 C44.0545,26.84 43.5715,26.833 43.0995,26.851 C42.393,26.759 41.6865,26.6345 40.9715,26.6745 C40.5663228,26.9916276 40.1207452,27.2534255 39.6465,27.453 L39.647,27.453 L39.647,27.4525 Z M99.7605,29.495 C99.4055,29.6555 99.0005,29.79 98.783,30.14 C98.444,30.543 98.3915,31.087 98.4115,31.594 L98.3085,32.1415 C98.565,32.1555 98.871,32.039 99.082,32.2465 L99.3255,32.2775 C99.461,32.394 99.5975,32.5075 99.7405,32.6175 L99.5425,33.277 L99.479,33.1205 L99.414,33.403 C99.815,33.577 100.2715,33.613 100.7055,33.6425 C101.3315,33.375 102.006,33.096 102.4245,32.5225 C102.829,32.111 102.9245,31.526 103.0795,30.9935 L102.956,30.7985 C102.9085,30.6595 102.8545,30.5175 102.751,30.4125 C102.485,29.883 101.999,29.513 101.47,29.281 C100.886,29.1375 100.33,29.414 99.761,29.494 L99.7605,29.495 L99.7605,29.495 Z M98.1835,32.85 C97.4445,33.202 96.6635,33.4425 95.9215,33.787 L95.9195,33.794 C95.5395,33.8605 95.2525,34.132 94.907,34.2795 C93.9685,34.6955 93.091,35.241 92.1435,35.6335 C91.3755,36.012 90.7155,36.582 89.9215,36.9105 C89.265,37.314 88.5465,37.593 87.867,37.947 L87.662,37.902 C87.8355,38.2675 88.147,38.538 88.355,38.882 C88.605,39.309 88.8515,39.7435 89.014,40.2165 C89.047,40.3615 89.0965,40.5025 89.146,40.6455 C89.947,40.0465 90.685,39.344 91.5785,38.8765 C92.5155,38.3675 93.235,37.533 94.187,37.049 C95.1655,36.4305 96.184,35.82 96.9105,34.893 C97.4665,34.5425 97.9905,34.1205 98.4015,33.6 C98.5975,33.3475 98.8825,33.123 98.8875,32.7745 C98.6505,32.7645 98.4005,32.7415 98.1835,32.85 L98.1835,32.85 Z M76.896,34.2715 C76.836679,34.3793766 76.7719293,34.4841776 76.702,34.5855 C76.339,34.671 75.968,34.719 75.608,34.822 C75.5285,34.8775 75.3575,34.901 75.448,35.0295 C75.9405,35.6015 76.543,36.0605 77.0755,36.591 C77.353,36.92 77.608,37.27 77.8755,37.61 C77.8795,37.7695 77.889,37.93 77.8985,38.09 C78.296,38.5665 78.5805,39.1225 78.9245,39.6365 C79.3675,40.3415 79.5195,41.1755 79.863,41.9265 C80.221,42.7145 80.435,43.558 80.753,44.3615 C81.317,45.4365 81.479,46.6605 81.926,47.782 C82.263,48.5595 82.342,49.418 82.666,50.202 C82.7285,50.842 83.055,51.4285 83.041,52.081 C83.121,52.866 82.987,53.661 83.1245,54.441 C83.223,54.971 83.1535,55.5105 83.1845,56.046 C83.5455,55.7095 83.9085,55.376 84.3205,55.102 C85.1315,54.159 85.9945,53.224 86.5185,52.077 C86.7285,51.57 87.21,51.2115 87.301,50.651 C87.4495,50.311 87.5785,49.9625 87.7085,49.6145 L87.3245,49.4105 C87.2935,49.202 87.244,48.94 87.5055,48.864 C87.6163979,47.5386774 87.4719529,46.204386 87.08,44.9335 C86.923,44.012 86.6245,43.122 86.26,42.2645 C85.847,41.3135 85.4465,40.3555 84.9405,39.452 C84.3955,38.707 84.0015,37.852 83.3605,37.1805 C82.8575,36.71 82.4905,36.0765 81.8525,35.7675 C81.576,35.4115 81.2775,35.0015 80.8145,34.898 C80.0345,34.6725 79.2605,34.42 78.4765,34.2105 C77.9505,34.156 77.4145,34.159 76.8955,34.2705 L76.8955,34.2715 L76.896,34.2715 Z M82.5475,35.2845 C82.499,35.4125 82.5485,35.4715 82.697,35.462 C82.8941707,35.6154128 83.0662344,35.79861 83.207,36.005 L83.212,36.006 C84.012,36.8275 84.768,37.7095 85.332,38.717 C85.587,39.206 85.957,39.625 86.1605,40.1435 C86.7885,41.5445 87.468,42.9495 87.737,44.478 C87.849,45.148 88.044,45.801 88.1845,46.466 C88.3145,47.0545 88.2745,47.6595 88.2885,48.257 C88.586,47.62 88.752,46.93 89.04,46.2885 C89.2585,45.6375 89.3735,44.9485 89.237,44.2675 C89.384,43.46 89.234,42.644 88.9785,41.875 L88.9275,41.869 C88.8925,41.624 88.865,41.3725 88.755,41.15 C88.494,40.6625 88.3125,40.137 87.9975,39.6785 C87.616,38.8905 86.9865,38.2735 86.3585,37.6855 C86.132,37.465 85.9165,37.185 85.581,37.1485 C85.1235,36.7815 84.6575,36.4205 84.1575,36.1155 L84.133,36.07 L84.0105,36.0625 L84.1025,36.067 C83.6755,35.841 83.249,35.612 82.8075,35.42 C82.7695,35.2715 82.6825,35.225 82.546,35.285 L82.5475,35.2845 L82.5475,35.2845 Z M67.2345,38.653 C66.4445,38.855 65.618,38.6945 64.8255,38.889 C63.8555,38.9755 62.935,39.316 62.0285,39.653 C61.101,40.144 60.096,40.4495 59.1045,40.779 C58.6485,40.999 58.21,41.258 57.723,41.409 C56.589,42.0405 55.32,42.3645 54.1665,42.9585 C53.4785,43.3335 52.7555,43.6385 52.055,43.9915 C50.5165,44.5445 49.0855,45.358 47.727,46.265 C47.3445,46.505 47.0055,46.856 46.5355,46.903 C46.364,47.075 46.2,47.256 46.046,47.4455 C45.288,48.367 44.283,49.0325 43.509,49.9385 C43.4418642,50.0091918 43.391907,50.0943928 43.363,50.1875 C42.99,51.4055 42.7965,52.6655 42.5805,53.919 C42.2985,55.209 42.2205,56.549 42.4235,57.8565 C42.7415,57.2765 43.347,56.973 43.7805,56.4995 C44.169,56.074 44.6435,55.742 45.053,55.3395 C45.458,54.9465 45.9615,54.686 46.414,54.3575 C47.403,53.64 48.517,53.131 49.5525,52.49 C50.338,52 51.1515,51.558 51.93,51.0575 C52.2033045,50.8852342 52.489293,50.7339661 52.7855,50.605 C53.349,50.3545 53.839,49.97 54.3925,49.699 C55.4715,49.1675 56.4825,48.5075 57.551,47.958 C58.447,47.648 59.232,47.097 60.082,46.6895 C60.871,46.4905 61.538,45.9335 62.3645,45.8695 C64.297,45.621 66.256,45.568 68.196,45.768 C68.6695,45.8245 69.108,46.028 69.574,46.122 C71.7395,46.596 73.81,47.547 75.5425,48.947 C75.934,49.2255 76.345,49.4775 76.6935,49.8135 C77.406,50.3675 78.158,50.916 78.66,51.685 C78.91,52.0675 79.2975,52.345 79.486,52.7705 L79.686,52.886 C79.966,53.3415 80.402,53.687 80.6055,54.192 C80.7995,54.6635 81.082,55.0965 81.457,55.442 C81.397,54.8385 81.124,54.284 81.0735,53.6795 C81.011,52.843 80.6195,52.088 80.4125,51.2875 C80.1805,50.39 79.9475,49.4855 79.5605,48.6415 C79.3465,48.1655 79.2185,47.6555 78.9695,47.196 C78.6485,46.5535 78.1595,46.023 77.754,45.437 C77.379,44.887 76.985,44.3505 76.6205,43.7945 C76.4195,43.5015 76.2455,43.1775 75.9595,42.958 C75.369,42.488 74.7935,41.994 74.28,41.438 C74.0495,41.194 73.82,40.9355 73.509,40.7965 C72.7915,40.455 72.2725,39.7955 71.526,39.5065 C70.9245,39.203 70.2465,39.098 69.6635,38.7535 C68.8805,38.5265 68.0335,38.4445 67.235,38.653 L67.2345,38.653 Z M29.358,42.055 C28.5585,42.105 27.756,42.1415 26.962,42.242 L27.0875,42.247 C26.517,42.351 25.963,42.5335 25.396,42.6555 C25.142,42.754 24.7855,42.757 24.654,43.0405 C24.4207907,43.5465172 24.2146661,44.0645826 24.0365,44.5925 C23.647,45.9875 23.558,47.44 23.3675,48.871 C23.302,50.1225 23.6005,51.349 23.7425,52.584 C23.824,53.413 24.2635,54.144 24.3865,54.9635 C24.4265,55.9375 24.8485,56.848 24.878,57.825 C25.114,57.7325 25.363,57.6875 25.617,57.686 C25.745,57.639 25.8745,57.592 26.0045,57.549 L26.018,57.5 C27.15,57.3605 28.295,57.147 29.4355,57.3095 C30.1695,57.4235 30.9255,57.292 31.6505,57.4805 C32.165,57.61 32.703,57.5905 33.2145,57.733 C34.1805,58.0795 34.982,58.7745 35.9575,59.113 C37.1475,59.7 38.236,60.473 39.2725,61.301 C39.9255,61.886 40.475,62.578 41.142,63.147 C41.7655,63.766 42.153,64.5745 42.654,65.291 C42.6405,64.7995 42.478,64.329 42.438,63.841 C42.32,62.6945 42.084,61.5665 41.924,60.4265 C41.848,59.95 41.929,59.4515 41.7885,58.9865 C41.8285,58.2045 41.672,57.4315 41.6835,56.6505 C41.675,55.7875 41.7585,54.9305 41.8115,54.071 C41.929,53.1475 42.257,52.2615 42.3275,51.331 C42.39,50.864 42.59,50.416 42.54,49.936 C42.563,49.624 42.3135,49.401 42.1885,49.141 C41.3595,47.583 39.9955,46.4345 38.7055,45.2815 C38.191,44.7015 37.489,44.364 36.8525,43.949 C36.0885,43.5105 35.2375,43.271 34.4265,42.9445 C33.807,42.6895 33.1335,42.6045 32.517,42.3395 C31.5175,41.9265 30.414,41.931 29.358,42.055 L29.358,42.055 Z M26.177,58.109 L26.2165,58.157 C25.8245,58.2325 25.439,58.339 25.0565,58.45 L25.0325,58.72 C24.0375,59.582 23.2225,60.6325 22.47,61.7095 C22.107,62.1575 21.917,62.7295 21.491,63.1285 C21.234,63.846 20.659,64.389 20.335,65.075 C20.8285,65.0465 21.327,64.9165 21.8185,65.027 L22.147,65.0635 C22.831,65.1605 23.53,65.2045 24.1865,65.4385 C24.823,65.6955 25.51,65.825 26.105,66.182 C27.056,66.7795 28.07,67.3565 28.755,68.277 C29.159,68.754 29.608,69.192 29.9905,69.6875 C30.533359,70.5158447 31.0157767,71.3822583 31.434,72.28 C31.7665,72.851 31.9095,73.501 32.1025,74.128 C32.2095,74.623 32.2455,75.133 32.425,75.611 C32.475,76.2015 32.563,76.7895 32.573,77.385 C32.4165,77.78 32.488,78.2215 32.4115,78.6345 C32.2555,79.553 31.986,80.448 31.6815,81.326 C32.8515,81.185 34.0215,81.0235 35.2,80.966 C36.134,80.7915 37.087,80.786 38.0265,80.648 C38.545,80.579 39.044,80.408 39.5525,80.283 C40.2145,80.079 40.9035,79.883 41.45,79.43 C41.783,79.3915 42.1415,79.3865 42.432,79.196 C42.6445,78.992 42.8235,78.7535 43.0335,78.547 C43.141,78.0005 43.2365,77.45 43.266,76.894 C43.3135,75.8915 43.6155,74.9135 43.565,73.905 C43.566,73.0075 43.514,72.107 43.655,71.217 C43.6075,70.155 43.51,69.042 43.0015,68.089 C42.8291028,67.5769608 42.6383124,67.0712994 42.4295,66.573 C42.04,65.853 41.7395,65.08 41.2295,64.432 C40.753,63.649 39.9735,63.144 39.39,62.456 C38.7278217,61.7575422 37.9841647,61.1411294 37.175,60.62 C36.2365,59.9385 35.129,59.5575 34.145,58.9525 C33.5205,58.5675 32.845,58.2145 32.1035,58.15 C31.248,58.1105 30.406,57.9225 29.5505,57.89 C28.8815,57.8895 28.2095,57.855 27.5425,57.91 C27.085,57.966 26.6375,58.085 26.1775,58.1095 L26.1775,58.109 L26.177,58.109 Z M20.005,65.643 L19.9025,65.885 L19.7825,66.1885 C19.532,66.8535 19.2545,67.5175 19.1525,68.228 C19.133,68.726 19.124,69.2285 19.1695,69.727 C19.253,70.433 19.253,71.146 19.3695,71.8485 C19.3765,71.9995 19.478,72.1545 19.618,72.012 C19.8305,71.847 19.9665,71.3575 20.301,71.542 C20.6725,71.837 21.163,71.61 21.5715,71.788 C22.4615,72.14 23.318,72.616 24.024,73.271 C24.3865,73.758 24.643,74.33 24.827,74.9085 C24.9065,75.489 24.9815,76.0935 24.7845,76.6615 C24.707,77.013 24.346,77.164 24.1035,77.385 C23.6875,77.7435 23.1545,77.902 22.678,78.154 C23.3165,78.725 24.1245,79.031 24.904,79.3465 C26.0105,79.6585 27.0675,80.1195 28.1065,80.6115 C28.8105,80.9575 29.5955,81.096 30.3715,81.1525 C30.7005,80.8825 31.0565,80.6125 31.2165,80.1995 C31.5695,79.358 31.7165,78.4435 31.793,77.5375 C31.833,76.995 32.009,76.434 31.7855,75.9065 C31.5805,74.8425 31.3355,73.7835 30.954,72.769 C30.529,71.938 30.1365,71.0845 29.5995,70.32 C29.2985,69.98 29.0225,69.62 28.7095,69.291 C28.376,68.943 28.1375,68.5075 27.7585,68.2025 C27.196,67.7385 26.6645,67.223 26.011,66.8875 C25.501,66.578 24.9285,66.4025 24.382,66.174 C23.47,65.7965 22.4885,65.5985 21.505,65.557 C21.007,65.619 20.49,65.4875 20.005,65.6425 L20.005,65.643 L20.005,65.643 Z M44.171,69.729 C44.2695,70.5065 44.403,71.2895 44.3225,72.0765 C44.3275,73.274 44.3235,74.475 44.187,75.6675 C43.9435,76.7575 43.977,77.887 43.752,78.982 C44.35,79.1745 44.98,78.983 45.5875,78.9425 C46.4375,78.8335 47.512,78.75 47.9215,77.8505 C47.948,77.3295 47.7055,76.8485 47.55,76.3665 C47.4085,75.961 47.405,75.5065 47.173,75.1365 C46.618,74.194 46.15,73.1985 45.539,72.2915 C45.219,71.7815 44.965,71.233 44.6725,70.708 C44.4915,70.388 44.4235,70.004 44.1705,69.729 L44.171,69.729 L44.171,69.729 Z M19.971,72.671 C19.6475,72.9855 19.318,73.296 18.9485,73.5575 L18.944,73.5985 C18.341,73.9095 17.835,74.375 17.3575,74.8515 C16.759,75.35 16.1885,75.8815 15.5845,76.3745 C14.94,77.0085 14.3065,77.6535 13.6065,78.227 C12.8515,79.1155 12.0425,79.957 11.2185,80.782 C10.8025,81.046 10.487,81.435 10.099,81.7375 C9.64334156,82.0944113 9.20183654,82.4690317 8.7755,82.8605 C8.4805,83.1355 8.1005,83.314 7.852,83.6405 C7.714,83.8145 7.581,83.992 7.441,84.1655 C7.5425,84.2925 7.6445,84.422 7.743,84.5535 L7.947,84.3735 L8.0275,84.241 L8.093,84.349 C10.119,83.694 11.956,82.584 13.9205,81.774 L15.8055,80.8765 C16.9055,80.4315 17.805,79.5845 18.9465,79.237 C19.3515,79.1015 19.7265,78.893 20.103,78.6945 C20.59,78.4325 21.108,78.2315 21.581,77.944 C22.361,77.516 23.201,77.191 23.9285,76.6735 C24.454,76.1265 24.129,75.315 24.0285,74.666 L23.9745,74.688 C23.7695,74.253 23.5595,73.788 23.139,73.5215 C22.4835,73.0775 21.7895,72.646 21.0085,72.481 C20.6575,72.434 20.2435,72.393 19.9705,72.67 L19.9715,72.671 L19.971,72.671 Z M3.5775,84.585 C3.14,84.795 2.831,85.1825 2.451,85.4735 C1.532,86.2185 0.841,87.3225 0.798,88.5345 C0.8355,88.908 0.993,89.251 1.218,89.5485 C1.7515,90.28 2.749,90.439 3.5855,90.297 C4.2355,90.1785 4.71,89.6845 5.2625,89.3625 C5.5155,89.201 5.795,89.062 5.987,88.8235 C6.672,87.8675 7.252,86.7835 7.362,85.5905 C7.31156068,85.4888617 7.25233537,85.3918259 7.185,85.3005 C7.095,85.0665 6.9275,84.876 6.76,84.6965 C6.66654363,84.5091625 6.57982147,84.3185406 6.5,84.125 C5.5165,84.1255 4.475,84.12 3.5775,84.586 L3.5775,84.585 Z" id="Shape"></path>
                <path d="M52.843,28.023 C53.373,28.0035 53.903,27.9695 54.428,27.8935 C55.1555,28.083 55.915,28.052 56.6445,28.236 C57.5095,28.2945 58.359,28.468 59.207,28.64 C60.081,29.176 61.127,29.4865 61.794,30.316 C62.6055,31.0655 63.104,32.146 63.1285,33.256 C62.9465,33.943 62.5385,34.74 61.7825,34.8875 C60.6475,35.1645 59.5915,35.6855 58.4725,36.0125 C57.203,36.425 56.0595,37.1155 54.949,37.8445 C54.234,38.2745 53.479,38.6335 52.7875,39.1045 C52.1775,39.5245 51.52,39.8665 50.8845,40.245 C50.368,40.613 49.8845,41.027 49.387,41.42 C48.4125,42.109 47.332,42.6165 46.3095,43.2265 C45.8195,43.3355 45.37,43.5855 44.868,43.6445 C43.813,43.761 42.618,43.7995 41.7515,43.0755 C41.276,42.7855 41.1025,42.231 40.7785,41.8065 C40.4185,41.353 40.412,40.754 40.323,40.2075 C40.247,39.741 40.3115,39.2705 40.379,38.8085 C40.4405,37.9445 40.877,37.1745 41.26,36.4205 C41.634,35.584 42.263,34.8705 42.447,33.9515 C42.931,33.4065 43.247,32.732 43.7505,32.203 C44.174,31.772 44.468,31.2285 44.9325,30.836 C45.834,29.778 47.2065,29.3785 48.4155,28.801 C49.3975,28.462 50.4405,28.344 51.4675,28.234 C51.931,28.1945 52.375,28.0215 52.8425,28.022 L52.843,28.023 L52.843,28.023 Z M51.249,28.8425 C50.008,29.0295 48.749,29.254 47.6085,29.804 C47.1035,30.109 46.5685,30.3635 46.079,30.6935 C45.4205,31.2045 44.9505,31.9105 44.3755,32.506 C43.932,33.027 43.524,33.5775 43.0825,34.101 C42.5985,34.6565 42.478,35.4355 41.9745,35.9775 C41.692,36.526 41.5145,37.129 41.2935,37.7065 C41.1455,38.36 40.833,38.9855 40.9025,39.673 C40.8625,40.593 41.34,41.408 41.8095,42.155 C42.252,42.704 42.9495,42.9305 43.6255,42.996 C44.0485,42.919 44.484,42.9855 44.9065,42.8975 C45.778,42.7405 46.545,42.2615 47.285,41.797 C48.2004866,41.3150807 49.0692198,40.7491487 49.88,40.1065 C50.3945,39.765 50.871,39.3615 51.4365,39.1055 C52.3345,38.453 53.3265,37.954 54.2735,37.3805 C55.0685,36.969 55.7915,36.427 56.6335,36.108 C57.3,35.696 58.06,35.506 58.7515,35.1465 C59.194,34.9345 59.695,34.8855 60.1335,34.6595 C60.629,34.4195 61.1915,34.383 61.6915,34.157 C62.2325,33.835 62.44,33.1205 62.294,32.5255 C62.2515,31.922 61.847,31.4555 61.5605,30.9555 C60.763,30.103 59.706,29.547 58.6175,29.1695 C57.6245,28.9125 56.599,28.839 55.5925,28.6585 C54.8595,28.5225 54.1125,28.621 53.3745,28.5855 C52.6535,28.5535 51.9705,28.87 51.2495,28.8425 L51.249,28.8425 Z" id="Shape"></path>
                <path d="M48.4445,30.882 C48.5585,30.6975 48.672,30.439 48.938,30.525 C49.2605,30.7925 49.571,31.08 49.9455,31.278 C50.5915,31.6725 51.195,32.145 51.7225,32.6915 L51.897,32.685 C52.024,32.3535 52.1005,32.007 52.1955,31.6655 C52.3005,31.3835 52.6335,31.5 52.8575,31.5005 L52.956,31.7385 C52.957,32.436 53.5085,32.9135 53.8085,33.4885 C54.4185,33.151 54.634,32.426 54.9635,31.8515 C55.1935,31.476 55.0645,30.9015 55.466,30.643 C55.716,30.6145 55.8655,30.857 55.9955,31.031 C56.3215,31.516 56.7455,31.921 57.0905,32.3915 C57.259,32.2055 57.4845,32.0355 57.516,31.767 C57.5795,31.5445 57.531,31.271 57.708,31.097 C57.9915,30.996 58.274,31.157 58.542,31.236 C59.207,31.498 59.901,31.695 60.519,32.0645 C60.772,32.2345 61.087,32.2365 61.359,32.3575 C61.462,32.505 61.446,32.6965 61.48,32.8675 C60.875,33.148 60.366,32.6065 59.827,32.4065 C59.297,32.2215 58.7945,31.9685 58.2575,31.8055 C58.0385,32.2665 57.672,32.627 57.3825,33.042 C57.2685,33.2155 57.077,33.341 56.864,33.299 C56.737,33.0905 56.6535,32.859 56.521,32.6565 C56.2735,32.2565 55.8925,31.974 55.5595,31.653 C55.3375,32.1645 55.1425,32.6875 54.921,33.1995 C54.7335,33.6755 54.272,33.9695 54.107,34.4605 C53.8835,34.534 53.646,34.6045 53.4435,34.4405 C53.342,33.789 53.0235,33.1675 52.5285,32.7325 C52.4685,33.0285 52.406,33.325 52.3595,33.624 C52.1975,33.699 52.015,33.826 51.834,33.731 L51.089,32.8915 C50.628,32.4855 50.11,32.1475 49.573,31.8545 C49.7925,32.731 50.068,33.6535 49.877,34.56 C49.944,35.069 50.0825,35.5645 50.176,36.0675 C50.241,36.3555 49.888,36.4645 49.67,36.397 C49.2905,36.307 48.901,36.339 48.52,36.29 C48.2035,36.1635 47.8915,36.0195 47.552,35.9635 C47.564,36.277 47.796,36.4995 47.9135,36.7735 C48.0195,37.076 48.0235,37.401 48.102,37.711 C48.125,37.8685 48.1855,38.0415 48.101,38.1915 C47.915,38.3115 47.674,38.3775 47.4665,38.2735 C46.952,38.0705 46.4025,38.0075 45.864,37.9035 C46.144,38.3755 46.5455,38.7585 46.8225,39.23 C46.9925,39.462 46.7485,39.7935 46.485,39.7625 C45.7815,39.704 45.0765,39.769 44.373,39.7085 C44.2395,40.381 43.921,40.9935 43.793,41.6685 C43.587,41.629 43.316,41.7315 43.167,41.54 C42.934,41.3315 43.203,41.031 43.261,40.795 C43.5015,40.3125 43.509,39.7585 43.7065,39.2665 C44.2465,38.6795 45.0835,39.1865 45.7545,39.0795 C45.5905,38.5555 45.1265,38.2525 44.811,37.841 C44.611,37.567 44.864,37.3255 45.0685,37.165 C45.8435,37.3085 46.665,37.2795 47.3985,37.609 C47.344,36.928 46.897,36.378 46.735,35.729 C46.8915,35.6045 47.041,35.4675 47.2135,35.366 C47.5085,35.2935 47.7885,35.4325 48.0585,35.532 C48.4895,35.703 48.957,35.7395 49.4155,35.765 C49.192,34.87 49.3645,33.944 49.23,33.0435 C48.9685,32.3235 48.7365,31.591 48.445,30.882 L48.4445,30.882 L48.4445,30.882 Z M78.913,35.4275 C79.24,34.956 80.0715,34.954 80.296,35.529 C80.639,35.5135 81.0375,35.4575 81.281,35.7675 C81.624,36.3995 82.188,36.987 82.1485,37.7585 C82.1775,38.1235 81.883,38.396 81.6185,38.5935 C81.215,38.8635 80.7105,39.0965 80.2215,38.9445 C79.6185,38.7405 79.2665,38.152 78.997,37.6095 C78.654,36.9395 78.64,36.1255 78.9135,35.427 L78.9135,35.4275 L78.913,35.4275 Z M79.4955,36.034 C79.3505,36.837 79.6365,37.769 80.3735,38.181 C80.606,38.346 80.8835,38.176 81.111,38.091 C80.644,37.3555 80.2005,36.5695 79.496,36.034 L79.4955,36.034 Z M80.151,36.047 C80.5875,36.4545 80.955,36.93 81.411,37.314 C81.2495,36.9655 81.061,36.6265 80.826,36.324 C80.672,36.1045 80.3855,36.098 80.151,36.047 L80.151,36.047 Z M82.07,40.7265 C82.5015,40.4925 83.0805,40.5525 83.358,40.994 C83.8355,41.109 84.233,41.437 84.4815,41.859 C84.8375,42.5035 85.209,43.148 85.3945,43.869 C85.1795,44.376 84.7715,44.752 84.3525,45.086 C83.859,45.104 83.2575,45.135 82.9195,44.6975 C82.4895,44.1325 82.0375,43.53 81.938,42.804 C81.8015,42.3065 81.7455,41.793 81.829,41.281 C81.914,41.099 81.993,40.9135 82.0705,40.727 L82.07,40.7265 Z M82.508,41.4795 C82.2535,42.382 82.703,43.2655 83.195,43.992 C83.414,44.247 83.754,44.3395 84.0535,44.4615 C84.0305,43.4435 83.4765,42.5675 82.9235,41.758 L83.25,41.7505 C83.4785,42.0405 83.731,42.3125 83.9785,42.588 C84.3035,42.9645 84.3535,43.5005 84.6925,43.865 C84.5685,43.3665 84.2315,42.9655 84.0255,42.5035 C83.7465,41.9175 83.227,41.5115 82.6805,41.198 C82.6137243,41.2860017 82.5559356,41.3804737 82.508,41.48 L82.508,41.4795 Z M84.6515,47.1115 C85.3315,47.0535 85.897,47.521 86.4085,47.909 C86.8085,48.2205 86.6275,48.7625 86.735,49.1915 C86.778,49.7155 86.81,50.3665 86.3515,50.7265 C85.964,51.005 85.5395,51.327 85.035,51.2855 C84.369,51.372 83.934,50.703 83.792,50.132 C83.484,49.3295 83.6225,48.408 84.0465,47.6765 C84.203,47.453 84.3855,47.2015 84.652,47.1115 L84.6515,47.1115 Z M85.4055,48.005 C85.5235,48.373 85.714,48.714 85.8155,49.0875 C85.865,49.4335 85.8405,49.787 85.8425,50.1365 L86.0065,50.0595 C86.25,49.347 86.194,48.3335 85.405,48.005 L85.4055,48.005 L85.4055,48.005 Z M84.8295,50.6955 C84.967,50.5375 85.1755,50.4015 85.196,50.1715 C85.374,49.4305 85.1005,48.6705 84.663,48.0765 C84.017,48.8145 84.097,50.0425 84.8295,50.6955 Z M25.5455,59.425 C26.268,59.3015 27.0315,59.2 27.7455,59.4235 C28.2715,59.647 28.869,59.834 29.227,60.3155 C29.421668,60.7164377 29.5165288,61.1584925 29.5035,61.604 C29.513,62.016 29.265,62.3665 29.085,62.7175 C28.924,63.049 28.565,63.1795 28.276,63.3665 C27.386,63.5515 26.458,63.31 25.6825,62.853 C25.179,62.621 24.754,62.252 24.41,61.8165 L24.4235,61.5535 L24.2035,61.4325 C24.364,61.0395 24.2255,60.5975 24.4035,60.2115 C24.75,59.8995 25.1385,59.646 25.546,59.424 L25.546,59.4245 L25.5455,59.425 Z M26.1745,59.8845 C25.622,60.097 25.0205,60.3505 24.6865,60.8735 C24.805,60.9765 24.9235,61.0815 25.0465,61.1815 C25.3335,60.8075 25.7275,60.541 26.094,60.2535 C26.414,59.9965 26.8415,60.0365 27.224,59.986 C26.879,59.93 26.5215,59.7345 26.1745,59.8845 Z M25.5415,61.821 C25.7245,62.0785 26.0295,62.1985 26.301,62.336 C26.755,62.5455 27.239,62.754 27.7495,62.711 C28.1815,62.6895 28.568,62.3525 28.66,61.926 C28.83,61.556 28.8165,61.099 28.51,60.8075 C27.885,60.7185 27.2335,60.572 26.6135,60.728 C26.216,61.0425 25.7775,61.358 25.542,61.821 L25.5415,61.821 Z M32.4515,64.3525 C33.5625,63.5855 35.091,63.824 36.171,64.531 C36.746,64.9125 37.142,65.493 37.541,66.044 C37.912,66.583 37.861,67.272 37.848,67.894 C37.6245,68.4655 37.4235,69.095 36.9005,69.4635 C36.549037,69.7743048 36.0618809,69.8813429 35.6125,69.7465 C35.076,69.5585 34.522,69.3735 34.0765,69.0055 C33.64,68.6595 33.4175,68.1085 32.9565,67.79 C32.8995,67.6745 32.8615,67.546 32.7555,67.4695 C32.264,67.0745 32.022,66.4685 31.8385,65.8825 C31.792,65.3025 31.955,64.693 32.4515,64.353 L32.4515,64.3525 L32.4515,64.3525 Z M32.588,65.3395 C33.208,65.1395 33.853,65.0825 34.493,65.0015 C35.28,65.176 36.082,65.47 36.659,66.0625 C36.3615,65.6925 36.0745,65.298 35.67,65.039 C35,64.597 34.159,64.408 33.37,64.558 C33.0312196,64.7264396 32.7566563,65.0008274 32.588,65.3395 Z M32.9705,65.918 C32.5005,66.1455 32.9195,66.706 33.1605,66.9605 L33.1975,67.2025 C33.494,67.306 33.7635,67.4795 33.9345,67.7525 C34.4325,68.4625 35.2215,68.9885 36.0915,69.0485 C36.758,68.8485 37.035,68.041 37.0345007,67.4015 C36.312,66.7 35.5845,65.8445 34.528,65.709 C34.009,65.6895 33.4415,65.6595 32.9715,65.919 L32.9705,65.918 L32.9705,65.918 Z M37.397,74.2315 C37.9285,73.7995 38.6085,73.519 39.2975,73.5555 C39.7855,73.682 40.3545,73.8485 40.5725,74.3605 C41.3945,75.859 40.791,78.0105 39.274,78.8055 C38.787,79.1085 38.1825,79.177 37.625,79.079 C37.0415,78.935 36.596,78.4 36.489,77.813 C36.404,77.356 36.5155,76.8955 36.629,76.4545 C36.7985,75.692 36.807,74.8185 37.3965,74.231 L37.397,74.231 L37.397,74.2315 Z M38.787,74.2505 C39.368,75.2915 39.4695,76.498 39.5805,77.663 C40.0201912,77.1916559 40.2630985,76.5700779 40.2595,75.9255 C40.233,75.3735 40.1325,74.7685 39.6935,74.3905 C39.3935,74.3265 39.0935,74.2605 38.788,74.2505 L38.7875,74.2505 L38.787,74.2505 Z M37.5005,75.5095 C37.3595,75.9555 37.4,76.4355 37.244,76.877 C36.949,77.502 37.4865,78.437 38.209,78.3465 C38.3955,78.1365 38.5955,77.94 38.8055,77.756 C38.8775,76.6465 38.7205,75.477 38.122,74.523 C37.8385,74.793 37.5855,75.1165 37.5005,75.509 L37.5005,75.5095 Z" id="Shape"></path>
            </g>
            <path d="M72.781,86.6575 L68.1315,88.9485 L68.09,71.5795 L63.98,76.0365 L62.2365,86.0325 L58.5005,88.1155 L59.912,60 L63.15,58.0835 L62.652,76.3275 C63.9525,74.2725 65.129,72.7315 66.1805,71.704 C66.5125,71.371 67.038,70.857 67.758,70.163 C68.6435,69.33 69.653,68.913 70.788,68.913 C71.978,68.913 72.684,69.191 72.905,69.7465 C73.265,70.69 73.445,72.1065 73.445,73.9945 C73.445,76.216 73.334,78.882 73.113,81.992 L72.7805,86.657 L72.781,86.6575 L72.781,86.6575 Z M83.6985,85.8245 C81.5955,85.8245 79.686,85.3525 77.97,84.4085 C75.867,83.2425 74.815,81.687 74.815,79.7435 C74.815,78.1335 75.6035,76.745 77.181,75.5785 C78.3985,74.6615 79.921,73.9675 81.7475,73.4955 C82.7165,73.2455 83.809,73.1205 85.0275,73.1205 C86.079,73.1205 87.3245,73.301 88.763,73.662 C89.483,73.773 90.161,74.037 90.7975,74.4535 C90.244,73.2875 89.22,72.26 87.7255,71.3715 C86.4805,70.6215 84.6675,69.969 82.2875,69.4135 C81.4575,69.2195 80.3085,68.997 78.842,68.747 L78.012,65.082 C78.261,65.082 78.939,65.2205 80.046,65.4985 C84.1145,66.526 87.297,68.011 89.594,69.955 C91.974,71.982 93.344,74.7315 93.704,78.2025 L93.704,85.8245 L91.711,85.5745 L91.6695,82.9925 C90.9909256,83.6413876 90.2219426,84.1885681 89.3865,84.617 C87.864,85.422 85.9685,85.825 83.699,85.825 L83.6985,85.8245 Z M85.027,78.9935 C84.086,79.2155 83.2975,79.5905 82.661,80.1185 C81.914,80.757 81.5405,81.5205 81.5405,82.4085 C81.5405,83.9085 82.6195,84.6585 84.7785,84.6585 C85.9135,84.6585 87.02,84.3665 88.0995,83.7835 C89.4,83.089 90.051,82.2145 90.051,81.1595 C90.051,81.0205 90.023,80.8395 89.9675,80.6175 C89.6635,79.424 88.5285,78.8265 86.5635,78.8265 L85.9405,78.8265 C85.83,78.8265 85.5255,78.882 85.0275,78.993 L85.0275,78.9935 L85.027,78.9935 Z M111.8855,82.8255 C110.529,83.714 108.357,84.4635 105.368,85.0745 C104.5655,85.241 103.1815,85.4775 101.2165,85.7825 L101.964,96.3205 L99.058,96.5705 L97.813,82.0755 L96.3595,81.9095 L95.4465,68.997 C97.024,68.386 98.3245,67.928 99.3485,67.6225 C102.5035,66.6785 105.2435,66.2065 107.568,66.2065 C113.2965,66.2065 116.161,68.525 116.161,73.1625 C116.161,77.7165 114.736,80.9375 111.8855,82.826 L111.8855,82.8255 Z M107.402,76.4105 C107.347,76.383 107.194,76.3695 106.945,76.3695 C106.17,76.3695 104.8835,76.4945 103.0845,76.7445 C102.448,76.828 101.5765,76.9665 100.4695,77.161 L101.0095,83.867 C101.452581,83.8462004 101.895303,83.8183635 102.3375,83.7835 C105.4925,83.5335 107.596,82.8115 108.6475,81.618 C109.2835,80.896 109.602,80.0765 109.602,79.16 C109.602,77.605 108.8685,76.6885 107.402,76.411 L107.402,76.4105 Z M121.682,63.832 C120.7135,63.832 119.8835,63.6095 119.192,63.165 C118.3335,62.638 117.9045,61.93 117.9045,61.041 C117.9045,60.3465 118.389,59.736 119.3575,59.2085 C120.2155,58.764 121.018,58.542 121.765,58.542 C122.6785,58.542 123.509,58.736 124.256,59.125 C125.169,59.597 125.626,60.2495 125.626,61.0825 C125.626,61.999 125.183,62.7075 124.2975,63.2065 C123.5505,63.6235 122.6785,63.8315 121.6825,63.8315 L121.682,63.832 Z M119.648,86.032 L119.8555,74.1195 L126.248,73.703 L127.9505,86.324 L119.648,86.0325 L119.648,86.032 Z" id="Shape"></path>
        </g>
    </g>
</svg>