<?xml version="1.0" encoding="UTF-8"?>
<svg width="128px" height="128px" viewBox="0 0 128 128" version="1.1" xmlns="http://www.w3.org/2000/svg" xmlns:xlink="http://www.w3.org/1999/xlink">
    <title>hapi-original</title>
    <g id="hapi-original" stroke="none" stroke-width="1" fill="none" fill-rule="evenodd">
        <g id="hapi" transform="translate(0.000000, 15.000000)">
            <g id="Group" fill="#0A0203" fill-rule="nonzero" stroke="#0A0203" stroke-width="0.91796875">
                <path d="M10.1745,1.08 C10.6075,0.4125 11.4245,0.108 12.1815,0.0435 C12.8165,-0.0335 13.4405,0.1795 14.0275,0.402 C14.6115,0.7005 15.103,1.1485 15.6305,1.5345 C16.0985,1.8505 16.448,2.314 16.7425,2.7905 C17.164,3.7705 17.4325,4.8395 17.3175,5.9145 C17.1355,6.1265 16.9845,6.367 16.774,6.5505 C16.414,6.816 16,6.9955 15.587,7.158 L16.9415,8.65 C17.4435,9.141 17.723,9.7995 18.1055,10.379 C18.4405,9.965 18.977,9.84 19.3835,9.5195 C19.978,9.0845 20.5235,8.568 21.1935,8.248 C21.4015,8.1775 21.6275,8.2115 21.8435,8.1945 L22.041,8.3345 C22.062,9.0645 22.4325,9.713 22.6595,10.3895 C23.029,11.5575 23.401,12.7285 23.887,13.8535 C24.014,13.8585 24.14,13.8505 24.267,13.8465 C24.414,13.108 24.813,12.4665 25.161,11.813 C25.51,11.2415 25.7515,10.604 26.1785,10.0805 C26.711,9.396 27.175,8.6445 27.8295,8.069 L28.2245,8.079 C28.2645,8.951 28.1845,9.831 28.356,10.694 C28.5055,11.353 28.4025,12.0335 28.5075,12.696 C28.6325,13.651 28.4295,14.6445 28.734,15.575 C29.1795,16.3515 29.95,16.8585 30.4505,17.5915 C31.2105,18.428 31.9715,19.2655 32.715,20.118 C33.144,20.616 33.453,21.208 33.901,21.691 C34.255,22.086 34.531,22.546 34.9,22.9295 C35.08,23.1125 35.225,23.3265 35.3575,23.5465 C35.5765,23.9135 35.921,24.1815 36.1465,24.545 C36.371,24.853 36.568,25.204 36.871,25.438 C37.161,25.3305 37.41,25.088 37.7475,25.1705 L37.9415,25.3845 C38.1405,25.417 38.4035,25.384 38.504,25.606 C38.7325,26.0615 39.092,26.4405 39.273,26.9215 C39.6465,26.6775 40.058,26.4965 40.4355,26.2585 C40.9875,25.925 41.645,26.0285 42.2555,26.005 C42.779,25.975 43.287,26.224 43.808,26.085 C44.3765,25.935 44.848,26.4455 45.4155,26.3755 C45.7685,26.2705 46.0795,26.0655 46.413,25.914 C47.1055,25.6335 47.815,25.399 48.5235,25.165 C49.2905,24.78 50.1195,24.5575 50.935,24.312 C51.773,24.1845 52.608,24.022 53.455,23.9645 C53.8885,23.9095 54.314,23.7415 54.7565,23.825 C55.845,23.9735 56.938,24.134 58.0385,24.119 C58.818,24.0735 59.599,24.1665 60.365,24.3095 C60.9845,24.423 61.517,24.7835 62.126,24.931 C62.663,25.0935 63.1515,25.386 63.689,25.551 C64.7015,25.996 65.5075,26.8045 66.523,27.2475 C67.182,27.6675 67.9095,27.969 68.55,28.4175 C69.069,28.859 69.68,29.1855 70.146,29.691 C70.428,29.9745 70.6395,30.3325 70.9795,30.554 C71.277,30.756 71.6255,30.909 71.8155,31.235 C72.634,31.7775 73.1855,32.619 73.8625,33.316 C74.196,33.653 74.43,34.1075 74.8575,34.3375 C74.939,34.226 75.0125,34.1085 75.0865,33.992 C75.325,33.869 75.565,33.737 75.831,33.6805 C76.6292094,33.5324656 77.4411418,33.4716084 78.2525,33.499 C78.962,33.4665 79.6035,33.824 80.2975,33.9115 C80.882,33.957 81.383,34.2955 81.94,34.4485 C82.267,34.5595 82.6285,34.556 82.944,34.7095 C83.3825,34.918 83.834,35.0945 84.275,35.2975 C84.9115,35.733 85.52,36.21 86.184,36.6035 C86.5715,36.91 86.9215,37.2665 87.3385,37.538 C87.564,37.1165 88.0915,37.109 88.4745,36.911 C89.272,36.535 90.0835,36.166 90.8095,35.659 C91.3623435,35.3027544 91.9466103,34.9978176 92.555,34.748 C93.8735,34.0805 95.154,33.317 96.5655,32.863 C96.954,32.678 97.4155,32.642 97.743,32.3385 C97.4285,31.82 97.6765,31.235 97.759,30.6895 C97.835,30.162 98.1775,29.7275 98.543,29.3645 C99.2565,28.828 100.145,28.566 101.033,28.5895 C101.838,28.5125 102.604,28.9485 103.119,29.5475 C103.417654,29.9660424 103.662569,30.4204301 103.848,30.9 C103.6735,31.3085 103.6155,31.749 103.4945,32.173 C103.3485,32.667 102.9015,32.961 102.5605,33.311 C101.9995,33.7375 101.4505,34.238 100.7275,34.345 C100.1245,34.236 99.515,34.1625 98.91,34.055 C98.595,34.3325 98.3955,34.7255 98.0375,34.9535 C97.805,35.102 97.664,35.3485 97.4585,35.5255 C96.9015,35.9615 96.3785,36.4405 95.8195,36.8715 C95.0745,37.3755 94.2975,37.8315 93.55,38.3295 C93.101,38.6645 92.6985,39.0695 92.186,39.311 C91.1865,39.796 90.4175,40.6265 89.5215,41.267 C89.756,41.777 89.853,42.3335 89.9615,42.882 C90.0425,43.595 89.86,44.304 89.866,45.0185 C89.837,45.4495 89.9125,45.9005 89.7505,46.3125 C89.6325,46.6775 89.3805,46.984 89.3055,47.3645 C89.1625,47.988 88.8855,48.567 88.6965,49.175 C88.594,49.527 88.359,49.8135 88.201,50.14 C87.9045,50.7105 87.719,51.3375 87.378,51.887 C87.226,52.148 87.034,52.3835 86.8865,52.647 C86.58,53.2195 86.143,53.703 85.811,54.257 C85.366,54.7295 84.8565,55.152 84.5075,55.7085 C84.038,56.1125 83.66,56.6335 83.0775,56.8835 C83.069,57.1085 83.064,57.3325 83.067,57.5585 C82.8985,57.8445 82.768,58.1785 82.492,58.3785 C82.2815,58.512 82.0375,58.3825 81.827,58.3235 C81.735814,57.8212414 81.6856484,57.3123957 81.677,56.802 L81.632,57 C81.606,56.798 81.574,56.5955 81.5435,56.396 C81.5034358,56.1139085 81.4744136,55.8303587 81.4565,55.546 L81.1325,55.534 C80.8975,55.292 80.663,55.0465 80.5035,54.747 C80.052,54.335 79.76,53.7885 79.335,53.3555 C79.061,53.0135 78.6585,52.7805 78.453,52.3875 C78.0665,51.9705 77.7465,51.488 77.2955,51.136 C76.3205,50.2025 75.1835,49.47 74.091,48.6885 C73.423,48.3195 72.76,47.9335 72.041,47.6735 C71.006,47.0395 69.76,47.0095 68.641,46.6085 C68.133,46.3935 67.575,46.495 67.0445,46.4265 C66.1305,46.282 65.1995,46.3765 64.2795,46.377 C63.302,46.342 62.333,46.647 61.501,47.152 C61.1855,47.358 60.7785,47.271 60.4575,47.4685 C59.5875,47.952 58.6655,48.332 57.736,48.6785 C56.991,49.063 56.2725,49.5035 55.509,49.8565 C54.788,50.322 53.978,50.6255 53.276,51.125 C52.146,51.71 51.116,52.465 49.977,53.033 C48.932,53.7465 47.7235,54.191 46.7425,55.006 C45.9855,55.431 45.349,56.026 44.697,56.593 C44.422,56.8435 44.201,57.1505 43.891,57.359 C43.4835,57.624 43.263,58.0885 42.865,58.3685 L42.83,58.606 C42.705,58.679 42.578,58.7475 42.459,58.831 C42.4325,59.036 42.5005,59.2425 42.5125,59.449 C42.5675,59.8575 42.4825,60.279 42.6015,60.681 C42.7835,61.3655 42.9115,62.066 42.9585,62.774 C43.1525,64.589 43.5505,66.395 44.3105,68.057 C44.6105,68.591 44.724,69.2035 44.998,69.749 C45.233,70.225 45.4045,70.734 45.682,71.188 C45.9585,71.5595 46.135,71.9945 46.407,72.3695 C46.852,73.0265 47.1335,73.778 47.561,74.4455 C47.7395,74.7855 47.989,75.103 48.043,75.4945 C48.178,76.2585 48.3565,77.0195 48.6405,77.7425 C48.582,77.962 48.573,78.213 48.4105,78.3885 C48.1065,78.7365 47.7615,79.0655 47.329,79.242 C46.6205,79.581 45.8225,79.588 45.0555,79.643 C44.5315,79.7185 43.9915,79.7755 43.4745,79.627 C43.2965,79.546 43.1595,79.6985 43.029,79.793 C42.398,79.883 41.8335,80.2005 41.209,80.314 C40.771,80.4765 40.364,80.716 39.909,80.839 C38.9945,81.256 37.974,81.363 36.979,81.363 C36.159,81.441 35.342,81.532 34.5265,81.6495 C33.6385,81.6385 32.771,81.9065 31.88,81.8815 C31.3095,81.868 30.7335,81.906 30.168,81.8085 C29.044,81.6435 27.9895,81.2005 26.929,80.812 C26.3935,80.617 25.8945,80.3245 25.3355,80.1995 C24.408,79.974 23.5405,79.5525 22.723,79.0615 C22.4685,78.881 22.276,78.6295 22.056,78.4125 C21.1375,78.7675 20.341,79.39 19.395,79.679 C18.288,79.994 17.3735,80.728 16.329,81.19 C15.211,81.834 14.014,82.3215 12.8865,82.9485 C11.697,83.6115 10.4425,84.1385 9.203,84.6985 C8.8295,84.8765 8.3955,84.96 8.086,85.2525 C8.1155,86.0815 7.9345,86.9105 7.62,87.672 C7.3915,87.999 7.211,88.352 7.061,88.722 C6.2835,89.786 5.1335,90.4995 3.9495,91.0245 C3.5245,91.2475 3.0285,91.1535 2.5705,91.1235 C2.1105,91.038 1.6145,91.0125 1.209,90.7505 C0.6385,90.3665 0.2325,89.7555 0.077,89.082 C0.064,88.6245 0.027,88.1635 0.076,87.708 C0.1875,87.2425 0.4425,86.83 0.616,86.387 C0.84,85.807 1.327,85.399 1.7495,84.967 C2.2155,84.5395 2.6765,84.072 3.263,83.8145 C3.952,83.5745 4.68,83.391 5.415,83.484 C5.8565,83.5525 6.387,83.4625 6.722,83.827 C7.135,83.543 7.3765,83.101 7.689,82.7235 C8.734,81.977 9.6405,81.0445 10.692,80.3045 C11.2595,79.772 11.8605,79.2745 12.3865,78.7005 C12.9565,78.168 13.3915,77.4995 14.0165,77.0265 C14.609,76.556 15.0575,75.927 15.6705,75.4845 C16.207,75.1125 16.636,74.6105 17.142,74.201 C17.745,73.711 18.2825,73.1425 18.922,72.6985 L18.736,72.49 C18.539,71.7625 18.469,71.0145 18.4965,70.262 C18.5435,69.4405 18.289,68.6225 18.445,67.806 C18.53,67.114 18.92,66.517 19.113,65.857 C19.315,65.3555 19.562,64.871 19.8205,64.397 C20.445,63.6155 20.8115,62.6625 21.407,61.8595 C21.9405,61.0785 22.468,60.292 23.0875,59.5765 C23.3939261,59.1534371 23.8088476,58.8209126 24.2885,58.614 C24.1725,58.1575 24.2335,57.6775 24.1095,57.223 C23.8765,56.2785 23.779,55.308 23.6095,54.3515 C23.3485,53.5465 23.0205,52.7415 23.0265,51.878 C22.7645,50.7105 22.4225,49.4965 22.6875,48.2955 C22.8815,47.454 22.8805,46.579 23.1145,45.747 C23.2405,45.256 23.2585,44.731 23.501,44.2775 C23.802,43.6765 23.9025,42.9985 24.181,42.3905 C24.6935,41.613 25.091,40.7625 25.623,39.998 C25.988,39.5745 26.356,39.152 26.713,38.7225 C27.62,37.8595 28.5465,37.0155 29.465,36.163 C30.305,35.4465 30.9105,34.4785 31.836,33.8555 C32.201,33.544 32.591,33.265 32.967,32.968 C33.374,32.492 33.419,31.825 33.414,31.223 C33.379,30.595 33.8715,30.0665 34.4315,29.8705 C34.903,29.707 35.337,29.461 35.755,29.1885 C35.352,28.772 35.112,28.2355 34.7665,27.7755 C34.6925,27.6485 34.566,27.5315 34.578,27.3725 C34.6415,27.212 34.7315,27.0645 34.815,26.9155 C34.973,26.7955 35.124,26.6685 35.273,26.537 C33.4205,24.6795 31.7515,22.6455 30.1565,20.562 C29.4735,19.791 28.784,19.0295 28.0395,18.3185 C27.5335,17.8845 27.1165,17.3455 26.7625,16.7815 C26.5845,15.6415 26.7095,14.4805 26.512,13.3425 C26.194,13.8385 25.929,14.368 25.633,14.8775 C25.208,15.681 24.849,16.5315 24.271,17.2395 C24.0975,17.4495 23.887,17.6425 23.7925,17.9055 C23.6095,18.4445 23.733,19.041 23.5375,19.577 C23.3975,19.6145 23.2535,19.6335 23.1105,19.6585 C22.8555,19.3215 22.957,18.8835 22.8425,18.499 C22.456,17.158 22.216,15.779 21.8125,14.443 C21.6025,13.9715 21.4945,13.4645 21.3345,12.976 C21.1765,12.469 20.9635,11.9815 20.8495,11.462 C20.6175,11.604 20.4145,11.7835 20.1945,11.943 C19.6305,12.278 18.9635,12.432 18.473,12.888 C18.1955,13.1665 17.662,13.239 17.4045,12.8995 C17.102,12.52 16.8655,12.091 16.587,11.6935 C16.082,10.9765 15.834,10.1235 15.437,9.3485 C15.222,8.7185 14.898,8.14 14.622,7.538 C13.9834131,7.6133925 13.3367733,7.49877828 12.763,7.2085 C12.3045,6.971 11.739,6.8525 11.451,6.3775 C10.9945,5.8985 10.694,5.309 10.358,4.7445 C10.012,3.8785 9.748,2.9665 9.7005,2.0285 C9.6575,1.639 9.9795,1.3685 10.177,1.0785 L10.1745,1.08 Z M10.3665,2.2545 C10.308,2.522 10.4245,2.7895 10.4625,3.0525 C10.699,3.797 10.8425,4.6375 11.4155,5.2075 C11.7585,5.724 12.0815,6.356 12.7085,6.56 C13.2155,6.7385 13.7235,6.9365 14.265,6.9855 C14.269,6.7265 14.209,6.393 14.484,6.249 C14.7765,6.223 14.994,6.435 15.204,6.605 C15.528,6.513 15.8735,6.4565 16.164,6.276 C16.425,5.958 16.6435,5.552 16.57,5.1245 C16.5025,4.6155 16.481,4.0895 16.2845,3.609 L16.302,3.7315 C15.9985,2.6715 15.114,1.948 14.253,1.348 C13.551,0.991 12.764,0.6565 11.962,0.809 C11.2325,0.9685 10.592,1.532 10.3655,2.255 L10.3665,2.2545 L10.3665,2.2545 Z M15.678,8.3685 C15.993,8.9435 16.252,9.547 16.526,10.1415 C16.787,10.739 17.2145,11.241 17.492,11.83 C17.592,12.027 17.696,12.22 17.8045,12.4125 C18.6005,11.8125 19.6125,11.62 20.3995,11.0115 L20.7545,10.559 L21.0905,10.548 C21.2545,10.82 21.4295,11.108 21.419,11.439 C21.3995,12.248 21.9195,12.918 22.051,13.6935 C22.123,14.117 22.2855,14.515 22.429,14.917 C22.595,15.84 22.9075,16.7285 23.0865,17.6505 C23.31,17.4225 23.518,17.1805 23.7145,16.9305 C24.7705,15.2545 25.6475,13.4735 26.5115,11.6925 C26.5985,11.5505 26.7535,11.471 26.878,11.3655 L27.186,11.5375 C27.143,12.2895 27.186,13.0425 27.1415,13.7925 C27.153,14.3585 27.018,14.925 27.1225,15.4865 C27.17,15.7765 27.154,16.0715 27.191,16.3625 C27.421,16.7345 27.791,16.99 28.046,17.3425 C28.4035,17.833 28.9025,18.186 29.3125,18.6265 C29.7485,19.0465 30.0865,19.5555 30.4965,20.0005 C30.991,20.471 31.302,21.0925 31.7325,21.6185 C32.875,22.8985 33.9415,24.247 35.064,25.547 C35.2965,25.792 35.449,26.097 35.572,26.41 C35.861,26.2495 36.2285,26.0955 36.362,25.776 C35.9435,25.066 35.352,24.483 34.761,23.921 C34.275,23.311 33.742,22.7345 33.343,22.0595 C32.704,21.3765 32.192,20.587 31.581,19.879 C31.2325,19.3765 30.721,19.029 30.3495,18.5475 C29.663,17.6795 28.838,16.94 28.131,16.0925 C27.9325,15.491 28.056,14.8505 27.955,14.2335 C27.779,13.022 28.044,11.7865 27.828,10.581 C27.7895,10.1435 27.796,9.7045 27.774,9.266 C27.2275,9.8025 26.779,10.428 26.3655,11.071 C26.0865,11.6185 25.713,12.1095 25.44,12.66 C25.172,13.214 24.7715,13.6855 24.457,14.212 C24.2535,14.602 23.768,14.635 23.3835,14.614 C23.2575,14.3755 23.0985,14.154 22.9905,13.907 C22.842,13.475 22.8065,13.014 22.682,12.5745 C22.336,11.523 22.1725,10.4095 21.669,9.4165 L21.493,8.8975 C20.939,9.161 20.5335,9.6355 20.0355,9.981 C19.5645,10.241 19.035,10.385 18.603,10.719 C18.35,10.722 18.097,10.724 17.8445,10.7445 C17.652,10.3845 17.423,10.039 17.0875,9.798 C16.5525,9.412 16.2995,8.7445 15.7665,8.363 L15.8065,8.278 C15.781,7.943 15.3485,8.277 15.678,8.3675 L15.678,8.3685 L15.678,8.3685 Z M51.674,24.9085 C50.868,24.9295 50.147,25.3335 49.364,25.475 C48.729,25.612 48.193,26.0215 47.546,26.1165 C46.909,26.3915 46.2335,26.5895 45.642,26.9635 C45.32,27.1775 44.904,27.264 44.6855,27.6105 C43.614,28.1485 42.4455,28.4775 41.427,29.1235 C39.8829813,29.8745057 38.3720769,30.6917653 36.8985,31.573 C35.8365,32.1115 34.804,32.704 33.7505,33.256 C33.703,33.4495 33.654,33.643 33.6025,33.8365 C33.384,33.848 33.1345,33.763 32.9455,33.9115 C32.2825,34.3275 31.727,34.8865 31.138,35.399 C30.332,36.369 29.364,37.1795 28.438,38.029 C27.9555,38.5415 27.4345,39.0125 26.9365,39.509 C26.3,40.253 25.7015,41.036 25.245,41.9095 C25.187,41.9715 25.14,42.045 25.0885,42.1135 C25.6535,41.9415 26.197,41.6655 26.798,41.644 C27.254,41.6345 27.7045,41.5405 28.161,41.53 C28.973,41.5735 29.7695,41.3545 30.584,41.408 C31.234,41.3455 31.864,41.5265 32.507,41.568 C33.7545,41.979 35.0305,42.343 36.176,43.0065 C37.311,43.503 38.4295,44.103 39.311,44.9935 C40.233,45.77 41.179,46.5375 41.9135,47.5045 C42.2915,48.1055 42.7085,48.681 43.0785,49.2875 C43.858,48.424 44.9525,47.918 45.673,46.99 C45.941,46.601 46.395,46.437 46.7465,46.1455 C47.3015,45.6455 47.9685,45.304 48.5865,44.8955 C49.288,44.53 50.0145,44.213 50.7125,43.84 C51.1415,43.6055 51.636,43.552 52.074,43.3425 C52.5105,43.1285 53.038,43.091 53.362,42.6855 C54.162,42.4905 54.8635,42.033 55.6185,41.72 C56.077,41.5465 56.5395,41.381 56.9885,41.184 C57.548,40.9345 58.177,40.7785 58.611,40.3165 C59.74,39.983 60.776,39.4105 61.895,39.0515 C62.305,38.8865 62.686,38.6455 63.125,38.5585 C63.5865,38.4675 64.0205,38.2505 64.495,38.229 C65.21,38.2465 65.8925,37.974 66.6105,38.004 C67.2975,38.033 67.9415,37.6045 68.6275,37.784 C69.0945,37.8655 69.405,38.294 69.8475,38.447 C70.6635,38.7305 71.482,39.021 72.2425,39.437 C72.6995,39.6815 73.1975,39.864 73.604,40.1935 C74.247,40.8465 75.0695,41.2785 75.729,41.913 C76.309,42.538 76.9715,43.084 77.479,43.7745 C77.683,44.0605 77.8835,44.349 78.074,44.645 C78.4805,45.304 79.039,45.8535 79.407,46.539 C79.859,47.1935 80.0795,47.964 80.3325,48.711 C80.615,49.573 80.9605,50.4245 81.0855,51.33 C81.2475,52.009 81.5815,52.6455 81.6245,53.355 C81.9485,53.9515 81.844,54.651 82.007,55.29 C82.1305,55.8035 82.209,56.329 82.2635,56.855 L82.407,56.8595 C82.428,56.4025 82.496,55.9505 82.5285,55.4945 C82.554,54.78 82.4235,54.0735 82.3485,53.3665 C82.3515,52.6665 82.3455,51.9605 82.234,51.267 C82.138,50.8705 82.029,50.4755 81.964,50.073 C81.319,48.0505 80.94,45.921 79.9565,44.022 C79.428,42.598 79.0605,41.0895 78.2525,39.7905 C77.615,38.968 77.2485,37.9745 76.6075,37.1555 C76.2835,36.7345 75.8,36.4855 75.4525,36.087 C74.9355,35.608 74.5355,35.0155 73.9855,34.572 C73.292,33.8605 72.683,33.071 72.0095,32.341 C71.7395,31.9195 71.2945,31.6725 70.9595,31.313 C70.6995,31.0425 70.3885,30.833 70.1045,30.59 C69.3043761,29.7851796 68.4102776,29.079604 67.4415,28.4885 C66.8185,28.253 66.3085,27.818 65.7215,27.5155 C64.966,27.0855 64.25,26.5895 63.4895,26.1675 C62.9065,25.875 62.282,25.6845 61.6965,25.3975 C61.079,25.2555 60.4365,25.17 59.802,25.2275 C59.998,25.434 60.283,25.4915 60.5295,25.6135 C60.8585,25.7635 61.1225,26.034 61.4645,26.157 C62.1055,26.744 62.9545,27.038 63.5645,27.666 C64.547,28.53 65.3645,29.559 66.3115,30.461 C67.4515,31.764 68.5515,33.1235 69.3675,34.6635 C69.7305,35.4665 70.1175,36.2585 70.4975,37.0515 C70.7695,37.4955 70.674,38.0385 70.6875,38.535 L70.406,38.61 C69.992,37.384 69.367,36.2525 68.791,35.101 C68.1675,33.9835 67.4685,32.9055 66.657,31.9165 C66.134,31.2405 65.6555,30.519 65.0135,29.949 C64.5785,29.562 64.229,29.09 63.82,28.6805 C63.082,28.151 62.4325,27.4885 61.6205,27.0705 C61.1875,26.8345 60.748,26.607 60.348,26.3155 C59.7528234,25.9902011 59.1131975,25.7538579 58.4495,25.614 C57.7945,25.413 57.1425,25.2015 56.4735,25.06 C56.0595,24.9375 55.6335,24.859 55.2205,24.731 C54.6815,24.548 54.1225,24.7845 53.573,24.713 C52.9355,24.748 52.3105,24.895 51.672,24.908 L51.674,24.908 L51.674,24.9085 Z M37.409,25.9 C36.724,26.4015 36.041,26.9135 35.269,27.27 C35.334,27.409 35.403,27.5685 35.5735,27.597 L35.482,27.642 C35.838,27.9895 36.143,28.385 36.2975,28.8665 C36.9285,28.48 37.56,28.0835 38.1275,27.6035 C38.296672,27.4593355 38.4879535,27.3433511 38.694,27.26 C38.419,26.938 38.2895,26.5155 37.987,26.215 C37.918,26.078 37.8545,25.94 37.795,25.8 C37.6575,25.791 37.5135,25.7975 37.4085,25.9 L37.409,25.9 Z M39.647,27.4525 C39.282,27.8035 38.8065,27.9995 38.412,28.3115 C37.898,28.7415 37.2985,29.044 36.7435,29.413 C36.1155,29.72 35.5915,30.209 34.9375,30.4675 C34.678,30.596 34.3795,30.7125 34.2305,30.98 C34.0005,31.386 34.0735,31.8665 34.0165,32.311 C34.8795,31.858 35.7405,31.3945 36.6245,30.982 C37.223,30.7955 37.64,30.286 38.2055,30.032 C38.6395,29.837 39.0315,29.5565 39.4725,29.375 C39.7765,29.2445 39.9755,28.9685 40.226,28.7645 C40.8225,28.389 41.442,28.0535 42.068,27.7295 L42.113,27.7595 C42.3722415,27.6593069 42.6380274,27.5769484 42.9085,27.513 C43.4025,27.3095 43.8925,27.099 44.3845,26.893 C44.5025,27.0595 44.727,26.7515 44.5145,26.713 C44.0545,26.84 43.5715,26.833 43.0995,26.851 C42.393,26.759 41.6865,26.6345 40.9715,26.6745 C40.5663228,26.9916276 40.1207452,27.2534255 39.6465,27.453 L39.647,27.453 L39.647,27.4525 Z M99.7605,29.495 C99.4055,29.6555 99.0005,29.79 98.783,30.14 C98.444,30.543 98.3915,31.087 98.4115,31.594 L98.3085,32.1415 C98.565,32.1555 98.871,32.039 99.082,32.2465 L99.3255,32.2775 C99.461,32.394 99.5975,32.5075 99.7405,32.6175 L99.5425,33.277 L99.479,33.1205 L99.414,33.403 C99.815,33.577 100.2715,33.613 100.7055,33.6425 C101.3315,33.375 102.006,33.096 102.4245,32.5225 C102.829,32.111 102.9245,31.526 103.0795,30.9935 L102.956,30.7985 C102.9085,30.6595 102.8545,30.5175 102.751,30.4125 C102.485,29.883 101.999,29.513 101.47,29.281 C100.886,29.1375 100.33,29.414 99.761,29.494 L99.7605,29.495 L99.7605,29.495 Z M98.1835,32.85 C97.4445,33.202 96.6635,33.4425 95.9215,33.787 L95.9195,33.794 C95.5395,33.8605 95.2525,34.132 94.907,34.2795 C93.9685,34.6955 93.091,35.241 92.1435,35.6335 C91.3755,36.012 90.7155,36.582 89.9215,36.9105 C89.265,37.314 88.5465,37.593 87.867,37.947 L87.662,37.902 C87.8355,38.2675 88.147,38.538 88.355,38.882 C88.605,39.309 88.8515,39.7435 89.014,40.2165 C89.047,40.3615 89.0965,40.5025 89.146,40.6455 C89.947,40.0465 90.685,39.344 91.5785,38.8765 C92.5155,38.3675 93.235,37.533 94.187,37.049 C95.1655,36.4305 96.184,35.82 96.9105,34.893 C97.4665,34.5425 97.9905,34.1205 98.4015,33.6 C98.5975,33.3475 98.8825,33.123 98.8875,32.7745 C98.6505,32.7645 98.4005,32.7415 98.1835,32.85 L98.1835,32.85 Z M76.896,34.2715 C76.836679,34.3793766 76.7719293,34.4841776 76.702,34.5855 C76.339,34.671 75.968,34.719 75.608,34.822 C75.5285,34.8775 75.3575,34.901 75.448,35.0295 C75.9405,35.6015 76.543,36.0605 77.0755,36.591 C77.353,36.92 77.608,37.27 77.8755,37.61 C77.8795,37.7695 77.889,37.93 77.8985,38.09 C78.296,38.5665 78.5805,39.1225 78.9245,39.6365 C79.3675,40.3415 79.5195,41.1755 79.863,41.9265 C80.221,42.7145 80.435,43.558 80.753,44.3615 C81.317,45.4365 81.479,46.6605 81.926,47.782 C82.263,48.5595 82.342,49.418 82.666,50.202 C82.7285,50.842 83.055,51.4285 83.041,52.081 C83.121,52.866 82.987,53.661 83.1245,54.441 C83.223,54.971 83.1535,55.5105 83.1845,56.046 C83.5455,55.7095 83.9085,55.376 84.3205,55.102 C85.1315,54.159 85.9945,53.224 86.5185,52.077 C86.7285,51.57 87.21,51.2115 87.301,50.651 C87.4495,50.311 87.5785,49.9625 87.7085,49.6145 L87.3245,49.4105 C87.2935,49.202 87.244,48.94 87.5055,48.864 C87.6163979,47.5386774 87.4719529,46.204386 87.08,44.9335 C86.923,44.012 86.6245,43.122 86.26,42.2645 C85.847,41.3135 85.4465,40.3555 84.9405,39.452 C84.3955,38.707 84.0015,37.852 83.3605,37.1805 C82.8575,36.71 82.4905,36.0765 81.8525,35.7675 C81.576,35.4115 81.2775,35.0015 80.8145,34.898 C80.0345,34.6725 79.2605,34.42 78.4765,34.2105 C77.9505,34.156 77.4145,34.159 76.8955,34.2705 L76.8955,34.2715 L76.896,34.2715 Z M82.5475,35.2845 C82.499,35.4125 82.5485,35.4715 82.697,35.462 C82.8941707,35.6154128 83.0662344,35.79861 83.207,36.005 L83.212,36.006 C84.012,36.8275 84.768,37.7095 85.332,38.717 C85.587,39.206 85.957,39.625 86.1605,40.1435 C86.7885,41.5445 87.468,42.9495 87.737,44.478 C87.849,45.148 88.044,45.801 88.1845,46.466 C88.3145,47.0545 88.2745,47.6595 88.2885,48.257 C88.586,47.62 88.752,46.93 89.04,46.2885 C89.2585,45.6375 89.3735,44.9485 89.237,44.2675 C89.384,43.46 89.234,42.644 88.9785,41.875 L88.9275,41.869 C88.8925,41.624 88.865,41.3725 88.755,41.15 C88.494,40.6625 88.3125,40.137 87.9975,39.6785 C87.616,38.8905 86.9865,38.2735 86.3585,37.6855 C86.132,37.465 85.9165,37.185 85.581,37.1485 C85.1235,36.7815 84.6575,36.4205 84.1575,36.1155 L84.133,36.07 L84.0105,36.0625 L84.1025,36.067 C83.6755,35.841 83.249,35.612 82.8075,35.42 C82.7695,35.2715 82.6825,35.225 82.546,35.285 L82.5475,35.2845 L82.5475,35.2845 Z M67.2345,38.653 C66.4445,38.855 65.618,38.6945 64.8255,38.889 C63.8555,38.9755 62.935,39.316 62.0285,39.653 C61.101,40.144 60.096,40.4495 59.1045,40.779 C58.6485,40.999 58.21,41.258 57.723,41.409 C56.589,42.0405 55.32,42.3645 54.1665,42.9585 C53.4785,43.3335 52.7555,43.6385 52.055,43.9915 C50.5165,44.5445 49.0855,45.358 47.727,46.265 C47.3445,46.505 47.0055,46.856 46.5355,46.903 C46.364,47.075 46.2,47.256 46.046,47.4455 C45.288,48.367 44.283,49.0325 43.509,49.9385 C43.4418642,50.0091918 43.391907,50.0943928 43.363,50.1875 C42.99,51.4055 42.7965,52.6655 42.5805,53.919 C42.2985,55.209 42.2205,56.549 42.4235,57.8565 C42.7415,57.2765 43.347,56.973 43.7805,56.4995 C44.169,56.074 44.6435,55.742 45.053,55.3395 C45.458,54.9465 45.9615,54.686 46.414,54.3575 C47.403,53.64 48.517,53.131 49.5525,52.49 C50.338,52 51.1515,51.558 51.93,51.0575 C52.2033045,50.8852342 52.489293,50.7339661 52.7855,50.605 C53.349,50.3545 53.839,49.97 54.3925,49.699 C55.4715,49.1675 56.4825,48.5075 57.551,47.958 C58.447,47.648 59.232,47.097 60.082,46.6895 C60.871,46.4905 61.538,45.9335 62.3645,45.8695 C64.297,45.621 66.256,45.568 68.196,45.768 C68.6695,45.8245 69.108,46.028 69.574,46.122 C71.7395,46.596 73.81,47.547 75.5425,48.947 C75.934,49.2255 76.345,49.4775 76.6935,49.8135 C77.406,50.3675 78.158,50.916 78.66,51.685 C78.91,52.0675 79.2975,52.345 79.486,52.7705 L79.686,52.886 C79.966,53.3415 80.402,53.687 80.6055,54.192 C80.7995,54.6635 81.082,55.0965 81.457,55.442 C81.397,54.8385 81.124,54.284 81.0735,53.6795 C81.011,52.843 80.6195,52.088 80.4125,51.2875 C80.1805,50.39 79.9475,49.4855 79.5605,48.6415 C79.3465,48.1655 79.2185,47.6555 78.9695,47.196 C78.6485,46.5535 78.1595,46.023 77.754,45.437 C77.379,44.887 76.985,44.3505 76.6205,43.7945 C76.4195,43.5015 76.2455,43.1775 75.9595,42.958 C75.369,42.488 74.7935,41.994 74.28,41.438 C74.0495,41.194 73.82,40.9355 73.509,40.7965 C72.7915,40.455 72.2725,39.7955 71.526,39.5065 C70.9245,39.203 70.2465,39.098 69.6635,38.7535 C68.8805,38.5265 68.0335,38.4445 67.235,38.653 L67.2345,38.653 Z M29.358,42.055 C28.5585,42.105 27.756,42.1415 26.962,42.242 L27.0875,42.247 C26.517,42.351 25.963,42.5335 25.396,42.6555 C25.142,42.754 24.7855,42.757 24.654,43.0405 C24.4207907,43.5465172 24.2146661,44.0645826 24.0365,44.5925 C23.647,45.9875 23.558,47.44 23.3675,48.871 C23.302,50.1225 23.6005,51.349 23.7425,52.584 C23.824,53.413 24.2635,54.144 24.3865,54.9635 C24.4265,55.9375 24.8485,56.848 24.878,57.825 C25.114,57.7325 25.363,57.6875 25.617,57.686 C25.745,57.639 25.8745,57.592 26.0045,57.549 L26.018,57.5 C27.15,57.3605 28.295,57.147 29.4355,57.3095 C30.1695,57.4235 30.9255,57.292 31.6505,57.4805 C32.165,57.61 32.703,57.5905 33.2145,57.733 C34.1805,58.0795 34.982,58.7745 35.9575,59.113 C37.1475,59.7 38.236,60.473 39.2725,61.301 C39.9255,61.886 40.475,62.578 41.142,63.147 C41.7655,63.766 42.153,64.5745 42.654,65.291 C42.6405,64.7995 42.478,64.329 42.438,63.841 C42.32,62.6945 42.084,61.5665 41.924,60.4265 C41.848,59.95 41.929,59.4515 41.7885,58.9865 C41.8285,58.2045 41.672,57.4315 41.6835,56.6505 C41.675,55.7875 41.7585,54.9305 41.8115,54.071 C41.929,53.1475 42.257,52.2615 42.3275,51.331 C42.39,50.864 42.59,50.416 42.54,49.936 C42.563,49.624 42.3135,49.401 42.1885,49.141 C41.3595,47.583 39.9955,46.4345 38.7055,45.2815 C38.191,44.7015 37.489,44.364 36.8525,43.949 C36.0885,43.5105 35.2375,43.271 34.4265,42.9445 C33.807,42.6895 33.1335,42.6045 32.517,42.3395 C31.5175,41.9265 30.414,41.931 29.358,42.055 L29.358,42.055 Z M26.177,58.109 L26.2165,58.157 C25.8245,58.2325 25.439,58.339 25.0565,58.45 L25.0325,58.72 C24.0375,59.582 23.2225,60.6325 22.47,61.7095 C22.107,62.1575 21.917,62.7295 21.491,63.1285 C21.234,63.846 20.659,64.389 20.335,65.075 C20.8285,65.0465 21.327,64.9165 21.8185,65.027 L22.147,65.0635 C22.831,65.1605 23.53,65.2045 24.1865,65.4385 C24.823,65.6955 25.51,65.825 26.105,66.182 C27.056,66.7795 28.07,67.3565 28.755,68.277 C29.159,68.754 29.608,69.192 29.9905,69.6875 C30.533359,70.5158447 31.0157767,71.3822583 31.434,72.28 C31.7665,72.851 31.9095,73.501 32.1025,74.128 C32.2095,74.623 32.2455,75.133 32.425,75.611 C32.475,76.2015 32.563,76.7895 32.573,77.385 C32.4165,77.78 32.488,78.2215 32.4115,78.6345 C32.2555,79.553 31.986,80.448 31.6815,81.326 C32.8515,81.185 34.0215,81.0235 35.2,80.966 C36.134,80.7915 37.087,80.786 38.0265,80.648 C38.545,80.579 39.044,80.408 39.5525,80.283 C40.2145,80.079 40.9035,79.883 41.45,79.43 C41.783,79.3915 42.1415,79.3865 42.432,79.196 C42.6445,78.992 42.8235,78.7535 43.0335,78.547 C43.141,78.0005 43.2365,77.45 43.266,76.894 C43.3135,75.8915 43.6155,74.9135 43.565,73.905 C43.566,73.0075 43.514,72.107 43.655,71.217 C43.6075,70.155 43.51,69.042 43.0015,68.089 C42.8291028,67.5769608 42.6383124,67.0712994 42.4295,66.573 C42.04,65.853 41.7395,65.08 41.2295,64.432 C40.753,63.649 39.9735,63.144 39.39,62.456 C38.7278217,61.7575422 37.9841647,61.1411294 37.175,60.62 C36.2365,59.9385 35.129,59.5575 34.145,58.9525 C33.5205,58.5675 32.845,58.2145 32.1035,58.15 C31.248,58.1105 30.406,57.9225 29.5505,57.89 C28.8815,57.8895 28.2095,57.855 27.5425,57.91 C27.085,57.966 26.6375,58.085 26.1775,58.1095 L26.1775,58.109 L26.177,58.109 Z M20.005,65.643 L19.9025,65.885 L19.7825,66.1885 C19.532,66.8535 19.2545,67.5175 19.1525,68.228 C19.133,68.726 19.124,69.2285 19.1695,69.727 C19.253,70.433 19.253,71.146 19.3695,71.8485 C19.3765,71.9995 19.478,72.1545 19.618,72.012 C19.8305,71.847 19.9665,71.3575 20.301,71.542 C20.6725,71.837 21.163,71.61 21.5715,71.788 C22.4615,72.14 23.318,72.616 24.024,73.271 C24.3865,73.758 24.643,74.33 24.827,74.9085 C24.9065,75.489 24.9815,76.0935 24.7845,76.6615 C24.707,77.013 24.346,77.164 24.1035,77.385 C23.6875,77.7435 23.1545,77.902 22.678,78.154 C23.3165,78.725 24.1245,79.031 24.904,79.3465 C26.0105,79.6585 27.0675,80.1195 28.1065,80.6115 C28.8105,80.9575 29.5955,81.096 30.3715,81.1525 C30.7005,80.8825 31.0565,80.6125 31.2165,80.1995 C31.5695,79.358 31.7165,78.4435 31.793,77.5375 C31.833,76.995 32.009,76.434 31.7855,75.9065 C31.5805,74.8425 31.3355,73.7835 30.954,72.769 C30.529,71.938 30.1365,71.0845 29.5995,70.32 C29.2985,69.98 29.0225,69.62 28.7095,69.291 C28.376,68.943 28.1375,68.5075 27.7585,68.2025 C27.196,67.7385 26.6645,67.223 26.011,66.8875 C25.501,66.578 24.9285,66.4025 24.382,66.174 C23.47,65.7965 22.4885,65.5985 21.505,65.557 C21.007,65.619 20.49,65.4875 20.005,65.6425 L20.005,65.643 L20.005,65.643 Z M44.171,69.729 C44.2695,70.5065 44.403,71.2895 44.3225,72.0765 C44.3275,73.274 44.3235,74.475 44.187,75.6675 C43.9435,76.7575 43.977,77.887 43.752,78.982 C44.35,79.1745 44.98,78.983 45.5875,78.9425 C46.4375,78.8335 47.512,78.75 47.9215,77.8505 C47.948,77.3295 47.7055,76.8485 47.55,76.3665 C47.4085,75.961 47.405,75.5065 47.173,75.1365 C46.618,74.194 46.15,73.1985 45.539,72.2915 C45.219,71.7815 44.965,71.233 44.6725,70.708 C44.4915,70.388 44.4235,70.004 44.1705,69.729 L44.171,69.729 L44.171,69.729 Z M19.971,72.671 C19.6475,72.9855 19.318,73.296 18.9485,73.5575 L18.944,73.5985 C18.341,73.9095 17.835,74.375 17.3575,74.8515 C16.759,75.35 16.1885,75.8815 15.5845,76.3745 C14.94,77.0085 14.3065,77.6535 13.6065,78.227 C12.8515,79.1155 12.0425,79.957 11.2185,80.782 C10.8025,81.046 10.487,81.435 10.099,81.7375 C9.64334156,82.0944113 9.20183654,82.4690317 8.7755,82.8605 C8.4805,83.1355 8.1005,83.314 7.852,83.6405 C7.714,83.8145 7.581,83.992 7.441,84.1655 C7.5425,84.2925 7.6445,84.422 7.743,84.5535 L7.947,84.3735 L8.0275,84.241 L8.093,84.349 C10.119,83.694 11.956,82.584 13.9205,81.774 L15.8055,80.8765 C16.9055,80.4315 17.805,79.5845 18.9465,79.237 C19.3515,79.1015 19.7265,78.893 20.103,78.6945 C20.59,78.4325 21.108,78.2315 21.581,77.944 C22.361,77.516 23.201,77.191 23.9285,76.6735 C24.454,76.1265 24.129,75.315 24.0285,74.666 L23.9745,74.688 C23.7695,74.253 23.5595,73.788 23.139,73.5215 C22.4835,73.0775 21.7895,72.646 21.0085,72.481 C20.6575,72.434 20.2435,72.393 19.9705,72.67 L19.9715,72.671 L19.971,72.671 Z M3.5775,84.585 C3.14,84.795 2.831,85.1825 2.451,85.4735 C1.532,86.2185 0.841,87.3225 0.798,88.5345 C0.8355,88.908 0.993,89.251 1.218,89.5485 C1.7515,90.28 2.749,90.439 3.5855,90.297 C4.2355,90.1785 4.71,89.6845 5.2625,89.3625 C5.5155,89.201 5.795,89.062 5.987,88.8235 C6.672,87.8675 7.252,86.7835 7.362,85.5905 C7.31156068,85.4888617 7.25233537,85.3918259 7.185,85.3005 C7.095,85.0665 6.9275,84.876 6.76,84.6965 C6.66654363,84.5091625 6.57982147,84.3185406 6.5,84.125 C5.5165,84.1255 4.475,84.12 3.5775,84.586 L3.5775,84.585 Z" id="Shape"></path>
                <path d="M52.843,28.023 C53.373,28.0035 53.903,27.9695 54.428,27.8935 C55.1555,28.083 55.915,28.052 56.6445,28.236 C57.5095,28.2945 58.359,28.468 59.207,28.64 C60.081,29.176 61.127,29.4865 61.794,30.316 C62.6055,31.0655 63.104,32.146 63.1285,33.256 C62.9465,33.943 62.5385,34.74 61.7825,34.8875 C60.6475,35.1645 59.5915,35.6855 58.4725,36.0125 C57.203,36.425 56.0595,37.1155 54.949,37.8445 C54.234,38.2745 53.479,38.6335 52.7875,39.1045 C52.1775,39.5245 51.52,39.8665 50.8845,40.245 C50.368,40.613 49.8845,41.027 49.387,41.42 C48.4125,42.109 47.332,42.6165 46.3095,43.2265 C45.8195,43.3355 45.37,43.5855 44.868,43.6445 C43.813,43.761 42.618,43.7995 41.7515,43.0755 C41.276,42.7855 41.1025,42.231 40.7785,41.8065 C40.4185,41.353 40.412,40.754 40.323,40.2075 C40.247,39.741 40.3115,39.2705 40.379,38.8085 C40.4405,37.9445 40.877,37.1745 41.26,36.4205 C41.634,35.584 42.263,34.8705 42.447,33.9515 C42.931,33.4065 43.247,32.732 43.7505,32.203 C44.174,31.772 44.468,31.2285 44.9325,30.836 C45.834,29.778 47.2065,29.3785 48.4155,28.801 C49.3975,28.462 50.4405,28.344 51.4675,28.234 C51.931,28.1945 52.375,28.0215 52.8425,28.022 L52.843,28.023 L52.843,28.023 Z M51.249,28.8425 C50.008,29.0295 48.749,29.254 47.6085,29.804 C47.1035,30.109 46.5685,30.3635 46.079,30.6935 C45.4205,31.2045 44.9505,31.9105 44.3755,32.506 C43.932,33.027 43.524,33.5775 43.0825,34.101 C42.5985,34.6565 42.478,35.4355 41.9745,35.9775 C41.692,36.526 41.5145,37.129 41.2935,37.7065 C41.1455,38.36 40.833,38.9855 40.9025,39.673 C40.8625,40.593 41.34,41.408 41.8095,42.155 C42.252,42.704 42.9495,42.9305 43.6255,42.996 C44.0485,42.919 44.484,42.9855 44.9065,42.8975 C45.778,42.7405 46.545,42.2615 47.285,41.797 C48.2004866,41.3150807 49.0692198,40.7491487 49.88,40.1065 C50.3945,39.765 50.871,39.3615 51.4365,39.1055 C52.3345,38.453 53.3265,37.954 54.2735,37.3805 C55.0685,36.969 55.7915,36.427 56.6335,36.108 C57.3,35.696 58.06,35.506 58.7515,35.1465 C59.194,34.9345 59.695,34.8855 60.1335,34.6595 C60.629,34.4195 61.1915,34.383 61.6915,34.157 C62.2325,33.835 62.44,33.1205 62.294,32.5255 C62.2515,31.922 61.847,31.4555 61.5605,30.9555 C60.763,30.103 59.706,29.547 58.6175,29.1695 C57.6245,28.9125 56.599,28.839 55.5925,28.6585 C54.8595,28.5225 54.1125,28.621 53.3745,28.5855 C52.6535,28.5535 51.9705,28.87 51.2495,28.8425 L51.249,28.8425 Z" id="Shape"></path>
                <path d="M48.4445,30.882 C48.5585,30.6975 48.672,30.439 48.938,30.525 C49.2605,30.7925 49.571,31.08 49.9455,31.278 C50.5915,31.6725 51.195,32.145 51.7225,32.6915 L51.897,32.685 C52.024,32.3535 52.1005,32.007 52.1955,31.6655 C52.3005,31.3835 52.6335,31.5 52.8575,31.5005 L52.956,31.7385 C52.957,32.436 53.5085,32.9135 53.8085,33.4885 C54.4185,33.151 54.634,32.426 54.9635,31.8515 C55.1935,31.476 55.0645,30.9015 55.466,30.643 C55.716,30.6145 55.8655,30.857 55.9955,31.031 C56.3215,31.516 56.7455,31.921 57.0905,32.3915 C57.259,32.2055 57.4845,32.0355 57.516,31.767 C57.5795,31.5445 57.531,31.271 57.708,31.097 C57.9915,30.996 58.274,31.157 58.542,31.236 C59.207,31.498 59.901,31.695 60.519,32.0645 C60.772,32.2345 61.087,32.2365 61.359,32.3575 C61.462,32.505 61.446,32.6965 61.48,32.8675 C60.875,33.148 60.366,32.6065 59.827,32.4065 C59.297,32.2215 58.7945,31.9685 58.2575,31.8055 C58.0385,32.2665 57.672,32.627 57.3825,33.042 C57.2685,33.2155 57.077,33.341 56.864,33.299 C56.737,33.0905 56.6535,32.859 56.521,32.6565 C56.2735,32.2565 55.8925,31.974 55.5595,31.653 C55.3375,32.1645 55.1425,32.6875 54.921,33.1995 C54.7335,33.6755 54.272,33.9695 54.107,34.4605 C53.8835,34.534 53.646,34.6045 53.4435,34.4405 C53.342,33.789 53.0235,33.1675 52.5285,32.7325 C52.4685,33.0285 52.406,33.325 52.3595,33.624 C52.1975,33.699 52.015,33.826 51.834,33.731 L51.089,32.8915 C50.628,32.4855 50.11,32.1475 49.573,31.8545 C49.7925,32.731 50.068,33.6535 49.877,34.56 C49.944,35.069 50.0825,35.5645 50.176,36.0675 C50.241,36.3555 49.888,36.4645 49.67,36.397 C49.2905,36.307 48.901,36.339 48.52,36.29 C48.2035,36.1635 47.8915,36.0195 47.552,35.9635 C47.564,36.277 47.796,36.4995 47.9135,36.7735 C48.0195,37.076 48.0235,37.401 48.102,37.711 C48.125,37.8685 48.1855,38.0415 48.101,38.1915 C47.915,38.3115 47.674,38.3775 47.4665,38.2735 C46.952,38.0705 46.4025,38.0075 45.864,37.9035 C46.144,38.3755 46.5455,38.7585 46.8225,39.23 C46.9925,39.462 46.7485,39.7935 46.485,39.7625 C45.7815,39.704 45.0765,39.769 44.373,39.7085 C44.2395,40.381 43.921,40.9935 43.793,41.6685 C43.587,41.629 43.316,41.7315 43.167,41.54 C42.934,41.3315 43.203,41.031 43.261,40.795 C43.5015,40.3125 43.509,39.7585 43.7065,39.2665 C44.2465,38.6795 45.0835,39.1865 45.7545,39.0795 C45.5905,38.5555 45.1265,38.2525 44.811,37.841 C44.611,37.567 44.864,37.3255 45.0685,37.165 C45.8435,37.3085 46.665,37.2795 47.3985,37.609 C47.344,36.928 46.897,36.378 46.735,35.729 C46.8915,35.6045 47.041,35.4675 47.2135,35.366 C47.5085,35.2935 47.7885,35.4325 48.0585,35.532 C48.4895,35.703 48.957,35.7395 49.4155,35.765 C49.192,34.87 49.3645,33.944 49.23,33.0435 C48.9685,32.3235 48.7365,31.591 48.445,30.882 L48.4445,30.882 L48.4445,30.882 Z M78.913,35.4275 C79.24,34.956 80.0715,34.954 80.296,35.529 C80.639,35.5135 81.0375,35.4575 81.281,35.7675 C81.624,36.3995 82.188,36.987 82.1485,37.7585 C82.1775,38.1235 81.883,38.396 81.6185,38.5935 C81.215,38.8635 80.7105,39.0965 80.2215,38.9445 C79.6185,38.7405 79.2665,38.152 78.997,37.6095 C78.654,36.9395 78.64,36.1255 78.9135,35.427 L78.9135,35.4275 L78.913,35.4275 Z M79.4955,36.034 C79.3505,36.837 79.6365,37.769 80.3735,38.181 C80.606,38.346 80.8835,38.176 81.111,38.091 C80.644,37.3555 80.2005,36.5695 79.496,36.034 L79.4955,36.034 Z M80.151,36.047 C80.5875,36.4545 80.955,36.93 81.411,37.314 C81.2495,36.9655 81.061,36.6265 80.826,36.324 C80.672,36.1045 80.3855,36.098 80.151,36.047 L80.151,36.047 Z M82.07,40.7265 C82.5015,40.4925 83.0805,40.5525 83.358,40.994 C83.8355,41.109 84.233,41.437 84.4815,41.859 C84.8375,42.5035 85.209,43.148 85.3945,43.869 C85.1795,44.376 84.7715,44.752 84.3525,45.086 C83.859,45.104 83.2575,45.135 82.9195,44.6975 C82.4895,44.1325 82.0375,43.53 81.938,42.804 C81.8015,42.3065 81.7455,41.793 81.829,41.281 C81.914,41.099 81.993,40.9135 82.0705,40.727 L82.07,40.7265 Z M82.508,41.4795 C82.2535,42.382 82.703,43.2655 83.195,43.992 C83.414,44.247 83.754,44.3395 84.0535,44.4615 C84.0305,43.4435 83.4765,42.5675 82.9235,41.758 L83.25,41.7505 C83.4785,42.0405 83.731,42.3125 83.9785,42.588 C84.3035,42.9645 84.3535,43.5005 84.6925,43.865 C84.5685,43.3665 84.2315,42.9655 84.0255,42.5035 C83.7465,41.9175 83.227,41.5115 82.6805,41.198 C82.6137243,41.2860017 82.5559356,41.3804737 82.508,41.48 L82.508,41.4795 Z M84.6515,47.1115 C85.3315,47.0535 85.897,47.521 86.4085,47.909 C86.8085,48.2205 86.6275,48.7625 86.735,49.1915 C86.778,49.7155 86.81,50.3665 86.3515,50.7265 C85.964,51.005 85.5395,51.327 85.035,51.2855 C84.369,51.372 83.934,50.703 83.792,50.132 C83.484,49.3295 83.6225,48.408 84.0465,47.6765 C84.203,47.453 84.3855,47.2015 84.652,47.1115 L84.6515,47.1115 Z M85.4055,48.005 C85.5235,48.373 85.714,48.714 85.8155,49.0875 C85.865,49.4335 85.8405,49.787 85.8425,50.1365 L86.0065,50.0595 C86.25,49.347 86.194,48.3335 85.405,48.005 L85.4055,48.005 L85.4055,48.005 Z M84.8295,50.6955 C84.967,50.5375 85.1755,50.4015 85.196,50.1715 C85.374,49.4305 85.1005,48.6705 84.663,48.0765 C84.017,48.8145 84.097,50.0425 84.8295,50.6955 Z M25.5455,59.425 C26.268,59.3015 27.0315,59.2 27.7455,59.4235 C28.2715,59.647 28.869,59.834 29.227,60.3155 C29.421668,60.7164377 29.5165288,61.1584925 29.5035,61.604 C29.513,62.016 29.265,62.3665 29.085,62.7175 C28.924,63.049 28.565,63.1795 28.276,63.3665 C27.386,63.5515 26.458,63.31 25.6825,62.853 C25.179,62.621 24.754,62.252 24.41,61.8165 L24.4235,61.5535 L24.2035,61.4325 C24.364,61.0395 24.2255,60.5975 24.4035,60.2115 C24.75,59.8995 25.1385,59.646 25.546,59.424 L25.546,59.4245 L25.5455,59.425 Z M26.1745,59.8845 C25.622,60.097 25.0205,60.3505 24.6865,60.8735 C24.805,60.9765 24.9235,61.0815 25.0465,61.1815 C25.3335,60.8075 25.7275,60.541 26.094,60.2535 C26.414,59.9965 26.8415,60.0365 27.224,59.986 C26.879,59.93 26.5215,59.7345 26.1745,59.8845 Z M25.5415,61.821 C25.7245,62.0785 26.0295,62.1985 26.301,62.336 C26.755,62.5455 27.239,62.754 27.7495,62.711 C28.1815,62.6895 28.568,62.3525 28.66,61.926 C28.83,61.556 28.8165,61.099 28.51,60.8075 C27.885,60.7185 27.2335,60.572 26.6135,60.728 C26.216,61.0425 25.7775,61.358 25.542,61.821 L25.5415,61.821 Z M32.4515,64.3525 C33.5625,63.5855 35.091,63.824 36.171,64.531 C36.746,64.9125 37.142,65.493 37.541,66.044 C37.912,66.583 37.861,67.272 37.848,67.894 C37.6245,68.4655 37.4235,69.095 36.9005,69.4635 C36.549037,69.7743048 36.0618809,69.8813429 35.6125,69.7465 C35.076,69.5585 34.522,69.3735 34.0765,69.0055 C33.64,68.6595 33.4175,68.1085 32.9565,67.79 C32.8995,67.6745 32.8615,67.546 32.7555,67.4695 C32.264,67.0745 32.022,66.4685 31.8385,65.8825 C31.792,65.3025 31.955,64.693 32.4515,64.353 L32.4515,64.3525 L32.4515,64.3525 Z M32.588,65.3395 C33.208,65.1395 33.853,65.0825 34.493,65.0015 C35.28,65.176 36.082,65.47 36.659,66.0625 C36.3615,65.6925 36.0745,65.298 35.67,65.039 C35,64.597 34.159,64.408 33.37,64.558 C33.0312196,64.7264396 32.7566563,65.0008274 32.588,65.3395 Z M32.9705,65.918 C32.5005,66.1455 32.9195,66.706 33.1605,66.9605 L33.1975,67.2025 C33.494,67.306 33.7635,67.4795 33.9345,67.7525 C34.4325,68.4625 35.2215,68.9885 36.0915,69.0485 C36.758,68.8485 37.035,68.041 37.0345007,67.4015 C36.312,66.7 35.5845,65.8445 34.528,65.709 C34.009,65.6895 33.4415,65.6595 32.9715,65.919 L32.9705,65.918 L32.9705,65.918 Z M37.397,74.2315 C37.9285,73.7995 38.6085,73.519 39.2975,73.5555 C39.7855,73.682 40.3545,73.8485 40.5725,74.3605 C41.3945,75.859 40.791,78.0105 39.274,78.8055 C38.787,79.1085 38.1825,79.177 37.625,79.079 C37.0415,78.935 36.596,78.4 36.489,77.813 C36.404,77.356 36.5155,76.8955 36.629,76.4545 C36.7985,75.692 36.807,74.8185 37.3965,74.231 L37.397,74.231 L37.397,74.2315 Z M38.787,74.2505 C39.368,75.2915 39.4695,76.498 39.5805,77.663 C40.0201912,77.1916559 40.2630985,76.5700779 40.2595,75.9255 C40.233,75.3735 40.1325,74.7685 39.6935,74.3905 C39.3935,74.3265 39.0935,74.2605 38.788,74.2505 L38.7875,74.2505 L38.787,74.2505 Z M37.5005,75.5095 C37.3595,75.9555 37.4,76.4355 37.244,76.877 C36.949,77.502 37.4865,78.437 38.209,78.3465 C38.3955,78.1365 38.5955,77.94 38.8055,77.756 C38.8775,76.6465 38.7205,75.477 38.122,74.523 C37.8385,74.793 37.5855,75.1165 37.5005,75.509 L37.5005,75.5095 Z" id="Shape"></path>
            </g>
            <g id="Group" transform="translate(0.500000, 0.500000)" fill="#F8B059" fill-rule="nonzero" stroke="#F8B059" stroke-width="0.91796875">
                <path d="M9.8665,1.7545 C10.0925,1.0315 10.7335,0.468 11.463,0.3085 C12.265,0.156 13.0515,0.4905 13.754,0.8475 C14.6145,1.4475 15.499,2.1715 15.803,3.2315 L15.82,3.337 C14.8975,3.562 14.1175,2.89 13.304,2.587 C12.75,2.491 12.233,2.257 11.6855,2.1425 C11.0955,2.2055 10.5685,2.553 9.9625,2.5525 C9.9245,2.289 9.808,2.022 9.8665,1.7545 Z M99.26,28.9955 C99.829,28.9155 100.385,28.6395 100.97,28.783 C101.498,29.015 101.9845,29.385 102.25,29.9145 C101.776,29.7125 101.2465,29.508 100.73,29.6575 C100.22,29.806 99.6525,29.913 99.2695,30.315 C99.0165,30.559 98.8175,30.86 98.528,31.064 C98.333,31.139 98.114,31.085 97.9115,31.0945 C97.8915,30.5875 97.9445,30.043 98.283,29.6405 C98.5015,29.2905 98.906,29.1555 99.2605,28.9955 L99.26,28.9955 Z M94.407,33.78 C94.752,33.6325 95.0395,33.361 95.4195,33.295 C95.305,33.824 94.9645,34.3125 94.4505,34.51 C93.7452494,34.783478 93.052409,35.0879408 92.374,35.4225 C91.7715,35.7165 91.3225,36.2485 90.718,36.539 C90.293,36.7445 89.8275,36.8395 89.399,37.0375 C89.038,37.1915 88.7065,37.4175 88.3255,37.5205 C88.0055,37.604 87.6795,37.5145 87.367,37.447 C88.047,37.093 88.765,36.814 89.4215,36.4105 C90.2155,36.0825 90.8755,35.5125 91.6435,35.1335 C92.591,34.741 93.469,34.1955 94.407,33.7795 L94.407,33.78 L94.407,33.78 Z M82.197,34.962 L82.309,34.919 C82.751,35.112 83.1775,35.3405 83.604,35.566 L83.512,35.562 C83.2455,35.548 82.9785,35.527 82.712,35.506 L82.707,35.505 C82.5661202,35.2987017 82.394072,35.1155211 82.197,34.962 L82.197,34.962 Z M83.6595,35.615 C84.1595,35.92 84.625,36.2815 85.083,36.6485 C84.463,36.5935 83.88,36.2195 83.6595,35.6155 L83.6595,35.615 Z M19.4025,65.385 L19.505,65.143 C19.855,65.1665 20.203,65.13 20.5505,65.097 C20.3865,65.637 20.1685,66.158 19.9505,66.6775 C19.663,67.359 19.6215,68.1075 19.413,68.8125 C19.299,69.19 19.2615,69.5845 19.261,69.9775 C19.2715,70.467 19.0185,70.8985 18.87,71.349 C18.7535,70.6465 18.7535,69.9335 18.67,69.2275 C18.624,68.729 18.6335,68.2265 18.6525,67.7285 C18.754,67.0185 19.032,66.354 19.2825,65.6885 L19.4025,65.3855 L19.4025,65.385 Z M16.858,74.3515 C17.3355,73.875 17.8415,73.4095 18.4445,73.0985 C18.402,73.4335 18.383,73.7965 18.1835,74.084 C17.935,74.435 17.544,74.6445 17.277,74.979 C17.008,75.314 16.754,75.667 16.417,75.939 C16.0285,76.2565 15.609,76.5365 15.2565,76.898 C14.7915,77.37 14.1975,77.678 13.7,78.1095 C13.413,78.3565 13.1235,78.6045 12.793,78.7945 C12.038,79.1995 11.496,79.9085 10.7185,80.2815 C11.5425,79.457 12.3515,78.6155 13.1065,77.7265 C13.8065,77.1535 14.4395,76.509 15.0845,75.8745 C15.6885,75.3815 16.259,74.85 16.8575,74.3515 L16.858,74.3515 Z M3.077,84.0845 C3.9755,83.6195 5.016,83.6245 5.9995,83.6235 C6.081,83.816 6.1635,84.0085 6.2595,84.1955 C5.8745,84.433 5.4415,84.5825 4.9875,84.588 C4.3305,84.6245 3.7535,84.968 3.1635,85.226 C2.8165,85.391 2.43,85.5255 2.1765,85.8325 C1.9055,86.1735 1.7565,86.599 1.4595,86.9225 C1.0945,87.315 0.72,87.704 0.2965,88.0335 C0.34,86.822 1.0305,85.717 1.9495,84.9725 C2.3295,84.6825 2.639,84.294 3.0765,84.084 L3.077,84.084 L3.077,84.0845 Z" id="Shape"></path>
            </g>
            <g id="Group" transform="translate(0.500000, 2.500000)" fill="#F6941E" fill-rule="nonzero" stroke="#F6941E" stroke-width="0.91796875">
                <path d="M9.9625,0.5525 C10.5685,0.553 11.096,0.206 11.6855,0.1425 C12.233,0.257 12.75,0.491 13.304,0.5875 C14.1175,0.89 14.8975,1.562 15.82,1.337 L15.95,2.2985 C15.3435,2.7575 14.8395,3.5165 14.01,3.5305 C13.4175,3.559 12.8,3.554 12.244,3.3145 C11.795,3.128 11.345,2.939 10.916,2.707 C10.343,2.137 10.199,1.2965 9.963,0.552 L9.9625,0.5525 Z M50.75,26.3425 C51.471,26.37 52.154,26.054 52.875,26.0855 C53.613,26.1205 54.36,26.0225 55.0925,26.1585 C56.1,26.3385 57.125,26.413 58.118,26.6695 C59.2065,27.047 60.2635,27.603 61.0605,28.4555 C61.3475,28.9555 61.752,29.422 61.7945,30.0255 C61.9405,30.6205 61.7335,31.3355 61.1915,31.657 C60.6915,31.883 60.1295,31.919 59.634,32.1595 C59.1955,32.3855 58.6945,32.4345 58.252,32.6465 C57.5605,33.0055 56.8005,33.1965 56.134,33.608 C55.292,33.9265 54.569,34.469 53.774,34.8805 C52.827,35.454 51.835,35.9535 50.9365,36.6055 C50.3715,36.8625 49.895,37.2655 49.38,37.6065 C48.5695984,38.2492834 47.7010022,38.8150678 46.7855,39.2965 C46.0455,39.761 45.2785,40.24 44.407,40.3975 C43.9845,40.4855 43.549,40.419 43.1255,40.496 C42.4505,40.431 41.7525,40.204 41.31,39.655 C40.8405,38.908 40.363,38.0925 40.403,37.173 C40.333,36.4855 40.6455,35.86 40.794,35.2065 C41.015,34.629 41.192,34.026 41.475,33.4775 C41.978,32.935 42.0985,32.1565 42.583,31.6005 C43.0245,31.0775 43.4325,30.527 43.876,30.006 C44.451,29.411 44.921,28.7045 45.5795,28.1935 C46.069,27.863 46.6035,27.6085 47.1085,27.3035 C48.249,26.754 49.5085,26.5295 50.7495,26.3425 L50.75,26.3425 Z M47.9445,28.382 C48.2355,29.0905 48.4675,29.823 48.7295,30.5435 C48.8635,31.4435 48.691,32.37 48.9145,33.265 C48.456,33.2395 47.989,33.203 47.558,33.032 C47.288,32.932 47.0075,32.7935 46.713,32.866 C46.54,32.9675 46.391,33.1045 46.234,33.2285 C46.396,33.8775 46.843,34.4275 46.897,35.1085 C46.1645,34.7795 45.343,34.8085 44.5675,34.665 C44.3635,34.8255 44.11,35.067 44.3105,35.341 C44.6255,35.7525 45.09,36.0555 45.254,36.5795 C44.5825,36.6865 43.7455,36.1795 43.206,36.7665 C43.0075,37.2585 43.0005,37.8125 42.76,38.295 C42.702,38.531 42.433,38.8315 42.666,39.04 C42.8155,39.2315 43.086,39.1285 43.292,39.1685 C43.42,38.4935 43.739,37.881 43.872,37.2085 C44.5755,37.269 45.281,37.2035 45.984,37.2625 C46.248,37.2935 46.4915,36.9625 46.322,36.73 C46.0445,36.2585 45.643,35.8755 45.3635,35.404 C45.9015,35.5075 46.451,35.571 46.9655,35.774 C47.1735,35.8775 47.4135,35.811 47.6005,35.6915 C47.685,35.5415 47.6245,35.3685 47.601,35.2115 C47.5225,34.9015 47.5185,34.576 47.4125,34.273 C47.295,33.9995 47.0635,33.777 47.0515,33.4635 C47.3905,33.5195 47.7025,33.6635 48.0195,33.79 C48.4005,33.839 48.7905,33.807 49.1695,33.897 C49.3875,33.964 49.7395,33.8555 49.675,33.5675 C49.582,33.064 49.443,32.569 49.3765,32.06 C49.5665,31.1535 49.2915,30.231 49.0725,29.3545 C49.609,29.6475 50.1275,29.9855 50.5875,30.3915 L51.333,31.2315 C51.514,31.3265 51.696,31.199 51.858,31.124 C51.905,30.825 51.968,30.529 52.028,30.2325 C52.5225,30.6675 52.8415,31.289 52.943,31.94 C53.145,32.105 53.3825,32.0345 53.606,31.96 C53.771,31.469 54.2325,31.175 54.42,30.6995 C54.6415,30.187 54.836,29.6645 55.059,29.153 C55.3915,29.474 55.7725,29.7565 56.0205,30.1565 C56.1525,30.3595 56.2365,30.5905 56.3635,30.799 C56.576,30.8415 56.768,30.7155 56.882,30.542 C57.171,30.127 57.5375,29.767 57.757,29.3055 C58.2935,29.4685 58.797,29.722 59.326,29.9065 C59.865,30.1065 60.3745,30.6475 60.979,30.3675 C60.945,30.1965 60.961,30.005 60.858,29.8575 C60.586,29.7365 60.2715,29.7345 60.018,29.5645 C59.3995,29.1945 58.706,28.998 58.0415,28.736 C57.7735,28.6565 57.491,28.496 57.207,28.5965 C57.03,28.771 57.079,29.045 57.015,29.267 C56.9835,29.5355 56.758,29.7055 56.59,29.892 C56.245,29.421 55.821,29.016 55.495,28.531 C55.3645,28.357 55.215,28.1145 54.965,28.143 C54.5635,28.402 54.693,28.976 54.463,29.3515 C54.1335,29.9255 53.918,30.6505 53.3075,30.989 C53.0075,30.414 52.456,29.9355 52.455,29.2385 L52.3565,29.001 C52.1325,29 51.8,28.883 51.695,29.166 C51.5995,29.507 51.523,29.853 51.396,30.185 L51.221,30.1915 C50.6913286,29.6467305 50.0943465,29.1717323 49.4445,28.778 C49.0705,28.58 48.7605,28.2925 48.437,28.025 C48.1715,27.939 48.058,28.198 47.9435,28.382 L47.9445,28.382 L47.9445,28.382 Z M100.729,27.6575 C101.246,27.5075 101.7755,27.712 102.25,27.9145 C102.3535,28.0195 102.4075,28.1615 102.455,28.3005 L102.4925,28.5105 C102.1455,28.8675 101.8075,29.2405 101.6075,29.7055 C101.281,30.3975 100.4025,30.249 99.8385,30.599 C99.5965,30.681 99.342,30.983 99.085,30.8375 L99.0425,30.7785 C99.0945,30.5535 99.1865,30.3425 99.2405,30.119 C99.0975,30.009 98.961,29.8955 98.8255,29.779 L98.582,29.7485 C98.371,29.5405 98.065,29.6575 97.8085,29.6435 L97.9115,29.096 C98.1135,29.086 98.333,29.1395 98.528,29.065 C98.817,28.8615 99.016,28.56 99.2695,28.3165 C99.6525,27.9145 100.22,27.8075 100.7295,27.659 L100.7295,27.6575 L100.729,27.6575 Z M97.6835,30.3505 C97.9005,30.2415 98.151,30.265 98.388,30.275 C98.383,30.6235 98.098,30.848 97.902,31.1005 C97.491,31.6215 96.967,32.043 96.411,32.3935 C94.272,33.1365 92.627,34.775 90.731,35.955 C89.947,36.4615 89.073,36.9385 88.634,37.8145 L88.514,37.7175 C88.352,37.2445 88.105,36.8105 87.855,36.3825 C87.6465,36.039 87.335,35.7685 87.1615,35.403 L87.367,35.448 C87.6795,35.515 88.006,35.605 88.3255,35.5215 C88.707,35.418 89.0385,35.1925 89.399,35.038 C89.827,34.8405 90.293,34.7455 90.718,34.54 C91.322,34.2495 91.7715,33.7175 92.374,33.4235 C93.0524919,33.0891187 93.7453244,32.7846594 94.4505,32.511 C94.9645,32.3135 95.3055,31.8245 95.4195,31.2955 L95.4215,31.288 C96.163,30.944 96.9445,30.703 97.6835,30.3515 L97.6835,30.3505 L97.6835,30.3505 Z M82.713,33.506 C82.9785,33.526 83.2455,33.5475 83.5125,33.562 L83.6355,33.569 L83.66,33.615 C83.88,34.219 84.4635,34.5935 85.083,34.648 C85.419,34.684 85.6335,34.964 85.8605,35.1845 C86.4885,35.773 87.119,36.3895 87.5,37.178 C87.8145,37.637 87.9965,38.1615 88.257,38.649 C88.367,38.872 88.395,39.123 88.4295,39.368 L88.4805,39.3745 C88.7355,40.1435 88.8855,40.9595 88.739,41.7665 C88.8755,42.4475 88.76,43.1365 88.542,43.7875 C88.254,44.4295 88.088,45.119 87.7905,45.7565 C87.777,45.159 87.817,44.5535 87.687,43.9655 C87.546,43.3005 87.351,42.6475 87.239,41.977 C86.97,40.449 86.2905,39.044 85.6625,37.643 C85.459,37.124 85.0885,36.705 84.8345,36.2165 C84.27,35.209 83.514,34.3265 82.7145,33.505 L82.713,33.506 L82.713,33.506 Z M19.505,63.143 C19.99,62.988 20.507,63.1195 21.005,63.0575 C21.9885,63.099 22.97,63.2975 23.882,63.6745 C24.4285,63.9035 25.0005,64.0785 25.511,64.3875 C26.164,64.723 26.696,65.2385 27.2585,65.703 C27.6375,66.008 27.876,66.443 28.209,66.7915 C28.5225,67.12 28.799,67.4805 29.0995,67.8205 C29.6365,68.585 30.028,69.4385 30.4545,70.2695 C30.8355,71.2845 31.08,72.343 31.2855,73.407 C31.3305,73.794 31.3085,74.1835 31.2835,74.5705 C30.8895,74.5485 30.4745,74.5635 30.1135,74.378 C29.6635,74.1465 29.2155,73.901 28.7185,73.7845 C28.276,73.679 27.8715,73.466 27.447,73.3085 C27.0265,73.1525 26.569,73.1985 26.136,73.111 C25.835,73.006 25.601,72.759 25.291,72.6775 C24.968,72.591 24.641,72.5235 24.3275,72.4075 C24.143,71.8295 23.887,71.2575 23.5245,70.7705 C22.8185,70.115 21.9615,69.639 21.072,69.287 C20.663,69.1095 20.173,69.3365 19.8015,69.041 C19.4665,68.857 19.3315,69.346 19.118,69.511 C18.978,69.6535 18.877,69.4985 18.8705,69.348 C19.0185,68.8975 19.272,68.4655 19.261,67.9765 C19.262,67.583 19.2995,67.1885 19.4135,66.811 C19.622,66.106 19.6635,65.3575 19.9505,64.676 C20.169,64.1565 20.3865,63.636 20.551,63.096 C20.204,63.129 19.8555,63.1655 19.506,63.1415 L19.505,63.143 L19.505,63.143 Z" id="Shape"></path>
                <path d="M19.4715,70.1715 C19.7445,69.8945 20.1585,69.935 20.509,69.982 C21.291,70.147 21.984,70.579 22.6395,71.023 C23.06,71.289 23.2695,71.7545 23.4755,72.1895 C22.7045,72.43 22.1865,73.077 21.567,73.555 C20.972,73.986 20.451,74.511 19.862,74.953 C19.109,75.6395 18.187,76.085 17.2865,76.54 C16.3815,77.0435 15.536,77.655 14.589,78.083 C14.044,78.332 13.594,78.747 13.0545,79.008 C12.233,79.422 11.4035,79.843 10.5145,80.0855 C9.9965,80.219 9.554,80.5355 9.057,80.7225 C8.4895,80.9475 7.854,81.1835 7.528,81.742 L7.448,81.8745 L7.243,82.0545 C7.145,81.923 7.043,81.7935 6.9415,81.666 C7.0815,81.493 7.2145,81.316 7.3525,81.141 C7.601,80.8145 7.9805,80.636 8.276,80.361 C8.70243733,79.9698052 9.14393811,79.5953551 9.5995,79.2385 C9.987,78.936 10.303,78.5465 10.7195,78.2825 C11.4965,77.9095 12.0385,77.2005 12.7935,76.795 C13.124,76.6055 13.4135,76.3575 13.7005,76.11 C14.198,75.6785 14.792,75.37 15.257,74.899 C15.6095,74.5375 16.0285,74.257 16.417,73.9395 C16.7545,73.6675 17.008,73.3145 17.277,72.98 C17.544,72.645 17.935,72.4355 18.184,72.085 C18.383,71.7975 18.4025,71.435 18.445,71.099 L18.449,71.0585 C18.819,70.7965 19.148,70.4865 19.4725,70.172 L19.4715,70.1715 L19.4715,70.1715 Z M6.26,82.196 C6.427,82.376 6.5945,82.566 6.6845,82.8 L6.7785,83.145 C6.4565,83.5055 6.3155,83.975 6.1375,84.416 C5.873,85.0705 5.207,85.389 4.7325,85.8635 C4.405,86.2185 3.92,86.3225 3.5205,86.5675 C3.1925,86.76 2.8475,86.9395 2.467,86.9945 C1.886,87.1225 1.296,86.881 0.717,87.048 C0.492,86.7505 0.3345,86.4075 0.297,86.034 C0.7205,85.705 1.0945,85.3155 1.46,84.9225 C1.7565,84.6 1.905,84.174 2.177,83.8325 C2.43,83.526 2.8165,83.391 3.164,83.2265 C3.754,82.969 4.331,82.6245 4.9875,82.5885 C5.442,82.5835 5.875,82.4335 6.2595,82.196 L6.26,82.196 Z" id="Shape"></path>
            </g>
            <g id="Group" transform="translate(1.000000, 3.500000)" fill="#7D4B0F" fill-rule="nonzero" stroke="#7D4B0F" stroke-width="0.91796875">
                <path d="M15.303,0.2315 L15.285,0.1085 C15.482,0.5885 15.5035,1.115 15.571,1.6235 C15.6445,2.0515 15.426,2.4585 15.1645,2.7755 C14.8745,2.956 14.5295,3.013 14.205,3.1045 C13.995,2.9345 13.7775,2.723 13.485,2.7485 C13.21,2.8925 13.27,3.2265 13.266,3.485 C12.7245,3.436 12.2165,3.238 11.709,3.06 C11.0825,2.8555 10.759,2.223 10.4165,1.707 C10.8455,1.939 11.2955,2.128 11.7445,2.3145 C12.3005,2.5545 12.918,2.5595 13.5105,2.5305 C14.34,2.517 14.8435,1.7575 15.4505,1.2985 L15.3205,0.337 L15.3035,0.2315 L15.303,0.2315 Z M101.955,27.3005 L102.079,27.4955 C101.923,28.028 101.828,28.613 101.424,29.0245 C101.0055,29.5975 100.3305,29.8765 99.7045,30.1445 C99.2705,30.1155 98.8145,30.0795 98.413,29.9045 L98.478,29.6225 L98.5415,29.7785 L98.584,29.8375 C98.8415,29.9825 99.0955,29.681 99.338,29.599 C99.901,29.249 100.78,29.3975 101.1065,28.706 C101.3065,28.241 101.6445,27.8675 101.9915,27.51 L101.9545,27.3005 L101.955,27.3005 L101.955,27.3005 Z M90.2315,34.9545 C92.127,33.7745 93.7715,32.1365 95.911,31.393 C95.1845,32.3205 94.166,32.931 93.1875,33.549 C92.2355,34.034 91.516,34.8675 90.579,35.3765 C89.685,35.844 88.947,36.5465 88.1465,37.1455 C88.097,37.003 88.0465,36.862 88.0145,36.7165 L88.1345,36.8135 C88.574,35.9375 89.447,35.461 90.232,34.9535 L90.2315,34.9545 L90.2315,34.9545 Z M22.975,71.1895 L23.0295,71.167 C23.1295,71.816 23.4545,72.628 22.9295,73.1745 C22.202,73.692 21.361,74.0175 20.582,74.445 C20.1085,74.733 19.591,74.934 19.1035,75.196 C18.7265,75.394 18.352,75.6025 17.9475,75.7385 C16.8055,76.086 15.9065,76.933 14.8065,77.378 L12.9215,78.2755 C10.957,79.086 9.1195,80.195 7.094,80.8505 L7.0285,80.7425 C7.3545,80.184 7.99,79.9475 8.5575,79.723 C9.054,79.536 9.497,79.2195 10.015,79.0855 C10.9045,78.843 11.7335,78.4225 12.555,78.0085 C13.094,77.7475 13.544,77.3325 14.0895,77.0835 C15.0365,76.656 15.8825,76.044 16.787,75.54 C17.687,75.0855 18.6095,74.64 19.362,73.9535 C19.951,73.5115 20.472,72.9865 21.067,72.5555 C21.687,72.0775 22.205,71.4305 22.976,71.19 L22.9755,71.1895 L22.975,71.1895 Z" id="Shape"></path>
                <path d="M23.827,71.4085 C24.14,71.5245 24.4675,71.5915 24.7905,71.6785 C25.1005,71.7595 25.3345,72.0065 25.6355,72.1115 C26.069,72.1995 26.526,72.153 26.9465,72.3095 C27.3715,72.4665 27.7755,72.6795 28.218,72.7855 C28.715,72.902 29.163,73.148 29.613,73.379 C29.9745,73.564 30.389,73.549 30.783,73.5715 C30.808,73.1845 30.8295,72.795 30.785,72.408 C31.0085,72.9355 30.8325,73.4965 30.7925,74.039 C30.716,74.9445 30.569,75.859 30.216,76.701 C30.056,77.1135 29.7005,77.384 29.371,77.6535 C28.595,77.597 27.8105,77.4585 27.106,77.1125 C26.067,76.6205 25.011,76.1595 23.9035,75.8475 C23.1235,75.5325 22.316,75.2265 21.6775,74.6555 C22.154,74.403 22.6865,74.245 23.1025,73.8865 C23.3455,73.665 23.7065,73.5145 23.784,73.1625 C23.981,72.595 23.9055,71.9905 23.8265,71.41 L23.8265,71.4085 L23.827,71.4085 Z M6.1845,81.8 C6.251,81.891 6.31,81.9875 6.361,82.09 C6.251,83.2825 5.672,84.3665 4.986,85.323 C4.7945,85.5615 4.515,85.7005 4.262,85.862 C3.7095,86.184 3.2345,86.678 2.585,86.7965 C1.7485,86.9385 0.751,86.7795 0.217,86.048 C0.7965,85.881 1.386,86.123 1.9675,85.9945 C2.3475,85.9395 2.6925,85.76 3.021,85.5675 C3.4205,85.3225 3.906,85.219 4.2325,84.8635 C4.707,84.3885 5.373,84.07 5.638,83.416 C5.816,82.9755 5.957,82.506 6.279,82.1455 L6.1845,81.8 Z" id="Shape"></path>
            </g>
            <path d="M15.6785,8.3685 C15.3495,8.2775 15.781,7.9435 15.8065,8.2785 L15.767,8.364 L15.678,8.3685 L15.6785,8.3685 Z" id="Path" stroke="#0C0606" stroke-width="0.91796875" fill="#0C0606" opacity="0.81"></path>
            <g id="Group" transform="translate(15.500000, 8.000000)" fill="#99987D" fill-rule="nonzero" stroke="#99987D" stroke-width="0.91796875">
                <path d="M0.178,0.3685 L0.267,0.364 L1.588,1.799 C1.923,2.0395 2.152,2.385 2.345,2.7455 C2.597,2.7255 2.85,2.7235 3.103,2.72 C3.624,2.72 4.1135,2.5125 4.588,2.3145 C5.147,2.0795 5.685,1.7885 6.169,1.417 C6.6725,2.411 6.836,3.524 7.182,4.5755 C7.306,5.015 7.342,5.4755 7.4905,5.908 C7.598,6.155 7.757,6.376 7.8835,6.6145 C8.268,6.636 8.7535,6.603 8.957,6.2125 C9.272,5.6865 9.672,5.215 9.94,4.661 C10.213,4.11 10.5865,3.6195 10.865,3.072 C11.4625,3.092 11.8225,2.542 12.2295,2.1895 L12.328,2.582 C12.544,3.787 12.279,5.0225 12.455,6.234 C12.5555,6.851 12.4325,7.492 12.631,8.093 C13.338,8.941 14.163,9.68 14.8495,10.548 C15.221,11.0295 15.7325,11.377 16.081,11.88 C16.692,12.588 17.2045,13.377 17.843,14.0605 C18.2425,14.7355 18.775,15.312 19.261,15.9225 C19.8515,16.484 20.4435,17.0665 20.862,17.777 C20.7285,18.097 20.361,18.2505 20.072,18.411 C19.949,18.0975 19.797,17.7925 19.564,17.548 C18.4415,16.2485 17.375,14.9 16.2325,13.6195 C15.8025,13.0935 15.491,12.4725 14.9965,12.0015 C14.5865,11.5565 14.249,11.0475 13.8125,10.627 C13.4025,10.187 12.904,9.8335 12.5455,9.343 C12.2905,8.991 11.921,8.7355 11.691,8.363 C11.654,8.073 11.67,7.7775 11.6225,7.488 C11.5175,6.926 11.653,6.3595 11.6415,5.7935 C11.6865,5.0425 11.6425,4.29 11.6865,3.5385 L11.378,3.3665 C11.254,3.472 11.098,3.5515 11.0115,3.6935 C10.147,5.4735 9.2705,7.2555 8.2145,8.9315 C7.6935,8.3275 7.1945,7.6835 6.9295,6.918 C6.7855,6.516 6.623,6.118 6.551,5.6945 C6.4195,4.919 5.9,4.2485 5.919,3.4395 C5.9295,3.1085 5.755,2.821 5.5905,2.5495 L5.255,2.5595 L4.9,3.0125 C4.51,2.694 4.0355,2.914 3.615,3.026 C3.02,3.176 2.57,3.636 1.992,3.8305 C1.7145,3.2415 1.287,2.7395 1.026,2.142 C0.7515,1.547 0.4925,0.944 0.178,0.369 L0.178,0.3685 L0.178,0.3685 Z M40.975,17.0605 C41.6445,17.202 42.297,17.4135 42.9515,17.6145 C43.6152736,17.7540938 44.2549372,17.990451 44.85,18.316 C45.25,18.607 45.69,18.835 46.123,19.071 C46.935,19.4885 47.5845,20.151 48.3225,20.681 C48.731,21.091 49.0805,21.562 49.516,21.9495 C50.1575,22.5195 50.636,23.2415 51.1595,23.917 C51.9705,24.9065 52.6695,25.984 53.2935,27.102 C53.8695,28.253 54.494,29.3845 54.9085,30.61 L55.19,30.535 C55.176,30.039 55.271,29.496 54.9995,29.052 C54.6195,28.258 54.2325,27.467 53.8695,26.664 C53.0545,25.124 51.954,23.765 50.8135,22.461 C49.8665,21.5595 49.049,20.531 48.0665,19.666 C47.4565,19.039 46.6065,18.7445 45.9665,18.1575 C46.552,18.2835 47.0985,18.54 47.6815,18.674 C48.435,18.8455 48.9915,19.432 49.6805,19.752 C50.4015,20.0955 50.889,20.7745 51.6045,21.123 C51.9945,21.321 52.367,21.5545 52.7125,21.8255 C53.191,22.2 53.7585,22.4595 54.174,22.9165 C54.46,23.198 54.657,23.5665 54.983,23.8065 C55.4565,24.0715 55.982,24.235 56.512,24.341 C57.1855,25.071 57.795,25.8605 58.4885,26.5715 C59.038,27.0155 59.4385,27.608 59.955,28.087 C60.302,28.4845 60.7865,28.734 61.11,29.1555 C61.751,29.975 62.1175,30.968 62.755,31.7905 C63.563,33.0895 63.9305,34.598 64.459,36.022 C65.4425,37.922 65.822,40.0505 66.4665,42.073 C66.5315,42.476 66.6405,42.871 66.7365,43.267 C66.848,43.9605 66.8545,44.666 66.8515,45.367 C66.9265,46.0735 67.0565,46.78 67.0315,47.4945 C66.9985,47.95 66.9305,48.4025 66.9095,48.8595 L66.766,48.855 C66.7158224,48.3281547 66.6301275,47.8052987 66.5095,47.29 C66.3465,46.651 66.4515,45.9515 66.127,45.355 C66.084,44.6455 65.75,44.009 65.588,43.33 C65.463,42.4245 65.118,41.573 64.835,40.711 C64.582,39.9645 64.3615,39.1935 63.91,38.539 C63.541,37.854 62.983,37.304 62.5765,36.645 C62.3853529,36.35015 62.1869592,36.0600618 61.9815,35.775 C61.474,35.084 60.8115,34.5375 60.2315,33.913 C59.572,33.279 58.7495,32.8465 58.1065,32.193 C57.6995,31.864 57.2015,31.681 56.7445,31.4375 C55.9845,31.021 55.166,30.7305 54.3505,30.4475 C53.9075,30.2945 53.5975,29.8655 53.1305,29.784 C52.444,29.604 51.8005,30.033 51.113,30.004 C50.395,29.9745 49.712,30.2465 48.9975,30.229 C48.523,30.2505 48.089,30.4675 47.6275,30.5585 C47.1885,30.645 46.8075,30.8865 46.3975,31.0515 C45.278,31.4105 44.2425,31.983 43.1135,32.3165 C42.39,32.4365 41.788,32.8865 41.0795,33.048 C40.6175,33.173 40.2055,33.4265 39.758,33.5865 C39.0616961,33.8269244 38.4186492,34.2001531 37.8645,34.6855 C37.5405,35.091 37.013,35.1285 36.5765,35.3425 C36.1385,35.5525 35.644,35.6055 35.215,35.84 C34.517,36.213 33.7905,36.5295 33.0895,36.895 C32.471,37.304 31.804,37.6465 31.2495,38.1455 C30.8975,38.4375 30.4435,38.601 30.1755,38.9905 C29.4555,39.918 28.3605,40.424 27.5805,41.2875 C27.2115,40.681 26.794,40.1055 26.4155,39.5045 C25.6805,38.538 24.7355,37.77 23.813,36.9935 C22.932,36.1025 21.814,35.503 20.6785,35.0065 C19.5325,34.3425 18.257,33.979 17.0095,33.5685 C16.3665,33.527 15.7365,33.3455 15.0865,33.408 C14.272,33.3545 13.4755,33.573 12.6635,33.53 C12.207,33.5405 11.7565,33.635 11.3005,33.644 C10.7,33.6655 10.1565,33.941 9.591,34.114 C9.643,34.045 9.6895,33.9715 9.7475,33.9095 C10.4645,33.7125 11.1875,33.4995 11.9365,33.487 C12.29,33.482 12.6945,33.414 12.8845,33.072 C13.596,31.915 14.3975,30.821 15.147,29.692 C15.5985,29.0385 16.328,28.676 16.837,28.0795 C17.1815,27.6475 17.763,27.5455 18.148,27.1605 C18.58,26.737 19.2145,26.6325 19.639,26.199 C20.0735,25.754 20.6345,25.484 21.1355,25.1285 C21.708,24.6355 22.334,24.212 22.937,23.7585 C23.9345,23.1695 25.0335,22.777 26.015,22.1585 C26.6075,21.8325 27.21,21.528 27.775,21.1545 C28.651,20.597 29.6825,20.3585 30.55,19.7855 C31.1735,19.3865 31.875,19.1365 32.5235,18.7835 C33.1625,18.438 33.8895,18.3515 34.5895,18.21 C35.2765,18.071 35.9755,18.006 36.6715,17.934 C37.4245,17.8645 38.1015,17.479 38.8475,17.3765 C39.5565,17.276 40.276,17.231 40.976,17.06 L40.9755,17.0605 L40.975,17.0605 Z M37.343,20.023 C36.876,20.022 36.4325,20.195 35.968,20.235 C34.941,20.345 33.898,20.4625 32.9165,20.8015 C31.707,21.379 30.3345,21.779 29.4335,22.8365 C28.9685,23.2295 28.6755,23.7725 28.2515,24.204 C27.7475,24.7335 27.4315,25.408 26.948,25.952 C26.764,26.872 26.1345,27.5855 25.761,28.4215 C25.378,29.175 24.941,29.9455 24.88,30.8095 C24.8125,31.271 24.7475,31.7415 24.824,32.2085 C24.913,32.755 24.919,33.3535 25.279,33.807 C25.6035,34.232 25.777,34.787 26.2525,35.0765 C27.119,35.8005 28.314,35.7615 29.369,35.6455 C29.871,35.587 30.3195,35.3365 30.8105,35.227 C31.832,34.6175 32.9135,34.1095 33.888,33.421 C34.386,33.0275 34.8685,32.6135 35.3855,32.246 C36.0205,31.8675 36.678,31.525 37.288,31.105 C37.9795,30.635 38.735,30.275 39.4495,29.845 C40.5605,29.1155 41.7045,28.426 42.973,28.0135 C44.0925,27.6865 45.148,27.1655 46.283,26.8885 C47.0395,26.7405 47.4475,25.9435 47.6295,25.2565 C47.6045,24.1465 47.106,23.0665 46.2945,22.3165 C45.628,21.488 44.5815,21.1765 43.708,20.6405 C42.86,20.4685 42.0105,20.2955 41.1455,20.2365 C40.4155,20.0525 39.6565,20.084 38.929,19.8945 C38.404,19.9705 37.8735,20.0045 37.344,20.024 L37.343,20.023 L37.343,20.023 Z" id="Shape"></path>
                <path d="M13.858,34.055 C14.914,33.931 16.018,33.9265 17.017,34.3395 C17.6335,34.6045 18.307,34.6895 18.9265,34.9445 C19.7375,35.271 20.589,35.51 21.3525,35.949 C21.989,36.364 22.691,36.702 23.2055,37.2815 C24.4955,38.4345 25.8595,39.583 26.6885,41.1415 C26.8135,41.4015 27.0635,41.624 27.04,41.936 C27.09,42.416 26.89,42.864 26.8275,43.331 C26.7575,44.2615 26.429,45.1475 26.3115,46.071 C26.2585,46.931 26.175,47.7875 26.1835,48.6505 C26.1655,49.1285 26.0895,49.6015 26.0565,50.078 C26.03,50.399 26.1865,50.691 26.2885,50.986 C26.429,51.4515 26.348,51.95 26.424,52.4265 C26.584,53.5665 26.82,54.6945 26.938,55.8415 C26.978,56.329 27.14,56.7995 27.154,57.2915 C26.653,56.5745 26.2655,55.7665 25.642,55.1465 C24.975,54.578 24.4255,53.8865 23.773,53.301 C22.736,52.473 21.6475,51.7 20.4575,51.113 C19.4825,50.775 18.6805,50.08 17.7145,49.733 C17.203,49.591 16.665,49.6105 16.15,49.4805 C15.426,49.292 14.67,49.424 13.9355,49.3095 C12.7955,49.1465 11.6505,49.3605 10.518,49.4995 C10.799,48.7355 10.5765,47.92 10.618,47.131 C10.6855,46.354 10.2485,45.656 10.2465,44.8855 C10.239,44.2005 10.0165,43.55 9.882,42.8865 C9.768,41.828 9.572,40.7695 9.634,39.701 C9.6515,39.361 9.796,39.0495 9.923,38.741 C10.1315,38.253 10.1755,37.7035 10.447,37.241 C10.7935,36.6445 10.9975,35.977 11.364,35.3925 C11.5885,35.0225 11.8045,34.6475 12.021,34.274 C11.876,34.264 11.732,34.2525 11.5875,34.2475 L11.462,34.2425 C12.256,34.1415 13.0585,34.105 13.858,34.055 L13.858,34.055 Z M10.675,51.8845 C11.022,51.7345 11.379,51.93 11.724,51.986 C11.342,52.036 10.914,51.996 10.594,52.2535 C10.228,52.541 9.834,52.8075 9.547,53.1815 C9.424,53.081 9.3055,52.976 9.187,52.8735 C9.5205,52.3505 10.122,52.097 10.675,51.8845 Z M17.088,57.3395 C17.256536,57.0007409 17.5311332,56.7263193 17.87,56.558 C18.659,56.408 19.5,56.597 20.17,57.039 C20.575,57.298 20.8615,57.6925 21.159,58.0625 C20.582,57.47 19.78,57.176 18.993,57.0015 C18.3525,57.083 17.708,57.1395 17.088,57.3395 L17.088,57.3395 Z M23.2875,66.2505 C23.5935,66.2605 23.893,66.3265 24.1925,66.3905 C24.6325,66.7685 24.733,67.3735 24.759,67.9255 C24.7628356,68.5700283 24.5200965,69.1916335 24.0805,69.663 C23.969,68.4975 23.8675,67.291 23.287,66.2505 L23.2875,66.2505 Z" id="Shape"></path>
            </g>
            <g id="Group" transform="translate(18.500000, 8.500000)" fill="#B3B39F" fill-rule="nonzero" stroke="#B3B39F" stroke-width="0.91796875">
                <path d="M1.536,1.482 C2.034,1.1365 2.4395,0.662 2.9935,0.3985 L3.169,0.917 C2.6855,1.2885 2.1475,1.579 1.5885,1.8145 C1.1135,2.0125 0.6245,2.2195 0.1035,2.2195 C0.5355,1.8865 1.065,1.7415 1.5365,1.482 L1.536,1.482 Z M7.865,2.572 C8.2795,1.929 8.7275,1.3035 9.274,0.7665 C9.296,1.205 9.2895,1.6445 9.328,2.082 L9.2295,1.6895 C8.8225,2.042 8.4625,2.592 7.8655,2.572 L7.865,2.572 Z M33.174,16.408 C33.8125,16.395 34.437,16.2485 35.0745,16.213 C35.6245,16.2845 36.1835,16.048 36.7225,16.231 C37.1355,16.3595 37.561,16.4375 37.975,16.56 C37.275,16.7315 36.556,16.7765 35.8465,16.8765 C35.1,16.9795 34.423,17.364 33.6705,17.434 C32.975,17.5055 32.2755,17.571 31.5885,17.71 C30.8885,17.8515 30.161,17.938 29.5225,18.2835 C28.8735,18.636 28.1725,18.8865 27.5485,19.2855 C26.6815,19.8585 25.65,20.097 24.7745,20.6545 C24.209,21.028 23.606,21.3325 23.0145,21.659 C22.033,22.277 20.9335,22.6695 19.936,23.259 C19.333,23.712 18.7075,24.1355 18.1345,24.6285 C17.6335,24.9835 17.0725,25.2535 16.6385,25.699 C16.2135,26.1325 15.5795,26.237 15.1475,26.6605 C14.762,27.0455 14.18,27.1475 13.8365,27.5795 C13.327,28.176 12.5975,28.5385 12.1465,29.192 C11.3965,30.321 10.595,31.4155 9.8835,32.572 C9.6935,32.914 9.2895,32.982 8.9355,32.987 C8.187,33 7.464,33.2125 6.747,33.4095 C7.203,32.536 7.802,31.753 8.438,31.009 C8.936,30.5125 9.457,30.041 9.94,29.529 C10.8655,28.68 11.8335,27.869 12.64,26.899 C13.228,26.3865 13.7845,25.8275 14.4475,25.4115 C14.6355,25.263 14.8855,25.3485 15.104,25.3365 C15.156,25.143 15.2045,24.9495 15.252,24.7565 C16.3055,24.204 17.3385,23.6115 18.4005,23.073 C19.8741198,22.1918408 21.3850209,21.3745829 22.929,20.6235 C23.9475,19.9775 25.1155,19.6485 26.1875,19.1105 C26.4055,18.764 26.822,18.677 27.144,18.4635 C27.7345,18.0895 28.4105,17.8915 29.048,17.6165 C29.695,17.5215 30.231,17.112 30.866,16.975 C31.6485,16.8335 32.37,16.43 33.176,16.408 L33.174,16.408 L33.174,16.408 Z M41.304,16.729 C41.9385,16.671 42.581,16.7565 43.198,16.899 C43.784,17.185 44.408,17.3755 44.991,17.669 C45.751,18.09 46.467,18.5865 47.2235,19.0165 C47.81,19.319 48.3205,19.7545 48.9435,19.9895 C49.91245,20.5803562 50.806577,21.2859544 51.6065,22.091 C51.89,22.334 52.2015,22.5435 52.461,22.814 C52.796,23.1735 53.241,23.4205 53.511,23.842 C52.981,23.7365 52.456,23.572 51.982,23.307 C51.656,23.0675 51.459,22.699 51.173,22.418 C50.758,21.961 50.19,21.701 49.7115,21.327 C49.3662661,21.0568261 48.9951211,20.8215108 48.6035,20.6245 C47.888,20.276 47.4005,19.5965 46.6795,19.2535 C45.991,18.9335 45.4345,18.3465 44.681,18.1755 C44.0975,18.042 43.551,17.785 42.966,17.6585 C42.6235,17.536 42.36,17.265 42.031,17.1155 C41.784,16.9935 41.499,16.9355 41.3035,16.7295 L41.3035,16.729 L41.304,16.729 Z M8.5875,33.7475 C8.7315,33.7525 8.8755,33.7645 9.021,33.774 C8.8045,34.147 8.589,34.5225 8.364,34.8925 C7.9975,35.4775 7.7935,36.1445 7.447,36.7415 C7.175,37.2035 7.132,37.753 6.923,38.2405 C6.796,38.5495 6.651,38.8605 6.634,39.2005 C6.5715,40.2695 6.768,41.328 6.882,42.3865 C7.0165,43.05 7.239,43.7 7.2465,44.3855 C7.2485,45.1565 7.6865,45.854 7.618,46.631 C7.577,47.421 7.799,48.2355 7.518,49 L7.5045,49.049 C7.3745,49.092 7.245,49.139 7.117,49.186 C6.86413796,49.1856712 6.61346211,49.2328213 6.378,49.325 C6.348,48.348 5.9265,47.4375 5.8865,46.4635 C5.7635,45.644 5.324,44.913 5.2425,44.084 C5.101,42.849 4.802,41.622 4.8675,40.371 C5.058,38.9405 5.1475,37.488 5.5365,36.0925 C5.71466606,35.5645826 5.92079066,35.0465172 6.154,34.5405 C6.2855,34.257 6.642,34.254 6.896,34.1555 C7.4625,34.0335 8.0165,33.8505 8.5875,33.7475 L8.5875,33.7475 Z" id="Shape"></path>
            </g>
            <g id="Group" transform="translate(17.000000, 10.500000)" fill="#4E4D3F" fill-rule="nonzero" stroke="#4E4D3F" stroke-width="0.91796875">
                <path d="M2.1155,0.5255 C2.536,0.4135 3.0105,0.193 3.4005,0.512 C2.6125,1.12 1.601,1.313 0.805,1.913 C0.696885131,1.72097746 0.592696811,1.52677043 0.4925,1.3305 C1.0705,1.1355 1.5205,0.6755 2.1155,0.526 L2.1155,0.5255 Z M5.429,4.4175 C5.695,5.183 6.194,5.8265 6.7145,6.431 C6.518,6.6815 6.31,6.923 6.0865,7.151 C5.9075,6.229 5.595,5.3405 5.429,4.4175 Z M50.235,28.153 C51.033,27.9445 51.88,28.0265 52.663,28.2535 C53.2465,28.598 53.924,28.7025 54.5255,29.0065 C55.272,29.295 55.7905,29.9555 56.509,30.2965 C56.819,30.4355 57.049,30.694 57.28,30.938 C57.7935,31.4945 58.3685,31.988 58.959,32.458 C59.245,32.677 59.419,33.001 59.62,33.2945 C59.9845,33.8505 60.3785,34.3875 60.7535,34.937 C61.1585,35.523 61.6485,36.0535 61.969,36.696 C62.218,37.156 62.3465,37.666 62.56,38.1415 C62.9475,38.9855 63.1805,39.89 63.4125,40.7875 C63.6185,41.5885 64.0105,42.3435 64.073,43.1795 C64.124,43.7835 64.3975,44.339 64.4565,44.942 C64.0815,44.5965 63.799,44.1635 63.605,43.692 C63.4015,43.187 62.965,42.842 62.686,42.3865 L62.4855,42.2705 C62.297,41.8455 61.909,41.568 61.6595,41.1855 C61.1575,40.416 60.406,39.8675 59.693,39.3135 C59.3445,38.978 58.9335,38.725 58.542,38.4475 C56.8095,37.0475 54.739,36.096 52.5735,35.622 C52.1075,35.528 51.6685,35.325 51.1955,35.268 C49.2555,35.068 47.2965,35.1215 45.364,35.3695 C44.538,35.4335 43.8705,35.9905 43.0815,36.1895 C42.2315,36.597 41.4465,37.1475 40.551,37.458 C39.482,38.008 38.471,38.6675 37.392,39.199 C36.839,39.4695 36.3485,39.8545 35.785,40.105 C35.4905,40.2365 35.2015,40.382 34.9295,40.5575 C34.151,41.0575 33.338,41.5005 32.5525,41.9905 C31.5165,42.6305 30.4025,43.1395 29.4135,43.8575 C28.9615,44.186 28.4585,44.4465 28.0525,44.839 C27.6425,45.2425 27.168,45.574 26.78,45.999 C26.3465,46.4735 25.741,46.777 25.423,47.3565 C25.22,46.0485 25.298,44.7085 25.58,43.419 C25.796,42.1655 25.99,40.9055 26.3625,39.6875 C26.391407,39.5943928 26.4413642,39.5091918 26.5085,39.4385 C27.2825,38.5325 28.2875,37.8675 29.046,36.9455 C29.1995,36.7565 29.3635,36.5755 29.535,36.403 C30.005,36.356 30.344,36.004 30.7265,35.765 C32.085,34.858 33.516,34.0445 35.0545,33.4915 C35.7545,33.1385 36.478,32.834 37.1665,32.4585 C38.3195,31.865 39.588,31.541 40.7225,30.9085 C41.2095,30.758 41.6475,30.4985 42.1045,30.2785 C43.0955,29.9495 44.1005,29.6435 45.028,29.1535 C45.935,28.816 46.855,28.476 47.825,28.3895 C48.617,28.1945 49.444,28.355 50.234,28.153 L50.2345,28.153 L50.235,28.153 Z M39.578,30.5485 C40.2865,30.387 40.889,29.937 41.6125,29.817 C41.1785,30.279 40.549,30.435 39.99,30.6845 C39.541,30.881 39.078,31.047 38.62,31.2205 C37.8645,31.5335 37.1635,31.9915 36.363,32.186 C36.9171072,31.7004745 37.5601568,31.3270744 38.2565,31.0865 C38.7045,30.9275 39.1165,30.674 39.578,30.5485 L39.578,30.5485 Z M27.171,59.229 C27.424,59.504 27.492,59.888 27.6735,60.208 C27.9655,60.733 28.2195,61.2815 28.5395,61.7915 C29.1505,62.6985 29.619,63.694 30.174,64.6365 C30.406,65.0065 30.409,65.461 30.551,65.8665 C30.707,66.349 30.949,66.83 30.9225,67.3505 C30.5125,68.25 29.4375,68.3335 28.5885,68.4425 C27.9805,68.4835 27.3505,68.6745 26.7525,68.482 C26.978,67.387 26.944,66.2575 27.1875,65.1675 C27.3245,63.9755 27.3285,62.774 27.3235,61.5765 C27.404,60.789 27.2705,60.0065 27.172,59.229 L27.171,59.229 L27.171,59.229 Z" id="Shape"></path>
            </g>
            <path d="M72.5465,11.6875 C72.7315,11.6315 72.793,11.9425 72.614,11.9845 C72.424,12.0455 72.36,11.7255 72.5465,11.6875 Z" id="Path" stroke="#040202" stroke-width="0.91796875" fill="#040202" opacity="0.28"></path>
            <g id="Group" transform="translate(20.000000, 25.500000)" fill="#D6D6C7" fill-rule="nonzero" stroke="#D6D6C7" stroke-width="0.91796875">
                <path d="M17.4085,0.4 C17.5135,0.2975 17.6575,0.291 17.795,0.301 C17.855,0.441 17.918,0.579 17.987,0.716 C17.2605,1.3025 16.373,1.63 15.5735,2.0975 C15.403,2.069 15.334,1.909 15.2695,1.7705 C16.041,1.414 16.7245,0.902 17.4085,0.4005 L17.4085,0.4 Z M19.647,1.953 C20.119,1.751 20.567,1.4955 20.972,1.1745 C21.687,1.135 22.3935,1.259 23.0995,1.351 C23.572,1.333 24.0545,1.34 24.5155,1.213 L24.3855,1.393 C23.893,1.599 23.4025,1.81 22.909,2.013 C22.6405,2.0795 22.3725,2.1565 22.114,2.2595 L22.0685,2.2295 L21.8185,2.07 C21.456,2.178 21.0985,2.3085 20.7245,2.363 C20.4225,2.413 20.1595,2.221 19.899,2.101 C19.269,2.5125 18.6755,2.979 18.0475,3.395 C17.3985,3.852 16.6815,4.209 16.0825,4.737 C15.5075,5.1745 14.9375,5.732 14.1775,5.769 L14.231,5.4805 C14.381,5.213 14.679,5.0965 14.9385,4.9685 C15.5915,4.7095 16.116,4.221 16.744,3.9135 C17.299,3.545 17.8985,3.242 18.4135,2.8125 C18.807,2.5005 19.2825,2.3045 19.648,1.9535 L19.647,1.9535 L19.647,1.953 Z M56.896,8.772 C57.4145,8.6605 57.951,8.6575 58.477,8.712 C59.2605,8.922 60.0345,9.174 60.815,9.3995 C61.278,9.503 61.5765,9.913 61.853,10.269 C61.6623802,10.2633159 61.4716385,10.2629824 61.281,10.268 C61.0375,9.958 60.639,10.013 60.296,10.0295 C60.0715,9.4545 59.24,9.4565 58.9125,9.928 C58.278,9.8875 57.641,9.833 57.0085,9.9165 C56.4745,9.984 55.8955,9.811 55.6075,9.3235 C55.9675,9.2205 56.338,9.1725 56.701,9.087 C56.771,8.9855 56.836,8.8805 56.895,8.7725 L56.896,8.772 L56.896,8.772 Z M5.0565,32.95 C5.43845223,32.834675 5.82553216,32.7370708 6.2165,32.6575 C6.2965,32.78 6.457,32.8875 6.4265,33.054 C6.1375,33.3485 5.813,33.6075 5.5465,33.9245 C5.1385,34.146 4.75,34.3995 4.4035,34.712 C4.1015,34.917 3.8265,35.163 3.626,35.4735 C3.2565,36.021 2.706,36.424 2.3975,37.0165 C2.0015,37.7555 1.509,38.5115 1.5745,39.393 C1.7645,39.451 1.954,39.513 2.1465,39.564 L1.818,39.528 C1.327,39.418 0.828,39.547 0.3345,39.576 C0.6585,38.8905 1.2335,38.347 1.4905,37.6295 C1.9165,37.2305 2.1055,36.6585 2.4695,36.21 C3.2225,35.133 4.038,34.083 5.032,33.221 L5.0565,32.951 L5.0565,32.95 L5.0565,32.95 Z" id="Shape"></path>
            </g>
            <g id="Group" transform="translate(21.500000, 26.000000)" fill="#C7C7B3" fill-rule="nonzero" stroke="#C7C7B3" stroke-width="0.91796875">
                <path d="M16.487,0.2155 C16.7895,0.516 16.919,0.9385 17.194,1.2605 C16.9879064,1.34375717 16.7966105,1.45975035 16.6275,1.604 C16.06,2.084 15.429,2.4805 14.7975,2.867 C14.643,2.3855 14.3375,1.99 13.9825,1.642 L14.0735,1.5975 C14.873,1.13 15.7605,0.8025 16.487,0.2155 L16.487,0.2155 Z M16.5475,2.895 C17.1755,2.4785 17.768,2.0125 18.3985,1.6005 C18.659,1.7205 18.9225,1.9125 19.224,1.8625 C19.598,1.808 19.9555,1.6775 20.318,1.5695 L20.568,1.729 C19.942,2.053 19.323,2.389 18.726,2.764 C18.4755,2.968 18.276,3.244 17.9725,3.3745 C17.532,3.5565 17.14,3.8365 16.7055,4.032 C16.1405,4.2855 15.7225,4.796 15.1245,4.982 C14.2405,5.394 13.3795,5.857 12.5165,6.311 C12.5735,5.866 12.5005,5.386 12.7305,4.9795 L12.6765,5.268 C13.4365,5.2305 14.0065,4.673 14.5815,4.236 C15.181,3.7075 15.898,3.351 16.5465,2.894 L16.5475,2.8945 L16.5475,2.895 Z M53.948,9.03 C53.857,8.9015 54.0285,8.878 54.108,8.8225 C54.3965,9.31 54.9755,9.4835 55.5095,9.416 C56.1415,9.3325 56.7795,9.387 57.4135,9.4275 C57.1405,10.1255 57.154,10.9395 57.497,11.61 C57.766,12.1525 58.1185,12.74 58.7215,12.945 C59.2105,13.097 59.7145,12.8635 60.118,12.5945 C60.383,12.3965 60.6775,12.124 60.6485,11.7595 C60.688,10.987 60.1245,10.3995 59.7815,9.768 C59.971,9.765 60.1615,9.7615 60.353,9.769 C60.9905,10.078 61.358,10.711 61.8615,11.1815 C62.502,11.8535 62.8965,12.7085 63.4415,13.453 C63.9475,14.357 64.348,15.315 64.761,16.2655 C65.125,17.123 65.424,18.013 65.581,18.935 C65.976,20.2035 66.1145,21.54 66.006,22.865 C65.7445,22.941 65.7945,23.203 65.825,23.412 L66.21,23.616 C66.0795,23.9635 65.95,24.312 65.802,24.6525 C65.427,25.0405 64.932,25.2665 64.493,25.567 C63.653,26.147 62.659,26.6095 61.6165,26.49 C61.663,25.6985 61.464,24.9295 61.1665,24.2035 C60.8425,23.4195 60.7635,22.561 60.4265,21.7835 C59.9795,20.6615 59.8175,19.437 59.253,18.3625 C58.9355,17.5595 58.7215,16.7155 58.363,15.9275 C58.0205,15.1765 57.868,14.3425 57.425,13.638 C57.081,13.1235 56.796,12.5675 56.399,12.092 C56.3895,11.931 56.3795,11.771 56.376,11.6115 C56.109,11.2715 55.8535,10.9215 55.576,10.592 C55.0435,10.062 54.441,9.603 53.9485,9.031 L53.9485,9.03 L53.948,9.03 Z M60.57,14.7265 C60.4937129,14.9129747 60.413192,15.0976892 60.3285,15.2805 C60.245,15.793 60.301,16.3065 60.4375,16.8035 C60.5375,17.5295 60.9895,18.1315 61.419,18.6975 C61.757,19.135 62.3585,19.1035 62.852,19.0855 C63.272,18.752 63.679,18.3755 63.894,17.8685 C63.709,17.1475 63.337,16.503 62.9815,15.859 C62.7325,15.4365 62.3355,15.108 61.8575,14.994 C61.58,14.552 61.001,14.492 60.57,14.7265 L60.57,14.7265 Z M63.1515,21.1115 C62.885,21.2015 62.7025,21.4525 62.546,21.676 C62.1225,22.4075 61.9835,23.329 62.2915,24.1315 C62.4335,24.7025 62.8685,25.372 63.535,25.285 C64.0385,25.3265 64.4635,25.005 64.851,24.7255 C65.3095,24.3665 65.278,23.715 65.2345,23.1905 C65.1275,22.762 65.3085,22.2205 64.908,21.909 C64.3965,21.5205 63.831,21.0535 63.151,21.111 L63.1515,21.111 L63.1515,21.1115 Z M4.677,32.109 C5.137,32.0845 5.5845,31.9655 6.042,31.91 C6.709,31.8545 7.381,31.8885 8.05,31.89 C8.906,31.922 9.7475,32.11 10.603,32.15 C11.3445,32.214 12.02,32.5665 12.6445,32.952 C13.6285,33.557 14.7365,33.938 15.6745,34.6195 C16.4835677,35.1407618 17.2272096,35.757162 17.8895,36.4555 C18.473,37.144 19.253,37.649 19.7295,38.4315 C20.2385,39.0795 20.5395,39.853 20.9295,40.5725 C21.141,41.0685 21.325,41.5775 21.501,42.0885 C21.7535,42.9025 21.9745,43.7335 22.0315,44.588 C22.0665,44.845 21.8705,45.043 21.7325,45.237 C21.2995,45.7685 20.8645,46.299 20.464,46.857 C20.0845,47.396 19.6165,47.866 19.2525,48.4175 L19.0725,48.361 C18.854,47.8485 18.2855,47.682 17.7975,47.556 C17.108,47.5195 16.4275,47.8 15.8965,48.232 C15.3065,48.819 15.298,49.6925 15.129,50.4555 L14.9935,50.763 C14.6015,50.885 14.195,50.9355 13.7985,51.0305 C12.9465,51.3045 12.0435,51.4005 11.1515,51.3655 L11.073,51.3855 C11.0625,50.7905 10.975,50.202 10.925,49.6115 C10.745,49.1335 10.709,48.6235 10.6025,48.1285 C10.4095,47.5015 10.2665,46.8515 9.934,46.28 C9.51584826,45.3823821 9.03342719,44.5161297 8.4905,43.688 C8.108,43.193 7.659,42.7545 7.2545,42.2775 C6.5695,41.3565 5.556,40.7805 4.605,40.1825 C4.01,39.8255 3.3225,39.6955 2.6865,39.4395 C2.0295,39.205 1.3315,39.161 0.647,39.064 C0.4545,39.0125 0.2645,38.9505 0.075,38.8925 C0.01,38.0115 0.502,37.255 0.898,36.516 C1.206,35.9235 1.7565,35.5205 2.1265,34.973 C2.3265,34.663 2.602,34.417 2.904,34.2115 C2.726,34.5975 2.8645,35.0395 2.704,35.4325 L2.924,35.5535 L2.9105,35.8165 C3.2545,36.252 3.679,36.6215 4.183,36.853 C4.958,37.31 5.886,37.5515 6.7765,37.3665 C7.0655,37.1795 7.4245,37.049 7.5855,36.7175 C7.7655,36.367 8.013,36.016 8.004,35.604 C8.01709205,35.1584313 7.92204819,34.716323 7.727,34.3155 C7.3695,33.834 6.772,33.647 6.2455,33.4235 C5.532,33.2 4.7685,33.3015 4.046,33.4245 C4.313,33.107 4.637,32.8485 4.926,32.5545 C4.957,32.3875 4.797,32.28 4.716,32.1575 L4.677,32.1095 L4.677,32.109 L4.677,32.109 Z M10.952,38.3525 C10.455,38.6925 10.292,39.302 10.3385,39.8815 C10.522,40.4675 10.764,41.0735 11.2555,41.4685 C11.3615,41.5455 11.3995,41.6735 11.457,41.789 C11.917,42.1075 12.14,42.6585 12.5765,43.005 C13.0215,43.3725 13.576,43.558 14.1125,43.746 C14.5619666,43.8807095 15.0491335,43.7734798 15.4005,43.4625 C15.9235,43.0945 16.1245,42.4645 16.348,41.8935 C16.361,41.271 16.4115,40.5825 16.041,40.0435 C15.642,39.4925 15.246,38.912 14.671,38.53 C13.591,37.823 12.0625,37.585 10.9515,38.3515 L10.9515,38.3525 L10.952,38.3525 Z" id="Shape"></path>
            </g>
            <path d="M44.515,26.713 C44.727,26.7515 44.5025,27.0595 44.385,26.893 L44.515,26.713 Z" id="Path" stroke="#221C1B" stroke-width="0.91796875" fill="#221C1B" opacity="0.78"></path>
            <path d="M82.548,35.2845 C82.6845,35.2245 82.7715,35.2705 82.8095,35.4195 L82.6975,35.462 C82.5495,35.4715 82.499,35.413 82.548,35.2845 L82.548,35.2845 Z" id="Path" stroke="#190E08" stroke-width="0.91796875" fill="#190E08" opacity="0.69"></path>
            <g id="Group" transform="translate(25.500000, 36.000000)" fill="#FC0101" fill-rule="nonzero" stroke="#FC0101" stroke-width="0.91796875">
                <path d="M53.9955,0.034 C54.7,0.57 55.144,1.356 55.6105,2.0915 C55.3825,2.1755 55.1055,2.3465 54.8735,2.1815 C54.136,1.7685 53.85,0.837 53.9955,0.034 Z M57.695,7.992 C57.2025,7.2655 56.7535,6.382 57.008,5.4795 C57.2665819,5.53540918 57.5162518,5.6265959 57.75,5.7505 L57.424,5.7575 C57.9765,6.5675 58.5305,7.4425 58.554,8.461 C58.254,8.339 57.914,8.247 57.695,7.991 L57.695,7.992 L57.695,7.992 Z M59.33,14.6955 C58.597,14.0425 58.5175,12.8145 59.1635,12.0765 C59.601,12.67 59.8745,13.4305 59.696,14.1715 C59.676,14.4015 59.4675,14.5375 59.33,14.6955 Z M0.042,25.821 C0.278,25.358 0.7165,25.0425 1.1135,24.728 C1.734,24.572 2.385,24.7185 3.01,24.8075 C3.3165,25.099 3.331,25.556 3.16,25.926 C3.068,26.3525 2.6815,26.6895 2.2495,26.711 C1.7395,26.754 1.255,26.5455 0.801,26.336 C0.53,26.1985 0.2245,26.0785 0.041,25.821 L0.042,25.821 L0.042,25.821 Z M7.4705,29.918 C7.9405,29.659 8.508,29.689 9.027,29.708 C10.084,29.844 10.8115,30.6995 11.5335027,31.401 C11.5345,32.0405 11.257,32.8475 10.591,33.0475 C9.721,32.9875 8.9315,32.4615 8.4335,31.7515 C8.2635,31.4785 7.9935,31.3055 7.6965,31.2015 L7.6595,30.96 C7.4185,30.705 6.9995,30.145 7.4695,29.917 L7.4705,29.918 Z M12.0005,39.51 C12.0855,39.117 12.3385,38.793 12.622,38.524 C13.2205,39.4775 13.377,40.6475 13.3055,41.757 C13.0955,41.941 12.8955,42.137 12.709,42.347 C11.987,42.438 11.449,41.5025 11.744,40.878 C11.9,40.436 11.8595,39.956 12.0005,39.51 L12.0005,39.51 Z" id="Shape"></path>
            </g>
            <g id="Group" transform="translate(80.000000, 36.000000)" fill="#97967C" fill-rule="nonzero" stroke="#97967C" stroke-width="0.91796875">
                <path d="M0.151,0.047 C0.3855,0.098 0.672,0.1045 0.826,0.3235 C1.061,0.6265 1.249,0.9655 1.411,1.3135 C0.955,0.93 0.5875,0.4545 0.151,0.047 L0.151,0.047 Z M2.5075,5.48 C2.556,5.38 2.6125,5.285 2.68,5.1975 C3.226,5.511 3.746,5.9175 4.025,6.5035 C4.2315,6.965 4.568,7.3665 4.692,7.8645 C4.353,7.4995 4.303,6.9645 3.9785,6.5875 C3.7305,6.3115 3.4785,6.04 3.2495,5.7505 C3.01575182,5.6265959 2.76608191,5.53540918 2.5075,5.4795 L2.5075,5.48 Z M5.406,12.005 C6.195,12.3335 6.251,13.347 6.0075,14.06 L5.8435,14.1365 C5.8415,13.7865 5.8655,13.434 5.816,13.0875 C5.7145,12.714 5.5235,12.3725 5.406,12.005 Z" id="Shape"></path>
            </g>
            <g id="Group" transform="translate(31.500000, 50.000000)" fill="#65655B" fill-rule="nonzero" stroke="#65655B" stroke-width="0.91796875">
                <path d="M51.166,0.203 C51.4635,0.929 51.663,1.698 51.616,2.4895 C52.658,2.6095 53.6525,2.1475 54.4925,1.5665 C54.931,1.266 55.4265,1.0405 55.8015,0.652 C55.7105,1.212 55.229,1.5705 55.019,2.0775 C54.495,3.225 53.6315,4.16 52.8205,5.1025 C52.409,5.377 52.0455,5.7105 51.6845,6.0475 C51.654,5.5115 51.724,4.9725 51.625,4.442 C51.487,3.661 51.621,2.867 51.5415,2.082 C51.5555,1.4295 51.229,0.8435 51.1665,0.203 L51.166,0.203 Z M11.501,18.0885 C12.0095,19.0415 12.107,20.1545 12.1545,21.217 C12.0135,22.1065 12.0655,23.007 12.0645,23.9045 C12.1155,24.913 11.8135,25.891 11.7655,26.8935 C11.736,27.4495 11.6405,28.0005 11.533,28.5465 C11.323,28.753 11.144,28.9915 10.9315,29.1955 C10.6415,29.386 10.2825,29.3915 9.9495,29.43 C9.4035,29.8825 8.714,30.079 8.052,30.282 C7.544,30.4085 7.0445,30.5785 6.526,30.6475 C5.5865,30.7855 4.633,30.791 3.6995,30.9655 C2.521,31.023 1.352,31.1845 0.1815,31.3255 C0.4855,30.448 0.7555,29.5525 0.911,28.634 C0.9885,28.2215 0.916,27.7795 1.073,27.385 L1.151,27.365 C2.043,27.4 2.946,27.304 3.7985,27.03 C4.1945,26.935 4.601,26.8845 4.993,26.7625 L5.1285,26.4545 C5.015,26.895 4.904,27.356 4.9885,27.813 C5.0955,28.4 5.541,28.935 6.1245,29.079 C6.6815,29.1775 7.2865,29.109 7.7735,28.805 C9.29,28.0105 9.8935,25.859 9.072,24.3605 L9.252,24.417 C9.617,23.8655 10.0845,23.396 10.464,22.857 C10.864,22.2985 11.2995,21.768 11.7325,21.2365 C11.8705,21.043 12.066,20.844 12.0315,20.5875 C11.974,19.733 11.753,18.9025 11.5015,18.0885 L11.501,18.0885 Z" id="Shape"></path>
            </g>
            <path d="M81.131,55.5355 L81.455,55.5475 C81.475,55.8305 81.5,56.115 81.542,56.3975 C81.3945,56.114 81.34,55.7835 81.131,55.5355 Z" id="Path" stroke="#090405" stroke-width="0.91796875" fill="#090405" opacity="0.56"></path>
            <path d="M41.557,58.078 C41.5895,57.6015 41.666,57.1285 41.684,56.6505 C41.6725,57.4315 41.829,58.2045 41.789,58.986 C41.6875,58.691 41.53,58.3995 41.557,58.078 Z" id="Path" stroke="#4B493B" stroke-width="0.91796875" fill="#4B493B"></path>
            <path d="M72.781,86.6575 L68.1315,88.9485 L68.09,71.5795 L63.98,76.0365 L62.2365,86.0325 L58.5005,88.1155 L59.912,60 L63.15,58.0835 L62.652,76.3275 C63.9525,74.2725 65.129,72.7315 66.1805,71.704 C66.5125,71.371 67.038,70.857 67.758,70.163 C68.6435,69.33 69.653,68.913 70.788,68.913 C71.978,68.913 72.684,69.191 72.905,69.7465 C73.265,70.69 73.445,72.1065 73.445,73.9945 C73.445,76.216 73.334,78.882 73.113,81.992 L72.7805,86.657 L72.781,86.6575 L72.781,86.6575 Z M83.6985,85.8245 C81.5955,85.8245 79.686,85.3525 77.97,84.4085 C75.867,83.2425 74.815,81.687 74.815,79.7435 C74.815,78.1335 75.6035,76.745 77.181,75.5785 C78.3985,74.6615 79.921,73.9675 81.7475,73.4955 C82.7165,73.2455 83.809,73.1205 85.0275,73.1205 C86.079,73.1205 87.3245,73.301 88.763,73.662 C89.483,73.773 90.161,74.037 90.7975,74.4535 C90.244,73.2875 89.22,72.26 87.7255,71.3715 C86.4805,70.6215 84.6675,69.969 82.2875,69.4135 C81.4575,69.2195 80.3085,68.997 78.842,68.747 L78.012,65.082 C78.261,65.082 78.939,65.2205 80.046,65.4985 C84.1145,66.526 87.297,68.011 89.594,69.955 C91.974,71.982 93.344,74.7315 93.704,78.2025 L93.704,85.8245 L91.711,85.5745 L91.6695,82.9925 C90.9909256,83.6413876 90.2219426,84.1885681 89.3865,84.617 C87.864,85.422 85.9685,85.825 83.699,85.825 L83.6985,85.8245 Z M85.027,78.9935 C84.086,79.2155 83.2975,79.5905 82.661,80.1185 C81.914,80.757 81.5405,81.5205 81.5405,82.4085 C81.5405,83.9085 82.6195,84.6585 84.7785,84.6585 C85.9135,84.6585 87.02,84.3665 88.0995,83.7835 C89.4,83.089 90.051,82.2145 90.051,81.1595 C90.051,81.0205 90.023,80.8395 89.9675,80.6175 C89.6635,79.424 88.5285,78.8265 86.5635,78.8265 L85.9405,78.8265 C85.83,78.8265 85.5255,78.882 85.0275,78.993 L85.0275,78.9935 L85.027,78.9935 Z M111.8855,82.8255 C110.529,83.714 108.357,84.4635 105.368,85.0745 C104.5655,85.241 103.1815,85.4775 101.2165,85.7825 L101.964,96.3205 L99.058,96.5705 L97.813,82.0755 L96.3595,81.9095 L95.4465,68.997 C97.024,68.386 98.3245,67.928 99.3485,67.6225 C102.5035,66.6785 105.2435,66.2065 107.568,66.2065 C113.2965,66.2065 116.161,68.525 116.161,73.1625 C116.161,77.7165 114.736,80.9375 111.8855,82.826 L111.8855,82.8255 Z M107.402,76.4105 C107.347,76.383 107.194,76.3695 106.945,76.3695 C106.17,76.3695 104.8835,76.4945 103.0845,76.7445 C102.448,76.828 101.5765,76.9665 100.4695,77.161 L101.0095,83.867 C101.452581,83.8462004 101.895303,83.8183635 102.3375,83.7835 C105.4925,83.5335 107.596,82.8115 108.6475,81.618 C109.2835,80.896 109.602,80.0765 109.602,79.16 C109.602,77.605 108.8685,76.6885 107.402,76.411 L107.402,76.4105 Z M121.682,63.832 C120.7135,63.832 119.8835,63.6095 119.192,63.165 C118.3335,62.638 117.9045,61.93 117.9045,61.041 C117.9045,60.3465 118.389,59.736 119.3575,59.2085 C120.2155,58.764 121.018,58.542 121.765,58.542 C122.6785,58.542 123.509,58.736 124.256,59.125 C125.169,59.597 125.626,60.2495 125.626,61.0825 C125.626,61.999 125.183,62.7075 124.2975,63.2065 C123.5505,63.6235 122.6785,63.8315 121.6825,63.8315 L121.682,63.832 Z M119.648,86.032 L119.8555,74.1195 L126.248,73.703 L127.9505,86.324 L119.648,86.0325 L119.648,86.032 Z" id="Shape" fill="#0A0203" fill-rule="nonzero"></path>
        </g>
    </g>
</svg>