<svg xmlns="http://www.w3.org/2000/svg" xmlns:xlink="http://www.w3.org/1999/xlink" viewBox="0 0 58 65" fill="#fff" fill-rule="evenodd" stroke="#000" stroke-linecap="round" stroke-linejoin="round"><use xlink:href="#A" x=".5" y=".5"/><symbol id="A" overflow="visible"><g stroke="none" fill-rule="nonzero"><path d="M41.781 38.983V25.017l-12.05 6.996 12.05 6.97" fill="#00445e"/><path d="M40.998 23.652l-12.065-6.976v13.972l12.065-6.996m-13.633 6.996V16.676L15.29 23.652l12.075 6.996m-.782-15.312l-12.06-7.02v14l12.06-6.97" fill="#00aede"/><path d="M40.998 40.328l-12.065-6.97v13.967l12.065-6.996m-13.633 6.995V33.357l-12.075 6.97 12.075 6.996" fill="#00445e"/><path d="M55.432 32.012l-12.085-6.996v13.967l12.085-6.97m-42.48-9.706V8.316L.798 15.336l12.154 6.97" fill="#00aede"/><path d="M26.583 48.67l-12.06-6.996V55.66l12.06-7" fill="#00445e"/><path d="M12.951 55.66V41.673L.798 48.67l12.154 7" fill="#00aede"/><path d="M26.583 32.012l-12.06-6.996v13.967l12.06-6.97" fill="#00445e"/><path d="M41.781 22.307V8.316l-12.05 7.02 12.05 6.97" fill="#00aede"/><path d="M28.933 0v13.967l12.065-7L28.933 0M15.291 6.976l12.075 7V0L15.291 6.976m25.707 50.028l-12.065-6.97v13.962l12.065-7M27.365 64V50.033l-12.075 6.97L27.365 64" fill="#00445e"/><path d="M56.211 47.324V33.357l-12.05 6.97 12.05 6.996m-43.26-8.34v-14L.797 32.003l12.154 6.97m-.778 1.355L0 33.358v13.967l12.173-7.005m44.038-9.68V16.676l-12.05 6.976 12.05 6.996m-.78-15.312l-12.086-7.02v14l12.085-6.97m0 33.334l-12.085-6.996V55.66l12.085-7" fill="#00aede"/><path d="M41.781 55.66V41.673l-12.05 6.996 12.05 7" fill="#00445e"/><path d="M12.173 23.652L0 16.676v13.972l12.173-6.996" fill="#00aede"/></g></symbol></svg>