<?xml version="1.0" encoding="UTF-8" standalone="no"?>
<!DOCTYPE svg PUBLIC "-//W3C//DTD SVG 1.1//EN" "http://www.w3.org/Graphics/SVG/1.1/DTD/svg11.dtd">
<!-- Created with Vectornator (http://vectornator.io/) -->
<svg height="18.0pt" stroke-miterlimit="10" style="fill-rule:nonzero;clip-rule:evenodd;stroke-linecap:round;stroke-linejoin:round;" version="1.1" viewBox="0 0 18 18" width="18.0pt" xml:space="preserve" xmlns="http://www.w3.org/2000/svg" xmlns:xlink="http://www.w3.org/1999/xlink">
<defs>
<path d="M0.5 5.78125L0.5 15.2812C0.5 15.5949 0.748802 15.8438 1.0625 15.8438L16.9375 15.8438C17.2512 15.8438 17.5 15.5949 17.5 15.2812L17.5 5.78125L0.5 5.78125ZM9.625 7.0625L15.3438 7.0625C15.5 7.0625 15.625 7.18745 15.625 7.34375L15.625 10.1875C15.625 10.3438 15.5 10.4688 15.3438 10.4688L9.625 10.4688C9.4687 10.4688 9.34375 10.3438 9.34375 10.1875L9.34375 7.34375C9.34375 7.18745 9.4687 7.0625 9.625 7.0625Z" id="Fill"/>
</defs>
<g id="Untitled">
<path d="M1.071 2.166L16.929 2.166C17.2427 2.166 17.497 2.4203 17.497 2.734L17.497 5.788L0.5 5.788L0.5 2.734C0.499998 2.58284 0.560252 2.43791 0.667423 2.3313C0.774593 2.22469 0.919838 2.1652 1.071 2.166Z" fill="#000000" fill-rule="nonzero" opacity="1" stroke="none"/>
<g opacity="1">
<mask height="10.0625" id="StrokeMask" maskUnits="userSpaceOnUse" width="17" x="0.5" y="5.78125">
<rect fill="#000000" height="10.0625" stroke="none" width="17" x="0.5" y="5.78125"/>
<use fill="#ffffff" fill-rule="evenodd" stroke="none" xlink:href="#Fill"/>
</mask>
<use fill="none" mask="url(#StrokeMask)" stroke="#000000" stroke-linecap="butt" stroke-linejoin="round" stroke-width="1" xlink:href="#Fill"/>
</g>
<path d="M2.611 7.049L8.326 7.049C8.4823 7.049 8.609 7.1757 8.609 7.332L8.609 10.174C8.609 10.3303 8.4823 10.457 8.326 10.457L2.611 10.457C2.4547 10.457 2.328 10.3303 2.328 10.174L2.328 7.332C2.328 7.1757 2.4547 7.049 2.611 7.049Z" fill="#000000" fill-rule="nonzero" opacity="1" stroke="none"/>
<path d="M2.579 11.128L8.294 11.128C8.4503 11.128 8.577 11.2547 8.577 11.411L8.577 14.253C8.577 14.4093 8.4503 14.536 8.294 14.536L2.579 14.536C2.4227 14.536 2.296 14.4093 2.296 14.253L2.296 11.411C2.296 11.2547 2.4227 11.128 2.579 11.128Z" fill="#000000" fill-rule="nonzero" opacity="1" stroke="none"/>
<path d="M9.587 11.128L15.302 11.128C15.4583 11.128 15.585 11.2547 15.585 11.411L15.585 14.253C15.585 14.4093 15.4583 14.536 15.302 14.536L9.587 14.536C9.4307 14.536 9.304 14.4093 9.304 14.253L9.304 11.411C9.304 11.2547 9.4307 11.128 9.587 11.128Z" fill="#000000" fill-rule="nonzero" opacity="1" stroke="none"/>
</g>
</svg>
