<?xml version="1.0" encoding="UTF-8" standalone="no"?>
<!DOCTYPE svg PUBLIC "-//W3C//DTD SVG 1.1//EN" "http://www.w3.org/Graphics/SVG/1.1/DTD/svg11.dtd">
<!-- Created with Vectornator (http://vectornator.io/) -->
<svg height="204.8000030517578px" stroke-miterlimit="10" style="fill-rule:nonzero;clip-rule:evenodd;stroke-linecap:round;stroke-linejoin:round;" version="1.1" viewBox="0 0 204.8 204.8" width="204.8000030517578px" xml:space="preserve" xmlns="http://www.w3.org/2000/svg" xmlns:xlink="http://www.w3.org/1999/xlink">
<defs/>
<g id="Untitled">
<g opacity="1">
<g/>
<path d="M102.406 2.8125C71.2962 2.81251 43.5442 17.0954 25.2812 39.4375L114.969 39.4375L109.125 45.8437L20.4687 45.8437C16.7304 51.2486 13.4992 57.0171 10.875 63.125L83.9062 63.125L78 69.5312L8.46875 69.5312C5.80916 77.1306 3.99285 85.1232 3.25 93.4375L89.5312 93.4375L83.5938 99.8437L2.9375 99.8437C2.91559 100.703 2.8125 101.541 2.8125 102.406C2.8125 107.334 3.30541 112.143 4 116.875L61.2812 116.875L55.375 123.281L5.03125 123.281C9.47498 143.991 20.3768 162.28 35.5 176.031C40.1462 169.272 47.9501 164.812 56.7187 164.812C61.5188 164.812 66.0037 166.166 69.8437 168.406C77.5237 158.886 89.605 152.719 103.125 152.719C116.885 152.719 129.039 158.959 136.719 168.719C140.479 166.559 144.798 165.375 149.438 165.375C157.79 165.375 165.182 169.321 169.906 175.5C189.599 157.305 202 131.335 202 102.406C202 47.3987 157.414 2.8125 102.406 2.8125ZM169.031 54.9687C174.731 54.9687 179.375 59.5817 179.375 65.2812C179.375 70.9808 174.731 75.5938 169.031 75.5937C163.332 75.5937 158.719 70.9808 158.719 65.2812C158.719 59.5817 163.332 54.9687 169.031 54.9687ZM142.188 58.5312C144.231 58.415 145.338 59.29 147.438 61.75L169.75 90.7187L175.594 81.1875C178.634 78.0675 181.131 77.99 183.531 79.75C184.251 80.15 187.031 82.485 185.031 87.125L174.812 104.094C174.812 104.094 172.946 106.869 169.906 106.469C167.586 106.389 165.586 103.52 165.906 104L157.438 92.625L139.688 105.594L156.25 118.812C157.93 120.013 158.312 121.375 158.312 121.375C159.672 125.695 156.494 128.412 154.094 128.812L126.312 135.438C122.952 135.997 119.837 133.509 119.438 130.469C119.117 128.069 120.145 125.686 122.625 124.406L139.906 120.312L125.438 108.875L86.5625 139.594C83.9225 141.354 80.4025 141.039 78.5625 138.719C76.7225 136.399 76.87 132.789 79.75 130.469L146.25 78.625L140.406 70.5625L126.719 74.7187C120.959 76.1588 119.585 73.85 118.625 72.25C117.345 70.17 117.929 65.4462 120.969 64.4062L139.75 58.9687C140.71 58.7288 141.506 58.57 142.188 58.5312Z" fill="#000000" fill-rule="nonzero" opacity="1" stroke="none"/>
</g>
</g>
</svg>
