<?xml version="1.0" encoding="UTF-8" standalone="no"?>
<!-- Created with Inkscape (http://www.inkscape.org/) -->

<svg
   xmlns:dc="http://purl.org/dc/elements/1.1/"
   xmlns:cc="http://creativecommons.org/ns#"
   xmlns:rdf="http://www.w3.org/1999/02/22-rdf-syntax-ns#"
   xmlns:svg="http://www.w3.org/2000/svg"
   xmlns="http://www.w3.org/2000/svg"
   xmlns:sodipodi="http://sodipodi.sourceforge.net/DTD/sodipodi-0.dtd"
   xmlns:inkscape="http://www.inkscape.org/namespaces/inkscape"
   width="67.116402mm"
   height="46.002144mm"
   viewBox="0 0 67.116402 46.002144"
   version="1.1"
   id="svg3394"
   inkscape:version="0.92.3 (2405546, 2018-03-11)"
   sodipodi:docname="servicecomb-1.svg">
  <defs
     id="defs3388" />
  <sodipodi:namedview
     id="base"
     pagecolor="#ffffff"
     bordercolor="#666666"
     borderopacity="1.0"
     inkscape:pageopacity="0.0"
     inkscape:pageshadow="2"
     inkscape:zoom="3.959798"
     inkscape:cx="146.10174"
     inkscape:cy="75.096176"
     inkscape:document-units="mm"
     inkscape:current-layer="g3965"
     showgrid="false"
     fit-margin-top="0"
     fit-margin-left="0"
     fit-margin-right="0"
     fit-margin-bottom="0"
     inkscape:window-width="3726"
     inkscape:window-height="2049"
     inkscape:window-x="114"
     inkscape:window-y="55"
     inkscape:window-maximized="1"
     inkscape:snap-global="false" />
  <metadata
     id="metadata3391">
    <rdf:RDF>
      <cc:Work
         rdf:about="">
        <dc:format>image/svg+xml</dc:format>
        <dc:type
           rdf:resource="http://purl.org/dc/dcmitype/StillImage" />
        <dc:title></dc:title>
      </cc:Work>
    </rdf:RDF>
  </metadata>
  <g
     inkscape:label="Layer 1"
     inkscape:groupmode="layer"
     id="layer1"
     transform="translate(147.01685,-47.291716)">
    <g
       id="g3965"
       transform="translate(-88.06531,-41.426776)">
      <path
         style="fill:#3ea1d1;stroke-width:0.26458335"
         d="m -47.064079,134.57053 c -5.16548,-1.06477 -9.35415,-4.68692 -11.1683,-9.65779 -0.72913,-1.99787 -0.77267,-2.33418 -0.68763,-5.31101 0.0793,-2.77606 0.18732,-3.41236 0.85391,-5.03016 0.41971,-1.01865 0.84639,-1.91162 0.94817,-1.98438 0.10178,-0.0728 0.33532,-0.41736 0.51898,-0.76578 1.5462,-2.93322 6.42476,-5.94513 10.53556,-6.50441 1.32865,-0.18076 1.44195,-0.25953 2.2978,-1.59743 1.02901,-1.6086 1.78654,-2.55239 2.91922,-3.63699 1.28198,-1.227548 3.85796,-3.105798 4.25955,-3.105798 0.29861,0 0.37066,0.66137 0.37066,3.402328 v 3.40233 l -1.0335,1.17412 c -1.31421,1.49302 -2.46994,3.45111 -3.02691,5.12832 l -0.43593,1.31269 h -3.10964 c -3.02956,0 -3.14812,0.0222 -4.60358,0.86363 -6.40257,3.70125 -6.23624,12.31926 0.30331,15.71588 l 1.19063,0.61841 18.599226,0.073 c 13.886934,0.0545 18.881024,-0.008 19.711459,-0.24518 5.255746,-2.13725 7.578395,-8.72844 7.41199,-11.77923 -0.112294,-1.45805 -0.06623,-1.66449 0.43074003,-1.93046 L 3.645494,112.6549 c 0.381431,0.61717 0.866127,3.6116 0.874895,5.40509 0.03512,7.1823 -4.34898797,13.33233 -11.310038,15.86573 0,0 -14.136247,0.77317 -20.695252,0.78942 -10.259218,0.0254 -19.069838,-0.0397 -19.579168,-0.14465 z"
         id="path3971"
         inkscape:connector-curvature="0"
         sodipodi:nodetypes="cccccccccssccccscscsccccccccc" />
      <path
         style="fill:#267cb2;stroke-width:0.26458335"
         d="m -48.085369,133.87439 c -3.4489,-1.3268 -5.58635,-3.51584 -7.1791,-7.35236 -1.01181,-2.4372 -0.63774,-6.35172 0.8858,-9.26963 0.59926,-1.14771 3.054763,-3.71416 4.470319,-4.45982 1.304413,-0.68711 2.707144,-1.38533 0.11127,0.41439 -1.68515,1.79887 -2.881611,3.20623 -3.248791,5.20232 -0.8645,4.69961 2.290584,9.08876 6.627928,10.23785 0,0 34.624437,0.16156 37.796849,-0.22483 3.954712,-0.48169 7.359478,-2.47302 9.866776,-5.94251 0.938098,-1.2981 2.214795,-5.05394 2.403869,-7.07181 0.157072,-1.67634 -0.167113,-3.2549 0.046056,-2.55264 0.7817886,1.26456 1.1416436,7.24004 0.384654,9.33551 -1.244756,4.73175 -4.64146604,9.11302 -9.202507,11.04333 -2.916383,1.23427 -3.6895101,1.31418 -23.013566,1.3005 l -18.26681,-0.0129 z m 7.282889,-23.26947 c -0.0955,-0.35716 -0.1753,-1.64858 -0.17729,-2.86982 -0.004,-2.40331 0.64903,-5.11337 1.66938,-6.92884 0.70653,-1.257096 2.465629,-3.753887 2.744109,-3.753887 0.11201,0 0.345401,0.321008 0.345401,3.356557 v 3.28568 l -1.1894,1.39341 c -1.33,1.55814 -2.10347,2.91441 -2.76904,4.85544 -0.40327,1.1761 -0.46733,1.2441 -0.62316,0.66146 z"
         id="path3967"
         inkscape:connector-curvature="0"
         sodipodi:nodetypes="cccsccscsscccccccccsscccc" />
      <g
         id="g4074"
         transform="translate(-0.06681715,-0.33408687)">
        <path
           inkscape:transform-center-y="-1.0645999e-06"
           d="m -23.575693,102.21634 -4.543312,2.62309 -4.543312,-2.62309 0,-5.246161 4.543312,-2.623082 4.543312,2.623082 z"
           inkscape:randomized="0"
           inkscape:rounded="0"
           inkscape:flatsided="true"
           sodipodi:arg2="1.0471976"
           sodipodi:arg1="0.52359878"
           sodipodi:r2="4.5433125"
           sodipodi:r1="5.2461648"
           sodipodi:cy="99.593262"
           sodipodi:cx="-28.119005"
           sodipodi:sides="6"
           id="path3977"
           style="opacity:1;fill:#f19c01;fill-opacity:1;stroke:#f6cd0d;stroke-width:2.50169516;stroke-linecap:round;stroke-linejoin:miter;stroke-miterlimit:4;stroke-dasharray:none;stroke-opacity:1"
           sodipodi:type="star" />
        <path
           inkscape:transform-center-y="7.2642877e-06"
           d="m -10.661436,105.93549 -3.757421,2.16935 -3.75742,-2.16935 0,-4.33869 3.75742,-2.169352 3.757421,2.169352 z"
           inkscape:randomized="0"
           inkscape:rounded="0"
           inkscape:flatsided="true"
           sodipodi:arg2="1.0471976"
           sodipodi:arg1="0.52359878"
           sodipodi:r2="3.7574205"
           sodipodi:r1="4.3386955"
           sodipodi:cy="103.76614"
           sodipodi:cx="-14.418857"
           sodipodi:sides="6"
           id="path3977-8"
           style="opacity:1;fill:#f19c01;fill-opacity:1;stroke:#f6cd0d;stroke-width:2.06895757;stroke-linecap:round;stroke-linejoin:miter;stroke-miterlimit:4;stroke-dasharray:none;stroke-opacity:1"
           sodipodi:type="star" />
        <path
           inkscape:transform-center-y="4.9351784e-06"
           d="m 0.55982803,109.96316 -3.12870673,1.80636 -3.1287066,-1.80636 0,-3.61272 3.1287067,-1.80636 3.12870665,1.80636 z"
           inkscape:randomized="0"
           inkscape:rounded="0"
           inkscape:flatsided="true"
           sodipodi:arg2="1.0471976"
           sodipodi:arg1="0.52359878"
           sodipodi:r2="3.1287069"
           sodipodi:r1="3.6127193"
           sodipodi:cy="108.1568"
           sodipodi:cx="-2.5688787"
           sodipodi:sides="6"
           id="path3977-8-7"
           style="opacity:1;fill:#f19c01;fill-opacity:1;stroke:#f6cd0d;stroke-width:1.72276747;stroke-linecap:round;stroke-linejoin:miter;stroke-miterlimit:4;stroke-dasharray:none;stroke-opacity:1"
           sodipodi:type="star" />
        <path
           d="m -15.751953,93.801551 -2.316618,1.3375 -2.316618,-1.337501 0,-2.675 2.316618,-1.3375 2.316618,1.3375 z"
           inkscape:randomized="0"
           inkscape:rounded="0"
           inkscape:flatsided="true"
           sodipodi:arg2="1.0471976"
           sodipodi:arg1="0.52359878"
           sodipodi:r2="2.3166184"
           sodipodi:r1="2.6750004"
           sodipodi:cy="92.46405"
           sodipodi:cx="-18.068571"
           sodipodi:sides="6"
           id="path3977-8-7-9"
           style="opacity:1;fill:#f19c01;fill-opacity:1;stroke:#f6cd0d;stroke-width:1.27560532;stroke-linecap:round;stroke-linejoin:miter;stroke-miterlimit:4;stroke-dasharray:none;stroke-opacity:1"
           sodipodi:type="star" />
        <path
           d="m -4.8600036,98.03414 -2.3166183,1.3375 -2.3166183,-1.3375 0,-2.675 2.3166183,-1.3375 2.3166183,1.3375 z"
           inkscape:randomized="0"
           inkscape:rounded="0"
           inkscape:flatsided="true"
           sodipodi:arg2="1.0471976"
           sodipodi:arg1="0.52359878"
           sodipodi:r2="2.3166184"
           sodipodi:r1="2.6750004"
           sodipodi:cy="96.69664"
           sodipodi:cx="-7.1766219"
           sodipodi:sides="6"
           id="path3977-8-7-9-2"
           style="opacity:1;fill:#f19c01;fill-opacity:1;stroke:#f6cd0d;stroke-width:1.27560532;stroke-linecap:round;stroke-linejoin:miter;stroke-miterlimit:4;stroke-dasharray:none;stroke-opacity:1"
           sodipodi:type="star" />
        <path
           d="m 4.9295796,101.38571 -2.3166183,1.3375 -2.31661834,-1.3375 10e-9,-2.675 2.31661833,-1.3375 2.3166183,1.3375 z"
           inkscape:randomized="0"
           inkscape:rounded="0"
           inkscape:flatsided="true"
           sodipodi:arg2="1.0471976"
           sodipodi:arg1="0.52359878"
           sodipodi:r2="2.3166184"
           sodipodi:r1="2.6750004"
           sodipodi:cy="100.04821"
           sodipodi:cx="2.6129613"
           sodipodi:sides="6"
           id="path3977-8-7-9-0"
           style="opacity:1;fill:#f19c01;fill-opacity:1;stroke:#f6cd0d;stroke-width:1.27560532;stroke-linecap:round;stroke-linejoin:miter;stroke-miterlimit:4;stroke-dasharray:none;stroke-opacity:1"
           sodipodi:type="star" />
        <path
           d="m 7.8318822,95.196004 -1.4521372,0.838392 -1.4521372,-0.838392 0,-1.676783 1.4521372,-0.838392 1.4521372,0.838392 z"
           inkscape:randomized="0"
           inkscape:rounded="0"
           inkscape:flatsided="true"
           sodipodi:arg2="1.0471976"
           sodipodi:arg1="0.52359878"
           sodipodi:r2="1.4521374"
           sodipodi:r1="1.6767836"
           sodipodi:cy="94.357613"
           sodipodi:cx="6.379745"
           sodipodi:sides="6"
           id="path3977-8-7-9-23"
           style="opacity:1;fill:#f19c01;fill-opacity:1;stroke:#f6cd0d;stroke-width:0.79959393;stroke-linecap:round;stroke-linejoin:miter;stroke-miterlimit:4;stroke-dasharray:none;stroke-opacity:1"
           sodipodi:type="star" />
        <path
           d="m -1.0333876,92.320158 -1.4521373,0.838391 -1.4521373,-0.838391 0,-1.676784 1.4521373,-0.838392 1.4521373,0.838392 z"
           inkscape:randomized="0"
           inkscape:rounded="0"
           inkscape:flatsided="true"
           sodipodi:arg2="1.0471976"
           sodipodi:arg1="0.52359878"
           sodipodi:r2="1.4521374"
           sodipodi:r1="1.6767837"
           sodipodi:cy="91.481766"
           sodipodi:cx="-2.4855249"
           sodipodi:sides="6"
           id="path3977-8-7-9-23-7"
           style="opacity:1;fill:#f19c01;fill-opacity:1;stroke:#f6cd0d;stroke-width:0.79959393;stroke-linecap:round;stroke-linejoin:miter;stroke-miterlimit:4;stroke-dasharray:none;stroke-opacity:1"
           sodipodi:type="star" />
      </g>
      <path
         style="opacity:1;fill:#74beed;fill-opacity:1;stroke:none;stroke-width:0.71585613;stroke-linecap:round;stroke-linejoin:miter;stroke-miterlimit:4;stroke-dasharray:none;stroke-opacity:1"
         d="m 236.53757,90.488744 c -4.64067,2.085712 -9.23384,4.279082 -13.84082,6.439326 -1.17192,0.581947 -2.39281,1.078459 -3.52857,1.72643 -0.86768,0.552615 -1.09227,1.63863 -1.11166,2.59666 -0.0832,2.30194 0.2946,4.59707 0.12666,6.89976 -0.2413,4.84049 -1.52789,9.57499 -3.20779,14.10322 -2.50453,6.57287 -6.11655,12.77106 -10.89427,17.95037 -2.13499,2.27959 -4.45416,4.39697 -7.05131,6.13946 -2.05198,1.42302 -4.26123,2.60428 -6.54839,3.60037 -0.0919,0.19422 0.26379,0.0805 0.37017,0.0797 7.6397,-1.02654 15.09181,-3.63787 21.5671,-7.84393 5.9239,-3.80328 10.99489,-8.85386 15.11504,-14.54358 2.11938,-3.12254 3.5251,-6.65713 4.85031,-10.171 1.67061,-4.62156 3.08365,-9.35421 3.93952,-14.1985 0.69448,-4.034135 0.51025,-8.147655 0.22917,-12.210845 -0.0255,-0.183941 0.0166,-0.36848 0.0566,-0.533314 -0.0128,-0.02601 -0.0437,-0.03972 -0.0718,-0.03416 z"
         id="path4110"
         inkscape:connector-curvature="0"
         transform="matrix(0.26458333,0,0,0.26458333,-58.95154,88.718492)" />
    </g>
  </g>
</svg>
