<?xml version="1.0" encoding="UTF-8" standalone="no"?>
<!DOCTYPE svg PUBLIC "-//W3C//DTD SVG 1.1//EN" "http://www.w3.org/Graphics/SVG/1.1/DTD/svg11.dtd">
<!-- Created with Vectornator (http://vectornator.io/) -->
<svg height="1280.0px" stroke-miterlimit="10" style="fill-rule:nonzero;clip-rule:evenodd;stroke-linecap:round;stroke-linejoin:round;" version="1.1" viewBox="0 0 1280 1280" width="1280.0px" xml:space="preserve" xmlns="http://www.w3.org/2000/svg" xmlns:xlink="http://www.w3.org/1999/xlink">
<defs/>
<clipPath id="ArtboardFrame">
<rect height="1280" width="1280" x="0" y="0"/>
</clipPath>
<g clip-path="url(#ArtboardFrame)" id="SVGRepo_iconCarrier">
<path d="M1201.16 310.443L1200.65 307.923C1200.15 305.57 1199.48 303.386 1198.47 301.033C1198.3 300.529 1198.13 299.857 1197.8 299.353C1196.62 296.664 1195.28 294.312 1193.76 291.959L1192.42 290.111C1191.08 288.263 1189.73 286.582 1188.05 284.902C1187.55 284.398 1187.04 283.726 1186.54 283.222C1184.52 281.205 1182.34 279.357 1179.99 277.676C1179.65 277.508 1179.15 277.172 1178.81 277.004C1177.3 275.996 1175.79 274.988 1174.1 274.148L636.396 5.29308C622.113-1.76436 605.477-1.76436 591.363 5.29308L53.6533 274.148C51.973 274.988 50.4607 275.996 48.9484 277.004C48.6123 277.172 48.1082 277.508 47.7722 277.676C45.4197 279.357 43.2352 281.205 41.2188 283.222C40.7147 283.726 40.2106 284.23 39.7065 284.902C38.1942 286.582 36.6819 288.263 35.3376 290.111L33.9934 291.959C32.481 294.312 31.1368 296.832 29.9605 299.353C29.7925 299.857 29.6245 300.529 29.2884 301.033C28.4482 303.218 27.7761 305.57 27.104 307.923L26.5999 310.443C26.0958 313.468 25.7597 316.492 25.7597 319.517L25.7597 960.735C25.7597 979.891 36.5139 997.199 53.6533 1005.77L591.363 1274.62C591.699 1274.79 592.203 1274.96 592.707 1275.13C595.059 1276.3 597.748 1277.14 600.268 1277.82C601.277 1278.15 602.117 1278.49 603.125 1278.66C606.654 1279.5 610.35 1280 614.047 1280C617.744 1280 621.441 1279.5 624.969 1278.66C625.978 1278.49 626.818 1277.98 627.826 1277.82C630.515 1277.14 633.035 1276.14 635.388 1275.13C635.724 1274.96 636.228 1274.79 636.732 1274.62L1174.44 1005.77C1191.51 997.246 1202.31 979.815 1202.33 960.735L1202.33 319.517C1202 316.492 1201.66 313.468 1201.16 310.443ZM613.879 106.954L1038.84 319.517L884.918 396.477L636.06 274.316C635.724 274.148 635.219 274.148 634.883 273.98C632.699 272.971 630.346 272.131 627.994 271.459C626.986 271.123 625.978 270.787 624.801 270.451C622.251 269.939 619.668 269.602 617.072 269.443C616.064 269.443 615.055 269.107 614.047 269.107L613.711 269.107C606.486 269.107 599.596 270.619 593.379 273.476C593.211 273.476 593.043 273.644 592.875 273.644L333.43 391.772L188.921 319.517L613.879 106.954ZM613.879 852.521L439.964 765.648L613.375 668.188L783.93 767.496L613.879 852.521ZM834.844 484.19L834.844 680.622L664.289 581.146L664.289 400.509L834.844 484.19ZM563.469 580.642L382.832 682.135L382.832 480.158L563.469 397.821L563.469 580.642ZM126.58 640.126L126.58 401.013L282.012 478.813L282.012 768.168C282.012 769.008 282.18 769.848 282.348 770.857L282.852 776.234L283.86 781.107C284.196 782.619 284.7 784.131 285.204 785.644C285.877 787.324 286.549 789.004 287.389 790.685C287.725 791.525 288.061 792.197 288.397 793.037C288.565 793.541 289.069 793.709 289.237 794.213C291.254 797.742 293.606 800.935 296.463 803.791L296.967 804.295C300.564 807.768 304.638 810.71 309.065 813.033C309.737 813.369 310.241 813.705 310.914 814.041C311.418 814.209 311.754 814.545 312.09 814.882L563.469 940.067L563.469 1147.93L126.58 929.481C126.58 929.481 126.58 640.126 126.58 640.126ZM1101.18 929.481L664.289 1147.93L664.289 940.067L907.771 818.41C925.976 809.313 936.916 790.151 935.496 769.848C935.496 769.344 935.665 768.84 935.665 768.336L935.665 483.854L1101.18 401.013L1101.18 929.481Z" fill="#0c644d" fill-rule="nonzero" opacity="1" stroke="none"/>
</g>
</svg>
