<?xml version="1.0" encoding="UTF-8"?>
<svg width="32px" height="32px" viewBox="0 0 32 32" version="1.1" xmlns="http://www.w3.org/2000/svg" xmlns:xlink="http://www.w3.org/1999/xlink">
    <title>oracleforms-original</title>
    <g id="oracleforms-original" stroke="none" stroke-width="1" fill="none" fill-rule="evenodd">
        <path d="M20.5084584,7 C21.7151583,7 22.8105299,7.47817824 23.6173348,8.25440617 C24.4244871,9.03096832 24.9434089,10.1058105 24.9956318,11.2998972 C24.9926661,12.6293778 24.5002615,13.8016557 23.6921686,14.6441501 C22.880586,15.4902827 21.7531169,16 20.5084584,16 L20.5084584,16 L11.4915416,16 C10.2520802,16 9.13010526,15.4954807 8.31760444,14.6817284 C7.50368473,13.8665551 7,12.7409557 7,11.5 C7,10.2575915 7.50344853,9.13277897 8.31657203,8.31840305 C9.12966453,7.50405818 10.2525457,7 11.4915416,7 L11.4915416,7 L20.5084584,7 Z" id="Rectangle-4" stroke="#000000" stroke-width="2"></path>
        <g id="FORMS" transform="translate(5.659668, 20.628906)" fill="#000000" fill-rule="nonzero">
            <polygon id="Path" points="0 4.37109375 0 0.076171875 2.89746094 0.076171875 2.89746094 0.583007812 0.568359375 0.583007812 0.568359375 1.91308594 2.58398438 1.91308594 2.58398438 2.41992188 0.568359375 2.41992188 0.568359375 4.37109375"></polygon>
            <path d="M3.46289062,2.27929688 C3.46289062,1.56640625 3.65429688,1.00830078 4.03710938,0.604980469 C4.41992188,0.201660156 4.9140625,0 5.51953125,0 C5.91601562,0 6.2734375,0.0947265625 6.59179688,0.284179688 C6.91015625,0.473632812 7.15283203,0.737792969 7.31982422,1.07666016 C7.48681641,1.41552734 7.5703125,1.79980469 7.5703125,2.22949219 C7.5703125,2.66503906 7.48242188,3.0546875 7.30664062,3.3984375 C7.13085938,3.7421875 6.88183594,4.00244141 6.55957031,4.17919922 C6.23730469,4.35595703 5.88964844,4.44433594 5.51660156,4.44433594 C5.11230469,4.44433594 4.75097656,4.34667969 4.43261719,4.15136719 C4.11425781,3.95605469 3.87304688,3.68945312 3.70898438,3.3515625 C3.54492188,3.01367188 3.46289062,2.65625 3.46289062,2.27929688 Z M4.04882812,2.28808594 C4.04882812,2.80566406 4.18798828,3.21337891 4.46630859,3.51123047 C4.74462891,3.80908203 5.09375,3.95800781 5.51367188,3.95800781 C5.94140625,3.95800781 6.29345703,3.80761719 6.56982422,3.50683594 C6.84619141,3.20605469 6.984375,2.77929688 6.984375,2.2265625 C6.984375,1.87695312 6.92529297,1.57177734 6.80712891,1.31103516 C6.68896484,1.05029297 6.51611328,0.848144531 6.28857422,0.704589844 C6.06103516,0.561035156 5.80566406,0.489257812 5.52246094,0.489257812 C5.12011719,0.489257812 4.77392578,0.627441406 4.48388672,0.903808594 C4.19384766,1.18017578 4.04882812,1.64160156 4.04882812,2.28808594 Z" id="Shape"></path>
            <path d="M8.31152344,4.37109375 L8.31152344,0.076171875 L10.2158203,0.076171875 C10.5986328,0.076171875 10.8896484,0.114746094 11.0888672,0.191894531 C11.2880859,0.269042969 11.4472656,0.405273438 11.5664062,0.600585938 C11.6855469,0.795898438 11.7451172,1.01171875 11.7451172,1.24804688 C11.7451172,1.55273438 11.6464844,1.80957031 11.4492188,2.01855469 C11.2519531,2.22753906 10.9472656,2.36035156 10.5351562,2.41699219 C10.6855469,2.48925781 10.7998047,2.56054688 10.8779297,2.63085938 C11.0439453,2.78320312 11.2011719,2.97363281 11.3496094,3.20214844 L12.0966797,4.37109375 L11.3818359,4.37109375 L10.8134766,3.47753906 C10.6474609,3.21972656 10.5107422,3.02246094 10.4033203,2.88574219 C10.2958984,2.74902344 10.199707,2.65332031 10.1147461,2.59863281 C10.0297852,2.54394531 9.94335938,2.50585938 9.85546875,2.484375 C9.79101562,2.47070312 9.68554688,2.46386719 9.5390625,2.46386719 L8.87988281,2.46386719 L8.87988281,4.37109375 L8.31152344,4.37109375 Z M8.87988281,1.97167969 L10.1015625,1.97167969 C10.3613281,1.97167969 10.5644531,1.94482422 10.7109375,1.89111328 C10.8574219,1.83740234 10.96875,1.75146484 11.0449219,1.63330078 C11.1210938,1.51513672 11.1591797,1.38671875 11.1591797,1.24804688 C11.1591797,1.04492188 11.0854492,0.877929688 10.9379883,0.747070312 C10.7905273,0.616210938 10.5576172,0.55078125 10.2392578,0.55078125 L8.87988281,0.55078125 L8.87988281,1.97167969 Z" id="Shape"></path>
            <path d="M12.6181641,4.37109375 L12.6181641,0.076171875 L13.4736328,0.076171875 L14.4902344,3.1171875 C14.5839844,3.40039062 14.6523438,3.61230469 14.6953125,3.75292969 C14.7441406,3.59667969 14.8203125,3.3671875 14.9238281,3.06445312 L15.9521484,0.076171875 L16.7167969,0.076171875 L16.7167969,4.37109375 L16.1689453,4.37109375 L16.1689453,0.776367188 L14.9208984,4.37109375 L14.4082031,4.37109375 L13.1660156,0.71484375 L13.1660156,4.37109375 L12.6181641,4.37109375 Z" id="Path"></path>
            <path d="M17.4404297,2.99121094 L17.9765625,2.94433594 C18.0019531,3.15917969 18.0610352,3.33544922 18.1538086,3.47314453 C18.246582,3.61083984 18.390625,3.72216797 18.5859375,3.80712891 C18.78125,3.89208984 19.0009766,3.93457031 19.2451172,3.93457031 C19.4619141,3.93457031 19.6533203,3.90234375 19.8193359,3.83789062 C19.9853516,3.7734375 20.1088867,3.68505859 20.1899414,3.57275391 C20.2709961,3.46044922 20.3115234,3.33789062 20.3115234,3.20507812 C20.3115234,3.0703125 20.2724609,2.95263672 20.1943359,2.85205078 C20.1162109,2.75146484 19.9873047,2.66699219 19.8076172,2.59863281 C19.6923828,2.55371094 19.4375,2.48388672 19.0429688,2.38916016 C18.6484375,2.29443359 18.3720703,2.20507812 18.2138672,2.12109375 C18.0087891,2.01367188 17.855957,1.88037109 17.7553711,1.72119141 C17.6547852,1.56201172 17.6044922,1.38378906 17.6044922,1.18652344 C17.6044922,0.969726562 17.6660156,0.767089844 17.7890625,0.578613281 C17.9121094,0.390136719 18.0917969,0.247070312 18.328125,0.149414062 C18.5644531,0.0517578125 18.8271484,0.0029296875 19.1162109,0.0029296875 C19.4345703,0.0029296875 19.715332,0.0541992188 19.9584961,0.156738281 C20.2016602,0.259277344 20.3886719,0.41015625 20.5195312,0.609375 C20.6503906,0.80859375 20.7207031,1.03417969 20.7304688,1.28613281 L20.1855469,1.32714844 C20.15625,1.05566406 20.0571289,0.850585938 19.8881836,0.711914062 C19.7192383,0.573242188 19.4697266,0.50390625 19.1396484,0.50390625 C18.7958984,0.50390625 18.5454102,0.566894531 18.3881836,0.692871094 C18.230957,0.818847656 18.1523438,0.970703125 18.1523438,1.1484375 C18.1523438,1.30273438 18.2080078,1.4296875 18.3193359,1.52929688 C18.4287109,1.62890625 18.7143555,1.73095703 19.1762695,1.83544922 C19.6381836,1.93994141 19.9550781,2.03125 20.1269531,2.109375 C20.3769531,2.22460938 20.5615234,2.37060547 20.6806641,2.54736328 C20.7998047,2.72412109 20.859375,2.92773438 20.859375,3.15820312 C20.859375,3.38671875 20.7939453,3.60205078 20.6630859,3.80419922 C20.5322266,4.00634766 20.3442383,4.16357422 20.0991211,4.27587891 C19.8540039,4.38818359 19.578125,4.44433594 19.2714844,4.44433594 C18.8828125,4.44433594 18.5571289,4.38769531 18.2944336,4.27441406 C18.0317383,4.16113281 17.8256836,3.99072266 17.6762695,3.76318359 C17.5268555,3.53564453 17.4482422,3.27832031 17.4404297,2.99121094 Z" id="Path"></path>
        </g>
    </g>
</svg>