<?xml version="1.0" encoding="UTF-8" standalone="no"?>
<!DOCTYPE svg PUBLIC "-//W3C//DTD SVG 1.1//EN" "http://www.w3.org/Graphics/SVG/1.1/DTD/svg11.dtd">
<!-- Created with Vectornator (http://vectornator.io/) -->
<svg height="100%" stroke-miterlimit="10" style="fill-rule:nonzero;clip-rule:evenodd;stroke-linecap:round;stroke-linejoin:round;" version="1.1" viewBox="0 0 28 28" width="100%" xml:space="preserve" xmlns="http://www.w3.org/2000/svg" xmlns:vectornator="http://vectornator.io" xmlns:xlink="http://www.w3.org/1999/xlink">
<defs/>
<clipPath id="ArtboardFrame">
<rect height="28" width="28" x="0" y="0"/>
</clipPath>
<g clip-path="url(#ArtboardFrame)" id="Oracle" vectornator:layerName="Oracle">
<path d="M14-1.19231C6.26801-1.19231 0 5.0757 0 12.8077C0 20.5397 6.26801 26.8077 14 26.8077C21.732 26.8077 28 20.5397 28 12.8077C28 5.0757 21.732-1.19231 14-1.19231ZM14-0.192313C21.1797-0.192313 27 5.62798 27 12.8077C27 19.9874 21.1797 25.8077 14 25.8077C6.8203 25.8077 1 19.9874 1 12.8077C1 5.62798 6.8203-0.192313 14-0.192313Z" fill="#000000" fill-rule="evenodd" opacity="0" stroke="none" vectornator:layerName="Combined Shape"/>
<g opacity="1" vectornator:layerName="Group">
<path d="M8.9375 5.30263C5.65693 5.30263 3 7.95956 3 11.2401L3 11.3651C3 14.6457 5.65693 17.3026 8.9375 17.3026L19.0625 17.3026C22.3431 17.3026 25 14.6457 25 11.3651L25 11.2401C25 7.95956 22.3431 5.30263 19.0625 5.30263L8.9375 5.30263ZM8.96875 7.30263L19.0312 7.30263C21.2183 7.30263 23 9.08433 23 11.2714L23 11.3339C23 13.5209 21.2183 15.3026 19.0312 15.3026L8.96875 15.3026C6.7817 15.3026 5 13.5209 5 11.3339L5 11.2714C5 9.08433 6.7817 7.30263 8.96875 7.30263Z" fill="#c70000" fill-rule="evenodd" opacity="1" stroke="none" vectornator:layerName="Combined Shape"/>
</g>
<g fill="#000000" opacity="1" stroke="none">
<path d="M6.1775 23.6974L5.8175 23.6974L5.8175 20.1574L7.9525 20.1574L7.9525 20.4774L6.1775 20.4774L6.1775 21.7074L7.8275 21.7074L7.8275 22.0224L6.1775 22.0224L6.1775 23.6974Z"/>
<path d="M12.1275 21.9274C12.1275 22.1974 12.0808 22.4457 11.9875 22.6724C11.8942 22.899 11.765 23.0949 11.6 23.2599C11.435 23.4249 11.24 23.554 11.015 23.6474C10.79 23.7407 10.5458 23.7874 10.2825 23.7874C10.0192 23.7874 9.775 23.7407 9.55 23.6474C9.325 23.554 9.13 23.4249 8.965 23.2599C8.8 23.0949 8.67083 22.899 8.5775 22.6724C8.48417 22.4457 8.4375 22.1974 8.4375 21.9274C8.4375 21.6574 8.48417 21.409 8.5775 21.1824C8.67083 20.9557 8.8 20.7599 8.965 20.5949C9.13 20.4299 9.325 20.3007 9.55 20.2074C9.775 20.114 10.0192 20.0674 10.2825 20.0674C10.5458 20.0674 10.79 20.114 11.015 20.2074C11.24 20.3007 11.435 20.4299 11.6 20.5949C11.765 20.7599 11.8942 20.9557 11.9875 21.1824C12.0808 21.409 12.1275 21.6574 12.1275 21.9274ZM11.7475 21.9274C11.7475 21.7207 11.7142 21.524 11.6475 21.3374C11.5808 21.1507 11.4842 20.9865 11.3575 20.8449C11.2308 20.7032 11.0767 20.5907 10.895 20.5074C10.7133 20.424 10.5092 20.3824 10.2825 20.3824C10.0558 20.3824 9.85167 20.424 9.67 20.5074C9.48833 20.5907 9.33417 20.7032 9.2075 20.8449C9.08083 20.9865 8.98417 21.1507 8.9175 21.3374C8.85083 21.524 8.8175 21.7207 8.8175 21.9274C8.8175 22.134 8.85083 22.3307 8.9175 22.5174C8.98417 22.704 9.08083 22.8674 9.2075 23.0074C9.33417 23.1474 9.48833 23.259 9.67 23.3424C9.85167 23.4257 10.0558 23.4674 10.2825 23.4674C10.5092 23.4674 10.7133 23.4257 10.895 23.3424C11.0767 23.259 11.2308 23.1474 11.3575 23.0074C11.4842 22.8674 11.5808 22.704 11.6475 22.5174C11.7142 22.3307 11.7475 22.134 11.7475 21.9274Z"/>
<path d="M13.2375 23.6974L12.8775 23.6974L12.8775 20.1574L13.9175 20.1574C14.0908 20.1574 14.2517 20.174 14.4 20.2074C14.5483 20.2407 14.6767 20.2949 14.785 20.3699C14.8933 20.4449 14.9775 20.5424 15.0375 20.6624C15.0975 20.7824 15.1275 20.929 15.1275 21.1024C15.1275 21.2324 15.1042 21.3507 15.0575 21.4574C15.0108 21.564 14.9475 21.6565 14.8675 21.7349C14.7875 21.8132 14.6925 21.8757 14.5825 21.9224C14.4725 21.969 14.3525 21.999 14.2225 22.0124L15.2575 23.6974L14.8175 23.6974L13.8375 22.0424L13.2375 22.0424L13.2375 23.6974ZM13.2375 21.7324L13.8625 21.7324C14.1525 21.7324 14.3758 21.6799 14.5325 21.5749C14.6892 21.4699 14.7675 21.3124 14.7675 21.1024C14.7675 20.9857 14.7458 20.8874 14.7025 20.8074C14.6592 20.7274 14.5992 20.6624 14.5225 20.6124C14.4458 20.5624 14.3525 20.5257 14.2425 20.5024C14.1325 20.479 14.0108 20.4674 13.8775 20.4674L13.2375 20.4674L13.2375 21.7324Z"/>
<path d="M17.6225 23.0874L17.6275 23.0874L18.8125 20.1574L19.3625 20.1574L19.3625 23.6974L19.0025 23.6974L19.0025 20.6224L18.9925 20.6224L17.7125 23.6974L17.5225 23.6974L16.2425 20.6224L16.2325 20.6224L16.2325 23.6974L15.8725 23.6974L15.8725 20.1574L16.4225 20.1574L17.6225 23.0874Z"/>
<path d="M22.0175 20.7274C21.9408 20.6207 21.8425 20.5349 21.7225 20.4699C21.6025 20.4049 21.4575 20.3724 21.2875 20.3724C21.2008 20.3724 21.1125 20.3857 21.0225 20.4124C20.9325 20.439 20.8508 20.4799 20.7775 20.5349C20.7042 20.5899 20.645 20.659 20.6 20.7424C20.555 20.8257 20.5325 20.924 20.5325 21.0374C20.5325 21.1507 20.5542 21.244 20.5975 21.3174C20.6408 21.3907 20.6983 21.4532 20.77 21.5049C20.8417 21.5565 20.9233 21.599 21.015 21.6324C21.1067 21.6657 21.2025 21.699 21.3025 21.7324C21.4258 21.7724 21.55 21.8157 21.675 21.8624C21.8 21.909 21.9125 21.9699 22.0125 22.0449C22.1125 22.1199 22.1942 22.2149 22.2575 22.3299C22.3208 22.4449 22.3525 22.5907 22.3525 22.7674C22.3525 22.944 22.3183 23.0965 22.25 23.2249C22.1817 23.3532 22.0933 23.459 21.985 23.5424C21.8767 23.6257 21.7533 23.6874 21.615 23.7274C21.4767 23.7674 21.3375 23.7874 21.1975 23.7874C21.0908 23.7874 20.9842 23.7765 20.8775 23.7549C20.7708 23.7332 20.6692 23.7007 20.5725 23.6574C20.4758 23.614 20.3858 23.559 20.3025 23.4924C20.2192 23.4257 20.1458 23.349 20.0825 23.2624L20.3925 23.0324C20.4692 23.159 20.5767 23.2649 20.715 23.3499C20.8533 23.4349 21.0158 23.4774 21.2025 23.4774C21.2925 23.4774 21.3842 23.4632 21.4775 23.4349C21.5708 23.4065 21.655 23.3632 21.73 23.3049C21.805 23.2465 21.8667 23.1749 21.915 23.0899C21.9633 23.0049 21.9875 22.9057 21.9875 22.7924C21.9875 22.669 21.9633 22.5665 21.915 22.4849C21.8667 22.4032 21.8025 22.3349 21.7225 22.2799C21.6425 22.2249 21.5508 22.179 21.4475 22.1424C21.3442 22.1057 21.2358 22.069 21.1225 22.0324C21.0058 21.9957 20.8908 21.954 20.7775 21.9074C20.6642 21.8607 20.5625 21.7999 20.4725 21.7249C20.3825 21.6499 20.31 21.5574 20.255 21.4474C20.2 21.3374 20.1725 21.2024 20.1725 21.0424C20.1725 20.8724 20.2067 20.7257 20.275 20.6024C20.3433 20.479 20.4325 20.3774 20.5425 20.2974C20.6525 20.2174 20.7742 20.159 20.9075 20.1224C21.0408 20.0857 21.1725 20.0674 21.3025 20.0674C21.5425 20.0674 21.7475 20.1099 21.9175 20.1949C22.0875 20.2799 22.2158 20.3807 22.3025 20.4974L22.0175 20.7274Z"/>
</g>
</g>
</svg>
