<?xml version="1.0" encoding="iso-8859-1"?>
<!-- Generator: Adobe Illustrator 19.0.0, SVG Export Plug-In . SVG Version: 6.00 Build 0)  -->
<svg xmlns="http://www.w3.org/2000/svg" xmlns:xlink="http://www.w3.org/1999/xlink" version="1.1" id="Capa_1" x="0px" y="0px" viewBox="0 0 480 480" style="enable-background:new 0 0 480 480;" xml:space="preserve" width="512px" height="512px">
<g>
	<g>
		<path d="M104,0H24C10.768,0,0,10.768,0,24v144c0,13.232,10.768,24,24,24h80c13.232,0,24-10.768,24-24V24    C128,10.768,117.232,0,104,0z M112,168c0,4.408-3.592,8-8,8H24c-4.408,0-8-3.592-8-8v-8h96V168z M112,144H16V48h96V144z M112,32    H16v-8c0-4.408,3.592-8,8-8h80c4.408,0,8,3.592,8,8V32z" fill="#0b7d62"/>
	</g>
</g>
<g>
	<g>
		<path d="M456,0H328c-13.232,0-24,10.768-24,24v80c0,13.232,10.768,24,24,24h56v16h-32v16h80v-16h-32v-16h56    c13.232,0,24-10.768,24-24V24C480,10.768,469.232,0,456,0z M464,104c0,4.408-3.592,8-8,8H328c-4.408,0-8-3.592-8-8v-8h144V104z     M464,80H320V24c0-4.408,3.592-8,8-8h128c4.408,0,8,3.592,8,8V80z" fill="#0b7d62"/>
	</g>
</g>
<g>
	<g>
		<path d="M126.88,416.744c-3.4-10.704-14.544-18.136-26.176-16.512C94.536,385.776,80.288,376,64,376c-22.056,0-40,17.944-40,40    c0,0.336,0,0.672,0.016,1.008C10.224,420.568,0,433.112,0,448c0,17.648,14.352,32,32,32h88c17.648,0,32-14.352,32-32    C152,432.712,141.232,419.896,126.88,416.744z M120,464H32c-8.824,0-16-7.176-16-16c0-8.824,7.176-16,15.536-16.016    c0.24,0.032,1,0.112,1.24,0.128c2.584,0.096,5-0.968,6.608-2.952c1.608-1.984,2.168-4.616,1.52-7.08    C40.288,419.744,40,417.808,40,416c0-13.232,10.768-24,24-24c11.656,0,21.568,8.36,23.568,19.888    c0.456,2.64,2.2,4.864,4.648,5.952c2.448,1.088,5.272,0.872,7.528-0.568C104.968,413.944,112,418.088,112,424c0,4.416,3.584,8,8,8    c8.824,0,16,7.176,16,16C136,456.824,128.824,464,120,464z" fill="#0b7d62"/>
	</g>
</g>
<g>
	<g>
		<path d="M471.64,400.904c-0.12-1.2-0.344-2.368-0.52-3.552c-0.168-1.112-0.288-2.224-0.512-3.328c-0.32-1.6-0.744-3.16-1.16-4.72    c-0.176-0.648-0.312-1.312-0.504-1.96c-0.512-1.704-1.12-3.352-1.752-5c-0.168-0.448-0.296-0.912-0.472-1.352    c-0.016-0.032-0.04-0.064-0.056-0.096C455.928,354.6,430.112,336,400,336s-55.928,18.6-66.664,44.896    c-0.016,0.032-0.04,0.064-0.056,0.096c-0.184,0.448-0.304,0.904-0.472,1.352c-0.632,1.648-1.24,3.296-1.752,5    c-0.192,0.648-0.328,1.304-0.504,1.96c-0.424,1.56-0.848,3.12-1.16,4.72c-0.216,1.104-0.344,2.216-0.512,3.328    c-0.176,1.184-0.4,2.352-0.52,3.552c-0.232,2.352-0.36,4.72-0.36,7.096c0,2.376,0.128,4.744,0.36,7.096    c0.12,1.2,0.344,2.368,0.52,3.552c0.168,1.112,0.288,2.224,0.512,3.328c0.32,1.6,0.744,3.16,1.16,4.72    c0.176,0.648,0.312,1.312,0.504,1.96c0.512,1.704,1.12,3.352,1.752,5c0.168,0.448,0.296,0.912,0.472,1.352    c0.016,0.032,0.04,0.064,0.056,0.096C344.072,461.4,369.888,480,400,480s55.928-18.6,66.664-44.896    c0.016-0.032,0.04-0.064,0.056-0.096c0.184-0.448,0.304-0.904,0.472-1.352c0.632-1.648,1.24-3.296,1.752-5    c0.192-0.648,0.328-1.304,0.504-1.96c0.424-1.56,0.848-3.12,1.16-4.72c0.216-1.104,0.344-2.216,0.512-3.328    c0.176-1.184,0.4-2.352,0.52-3.552c0.232-2.352,0.36-4.72,0.36-7.096C472,405.624,471.872,403.256,471.64,400.904z M445.888,376    h-16.976c-1.408-6.912-3.32-13.304-5.68-18.896C432.36,361.296,440.184,367.84,445.888,376z M400,352    c3.008,0,8.824,8.296,12.56,24h-25.12C391.176,360.296,396.992,352,400,352z M346.36,424c-0.016-0.064-0.032-0.128-0.048-0.2    c-0.664-2.24-1.144-4.52-1.52-6.816c-0.088-0.56-0.184-1.112-0.256-1.68c-0.32-2.416-0.536-4.848-0.536-7.304    s0.216-4.888,0.536-7.312c0.072-0.56,0.168-1.12,0.256-1.68c0.376-2.296,0.856-4.576,1.52-6.816    c0.016-0.064,0.032-0.128,0.048-0.2h22.408C368.28,397.264,368,402.632,368,408c0,5.368,0.28,10.736,0.768,16H346.36z     M354.112,440h16.976c1.408,6.912,3.32,13.304,5.68,18.896C367.64,454.704,359.816,448.16,354.112,440z M371.088,376h-16.976    c5.704-8.16,13.528-14.704,22.656-18.896C374.408,362.696,372.496,369.08,371.088,376z M400,464c-3.008,0-8.824-8.296-12.552-24    h25.112C408.824,455.704,403.008,464,400,464z M415.192,424h-30.376c-0.504-4.92-0.816-10.224-0.816-16s0.312-11.08,0.808-16    h30.384c0.496,4.92,0.808,10.224,0.808,16S415.688,419.08,415.192,424z M423.232,458.896c2.36-5.592,4.272-11.976,5.68-18.896    h16.976C440.184,448.16,432.36,454.704,423.232,458.896z M455.464,415.312c-0.072,0.56-0.168,1.12-0.256,1.68    c-0.376,2.296-0.856,4.576-1.52,6.816c-0.016,0.064-0.032,0.128-0.048,0.2h-22.408C431.72,418.736,432,413.368,432,408    c0-5.368-0.28-10.736-0.768-16h22.408c0.024,0.064,0.032,0.128,0.056,0.2c0.664,2.24,1.144,4.52,1.52,6.816    c0.088,0.56,0.184,1.112,0.256,1.68c0.312,2.416,0.528,4.848,0.528,7.304S455.784,412.888,455.464,415.312z" fill="#0b7d62"/>
	</g>
</g>
<g>
	<g>
		<path d="M195.744,201.232l8.512,13.544c21.712-13.64,49.776-13.64,71.488,0l8.512-13.544    C257.368,184.344,222.632,184.344,195.744,201.232z" fill="#0b7d62"/>
	</g>
</g>
<g>
	<g>
		<path d="M171.68,177.272l8.648,13.464c36.248-23.296,83.104-23.296,119.352,0l8.648-13.464    C266.824,150.6,213.184,150.6,171.68,177.272z" fill="#0b7d62"/>
	</g>
</g>
<g>
	<g>
		<path d="M311.216,141.464c-44.6-24.896-97.84-24.896-142.424,0l-20.688,11.552l7.8,13.968l20.688-11.552    c39.704-22.168,87.12-22.168,126.824,0l20.688,11.552l7.8-13.968L311.216,141.464z" fill="#0b7d62"/>
	</g>
</g>
<g>
	<g>
		<path d="M240,216c-13.232,0-24,10.768-24,24s10.768,24,24,24s24-10.768,24-24S253.232,216,240,216z M240,248c-4.408,0-8-3.592-8-8    c0-4.408,3.592-8,8-8s8,3.592,8,8S244.408,248,240,248z" fill="#0b7d62"/>
	</g>
</g>
<g>
	<g>
		<rect x="232" y="280" width="16" height="64" fill="#0b7d62"/>
	</g>
</g>
<g>
	<g>
		<rect x="56" y="216" width="16" height="16" fill="#0b7d62"/>
	</g>
</g>
<g>
	<g>
		<rect x="56" y="248" width="16" height="16" fill="#0b7d62"/>
	</g>
</g>
<g>
	<g>
		<rect x="56" y="280" width="16" height="16" fill="#0b7d62"/>
	</g>
</g>
<g>
	<g>
		<rect x="56" y="312" width="16" height="16" fill="#0b7d62"/>
	</g>
</g>
<g>
	<g>
		<rect x="56" y="344" width="16" height="16" fill="#0b7d62"/>
	</g>
</g>
<g>
	<g>
		<rect x="196.708" y="351.999" transform="matrix(0.7071 -0.7071 0.7071 0.7071 -193.6302 252.5336)" width="22.624" height="16" fill="#0b7d62"/>
	</g>
</g>
<g>
	<g>
		<rect x="164.708" y="383.998" transform="matrix(0.7071 -0.7071 0.7071 0.7071 -225.6291 239.2784)" width="22.624" height="16" fill="#0b7d62"/>
	</g>
</g>
<g>
	<g>
		<rect x="263.994" y="348.673" transform="matrix(0.7071 -0.7071 0.7071 0.7071 -174.8824 297.7662)" width="16" height="22.624" fill="#0b7d62"/>
	</g>
</g>
<g>
	<g>
		<rect x="295.993" y="380.673" transform="matrix(0.7071 -0.7071 0.7071 0.7071 -188.1377 329.765)" width="16" height="22.624" fill="#0b7d62"/>
	</g>
</g>
<g>
	<g>
		<rect x="392" y="208" width="16" height="16" fill="#0b7d62"/>
	</g>
</g>
<g>
	<g>
		<rect x="392" y="240" width="16" height="16" fill="#0b7d62"/>
	</g>
</g>
<g>
	<g>
		<rect x="392" y="272" width="16" height="16" fill="#0b7d62"/>
	</g>
</g>
<g>
	<g>
		<rect x="392" y="304" width="16" height="16" fill="#0b7d62"/>
	</g>
</g>
<g>
	<g>
		<rect x="392" y="176" width="16" height="16" fill="#0b7d62"/>
	</g>
</g>
<g>
</g>
<g>
</g>
<g>
</g>
<g>
</g>
<g>
</g>
<g>
</g>
<g>
</g>
<g>
</g>
<g>
</g>
<g>
</g>
<g>
</g>
<g>
</g>
<g>
</g>
<g>
</g>
<g>
</g>
</svg>
