<?xml version="1.0" encoding="UTF-8"?>
<svg width="32px" height="32px" viewBox="0 0 32 32" version="1.1" xmlns="http://www.w3.org/2000/svg" xmlns:xlink="http://www.w3.org/1999/xlink">
    <title>IBM JCL</title>
    <g id="IBM-JCL" stroke="none" stroke-width="1" fill="none" fill-rule="evenodd">
        <g id="Group">
            <rect id="Rectangle-2" fill="#4F4CC0" x="0" y="0" width="32" height="32" rx="2"></rect>
            <path d="M30,0 C31.1045695,-2.02906125e-16 32,0.8954305 32,2 L32,16 L0,16 L0,2 C-1.3527075e-16,0.8954305 0.8954305,2.02906125e-16 2,0 L30,0 Z" id="Combined-Shape" fill="#000000"></path>
            <path d="M4,3 L4,3.69470077 L8.67156256,3.69470077 L8.67156256,3 L4,3 Z M9.33343768,3 L9.33343768,3.69470077 L15.9906249,3.69470077 C15.9906249,3.69470077 15.31063,3 14.41,3 L9.33343768,3 Z M17.2965626,3 L17.2965626,3.69470077 L21.3240626,3.69470077 L21.085,3 L17.2965626,3 Z M24.2115626,3 L23.9725,3.69470077 L27.9634374,3.69470077 L27.9634374,3 L24.2115626,3 Z M4,4.35102533 L4,5.0457259 L8.67156256,5.0457259 L8.67156256,4.35102533 L4,4.35102533 Z M9.33343768,4.35200937 L9.33343768,5.0457259 L16.7631251,5.0457259 C16.7631251,5.0457259 16.67635,4.51105441 16.525,4.35200937 L9.33343768,4.35200937 Z M17.2965626,4.35200937 L17.2965626,5.0457259 L21.7656251,5.0457259 L21.5443749,4.35200937 L17.2965626,4.35200937 Z M23.7334374,4.35200937 L23.5121874,5.0457259 L27.9634374,5.0457259 L27.9634374,4.35200937 L23.7334374,4.35200937 Z M5.3424999,5.70205066 L5.3424999,6.39773508 L7.36562488,6.39773508 L7.36562488,5.70205066 L5.3424999,5.70205066 Z M10.6759377,5.70205066 L10.6759377,6.39773508 L12.6990623,6.39773508 L12.6990623,5.70205066 L10.6759377,5.70205066 Z M14.6668751,5.70205066 L14.6668751,6.39773508 L16.69,6.39773508 C16.6900002,6.39773508 16.8184374,6.03034304 16.8184374,5.70205066 L14.6668751,5.70205066 Z M18.6390626,5.70205066 L18.6390626,6.39773508 L22.2259377,6.39773508 L21.9868751,5.70205066 L18.6390626,5.70205066 Z M23.2928126,5.70205066 L23.0528126,6.39773508 L26.6575,6.39773508 L26.6575,5.70205066 L23.2928126,5.70205066 Z M5.3424999,7.05406015 L5.3424999,7.74876042 L7.36562488,7.74876042 L7.36562488,7.05406015 L5.3424999,7.05406015 Z M10.6759377,7.05406015 L10.6759377,7.74876042 L15.8434377,7.74876042 C15.8434379,7.74876042 16.2757074,7.39230254 16.4134374,7.05406015 L10.6759377,7.05406015 Z M18.6390626,7.05406015 L18.6390626,7.74876042 L20.6621874,7.74876042 L20.6621874,7.36205042 L20.7906249,7.74876042 L24.4965626,7.74876042 L24.6343751,7.36205042 L24.6343751,7.74876042 L26.6575,7.74876042 L26.6575,7.05406015 L22.8596874,7.05406015 L22.6581249,7.64248899 L22.4556251,7.05406015 L18.6390626,7.05406015 Z M5.3424999,8.40508548 L5.3424999,9.09978575 L7.36562488,9.09978575 L7.36562488,8.40508548 L5.3424999,8.40508548 Z M10.6759377,8.40508548 L10.6759377,9.09978575 L16.4134374,9.09978575 C16.2756777,8.76264556 15.8434377,8.40508548 15.8434377,8.40508548 L10.6759377,8.40508548 Z M18.6390626,8.40508548 L18.6390626,9.09978575 L20.6621874,9.09978575 L20.6621874,8.40508548 L18.6390626,8.40508548 Z M21.0296874,8.40508548 L21.2743751,9.09978575 L24.0531251,9.09978575 L24.2856251,8.40508548 L21.0296874,8.40508548 Z M24.6343751,8.40508548 L24.6343751,9.09978575 L26.6575,9.09978575 L26.6575,8.40508548 L24.6343751,8.40508548 Z M5.3424999,9.75611082 L5.3424999,10.4508111 L7.36562488,10.4508111 L7.36562488,9.75611082 L5.3424999,9.75611082 Z M10.6759377,9.75611082 L10.6759377,10.4508111 L12.6990623,10.4508111 L12.6990623,9.75611082 L10.6759377,9.75611082 Z M14.6668751,9.75611082 L14.6668751,10.4508111 L16.8184374,10.4508111 C16.8184374,10.1229604 16.69,9.75611082 16.69,9.75611082 L14.6668751,9.75611082 Z M18.6390626,9.75611082 L18.6390626,10.4508111 L20.6621874,10.4508111 L20.6621874,9.75611082 L18.6390626,9.75611082 Z M21.4890623,9.75611082 L21.72625,10.4508111 L23.5890623,10.4508111 L23.8281249,9.75611082 L21.4890623,9.75611082 Z M24.6343751,9.75611082 L24.6343751,10.4508111 L26.6575,10.4508111 L26.6575,9.75611082 L24.6343751,9.75611082 Z M4.03656232,11.1071361 L4.03656232,11.8028206 L8.70812488,11.8028206 L8.70812488,11.1071361 L4.03656232,11.1071361 Z M9.33343768,11.1071361 L9.33343768,11.8028206 L16.525,11.8028206 C16.67635,11.6435237 16.7631251,11.1071361 16.7631251,11.1071361 L9.33343768,11.1071361 Z M17.3331249,11.1071361 L17.3331249,11.8028206 L20.6621874,11.8028206 L20.6621874,11.1071361 L17.3331249,11.1071361 Z M21.9493749,11.1071361 L22.1931249,11.8028206 L23.1409374,11.8028206 L23.3696874,11.1071361 L21.9493749,11.1071361 Z M24.6343751,11.1071361 L24.6343751,11.8028206 L28,11.8028206 L28,11.1071361 L24.6343751,11.1071361 Z M4.03656232,12.4591454 L4.03656232,13.1538462 L8.70812488,13.1538462 L8.70812488,12.4591454 L4.03656232,12.4591454 Z M9.33343768,12.4591454 L9.33343768,13.1528622 L14.41,13.1528622 C15.3106298,13.1528622 15.9906249,12.4591454 15.9906249,12.4591454 L9.33343768,12.4591454 Z M17.3331249,12.4591454 L17.3331249,13.1538462 L20.6621874,13.1538462 L20.6621874,12.4591454 L17.3331249,12.4591454 Z M22.4115626,12.4591454 L22.6459377,13.1518778 L22.68625,13.1528622 L22.9243751,12.4591454 L22.4115626,12.4591454 Z M24.6343751,12.4591454 L24.6343751,13.1538462 L28,13.1538462 L28,12.4591454 L24.6343751,12.4591454 Z" id="Shape" fill="#FFFFFF" fill-rule="nonzero"></path>
            <g id="JCL" transform="translate(7.281367, 20.368652)" fill="#FFFFFF" fill-rule="nonzero">
                <path d="M3.70019531,4.70654297 C3.70019531,5.25146484 3.61962891,5.67480469 3.45849609,5.9765625 C3.15966797,6.52734375 2.59130859,6.80273438 1.75341797,6.80273438 C1.27001953,6.80273438 0.856933594,6.67163086 0.514160156,6.40942383 C0.171386719,6.1472168 0,5.68066406 0,5.00976562 L0,4.54833984 L0.821777344,4.54833984 L0.821777344,5.00976562 C0.821777344,5.36132812 0.900146484,5.62573242 1.05688477,5.80297852 C1.21362305,5.98022461 1.45751953,6.06884766 1.78857422,6.06884766 C2.25439453,6.06884766 2.55908203,5.90917969 2.70263672,5.58984375 C2.79052734,5.39355469 2.83447266,5.02294922 2.83447266,4.47802734 L2.83447266,0.17578125 L3.70019531,0.17578125 L3.70019531,4.70654297 Z" id="Path"></path>
                <path d="M8.33195311,0 C9.14933592,0 9.78361326,0.215332031 10.2347851,0.645996094 C10.685957,1.07666016 10.9364453,1.56591797 10.98625,2.11376953 L10.1337109,2.11376953 C10.0370312,1.69775391 9.84440428,1.36816406 9.55583006,1.125 C9.26725584,0.881835938 8.86222655,0.760253906 8.34074217,0.760253906 C7.70499998,0.760253906 7.19157225,0.983642578 6.80045897,1.43041992 C6.40934569,1.87719727 6.21378905,2.56201172 6.21378905,3.48486328 C6.21378905,4.24072266 6.39030272,4.85375977 6.74333006,5.32397461 C7.09635741,5.79418945 7.62296873,6.02929688 8.32316405,6.02929688 C8.9676953,6.02929688 9.45841795,5.78173828 9.79533201,5.28662109 C9.97404295,5.02587891 10.1073437,4.68310547 10.1952344,4.25830078 L11.0477734,4.25830078 C10.9716015,4.93798828 10.7196484,5.5078125 10.291914,5.96777344 C9.77921873,6.52148438 9.08781248,6.79833984 8.2176953,6.79833984 C7.4676953,6.79833984 6.83781248,6.57128906 6.32804686,6.1171875 C5.65714842,5.51660156 5.3216992,4.58935547 5.3216992,3.33544922 C5.3216992,2.38330078 5.57365233,1.60253906 6.07755858,0.993164063 C6.62248045,0.331054688 7.3739453,0 8.33195311,0 Z" id="Path"></path>
                <polygon id="Path" points="12.69125 0.17578125 13.5657617 0.17578125 13.5657617 5.86230469 16.8352929 5.86230469 16.8352929 6.63134766 12.69125 6.63134766"></polygon>
            </g>
        </g>
    </g>
</svg>