<?xml version="1.0" encoding="UTF-8" standalone="no"?>
<!-- Created with Inkscape (http://www.inkscape.org/) -->

<svg
   xmlns:dc="http://purl.org/dc/elements/1.1/"
   xmlns:cc="http://creativecommons.org/ns#"
   xmlns:rdf="http://www.w3.org/1999/02/22-rdf-syntax-ns#"
   xmlns:svg="http://www.w3.org/2000/svg"
   xmlns="http://www.w3.org/2000/svg"
   xmlns:sodipodi="http://sodipodi.sourceforge.net/DTD/sodipodi-0.dtd"
   xmlns:inkscape="http://www.inkscape.org/namespaces/inkscape"
   width="97.157158mm"
   height="61.1474mm"
   viewBox="0 0 97.157158 61.1474"
   version="1.1"
   id="svg885"
   inkscape:version="0.92.3 (2405546, 2018-03-11)"
   sodipodi:docname="johnzon.svg">
  <defs
     id="defs879" />
  <sodipodi:namedview
     id="base"
     pagecolor="#ffffff"
     bordercolor="#666666"
     borderopacity="1.0"
     inkscape:pageopacity="0.0"
     inkscape:pageshadow="2"
     inkscape:zoom="1.979899"
     inkscape:cx="30.66374"
     inkscape:cy="-71.876398"
     inkscape:document-units="mm"
     inkscape:current-layer="layer1"
     showgrid="false"
     fit-margin-top="0"
     fit-margin-left="0"
     fit-margin-right="0"
     fit-margin-bottom="0"
     inkscape:window-width="3726"
     inkscape:window-height="2049"
     inkscape:window-x="114"
     inkscape:window-y="55"
     inkscape:window-maximized="1" />
  <metadata
     id="metadata882">
    <rdf:RDF>
      <cc:Work
         rdf:about="">
        <dc:format>image/svg+xml</dc:format>
        <dc:type
           rdf:resource="http://purl.org/dc/dcmitype/StillImage" />
        <dc:title></dc:title>
      </cc:Work>
    </rdf:RDF>
  </metadata>
  <g
     inkscape:label="Layer 1"
     inkscape:groupmode="layer"
     id="layer1"
     transform="translate(127.93157,-41.941683)">
    <g
       id="g1489"
       transform="translate(12.428033,-66.817382)">
      <path
         style="fill:#a7682a;stroke-width:0.26458332"
         d="m -75.283167,139.34639 c -2.219193,-0.0131 -4.392084,-0.13358 -4.828646,-0.26768 -0.436563,-0.1341 -0.987039,-0.39336 -1.22328,-0.57613 -0.236241,-0.18277 -0.682281,-0.74692 -0.991198,-1.25367 l -0.561668,-0.92136 -9.9e-4,-4.50265 -9.89e-4,-4.50264 0.645303,-0.94965 c 0.354915,-0.5223 1.057518,-1.14525 1.561338,-1.38433 l 0.91604,-0.43469 h 4.259493 4.259492 v 0.52917 0.52916 h -4.11418 -4.114181 l -0.776132,0.40136 c -0.426873,0.22074 -0.956741,0.75061 -1.177485,1.17748 l -0.401355,0.77613 v 4.11807 4.11807 l 0.905068,0.9883 0.905069,0.9883 4.386598,0.084 4.386598,0.084 v 0.51136 0.51136 l -4.034895,-0.0239 z m -50.151773,-0.24072 c -0.55298,0 -1.14829,-0.14287 -1.32291,-0.3175 -0.17463,-0.17462 -0.3175,-0.68303 -0.3175,-1.12979 0,-0.44676 0.88951,-3.12027 1.9767,-5.94113 1.08719,-2.82087 2.24805,-5.4194 2.57969,-5.77452 0.33164,-0.35512 0.92449,-0.81295 1.31745,-1.0174 0.39295,-0.20446 1.26207,-0.37174 1.93136,-0.37174 0.6693,0 1.53842,0.16728 1.93137,0.37174 0.39296,0.20445 0.99021,0.66696 1.32722,1.0278 0.33701,0.36083 1.49787,2.9344 2.57968,5.71905 1.08182,2.78464 1.96694,5.45347 1.96694,5.93074 0,0.47726 -0.14287,1.01063 -0.3175,1.18525 -0.17462,0.17463 -0.76993,0.3175 -1.32291,0.3175 h -1.00542 v -0.52916 -0.52917 h 0.79375 0.79375 v -0.4948 c 0,-0.27214 -0.84094,-2.68315 -1.86877,-5.35781 l -1.86876,-4.86302 -0.90547,-0.85989 -0.90548,-0.8599 h -1.1984 -1.19839 l -0.89548,0.8599 -0.89548,0.85989 -1.87876,4.95416 c -1.03332,2.72479 -1.87876,5.1358 -1.87876,5.35781 0,0.27212 0.25866,0.40366 0.79375,0.40366 h 0.79375 v 0.52917 0.52916 z m 15.82209,0 h -0.52917 v -3.81976 -3.81975 l 4.75715,-0.0828 4.75715,-0.0829 0.732956,-0.73361 0.732951,-0.73362 v -1.4721 -1.47211 l -0.742357,-0.63855 -0.74236,-0.63855 h -4.88004 -4.88003 v -0.52916 -0.52917 l 4.96093,9.8e-4 4.96094,9.8e-4 0.875819,0.53397 c 0.4913,0.29954 1.055378,0.96372 1.284804,1.51281 0.260683,0.62391 0.364246,1.44445 0.285607,2.26288 -0.06786,0.70621 -0.356828,1.60258 -0.642155,1.99192 -0.285326,0.38934 -0.927028,0.91607 -1.426005,1.17051 l -0.90724,0.46263 -4.03489,4.1e-4 -4.0349,4.1e-4 v 3.30729 3.30729 z m 11.405387,0 c -0.695174,0 -1.082236,-0.13605 -1.190625,-0.41851 -0.08833,-0.23018 -0.1606,-0.79601 -0.1606,-1.25739 0,-0.46138 0.841187,-3.0275 1.869305,-5.70249 1.028118,-2.675 2.058337,-5.15212 2.289374,-5.50473 0.231039,-0.35261 0.873389,-0.87238 1.427448,-1.15504 0.583914,-0.29789 1.542089,-0.51392 2.279414,-0.51392 0.924719,0 1.540873,0.18268 2.256629,0.66905 0.541523,0.36797 1.173559,1.03447 1.404522,1.4811 0.230963,0.44664 1.183555,2.78731 2.116876,5.20151 0.933317,2.4142 1.76857,4.77126 1.856115,5.23791 0.08755,0.46665 0.02503,1.09912 -0.13894,1.40549 l -0.298112,0.55702 h -1.049022 -1.049026 v -0.52916 -0.52917 h 0.79375 c 0.499116,0 0.79375,-0.13575 0.79375,-0.36572 0,-0.20115 -0.889804,-2.65568 -1.977342,-5.45452 -1.087538,-2.79884 -2.120662,-5.26149 -2.295832,-5.47256 -0.175173,-0.21107 -0.648674,-0.5545 -1.052229,-0.76319 -0.403553,-0.20868 -1.112547,-0.37943 -1.575541,-0.37943 -0.462992,0 -1.222367,0.2352 -1.687499,0.52267 -0.465132,0.28747 -0.99459,0.84946 -1.176576,1.24887 -0.181983,0.39941 -1.095396,2.72236 -2.029804,5.16211 -0.93441,2.43975 -1.698926,4.67573 -1.698926,4.96884 0,0.39207 0.174831,0.53293 0.661458,0.53293 0.485069,0 0.661458,0.14111 0.661458,0.52917 v 0.52916 z m 28.546691,0 h -0.529166 v -7.27604 -7.27604 h 0.529166 0.529167 v 3.44446 3.44446 l 6.151562,-0.071 6.151563,-0.071 0.07405,-3.37343 0.07405,-3.37344 h 0.521264 0.521261 v 7.27604 7.27604 h -0.529167 -0.529167 v -3.30729 -3.30729 h -6.217708 -6.217708 v 3.30729 3.30729 z m 22.026562,-0.0209 c -2.437474,-0.0115 -4.610364,-0.0859 -4.828645,-0.1653 -0.218282,-0.0794 -0.726197,-0.45131 -1.1287,-0.82641 -0.402502,-0.37509 -0.857186,-1.14755 -1.010409,-1.71658 -0.153223,-0.56902 -0.199692,-1.50156 -0.103264,-2.0723 0.09643,-0.57074 0.469577,-1.38742 0.829222,-1.81483 l 0.6539,-0.77712 -0.550969,-0.59139 c -0.303032,-0.32527 -0.676182,-1.05641 -0.82922,-1.62475 -0.15304,-0.56835 -0.200649,-1.4927 -0.105801,-2.05411 0.09485,-0.56141 0.420698,-1.33633 0.724103,-1.72205 0.303409,-0.38572 0.944555,-0.86548 1.424771,-1.06612 0.6188,-0.25854 2.108671,-0.3648 5.114951,-0.3648 h 4.241832 v 0.51174 0.51174 l -4.477345,0.0836 -4.477345,0.0836 -0.677979,0.63763 c -0.372888,0.35069 -0.751129,1.02754 -0.840531,1.50411 -0.08941,0.47656 -0.02178,1.29303 0.150278,1.81437 0.193958,0.5877 0.60108,1.09695 1.071403,1.34016 0.486019,0.25133 1.52381,0.39227 2.88838,0.39227 h 2.129806 v 0.50284 0.50285 l -2.375519,0.0925 -2.375522,0.0925 -0.733332,0.73362 -0.733335,0.73361 v 1.33861 1.33861 l 0.864071,0.77204 0.864068,0.77205 h 4.361452 4.36145 v 0.52917 0.52916 z m -71.63594,-4.21243 h -1.19062 v -0.52917 -0.52916 h 1.19062 1.19063 v 0.52916 0.52917 z m 27.384379,0 h -1.058333 v -0.52917 -0.52916 h 1.058333 1.058333 v 0.52916 0.52917 z m -47.955899,-6.35 h -0.51793 l 0.19241,-2.18281 c 0.10582,-1.20055 0.36026,-2.82875 0.56541,-3.61822 0.20515,-0.78947 0.69103,-2.01971 1.07972,-2.73386 0.38869,-0.71416 1.05552,-1.59196 1.48183,-1.95068 0.42632,-0.35873 1.23184,-0.88522 1.79005,-1.17 0.55822,-0.28478 1.70318,-0.71676 2.54436,-0.95996 l 1.52942,-0.44217 15.08125,-0.17425 15.08125,-0.17426 1.587504,-0.46557 c 0.873125,-0.25606 2.231488,-0.78059 3.018581,-1.16561 0.787096,-0.38502 2.00098,-1.21243 2.69752,-1.83868 0.696539,-0.62624 1.524648,-1.55643 1.840243,-2.06707 0.315595,-0.51064 0.625771,-0.87648 0.689279,-0.81297 0.06351,0.0635 -0.50305,1.16265 -1.25902,2.44254 -0.755973,1.27988 -1.857962,2.85156 -2.448864,3.49262 -0.590905,0.64105 -1.496441,1.37897 -2.012304,1.63982 -0.515864,0.26085 -1.592779,0.63125 -2.393143,0.82311 l -1.455206,0.34885 -14.81667,0.0726 c -10.11779,0.0496 -15.23621,0.17054 -16.13958,0.38144 -0.72761,0.16986 -1.87339,0.58456 -2.54618,0.92155 -0.67279,0.33699 -1.71062,1.16638 -2.30628,1.84309 -0.59566,0.6767 -1.32442,1.87556 -1.61946,2.66413 -0.29504,0.78856 -0.67364,2.26459 -0.84134,3.28006 l -0.30492,1.84631 z"
         id="path1493"
         inkscape:connector-curvature="0"
         sodipodi:nodetypes="cssccccccccccccccscccccccccccscscscscccscscccccsccccccccssscccscccccccccccccccccccccccccccccscscccsccccccccccsssccsscsssscscccccccccccccccccccccccccccccccccccccscccccccccscccccccccccccccccccccccccccccccccccccsccccccccccscccsccccsccccc" />
      <path
         style="fill:#007fb4;stroke-width:0.26458332"
         d="m -91.595095,169.665 c -0.378116,0.50282 -0.28218,0.21189 0.26175,-0.79375 0.472252,-0.87313 1.268074,-2.21404 1.768493,-2.97982 0.50042,-0.76577 1.374037,-1.78964 1.941375,-2.27526 0.567336,-0.48562 1.656117,-1.10398 2.419509,-1.37414 6.044981,-1.11014 11.756873,-0.59425 17.262988,-0.64896 l 15.875,-0.15776 1.334886,-0.44338 c 0.734187,-0.24386 1.879489,-0.80411 2.545112,-1.245 0.665622,-0.44089 1.529109,-1.26177 1.918856,-1.82418 0.389747,-0.5624 0.935064,-1.61847 1.211815,-2.34683 0.276752,-0.72835 0.640493,-2.11275 0.808316,-3.07645 0.205194,-1.17832 0.426214,-1.75218 0.67484,-1.75218 h 0.369716 v 1.92878 c 0,1.06084 -0.178028,2.61228 -0.395616,3.44766 -0.217588,0.83537 -0.647141,2.02125 -0.954563,2.63527 -0.30742,0.61403 -0.933067,1.5138 -1.390322,1.99949 -0.457256,0.4857 -1.307624,1.12894 -1.889707,1.42942 -0.582084,0.30048 -1.653646,0.72601 -2.38125,0.94562 l -1.322917,0.39928 -15.081249,0.18114 c -5.534291,0.59553 -10.72381,-0.42115 -16.801042,0.64879 -0.945885,0.2572 -2.449584,0.81052 -3.34155,1.2296 -0.891965,0.41908 -2.21031,1.32827 -2.929651,2.02043 -0.719342,0.69216 -1.576496,1.61566 -1.904789,2.05223 z m -42.491715,-13.94758 -3.175,0.0842 -0.90724,-0.47667 c -0.49897,-0.26217 -1.1149,-0.77433 -1.36872,-1.13813 -0.25383,-0.3638 -0.53964,-1.04841 -0.63515,-1.52135 l -0.17365,-0.8599 h 0.55019 c 0.30475,0 0.55019,0.17149 0.55019,0.38443 0,0.21143 0.14225,0.69661 0.3161,1.07817 0.17385,0.38157 0.64419,0.86342 1.04519,1.07079 0.5018,0.25948 1.63925,0.37703 3.64848,0.37703 h 2.91938 l 0.86407,-0.77151 0.86407,-0.7715 0.0816,-5.31391 0.0816,-5.31391 h 0.38145 0.38146 v 5.3048 5.30481 l -0.38336,0.74132 c -0.21084,0.40772 -0.71685,0.96535 -1.12447,1.23918 l -0.74113,0.49785 z m 20.24062,0.057 h -0.52916 v -6.74687 -6.74688 h 0.52916 0.52917 v 3.175 3.175 h 5.29167 5.29166 v -3.175 -3.175 h 0.39688 0.39687 v 6.74688 6.74687 h -0.38847 -0.38848 l -0.0745,-3.10885 -0.0745,-3.10886 -5.22552,-0.0717 -5.22552,-0.0717 v 3.18059 3.18059 z m 31.93521,0 c -3.618912,0 -5.198948,-0.0925 -5.423958,-0.3175 -0.174625,-0.17462 -0.3175,-0.59644 -0.3175,-0.93737 0,-0.36976 0.5071,-1.17575 1.256771,-1.99753 0.691224,-0.7577 2.834349,-3.05875 4.7625,-5.11344 1.928151,-2.05468 3.505729,-3.81089 3.505729,-3.90268 0,-0.0918 -2.262188,-0.16689 -5.027083,-0.16689 h -5.027084 v -0.52917 -0.52917 h 5.108805 c 3.786318,0 5.231138,0.0894 5.581378,0.34556 0.26848,0.19631 0.433154,0.58821 0.381299,0.90742 -0.0502,0.30904 -2.204633,2.83437 -4.787628,5.61187 -2.582994,2.77749 -4.696354,5.16711 -4.696354,5.31027 0,0.16129 1.861765,0.2603 4.894792,0.2603 h 4.894791 v 0.52917 0.52916 z m -39.52884,-0.26557 -3.65116,-9.9e-4 -0.84705,-0.51648 c -0.46588,-0.28406 -1.03142,-0.87301 -1.25677,-1.30879 l -0.40972,-0.79231 v -3.99502 -3.99503 l 0.39159,-0.75725 c 0.21537,-0.41649 0.70768,-1.00589 1.09401,-1.30978 l 0.70243,-0.55253 h 3.81392 3.81391 l 0.8014,0.41442 c 0.4802,0.24832 1.00284,0.8581 1.30397,1.52136 l 0.50256,1.10693 v 3.57188 3.57187 l -0.50256,1.10693 c -0.30113,0.66327 -0.82377,1.27304 -1.30397,1.52136 l -0.8014,0.41442 -3.65116,-0.001 z m 0.40609,-0.85836 3.26349,-0.0667 0.7714,-0.86407 0.7714,-0.86407 v -3.9604 -3.96041 l -0.77142,-0.86406 -0.77142,-0.86408 -3.1551,-0.0873 -3.1551,-0.0873 -0.97779,0.40855 c -0.68118,0.28461 -1.0953,0.68978 -1.36515,1.33561 -0.26744,0.64009 -0.38735,1.91516 -0.38735,4.11907 0,2.20247 0.11996,3.4791 0.38697,4.11814 0.24801,0.59357 0.69932,1.06578 1.25677,1.31497 0.64457,0.28813 1.71486,0.37154 4.1333,0.32212 z m 20.549,0.85935 h -0.39687 v -5.58738 -5.58737 l 1.027201,-1.02721 1.027208,-1.02721 h 3.99067 3.990671 l 0.92882,0.81552 c 0.521041,0.45748 1.047157,1.24156 1.198356,1.78594 0.148246,0.53373 0.2702,3.14331 0.27101,5.79906 l 0.0015,4.82865 h -0.529167 -0.529166 l -0.0039,-5.09323 c -0.0027,-3.53631 -0.104933,-5.29543 -0.334409,-5.75469 -0.181782,-0.3638 -0.745572,-0.86963 -1.252871,-1.12407 l -0.922361,-0.4626 h -2.778125 -2.778125 l -0.922361,0.4626 c -0.507299,0.25444 -1.071089,0.76027 -1.252871,1.12407 -0.229476,0.45926 -0.3317,2.21838 -0.33441,5.75469 l -0.004,5.09323 z m 30.783625,0 h -3.99067 l -1.027208,-1.02721 -1.027205,-1.0272 v -4.56017 -4.56017 l 1.027205,-1.02721 1.027208,-1.02721 h 3.99067 3.990671 l 0.92882,0.81552 c 0.521041,0.45748 1.047157,1.24156 1.198356,1.78594 0.148246,0.53373 0.269536,2.33964 0.269536,4.01313 0,1.67349 -0.12129,3.47939 -0.269536,4.01312 -0.151199,0.54438 -0.677315,1.32846 -1.198356,1.78594 l -0.92882,0.81552 z m 0.498084,-0.85935 3.235875,-0.0667 0.732875,-0.73362 0.732874,-0.73362 v -4.2213 -4.22131 l -0.732874,-0.73362 -0.732875,-0.73362 -3.274563,-0.0871 -3.27456,-0.0871 -0.816731,0.42235 c -0.449202,0.23229 -0.997339,0.77161 -1.218084,1.19848 -0.298823,0.57786 -0.401354,1.66153 -0.401354,4.242 v 3.46586 l 0.413996,0.80058 c 0.2277,0.44032 0.793247,0.97043 1.256771,1.17803 0.612957,0.27452 1.72517,0.35926 4.07865,0.31076 z m 7.063014,0.85935 h -0.377015 v -5.18554 -5.18553 l 0.441844,-0.93112 c 0.243017,-0.51212 0.808564,-1.15474 1.256771,-1.42806 l 0.814927,-0.49694 h 3.704166 3.704167 l 0.814927,0.49694 c 0.448207,0.27332 1.013754,0.91594 1.256771,1.42806 l 0.441843,0.93112 v 5.18553 5.18554 h -0.377015 -0.377015 l -0.08601,-5.22552 -0.08601,-5.22552 -0.394422,-0.59539 c -0.216932,-0.32747 -0.791295,-0.78372 -1.276364,-1.0139 l -0.881941,-0.41851 -3.151044,0.0879 -3.151045,0.0879 -0.864258,0.86445 -0.864259,0.86444 -0.08601,5.28712 -0.08601,5.28712 z"
         id="path1491"
         inkscape:connector-curvature="0"
         sodipodi:nodetypes="ccccccccscccscscccsccccsscccccccssccsccccccccccccccccccccccccccccccccccccccscsccsscccscccsscccsccccccccccccccccccccccccccccccccccscccccccccccccccccccccccccccccccccccccccccsccccccccccccccccsccccccccccccccccccccccccccccccccc" />
    </g>
  </g>
</svg>
