<?xml version="1.0" encoding="UTF-8" standalone="no"?>
<!DOCTYPE svg PUBLIC "-//W3C//DTD SVG 1.1//EN" "http://www.w3.org/Graphics/SVG/1.1/DTD/svg11.dtd">
<svg xmlns:xl="http://www.w3.org/1999/xlink" xmlns="http://www.w3.org/2000/svg" xmlns:dc="http://purl.org/dc/elements/1.1/" version="1.1" viewBox="110.84253 110.64 1053.7245 360.25" width="1053.7245" height="360.25">
  <defs/>
  <g id="Canvas_1" stroke-opacity="1" stroke-dasharray="none" stroke="none" fill="none" fill-opacity="1">
    <title>Canvas 1</title>
    <g id="Canvas_1_Layer_1">
      <title>Layer 1</title>
      <g id="Group_8">
        <title>POCO</title>
        <g id="Graphic_4">
          <path d="M 354.80702 198.846 C 354.80702 154.502 317.69302 110.64 269.97502 110.64 L 196.22902 110.64 C 149.95702 110.64 110.91502 149.682 110.91502 195.954 L 110.91502 354.05 C 110.91502 357.424 113.80702 360.316 117.18102 360.316 L 154.77702 360.316 C 158.15102 360.316 161.04302 357.424 161.04302 354.05 L 161.04302 195.954 C 161.04302 177.638 177.43102 161.25 196.22902 161.25 L 269.97502 161.25 C 287.80902 161.25 305.16102 179.566 305.16102 198.846 C 305.16102 218.126 288.77302 234.996 269.97502 234.996 L 180.32302 234.996 C 176.94902 234.996 174.05702 237.406 174.05702 240.78 L 174.05702 278.858 C 174.05702 282.232 176.94902 285.124 180.32302 285.124 L 269.97502 285.124 C 317.21102 285.124 354.80702 244.636 354.80702 198.846 Z" fill="#0077C9"/>
        </g>
        <g id="Graphic_5">
          <path d="M 627.619 270.664 L 627.619 196.918 C 627.619 150.164 588.095 110.64 541.341 110.64 L 466.149 110.64 C 419.395 110.64 379.87102 150.164 379.87102 196.918 L 379.87102 270.664 C 379.87102 319.346 413.611 360.316 466.149 360.316 L 541.341 360.316 C 590.505 360.316 627.619 316.454 627.619 270.664 Z M 577.009 270.664 C 577.009 291.872 560.139 309.706 540.377 309.706 L 466.149 309.706 C 444.459 309.706 429.999 294.282 429.999 270.664 L 429.999 196.918 C 429.999 177.638 446.869 160.768 466.149 160.768 L 541.341 160.768 C 560.139 160.768 577.491 178.12 577.491 196.918 Z" fill="#0077C9"/>
        </g>
        <g id="Graphic_6">
          <path d="M 876.813 354.05 L 876.813 315.49 C 876.813 312.116 873.921 309.224 870.547 309.224 L 738.961 309.224 C 720.163 309.224 703.293 292.354 703.293 273.556 L 703.293 197.882 C 703.293 178.12 720.163 160.768 738.961 160.768 L 867.655 160.768 C 871.029 160.768 873.921 158.358 873.921 154.984 L 873.921 117.388 C 873.921 114.014 871.029 111.122 867.655 111.122 L 738.961 111.122 C 692.207 111.122 652.683 151.61 652.683 197.882 L 652.683 273.556 C 652.683 319.828 692.207 360.316 738.961 360.316 L 870.547 360.316 C 873.921 360.316 876.813 357.424 876.813 354.05 Z" fill="#0077C9"/>
        </g>
        <g id="Graphic_7">
          <path d="M 1149.625 270.664 L 1149.625 196.918 C 1149.625 150.164 1110.101 110.64 1063.347 110.64 L 988.155 110.64 C 941.401 110.64 901.877 150.164 901.877 196.918 L 901.877 270.664 C 901.877 319.346 935.617 360.316 988.155 360.316 L 1063.347 360.316 C 1112.511 360.316 1149.625 316.454 1149.625 270.664 Z M 1099.015 270.664 C 1099.015 291.872 1082.145 309.706 1062.383 309.706 L 988.155 309.706 C 966.465 309.706 952.005 294.282 952.005 270.664 L 952.005 196.918 C 952.005 177.638 968.875 160.768 988.155 160.768 L 1063.347 160.768 C 1082.145 160.768 1099.497 178.12 1099.497 196.918 Z" fill="#0077C9"/>
        </g>
      </g>
      <g id="Group_21">
        <title>C++ LIBRARIES</title>
        <g id="Graphic_9">
          <path d="M 182.91753 468.875 L 182.91753 456.475 C 182.91753 455.39 181.98753 454.46 180.90253 454.46 L 138.58753 454.46 C 132.54253 454.46 127.11753 449.035 127.11753 442.99 L 127.11753 418.655 C 127.11753 412.3 132.54253 406.72 138.58753 406.72 L 179.97253 406.72 C 181.05753 406.72 181.98753 405.945 181.98753 404.86 L 181.98753 392.77 C 181.98753 391.685 181.05753 390.755 179.97253 390.755 L 138.58753 390.755 C 123.55253 390.755 110.84253 403.775 110.84253 418.655 L 110.84253 442.99 C 110.84253 457.87 123.55253 470.89 138.58753 470.89 L 180.90253 470.89 C 181.98753 470.89 182.91753 469.96 182.91753 468.875 Z" fill="#0077C9"/>
        </g>
        <g id="Graphic_10">
          <path d="M 245.81753 444.695 L 245.81753 432.605 C 245.81753 431.52 244.88753 430.59 243.80253 430.59 L 228.30253 430.59 L 228.30253 415.245 C 228.30253 414.16 227.52753 413.23 226.44253 413.23 L 214.35253 413.23 C 213.26753 413.23 212.33753 414.16 212.33753 415.245 L 212.33753 430.745 L 196.99253 430.745 C 195.90753 430.745 194.97753 431.52 194.97753 432.605 L 194.97753 444.695 C 194.97753 445.78 195.90753 446.71 196.99253 446.71 L 212.49253 446.71 L 212.49253 462.055 C 212.49253 463.14 213.26753 464.07 214.35253 464.07 L 226.44253 464.07 C 227.52753 464.07 228.45753 463.14 228.45753 462.055 L 228.45753 446.555 L 243.80253 446.555 C 244.88753 446.555 245.81753 445.78 245.81753 444.695 Z" fill="#0077C9"/>
        </g>
        <g id="Graphic_11">
          <path d="M 308.71753 444.695 L 308.71753 432.605 C 308.71753 431.52 307.78753 430.59 306.70253 430.59 L 291.20253 430.59 L 291.20253 415.245 C 291.20253 414.16 290.42753 413.23 289.34253 413.23 L 277.25253 413.23 C 276.16753 413.23 275.23753 414.16 275.23753 415.245 L 275.23753 430.745 L 259.89253 430.745 C 258.80753 430.745 257.87753 431.52 257.87753 432.605 L 257.87753 444.695 C 257.87753 445.78 258.80753 446.71 259.89253 446.71 L 275.39253 446.71 L 275.39253 462.055 C 275.39253 463.14 276.16753 464.07 277.25253 464.07 L 289.34253 464.07 C 290.42753 464.07 291.35753 463.14 291.35753 462.055 L 291.35753 446.555 L 306.70253 446.555 C 307.78753 446.555 308.71753 445.78 308.71753 444.695 Z" fill="#0077C9"/>
        </g>
        <g id="Graphic_12">
          <path d="M 426.92253 468.875 L 426.92253 456.785 C 426.92253 455.7 425.99253 454.77 424.90753 454.77 L 383.52253 454.77 C 377.47753 454.77 372.05253 449.345 372.05253 442.99 L 372.05253 392.77 C 372.05253 391.685 371.27753 390.755 370.19253 390.755 L 357.79253 390.755 C 356.70753 390.755 355.77753 391.685 355.77753 392.77 L 355.77753 442.99 C 355.77753 457.87 368.48753 470.89 383.52253 470.89 L 424.90753 470.89 C 425.99253 470.89 426.92253 469.96 426.92253 468.875 Z" fill="#0077C9"/>
        </g>
        <g id="Graphic_13">
          <path d="M 519.4275 468.875 L 519.4275 456.63 C 519.4275 455.545 518.4975 454.615 517.4125 454.615 L 487.80753 454.615 L 487.80753 407.03 L 517.2575 407.03 C 518.3425 407.03 519.2725 406.255 519.2725 405.17 L 519.2725 392.77 C 519.2725 391.685 518.3425 390.755 517.2575 390.755 L 440.99753 390.755 C 439.91253 390.755 438.98253 391.685 438.98253 392.77 L 438.98253 405.17 C 438.98253 406.255 439.91253 407.185 440.99753 407.185 L 471.84253 407.185 L 471.84253 454.77 L 440.99753 454.77 C 439.91253 454.77 438.98253 455.545 438.98253 456.63 L 438.98253 468.875 C 438.98253 469.96 439.91253 470.89 440.99753 470.89 L 517.4125 470.89 C 518.4975 470.89 519.4275 469.96 519.4275 468.875 Z" fill="#0077C9"/>
        </g>
        <g id="Graphic_14">
          <path d="M 607.1275 446.555 C 607.1275 440.355 604.4925 434.775 600.4625 430.59 C 604.4925 426.25 607.1275 420.515 607.1275 414.16 C 607.1275 400.83 595.8125 390.6 583.1025 390.6 L 533.5025 390.6 C 532.4175 390.6 531.4875 391.53 531.4875 392.615 L 531.4875 468.72 C 531.4875 469.805 532.4175 470.735 533.5025 470.735 L 583.1025 470.735 C 596.2775 470.735 607.1275 459.575 607.1275 446.555 Z M 590.8525 446.555 C 590.8525 450.895 587.2875 454.615 583.1025 454.615 L 547.6075 454.615 L 547.6075 406.72 L 582.7925 406.72 C 587.4425 406.72 591.0075 410.285 591.0075 414.16 C 591.0075 418.965 586.9775 422.995 582.7925 422.995 L 553.4975 422.995 C 552.4125 422.995 551.4825 423.77 551.4825 424.855 L 551.4825 436.79 C 551.4825 437.875 552.4125 438.805 553.4975 438.805 L 582.7925 438.805 C 587.2875 438.805 591.0075 442.37 591.0075 446.555 Z" fill="#0077C9"/>
        </g>
        <g id="Graphic_15">
          <path d="M 697.4625 418.965 C 697.4625 404.705 685.3725 390.755 670.1825 390.755 L 646.6225 390.755 C 631.8975 390.755 619.1875 403.465 619.1875 418.19 L 619.1875 468.875 C 619.1875 469.96 620.1175 470.89 621.2025 470.89 L 633.2925 470.89 C 634.3775 470.89 635.3075 469.96 635.3075 468.875 L 635.3075 418.19 C 635.3075 412.455 640.7325 407.03 646.6225 407.03 L 670.1825 407.03 C 675.9175 407.03 681.4975 412.92 681.4975 418.965 C 681.4975 425.165 676.2275 430.59 670.1825 430.59 L 641.5075 430.59 C 640.4225 430.59 639.4925 431.365 639.4925 432.45 L 639.4925 444.695 C 639.4925 445.78 640.4225 446.71 641.5075 446.71 L 650.9625 446.71 C 656.8525 446.71 662.2775 451.98 662.2775 457.715 L 662.2775 468.875 C 662.2775 469.96 663.0525 470.89 664.1375 470.89 L 676.3825 470.89 C 677.4675 470.89 678.3975 469.96 678.3975 468.875 L 678.3975 456.94 C 678.3975 452.755 677.4675 449.19 675.9175 445.935 C 688.1625 443.3 697.4625 431.675 697.4625 418.965 Z" fill="#0077C9"/>
        </g>
        <g id="Graphic_16">
          <path d="M 789.8125 468.875 L 789.8125 418.5 C 789.8125 402.69 775.7075 390.755 760.9825 390.755 L 737.2675 390.755 C 722.2325 390.755 709.5225 403.465 709.5225 418.5 L 709.5225 468.875 C 709.5225 469.96 710.4525 470.89 711.5375 470.89 L 723.7825 470.89 C 724.8675 470.89 725.7975 469.96 725.7975 468.875 L 725.7975 449.655 L 773.5375 449.655 L 773.5375 468.875 C 773.5375 469.96 774.3125 470.89 775.3975 470.89 L 787.7975 470.89 C 788.8825 470.89 789.8125 469.96 789.8125 468.875 Z M 773.3825 433.535 L 725.6425 433.535 L 725.6425 418.5 C 725.6425 412.455 731.2225 406.875 737.2675 406.875 L 760.9825 406.875 C 767.9575 406.875 773.5375 412.3 773.5375 418.81 Z" fill="#0077C9"/>
        </g>
        <g id="Graphic_17">
          <path d="M 880.1475 418.965 C 880.1475 404.705 868.0575 390.755 852.8675 390.755 L 829.3075 390.755 C 814.5825 390.755 801.8725 403.465 801.8725 418.19 L 801.8725 468.875 C 801.8725 469.96 802.8025 470.89 803.8875 470.89 L 815.9775 470.89 C 817.0625 470.89 817.9925 469.96 817.9925 468.875 L 817.9925 418.19 C 817.9925 412.455 823.4175 407.03 829.3075 407.03 L 852.8675 407.03 C 858.6025 407.03 864.1825 412.92 864.1825 418.965 C 864.1825 425.165 858.9125 430.59 852.8675 430.59 L 824.1925 430.59 C 823.1075 430.59 822.1775 431.365 822.1775 432.45 L 822.1775 444.695 C 822.1775 445.78 823.1075 446.71 824.1925 446.71 L 833.6475 446.71 C 839.5375 446.71 844.9625 451.98 844.9625 457.715 L 844.9625 468.875 C 844.9625 469.96 845.7375 470.89 846.8225 470.89 L 859.0675 470.89 C 860.1525 470.89 861.0825 469.96 861.0825 468.875 L 861.0825 456.94 C 861.0825 452.755 860.1525 449.19 858.6025 445.935 C 870.8475 443.3 880.1475 431.675 880.1475 418.965 Z" fill="#0077C9"/>
        </g>
        <g id="Graphic_18">
          <path d="M 972.6525 468.875 L 972.6525 456.63 C 972.6525 455.545 971.7225 454.615 970.6375 454.615 L 941.0325 454.615 L 941.0325 407.03 L 970.4825 407.03 C 971.5675 407.03 972.4975 406.255 972.4975 405.17 L 972.4975 392.77 C 972.4975 391.685 971.5675 390.755 970.4825 390.755 L 894.2225 390.755 C 893.1375 390.755 892.2075 391.685 892.2075 392.77 L 892.2075 405.17 C 892.2075 406.255 893.1375 407.185 894.2225 407.185 L 925.0675 407.185 L 925.0675 454.77 L 894.2225 454.77 C 893.1375 454.77 892.2075 455.545 892.2075 456.63 L 892.2075 468.875 C 892.2075 469.96 893.1375 470.89 894.2225 470.89 L 970.6375 470.89 C 971.7225 470.89 972.6525 469.96 972.6525 468.875 Z" fill="#0077C9"/>
        </g>
        <g id="Graphic_19">
          <path d="M 1055.8575 468.875 L 1055.8575 456.63 C 1055.8575 455.545 1054.9275 454.615 1053.8425 454.615 L 1008.7375 454.615 C 1004.5525 454.615 1000.8325 451.05 1000.8325 446.555 L 1000.8325 438.805 L 1038.1875 438.805 C 1039.2725 438.805 1040.2025 438.03 1040.2025 436.945 L 1040.2025 424.855 C 1040.2025 423.77 1039.2725 422.84 1038.1875 422.84 L 1000.8325 422.84 L 1000.8325 414.315 C 1000.8325 410.44 1004.3975 406.875 1009.0475 406.875 L 1053.8425 406.875 C 1054.9275 406.875 1055.8575 406.1 1055.8575 405.015 L 1055.8575 392.77 C 1055.8575 391.685 1054.9275 390.755 1053.8425 390.755 L 1008.7375 390.755 C 996.0275 390.755 984.7125 400.985 984.7125 414.315 L 984.7125 446.555 C 984.7125 459.575 995.4075 470.89 1008.7375 470.89 L 1053.8425 470.89 C 1054.9275 470.89 1055.8575 469.96 1055.8575 468.875 Z" fill="#0077C9"/>
        </g>
        <g id="Graphic_20">
          <path d="M 1146.9675 446.555 C 1146.9675 432.915 1135.1875 422.995 1122.6325 422.995 L 1092.2525 422.995 C 1087.7575 422.995 1084.0375 419.43 1084.0375 414.935 C 1084.0375 410.44 1087.7575 406.72 1092.2525 406.72 L 1111.7825 406.72 C 1112.8675 406.72 1113.7975 405.945 1113.7975 404.86 L 1113.7975 392.615 C 1113.7975 391.53 1112.8675 390.6 1111.7825 390.6 L 1092.2525 390.6 C 1078.9225 390.6 1067.9175 401.605 1067.9175 414.935 C 1067.9175 428.42 1078.9225 439.27 1092.2525 439.27 L 1122.6325 439.27 C 1127.2825 439.27 1130.8475 442.68 1130.8475 446.555 C 1130.8475 450.895 1126.9725 454.77 1122.6325 454.77 L 1103.1025 454.77 C 1102.0175 454.77 1101.0875 455.545 1101.0875 456.63 L 1101.0875 468.875 C 1101.0875 469.96 1102.0175 470.89 1103.1025 470.89 L 1122.6325 470.89 C 1135.9625 470.89 1146.9675 459.885 1146.9675 446.555 Z" fill="#0077C9"/>
        </g>
      </g>
    </g>
  </g>
</svg>
