<svg fill="none" height="24" viewBox="0 0 24 24" width="24" xmlns="http://www.w3.org/2000/svg"><g fill="#4285f4"><path clip-rule="evenodd" d="m20.625 8.34876v10.28814c0 1.1034-.8847 1.9881-1.988 1.9881h-10.28823c-1.09343 0-1.98805-.8847-1.98805-1.9881h12.27628v-12.2762c1.1033 0 1.988.89463 1.988 1.98806z" fill-rule="evenodd"/><path clip-rule="evenodd" d="m15.6512 3.375h-10.28814c-1.09344 0-1.98806.89462-1.98806 1.98806v10.28814c0 1.1034.89462 1.9881 1.98806 1.9881h10.28814c1.1034 0 1.9881-.8847 1.9881-1.9881v-10.28814c0-1.09344-.8847-1.98806-1.9881-1.98806zm0 12.2762h-10.28814v-10.28814h10.28814z" fill-rule="evenodd"/></g></svg>