<?xml version="1.0" encoding="UTF-8" standalone="no"?>
<!DOCTYPE svg PUBLIC "-//W3C//DTD SVG 1.1//EN" "http://www.w3.org/Graphics/SVG/1.1/DTD/svg11.dtd">
<!-- Created with Vectornator (http://vectornator.io/) -->
<svg height="841.8900000000001pt" stroke-miterlimit="10" style="fill-rule:nonzero;clip-rule:evenodd;stroke-linecap:round;stroke-linejoin:round;" version="1.1" viewBox="0 0 841.89 841.89" width="841.8900146484375pt" xml:space="preserve" xmlns="http://www.w3.org/2000/svg" xmlns:xlink="http://www.w3.org/1999/xlink">
<defs/>
<g id="Untitled">
<g opacity="1">
<g opacity="1">
<clipPath clip-rule="nonzero" id="ClipPath">
<path d="M0 123.305L841.89 123.305L841.89 718.585L0 718.585L0 123.305Z"/>
</clipPath>
<g clip-path="url(#ClipPath)">
<path d="M608.102 363.808C608.102 363.808 603.58 328.869 585.083 318.181C566.586 307.494 543.156 291.052 543.156 291.052C543.156 291.052 556.309 257.757 550.144 244.603C543.978 231.449 479.443 162.393 399.288 157.871C408.331 163.215 421.484 173.08 421.484 173.08C421.484 173.08 357.36 153.349 333.519 153.76C341.74 168.147 361.06 208.841 361.06 208.841C361.06 208.841 342.151 194.044 333.519 191.577C342.973 206.786 349.961 213.774 348.728 231.86C347.495 249.947 345.851 279.542 356.538 284.064C349.139 292.696 349.139 307.494 349.139 307.494C349.139 307.494 250.487 391.76 239.388 449.718C232.812 490.823 252.131 513.842 252.131 513.842C252.131 513.842 179.375 593.175 146.902 606.74C151.834 614.139 237.333 613.728 280.494 582.899L269.395 598.108C269.395 598.108 266.929 605.096 287.892 597.697C308.856 590.298 348.728 570.156 348.728 570.156C348.728 570.156 301.868 635.513 303.512 638.802C305.157 642.09 311.734 640.446 321.599 633.047C317.077 642.912 315.022 649.9 318.721 648.667C322.421 647.434 342.973 625.648 342.973 625.648C342.973 625.648 350.783 648.127 352.428 648.808L353.661 609.754C353.661 609.754 399.699 581.255 412.304 534.121C411.756 564.812 412.304 607.014 400.795 623.456C401.891 631.677 408.468 626.744 408.468 626.744C408.468 626.744 438.058 577.966 439.705 569.197C442.996 579.062 439.705 598.245 439.705 598.245C439.705 598.245 427.102 604.273 428.198 607.562C429.294 610.85 441.9 607.562 441.9 607.562C441.9 607.562 459.986 634.417 467.659 633.869C467.659 628.388 461.082 610.302 461.082 610.302C461.082 610.302 490.678 624.004 498.351 622.908C506.024 621.812 455.602 593.86 455.602 593.86C455.602 593.86 453.957 576.87 456.15 573.582C468.755 570.293 471.496 565.909 474.784 558.784C478.073 551.659 492.87 513.842 492.87 513.842C492.87 513.842 508.216 501.784 511.505 496.852C532.331 507.265 581.11 523.707 599.744 513.294C601.936 504.525 572.34 490.823 572.34 490.823C572.34 490.823 660.58 507.265 692.916 473.833C698.396 461.775 635.917 451.91 635.917 451.91C635.917 451.91 728.085 449.718 737.309 423.411C735.117 409.709 681.406 407.517 681.406 407.517L681.954 404.228C681.954 404.228 713.194 405.872 711.55 363.123C707.166 345.037 693.464 343.94 693.464 343.94C693.464 343.94 686.887 323.114 668.801 312.701C664.416 311.056 662.224 312.152 662.224 312.152C662.224 312.152 678.118 281.461 664.964 254.057C651.811 226.654 620.571 206.923 618.926 209.115C617.282 211.308 641.397 245.288 621.119 315.989C607.417 324.21 607.965 330.239 607.965 330.239C607.965 330.239 619.474 354.902 606.321 370.248C593.167 385.594 588.235 388.079 588.235 388.079C588.235 388.079 552.062 378.469 537.264 363.123L522.466 348.873C522.466 348.873 532.879 340.104 546.581 347.229C560.283 354.354 594.811 359.834 599.744 360.383C604.677 360.931 608.102 363.808 608.102 363.808" fill="#262261" fill-rule="nonzero" opacity="1" stroke="none"/>
<path d="M455.19 258.373C455.19 258.373 463.206 233.093 484.169 249.535C487.663 258.167 481.908 271.938 481.908 271.938C481.908 271.938 488.28 276.254 489.102 281.803C489.102 281.803 465.603 261.867 442.105 256.318C448.613 255.496 455.19 258.373 455.19 258.373M518.081 349.558C504.379 349.969 498.35 347.229 498.35 347.229C498.35 347.229 517.259 346.407 528.768 342.022C515.341 335.993 466.108 316.537 452.222 286.393C446.284 286.667 442.105 286.941 442.105 286.941C442.105 286.941 454.231 279.816 467.111 280.912C479.99 282.008 527.672 291.874 538.634 286.941C546.855 265.84 549.869 247.48 544.662 241.451C539.456 235.423 498.898 187.74 416.962 164.722C428.472 171.847 432.308 180.068 432.308 180.068C432.308 180.068 365.718 160.063 340.506 158.419C349.276 172.121 365.718 202.812 365.17 214.048C352.29 205.553 346.535 202.538 346.535 202.538C346.535 202.538 353.386 214.048 352.29 228.024C351.194 241.999 349.002 276.254 360.511 283.653C355.578 293.244 349.55 302.561 353.112 309.686C356.674 316.811 371.472 337.363 424.909 342.57C399.15 359.834 369.006 379.839 372.569 419.848C385.722 425.329 395.039 423.684 406.001 422.04C416.962 420.396 430.39 420.396 436.419 434.646C442.447 448.896 464.096 485.068 448.202 540.697C479.168 520.967 528.22 480.41 540.004 440.949C550.417 401.214 545.21 371.892 518.081 349.558" fill="#e6e7e8" fill-rule="nonzero" opacity="1" stroke="none"/>
<path d="M479.717 270.499C479.717 270.499 479.524 270.382 479.171 270.172C476.356 268.499 463.396 260.936 457.656 260.086C463.548 250.357 473.824 244.74 482.183 252.276C483.691 256.934 484.239 267.211 479.717 270.499" fill="#ffffff" fill-rule="nonzero" opacity="1" stroke="none"/>
</g>
</g>
<g opacity="1">
<clipPath clip-rule="nonzero" id="ClipPath_2">
<path d="M457.656 260.085C463.396 260.935 476.357 268.499 479.171 270.172C479.523 270.381 479.716 270.498 479.716 270.498C484.238 267.211 483.69 256.935 482.183 252.275C479.491 249.848 476.6 248.785 473.72 248.785C467.66 248.786 461.65 253.491 457.656 260.085"/>
</clipPath>
<g clip-path="url(#ClipPath_2)">
<path d="M474.099 270.499C474.099 270.499 479.306 263.511 478.21 257.756C477.113 252.002 464.645 249.809 464.645 249.809C464.645 249.809 450.943 258.441 454.643 263.922C458.342 269.403 474.099 270.499 474.099 270.499" fill="#1d1b1a" fill-rule="nonzero" opacity="1" stroke="none"/>
</g>
</g>
<g opacity="1">
<clipPath clip-rule="nonzero" id="ClipPath_3">
<path d="M0 123.305L841.89 123.305L841.89 718.585L0 718.585L0 123.305Z"/>
</clipPath>
<g clip-path="url(#ClipPath_3)">
<path d="M477.355 257.671C477.355 258.759 476.473 259.642 475.384 259.642C474.296 259.642 473.414 258.759 473.414 257.671C473.414 256.583 474.296 255.7 475.384 255.7C476.473 255.7 477.355 256.583 477.355 257.671" fill="#ffffff" fill-rule="nonzero" opacity="1" stroke="none"/>
<path d="M486.019 286.735C486.019 286.735 460.534 280.98 454.162 286.735C463.822 298.861 519.109 348.598 592.481 355.586C578.917 346.749 571.107 338.528 563.091 338.117C555.076 337.705 528.152 328.662 522.192 324.552C516.231 320.441 488.471 295.994 486.019 286.735" fill="#9b7146" fill-rule="nonzero" opacity="1" stroke="none"/>
<path d="M489.924 287.969C489.924 287.969 514.793 317.679 519.725 319.883C524.658 322.086 548.91 333.185 566.38 336.062C583.849 338.939 603.991 359.287 603.991 359.287C603.991 359.287 602.758 336.268 585.905 324.758C569.052 313.249 541.306 296.601 540.278 292.491C527.33 292.696 494.861 292.491 489.924 287.969" fill="#b38a5d" fill-rule="nonzero" opacity="1" stroke="none"/>
<path d="M253.364 519.048C253.364 519.048 256.378 534.394 262.407 540.697C260.763 555.221 266.518 573.855 271.724 573.033C276.931 572.211 308.719 549.74 308.719 549.74C308.719 549.74 294.195 582.35 236.374 595.23C185.403 605.369 159.096 605.369 159.096 605.369C159.096 605.369 231.441 558.509 253.364 519.048" fill="#e6e7e8" fill-rule="nonzero" opacity="1" stroke="none"/>
<path d="M445.188 573.307L443.874 601.807L439.705 603.725C439.705 603.725 445.188 602.355 447.928 607.287C450.669 612.22 459.986 622.085 459.986 622.085C459.986 622.085 452.039 602.903 455.601 604.273C459.164 605.643 479.716 612.494 479.716 612.494C479.716 612.494 455.327 598.792 453.683 595.504C452.039 592.215 449.573 573.307 449.573 573.307L445.188 573.307Z" fill="#a1aeb5" fill-rule="nonzero" opacity="1" stroke="none"/>
<path d="M349.334 315.304C349.334 315.304 349.779 315.812 350.64 316.696C356.215 322.422 379.218 343.942 411.619 345.722C370.925 379.839 362.293 390.115 369.281 422.589C385.312 432.865 410.797 425.466 421.484 427.932C432.172 430.399 456.399 479.314 443.874 536.861C431.35 582.488 410.386 607.151 410.386 607.151C410.386 607.151 423.54 545.493 417.374 509.732C417.374 509.732 405.453 575.5 315.844 629.759C350.784 591.758 365.581 548.37 365.581 548.37C365.581 548.37 318.541 586.64 278.438 590.709C306.39 565.224 330.642 532.751 330.642 532.751C330.642 532.751 287.07 558.784 274.739 562.209C287.07 531.928 310.911 497.811 310.911 497.811C310.911 497.811 279.26 527.544 270.628 562.209C267.34 543.027 273.094 510.143 275.972 485.48C266.107 517.131 264.462 531.928 264.462 531.928C264.462 531.928 246.376 499.044 264.462 453.006C254.124 465.191 246.376 499.044 246.376 499.044C246.376 499.044 227.643 469.954 260.892 415.768C294.141 361.582 349.334 315.304 349.334 315.304" fill="#b38a5d" fill-rule="nonzero" opacity="1" stroke="none"/>
<path d="M541.1 372.988C541.1 372.988 578.369 437.112 513.696 491.919C535.119 506.578 573.71 513.294 592.481 508.909C561.379 496.852 559.734 485.342 559.734 485.342C559.734 485.342 639.752 499.044 677.021 477.669C649.07 481.506 586.59 475.477 586.59 475.477C586.59 475.477 677.021 477.806 686.338 472.531C662.771 463.968 603.991 448.622 603.991 448.622C603.991 448.622 704.425 454.102 728.54 428.343C700.04 436.564 663.319 434.92 663.319 434.92C663.319 434.92 716.482 429.987 728.54 419.574C707.713 415.737 679.213 410.805 679.213 410.805L679.213 401.281C679.213 401.281 672.637 394.676 672.637 388.079C666.882 383.949 664.827 383.538 664.827 383.538C664.827 383.538 669.759 391.348 657.839 397.103C658.661 386.005 661.949 388.471 659.483 379.017C657.017 369.563 649.618 359.286 649.618 359.286C649.618 359.286 635.642 353.121 631.12 351.476C640.164 347.777 685.79 377.784 688.257 380.25C674.692 355.587 646.329 320.442 631.12 323.628C615.911 326.813 612.623 330.513 612.623 330.513C612.623 330.513 627.421 357.642 607.279 379.428C587.138 401.214 570.696 391.759 563.708 385.594C556.72 379.428 541.1 372.988 541.1 372.988" fill="#b38a5d" fill-rule="nonzero" opacity="1" stroke="none"/>
<path d="M687.161 369.425C687.983 369.973 693.19 386.963 693.19 386.963L681.954 380.112C681.954 380.112 677.022 384.771 674.555 385.045C675.926 392.17 677.022 400.665 687.435 397.651C697.848 394.636 708.071 380.072 708.536 368.055C709.001 356.037 691.546 350.517 691.546 350.517L687.161 369.425Z" fill="#b38a5d" fill-rule="nonzero" opacity="1" stroke="none"/>
<path d="M681.954 362.575C681.954 362.575 690.864 347.745 687.435 337.09C684.006 326.435 667.704 315.989 667.704 315.989L651.536 327.225C651.536 327.225 681.066 354.05 681.954 362.575" fill="#b38a5d" fill-rule="nonzero" opacity="1" stroke="none"/>
<path d="M647.426 325.58C647.426 325.58 637.013 316.537 623.859 317.359C631.532 297.903 638.383 246.11 626.051 217.336C650.612 233.048 687.572 271.732 647.426 325.58" fill="#b38a5d" fill-rule="nonzero" opacity="1" stroke="none"/>
</g>
</g>
<g opacity="1">
<clipPath clip-rule="nonzero" id="ClipPath_4">
<path d="M631.12 323.627C615.911 326.813 612.624 330.512 612.624 330.512C612.624 330.512 627.422 357.642 607.279 379.427C587.138 401.214 570.696 391.759 563.708 385.593C556.72 379.427 541.101 372.988 541.101 372.988C541.101 372.988 578.369 437.112 513.697 491.919C535.119 506.578 573.71 513.293 592.482 508.909C561.379 496.851 559.734 485.342 559.734 485.342C559.734 485.342 639.752 499.043 677.021 477.669C649.07 481.505 586.59 475.477 586.59 475.477C586.59 475.477 677.021 477.806 686.338 472.531C662.772 463.967 603.991 448.621 603.991 448.621C603.991 448.621 704.425 454.102 728.54 428.343C700.041 436.564 663.32 434.919 663.32 434.919C663.32 434.919 716.483 429.987 728.54 419.573C707.713 415.737 679.214 410.805 679.214 410.805L679.214 401.281C679.214 401.281 672.637 394.675 672.637 388.079C666.882 383.949 664.827 383.538 664.827 383.538C664.827 383.538 669.759 391.348 657.839 397.103C658.661 386.004 661.95 388.47 659.483 379.017C657.017 369.562 649.618 359.286 649.618 359.286C649.618 359.286 635.642 353.12 631.12 351.476C640.164 347.777 685.791 377.784 688.257 380.25C675.272 356.64 648.726 323.425 633.14 323.425C632.444 323.425 631.77 323.491 631.12 323.627"/>
</clipPath>
<g clip-path="url(#ClipPath_4)">
<path d="M547.241 403.68C547.241 403.68 570.148 413.545 598.099 407.516C587.138 405.872 584.398 403.68 584.398 403.68C584.398 403.68 620.022 404.228 634.82 381.757C624.955 381.757 621.118 388.079 621.118 388.079C621.118 388.079 633.998 364.493 631.121 351.476C625.503 361.479 623.859 362.575 623.859 362.575C623.859 362.575 617.282 328.594 623.859 329.143C638.108 328.046 670.993 356.546 697.848 379.017C685.791 393.815 674.555 394.836 674.555 394.836L669.878 409.468C669.878 409.468 652.906 414.641 647.426 412.449C670.445 416.286 689.703 421.942 702.781 416.83C702.781 416.83 656.743 434.372 613.445 426.699C619.474 436.016 688.22 437.66 688.22 437.66C688.22 437.66 613.445 450.814 588.234 442.593C616.361 451.909 660.579 469.996 660.579 469.996C660.579 469.996 588.234 474.929 570.148 463.968C568.504 479.314 623.859 485.89 623.859 485.89C623.859 485.89 562.999 486.469 546.958 480.41C546.581 490.275 570.696 505.621 570.696 505.621C570.696 505.621 517.371 501.713 504.572 494.898C527.947 526.448 628.243 540.697 629.887 540.697C631.532 540.697 751.011 444.785 753.751 440.401C756.491 436.016 758.136 379.017 758.136 368.055C758.136 357.094 701.685 311.604 698.944 311.604C696.204 311.604 614.542 303.383 614.542 303.383L541.65 328.963L530.139 368.604L547.241 403.68Z" fill="#9b7146" fill-rule="nonzero" opacity="1" stroke="none"/>
</g>
</g>
<g opacity="1">
<clipPath clip-rule="nonzero" id="ClipPath_5">
<path d="M623.858 317.359C637.013 316.537 647.426 325.58 647.426 325.58C687.572 271.732 650.612 233.049 626.051 217.336C638.383 246.11 631.532 297.903 623.858 317.359"/>
</clipPath>
<g clip-path="url(#ClipPath_5)">
<path d="M635.368 319.882C635.368 319.882 654.002 245.287 621.118 212.403C600.292 277.076 613.738 329.402 635.368 319.882" fill="#9b7146" fill-rule="nonzero" opacity="1" stroke="none"/>
</g>
</g>
<g opacity="1">
<clipPath clip-rule="nonzero" id="ClipPath_6">
<path d="M651.536 327.224C651.536 327.224 681.066 354.05 681.954 362.575C681.954 362.575 690.863 347.745 687.434 337.089C684.005 326.434 667.705 315.989 667.705 315.989L651.536 327.224Z"/>
</clipPath>
<g clip-path="url(#ClipPath_6)">
<path d="M656.477 331.848L668.526 322.292C668.526 322.292 685.266 340.694 688.22 346.407C690.729 337.408 680.661 314.913 668.8 312.7C656.94 310.487 650.166 327.224 650.166 327.224C650.166 327.224 650.457 333.731 656.477 331.848" fill="#9b7146" fill-rule="nonzero" opacity="1" stroke="none"/>
</g>
</g>
<g opacity="1">
<clipPath clip-rule="nonzero" id="ClipPath_7">
<path d="M687.161 369.426C687.982 369.974 693.19 386.964 693.19 386.964L681.954 380.113C681.954 380.113 677.021 384.771 674.555 385.045C675.925 392.17 677.021 400.665 687.434 397.651C697.848 394.636 708.07 380.073 708.536 368.055C709 356.037 691.546 350.517 691.546 350.517L687.161 369.426Z"/>
</clipPath>
<g clip-path="url(#ClipPath_7)">
<path d="M688.22 372.988L697.026 357.094C697.026 357.094 708.702 373.643 696.062 392.59C683.423 411.536 715.66 383.401 715.66 366.137C715.66 348.873 691.55 346.407 691.55 346.407C691.55 346.407 679.688 368.329 688.22 372.988" fill="#9b7146" fill-rule="nonzero" opacity="1" stroke="none"/>
</g>
</g>
<g opacity="1">
<clipPath clip-rule="nonzero" id="ClipPath_8">
<path d="M0 123.305L841.89 123.305L841.89 718.585L0 718.585L0 123.305Z"/>
</clipPath>
<g clip-path="url(#ClipPath_8)">
<path d="M671.541 382.579L677.296 376.55L655.099 362.574C655.099 362.574 659.757 380.387 671.541 382.579" fill="#b38a5d" fill-rule="nonzero" opacity="1" stroke="none"/>
</g>
</g>
<g opacity="1">
<clipPath clip-rule="nonzero" id="ClipPath_9">
<path d="M260.892 415.767C227.643 469.954 246.376 499.043 246.376 499.043C246.376 499.043 254.123 465.191 264.462 453.006C246.376 499.043 264.462 531.928 264.462 531.928C264.462 531.928 266.107 517.13 275.971 485.479C273.094 510.142 267.34 543.026 270.628 562.209C279.26 527.543 310.911 497.811 310.911 497.811C310.911 497.811 287.07 531.928 274.738 562.209C287.07 558.784 330.642 532.75 330.642 532.75C330.642 532.75 306.39 565.223 278.438 590.708C318.541 586.639 365.581 548.37 365.581 548.37C365.581 548.37 350.784 591.758 315.844 629.759C405.453 575.499 417.373 509.731 417.373 509.731C423.539 545.493 410.386 607.151 410.386 607.151C410.386 607.151 431.349 582.487 443.874 536.861C456.398 479.313 432.172 430.398 421.484 427.932C417.656 427.049 411.928 427.431 405.418 427.814C393.752 428.499 379.569 429.184 369.281 422.589C362.292 390.115 370.925 379.839 411.619 345.721C379.218 343.941 356.215 322.422 350.64 316.695C349.78 315.812 349.334 315.303 349.334 315.303C349.334 315.303 294.141 361.581 260.892 415.767"/>
</clipPath>
<g clip-path="url(#ClipPath_9)">
<path d="M340.507 319.882C340.507 319.882 350.372 343.666 366.814 349.558C337.219 365.315 336.122 388.079 336.122 388.079C336.122 388.079 345.988 379.564 353.661 381.209C333.382 397.103 334.478 429.439 340.507 440.948C345.988 424.506 351.468 422.862 351.468 422.862C351.468 422.862 354.209 465.611 379.968 471.64L379.42 455.198C379.42 455.198 374.826 467.588 413.948 477.121C413.948 477.121 401.891 466.159 406.275 457.938C423.265 465.611 438.474 472.736 442.105 486.438C445.736 480.409 437.515 564.812 420.525 573.307C423.265 505.62 416.689 494.111 416.689 494.111C416.689 494.111 381.064 586.735 340.507 607.561C395.314 524.803 389.537 511.649 389.537 511.649C389.537 511.649 343.948 557.046 308.719 569.497C354.209 518.226 371.747 499.592 371.747 499.592C371.747 499.592 312.007 535.216 296.661 540.697C312.555 502.88 326.805 480.957 326.805 480.957C326.805 480.957 297.758 497.947 285.152 520.418C286.796 499.592 285.7 478.765 285.152 459.583C266.518 488.63 257.193 510.005 257.193 510.005C257.193 510.005 265.421 459.035 271.45 434.371C260.489 436.564 250.624 477.669 250.624 477.669C250.624 477.669 252.816 423.958 264.873 408.612C245.691 405.872 227.057 474.929 250.624 508.361C258.295 534.33 261.585 535.216 264.325 536.86C263.011 556.08 265.515 568.596 271.45 569.497C277.386 570.398 316.94 544.958 316.94 544.958C316.94 544.958 265.625 594.905 271.998 597.696C278.372 600.487 345.114 575.225 345.114 575.225C345.114 575.225 291.39 644 299.95 642.09C308.51 640.179 347.084 617.975 365.718 605.369C384.353 592.763 412.268 536.303 412.268 536.303C412.268 536.303 394.218 628.388 398.602 629.484C402.987 630.58 419.332 605.005 430.045 589.533C440.757 574.06 467.111 524.255 456.698 468.9C446.284 413.545 394.218 408.612 394.218 408.612L442.105 333.527L340.507 303.383L340.507 319.882Z" fill="#9b7146" fill-rule="nonzero" opacity="1" stroke="none"/>
</g>
</g>
<g opacity="1">
<clipPath clip-rule="nonzero" id="ClipPath_10">
<path d="M159.096 605.37C159.096 605.37 185.404 605.37 236.373 595.23C294.195 582.35 308.719 549.741 308.719 549.741C308.719 549.741 276.931 572.211 271.724 573.033C266.518 573.855 260.762 555.221 262.407 540.697C256.378 534.394 253.363 519.049 253.363 519.049C231.441 558.509 159.096 605.37 159.096 605.37"/>
</clipPath>
<g clip-path="url(#ClipPath_10)">
<g opacity="0.399994">
<clipPath clip-rule="nonzero" id="ClipPath_11">
<path d="M121.205 626.611L330.36 626.611L330.36 508.421L121.205 508.421L121.205 626.611Z"/>
</clipPath>
<g clip-path="url(#ClipPath_11)">
<path d="M257.193 527.426C257.193 527.426 205.158 589.475 186.922 596.051C216.78 588.653 231.748 575.91 241.117 565.634C241.443 583.72 236.921 585.775 236.921 585.775C236.921 585.775 248.954 578.174 257.193 571.799L261.996 577.965C261.996 577.965 287.946 550.873 303.923 544.957C319.9 539.042 336.396 554.124 328.175 564.4C319.954 574.677 250.486 629.758 193.761 626.469C137.036 623.181 101.587 631.813 132.876 602.217C164.165 572.621 242.667 504.226 248.632 508.623C254.597 513.019 257.193 527.426 257.193 527.426" fill="#26aae1" fill-rule="nonzero" opacity="1" stroke="none"/>
</g>
</g>
</g>
</g>
<g opacity="1">
<clipPath clip-rule="nonzero" id="ClipPath_12">
<path d="M0 123.305L841.89 123.305L841.89 718.585L0 718.585L0 123.305Z"/>
</clipPath>
<g clip-path="url(#ClipPath_12)">
<path d="M349.139 613.522C349.139 613.522 350.989 631.608 350.783 635.513C347.084 622.154 344.206 621.4 342.151 622.086C340.096 622.771 327.148 635.513 327.148 635.513L329.82 627.703C329.82 627.703 347.906 617.016 349.139 613.522" fill="#a1aeb5" fill-rule="nonzero" opacity="1" stroke="none"/>
</g>
</g>
<g opacity="1">
<clipPath clip-rule="nonzero" id="ClipPath_13">
<path d="M365.17 214.048C352.291 205.553 346.536 202.538 346.536 202.538C346.536 202.538 353.387 214.048 352.291 228.024C351.194 241.999 349.002 276.254 360.511 283.653C355.579 293.244 349.55 302.561 353.112 309.685C356.674 316.811 371.473 337.363 424.91 342.569C399.15 359.834 369.006 379.839 372.568 419.848C385.723 425.328 395.04 423.684 406.001 422.039C416.963 420.396 430.39 420.396 436.419 434.646C442.448 448.896 464.097 485.068 448.203 540.697C479.168 520.967 528.221 480.409 540.004 440.948C550.417 401.214 545.211 371.892 518.081 349.558C504.38 349.969 498.351 347.229 498.351 347.229C498.351 347.229 517.26 346.406 528.769 342.022C515.341 335.993 466.108 316.537 452.223 286.392C446.284 286.667 442.105 286.94 442.105 286.94C442.105 286.94 454.231 279.816 467.111 280.912C479.991 282.008 527.673 291.873 538.634 286.94C546.855 265.84 549.869 247.48 544.663 241.451C539.456 235.423 498.899 187.741 416.963 164.721C428.472 171.847 432.309 180.067 432.309 180.067C432.309 180.067 365.718 160.063 340.507 158.419C349.276 172.12 365.718 202.812 365.17 214.048M484.169 249.536C487.663 258.167 481.909 271.938 481.909 271.938C481.909 271.938 488.28 276.254 489.102 281.802C489.102 281.802 465.603 261.866 442.105 256.317C448.613 255.495 455.19 258.373 455.19 258.373C455.19 258.373 463.206 233.094 484.169 249.536"/>
</clipPath>
<g clip-path="url(#ClipPath_13)">
<g opacity="0.399994">
<clipPath clip-rule="nonzero" id="ClipPath_14">
<path d="M340.507 641.72L569.874 641.72L569.874 147.181L340.507 147.181L340.507 641.72Z"/>
</clipPath>
<g clip-path="url(#ClipPath_14)">
<path d="M554.254 203.497C547.677 196.509 437.104 146.772 410.797 147.183C384.49 147.594 340.507 147.183 340.507 147.183C340.507 147.183 430.385 181.711 439.705 209.663C435.46 190.343 433.405 186.644 433.405 186.644C433.405 186.644 481.087 215.829 489.924 236.792C490.13 223.639 485.608 211.718 485.608 211.718C485.608 211.718 506.161 235.148 506.161 246.657C510.683 244.602 510.683 235.97 510.683 235.97C510.683 235.97 521.37 263.922 510.683 270.498C509.359 271.313 507.302 272.038 504.7 272.722C498.038 270.681 489.743 266.447 483.168 257.671C469.988 240.081 426.006 222.816 404.22 220.35C417.785 224.05 422.717 231.86 422.717 231.86C422.717 231.86 410.386 221.994 396.821 226.516C403.56 230.607 409.858 234.125 413.936 236.346C409.622 234.851 402.359 234.057 392.3 238.847C401.754 238.436 411.208 242.958 411.208 242.958L398.876 251.179C398.876 251.179 435.167 245.775 485.111 276.496C464.309 280.065 438.223 284.85 432.172 297.217C453.135 325.168 477.355 339.281 477.355 339.281C477.355 339.281 459.159 330.101 439.705 334.212L447.38 337.5C447.38 337.5 429.36 336.02 422.642 342.336C415.923 348.652 340.918 384.36 357.36 423.821C373.802 463.282 438.551 537.857 435.049 554.535C431.547 571.214 401.343 621.126 432.583 629.758C463.823 638.39 477.782 648.509 485.745 635.513C493.708 622.517 509.86 597.285 504.517 583.72C504.517 583.72 495.063 525.488 498.351 519.048C501.639 512.608 519.178 474.38 513.697 453.828C502.461 467.803 497.118 474.791 497.118 474.791C497.118 474.791 503.695 464.926 499.584 443.14C491.774 463.693 477.798 467.803 477.798 467.803C477.798 467.803 488.486 447.662 481.498 429.576C472.866 434.919 463.925 444.785 463.925 444.785C463.925 444.785 469.575 420.121 459.711 405.324C447.38 405.735 442.105 416.829 442.105 416.829C442.105 416.829 426.828 395.086 415.729 388.079C419.429 401.213 407.92 404.501 407.92 404.501C407.92 404.501 398.876 386.826 413.674 376.139C422.306 383.949 425.184 388.079 425.184 388.079C425.184 388.079 447.2 364.629 452.223 352.709C462.178 368.74 461.356 375.317 461.356 375.317C461.356 375.317 466.289 365.04 466.7 359.286C471.222 366.274 469.577 371.206 469.577 371.206C469.577 371.206 473.277 367.918 475.743 362.163C477.798 374.906 473.688 381.071 476.976 379.016C480.265 376.961 492.185 360.108 492.185 355.586C501.639 367.096 504.928 376.139 504.928 376.139C504.928 376.139 500.406 358.875 504.928 355.586C510.271 366.274 515.432 369.151 515.432 369.151C515.432 369.151 515.263 368.972 515.432 359.286C523.014 364.218 525.891 365.04 525.891 365.04C525.891 365.04 524.496 352.988 525.891 349.557C527.287 346.127 540.278 336.678 540.278 336.678L569.874 277.075C569.874 277.075 560.831 210.485 554.254 203.497" fill="#26aae1" fill-rule="nonzero" opacity="1" stroke="none"/>
</g>
</g>
</g>
</g>
<g opacity="1">
<clipPath clip-rule="nonzero" id="ClipPath_15">
<path d="M0 123.305L841.89 123.305L841.89 718.585L0 718.585L0 123.305Z"/>
</clipPath>
<g clip-path="url(#ClipPath_15)">
<path d="M446.284 547.822C446.284 547.822 445.873 556.043 442.105 559.88C443.27 567.278 443.874 569.471 443.874 569.471C443.874 569.471 461.904 570.567 467.933 558.646C473.962 546.726 485.745 520.419 485.745 520.419L446.284 547.822Z" fill="#e6e7e8" fill-rule="nonzero" opacity="1" stroke="none"/>
<g opacity="0.399994">
<clipPath clip-rule="nonzero" id="ClipPath_16">
<path d="M442.105 569.497L485.745 569.497L485.745 520.418L442.105 520.418L442.105 569.497Z"/>
</clipPath>
<g clip-path="url(#ClipPath_16)">
<path d="M446.284 547.822C446.284 547.822 445.873 556.043 442.105 559.88C443.27 567.278 443.874 569.471 443.874 569.471C443.874 569.471 461.904 570.567 467.933 558.646C473.962 546.726 485.745 520.419 485.745 520.419L446.284 547.822Z" fill="#26aae1" fill-rule="nonzero" opacity="1" stroke="none"/>
</g>
</g>
<path d="M745.584 604.31C744.348 602.085 742.737 600.024 740.738 598.133C738.954 596.46 736.987 595.048 734.824 593.902C731.639 592.234 728.277 591.388 724.834 591.388L673.021 591.388L672.526 591.388L605.165 591.388C601.716 591.388 598.35 592.235 595.129 593.926C594.638 594.185 594.156 594.465 593.68 594.756C593.194 594.458 592.699 594.171 592.191 593.902C589.005 592.234 585.643 591.388 582.2 591.388L529.893 591.388C526.444 591.388 523.078 592.235 519.857 593.926C519.367 594.185 518.885 594.464 518.41 594.755C517.922 594.456 517.426 594.17 516.919 593.902C513.733 592.234 510.371 591.388 506.928 591.388L442.237 591.388L425.805 591.388L381.376 591.388L357.549 591.388L306.614 591.388L282.661 591.388L214.774 591.388L213.003 591.388L133.65 591.388L133.65 647.873L138.88 647.873L138.88 702.733L198.683 702.733L198.683 680.406L214.774 680.406C215.941 680.406 217.092 680.274 218.233 680.082L218.233 702.733L302.18 702.733L306.614 702.733L353.909 702.733L361.856 702.733L431.035 702.733L457.987 702.733L490.839 702.733L490.839 680.406L506.49 680.406C506.627 683.68 507.492 686.844 509.141 689.81C510.39 692.06 512.017 694.133 513.947 695.949C515.751 697.653 517.747 699.085 519.868 700.201C523.059 701.88 526.431 702.733 529.893 702.733L582.2 702.733C585.656 702.733 589.025 701.883 592.238 700.194C592.726 699.936 593.207 699.657 593.681 699.366C594.161 699.66 594.647 699.941 595.141 700.201C598.331 701.88 601.703 702.733 605.165 702.733L672.526 702.733L673.021 702.733L724.834 702.733C728.289 702.733 731.658 701.883 734.871 700.194C736.979 699.08 738.959 697.661 740.78 695.949C742.726 694.11 744.343 692.044 745.584 689.81C747.382 686.577 748.293 683.116 748.293 679.529L748.293 614.591C748.293 611.004 747.382 607.544 745.584 604.31" fill="#262261" fill-rule="nonzero" opacity="1" stroke="none"/>
<path d="M182.241 640.362L194.999 640.362L194.999 631.431L182.241 631.431L182.241 640.362ZM150.092 631.431L150.092 607.83L214.774 607.83C215.54 607.83 216.325 608.043 217.134 608.467C217.942 608.894 218.707 609.447 219.431 610.126C220.153 610.808 220.727 611.529 221.153 612.295C221.578 613.061 221.792 613.825 221.792 614.591L221.792 657.202C221.792 657.968 221.578 658.734 221.153 659.499C220.727 660.264 220.153 660.989 219.431 661.668C218.707 662.35 217.942 662.903 217.134 663.326C216.325 663.754 215.54 663.964 214.774 663.964L182.241 663.964L182.241 686.291L155.322 686.291L155.322 631.431L150.092 631.431Z" fill="#e6e7e8" fill-rule="nonzero" opacity="1" stroke="none"/>
<path d="M234.676 631.431L229.446 631.431L229.446 607.829L290.173 607.829L290.173 631.431L261.595 631.431L261.595 635.896L290.173 635.896L290.173 658.223L261.595 658.223L261.595 662.689L290.173 662.689L290.173 686.29L234.676 686.29L234.676 631.431Z" fill="#e6e7e8" fill-rule="nonzero" opacity="1" stroke="none"/>
<path d="M318.622 631.431L299.103 631.431L299.103 607.829L364.934 607.829L364.934 631.431L345.413 631.431L345.413 686.29L318.622 686.29L318.622 631.431Z" fill="#e6e7e8" fill-rule="nonzero" opacity="1" stroke="none"/>
<path d="M403.079 655.672L408.438 655.672L405.759 633.727L403.079 655.672ZM373.991 607.829L427.957 607.829L439.056 686.291L412.137 686.291L411.117 677.742L400.4 677.742L399.38 686.291L372.588 686.291L379.605 631.431L373.991 631.431L373.991 607.829Z" fill="#e6e7e8" fill-rule="nonzero" opacity="1" stroke="none"/>
<path d="M474.397 640.362L487.156 640.362L487.156 631.431L474.397 631.431L474.397 640.362ZM442.247 631.431L442.247 607.83L506.928 607.83C507.696 607.83 508.479 608.043 509.289 608.467C510.098 608.894 510.862 609.447 511.585 610.126C512.307 610.808 512.882 611.529 513.309 612.295C513.733 613.061 513.945 613.825 513.945 614.591L513.945 657.202C513.945 657.968 513.733 658.734 513.309 659.499C512.882 660.264 512.307 660.989 511.585 661.668C510.862 662.35 510.098 662.903 509.289 663.326C508.479 663.754 507.696 663.964 506.928 663.964L474.397 663.964L474.397 686.291L447.478 686.291L447.478 631.431L442.247 631.431Z" fill="#e6e7e8" fill-rule="nonzero" opacity="1" stroke="none"/>
<path d="M549.668 662.689L562.425 662.689L562.425 631.431L549.668 631.431L549.668 662.689ZM529.893 686.291C529.127 686.291 528.34 686.079 527.532 685.653C526.723 685.228 525.957 684.675 525.236 683.995C524.512 683.314 523.939 682.591 523.513 681.825C523.088 681.059 522.876 680.295 522.876 679.529L522.876 614.591C522.876 613.825 523.088 613.061 523.513 612.295C523.939 611.529 524.512 610.808 525.236 610.126C525.957 609.447 526.723 608.894 527.532 608.467C528.34 608.043 529.127 607.83 529.893 607.83L582.201 607.83C582.965 607.83 583.752 608.043 584.561 608.467C585.367 608.894 586.133 609.447 586.857 610.126C587.578 610.808 588.153 611.529 588.578 612.295C589.004 613.061 589.217 613.825 589.217 614.591L589.217 679.529C589.217 680.295 589.004 681.059 588.578 681.825C588.153 682.591 587.578 683.314 586.857 683.995C586.133 684.675 585.367 685.228 584.561 685.653C583.752 686.079 582.965 686.291 582.201 686.291L529.893 686.291Z" fill="#e6e7e8" fill-rule="nonzero" opacity="1" stroke="none"/>
<path d="M624.94 662.689L656.578 662.689L656.578 686.291L605.165 686.291C604.399 686.291 603.612 686.079 602.804 685.653C601.995 685.228 601.229 684.675 600.508 683.995C599.784 683.314 599.211 682.591 598.785 681.825C598.36 681.059 598.148 680.295 598.148 679.529L598.148 614.591C598.148 613.825 598.36 613.061 598.785 612.295C599.211 611.529 599.784 610.808 600.508 610.126C601.229 609.447 601.995 608.894 602.804 608.467C603.612 608.043 604.399 607.83 605.165 607.83L656.578 607.83L656.578 631.431L624.94 631.431L624.94 662.689Z" fill="#e6e7e8" fill-rule="nonzero" opacity="1" stroke="none"/>
<path d="M692.302 662.689L705.059 662.689L705.059 631.431L692.302 631.431L692.302 662.689ZM672.526 686.291C671.76 686.291 670.973 686.079 670.166 685.653C669.357 685.228 668.591 684.675 667.87 683.995C667.146 683.314 666.572 682.591 666.147 681.825C665.721 681.059 665.509 680.295 665.509 679.529L665.509 614.591C665.509 613.825 665.721 613.061 666.147 612.295C666.572 611.529 667.146 610.808 667.87 610.126C668.591 609.447 669.357 608.894 670.166 608.467C670.973 608.043 671.76 607.83 672.526 607.83L724.834 607.83C725.598 607.83 726.385 608.043 727.194 608.467C728 608.894 728.766 609.447 729.491 610.126C730.211 610.808 730.786 611.529 731.212 612.295C731.637 613.061 731.851 613.825 731.851 614.591L731.851 679.529C731.851 680.295 731.637 681.059 731.212 681.825C730.786 682.591 730.211 683.314 729.491 683.995C728.766 684.675 728 685.228 727.194 685.653C726.385 686.079 725.598 686.291 724.834 686.291L672.526 686.291Z" fill="#e6e7e8" fill-rule="nonzero" opacity="1" stroke="none"/>
</g>
</g>
</g>
</g>
</svg>
