<svg xmlns="http://www.w3.org/2000/svg" xmlns:xlink="http://www.w3.org/1999/xlink" viewBox="0 0 67.85 66.85" fill="#fff" fill-rule="evenodd" stroke="#000" stroke-linecap="round" stroke-linejoin="round"><style><![CDATA[.B{fill-rule:nonzero}]]></style><use xlink:href="#A" x="1.425" y="1.425"/><symbol id="A" overflow="visible"><g stroke="none"><g fill="#284b84" class="B"><path d="M20.155 7.804l3.078-3.078 24.636 24.636-3.078 3.078zm.006 49.26l24.636-24.636 3.078 3.078-24.636 24.636z"/><path d="M44.787 32.431l3.078-3.078 3.078 3.078-3.078 3.078z"/></g><g fill="#51bb8d"><path d="M50.947 32.44l9.227-9.227-18.47-18.47C39.255 2.292 35.932.914 32.467.914s-6.788 1.378-9.237 3.829l24.638 24.639z" class="B"/><path d="M60.197 41.666c2.452-2.449 3.829-5.772 3.829-9.237s-1.378-6.788-3.829-9.237L50.97 32.42z" class="B"/></g><path d="M44.782 38.585l6.165-6.145 9.247 9.227z" fill="#6e4698" class="B"/><path d="M16.138 28.429L40.743 3.825l3.07 3.07-24.604 24.604zm.011 6.162l3.07-3.07 24.604 24.604-3.07 3.07zm-3.09-3.078l3.07-3.07 3.07 3.07-3.07 3.073z" fill="#4572b5" class="B"/><path d="M13.06 31.519l-9.235 9.235 18.448 18.448c5.096 5.088 13.351 5.088 18.448 0L16.144 34.586zm-9.244-9.232c-5.088 5.096-5.088 13.351 0 18.447l9.235-9.235z" fill="#ed4c40" class="B"/><path d="M16.145 28.435L40.763 3.816c-5.096-5.088-13.351-5.088-18.448 0L3.868 22.264l9.235 9.235z" fill="#f9aa40" class="B"/><path d="M19.208 25.371l-6.148 6.148-9.215-9.235z" fill="#f48c45" class="B"/><path d="M47.866 35.52L23.247 60.139c2.449 2.453 5.772 3.831 9.238 3.831s6.789-1.378 9.238-3.831l18.47-18.47-9.227-9.227z" fill="#9c73b0" class="B"/></g></symbol></svg>