<?xml version="1.0" encoding="UTF-8" standalone="no"?>
<!-- Created with Inkscape (http://www.inkscape.org/) -->

<svg
   xmlns:dc="http://purl.org/dc/elements/1.1/"
   xmlns:cc="http://creativecommons.org/ns#"
   xmlns:rdf="http://www.w3.org/1999/02/22-rdf-syntax-ns#"
   xmlns:svg="http://www.w3.org/2000/svg"
   xmlns="http://www.w3.org/2000/svg"
   xmlns:sodipodi="http://sodipodi.sourceforge.net/DTD/sodipodi-0.dtd"
   xmlns:inkscape="http://www.inkscape.org/namespaces/inkscape"
   width="188.765mm"
   height="50.540489mm"
   viewBox="0 0 188.765 50.540489"
   version="1.1"
   id="svg8"
   inkscape:version="0.92.3 (2405546, 2018-03-11)"
   sodipodi:docname="jclouds.svg">
  <defs
     id="defs2" />
  <sodipodi:namedview
     id="base"
     pagecolor="#ffffff"
     bordercolor="#666666"
     borderopacity="1.0"
     inkscape:pageopacity="0.0"
     inkscape:pageshadow="2"
     inkscape:zoom="1.4"
     inkscape:cx="387.43709"
     inkscape:cy="163.62794"
     inkscape:document-units="mm"
     inkscape:current-layer="text817"
     showgrid="false"
     fit-margin-top="0"
     fit-margin-left="0"
     fit-margin-right="0"
     fit-margin-bottom="0"
     inkscape:window-width="3726"
     inkscape:window-height="2049"
     inkscape:window-x="114"
     inkscape:window-y="55"
     inkscape:window-maximized="1" />
  <metadata
     id="metadata5">
    <rdf:RDF>
      <cc:Work
         rdf:about="">
        <dc:format>image/svg+xml</dc:format>
        <dc:type
           rdf:resource="http://purl.org/dc/dcmitype/StillImage" />
        <dc:title></dc:title>
      </cc:Work>
    </rdf:RDF>
  </metadata>
  <g
     inkscape:label="Layer 1"
     inkscape:groupmode="layer"
     id="layer1"
     transform="translate(-14.297681,-141.58607)">
    <g
       aria-label="jclouds"
       style="font-style:normal;font-variant:normal;font-weight:normal;font-stretch:normal;font-size:55.17976379px;line-height:125%;font-family:'Myriad Pro';-inkscape-font-specification:'Myriad Pro';letter-spacing:0px;word-spacing:0px;fill:#484848;fill-opacity:1;stroke:none;stroke-width:2.00653672px;stroke-linecap:butt;stroke-linejoin:miter;stroke-opacity:1"
       id="text817">
      <path
         d="m 26.110626,148.77992 c -1.023843,0 -1.903988,-0.31434 -2.640437,-0.94301 -0.718487,-0.62868 -1.07773,-1.51781 -1.07773,-2.66739 0,-1.0418 0.368224,-1.895 1.104673,-2.5596 0.754411,-0.68257 1.625575,-1.02385 2.613494,-1.02385 0.951995,0 1.796217,0.30536 2.532665,0.91607 0.736449,0.61071 1.104673,1.49984 1.104673,2.66738 0,1.13162 -0.359243,2.02075 -1.077729,2.66739 -0.718486,0.62867 -1.571689,0.94301 -2.559609,0.94301 z"
         style="font-style:normal;font-variant:normal;font-weight:normal;font-stretch:normal;font-family:'Wolf Sans';-inkscape-font-specification:'Wolf Sans';fill:#368bc3;fill-opacity:1;stroke-width:2.00653672px"
         id="path830"
         inkscape:connector-curvature="0"
         sodipodi:nodetypes="scscssscs" />
      <path
         d="m 59.274132,177.34862 q 0,1.37411 -0.83524,2.93682 -0.808298,1.56271 -2.505722,2.9907 -1.670481,1.40105 -4.230089,2.26323 -2.559609,0.86218 -5.765855,0.86218 -6.81664,0 -10.642581,-3.96065 -3.825941,-3.9876 -3.825941,-10.66953 0,-4.52646 1.751311,-8.00214 1.751311,-3.47568 5.06533,-5.36171 3.314019,-1.91297 7.921314,-1.91297 2.855984,0 5.226989,0.83524 2.397949,0.83525 4.041487,2.15546 1.670481,1.32022 2.532665,2.82904 0.889127,1.48188 0.889127,2.77516 0,1.32022 -0.9969,2.23629 -0.969957,0.91607 -2.371006,0.91607 -0.91607,0 -1.535765,-0.45804 -0.592751,-0.48498 -1.347162,-1.53576 -1.347162,-2.04769 -2.829041,-3.07153 -1.454935,-1.02384 -3.718167,-1.02384 -3.260133,0 -5.253933,2.5596 -1.9938,2.53267 -1.9938,6.95136 0,2.07463 0.511922,3.82594 0.511921,1.72437 1.481878,2.96376 0.969957,1.21244 2.344062,1.85908 1.374106,0.6197 3.017644,0.6197 2.209346,0 3.772054,-1.02385 1.589651,-1.02384 2.802097,-3.12541 0.673581,-1.23939 1.454936,-1.93992 0.781354,-0.70052 1.91297,-0.70052 1.347162,0 2.236289,1.02384 0.889127,1.02385 0.889127,2.1824 z"
         style="font-style:normal;font-variant:normal;font-weight:normal;font-stretch:normal;font-family:'Wolf Sans';-inkscape-font-specification:'Wolf Sans';fill:#484848;fill-opacity:1;stroke-width:2.00653672px"
         id="path832"
         inkscape:connector-curvature="0" />
      <path
         d="m 63.254185,181.98286 v -31.9008 q 0,-2.20934 0.969957,-3.34096 0.9969,-1.13162 2.667381,-1.13162 1.670481,0 2.694325,1.13162 1.023843,1.10467 1.023843,3.34096 v 31.9008 q 0,2.23629 -1.050787,3.36791 -1.023843,1.10467 -2.667381,1.10467 -1.616594,0 -2.640438,-1.15856 -0.9969,-1.15856 -0.9969,-3.31402 z"
         style="font-style:normal;font-variant:normal;font-weight:normal;font-stretch:normal;font-family:'Wolf Sans';-inkscape-font-specification:'Wolf Sans';fill:#484848;fill-opacity:1;stroke-width:2.00653672px"
         id="path834"
         inkscape:connector-curvature="0" />
      <path
         d="m 105.82451,171.50194 q 0,3.28708 -1.02384,6.06223 -1.02384,2.77516 -2.96376,4.76896 -1.939911,1.9938 -4.634235,3.07152 -2.694325,1.05079 -6.06223,1.05079 -3.340962,0 -6.008344,-1.07773 -2.667381,-1.07773 -4.634238,-3.07153 -1.939913,-2.02074 -2.963756,-4.74201 -0.9969,-2.74821 -0.9969,-6.06223 0,-3.34096 1.023843,-6.11612 1.023843,-2.77515 2.936813,-4.74201 1.912971,-1.96685 4.634238,-3.01764 2.721268,-1.07773 6.008344,-1.07773 3.340962,0 6.06223,1.07773 2.721267,1.07773 4.661185,3.07153 1.93991,1.9938 2.93681,4.74201 1.02384,2.74821 1.02384,6.06223 z m -7.382446,0 q 0,-4.49952 -1.9938,-7.00524 -1.966857,-2.50572 -5.307819,-2.50572 -2.15546,0 -3.798998,1.13161 -1.643537,1.10468 -2.532664,3.28708 -0.889128,2.1824 -0.889128,5.09227 0,2.88293 0.862184,5.03839 0.889127,2.15546 2.505722,3.31402 1.643538,1.13161 3.852884,1.13161 3.340962,0 5.307819,-2.50572 1.9938,-2.53266 1.9938,-6.9783 z"
         style="font-style:normal;font-variant:normal;font-weight:normal;font-stretch:normal;font-family:'Wolf Sans';-inkscape-font-specification:'Wolf Sans';fill:#484848;fill-opacity:1;stroke-width:2.00653672px"
         id="path836"
         inkscape:connector-curvature="0" />
      <path
         d="m 130.69312,182.30618 v -0.94301 q -1.32022,1.67048 -2.77515,2.8021 -1.45494,1.13161 -3.1793,1.67048 -1.72437,0.5658 -3.93372,0.5658 -2.66738,0 -4.79589,-1.10467 -2.10158,-1.10467 -3.26014,-3.04458 -1.3741,-2.34407 -1.3741,-6.73582 v -14.57629 q 0,-2.20935 0.9969,-3.28708 0.9969,-1.10467 2.64044,-1.10467 1.67048,0 2.69432,1.10467 1.02384,1.10468 1.02384,3.28708 v 11.7742 q 0,2.55961 0.43109,4.31092 0.4311,1.72436 1.53577,2.72126 1.13162,0.96996 3.04459,0.96996 1.85908,0 3.50262,-1.10467 1.64354,-1.10468 2.39795,-2.88293 0.61969,-1.56271 0.61969,-6.84358 v -8.94516 q 0,-2.1824 1.02384,-3.28708 1.02385,-1.10467 2.66739,-1.10467 1.64353,0 2.64043,1.10467 0.9969,1.07773 0.9969,3.28708 v 21.31211 q 0,2.10157 -0.96995,3.15235 -0.94302,1.05079 -2.45184,1.05079 -1.50882,0 -2.50572,-1.07773 -0.96996,-1.10467 -0.96996,-3.07153 z"
         style="font-style:normal;font-variant:normal;font-weight:normal;font-stretch:normal;font-family:'Wolf Sans';-inkscape-font-specification:'Wolf Sans';fill:#484848;fill-opacity:1;stroke-width:2.00653672px"
         id="path838"
         inkscape:connector-curvature="0" />
      <path
         d="m 165.04577,182.2523 v -0.72747 q -1.48188,1.69742 -2.93682,2.77515 -1.42799,1.05079 -3.12541,1.58965 -1.67048,0.56581 -3.66428,0.56581 -2.64044,0 -4.90367,-1.10467 -2.23629,-1.13162 -3.87983,-3.20625 -1.64354,-2.07463 -2.50572,-4.87672 -0.83524,-2.8021 -0.83524,-6.06223 0,-6.89748 3.3679,-10.75036 3.36791,-3.85288 8.86433,-3.85288 3.1793,0 5.3617,1.10467 2.18241,1.07773 4.25704,3.34096 v -10.85813 q 0,-2.26323 0.88912,-3.42179 0.91607,-1.15856 2.58656,-1.15856 1.67048,0 2.5596,1.07773 0.91607,1.05079 0.91607,3.12542 v 32.43967 q 0,2.10157 -0.96995,3.15235 -0.96996,1.05079 -2.50572,1.05079 -1.50883,0 -2.50573,-1.07773 -0.96995,-1.10467 -0.96995,-3.12541 z m -14.46853,-10.80425 q 0,2.9907 0.91607,5.09228 0.94302,2.10157 2.55961,3.1793 1.6166,1.05079 3.52957,1.05079 1.93991,0 3.52956,-0.9969 1.6166,-1.02385 2.55961,-3.09848 0.96996,-2.10157 0.96996,-5.22699 0,-2.93681 -0.96996,-5.03838 -0.94301,-2.12852 -2.58655,-3.23319 -1.61659,-1.13162 -3.55651,-1.13162 -2.02074,0 -3.61039,1.15856 -1.58965,1.13162 -2.47878,3.28708 -0.86219,2.12851 -0.86219,4.95755 z"
         style="font-style:normal;font-variant:normal;font-weight:normal;font-stretch:normal;font-family:'Wolf Sans';-inkscape-font-specification:'Wolf Sans';fill:#484848;fill-opacity:1;stroke-width:2.00653672px"
         id="path840"
         inkscape:connector-curvature="0" />
      <path
         d="m 203.06268,176.8367 q 0,3.04459 -1.48188,5.22699 -1.48187,2.15546 -4.39175,3.28708 -2.88292,1.10467 -7.03218,1.10467 -3.96066,0 -6.7897,-1.21244 -2.82904,-1.21245 -4.1762,-3.01765 -1.34716,-1.83214 -1.34716,-3.66428 0,-1.21245 0.86218,-2.07463 0.86218,-0.86218 2.1824,-0.86218 1.15856,0 1.77826,0.56581 0.61969,0.5658 1.1855,1.58965 1.13162,1.96685 2.69432,2.93681 1.58965,0.96996 4.31092,0.96996 2.20935,0 3.6104,-0.96996 1.42799,-0.9969 1.42799,-2.26323 0,-1.93992 -1.48188,-2.82904 -1.45493,-0.88913 -4.82284,-1.69743 -3.799,-0.94301 -6.19695,-1.96685 -2.371,-1.05079 -3.79899,-2.74821 -1.428,-1.69743 -1.428,-4.17621 0,-2.20934 1.32022,-4.1762 1.32022,-1.96686 3.87983,-3.12542 2.58655,-1.1855 6.22389,-1.1855 2.85598,0 5.11922,0.59275 2.29017,0.59275 3.79899,1.58965 1.53577,0.9969 2.31712,2.20935 0.8083,1.21245 0.8083,2.371 0,1.26634 -0.86218,2.07463 -0.83524,0.8083 -2.39795,0.8083 -1.13162,0 -1.93992,-0.64664 -0.78135,-0.64663 -1.80519,-1.93991 -0.83524,-1.07773 -1.96686,-1.72437 -1.13162,-0.64663 -3.07153,-0.64663 -1.9938,0 -3.31402,0.86218 -1.32022,0.83524 -1.32022,2.10157 0,1.15856 0.96996,1.91297 0.96996,0.72747 2.61349,1.21245 1.64354,0.48498 4.52647,1.1855 3.42179,0.83524 5.57725,1.9938 2.1824,1.15856 3.28708,2.74821 1.13161,1.56271 1.13161,3.58345 z"
         style="font-style:normal;font-variant:normal;font-weight:normal;font-stretch:normal;font-family:'Wolf Sans';-inkscape-font-specification:'Wolf Sans';fill:#484848;fill-opacity:1;stroke-width:2.00653672px"
         id="path842"
         inkscape:connector-curvature="0" />
      <path
         inkscape:connector-curvature="0"
         d="m 29.547557,155.69929 v 24.94944 c 0,1.77825 -0.06287,3.22421 -0.188602,4.33787 -0.107773,1.13161 -0.269433,1.94889 -0.484979,2.45183 -1.221427,3.12542 -3.816959,4.68813 -7.786597,4.68813 -2.227309,0 -3.915752,-0.30536 -5.06533,-0.91608 -1.149579,-0.61071 -1.724368,-1.49984 -1.724368,-2.66738 0,-0.86218 0.260451,-1.57168 0.781354,-2.12851 0.520903,-0.53887 1.203465,-0.8083 2.047687,-0.8083 0.107773,0 0.287394,0.009 0.538865,0.0269 0.233508,0.0359 0.58377,0.0719 1.050786,0.10777 0.484979,0.0359 0.817279,0.0539 0.9969,0.0539 0.987919,0 1.643538,-0.38619 1.966857,-1.15856 0.341281,-0.77237 0.511922,-2.15546 0.511922,-4.14925 v -24.78778 c 0,-1.45493 0.341281,-2.55063 1.023843,-3.28708 0.682562,-0.73645 1.58067,-1.10467 2.694324,-1.10467 1.07773,0 1.948895,0.36822 2.613495,1.10467 0.682562,0.71849 1.023843,1.81418 1.023843,3.28708 z"
         style="font-style:normal;font-variant:normal;font-weight:normal;font-stretch:normal;font-size:55.17976379px;line-height:125%;font-family:'Wolf Sans';-inkscape-font-specification:'Wolf Sans';letter-spacing:0px;word-spacing:0px;fill:#484848;fill-opacity:1;stroke:none;stroke-width:2.00653672px;stroke-linecap:butt;stroke-linejoin:miter;stroke-opacity:1"
         id="path830-3"
         sodipodi:nodetypes="csccscscsccscsscscsc" />
    </g>
  </g>
</svg>
