<?xml version="1.0" encoding="UTF-8"?>
<svg width="32px" height="32px" viewBox="0 0 32 32" version="1.1" xmlns="http://www.w3.org/2000/svg" xmlns:xlink="http://www.w3.org/1999/xlink">
    <title>ibmmq-plain</title>
    <g id="ibmmq-plain" stroke="none" stroke-width="1" fill="none" fill-rule="evenodd">
        <g id="Group" fill="#000000">
            <path d="M30,0 C31.1045695,-2.02906125e-16 32,0.8954305 32,2 L32,16 L0,16 L0,2 C-1.3527075e-16,0.8954305 0.8954305,2.02906125e-16 2,0 L30,0 Z M28,12.4591454 L24.6343751,12.4591454 L24.6343751,13.1538462 L28,13.1538462 L28,12.4591454 Z M20.6621874,12.4591454 L17.3331249,12.4591454 L17.3331249,13.1538462 L20.6621874,13.1538462 L20.6621874,12.4591454 Z M8.70812488,12.4591454 L4.03656232,12.4591454 L4.03656232,13.1538462 L8.70812488,13.1538462 L8.70812488,12.4591454 Z M22.9243751,12.4591454 L22.4115626,12.4591454 L22.6459377,13.1518778 L22.68625,13.1528622 L22.9243751,12.4591454 Z M15.9906249,12.4591454 L9.33343768,12.4591454 L9.33343768,13.1528622 L14.41,13.1528622 C15.3106298,13.1528622 15.9906249,12.4591454 15.9906249,12.4591454 Z M28,11.1071361 L24.6343751,11.1071361 L24.6343751,11.8028206 L28,11.8028206 L28,11.1071361 Z M23.3696874,11.1071361 L21.9493749,11.1071361 L22.1931249,11.8028206 L23.1409374,11.8028206 L23.3696874,11.1071361 Z M20.6621874,11.1071361 L17.3331249,11.1071361 L17.3331249,11.8028206 L20.6621874,11.8028206 L20.6621874,11.1071361 Z M16.7631251,11.1071361 L9.33343768,11.1071361 L9.33343768,11.8028206 L16.525,11.8028206 C16.67635,11.6435237 16.7631251,11.1071361 16.7631251,11.1071361 Z M8.70812488,11.1071361 L4.03656232,11.1071361 L4.03656232,11.8028206 L8.70812488,11.8028206 L8.70812488,11.1071361 Z M26.6575,9.75611082 L24.6343751,9.75611082 L24.6343751,10.4508111 L26.6575,10.4508111 L26.6575,9.75611082 Z M23.8281249,9.75611082 L21.4890623,9.75611082 L21.72625,10.4508111 L23.5890623,10.4508111 L23.8281249,9.75611082 Z M20.6621874,9.75611082 L18.6390626,9.75611082 L18.6390626,10.4508111 L20.6621874,10.4508111 L20.6621874,9.75611082 Z M16.69,9.75611082 L14.6668751,9.75611082 L14.6668751,10.4508111 L16.8184374,10.4508111 C16.8184374,10.1229604 16.69,9.75611082 16.69,9.75611082 Z M12.6990623,9.75611082 L10.6759377,9.75611082 L10.6759377,10.4508111 L12.6990623,10.4508111 L12.6990623,9.75611082 Z M7.36562488,9.75611082 L5.3424999,9.75611082 L5.3424999,10.4508111 L7.36562488,10.4508111 L7.36562488,9.75611082 Z M15.8434377,8.40508548 L10.6759377,8.40508548 L10.6759377,9.09978575 L16.4134374,9.09978575 C16.2756777,8.76264556 15.8434377,8.40508548 15.8434377,8.40508548 Z M7.36562488,8.40508548 L5.3424999,8.40508548 L5.3424999,9.09978575 L7.36562488,9.09978575 L7.36562488,8.40508548 Z M20.6621874,8.40508548 L18.6390626,8.40508548 L18.6390626,9.09978575 L20.6621874,9.09978575 L20.6621874,8.40508548 Z M24.2856251,8.40508548 L21.0296874,8.40508548 L21.2743751,9.09978575 L24.0531251,9.09978575 L24.2856251,8.40508548 Z M26.6575,8.40508548 L24.6343751,8.40508548 L24.6343751,9.09978575 L26.6575,9.09978575 L26.6575,8.40508548 Z M22.4556251,7.05406015 L18.6390626,7.05406015 L18.6390626,7.74876042 L20.6621874,7.74876042 L20.6621874,7.36205042 L20.7906249,7.74876042 L24.4965626,7.74876042 L24.6343751,7.36205042 L24.6343751,7.74876042 L26.6575,7.74876042 L26.6575,7.05406015 L22.8596874,7.05406015 L22.6581249,7.64248899 L22.4556251,7.05406015 Z M16.4134374,7.05406015 L10.6759377,7.05406015 L10.6759377,7.74876042 L15.8434377,7.74876042 C15.8434379,7.74876042 16.2757074,7.39230254 16.4134374,7.05406015 Z M7.36562488,7.05406015 L5.3424999,7.05406015 L5.3424999,7.74876042 L7.36562488,7.74876042 L7.36562488,7.05406015 Z M26.6575,5.70205066 L23.2928126,5.70205066 L23.0528126,6.39773508 L26.6575,6.39773508 L26.6575,5.70205066 Z M21.9868751,5.70205066 L18.6390626,5.70205066 L18.6390626,6.39773508 L22.2259377,6.39773508 L21.9868751,5.70205066 Z M16.8184374,5.70205066 L14.6668751,5.70205066 L14.6668751,6.39773508 L16.69,6.39773508 C16.6900002,6.39773508 16.8184374,6.03034304 16.8184374,5.70205066 Z M12.6990623,5.70205066 L10.6759377,5.70205066 L10.6759377,6.39773508 L12.6990623,6.39773508 L12.6990623,5.70205066 Z M7.36562488,5.70205066 L5.3424999,5.70205066 L5.3424999,6.39773508 L7.36562488,6.39773508 L7.36562488,5.70205066 Z M27.9634374,4.35200937 L23.7334374,4.35200937 L23.5121874,5.0457259 L27.9634374,5.0457259 L27.9634374,4.35200937 Z M21.5443749,4.35200937 L17.2965626,4.35200937 L17.2965626,5.0457259 L21.7656251,5.0457259 L21.5443749,4.35200937 Z M16.525,4.35200937 L9.33343768,4.35200937 L9.33343768,5.0457259 L16.7631251,5.0457259 C16.7631251,5.0457259 16.67635,4.51105441 16.525,4.35200937 Z M8.67156256,4.35102533 L4,4.35102533 L4,5.0457259 L8.67156256,5.0457259 L8.67156256,4.35102533 Z M27.9634374,3 L24.2115626,3 L23.9725,3.69470077 L27.9634374,3.69470077 L27.9634374,3 Z M21.085,3 L17.2965626,3 L17.2965626,3.69470077 L21.3240626,3.69470077 L21.085,3 Z M14.41,3 L9.33343768,3 L9.33343768,3.69470077 L15.9906249,3.69470077 C15.9906249,3.69470077 15.31063,3 14.41,3 Z M8.67156256,3 L4,3 L4,3.69470077 L8.67156256,3.69470077 L8.67156256,3 Z" id="Combined-Shape"></path>
            <g id="MQ" transform="translate(8.834795, 20.368652)" fill-rule="nonzero">
                <path d="M0,0.17578125 L1.25244141,0.17578125 L3.10693359,5.63378906 L4.94824219,0.17578125 L6.1875,0.17578125 L6.1875,6.63134766 L5.35693359,6.63134766 L5.35693359,2.82128906 C5.35693359,2.68945312 5.35986328,2.47119141 5.36572266,2.16650391 C5.37158203,1.86181641 5.37451172,1.53515625 5.37451172,1.18652344 L3.53320312,6.63134766 L2.66748047,6.63134766 L0.812988281,1.18652344 L0.812988281,1.38427734 C0.812988281,1.54248047 0.816650391,1.78344727 0.823974609,2.10717773 C0.831298828,2.4309082 0.834960938,2.66894531 0.834960938,2.82128906 L0.834960938,6.63134766 L0,6.63134766 L0,0.17578125 Z" id="Path"></path>
                <path d="M14.005293,6.61376953 L13.5658398,7.14550781 L12.5682812,6.38525391 C12.3280469,6.51708984 12.0680371,6.62255859 11.7882519,6.70166016 C11.5084668,6.78076172 11.2030469,6.8203125 10.8719922,6.8203125 C9.87003905,6.8203125 9.0848828,6.4921875 8.51652342,5.8359375 C8.01554686,5.19726562 7.76505858,4.39746094 7.76505858,3.43652344 C7.76505858,2.56347656 7.98185545,1.81640625 8.4154492,1.1953125 C8.97208983,0.3984375 9.79533201,0 10.8851758,0 C12.0248242,0 12.8685742,0.366210938 13.4164258,1.09863281 C13.8441601,1.66992188 14.0580273,2.40087891 14.0580273,3.29150391 C14.0580273,3.70751953 14.0067578,4.10742188 13.9042187,4.49121094 C13.7489453,5.07714844 13.4867383,5.5546875 13.1175976,5.92382812 L14.005293,6.61376953 Z M10.9774609,6.03808594 C11.1591015,6.03808594 11.3290234,6.02563477 11.4872265,6.00073242 C11.6454297,5.97583008 11.783125,5.92675781 11.9003125,5.85351562 L11.192793,5.29980469 L11.6322461,4.75927734 L12.4759961,5.4140625 C12.7425976,5.109375 12.9235058,4.76806641 13.0187207,4.39013672 C13.1139355,4.01220703 13.161543,3.65039062 13.161543,3.3046875 C13.161543,2.54589844 12.9630566,1.93505859 12.566084,1.47216797 C12.1691113,1.00927734 11.6263867,0.777832031 10.9379101,0.777832031 C10.2406445,0.777832031 9.68839842,0.999755859 9.28117186,1.44360352 C8.8739453,1.88745117 8.67033201,2.57080078 8.67033201,3.49365234 C8.67033201,4.27001953 8.86588866,4.88818359 9.25700194,5.34814453 C9.64811522,5.80810547 10.2216015,6.03808594 10.9774609,6.03808594 Z" id="Shape"></path>
            </g>
        </g>
    </g>
</svg>