<?xml version="1.0" encoding="UTF-8" standalone="no"?>
<!DOCTYPE svg PUBLIC "-//W3C//DTD SVG 1.1//EN" "http://www.w3.org/Graphics/SVG/1.1/DTD/svg11.dtd">
<!-- Created with Vectornator (http://vectornator.io/) -->
<svg height="100%" stroke-miterlimit="10" style="fill-rule:nonzero;clip-rule:evenodd;stroke-linecap:round;stroke-linejoin:round;" version="1.1" viewBox="0 0 496 496" width="100%" xml:space="preserve" xmlns="http://www.w3.org/2000/svg" xmlns:vectornator="http://vectornator.io" xmlns:xlink="http://www.w3.org/1999/xlink">
<defs/>
<g id="Untitled" vectornator:layerName="Untitled">
<g opacity="1" vectornator:layerName="g">
<path d="M472 32L400 32L400 0L100.688 0L0 100.688L0 496L400 496L400 192L472 192C485.232 192 496 181.232 496 168L496 56C496 42.768 485.232 32 472 32ZM96 27.312L96 96L27.312 96L96 27.312ZM384 480L16 480L16 112L112 112L112 16L384 16L384 32L184 32C170.768 32 160 42.768 160 56L160 168C160 181.232 170.768 192 184 192L384 192L384 480ZM480 168C480 172.408 476.408 176 472 176L184 176C179.592 176 176 172.408 176 168L176 56C176 51.592 179.592 48 184 48L472 48C476.408 48 480 51.592 480 56L480 168Z" fill="#000000" fill-rule="nonzero" opacity="1" stroke="none" vectornator:layerName="path"/>
<path d="M424 80C437.232 80 448 90.768 448 104L464 104C464 81.944 446.056 64 424 64C401.944 64 384 81.944 384 104L384 120C384 142.056 401.944 160 424 160C433.04 160 441.296 156.872 448 151.792L448 160L464 160L464 120L448 120L432 120L432 136L441.76 136C437.368 140.872 431.064 144 424 144C410.768 144 400 133.232 400 120L400 104C400 90.768 410.768 80 424 80Z" fill="#000000" fill-rule="nonzero" opacity="1" stroke="none" vectornator:layerName="path"/>
<path d="M32 128L48 128L48 128L48 144L48 144L32 144L32 144L32 128L32 128Z" fill="#000000" fill-rule="nonzero" opacity="1" stroke="none" vectornator:layerName="rect"/>
<path d="M64 128L80 128L80 128L80 144L80 144L64 144L64 144L64 128L64 128Z" fill="#000000" fill-rule="nonzero" opacity="1" stroke="none" vectornator:layerName="rect"/>
<path d="M32 160L48 160L48 160L48 176L48 176L32 176L32 176L32 160L32 160Z" fill="#000000" fill-rule="nonzero" opacity="1" stroke="none" vectornator:layerName="rect"/>
<path d="M328 64C305.944 64 288 81.944 288 104L288 120C288 142.056 305.944 160 328 160C350.056 160 368 142.056 368 120L368 104C368 81.944 350.056 64 328 64ZM352 120C352 133.232 341.232 144 328 144C314.768 144 304 133.232 304 120L304 104C304 90.768 314.768 80 328 80C341.232 80 352 90.768 352 104L352 120Z" fill="#000000" fill-rule="nonzero" opacity="1" stroke="none" vectornator:layerName="path"/>
<path d="M208 64L192 64L192 160L272 160L272 144L208 144L208 64Z" fill="#000000" fill-rule="nonzero" opacity="1" stroke="none" vectornator:layerName="polygon"/>
</g>
<path d="M215.924 222.724L215.924 248.025L223.715 250.041C232.528 252.32 240.933 255.855 248.705 260.569L255.668 264.796L273.782 246.681L295.811 268.711L277.424 287.097L281.388 293.993C285.78 301.638 289.062 309.916 291.146 318.603L293.055 326.559L319.779 326.559L319.779 357.714L292.451 357.714L290.348 365.33C288.079 373.549 284.67 381.438 280.219 388.761L275.993 395.734L295.821 415.553L273.792 437.582L253.691 417.481L246.806 421.445C239.657 425.554 231.895 428.7 223.744 430.804L215.953 432.81L215.953 461.549L184.798 461.549L184.798 432.81L177.007 430.804C168.856 428.7 161.094 425.554 153.946 421.445L147.051 417.481L126.95 437.582L104.92 415.553L124.749 395.734L120.522 388.761C116.071 381.428 112.663 373.549 110.394 365.33L108.29 357.714L80.9629 357.714L80.9629 326.559L107.686 326.559L109.595 318.603C111.669 309.925 114.961 301.638 119.353 293.993L123.317 287.097L104.93 268.711L126.959 246.681L145.074 264.796L152.037 260.569C159.809 255.855 168.213 252.31 177.027 250.041L184.818 248.025L184.818 222.724L215.972 222.724L215.924 222.724ZM200.351 388.878C226.12 388.878 247.078 367.91 247.078 342.141C247.078 316.372 226.12 295.405 200.351 295.405C174.582 295.405 153.624 316.372 153.624 342.141C153.624 367.91 174.582 388.878 200.351 388.878ZM226.315 212.342L174.397 212.342L174.397 239.991C164.483 242.552 155.163 246.516 146.622 251.697L126.93 232.005L90.2246 268.72L110.335 288.831C105.485 297.275 101.814 306.458 99.4862 316.187L70.5619 316.187L70.5619 368.105L100.363 368.105C102.924 377.386 106.742 386.122 111.621 394.166L90.2148 415.572L126.92 452.288L148.745 430.463C156.692 435.03 165.301 438.527 174.388 440.874L174.388 471.95L226.305 471.95L226.305 440.874C235.392 438.527 244.001 435.03 251.948 430.463L273.772 452.288L310.478 415.572L289.072 394.166C293.951 386.122 297.769 377.386 300.33 368.105L330.131 368.105L330.131 316.187L301.207 316.187C298.879 306.458 295.208 297.284 290.358 288.831L310.468 268.72L273.763 232.005L254.071 251.697C245.53 246.516 236.21 242.552 226.296 239.991L226.296 212.342L226.296 212.342L226.315 212.342ZM200.351 378.496C180.27 378.496 164.006 362.223 164.006 342.141C164.006 322.06 180.27 305.796 200.351 305.796C220.433 305.796 236.697 322.07 236.697 342.141C236.697 362.223 220.433 378.496 200.351 378.496L200.351 378.496Z" fill="#000000" fill-rule="nonzero" opacity="1" stroke="none" vectornator:layerName="path"/>
</g>
</svg>
