<?xml version="1.0" encoding="UTF-8" standalone="no"?>
<!-- Created with Inkscape (http://www.inkscape.org/) -->
<svg
   xmlns:svg="http://www.w3.org/2000/svg"
   xmlns="http://www.w3.org/2000/svg"
   version="1.0"
   width="656"
   height="150"
   viewBox="-0.967 -0.003 656 150"
   id="svg2"
   xml:space="preserve">
	<defs
   id="defs4">
	</defs>
	<g
   id="g6">
		<g
   id="g8">
			<path
   d="M 432.173,50.565 C 435.546,32.122 456.29,15.647 474.411,11.511 C 481.729,10.592 491.35,9.488 497.87,12.605 L 432.173,50.565 L 432.173,50.565 z "
   style="fill:#000000;fill-rule:evenodd"
   id="path10" />
		</g>
		<g
   id="g12">
			<path
   d="M 604.9,11.129 L 626.867,39.532 L 582.228,39.532 C 578.578,39.758 577.414,41.596 576.302,45.076 C 575.417,47.78 576.849,51.628 581.009,53.512 L 618.677,71.685 L 553.056,71.696 C 543.056,64.078 540.806,51.947 543.179,39.071 C 545.372,27.922 556.204,15.668 567.384,12.852 C 571.034,11.758 574.966,11.423 579.04,11.164 L 604.9,11.129 L 604.9,11.129 z "
   style="fill:#000000;fill-rule:evenodd"
   id="path14" />
		</g>
		<g
   id="g16">
			<polygon
   points="427.131,12.541 427.131,53.491 402.246,68.011 396.247,65.967 396.247,12.527 427.131,12.541 "
   style="fill:#000000;fill-rule:evenodd"
   id="polygon18" />
		</g>
		<g
   id="g20">
			<polygon
   points="317.115,12.51 345.756,12.592 387.576,68.605 386.023,71.634 350.914,71.586 345.333,63.864 345.36,71.716 317.17,71.716 317.115,12.51 "
   style="fill:#000000;fill-rule:evenodd"
   id="polygon22" />
		</g>
		<g
   id="g24">
			<polygon
   points="427.104,71.75 405.628,71.736 427.118,59.186 427.104,71.75 "
   style="fill:#000000;fill-rule:evenodd"
   id="polygon26" />
		</g>
		<g
   id="g28">
			<path
   d="M 177.62,76.829 C 177.574,90.145 174.527,113.237 152.67,112.889 L 152.95,112.889 C 131.102,113.238 128.049,90.146 128.012,76.829 L 97.093,76.806 C 97.252,91.807 99.947,106.08 107.393,117.855 L 71.593,117.941 C 66.487,117.705 61.1,117.609 55.26,117.185 C 34.495,115.022 33.872,77.021 33.836,76.864 L 0.001,76.884 C -0.108,97.084 5.25,115.172 18.253,129.869 C 30.694,145.12 48.55,148.408 67.588,149.194 L 109.299,149.215 L 109.299,120.169 C 112.744,123.655 116.569,128.103 120.783,130.819 C 135.066,142.436 160.243,143.069 176.554,134.968 C 197.905,124.375 206.937,102.238 208.211,80.127 C 211.786,117.235 227.219,140.74 280.038,138.235 C 291.23,132.329 302.614,126.043 312.847,118.982 L 312.847,76.877 L 283.772,76.819 L 283.763,111.989 L 276.435,112.007 C 266.916,111.836 261.476,112.441 254.222,109.43 C 240.372,103.442 240.099,89.007 238.817,76.877 L 177.62,76.829 L 177.62,76.829 z "
   style="fill:#000000;fill-rule:evenodd"
   id="path30" />
		</g>
		<g
   id="g32">
			<path
   d="M 345.371,100.96 L 317.17,117.277 C 317.149,117.321 317.177,76.993 317.191,76.856 L 345.319,76.877 L 345.371,100.96 L 345.371,100.96 z "
   style="fill:#000000;fill-rule:evenodd"
   id="path34" />
		</g>
		<g
   id="g36">
			<polygon
   points="365.406,95.095 388.566,81.659 392.244,83.378 392.197,137.888 365.406,95.095 "
   style="fill:#000000;fill-rule:evenodd"
   id="polygon38" />
		</g>
		<g
   id="g40">
			<polygon
   points="398.314,83.166 427.118,100.427 427.131,137.84 398.335,137.854 398.314,83.166 "
   style="fill:#000000;fill-rule:evenodd"
   id="polygon42" />
		</g>
		<g
   id="g44">
			<path
   d="M 491.464,139.788 C 472.542,143.281 443.157,135.215 432.009,104.063 L 491.464,139.788 L 491.464,139.788 z "
   style="fill:#000000;fill-rule:evenodd"
   id="path46" />
		</g>
		<g
   id="g48">
			<polygon
   points="345.305,137.843 317.22,137.833 317.213,123.197 345.333,106.757 345.305,137.843 "
   style="fill:#000000;fill-rule:evenodd"
   id="polygon50" />
		</g>
		<g
   id="g52">
			<polygon
   points="312.807,125.638 312.826,137.867 291.821,137.819 312.807,125.638 "
   style="fill:#000000;fill-rule:evenodd"
   id="polygon54" />
		</g>
		<g
   id="g56">
			<polygon
   points="362.994,90.675 354.646,76.863 386.738,76.87 362.994,90.675 "
   style="fill:#000000;fill-rule:evenodd"
   id="polygon58" />
		</g>
		<g
   id="g60">
			<path
   d="M 65.026,0.027 C 54.349,0.513 44.056,1.935 35.087,6.641 C 10.204,19.588 1.784,45.787 0.103,71.75 L 34.105,71.698 C 34.53,64.969 35.766,58.587 37.147,52.438 C 39.319,42.068 48.716,30.122 58.289,30.081 L 107.875,30.132 L 109.733,30.101 C 101.966,41.794 97.312,56.3 97.131,71.79 L 127.877,71.735 L 127.891,71.653 C 128.194,58.183 131.867,37.056 152.815,37.384 L 152.528,37.384 C 173.542,37.056 177.175,58.247 177.456,71.721 L 177.438,71.683 L 238.854,71.683 C 239.273,64.571 239.705,57.017 242.236,50.68 C 244.969,43.773 250.779,37.169 258.995,37.179 L 306.378,37.186 L 287.658,12.269 C 263.235,12.296 235.534,10.632 220.023,32.667 C 212.212,43.01 209.084,56.326 208.27,69.93 C 207.543,62.038 206.436,54.337 204.358,46.825 C 198.69,28.706 179.539,12.437 160.699,10.605 C 140.511,7.799 123.344,15.4 109.797,30.146 C 101.768,20.665 94.131,10.045 86.3,0 L 65.026,0.027 L 65.026,0.027 z "
   style="fill:#000000;fill-rule:evenodd"
   id="path62" />
		</g>
		<g
   id="g64">
			<path
   d="M 427.077,93.263 L 403.681,79.277 L 403.687,76.82 L 459.763,76.83 C 459.79,90.146 462.853,113.238 484.706,112.89 L 484.409,112.89 C 506.266,113.239 509.315,90.304 509.356,76.994 L 509.397,76.83 L 540.54,76.837 C 540.638,87.234 538.054,97.717 535.118,106.94 L 534.893,107.627 L 592.834,107.648 C 596.471,107.265 598.223,104.787 599.211,102.097 C 600.191,98.447 599.293,94.4 594.645,92.454 C 583.704,87.775 570.795,81.507 559.672,76.838 L 623.342,76.831 C 630.024,85.134 635.602,96.525 633.412,107.866 C 626.865,139.257 600.346,137.842 600.346,137.842 L 534.526,137.876 L 534.516,108.772 L 533.559,110.586 C 526.946,123.827 513.995,134.136 500.309,138.104 L 429.759,95.58 C 428.988,92.474 428.441,89.038 428.071,85.572 L 427.077,93.263 L 427.077,93.263 z "
   style="fill:#000000;fill-rule:evenodd"
   id="path66" />
		</g>
		<g
   id="g68">
			<path
   d="M 509.205,71.723 C 508.924,58.249 505.301,37.058 484.273,37.386 L 484.567,37.386 C 463.622,37.058 459.93,58.263 459.636,71.743 L 430.31,71.743 C 429.859,62.077 431.373,56.595 431.373,56.595 L 504.652,14.814 C 539.529,28.636 540.541,65.902 540.625,71.696 L 509.205,71.723 L 509.205,71.723 z "
   style="fill:#000000;fill-rule:evenodd"
   id="path70" />
		</g>
		<g
   id="g72">
			<g
   id="g74">
				<path
   d="M 643.695,34.624 L 642.484,32.197 C 641.964,31.144 641.07,29.869 640.464,29.271 C 639.872,28.676 639.339,28.529 638.034,28.529 L 637.473,28.529 L 637.473,34.623 L 634.479,34.623 L 634.479,19.763 L 641.809,19.763 C 644.998,19.763 646.489,21.561 646.489,23.919 C 646.489,26.168 644.999,27.778 642.483,28.072 L 642.483,28.154 C 643.762,28.602 644.172,29.012 645.676,31.633 L 647.387,34.624 L 643.695,34.624 L 643.695,34.624 z M 640.578,26.168 C 642.642,26.168 643.314,25.156 643.314,24.104 C 643.314,22.795 642.261,22.081 640.238,22.081 L 637.474,22.081 L 637.474,26.169 L 640.578,26.169 L 640.578,26.168 z M 629.578,27.139 C 629.578,33.353 634.578,38.408 640.803,38.408 C 647.024,38.408 652.082,33.353 652.082,27.139 C 652.082,20.925 647.023,15.908 640.803,15.908 C 634.578,15.907 629.578,20.925 629.578,27.139 L 629.578,27.139 z M 654.806,27.139 C 654.806,34.891 648.554,41.153 640.802,41.153 C 633.046,41.153 626.796,34.891 626.796,27.139 C 626.796,19.387 633.046,13.132 640.802,13.132 C 648.554,13.132 654.806,19.387 654.806,27.139 L 654.806,27.139 z "
   style="fill:#000000;fill-rule:evenodd"
   id="path76" />
			</g>
		</g>
	</g>
</svg>