<?xml version="1.0" encoding="UTF-8"?>
<svg width="32px" height="32px" viewBox="0 0 32 32" version="1.1" xmlns="http://www.w3.org/2000/svg" xmlns:xlink="http://www.w3.org/1999/xlink">
    <title>ibmdb2-plain</title>
    <g id="ibmdb2-plain" stroke="none" stroke-width="1" fill="none" fill-rule="evenodd">
        <g id="Group" fill="#000000">
            <path d="M30,0 C31.1045695,-2.02906125e-16 32,0.8954305 32,2 L32,16 L0,16 L0,2 C-1.3527075e-16,0.8954305 0.8954305,2.02906125e-16 2,0 L30,0 Z M28,12.4591454 L24.6343751,12.4591454 L24.6343751,13.1538462 L28,13.1538462 L28,12.4591454 Z M20.6621874,12.4591454 L17.3331249,12.4591454 L17.3331249,13.1538462 L20.6621874,13.1538462 L20.6621874,12.4591454 Z M8.70812488,12.4591454 L4.03656232,12.4591454 L4.03656232,13.1538462 L8.70812488,13.1538462 L8.70812488,12.4591454 Z M22.9243751,12.4591454 L22.4115626,12.4591454 L22.6459377,13.1518778 L22.68625,13.1528622 L22.9243751,12.4591454 Z M15.9906249,12.4591454 L9.33343768,12.4591454 L9.33343768,13.1528622 L14.41,13.1528622 C15.3106298,13.1528622 15.9906249,12.4591454 15.9906249,12.4591454 Z M28,11.1071361 L24.6343751,11.1071361 L24.6343751,11.8028206 L28,11.8028206 L28,11.1071361 Z M23.3696874,11.1071361 L21.9493749,11.1071361 L22.1931249,11.8028206 L23.1409374,11.8028206 L23.3696874,11.1071361 Z M20.6621874,11.1071361 L17.3331249,11.1071361 L17.3331249,11.8028206 L20.6621874,11.8028206 L20.6621874,11.1071361 Z M16.7631251,11.1071361 L9.33343768,11.1071361 L9.33343768,11.8028206 L16.525,11.8028206 C16.67635,11.6435237 16.7631251,11.1071361 16.7631251,11.1071361 Z M8.70812488,11.1071361 L4.03656232,11.1071361 L4.03656232,11.8028206 L8.70812488,11.8028206 L8.70812488,11.1071361 Z M26.6575,9.75611082 L24.6343751,9.75611082 L24.6343751,10.4508111 L26.6575,10.4508111 L26.6575,9.75611082 Z M23.8281249,9.75611082 L21.4890623,9.75611082 L21.72625,10.4508111 L23.5890623,10.4508111 L23.8281249,9.75611082 Z M20.6621874,9.75611082 L18.6390626,9.75611082 L18.6390626,10.4508111 L20.6621874,10.4508111 L20.6621874,9.75611082 Z M16.69,9.75611082 L14.6668751,9.75611082 L14.6668751,10.4508111 L16.8184374,10.4508111 C16.8184374,10.1229604 16.69,9.75611082 16.69,9.75611082 Z M12.6990623,9.75611082 L10.6759377,9.75611082 L10.6759377,10.4508111 L12.6990623,10.4508111 L12.6990623,9.75611082 Z M7.36562488,9.75611082 L5.3424999,9.75611082 L5.3424999,10.4508111 L7.36562488,10.4508111 L7.36562488,9.75611082 Z M15.8434377,8.40508548 L10.6759377,8.40508548 L10.6759377,9.09978575 L16.4134374,9.09978575 C16.2756777,8.76264556 15.8434377,8.40508548 15.8434377,8.40508548 Z M7.36562488,8.40508548 L5.3424999,8.40508548 L5.3424999,9.09978575 L7.36562488,9.09978575 L7.36562488,8.40508548 Z M20.6621874,8.40508548 L18.6390626,8.40508548 L18.6390626,9.09978575 L20.6621874,9.09978575 L20.6621874,8.40508548 Z M24.2856251,8.40508548 L21.0296874,8.40508548 L21.2743751,9.09978575 L24.0531251,9.09978575 L24.2856251,8.40508548 Z M26.6575,8.40508548 L24.6343751,8.40508548 L24.6343751,9.09978575 L26.6575,9.09978575 L26.6575,8.40508548 Z M22.4556251,7.05406015 L18.6390626,7.05406015 L18.6390626,7.74876042 L20.6621874,7.74876042 L20.6621874,7.36205042 L20.7906249,7.74876042 L24.4965626,7.74876042 L24.6343751,7.36205042 L24.6343751,7.74876042 L26.6575,7.74876042 L26.6575,7.05406015 L22.8596874,7.05406015 L22.6581249,7.64248899 L22.4556251,7.05406015 Z M16.4134374,7.05406015 L10.6759377,7.05406015 L10.6759377,7.74876042 L15.8434377,7.74876042 C15.8434379,7.74876042 16.2757074,7.39230254 16.4134374,7.05406015 Z M7.36562488,7.05406015 L5.3424999,7.05406015 L5.3424999,7.74876042 L7.36562488,7.74876042 L7.36562488,7.05406015 Z M26.6575,5.70205066 L23.2928126,5.70205066 L23.0528126,6.39773508 L26.6575,6.39773508 L26.6575,5.70205066 Z M21.9868751,5.70205066 L18.6390626,5.70205066 L18.6390626,6.39773508 L22.2259377,6.39773508 L21.9868751,5.70205066 Z M16.8184374,5.70205066 L14.6668751,5.70205066 L14.6668751,6.39773508 L16.69,6.39773508 C16.6900002,6.39773508 16.8184374,6.03034304 16.8184374,5.70205066 Z M12.6990623,5.70205066 L10.6759377,5.70205066 L10.6759377,6.39773508 L12.6990623,6.39773508 L12.6990623,5.70205066 Z M7.36562488,5.70205066 L5.3424999,5.70205066 L5.3424999,6.39773508 L7.36562488,6.39773508 L7.36562488,5.70205066 Z M27.9634374,4.35200937 L23.7334374,4.35200937 L23.5121874,5.0457259 L27.9634374,5.0457259 L27.9634374,4.35200937 Z M21.5443749,4.35200937 L17.2965626,4.35200937 L17.2965626,5.0457259 L21.7656251,5.0457259 L21.5443749,4.35200937 Z M16.525,4.35200937 L9.33343768,4.35200937 L9.33343768,5.0457259 L16.7631251,5.0457259 C16.7631251,5.0457259 16.67635,4.51105441 16.525,4.35200937 Z M8.67156256,4.35102533 L4,4.35102533 L4,5.0457259 L8.67156256,5.0457259 L8.67156256,4.35102533 Z M27.9634374,3 L24.2115626,3 L23.9725,3.69470077 L27.9634374,3.69470077 L27.9634374,3 Z M21.085,3 L17.2965626,3 L17.2965626,3.69470077 L21.3240626,3.69470077 L21.085,3 Z M14.41,3 L9.33343768,3 L9.33343768,3.69470077 L15.9906249,3.69470077 C15.9906249,3.69470077 15.31063,3 14.41,3 Z M8.67156256,3 L4,3 L4,3.69470077 L8.67156256,3.69470077 L8.67156256,3 Z" id="Combined-Shape"></path>
            <g id="DB2" transform="translate(7.101191, 20.544434)" fill-rule="nonzero">
                <path d="M2.43896484,5.70849609 C2.73486328,5.70849609 2.97802734,5.67773438 3.16845703,5.61621094 C3.50830078,5.50195312 3.78662109,5.28222656 4.00341797,4.95703125 C4.17626953,4.69628906 4.30078125,4.36230469 4.37695312,3.95507812 C4.42089844,3.71191406 4.44287109,3.48632812 4.44287109,3.27832031 C4.44287109,2.47851562 4.28393555,1.85742188 3.96606445,1.41503906 C3.64819336,0.97265625 3.13623047,0.751464844 2.43017578,0.751464844 L0.87890625,0.751464844 L0.87890625,5.70849609 L2.43896484,5.70849609 Z M0,0 L2.61474609,0 C3.50244141,0 4.19091797,0.314941406 4.68017578,0.944824219 C5.11669922,1.51318359 5.33496094,2.24121094 5.33496094,3.12890625 C5.33496094,3.81445312 5.20605469,4.43408203 4.94824219,4.98779297 C4.49414062,5.96630859 3.71337891,6.45556641 2.60595703,6.45556641 L0,6.45556641 L0,0 Z" id="Shape"></path>
                <path d="M9.46574217,2.72900391 C9.8348828,2.72900391 10.1219922,2.67773438 10.3270703,2.57519531 C10.6493359,2.4140625 10.8104687,2.12402344 10.8104687,1.70507812 C10.8104687,1.28320312 10.639082,0.999023438 10.2963086,0.852539062 C10.1029492,0.770507812 9.81583983,0.729492188 9.43498045,0.729492188 L7.87492186,0.729492188 L7.87492186,2.72900391 L9.46574217,2.72900391 Z M9.76017576,5.70849609 C10.2963086,5.70849609 10.6786328,5.55322266 10.9071484,5.24267578 C11.0507031,5.04638672 11.1224805,4.80908203 11.1224805,4.53076172 C11.1224805,4.06201172 10.9130078,3.74267578 10.4940625,3.57275391 C10.2714062,3.48193359 9.97697264,3.43652344 9.6107617,3.43652344 L7.87492186,3.43652344 L7.87492186,5.70849609 L9.76017576,5.70849609 Z M7.01798826,0 L9.79093748,0 C10.5467969,0 11.0843945,0.225585938 11.4037305,0.676757812 C11.5912305,0.943359375 11.6849805,1.25097656 11.6849805,1.59960938 C11.6849805,2.00683594 11.5692578,2.34082031 11.3378125,2.6015625 C11.2176953,2.73925781 11.0448437,2.86523438 10.8192578,2.97949219 C11.1503125,3.10546875 11.3978711,3.24755859 11.5619336,3.40576172 C11.8519726,3.68701172 11.9969922,4.07519531 11.9969922,4.5703125 C11.9969922,4.98632812 11.8666211,5.36279297 11.6058789,5.69970703 C11.2162305,6.20361328 10.5966015,6.45556641 9.74699217,6.45556641 L7.01798826,6.45556641 L7.01798826,0 Z" id="Shape"></path>
                <path d="M13.2185937,6.45556641 C13.2478906,5.91357422 13.3599511,5.44189453 13.5547754,5.04052734 C13.7495996,4.63916016 14.1297265,4.27441406 14.6951562,3.94628906 L15.5389062,3.45849609 C15.9168359,3.23876953 16.1819726,3.05126953 16.3343164,2.89599609 C16.5745507,2.65283203 16.6946679,2.37451172 16.6946679,2.06103516 C16.6946679,1.69482422 16.5848047,1.40405273 16.3650781,1.1887207 C16.1453515,0.973388672 15.8523828,0.865722656 15.4861718,0.865722656 C14.9441797,0.865722656 14.5691797,1.07080078 14.3611718,1.48095703 C14.2498437,1.70068359 14.1883203,2.00537109 14.1766015,2.39501953 L13.3724023,2.39501953 C13.3811914,1.84716797 13.4822656,1.40039062 13.675625,1.0546875 C14.0183984,0.4453125 14.6233789,0.140625 15.4905664,0.140625 C16.2112695,0.140625 16.7378808,0.335449219 17.0704004,0.725097656 C17.4029199,1.11474609 17.5691797,1.54833984 17.5691797,2.02587891 C17.5691797,2.52978516 17.3919336,2.96044922 17.0374414,3.31787109 C16.8323632,3.52587891 16.4646875,3.77783203 15.934414,4.07373047 L15.3323632,4.40771484 C15.0452539,4.56591797 14.8196679,4.71679688 14.6556054,4.86035156 C14.3626367,5.11523438 14.1780664,5.39794922 14.1018945,5.70849609 L17.5384179,5.70849609 L17.5384179,6.45556641 L13.2185937,6.45556641 Z" id="Path"></path>
            </g>
        </g>
    </g>
</svg>