<?xml version="1.0" encoding="UTF-8"?>
<svg width="128px" height="128px" viewBox="0 0 128 128" version="1.1" xmlns="http://www.w3.org/2000/svg" xmlns:xlink="http://www.w3.org/1999/xlink">
    <title>nhibernate-plain</title>
    <g id="nhibernate-plain" stroke="none" stroke-width="1" fill="none" fill-rule="evenodd">
        <g id="NHibernate-logo" transform="translate(-83.000000, 3.000000)">
            <g id="g3046" transform="translate(85.000000, 0.000000)">
                <path d="M40,52 C43.675,49.3584906 45.25,45.3962264 47,42 C45.425,44.6415094 45.425,47.4716981 43.85,49.9245283 C43.15,51.0566038 41.225,51.6226415 40,52 Z" id="path3050" fill="#FFFFFF"></path>
                <path d="M63.3767535,0 C44.9668826,0 28.3868375,8.24980473 17.0976954,21.26002 C18.8506155,21.3969025 20.5256832,21.6623991 22.0275551,22.1227455 C22.0460914,22.1284286 22.0706815,22.1169914 22.0891784,22.1227455 C32.5193417,11.1446519 47.1630562,4.25200401 63.3767535,4.25200401 L63.5616232,4.25200401 C94.9746894,4.25200401 120.686373,29.9710841 120.686373,61.5616232 C120.686373,93.1521624 94.9746894,118.871242 63.5616232,118.871242 L63.3767535,118.871242 C31.9636874,118.871242 6.25200401,93.1521624 6.25200401,61.5616232 C6.25200401,57.0622941 6.80649491,52.7017878 7.79258517,48.497495 C7.21963687,44.7125853 6.52308713,41.9120701 5.69739479,40.5480962 C3.3037507,47.1085208 2,54.1937684 2,61.5616232 C2,95.4593367 29.656513,123 63.3767535,123 L63.5616232,123 C97.2818637,123 125,95.4593367 125,61.5616232 C125,27.6639098 97.2818637,0 63.5616232,0 L63.3767535,0 Z" id="path3052" fill="#000000"></path>
                <path d="M49.9681597,12.5521496 C58.7912321,9.72116602 72.5552251,8.83648366 81.2018361,12.0213401 C95.1422906,17.1524978 106.259362,28.4764319 110.84736,41.5697308 C116.494126,57.4940131 114.729511,78.3725167 104.141824,91.8196885 C92.3189074,106.859289 76.6138385,115.529176 54.9090803,112.344319 C37.0864739,109.867209 21.2049436,97.1277826 14.1464856,77.8417073 C10.6172566,68.6410108 10.6172566,61.3866155 10.2643337,51.4781731 C10.2492085,51.1521045 10.2347314,50.8257109 10.2201386,50.4990619 L10.175249,49.5184186 C9.84269891,42.5404981 9.10977168,35.4780608 0.558954053,29.0072413 C-0.499814639,28.2994955 0.029569707,27.4148131 1.4412613,26.3531943 C3.91172158,21.9297825 21.0284821,21.0451002 23.8518653,25.2915755 C25.6164798,27.768686 26.3223256,31.8382249 26.8517099,35.3769543 C27.474515,39.6234296 27.7675998,44.2445939 28.0335311,48.8437177 L28.1215842,50.3753984 C28.5756182,58.279241 29.048828,65.9869637 31.0867847,71.4719943 C31.616169,73.0644226 33.557245,78.3725167 34.4395522,79.7880085 C42.7332403,92.8813073 48.909391,96.2431003 61.2616924,96.2431003 C62.4969226,96.2431003 59.6735394,94.2967991 59.3206165,94.2967991 C49.6152368,93.5890532 45.2037006,91.4658155 39.7333957,83.5036744 C37.9687812,80.8496273 38.8510884,75.0107238 41.3215487,71.6489308 C45.380162,65.9869637 58.2618478,53.4244743 65.1438443,51.8320461 C71.8493793,50.4165543 73.9669167,51.4781731 78.5549144,55.193839 C80.4959903,56.7862673 82.6135277,61.3866155 84.7310651,67.4024555 C85.083988,68.2871379 85.6133723,67.4024555 85.6133723,65.8100273 C85.6133723,63.6867896 84.3781422,60.3249967 82.7899892,57.3170767 C79.7901445,51.6551096 71.4964564,47.5855708 64.6144599,48.8241261 C57.0266176,50.2396178 52.0856971,58.7325684 42.9097017,65.2792179 C40.7921644,66.6947096 39.5569342,71.2950579 38.1452426,71.4719943 C37.2629354,71.8258673 33.9101679,73.0644226 33.557245,72.0028037 C31.7926305,64.9253449 29.1457087,43.162159 30.2044774,35.7308272 C30.7338618,31.8382249 33.7337064,26.1762578 33.7337064,23.5222107 C33.7337064,22.4605919 29.3221702,30.9535425 29.3221702,29.7149872 C29.1457087,26.8840037 25.4400183,23.5222107 27.2046328,21.2220366 C28.9692473,18.9218625 33.557245,20.1604178 36.0277052,18.744926 C42.5567788,14.8523237 42.9097017,14.8523237 49.9681597,12.5521496 Z M50,42 C47.4545455,44.6612903 47.6363636,46.0806452 45.8181818,48.3870968 C44.5454545,50.1612903 42.7272727,51.9354839 42,53 C44.9090909,51.5806452 45.8181818,50.1612903 46.7272727,49.2741935 C48.7272727,47.1451613 47.8181818,45.5483871 50,42 Z M51.7854065,27.8595051 C49.7937909,26.3984566 47.6211193,26.9463498 45.8105597,28.4073983 C44.9052798,29.1379226 44.181056,31.8773885 44,33.155806 C44.9052798,30.7816022 46.5347835,29.3205536 48.3453432,29.1379226 C48.8885111,28.9552915 49.431679,29.1379226 49.9748469,29.1379226 C50.6990707,29.3205536 49.6127349,31.5121264 50.1559028,32.4252817 C50.8801267,33.338437 52.8717423,33.155806 53.0527983,34.2515924 C53.0527983,37.1736894 50.5180148,38.0868447 48.1642872,39 C50.8801267,39 54.32019,37.7215826 54.8633579,34.7994855 C55.4065258,31.6947575 54.32019,29.6858158 51.7854065,27.8595051 Z" id="path3056-3" fill="#000000"></path>
            </g>
        </g>
    </g>
</svg>