<?xml version="1.0" encoding="UTF-8"?>
<svg width="128px" height="128px" viewBox="0 0 128 128" version="1.1" xmlns="http://www.w3.org/2000/svg" xmlns:xlink="http://www.w3.org/1999/xlink">
    <title>nhibernate-original</title>
    <g id="nhibernate-original" stroke="none" stroke-width="1" fill="none" fill-rule="evenodd">
        <g id="NHibernate-logo" transform="translate(-83.000000, 3.000000)">
            <g id="g3046" transform="translate(85.000000, 0.000000)">
                <path d="M44,33.155806 C44.181056,31.8773885 44.9052798,29.1379226 45.8105597,28.4073983 C47.6211193,26.9463498 49.7937909,26.3984566 51.7854065,27.8595051 C54.32019,29.6858158 55.4065258,31.6947575 54.8633579,34.7994855 C54.32019,37.7215826 50.8801267,39 48.1642872,39 C50.5180148,38.0868447 53.0527983,37.1736894 53.0527983,34.2515924 C52.8717423,33.155806 50.8801267,33.338437 50.1559028,32.4252817 C49.6127349,31.5121264 50.6990707,29.3205536 49.9748469,29.1379226 C49.431679,29.1379226 48.8885111,28.9552915 48.3453432,29.1379226 C46.5347835,29.3205536 44.9052798,30.7816022 44,33.155806 L44,33.155806 Z" id="path3048" fill="#FFFFFF"></path>
                <path d="M40,52 C43.675,49.3584906 45.25,45.3962264 47,42 C45.425,44.6415094 45.425,47.4716981 43.85,49.9245283 C43.15,51.0566038 41.225,51.6226415 40,52 Z" id="path3050" fill="#FFFFFF"></path>
                <path d="M63.3767535,0 C44.9668826,0 28.3868375,8.24980473 17.0976954,21.26002 C18.8506155,21.3969025 20.5256832,21.6623991 22.0275551,22.1227455 C22.0460914,22.1284286 22.0706815,22.1169914 22.0891784,22.1227455 C32.5193417,11.1446519 47.1630562,4.25200401 63.3767535,4.25200401 L63.5616232,4.25200401 C94.9746894,4.25200401 120.686373,29.9710841 120.686373,61.5616232 C120.686373,93.1521624 94.9746894,118.871242 63.5616232,118.871242 L63.3767535,118.871242 C31.9636874,118.871242 6.25200401,93.1521624 6.25200401,61.5616232 C6.25200401,57.0622941 6.80649491,52.7017878 7.79258517,48.497495 C7.21963687,44.7125853 6.52308713,41.9120701 5.69739479,40.5480962 C3.3037507,47.1085208 2,54.1937684 2,61.5616232 C2,95.4593367 29.656513,123 63.3767535,123 L63.5616232,123 C97.2818637,123 125,95.4593367 125,61.5616232 C125,27.6639098 97.2818637,0 63.5616232,0 L63.3767535,0 Z" id="path3052" fill="#87802A"></path>
                <path d="M110.84736,41.5697308 C106.259362,28.4764319 95.1422906,17.1524978 81.2018361,12.0213401 C72.5552251,8.83648366 58.7912321,9.72116602 49.9681597,12.5521496 C42.9097017,14.8523237 42.5567788,14.8523237 36.0277052,18.744926 C33.557245,20.1604178 28.9692473,18.9218625 27.2046328,21.2220366 C25.4400183,23.5222107 29.1457087,26.8840037 29.3221702,29.7149872 C29.3221702,30.9535425 33.7337064,22.4605919 33.7337064,23.5222107 C33.7337064,26.1762578 30.7338618,31.8382249 30.2044774,35.7308272 C29.1457087,43.162159 31.7926305,64.9253449 33.557245,72.0028037 C33.9101679,73.0644226 37.2629354,71.8258673 38.1452426,71.4719943 C39.5569342,71.2950579 40.7921644,66.6947096 42.9097017,65.2792179 C52.0856971,58.7325684 57.0266176,50.2396178 64.6144599,48.8241261 C71.4964564,47.5855708 79.7901445,51.6551096 82.7899892,57.3170767 C84.3781422,60.3249967 85.6133723,63.6867896 85.6133723,65.8100273 C85.6133723,67.4024555 85.083988,68.2871379 84.7310651,67.4024555 C82.6135277,61.3866155 80.4959903,56.7862673 78.5549144,55.193839 C73.9669167,51.4781731 71.8493793,50.4165543 65.1438443,51.8320461 C58.2618478,53.4244743 45.380162,65.9869637 41.3215487,71.6489308 C38.8510884,75.0107238 37.9687812,80.8496273 39.7333957,83.5036744 C45.2037006,91.4658155 49.6152368,93.5890532 59.3206165,94.2967991 C59.6735394,94.2967991 62.4969226,96.2431003 61.2616924,96.2431003 C48.909391,96.2431003 42.7332403,92.8813073 34.4395522,79.7880085 C33.557245,78.3725167 31.616169,73.0644226 31.0867847,71.4719943 C27.7340172,62.4482343 28.6163244,47.4086343 26.8517099,35.3769543 C26.3223256,31.8382249 25.6164798,27.768686 23.8518653,25.2915755 C21.0284821,21.0451002 3.91172158,21.9297825 1.4412613,26.3531943 C0.029569707,27.4148131 -0.499814639,28.2994955 0.558954053,29.0072413 C9.91141084,36.0847002 9.91141084,43.8699049 10.2643337,51.4781731 C10.6172566,61.3866155 10.6172566,68.6410108 14.1464856,77.8417073 C21.2049436,97.1277826 37.0864739,109.867209 54.9090803,112.344319 C76.6138385,115.529176 92.3189074,106.859289 104.141824,91.8196885 C114.729511,78.3725167 116.494126,57.4940131 110.84736,41.5697308 L110.84736,41.5697308 Z" id="path3056" fill="#903A36"></path>
                <path d="M46,30.7552013 C46.1731602,29.3674682 46.5194805,26.0716022 47.5584416,25.0308024 C49.4632035,23.2961361 52.0606061,22.2553363 54.3116883,23.6430694 C57.6017316,25.5512023 59.1601732,27.8062685 58.987013,31.4490678 C58.6406926,34.9184004 54.6580087,36.6530667 51.7142857,37 C54.1385281,35.7857336 57.2554113,34.3980005 56.7359307,30.9286679 C56.3896104,29.7144015 53.965368,30.2348014 53.0995671,29.1940016 C52.4069264,28.3266684 53.2727273,25.5512023 52.4069264,25.3777357 C51.8874459,25.3777357 51.1948052,25.3777357 50.6753247,25.5512023 C48.5974026,26.0716022 46.6926407,27.9797352 46,30.7552013 L46,30.7552013 Z" id="path3058" fill="#FFFFFF"></path>
                <path d="M42,53 C42.7272727,51.9354839 44.5454545,50.1612903 45.8181818,48.3870968 C47.6363636,46.0806452 47.4545455,44.6612903 50,42 C47.8181818,45.5483871 48.7272727,47.1451613 46.7272727,49.2741935 C45.8181818,50.1612903 44.9090909,51.5806452 42,53 Z" id="path3060" fill="#FFFFFF"></path>
            </g>
        </g>
    </g>
</svg>