<?xml version="1.0" encoding="UTF-8"?>
<svg width="32px" height="32px" viewBox="0 0 32 32" version="1.1" xmlns="http://www.w3.org/2000/svg" xmlns:xlink="http://www.w3.org/1999/xlink">
    <title>jpa</title>
    <g id="jpa" stroke="none" stroke-width="1" fill="none" fill-rule="evenodd">
        <g id="java" transform="translate(7.000000, 0.000000)" fill-rule="nonzero">
            <g id="Group">
                <path d="M4.1476004,18.2176429 C3.8898258,18.2176429 3.63382897,18.2009716 3.38049876,18.22203 C3.01872546,18.2492305 2.67206307,18.3413612 2.36806683,18.5510682 C2.36628908,18.5528231 2.36362244,18.5545779 2.36095581,18.5563328 C2.09073693,18.7537557 2.07384825,19.0073344 2.3369561,19.2135317 C2.48362096,19.3293531 2.65250776,19.4241161 2.82495007,19.4978206 C3.25338922,19.6838369 3.70938359,19.7864968 4.16893347,19.8733628 C5.09425536,20.0462175 6.02935492,20.1304513 6.96889886,20.1769554 C7.96266436,20.2260917 8.95642986,20.2260917 9.95019535,20.1725682 C11.0941812,20.1102703 12.2328338,19.9935714 13.3457089,19.7119148 C13.8905911,19.5741575 14.4274734,19.4048125 14.8968009,19.0845487 C15.0896874,18.9538109 15.2576853,18.7976274 15.361684,18.5844107 C15.4603495,18.3808458 15.463905,18.1720162 15.3963503,17.9587995 C15.3874615,17.931599 15.3803505,17.9043985 15.3679062,17.8622817 C15.6292363,17.9886323 15.8727888,18.1158604 16.0505644,18.3334643 C16.2532286,18.5782687 16.2621174,18.9213458 16.0870084,19.2345901 C15.9038996,19.5601185 15.6194586,19.776845 15.3030181,19.9611063 C14.7190253,20.3024286 14.0790332,20.5007289 13.4274857,20.6665641 C12.5608298,20.8859229 11.6808406,21.0175381 10.7928516,21.1114237 C9.66397667,21.2316323 8.5324351,21.2790138 7.39822689,21.2640974 C6.48801592,21.2509359 5.57869382,21.2017995 4.67381611,21.0965073 C3.95560277,21.0122735 3.24272269,20.8990844 2.5422869,20.7209651 C1.99740475,20.5823304 1.46230025,20.4164951 0.968084132,20.141858 C0.6596435,19.9707581 0.376091448,19.7689481 0.191204844,19.4600909 C-0.0239036085,19.0985877 0.0249846762,18.7370844 0.326314286,18.4396339 C0.580533366,18.1895649 0.889862877,18.0289943 1.22496985,17.9175601 C1.86940633,17.701711 2.52895373,17.6718782 3.19916767,17.74997 C3.32449946,17.7648864 3.43294256,17.8061258 3.53783015,17.8684237 C3.74049432,17.9877549 3.94671399,18.1026989 4.1476004,18.2176429 Z" id="Shape" fill="#000000"></path>
                <path d="M8.7777654,11.9474919 C8.73687701,11.919414 8.69598863,11.8930909 8.65598913,11.8641356 C7.92355373,11.3350422 7.23822887,10.7533028 6.63468077,10.0838198 C6.19824172,9.59859821 5.8089132,9.08091153 5.56624953,8.47109416 C5.40002936,8.05694481 5.32269698,7.63051136 5.41158478,7.18652922 C5.48180613,6.83380032 5.65069293,6.52582062 5.86135699,6.23714448 C6.25246327,5.7045414 6.7502349,5.27459821 7.25511755,4.85430682 C7.83733258,4.36996266 8.42843638,3.89614773 9.00620702,3.40566153 C9.47197904,3.00993831 9.89864043,2.57560795 10.2230809,2.05528896 C10.4506336,1.69203084 10.5990762,1.30332711 10.6070761,0.870751623 C10.6115205,0.639986201 10.5804098,0.413607955 10.5004108,0.196004058 C10.4870776,0.160906656 10.4755222,0.125809253 10.4630779,0.0907118506 C10.4719667,0.0872021104 10.4799666,0.0828149351 10.4879665,0.0784277597 C10.5830764,0.248650162 10.6852974,0.415362825 10.7724074,0.589972403 C11.0088489,1.0629099 11.1412917,1.56129302 11.1244031,2.09301867 C11.1075144,2.58876948 10.9617384,3.05117776 10.7341857,3.48901786 C10.411523,4.11199675 9.96175077,4.64459984 9.48086782,5.15087987 C8.95998537,5.69927679 8.42576975,6.23626705 7.91110944,6.78992857 C7.6151131,7.1084375 7.36089402,7.46028896 7.2088959,7.87356088 C7.08267523,8.21751542 7.08445299,8.55357305 7.22578458,8.89489529 C7.65155709,9.92675893 8.14132882,10.9261575 8.75287682,11.8658904 C8.76709886,11.8869489 8.77865428,11.9106396 8.79109857,11.9334529 C8.78665418,11.9369627 8.78132091,11.9422273 8.7777654,11.9474919 Z" id="Shape" fill="#000000"></path>
                <path d="M6.27468522,11.5421169 C5.96535571,11.6333701 5.65424844,11.7193588 5.34758557,11.8193864 C5.05158922,11.9159042 4.75559288,12.0194416 4.49515166,12.1931737 C4.4249303,12.2396778 4.36093109,12.3010982 4.30759842,12.3660284 C4.23559931,12.452017 4.25337687,12.5318636 4.35915334,12.5687159 C4.49870717,12.6169748 4.64270539,12.6599692 4.78848136,12.6775179 C5.17514325,12.7213896 5.56269402,12.7643839 5.95202254,12.7793003 C7.18311844,12.8328239 8.41510321,12.8100106 9.64619911,12.736306 C10.3101909,12.6968214 10.9759605,12.655582 11.6381745,12.5862646 C12.2381671,12.5239667 12.8328264,12.4221843 13.4301523,12.3379505 C13.4505965,12.3353182 13.4710407,12.3318084 13.5012626,12.3440925 C13.3857085,12.4379781 13.272821,12.5362508 13.1528224,12.6239943 C12.8088267,12.8766956 12.4630532,13.1250097 12.1163908,13.3733239 C12.0879467,13.3926274 12.0550582,13.411931 12.0221697,13.4171956 C11.2524015,13.5321396 10.484411,13.6593677 9.7110872,13.7541307 C8.52976846,13.8989075 7.34044983,13.9550633 6.15024231,13.9471664 C5.27825309,13.9419018 4.40715274,13.89803 3.54583005,13.7558856 C3.07916915,13.6795487 2.61606377,13.5821534 2.19562452,13.3548977 C2.08273702,13.2934773 1.97162729,13.216263 1.88540613,13.1215 C1.66318665,12.8810828 1.70229728,12.5590641 1.96540514,12.3282987 C2.21695759,12.1089399 2.52273159,11.9948734 2.83828324,11.905375 C3.59205171,11.6930357 4.36626436,11.6123117 5.1449214,11.5710722 C5.52269451,11.5517687 5.89957874,11.5412394 6.27646298,11.5263231 C6.2755741,11.5324651 6.27468522,11.5368523 6.27468522,11.5421169 Z" id="Shape" fill="#000000"></path>
                <path d="M9.48886772,12.4204294 C9.7030873,12.2309034 9.88708502,12.0176867 10.0408609,11.7781469 C10.1964145,11.5333425 10.302191,11.2709894 10.316413,10.979681 C10.3333017,10.6497654 10.2186365,10.3540698 10.0461942,10.0829424 C9.8275302,9.73986526 9.59197756,9.40819481 9.37242472,9.06687256 C9.14220534,8.71063393 8.98487395,8.32631737 8.95820761,7.89900649 C8.93954118,7.58576218 8.98842946,7.27778247 9.07998389,6.97857711 C9.29509234,6.27487419 9.74664231,5.74314854 10.3395239,5.31846997 C10.9848492,4.85781656 11.7119514,4.57440503 12.471942,4.36557549 C13.0372683,4.21026948 13.6123723,4.10585471 14.2052539,4.06549269 C14.1785875,4.08391883 14.1519212,4.10234497 14.1252549,4.11901623 C13.4808184,4.52175893 12.8559372,4.95082468 12.2568335,5.41498782 C11.8461719,5.73261932 11.4515101,6.06779951 11.1084033,6.45738068 C11.0177377,6.56179545 10.9350721,6.67322971 10.8541842,6.7855414 C10.5990762,7.13651542 10.6026317,7.51819968 10.753741,7.90076136 C10.8568508,8.15872727 10.9955158,8.40353166 11.1199587,8.65272321 C11.2648458,8.94403166 11.4319548,9.22744318 11.5555088,9.52840341 C11.8203945,10.168931 11.7110625,10.7717289 11.3048453,11.324513 C10.9608495,11.7913084 10.4888554,12.0887589 9.95286199,12.2932013 C9.80441938,12.3493571 9.6506435,12.3932289 9.49864538,12.4423653 C9.49508987,12.4344683 9.49153435,12.4283263 9.48886772,12.4204294 Z" id="Shape" fill="#000000"></path>
                <path d="M12.7181611,15.5002265 C12.5874961,15.5502403 12.4674976,15.5976218 12.3439435,15.6406161 C11.4790653,15.938944 10.5901874,16.1337346 9.6826431,16.2442914 C8.85509778,16.344319 8.02399694,16.3855584 7.19022946,16.3487062 C6.32712902,16.3083442 5.47113959,16.2223555 4.638261,15.9775511 C4.32182046,15.884543 4.00982432,15.7757411 3.74227207,15.5756859 C3.66582857,15.51953 3.59382946,15.4475804 3.53783015,15.3703661 C3.43027593,15.2212021 3.45427563,15.0307987 3.59027395,14.8474148 C3.76004963,14.6184042 3.9947134,14.4692403 4.24626584,14.3455219 C4.50315156,14.2182938 4.77337044,14.1323052 5.05958913,14.0989627 C5.10581078,14.0936981 5.15203243,14.0936981 5.21603164,14.0901883 C5.15736569,14.1516088 5.10669965,14.1998677 5.06314464,14.2542687 C4.91647978,14.4297557 4.93870173,14.6043653 5.12803272,14.736858 C5.35114108,14.8930414 5.6115823,14.958849 5.87469016,15.0088628 C6.8106786,15.1869821 7.75466693,15.1817175 8.7013219,15.1194196 C9.50131201,15.0667735 10.2933022,14.9614813 11.0621816,14.7377354 C11.2888455,14.6719278 11.4515101,14.6956185 11.6390634,14.823724 C11.9608372,15.0448377 12.3021663,15.2396282 12.6337177,15.4458255 C12.6594952,15.4607419 12.6834949,15.4765357 12.7181611,15.5002265 Z" id="Shape" fill="#000000"></path>
                <path d="M5.87469016,16.4715471 C5.83735729,16.5285804 5.80535769,16.5706972 5.78135798,16.6163239 C5.70847,16.7532037 5.73513633,16.8716575 5.86046812,16.9646656 C6.01157736,17.0778547 6.19024182,17.1226039 6.37157291,17.1594562 C6.89423312,17.2638709 7.42400435,17.2621161 7.9528867,17.2428125 C8.54754602,17.2217541 9.14042758,17.1620885 9.72175373,17.0331055 C10.0968602,16.9506266 10.4630779,16.8277857 10.8346289,16.7251258 C10.8692951,16.715474 10.9190723,16.7137192 10.9466275,16.7312679 C11.4026218,17.019944 11.8550607,17.3112524 12.3092773,17.6025609 C12.3208327,17.6095804 12.3306104,17.6201096 12.3581656,17.641168 C12.1768345,17.7306664 12.0106143,17.8201648 11.8390609,17.8956242 C11.2310684,18.1597321 10.5919652,18.316793 9.93952882,18.4264724 C9.08176164,18.5703718 8.21599456,18.6265276 7.34578309,18.6028369 C6.64534731,18.5844107 5.95113366,18.5221128 5.27647533,18.3203028 C4.98847889,18.2334367 4.70848235,18.1263896 4.48359624,17.9175601 C4.27470994,17.7210146 4.23382155,17.4805974 4.36715324,17.229651 C4.46581869,17.0427573 4.61337242,16.8997354 4.78937024,16.7830365 C5.11381068,16.5698198 5.47469511,16.4811989 5.87469016,16.4715471 Z" id="Shape" fill="#000000"></path>
                <path d="M3.11205764,21.6150714 C3.32361058,21.6598206 3.53516352,21.7045698 3.74671646,21.7475641 C4.56803964,21.9142768 5.39558497,22.0406274 6.22935245,22.1336356 C7.40533791,22.2626185 8.58399001,22.3170195 9.76619763,22.2827995 C11.3919553,22.2371729 12.9954911,22.0441372 14.5599162,21.5834838 C15.4407942,21.3246404 16.2896726,20.9894602 17.0594408,20.4866899 C17.3261042,20.3129578 17.5687679,20.1032508 17.822987,19.9093377 C17.8478755,19.8900341 17.8718752,19.8680982 17.910097,19.8365106 C17.9074304,20.0356883 17.866542,20.2094205 17.7972095,20.3761331 C17.6807665,20.6560349 17.4976576,20.8894326 17.2754382,21.0929976 C16.7714444,21.553651 16.1705629,21.8511015 15.5359041,22.0906412 C14.7305807,22.3942338 13.8950355,22.5828823 13.0434905,22.7127427 C12.0177254,22.870681 10.986627,22.931224 9.94930648,22.9198174 C9.14309422,22.911043 8.33954859,22.8531323 7.53955848,22.7522273 C6.40535027,22.6074505 5.29069738,22.3722979 4.20182195,22.025711 C3.83204874,21.9072573 3.46938655,21.7712549 3.10405774,21.6422719 C3.10672437,21.634375 3.109391,21.6256006 3.11205764,21.6150714 Z" id="Shape" fill="#000000"></path>
                <path d="M13.8452583,12.0378677 C14.0194784,11.9413498 14.1910318,11.8343028 14.3723629,11.7518239 C14.6941367,11.6070471 15.034577,11.53422 15.391017,11.5333425 C16.2203401,11.5307102 16.8843319,12.080862 17.0007749,12.891612 C17.1483286,13.9103141 16.803444,14.7447549 16.0007872,15.3940568 C15.4283499,15.8555877 14.7599137,16.1249602 14.0532558,16.310099 C13.8719247,16.358358 13.6879269,16.3917005 13.5048181,16.4311851 C13.4719296,16.4373271 13.4372634,16.4382045 13.3972639,16.4267979 C13.4168192,16.4110041 13.4363745,16.3960877 13.4559298,16.3802938 C13.9883677,15.9907127 14.4843615,15.5625244 14.9065785,15.0562443 C15.2363522,14.6613985 15.5181265,14.2384748 15.6567915,13.7392143 C15.7323461,13.4672094 15.77679,13.1908174 15.6781246,12.9161802 C15.5359041,12.520457 15.23813,12.2782849 14.8514681,12.1326307 C14.5288054,12.0115446 14.197254,12.000138 13.8594804,12.0615584 C13.8541471,12.0536615 13.8497027,12.0457646 13.8452583,12.0378677 Z" id="Shape" fill="#000000"></path>
            </g>
        </g>
        <path d="M12.204,28.872 C12.204,29.1226679 12.1826669,29.3653322 12.14,29.6 C12.0973331,29.8346678 12.0106673,30.0453324 11.88,30.232 C11.7493327,30.4186676 11.5600012,30.5679994 11.312,30.68 C11.0639988,30.7920006 10.7346687,30.848 10.324,30.848 C10.0199985,30.848 9.7613344,30.8013338 9.548,30.708 C9.3346656,30.6146662 9.15866736,30.4866675 9.02,30.324 C8.88133264,30.1613325 8.78000032,29.9680011 8.716,29.744 C8.65199968,29.5199989 8.62,29.2773346 8.62,29.016 L8.62,28.712 L9.62,28.712 L9.62,29.008 C9.62,29.333335 9.67466612,29.5853324 9.784,29.764 C9.89333388,29.9426676 10.0999985,30.032 10.404,30.032 C10.5640008,30.032 10.6959995,30.0080002 10.8,29.96 C10.9040005,29.9119998 10.9866664,29.8413338 11.048,29.748 C11.1093336,29.6546662 11.1506666,29.5386674 11.172,29.4 C11.1933334,29.2613326 11.204,29.1040009 11.204,28.928 L11.204,25 L12.204,25 L12.204,28.872 Z M13.42,25 L15.94,25 C16.3453354,25 16.6759987,25.0586661 16.932,25.176 C17.1880013,25.2933339 17.3853326,25.4399991 17.524,25.616 C17.6626674,25.7920009 17.7573331,25.983999 17.808,26.192 C17.8586669,26.400001 17.884,26.5919991 17.884,26.768 C17.884,26.9440009 17.8586669,27.1346656 17.808,27.34 C17.7573331,27.5453344 17.6626674,27.7359991 17.524,27.912 C17.3853326,28.0880009 17.1880013,28.2333328 16.932,28.348 C16.6759987,28.4626672 16.3453354,28.52 15.94,28.52 L14.42,28.52 L14.42,30.712 L13.42,30.712 L13.42,25 Z M14.42,27.704 L15.884,27.704 C15.9960006,27.704 16.1106661,27.6880002 16.228,27.656 C16.3453339,27.6239998 16.4533328,27.5720004 16.552,27.5 C16.6506672,27.4279996 16.7306664,27.3320006 16.792,27.212 C16.8533336,27.0919994 16.884,26.9413342 16.884,26.76 C16.884,26.5733324 16.8573336,26.4186673 16.804,26.296 C16.7506664,26.1733327 16.6786671,26.0760004 16.588,26.004 C16.4973329,25.9319996 16.3933339,25.8826668 16.276,25.856 C16.1586661,25.8293332 16.033334,25.816 15.9,25.816 L14.42,25.816 L14.42,27.704 Z M20.284,25 L21.348,25 L23.548,30.712 L22.476,30.712 L21.94,29.2 L19.66,29.2 L19.124,30.712 L18.092,30.712 L20.284,25 Z M19.932,28.44 L21.676,28.44 L20.82,25.984 L20.796,25.984 L19.932,28.44 Z" id="JPA" fill="#000000"></path>
    </g>
</svg>