<?xml version="1.0" encoding="UTF-8" standalone="no"?>
<!DOCTYPE svg PUBLIC "-//W3C//DTD SVG 1.1//EN" "http://www.w3.org/Graphics/SVG/1.1/DTD/svg11.dtd">
<!-- Created with Vectornator (http://vectornator.io/) -->
<svg height="100%" stroke-miterlimit="10" style="fill-rule:nonzero;clip-rule:evenodd;stroke-linecap:round;stroke-linejoin:round;" version="1.1" viewBox="0 0 56 56" width="100%" xml:space="preserve" xmlns="http://www.w3.org/2000/svg" xmlns:vectornator="http://vectornator.io" xmlns:xlink="http://www.w3.org/1999/xlink">
<defs/>
<g id="Untitled" vectornator:layerName="Untitled">
<g opacity="1" vectornator:layerName="g">
<path d="M36.985 0L7.963 0C7.155 0 6.5 0.655 6.5 1.926L6.5 55C6.5 55.345 7.155 56 7.963 56L48.037 56C48.845 56 49.5 55.345 49.5 55L49.5 12.978C49.5 12.282 49.407 12.058 49.243 11.893L37.607 0.257C37.442 0.093 37.218 0 36.985 0Z" fill="#e9e9e0" fill-rule="nonzero" opacity="1" stroke="none" vectornator:layerName="path"/>
<path d="M37.5 0.151L37.5 12L49.349 12L37.5 0.151Z" fill="#d9d7ca" fill-rule="nonzero" opacity="1" stroke="none" vectornator:layerName="polygon"/>
<path d="M48.037 56L7.963 56C7.155 56 6.5 55.345 6.5 54.537L6.5 39L49.5 39L49.5 54.537C49.5 55.345 48.845 56 48.037 56Z" fill="#000000" fill-rule="nonzero" opacity="1" stroke="none" vectornator:layerName="path"/>
<g opacity="0" vectornator:layerName="g">
<path d="M21.867 42.924L21.867 44.045L18.859 44.045L18.859 53L17.205 53L17.205 44.045L14.197 44.045L14.197 42.924L21.867 42.924Z" fill="#ffffff" fill-rule="nonzero" opacity="1" stroke="none" vectornator:layerName="path"/>
</g>
<path d="M18.5 13L12.5 13C11.947 13 11.5 12.552 11.5 12C11.5 11.448 11.947 11 12.5 11L18.5 11C19.053 11 19.5 11.448 19.5 12C19.5 12.552 19.053 13 18.5 13Z" fill="#000000" fill-rule="nonzero" opacity="1" stroke="none" vectornator:layerName="path"/>
<path d="M21.5 18L12.5 18C11.947 18 11.5 17.552 11.5 17C11.5 16.448 11.947 16 12.5 16L21.5 16C22.053 16 22.5 16.448 22.5 17C22.5 17.552 22.053 18 21.5 18Z" fill="#000000" fill-rule="nonzero" opacity="1" stroke="none" vectornator:layerName="path"/>
<path d="M25.5 18C25.24 18 24.979 17.89 24.79 17.71C24.609 17.52 24.5 17.27 24.5 17C24.5 16.73 24.609 16.48 24.8 16.29C25.16 15.92 25.84 15.92 26.21 16.29C26.39 16.48 26.5 16.74 26.5 17C26.5 17.26 26.39 17.52 26.21 17.71C26.02 17.89 25.76 18 25.5 18Z" fill="#000000" fill-rule="nonzero" opacity="1" stroke="none" vectornator:layerName="path"/>
<path d="M37.5 18L29.5 18C28.947 18 28.5 17.552 28.5 17C28.5 16.448 28.947 16 29.5 16L37.5 16C38.053 16 38.5 16.448 38.5 17C38.5 17.552 38.053 18 37.5 18Z" fill="#000000" fill-rule="nonzero" opacity="1" stroke="none" vectornator:layerName="path"/>
<path d="M12.5 33C12.24 33 11.979 32.89 11.79 32.71C11.609 32.52 11.5 32.26 11.5 32C11.5 31.74 11.609 31.48 11.79 31.29C12.16 30.92 12.84 30.92 13.21 31.3C13.39 31.48 13.5 31.74 13.5 32C13.5 32.26 13.39 32.52 13.21 32.71C13.02 32.89 12.76 33 12.5 33Z" fill="#000000" fill-rule="nonzero" opacity="1" stroke="none" vectornator:layerName="path"/>
<path d="M24.5 33L16.5 33C15.947 33 15.5 32.552 15.5 32C15.5 31.448 15.947 31 16.5 31L24.5 31C25.053 31 25.5 31.448 25.5 32C25.5 32.552 25.053 33 24.5 33Z" fill="#000000" fill-rule="nonzero" opacity="1" stroke="none" vectornator:layerName="path"/>
<path d="M43.5 18L41.5 18C40.947 18 40.5 17.552 40.5 17C40.5 16.448 40.947 16 41.5 16L43.5 16C44.053 16 44.5 16.448 44.5 17C44.5 17.552 44.053 18 43.5 18Z" fill="#000000" fill-rule="nonzero" opacity="1" stroke="none" vectornator:layerName="path"/>
<path d="M34.5 23L12.5 23C11.947 23 11.5 22.552 11.5 22C11.5 21.448 11.947 21 12.5 21L34.5 21C35.053 21 35.5 21.448 35.5 22C35.5 22.552 35.053 23 34.5 23Z" fill="#000000" fill-rule="nonzero" opacity="1" stroke="none" vectornator:layerName="path"/>
<path d="M43.5 23L37.5 23C36.947 23 36.5 22.552 36.5 22C36.5 21.448 36.947 21 37.5 21L43.5 21C44.053 21 44.5 21.448 44.5 22C44.5 22.552 44.053 23 43.5 23Z" fill="#000000" fill-rule="nonzero" opacity="1" stroke="none" vectornator:layerName="path"/>
<path d="M16.5 28L12.5 28C11.947 28 11.5 27.552 11.5 27C11.5 26.448 11.947 26 12.5 26L16.5 26C17.053 26 17.5 26.448 17.5 27C17.5 27.552 17.053 28 16.5 28Z" fill="#000000" fill-rule="nonzero" opacity="1" stroke="none" vectornator:layerName="path"/>
<path d="M30.5 28L20.5 28C19.947 28 19.5 27.552 19.5 27C19.5 26.448 19.947 26 20.5 26L30.5 26C31.053 26 31.5 26.448 31.5 27C31.5 27.552 31.053 28 30.5 28Z" fill="#000000" fill-rule="nonzero" opacity="1" stroke="none" vectornator:layerName="path"/>
<path d="M43.5 28L34.5 28C33.947 28 33.5 27.552 33.5 27C33.5 26.448 33.947 26 34.5 26L43.5 26C44.053 26 44.5 26.448 44.5 27C44.5 27.552 44.053 28 43.5 28Z" fill="#000000" fill-rule="nonzero" opacity="1" stroke="none" vectornator:layerName="path"/>
</g>
<g fill="#ffffff" opacity="0" stroke="none">
<path d="M17.4192 42.8477L18.7932 42.8477L18.7932 52.8897L17.4192 52.8897L17.4192 42.8477Z"/>
<path d="M23.0012 42.8477L24.6077 42.8477L29.68 50.9824L29.68 42.8477L30.9719 42.8477L30.9719 52.8897L29.4475 52.8897L24.3001 44.7617L24.3001 52.8897L23.0012 52.8897L23.0012 42.8477Z"/>
<path d="M35.4192 42.8477L36.7932 42.8477L36.7932 52.8897L35.4192 52.8897L35.4192 42.8477Z"/>
</g>
<g fill="#ffffff" opacity="0" stroke="none">
<path d="M15.4568 42.5742C16.7283 42.5742 17.7149 42.9092 18.4168 43.5791C19.1186 44.249 19.5082 45.0101 19.5857 45.8623L18.2595 45.8623C18.1091 45.2152 17.8095 44.7025 17.3606 44.3242C16.9117 43.946 16.2817 43.7568 15.4705 43.7568C14.4815 43.7568 13.6829 44.1043 13.0745 44.7993C12.4661 45.4943 12.1619 46.5596 12.1619 47.9951C12.1619 49.1709 12.4365 50.1245 12.9856 50.856C13.5348 51.5874 14.3539 51.9531 15.4431 51.9531C16.4457 51.9531 17.2091 51.568 17.7332 50.7979C18.0112 50.3923 18.2185 49.8591 18.3552 49.1982L19.6814 49.1982C19.5629 50.2555 19.171 51.1419 18.5056 51.8574C17.7081 52.7188 16.6326 53.1494 15.2791 53.1494C14.1124 53.1494 13.1326 52.7962 12.3396 52.0899C11.296 51.1556 10.7742 49.7132 10.7742 47.7627C10.7742 46.2816 11.1661 45.0671 11.95 44.1191C12.7976 43.0892 13.9666 42.5742 15.4568 42.5742Z"/>
<path d="M24.6697 42.5742C26.4425 42.5742 27.755 43.1439 28.6072 44.2832C29.2726 45.1719 29.6052 46.3089 29.6052 47.6943C29.6052 49.1937 29.2247 50.4401 28.4636 51.4336C27.5704 52.6003 26.2966 53.1836 24.6424 53.1836C23.0974 53.1836 21.8829 52.6732 20.9988 51.6524C20.2104 50.668 19.8162 49.4238 19.8162 47.9199C19.8162 46.5619 20.1534 45.3997 20.8279 44.4336C21.6938 43.194 22.9744 42.5742 24.6697 42.5742ZM24.8064 51.9668C26.005 51.9668 26.872 51.5373 27.4075 50.6782C27.943 49.8192 28.2107 48.8314 28.2107 47.7149C28.2107 46.5345 27.902 45.5843 27.2844 44.8643C26.6669 44.1442 25.8227 43.7842 24.7517 43.7842C23.7127 43.7842 22.865 44.1408 22.2088 44.854C21.5525 45.5672 21.2244 46.6188 21.2244 48.0088C21.2244 49.1208 21.5058 50.0584 22.0686 50.8218C22.6314 51.5851 23.544 51.9668 24.8064 51.9668Z"/>
<path d="M30.2254 42.8477L31.8318 42.8477L36.9041 50.9824L36.9041 42.8477L38.1961 42.8477L38.1961 52.8897L36.6716 52.8897L31.5242 44.7617L31.5242 52.8897L30.2254 52.8897L30.2254 42.8477Z"/>
<path d="M39.4656 42.8477L46.4314 42.8477L46.4314 44.0781L40.8259 44.0781L40.8259 47.127L45.7547 47.127L45.7547 48.3232L40.8259 48.3232L40.8259 52.8897L39.4656 52.8897L39.4656 42.8477Z"/>
</g>
<g fill="#ffffff" opacity="1" stroke="none">
<path d="M12.927 52.8897L11.2864 52.8897L14.8821 47.7422L11.512 42.8477L13.2141 42.8477L15.7776 46.6895L18.3206 42.8477L19.9407 42.8477L16.5706 47.7422L20.1048 52.8897L18.4163 52.8897L15.7092 48.7607L12.927 52.8897Z"/>
<path d="M22.2923 49.6494C22.3242 50.2191 22.4586 50.6816 22.6956 51.0371C23.1467 51.7025 23.942 52.0352 25.0813 52.0352C25.5917 52.0352 26.0566 51.9622 26.4758 51.8164C27.287 51.5339 27.6926 51.028 27.6926 50.2988C27.6926 49.752 27.5217 49.3623 27.18 49.1299C26.8336 48.902 26.2913 48.7038 25.553 48.5352L24.1926 48.2275C23.304 48.027 22.6751 47.806 22.3059 47.5645C21.6679 47.1452 21.3489 46.5186 21.3489 45.6846C21.3489 44.7822 21.6611 44.0417 22.2854 43.4629C22.9098 42.8841 23.7939 42.5947 24.9378 42.5947C25.9905 42.5947 26.8849 42.8488 27.6209 43.3569C28.3569 43.8651 28.7249 44.6774 28.7249 45.794L27.4466 45.794C27.3782 45.2562 27.2324 44.8438 27.0091 44.5566C26.5943 44.0326 25.8902 43.7705 24.8967 43.7705C24.0947 43.7705 23.5182 43.9391 23.1673 44.2764C22.8163 44.6136 22.6409 45.0055 22.6409 45.4522C22.6409 45.9443 22.846 46.3044 23.2561 46.5322C23.525 46.6781 24.1334 46.8604 25.0813 47.0791L26.4895 47.4004C27.1686 47.5553 27.6926 47.7673 28.0618 48.0361C28.6998 48.5055 29.0188 49.1869 29.0188 50.0801C29.0188 51.1921 28.6144 51.9873 27.8054 52.4658C26.9965 52.9443 26.0566 53.1836 24.9856 53.1836C23.7369 53.1836 22.7594 52.8646 22.053 52.2266C21.3466 51.5931 21.0003 50.7341 21.0139 49.6494L22.2923 49.6494Z"/>
<path d="M30.7415 42.8477L32.1018 42.8477L32.1018 51.6934L37.1878 51.6934L37.1878 52.8897L30.7415 52.8897L30.7415 42.8477Z"/>
<path d="M44.803 42.8477L44.803 44.044L41.4192 44.044L41.4192 52.8897L40.0383 52.8897L40.0383 44.044L36.6546 44.044L36.6546 42.8477L44.803 42.8477Z"/>
</g>
</g>
</svg>
