<?xml version="1.0" encoding="UTF-8"?>
<svg width="64px" height="60px" viewBox="0 0 64 60" version="1.1" xmlns="http://www.w3.org/2000/svg" xmlns:xlink="http://www.w3.org/1999/xlink">
    <title>jackson</title>
    <g id="jackson" stroke="none" stroke-width="1" fill="none" fill-rule="evenodd">
        <g id="{Jackson}-Copy" transform="translate(0.740967, 22.259766)" fill="#4A4A4A" fill-rule="nonzero">
            <path d="M1.625,1.77099609 C1.625,1.28011068 1.72021484,0.913004557 1.91064453,0.669677734 C2.10107422,0.426350911 2.39729818,0.25390625 2.79931641,0.15234375 C3.20133464,0.05078125 3.73665365,0 4.40527344,0 L4.40527344,1.33935547 C3.94824219,1.34781901 3.63297526,1.42399089 3.45947266,1.56787109 C3.28597005,1.7117513 3.19921875,1.93603516 3.19921875,2.24072266 L3.19921875,5.35742188 C3.19921875,6.14453125 2.74007161,6.61214193 1.82177734,6.76025391 L1.82177734,6.84277344 C2.74007161,6.99088542 3.19921875,7.45849609 3.19921875,8.24560547 L3.19921875,11.3496094 C3.19921875,11.6585286 3.29125977,11.8849284 3.4753418,12.0288086 C3.65942383,12.1726888 3.96940104,12.2467448 4.40527344,12.2509766 L4.40527344,13.5712891 C3.61816406,13.5712891 3.0320638,13.5067546 2.64697266,13.3776855 C2.26188151,13.2486165 1.99527995,13.0613607 1.84716797,12.815918 C1.69905599,12.5704753 1.625,12.2382812 1.625,11.8193359 L1.625,8.6328125 C1.625,8.24772135 1.4938151,7.96313477 1.23144531,7.77905273 C0.969075521,7.5949707 0.55859375,7.50292969 0,7.50292969 L0,6.08740234 C0.579752604,6.08740234 0.995524089,5.9921875 1.24731445,5.80175781 C1.49910482,5.61132812 1.625,5.32991536 1.625,4.95751953 L1.625,1.77099609 Z" id="Path"></path>
            <path d="M9.57226562,7.92822266 L9.57226562,1.38378906 L11.5273438,1.38378906 L11.5273438,7.89648438 C11.5273438,8.69205729 11.3898112,9.32259115 11.1147461,9.78808594 C10.6492513,10.5751953 9.80924479,10.96875 8.59472656,10.96875 C7.38020833,10.96875 6.56559245,10.6503092 6.15087891,10.0134277 C5.73616536,9.37654622 5.52880859,8.50797526 5.52880859,7.40771484 L5.52880859,7.19189453 L7.37597656,7.19189453 L7.37597656,7.40771484 C7.39290365,8.13134766 7.47224935,8.6402181 7.61401367,8.93432617 C7.75577799,9.22843424 8.05940755,9.37548828 8.52490234,9.37548828 C8.98616536,9.37548828 9.29085286,9.21468099 9.43896484,8.89306641 C9.52783203,8.70263672 9.57226562,8.38102214 9.57226562,7.92822266 Z" id="Path"></path>
            <path d="M13.5776367,4.5703125 C14.0558268,3.9609375 14.8767904,3.65625 16.0405273,3.65625 C16.7980143,3.65625 17.4708659,3.80647786 18.059082,4.10693359 C18.6472982,4.40738932 18.9414062,4.97444661 18.9414062,5.80810547 L18.9414062,8.98193359 C18.9414062,9.20198568 18.945638,9.46858724 18.9541016,9.78173828 C18.9667969,10.0187174 19.0027669,10.1795247 19.0620117,10.2641602 C19.1212565,10.3487956 19.2101237,10.4186198 19.3286133,10.4736328 L19.3286133,10.7402344 L17.3608398,10.7402344 C17.3058268,10.6005859 17.2677409,10.469401 17.246582,10.3466797 C17.2254232,10.2239583 17.2084961,10.0843099 17.1958008,9.92773438 C16.9461263,10.1985677 16.6583659,10.4291992 16.3325195,10.6196289 C15.9431966,10.8439128 15.5030924,10.9560547 15.012207,10.9560547 C14.3859049,10.9560547 13.868571,10.7772624 13.4602051,10.4196777 C13.0518392,10.0620931 12.8476562,9.55533854 12.8476562,8.89941406 C12.8476562,8.04882812 13.1756185,7.43310547 13.831543,7.05224609 C14.1912435,6.84488932 14.7202148,6.69677734 15.418457,6.60791016 L16.0341797,6.53173828 C16.3684896,6.48942057 16.6075846,6.43652344 16.7514648,6.37304688 C17.0096029,6.26302083 17.1386719,6.09163411 17.1386719,5.85888672 C17.1386719,5.57535807 17.0402832,5.37963867 16.8435059,5.27172852 C16.6467285,5.16381836 16.3579102,5.10986328 15.9770508,5.10986328 C15.5496419,5.10986328 15.2470703,5.21565755 15.0693359,5.42724609 C14.9423828,5.58382161 14.8577474,5.79541016 14.8154297,6.06201172 L13.0698242,6.06201172 C13.1079102,5.45686849 13.277181,4.95963542 13.5776367,4.5703125 Z M14.9233398,9.43261719 C15.0926107,9.57226562 15.2999674,9.64208984 15.5454102,9.64208984 C15.9347331,9.64208984 16.2933757,9.52783203 16.6213379,9.29931641 C16.9493001,9.07080078 17.1196289,8.65397135 17.1323242,8.04882812 L17.1323242,7.37597656 C17.0180664,7.44791667 16.9027507,7.50610352 16.786377,7.55053711 C16.6700033,7.5949707 16.5102539,7.63623047 16.3071289,7.67431641 L15.9008789,7.75048828 C15.5200195,7.81819661 15.2470703,7.90071615 15.0820312,7.99804688 C14.8027344,8.16308594 14.6630859,8.41910807 14.6630859,8.76611328 C14.6630859,9.07503255 14.7498372,9.29720052 14.9233398,9.43261719 Z" id="Shape"></path>
            <path d="M26.5332031,6.30322266 L24.6796875,6.30322266 C24.6458333,6.04508464 24.559082,5.81233724 24.4194336,5.60498047 C24.2163086,5.32568359 23.9010417,5.18603516 23.4736328,5.18603516 C22.8642578,5.18603516 22.4474284,5.48860677 22.2231445,6.09375 C22.1046549,6.41536458 22.0454102,6.84277344 22.0454102,7.37597656 C22.0454102,7.88378906 22.1046549,8.29215495 22.2231445,8.60107422 C22.4389648,9.17659505 22.8452148,9.46435547 23.4418945,9.46435547 C23.8650716,9.46435547 24.1655273,9.35009766 24.3432617,9.12158203 C24.5209961,8.89306641 24.6289062,8.59684245 24.6669922,8.23291016 L26.5141602,8.23291016 C26.4718424,8.78304036 26.2729492,9.30354818 25.9174805,9.79443359 C25.3504232,10.5857747 24.5104167,10.9814453 23.3974609,10.9814453 C22.2845052,10.9814453 21.4656576,10.6513672 20.940918,9.99121094 C20.4161784,9.33105469 20.1538086,8.47412109 20.1538086,7.42041016 C20.1538086,6.23128255 20.4436849,5.30664062 21.0234375,4.64648438 C21.6031901,3.98632812 22.4029948,3.65625 23.4228516,3.65625 C24.2903646,3.65625 25.0002441,3.85091146 25.5524902,4.24023438 C26.1047363,4.62955729 26.4316406,5.31722005 26.5332031,6.30322266 Z" id="Path"></path>
            <polygon id="Path" points="34.125 10.7402344 31.9414062 10.7402344 30.284668 7.78222656 29.5356445 8.56298828 29.5356445 10.7402344 27.7583008 10.7402344 27.7583008 1.41552734 29.5356445 1.41552734 29.5356445 6.45556641 31.7890625 3.85302734 34.0297852 3.85302734 31.6113281 6.5"></polygon>
            <path d="M39.7744141,4.13867188 C40.3160807,4.48567708 40.6271159,5.08235677 40.7075195,5.92871094 L38.8984375,5.92871094 C38.8730469,5.69596354 38.8074544,5.51188151 38.7016602,5.37646484 C38.5027669,5.13102214 38.1642253,5.00830078 37.6860352,5.00830078 C37.2924805,5.00830078 37.0121257,5.06966146 36.8449707,5.19238281 C36.6778158,5.31510417 36.5942383,5.45898438 36.5942383,5.62402344 C36.5942383,5.83138021 36.6831055,5.98160807 36.8608398,6.07470703 C37.0385742,6.17203776 37.6669922,6.33919271 38.7460938,6.57617188 C39.4654948,6.74544271 40.0050456,7.00146484 40.3647461,7.34423828 C40.7202148,7.69124349 40.8979492,8.125 40.8979492,8.64550781 C40.8979492,9.33105469 40.642985,9.89070638 40.1330566,10.3244629 C39.6231283,10.7582194 38.8349609,10.9750977 37.7685547,10.9750977 C36.6809896,10.9750977 35.8780111,10.7455241 35.3596191,10.286377 C34.8412272,9.82722982 34.5820312,9.2421875 34.5820312,8.53125 L36.4165039,8.53125 C36.4545898,8.85286458 36.5371094,9.08138021 36.6640625,9.21679688 C36.8883464,9.45800781 37.3030599,9.57861328 37.9082031,9.57861328 C38.2636719,9.57861328 38.5461426,9.52571615 38.7556152,9.41992188 C38.9650879,9.3141276 39.0698242,9.1554362 39.0698242,8.94384766 C39.0698242,8.74072266 38.9851888,8.58626302 38.815918,8.48046875 C38.6466471,8.37467448 38.0182292,8.19270833 36.9306641,7.93457031 C36.1477865,7.73990885 35.5955404,7.49658203 35.2739258,7.20458984 C34.9523112,6.91682943 34.7915039,6.50211589 34.7915039,5.96044922 C34.7915039,5.32145182 35.0422363,4.77237956 35.5437012,4.31323242 C36.045166,3.85408529 36.7508138,3.62451172 37.6606445,3.62451172 C38.5239258,3.62451172 39.2285156,3.79589844 39.7744141,4.13867188 Z" id="Path"></path>
            <path d="M48.0073242,4.69726562 C48.5913086,5.42936198 48.8833008,6.29475911 48.8833008,7.29345703 C48.8833008,8.30908203 48.5913086,9.17765299 48.0073242,9.89916992 C47.4233398,10.6206868 46.5367839,10.9814453 45.3476562,10.9814453 C44.1585286,10.9814453 43.2719727,10.6206868 42.6879883,9.89916992 C42.1040039,9.17765299 41.8120117,8.30908203 41.8120117,7.29345703 C41.8120117,6.29475911 42.1040039,5.42936198 42.6879883,4.69726562 C43.2719727,3.96516927 44.1585286,3.59912109 45.3476562,3.59912109 C46.5367839,3.59912109 47.4233398,3.96516927 48.0073242,4.69726562 Z M45.3413086,5.12890625 C44.8123372,5.12890625 44.4050293,5.31616211 44.1193848,5.69067383 C43.8337402,6.06518555 43.690918,6.59944661 43.690918,7.29345703 C43.690918,7.98746745 43.8337402,8.52278646 44.1193848,8.89941406 C44.4050293,9.27604167 44.8123372,9.46435547 45.3413086,9.46435547 C45.8702799,9.46435547 46.2765299,9.27604167 46.5600586,8.89941406 C46.8435872,8.52278646 46.9853516,7.98746745 46.9853516,7.29345703 C46.9853516,6.59944661 46.8435872,6.06518555 46.5600586,5.69067383 C46.2765299,5.31616211 45.8702799,5.12890625 45.3413086,5.12890625 Z" id="Shape"></path>
            <path d="M53.4345703,5.16064453 C52.8209635,5.16064453 52.3999023,5.42089844 52.1713867,5.94140625 C52.0528971,6.21647135 51.9936523,6.56770833 51.9936523,6.99511719 L51.9936523,10.7402344 L50.190918,10.7402344 L50.190918,3.83398438 L51.9365234,3.83398438 L51.9365234,4.84326172 C52.1692708,4.48779297 52.3893229,4.23177083 52.5966797,4.07519531 C52.9690755,3.79589844 53.440918,3.65625 54.012207,3.65625 C54.7273763,3.65625 55.3124186,3.84350586 55.767334,4.21801758 C56.2222493,4.5925293 56.449707,5.21354167 56.449707,6.08105469 L56.449707,10.7402344 L54.5961914,10.7402344 L54.5961914,6.53173828 C54.5961914,6.16780599 54.547526,5.88850911 54.4501953,5.69384766 C54.2724609,5.33837891 53.9339193,5.16064453 53.4345703,5.16064453 Z" id="Path"></path>
            <path d="M60.8867188,11.8066406 C60.8867188,12.3017578 60.7883301,12.6709798 60.5915527,12.9143066 C60.3947754,13.1576335 60.0953776,13.3279622 59.6933594,13.425293 C59.2913411,13.5226237 58.7623698,13.5712891 58.1064453,13.5712891 L58.1064453,12.2382812 C58.5592448,12.2298177 58.8745117,12.1557617 59.0522461,12.0161133 C59.2299805,11.8764648 59.3188477,11.6500651 59.3188477,11.3369141 L59.3188477,8.23291016 C59.3188477,7.44156901 59.7779948,6.97395833 60.6962891,6.83007813 L60.6962891,6.76025391 C59.7779948,6.60367839 59.3188477,6.13183594 59.3188477,5.34472656 L59.3188477,2.22802734 C59.3188477,1.92333984 59.2310384,1.69905599 59.0554199,1.55517578 C58.8798014,1.41129557 58.5634766,1.3351237 58.1064453,1.32666016 L58.1064453,0 C58.7835286,0 59.3230794,0.0518391927 59.7250977,0.155517578 C60.1271159,0.259195964 60.421224,0.432698568 60.6074219,0.676025391 C60.7936198,0.919352214 60.8867188,1.28011068 60.8867188,1.75830078 L60.8867188,4.95751953 C60.8867188,5.34261068 61.0168457,5.62719727 61.2770996,5.8112793 C61.5373535,5.99536133 61.9488932,6.08740234 62.5117188,6.08740234 L62.5117188,7.50292969 C61.9488932,7.50292969 61.5373535,7.59814453 61.2770996,7.78857422 C61.0168457,7.97900391 60.8867188,8.26464844 60.8867188,8.64550781 L60.8867188,11.8066406 Z" id="Path"></path>
        </g>
    </g>
</svg>