<?xml version="1.0" encoding="UTF-8"?>
<svg width="32px" height="32px" viewBox="0 0 32 32" version="1.1" xmlns="http://www.w3.org/2000/svg" xmlns:xlink="http://www.w3.org/1999/xlink">
    <title>ibmcics-plain</title>
    <g id="ibmcics-plain" stroke="none" stroke-width="1" fill="none" fill-rule="evenodd">
        <g id="Group" fill="#000000">
            <path d="M30,0 C31.1045695,-2.02906125e-16 32,0.8954305 32,2 L32,16 L0,16 L0,2 C-1.3527075e-16,0.8954305 0.8954305,2.02906125e-16 2,0 L30,0 Z M28,12.4591454 L24.6343751,12.4591454 L24.6343751,13.1538462 L28,13.1538462 L28,12.4591454 Z M20.6621874,12.4591454 L17.3331249,12.4591454 L17.3331249,13.1538462 L20.6621874,13.1538462 L20.6621874,12.4591454 Z M8.70812488,12.4591454 L4.03656232,12.4591454 L4.03656232,13.1538462 L8.70812488,13.1538462 L8.70812488,12.4591454 Z M22.9243751,12.4591454 L22.4115626,12.4591454 L22.6459377,13.1518778 L22.68625,13.1528622 L22.9243751,12.4591454 Z M15.9906249,12.4591454 L9.33343768,12.4591454 L9.33343768,13.1528622 L14.41,13.1528622 C15.3106298,13.1528622 15.9906249,12.4591454 15.9906249,12.4591454 Z M28,11.1071361 L24.6343751,11.1071361 L24.6343751,11.8028206 L28,11.8028206 L28,11.1071361 Z M23.3696874,11.1071361 L21.9493749,11.1071361 L22.1931249,11.8028206 L23.1409374,11.8028206 L23.3696874,11.1071361 Z M20.6621874,11.1071361 L17.3331249,11.1071361 L17.3331249,11.8028206 L20.6621874,11.8028206 L20.6621874,11.1071361 Z M16.7631251,11.1071361 L9.33343768,11.1071361 L9.33343768,11.8028206 L16.525,11.8028206 C16.67635,11.6435237 16.7631251,11.1071361 16.7631251,11.1071361 Z M8.70812488,11.1071361 L4.03656232,11.1071361 L4.03656232,11.8028206 L8.70812488,11.8028206 L8.70812488,11.1071361 Z M26.6575,9.75611082 L24.6343751,9.75611082 L24.6343751,10.4508111 L26.6575,10.4508111 L26.6575,9.75611082 Z M23.8281249,9.75611082 L21.4890623,9.75611082 L21.72625,10.4508111 L23.5890623,10.4508111 L23.8281249,9.75611082 Z M20.6621874,9.75611082 L18.6390626,9.75611082 L18.6390626,10.4508111 L20.6621874,10.4508111 L20.6621874,9.75611082 Z M16.69,9.75611082 L14.6668751,9.75611082 L14.6668751,10.4508111 L16.8184374,10.4508111 C16.8184374,10.1229604 16.69,9.75611082 16.69,9.75611082 Z M12.6990623,9.75611082 L10.6759377,9.75611082 L10.6759377,10.4508111 L12.6990623,10.4508111 L12.6990623,9.75611082 Z M7.36562488,9.75611082 L5.3424999,9.75611082 L5.3424999,10.4508111 L7.36562488,10.4508111 L7.36562488,9.75611082 Z M15.8434377,8.40508548 L10.6759377,8.40508548 L10.6759377,9.09978575 L16.4134374,9.09978575 C16.2756777,8.76264556 15.8434377,8.40508548 15.8434377,8.40508548 Z M7.36562488,8.40508548 L5.3424999,8.40508548 L5.3424999,9.09978575 L7.36562488,9.09978575 L7.36562488,8.40508548 Z M20.6621874,8.40508548 L18.6390626,8.40508548 L18.6390626,9.09978575 L20.6621874,9.09978575 L20.6621874,8.40508548 Z M24.2856251,8.40508548 L21.0296874,8.40508548 L21.2743751,9.09978575 L24.0531251,9.09978575 L24.2856251,8.40508548 Z M26.6575,8.40508548 L24.6343751,8.40508548 L24.6343751,9.09978575 L26.6575,9.09978575 L26.6575,8.40508548 Z M22.4556251,7.05406015 L18.6390626,7.05406015 L18.6390626,7.74876042 L20.6621874,7.74876042 L20.6621874,7.36205042 L20.7906249,7.74876042 L24.4965626,7.74876042 L24.6343751,7.36205042 L24.6343751,7.74876042 L26.6575,7.74876042 L26.6575,7.05406015 L22.8596874,7.05406015 L22.6581249,7.64248899 L22.4556251,7.05406015 Z M16.4134374,7.05406015 L10.6759377,7.05406015 L10.6759377,7.74876042 L15.8434377,7.74876042 C15.8434379,7.74876042 16.2757074,7.39230254 16.4134374,7.05406015 Z M7.36562488,7.05406015 L5.3424999,7.05406015 L5.3424999,7.74876042 L7.36562488,7.74876042 L7.36562488,7.05406015 Z M26.6575,5.70205066 L23.2928126,5.70205066 L23.0528126,6.39773508 L26.6575,6.39773508 L26.6575,5.70205066 Z M21.9868751,5.70205066 L18.6390626,5.70205066 L18.6390626,6.39773508 L22.2259377,6.39773508 L21.9868751,5.70205066 Z M16.8184374,5.70205066 L14.6668751,5.70205066 L14.6668751,6.39773508 L16.69,6.39773508 C16.6900002,6.39773508 16.8184374,6.03034304 16.8184374,5.70205066 Z M12.6990623,5.70205066 L10.6759377,5.70205066 L10.6759377,6.39773508 L12.6990623,6.39773508 L12.6990623,5.70205066 Z M7.36562488,5.70205066 L5.3424999,5.70205066 L5.3424999,6.39773508 L7.36562488,6.39773508 L7.36562488,5.70205066 Z M27.9634374,4.35200937 L23.7334374,4.35200937 L23.5121874,5.0457259 L27.9634374,5.0457259 L27.9634374,4.35200937 Z M21.5443749,4.35200937 L17.2965626,4.35200937 L17.2965626,5.0457259 L21.7656251,5.0457259 L21.5443749,4.35200937 Z M16.525,4.35200937 L9.33343768,4.35200937 L9.33343768,5.0457259 L16.7631251,5.0457259 C16.7631251,5.0457259 16.67635,4.51105441 16.525,4.35200937 Z M8.67156256,4.35102533 L4,4.35102533 L4,5.0457259 L8.67156256,5.0457259 L8.67156256,4.35102533 Z M27.9634374,3 L24.2115626,3 L23.9725,3.69470077 L27.9634374,3.69470077 L27.9634374,3 Z M21.085,3 L17.2965626,3 L17.2965626,3.69470077 L21.3240626,3.69470077 L21.085,3 Z M14.41,3 L9.33343768,3 L9.33343768,3.69470077 L15.9906249,3.69470077 C15.9906249,3.69470077 15.31063,3 14.41,3 Z M8.67156256,3 L4,3 L4,3.69470077 L8.67156256,3.69470077 L8.67156256,3 Z" id="Combined-Shape"></path>
            <g id="CICS" transform="translate(4.774287, 20.368652)" fill-rule="nonzero">
                <path d="M3.01025391,0 C3.82763672,0 4.46191406,0.215332031 4.91308594,0.645996094 C5.36425781,1.07666016 5.61474609,1.56591797 5.66455078,2.11376953 L4.81201172,2.11376953 C4.71533203,1.69775391 4.52270508,1.36816406 4.23413086,1.125 C3.94555664,0.881835938 3.54052734,0.760253906 3.01904297,0.760253906 C2.38330078,0.760253906 1.86987305,0.983642578 1.47875977,1.43041992 C1.08764648,1.87719727 0.892089844,2.56201172 0.892089844,3.48486328 C0.892089844,4.24072266 1.06860352,4.85375977 1.42163086,5.32397461 C1.7746582,5.79418945 2.30126953,6.02929688 3.00146484,6.02929688 C3.64599609,6.02929688 4.13671875,5.78173828 4.47363281,5.28662109 C4.65234375,5.02587891 4.78564453,4.68310547 4.87353516,4.25830078 L5.72607422,4.25830078 C5.64990234,4.93798828 5.39794922,5.5078125 4.97021484,5.96777344 C4.45751953,6.52148438 3.76611328,6.79833984 2.89599609,6.79833984 C2.14599609,6.79833984 1.51611328,6.57128906 1.00634766,6.1171875 C0.335449219,5.51660156 0,4.58935547 0,3.33544922 C0,2.38330078 0.251953125,1.60253906 0.755859375,0.993164063 C1.30078125,0.331054688 2.05224609,0 3.01025391,0 Z" id="Path"></path>
                <polygon id="Path" points="7.56730467 0.17578125 8.45060545 0.17578125 8.45060545 6.63134766 7.56730467 6.63134766"></polygon>
                <path d="M13.1702539,0 C13.9876367,0 14.621914,0.215332031 15.0730859,0.645996094 C15.5242578,1.07666016 15.7747461,1.56591797 15.8245507,2.11376953 L14.9720117,2.11376953 C14.875332,1.69775391 14.682705,1.36816406 14.3941308,1.125 C14.1055566,0.881835938 13.7005273,0.760253906 13.1790429,0.760253906 C12.5433007,0.760253906 12.029873,0.983642578 11.6387597,1.43041992 C11.2476465,1.87719727 11.0520898,2.56201172 11.0520898,3.48486328 C11.0520898,4.24072266 11.2286035,4.85375977 11.5816308,5.32397461 C11.9346582,5.79418945 12.4612695,6.02929688 13.1614648,6.02929688 C13.8059961,6.02929688 14.2967187,5.78173828 14.6336328,5.28662109 C14.8123437,5.02587891 14.9456445,4.68310547 15.0335351,4.25830078 L15.8860742,4.25830078 C15.8099023,4.93798828 15.5579492,5.5078125 15.1302148,5.96777344 C14.6175195,6.52148438 13.9261132,6.79833984 13.0559961,6.79833984 C12.3059961,6.79833984 11.6761132,6.57128906 11.1663476,6.1171875 C10.4954492,5.51660156 10.16,4.58935547 10.16,3.33544922 C10.16,2.38330078 10.4119531,1.60253906 10.9158593,0.993164063 C11.4607812,0.331054688 12.2122461,0 13.1702539,0 Z" id="Path"></path>
                <path d="M18.1008398,4.54833984 C18.1213476,4.91455078 18.2077734,5.21191406 18.3601171,5.44042969 C18.6501562,5.86816406 19.1613867,6.08203125 19.8938085,6.08203125 C20.2219335,6.08203125 20.5207617,6.03515625 20.7902929,5.94140625 C21.3117773,5.75976562 21.5725195,5.43457031 21.5725195,4.96582031 C21.5725195,4.61425781 21.4626562,4.36376953 21.2429296,4.21435547 C21.0202734,4.06787109 20.6716406,3.94042969 20.1970312,3.83203125 L19.3225195,3.63427734 C18.7512304,3.50537109 18.3469335,3.36328125 18.1096289,3.20800781 C17.6994726,2.93847656 17.4943945,2.53564453 17.4943945,1.99951172 C17.4943945,1.41943359 17.6950781,0.943359375 18.0964453,0.571289062 C18.4978124,0.19921875 19.0661718,0.0131835938 19.8015234,0.0131835938 C20.4782812,0.0131835938 21.0532324,0.176513672 21.5263769,0.503173828 C21.9995214,0.829833984 22.2360937,1.35205078 22.2360937,2.06982422 L21.4143164,2.06982422 C21.370371,1.72412109 21.276621,1.45898438 21.1330664,1.27441406 C20.8664648,0.9375 20.4138281,0.769042969 19.7751562,0.769042969 C19.2595312,0.769042969 18.8889257,0.877441406 18.6633398,1.09423828 C18.4377539,1.31103516 18.3249609,1.56298828 18.3249609,1.85009766 C18.3249609,2.16650391 18.4567968,2.39794922 18.7204687,2.54443359 C18.8933203,2.63818359 19.2844335,2.75537109 19.8938085,2.89599609 L20.799082,3.10253906 C21.2356054,3.20214844 21.5725195,3.33837891 21.8098242,3.51123047 C22.2199804,3.81298828 22.4250585,4.25097656 22.4250585,4.82519531 C22.4250585,5.54003906 22.1650488,6.05126953 21.6450292,6.35888672 C21.1250097,6.66650391 20.5207617,6.8203125 19.8322851,6.8203125 C19.0295507,6.8203125 18.4011328,6.61523438 17.9470312,6.20507812 C17.4929296,5.79785156 17.2702734,5.24560547 17.2790624,4.54833984 L18.1008398,4.54833984 Z" id="Path"></path>
            </g>
        </g>
    </g>
</svg>