<?xml version="1.0"?>
<svg xmlns="http://www.w3.org/2000/svg" height="512px" viewBox="-16 0 480 480" width="512px"><path d="m32 104.230469c14.464844-25.222657 32-59.855469 32-72.230469 0-17.671875-14.328125-32-32-32s-32 14.328125-32 32c0 12.382812 17.535156 47.015625 32 72.230469zm0-96.230469c13.253906 0 24 10.746094 24 24s-10.746094 24-24 24-24-10.746094-24-24 10.746094-24 24-24zm0 0" fill="#000000"/><path d="m40 32c0 4.417969-3.582031 8-8 8s-8-3.582031-8-8 3.582031-8 8-8 8 3.582031 8 8zm0 0" fill="#000000"/><path d="m224 280.230469c14.464844-25.222657 32-59.855469 32-72.230469 0-17.671875-14.328125-32-32-32s-32 14.328125-32 32c0 12.382812 17.535156 47.015625 32 72.230469zm0-96.230469c13.253906 0 24 10.746094 24 24s-10.746094 24-24 24-24-10.746094-24-24 10.746094-24 24-24zm0 0" fill="#000000"/><path d="m232 208c0 4.417969-3.582031 8-8 8s-8-3.582031-8-8 3.582031-8 8-8 8 3.582031 8 8zm0 0" fill="#000000"/><path d="m416 328c-17.671875 0-32 14.328125-32 32 0 12.382812 17.535156 47.015625 32 72.230469 14.464844-25.222657 32-59.855469 32-72.230469 0-17.671875-14.328125-32-32-32zm0 56c-13.253906 0-24-10.746094-24-24s10.746094-24 24-24 24 10.746094 24 24-10.746094 24-24 24zm0 0" fill="#000000"/><path d="m424 360c0 4.417969-3.582031 8-8 8s-8-3.582031-8-8 3.582031-8 8-8 8 3.582031 8 8zm0 0" fill="#000000"/><path d="m308.113281 23.429688 11.3125-11.3125 33.949219 33.945312-11.316406 11.3125zm0 0" fill="#000000"/><path d="m398.625 113.9375 11.3125-11.316406 33.945312 33.949218-11.3125 11.3125zm0 0" fill="#000000"/><path d="m356.6875 91.3125c-.011719 2.121094.832031 4.160156 2.335938 5.65625 1.5 1.5 3.539062 2.34375 5.660156 2.34375 2.125 0 4.160156-.84375 5.660156-2.34375l22.632812-22.625c3.125-3.125 3.121094-8.191406-.003906-11.316406s-8.191406-3.121094-11.316406.003906l-22.632812 22.625c-1.496094 1.5-2.335938 3.535156-2.335938 5.65625zm0 0" fill="#000000"/><path d="m56.878906 400c-.105468-16.929688 6.480469-33.214844 18.320313-45.3125 11.472656-11.964844 27.34375-18.71875 43.921875-18.6875h147.957031c55.230469 0 100-44.773438 100-100s-44.769531-100-100-100h-211.078125v16h211.078125c46.394531 0 84 37.609375 84 84s-37.605469 84-84 84h-147.957031c-20.882813-.042969-40.878906 8.449219-55.34375 23.511719-14.78125 15.074219-23.011719 35.375-22.898438 56.488281-.441406 43.679688 34.5625 79.472656 78.242188 80h272.878906v-16h-272.878906c-34.84375-.527344-62.6875-29.15625-62.242188-64zm0 0" fill="#000000"/><path d="m400 464h32v16h-32zm0 0" fill="#000000"/><path d="m16 136h32v16h-32zm0 0" fill="#000000"/><path d="m62.65625 132.441406 29.625-44.441406h43.71875v-16h-48c-2.675781 0-5.171875 1.335938-6.65625 3.558594l-32 48zm0 0" fill="#000000"/><path d="m144 24h80v16h-80zm0 0" fill="#000000"/><path d="m144 48h16v16h-16zm0 0" fill="#000000"/><path d="m168 48h56v16h-56zm0 0" fill="#000000"/><path d="m144 72h80v16h-80zm0 0" fill="#000000"/><path d="m360 400h-48v16h43.71875l29.601562 44.441406 13.3125-8.882812-32-48c-1.480468-2.214844-3.96875-3.550782-6.632812-3.558594zm0 0" fill="#000000"/><path d="m224 352h80v16h-80zm0 0" fill="#000000"/><path d="m288 376h16v16h-16zm0 0" fill="#000000"/><path d="m224 376h56v16h-56zm0 0" fill="#000000"/><path d="m224 400h80v16h-80zm0 0" fill="#000000"/><path d="m88 208h80v16h-80zm0 0" fill="#000000"/><path d="m152 232h16v16h-16zm0 0" fill="#000000"/><path d="m88 232h56v16h-56zm0 0" fill="#000000"/><path d="m88 256h80v16h-80zm0 0" fill="#000000"/></svg>
