<svg xmlns="http://www.w3.org/2000/svg" viewBox="0 0 1024 1024"><g id="artwork"><polygon points="616.04 619.38 678.72 526.62 740.63 573.89 642.87 696.29 616.04 619.38"/><path d="M683.58,514.47l.88-72.46c26.24-7.52,56.41-15,89.56-21.31l-28.62,141Z"/><path d="M671,515.59l-65.24,96.54-55.56-.65a966.71,966.71,0,0,1,7.74-122.77c7.38-3.58,28.24-13.3,59.52-24.84,14.73-5.43,33.06-11.73,54.39-18.15Z"/><path d="M334.13,619.93l-15.05-15.58c2.44-2.45,5.69-5.84,10.18-10.53,3.1-3.23,6.58-6.87,10.42-10.83l18.66-5.54,5.67-19a893.34,893.34,0,0,1,76.27-67.15c16,3.14,29.91,6.65,41.72,10.09-9.75,9.52-29.88,28.21-63.07,54.84C391.86,578,363.05,599.42,334.13,619.93Z"/><path d="M427.23,565.47C467.72,533.32,488.79,513,496,505.74l4.12,1.41a292.78,292.78,0,0,1,38.57,16.25l-68.82,86.22-67.34-24.93Q416.22,574.24,427.23,565.47Z"/><path d="M540.06,541.31c-2.83,39.54-2.57,67.83-2.44,74.88L502.45,682l-23.12-63.7Z"/><path d="M612.81,452.14c-24.46,9-42.41,16.84-52.91,21.68,3-21.08,6.92-43.32,12-65.89l67-105.83,34.25,34L672,432.52C648.63,439.45,628.66,446.28,612.81,452.14Z"/><path d="M560.7,402.11l-.58.91-.24,1.06a878.12,878.12,0,0,0-16,95.84l-48.6-91.42,35.42-115.72,41.86,90.6Z"/><polygon points="522.86 275.29 486.9 392.77 431.19 287.98 468.92 120.67 522.86 275.29"/><path d="M406.74,396.4l20.2-89.57L533.1,506.5c-7.34-3.29-16.9-7.19-28.71-11.24A455.06,455.06,0,0,0,457,482Z"/><path d="M284.27,552.85l83.61-71c20.45,1.42,39.09,3.72,55.85,6.49-25.4,20.35-47.77,40.9-66.16,58.82l-22.76,6.75L327.89,577l-7.73,8.06c-5.18,5.41-9.79,10.22-12.31,12.6l-35-1.43Z"/><path d="M193.9,700.51c21.25-36.33,51.23-69.68,73.33-91.85l40.07,1.64,16.4,17C274.18,662,224.9,693.72,184.06,719,186.49,713.89,189.71,707.68,193.9,700.51Z"/><path d="M390.7,594.16l71.16,25.9L417.39,676.4l-72.78-48.47Q370.38,609.57,390.7,594.16Z"/><polygon points="414.73 755.39 401.66 681.07 420.08 693.34 470.15 629.9 500.24 712.83 547.71 624.06 604.55 624.72 637.9 720.31 711.92 806.43 565.27 823.23 414.73 755.39"/><path d="M795,952.16l-39.57-11.29L699.93,694.73c16.5,36.23,36.73,90.39,49.89,126.82C769.64,876.39,787.51,929.6,795,952.16Z"/><polygon points="734.29 904.36 703.26 904.31 625.32 829.03 714.98 818.76 734.29 904.36"/><polygon points="771.62 1009.29 625.07 970.65 595.98 832.4 609.11 830.89 698.16 916.91 737.13 916.97 744.79 950.94 795.45 965.4 771.62 1009.29"/><polygon points="706.38 780.65 649.02 713.91 647.78 710.35 681.12 668.61 706.38 780.65"/><path d="M777.46,407.24c-34.3,6.3-65.58,13.91-92.84,21.62L685.75,337l157.92-99Z"/><path d="M820.74,61.22c7,28.94,17.59,79.73,28.93,158.15L680.38,325.48,645.81,291.2,812,28.54C814.22,35.8,817.2,46.5,820.74,61.22Z"/></g></svg>