<?xml version="1.0" encoding="UTF-8" standalone="no"?>
<!DOCTYPE svg PUBLIC "-//W3C//DTD SVG 1.1//EN" "http://www.w3.org/Graphics/SVG/1.1/DTD/svg11.dtd">
<!-- Created with Vectornator (http://vectornator.io/) -->
<svg height="100%" stroke-miterlimit="10" style="fill-rule:nonzero;clip-rule:evenodd;stroke-linecap:round;stroke-linejoin:round;" version="1.1" viewBox="0 0 512 512" width="100%" xml:space="preserve" xmlns="http://www.w3.org/2000/svg" xmlns:vectornator="http://vectornator.io" xmlns:xlink="http://www.w3.org/1999/xlink">
<defs/>
<g id="Layer-1" vectornator:layerName="Layer 1">
<path d="M230 87C218.667 89 209 92.3333 201 97C193 101.667 185.667 108.333 179 117C172.333 125.667 164.833 139.167 156.5 157.5C148.167 175.833 140.333 188.667 133 196C125.667 203.333 119.833 207.833 115.5 209.5C111.167 211.167 107 212.167 103 212.5C99 212.833 89.3333 210.667 74 206C58.6667 201.333 49.8333 199.167 47.5 199.5C45.1667 199.833 43.1667 200.833 41.5 202.5C39.8333 204.167 39.3333 207.333 40 212C40.6667 216.667 43.5 223.167 48.5 231.5C53.5 239.833 64.6667 254.667 82 276C99.3333 297.333 116.5 306.167 133.5 302.5C150.5 298.833 166.167 296.167 180.5 294.5C194.833 292.833 213.5 291.833 236.5 291.5C259.5 291.167 276 291.5 286 292.5C291 293 296 293.5 301 294C300.5 296.333 300 298.667 299.5 301C298.5 305.667 297.167 309.667 295.5 313C293.833 316.333 291.667 319.5 289 322.5C286.333 325.5 282.167 328.667 276.5 332C270.833 335.333 265.5 337.667 260.5 339C255.5 340.333 250 341.167 244 341.5C238 341.833 234.667 341.167 234 339.5C233.333 337.833 231.333 335.667 228 333C224.667 330.333 218.333 327.833 209 325.5C199.667 323.167 190.833 321.833 182.5 321.5C174.167 321.167 166.333 321.333 159 322C151.667 322.667 145.5 323.667 140.5 325C135.5 326.333 131.333 328 128 330C124.667 332 121.833 334.833 119.5 338.5C117.167 342.167 115.833 345 115.5 347C115.167 349 115.833 354.5 117.5 363.5C119.167 372.5 121.333 379.5 124 384.5C126.667 389.5 130.833 395.167 136.5 401.5C142.167 407.833 148.667 413 156 417C163.333 421 170.5 422.833 177.5 422.5C184.5 422.167 191 420.333 197 417C203 413.667 209.167 408.333 215.5 401C221.833 393.667 226.5 386.833 229.5 380.5C232.5 374.167 234.667 368 236 362C237.333 356 242 352.333 250 351C258 349.667 266.167 347 274.5 343C282.833 339 289.5 334.333 294.5 329C299.5 323.667 303.667 316.667 307 308C310.333 299.333 320.5 296.167 337.5 298.5C354.5 300.833 372.333 304 391 308C409.667 312 425 304.667 437 286C449 267.333 457.833 251.5 463.5 238.5C469.167 225.5 471.833 216.833 471.5 212.5C471.167 208.167 468.667 205 464 203C459.333 201 455.5 200.167 452.5 200.5C449.5 200.833 442.833 202.833 432.5 206.5C422.167 210.167 413.833 212 407.5 212C401.167 212 394.667 210.833 388 208.5C381.333 206.167 375.5 202.167 370.5 196.5C365.5 190.833 358.167 177.833 348.5 157.5C338.833 137.167 330.667 123.167 324 115.5C317.333 107.833 312.333 102.833 309 100.5C305.667 98.1667 300.5 95.5 293.5 92.5C286.5 89.5 277 87.3333 265 86C253 84.6667 241.333 85 230 87ZM223 133.5C225 133.833 226.5 134.5 227.5 135.5C228.5 136.5 229.5 140.5 230.5 147.5C231.5 154.5 235.167 162.5 241.5 171.5C247.833 180.5 251.667 185.667 253 187C254.333 188.333 257.833 189.167 263.5 189.5C269.167 189.833 273.333 191.167 276 193.5C278.667 195.833 279.833 198.833 279.5 202.5C279.167 206.167 278.5 208.5 277.5 209.5C276.5 210.5 274.5 211.167 271.5 211.5C268.5 211.833 265.333 214.5 262 219.5C258.667 224.5 255.667 226.667 253 226C250.333 225.333 248.167 224.167 246.5 222.5C244.833 220.833 243.667 219.167 243 217.5C242.333 215.833 242 212 242 206C242 200 239.5 193.5 234.5 186.5C229.5 179.5 225.667 174.833 223 172.5C220.333 170.167 216.833 168.833 212.5 168.5C208.167 168.167 204.833 167.5 202.5 166.5C200.167 165.5 198.5 164.167 197.5 162.5C196.5 160.833 196 158.5 196 155.5C196 152.5 198.333 149.833 203 147.5C207.667 145.167 211.667 142.167 215 138.5C218.333 134.833 221 133.167 223 133.5ZM290.5 138C293.5 138.667 296.167 141 298.5 145C300.833 149 304 151.333 308 152C312 152.667 314.5 153.833 315.5 155.5C316.5 157.167 317 159 317 161C317 163 315.667 165.167 313 167.5C310.333 169.833 306.167 171.667 300.5 173C294.833 174.333 289.833 177.333 285.5 182C281.167 186.667 276.667 188.5 272 187.5C269.667 187 267.333 186.5 265 186C267.5 182.333 270 178.667 272.5 175C277.5 167.667 279.667 160.833 279 154.5C278.333 148.167 279.333 143.667 282 141C284.667 138.333 287.5 137.333 290.5 138ZM238 216C239.833 217.833 241.667 219.667 243.5 221.5C247.167 225.167 247.833 229.167 245.5 233.5C243.167 237.833 242.333 242.667 243 248C243.667 253.333 243.333 257.167 242 259.5C240.667 261.833 238 263.5 234 264.5C230 265.5 227.333 265.5 226 264.5C224.667 263.5 223.333 261.333 222 258C220.667 254.667 217.833 252.333 213.5 251C209.167 249.667 207 247.333 207 244C207 240.667 208.167 237.667 210.5 235C212.833 232.333 215.833 230.833 219.5 230.5C223.167 230.167 227.167 227.667 231.5 223C233.667 220.667 235.833 218.333 238 216ZM180.5 331.5C196.833 331.833 207.667 333 213 335C218.333 337 222.167 339.333 224.5 342C226.833 344.667 228 348.667 228 354C228 359.333 226.5 365.833 223.5 373.5C220.5 381.167 215.833 388.667 209.5 396C203.167 403.333 198.167 408 194.5 410C190.833 412 186.5 413.333 181.5 414C176.5 414.667 170.833 414 164.5 412C158.167 410 152.333 406.5 147 401.5C141.667 396.5 137.333 391.167 134 385.5C130.667 379.833 128 373.333 126 366C124 358.667 123.333 353.167 124 349.5C124.667 345.833 127 342.5 131 339.5C135 336.5 140.167 334.333 146.5 333C152.833 331.667 164.167 331.167 180.5 331.5ZM157 338C145.667 339.333 138.333 341.167 135 343.5C131.667 345.833 129.833 348.333 129.5 351C129.167 353.667 130 358.5 132 365.5C134 372.5 136.667 378.667 140 384C143.333 389.333 147 393.833 151 397.5C155 401.167 158.833 403.833 162.5 405.5C166.167 407.167 169.667 408.167 173 408.5C176.333 408.833 180.333 408.333 185 407C189.667 405.667 194.5 402.833 199.5 398.5C204.5 394.167 208.833 389 212.5 383C216.167 377 218.833 370 220.5 362C222.167 354 222.333 349 221 347C219.667 345 217.167 343.167 213.5 341.5C209.833 339.833 202.333 338.5 191 337.5C179.667 336.5 168.333 336.667 157 338ZM174 347C174.833 347 175.667 347 176.5 347C177.333 347 178.167 347 179 347C179 348 179 349 179 350C179 352 180.5 353.333 183.5 354C185 354.333 186.5 354.667 188 355C187.667 356.167 187.333 357.333 187 358.5C186.667 359.667 186.333 360.833 186 362C184.833 361.667 183.667 361.333 182.5 361C181.333 360.667 180.167 360.333 179 360C179 361.333 179 362.667 179 364C179 366.667 180.5 368.833 183.5 370.5C186.5 372.167 188.333 374.333 189 377C189.667 379.667 189.167 382.333 187.5 385C185.833 387.667 184 389.333 182 390C180 390.667 179 392.167 179 394.5C179 395.667 179 396.833 179 398C178.167 398 177.333 398 176.5 398C175.667 398 174.833 398 174 398C174 396.833 174 395.667 174 394.5C174 392.167 172.167 390.667 168.5 390C166.667 389.667 164.833 389.333 163 389C163.333 387.667 163.667 386.333 164 385C164.667 382.333 166.5 381.333 169.5 382C171 382.333 172.5 382.667 174 383C174 381.667 174 380.333 174 379C174 376.333 172.333 374 169 372C165.667 370 163.833 367.667 163.5 365C163.167 362.333 163.667 360 165 358C166.333 356 168.167 354.667 170.5 354C172.833 353.333 174 352 174 350C174 349 174 348 174 347Z" fill="#000000" fill-rule="nonzero" opacity="1" stroke="none"/>
</g>
</svg>
