<svg xmlns="http://www.w3.org/2000/svg" viewBox="0 0 900 600"><g fill="none" stroke-width="2"><path stroke="#ff8080" d="M436.85 240.5h-38.12q-1.78 0-.85 1.52l7.75 12.75a.99.99 0 0 0 .85.48H448a1 .98-15.9 0 1 .84.46l8.15 12.83a1.02 1.01-16.5 0 0 .85.46h16.04q1.82 0 .84-1.53-23.57-37.02-47.27-73.97c-3.78-5.89-9.95-9.4-16.46-5.32q-2.81 1.77-6.29 7.21-23.26 36.4-46.24 72.39-1.01 1.57.86 1.54l16.25-.34a1 .97 15.1 0 0 .82-.46l39.26-62.36a1 1 0 0 1 1.7 0l20.35 32.81q.95 1.53-.85 1.53" vector-effect="non-scaling-stroke"/><path stroke="#fe8885" d="M779.44 196.52a8.96 8.96 0 0 0-8.96-8.96 8.96 8.96 0 0 0-8.96 8.96 8.96 8.96 0 0 0 8.96 8.96 8.96 8.96 0 0 0 8.96-8.96" vector-effect="non-scaling-stroke"/><path stroke="#ff8080" d="M251.52 239.02c5.93-24.76-12.13-49.94-37.77-51.07q-11.67-.52-48.1-.19-11.2.1-16.52 1.64c-19.2 5.52-31.46 24.44-29.14 43.91 2.49 20.92 20.08 36.87 41.23 36.36 13.72-.33 27.52.08 41.24.19q13.8.12 18.87-1.12c14.34-3.51 26.81-15.58 30.19-29.72m73.22 4.15q3.06-.27 6.17-.52c34.7-2.75 33.77-52.83-1.4-54.66q-3.5-.18-6.99-.2-30.46-.14-60.83.07a1 1 0 0 0-1 .99l-.21 79.65a1 1 0 0 0 1 1h14.02a1 1 0 0 0 1-1v-65.24a1 1 0 0 1 1-1q23.64-.03 47.29 0 5.65.01 8.19.91c10.81 3.83 11.54 19.36 1.1 24.03q-3.01 1.35-9.39 1.32-18.69-.07-37.43.02-2.22.01-.74 1.66 1.01 1.13 2.68 2.6 20.7 18.26 41.47 36.46a1.03.99-23.7 0 0 .66.24l19.71-.01q2.73 0 .65-1.76l-27.4-23.16q-1.47-1.24.45-1.4m154.2 17.64c9.07 7.57 17.93 8.95 30.61 8.76q23.1-.34 46.4-.35a.99.99 0 0 0 .85-.48l7.6-12.42q.93-1.51-.84-1.52-24.97-.1-49.94-.04-7.84.02-12.08-1.3c-29.61-9.24-21.73-51.3 9.22-51.25q21.92.04 43.96.02a1.03 1.03 0 0 0 .84-.46l8.2-12.47q1.01-1.55-.84-1.55-27.47.01-55.04-.01-8.2-.01-13.12 1.27c-33.19 8.64-42.18 49.83-15.82 71.8m109.42-6.34c-.41-1.85.21-4.28.2-5.54q-.29-30.08-.34-60.18a1.01 1 89.7 0 0-1-1h-13.46a1 1 0 0 0-1 1q-.04 35.59.21 71.18.07 9.56 9.28 9.56 34.69.03 69.4 0a1.01.99-72.8 0 0 .83-.45l8.14-12.23q1.04-1.55-.83-1.55l-70.45-.01a1.01 1.01 0 0 1-.98-.78m86.95-34.39q4.83-12.47 16.57-16.29 4.65-1.52 15.52-1.53 19.05-.02 38.09-.01a.99.99 0 0 0 .85-.48l7.65-12.43q.93-1.51-.84-1.52-24.4-.21-48.8.03-7.01.07-11.57 1.37c-23.24 6.65-37.62 31.75-27.74 54.73 7.67 17.85 22.33 25.54 41.11 25.55q20.24.01 40.52-.01a.99.99 0 0 0 .84-.47l7.68-12.24q.96-1.53-.85-1.53-24.16.01-48.59-.01-9.74-.01-14.22-1.46-11.84-3.85-16.7-16.41a1 1 0 0 1 .93-1.36l65.17-.05a1 .98 15.9 0 0 .84-.46l7.85-12.16q.98-1.53-.84-1.54l-72.54-.36a1 1 0 0 1-.93-1.36" vector-effect="non-scaling-stroke"/><path stroke="#999" d="M756.29 311.43a1.18 1.18 0 0 0-1.18-1.18H122.67a1.18 1.18 0 0 0-1.18 1.18v3.64a1.18 1.18 0 0 0 1.18 1.18h632.44a1.18 1.18 0 0 0 1.18-1.18v-3.64m-283.37 68.44q.41-.27.83-.52c10.62-6.16 5.41-19.94-5.26-21.63q-11.95-1.89-24.65.19a1.01.99-4.8 0 0-.84.98v49.16a1.01.99-86.5 0 0 .87 1c8.61 1.09 20.34 1.41 28.38-2.03 7.69-3.3 11.28-11.69 7.55-19.16q-2.1-4.2-6.72-6.25-1.64-.72-.16-1.74m-75.66-21.39a.26.26 0 0 0-.26-.26h-10.74a.26.26 0 0 0-.26.26v49.76a.26.26 0 0 0 .26.26H397a.26.26 0 0 0 .26-.26v-49.76m20.24 40.02v-10.52a1 1 0 0 1 1-1l16.25.06a1 1 0 0 0 1-1v-6.79a1 1 0 0 0-1-1H418.7a1 1 0 0 1-1-1.02l.19-8.75a1 1 0 0 1 1-.98h17.61a1 1 0 0 0 1-1v-7.41a1 1 0 0 0-1-1q-11.5 0-23 .02-4.29 0-6.05.1a1 .99 88.5 0 0-.94 1l-.03 48.54a1 1 0 0 0 1 1h29.77a1 1 0 0 0 1-1v-7.25a1 1 0 0 0-1-1H418.5a1 1 0 0 1-1-1m81.09 1a.34.34 0 0 1-.34-.34v-11.75a.34.34 0 0 1 .34-.34l17.57.04a.34.34 0 0 0 .34-.34v-8.18a.34.34 0 0 0-.34-.34h-17.15a.34.34 0 0 1-.34-.34l.07-10.12a.34.34 0 0 1 .34-.34l18.83.07a.34.34 0 0 0 .34-.34v-8.68a.34.34 0 0 0-.34-.34l-30.32.06a.34.34 0 0 0-.34.34v49.85a.34.34 0 0 0 .34.34h31.18a.34.34 0 0 0 .34-.35l-.15-8.57a.34.34 0 0 0-.34-.33h-20.03m57.48 9a.38.38 0 0 0 .38-.39l-.21-8.81a.38.38 0 0 0-.39-.37l-19.17.29a.38.38 0 0 1-.39-.38l-.06-40.46a.38.38 0 0 0-.39-.38l-10.46.21a.38.38 0 0 0-.37.38l-.03 49.53a.38.38 0 0 0 .38.38h30.71m-204.24-24.62q1.62 1.31 3.26 2.01l9.6 4.15q2.39 1.03 3.36 3.36 1.44 3.48-2.54 5.57c-4.88 2.55-12.17.79-17.05-1.37a1 1 0 0 0-1.38.68l-1.78 7.4a1.01 1 16.3 0 0 .65 1.18c10.3 3.52 29.44 4.57 33.13-9.36 3.77-14.24-8.78-16.62-18.53-21.53-5.82-2.94-3.11-8.11 1.92-8.96q5.98-1.01 11.59 1.99a1 1 0 0 0 1.43-.6l2.01-6.94a1.01.99-72.3 0 0-.62-1.22c-9.55-3.42-26.22-3.54-30.22 8.73q-2.77 8.49 5.17 14.91" vector-effect="non-scaling-stroke"/><path stroke="#fe8885" d="M777.73 196.51a7.15 7.15 0 0 0-7.15-7.15 7.15 7.15 0 0 0-7.15 7.15 7.15 7.15 0 0 0 7.15 7.15 7.15 7.15 0 0 0 7.15-7.15" vector-effect="non-scaling-stroke"/><path stroke="#ff8080" d="M231.4 244.67c12.93-17.56.61-41.76-21.15-41.84q-19.32-.07-38.63-.09-9.08-.01-13.57 1.39c-24.06 7.51-24.64 41.64-.6 49.61q4.34 1.44 14.89 1.49 15.47.07 30.92 0c12.29-.06 21.19-1.12 28.14-10.56m535.96-52.04.15 7.56a1.01 1-70.6 0 0 .35.74c3.99 3.38-.45-5.13 3.52-2.68a.99.98 9.7 0 1 .45.63c.7 3.06 4.16 3.68 2.36.84q-1.38-2.19.3-4.43a1 .98 52.6 0 0 .12-.98q-1.86-4.43-6.6-2.63a1.01 1-10.9 0 0-.65.95" vector-effect="non-scaling-stroke"/><path stroke="#ff8080" d="M772.465 193.995a1.93 1.27-10.9 0 0-2.135-.882 1.93 1.27-10.9 0 0-1.655 1.612 1.93 1.27-10.9 0 0 2.135.882 1.93 1.27-10.9 0 0 1.655-1.612" vector-effect="non-scaling-stroke"/><path stroke="#999" d="M467.06 368.97c-2.17-3.88-7.73-4.13-11.73-3.44a1 .99-4.8 0 0-.83.98v10.41a1 1 0 0 0 .92 1q4.48.37 8.45-1.18c3.26-1.27 4.89-4.73 3.19-7.77m-4.44 18.25q-3.45-.97-7.21-.65a1 1 0 0 0-.91 1v12.68a1 1 0 0 0 .95 1q2.79.14 5.49-.22c9.26-1.25 11.59-11 1.68-13.81" vector-effect="non-scaling-stroke"/></g><path fill="#fff" d="M0 0h900v600H0V0Zm436.85 240.5h-38.12q-1.78 0-.85 1.52l7.75 12.75a.99.99 0 0 0 .85.48H448a1 .98-15.9 0 1 .84.46l8.15 12.83a1.02 1.01-16.5 0 0 .85.46h16.04q1.82 0 .84-1.53-23.57-37.02-47.27-73.97c-3.78-5.89-9.95-9.4-16.46-5.32q-2.81 1.77-6.29 7.21-23.26 36.4-46.24 72.39-1.01 1.57.86 1.54l16.25-.34a1 .97 15.1 0 0 .82-.46l39.26-62.36a1 1 0 0 1 1.7 0l20.35 32.81q.95 1.53-.85 1.53Zm342.59-43.98a8.96 8.96 0 0 0-8.96-8.96 8.96 8.96 0 0 0-8.96 8.96 8.96 8.96 0 0 0 8.96 8.96 8.96 8.96 0 0 0 8.96-8.96Zm-527.92 42.5c5.93-24.76-12.13-49.94-37.77-51.07q-11.67-.52-48.1-.19-11.2.1-16.52 1.64c-19.2 5.52-31.46 24.44-29.14 43.91 2.49 20.92 20.08 36.87 41.23 36.36 13.72-.33 27.52.08 41.24.19q13.8.12 18.87-1.12c14.34-3.51 26.81-15.58 30.19-29.72Zm73.22 4.15q3.06-.27 6.17-.52c34.7-2.75 33.77-52.83-1.4-54.66q-3.5-.18-6.99-.2-30.46-.14-60.83.07a1 1 0 0 0-1 .99l-.21 79.65a1 1 0 0 0 1 1h14.02a1 1 0 0 0 1-1v-65.24a1 1 0 0 1 1-1q23.64-.03 47.29 0 5.65.01 8.19.91c10.81 3.83 11.54 19.36 1.1 24.03q-3.01 1.35-9.39 1.32-18.69-.07-37.43.02-2.22.01-.74 1.66 1.01 1.13 2.68 2.6 20.7 18.26 41.47 36.46a1.03.99-23.7 0 0 .66.24l19.71-.01q2.73 0 .65-1.76l-27.4-23.16q-1.47-1.24.45-1.4Zm154.2 17.64c9.07 7.57 17.93 8.95 30.61 8.76q23.1-.34 46.4-.35a.99.99 0 0 0 .85-.48l7.6-12.42q.93-1.51-.84-1.52-24.97-.1-49.94-.04-7.84.02-12.08-1.3c-29.61-9.24-21.73-51.3 9.22-51.25q21.92.04 43.96.02a1.03 1.03 0 0 0 .84-.46l8.2-12.47q1.01-1.55-.84-1.55-27.47.01-55.04-.01-8.2-.01-13.12 1.27c-33.19 8.64-42.18 49.83-15.82 71.8Zm109.42-6.34c-.41-1.85.21-4.28.2-5.54q-.29-30.08-.34-60.18a1.01 1 89.7 0 0-1-1h-13.46a1 1 0 0 0-1 1q-.04 35.59.21 71.18.07 9.56 9.28 9.56 34.69.03 69.4 0a1.01.99-72.8 0 0 .83-.45l8.14-12.23q1.04-1.55-.83-1.55l-70.45-.01a1.01 1.01 0 0 1-.98-.78Zm86.95-34.39q4.83-12.47 16.57-16.29 4.65-1.52 15.52-1.53 19.05-.02 38.09-.01a.99.99 0 0 0 .85-.48l7.65-12.43q.93-1.51-.84-1.52-24.4-.21-48.8.03-7.01.07-11.57 1.37c-23.24 6.65-37.62 31.75-27.74 54.73 7.67 17.85 22.33 25.54 41.11 25.55q20.24.01 40.52-.01a.99.99 0 0 0 .84-.47l7.68-12.24q.96-1.53-.85-1.53-24.16.01-48.59-.01-9.74-.01-14.22-1.46-11.84-3.85-16.7-16.41a1 1 0 0 1 .93-1.36l65.17-.05a1 .98 15.9 0 0 .84-.46l7.85-12.16q.98-1.53-.84-1.54l-72.54-.36a1 1 0 0 1-.93-1.36Zm80.98 91.35a1.18 1.18 0 0 0-1.18-1.18H122.67a1.18 1.18 0 0 0-1.18 1.18v3.64a1.18 1.18 0 0 0 1.18 1.18h632.44a1.18 1.18 0 0 0 1.18-1.18v-3.64Zm-283.37 68.44q.41-.27.83-.52c10.62-6.16 5.41-19.94-5.26-21.63q-11.95-1.89-24.65.19a1.01.99-4.8 0 0-.84.98v49.16a1.01.99-86.5 0 0 .87 1c8.61 1.09 20.34 1.41 28.38-2.03 7.69-3.3 11.28-11.69 7.55-19.16q-2.1-4.2-6.72-6.25-1.64-.72-.16-1.74Zm-75.66-21.39a.26.26 0 0 0-.26-.26h-10.74a.26.26 0 0 0-.26.26v49.76a.26.26 0 0 0 .26.26H397a.26.26 0 0 0 .26-.26v-49.76Zm20.24 40.02v-10.52a1 1 0 0 1 1-1l16.25.06a1 1 0 0 0 1-1v-6.79a1 1 0 0 0-1-1H418.7a1 1 0 0 1-1-1.02l.19-8.75a1 1 0 0 1 1-.98h17.61a1 1 0 0 0 1-1v-7.41a1 1 0 0 0-1-1q-11.5 0-23 .02-4.29 0-6.05.1a1 .99 88.5 0 0-.94 1l-.03 48.54a1 1 0 0 0 1 1h29.77a1 1 0 0 0 1-1v-7.25a1 1 0 0 0-1-1H418.5a1 1 0 0 1-1-1Zm81.09 1a.34.34 0 0 1-.34-.34v-11.75a.34.34 0 0 1 .34-.34l17.57.04a.34.34 0 0 0 .34-.34v-8.18a.34.34 0 0 0-.34-.34h-17.15a.34.34 0 0 1-.34-.34l.07-10.12a.34.34 0 0 1 .34-.34l18.83.07a.34.34 0 0 0 .34-.34v-8.68a.34.34 0 0 0-.34-.34l-30.32.06a.34.34 0 0 0-.34.34v49.85a.34.34 0 0 0 .34.34h31.18a.34.34 0 0 0 .34-.35l-.15-8.57a.34.34 0 0 0-.34-.33h-20.03Zm57.48 9a.38.38 0 0 0 .38-.39l-.21-8.81a.38.38 0 0 0-.39-.37l-19.17.29a.38.38 0 0 1-.39-.38l-.06-40.46a.38.38 0 0 0-.39-.38l-10.46.21a.38.38 0 0 0-.37.38l-.03 49.53a.38.38 0 0 0 .38.38h30.71Zm-204.24-24.62q1.62 1.31 3.26 2.01l9.6 4.15q2.39 1.03 3.36 3.36 1.44 3.48-2.54 5.57c-4.88 2.55-12.17.79-17.05-1.37a1 1 0 0 0-1.38.68l-1.78 7.4a1.01 1 16.3 0 0 .65 1.18c10.3 3.52 29.44 4.57 33.13-9.36 3.77-14.24-8.78-16.62-18.53-21.53-5.82-2.94-3.11-8.11 1.92-8.96q5.98-1.01 11.59 1.99a1 1 0 0 0 1.43-.6l2.01-6.94a1.01.99-72.3 0 0-.62-1.22c-9.55-3.42-26.22-3.54-30.22 8.73q-2.77 8.49 5.17 14.91Z"/><path fill="#fe0000" d="M436.85 240.5q1.8 0 .85-1.53l-20.35-32.81a1 1 0 0 0-1.7 0l-39.26 62.36a1 .97 15.1 0 1-.82.46l-16.25.34q-1.87.03-.86-1.54 22.98-35.99 46.24-72.39 3.48-5.44 6.29-7.21c6.51-4.08 12.68-.57 16.46 5.32q23.7 36.95 47.27 73.97.98 1.53-.84 1.53h-16.04a1.02 1.01-16.5 0 1-.85-.46l-8.15-12.83a1 .98-15.9 0 0-.84-.46h-41.52a.99.99 0 0 1-.85-.48l-7.75-12.75q-.93-1.52.85-1.52h38.12Z"/><path fill="#fd100b" d="M779.44 196.52a8.96 8.96 0 0 1-8.96 8.96 8.96 8.96 0 0 1-8.96-8.96 8.96 8.96 0 0 1 8.96-8.96 8.96 8.96 0 0 1 8.96 8.96Zm-1.71-.01a7.15 7.15 0 0 0-7.15-7.15 7.15 7.15 0 0 0-7.15 7.15 7.15 7.15 0 0 0 7.15 7.15 7.15 7.15 0 0 0 7.15-7.15Z"/><path fill="#fe0000" d="M213.75 187.95c25.64 1.13 43.7 26.31 37.77 51.07-3.38 14.14-15.85 26.21-30.19 29.72q-5.07 1.24-18.87 1.12c-13.72-.11-27.52-.52-41.24-.19-21.15.51-38.74-15.44-41.23-36.36-2.32-19.47 9.94-38.39 29.14-43.91q5.32-1.54 16.52-1.64 36.43-.33 48.1.19Zm17.65 56.72c12.93-17.56.61-41.76-21.15-41.84q-19.32-.07-38.63-.09-9.08-.01-13.57 1.39c-24.06 7.51-24.64 41.64-.6 49.61q4.34 1.44 14.89 1.49 15.47.07 30.92 0c12.29-.06 21.19-1.12 28.14-10.56Zm93.34-1.5q-1.92.16-.45 1.4l27.4 23.16q2.08 1.76-.65 1.76l-19.71.01a1.03.99-23.7 0 1-.66-.24q-20.77-18.2-41.47-36.46-1.67-1.47-2.68-2.6-1.48-1.65.74-1.66 18.74-.09 37.43-.02 6.38.03 9.39-1.32c10.44-4.67 9.71-20.2-1.1-24.03q-2.54-.9-8.19-.91-23.65-.03-47.29 0a1 1 0 0 0-1 1v65.24a1 1 0 0 1-1 1h-14.02a1 1 0 0 1-1-1l.21-79.65a1 1 0 0 1 1-.99q30.37-.21 60.83-.07 3.49.02 6.99.2c35.17 1.83 36.1 51.91 1.4 54.66q-3.11.25-6.17.52Zm154.2 17.64c-26.36-21.97-17.37-63.16 15.82-71.8q4.92-1.28 13.12-1.27 27.57.02 55.04.01 1.85 0 .84 1.55l-8.2 12.47a1.03 1.03 0 0 1-.84.46q-22.04.02-43.96-.02c-30.95-.05-38.83 42.01-9.22 51.25q4.24 1.32 12.08 1.3 24.97-.06 49.94.04 1.77.01.84 1.52l-7.6 12.42a.99.99 0 0 1-.85.48q-23.3.01-46.4.35c-12.68.19-21.54-1.19-30.61-8.76Zm110.4-5.56 70.45.01q1.87 0 .83 1.55l-8.14 12.23a1.01.99-72.8 0 1-.83.45q-34.71.03-69.4 0-9.21 0-9.28-9.56-.25-35.59-.21-71.18a1 1 0 0 1 1-1h13.46a1.01 1 89.7 0 1 1 1q.05 30.1.34 60.18c.01 1.26-.61 3.69-.2 5.54a1.01 1.01 0 0 0 .98.78Zm86.9-33.81 72.54.36q1.82.01.84 1.54l-7.85 12.16a1 .98 15.9 0 1-.84.46l-65.17.05a1 1 0 0 0-.93 1.36q4.86 12.56 16.7 16.41 4.48 1.45 14.22 1.46 24.43.02 48.59.01 1.81 0 .85 1.53l-7.68 12.24a.99.99 0 0 1-.84.47q-20.28.02-40.52.01c-18.78-.01-33.44-7.7-41.11-25.55-9.88-22.98 4.5-48.08 27.74-54.73q4.56-1.3 11.57-1.37 24.4-.24 48.8-.03 1.77.01.84 1.52l-7.65 12.43a.99.99 0 0 1-.85.48q-19.04-.01-38.09.01-10.87.01-15.52 1.53-11.74 3.82-16.57 16.29a1 1 0 0 0 .93 1.36Z"/><path fill="#fff" d="M777.73 196.51a7.15 7.15 0 0 1-7.15 7.15 7.15 7.15 0 0 1-7.15-7.15 7.15 7.15 0 0 1 7.15-7.15 7.15 7.15 0 0 1 7.15 7.15Zm-10.37-3.88.15 7.56a1.01 1-70.6 0 0 .35.74c3.99 3.38-.45-5.13 3.52-2.68a.99.98 9.7 0 1 .45.63c.7 3.06 4.16 3.68 2.36.84q-1.38-2.19.3-4.43a1 .98 52.6 0 0 .12-.98q-1.86-4.43-6.6-2.63a1.01 1-10.9 0 0-.65.95Z"/><path fill="#fe0000" d="M768.01 191.68q4.74-1.8 6.6 2.63a1 .98 52.6 0 1-.12.98q-1.68 2.24-.3 4.43c1.8 2.84-1.66 2.22-2.36-.84a.99.98 9.7 0 0-.45-.63c-3.97-2.45.47 6.06-3.52 2.68a1.01 1-70.6 0 1-.35-.74l-.15-7.56a1.01 1-10.9 0 1 .65-.95Zm4.455 2.315a1.93 1.27-10.9 0 0-2.135-.882 1.93 1.27-10.9 0 0-1.655 1.612 1.93 1.27-10.9 0 0 2.135.882 1.93 1.27-10.9 0 0 1.655-1.612Z"/><ellipse fill="#fff" rx="1.93" ry="1.27" transform="rotate(-10.9 1403.854 -3941.093)"/><path fill="#fff" d="M210.25 202.83c21.76.08 34.08 24.28 21.15 41.84-6.95 9.44-15.85 10.5-28.14 10.56q-15.45.07-30.92 0-10.55-.05-14.89-1.49c-24.04-7.97-23.46-42.1.6-49.61q4.49-1.4 13.57-1.39 19.31.02 38.63.09Z"/><rect width="634.8" height="6" x="121.49" y="310.25" fill="#333" rx="1.18"/><path fill="#333" d="M473.08 381.61q4.62 2.05 6.72 6.25c3.73 7.47.14 15.86-7.55 19.16-8.04 3.44-19.77 3.12-28.38 2.03a1.01.99-86.5 0 1-.87-1v-49.16a1.01.99-4.8 0 1 .84-.98q12.7-2.08 24.65-.19c10.67 1.69 15.88 15.47 5.26 21.63q-.42.25-.83.52-1.48 1.02.16 1.74Zm-6.02-12.64c-2.17-3.88-7.73-4.13-11.73-3.44a1 .99-4.8 0 0-.83.98v10.41a1 1 0 0 0 .92 1q4.48.37 8.45-1.18c3.26-1.27 4.89-4.73 3.19-7.77Zm-4.44 18.25q-3.45-.97-7.21-.65a1 1 0 0 0-.91 1v12.68a1 1 0 0 0 .95 1q2.79.14 5.49-.22c9.26-1.25 11.59-11 1.68-13.81Z"/><rect width="11.26" height="50.28" x="386" y="358.22" fill="#333" rx=".26"/><path fill="#333" d="M418.5 399.5h18.75a1 1 0 0 1 1 1v7.25a1 1 0 0 1-1 1h-29.77a1 1 0 0 1-1-1l.03-48.54a1 .99 88.5 0 1 .94-1q1.76-.1 6.05-.1 11.5-.02 23-.02a1 1 0 0 1 1 1v7.41a1 1 0 0 1-1 1h-17.61a1 1 0 0 0-1 .98l-.19 8.75a1 1 0 0 0 1 1.02h16.05a1 1 0 0 1 1 1v6.79a1 1 0 0 1-1 1l-16.25-.06a1 1 0 0 0-1 1v10.52a1 1 0 0 0 1 1Zm80.09 0h20.03a.34.34 0 0 1 .34.33l.15 8.57a.34.34 0 0 1-.34.35h-31.18a.34.34 0 0 1-.34-.34v-49.85a.34.34 0 0 1 .34-.34l30.32-.06a.34.34 0 0 1 .34.34v8.68a.34.34 0 0 1-.34.34l-18.83-.07a.34.34 0 0 0-.34.34l-.07 10.12a.34.34 0 0 0 .34.34h17.15a.34.34 0 0 1 .34.34v8.18a.34.34 0 0 1-.34.34l-17.57-.04a.34.34 0 0 0-.34.34v11.75a.34.34 0 0 0 .34.34Zm57.48 9h-30.71a.38.38 0 0 1-.38-.38l.03-49.53a.38.38 0 0 1 .37-.38l10.46-.21a.38.38 0 0 1 .39.38l.06 40.46a.38.38 0 0 0 .39.38l19.17-.29a.38.38 0 0 1 .39.37l.21 8.81a.38.38 0 0 1-.38.39Zm-204.24-24.62q-7.94-6.42-5.17-14.91c4-12.27 20.67-12.15 30.22-8.73a1.01.99-72.3 0 1 .62 1.22l-2.01 6.94a1 1 0 0 1-1.43.6q-5.61-3-11.59-1.99c-5.03.85-7.74 6.02-1.92 8.96 9.75 4.91 22.3 7.29 18.53 21.53-3.69 13.93-22.83 12.88-33.13 9.36a1.01 1 16.3 0 1-.65-1.18l1.78-7.4a1 1 0 0 1 1.38-.68c4.88 2.16 12.17 3.92 17.05 1.37q3.98-2.09 2.54-5.57-.97-2.33-3.36-3.36l-9.6-4.15q-1.64-.7-3.26-2.01Z"/><path fill="#fff" d="M467.06 368.97c1.7 3.04.07 6.5-3.19 7.77q-3.97 1.55-8.45 1.18a1 1 0 0 1-.92-1v-10.41a1 .99-4.8 0 1 .83-.98c4-.69 9.56-.44 11.73 3.44Zm-4.44 18.25c9.91 2.81 7.58 12.56-1.68 13.81q-2.7.36-5.49.22a1 1 0 0 1-.95-1v-12.68a1 1 0 0 1 .91-1q3.76-.32 7.21.65Z"/></svg>