<?xml version="1.0" encoding="UTF-8"?>
<svg width="96px" height="26px" viewBox="0 0 96 26" version="1.1" xmlns="http://www.w3.org/2000/svg" xmlns:xlink="http://www.w3.org/1999/xlink">
    <title>logofx-original</title>
    <g id="Page-1" stroke="none" stroke-width="1" fill="none" fill-rule="evenodd">
        <g id="logofx-original" transform="translate(0.585938, 0.439453)" fill="#4A4A4A" fill-rule="nonzero">
            <polygon id="Path" points="0 18.5605469 0 0 5.01464844 0 5.01464844 14.5107422 12.1621094 14.5107422 12.1621094 18.5605469"></polygon>
            <path d="M28.5771484,11.3369141 C28.5771484,13.6897786 27.9444987,15.5242513 26.6791992,16.840332 C25.4138997,18.1564128 23.6429036,18.8144531 21.3662109,18.8144531 C19.1826172,18.8144531 17.4454753,18.1416016 16.1547852,16.7958984 C14.8640951,15.4501953 14.21875,13.6305339 14.21875,11.3369141 C14.21875,8.99251302 14.8513997,7.17073568 16.1166992,5.87158203 C17.3819987,4.57242839 19.1572266,3.92285156 21.4423828,3.92285156 C22.8557943,3.92285156 24.1041667,4.22330729 25.1875,4.82421875 C26.2708333,5.42513021 27.1066081,6.28629557 27.6948242,7.40771484 C28.2830404,8.52913411 28.5771484,9.83886719 28.5771484,11.3369141 Z M19.2587891,11.3369141 C19.2587891,12.5725911 19.4238281,13.5141602 19.7539062,14.1616211 C20.0839844,14.809082 20.6383464,15.1328125 21.4169922,15.1328125 C22.1871745,15.1328125 22.730957,14.809082 23.0483398,14.1616211 C23.3657227,13.5141602 23.5244141,12.5725911 23.5244141,11.3369141 C23.5244141,10.1097005 23.3636068,9.18294271 23.0419922,8.55664062 C22.7203776,7.93033854 22.1702474,7.6171875 21.3916016,7.6171875 C20.6298828,7.6171875 20.0839844,7.92822266 19.7539062,8.55029297 C19.4238281,9.17236328 19.2587891,10.101237 19.2587891,11.3369141 Z" id="Shape"></path>
            <path d="M44.9794922,4.17675781 L44.9794922,6.57617188 L43.0117188,7.29980469 C43.2825521,7.7906901 43.4179688,8.36197917 43.4179688,9.01367188 C43.4179688,10.5625 42.8741862,11.7643229 41.7866211,12.6191406 C40.699056,13.4739583 39.0761719,13.9013672 36.9179688,13.9013672 C36.3847656,13.9013672 35.9615885,13.867513 35.6484375,13.7998047 C35.5299479,14.0198568 35.4707031,14.2272135 35.4707031,14.421875 C35.4707031,14.6673177 35.6695964,14.8556315 36.0673828,14.9868164 C36.4651693,15.1180013 36.9856771,15.1835938 37.6289062,15.1835938 L40.015625,15.1835938 C43.2402344,15.1835938 44.8525391,16.5419922 44.8525391,19.2587891 C44.8525391,21.0107422 44.1056315,22.3733724 42.6118164,23.3466797 C41.1180013,24.319987 39.0211589,24.8066406 36.3212891,24.8066406 C34.2815755,24.8066406 32.7094727,24.4659831 31.6049805,23.784668 C30.5004883,23.1033529 29.9482422,22.1236979 29.9482422,20.8457031 C29.9482422,19.1276042 31.0146484,18.0188802 33.1474609,17.5195312 C32.7073568,17.3333333 32.3243815,17.0328776 31.9985352,16.6181641 C31.6726888,16.2034505 31.5097656,15.7929688 31.5097656,15.3867188 C31.5097656,14.938151 31.632487,14.5424805 31.8779297,14.199707 C32.1233724,13.8569336 32.6354167,13.4485677 33.4140625,12.9746094 C32.6692708,12.6445312 32.0831706,12.1282552 31.6557617,11.4257812 C31.2283529,10.7233073 31.0146484,9.86848958 31.0146484,8.86132812 C31.0146484,7.29557292 31.5478516,6.08105469 32.6142578,5.21777344 C33.6806641,4.35449219 35.2041016,3.92285156 37.1845703,3.92285156 C37.4469401,3.92285156 37.8997396,3.95247396 38.5429688,4.01171875 C39.1861979,4.07096354 39.6601562,4.12597656 39.9648438,4.17675781 L44.9794922,4.17675781 Z M34.1376953,20.3505859 C34.1376953,20.7568359 34.3577474,21.0847982 34.7978516,21.3344727 C35.2379557,21.5841471 35.8261719,21.7089844 36.5625,21.7089844 C37.7643229,21.7089844 38.7270508,21.5587565 39.4506836,21.2583008 C40.1743164,20.9578451 40.5361328,20.570638 40.5361328,20.0966797 C40.5361328,19.7158203 40.3160807,19.4471029 39.8759766,19.2905273 C39.4358724,19.1339518 38.8053385,19.0556641 37.984375,19.0556641 L36.0419922,19.0556641 C35.5087891,19.0556641 35.0581055,19.1805013 34.6899414,19.4301758 C34.3217773,19.6798503 34.1376953,19.9866536 34.1376953,20.3505859 Z M35.6992188,8.88671875 C35.6992188,10.359375 36.211263,11.0957031 37.2353516,11.0957031 C37.7093099,11.0957031 38.0753581,10.913737 38.3334961,10.5498047 C38.5916341,10.1858724 38.7207031,9.63997396 38.7207031,8.91210938 C38.7207031,7.42252604 38.2255859,6.67773438 37.2353516,6.67773438 C36.211263,6.67773438 35.6992188,7.4140625 35.6992188,8.88671875 Z" id="Shape"></path>
            <path d="M60.8994141,11.3369141 C60.8994141,13.6897786 60.2667643,15.5242513 59.0014648,16.840332 C57.7361654,18.1564128 55.9651693,18.8144531 53.6884766,18.8144531 C51.5048828,18.8144531 49.7677409,18.1416016 48.4770508,16.7958984 C47.1863607,15.4501953 46.5410156,13.6305339 46.5410156,11.3369141 C46.5410156,8.99251302 47.1736654,7.17073568 48.4389648,5.87158203 C49.7042643,4.57242839 51.4794922,3.92285156 53.7646484,3.92285156 C55.1780599,3.92285156 56.4264323,4.22330729 57.5097656,4.82421875 C58.593099,5.42513021 59.4288737,6.28629557 60.0170898,7.40771484 C60.605306,8.52913411 60.8994141,9.83886719 60.8994141,11.3369141 Z M51.5810547,11.3369141 C51.5810547,12.5725911 51.7460938,13.5141602 52.0761719,14.1616211 C52.40625,14.809082 52.960612,15.1328125 53.7392578,15.1328125 C54.5094401,15.1328125 55.0532227,14.809082 55.3706055,14.1616211 C55.6879883,13.5141602 55.8466797,12.5725911 55.8466797,11.3369141 C55.8466797,10.1097005 55.6858724,9.18294271 55.3642578,8.55664062 C55.0426432,7.93033854 54.492513,7.6171875 53.7138672,7.6171875 C52.9521484,7.6171875 52.40625,7.92822266 52.0761719,8.55029297 C51.7460938,9.17236328 51.5810547,10.101237 51.5810547,11.3369141 Z" id="Shape"></path>
            <polygon id="Path" points="68.9609375 18.5605469 64.0224609 18.5605469 64.0224609 0 74.9912109 0 74.9912109 4.02441406 68.9609375 4.02441406 68.9609375 7.56640625 74.5214844 7.56640625 74.5214844 11.5908203 68.9609375 11.5908203"></polygon>
            <polygon id="Path" points="94.7578125 18.5605469 88.9560547 18.5605469 85.3378906 12.7587891 81.7578125 18.5605469 76.0830078 18.5605469 82.2402344 9.06445312 76.4511719 0 82.0117188 0 85.3632812 5.73828125 88.5878906 0 94.3134766 0 88.4355469 9.45800781"></polygon>
        </g>
    </g>
</svg>