<?xml version="1.0" encoding="UTF-8" standalone="no"?>
<!DOCTYPE svg PUBLIC "-//W3C//DTD SVG 1.1//EN" "http://www.w3.org/Graphics/SVG/1.1/DTD/svg11.dtd">
<!-- Created with Vectornator (http://vectornator.io/) -->
<svg height="100%" stroke-miterlimit="10" style="fill-rule:nonzero;clip-rule:evenodd;stroke-linecap:round;stroke-linejoin:round;" version="1.1" viewBox="0 0 169 169" width="100%" xml:space="preserve" xmlns="http://www.w3.org/2000/svg" xmlns:vectornator="http://vectornator.io" xmlns:xlink="http://www.w3.org/1999/xlink">
<defs>
<clipPath id="TextBounds">
<rect height="54.1372" width="168.74" x="-0.00272285" y="104.25"/>
</clipPath>
</defs>
<g id="Layer-1" vectornator:layerName="Layer 1">
<path d="M61.9081 16.1215C70.4902 29.465 62.3628 16.882 70.3454 29.2615C82.2745 22.7738 110.013 25.728 109.724 54.9721C106.289 53.2002 105.976 53.0469 105.976 53.0469L106.325 81.7251L131.602 67.438C129.72 66.2904 127.558 65.1506 125.355 63.8273C125.211 60.0712 125.232 60.0505 125.232 60.0505L141.288 60.0133L141.408 66.7513L166.989 52.5424L141.067 36.4002L141.206 43.6554L124.846 43.6085C123.491 25.6356 94.0124-2.67149 61.9081 16.1215Z" fill="#000000" fill-rule="nonzero" opacity="1" stroke="none"/>
<path d="M106.795 88.0403C98.1032 74.768 106.334 87.2836 98.2496 74.9704C86.3744 81.5562 58.6122 78.8308 58.6606 49.5854C62.1094 51.3289 62.4244 51.4796 62.4244 51.4796L61.8387 22.8052L36.6804 37.3004C38.5721 38.4323 40.743 39.5543 42.9565 40.8594C43.1313 44.6142 43.1104 44.635 43.1104 44.635L27.0555 44.8047L26.8807 38.0679L1.41757 52.4873L27.4718 68.4151L27.2724 61.1613L43.6328 61.0734C45.1358 79.0345 74.8468 107.097 106.795 88.0403Z" fill="#000000" fill-rule="nonzero" opacity="1" stroke="none"/>
<g fill="#000000" opacity="1" stroke="none">
<path clip-path="url(#TextBounds)" d="M23.8571 123.459L40.2877 123.459C43.5267 123.459 46.143 123.899 48.1368 124.778C50.1307 125.656 51.7786 126.918 53.0807 128.562C54.3828 130.206 55.3268 132.118 55.9127 134.299C56.4987 136.48 56.7916 138.791 56.7916 141.233C56.7916 145.058 56.3562 148.024 55.4855 150.132C54.6147 152.239 53.4062 154.005 51.86 155.429C50.3138 156.854 48.6536 157.802 46.8795 158.274C44.4544 158.925 42.2571 159.25 40.2877 159.25L23.8571 159.25L23.8571 123.459ZM34.9166 131.565L34.9166 151.12L37.6266 151.12C39.9378 151.12 41.5817 150.864 42.5582 150.351C43.5348 149.839 44.2998 148.943 44.8532 147.666C45.4065 146.388 45.6832 144.317 45.6832 141.452C45.6832 137.66 45.0647 135.064 43.8278 133.664C42.5908 132.265 40.54 131.565 37.6754 131.565L34.9166 131.565Z"/>
<path clip-path="url(#TextBounds)" d="M59.7701 123.459L70.2682 123.459L74.0524 143.454L79.57 123.459L90.0436 123.459L95.5856 143.454L99.3698 123.459L109.819 123.459L101.933 159.25L91.0934 159.25L84.819 136.716L78.569 159.25L67.7291 159.25L59.7701 123.459Z"/>
<path clip-path="url(#TextBounds)" d="M113.603 159.25L113.603 123.459L132.036 123.459C135.454 123.459 138.066 123.752 139.873 124.338C141.679 124.924 143.136 126.01 144.243 127.597C145.35 129.184 145.903 131.117 145.903 133.396C145.903 135.381 145.48 137.094 144.633 138.535C143.787 139.975 142.623 141.143 141.142 142.038C140.198 142.608 138.904 143.08 137.26 143.454C138.579 143.894 139.539 144.333 140.141 144.773C140.548 145.066 141.138 145.692 141.911 146.653C142.684 147.613 143.201 148.353 143.462 148.874L148.808 159.25L136.308 159.25L130.4 148.313C129.651 146.897 128.984 145.977 128.398 145.554C127.601 145.001 126.697 144.724 125.688 144.724L124.712 144.724L124.712 159.25L113.603 159.25ZM124.712 137.961L129.375 137.961C129.879 137.961 130.856 137.798 132.304 137.473C133.037 137.326 133.635 136.952 134.099 136.35C134.563 135.748 134.795 135.056 134.795 134.275C134.795 133.119 134.428 132.232 133.696 131.613C132.964 130.995 131.588 130.686 129.57 130.686L124.712 130.686L124.712 137.961Z"/>
</g>
</g>
</svg>
