<?xml version="1.0" encoding="UTF-8" standalone="no"?>
<!DOCTYPE svg PUBLIC "-//W3C//DTD SVG 1.1//EN" "http://www.w3.org/Graphics/SVG/1.1/DTD/svg11.dtd">
<!-- Created with Vectornator (http://vectornator.io/) -->
<svg height="640.0px" stroke-miterlimit="10" style="fill-rule:nonzero;clip-rule:evenodd;stroke-linecap:round;stroke-linejoin:round;" version="1.1" viewBox="0 0 640 640" width="640.0px" xml:space="preserve" xmlns="http://www.w3.org/2000/svg" xmlns:xlink="http://www.w3.org/1999/xlink">
<defs/>
<g id="Untitled">
<path d="M320 40C295.08 101.12 280 141.14 252.18 200.44C273.767 223.886 297.849 244.904 324 263.12C295.122 252.151 268.131 236.746 244 217.46C208.6 291.58 152.92 397.1 40 600C143.72 540.12 220.24 507.04 293.82 500.68L293.82 484L277.14 484L277.14 467.26L293.82 467.26L293.82 484L327.32 484L327.32 450.42L293.82 450.42L293.82 433.74L277.14 433.74L277.14 400.26L293.82 400.26L293.82 383.58L327.32 383.58L327.32 400.26L344 400.26L344 417L327.26 417L327.26 400.26L293.82 400.26L293.82 433.76L327.32 433.76L327.32 450.44L344 450.44L344 484L327.26 484L327.26 499.66C406.86 501.66 487.38 535.1 599.94 600.08C582.68 568.3 567.22 539.66 552.5 512.38C522.951 486.516 490.517 464.149 455.84 445.72C482.883 452.05 508.87 462.248 533 476C383.4 197.44 371.3 160.4 320 40ZM210.22 383.58L243.64 383.58L243.64 400.26L260.38 400.26L260.38 500.68L243.64 500.68L243.64 450.42L210.22 450.42L210.22 500.66L193.46 500.66L193.46 400.26L210.2 400.26L210.22 383.58ZM210.22 400.26L210.22 433.76L243.64 433.76L243.64 400.26L210.22 400.26ZM360.74 383.58L377.48 383.58L377.48 400.26L394.22 400.26L394.22 417L410.9 417L410.9 400.26L427.64 400.26L427.64 383.58L444.38 383.58L444.38 500.68L427.64 500.68L427.64 417L410.9 417L410.9 433.74L394.22 433.74L394.22 417L377.48 417L377.48 500.68L360.74 500.68L360.74 383.58Z" fill="#000000" fill-rule="nonzero" opacity="1" stroke="none"/>
</g>
</svg>
