<svg id="svg" version="1.1" xmlns="http://www.w3.org/2000/svg" xmlns:xlink="http://www.w3.org/1999/xlink" width="400" height="400" viewBox="0, 0, 400,400"><g id="svgg"><path id="path0" d="M201.200 62.249 C 200.870 62.376,199.430 62.930,198.000 63.479 C 194.710 64.744,192.622 66.714,191.755 69.374 C 191.391 70.488,190.893 71.653,190.647 71.961 C 189.646 73.219,190.136 80.362,191.421 83.249 C 194.669 90.545,203.558 93.134,211.821 89.190 C 215.047 87.650,218.400 83.819,218.400 81.672 C 218.400 81.243,218.669 80.376,218.998 79.746 C 221.310 75.311,217.098 65.665,212.020 63.768 C 211.019 63.394,209.956 62.895,209.659 62.660 C 209.076 62.201,202.193 61.866,201.200 62.249 M238.888 76.649 C 230.037 78.914,227.774 88.088,234.532 94.300 L 236.382 96.000 240.631 96.000 L 244.880 96.000 247.254 93.700 C 252.673 88.451,251.520 80.889,244.800 77.608 C 241.909 76.196,241.145 76.072,238.888 76.649 M210.600 108.272 C 208.243 108.569,202.966 110.459,200.971 111.718 C 199.855 112.423,198.271 113.428,197.451 113.951 C 195.350 115.292,192.493 118.946,191.998 120.927 C 191.768 121.847,191.334 123.148,191.035 123.819 C 189.331 127.633,189.185 136.875,190.781 139.937 C 191.201 140.742,191.741 142.155,191.981 143.078 C 192.890 146.562,202.590 154.360,206.082 154.414 C 206.587 154.422,207.450 154.686,208.000 155.000 C 209.589 155.908,216.090 155.789,218.904 154.800 C 220.156 154.360,221.566 154.000,222.038 154.000 C 228.556 154.000,238.074 139.052,237.107 130.334 C 236.427 124.202,232.529 115.926,229.810 114.836 C 229.584 114.746,228.847 114.071,228.172 113.336 C 227.496 112.601,226.558 112.000,226.088 112.000 C 225.617 112.000,224.820 111.566,224.316 111.036 C 223.796 110.488,222.364 109.791,221.000 109.421 C 219.680 109.063,217.970 108.602,217.200 108.395 C 215.825 108.026,212.967 107.972,210.600 108.272 M268.785 113.798 C 265.907 114.147,264.130 114.577,263.185 115.153 C 262.423 115.617,261.565 115.998,261.278 115.999 C 260.279 116.001,257.005 117.713,255.247 119.152 C 250.867 122.735,248.837 125.482,247.398 129.769 C 245.616 135.076,247.286 135.748,252.000 131.621 C 256.303 127.853,255.897 128.000,262.009 128.000 L 267.441 128.000 269.865 129.575 C 272.531 131.307,276.813 136.165,278.527 139.400 C 280.462 143.053,282.088 153.439,281.001 155.198 C 280.880 155.394,280.589 156.595,280.353 157.869 C 278.548 167.633,265.406 175.763,251.400 175.781 C 245.713 175.788,238.527 174.462,236.200 172.976 C 235.760 172.695,234.590 172.256,233.600 172.000 C 232.610 171.744,231.440 171.308,231.000 171.031 C 230.560 170.753,229.660 170.396,229.000 170.235 C 228.340 170.075,226.810 169.526,225.600 169.014 C 222.658 167.770,217.179 166.004,216.193 165.982 C 215.757 165.973,214.680 165.685,213.800 165.343 C 212.920 165.001,211.210 164.489,210.000 164.206 C 208.790 163.922,206.450 163.318,204.800 162.862 C 199.614 161.429,196.357 160.741,191.200 159.987 C 188.450 159.585,185.734 159.079,185.165 158.863 C 184.596 158.646,182.346 158.256,180.165 157.996 C 177.984 157.736,176.085 157.452,175.945 157.366 C 175.408 157.035,166.792 156.051,162.400 155.820 C 159.870 155.687,154.964 155.294,151.498 154.948 C 144.460 154.245,123.530 154.363,120.600 155.122 C 119.720 155.350,116.553 155.725,113.562 155.955 C 110.571 156.185,107.601 156.572,106.962 156.816 C 106.323 157.059,103.828 157.615,101.417 158.049 C 99.007 158.484,96.809 159.027,96.533 159.255 C 96.258 159.484,94.810 159.827,93.316 160.017 C 90.826 160.334,86.879 161.635,84.400 162.954 C 83.850 163.247,82.518 163.702,81.439 163.964 C 77.962 164.812,66.775 170.742,63.005 173.737 C 61.853 174.651,60.066 176.030,59.034 176.800 C 56.313 178.831,48.152 187.044,45.670 190.249 C 41.215 196.005,36.000 205.598,36.000 208.039 C 36.000 208.448,35.575 209.911,35.056 211.291 C 34.538 212.671,33.980 215.041,33.819 216.557 C 33.657 218.074,33.271 220.032,32.962 220.908 C 31.569 224.856,32.434 229.639,34.529 229.572 C 36.444 229.510,36.195 229.714,47.400 219.019 C 50.260 216.289,53.236 213.548,54.013 212.928 C 54.790 212.308,55.780 211.480,56.213 211.089 C 58.707 208.835,64.972 204.000,65.399 204.000 C 65.676 204.000,66.125 203.731,66.398 203.402 C 66.672 203.073,67.623 202.586,68.512 202.319 C 69.401 202.053,70.542 201.422,71.046 200.917 C 71.551 200.413,72.248 200.000,72.596 200.000 C 72.943 200.000,74.617 199.218,76.314 198.262 C 78.011 197.306,80.282 196.307,81.360 196.041 C 82.439 195.775,83.789 195.319,84.360 195.026 C 84.932 194.734,86.186 194.364,87.146 194.204 C 88.107 194.045,89.656 193.577,90.588 193.164 C 94.887 191.263,126.499 191.109,133.908 192.953 C 135.169 193.267,137.727 193.737,139.592 193.997 C 141.458 194.258,143.330 194.656,143.752 194.881 C 144.496 195.279,146.618 195.785,155.000 197.561 C 157.200 198.027,159.450 198.651,160.000 198.948 C 160.550 199.245,162.170 199.708,163.600 199.978 C 165.030 200.248,166.740 200.702,167.400 200.987 C 168.876 201.624,176.158 203.882,177.800 204.212 C 178.460 204.345,179.810 204.782,180.800 205.184 C 184.644 206.745,188.268 207.966,189.779 208.210 C 190.647 208.351,191.796 208.811,192.333 209.233 C 192.869 209.655,193.649 210.000,194.066 210.000 C 194.483 210.000,195.893 210.450,197.200 211.000 C 198.507 211.550,199.915 212.000,200.328 212.000 C 200.742 212.000,201.927 212.450,202.962 213.000 C 203.996 213.550,205.148 214.001,205.521 214.002 C 205.895 214.004,206.740 214.290,207.400 214.638 C 208.783 215.368,213.100 216.743,219.400 218.460 C 225.879 220.226,238.639 221.651,243.535 221.155 C 255.846 219.907,259.092 219.489,260.269 218.997 C 261.014 218.686,262.722 218.232,264.064 217.988 C 265.406 217.745,267.153 217.198,267.946 216.773 C 268.739 216.348,269.715 216.000,270.115 216.000 C 270.515 216.000,271.507 215.652,272.321 215.227 C 273.134 214.801,276.117 213.316,278.949 211.927 C 286.801 208.073,287.542 207.656,287.978 206.842 C 288.200 206.427,289.151 205.628,290.091 205.068 C 291.031 204.508,292.631 203.273,293.646 202.325 C 294.662 201.376,295.922 200.210,296.446 199.734 C 296.971 199.257,298.390 197.755,299.600 196.396 C 300.810 195.036,302.258 193.446,302.818 192.862 C 303.838 191.798,306.945 186.629,308.145 184.000 C 308.496 183.230,308.952 182.330,309.158 182.000 C 310.182 180.355,311.619 176.745,312.027 174.792 C 312.279 173.586,312.869 171.520,313.338 170.200 C 314.462 167.035,314.574 147.663,313.488 144.200 C 313.143 143.100,312.512 141.030,312.085 139.600 C 311.659 138.170,311.016 136.460,310.658 135.800 C 310.299 135.140,310.004 134.432,310.002 134.226 C 309.984 131.499,303.801 123.912,298.400 119.991 C 294.457 117.128,293.199 116.411,291.285 115.936 C 290.248 115.679,288.992 115.205,288.493 114.883 C 286.454 113.569,275.605 112.971,268.785 113.798 M259.619 135.180 C 259.300 135.382,258.130 135.665,257.019 135.809 C 254.292 136.163,248.400 140.255,248.400 141.795 C 248.400 142.066,247.912 142.988,247.316 143.844 C 245.512 146.433,245.454 153.539,247.205 157.371 C 251.946 167.740,265.757 169.890,273.846 161.518 C 274.971 160.353,276.027 158.950,276.192 158.400 C 276.356 157.850,276.831 156.839,277.246 156.153 C 280.135 151.376,276.604 141.368,270.630 137.402 C 267.755 135.494,261.211 134.173,259.619 135.180 M317.800 200.446 C 315.160 200.581,312.820 200.731,312.600 200.780 C 311.848 200.947,314.431 201.540,317.117 201.817 C 318.593 201.969,320.082 202.341,320.426 202.642 C 320.787 202.958,323.205 203.442,326.132 203.784 C 328.927 204.111,331.615 204.595,332.106 204.859 C 332.598 205.122,333.990 205.559,335.200 205.828 C 337.971 206.445,342.094 208.082,345.253 209.819 C 353.048 214.107,348.216 220.513,333.800 225.001 C 331.160 225.822,328.048 226.833,326.885 227.247 C 325.722 227.661,324.176 228.000,323.449 228.000 C 322.722 228.000,320.704 228.369,318.964 228.821 C 317.224 229.272,314.180 229.826,312.200 230.053 C 310.220 230.279,307.647 230.712,306.483 231.015 C 305.318 231.318,300.908 231.764,296.683 232.007 C 292.457 232.250,288.460 232.607,287.800 232.800 C 283.458 234.071,226.660 234.409,224.360 233.178 C 223.747 232.851,219.035 232.502,210.417 232.146 C 203.258 231.850,196.140 231.418,194.600 231.186 C 193.060 230.955,188.200 230.433,183.800 230.027 C 179.400 229.621,175.221 229.103,174.513 228.876 C 173.805 228.649,170.478 228.252,167.120 227.994 C 163.762 227.736,160.561 227.297,160.007 227.019 C 159.453 226.741,156.903 226.306,154.340 226.053 C 151.777 225.800,148.906 225.320,147.960 224.986 C 147.014 224.652,144.161 224.209,141.620 224.001 C 139.079 223.793,136.119 223.358,135.041 223.033 C 133.964 222.708,132.074 222.322,130.841 222.175 C 129.609 222.028,128.060 221.592,127.400 221.207 C 126.740 220.822,124.760 220.284,123.000 220.013 C 121.240 219.741,118.810 219.193,117.600 218.794 C 116.390 218.395,114.680 217.947,113.800 217.799 C 112.920 217.650,112.014 217.375,111.786 217.187 C 111.558 216.999,109.963 216.458,108.242 215.986 C 103.303 214.631,99.466 212.124,98.986 209.936 C 98.845 209.296,98.286 208.481,97.742 208.125 C 97.199 207.769,96.412 206.807,95.993 205.986 C 95.496 205.011,94.854 204.400,94.140 204.221 C 93.540 204.070,92.588 203.625,92.024 203.232 C 88.636 200.868,79.577 199.787,75.600 201.272 C 74.610 201.642,73.327 202.045,72.749 202.168 C 71.441 202.445,66.876 206.951,66.143 208.687 C 65.104 211.150,65.715 217.474,67.198 219.600 C 67.581 220.150,68.023 221.012,68.180 221.516 C 68.960 224.028,76.647 232.087,81.351 235.325 C 84.664 237.606,88.635 240.000,89.104 240.000 C 89.316 240.000,90.161 240.456,90.983 241.014 C 91.805 241.572,93.099 242.158,93.859 242.316 C 94.619 242.474,95.277 242.771,95.320 242.978 C 95.431 243.499,90.942 244.788,89.000 244.794 C 88.120 244.796,86.230 245.055,84.800 245.369 C 83.370 245.683,80.940 246.107,79.400 246.311 C 75.950 246.768,71.653 247.831,69.000 248.883 C 67.900 249.319,66.460 249.812,65.800 249.979 C 62.216 250.883,56.800 257.908,56.800 261.653 C 56.800 265.980,65.481 276.400,69.086 276.400 C 69.315 276.400,69.724 276.668,69.996 276.995 C 70.268 277.323,72.045 278.339,73.945 279.255 C 78.108 281.259,77.749 280.973,77.255 281.897 C 76.965 282.439,75.757 282.930,73.124 283.575 C 65.071 285.550,60.434 289.382,59.783 294.599 C 58.941 301.354,62.345 308.438,68.489 312.712 C 69.210 313.214,70.430 314.064,71.200 314.602 C 71.970 315.140,73.050 315.777,73.599 316.018 C 74.149 316.259,74.869 316.700,75.199 316.998 C 76.306 317.996,80.246 319.882,81.832 320.172 C 82.694 320.330,83.760 320.688,84.200 320.967 C 84.640 321.246,87.070 322.145,89.600 322.965 C 92.130 323.785,94.740 324.639,95.400 324.862 C 96.060 325.086,98.310 325.588,100.400 325.979 C 102.490 326.370,105.370 326.967,106.800 327.305 C 110.558 328.194,115.802 329.226,118.800 329.667 C 120.230 329.878,123.380 330.475,125.800 330.994 C 128.220 331.514,131.773 332.043,133.696 332.171 C 135.619 332.299,139.039 332.763,141.296 333.201 C 143.553 333.639,146.030 333.999,146.800 334.002 C 147.570 334.004,150.540 334.367,153.400 334.809 C 156.260 335.251,162.020 335.788,166.200 336.002 C 170.380 336.217,176.950 336.709,180.800 337.096 C 191.317 338.154,251.614 338.136,259.400 337.073 C 262.260 336.683,267.570 336.204,271.200 336.009 C 274.830 335.813,279.240 335.390,281.000 335.068 C 282.760 334.746,286.090 334.262,288.400 333.994 C 290.710 333.725,293.590 333.265,294.800 332.971 C 296.010 332.677,298.260 332.325,299.800 332.188 C 301.340 332.052,303.770 331.606,305.200 331.198 C 306.630 330.789,308.970 330.261,310.400 330.024 C 311.830 329.787,313.900 329.334,315.000 329.017 C 316.100 328.701,318.530 328.067,320.400 327.609 C 328.563 325.610,334.353 323.834,336.600 322.642 C 337.260 322.292,338.075 322.004,338.411 322.002 C 338.747 322.001,339.404 321.732,339.871 321.405 C 340.338 321.078,341.683 320.554,342.860 320.241 C 345.129 319.637,349.288 317.759,352.600 315.843 C 363.736 309.402,367.391 303.985,366.349 295.464 C 365.983 292.464,364.098 288.000,363.198 288.000 C 363.020 288.000,361.912 287.219,360.737 286.264 C 358.359 284.332,354.825 282.638,351.816 281.988 C 350.725 281.752,349.620 281.383,349.361 281.167 C 349.101 280.952,347.589 280.504,346.001 280.173 C 344.413 279.842,342.022 279.128,340.688 278.586 C 339.354 278.044,338.034 277.600,337.755 277.600 C 336.524 277.600,336.917 276.799,338.336 276.417 C 339.194 276.186,340.324 275.663,340.848 275.254 C 341.372 274.845,342.250 274.377,342.800 274.215 C 357.835 269.772,371.754 253.010,367.227 244.800 C 366.802 244.030,366.140 242.817,365.755 242.104 C 365.370 241.391,364.727 240.704,364.326 240.576 C 363.924 240.449,363.102 239.933,362.498 239.430 C 361.894 238.927,360.680 238.283,359.800 237.997 C 358.920 237.712,357.770 237.199,357.245 236.857 C 356.597 236.436,354.781 236.150,351.600 235.969 C 346.773 235.694,344.645 235.157,346.300 234.632 C 346.756 234.487,347.800 233.835,348.620 233.184 C 349.439 232.533,350.349 232.000,350.642 232.000 C 352.263 232.000,359.401 223.261,360.027 220.508 C 361.383 214.557,359.872 210.435,355.200 207.339 C 353.990 206.537,352.511 205.546,351.912 205.138 C 351.314 204.729,349.604 204.136,348.112 203.821 C 346.621 203.506,344.770 202.985,344.000 202.663 C 343.230 202.341,341.160 201.880,339.400 201.638 C 337.640 201.397,335.030 201.030,333.600 200.823 C 330.034 200.306,323.546 200.152,317.800 200.446 M335.200 240.973 C 335.200 241.288,334.885 241.655,334.500 241.789 C 334.115 241.922,333.017 243.661,332.059 245.653 L 330.318 249.275 325.259 251.694 C 322.477 253.024,319.797 254.426,319.305 254.810 C 318.812 255.194,317.552 255.623,316.505 255.764 C 314.663 256.012,311.369 257.113,306.800 259.009 C 305.590 259.511,303.970 260.051,303.200 260.209 C 302.430 260.367,301.350 260.723,300.800 261.000 C 300.250 261.276,298.810 261.702,297.600 261.946 C 296.390 262.191,294.230 262.739,292.800 263.166 C 288.916 264.324,285.309 265.189,282.400 265.659 C 280.970 265.890,278.630 266.435,277.200 266.870 C 275.770 267.305,273.340 267.805,271.800 267.982 C 270.260 268.159,268.010 268.584,266.800 268.927 C 265.590 269.270,262.890 269.757,260.800 270.008 C 258.710 270.260,256.100 270.713,255.000 271.015 C 253.900 271.318,250.750 271.760,248.000 271.999 C 245.250 272.237,241.740 272.692,240.200 273.009 C 238.660 273.326,234.880 273.772,231.800 274.000 C 228.720 274.227,224.940 274.678,223.400 275.000 C 221.860 275.323,215.020 275.864,208.200 276.201 C 201.380 276.539,194.630 276.985,193.200 277.194 C 185.643 278.296,146.395 278.038,132.400 276.794 C 130.310 276.608,126.170 276.280,123.200 276.065 C 117.777 275.673,116.130 275.469,112.800 274.778 C 111.810 274.573,108.840 274.138,106.200 273.813 C 103.560 273.488,100.230 272.946,98.800 272.609 C 97.370 272.273,95.210 271.826,94.000 271.618 C 90.872 271.078,86.930 270.068,84.600 269.211 C 83.500 268.806,82.110 268.366,81.512 268.233 C 79.262 267.732,71.457 263.651,70.507 262.478 C 68.721 260.274,68.708 257.566,70.477 256.104 C 71.310 255.415,78.231 252.000,78.795 252.000 C 79.076 252.000,79.867 251.660,80.553 251.244 C 81.239 250.828,82.748 250.289,83.906 250.047 C 85.064 249.804,86.640 249.344,87.407 249.023 C 88.175 248.702,89.928 248.320,91.302 248.174 C 92.676 248.028,94.586 247.570,95.547 247.156 C 98.109 246.053,104.345 246.034,106.800 247.122 C 107.790 247.561,109.355 248.042,110.277 248.191 C 111.199 248.341,112.166 248.718,112.426 249.031 C 112.686 249.344,113.371 249.603,113.949 249.607 C 114.527 249.611,116.350 249.974,118.000 250.414 C 119.650 250.854,122.170 251.408,123.600 251.645 C 125.030 251.882,128.000 252.493,130.200 253.003 C 132.400 253.513,135.176 254.046,136.368 254.188 C 137.560 254.330,139.540 254.709,140.768 255.032 C 141.996 255.355,146.420 255.799,150.600 256.019 C 154.780 256.239,158.830 256.586,159.600 256.790 C 163.479 257.819,194.536 258.983,208.594 258.627 C 225.756 258.191,238.034 257.596,242.400 256.986 C 244.710 256.664,250.269 256.222,254.753 256.003 C 259.238 255.785,264.368 255.340,266.153 255.016 C 267.939 254.691,271.249 254.231,273.510 253.992 C 275.770 253.753,278.362 253.296,279.270 252.975 C 280.179 252.655,282.937 252.216,285.400 252.000 C 287.863 251.784,290.623 251.345,291.533 251.024 C 292.443 250.703,294.610 250.245,296.348 250.007 C 298.086 249.769,300.744 249.241,302.254 248.833 C 303.764 248.426,305.973 247.972,307.163 247.824 C 308.352 247.677,309.792 247.315,310.363 247.020 C 310.933 246.725,312.840 246.267,314.600 246.003 C 316.360 245.738,318.555 245.179,319.478 244.761 C 320.401 244.342,321.459 244.000,321.830 244.000 C 322.613 244.000,328.182 242.240,330.800 241.165 C 333.010 240.258,335.200 240.162,335.200 240.973 M331.600 280.018 C 333.575 280.455,339.431 283.176,345.807 286.618 C 347.214 287.378,348.924 288.000,349.605 288.000 C 351.725 288.000,354.000 290.982,354.000 293.762 C 354.000 295.960,350.672 299.304,347.600 300.194 C 347.050 300.353,346.235 300.713,345.789 300.993 C 344.393 301.869,338.782 304.000,337.870 304.000 C 337.391 304.000,335.560 304.447,333.800 304.994 C 332.040 305.541,329.880 305.999,329.000 306.011 C 327.412 306.035,325.676 306.351,322.600 307.176 C 321.720 307.412,319.152 307.778,316.894 307.988 C 314.636 308.198,311.486 308.635,309.894 308.959 C 308.302 309.282,304.300 309.745,301.000 309.987 C 297.700 310.229,294.280 310.594,293.400 310.798 C 292.520 311.002,288.830 311.362,285.200 311.598 C 281.570 311.834,275.540 312.294,271.800 312.621 C 255.825 314.015,251.741 314.142,222.800 314.140 C 194.694 314.139,180.202 313.736,174.200 312.787 C 172.880 312.578,169.550 312.309,166.800 312.189 C 164.050 312.069,160.900 311.806,159.800 311.605 C 154.883 310.706,149.461 310.000,147.482 310.000 C 146.297 310.000,143.904 309.631,142.164 309.181 C 140.424 308.730,137.608 308.198,135.907 307.999 C 134.206 307.800,131.987 307.356,130.975 307.012 C 129.963 306.669,128.025 306.222,126.668 306.019 C 125.311 305.817,123.169 305.280,121.910 304.826 C 120.650 304.371,119.300 304.001,118.910 304.002 C 118.147 304.004,114.850 302.936,106.507 299.986 C 104.814 299.387,100.299 297.353,96.806 295.616 C 96.479 295.453,96.003 294.597,95.747 293.714 C 95.129 291.578,92.816 288.333,91.432 287.659 C 90.651 287.279,90.447 286.993,90.744 286.696 C 91.363 286.077,94.564 286.229,95.658 286.930 C 96.176 287.261,98.040 287.652,99.800 287.797 C 101.560 287.943,104.800 288.483,107.000 288.998 C 109.200 289.513,111.808 290.062,112.795 290.218 C 113.782 290.374,115.310 290.757,116.191 291.067 C 117.072 291.378,119.685 291.817,121.997 292.042 C 124.308 292.267,126.830 292.706,127.600 293.019 C 128.370 293.332,132.240 293.946,136.200 294.384 C 140.160 294.822,144.930 295.355,146.800 295.568 C 158.353 296.883,184.966 297.545,198.200 296.846 C 203.040 296.590,211.680 296.207,217.400 295.994 C 223.120 295.781,229.510 295.349,231.600 295.036 C 233.690 294.722,237.470 294.349,240.000 294.208 C 242.530 294.066,246.580 293.693,249.000 293.380 C 251.420 293.066,256.280 292.539,259.800 292.207 C 269.677 291.278,270.949 291.121,271.684 290.742 C 272.060 290.548,274.310 290.199,276.684 289.965 C 279.058 289.732,281.900 289.289,283.000 288.981 C 284.100 288.672,287.160 288.238,289.800 288.016 C 292.440 287.794,295.938 287.249,297.573 286.806 C 299.208 286.363,301.098 285.999,301.773 285.998 C 302.448 285.996,303.520 285.724,304.156 285.392 C 304.791 285.061,307.221 284.436,309.556 284.005 C 311.890 283.573,314.520 282.953,315.400 282.627 C 316.280 282.302,317.501 282.027,318.113 282.018 C 318.725 282.008,319.895 281.718,320.713 281.373 C 324.461 279.793,328.379 279.305,331.600 280.018 " stroke="none" fill="#faedc7" fill-rule="evenodd"></path><path id="path1" d="M0.000 200.000 L 0.000 400.000 200.000 400.000 L 400.000 400.000 400.000 200.000 L 400.000 0.000 200.000 0.000 L 0.000 0.000 0.000 200.000 M209.659 62.660 C 209.956 62.895,211.019 63.394,212.020 63.768 C 217.098 65.665,221.310 75.311,218.998 79.746 C 218.669 80.376,218.400 81.243,218.400 81.672 C 218.400 83.819,215.047 87.650,211.821 89.190 C 203.558 93.134,194.669 90.545,191.421 83.249 C 190.136 80.362,189.646 73.219,190.647 71.961 C 190.893 71.653,191.391 70.488,191.755 69.374 C 192.622 66.714,194.710 64.744,198.000 63.479 C 199.430 62.930,200.870 62.376,201.200 62.249 C 202.193 61.866,209.076 62.201,209.659 62.660 M244.800 77.608 C 251.520 80.889,252.673 88.451,247.254 93.700 L 244.880 96.000 240.631 96.000 L 236.382 96.000 234.532 94.300 C 227.774 88.088,230.037 78.914,238.888 76.649 C 241.145 76.072,241.909 76.196,244.800 77.608 M217.200 108.395 C 217.970 108.602,219.680 109.063,221.000 109.421 C 222.364 109.791,223.796 110.488,224.316 111.036 C 224.820 111.566,225.617 112.000,226.088 112.000 C 226.558 112.000,227.496 112.601,228.172 113.336 C 228.847 114.071,229.584 114.746,229.810 114.836 C 232.529 115.926,236.427 124.202,237.107 130.334 C 238.074 139.052,228.556 154.000,222.038 154.000 C 221.566 154.000,220.156 154.360,218.904 154.800 C 216.090 155.789,209.589 155.908,208.000 155.000 C 207.450 154.686,206.587 154.422,206.082 154.414 C 202.590 154.360,192.890 146.562,191.981 143.078 C 191.741 142.155,191.201 140.742,190.781 139.937 C 189.185 136.875,189.331 127.633,191.035 123.819 C 191.334 123.148,191.768 121.847,191.998 120.927 C 192.493 118.946,195.350 115.292,197.451 113.951 C 198.271 113.428,199.855 112.423,200.971 111.718 C 205.373 108.938,213.231 107.329,217.200 108.395 M282.293 113.762 C 285.391 114.076,287.961 114.541,288.493 114.883 C 288.992 115.205,290.248 115.679,291.285 115.936 C 297.383 117.449,309.973 129.751,310.002 134.226 C 310.004 134.432,310.299 135.140,310.658 135.800 C 311.016 136.460,311.659 138.170,312.085 139.600 C 312.512 141.030,313.143 143.100,313.488 144.200 C 314.574 147.663,314.462 167.035,313.338 170.200 C 312.869 171.520,312.279 173.586,312.027 174.792 C 311.619 176.745,310.182 180.355,309.158 182.000 C 308.952 182.330,308.496 183.230,308.145 184.000 C 306.945 186.629,303.838 191.798,302.818 192.862 C 302.258 193.446,300.810 195.036,299.600 196.396 C 298.390 197.755,296.971 199.257,296.446 199.734 C 295.922 200.210,294.662 201.376,293.646 202.325 C 292.631 203.273,291.031 204.508,290.091 205.068 C 289.151 205.628,288.200 206.427,287.978 206.842 C 287.542 207.656,286.801 208.073,278.949 211.927 C 276.117 213.316,273.134 214.801,272.321 215.227 C 271.507 215.652,270.515 216.000,270.115 216.000 C 269.715 216.000,268.739 216.348,267.946 216.773 C 267.153 217.198,265.406 217.745,264.064 217.988 C 262.722 218.232,261.014 218.686,260.269 218.997 C 259.092 219.489,255.846 219.907,243.535 221.155 C 238.639 221.651,225.879 220.226,219.400 218.460 C 213.100 216.743,208.783 215.368,207.400 214.638 C 206.740 214.290,205.895 214.004,205.521 214.002 C 205.148 214.001,203.996 213.550,202.962 213.000 C 201.927 212.450,200.742 212.000,200.328 212.000 C 199.915 212.000,198.507 211.550,197.200 211.000 C 195.893 210.450,194.483 210.000,194.066 210.000 C 193.649 210.000,192.869 209.655,192.333 209.233 C 191.796 208.811,190.647 208.351,189.779 208.210 C 188.268 207.966,184.644 206.745,180.800 205.184 C 179.810 204.782,178.460 204.345,177.800 204.212 C 176.158 203.882,168.876 201.624,167.400 200.987 C 166.740 200.702,165.030 200.248,163.600 199.978 C 162.170 199.708,160.550 199.245,160.000 198.948 C 159.450 198.651,157.200 198.027,155.000 197.561 C 146.618 195.785,144.496 195.279,143.752 194.881 C 143.330 194.656,141.458 194.258,139.592 193.997 C 137.727 193.737,135.169 193.267,133.908 192.953 C 126.499 191.109,94.887 191.263,90.588 193.164 C 89.656 193.577,88.107 194.045,87.146 194.204 C 86.186 194.364,84.932 194.734,84.360 195.026 C 83.789 195.319,82.439 195.775,81.360 196.041 C 80.282 196.307,78.011 197.306,76.314 198.262 C 74.617 199.218,72.943 200.000,72.596 200.000 C 72.248 200.000,71.551 200.413,71.046 200.917 C 70.542 201.422,69.401 202.053,68.512 202.319 C 67.623 202.586,66.672 203.073,66.398 203.402 C 66.125 203.731,65.676 204.000,65.399 204.000 C 64.972 204.000,58.707 208.835,56.213 211.089 C 55.780 211.480,54.790 212.308,54.013 212.928 C 53.236 213.548,50.260 216.289,47.400 219.019 C 36.195 229.714,36.444 229.510,34.529 229.572 C 32.434 229.639,31.569 224.856,32.962 220.908 C 33.271 220.032,33.657 218.074,33.819 216.557 C 33.980 215.041,34.538 212.671,35.056 211.291 C 35.575 209.911,36.000 208.448,36.000 208.039 C 36.000 205.598,41.215 196.005,45.670 190.249 C 48.152 187.044,56.313 178.831,59.034 176.800 C 60.066 176.030,61.853 174.651,63.005 173.737 C 66.775 170.742,77.962 164.812,81.439 163.964 C 82.518 163.702,83.850 163.247,84.400 162.954 C 86.879 161.635,90.826 160.334,93.316 160.017 C 94.810 159.827,96.258 159.484,96.533 159.255 C 96.809 159.027,99.007 158.484,101.417 158.049 C 103.828 157.615,106.323 157.059,106.962 156.816 C 107.601 156.572,110.571 156.185,113.562 155.955 C 116.553 155.725,119.720 155.350,120.600 155.122 C 123.530 154.363,144.460 154.245,151.498 154.948 C 154.964 155.294,159.870 155.687,162.400 155.820 C 166.792 156.051,175.408 157.035,175.945 157.366 C 176.085 157.452,177.984 157.736,180.165 157.996 C 182.346 158.256,184.596 158.646,185.165 158.863 C 185.734 159.079,188.450 159.585,191.200 159.987 C 196.357 160.741,199.614 161.429,204.800 162.862 C 206.450 163.318,208.790 163.922,210.000 164.206 C 211.210 164.489,212.920 165.001,213.800 165.343 C 214.680 165.685,215.757 165.973,216.193 165.982 C 217.179 166.004,222.658 167.770,225.600 169.014 C 226.810 169.526,228.340 170.075,229.000 170.235 C 229.660 170.396,230.560 170.753,231.000 171.031 C 231.440 171.308,232.610 171.744,233.600 172.000 C 234.590 172.256,235.760 172.695,236.200 172.976 C 238.527 174.462,245.713 175.788,251.400 175.781 C 265.406 175.763,278.548 167.633,280.353 157.869 C 280.589 156.595,280.880 155.394,281.001 155.198 C 282.088 153.439,280.462 143.053,278.527 139.400 C 276.813 136.165,272.531 131.307,269.865 129.575 L 267.441 128.000 262.009 128.000 C 255.897 128.000,256.303 127.853,252.000 131.621 C 247.286 135.748,245.616 135.076,247.398 129.769 C 248.837 125.482,250.867 122.735,255.247 119.152 C 257.005 117.713,260.279 116.001,261.278 115.999 C 261.565 115.998,262.423 115.617,263.185 115.153 C 265.874 113.514,274.003 112.922,282.293 113.762 M265.597 135.426 C 270.675 136.485,274.094 139.374,276.729 144.832 C 278.322 148.131,278.587 153.935,277.246 156.153 C 276.831 156.839,276.356 157.850,276.192 158.400 C 276.027 158.950,274.971 160.353,273.846 161.518 C 265.757 169.890,251.946 167.740,247.205 157.371 C 245.454 153.539,245.512 146.433,247.316 143.844 C 247.912 142.988,248.400 142.066,248.400 141.795 C 248.400 140.255,254.292 136.163,257.019 135.809 C 258.130 135.665,259.300 135.382,259.619 135.180 C 260.463 134.646,262.201 134.717,265.597 135.426 M333.600 200.823 C 335.030 201.030,337.640 201.397,339.400 201.638 C 341.160 201.880,343.230 202.341,344.000 202.663 C 344.770 202.985,346.621 203.506,348.112 203.821 C 349.604 204.136,351.314 204.729,351.912 205.138 C 352.511 205.546,353.990 206.537,355.200 207.339 C 359.872 210.435,361.383 214.557,360.027 220.508 C 359.401 223.261,352.263 232.000,350.642 232.000 C 350.349 232.000,349.439 232.533,348.620 233.184 C 347.800 233.835,346.756 234.487,346.300 234.632 C 344.645 235.157,346.773 235.694,351.600 235.969 C 354.781 236.150,356.597 236.436,357.245 236.857 C 357.770 237.199,358.920 237.712,359.800 237.997 C 360.680 238.283,361.894 238.927,362.498 239.430 C 363.102 239.933,363.924 240.449,364.326 240.576 C 364.727 240.704,365.370 241.391,365.755 242.104 C 366.140 242.817,366.802 244.030,367.227 244.800 C 369.703 249.291,366.608 257.470,360.000 263.897 C 356.895 266.917,346.603 273.091,342.800 274.215 C 342.250 274.377,341.372 274.845,340.848 275.254 C 340.324 275.663,339.194 276.186,338.336 276.417 C 336.917 276.799,336.524 277.600,337.755 277.600 C 338.034 277.600,339.354 278.044,340.688 278.586 C 342.022 279.128,344.413 279.842,346.001 280.173 C 347.589 280.504,349.101 280.952,349.361 281.167 C 349.620 281.383,350.725 281.752,351.816 281.988 C 354.825 282.638,358.359 284.332,360.737 286.264 C 361.912 287.219,363.020 288.000,363.198 288.000 C 364.098 288.000,365.983 292.464,366.349 295.464 C 367.391 303.985,363.736 309.402,352.600 315.843 C 349.288 317.759,345.129 319.637,342.860 320.241 C 341.683 320.554,340.338 321.078,339.871 321.405 C 339.404 321.732,338.747 322.001,338.411 322.002 C 338.075 322.004,337.260 322.292,336.600 322.642 C 334.353 323.834,328.563 325.610,320.400 327.609 C 318.530 328.067,316.100 328.701,315.000 329.017 C 313.900 329.334,311.830 329.787,310.400 330.024 C 308.970 330.261,306.630 330.789,305.200 331.198 C 303.770 331.606,301.340 332.052,299.800 332.188 C 298.260 332.325,296.010 332.677,294.800 332.971 C 293.590 333.265,290.710 333.725,288.400 333.994 C 286.090 334.262,282.760 334.746,281.000 335.068 C 279.240 335.390,274.830 335.813,271.200 336.009 C 267.570 336.204,262.260 336.683,259.400 337.073 C 251.614 338.136,191.317 338.154,180.800 337.096 C 176.950 336.709,170.380 336.217,166.200 336.002 C 162.020 335.788,156.260 335.251,153.400 334.809 C 150.540 334.367,147.570 334.004,146.800 334.002 C 146.030 333.999,143.553 333.639,141.296 333.201 C 139.039 332.763,135.619 332.299,133.696 332.171 C 131.773 332.043,128.220 331.514,125.800 330.994 C 123.380 330.475,120.230 329.878,118.800 329.667 C 115.802 329.226,110.558 328.194,106.800 327.305 C 105.370 326.967,102.490 326.370,100.400 325.979 C 98.310 325.588,96.060 325.086,95.400 324.862 C 94.740 324.639,92.130 323.785,89.600 322.965 C 87.070 322.145,84.640 321.246,84.200 320.967 C 83.760 320.688,82.694 320.330,81.832 320.172 C 80.246 319.882,76.306 317.996,75.199 316.998 C 74.869 316.700,74.149 316.259,73.599 316.018 C 73.050 315.777,71.970 315.140,71.200 314.602 C 70.430 314.064,69.210 313.214,68.489 312.712 C 62.345 308.438,58.941 301.354,59.783 294.599 C 60.434 289.382,65.071 285.550,73.124 283.575 C 75.757 282.930,76.965 282.439,77.255 281.897 C 77.749 280.973,78.108 281.259,73.945 279.255 C 72.045 278.339,70.268 277.323,69.996 276.995 C 69.724 276.668,69.315 276.400,69.086 276.400 C 65.481 276.400,56.800 265.980,56.800 261.653 C 56.800 257.908,62.216 250.883,65.800 249.979 C 66.460 249.812,67.900 249.319,69.000 248.883 C 71.653 247.831,75.950 246.768,79.400 246.311 C 80.940 246.107,83.370 245.683,84.800 245.369 C 86.230 245.055,88.120 244.796,89.000 244.794 C 90.942 244.788,95.431 243.499,95.320 242.978 C 95.277 242.771,94.619 242.474,93.859 242.316 C 93.099 242.158,91.805 241.572,90.983 241.014 C 90.161 240.456,89.316 240.000,89.104 240.000 C 88.635 240.000,84.664 237.606,81.351 235.325 C 76.647 232.087,68.960 224.028,68.180 221.516 C 68.023 221.012,67.581 220.150,67.198 219.600 C 65.715 217.474,65.104 211.150,66.143 208.687 C 66.876 206.951,71.441 202.445,72.749 202.168 C 73.327 202.045,74.610 201.642,75.600 201.272 C 79.577 199.787,88.636 200.868,92.024 203.232 C 92.588 203.625,93.540 204.070,94.140 204.221 C 94.854 204.400,95.496 205.011,95.993 205.986 C 96.412 206.807,97.199 207.769,97.742 208.125 C 98.286 208.481,98.845 209.296,98.986 209.936 C 99.466 212.124,103.303 214.631,108.242 215.986 C 109.963 216.458,111.558 216.999,111.786 217.187 C 112.014 217.375,112.920 217.650,113.800 217.799 C 114.680 217.947,116.390 218.395,117.600 218.794 C 118.810 219.193,121.240 219.741,123.000 220.013 C 124.760 220.284,126.740 220.822,127.400 221.207 C 128.060 221.592,129.609 222.028,130.841 222.175 C 132.074 222.322,133.964 222.708,135.041 223.033 C 136.119 223.358,139.079 223.793,141.620 224.001 C 144.161 224.209,147.014 224.652,147.960 224.986 C 148.906 225.320,151.777 225.800,154.340 226.053 C 156.903 226.306,159.453 226.741,160.007 227.019 C 160.561 227.297,163.762 227.736,167.120 227.994 C 170.478 228.252,173.805 228.649,174.513 228.876 C 175.221 229.103,179.400 229.621,183.800 230.027 C 188.200 230.433,193.060 230.955,194.600 231.186 C 196.140 231.418,203.258 231.850,210.417 232.146 C 219.035 232.502,223.747 232.851,224.360 233.178 C 226.660 234.409,283.458 234.071,287.800 232.800 C 288.460 232.607,292.457 232.250,296.683 232.007 C 300.908 231.764,305.318 231.318,306.483 231.015 C 307.647 230.712,310.220 230.279,312.200 230.053 C 314.180 229.826,317.224 229.272,318.964 228.821 C 320.704 228.369,322.722 228.000,323.449 228.000 C 324.176 228.000,325.722 227.661,326.885 227.247 C 328.048 226.833,331.160 225.822,333.800 225.001 C 348.216 220.513,353.048 214.107,345.253 209.819 C 342.094 208.082,337.971 206.445,335.200 205.828 C 333.990 205.559,332.598 205.122,332.106 204.859 C 331.615 204.595,328.927 204.111,326.132 203.784 C 323.205 203.442,320.787 202.958,320.426 202.642 C 320.082 202.341,318.593 201.969,317.117 201.817 C 314.431 201.540,311.848 200.947,312.600 200.780 C 315.395 200.161,329.224 200.189,333.600 200.823 M330.800 241.165 C 328.182 242.240,322.613 244.000,321.830 244.000 C 321.459 244.000,320.401 244.342,319.478 244.761 C 318.555 245.179,316.360 245.738,314.600 246.003 C 312.840 246.267,310.933 246.725,310.363 247.020 C 309.792 247.315,308.352 247.677,307.163 247.824 C 305.973 247.972,303.764 248.426,302.254 248.833 C 300.744 249.241,298.086 249.769,296.348 250.007 C 294.610 250.245,292.443 250.703,291.533 251.024 C 290.623 251.345,287.863 251.784,285.400 252.000 C 282.937 252.216,280.179 252.655,279.270 252.975 C 278.362 253.296,275.770 253.753,273.510 253.992 C 271.249 254.231,267.939 254.691,266.153 255.016 C 264.368 255.340,259.238 255.785,254.753 256.003 C 250.269 256.222,244.710 256.664,242.400 256.986 C 238.034 257.596,225.756 258.191,208.594 258.627 C 194.536 258.983,163.479 257.819,159.600 256.790 C 158.830 256.586,154.780 256.239,150.600 256.019 C 146.420 255.799,141.996 255.355,140.768 255.032 C 139.540 254.709,137.560 254.330,136.368 254.188 C 135.176 254.046,132.400 253.513,130.200 253.003 C 128.000 252.493,125.030 251.882,123.600 251.645 C 122.170 251.408,119.650 250.854,118.000 250.414 C 116.350 249.974,114.527 249.611,113.949 249.607 C 113.371 249.603,112.686 249.344,112.426 249.031 C 112.166 248.718,111.199 248.341,110.277 248.191 C 109.355 248.042,107.790 247.561,106.800 247.122 C 104.345 246.034,98.109 246.053,95.547 247.156 C 94.586 247.570,92.676 248.028,91.302 248.174 C 89.928 248.320,88.175 248.702,87.407 249.023 C 86.640 249.344,85.064 249.804,83.906 250.047 C 82.748 250.289,81.239 250.828,80.553 251.244 C 79.867 251.660,79.076 252.000,78.795 252.000 C 78.231 252.000,71.310 255.415,70.477 256.104 C 68.708 257.566,68.721 260.274,70.507 262.478 C 71.457 263.651,79.262 267.732,81.512 268.233 C 82.110 268.366,83.500 268.806,84.600 269.211 C 86.930 270.068,90.872 271.078,94.000 271.618 C 95.210 271.826,97.370 272.273,98.800 272.609 C 100.230 272.946,103.560 273.488,106.200 273.813 C 108.840 274.138,111.810 274.573,112.800 274.778 C 116.130 275.469,117.777 275.673,123.200 276.065 C 126.170 276.280,130.310 276.608,132.400 276.794 C 146.395 278.038,185.643 278.296,193.200 277.194 C 194.630 276.985,201.380 276.539,208.200 276.201 C 215.020 275.864,221.860 275.323,223.400 275.000 C 224.940 274.678,228.720 274.227,231.800 274.000 C 234.880 273.772,238.660 273.326,240.200 273.009 C 241.740 272.692,245.250 272.237,248.000 271.999 C 250.750 271.760,253.900 271.318,255.000 271.015 C 256.100 270.713,258.710 270.260,260.800 270.008 C 262.890 269.757,265.590 269.270,266.800 268.927 C 268.010 268.584,270.260 268.159,271.800 267.982 C 273.340 267.805,275.770 267.305,277.200 266.870 C 278.630 266.435,280.970 265.890,282.400 265.659 C 285.309 265.189,288.916 264.324,292.800 263.166 C 294.230 262.739,296.390 262.191,297.600 261.946 C 298.810 261.702,300.250 261.276,300.800 261.000 C 301.350 260.723,302.430 260.367,303.200 260.209 C 303.970 260.051,305.590 259.511,306.800 259.009 C 311.369 257.113,314.663 256.012,316.505 255.764 C 317.552 255.623,318.812 255.194,319.305 254.810 C 319.797 254.426,322.477 253.024,325.259 251.694 L 330.318 249.275 332.059 245.653 C 333.017 243.661,334.115 241.922,334.500 241.789 C 334.885 241.655,335.200 241.288,335.200 240.973 C 335.200 240.162,333.010 240.258,330.800 241.165 M324.400 280.206 C 323.190 280.503,321.531 281.028,320.713 281.373 C 319.895 281.718,318.725 282.008,318.113 282.018 C 317.501 282.027,316.280 282.302,315.400 282.627 C 314.520 282.953,311.890 283.573,309.556 284.005 C 307.221 284.436,304.791 285.061,304.156 285.392 C 303.520 285.724,302.448 285.996,301.773 285.998 C 301.098 285.999,299.208 286.363,297.573 286.806 C 295.938 287.249,292.440 287.794,289.800 288.016 C 287.160 288.238,284.100 288.672,283.000 288.981 C 281.900 289.289,279.058 289.732,276.684 289.965 C 274.310 290.199,272.060 290.548,271.684 290.742 C 270.949 291.121,269.677 291.278,259.800 292.207 C 256.280 292.539,251.420 293.066,249.000 293.380 C 246.580 293.693,242.530 294.066,240.000 294.208 C 237.470 294.349,233.690 294.722,231.600 295.036 C 229.510 295.349,223.120 295.781,217.400 295.994 C 211.680 296.207,203.040 296.590,198.200 296.846 C 184.966 297.545,158.353 296.883,146.800 295.568 C 144.930 295.355,140.160 294.822,136.200 294.384 C 132.240 293.946,128.370 293.332,127.600 293.019 C 126.830 292.706,124.308 292.267,121.997 292.042 C 119.685 291.817,117.072 291.378,116.191 291.067 C 115.310 290.757,113.782 290.374,112.795 290.218 C 111.808 290.062,109.200 289.513,107.000 288.998 C 104.800 288.483,101.560 287.943,99.800 287.797 C 98.040 287.652,96.176 287.261,95.658 286.930 C 94.564 286.229,91.363 286.077,90.744 286.696 C 90.447 286.993,90.651 287.279,91.432 287.659 C 92.816 288.333,95.129 291.578,95.747 293.714 C 96.003 294.597,96.479 295.453,96.806 295.616 C 100.299 297.353,104.814 299.387,106.507 299.986 C 114.850 302.936,118.147 304.004,118.910 304.002 C 119.300 304.001,120.650 304.371,121.910 304.826 C 123.169 305.280,125.311 305.817,126.668 306.019 C 128.025 306.222,129.963 306.669,130.975 307.012 C 131.987 307.356,134.206 307.800,135.907 307.999 C 137.608 308.198,140.424 308.730,142.164 309.181 C 143.904 309.631,146.297 310.000,147.482 310.000 C 149.461 310.000,154.883 310.706,159.800 311.605 C 160.900 311.806,164.050 312.069,166.800 312.189 C 169.550 312.309,172.880 312.578,174.200 312.787 C 180.202 313.736,194.694 314.139,222.800 314.140 C 251.741 314.142,255.825 314.015,271.800 312.621 C 275.540 312.294,281.570 311.834,285.200 311.598 C 288.830 311.362,292.520 311.002,293.400 310.798 C 294.280 310.594,297.700 310.229,301.000 309.987 C 304.300 309.745,308.302 309.282,309.894 308.959 C 311.486 308.635,314.636 308.198,316.894 307.988 C 319.152 307.778,321.720 307.412,322.600 307.176 C 325.676 306.351,327.412 306.035,329.000 306.011 C 329.880 305.999,332.040 305.541,333.800 304.994 C 335.560 304.447,337.391 304.000,337.870 304.000 C 338.782 304.000,344.393 301.869,345.789 300.993 C 346.235 300.713,347.050 300.353,347.600 300.194 C 350.672 299.304,354.000 295.960,354.000 293.762 C 354.000 290.982,351.725 288.000,349.605 288.000 C 348.924 288.000,347.214 287.378,345.807 286.618 C 339.431 283.176,333.575 280.455,331.600 280.018 C 329.224 279.492,327.084 279.548,324.400 280.206 " stroke="none" fill="#f94c2c" fill-rule="evenodd"></path></g></svg>