<?xml version="1.0" encoding="UTF-8" standalone="no"?>
<!DOCTYPE svg PUBLIC "-//W3C//DTD SVG 1.1//EN" "http://www.w3.org/Graphics/SVG/1.1/DTD/svg11.dtd">
<!-- Created with Vectornator (http://vectornator.io/) -->
<svg height="18.0pt" stroke-miterlimit="10" style="fill-rule:nonzero;clip-rule:evenodd;stroke-linecap:round;stroke-linejoin:round;" version="1.1" viewBox="0 0 18 18" width="18.0pt" xml:space="preserve" xmlns="http://www.w3.org/2000/svg" xmlns:xlink="http://www.w3.org/1999/xlink">
<defs>
<path d="M8.93 17.19L18 11.35L16.99 10.17L8.93 15.33C8.93 15.33 8.93 17.19 8.93 17.19Z" id="Fill"/>
<path d="M8.93 0.81L8.93 14.26L16.4 9.54L8.93 0.81Z" id="Fill_2"/>
</defs>
<g id="Untitled">
<path d="M1 10.1875L0 11.3438L8.9375 17.1875C8.9375 17.1875 8.9375 15.3438 8.9375 15.3438L1 10.1875Z" fill="#000000" fill-rule="nonzero" opacity="1" stroke="none"/>
<g opacity="1">
<mask height="7.02" id="StrokeMask" maskUnits="userSpaceOnUse" width="9.07" x="8.93" y="10.17">
<rect fill="#000000" height="7.02" stroke="none" width="9.07" x="8.93" y="10.17"/>
<use fill="#ffffff" fill-rule="evenodd" stroke="none" xlink:href="#Fill"/>
</mask>
<use fill="none" mask="url(#StrokeMask)" stroke="#000000" stroke-linecap="butt" stroke-linejoin="round" stroke-width="0.4" xlink:href="#Fill"/>
</g>
<path d="M8.93 0.81L8.93 14.26L1.61 9.53L8.93 0.81Z" fill="#000000" fill-rule="nonzero" opacity="1" stroke="none"/>
<g opacity="1">
<mask height="13.45" id="StrokeMask_2" maskUnits="userSpaceOnUse" width="7.47" x="8.93" y="0.81">
<rect fill="#000000" height="13.45" stroke="none" width="7.47" x="8.93" y="0.81"/>
<use fill="#ffffff" fill-rule="evenodd" stroke="none" xlink:href="#Fill_2"/>
</mask>
<use fill="none" mask="url(#StrokeMask_2)" stroke="#000000" stroke-linecap="butt" stroke-linejoin="round" stroke-width="0.4" xlink:href="#Fill_2"/>
</g>
</g>
</svg>
