<svg id="svg" xmlns="http://www.w3.org/2000/svg" xmlns:xlink="http://www.w3.org/1999/xlink" width="400" height="382.803738317757" viewBox="0, 0, 400,382.803738317757" version="1.1"><g id="svgg"><path id="path0" d="M291.507 0.287 C 291.229 0.913,268.984 22.285,267.029 23.804 C 264.894 25.464,262.057 28.122,250.939 38.883 C 247.452 42.258,242.618 46.916,240.197 49.234 C 232.438 56.663,216.087 72.425,209.963 78.381 C 204.004 84.174,193.216 94.465,179.298 107.631 C 166.952 119.311,165.482 120.706,161.494 124.516 C 157.525 128.309,146.643 138.559,141.964 142.912 C 140.492 144.282,139.020 145.661,138.694 145.977 C 137.549 147.088,131.546 152.739,125.671 158.238 C 95.666 186.321,90.616 191.390,86.260 197.794 C 84.292 200.688,81.096 207.217,80.117 210.345 C 78.623 215.117,78.544 215.411,78.544 216.216 C 78.544 216.644,76.845 219.506,74.769 222.577 C 67.794 232.894,63.674 240.825,60.778 249.507 C 54.476 268.399,56.429 286.358,66.276 300.086 C 68.537 303.238,69.998 304.782,73.876 308.115 L 75.517 309.524 73.295 311.043 C 70.896 312.683,67.873 315.748,52.072 332.567 C 43.314 341.890,41.762 344.743,41.762 351.533 C 41.762 359.698,42.776 361.117,60.590 377.879 L 66.194 383.152 79.456 383.051 L 92.719 382.950 76.448 367.625 C 67.499 359.195,60.171 352.154,60.165 351.977 C 60.159 351.800,61.662 350.074,63.506 348.142 C 66.387 345.123,74.832 336.192,81.458 329.157 L 83.413 327.081 87.588 331.043 C 95.648 338.694,98.690 341.577,102.117 344.816 C 106.581 349.036,111.945 354.114,116.284 358.229 C 118.180 360.027,122.749 364.343,126.437 367.818 C 136.948 377.725,139.512 380.163,141.048 381.710 L 142.479 383.152 155.243 383.051 L 168.008 382.950 166.284 381.955 C 164.914 381.164,152.410 373.902,146.552 370.495 C 145.920 370.128,143.333 368.625,140.805 367.157 C 129.045 360.328,127.329 359.253,125.508 357.575 C 124.438 356.589,120.463 352.843,116.673 349.251 C 112.883 345.659,108.291 341.341,106.468 339.655 C 104.644 337.969,103.134 336.331,103.111 336.015 C 103.060 335.319,113.648 324.138,114.358 324.138 C 114.780 324.138,117.465 325.643,130.077 332.952 C 130.709 333.318,132.778 334.524,134.674 335.632 C 136.571 336.740,138.640 337.946,139.272 338.313 C 139.904 338.680,143.611 340.836,147.510 343.103 C 151.408 345.371,155.158 347.549,155.843 347.943 C 159.035 349.779,159.797 350.221,163.027 352.107 C 164.923 353.215,166.992 354.422,167.625 354.789 C 168.602 355.356,180.550 362.305,184.100 364.370 C 184.732 364.738,187.404 366.289,190.038 367.816 C 192.672 369.343,195.345 370.896,195.977 371.266 C 199.103 373.096,211.469 380.273,212.644 380.939 C 213.381 381.357,214.442 382.024,215.002 382.420 C 216.116 383.211,243.533 383.584,242.701 382.798 C 242.311 382.429,233.450 377.230,217.816 368.199 C 211.844 364.749,203.407 359.843,198.851 357.170 C 195.795 355.377,192.735 353.591,192.050 353.200 C 189.593 351.800,188.226 351.010,182.184 347.501 C 178.812 345.543,173.554 342.477,170.498 340.688 C 167.443 338.899,164.382 337.116,163.697 336.725 C 161.841 335.667,160.731 335.025,151.533 329.691 C 146.897 327.003,142.586 324.506,141.954 324.141 C 141.322 323.777,139.856 322.913,138.697 322.222 C 137.538 321.531,136.030 320.645,135.345 320.253 C 126.656 315.279,124.330 313.851,124.330 313.489 C 124.330 312.990,126.768 310.291,135.632 300.983 C 138.896 297.556,138.915 297.564,132.759 299.780 C 113.559 306.692,97.763 304.524,84.751 293.192 C 75.070 284.760,72.795 266.438,79.672 252.299 C 79.877 251.877,80.637 250.223,81.361 248.623 C 82.498 246.111,83.449 244.323,86.234 239.467 C 87.413 237.412,93.622 228.723,95.487 226.519 C 96.373 225.472,96.552 224.903,96.552 223.126 C 96.552 212.851,100.742 207.645,134.106 176.464 C 135.894 174.794,138.649 172.207,140.230 170.717 C 141.810 169.226,145.773 165.507,149.036 162.452 C 156.779 155.202,177.943 135.217,187.554 126.081 C 192.923 120.976,197.308 116.823,204.780 109.764 C 208.567 106.185,214.601 100.412,218.188 96.935 C 221.775 93.458,226.864 88.544,229.498 86.015 C 232.131 83.487,236.873 78.906,240.035 75.836 C 246.851 69.221,253.921 62.414,256.322 60.157 C 257.270 59.265,260.462 56.184,263.415 53.310 C 271.616 45.328,273.959 43.180,274.200 43.421 C 274.321 43.542,274.185 43.880,273.896 44.172 C 273.608 44.463,270.785 47.773,267.625 51.526 C 264.464 55.280,259.745 60.869,257.139 63.946 C 254.532 67.023,250.739 71.523,248.710 73.946 C 246.681 76.370,244.566 78.870,244.011 79.502 C 243.130 80.505,236.805 87.986,232.047 93.652 C 231.174 94.692,228.391 97.981,225.862 100.962 C 223.333 103.942,220.551 107.230,219.680 108.267 C 217.180 111.243,203.081 127.931,196.552 135.643 C 193.285 139.501,189.492 143.989,188.123 145.617 C 186.753 147.245,184.339 150.102,182.759 151.967 C 181.178 153.831,177.920 157.686,175.519 160.533 C 173.118 163.380,170.420 166.571,169.524 167.625 C 168.627 168.678,165.188 172.730,161.880 176.628 C 158.571 180.527,155.494 184.148,155.040 184.675 C 154.586 185.202,153.266 186.748,152.107 188.112 C 150.948 189.476,148.966 191.806,147.701 193.291 C 146.437 194.776,144.540 197.011,143.487 198.259 C 140.248 202.093,136.621 206.312,136.390 206.513 C 136.269 206.619,133.312 209.981,129.818 213.985 C 123.735 220.956,122.013 222.664,118.017 225.688 C 115.396 227.673,110.949 229.758,107.504 230.619 C 105.846 231.034,104.368 231.512,104.220 231.682 C 91.458 246.361,84.228 264.135,86.262 275.831 C 88.830 290.594,108.160 297.541,127.969 290.819 C 139.274 286.983,155.704 277.104,166.337 267.748 C 166.893 267.259,168.851 265.582,170.688 264.022 C 172.526 262.462,174.340 260.674,174.720 260.049 C 175.878 258.145,191.007 242.146,191.650 242.146 C 191.836 242.146,195.903 244.410,200.688 247.177 C 211.239 253.279,210.873 253.066,215.134 255.556 C 217.031 256.663,219.100 257.870,219.732 258.237 C 220.364 258.604,224.071 260.759,227.969 263.027 C 235.036 267.137,236.350 267.898,238.889 269.349 C 239.626 269.770,240.790 270.436,241.475 270.828 C 242.160 271.221,247.375 274.262,253.065 277.588 C 258.755 280.913,263.970 283.955,264.655 284.346 C 265.340 284.737,266.504 285.402,267.241 285.824 C 267.979 286.245,269.143 286.909,269.828 287.299 C 270.512 287.690,274.607 290.075,278.927 292.601 C 283.247 295.126,288.506 298.191,290.613 299.412 C 292.720 300.632,294.962 301.931,295.594 302.298 C 296.226 302.664,300.536 305.164,305.172 307.852 C 309.808 310.540,314.119 313.044,314.751 313.415 C 315.383 313.786,317.323 314.904,319.061 315.898 C 322.940 318.117,323.156 317.252,317.146 323.581 C 314.354 326.521,310.776 330.331,309.195 332.046 C 307.615 333.761,306.027 335.279,305.667 335.419 C 304.897 335.719,306.357 336.515,286.398 324.902 C 285.766 324.534,283.094 322.983,280.460 321.456 C 277.826 319.929,275.153 318.378,274.521 318.010 C 273.889 317.642,270.182 315.486,266.284 313.218 C 262.385 310.951,258.678 308.795,258.046 308.427 C 257.414 308.059,254.741 306.508,252.107 304.981 C 249.473 303.453,246.801 301.903,246.169 301.535 C 237.806 296.669,230.597 292.479,229.598 291.904 C 226.406 290.068,225.644 289.626,222.414 287.739 C 220.517 286.632,218.448 285.425,217.816 285.058 C 217.184 284.691,213.477 282.536,209.579 280.268 C 202.789 276.319,201.547 275.600,198.755 273.999 C 198.070 273.606,196.389 272.618,195.019 271.804 C 187.559 267.369,184.701 265.838,184.127 265.968 C 183.458 266.120,177.011 271.961,177.011 272.416 C 177.011 272.781,183.382 276.591,199.425 285.821 C 200.057 286.185,204.368 288.690,209.004 291.389 C 220.126 297.863,227.534 302.160,230.364 303.777 C 231.049 304.168,236.264 307.209,241.954 310.535 C 247.644 313.860,252.859 316.902,253.544 317.294 C 254.229 317.687,255.393 318.352,256.130 318.774 C 258.670 320.225,259.983 320.985,267.050 325.096 C 270.948 327.363,274.655 329.517,275.287 329.881 C 275.920 330.246,277.385 331.110,278.544 331.801 C 279.703 332.492,281.169 333.354,281.801 333.716 C 282.433 334.078,283.664 334.787,284.535 335.291 C 285.407 335.795,288.814 337.759,292.106 339.655 C 295.398 341.552,298.047 343.307,297.992 343.555 C 297.905 343.950,294.211 347.936,284.075 358.568 L 281.368 361.408 277.561 359.199 C 272.109 356.035,271.818 355.865,268.008 353.640 C 264.778 351.753,264.016 351.312,260.824 349.475 C 260.139 349.081,256.389 346.904,252.490 344.636 C 248.592 342.368,244.885 340.213,244.253 339.846 C 243.621 339.479,241.552 338.272,239.655 337.165 C 237.759 336.057,235.647 334.828,234.962 334.434 C 232.802 333.190,231.407 332.381,224.138 328.156 C 220.239 325.890,216.512 323.730,215.856 323.356 C 215.199 322.982,213.500 321.970,212.081 321.108 C 210.661 320.246,209.429 319.540,209.341 319.540 C 209.254 319.540,207.935 318.788,206.411 317.868 C 204.887 316.948,200.278 314.253,196.169 311.878 C 187.955 307.131,188.328 307.347,181.801 303.551 C 171.814 297.743,160.280 291.050,159.075 290.364 C 158.377 289.966,157.394 289.371,156.891 289.042 C 155.759 288.300,154.895 288.545,152.107 290.396 C 150.948 291.166,148.919 292.360,147.598 293.050 C 141.484 296.245,141.637 296.024,144.444 297.611 C 145.182 298.028,147.337 299.275,149.234 300.383 C 152.464 302.270,153.226 302.711,156.418 304.548 C 157.102 304.942,160.852 307.119,164.751 309.387 C 168.649 311.655,172.356 313.810,172.989 314.177 C 173.621 314.544,175.690 315.750,177.586 316.858 C 180.816 318.745,181.578 319.187,184.770 321.023 C 185.769 321.598,192.979 325.788,201.341 330.654 C 201.973 331.022,204.646 332.572,207.280 334.100 C 209.914 335.627,212.586 337.178,213.218 337.546 C 213.851 337.913,217.557 340.070,221.456 342.337 C 225.354 344.605,229.061 346.761,229.693 347.129 C 234.809 350.106,241.329 353.895,248.467 358.041 C 253.103 360.733,257.414 363.237,258.046 363.604 C 258.678 363.972,261.264 365.474,263.793 366.943 C 272.848 372.201,272.527 370.848,266.284 377.435 C 263.649 380.215,261.437 382.636,261.367 382.815 C 261.296 382.995,267.124 383.142,274.317 383.142 L 287.395 383.142 289.383 380.939 C 290.477 379.727,292.756 377.270,294.448 375.479 C 296.141 373.688,298.470 371.188,299.625 369.923 C 300.780 368.659,304.083 365.125,306.966 362.069 C 309.849 359.013,313.064 355.381,314.109 353.998 C 315.155 352.614,316.454 351.192,316.995 350.837 C 317.917 350.233,319.934 348.190,328.582 339.104 C 335.485 331.849,336.985 330.148,338.595 327.749 C 339.494 326.408,340.230 325.134,340.230 324.916 C 340.230 324.299,340.796 324.448,341.800 325.330 C 349.299 331.916,358.990 332.722,366.475 327.380 C 368.283 326.090,386.735 307.094,392.475 300.613 C 400.168 291.928,399.295 280.066,390.360 271.881 C 389.235 270.850,386.762 268.522,384.866 266.708 C 382.969 264.893,378.400 260.566,374.713 257.092 C 364.996 247.938,361.925 245.036,358.051 241.348 C 356.152 239.540,351.236 234.899,347.126 231.034 C 343.017 227.170,338.103 222.534,336.207 220.732 C 334.310 218.930,331.203 215.985,329.301 214.188 C 327.399 212.390,324.293 209.454,322.397 207.663 C 320.502 205.872,317.403 202.939,315.510 201.145 C 313.618 199.352,309.180 195.147,305.649 191.801 C 302.119 188.456,298.909 185.441,298.518 185.101 C 297.805 184.481,287.882 175.103,281.418 168.939 C 279.521 167.130,276.511 164.284,274.728 162.615 C 272.945 160.945,269.669 157.849,267.448 155.735 C 262.401 150.931,257.576 146.379,256.322 145.239 C 247.355 137.088,235.732 137.863,227.011 147.193 C 222.672 151.835,212.652 162.466,209.921 165.326 C 199.228 176.521,197.528 184.387,203.742 193.924 C 205.763 197.026,205.809 196.651,203.011 199.823 C 201.716 201.290,199.669 203.611,198.461 204.981 C 197.252 206.351,195.510 208.349,194.588 209.421 C 186.492 218.840,178.964 227.213,169.125 237.739 C 166.170 240.900,163.072 244.262,162.240 245.211 C 154.094 254.497,135.576 267.542,125.287 271.243 C 124.550 271.508,123.602 271.876,123.180 272.060 C 115.574 275.391,105.708 274.237,105.437 269.986 C 105.072 264.258,113.598 248.607,118.008 246.910 C 126.292 243.722,135.306 237.047,141.771 229.310 C 142.300 228.678,145.591 224.885,149.085 220.881 C 152.580 216.877,158.587 209.895,162.434 205.364 C 166.282 200.833,169.943 196.523,170.569 195.785 C 171.196 195.048,173.376 192.475,175.414 190.069 C 177.451 187.662,180.819 183.697,182.898 181.257 C 187.572 175.769,188.739 174.393,194.617 167.433 C 197.198 164.377,199.767 161.337,200.325 160.677 C 200.884 160.017,205.307 154.774,210.153 149.026 C 215.000 143.277,221.034 136.133,223.563 133.150 C 226.092 130.167,228.876 126.876,229.751 125.836 C 232.930 122.056,240.767 112.788,242.363 110.920 C 243.263 109.866,245.091 107.697,246.425 106.100 C 251.180 100.406,260.821 89.025,266.667 82.205 C 269.933 78.394,273.898 73.727,275.478 71.833 C 277.058 69.940,278.442 68.305,278.553 68.199 C 278.665 68.094,279.630 66.973,280.699 65.709 C 281.767 64.444,284.414 61.341,286.580 58.812 C 291.533 53.031,291.779 52.740,293.864 50.188 C 294.810 49.031,295.680 47.998,295.799 47.893 C 295.918 47.787,302.120 40.546,309.582 31.801 C 317.045 23.056,323.329 15.707,323.548 15.471 C 325.055 13.846,336.232 0.624,336.335 0.347 C 336.489 -0.073,291.693 -0.132,291.507 0.287 M244.596 161.184 C 245.672 162.173,249.741 165.998,253.640 169.684 C 257.538 173.371,262.193 177.766,263.985 179.450 C 265.776 181.135,268.884 184.077,270.892 185.988 C 272.900 187.900,277.469 192.220,281.045 195.590 C 287.022 201.220,293.565 207.412,295.018 208.812 C 295.791 209.556,300.443 213.950,308.812 221.837 C 314.650 227.339,321.502 233.833,323.369 235.632 C 323.697 235.948,325.341 237.502,327.021 239.085 C 332.703 244.436,343.849 254.962,347.318 258.251 C 349.215 260.050,352.229 262.895,354.018 264.573 C 355.806 266.251,359.082 269.357,361.297 271.474 C 363.513 273.591,368.214 278.052,371.743 281.387 C 375.273 284.723,378.161 287.604,378.161 287.791 C 378.161 287.979,376.566 289.825,374.617 291.894 C 372.668 293.963,367.553 299.392,363.251 303.959 C 358.949 308.525,355.270 312.261,355.075 312.261 C 354.880 312.261,353.205 310.838,351.353 309.100 C 343.620 301.841,335.196 293.885,331.607 290.451 C 329.498 288.433,326.308 285.408,324.518 283.729 C 322.729 282.050,319.449 278.946,317.230 276.832 C 310.698 270.610,301.096 261.544,300.330 260.876 C 299.940 260.536,296.751 257.519,293.244 254.171 C 289.737 250.823,286.548 247.806,286.156 247.466 C 285.765 247.127,282.556 244.111,279.025 240.766 C 275.494 237.420,271.057 233.216,269.164 231.422 C 267.271 229.628,264.172 226.695,262.277 224.904 C 260.382 223.113,257.275 220.177,255.373 218.380 C 253.472 216.582,250.364 213.636,248.467 211.833 C 246.571 210.030,240.192 204.004,234.291 198.443 C 228.391 192.881,222.572 187.392,221.360 186.245 C 220.148 185.098,219.157 183.994,219.157 183.793 C 219.157 183.266,223.872 178.139,237.193 164.176 C 239.003 162.280,240.728 160.433,241.027 160.072 C 241.871 159.054,242.488 159.246,244.596 161.184 M121.566 200.715 C 118.035 201.935,113.117 205.835,109.664 210.153 C 108.056 212.164,108.109 212.445,110.098 212.488 C 113.796 212.566,116.081 216.390,114.380 219.653 L 113.821 220.723 115.272 219.908 C 116.070 219.459,117.744 218.088,118.993 216.861 C 128.658 207.366,130.192 197.735,121.566 200.715 M229.693 205.617 C 230.747 206.597,232.989 208.709,234.674 210.311 C 236.360 211.914,240.843 216.154,244.636 219.733 C 248.429 223.313,252.998 227.634,254.789 229.334 C 256.580 231.035,259.683 233.967,261.683 235.849 C 263.683 237.732,267.045 240.922,269.154 242.938 C 271.263 244.954,279.195 252.446,286.782 259.587 C 294.368 266.729,302.122 274.045,304.014 275.845 C 311.387 282.864,314.490 285.805,317.607 288.726 C 319.388 290.396,322.491 293.331,324.503 295.249 C 326.515 297.167,329.626 300.132,331.418 301.839 L 334.674 304.942 333.261 306.369 C 332.195 307.444,331.724 307.695,331.345 307.387 C 331.069 307.162,330.239 306.637,329.502 306.220 C 328.764 305.803,326.609 304.556,324.713 303.448 C 322.816 302.341,320.747 301.134,320.115 300.767 C 319.483 300.400,315.776 298.245,311.877 295.977 C 307.979 293.709,304.229 291.532,303.544 291.138 C 299.948 289.069,294.353 285.819,283.525 279.509 C 279.626 277.238,275.876 275.057,275.192 274.663 C 271.596 272.594,266.000 269.344,255.172 263.034 C 248.390 259.082,247.156 258.366,244.349 256.758 C 243.664 256.365,237.845 252.979,231.418 249.234 C 224.990 245.488,219.171 242.102,218.487 241.710 C 215.383 239.931,214.391 239.358,208.621 236.010 C 205.249 234.054,202.201 232.256,201.848 232.015 C 201.273 231.623,201.373 231.394,202.784 229.868 C 205.692 226.722,210.086 222.063,213.789 218.199 C 215.808 216.092,219.678 211.997,222.388 209.100 C 228.105 202.987,227.285 203.378,229.693 205.617 " stroke="none" fill="#fafafa" fill-rule="evenodd"></path><path id="path1" d="M0.000 191.571 L 0.000 383.142 33.046 383.135 L 66.092 383.129 63.405 380.549 C 61.927 379.130,57.475 374.882,53.512 371.108 C 43.345 361.427,41.762 358.791,41.762 351.533 C 41.762 344.743,43.314 341.890,52.072 332.567 C 67.873 315.748,70.896 312.683,73.295 311.043 L 75.517 309.524 73.876 308.115 C 69.998 304.782,68.537 303.238,66.276 300.086 C 57.643 288.052,55.046 272.533,58.887 255.939 C 60.522 248.872,64.133 240.101,68.623 232.286 C 69.927 230.017,72.693 225.648,74.769 222.577 C 76.845 219.506,78.544 216.644,78.544 216.216 C 78.544 215.789,78.696 214.940,78.881 214.329 C 83.241 199.941,86.275 195.663,104.406 178.332 C 113.002 170.115,115.234 168.006,125.671 158.238 C 131.546 152.739,137.549 147.088,138.694 145.977 C 139.020 145.661,140.492 144.282,141.964 142.912 C 146.643 138.559,157.525 128.309,161.494 124.516 C 165.482 120.706,166.952 119.311,179.298 107.631 C 193.216 94.465,204.004 84.174,209.963 78.381 C 216.087 72.425,232.438 56.663,240.197 49.234 C 242.618 46.916,247.452 42.258,250.939 38.883 C 262.043 28.136,264.893 25.465,267.008 23.821 C 269.243 22.085,291.461 0.761,291.529 0.287 C 291.552 0.129,225.967 0.000,145.785 0.000 L 0.000 0.000 0.000 191.571 M335.967 0.874 C 335.471 1.551,328.438 9.815,323.993 14.943 C 323.536 15.469,317.054 23.056,309.589 31.801 C 302.123 40.546,295.918 47.787,295.799 47.893 C 295.680 47.998,294.810 49.031,293.864 50.188 C 291.779 52.740,291.533 53.031,286.580 58.812 C 284.414 61.341,281.767 64.444,280.699 65.709 C 279.630 66.973,278.665 68.094,278.553 68.199 C 278.442 68.305,277.058 69.940,275.478 71.833 C 273.898 73.727,269.933 78.394,266.667 82.205 C 260.821 89.025,251.180 100.406,246.425 106.100 C 245.091 107.697,243.263 109.866,242.363 110.920 C 240.767 112.788,232.930 122.056,229.751 125.836 C 228.876 126.876,226.092 130.167,223.563 133.150 C 221.034 136.133,215.000 143.277,210.153 149.026 C 205.307 154.774,200.884 160.017,200.325 160.677 C 199.767 161.337,197.198 164.377,194.617 167.433 C 188.739 174.393,187.572 175.769,182.898 181.257 C 180.819 183.697,177.451 187.662,175.414 190.069 C 173.376 192.475,171.196 195.048,170.569 195.785 C 169.943 196.523,166.282 200.833,162.434 205.364 C 158.587 209.895,152.580 216.877,149.085 220.881 C 145.591 224.885,142.300 228.678,141.771 229.310 C 135.306 237.047,126.292 243.722,118.008 246.910 C 113.598 248.607,105.072 264.258,105.437 269.986 C 105.708 274.237,115.574 275.391,123.180 272.060 C 123.602 271.876,124.550 271.508,125.287 271.243 C 135.576 267.542,154.094 254.497,162.240 245.211 C 163.072 244.262,166.170 240.900,169.125 237.739 C 174.366 232.131,176.946 229.340,180.466 225.467 C 182.412 223.326,192.020 212.409,194.588 209.421 C 195.510 208.349,197.252 206.351,198.461 204.981 C 199.669 203.611,201.716 201.290,203.011 199.823 C 205.809 196.651,205.763 197.026,203.742 193.924 C 197.528 184.387,199.228 176.521,209.921 165.326 C 212.652 162.466,222.672 151.835,227.011 147.193 C 235.732 137.863,247.355 137.088,256.322 145.239 C 257.576 146.379,262.401 150.931,267.448 155.735 C 269.669 157.849,272.945 160.945,274.728 162.615 C 276.511 164.284,279.521 167.130,281.418 168.939 C 287.882 175.103,297.805 184.481,298.518 185.101 C 298.909 185.441,302.119 188.456,305.649 191.801 C 309.180 195.147,313.618 199.352,315.510 201.145 C 317.403 202.939,320.502 205.872,322.397 207.663 C 324.293 209.454,327.399 212.390,329.301 214.188 C 331.203 215.985,334.310 218.930,336.207 220.732 C 338.103 222.534,343.017 227.170,347.126 231.034 C 351.236 234.899,356.152 239.540,358.051 241.348 C 361.925 245.036,364.996 247.938,374.713 257.092 C 378.400 260.566,382.969 264.893,384.866 266.708 C 386.762 268.522,389.235 270.850,390.360 271.881 C 399.295 280.066,400.168 291.928,392.475 300.613 C 386.735 307.094,368.283 326.090,366.475 327.380 C 358.990 332.722,349.299 331.916,341.800 325.330 C 340.796 324.448,340.230 324.299,340.230 324.916 C 340.230 325.134,339.494 326.408,338.595 327.749 C 336.985 330.148,335.485 331.849,328.582 339.104 C 319.934 348.190,317.917 350.233,316.995 350.837 C 316.454 351.192,315.155 352.614,314.109 353.998 C 313.064 355.381,309.849 359.013,306.966 362.069 C 304.083 365.125,300.780 368.659,299.625 369.923 C 298.470 371.188,296.143 373.690,294.452 375.483 C 289.498 380.740,287.739 382.689,287.739 382.923 C 287.739 383.043,312.998 383.142,343.870 383.142 L 400.000 383.142 400.000 191.571 L 400.000 0.000 368.295 0.012 L 336.590 0.024 335.967 0.874 M273.160 44.000 C 272.490 44.543,272.405 44.777,272.794 45.017 C 273.139 45.230,273.207 45.181,273.009 44.861 C 272.825 44.563,273.012 44.316,273.525 44.182 C 273.967 44.067,274.330 43.820,274.330 43.633 C 274.330 43.147,274.140 43.207,273.160 44.000 M244.995 70.977 L 243.870 72.222 245.115 71.097 C 245.800 70.478,246.360 69.918,246.360 69.852 C 246.360 69.556,246.044 69.816,244.995 70.977 M232.546 83.046 L 231.226 84.483 232.663 83.162 C 234.000 81.933,234.276 81.609,233.983 81.609 C 233.919 81.609,233.273 82.256,232.546 83.046 M223.539 91.667 L 222.414 92.912 223.659 91.787 C 224.344 91.168,224.904 90.607,224.904 90.541 C 224.904 90.245,224.588 90.506,223.539 91.667 M235.249 199.354 C 235.249 199.420,235.809 199.980,236.494 200.599 L 237.739 201.724 236.614 200.479 C 235.565 199.318,235.249 199.058,235.249 199.354 M210.512 221.552 L 209.387 222.797 210.632 221.672 C 211.317 221.053,211.877 220.492,211.877 220.426 C 211.877 220.130,211.561 220.391,210.512 221.552 M357.471 267.936 C 357.471 268.002,358.032 268.562,358.716 269.181 L 359.962 270.307 358.836 269.061 C 357.787 267.901,357.471 267.640,357.471 267.936 M75.605 271.839 C 75.606 273.314,75.676 273.871,75.759 273.076 C 75.841 272.281,75.840 271.074,75.755 270.394 C 75.671 269.714,75.603 270.364,75.605 271.839 M301.149 273.300 C 301.149 273.366,301.710 273.926,302.395 274.545 L 303.640 275.670 302.515 274.425 C 301.466 273.265,301.149 273.004,301.149 273.300 M333.716 292.457 C 333.716 292.523,334.277 293.083,334.962 293.702 L 336.207 294.828 335.082 293.582 C 334.033 292.422,333.716 292.161,333.716 292.457 M347.510 305.484 C 347.510 305.550,348.070 306.110,348.755 306.729 L 350.000 307.854 348.875 306.609 C 347.826 305.448,347.510 305.188,347.510 305.484 M91.188 334.603 C 91.188 334.669,91.748 335.229,92.433 335.848 L 93.678 336.973 92.553 335.728 C 91.504 334.567,91.188 334.307,91.188 334.603 M60.153 351.977 C 60.153 352.186,60.627 352.775,61.207 353.286 L 62.261 354.215 61.303 353.065 C 60.776 352.433,60.302 351.844,60.249 351.756 C 60.196 351.668,60.153 351.768,60.153 351.977 " stroke="none" fill="#fc241c" fill-rule="evenodd"></path><path id="path2" d="M269.479 47.566 C 267.417 49.537,263.139 53.657,259.972 56.723 C 256.806 59.788,251.976 64.443,249.241 67.067 C 246.505 69.692,241.505 74.515,238.130 77.785 C 234.754 81.055,229.923 85.721,227.395 88.153 C 224.866 90.586,220.125 95.156,216.858 98.311 C 213.592 101.465,209.287 105.592,207.291 107.483 C 205.295 109.373,203.394 111.178,203.065 111.494 C 201.840 112.673,195.377 118.790,188.697 125.092 C 184.904 128.671,180.249 133.072,178.352 134.872 C 176.456 136.672,173.270 139.692,171.272 141.582 C 169.274 143.473,165.912 146.659,163.801 148.663 C 161.689 150.667,158.495 153.684,156.701 155.368 C 154.908 157.052,151.885 159.895,149.984 161.686 C 148.082 163.477,144.131 167.184,141.203 169.923 C 138.275 172.663,135.512 175.249,135.064 175.670 C 134.615 176.092,133.049 177.557,131.583 178.927 C 114.100 195.262,104.496 204.791,102.428 207.854 C 98.602 213.521,96.595 218.810,96.565 223.306 C 96.553 225.216,96.408 225.525,94.323 228.095 C 90.279 233.080,84.176 242.640,81.928 247.510 C 79.910 251.881,79.237 253.525,78.519 255.844 C 78.079 257.266,77.575 258.860,77.400 259.387 C 75.536 265.000,75.523 276.975,77.377 281.801 C 80.852 290.848,90.146 299.349,98.962 301.543 C 99.638 301.712,101.140 302.102,102.299 302.411 C 112.178 305.045,123.690 303.573,137.644 297.892 C 139.029 297.328,138.101 298.471,131.261 305.747 C 123.368 314.145,123.649 313.491,127.113 315.425 C 128.532 316.217,130.383 317.274,131.226 317.772 C 132.069 318.271,134.828 319.883,137.356 321.353 C 144.402 325.450,158.672 333.736,159.962 334.479 C 160.594 334.843,164.904 337.349,169.540 340.048 C 176.787 344.267,184.127 348.529,188.314 350.952 C 188.946 351.317,193.257 353.824,197.893 356.523 C 202.529 359.222,208.391 362.629,210.920 364.096 C 216.214 367.166,215.630 366.827,224.904 372.217 C 228.803 374.483,232.510 376.640,233.142 377.011 C 233.774 377.381,236.188 378.774,238.506 380.106 C 240.824 381.438,242.778 382.666,242.848 382.835 C 242.918 383.004,246.985 383.142,251.886 383.142 L 260.796 383.142 265.934 377.725 C 272.219 371.099,272.007 371.635,268.970 370.041 C 268.446 369.765,266.914 368.878,265.567 368.068 C 264.219 367.259,262.536 366.267,261.826 365.865 C 259.987 364.823,255.810 362.406,240.038 353.256 C 239.406 352.889,237.337 351.682,235.441 350.575 C 233.544 349.467,231.475 348.260,230.843 347.893 C 229.866 347.326,217.917 340.377,214.368 338.312 C 213.736 337.944,211.063 336.393,208.429 334.866 C 205.795 333.339,203.123 331.786,202.490 331.416 C 201.573 330.879,192.419 325.556,186.015 321.836 C 185.383 321.468,182.797 319.965,180.268 318.494 C 177.739 317.023,171.877 313.617,167.241 310.925 C 162.605 308.233,158.295 305.729,157.663 305.361 C 157.031 304.994,154.444 303.495,151.916 302.031 C 140.751 295.567,141.291 296.292,145.851 293.885 C 147.712 292.903,150.558 291.291,152.176 290.303 C 153.795 289.314,155.313 288.506,155.551 288.506 C 156.088 288.506,155.223 288.016,177.203 300.767 C 177.835 301.134,179.904 302.341,181.801 303.448 C 186.454 306.166,186.387 306.127,195.977 311.688 C 200.613 314.376,204.923 316.876,205.556 317.242 C 206.188 317.609,208.257 318.816,210.153 319.923 C 214.806 322.641,214.740 322.602,224.330 328.163 C 228.966 330.851,233.276 333.351,233.908 333.718 C 234.540 334.084,236.609 335.291,238.506 336.398 C 240.402 337.506,242.471 338.715,243.103 339.084 C 244.030 339.625,254.379 345.642,259.579 348.662 C 260.211 349.030,262.883 350.584,265.517 352.117 C 268.151 353.649,272.807 356.350,275.862 358.118 L 281.418 361.333 283.311 359.306 C 285.510 356.953,290.036 352.158,294.540 347.411 C 298.561 343.173,298.669 343.530,292.241 339.831 C 289.239 338.103,286.264 336.387,285.632 336.017 C 283.313 334.659,261.003 321.695,257.280 319.541 C 256.648 319.175,252.941 317.018,249.042 314.748 C 245.144 312.477,239.282 309.071,236.015 307.179 C 229.257 303.263,230.080 303.741,220.690 298.274 C 204.411 288.795,203.921 288.510,200.670 286.640 C 198.585 285.440,185.351 277.739,183.716 276.774 C 182.874 276.276,181.021 275.221,179.600 274.429 C 178.179 273.637,177.015 272.787,177.014 272.541 C 177.012 272.108,180.511 268.595,183.049 266.483 L 184.296 265.445 185.731 266.299 C 186.519 266.769,187.682 267.453,188.314 267.819 C 188.946 268.185,191.015 269.390,192.912 270.498 C 197.565 273.216,197.498 273.177,207.088 278.738 C 211.724 281.426,216.034 283.926,216.667 284.292 C 217.299 284.659,219.368 285.865,221.264 286.973 C 225.917 289.691,225.851 289.652,235.441 295.213 C 240.077 297.901,244.387 300.401,245.019 300.767 C 245.651 301.134,247.720 302.341,249.617 303.448 C 254.270 306.166,254.203 306.127,263.793 311.688 C 268.429 314.376,272.739 316.876,273.372 317.242 C 274.004 317.609,276.073 318.816,277.969 319.923 C 279.866 321.031,281.935 322.238,282.567 322.605 C 283.199 322.972,286.906 325.127,290.805 327.395 C 294.703 329.662,298.453 331.840,299.138 332.234 C 299.823 332.628,301.030 333.323,301.820 333.779 C 302.610 334.235,303.761 334.866,304.377 335.182 L 305.498 335.755 308.209 332.907 C 318.370 322.231,321.662 318.662,321.765 318.210 C 321.834 317.904,320.351 316.793,318.125 315.482 C 314.859 313.559,302.947 306.629,299.330 304.548 C 298.645 304.154,297.524 303.509,296.839 303.115 C 296.154 302.721,292.404 300.544,288.506 298.278 C 277.882 292.101,269.680 287.335,268.391 286.589 C 267.470 286.056,257.746 280.401,251.916 277.009 C 251.284 276.641,248.611 275.091,245.977 273.563 C 243.343 272.036,240.670 270.485,240.038 270.117 C 239.406 269.749,235.699 267.593,231.801 265.326 C 227.902 263.058,224.195 260.902,223.563 260.534 C 222.931 260.166,220.259 258.616,217.625 257.088 C 214.990 255.561,212.318 254.010,211.686 253.642 C 208.717 251.914,196.210 244.641,195.019 243.949 C 194.282 243.520,193.176 242.913,192.562 242.598 L 191.445 242.027 188.347 245.258 C 180.551 253.390,175.254 259.191,174.789 260.110 C 174.509 260.660,172.007 263.040,169.228 265.397 C 136.311 293.322,109.948 300.674,92.701 286.739 C 86.203 281.489,83.869 271.470,86.953 262.069 C 87.126 261.542,87.491 260.335,87.764 259.387 C 88.037 258.439,88.374 257.490,88.512 257.280 C 88.650 257.069,89.169 255.862,89.665 254.598 C 90.511 252.441,90.989 251.481,93.237 247.414 C 94.997 244.232,98.641 238.834,101.613 235.009 L 104.627 231.128 107.007 230.668 C 112.283 229.647,118.489 225.920,123.942 220.498 C 124.366 220.077,127.121 216.973,130.065 213.602 C 133.008 210.230,135.515 207.385,135.635 207.280 C 135.829 207.110,146.362 194.783,151.508 188.704 C 152.575 187.443,153.819 185.978,154.271 185.447 C 158.746 180.202,172.035 164.557,174.138 162.059 C 175.613 160.306,178.373 157.048,180.270 154.819 C 182.168 152.590,185.013 149.215,186.592 147.318 C 188.171 145.422,190.498 142.660,191.762 141.181 C 196.101 136.106,197.644 134.286,200.065 131.387 C 201.399 129.790,205.163 125.325,208.429 121.466 C 214.301 114.528,228.483 97.740,231.554 94.091 C 232.427 93.053,235.211 89.766,237.739 86.785 C 240.268 83.805,243.051 80.516,243.924 79.476 C 248.416 74.126,254.998 66.338,255.887 65.321 C 256.442 64.686,258.190 62.619,259.770 60.727 C 263.145 56.688,271.316 47.028,272.679 45.466 C 274.822 43.010,272.980 44.218,269.479 47.566 M236.151 165.407 C 233.021 168.718,228.888 173.071,226.967 175.081 C 221.247 181.065,219.349 183.220,219.349 183.726 C 219.349 183.990,221.590 186.326,224.330 188.918 C 239.525 203.293,243.795 207.329,246.743 210.101 C 248.534 211.786,251.643 214.728,253.651 216.640 C 255.658 218.551,260.227 222.872,263.804 226.241 C 269.781 231.872,276.324 238.063,277.777 239.464 C 278.749 240.400,284.408 245.746,291.571 252.494 C 295.259 255.968,299.828 260.283,301.724 262.082 C 303.621 263.881,306.635 266.726,308.423 268.404 C 310.211 270.083,313.400 273.100,315.511 275.110 C 317.622 277.120,320.728 280.059,322.414 281.641 C 324.100 283.223,327.375 286.320,329.693 288.524 C 342.965 301.140,353.840 311.364,354.437 311.785 C 355.288 312.386,355.000 312.647,363.635 303.448 C 367.294 299.550,371.521 295.067,373.027 293.487 C 374.532 291.906,376.338 289.948,377.038 289.135 L 378.312 287.658 376.030 285.496 C 372.504 282.155,359.574 269.946,355.939 266.525 C 354.148 264.840,350.862 261.725,348.638 259.604 C 346.414 257.483,343.224 254.468,341.550 252.905 C 339.876 251.342,336.863 248.498,334.855 246.583 C 331.301 243.195,321.537 233.962,314.969 227.778 C 313.179 226.092,310.070 223.149,308.060 221.237 C 306.050 219.326,302.861 216.309,300.972 214.532 C 299.083 212.756,295.809 209.665,293.696 207.663 C 291.583 205.661,288.304 202.557,286.409 200.766 C 284.514 198.975,281.495 196.116,279.700 194.413 C 277.905 192.710,272.989 188.062,268.774 184.085 C 250.711 167.040,247.945 164.427,245.373 161.973 C 241.948 158.705,242.780 158.396,236.151 165.407 M126.420 200.940 C 129.302 204.008,121.891 216.604,115.064 220.244 C 113.836 220.898,113.798 220.834,114.446 219.184 C 115.780 215.789,113.665 212.644,110.051 212.644 C 107.892 212.644,107.878 212.411,109.880 209.856 C 115.563 202.603,123.808 198.159,126.420 200.940 M225.973 205.393 C 225.067 206.325,220.276 211.398,215.325 216.667 C 210.374 221.935,205.214 227.412,203.858 228.838 C 202.337 230.438,201.530 231.568,201.750 231.788 C 201.947 231.983,204.693 233.641,207.854 235.471 C 211.015 237.301,214.119 239.097,214.751 239.464 C 216.862 240.686,232.699 249.885,237.356 252.594 C 239.885 254.064,242.471 255.568,243.103 255.936 C 243.736 256.304,248.046 258.807,252.682 261.500 C 257.318 264.192,263.180 267.598,265.709 269.069 C 268.238 270.539,270.824 272.043,271.456 272.411 C 272.088 272.779,276.398 275.282,281.034 277.975 C 288.173 282.120,294.693 285.910,299.808 288.887 C 300.441 289.254,304.148 291.411,308.046 293.678 C 311.944 295.946,315.651 298.102,316.284 298.470 C 319.694 300.454,327.191 304.795,328.352 305.458 C 329.090 305.879,330.034 306.461,330.449 306.751 C 331.617 307.568,332.407 307.388,333.531 306.053 L 334.563 304.827 332.511 302.903 C 329.503 300.082,317.685 288.909,313.028 284.483 C 310.811 282.375,304.516 276.429,299.039 271.268 C 293.562 266.108,287.268 260.159,285.053 258.050 C 282.837 255.940,279.475 252.761,277.581 250.985 C 275.687 249.209,272.494 246.191,270.484 244.280 C 268.474 242.369,265.285 239.351,263.396 237.575 C 261.507 235.799,258.316 232.781,256.304 230.870 C 254.292 228.959,251.189 226.028,249.407 224.359 C 247.626 222.689,244.615 219.844,242.715 218.037 C 240.816 216.230,237.626 213.214,235.627 211.334 C 233.628 209.455,231.009 206.968,229.806 205.807 L 227.620 203.697 225.973 205.393 M108.574 329.741 C 105.649 332.823,103.207 335.550,103.146 335.801 C 103.086 336.052,107.223 340.211,112.340 345.044 C 117.457 349.877,122.938 355.054,124.519 356.549 C 126.101 358.043,128.515 359.920,129.885 360.720 C 132.229 362.088,133.058 362.567,136.111 364.314 C 136.796 364.706,138.305 365.592,139.464 366.284 C 140.623 366.975,142.131 367.861,142.816 368.253 C 145.405 369.734,146.742 370.509,153.640 374.521 C 161.421 379.047,162.533 379.689,164.655 380.888 C 165.445 381.334,166.550 382.024,167.109 382.420 C 168.231 383.216,216.331 383.589,215.498 382.795 C 215.298 382.604,214.531 382.109,213.793 381.695 C 213.056 381.281,209.262 379.087,205.364 376.820 C 201.466 374.552,197.759 372.397,197.126 372.030 C 196.494 371.663,194.425 370.456,192.529 369.349 C 189.299 367.462,188.537 367.020,185.345 365.184 C 184.660 364.790,180.910 362.612,177.011 360.345 C 173.113 358.077,169.406 355.922,168.774 355.555 C 168.142 355.188,166.073 353.981,164.176 352.874 C 162.280 351.766,160.168 350.537,159.483 350.142 C 157.323 348.898,155.928 348.090,148.659 343.865 C 144.761 341.599,141.054 339.444,140.421 339.077 C 139.789 338.710,137.203 337.206,134.674 335.736 C 118.595 326.385,114.646 324.138,114.290 324.138 C 114.070 324.138,111.498 326.659,108.574 329.741 M81.630 329.023 C 80.956 329.813,77.704 333.305,74.404 336.782 C 59.860 352.104,60.536 351.367,60.536 351.901 C 60.536 352.378,62.894 354.704,73.755 364.944 C 77.548 368.519,82.203 372.923,84.100 374.728 C 85.996 376.534,88.769 379.166,90.261 380.576 L 92.973 383.142 117.559 383.142 C 131.082 383.142,142.125 383.012,142.100 382.854 C 142.075 382.696,140.307 380.938,138.173 378.946 C 132.077 373.259,128.466 369.860,124.330 365.915 C 122.222 363.905,117.567 359.495,113.985 356.114 C 105.988 348.569,87.341 330.995,85.249 329.032 C 83.347 327.248,83.145 327.248,81.630 329.023 " stroke="none" fill="#050505" fill-rule="evenodd"></path></g></svg>