<svg xmlns="http://www.w3.org/2000/svg" height="800" width="1200" viewBox="-831.21105 -850.0095 7203.8291 5100.057"><path d="M0 2900.96h4718.425L3479.975 0H3460.2z" fill="#FFF"/><path d="M0 2900.96h4718.425L3479.975 0H3460.2zm2162.691-1719.666c-16.228 0-29.367 2.305-29.367 2.305s-71.112 40.213-160.762 92.763c-89.687 52.55-250.487 163.875-275.25 200.975-24.675 37.1-126.713 145.312-126.713 145.312l-7.137 9.088c-79.137-10.662-163.287-13.588-212.437 3.325-98.95 33.987-312.265 160.726-346.289 238.076-27.979 63.562-58.007 118.811-60.863 188.023-38.819 82.838-59.913 224.998 33.031 424.227 0 0 55.664 33.911 142.236 24.687 19.043-1.987 46.655-2.865 77.237-6.013-75.773 98.74-168.603 221.126-204.018 256.423-52.549 52.589-389.575 349.439-445.24 364.889-55.664 15.526-74.195 9.303-27.832 33.99 46.362 24.747 128.832 6.223 158.715-37.14 29.883-43.213 70.094-114.325 104.152-148.309 33.983-34.062 213.281-145.392 228.734-166.988 15.274-21.314 273.487-279.717 301.762-331.651 18.712-9.076 35.625-20.879 49.287-36.328 15.013-1.172 29.076-4.095 41.676-9.297 83.5-33.988 216.437-139.091 281.324-231.816 37.425-53.46 70.75-111.036 88.7-158.561 34.637-27.25 62.25-46.661 72.138-48.636 30.912-6.225 80.387-21.677 80.387 30.836 0 52.587 52.55 166.987 98.912 235.029 46.437 68.046 108.25 123.711 108.25 123.711s-3.112 27.821 27.838 30.912c30.9 3.071 58.701-6.163 64.888 9.297 14.938 37.275 80.425 9.229 111.287-18.535 30.951-27.9 43.362 18.535 86.612-9.303 43.362-27.764 61.851-64.959 61.851-114.471 0-21.103-10.213-39.264-25.888-51.642 2.712-2.485 4.25-3.949 4.25-3.949s36.874 2.642 73.6-9.233c-2.738 16.333-2.738 37.061.587 64.824 9.25 77.334 61.913 126.85 92.75 126.85 30.975 0 52.588 33.984 52.588 33.984s-3.075 58.74 40.275 71.127c43.225 12.374 160.7-43.291 188.538-67.978 27.825-24.745 83.488 37.067 108.175 89.654 24.75 52.51 154.612 272.1 201.05 324.688 46.362 52.51 108.174 139.087 166.911 213.271 58.813 74.205 25.127 81.738 43.727 81.738 18.537 0 6.161 12.377 21.611 27.836 15.45 15.528 98.95 64.889 120.625 80.338 21.613 15.464 111.34 46.441 123.64 37.139 12.374-9.224 18.522-40.137 18.522-40.137s-15.449 6.152-77.26-15.521c-61.9-21.617-142.239-74.127-151.539-89.655-9.312-15.448-37.062-27.822-37.062-27.822s-82.837-97.202-132.35-193.002c0 0-41.238-98.951-84.525-194.826-43.213-95.874-185.45-377.195-247.338-392.65-61.887-15.523-139.162 3.003-182.449 40.142-43.213 37.134-61.814 24.744-83.414 9.295-21.688-15.449 3.137-52.586-9.313-105.096-4.387-18.676-13.398-47.827-26.586-75.289 14.438-1.913 26.813-10.337 32.813-26.738 12.387-34.063 9.236-49.513 52.523-43.363 6.438.949 15.963 1.763 27.901 1.9-6.225 11.063-10.038 20.438-10.25 26.375-1.175 34.565 26.363 97.491 67.3 112.715 40.95 15.235 214.388 90.825 250.788 54.496 36.4-36.396 197.975-124.662 226.687-140.625 28.775-15.825 81.662-26.585 99.824-22.562 18.163 3.892 55.376 138.579 118.951 253.636 63.638 114.991 53.1 163.326 94.625 147.076 41.526-16.26 40.725 31.049 78.95 29.799 38.237-1.235 45.125 25.641 67.463 68.414 22.337 42.852 45.7 95.439 100.712 104.229 55.076 8.784 273.7 65.697 298.674 52.221 25.2-13.55 26.364-48.125-37.136-61.885-63.425-13.774-211.964-14.439-244.989-37.442-33.037-22.925-41.312-145.008-76.25-158.92-34.862-13.925-87.962-31.787-94.412-45.849-5.487-12.018-129.925-232.554-177.9-350.254 63.212 26.952 160.625 65.112 220.088 84.228 86.575 27.838 235.037 74.2 296.85 74.2 39.187 0 54.712-13.702 60.874-23.741 4.175 10.777 7.764 19.277 10.326 23.741 12.3 21.596 30.838 37.138 30.838 37.138s-6.162 12.3 12.375 21.596c18.525 9.301 145.388 27.839 191.75 71.129 46.363 43.272 111.325 126.773 117.475 204.049 6.225 77.26 55.587 160.76 80.35 163.91 24.75 3.076 52.586 0 27.824-105.098-24.675-105.175-61.812-188.598-120.549-235.039-58.738-46.435-210.275-120.547-228.813-129.922-18.6-9.238-43.212-33.99-52.587-33.99-9.3 0-6.15-9.223-21.6-61.81-2.712-9.312-5.425-19.639-8.213-30.625 4.038-10.328 18.312-49.512 23.662-102.389 6.15-61.75-21.674-197.776-46.36-231.863 0 0-2.489-21.749-3-39.549 7.686 3.837 15.447 4.424 21.522-.588 18.538-15.5 67.975-80.462 145.313-114.412 77.35-34.088 151.476-64.963 238.04-71.188 86.574-6.15 98.948-12.301 98.948-12.301s40.213-6.187 86.65 18.526C4789.325 1706.15 5064.5 1845.3 5104.7 1860.8c40.212 15.462 102.038 43.288 145.388 77.275 43.213 34.025 77.2 30.887 77.2 30.887s30.912 34.05 77.35 64.963c46.362 30.9 61.813 46.363 89.638 52.588 27.837 6.15 83.5 35.012 12.463-67.088 0 0-71.2-72.076-133.014-99.889-61.887-27.875-58.812-55.711-95.875-58.736-37.137-3.125-105.099-15.501-160.762-40.213-55.662-24.8-213.288-89.65-281.326-126.75-68.05-37.125-111.4-64.962-129.937-80.449-18.525-15.463-49.512-13.414-108.174-4.102 0 0-166.988 38.152-225.738 65.914-58.738 27.9-191.737 102.099-213.424 120.586 0 0-24.463.001-33.613 11.701-1.175-.787-2.275-1.662-3.45-2.349-15.45-9.35-114.4-105.151-114.4-105.151-49.512-43.275-133.013-132.924-185.525-176.287-52.588-43.25-264.4-110.413-352.438-101.951-82.475 7.8-121.287 61.737-142.6 114.287-17.287-30.612-36.625-61.524-55.3-83.349-52.513-61.888-68.037-80.45-68.037-80.45s-55.676 0-111.338 37.1c-33.688 22.475-81 73.35-113.088 109.963-26.8.512-48.337 6.962-60.049 16.812-40.138 33.988-268.95 194.826-278.176 234.963-5.862 25.075-15.238 41.675-27.463 50.688-18.312-18.388-55.16-34.638-96.26-16.625-2.564 1.1-5.464 2.274-8.35 3.537-5.714-111.313-21.238-403.414-28.788-433.326-9.3-37.1-27.825-64.937-58.813-49.475-30.912 15.413-58.664 58.776-58.664 105.139 0 46.325 18.563 71.036 24.713 89.648 5.163 15.525 10.363 244.85 21.063 334.375-40.8 22.488-78.188 50.439-89.063 83.039-21.65 64.938-18.599 89.625-37.137 108.225-2.412 2.412-6.075 5.049-10.25 7.762-13.262-12.675-28.75-25.263-40.875-37.651-6.512-28.125-8.275-59.973 17.1-75.211 30.95-18.587 30.95-139.187 0-151.562l-30.937-12.338s55.7-207.201 43.363-324.613c-12.425-117.625-24.764-241.262-49.514-259.825-12.362-9.25-31.68-11.565-47.908-11.568zm-23.627 47.295c15.944-.084 26.326 12.812 22.098 44.66-6.163 46.438-37.1 235.038-40.213 306.15-3.075 71.088 3.113 216.387 3.113 216.387s-38.638 26.852-34.238 57.039c-11.363-2.275-20.287-3.426-24.537-4.476-12.388-3.05 24.75-126.712-21.688-157.662-46.362-30.938-132.925 3.151-163.838 18.576-25.012 12.525-72.36 20.974-89.424 23.799-6.3-22.163-18.826-45.487-43.513-57.862-22.7-11.275-76.386-25.776-138.612-36.551l98.401-105.65s74.2-6.15 126.787-43.25c52.55-37.062 253.562-238.112 281.324-253.562 8.696-4.84 17.093-7.56 24.34-7.598zm1048.262 205.762c11.631.046 20.74 8.525 25.1 24.486 5.637 20.363 22.336 95.624 34.786 152.387-29.512 5.75-51.125 10.55-64.525 17.25-25.487-34.65-54.937-59.624-84.887-76.836 11.2-24.788 23.438-55.475 43.5-83.563 16.423-22.996 32.844-33.777 46.026-33.724zm29.336 404.037c9.6 2.588 19.637 4.4 29.375 4.938 2.487 58.125 29.45 104.023 49.875 141.086 14.137 25.85 48.201 55.889 84.89 83.351-21.75 3.225-41.815 7.912-57.49 12.225 0 0-251.513 50.837-298.025 75.513-46.513 24.762-85.25 57.423-114.85 47.901-29.512-9.663 49.225-36.914 117.412-88.477 26.738-20.287 46.951-51.338 50.614-78.513 4.612-5.788 9.15-11.65 13.324-17.95 45.637-68.475 98.15-122.286 124.875-180.074zm488.033 57.422c1.966.01 3.893.128 5.768.365 30.912 3.888 30.913 11.5 61.9 57.912 30.9 46.363 38.587 108.176 15.45 131.401-23.226 23.212-50.312 30.9-116.012-57.938-62.549-84.792-7.068-131.884 32.894-131.74zm-1926.158 3.227c15.312 9.45 46.325 28.589 74.275 43.039-21.825 10.762-42.637 27.536-65.562 44.673 1.1-11.862.15-22.037-3.364-30.099-5.712-13.4-6.662-34.613-5.349-57.613zm283.812 152.238c24.463 4.913 47.1 5.2 64.75 22.787 20.725 20.725 38.088 72.438 55.813 97.411-12.888 40.865-16.662 59.912 21.525 72.724 46.363 15.454 86.575-6.219 86.575-6.219s5.6 6.732 14.875 14.721c-38.525 22.413-74.787 47.603-85.987 62.627-18.6 24.674-40.213 12.299-40.213 12.299s-74.199-123.636-105.136-238.111c-3.813-14.063-7.914-26.739-12.202-38.239z" fill-rule="evenodd" fill="#A81C7D"/><path d="M228.623 3375.037l-209.76-87.201v-55.073l209.76-87.026v65.576l-127.48 49.076 127.48 49.434zm345.983-24.223h-94.508l-13.54 44.536h-85.385l101.415-270.699h91.61l101.506 270.7H588.13zm-17.701-58.59l-29.443-97.364-29.566 97.364zm277.54-167.574h139.023c30.278 0 52.965 7.198 68.042 21.598 15.079 14.414 22.623 34.911 22.623 61.527 0 27.335-8.223 48.697-24.654 64.088-16.435 15.4-41.524 23.1-75.254 23.1h-45.796v100.386h-83.984zm83.984 115.625h20.557c16.17 0 27.534-2.813 34.07-8.428 6.55-5.61 9.826-12.812 9.826-21.572 0-8.515-2.847-15.736-8.521-21.665-5.684-5.923-16.366-8.886-32.045-8.886h-23.887zm455.66 110.538h-94.513l-13.525 44.536h-85.4l101.412-270.699h91.625l101.5 270.7h-87.575zm-17.7-58.589l-29.45-97.364-29.564 97.364zm451.175-7.427l73.437 22.051c-4.925 20.527-12.675 37.691-23.262 51.49-10.588 13.76-23.725 24.174-39.413 31.171-15.7 7.017-35.675 10.528-59.912 10.528-29.425 0-53.463-4.278-72.1-12.837-18.65-8.55-34.75-23.589-48.288-45.127-13.537-21.538-20.3-49.126-20.3-82.71 0-44.8 11.9-79.253 35.7-103.315 23.8-24.063 57.475-36.085 101.025-36.085 34.075 0 60.863 6.885 80.363 20.684 19.5 13.79 33.987 34.976 43.462 63.55l-73.837 16.538c-2.575-8.296-5.275-14.36-8.088-18.213-4.675-6.45-10.387-11.397-17.137-14.858-6.75-3.477-14.3-5.2-22.638-5.2-18.9 0-33.387 7.621-43.45 22.885-7.612 11.324-11.412 29.111-11.412 53.35 0 30.04 4.537 50.615 13.625 61.748 9.075 11.128 21.837 16.704 38.287 16.704 15.95 0 28.013-4.478 36.175-13.413 8.163-8.94 14.088-21.929 17.763-38.94zM2054.2 3124.65h83.589v94.912h91.411v-94.912h83.989v270.7H2229.2v-109.376h-91.411v109.375H2054.2zm446.389 0H2725.2v57.813h-140.624v42.96h130.474v55.077h-130.475v53.525h144.539v61.324h-228.526zm830.136 226.163h-94.512l-13.537 44.536h-85.388L3238.7 3124.65h91.613l101.5 270.7h-87.563zm-17.7-58.589l-29.45-97.364-29.562 97.364zm278.313-167.574h77.95l102.124 149.938V3124.65h78.914v270.7h-78.914l-101.561-149.127v149.126h-78.514zm428.037 0h253.913v66.787h-85.162v203.912h-83.588v-203.91h-85.162zm416.212 185.171l127.488-49.434-127.487-49.076v-65.576l209.762 87.026v55.073l-209.762 87.202z" fill="#231F20"/></svg>