<?xml version="1.0" encoding="UTF-8"?>
<svg width="32px" height="32px" viewBox="0 0 32 32" version="1.1" xmlns="http://www.w3.org/2000/svg" xmlns:xlink="http://www.w3.org/1999/xlink">
    <title>dotnetlinq-plain</title>
    <g id="dotnetlinq-plain" stroke="none" stroke-width="1" fill="none" fill-rule="evenodd">
        <g id="netframework" transform="translate(0.489588, 0.000000)" fill="#000000" fill-rule="nonzero">
            <path d="M15.6668083,0 C24.3193476,0 31.3336167,7.01426901 31.3336167,15.6668083 C31.3336167,24.3193476 24.3193476,31.3336167 15.6668083,31.3336167 C7.01426901,31.3336167 0,24.3193476 0,15.6668083 C0,7.01426901 7.01426901,0 15.6668083,0 Z M19.9953625,21.5690608 C19.7313465,21.5690608 19.4945606,21.616913 19.2849979,21.7126188 C19.0754351,21.8083246 18.898877,21.9395056 18.7553183,22.1061657 C18.6117596,22.2728259 18.5020296,22.4691849 18.4261249,22.6952486 C18.3502203,22.9213124 18.3122686,23.1630484 18.3122686,23.4204641 C18.3122686,23.6778797 18.3502203,23.9196158 18.4261249,24.1456796 C18.5020296,24.3717433 18.6117596,24.5681023 18.7553183,24.7347624 C18.898877,24.9014226 19.0754351,25.0326036 19.2849979,25.1283094 C19.4945606,25.2240152 19.7313465,25.2718674 19.9953625,25.2718674 C20.3880864,25.2718674 20.7214017,25.1646125 20.9953183,24.9500994 L20.9953183,24.9500994 L21.5794509,25.3708729 L21.6933073,25.2174144 L21.1438266,24.8213923 C21.315437,24.653082 21.446618,24.4501227 21.5373736,24.2125083 C21.6281291,23.9748938 21.6735062,23.7108817 21.6735062,23.4204641 C21.6735062,23.1630484 21.6355544,22.9213124 21.5596498,22.6952486 C21.4837452,22.4691849 21.3740152,22.2728259 21.2304564,22.1061657 C21.0868977,21.9395056 20.9111647,21.8083246 20.703252,21.7126188 C20.4953394,21.616913 20.2593786,21.5690608 19.9953625,21.5690608 Z M9.62877688,21.6532155 L9.41096473,21.6532155 L9.41096473,25.1877127 L11.6336388,25.1877127 L11.6336388,24.9996022 L9.62877688,24.9996022 L9.62877688,21.6532155 Z M12.8994951,21.6532155 L12.681683,21.6532155 L12.681683,25.1877127 L12.8994951,25.1877127 L12.8994951,21.6532155 Z M14.5910752,21.6532155 L14.31881,21.6532155 L14.31881,25.1877127 L14.5366222,25.1877127 L14.5366222,21.9205304 L14.5465227,21.9205304 L16.7939482,25.1877127 L17.0513625,25.1877127 L17.0513625,21.6532155 L16.8335504,21.6532155 L16.8335504,24.8956464 L16.8236498,24.8956464 L14.5910752,21.6532155 Z M19.9953625,21.7571713 C20.2263766,21.7571713 20.431811,21.8017233 20.6116719,21.8908287 C20.7915328,21.9799341 20.9441648,22.0995646 21.0695725,22.2497238 C21.1949801,22.3998829 21.2906845,22.5756159 21.3566885,22.7769282 C21.4226925,22.9782404 21.455694,23.1927502 21.455694,23.4204641 C21.455694,23.6778797 21.4144421,23.9154906 21.3319371,24.1333039 C21.2494321,24.3511171 21.1289766,24.5392257 20.9705669,24.6976354 L20.9705669,24.6976354 L20.4012852,24.2867624 L20.2874288,24.440221 L20.8220586,24.8213923 C20.597645,24.9963029 20.3220824,25.0837569 19.9953625,25.0837569 C19.7643485,25.0837569 19.558089,25.0392049 19.376578,24.9500994 C19.1950669,24.860994 19.0416099,24.7413636 18.9162023,24.5912044 C18.7907947,24.4410453 18.6950903,24.2653122 18.6290863,24.064 C18.5630823,23.8626878 18.5300807,23.6481779 18.5300807,23.4204641 C18.5300807,23.1927502 18.5630823,22.9782404 18.6290863,22.7769282 C18.6950903,22.5756159 18.7907947,22.3998829 18.9162023,22.2497238 C19.0416099,22.0995646 19.1950669,21.9799341 19.376578,21.8908287 C19.558089,21.8017233 19.7643485,21.7571713 19.9953625,21.7571713 Z M3.62294943,16.841819 C3.43731784,16.8395618 3.2594205,16.9160576 3.13336167,17.0523417 C3.00361641,17.1820907 2.93131154,17.358444 2.93263068,17.5419295 C2.93019449,17.7256291 3.00267051,17.9023998 3.13336167,18.0315172 C3.26063726,18.1654859 3.43818417,18.2400556 3.62294943,18.2371441 C3.80737002,18.2382949 3.98424569,18.1640071 4.11253719,18.0315172 C4.24551219,17.9035578 4.31989164,17.7264639 4.31816405,17.5419295 C4.31874786,17.3576217 4.24454954,17.180959 4.11253719,17.0523417 C3.98541983,16.9175631 3.80821647,16.8413657 3.62294943,16.841819 Z M7.520068,9.18956226 L6.1639099,9.18956226 L6.1639099,18.1147471 L7.20673183,18.1147471 L7.20673183,11.6619805 C7.2177257,11.2533554 7.20136959,10.8444525 7.15777306,10.438011 L7.15777306,10.438011 L7.19694008,10.438011 C7.2714366,10.6336408 7.366631,10.820747 7.48090098,10.9961411 L7.48090098,10.9961411 L12.0683383,18.1147471 L13.3510582,18.1147471 L13.3510582,9.18956226 L12.3082363,9.18956226 L12.3082363,15.4660773 C12.2989556,15.9043898 12.3202225,16.3428162 12.3718827,16.7781725 L12.3718827,16.7781725 L12.3474033,16.7781725 C12.2919167,16.6704632 12.1711517,16.4713642 11.9851084,16.1808755 L11.9851084,16.1808755 L7.520068,9.18956226 Z M20.1905992,9.18956226 L15.6668083,9.18956226 L15.6668083,18.1147471 L20.4109137,18.1147471 L20.4158096,17.1355716 L16.7341096,17.1355716 L16.7341096,14.041377 L19.9555971,14.041377 L19.9555971,13.1013685 L16.7341096,13.1013685 L16.7341096,10.1344666 L20.1905992,10.1344666 L20.1905992,9.18956226 Z M27.4169146,9.18956226 L21.2138377,9.18956226 L21.2138377,10.1344666 L23.7792775,10.1344666 L23.7792775,18.1147471 L24.8269953,18.1147471 L24.8269953,10.1344666 L27.4169146,10.1344666 L27.4169146,9.18956226 Z" id="Oval-2"></path>
        </g>
    </g>
</svg>