<?xml version="1.0" encoding="UTF-8"?>
<svg width="219px" height="42px" viewBox="0 0 219 42" version="1.1" xmlns="http://www.w3.org/2000/svg" xmlns:xlink="http://www.w3.org/1999/xlink">
    <title>autofac-plain</title>
    <g id="Page-1" stroke="none" stroke-width="1" fill="none" fill-rule="evenodd">
        <g id="autofac-plain" transform="translate(0.000000, 0.910000)" fill="#000000" fill-rule="nonzero">
            <path d="M208.85,24.77 C207.78,28.99 204.35,31.12 200.08,31.12 C194.08,31.06 190.3,26 190.3,20.21 C190.3,13.69 194.18,9.21 200.08,9.21 C204.3,9.21 207.28,11.01 208.68,15 L218.58,15 C217.06,4.49 208.23,0 200.08,0 C190.08,0 179.95,6.75 179.89,20.13 C179.893576,21.3183237 179.983815,22.5048043 180.16,23.68 L169.2,0.09 L164.87,0.09 L153.45,24.86 L153.45,17.69 L140.8,17.69 L140.8,9.09 L155.08,9.09 L155.08,0.09 L130.56,0.09 L130.56,14.43 C128.219322,7.25052329 122.168081,1.90592705 114.75443,0.470155566 C107.34078,-0.965615921 99.7317546,1.73345227 94.88,7.52 L94.88,0.09 L56.31,0.09 L56.31,26.18 C56.31,29.39 53.31,30.96 50.31,30.96 C47.31,30.96 44.31,29.39 44.31,26.18 L44.31,0.09 L34.72,0.09 L34.72,26.35 C34.72,26.79 34.72,27.21 34.78,27.63 L22,0.09 L17.71,0.09 L0,38.49 L0,39.95 L9.84,39.95 L12.15,35 L27.66,35 L30,39.96 L39.84,39.96 L39.84,38.49 L38.41,35.39 C41.6449893,38.4510179 45.9575044,40.1113362 50.41,40.01 C58.51,40.01 65.99,35.01 65.99,26.35 L65.99,9.09 L75.38,9.09 L75.38,39.45 L85.38,39.45 L85.38,9.09 L93.8,9.09 C88.0767963,17.3923281 89.1437597,28.6059868 96.33,35.68 L103.88,25.46 L103.88,25.46 L103.88,40.46 L103.97,40.46 L115.06,25.46 L115.06,25.46 L115.06,40.6 L126.24,25.46 L126.24,25.46 L126.24,34.82 C128.201463,32.6538503 129.683754,30.098176 130.59,27.32 L130.59,39.45 L140.8,39.45 L140.8,26.69 L152.61,26.69 L147.16,38.49 L147.16,39.95 L157,39.95 L159.3,35 L174.82,35 L177.13,39.95 L187,39.95 L187,38.49 L184.88,33.91 C188.830633,38.0880448 194.361054,40.4047936 200.11,40.29 C208.49,40.29 217.32,35.9 218.78,24.77 L208.85,24.77 Z M15.41,26.4 L19.85,16.09 L24.4,26.4 L15.41,26.4 Z M162.57,26.4 L167,16.09 L171.55,26.44 L162.57,26.4 Z" id="Shape"></path>
        </g>
    </g>
</svg>