<?xml version="1.0" encoding="UTF-8" standalone="no"?>
<!DOCTYPE svg PUBLIC "-//W3C//DTD SVG 1.1//EN" "http://www.w3.org/Graphics/SVG/1.1/DTD/svg11.dtd">
<!-- Created with Vectornator (http://vectornator.io/) -->
<svg height="28.0px" stroke-miterlimit="10" style="fill-rule:nonzero;clip-rule:evenodd;stroke-linecap:round;stroke-linejoin:round;" version="1.1" viewBox="0 0 28 28" width="28.0px" xml:space="preserve" xmlns="http://www.w3.org/2000/svg" xmlns:xlink="http://www.w3.org/1999/xlink">
<defs/>
<clipPath id="ArtboardFrame">
<rect height="28" width="28" x="0" y="0"/>
</clipPath>
<g clip-path="url(#ArtboardFrame)" id="Oracle">
<path d="M14-1.19231C6.26801-1.19231 0 5.0757 0 12.8077C0 20.5397 6.26801 26.8077 14 26.8077C21.732 26.8077 28 20.5397 28 12.8077C28 5.0757 21.732-1.19231 14-1.19231ZM14-0.192313C21.1797-0.192313 27 5.62798 27 12.8077C27 19.9874 21.1797 25.8077 14 25.8077C6.8203 25.8077 1 19.9874 1 12.8077C1 5.62798 6.8203-0.192313 14-0.192313Z" fill="#000000" fill-rule="evenodd" opacity="0" stroke="none"/>
<g opacity="1">
<path d="M8.9375 5.30263C5.65693 5.30263 3 7.95956 3 11.2401L3 11.3651C3 14.6457 5.65693 17.3026 8.9375 17.3026L19.0625 17.3026C22.3431 17.3026 25 14.6457 25 11.3651L25 11.2401C25 7.95956 22.3431 5.30263 19.0625 5.30263L8.9375 5.30263ZM8.96875 7.30263L19.0312 7.30263C21.2183 7.30263 23 9.08433 23 11.2714L23 11.3339C23 13.5209 21.2183 15.3026 19.0312 15.3026L8.96875 15.3026C6.7817 15.3026 5 13.5209 5 11.3339L5 11.2714C5 9.08433 6.7817 7.30263 8.96875 7.30263Z" fill="#000000" fill-rule="evenodd" opacity="1" stroke="none"/>
</g>
<g fill="#000000" opacity="1" stroke="none">
<path d="M3.975 23.6974L3.615 23.6974L3.615 20.1574L4.655 20.1574C4.82833 20.1574 4.98917 20.174 5.1375 20.2074C5.28583 20.2407 5.41417 20.2949 5.5225 20.3699C5.63083 20.4449 5.715 20.5424 5.775 20.6624C5.835 20.7824 5.865 20.929 5.865 21.1024C5.865 21.2324 5.84167 21.3507 5.795 21.4574C5.74833 21.564 5.685 21.6565 5.605 21.7349C5.525 21.8132 5.43 21.8757 5.32 21.9224C5.21 21.969 5.09 21.999 4.96 22.0124L5.995 23.6974L5.555 23.6974L4.575 22.0424L3.975 22.0424L3.975 23.6974ZM3.975 21.7324L4.6 21.7324C4.89 21.7324 5.11333 21.6799 5.27 21.5749C5.42667 21.4699 5.505 21.3124 5.505 21.1024C5.505 20.9857 5.48333 20.8874 5.44 20.8074C5.39667 20.7274 5.33667 20.6624 5.26 20.6124C5.18333 20.5624 5.09 20.5257 4.98 20.5024C4.87 20.479 4.74833 20.4674 4.615 20.4674L3.975 20.4674L3.975 21.7324Z"/>
<path d="M6.97 23.3774L8.865 23.3774L8.865 23.6974L6.61 23.6974L6.61 20.1574L8.805 20.1574L8.805 20.4774L6.97 20.4774L6.97 21.6974L8.685 21.6974L8.685 22.0124L6.97 22.0124L6.97 23.3774Z"/>
<path d="M9.57 20.1574L10.57 20.1574C10.75 20.1574 10.9133 20.1765 11.06 20.2149C11.2067 20.2532 11.3325 20.3115 11.4375 20.3899C11.5425 20.4682 11.6233 20.5665 11.68 20.6849C11.7367 20.8032 11.765 20.9424 11.765 21.1024C11.765 21.2624 11.7358 21.4015 11.6775 21.5199C11.6192 21.6382 11.5375 21.7365 11.4325 21.8149C11.3275 21.8932 11.2008 21.9524 11.0525 21.9924C10.9042 22.0324 10.74 22.0524 10.56 22.0524L9.93 22.0524L9.93 23.6974L9.57 23.6974L9.57 20.1574ZM9.93 21.7474L10.54 21.7474C10.8233 21.7474 11.0383 21.6924 11.185 21.5824C11.3317 21.4724 11.405 21.3124 11.405 21.1024C11.405 20.8824 11.3292 20.7215 11.1775 20.6199C11.0258 20.5182 10.8133 20.4674 10.54 20.4674L9.93 20.4674L9.93 21.7474Z"/>
<path d="M15.97 21.9274C15.97 22.1974 15.9233 22.4457 15.83 22.6724C15.7367 22.899 15.6075 23.0949 15.4425 23.2599C15.2775 23.4249 15.0825 23.554 14.8575 23.6474C14.6325 23.7407 14.3883 23.7874 14.125 23.7874C13.8617 23.7874 13.6175 23.7407 13.3925 23.6474C13.1675 23.554 12.9725 23.4249 12.8075 23.2599C12.6425 23.0949 12.5133 22.899 12.42 22.6724C12.3267 22.4457 12.28 22.1974 12.28 21.9274C12.28 21.6574 12.3267 21.409 12.42 21.1824C12.5133 20.9557 12.6425 20.7599 12.8075 20.5949C12.9725 20.4299 13.1675 20.3007 13.3925 20.2074C13.6175 20.114 13.8617 20.0674 14.125 20.0674C14.3883 20.0674 14.6325 20.114 14.8575 20.2074C15.0825 20.3007 15.2775 20.4299 15.4425 20.5949C15.6075 20.7599 15.7367 20.9557 15.83 21.1824C15.9233 21.409 15.97 21.6574 15.97 21.9274ZM15.59 21.9274C15.59 21.7207 15.5567 21.524 15.49 21.3374C15.4233 21.1507 15.3267 20.9865 15.2 20.8449C15.0733 20.7032 14.9192 20.5907 14.7375 20.5074C14.5558 20.424 14.3517 20.3824 14.125 20.3824C13.8983 20.3824 13.6942 20.424 13.5125 20.5074C13.3308 20.5907 13.1767 20.7032 13.05 20.8449C12.9233 20.9865 12.8267 21.1507 12.76 21.3374C12.6933 21.524 12.66 21.7207 12.66 21.9274C12.66 22.134 12.6933 22.3307 12.76 22.5174C12.8267 22.704 12.9233 22.8674 13.05 23.0074C13.1767 23.1474 13.3308 23.259 13.5125 23.3424C13.6942 23.4257 13.8983 23.4674 14.125 23.4674C14.3517 23.4674 14.5558 23.4257 14.7375 23.3424C14.9192 23.259 15.0733 23.1474 15.2 23.0074C15.3267 22.8674 15.4233 22.704 15.49 22.5174C15.5567 22.3307 15.59 22.134 15.59 21.9274Z"/>
<path d="M17.08 23.6974L16.72 23.6974L16.72 20.1574L17.76 20.1574C17.9333 20.1574 18.0942 20.174 18.2425 20.2074C18.3908 20.2407 18.5192 20.2949 18.6275 20.3699C18.7358 20.4449 18.82 20.5424 18.88 20.6624C18.94 20.7824 18.97 20.929 18.97 21.1024C18.97 21.2324 18.9467 21.3507 18.9 21.4574C18.8533 21.564 18.79 21.6565 18.71 21.7349C18.63 21.8132 18.535 21.8757 18.425 21.9224C18.315 21.969 18.195 21.999 18.065 22.0124L19.1 23.6974L18.66 23.6974L17.68 22.0424L17.08 22.0424L17.08 23.6974ZM17.08 21.7324L17.705 21.7324C17.995 21.7324 18.2183 21.6799 18.375 21.5749C18.5317 21.4699 18.61 21.3124 18.61 21.1024C18.61 20.9857 18.5883 20.8874 18.545 20.8074C18.5017 20.7274 18.4417 20.6624 18.365 20.6124C18.2883 20.5624 18.195 20.5257 18.085 20.5024C17.975 20.479 17.8533 20.4674 17.72 20.4674L17.08 20.4674L17.08 21.7324Z"/>
<path d="M20.79 23.6974L20.43 23.6974L20.43 20.4774L19.245 20.4774L19.245 20.1574L21.975 20.1574L21.975 20.4774L20.79 20.4774L20.79 23.6974Z"/>
<path d="M24.22 20.7274C24.1433 20.6207 24.045 20.5349 23.925 20.4699C23.805 20.4049 23.66 20.3724 23.49 20.3724C23.4033 20.3724 23.315 20.3857 23.225 20.4124C23.135 20.439 23.0533 20.4799 22.98 20.5349C22.9067 20.5899 22.8475 20.659 22.8025 20.7424C22.7575 20.8257 22.735 20.924 22.735 21.0374C22.735 21.1507 22.7567 21.244 22.8 21.3174C22.8433 21.3907 22.9008 21.4532 22.9725 21.5049C23.0442 21.5565 23.1258 21.599 23.2175 21.6324C23.3092 21.6657 23.405 21.699 23.505 21.7324C23.6283 21.7724 23.7525 21.8157 23.8775 21.8624C24.0025 21.909 24.115 21.9699 24.215 22.0449C24.315 22.1199 24.3967 22.2149 24.46 22.3299C24.5233 22.4449 24.555 22.5907 24.555 22.7674C24.555 22.944 24.5208 23.0965 24.4525 23.2249C24.3842 23.3532 24.2958 23.459 24.1875 23.5424C24.0792 23.6257 23.9558 23.6874 23.8175 23.7274C23.6792 23.7674 23.54 23.7874 23.4 23.7874C23.2933 23.7874 23.1867 23.7765 23.08 23.7549C22.9733 23.7332 22.8717 23.7007 22.775 23.6574C22.6783 23.614 22.5883 23.559 22.505 23.4924C22.4217 23.4257 22.3483 23.349 22.285 23.2624L22.595 23.0324C22.6717 23.159 22.7792 23.2649 22.9175 23.3499C23.0558 23.4349 23.2183 23.4774 23.405 23.4774C23.495 23.4774 23.5867 23.4632 23.68 23.4349C23.7733 23.4065 23.8575 23.3632 23.9325 23.3049C24.0075 23.2465 24.0692 23.1749 24.1175 23.0899C24.1658 23.0049 24.19 22.9057 24.19 22.7924C24.19 22.669 24.1658 22.5665 24.1175 22.4849C24.0692 22.4032 24.005 22.3349 23.925 22.2799C23.845 22.2249 23.7533 22.179 23.65 22.1424C23.5467 22.1057 23.4383 22.069 23.325 22.0324C23.2083 21.9957 23.0933 21.954 22.98 21.9074C22.8667 21.8607 22.765 21.7999 22.675 21.7249C22.585 21.6499 22.5125 21.5574 22.4575 21.4474C22.4025 21.3374 22.375 21.2024 22.375 21.0424C22.375 20.8724 22.4092 20.7257 22.4775 20.6024C22.5458 20.479 22.635 20.3774 22.745 20.2974C22.855 20.2174 22.9767 20.159 23.11 20.1224C23.2433 20.0857 23.375 20.0674 23.505 20.0674C23.745 20.0674 23.95 20.1099 24.12 20.1949C24.29 20.2799 24.4183 20.3807 24.505 20.4974L24.22 20.7274Z"/>
</g>
</g>
</svg>
