<?xml version="1.0" encoding="UTF-8" standalone="no"?>
<!DOCTYPE svg PUBLIC "-//W3C//DTD SVG 1.1//EN" "http://www.w3.org/Graphics/SVG/1.1/DTD/svg11.dtd">
<!-- Created with Vectornator (http://vectornator.io/) -->
<svg height="100%" stroke-miterlimit="10" style="fill-rule:nonzero;clip-rule:evenodd;stroke-linecap:round;stroke-linejoin:round;" version="1.1" viewBox="0 0 32 32" width="100%" xml:space="preserve" xmlns="http://www.w3.org/2000/svg" xmlns:vectornator="http://vectornator.io" xmlns:xlink="http://www.w3.org/1999/xlink">
<defs>
<path d="M1 4C1 2.34315 2.34315 1 4 1L28 1C29.6569 1 31 2.34315 31 4L31 28C31 29.6569 29.6569 31 28 31L4 31C2.34315 31 1 29.6569 1 28L1 4Z" id="Fill"/>
</defs>
<g id="Layer-1" vectornator:layerName="Layer 1">
<g opacity="1" vectornator:layerName="Rectangle 1">
<mask height="30" id="StrokeMask" maskUnits="userSpaceOnUse" width="30" x="1" y="1">
<rect fill="#000000" height="30" stroke="none" width="30" x="1" y="1"/>
<use fill="#ffffff" fill-rule="evenodd" stroke="none" xlink:href="#Fill"/>
</mask>
<use fill="none" mask="url(#StrokeMask)" stroke="#000000" stroke-linecap="butt" stroke-linejoin="round" stroke-width="2" xlink:href="#Fill"/>
</g>
<path d="M5.6241 9.49097C5.50722 9.68684 5.42976 9.90753 5.42976 10.1083L5.42976 21.0405C5.42976 21.4273 5.70152 21.8973 6.03563 22.0922L15.3865 27.5488C15.7258 27.7467 16.2742 27.7467 16.6135 27.5488L25.9644 22.0922C26.1257 21.9981 26.2713 21.8403 26.3797 21.6578L12.9745 13.7968C12.6655 14.3207 12.4753 14.924 12.4753 15.5763C12.4753 17.522 14.0542 19.0972 16 19.0972C17.2501 19.0972 18.3392 18.4441 18.9645 17.4625L21.9405 19.3563C20.6896 21.3182 18.4993 22.6218 16 22.6218C12.1085 22.6218 8.95444 19.4678 8.95444 15.5763C8.95445 14.2754 9.31141 13.0594 9.92611 12.0135L5.6241 9.49097Z" fill="#000000" fill-rule="evenodd" opacity="1" stroke="none" vectornator:layerName="Combined Shape Copy"/>
<path d="M16 3.45519C15.7776 3.45519 15.5562 3.50482 15.3865 3.60379L6.03563 9.05657C5.70152 9.25147 5.42976 9.72146 5.42976 10.1083L5.42976 21.0405C5.42976 21.2525 5.51841 21.4849 5.64696 21.6883L9.9566 19.1848C9.32393 18.1281 8.95444 16.8975 8.95444 15.5763C8.95445 11.6848 12.1085 8.52692 16 8.52692C18.4996 8.52692 20.6897 9.83393 21.9405 11.7963L18.9645 13.6901C18.3392 12.7085 17.2501 12.0516 16 12.0516C14.0542 12.0516 12.4753 13.6305 12.4753 15.5763C12.4753 16.2529 12.6743 16.8801 13.005 17.4167L26.4369 9.62052C26.3265 9.38658 26.1619 9.1718 25.9644 9.05657L16.6135 3.60379C16.4438 3.50482 16.2224 3.45519 16 3.45519Z" fill="#000000" fill-rule="evenodd" opacity="1" stroke="none" vectornator:layerName="Combined Shape"/>
<path d="M26.1473 9.20518L16.0381 15.5953L26.2006 21.9017C26.4177 21.6687 26.5702 21.3306 26.5702 21.0405L26.5702 10.1083C26.5702 9.79596 26.3911 9.43776 26.1473 9.20518ZM21.4299 14.3874L22.2644 14.3874L22.2644 15.1076L23.0151 15.1076L23.0151 15.9421L22.2644 15.9421L22.2644 16.7156L21.4299 16.7156L21.4299 15.9421L20.6793 15.9421L20.6793 15.1076L21.4299 15.1076L21.4299 14.3874ZM24.2497 14.3874L25.0842 14.3874L25.0842 15.1076L25.8348 15.1076L25.8348 15.9421L25.0842 15.9421L25.0842 16.7156L24.2497 16.7156L24.2497 15.9421L23.499 15.9421L23.499 15.1076L24.2497 15.1076L24.2497 14.3874Z" fill="#000000" fill-rule="evenodd" opacity="1" stroke="none" vectornator:layerName="Combined Shape Copy 1"/>
</g>
</svg>
