<?xml version="1.0" encoding="UTF-8" standalone="no"?>
<!DOCTYPE svg PUBLIC "-//W3C//DTD SVG 1.1//EN" "http://www.w3.org/Graphics/SVG/1.1/DTD/svg11.dtd">
<!-- Created with Vectornator (http://vectornator.io/) -->
<svg height="100%" stroke-miterlimit="10" style="fill-rule:nonzero;clip-rule:evenodd;stroke-linecap:round;stroke-linejoin:round;" version="1.1" viewBox="0 0 32 32" width="100%" xml:space="preserve" xmlns="http://www.w3.org/2000/svg" xmlns:vectornator="http://vectornator.io" xmlns:xlink="http://www.w3.org/1999/xlink">
<defs/>
<g id="com.castsoftware.owasp-index" vectornator:layerName="com.castsoftware.owasp-index">
<path d="M0 0L0 32L32 32L32 0L0 0ZM15.9115 2.66538C16.0321 2.6648 16.0333 2.6648 16.1538 2.66538C20.4249 2.74671 24.4047 6.03214 25.2115 10.2423C26.016 14.4402 23.5322 19.0447 19.5654 20.6654C16.2504 22.0198 12.1794 21.2473 9.58462 18.7731C6.66628 15.9911 5.86766 11.2433 7.76154 7.65385C9.31958 4.70099 12.5292 2.72974 15.9115 2.66538ZM5.10385 23.5077C6.928 23.5077 7.13846 24.0735 7.13846 24.9038L7.13846 27.4038C7.13846 28.2419 6.928 28.8 5.10385 28.8C3.28739 28.8 3.07692 28.2419 3.07692 27.4038L3.07692 24.9038C3.07692 24.0735 3.28739 23.5077 5.10385 23.5077ZM17.1692 23.5077C19.0033 23.5077 19.2 24.0652 19.2 24.8846L19.2 28.6769L18.5692 28.6769L18.5692 26.7846L15.7692 26.7846L15.7692 28.6769L15.1385 28.6769L15.1385 24.8846C15.1385 24.0652 15.3353 23.5077 17.1692 23.5077ZM22.2154 23.5077C24.0494 23.5077 24.2462 24.0657 24.2462 24.9038L24.2462 25.0846L23.6154 25.0846L23.6154 24.9731C23.6154 24.3368 23.5299 23.9962 22.2154 23.9962C20.9009 23.9962 20.8154 24.3368 20.8154 24.9731L20.8154 25.1C20.8154 25.4414 20.9395 25.6494 21.4038 25.7269L23.1538 26.0077C23.8701 26.1241 24.2462 26.4789 24.2462 27.1231L24.2462 27.4038C24.2462 28.2341 24.0494 28.8 22.2154 28.8C20.3814 28.8 20.1846 28.2341 20.1846 27.4038L20.1846 26.9923L20.8154 26.9923L20.8154 27.3346C20.8154 27.971 20.9009 28.3115 22.2154 28.3115C23.5299 28.3115 23.6154 27.971 23.6154 27.3346L23.6154 27.2538C23.6154 26.7805 23.3801 26.5968 22.9 26.5192L21.2615 26.2615C20.5138 26.1452 20.1846 25.7358 20.1846 25.1615L20.1846 24.9038C20.1846 24.0657 20.3814 23.5077 22.2154 23.5077ZM25.1077 23.5077L27.4846 23.5077C28.7754 23.5077 29.1692 24.0669 29.1692 24.9038L29.1692 25.7923C29.1692 26.6215 28.7754 27.1885 27.4846 27.1885L25.7385 27.1885L25.7385 28.6769L25.1077 28.6769L25.1077 23.5077ZM8.12308 23.6308L8.73846 23.6308L8.73846 27.3423C8.73846 27.9712 8.84621 28.3077 9.78462 28.3077C10.7077 28.3077 10.8308 27.9712 10.8308 27.3423L10.8308 23.6308L11.4462 23.6308L11.4462 27.3423C11.4462 27.9712 11.5692 28.3077 12.4923 28.3077C13.4307 28.3077 13.5385 27.9712 13.5385 27.3423L13.5385 23.6308L14.1538 23.6308L14.1538 27.4192C14.1538 28.2475 13.9384 28.8 12.4923 28.8C11.6692 28.8 11.3 28.4607 11.1385 28.2C10.9769 28.4607 10.6077 28.8 9.78462 28.8C8.33848 28.8 8.12308 28.2475 8.12308 27.4192L8.12308 23.6308ZM15.9192 3.25C11.9068 3.32664 8.18668 6.40487 7.43077 10.35C6.67661 14.2869 9.00495 18.6042 12.7231 20.1231C15.831 21.3927 19.6442 20.6692 22.0769 18.35C24.8074 15.7464 25.5597 11.2911 23.7846 7.92692C22.3278 5.16597 19.3424 3.31085 16.1462 3.25C16.0327 3.24941 16.0327 3.24942 15.9192 3.25ZM19.45 6.4C19.4694 6.4 19.4882 6.41314 19.5 6.43077C19.5118 6.44899 19.7978 6.88413 19.8231 7.15385C19.8372 7.30839 19.6579 7.69369 19.5615 7.89231C19.6967 7.96635 19.8295 8.06416 19.95 8.18462C20.071 8.30508 20.1677 8.43734 20.2423 8.57308C20.4333 8.48023 20.8003 8.31538 20.9654 8.31538C20.9724 8.31538 20.9787 8.31538 20.9846 8.31538C21.2543 8.34124 21.6895 8.62612 21.7077 8.63846C21.7353 8.65609 21.7451 8.69161 21.7269 8.71923C21.7158 8.73686 21.6963 8.74615 21.6769 8.74615C21.6658 8.74615 21.6523 8.74493 21.6423 8.73846C21.6382 8.73552 21.2128 8.45694 20.9731 8.43462C20.969 8.43403 20.9657 8.43462 20.9615 8.43462C20.8446 8.43462 20.5345 8.56736 20.3 8.68077C20.394 8.68429 20.4887 8.72329 20.5615 8.79615C20.7114 8.946 20.7138 9.18296 20.5692 9.32692C20.5152 9.38098 20.448 9.41458 20.3769 9.42692C20.3446 9.53152 20.2885 9.62687 20.2115 9.70385C20.077 9.83841 19.8962 9.9 19.6923 9.9C19.526 9.9 19.3449 9.85919 19.1692 9.77692C19.2721 10.0449 19.2801 10.3298 19.1885 10.5731C19.4711 10.7576 19.7548 10.9393 19.8 10.9692C19.8746 10.9545 20.3186 10.9 20.5731 10.9C20.6747 10.9 20.7453 10.9111 20.75 10.9346C20.7665 11.0163 19.7346 11.1269 19.7346 11.1269L19.1192 10.8846C19.2509 11.1132 19.3222 11.2959 19.3692 11.35C19.4409 11.3741 20.438 11.6559 20.4115 11.7346C20.4086 11.7434 20.3903 11.7462 20.3615 11.7462C20.1412 11.7462 19.2654 11.5115 19.2654 11.5115L19.0692 11.2885C19.1439 11.5112 19.2146 11.7245 19.2269 11.7615C19.2945 11.8115 19.9109 12.3484 19.8615 12.4154C19.8586 12.4189 19.8559 12.4231 19.85 12.4231C19.7419 12.4231 19.0962 11.8577 19.0962 11.8577L18.7192 11.0769C18.6804 11.0946 18.6417 11.1107 18.6 11.1231C18.7504 11.8887 18.9517 13.0094 19.1115 14.2346C19.3724 16.2384 19.3143 18.3374 19.1538 18.7346C19.1409 18.7663 19.1226 18.7846 19.0962 18.7846C18.7971 18.7846 17.704 16.842 17.5577 16.2885C17.251 15.1297 17.3164 14.6409 17.3346 14.4846C17.3904 14.0063 17.8564 13.7656 17.8846 13.1192C17.8934 12.9194 17.9926 11.9215 18.0731 11.1423C17.8751 11.1035 17.6757 11.0156 17.5 10.8769C18.0277 11.585 17.2519 12.4327 16.1231 13.5615C14.9249 14.7597 12.2654 15.8731 12.2654 15.8731C12.2654 15.8731 13.3788 13.2129 14.5769 12.0154C15.4578 11.1346 16.1678 10.4654 16.7731 10.4654C16.9441 10.4654 17.1058 10.5189 17.2615 10.6346C17.1223 10.4589 17.0349 10.264 16.9962 10.0654C16.2164 10.1459 15.219 10.2456 15.0192 10.2538C14.3729 10.2821 14.1316 10.7436 13.6538 10.8C13.5986 10.8065 13.5055 10.8192 13.3538 10.8192C13.0736 10.8192 12.6021 10.78 11.85 10.5808C11.2483 10.4215 9.00277 9.14503 9.4 8.98462C9.60214 8.90235 10.2471 8.84615 11.0962 8.84615C11.9129 8.84615 12.9219 8.89882 13.9038 9.02692C15.129 9.18675 16.2497 9.38803 17.0154 9.53846C17.0277 9.49733 17.0433 9.45801 17.0615 9.41923L16.2769 9.04231C16.2769 9.04231 15.6522 8.32628 15.7192 8.27692C15.7216 8.27457 15.7267 8.27308 15.7308 8.27308C15.8289 8.27308 16.3287 8.84306 16.3769 8.90769C16.4139 8.92003 16.6267 8.99134 16.85 9.06538L16.6269 8.87308C16.6269 8.87308 16.3245 7.74952 16.4038 7.72308C16.4044 7.72308 16.4065 7.72308 16.4077 7.72308C16.4905 7.72308 16.765 8.6993 16.7885 8.76923C16.8425 8.81683 17.0259 8.88819 17.2538 9.01923L17.0115 8.40385C17.0115 8.40385 17.1228 7.38461 17.2038 7.38462C17.2855 7.40107 17.1898 8.23504 17.1692 8.33846C17.1986 8.3843 17.3809 8.66736 17.5654 8.95C17.6788 8.9071 17.8018 8.88461 17.9269 8.88462C18.0709 8.88462 18.2182 8.91458 18.3615 8.96923C18.1776 8.57788 18.1908 8.16694 18.4346 7.92308C18.5116 7.8461 18.6069 7.79327 18.7115 7.76154C18.7245 7.68985 18.7575 7.62388 18.8115 7.56923C18.8821 7.49872 18.9752 7.46154 19.0692 7.46154C19.1674 7.46154 19.2659 7.50053 19.3423 7.57692C19.4158 7.65037 19.4542 7.74445 19.4577 7.83846C19.5752 7.59578 19.7138 7.26731 19.7038 7.16154C19.6809 6.92179 19.4029 6.50027 19.4 6.49615C19.3824 6.46854 19.3878 6.42975 19.4154 6.41154C19.4254 6.40507 19.4388 6.4 19.45 6.4ZM17.1692 23.9885C15.8548 23.9885 15.7692 24.3258 15.7692 24.9538L15.7692 26.25L18.5692 26.25L18.5692 24.9538C18.5692 24.3258 18.4838 23.9885 17.1692 23.9885ZM5.10385 23.9962C3.80976 23.9962 3.7 24.3367 3.7 24.9731L3.7 27.3346C3.7 27.9709 3.80976 28.3115 5.10385 28.3115C6.4057 28.3115 6.51538 27.9709 6.51538 27.3346L6.51538 24.9731C6.51538 24.3367 6.4057 23.9962 5.10385 23.9962ZM25.7385 23.9962L25.7385 26.7L27.4846 26.7C28.256 26.7 28.5385 26.3586 28.5385 25.7231L28.5385 24.9654C28.5385 24.3299 28.2481 23.9962 27.4846 23.9962L25.7385 23.9962Z" fill="#000000" fill-rule="nonzero" opacity="1" stroke="none"/>
</g>
</svg>
