<?xml version="1.0" encoding="UTF-8"?>
<svg width="100px" height="100px" viewBox="0 0 100 100" version="1.1" xmlns="http://www.w3.org/2000/svg" xmlns:xlink="http://www.w3.org/1999/xlink">
    <title>awslambda</title>
    <g id="awslambda" stroke="none" stroke-width="1" fill="none" fill-rule="evenodd">
        <g id="aws-lambda-1" transform="translate(1.585253, 0.000000)" fill="#FA7E14" fill-rule="nonzero">
            <path d="M48.0299539,52.7396313 C47.6635945,53.2603687 47.3548387,53.6889401 47.0576037,54.1221198 C42.3172043,61.0990783 37.578341,68.0752688 32.8410138,75.0506912 C28.4339478,81.5391705 24.0222734,88.0238095 19.6059908,94.5046083 C19.457775,94.7104285 19.2291116,94.8436061 18.9769585,94.8709677 C12.7419355,94.8172043 6.50844854,94.749616 0.276497696,94.6682028 C0.207373272,94.6682028 0.1359447,94.6474654 -2.60927992e-15,94.6267281 C0.050334494,94.4964503 0.108821938,94.3694709 0.175115207,94.2465438 C4.52380952,87.5046083 8.87250384,80.7642089 13.2211982,74.0253456 C17.078341,68.0529954 20.937788,62.0821813 24.7995392,56.1129032 C29.0791091,49.4800307 33.3563748,42.8425499 37.6313364,36.2004608 C38.2626728,35.2211982 38.9193548,34.2603687 39.5184332,33.2626728 C39.6720489,32.9956034 39.7181866,32.6800549 39.6474654,32.3801843 C38.4953917,28.7073733 37.3202765,25.0437788 36.1474654,21.3801843 C35.6451613,19.8110599 35.1198157,18.2511521 34.6497696,16.6728111 C34.4976959,16.1658986 34.2465438,16.0115207 33.7281106,16.0138249 C29.8110599,16.0299539 25.9170507,16.0253456 22.0115207,16.0253456 C21.2695853,16.0253456 21.2672811,16.0253456 21.2672811,15.2926267 C21.2672811,10.4907834 21.2672811,5.68894009 21.2534562,0.887096774 C21.2534562,0.352534562 21.4285714,0.232718894 21.9308756,0.232718894 C29.7941628,0.246543779 37.6589862,0.246543779 45.5253456,0.232718894 C45.903258,0.184393146 46.258326,0.424064021 46.3548387,0.792626728 C50.5023041,11.2242704 54.6497696,21.6520737 58.797235,32.0760369 C63.6359447,44.2327189 68.4746544,56.390937 73.3133641,68.5506912 C74.8156682,72.3248848 76.3294931,76.0967742 77.8156682,79.8801843 C77.9930876,80.3410138 78.1774194,80.4285714 78.6428571,80.2857143 C82.764977,79.0115207 86.8963134,77.7718894 91.016129,76.4953917 C91.5345622,76.3341014 91.7235023,76.4423963 91.8847926,76.9562212 C93.2903226,81.3732719 94.7235023,85.781106 96.1474654,90.1935484 C96.1958525,90.3456221 96.2327189,90.5 96.2903226,90.7119816 C95.9953917,90.8202765 95.718894,90.9423963 95.4354839,91.0207373 C86.0652842,93.9900154 76.7004608,96.9608295 67.3410138,99.9331797 C66.8940092,100.073733 66.7603687,99.921659 66.6105991,99.5460829 C63.7519201,92.3018433 60.8863287,85.0606759 58.0138249,77.8225806 C55.2043011,70.735023 52.3932412,63.6474654 49.5806452,56.5599078 C49.1589862,55.4953917 48.7442396,54.4262673 48.3225806,53.3617512 C48.2557604,53.1797235 48.1635945,53.0207373 48.0299539,52.7396313 L48.0299539,52.7396313 Z" id="Path"></path>
        </g>
    </g>
</svg>