<svg xmlns="http://www.w3.org/2000/svg" xmlns:xlink="http://www.w3.org/1999/xlink" viewBox="0 0 51 66" fill="#fff" fill-rule="evenodd" stroke="#000" stroke-linecap="round" stroke-linejoin="round"><use xlink:href="#A" x=".5" y=".5"/><symbol id="A" overflow="visible"><path d="M0 32c0-4.39.706-8.53 2.135-12.423s3.488-7.27 6.18-10.164c2.698-2.88 5.97-5.18 9.826-6.87C21.986.855 26.374 0 31.303 0c3.238 0 6.206.3 8.898.866a44.39 44.39 0 0 1 7.863 2.487l-3.58 13.754c-1.618-.63-3.398-1.165-5.32-1.637-1.927-.447-4.085-.678-6.465-.678-5.086 0-8.88 1.575-11.382 4.735-2.51 3.15-3.753 7.314-3.753 12.474 0 5.474 1.173 9.7 3.51 12.716 2.352 3 6.453 4.5 12.31 4.5 2.08 0 4.307-.188 6.707-.568 2.386-.39 4.57-1 6.58-1.857l2.428 14.09c-2.003.86-4.507 1.592-7.517 2.19-3 .63-6.313.937-9.925.937-5.55 0-10.33-.83-14.33-2.484-4.006-1.657-7.297-3.908-9.88-6.76s-4.47-6.217-5.663-10.108C.584 40.775 0 36.557 0 32.009" stroke="none" fill="#003f62" fill-rule="nonzero"/></symbol></svg>