<?xml version="1.0" encoding="UTF-8" standalone="no"?>
<!DOCTYPE svg PUBLIC "-//W3C//DTD SVG 1.1//EN" "http://www.w3.org/Graphics/SVG/1.1/DTD/svg11.dtd">
<!-- Created with Vectornator (http://vectornator.io/) -->
<svg height="100%" stroke-miterlimit="10" style="fill-rule:nonzero;clip-rule:evenodd;stroke-linecap:round;stroke-linejoin:round;" version="1.1" viewBox="0 0 24 24" width="100%" xml:space="preserve" xmlns="http://www.w3.org/2000/svg" xmlns:vectornator="http://vectornator.io" xmlns:xlink="http://www.w3.org/1999/xlink">
<defs/>
<g id="Layer-1" vectornator:layerName="Layer 1">
<path d="M13.5586 13.0234L13.5586 17.2773C13.5586 17.9492 13.4063 18.4531 13.1016 18.7891C12.7969 19.125 12.3945 19.293 11.8945 19.293C11.4102 19.293 11.0176 19.125 10.7168 18.7891C10.416 18.4531 10.2656 17.9492 10.2656 17.2773L10.2656 12.1797C10.2656 11.375 10.2383 10.75 10.1836 10.3047C10.1289 9.85937 9.98047 9.49414 9.73828 9.20898C9.49609 8.92383 9.11328 8.78125 8.58984 8.78125C7.54297 8.78125 6.85352 9.14062 6.52148 9.85938C6.18945 10.5781 6.02344 11.6094 6.02344 12.9531L6.02344 17.2773C6.02344 17.9414 5.87305 18.4434 5.57227 18.7832C5.27148 19.123 4.875 19.293 4.38281 19.293C3.89844 19.293 3.50195 19.123 3.19336 18.7832C2.88477 18.4434 2.73047 17.9414 2.73047 17.2773L2.73047 8.125C2.73047 7.52344 2.86914 7.06641 3.14648 6.75391C3.42383 6.44141 3.78906 6.28516 4.24219 6.28516C4.67969 6.28516 5.04492 6.43164 5.33789 6.72461C5.63086 7.01758 5.77734 7.42187 5.77734 7.9375L5.77734 8.24219C6.33203 7.57812 6.92578 7.08984 7.55859 6.77734C8.19141 6.46484 8.89453 6.30859 9.66797 6.30859C10.4727 6.30859 11.1641 6.46875 11.7422 6.78906C12.3203 7.10938 12.7969 7.59375 13.1719 8.24219C13.7109 7.58594 14.2891 7.09961 14.9062 6.7832C15.5234 6.4668 16.207 6.30859 16.957 6.30859C17.832 6.30859 18.5859 6.48047 19.2188 6.82422C19.8516 7.16797 20.3242 7.66016 20.6367 8.30078C20.9102 8.87891 21.0469 9.78906 21.0469 11.0313L21.0469 17.2773C21.0469 17.9492 20.8945 18.4531 20.5898 18.7891C20.2852 19.125 19.8828 19.293 19.3828 19.293C18.8984 19.293 18.502 19.123 18.1934 18.7832C17.8848 18.4434 17.7305 17.9414 17.7305 17.2773L17.7305 11.8984C17.7305 11.2109 17.7012 10.6602 17.6426 10.2461C17.584 9.83203 17.4258 9.48438 17.168 9.20313C16.9102 8.92187 16.5195 8.78125 15.9961 8.78125C15.5742 8.78125 15.1738 8.90625 14.7949 9.15625C14.416 9.40625 14.1211 9.74219 13.9102 10.1641C13.6758 10.7031 13.5586 11.6562 13.5586 13.0234Z" fill="#000000" opacity="1" stroke="none" vectornator:layerName="Text 1"/>
</g>
</svg>
