<?xml version="1.0" encoding="UTF-8" standalone="no"?>
<!DOCTYPE svg PUBLIC "-//W3C//DTD SVG 1.1//EN" "http://www.w3.org/Graphics/SVG/1.1/DTD/svg11.dtd">
<!-- Created with Vectornator (http://vectornator.io/) -->
<svg height="100%" stroke-miterlimit="10" style="fill-rule:nonzero;clip-rule:evenodd;stroke-linecap:round;stroke-linejoin:round;" version="1.1" viewBox="0 0 28 28" width="100%" xml:space="preserve" xmlns="http://www.w3.org/2000/svg" xmlns:vectornator="http://vectornator.io" xmlns:xlink="http://www.w3.org/1999/xlink">
<defs/>
<clipPath id="ArtboardFrame">
<rect height="28" width="28" x="0" y="0"/>
</clipPath>
<g clip-path="url(#ArtboardFrame)" id="Oracle" vectornator:layerName="Oracle">
<path d="M14-1.19231C6.26801-1.19231 0 5.0757 0 12.8077C0 20.5397 6.26801 26.8077 14 26.8077C21.732 26.8077 28 20.5397 28 12.8077C28 5.0757 21.732-1.19231 14-1.19231ZM14-0.192313C21.1797-0.192313 27 5.62798 27 12.8077C27 19.9874 21.1797 25.8077 14 25.8077C6.8203 25.8077 1 19.9874 1 12.8077C1 5.62798 6.8203-0.192313 14-0.192313Z" fill="#000000" fill-rule="evenodd" opacity="0" stroke="none" vectornator:layerName="Combined Shape"/>
<g opacity="1" vectornator:layerName="Group">
<path d="M8.9375 5.30263C5.65693 5.30263 3 7.95956 3 11.2401L3 11.3651C3 14.6457 5.65693 17.3026 8.9375 17.3026L19.0625 17.3026C22.3431 17.3026 25 14.6457 25 11.3651L25 11.2401C25 7.95956 22.3431 5.30263 19.0625 5.30263L8.9375 5.30263ZM8.96875 7.30263L19.0312 7.30263C21.2183 7.30263 23 9.08433 23 11.2714L23 11.3339C23 13.5209 21.2183 15.3026 19.0312 15.3026L8.96875 15.3026C6.7817 15.3026 5 13.5209 5 11.3339L5 11.2714C5 9.08433 6.7817 7.30263 8.96875 7.30263Z" fill="#000000" fill-rule="evenodd" opacity="1" stroke="none" vectornator:layerName="Combined Shape"/>
</g>
<g fill="#000000" opacity="1" stroke="none">
<path d="M8.675 20.1574L9.73 20.1574C9.86333 20.1574 9.99833 20.1715 10.135 20.1999C10.2717 20.2282 10.3942 20.2765 10.5025 20.3449C10.6108 20.4132 10.6992 20.5057 10.7675 20.6224C10.8358 20.739 10.87 20.8857 10.87 21.0624C10.87 21.249 10.8133 21.4115 10.7 21.5499C10.5867 21.6882 10.435 21.779 10.245 21.8224L10.245 21.8324C10.475 21.859 10.6658 21.9482 10.8175 22.0999C10.9692 22.2515 11.045 22.4574 11.045 22.7174C11.045 22.864 11.0142 22.9982 10.9525 23.1199C10.8908 23.2415 10.8033 23.3449 10.69 23.4299C10.5767 23.5149 10.4383 23.5807 10.275 23.6274C10.1117 23.674 9.92833 23.6974 9.725 23.6974L8.675 23.6974L8.675 20.1574ZM9.035 21.7074L9.76 21.7074C9.84667 21.7074 9.93417 21.6974 10.0225 21.6774C10.1108 21.6574 10.1917 21.6232 10.265 21.5749C10.3383 21.5265 10.3975 21.4624 10.4425 21.3824C10.4875 21.3024 10.51 21.204 10.51 21.0874C10.51 20.974 10.4875 20.8782 10.4425 20.7999C10.3975 20.7215 10.3367 20.6574 10.26 20.6074C10.1833 20.5574 10.0933 20.5215 9.99 20.4999C9.88667 20.4782 9.77667 20.4674 9.66 20.4674L9.035 20.4674L9.035 21.7074ZM9.035 23.3874L9.705 23.3874C9.835 23.3874 9.95917 23.3749 10.0775 23.3499C10.1958 23.3249 10.2992 23.2849 10.3875 23.2299C10.4758 23.1749 10.5467 23.1032 10.6 23.0149C10.6533 22.9265 10.68 22.8207 10.68 22.6974C10.68 22.464 10.6008 22.2899 10.4425 22.1749C10.2842 22.0599 10.06 22.0024 9.77 22.0024L9.035 22.0024L9.035 23.3874Z"/>
<path d="M11.855 20.1574L12.855 20.1574C13.035 20.1574 13.1983 20.1765 13.345 20.2149C13.4917 20.2532 13.6175 20.3115 13.7225 20.3899C13.8275 20.4682 13.9083 20.5665 13.965 20.6849C14.0217 20.8032 14.05 20.9424 14.05 21.1024C14.05 21.2624 14.0208 21.4015 13.9625 21.5199C13.9042 21.6382 13.8225 21.7365 13.7175 21.8149C13.6125 21.8932 13.4858 21.9524 13.3375 21.9924C13.1892 22.0324 13.025 22.0524 12.845 22.0524L12.215 22.0524L12.215 23.6974L11.855 23.6974L11.855 20.1574ZM12.215 21.7474L12.825 21.7474C13.1083 21.7474 13.3233 21.6924 13.47 21.5824C13.6167 21.4724 13.69 21.3124 13.69 21.1024C13.69 20.8824 13.6142 20.7215 13.4625 20.6199C13.3108 20.5182 13.0983 20.4674 12.825 20.4674L12.215 20.4674L12.215 21.7474Z"/>
<path d="M15.115 23.3774L17.01 23.3774L17.01 23.6974L14.755 23.6974L14.755 20.1574L16.95 20.1574L16.95 20.4774L15.115 20.4774L15.115 21.6974L16.83 21.6974L16.83 22.0124L15.115 22.0124L15.115 23.3774Z"/>
<path d="M18.075 23.3774L19.725 23.3774L19.725 23.6974L17.715 23.6974L17.715 20.1574L18.075 20.1574L18.075 23.3774Z"/>
</g>
</g>
</svg>
