<?xml version="1.0" encoding="UTF-8"?>
<svg width="128px" height="128px" viewBox="0 0 128 128" version="1.1" xmlns="http://www.w3.org/2000/svg" xmlns:xlink="http://www.w3.org/1999/xlink">
    <title>abap-plain</title>
    <g id="abap-plain" stroke="none" stroke-width="1" fill="none" fill-rule="evenodd">
        <g id="SAP_2011_logo" transform="translate(0.000000, 0.000000)" fill="#000000">
            <path d="M127.938413,0.00712502718 L64.6539216,63.2916164 L0,63.2916164 L0,0.00712502718 L127.938413,0.00712502718 Z M17.4278165,11.2333179 L17.3993164,11.2333179 C12.0398709,11.2333179 7.57390389,12.9803745 4.80369332,15.8403604 C2.87851098,17.8410681 1.83683201,20.3718777 1.78980683,23.1891135 C1.71855656,27.0480282 3.13928698,29.7868886 6.11327332,31.977122 C8.62983292,33.821079 11.8403702,35.0081085 14.676131,35.8973119 C18.1745193,36.9760411 21.0302302,37.9179696 20.9974551,39.9258023 C20.968955,40.6568301 20.696779,41.3422577 20.1681019,41.8837598 C19.2974236,42.7886382 17.9593435,43.1235145 16.1082614,43.1648397 C12.5400478,43.2360899 9.89381274,42.6803378 5.67864666,40.1894283 L1.78980683,47.9172328 C5.99214786,50.3098169 10.9668418,51.7091723 16.0441362,51.7091723 L16.7010637,51.7091723 C21.1185806,51.6236719 24.6867942,50.3625421 27.5382301,48.0711334 L27.9999318,47.6678568 L26.740227,51.0536698 L38.1758956,51.0536698 L40.096803,45.2125725 C42.1060606,45.8923001 44.3946194,46.2742015 46.8171286,46.2742015 C49.1812126,46.2742015 51.4113461,45.9179502 53.3849786,45.2681477 L55.2317857,51.0536698 L73.8908069,51.0536698 L73.8908069,38.9553736 L77.9620474,38.9553736 C87.7945849,38.9553736 93.6171571,33.9507545 93.6171571,25.5517725 C93.6171571,16.2037368 87.9627356,11.9158955 75.9242896,11.9158955 L75.9257146,11.9030704 L63.3329416,11.9030704 L63.3329416,41.8467096 L52.3318996,11.9030704 L41.427758,11.9030704 L32.0284222,36.9375659 C31.0351934,30.6276418 24.4986935,28.4431085 19.3601239,26.8143273 C15.9728859,25.7241981 12.3676222,24.122492 12.4003973,22.3483603 C12.4288974,20.8977047 14.3369797,19.5524996 18.100419,19.7534254 L18.3302561,19.7653484 L18.3302561,19.7653484 L18.7866561,19.7917121 C21.0619219,19.935037 23.277982,20.2821024 27.3159292,22.2343598 L31.6906959,14.6134307 C27.6379804,12.5428978 22.022034,11.2432929 17.4278165,11.2333179 Z M46.8598788,24.2222424 L50.7715187,36.8534906 C49.5930392,37.2752922 48.2521091,37.5346432 46.8185536,37.5346432 L46.8142786,37.5346432 C45.346523,37.5346432 43.9699677,37.2667422 42.7800882,36.8192905 L46.7743784,24.2222424 L46.8598788,24.2222424 Z M76.6610174,20.1424518 C80.3631816,20.1424518 83.3100928,21.3622565 83.3100928,25.1484959 C83.3100928,29.0587109 80.3631816,30.2842155 76.6610174,30.2842155 L73.8879569,30.2842155 L73.8879569,20.1424518 L76.6610174,20.1424518 Z" id="Combined-Shape"></path>
            <path d="M81.8933524,56.8220918 L81.8933524,61.5424223 L82.6058551,61.5424223 L82.6058551,59.493977 L83.4072782,59.493977 L84.6987606,61.5424223 L85.5003262,61.5424223 L84.1197809,59.493977 C84.809626,59.4084766 85.3666606,59.0073376 85.3666606,58.1580344 C85.3666606,57.2275058 84.7972285,56.8220918 83.6746092,56.8220918 L81.8933524,56.8220918 L81.8933524,56.8220918 Z M82.6058551,57.4455316 L83.5854039,57.4455316 C84.0671982,57.4455316 84.6096978,57.5239069 84.6096978,58.1134317 C84.6096978,58.850302 84.0603582,58.9151397 83.4518808,58.9151397 L82.6058551,58.9151397 L82.6058551,57.4455316 L82.6058551,57.4455316 Z M83.4964835,55.0852951 C81.2364249,55.0852951 79.3103875,56.8267943 79.3103875,59.1821858 C79.3103875,61.5548198 81.2362824,63.3236791 83.4964835,63.3236791 C85.725192,63.3236791 87.5933741,61.5551048 87.5933741,59.1821858 C87.5933741,56.8267943 85.725192,55.0852951 83.4964835,55.0852951 L83.4964835,55.0852951 Z M83.4964835,55.7533377 C85.340298,55.7533377 86.7916661,57.2428959 86.7916661,59.1821858 C86.7916661,61.1546783 85.340298,62.6111763 83.4964835,62.6111763 C81.6210339,62.6111763 80.1120956,61.1546783 80.1120956,59.1821858 C80.1120956,57.2428959 81.6210339,55.7533377 83.4964835,55.7533377 L83.4964835,55.7533377 Z" id="path5384"></path>
        </g>
        <g id="ABAP" transform="translate(4.879199, 82.798828)" fill="#000000" fill-rule="nonzero">
            <path d="M19.4824219,22.7109375 L9.90820312,22.7109375 L8.59082031,27.2011719 L0,27.2011719 L10.2236328,0 L19.3896484,0 L29.6132812,27.2011719 L20.8183594,27.2011719 L19.4824219,22.7109375 Z M17.7197266,16.8291016 L14.7138672,7.05078125 L11.7265625,16.8291016 L17.7197266,16.8291016 Z" id="Shape"></path>
            <path d="M33.0347656,0 L48.7691406,0 C51.3915364,0 53.40472,0.649414062 54.8086914,1.94824219 C56.2126627,3.24707031 56.9146484,4.85514323 56.9146484,6.77246094 C56.9146484,8.38053385 56.4136719,9.75976562 55.4117187,10.9101562 C54.74375,11.6770833 53.7665364,12.2832031 52.4800781,12.7285156 C54.4345052,13.1985677 55.8724935,14.0056966 56.7940429,15.1499023 C57.7155924,16.2941081 58.1763672,17.7320964 58.1763672,19.4638672 C58.1763672,20.8740234 57.8485677,22.1419271 57.1929687,23.2675781 C56.5373698,24.3932292 55.6405599,25.2838542 54.502539,25.9394531 C53.7974609,26.3476562 52.7336588,26.6445312 51.3111328,26.8300781 C49.4185547,27.077474 48.1630208,27.2011719 47.5445312,27.2011719 L33.0347656,27.2011719 L33.0347656,0 Z M41.5142578,10.6689453 L45.1695312,10.6689453 C46.4807291,10.6689453 47.3930013,10.4431966 47.9063476,9.99169922 C48.419694,9.54020182 48.6763672,8.88769531 48.6763672,8.03417969 C48.6763672,7.24251302 48.419694,6.62402344 47.9063476,6.17871094 C47.3930013,5.73339844 46.4992838,5.51074219 45.2251953,5.51074219 L41.5142578,5.51074219 L41.5142578,10.6689453 Z M41.5142578,21.3564453 L45.8003906,21.3564453 C47.2476562,21.3564453 48.268164,21.0997721 48.861914,20.5864258 C49.455664,20.0730794 49.752539,19.3834635 49.752539,18.5175781 C49.752539,17.7135417 49.4587565,17.0672201 48.8711914,16.5786133 C48.2836263,16.0900065 47.2538411,15.8457031 45.7818359,15.8457031 L41.5142578,15.8457031 L41.5142578,21.3564453 Z" id="Shape"></path>
            <path d="M79.3732421,22.7109375 L69.7990234,22.7109375 L68.4816406,27.2011719 L59.8908203,27.2011719 L70.1144531,0 L79.2804687,0 L89.5041015,27.2011719 L80.7091796,27.2011719 L79.3732421,22.7109375 Z M77.6105468,16.8291016 L74.6046875,7.05078125 L71.6173828,16.8291016 L77.6105468,16.8291016 Z" id="Shape"></path>
            <path d="M92.8699218,0 L106.841602,0 C109.88457,0 112.163704,0.723632812 113.679004,2.17089844 C115.194303,3.61816406 115.951953,5.67773438 115.951953,8.34960938 C115.951953,11.0957031 115.126269,13.241862 113.474902,14.7880859 C111.823535,16.3343099 109.30319,17.1074219 105.913867,17.1074219 L101.312305,17.1074219 L101.312305,27.2011719 L92.8699218,27.2011719 L92.8699218,0 Z M101.312305,11.5966797 L103.371875,11.5966797 C104.992318,11.5966797 106.130338,11.3152669 106.785937,10.7524414 C107.441536,10.1896159 107.769336,9.46907552 107.769336,8.59082031 C107.769336,7.73730469 107.484831,7.01367188 106.91582,6.41992188 C106.34681,5.82617188 105.276823,5.52929688 103.705859,5.52929688 L101.312305,5.52929688 L101.312305,11.5966797 Z" id="Shape"></path>
        </g>
    </g>
</svg>