<?xml version="1.0" encoding="utf-8"?>
<!-- Generator: Adobe Illustrator 15.0.2, SVG Export Plug-In  -->
<!DOCTYPE svg PUBLIC "-//W3C//DTD SVG 1.1//EN" "http://www.w3.org/Graphics/SVG/1.1/DTD/svg11.dtd" [
	<!ENTITY ns_flows "http://ns.adobe.com/Flows/1.0/">
]>
<svg version="1.1"
	 xmlns="http://www.w3.org/2000/svg" xmlns:xlink="http://www.w3.org/1999/xlink" xmlns:a="http://ns.adobe.com/AdobeSVGViewerExtensions/3.0/"
	 x="0px" y="0px" width="256px" height="256px" viewBox="-0.487 -6.342 256 256"
	 overflow="visible" enable-background="new -0.487 -6.342 256 256" xml:space="preserve">
<defs>
</defs>
<path fill="#243446" d="M252.669,54.56c-0.81,0.764-1.552,1.224-0.203-0.65c0.04-0.024,0.062-0.04,0.096-0.065
	c-0.28-1.774-0.596-3.5-0.96-5.143c-0.408-1.829-0.913-3.588-1.476-5.305c-0.34-0.236-0.76-0.527-1.322-0.473
	c0.105-0.531,0.432-0.833,0.81-0.962c-0.702-1.965-1.514-3.849-2.41-5.668c-0.696,0.577-2.164,0.375-3.28,0.528
	c0.163-1.202,1.624-1.114,2.938-1.168C235.12,12.654,208.314,1.511,180.686,0.136c-10.075-0.498-18.938,0.383-27.407,2.459
	c0.104,0.016,0.18,0.025,0.293,0.04c-0.384,3.479-6.459,0.424-2.443,4.881c-0.963,2.806-4.268-2.1-6.106-2.441
	c-1.322,0.301-0.829,2.426-2.438,2.441c0.621,1.553,8.276,0.81,8.545,6.103c-2.902-1.982-7.021-2.746-9.767-4.881
	c-2.495,0.879-4.832,3.827-7.328,1.219c0.039-0.273,0.158-0.46,0.308-0.612c-1.873,0.863-3.766,1.785-5.674,2.76
	c0.404,0.267,0.922,0.415,1.707,0.297c-1.034,1.813-3.932,1.764-6.105,2.44c-0.131-0.065-0.24-0.144-0.334-0.238
	c-2.704,1.476-5.446,3.027-8.279,4.7c-0.206,0.232-0.52,0.408-0.781,0.468c-0.614,0.365-1.243,0.745-1.864,1.119
	c0.092,0.014,0.16,0.054,0.268,0.054c-0.23,0.99-1.222,1.216-1.222,2.44c-0.688-0.163-1.019-0.682-1.564-0.986
	c-2.426,1.479-4.945,3.046-7.51,4.653c0.221-0.084,0.428-0.103,0.528-0.004c0.632,0.632-0.88,1.557-1.222,1.223
	c-0.281-0.283-0.129-0.617,0.148-0.878c-1.036,0.646-2.055,1.282-3.117,1.953c-0.311,0.193-0.594,0.375-0.897,0.568
	c0.897-0.046,2.075-0.188,3.865-0.42c-0.656,1.637-3.919,2.722-6.513,2.099c-3.104,1.978-6.019,3.871-8.771,5.71
	c-0.577,0.517-1.133,0.922-1.749,1.168c-0.824,0.552-1.615,1.104-2.412,1.651c0.633,0.675,1.41,1.213,2.35,1.578
	c-1.125,2.391-4.352,2.686-6.504,1.336c-0.265,0.187-0.534,0.379-0.796,0.566c0.3,0.438,0.36,1.026-0.023,1.76
	c-0.577-0.482-0.958-0.72-1.264-0.814c-10.526,7.721-18.985,15.349-28.371,25.772c0.743,0.408,1.583,0.719,2.774,0.679
	c-0.037,4.873-2.536,3.13-5.66,2.588c-1.522,1.746-3.062,3.54-4.659,5.452C33.939,87.138,29.645,94.16,29.645,94.16
	C2.051,131.266-10.378,180.3,10.362,212.803c11.536,18.078,49.263,32.713,77.981,28.405c7.079-1.065,16.134-2.612,25.666-4.687
	c0.059-0.089,0.159-0.14,0.196-0.247c0.18,0,0.298,0.067,0.43,0.112c13.522-2.965,27.944-6.985,39.091-12.232
	c17.648-8.299,30.075-22.848,43.34-36.95c0.005-0.472,0.189-0.968,0.522-1.357c0.155,0.101,0.325,0.187,0.517,0.251
	c4.031-4.26,8.155-8.461,12.54-12.422c-0.196-0.096-0.374-0.206-0.529-0.353c-0.932,0.498-2.062,0.793-3.629,0.654
	c-0.418-0.851-0.718-0.988-0.33-1.976c-0.531-1.001-1.672-1.401-2.634-1.977c-0.146-1.135,0.129-1.849,0.331-2.638
	c0.08-1.51-1.493-1.361-1.322-2.96c0.752-0.245,1.688-0.298,2.309-0.664c0.292-0.681-0.854-1.48-0.986-0.658
	c-0.724-1.177,1.101-2.625,1.315-3.957c0.796-0.131,0.717,0.604,1.648,0.33c1.211-0.215,1.643-1.211,2.307-1.978
	c1.539,0.218,4.186-0.67,4.284,0.986c0.771-0.551,1.396-1.24,2.309-1.647c0.686,0.188,0.699,0.52,0.33,0.994
	c0.345,0.859,1.342,1.072,2.64,0.984c0.272,0.386,0.431,0.889,0.328,1.652c0.256,0.724,1.149,0.824,1.647,1.317
	c-0.194,1.527,1.331,1.331,1.613,2.38c3.801-3.022,7.207-5.989,10.238-8.941c-0.44-0.351-0.44-0.968,0.417-1.198
	c0.201-0.052,0.483,0.01,0.742,0.039c16.692-16.729,21.688-32.994,21.257-55.11C254.629,83.426,254.625,67.448,252.669,54.56z
	 M1.491,166.4c0.054-1.482,1.868-1.212,1.977-2.637C6.77,164.052,3.906,168.163,1.491,166.4z M225.278,130.804
	c-0.839-0.033-0.781-1.227-0.331-1.643c0.331,0,0.661,0,0.992,0C226.211,130.21,225.646,130.411,225.278,130.804z M225.278,53.026
	c-0.74,0.64-2.371,0.178-2.309-0.991C223.635,51.467,225.785,51.416,225.278,53.026z M224.947,83.018
	c-0.172-0.169,0.235-0.42,0.331-0.332C225.446,82.858,225.033,83.11,224.947,83.018z M223.166,89.317
	c-0.034,1.188-1.492,0.948-2.443,1.224C220.755,89.348,222.217,89.594,223.166,89.317z M225.608,146.7
	c-0.033,1.188-1.494,0.953-2.442,1.222C223.199,146.733,224.659,146.979,225.608,146.7z M220.722,16.066
	c3.952,1.507,0.937-3.956,4.886-2.447c-1.25,6.981-6.179,3.56-9.769,1.224C217.039,11.101,219.099,16.247,220.722,16.066z
	 M217.365,11.5c-1.312,0.103-2.438,0.019-2.965-0.661C214.634,8.663,218.539,9.636,217.365,11.5z M207.29,38.04
	c-0.031,1.188-1.492,0.946-2.44,1.222C204.885,38.074,206.344,38.315,207.29,38.04z M203.63,35.599
	c0.63,0.631-0.884,1.558-1.222,1.223C201.78,36.186,203.293,35.258,203.63,35.599z M199.241,21.387
	c2.055-0.081,3.466,0.486,3.623,2.305c-0.955,0.43-2.339,0.43-3.298,0C199.46,22.921,199.049,22.456,199.241,21.387z
	 M196.304,28.273c0.633,0.63-0.881,1.557-1.222,1.222C194.454,28.864,195.965,27.932,196.304,28.273z M191.329,29.629
	c0.172,0.166-0.238,0.418-0.331,0.327C190.831,29.786,191.237,29.535,191.329,29.629z M182.875,25.832
	c-0.542,1.774-1.072-0.124-2.443,0C180.733,24.293,182.86,24.6,182.875,25.832z M179.212,7.516c0.63,0.631-0.884,1.558-1.221,1.222
	C177.357,8.103,178.875,7.177,179.212,7.516z M177.992,24.609c-0.036,1.189-1.497,0.946-2.443,1.223
	C175.58,24.644,177.045,24.884,177.992,24.609z M174.33,23.387c-0.234,1.39-1.231,0.681-1.227,0
	C173.336,22.001,174.334,22.71,174.33,23.387z M173.103,3.853c0.633,0.631-0.881,1.558-1.217,1.222
	C171.254,4.444,172.768,3.519,173.103,3.853z M169.445,11.179C166.563,15.104,164.506,6.885,169.445,11.179L169.445,11.179z
	 M168.223,16.066c-0.633-0.636,0.883-1.563,1.222-1.223C170.071,15.474,168.558,16.4,168.223,16.066z M168.223,22.169
	C165.342,26.098,163.29,17.875,168.223,22.169L168.223,22.169z M163.336,14.843c0.633,0.631-0.881,1.557-1.218,1.223
	C161.489,15.43,163.002,14.503,163.336,14.843z M159.675,8.738c0.036-1.188,1.492-0.946,2.443-1.222
	C162.086,8.704,160.624,8.462,159.675,8.738z M160.9,1.411c-0.037,1.185-1.495,0.946-2.443,1.224
	C158.487,1.442,159.951,1.685,160.9,1.411z M159.675,11.179c0.631,0.632-0.883,1.558-1.219,1.224
	C157.824,11.766,159.337,10.839,159.675,11.179z M158.457,22.169c0.63,0.631-0.886,1.558-1.222,1.218
	C156.603,22.755,158.117,21.829,158.457,22.169z M156.013,16.066c0.034-1.193,1.492-0.952,2.443-1.223
	C158.423,16.031,156.961,15.789,156.013,16.066z M157.235,2.635c0.63,0.631-0.884,1.557-1.222,1.218
	C155.381,3.222,156.895,2.295,157.235,2.635z M152.439,5.569c0.428,0.147,0.754,0.4,1.041,0.689c0.028,0.015,0.07,0.015,0.092,0.04
	c0.071,0.07,0.104,0.144,0.129,0.221c0.436,0.584,0.682,1.355,0.714,2.344c-1.021-0.3-1.815-0.821-2.637-1.317
	C151.694,6.581,152.527,6.53,152.439,5.569z M146.246,13.619c0.629,0.631-0.885,1.558-1.224,1.224
	C144.391,14.211,145.908,13.284,146.246,13.619z M147.469,20.946c-0.036,1.188-1.499,0.946-2.447,1.223
	C145.057,20.981,146.519,21.22,147.469,20.946z M145.022,17.283C149.12,14.335,142.076,21.379,145.022,17.283L145.022,17.283z
	 M139.254,12.815c-0.01,0.322-0.404,0.257-0.661,0.332C138.603,12.825,138.996,12.89,139.254,12.815z M138.919,14.843
	c-1.265,1.01-2.203-1.085-2.44-1.224C131.776,10.897,139.768,14.162,138.919,14.843z M134.034,12.403
	c0.633,0.631-0.881,1.556-1.216,1.216C132.185,12.989,133.699,12.062,134.034,12.403z M129.154,17.283
	c1.187,0.035,0.943,1.498,1.221,2.445c1.97,0.339,2.103-1.159,3.659-1.223c-0.896-1.139-2.217-1.849-3.659-2.44
	c1.97-3.817,3.865,2.503,6.104,2.44c-2.864,3.244-13.979,3.362-18.315,1.223C119.866,14.493,127.051,20.296,129.154,17.283z
	 M116.943,23.387c0.631,0.631-0.882,1.558-1.224,1.222C115.09,23.978,116.605,23.05,116.943,23.387z M113.279,29.495
	c1.602,0.43,1.92,2.149,3.664,2.44c0.225,1.041-0.479,1.155-1.224,1.224c-0.813,0-1.626,0-2.44,0
	C113.279,31.935,113.279,30.714,113.279,29.495z M112.058,35.599c-0.981-0.646-1.98-1.272-3.662-1.222
	C108.773,31.018,112.636,31.803,112.058,35.599z M110.839,27.05c-1.037,3.583-3.074-1.588-6.106,0
	C105.046,24.195,110.096,26.35,110.839,27.05z M104.733,31.935c0.244-0.033,1.309-1.844,2.443-1.221
	C111.197,32.921,96.527,33.159,104.733,31.935z M91.303,45.365c-0.035,1.189-1.496,0.946-2.443,1.217
	C88.895,45.401,90.354,45.641,91.303,45.365z M85.196,45.365c-0.031,1.189-1.493,0.946-2.44,1.217
	C82.791,45.401,84.25,45.641,85.196,45.365z M77.952,47.751c0.914-0.488,1.676,0.186,2.968-0.329
	c0.958,0.693,2.91,0.388,2.967,1.978c-0.807,0.293-1.428,0.768-2.637,0.658c-0.68,0.506-1.933,1.531-2.967,0.662
	c-0.05-0.819-0.06-1.6,0.66-1.646C79.037,48.205,77.662,48.811,77.952,47.751z M77.873,53.91c-0.233,1.384-1.225,0.675-1.22,0
	C76.885,52.523,77.875,53.233,77.873,53.91z M69.327,52.691c1.804,0.632,3.076,1.806,4.882,2.441
	C74.813,56.735,68.151,55.664,69.327,52.691z M67.738,55.004c-1.002,0.014-2.169,0.193-1.978-0.989
	C66.514,53.301,67.816,53.896,67.738,55.004z M65.664,62.458c1.503-0.873,2.677-1.276,1.219,0
	C65.462,63.701,63.992,63.425,65.664,62.458z M65.664,72.226c-0.035,1.188-1.494,0.946-2.443,1.221
	C63.252,72.259,64.718,72.496,65.664,72.226z M60.777,68.562c0.633,0.632-0.882,1.559-1.22,1.224
	C58.927,69.149,60.443,68.222,60.777,68.562z M56.861,78.732c-1.298-0.083-2.731,0.976-2.968-0.66
	C54.49,77.644,57.167,77.243,56.861,78.732z M53.453,77.111c-0.183,3.036-4.132,0.355-4.881,0
	C48.753,74.075,52.703,76.75,53.453,77.111z M44.909,90.542c-0.137,2.301-4.041,0.847-3.664,3.662
	c-0.989-0.231-1.218-1.228-2.44-1.223c0-0.812,0-1.627,0-2.439C41.132,88.249,41.013,91.261,44.909,90.542z M38.805,96.643
	c-0.634-0.629,0.882-1.556,1.217-1.222C40.656,96.052,39.139,96.979,38.805,96.643z M38.805,88.096
	c-0.542,1.774-1.076-0.125-2.443,0C36.663,86.562,38.789,86.868,38.805,88.096z M37.582,92.98c-0.381,1.658-3.056,1.011-4.883,1.223
	C33.039,91.369,35.958,91.394,37.582,92.98z M27.815,107.632c-0.034,1.184-1.495,0.947-2.443,1.219
	C25.404,107.663,26.868,107.905,27.815,107.632z M17.972,215.839c-0.448,0.321-0.661,0.881-0.99,1.32
	c-0.952-0.357-1.093-1.003-0.659-1.979c1.062-0.073,1.392,0.582,2.634,0.326C18.775,216.191,18.445,216.206,17.972,215.839z
	 M17.972,209.244c0.764-0.103,1.262,0.055,1.646,0.332C19.588,210.557,17.651,210.458,17.972,209.244z M19.618,218.474
	c0.658,0,1.317,0,1.977,0C22.02,220.452,19.381,219.913,19.618,218.474z M19.618,192.439c0-0.223,0-0.441,0-0.664
	c0.661-0.109,1.03,0.07,0.989,0.664C20.276,192.439,19.949,192.439,19.618,192.439z M24.892,223.091
	c-1.608,0.328-0.609-1.758,0-0.664C24.892,222.65,24.892,222.865,24.892,223.091z M24.563,215.507
	c0.168,0.173-0.242,0.426-0.331,0.332C24.061,215.669,24.469,215.416,24.563,215.507z M28.848,222.758c0-0.331,0-0.658,0-0.986
	c0.686-0.142,0.874,0.225,1.317,0.328C30.085,222.681,29.598,222.852,28.848,222.758z M35.438,223.091
	c-0.592,0.038-0.694-0.405-1.322-0.333c0-0.549,0-1.1,0-1.645c1.233-0.034,0.942-0.369,1.978,0
	C36.253,222.147,35.626,222.398,35.438,223.091z M36.755,212.874c-0.507-1.613,1.643-1.563,2.308-0.99
	C39.28,213.195,37.811,212.829,36.755,212.874z M49.278,232.974c0.063-0.265,0.331-0.325,0.331-0.656c0.222,0,0.438,0,0.661,0
	C50.423,233.02,49.797,232.945,49.278,232.974z M53.893,228.689c-0.381-0.05-0.586,0.074-0.661,0.329
	c-0.839-0.034-0.773-1.227-0.326-1.646C53.385,227.66,54.184,227.634,53.893,228.689z M56.861,225.397
	c-2.076,0.206-2.56-1.179-3.955-1.648c-0.044-0.813-0.048-1.587,0.326-1.978c1.823-0.4,1.154,1.708,2.639,1.647
	c1.077-0.46,1.561-1.511,2.306-2.306c1,0.103,1.341,1.857,0.661,2.636C58.039,224.332,56.314,222.976,56.861,225.397z
	 M57.518,232.974c-0.547,0-1.094,0-1.646,0c-0.612-0.706-0.879-1.755-0.987-2.964c0.591,0.041,0.694-0.405,1.316-0.33
	c0.353-1.231-0.819-0.939-0.656-1.977c1.07-0.599,2.238-2.648,3.624-0.991c0.217,1.978-0.299,3.221-0.33,4.945
	c-1.042,0.165-1.164-0.592-2.309-0.328C56.18,232.556,57.768,231.852,57.518,232.974z M59.168,239.239
	c-0.482-0.951-0.922-1.947,0-2.634c1.01,0.627,1.721,1.57,2.638,2.306C61.58,240.113,60.49,238.837,59.168,239.239z M61.146,227.372
	c0.153,1.03-0.287,1.472-1.322,1.317c0-0.439,0-0.879,0-1.317C60.267,227.372,60.707,227.372,61.146,227.372z M60.153,223.091
	C61.372,224.09,59.154,224.199,60.153,223.091L60.153,223.091z M60.485,234.625c1.127-0.138,1.877,0.101,1.646,1.317
	C61.313,236.723,60.066,236.075,60.485,234.625z M61.806,230.668c-0.172-0.17,0.236-0.419,0.326-0.325
	C62.304,230.507,61.896,230.759,61.806,230.668z M62.462,230.668c-0.06-1.156,1.115-1.082,1.322-1.979
	c1.202,0.499,1.611,1.974,0.654,2.968C63.167,231.942,63.265,230.853,62.462,230.668z M64.438,238.911
	c-0.684-0.656-0.01-1.41,0.661-1.655c-0.103-0.771-1.144-0.607-0.99-1.645c1.45-0.346,1.084,1.116,2.312,0.994
	C66.012,237.622,65.69,238.731,64.438,238.911z M72.021,231.985c-0.862,0.096-1.42-0.119-1.322-0.988
	C71.563,230.91,72.351,230.886,72.021,231.985z M79.274,234.95c0.478-3.003-3.983-1.07-3.299-4.282
	c3.412-0.554,4.862,0.853,5.276,3.298C80.442,234.148,80.547,235.242,79.274,234.95z M83.229,228.359
	c-0.662,0.335-0.524,1.458-1.653,1.32c-0.269-1.045-1.05-1.581-1.646-2.308c0.144-2.559,3.649-2.243,4.615-0.66
	C84.524,227.68,83.791,227.942,83.229,228.359z M89.159,232.648c-0.69,0.137-0.872-0.227-1.316-0.331
	c0.173-0.265,0.34-0.535,0.33-0.988c0.327,0,0.656,0,0.987,0C89.159,231.768,89.159,232.205,89.159,232.648z M89.489,238.911
	c-0.173-0.175,0.237-0.424,0.332-0.331C89.987,238.746,89.578,239,89.489,238.911z M89.489,211.884
	c0.488-0.173,0.828-0.49,1.315-0.661c1.035-0.151,0.933,0.83,1.322,1.319c1.332-0.235,1.879,0.318,1.647,1.647
	c-1.07,0.028-2.026,0.17-2.637,0.663C90.213,214.234,89.864,213.047,89.489,211.884z M92.782,222.758
	c-0.379,0.278-0.883,0.437-1.646,0.333c-0.45-0.426-0.45-1.56,0-1.978c0.439,0,0.877,0,1.316,0
	C92.319,221.908,93.059,221.826,92.782,222.758z M94.765,232.974c-0.691,0.143-0.873-0.222-1.321-0.325
	C93.502,231.693,95.01,231.852,94.765,232.974z M96.411,231.657c0.06-0.373,0.329-0.182,0.329,0
	C96.677,232.033,96.411,231.841,96.411,231.657z M105.641,234.95c-1.691,0.264-2.396-0.458-3.958-0.325
	c-0.499-1.48-2.328-1.631-2.633-3.296c1.716-1.433,4.318,0.014,6.916-0.332C106.795,232.462,105.483,233.226,105.641,234.95z
	 M101.356,211.223c0.384-0.381,1.163-0.372,1.971-0.326c-0.572,0.63-0.384,2.026-1.646,1.978
	C101.405,212.489,101.248,211.986,101.356,211.223z M103.989,218.804c0-0.223,0-0.438,0-0.658c0.281,0.06,0.31-0.13,0.332-0.33
	C104.96,217.684,104.802,219.319,103.989,218.804z M107.617,231.657c0.049-0.386,0.601-0.275,0.987-0.328
	C108.55,231.715,108.002,231.606,107.617,231.657z M107.286,211.55c0.011-0.318,0.405-0.254,0.657-0.327
	C107.939,211.541,107.544,211.478,107.286,211.55z M109.595,232.974c0-0.218,0-0.438,0-0.656c0.699-0.157,0.626,0.468,0.655,0.987
	C109.985,233.24,109.925,232.974,109.595,232.974z M109.595,215.181c0.438,0,0.878,0,1.316,0
	C111.295,216.325,109.072,216.708,109.595,215.181z M112.557,214.853c-1.257-0.064-2.164-0.47-2.308-1.652
	C111.418,212.278,112.794,213.342,112.557,214.853z M117.173,210.896c-1.249,0.282-1.164-1.478-0.658-1.983
	C117.759,208.633,117.68,210.394,117.173,210.896z M117.833,208.913c-0.903-0.005-0.785-1.552-0.332-1.975
	c0.766-0.104,1.268,0.054,1.646,0.33C119.292,208.398,118.164,208.257,117.833,208.913z M118.819,224.734
	c1.233-0.131,1.938,0.268,1.982,1.324C119.941,226.812,118.567,226.092,118.819,224.734z M122.117,216.495
	c-0.863,0.096-1.42-0.117-1.316-0.988c0.274,0.063,0.311-0.13,0.325-0.326C121.999,215.077,122.209,215.636,122.117,216.495z
	 M123.764,221.113c-1.263-0.178-1.791-1.289-1.316-2.31c1.287,0.032,2.233,0.405,1.977,1.98
	C124.039,220.729,123.838,220.856,123.764,221.113z M126.071,224.405c-0.73-0.038-0.139-1.394-0.331-1.979
	C126.919,222.71,125.78,223.241,126.071,224.405z M125.085,217.159c0-0.33,0-0.664,0-0.994c0.325,0,0.655,0,0.986,0
	c0,0.33,0,0.664,0,0.994C125.741,217.159,125.41,217.159,125.085,217.159z M126.731,204.631c-0.172-0.169,0.238-0.419,0.33-0.325
	C127.228,204.472,126.821,204.725,126.731,204.631z M127.394,227.372c1.185-0.088,2.277-0.083,1.975,1.317
	C128.861,229.1,127.046,228.822,127.394,227.372z M129.7,209.576c0.857-0.093,1.415,0.123,1.317,0.992
	C130.399,211.213,129.431,210.753,129.7,209.576z M131.347,227.372c-0.302-1.906,1.499-3.084,2.637-1.645
	C134.295,227.401,132.574,228.28,131.347,227.372z M131.678,216.495c0.378-0.272,0.881-0.431,1.645-0.33
	C133.876,217.731,131.423,217.985,131.678,216.495z M137.276,229.351c-0.215,0-0.438,0-0.66,0c0-0.215,0-0.44,0-0.661
	c0.223,0,0.445,0,0.66,0C137.276,228.91,137.276,229.136,137.276,229.351z M137.607,227.703c-0.331,0-0.661,0-0.991,0
	c0-0.331,0-0.661,0-0.991c0.33,0,0.66,0,0.991,0C137.607,227.042,137.607,227.372,137.607,227.703z M142.875,186.508
	c0.012-0.321,0.408-0.257,0.661-0.331C143.527,186.498,143.134,186.433,142.875,186.508z M145.185,201.339c-0.217,0-0.438,0-0.654,0
	c0-0.224,0-0.441,0-0.663c0.216,0,0.438,0,0.654,0C145.185,200.897,145.185,201.115,145.185,201.339z M151.778,184.529
	c-1.22,0.227-0.819-1.159-1.317-1.649c-0.889-0.535-0.486-1.042,0-1.648C151.33,181.817,152.498,183.401,151.778,184.529z
	 M150.132,177.608c0.835,0.038,1.273,0.479,1.316,1.316C150.152,179.258,149.533,178.194,150.132,177.608z M157.384,180.24
	c-0.441,0-0.884,0-1.322,0c0.285-0.477,0.498-1.039,1.322-0.987C157.384,179.586,157.384,179.916,157.384,180.24z M157.053,182.221
	c-0.172-0.173,0.234-0.422,0.331-0.326C157.551,182.058,157.146,182.312,157.053,182.221z M160.021,197.385
	c-2.036-0.239-4.491-1.192-3.298-3.631c1.384-0.043,1.839,0.601,2.967,0C160.482,194.23,160.636,196.524,160.021,197.385z
	 M157.714,179.253c0-0.438,0-0.874,0-1.314c0.856-0.694,2.917-0.479,2.307,1.314C159.252,179.253,158.483,179.253,157.714,179.253z
	 M161.668,196.721c0.062-0.373,0.327-0.182,0.327,0C161.934,197.098,161.668,196.903,161.668,196.721z M161.334,175.63
	c1.378-0.167,1.584,0.833,1.648,1.979C162.288,177.096,160.942,177.234,161.334,175.63z M160.9,165.017
	c0.03-1.188,1.492-0.946,2.437-1.222C163.303,164.982,161.845,164.743,160.9,165.017z M162.652,170.356
	c-0.891-1.456,0.979-3.473,2.64-2.309C165.469,169.873,164.625,170.682,162.652,170.356z M164.561,166.238
	c0.031-1.188,1.492-0.951,2.44-1.222C166.968,166.204,165.506,165.962,164.561,166.238z M167.6,185.516
	c-0.342,0.024-0.697,0.472-1.317,0.331c-0.813-0.187-1.494-0.853-1.978-1.317c0.172-1.252,1.402-1.451,2.634-1.649
	c-0.263,1.142,0.491,1.267,0.328,2.306c1.019,0.246,0.638-0.901,1.652-0.656c-0.055,0.381,0.069,0.587,0.326,0.656
	C169.373,186.261,168.329,185.468,167.6,185.516z M169.905,179.253c-1.079-0.017-1.256-0.936-2.638-0.657
	c0.153-2.022-2.417-1.317-1.645-3.957c0.201-0.458,1.264-0.049,1.316-0.661c1.116,0.312,1.011,1.849,1.65,2.64
	c2.411-0.97,2.747,1.776,5.271,1.647C173.958,180.012,171.274,178.973,169.905,179.253z M172.874,166.07
	c-0.109,1.214,0.28,2.922-0.331,3.625c-1.537,0.221-2.121-0.518-3.297-0.656c0-0.553,0-1.102,0-1.651
	c-0.089-0.676-1.461-0.072-1.317-0.987C167.765,163.358,171.748,165.519,172.874,166.07z M172.542,161.127
	c0.765-0.103,1.271,0.052,1.648,0.33c0.015,1.006-0.697,1.284-0.987,1.976C172.153,163.144,172.083,162.113,172.542,161.127z
	 M172.874,172.335c-0.78-1.019-0.21-2.898,1.647-2.31C174.663,171.484,173.972,172.114,172.874,172.335z M175.838,186.84
	c-0.325,0-0.658,0-0.986,0c-0.145-0.691,0.225-0.876,0.328-1.324C175.756,185.595,175.929,186.083,175.838,186.84z M175.18,163.105
	c-0.573-0.752,0.95-3.152,2.308-1.979C177.548,162.622,176.506,163.005,175.18,163.105z M179.795,184.854
	c-0.581-0.078-0.752-0.565-0.661-1.317c0.33,0,0.661,0,0.986,0C180.263,184.23,179.9,184.41,179.795,184.854z M180.782,171.674
	c-0.168-0.17,0.236-0.422,0.33-0.328C181.284,171.513,180.875,171.765,180.782,171.674z M179.723,168.432
	c0.139,0.066,0.273,0.147,0.397,0.277c0.079,1.174-0.475,1.72-1.646,1.647c-0.999-0.977,0.105-2.347,1.157-1.964
	c-2.089-0.905-1.979-3.502,4.464-0.935C182.441,168.846,180.815,168.866,179.723,168.432z M178.475,163.433
	c0.266-0.172,0.536-0.345,0.989-0.327c1.111,0.648,2.495,1.02,2.635,2.636C179.982,165.878,178.98,164.9,178.475,163.433z
	 M181.656,162.575c0.299-1.537,2.426-1.233,2.44,0C183.554,164.351,183.023,162.449,181.656,162.575z M182.875,152.81
	c-0.63-0.63,0.881-1.563,1.222-1.225C184.728,152.218,183.211,153.145,182.875,152.81z M186.388,172.002c0-0.216,0-0.438,0-0.656
	c0.658-0.113,1.029,0.064,0.983,0.656C187.042,172.002,186.71,172.002,186.388,172.002z M186.538,163.795
	c-0.631-0.633,0.883-1.56,1.222-1.22C188.387,163.206,186.874,164.134,186.538,163.795z M186.538,155.25
	c-0.631-0.633,0.883-1.557,1.222-1.222C188.387,154.658,186.874,155.586,186.538,155.25z M189.02,193.429
	c-0.651-0.23-0.877-0.882-0.987-1.653c0.437-0.421,1.215-0.421,1.648,0C189.962,192.834,189.164,192.799,189.02,193.429z
	 M188.364,155.196c0.06-0.267,0.33-0.329,0.325-0.663c0.223,0,0.443,0,0.661,0C189.503,155.24,188.88,155.163,188.364,155.196z
	 M190.672,172.002c-0.173-0.166,0.234-0.419,0.325-0.328C191.169,171.847,190.76,172.095,190.672,172.002z M193.863,161.352
	c-0.633-0.629,0.883-1.556,1.22-1.222C195.715,160.763,194.197,161.692,193.863,161.352z M195.083,165.017
	C191.75,161.305,198.794,168.35,195.083,165.017L195.083,165.017z M161.63,25.072c8.207,0.084,16.666-0.017,23.665,3.013
	c14.802,6.407,24.385,16.657,26.628,22.423c11.465,31.4,4.206,58.457-13.085,84.055c0.391-0.009,0.776-0.019,1.131-0.07
	c-0.121,0.864-0.906,1.058-1.817,1.119c-0.014,0.016-0.022,0.034-0.037,0.054c-5.455,3.674-10.903,8.895-16.988,14.048
	c-0.006,0.066,0.005,0.134-0.015,0.206c-0.165,0.139-0.343,0.208-0.526,0.252c-2.127,1.788-4.336,3.565-6.653,5.256
	c0.374,0.01,0.773-0.028,1.188-0.1c0.024-0.044,0.029-0.087,0.061-0.131c0.051,0.025,0.112,0.061,0.165,0.089
	c0.068-0.014,0.134-0.017,0.203-0.035c-0.002,0.053-0.035,0.072-0.046,0.124c0.878,0.539,1.826,1.675,1.324,2.46
	c-0.663-0.278-1.562-0.891-1.803-1.614c-0.3,0.226-0.704,0.348-1.192,0.381c0.124,0.072,0.22,0.18,0.359,0.239
	c-0.537,2.079,1.612,1.466,1.647,2.97c-0.854,0.881-2.749-0.577-1.647-1.647c-1.336,0.148-1.772-0.602-2.139-1.418
	c-1.78,1.229-3.619,2.409-5.534,3.499c-0.765,0.828-1.911,1.784-1.274,0.706c-2.481,1.329-5.072,2.534-7.829,3.516
	c-0.617,0.58-1.163,0.944-0.78,0.25c-0.908,0.307-1.812,0.612-2.752,0.874c-5.732,1.598-11.584,2.395-17.195,2.542
	c0.853,4.396,0.944,9.257,0.997,13.424c0.178,13.157-2.74,17.631-16.194,22.258c-9.772,3.357-17.553,6.002-27.208,6.936
	c-0.215,0.023-0.447,0.06-0.667,0.084c0.147,0.162,0.23,0.396,0.159,0.718c-0.691,0.142-0.872-0.225-1.321-0.327
	c0.007-0.099,0.036-0.178,0.071-0.255c-3.241,0.422-6.636,1.045-9.61,0.886c-2.588-0.136-5.136-0.317-7.66-0.523
	c-0.083,0.134-0.178,0.06-0.318-0.029c-5.751-0.479-11.314-1.166-16.465-2.274c-5.723-1.231-17.925-1.66-21.434-5.391
	c-6.703-7.14-13.466-12.073-17.243-20.676c-4.906-11.177-5.281-20.177-4.197-27.687c3.058-21.816,9.791-38.456,19.03-52.576
	c-0.95,0.118-2.001,0.134-3.15,0.05c1.031-1.199,2.647-1.815,4.556-2.14c2.962-2.731,6.271-6.631,10.077-10.466
	c0.062-0.479,0.443-0.785,0.949-0.941c0,0,0,0,0.002,0c0.47-0.464,0.941-0.917,1.431-1.372c-0.908-0.423-1.734-0.808-2.365-0.951
	c0.533-1.036,1.895-0.704,3.562-0.123c0.35-0.312,0.735-0.591,1.094-0.897c-0.663-0.976-1.243-1.938-0.515-3.5
	c0.81,0.005,1.368-0.248,1.832-0.593c-0.117-0.438,0.49-0.916,0.946-1.034c0.192-0.316,0.358-0.659,0.515-1.006
	c0.992,0,1.982,0,2.967,0c1.135-1.092,2.131-0.34,3.229,0.232c2.148-1.048,4.329-1.973,6.51-2.663
	c-0.107-2.282,0.228-4.866,0.522-7.014c0.678-5.01,1.939-7.771,5.932-11.173c0.054-0.044,0.119-0.093,0.174-0.143
	c1.125-0.941,2.418-1.928,4.017-3.038c3.708-2.577,7.051-4.892,10.658-7.098c-0.394,0.059-0.802,0.103-1.153,0.202
	c0.032-1.188,1.495-0.952,2.44-1.224c-0.002,0.152-0.083,0.223-0.129,0.331c1.717-1.024,3.502-2.031,5.435-3.027
	c2.657-1.371,5.675-3.196,8.366-4.319c6.989-2.909,14.423-5.833,21.83-8.193c0.675-0.217,1.469-0.488,2.322-0.789
	c-0.89-3.305,1.742-3.078,1.248-5.977c2.308-0.542,7.359,1.657,6.102-2.445c2.285-1.104,2.903,2.301,3.665,2.445
	c0.924,0.174,2.821-2.021,4.885-1.223c0.498,0.198-0.643,1.746-1.222,1.223c0.252,0.222,0.628,0.384,1.044,0.533
	c1.901-0.562,3.675-1.01,5.179-1.262c0.622-1.445,3.429-3.032,3.544-0.494c1.188-0.034,0.948-1.494,1.222-2.44
	c1.982-0.223,1.885,1.63,2.442,2.829c2.185,0.035,4.401,0.051,6.629,0.07 M211.102,118.943c-0.167-0.171,0.242-0.424,0.33-0.33
	C211.603,118.781,211.196,119.033,211.102,118.943z M207.29,125.944c-0.63-0.63,0.887-1.559,1.225-1.218
	C209.146,125.357,207.632,126.284,207.29,125.944z M207.29,130.832c-0.63-0.632,0.887-1.565,1.225-1.227
	C209.146,130.238,207.632,131.168,207.29,130.832z M206.071,129.605c-0.03,1.188-1.494,0.948-2.44,1.227
	C203.662,129.643,205.125,129.884,206.071,129.605z M198.748,151.585c-0.633-0.631,0.881-1.556,1.222-1.221
	C200.598,150.994,199.084,151.921,198.748,151.585z M201.188,139.374c-0.63-0.632,0.884-1.556,1.221-1.219
	C203.042,138.788,201.525,139.718,201.188,139.374z M204.849,134.492c0.814,0,1.629,0,2.44,0
	C207.536,137.931,198.168,134.153,204.849,134.492z M209.125,145.637c0.064-0.376,0.332-0.185,0.332,0
	C209.393,146.011,209.125,145.824,209.125,145.637z M211.761,149.594c-0.221,0-0.437,0-0.659,0c0-0.221,0-0.441,0-0.661
	c0.223,0,0.438,0,0.659,0C211.761,149.152,211.761,149.373,211.761,149.594z M212.424,145.967c-2.805-0.035-4.917-2.834-3.628-4.947
	c-0.153-0.654-0.824-0.8-1.497-0.941c-0.302,0.425-1.009,0.74-1.229,0.521c-0.277-0.278-0.129-0.61,0.144-0.869
	c-0.02-0.01-0.043-0.012-0.058-0.021c-0.132-1.352,0.34-2.084,1.652-1.979c0.028-1.233,0.369-0.943,0-1.979
	c1.164,0.178,1.696-0.282,1.977-0.991c0.076,0,0.141,0.021,0.215,0.028c-0.084-1.058,0.64-2.662,0.953-2.739
	c1.212-0.275,2.091,2.443,2.443,2.443c0.313,0,4.644-4.407,1.219,0c-0.224,1.041,0.479,1.148,1.224,1.219
	c-0.051,1.706-1.032,1.099-2.1,0.27c-0.14,2.261,1.935,2.3,3.292,3.063c0.606,1.606-0.64,1.852-0.323,3.959
	C215.336,144.049,213.612,144.736,212.424,145.967z M223.299,153.881c-0.46-0.105-0.968-0.161-1.47-0.224
	c-0.346,0.34-0.913,0.567-1.107,0.371c-0.187-0.191-0.173-0.402-0.067-0.599c-0.574-0.156-1.072-0.383-1.31-0.871
	c-1.458-0.158-1.641,0.454-2.637,0c0.134-1.89-1.149-2.366-1.978-3.296c0.479-1.385,2.116-1.621,2.964-2.637
	c0.221,0,0.439,0,0.659,0c1.516,0.02,2.139,0.937,3.293,1.317c0,0.331,0,0.661,0,0.989c0.622,0.617,1.753,0.855,2.639,1.316
	c0.681,0.359,2.003,0.583,1.976,1.648C224.914,152.199,223.596,152.529,223.299,153.881z M226.829,155.25c0-0.814,0-1.633,0-2.44
	c2.448-0.419,3.817,0.247,3.665,2.44C229.27,155.25,228.045,155.25,226.829,155.25z M228.045,139.374
	c0.036-1.185,1.5-0.945,2.448-1.219C230.458,139.339,228.995,139.104,228.045,139.374z M229.27,150.364
	c-0.631-0.632,0.883-1.557,1.224-1.216C231.123,149.774,229.612,150.704,229.27,150.364z M226.261,75.439
	c1.143-0.809,3.143-0.809,4.284,0c0.288,1.094-0.107,1.863,0.331,3.293C229.132,77.845,226.223,78.117,226.261,75.439z
	 M230.545,22.045c0.532-1.176,2.395-1.188,3.301-0.331c-0.446,1.504,0.325,2.451-0.661,3.627c-0.33,0-0.661,0-0.986,0
	C230.833,25.054,230.55,23.692,230.545,22.045z M232.855,72.471c-0.532-0.326-0.759-0.876-0.331-1.317
	C233.288,71.244,233.284,72.033,232.855,72.471z M231.71,147.922c-0.633-0.631,0.884-1.557,1.221-1.222
	C233.564,147.333,232.05,148.265,231.71,147.922z M232.931,150.364c0.034-1.183,1.494-0.948,2.442-1.216
	C235.34,150.331,233.879,150.094,232.931,150.364z M236.595,111.296c0.633,0.631-0.881,1.553-1.222,1.217
	C234.742,111.883,236.255,110.956,236.595,111.296z M236.813,129.488c-0.902,0.238-0.666-0.656-1.322-0.661
	c0.104-0.448,0.824-0.271,1.322-0.327C236.813,128.827,236.813,129.161,236.813,129.488z M236.595,92.98
	c-0.633-0.631,0.881-1.557,1.217-1.222C238.449,92.389,236.93,93.317,236.595,92.98z M238.785,87.962
	c-1.147-0.391-1.799-1.272-3.294-1.322c-0.255-1.607-1.369-2.36-1.314-4.283c1.314-0.533,4.613-0.533,5.93,0
	c0.237,1.144,0.228,2.336,0.33,4.283C239.78,86.976,239.028,87.212,238.785,87.962z M241.476,79.552
	c-0.632-0.632,0.889-1.56,1.224-1.224C243.33,78.959,241.816,79.886,241.476,79.552z M246.697,67.196
	c0.14,0.691-0.225,0.872-0.33,1.321C245.412,68.459,245.574,66.95,246.697,67.196z M245.14,77.111
	c-0.633-0.636,0.889-1.564,1.222-1.224C246.994,76.52,245.48,77.445,245.14,77.111z M247.028,124.875
	c-0.494,0.521-1.878,0.482-1.65-0.662C245.868,123.691,247.259,123.73,247.028,124.875z M247.584,55.132
	c-0.629-0.631,0.885-1.559,1.22-1.222C249.434,54.541,247.923,55.466,247.584,55.132z"/>
<path fill="#243446" d="M211.036,135.118c0.84,0.465,1.468,1.141,2.504,0.705C212.456,134.971,211.339,134.029,211.036,135.118z"/>
<path fill="#243446" d="M137.406,7.989c-0.719,0.311-1.441,0.601-2.16,0.928c0.738-0.138,1.677-0.074,2.453-0.179
	C137.622,8.501,137.516,8.251,137.406,7.989z"/>
<path fill="#243446" d="M133.186,47.688c-0.671-0.016-1.379-0.223-2.098-0.454c-0.622,0.231-1.701-0.084-2.654-0.74
	c-0.331-0.061-0.66-0.124-0.972-0.104c-1.33,0.087-2.81,0.458-4.312,0.894c0.602,0.211,1.339,0.472,2.339,0.521
	c-0.752,1.085-1.478,2.185,0,2.44c-1.198,3.748-3.256-1.399-4.883-1.216c0.142-0.469,0.276-0.83,0.414-1.115
	c-1.613,0.479-3.179,0.897-4.54,1.005c-0.301,0.173-0.621,0.247-0.76,0.11c-0.026-0.025-0.028-0.059-0.049-0.085
	c-0.892-0.03-1.661-0.242-2.259-0.734c-0.076,0.546-1.083,1.088-1.354,0.819c-0.063-0.059-0.089-0.129-0.115-0.197
	c-5.856,3.17-9.643,3.956-12.762,4.026c0.178,0.049,0.36,0.092,0.523,0.168c0.036,0.567-0.066,0.942-0.253,1.178
	c0.497-0.138,1.124-0.152,1.618-0.294c-0.031,1.188-1.493,0.951-2.442,1.222c0.009-0.286,0.109-0.484,0.255-0.631
	c-0.601,0.079-1.379-0.316-1.814-0.815c0.038-0.181,0.148-0.284,0.237-0.411c-0.668,0.279-1.498,0.676-2.395,1.126
	c-0.06,0.081-0.12,0.158-0.145,0.271c0.519,0.799,1.178,1.46,1.976,1.977c-0.079,1.023-0.915,1.283-1.321,1.979
	c-1.84-0.208-2.005-1.812-1.881-3.525c-0.591,0.305-1.18,0.613-1.728,0.902c0.427,0.373,0.274,1.307-1.16,2.095
	c0.271,0.699,0.565,1.263,0.153,1.85c0.104,0.772,1.144,0.61,0.99,1.646c-1,1.112-3.695,1.31-4.943,0
	c0.34-1.306,2.075-1.219,2.969-1.978c-0.195-0.384-0.541-0.611-0.879-0.847c-0.029,0.007-0.051,0.017-0.082,0.024
	c0.01-0.024,0.021-0.044,0.028-0.069c-0.289-0.202-0.563-0.419-0.716-0.754c0.037-0.054,0.067-0.119,0.102-0.176
	c-0.171,0.087-0.336,0.167-0.508,0.25c-0.148,0.522-1.087,1.006-1.346,0.75c-0.01-0.005-0.007-0.015-0.014-0.024
	c-4.443,2.434-8.954,5.771-12.099,10.116c-1.839,2.544-2.472,4.857-3.087,7.114c4.68-0.897,8.979-0.873,12.083,0.169
	c0.049-0.008,0.095-0.011,0.144-0.021c0.03-0.118,0.049-0.229,0.111-0.384c0.255,0.103,0.534,0.18,0.812,0.261
	c0.009,0,0.017-0.003,0.024-0.006c0.641-0.468,1.83-0.483,2.671-0.073c1.55,0.103,2.915,0.483,4.099,1.108
	c0.053,0.013,0.104,0.022,0.139,0.056c0.008,0.009,0.006,0.014,0.013,0.019c2.638,1.459,4.351,4.123,5.226,7.534
	c0.394,0,0.792,0,1.187,0c0.176,0.734-0.438,1.049-0.977,0.97c0.029,0.137,0.066,0.265,0.09,0.4
	c0.517-0.202,1.227-0.216,1.784-0.378c-0.025,0.897-0.861,0.979-1.68,1.084c0.413,2.805,0.339,5.993-0.161,9.35
	c0.076,0.055,0.15,0.111,0.282,0.111c-0.06,0.266-0.332,0.332-0.327,0.66c-0.037-0.01-0.054-0.039-0.086-0.054
	c-0.847,5.096-2.661,10.545-5.376,15.673c0.009,0.01,0.018,0.025,0.025,0.035c0.705,1.416-0.405,2.411-0.986,1.701
	c-0.765,1.327-1.581,2.624-2.461,3.876c-1.718,1.775-3.521,3.955-5.49,6.401c-0.581,0.719-3.115,2.087-3.501,2.663
	c-0.477,0.703,0.316,2.557-0.275,3.163c-1.355,1.386-2.311,1.308-3.475,2.622c-8.633,9.778-26.401,17.207-37.605,21.594
	c-1.385,14.92,7.107,20.5,16.04,26.356c1.081-0.077,1.836,0.159,2.322,0.67c-0.2,0.316-0.359,0.661-0.537,0.991
	c0.962,1.203,1.938,2.687,2.909,3.171c4.137,2.066,9.27,4.354,13.246,5.341c2.44,0.347,4.107,0.513,6.274,0.263
	c-0.113-0.213-0.263-1.837-0.141-2.184c0.438,0,0.882,0,1.321,0c-0.054,0.383,0.068,0.585,0.331,0.658
	c-0.007,0.053,0.167,1.896,0.156,1.942c3.75,0.75,6.5,0.583,9.069,0.786c0.948,0.075,4.122-0.061,7.2-0.624
	c-0.271-0.771-0.331-1.592,0.382-2.104c1.083,0.041,1.56,0.688,1.648,1.729c1.347-0.256,2.521-0.472,3.226-0.551
	c7.83-0.894,17.021-4.069,22.793-11.74c2.793-3.716,3.433-7.632,4.041-11.428h0.005c-7.82-0.797-15.511-1.6-19.405-3.277
	c-20-6.625-20.664-27.747-13.044-46.196c-0.497,0.132-1.114,0.142-1.598,0.281c0.027-0.995,1.065-0.995,1.959-1.129
	c1.393-3.225,3.069-6.292,5-9.042c1.785-1.834,3.662-4.093,5.707-6.627c0.605-0.75,3.39-2.316,3.791-2.908
	c0.498-0.735-0.544-2.431,0.084-3.077c1.448-1.48,2.562-1.529,3.807-2.939c2.05-2.317,4.799-4.684,7.978-7.051
	c-0.612-0.171-1.309-0.252-2.071-0.274c0.043,0.031,0.106,0.048,0.139,0.083c-0.063,0.926-0.571,1.405-1.645,1.315
	c-0.258-0.29-0.356-0.745-0.331-1.315c-0.148-1.396,3.823-2.037,5.574-1.031c3.553-2.53,7.595-5.05,11.861-7.514
	c-0.521,0-1.042,0-1.564,0c0.953-3.275,0.405-4.876,3.665-1.224c0.004,0.015,0,0.019,0,0.029
	c8.817-4.958,18.405-9.643,26.645-13.567C161.33,48.235,146.291,48.028,133.186,47.688z M75.43,72.226
	c-0.631-0.631,0.882-1.558,1.223-1.224C77.284,71.634,75.768,72.561,75.43,72.226z M77.873,72.226
	c1.45-2.544,8.933-0.889,8.547,2.44C81.283,76.14,81.065,72.694,77.873,72.226z M85.196,64.899c0.232-1.384,1.227-0.676,1.224,0
	C86.188,66.283,85.191,65.575,85.196,64.899z M76.967,157.501c-1.129,0.347-3.501-0.579-3.3-2.634
	C75.838,154.678,76.977,155.511,76.967,157.501z M76.636,176.617c-1.017,0.231-0.637,0.231-1.651,0
	c0.104-0.773,1.148-0.611,0.99-1.648C77.085,174.629,76.488,175.996,76.636,176.617z M75.975,171.018
	c-0.492,0.521-1.877,0.481-1.646-0.661C74.82,169.832,76.207,169.873,75.975,171.018z M76.636,172.335
	c-0.005,0.874,0.124,1.882-0.331,2.304c-0.942-0.044-0.601-1.375-0.66-2.304C75.975,172.335,76.305,172.335,76.636,172.335z
	 M71.03,173.978C70.256,175.038,69.699,172.821,71.03,173.978L71.03,173.978z M67.738,175.961c-0.104-0.769,0.054-1.268,0.328-1.651
	C69.55,174.063,69.299,176.514,67.738,175.961z M68.397,169.695c-0.256,0.297-0.354,0.745-0.332,1.322
	C66.614,171.209,66.927,169.235,68.397,169.695z M56.53,158.818c0.661-0.11,1.032,0.069,0.988,0.66c-0.327,0-0.656,0-0.988,0
	C56.53,159.259,56.53,159.041,56.53,158.818z M48.293,159.81c-0.765,0.105-1.268-0.053-1.651-0.331
	C46.67,158.497,48.607,158.598,48.293,159.81z M52.233,149.148c0.033-1.191,1.494-0.953,2.44-1.227
	C54.641,149.109,53.181,148.87,52.233,149.148z M57.846,180.567c-1.458-0.147-1.635,0.458-2.632,0
	C54.459,178.394,58.686,178.204,57.846,180.567z M57.518,161.788c0-0.661,0-1.317,0-1.979c0.875,0.005,1.883-0.122,2.307,0.33
	C59.75,161.375,58.473,161.424,57.518,161.788z M65.099,157.834c0.805-0.297,1.43-0.771,2.639-0.664
	c0.103,1.866-1.387,2.137-1.317,3.957C64.932,161.076,65.429,159.041,65.099,157.834z M66.42,177.938
	c-0.266-2.057,3.313-2.15,2.963,0C68.156,177.738,67.298,178.781,66.42,177.938z M70.044,179.253c0.547,0,1.099,0,1.647,0
	c-0.06,0.824,0.739,0.798,0.99,1.314C72.036,182.044,69.724,180.794,70.044,179.253z M72.021,174.639
	c0.863-0.091,1.415,0.124,1.316,0.991C72.479,175.721,71.691,175.739,72.021,174.639z M73.008,190.131
	c0.078-0.582,0.571-0.752,1.321-0.661C74.659,190.461,73.594,190.057,73.008,190.131z M76.305,188.813c-0.221,0-0.438,0-0.66,0
	c0-0.223,0-0.438,0-0.661c0.222,0,0.438,0,0.66,0C76.305,188.375,76.305,188.591,76.305,188.813z M76.636,179.916
	c-0.616-0.045-1.104-0.22-1.32-0.663c-0.927,0.062-0.41,1.569-1.648,1.314c-0.29-0.799-0.768-1.422-0.66-2.629
	c0.295-0.148,0.591-0.292,0.66-0.66c1.396-0.08,2.331,0.299,3.3,0.66C77.006,178.745,77.017,179.526,76.636,179.916z
	 M80.259,175.961c0.332,0,0.661,0,0.991,0c0,0.325,0,0.656,0,0.986c-0.331,0-0.659,0-0.991,0
	C80.259,176.617,80.259,176.286,80.259,175.961z M78.613,155.525c-0.064,0.376-0.33,0.182-0.33,0
	C78.347,155.149,78.613,155.343,78.613,155.525z M77.623,162.449c0.438,0,0.882,0,1.321,0c0.331,0.988-0.734,0.579-1.321,0.656
	C77.623,162.885,77.623,162.664,77.623,162.449z M81.907,180.567c-1.094,0-2.195,0-3.294,0c-0.138-0.79,0.603-0.713,0.331-1.643
	c0.877,0,1.755,0,2.632,0C81.442,179.72,82.182,179.639,81.907,180.567z M83.558,157.17c-0.173-0.168,0.237-0.416,0.329-0.33
	C84.055,157.013,83.647,157.266,83.558,157.17z M107.286,183.537c1.372-0.36,1.372,2.343,0,1.979
	C107.183,184.744,106.641,184.155,107.286,183.537z M105.965,169.364c-0.294,0.578-1.153,0.853-1.645,0.331
	C104.354,168.857,105.546,168.915,105.965,169.364z M103.989,177.938c-0.966-0.242-1.391-1.029-1.316-2.309
	C103.773,175.714,104.812,176.951,103.989,177.938z M101.682,168.048c0.99-0.331,0.585,0.735,0.66,1.316
	C101.77,169.067,101.069,168.63,101.682,168.048z M90.149,121.575c-0.064,0.376-0.328,0.188-0.328,0
	C89.879,121.206,90.149,121.396,90.149,121.575z M89.821,166.4c0-0.221,0-0.438,0-0.659c0.437,0,0.875,0,1.315,0
	C91.466,166.731,90.401,166.329,89.821,166.4z M93.773,173.323c0-0.222,0-0.438,0-0.66c0.661-0.113,1.031,0.069,0.991,0.66
	C94.435,173.323,94.104,173.323,93.773,173.323z M95.75,184.529c-0.221,0-0.438,0-0.659,0c0-0.22,0-0.443,0-0.659
	c0.221,0,0.438,0,0.659,0C95.75,184.086,95.75,184.31,95.75,184.529z M95.75,175.63c0.119-0.431,0.583-0.518,0.661-0.991
	C97.23,174.772,96.432,175.917,95.75,175.63z M100.365,182.551c-1.292,0.189-1.913-0.282-2.636-0.656
	c-0.104-0.767,0.054-1.269,0.329-1.654C99.025,180.812,100.617,180.762,100.365,182.551z M99.049,171.018
	c0.404,0.141,0.674,0.416,0.655,0.984c-0.552,0.548-1.932,0.261-1.646,1.655c-1.223,0.225-2.164,0.505-1.977-1.322
	C97.822,172.642,98.205,171.602,99.049,171.018z M94.104,161.788c0.708,0.211,0.569,0.383,0.437,0.787c0.547,0,1.097,0,1.645,0
	c0,0.815,0,1.626,0,2.441c-0.813,0-1.626,0-2.439,0c0-0.647,0-1.294,0-1.94c-0.903,0.043-2.006,0.287-2.281-0.297
	C91.132,161.234,93.942,162.832,94.104,161.788z M91.303,157.69c0.631,0.629-0.884,1.557-1.221,1.222
	C89.449,158.282,90.967,157.354,91.303,157.69z M92.523,111.296c0.034-1.188,1.494-0.951,2.442-1.224
	C94.932,111.262,93.47,111.022,92.523,111.296z M160.9,56.355c0.629,0.626-0.886,1.558-1.225,1.218
	C159.045,56.941,160.559,56.014,160.9,56.355z M153.572,52.691c0.631,0.632-0.883,1.559-1.222,1.219
	C151.717,53.277,153.231,52.351,153.572,52.691z M146.246,50.246c-0.034,1.189-1.495,0.951-2.44,1.224
	C143.838,50.282,145.299,50.518,146.246,50.246z M142.583,50.246c-0.035,1.189-1.497,0.951-2.442,1.224
	C140.174,50.282,141.635,50.518,142.583,50.246z M136.479,53.91c0.63,0.631-0.883,1.556-1.224,1.222
	C134.623,54.501,136.141,53.573,136.479,53.91z M134.312,63.902c-0.352,0.307-0.101,1.213-0.989,0.986c0-0.33,0-0.656,0-0.986
	C133.656,63.902,133.984,63.902,134.312,63.902z M132.995,53.686c0.076-0.358,0.656-0.227,0.661-0.66
	C134.977,53.266,133.669,54.575,132.995,53.686z M134.034,49.029c0.262,3.628-4.351,4.303-6.102,2.44
	C128.964,49.654,131.865,49.703,134.034,49.029z M129.369,53.358c-0.033,0.837-1.231,0.778-1.652,0.328
	C127.951,52.652,128.6,53.256,129.369,53.358z M127.932,61.237c-0.632-0.633,0.881-1.561,1.222-1.224
	C129.786,60.644,128.27,61.575,127.932,61.237z M121.126,52.036c0.907,0.144,1.038,1.055,0.765,1.723
	c1.608-4.514,5.751,3.73,6.041,0.151c3.074,3.031-4.083,1.7-6.107,0c0.011-0.03,0.024-0.045,0.034-0.075
	c-0.1,0.208-0.233,0.393-0.402,0.508c-0.435-0.115-0.518-0.577-0.987-0.658C120.416,52.864,120.987,52.665,121.126,52.036z
	 M125.085,56.981c-0.705,0.152-0.632-0.472-0.661-0.989C124.828,56.138,125.1,56.414,125.085,56.981z M113.279,50.246
	c0,1.224,0,2.445,0,3.665c-2.163,0.28-6.113-1.233-4.883,2.445c-1.327-0.306-0.827-2.431-2.442-2.445
	C106.659,50.951,110.566,51.196,113.279,50.246z M113.218,55.664c-0.035,0.838-1.229,0.777-1.646,0.328
	C111.605,55.154,112.799,55.214,113.218,55.664z M109.616,62.458c-0.532,1.499-1.562,2.504-3.663,2.441
	C106.485,63.395,107.517,62.39,109.616,62.458z M103.512,53.91c-0.23,1.384-1.224,0.675-1.222,0
	C102.521,52.523,103.518,53.233,103.512,53.91z M102.291,61.237c0.633,0.629-0.883,1.556-1.222,1.221
	C100.438,61.829,101.955,60.9,102.291,61.237z M101.356,56.321c-0.691,0.142-0.879-0.227-1.322-0.329
	C100.095,55.039,101.602,55.2,101.356,56.321z M92.126,66.209c-0.202-1.996,1.606-1.681,2.964-1.321c0,0.552,0,1.1,0,1.653
	C94.094,67.008,93.324,66.393,92.126,66.209z M95.75,71.154c-0.103-0.768,0.054-1.267,0.331-1.651
	c0.75-0.089,1.237,0.08,1.316,0.661C97.55,71.193,96.691,71.22,95.75,71.154z M94.966,68.562c0.022-0.801,0.703-0.945,1.433-1.043
	c-0.252-0.071-0.326-0.322-0.649-0.322c0.065-0.267,0.331-0.327,0.331-0.655c0.266,0.059,0.331,0.328,0.66,0.323
	c-0.061,0.267-0.316,0.336-0.325,0.651c0.343-0.046,0.692-0.09,0.993-0.176C97.375,68.528,95.913,68.291,94.966,68.562z
	 M97.396,63.573c0.838,0.04,1.278,0.478,1.322,1.315c-0.321,0.01-0.255,0.404-0.331,0.661
	C96.558,65.933,96.509,64.179,97.396,63.573z M98.388,68.518c0.331,0,0.661,0,0.985,0c0.144,0.686-0.222,0.873-0.324,1.315
	C98.467,69.755,98.295,69.266,98.388,68.518z M99.85,79.552c0.63,0.629-0.882,1.558-1.224,1.221
	C97.996,80.138,99.513,79.211,99.85,79.552z M97.409,96.643c-0.632-0.629,0.884-1.556,1.218-1.222
	C99.261,96.052,97.745,96.979,97.409,96.643z M98.719,83.018c0.933,0.053,2.257-0.281,2.306,0.661
	C101.035,85.634,97.362,84.442,98.719,83.018z M102.291,72.226c-0.632-0.631,0.886-1.558,1.222-1.224
	C104.144,71.634,102.632,72.561,102.291,72.226z M103.658,67.526c-0.022,0.005-0.031-0.002-0.052,0
	c0.114,1.031-4.966,3.282-3.756,1.036c0.116-0.212,1.16-1.074,2.168-1.395C102.097,66.225,103.976,66.329,103.658,67.526z
	 M103.512,66.121c-0.63-0.631,0.883-1.558,1.221-1.222C105.367,65.53,103.849,66.456,103.512,66.121z M105.954,69.785
	c-0.143-0.047-0.256-0.104-0.373-0.163c0.264,0.265,0.582,0.478,0.384,1.202c-1.519-0.021-1.918-1.159-1.977-2.638
	c0.495-0.133,0.624,0.094,0.712,0.365c-0.112-1.198,1.657-2.668,3.558-2.683c-0.021-0.68,0.019-1.304,0.344-1.637
	c1.233,0.085,2.12,0.518,2.636,1.317c0.176,0.853-0.621,1.074-1.45,1.041C111.017,70.159,105.49,66.974,105.954,69.785z
	 M108.396,77.111c0.231-1.392,1.225-0.681,1.22,0C109.385,78.491,108.394,77.785,108.396,77.111z M108.934,95.21
	c0.424-0.562,0.68-1.292,1.647-1.315C110.629,94.927,109.737,95.027,108.934,95.21z M113.878,91.585
	c-1.395-0.291-1.863,0.335-2.306,0.992c-1.035,0.153-1.476-0.286-1.322-1.322c1.48,0.164,1.75-0.886,2.308-1.646
	c1.075-0.083,1.589,0.39,1.648,1.317C113.888,90.935,113.953,91.33,113.878,91.585z M119.382,79.552
	c-0.631-0.632,0.886-1.56,1.224-1.224C121.236,78.959,119.724,79.886,119.382,79.552z M122.448,75.109
	c-1.01,0.637-1.656,1.642-2.638,2.308c-1.874-0.701-2.15-0.286-4.285,0c0.06-0.281-0.127-0.311-0.33-0.33
	c-1.11-0.099-0.957-1.465-1.977-1.647c-0.148-0.951-1.416-0.783-1.646-1.651c0.566-1.751,1.542-3.679,0.661-5.931
	c1.256-0.385,2.51-0.785,3.292-1.648c1.426,0.445,2.092,0.153,3.624,0c1.382,0.928,2.147,2.471,3.3,3.624
	C122.113,71.948,123.039,72.615,122.448,75.109z M125.085,81.04c-0.178-0.267-0.346-0.536-0.332-0.99
	c-0.017-0.222-0.188-0.295-0.392-0.339c0.28,0.614-1.002,1.374-1.315,1.062c-0.426-0.427,0.129-0.983,0.636-1.198
	c-0.108-0.036-0.205-0.083-0.249-0.182c-0.103-0.581,1.849-0.592,1.32,0.33c0.968,0.021,1.86,0.119,1.649,1.316
	C125.962,81.04,125.524,81.04,125.085,81.04z M123.047,69.785c-0.449-2.081,0.953-2.309,2.442-2.445
	c-1.223-1.624-2.014-3.685-3.664-4.882c-1.037-0.226-1.15,0.474-1.219,1.218c-2.224-4.61,7.386-0.416,12.212-1.218
	c-1.2,1.647-3.263,2.441-4.886,3.663C124.721,65.757,126.972,70.854,123.047,69.785z M127.932,71.002
	c-0.632-0.63,0.881-1.558,1.222-1.217C129.786,70.417,128.27,71.342,127.932,71.002z M135.255,69.785
	c-1.901,3.372-5.994-1.219-6.102-3.664c3.008-0.162,5.879-0.188,7.325,1.219C135.788,68.484,133.081,69.189,135.255,69.785z
	 M136.479,62.458c0.3-1.539,2.427-1.232,2.44,0C137.834,63.207,136.736,63.932,136.479,62.458z M140.141,63.676
	c0.033-1.188,1.494-0.947,2.442-1.218C142.548,63.641,141.086,63.404,140.141,63.676z M146.506,67.196c-0.221,0-0.438,0-0.66,0
	c0-0.218,0-0.438,0-0.655c0.222,0,0.439,0,0.66,0C146.506,66.758,146.506,66.979,146.506,67.196z M143.805,61.237
	c0.196-1.431,2.222-1.033,3.664-1.224C147.267,61.448,145.24,61.044,143.805,61.237z M149.907,56.355
	c-0.49-3.042-5.59-0.932-3.661,2.44c-0.985-1.051-3.343-0.729-3.662-2.44c-9.081,0.271-0.984-1.884,2.438-2.445
	c0.019,2.869,3.333-0.446,2.447-2.441c3.257,0.812,4.469,3.668,6.103,6.104c2.452-0.416,3.821,0.251,3.663,2.44
	C155.515,58.903,144.27,57,149.907,56.355z M156.013,53.91c-0.632-0.633,0.882-1.559,1.222-1.219
	C157.865,53.323,156.351,54.25,156.013,53.91z M159.675,60.013c-0.63-0.631,0.884-1.558,1.225-1.218
	C161.529,59.427,160.014,60.353,159.675,60.013z"/>
</svg>
