<?xml version="1.0" encoding="UTF-8"?>
<svg width="16px" height="16px" viewBox="0 0 16 16" version="1.1" xmlns="http://www.w3.org/2000/svg" xmlns:xlink="http://www.w3.org/1999/xlink">
    <title>dotnet-plain</title>
    <g id="dotnet-plain" stroke="none" stroke-width="1" fill="none" fill-rule="evenodd">
        <g id="netcore" fill="#5C2D91">
            <path d="M16,0 L16,16 L0,16 L0,0 L16,0 Z M1.97880342,9.71213675 C1.88547198,9.71100188 1.79602916,9.7494623 1.73264957,9.81798291 C1.66741654,9.88321783 1.63106326,9.97188436 1.6317265,10.0641368 C1.63050163,10.1564968 1.66694096,10.2453732 1.73264957,10.3102906 C1.79664092,10.3776471 1.88590755,10.415139 1.97880342,10.4136752 C2.07152599,10.4142538 2.16045515,10.3769036 2.22495726,10.3102906 C2.29181414,10.2459555 2.32921047,10.1569166 2.32834188,10.0641368 C2.32863541,9.97147092 2.29133014,9.88264885 2.22495726,9.81798291 C2.16104548,9.75021924 2.07195157,9.71190886 1.97880342,9.71213675 Z M3.93818803,5.86475214 L3.25634188,5.86475214 L3.25634188,10.3521368 L3.78064957,10.3521368 L3.78064957,7.10782906 C3.78617705,6.90238145 3.77795356,6.69679418 3.75603419,6.49244444 L3.75603419,6.49244444 L3.7757265,6.49244444 C3.81318169,6.59080272 3.86104332,6.68487557 3.91849573,6.77305983 L3.91849573,6.77305983 L6.22495726,10.3521368 L6.86988034,10.3521368 L6.86988034,5.86475214 L6.34557265,5.86475214 L6.34557265,9.02044444 C6.34090651,9.24081818 6.35159906,9.46124927 6.37757265,9.68013675 L6.37757265,9.68013675 L6.36526496,9.68013675 C6.33736752,9.62598291 6.27664957,9.52588034 6.18311111,9.37982906 L6.18311111,9.37982906 L3.93818803,5.86475214 Z M10.3086496,5.86475214 L8.03418803,5.86475214 L8.03418803,10.3521368 L10.4194188,10.3521368 L10.4218803,9.85982906 L8.57080342,9.85982906 L8.57080342,8.30413675 L10.1904957,8.30413675 L10.1904957,7.83152137 L8.57080342,7.83152137 L8.57080342,6.33982906 L10.3086496,6.33982906 L10.3086496,5.86475214 Z M13.9418803,5.86475214 L10.8231111,5.86475214 L10.8231111,6.33982906 L12.1129573,6.33982906 L12.1129573,10.3521368 L12.637265,10.3521368 L12.637265,6.33982906 L13.9418803,6.33982906 L13.9418803,5.86475214 Z" id="Rectangle-2"></path>
        </g>
    </g>
</svg>