<?xml version="1.0" encoding="UTF-8" standalone="no"?>
<!-- Created with Inkscape (http://www.inkscape.org/) -->

<svg
   xmlns:dc="http://purl.org/dc/elements/1.1/"
   xmlns:cc="http://creativecommons.org/ns#"
   xmlns:rdf="http://www.w3.org/1999/02/22-rdf-syntax-ns#"
   xmlns:svg="http://www.w3.org/2000/svg"
   xmlns="http://www.w3.org/2000/svg"
   xmlns:sodipodi="http://sodipodi.sourceforge.net/DTD/sodipodi-0.dtd"
   xmlns:inkscape="http://www.inkscape.org/namespaces/inkscape"
   width="279.95926mm"
   height="147.3588mm"
   viewBox="0 0 279.95926 147.3588"
   version="1.1"
   id="svg9695"
   inkscape:version="0.92.3 (2405546, 2018-03-11)"
   sodipodi:docname="hc.svg">
  <defs
     id="defs9689" />
  <sodipodi:namedview
     id="base"
     pagecolor="#ffffff"
     bordercolor="#666666"
     borderopacity="1.0"
     inkscape:pageopacity="0.0"
     inkscape:pageshadow="2"
     inkscape:zoom="0.7"
     inkscape:cx="-240.2302"
     inkscape:cy="166.04086"
     inkscape:document-units="mm"
     inkscape:current-layer="layer1"
     showgrid="false"
     fit-margin-top="0"
     fit-margin-left="0"
     fit-margin-right="0"
     fit-margin-bottom="0"
     inkscape:window-width="3726"
     inkscape:window-height="2049"
     inkscape:window-x="114"
     inkscape:window-y="55"
     inkscape:window-maximized="1" />
  <metadata
     id="metadata9692">
    <rdf:RDF>
      <cc:Work
         rdf:about="">
        <dc:format>image/svg+xml</dc:format>
        <dc:type
           rdf:resource="http://purl.org/dc/dcmitype/StillImage" />
        <dc:title></dc:title>
      </cc:Work>
    </rdf:RDF>
  </metadata>
  <g
     inkscape:label="Layer 1"
     inkscape:groupmode="layer"
     id="layer1"
     transform="translate(56.257546,-45.406174)">
    <g
       id="g10306"
       transform="translate(192.03316,-20.446119)">
      <path
         style="fill:#000000;fill-opacity:1;stroke-width:1.00000012"
         d="m -212.62695,238.19336 v 277.5 212.86719 h 6 v -212.86719 -277.5 h -3 z m 23,0 v 115 115 h 3 3 v -115 -115 h -3 z m 24,0 v 115 115 h 3 3 v -115 -115 h -3 z m 24,0 v 115 115 h 3 3 v -115 -115 h -3 z m 23,0 v 115 115 h 3 3 v -115 -115 h -3 z m 23.999997,0 v 115 115 h 3 3 v -115 -115 h -3 z m 24,0 v 277.5 212.86719 h 5 v -212.86719 -277.5 h -2.5 z m 23,0 v 115 115 h 3 3 v -115 -115 h -3 z m 24,0 v 115 115 h 3 3 v -115 -115 h -3 z m 22.99999988,0 v 115 115 h 3.00000002 3 v -115 -115 h -3 z m 24.00000012,0 v 115 115 h 3 3 v -115 -115 h -3 z m 24,0 v 277.5 212.86719 h 6 v -212.86719 -277.5 h -3 z m 23,0 v 115 115 h 3 3 v -115 -115 h -3 z m 24,0 v 115 115 h 3 3.000003 v -115 -115 h -3.000003 z m 24.000003,0 v 277.5 212.86719 h 6 v -212.86719 -277.5 h -3 z m 23,0 v 115 115 h 3 3 v -115 -115 h -3 z m 24,0 v 115 115 h 3 3 v -115 -115 h -3 z m 24,0 v 115 115 h 3 3 v -115 -115 h -3 z m 23,0 v 115 115 h 3 3 v -115 -115 h -3 z m 24,0 v 115 115 h 3 3 v -115 -115 h -3 z m 24,0 v 115 115 h 2.5 2.5 v -115 -115 h -2.5 z m 23,0 v 115 115 h 3 3 v -115 -115 h -3 z m 24,0 v 277.5 212.86719 h 6 v -212.86719 -277.5 h -3 z m 24,0 v 115 115 h 2.5 2.5 v -115 -115 h -2.5 z m 23,0 v 115 115 h 3 3 v -115 -115 h -3 z m 24,0 v 277.5 212.86719 h 6 v -212.86719 -277.5 h -3 z m 23,0 v 115 115 h 3 3 v -115 -115 h -3 z m 24,0 v 115 115 h 3 3 v -115 -115 h -3 z m 24,0 v 115 115 h 3 3 v -115 -115 h -3 z m 23,0 v 115 115 h 3 3 v -115 -115 h -3 z m 24,0 v 115 115 h 3 3 v -115 -115 h -3 z m 24,0 v 115 115 h 3 3 v -115 -115 h -3 z m 23,0 v 115 115 h 3 3 v -115 -115 h -3 z m 24,0 v 277.5 212.86719 h 6 v -212.86719 -277.5 h -3 z m 24,0 v 115 115 h 3 3 v -115 -115 h -3 z m 23,0 v 115 115 h 3 3 v -115 -115 h -3 z m 24,0 v 115 115 h 3 3 v -115 -115 h -3 z m 24,0 v 115 115 h 2.5 2.5 v -115 -115 h -2.5 z m 23,0 v 115 115 h 3 3 v -115 -115 h -3 z m 24,0 v 277.5 212.86719 h 6 v -212.86719 -277.5 h -3 z m 23,0 v 115 115 h 3 3 v -115 -115 h -3 z m 24,0 v 115 115 h 3 3 v -115 -115 h -3 z m 24,0 v 115 115 h 3 3 v -115 -115 h -3 z"
         transform="matrix(0.26458333,0,0,0.26458333,-192.03316,20.446119)"
         id="path10310"
         inkscape:connector-curvature="0" />
      <path
         style="fill:#000000;fill-opacity:1;stroke-width:0.26458335"
         d="M -246.70299,113.8952 V 83.468112 h 1.4552 1.45521 v 30.427088 30.42708 h -1.45521 -1.4552 z m 6.08541,0 V 83.468112 h 1.5875 1.5875 v 30.427088 30.42708 h -1.5875 -1.5875 z m 6.35,0 V 83.468112 h 1.5875 1.5875 v 30.427088 30.42708 h -1.5875 -1.5875 z m 24.87084,0 V 83.468112 h 1.5875 1.5875 v 30.427088 30.42708 h -1.5875 -1.5875 z m 6.35,0 V 83.468112 h 1.5875 1.5875 v 30.427088 30.42708 h -1.5875 -1.5875 z m 6.35,0 V 83.468112 h 1.5875 1.5875 v 30.427088 30.42708 h -1.5875 -1.5875 z m 37.57083,0 V 83.468112 h 1.45521 1.45521 v 30.427088 30.42708 h -1.45521 -1.45521 z m 6.08542,0 V 83.468112 h 1.5875 1.5875 v 30.427088 30.42708 h -1.5875 -1.5875 z m 6.35,0 V 83.468112 h 1.5875 1.5875 v 30.427088 30.42708 h -1.5875 -1.5875 z m 56.356247,0 V 83.468112 h 1.5875 1.5875 v 30.427088 30.42708 h -1.5875 -1.5875 z m 6.085416,0 V 83.468112 h 1.5875 1.5875 v 30.427088 30.42708 h -1.5875 -1.5875 z m 6.35,0 V 83.468112 h 1.5875 1.5875 v 30.427088 30.42708 h -1.5875 -1.5875 z m 37.570834,0 V 83.468112 h 1.5875 1.5875 v 30.427088 30.42708 h -1.5875 -1.5875 z m 6.35,0 V 83.468112 h 1.455208 1.455208 v 30.427088 30.42708 h -1.455208 -1.455208 z m 6.085416,0 V 83.468112 h 1.5875 1.5875 v 30.427088 30.42708 h -1.5875 -1.5875 z m -200.025003,0.66145 v -6.2177 h 1.45521 1.45521 v 6.2177 6.21771 h -1.45521 -1.45521 z m 6.08542,0 v -6.2177 h 1.5875 1.5875 v 6.2177 6.21771 h -1.5875 -1.5875 z m 6.35,0 v -6.2177 h 1.5875 1.5875 v 6.2177 6.21771 h -1.5875 -1.5875 z m 193.939583,0 v -6.2177 h 1.5875 1.5875 v 6.2177 6.21771 h -1.5875 -1.5875 z m 6.085417,0 v -6.2177 h 1.5875 1.5875 v 6.2177 6.21771 h -1.5875 -1.5875 z m 6.35,0 v -6.2177 h 1.5875 1.5875 v 6.2177 6.21771 h -1.5875 -1.5875 z m 6.35,-12.43541 V 86.378529 h 1.5875 1.5875 v 15.742711 15.74271 h -1.5875 -1.5875 z m 6.0854167,0 V 89.553529 h 1.5875 1.5875 v 12.567711 12.56771 h -1.5875 -1.5875 z m 6.35,0 v -7.805211 h 1.5875003 1.5875 v 7.805211 7.80521 h -1.5875 -1.5875003 z M -177.91133,90.479571 v -7.011459 h 1.5875 1.5875 v 7.011459 7.011458 h -1.5875 -1.5875 z m 6.08542,0 v -7.011459 h 1.5875 1.5875 v 7.011459 7.011458 h -1.5875 -1.5875 z m 6.35,0 v -7.011459 h 1.5875 1.5875 v 7.011459 7.011458 h -1.5875 -1.5875 z m 25.13542,0 v -7.011459 h 1.45521 1.4552 v 7.011459 7.011458 h -1.4552 -1.45521 z m 6.08541,0 v -7.011459 h 1.5875 1.5875 v 7.011459 7.011458 h -1.5875 -1.5875 z m 6.35,0 v -7.011459 h 1.5875 1.5875 v 7.011459 7.011458 h -1.5875 -1.5875 z m 18.78542,0 v -7.011459 h 1.5875 1.5875 v 7.011459 7.011458 h -1.5875 -1.5875 z m 6.08542,0 v -7.011459 h 1.5875 1.587497 v 7.011459 7.011458 h -1.587497 -1.5875 z m 6.349997,0 v -7.011459 h 1.5875 1.5875 v 7.011459 7.011458 h -1.5875 -1.5875 z m 25.135416,0 v -7.011459 h 1.455209 1.455208 v 7.011459 7.011458 h -1.455208 -1.455209 z m 6.085417,0 v -7.011459 h 1.5875 1.5875 v 7.011459 7.011458 h -1.5875 -1.5875 z m 6.35,0 v -7.011459 h 1.5875 1.5875 v 7.011459 7.011458 h -1.5875 -1.5875 z m 37.570833,0 v -7.011459 h 1.5875 1.5875 v 7.011459 7.011458 h -1.5875 -1.5875 z m 6.085417,0 v -7.011459 h 1.5875 1.5875 v 7.011459 7.011458 h -1.5875 -1.5875 z m 6.35,0 v -7.011459 h 1.5875 1.5875 v 7.011459 7.011458 h -1.5875 -1.5875 z"
         id="path10308"
         inkscape:connector-curvature="0" />
    </g>
    <g
       aria-label="COMPONENTS"
       style="font-style:normal;font-variant:normal;font-weight:normal;font-stretch:normal;font-size:34.99187851px;line-height:125%;font-family:'Myriad Pro';-inkscape-font-specification:'Myriad Pro';letter-spacing:0px;word-spacing:0px;fill:#000000;fill-opacity:1;stroke:none;stroke-width:1.27243197px;stroke-linecap:butt;stroke-linejoin:miter;stroke-opacity:1"
       id="text10314">
      <path
         d="m -41.961304,188.71288 q 2.134505,0 3.674147,-0.69983 1.539643,-0.73483 3.219253,-2.30947 l 2.659383,2.72937 q -3.884098,4.304 -9.447807,4.304 -5.528717,0 -9.202864,-3.56917 -3.639156,-3.56917 -3.639156,-9.02791 0,-5.45873 3.70914,-9.09788 3.744131,-3.63916 9.412815,-3.63916 5.703676,0 9.517791,4.19903 l -2.624391,2.86933 q -1.749594,-1.67961 -3.324229,-2.34446 -1.539642,-0.66484 -3.639155,-0.66484 -3.709139,0 -6.228554,2.41444 -2.519416,2.37945 -2.519416,6.12358 0,3.70914 2.484424,6.22855 2.519415,2.48442 5.948619,2.48442 z"
         style="font-style:normal;font-variant:normal;font-weight:normal;font-stretch:normal;font-family:Montserrat;-inkscape-font-specification:Montserrat;fill:#000000;fill-opacity:1;stroke-width:1.27243197px"
         id="path10340"
         inkscape:connector-curvature="0" />
      <path
         d="m -10.479002,173.77135 q -2.484423,-2.5894 -6.123579,-2.5894 -3.639155,0 -6.15857,2.5894 -2.484424,2.5894 -2.484424,6.29854 0,3.67415 2.484424,6.26355 2.519415,2.5894 6.15857,2.5894 3.639156,0 6.123579,-2.5894 2.5194154,-2.5894 2.5194154,-6.26355 0,-3.70914 -2.5194154,-6.29854 z m 3.0442936,15.32645 q -3.7091396,3.60416 -9.1678726,3.60416 -5.458733,0 -9.167872,-3.60416 -3.709139,-3.63916 -3.709139,-9.02791 0,-5.42374 3.709139,-9.0279 3.709139,-3.63916 9.167872,-3.63916 5.458733,0 9.1678726,3.63916 3.7091391,3.60416 3.7091391,9.0279 0,5.38875 -3.7091391,9.02791 z"
         style="font-style:normal;font-variant:normal;font-weight:normal;font-stretch:normal;font-family:Montserrat;-inkscape-font-specification:Montserrat;fill:#000000;fill-opacity:1;stroke-width:1.27243197px"
         id="path10342"
         inkscape:connector-curvature="0" />
      <path
         d="M 5.6117968,192.45702 H 1.4827552 v -24.45933 h 6.4385056 l 7.3832862,15.36144 7.383287,-15.36144 h 6.403513 v 24.45933 h -4.129041 v -19.10557 l -8.538019,16.97106 H 14.114823 L 5.6117968,173.35145 Z"
         style="font-style:normal;font-variant:normal;font-weight:normal;font-stretch:normal;font-family:Montserrat;-inkscape-font-specification:Montserrat;fill:#000000;fill-opacity:1;stroke-width:1.27243197px"
         id="path10344"
         inkscape:connector-curvature="0" />
      <path
         d="m 44.257591,167.99769 q 5.563709,0 8.118116,2.13451 2.554407,2.1345 2.554407,6.57847 0,4.44397 -2.624391,6.50849 -2.589399,2.06452 -7.978148,2.06452 h -4.338993 v 7.17334 H 35.85954 v -24.45933 z m 0.524878,13.54186 q 3.429205,0 4.65392,-1.2947 1.259708,-1.32969 1.259708,-3.84911 0,-2.5544 -1.574635,-3.60416 -1.574634,-1.04976 -4.933854,-1.04976 h -4.199026 v 9.79773 z"
         style="font-style:normal;font-variant:normal;font-weight:normal;font-stretch:normal;font-family:Montserrat;-inkscape-font-specification:Montserrat;fill:#000000;fill-opacity:1;stroke-width:1.27243197px"
         id="path10346"
         inkscape:connector-curvature="0" />
      <path
         d="m 77.205723,173.77135 q -2.484423,-2.5894 -6.123579,-2.5894 -3.639155,0 -6.15857,2.5894 -2.484424,2.5894 -2.484424,6.29854 0,3.67415 2.484424,6.26355 2.519415,2.5894 6.15857,2.5894 3.639156,0 6.123579,-2.5894 2.519415,-2.5894 2.519415,-6.26355 0,-3.70914 -2.519415,-6.29854 z m 3.044293,15.32645 q -3.709139,3.60416 -9.167872,3.60416 -5.458733,0 -9.167872,-3.60416 -3.709139,-3.63916 -3.709139,-9.02791 0,-5.42374 3.709139,-9.0279 3.709139,-3.63916 9.167872,-3.63916 5.458733,0 9.167872,3.63916 3.70914,3.60416 3.70914,9.0279 0,5.38875 -3.70914,9.02791 z"
         style="font-style:normal;font-variant:normal;font-weight:normal;font-stretch:normal;font-family:Montserrat;-inkscape-font-specification:Montserrat;fill:#000000;fill-opacity:1;stroke-width:1.27243197px"
         id="path10348"
         inkscape:connector-curvature="0" />
      <path
         d="m 107.50323,167.99769 h 4.12904 v 24.45933 h -4.47896 L 93.296527,174.61116 v 17.84586 h -4.129041 v -24.45933 h 4.129041 l 14.206703,18.26576 z"
         style="font-style:normal;font-variant:normal;font-weight:normal;font-stretch:normal;font-family:Montserrat;-inkscape-font-specification:Montserrat;fill:#000000;fill-opacity:1;stroke-width:1.27243197px"
         id="path10350"
         inkscape:connector-curvature="0" />
      <path
         d="m 135.59952,167.99769 v 3.8841 h -13.05197 v 6.4735 h 11.72228 v 3.67415 h -11.72228 v 6.54348 h 13.47187 v 3.8841 h -17.60091 v -24.45933 z"
         style="font-style:normal;font-variant:normal;font-weight:normal;font-stretch:normal;font-family:Montserrat;-inkscape-font-specification:Montserrat;fill:#000000;fill-opacity:1;stroke-width:1.27243197px"
         id="path10352"
         inkscape:connector-curvature="0" />
      <path
         d="m 159.64932,167.99769 h 4.12904 v 24.45933 h -4.47896 l -13.85679,-17.84586 v 17.84586 h -4.12904 v -24.45933 h 4.12904 l 14.20671,18.26576 z"
         style="font-style:normal;font-variant:normal;font-weight:normal;font-stretch:normal;font-family:Montserrat;-inkscape-font-specification:Montserrat;fill:#000000;fill-opacity:1;stroke-width:1.27243197px"
         id="path10354"
         inkscape:connector-curvature="0" />
      <path
         d="m 179.80247,171.77682 v 20.6802 h -4.12904 v -20.6802 h -7.41828 v -3.77913 h 18.9656 v 3.77913 z"
         style="font-style:normal;font-variant:normal;font-weight:normal;font-stretch:normal;font-family:Montserrat;-inkscape-font-specification:Montserrat;fill:#000000;fill-opacity:1;stroke-width:1.27243197px"
         id="path10356"
         inkscape:connector-curvature="0" />
      <path
         d="m 199.06603,171.21695 q -1.78458,0 -2.93932,0.73483 -1.15473,0.73482 -1.15473,2.23948 0,1.46965 1.15473,2.27447 1.15474,0.76982 4.89887,1.67961 3.77912,0.90979 5.66868,2.5544 1.92455,1.64462 1.92455,4.86388 0,3.18426 -2.41444,5.17879 -2.41444,1.99454 -6.33353,1.99454 -5.73866,0 -10.18263,-3.95408 l 2.5894,-3.11428 q 3.70914,3.21925 7.69821,3.21925 1.99454,0 3.14927,-0.8398 1.18972,-0.8748 1.18972,-2.27447 0,-1.43467 -1.11974,-2.20449 -1.08475,-0.80481 -3.77912,-1.43467 -2.69438,-0.66484 -4.09405,-1.18972 -1.39968,-0.55987 -2.48442,-1.43467 -2.1695,-1.64462 -2.1695,-5.03883 0,-3.39421 2.44943,-5.21379 2.48442,-1.85457 6.12358,-1.85457 2.34446,0 4.65392,0.76982 2.30946,0.76982 3.98907,2.1695 l -2.20448,3.11428 q -1.08475,-0.97978 -2.93932,-1.60963 -1.85457,-0.62985 -3.67415,-0.62985 z"
         style="font-style:normal;font-variant:normal;font-weight:normal;font-stretch:normal;font-family:Montserrat;-inkscape-font-specification:Montserrat;fill:#000000;fill-opacity:1;stroke-width:1.27243197px"
         id="path10358"
         inkscape:connector-curvature="0" />
    </g>
    <g
       aria-label="TM"
       style="font-style:normal;font-variant:normal;font-weight:normal;font-stretch:normal;font-size:19.56885338px;line-height:125%;font-family:'Myriad Pro';-inkscape-font-specification:'Myriad Pro';letter-spacing:0px;word-spacing:0px;fill:#000000;fill-opacity:1;stroke:none;stroke-width:0.71159464px;stroke-linecap:butt;stroke-linejoin:miter;stroke-opacity:1"
       id="text10333">
      <path
         d="m 203.38742,58.595581 h 1.72206 V 46.854269 h 4.03118 v -1.448095 h -9.76486 v 1.448095 h 4.01162 z"
         style="stroke-width:0.71159464px"
         id="path10335"
         inkscape:connector-curvature="0" />
      <path
         d="m 222.03837,58.595581 h 1.66335 l -0.82189,-13.189407 h -2.17214 l -2.34827,6.379446 c -0.58706,1.663353 -1.05671,3.111448 -1.38938,4.44213 h -0.0587 c -0.33267,-1.36982 -0.78276,-2.817915 -1.33068,-4.44213 l -2.25042,-6.379446 h -2.17214 l -0.91974,13.189407 h 1.62421 l 0.35224,-5.655399 c 0.11742,-1.976454 0.21526,-4.187734 0.2544,-5.831518 h 0.0391 c 0.37181,1.565508 0.90016,3.267999 1.52637,5.12704 l 2.133,6.281602 h 1.29155 l 2.32869,-6.399015 c 0.66534,-1.800335 1.21327,-3.463687 1.66335,-5.009627 h 0.0587 c -0.0196,1.643784 0.0978,3.855064 0.19569,5.694536 z"
         style="stroke-width:0.71159464px"
         id="path10337"
         inkscape:connector-curvature="0" />
    </g>
  </g>
</svg>
