<?xml version="1.0" encoding="UTF-8" standalone="no"?>
<!DOCTYPE svg PUBLIC "-//W3C//DTD SVG 1.1//EN" "http://www.w3.org/Graphics/SVG/1.1/DTD/svg11.dtd">
<!-- Created with Vectornator (http://vectornator.io/) -->
<svg height="100%" stroke-miterlimit="10" style="fill-rule:nonzero;clip-rule:evenodd;stroke-linecap:round;stroke-linejoin:round;" version="1.1" viewBox="0 0 221.13 36.855" width="100%" xml:space="preserve" xmlns="http://www.w3.org/2000/svg" xmlns:vectornator="http://vectornator.io" xmlns:xlink="http://www.w3.org/1999/xlink">
<defs/>
<clipPath id="ArtboardFrame">
<rect height="36.855" width="221.13" x="0" y="0"/>
</clipPath>
<g clip-path="url(#ArtboardFrame)" id="Layer-1" vectornator:layerName="Layer 1">
<path d="M3.35476 35.0083C2.03014 35.0443 0.810472 34.2907 0.249998 33.09C-0.261509 31.9178 0.0280629 30.5501 0.970747 29.6858C1.60871 29.0688 2.46745 28.7332 3.35476 28.7544C4.25773 28.7185 5.13575 29.0553 5.78314 29.6858C6.41049 30.2454 6.76923 31.0462 6.76923 31.8869C6.76923 32.7276 6.41049 33.5283 5.78314 34.0879C5.12775 34.7046 4.25424 35.0357 3.35476 35.0083ZM41.9315 34.4982L35.8107 34.4982L19.6991 9.89294C19.3048 9.27794 18.9671 8.62845 18.6901 7.95246L18.5349 7.95246C18.6901 9.48266 18.7566 11.0129 18.7234 12.5542L18.7234 34.4871L13.3344 34.4871L13.3344 1L19.8433 1L35.4115 25.0287C36.0768 26.0266 36.5203 26.7141 36.6756 27.0911L36.7754 27.0911C36.5892 25.5981 36.515 24.0933 36.5536 22.5892L36.5536 1.01109L41.9315 1.01109C41.9315 1.01109 41.9315 34.4982 41.9315 34.4982ZM69.2091 34.4982L50.3144 34.4982L50.3144 1.01109L68.4994 1.01109L68.4994 5.72368L55.9029 5.72368L55.9029 15.2043L67.5015 15.2043L67.5015 19.8947L55.9029 19.8947L55.9029 29.8078L69.2091 29.8078L69.2091 34.4871L69.2091 34.4982ZM97.1076 5.73477L87.4163 5.73477L87.4163 34.4982L81.8166 34.4982L81.8166 5.73477L72.1475 5.73477L72.1475 1.02218L97.0965 1.02218L97.0965 5.73477L97.1076 5.73477ZM143.535 34.4317L143.535 11.3677C143.535 10.1923 143.646 8.28511 143.823 5.65715L143.723 5.65715C143.418 6.70367 143.055 7.73273 142.637 8.73974L130.983 34.4317L129.652 34.4317L117.976 8.90607C117.52 7.83652 117.153 6.73135 116.878 5.60171L116.79 5.60171C116.79 6.31137 116.889 7.13191 116.901 8.04117L116.901 34.4095L113.873 34.4095L113.873 1.03327L117.677 1.03327L129.042 26.1375L129.708 27.7675C129.952 28.3441 130.151 28.9318 130.34 29.5195L130.484 29.5195L131.072 27.823C131.249 27.3129 131.471 26.7252 131.737 26.1597L143.169 1.02218L146.64 1.02218L146.64 34.4317C146.64 34.4317 143.535 34.4317 143.535 34.4317ZM176.911 34.4317L173.23 24.5186L158.904 24.5186L155.322 34.4317L151.84 34.4317L164.559 1.02218L167.686 1.02218L180.326 34.4317C180.326 34.4317 176.911 34.4317 176.911 34.4317ZM166.732 6.89906L166.377 5.86783C166.258 5.43396 166.166 4.99332 166.1 4.5483L166 4.5483C165.845 5.34805 165.626 6.13414 165.346 6.89906L159.957 21.7687L172.188 21.7687L166.732 6.89906ZM208.613 21.0147C208.613 30.3511 204.51 35.0194 196.305 35.0194C188.499 35.0194 184.584 30.5285 184.584 21.5358L184.584 1.02218L187.689 1.02218L187.689 21.2808C187.689 24.9621 188.421 27.701 189.896 29.5084C191.371 31.3269 193.666 32.2362 196.737 32.2362C202.614 32.2362 205.553 28.6879 205.553 21.6134L205.553 1.02218L208.657 1.02218C208.657 1.02218 208.613 21.0147 208.613 21.0147ZM219.968 34.4317L216.83 34.4317L216.83 1.02218L219.934 1.02218L219.968 34.4317Z" fill="#000000" fill-rule="nonzero" opacity="1" stroke="none" vectornator:layerName="path"/>
</g>
</svg>
