<svg xmlns="http://www.w3.org/2000/svg" height="800" width="1200" viewBox="-22.225005 -11.62885 192.61671 69.7731"><defs><linearGradient gradientTransform="rotate(-65 -998.0938 -1339.207) scale(.26458)" y2="1395.619" x2="-4570.1162" y1="697.5549" x1="-5167.0962" gradientUnits="userSpaceOnUse" id="a"><stop offset="0" stop-color="#f69923"/><stop offset=".3123" stop-color="#f79a23"/><stop offset=".8383" stop-color="#e97826"/></linearGradient><linearGradient gradientTransform="rotate(-65 -998.0938 -1339.207) scale(.26458)" y2="620.5048" x2="-5326.209" y1="620.5048" x1="-9585.3418" gradientUnits="userSpaceOnUse" id="b"><stop offset=".3233" stop-color="#9e2064"/><stop offset=".6302" stop-color="#c92037"/><stop offset=".7514" stop-color="#cd2335"/><stop offset="1" stop-color="#e97826"/></linearGradient><linearGradient gradientTransform="rotate(-65 -998.0938 -1339.207) scale(.26458)" y2="1047.6898" x2="-6533.1782" y1="1047.6898" x1="-9071.207" gradientUnits="userSpaceOnUse" id="c"><stop offset="0" stop-color="#282662"/><stop offset=".0955" stop-color="#662e8d"/><stop offset=".7882" stop-color="#9f2064"/><stop offset=".9487" stop-color="#cd2032"/></linearGradient><linearGradient gradientTransform="rotate(-65 -998.0938 -1339.207) scale(.26458)" y2="580.817" x2="-5086.9941" y1="580.817" x1="-9346.126" gradientUnits="userSpaceOnUse" id="d"><stop offset=".3233" stop-color="#9e2064"/><stop offset=".6302" stop-color="#c92037"/><stop offset=".7514" stop-color="#cd2335"/><stop offset="1" stop-color="#e97826"/></linearGradient><linearGradient gradientTransform="rotate(-65 -998.0938 -1339.207) scale(.26458)" y2="638.4408" x2="-6797.2012" y1="638.4408" x1="-9035.5029" gradientUnits="userSpaceOnUse" id="e"><stop offset="0" stop-color="#282662"/><stop offset=".0955" stop-color="#662e8d"/><stop offset=".7882" stop-color="#9f2064"/><stop offset=".9487" stop-color="#cd2032"/></linearGradient><linearGradient gradientTransform="rotate(-65 -998.0938 -1339.207) scale(.26458)" y2="1021.6218" x2="-5086.9941" y1="1021.6218" x1="-9346.126" gradientUnits="userSpaceOnUse" id="f"><stop offset=".3233" stop-color="#9e2064"/><stop offset=".6302" stop-color="#c92037"/><stop offset=".7514" stop-color="#cd2335"/><stop offset="1" stop-color="#e97826"/></linearGradient><linearGradient gradientTransform="rotate(-65 -998.0938 -1339.207) scale(.26458)" y2="999.733" x2="-5351.2017" y1="999.733" x1="-9610.334" gradientUnits="userSpaceOnUse" id="g"><stop offset=".3233" stop-color="#9e2064"/><stop offset=".6302" stop-color="#c92037"/><stop offset=".7514" stop-color="#cd2335"/><stop offset="1" stop-color="#e97826"/></linearGradient><linearGradient gradientTransform="rotate(-65 -998.0938 -1339.207) scale(.26458)" y2="1152.7261" x2="-5086.9941" y1="1152.7261" x1="-9346.126" gradientUnits="userSpaceOnUse" id="h"><stop offset=".3233" stop-color="#9e2064"/><stop offset=".6302" stop-color="#c92037"/><stop offset=".7514" stop-color="#cd2335"/><stop offset="1" stop-color="#e97826"/></linearGradient><linearGradient gradientTransform="rotate(-65 -998.0938 -1339.207) scale(.26458)" y2="1137.7247" x2="-5086.9941" y1="1137.7247" x1="-9346.126" gradientUnits="userSpaceOnUse" id="i"><stop offset=".3233" stop-color="#9e2064"/><stop offset=".6302" stop-color="#c92037"/><stop offset=".7514" stop-color="#cd2335"/><stop offset="1" stop-color="#e97826"/></linearGradient><linearGradient gradientTransform="rotate(-65 -998.0938 -1339.207) scale(.26458)" y2="1134.7161" x2="-6011.9995" y1="1134.7161" x1="-6953.4072" gradientUnits="userSpaceOnUse" id="j"><stop offset=".3233" stop-color="#9e2064"/><stop offset=".6302" stop-color="#c92037"/><stop offset=".7514" stop-color="#cd2335"/><stop offset="1" stop-color="#e97826"/></linearGradient></defs><g transform="translate(-9.9218 -174.402)"><g fill="#1e83d6"><path d="M25.0045 175.0964c-7.254.3058 8.9428 7.7774 9.4814 3.6649 1.7117 1.8783.167 2.0748.167 2.0748-6.966 1.0003-16.368-5.233-11.8361-6.3949 1.1147-.2337 2.1877.6552 2.1877.6552z"/><path d="M34.7865 182.1465c-2.5447 6.9147.4446 15.4478 5.6424 20.9844 2.5969 2.5291 15.4892 9.3695 4.2982 14.8013-7.1643 4.5908-23.9978 3.1843-29.9973.4673-6.1768-4.0273-6.0892-6.277-1.5217-10.4921 4.7281-4.8683 9.448-5.4973 11.4164-17.0181.4489-6.3709-1.1648-8.7777-1.2107-11.2719.0898-1.2165 7.062 17.5641-7.6987 27.7287-1.8516 1.2733-6.0892 5.9974.0877 9.2734 8.2206 3.2455 13.7002 5.7157 27.4881.1879 7.4315-3.56-1.5218-11.427-3.3129-12.7418-.979-.843-9.6024-11.1124-5.6404-21.8251.2693 0 .4489-.094.4489-.094zm-8.4168-6.9321s5.1477 1.5463 6.492 2.9048c0 .0939-1.1647-2.859-6.492-2.9048z"/><path d="M24.5786 179.766h.5386s2.9559 8.9196 1.0291 14.4452c-.0459 0 1.2087-5.4863-1.5218-14.1526 0 .0437-.0459-.2927-.0459-.2927zm8.732 1.6773s-6.4044 10.444 5.0142 22.0152c-9.851-10.4463-5.5528-20.327-5.0142-21.1722.716-1.0767 0-.843 0-.843zm-14.4705 31.0462s-10.4291 6.3993 17.2469 4.877c-13.7524-.2446-17.8314-2.254-17.2469-4.877z"/></g><path d="M281.339-450.3272c-17.542 10.3452-46.6725 39.661-81.4653 82.1267l31.9617 60.325c22.4367-32.094 45.2173-60.96 68.2096-85.6192 1.7727-1.958 2.6987-2.884 2.6987-2.884-.8995.9525-1.7991 1.9315-2.6987 2.884-7.4348 8.202-30.0038 34.5281-64.0556 86.8098 32.7818-1.6404 83.1585-8.3344 124.2483-15.3723 12.2238-68.4742-11.9856-99.8273-11.9856-99.8273s-30.771-49.7946-66.9131-28.4427z" fill="url(#a)" transform="matrix(.04191 0 0 .0352 42.4109 193.7466)"/><path d="M51.9352 190.0084c.01-.0019.02-.0028.03-.0047l-.193.0177c-.0122.0047-.0222.0093-.0344.013.0665-.0083.132-.0176.1974-.026zm-1.3674 3.8032a5.51 5.51 0 01-.335.0503 6.3526 6.3526 0 00.335-.0503zm-9.2933 8.5312a3.5508 3.5508 0 00.0421-.095c.295-.6537.5867-1.2888.8761-1.9081.325-.6947.6454-1.367.9626-2.019.3338-.6872.6632-1.3512.9881-1.9928.3405-.6733.6765-1.3215 1.0059-1.9454a112.9718 112.9718 0 011.0524-1.9463c.1708-.3083.3405-.611.5068-.9062a78.178 78.178 0 01.4591-.8008c.05-.0876.101-.1732.1508-.2599.0078-.014.0167-.0279.0244-.0419l-.164.015-.131-.2161c-.0121.0214-.0255.0419-.0388.0633-.235.392-.468.7879-.6986 1.1874a106.1147 106.1147 0 00-1.4783 2.6476 113.215 113.215 0 00-1.0524 1.9947 140.9892 140.9892 0 00-.9937 1.964 155.0982 155.0982 0 00-.9493 1.95 146.79 146.79 0 00-.9404 2.005 186.381 186.381 0 00-.9182 2.0264l.2062.3418.1841-.0168a2.3302 2.3302 0 01.02-.0465 172.227 172.227 0 01.886-2.0004zm8.873-8.4698c.001 0 .001-.0009.0022-.0009 0 0-.0011 0-.0022.001z" fill="none"/><path d="M49.7039 195.7272c-.1708.026-.3471.0512-.5279.0773-.0011 0-.0022.001-.0033.001a11.345 11.345 0 00.2695-.0355 7.517 7.517 0 00.2617-.0428z" fill="#be202e"/><path d="M49.7039 195.7272c-.1708.026-.3471.0512-.5279.0773-.0011 0-.0022.001-.0033.001a11.345 11.345 0 00.2695-.0355 7.517 7.517 0 00.2617-.0428z" opacity=".35" fill="#be202e"/><path d="M50.152 193.8712s-.0012 0-.0012.001c-.0011 0-.0011.0009-.0022.0009.0288-.0028.0565-.0075.0843-.0103a6.0227 6.0227 0 00.3349-.0503c-.1364.0187-.275.0392-.4159.0587z" fill="#be202e"/><path d="M50.152 193.8712s-.0012 0-.0012.001c-.0011 0-.0011.0009-.0022.0009.0288-.0028.0565-.0075.0843-.0103a6.0227 6.0227 0 00.3349-.0503c-.1364.0187-.275.0392-.4159.0587z" opacity=".35" fill="#be202e"/><path d="M137.6173-152.0095c9.7102-18.1504 19.5527-35.904 29.501-53.1813 10.3188-17.9387 20.7698-35.3483 31.3267-52.1229.6085-.979 1.2435-1.9843 1.852-2.9898 10.4247-16.51 20.955-32.385 31.5649-47.572l-31.9617-60.325c-2.4077 2.9368-4.8154 5.9266-7.276 8.9693-9.2075 11.483-18.7855 23.839-28.6015 36.9359-11.0596 14.7637-22.4367 30.5329-33.999 47.0693-10.6627 15.293-21.4841 31.3003-32.3056 47.8632-9.2075 14.1023-18.4679 28.6279-27.649 43.524l-1.0318 1.6668 41.5925 82.1531c8.89-17.5948 17.8858-34.9514 26.9875-51.9906z" fill="url(#b)" transform="matrix(.04191 0 0 .0352 42.4109 193.7466)"/><path d="M-51.8244 310.879c-5.5033 15.1342-11.0331 30.533-16.5893 46.2757-.0794.238-.1588.4497-.2382.6879-.7937 2.2225-1.561 4.445-2.3548 6.6675-3.7306 10.6098-6.985 20.1612-14.4198 41.8835 12.2503 5.5827 22.0928 20.2936 31.406 36.9888-.9789-17.2773-8.149-33.5227-21.7222-46.0905 60.4044 2.7253 112.448-12.5412 139.356-56.7002 2.4077-3.9423 4.6038-8.0698 6.5882-12.4883-12.2238 15.5046-27.3844 22.0927-55.933 20.4788-.0529.0265-.1322.0529-.1852.0794.053-.0265.1323-.053.1852-.0794 42.0159-18.812 63.1032-36.8565 81.7298-66.7809 4.4186-7.0908 8.7048-14.8431 13.097-23.442-36.7507 37.7295-79.3222 48.4716-124.169 40.3224l-33.6286 3.6777c-1.0583 2.831-2.0902 5.6621-3.122 8.5196z" fill="url(#c)" transform="matrix(.04191 0 0 .0352 42.4109 193.7466)"/><path d="M-36.1346 235.5522c7.276-18.7855 14.7638-37.7825 22.4367-56.9648 7.3554-18.3621 14.9225-36.83 22.6483-55.4038 7.7258-18.5737 15.6369-37.174 23.7067-55.8006 8.202-18.9442 16.5894-37.8619 25.109-56.6738 8.4402-18.6002 17.0391-37.121 25.7704-55.4566C86.685-51.362 89.86-57.9501 93.035-64.5118a2501.6682 2501.6682 0 0116.6688-33.7344c.291-.6085.6085-1.1906.926-1.7991l-41.5925-82.1532c-.688 1.1113-1.3494 2.2225-2.0373 3.3338-9.6837 15.822-19.341 32.0146-28.8131 48.551-9.578 16.6952-18.9706 33.708-28.1517 50.9588C2.283-64.803-5.2842-50.1185-12.6396-35.3018c-1.4816 3.0163-2.9369 5.9796-4.392 8.9694A1214.6213 1214.6213 0 00-41.6909 27.669C-50.0781 47.3011-57.46 66.06-63.9158 83.84c-4.2598 11.6947-8.1227 22.9924-11.6682 33.8403-2.9104 9.2604-5.6885 18.5473-8.3079 27.7812-6.2177 21.7752-11.5623 43.4975-15.9543 65.1405l41.8041 82.5235c5.5298-14.7638 11.1919-29.7127 17.0127-44.8733a4068.504 4068.504 0 014.8948-12.7z" fill="url(#d)" transform="matrix(.04191 0 0 .0352 42.4109 193.7466)"/><path d="M-100.4019 213.5388c-5.2387 26.4054-8.9694 52.705-10.8479 78.8459-.0529.926-.1587 1.8256-.2117 2.7516-13.044-20.902-47.969-41.3014-47.8895-41.1162 25.003 36.2479 43.9737 72.2312 46.8047 107.5531-13.3879 2.7517-31.7235-1.217-52.9166-9.0223 22.0927 20.2935 38.682 25.9027 45.1379 27.4108-20.2935 1.27-41.4338 15.2136-62.7327 31.2738 31.1414-12.7 56.3033-17.727 74.3214-13.6525-28.575 80.9096-57.2293 170.233-85.8837 265.0596 8.7842-2.593 14.023-8.4932 16.9598-16.4836 5.1064-17.1714 38.9996-129.831 92.1014-277.9183 1.5082-4.2069 3.0428-8.4402 4.5773-12.7.4234-1.1906.8732-2.3813 1.2965-3.5454 5.6092-15.531 11.43-31.3796 17.436-47.5456 1.3759-3.6778 2.7517-7.3555 4.1275-11.0596.0265-.0794.053-.1588.0794-.2117l-41.7512-82.497c-.1852.926-.4234 1.8785-.6086 2.8574z" fill="url(#e)" transform="matrix(.04191 0 0 .0352 42.4109 193.7466)"/><path d="M117.0856-93.0868c-1.1906 2.4342-2.3812 4.8948-3.5983 7.3819-3.5983 7.4348-7.2496 15.0019-10.9538 22.7541-3.9952 8.3873-8.0168 16.9598-12.0914 25.744-2.0638 4.4185-4.101 8.8635-6.1913 13.388-6.2177 13.5201-12.5148 27.4901-18.9177 41.91-7.8581 17.727-15.875 36.142-23.9977 55.2714-7.7523 18.2298-15.6104 37.0946-23.5744 56.6208-7.567 18.5208-15.2135 37.6502-22.9658 57.3617-6.9056 17.5948-13.8642 35.6393-20.902 54.2131-.344.8996-.688 1.7992-1.0055 2.6987-6.985 18.4415-14.023 37.3857-21.1137 56.806-.1588.4499-.3175.8997-.4763 1.323l33.6286-3.6777c-.6615-.1323-1.3494-.2117-2.0109-.344 40.2167-5.0006 93.6625-35.0572 128.2171-72.1518 15.928-17.0921 30.3742-37.2534 43.7356-60.8542 9.9484-17.5683 19.2882-37.0417 28.1782-58.6052 7.7787-18.8383 15.24-39.2377 22.4366-61.3569-9.234 4.8684-19.8173 8.4402-31.4854 10.9273-2.0373.4233-4.1275.8467-6.2442 1.217-2.1166.3705-4.2598.7145-6.4293 1.0055.0265 0 .0529-.0265.0794-.0265 37.4914-14.4198 61.1452-42.2804 78.343-76.3852-9.8689 6.7204-25.9026 15.531-45.1114 19.7644-2.6193.582-5.2916 1.0319-7.9904 1.4287-.6879.1059-1.3494.2117-2.0108.291.0265 0 .0265-.0264.0529-.0264 0 0 .0265 0 .0265-.0265 13.0175-5.4504 23.9977-11.5359 33.5227-18.7325 2.0373-1.5346 4.0217-3.1221 5.9267-4.789 2.9104-2.5135 5.662-5.1594 8.3079-7.9375 1.6933-1.7727 3.3337-3.5983 4.9212-5.5033 3.7307-4.445 7.2232-9.234 10.504-14.4463 1.0054-1.5875 1.9844-3.2014 2.9633-4.8683 1.2436-2.4077 2.4342-4.7625 3.5983-7.0908 5.2388-10.5305 9.4192-19.9232 12.753-28.1782 1.6668-4.1275 3.122-7.9375 4.3656-11.4829.5027-1.4023.979-2.7781 1.4287-4.101 1.323-3.9688 2.4077-7.4877 3.2544-10.5834 1.27-4.6302 2.0373-8.3079 2.4606-10.9802-1.27 1.0055-2.7252 2.0109-4.3656 2.9898-11.3241 6.7734-30.7446 12.9117-46.4079 15.7957l30.8769-3.3867-30.8769 3.3867c-.2381.0529-.4762.0794-.7144.1322-1.561.2646-3.1485.5028-4.736.7673.291-.1323.5292-.2645.8202-.3704L117.6678-94.2246c-.1852.3704-.3704.7408-.5821 1.1377z" fill="url(#f)" transform="matrix(.04191 0 0 .0352 42.4109 193.7466)"/><path d="M236.0158-306.6585c-9.3927 14.4198-19.6585 30.7975-30.6916 49.3448-.5821.9525-1.1642 1.958-1.7463 2.937-9.525 16.0601-19.6585 33.6814-30.2948 52.996-9.2075 16.6687-18.7854 34.5545-28.7337 53.7897-8.6784 16.7482-17.6477 34.5282-26.8552 53.34l105.648-11.5887c30.7711-14.1552 44.5295-26.961 57.891-45.4819a523.5439 523.5439 0 0010.6626-15.9808c10.848-16.9334 21.4842-35.5865 31.0092-54.1338 9.181-17.9123 17.2773-35.6658 23.495-51.673 3.9423-10.1866 7.1173-19.6586 9.3133-27.9666 1.9315-7.329 3.4396-14.2874 4.6038-20.9285-41.1427 7.0115-91.5194 13.7319-124.3013 15.3458z" fill="url(#g)" transform="matrix(.04191 0 0 .0352 42.4109 193.7466)"/><path d="M167.7533 57.4876c-2.1166.3704-4.2598.7144-6.4293 1.0054 2.1695-.291 4.3127-.635 6.4293-1.0054z" fill="url(#h)" transform="matrix(.04191 0 0 .0352 42.4109 193.7466)"/><path d="M50.1475 193.873c.0288-.0027.0565-.0074.0843-.0102-.0278.0028-.0555.0066-.0843.0103z" fill="#be202e"/><path d="M50.1475 193.873c.0288-.0027.0565-.0074.0843-.0102-.0278.0028-.0555.0066-.0843.0103z" opacity=".35" fill="#be202e"/><path d="M184.5808 3.592c.688-.0794 1.3494-.2117 2.0109-.291-.6615.0793-1.323.1851-2.0109.291z" fill="url(#i)" transform="matrix(.04191 0 0 .0352 42.4109 193.7466)"/><path d="M50.1508 193.8721s.0011 0 .0011-.0009c0 0-.001 0-.001.001z" fill="#be202e"/><path d="M50.1508 193.8721s.0011 0 .0011-.0009c0 0-.001 0-.001.001z" opacity=".35" fill="#be202e"/><path d="M184.6602 3.5655s.0265 0 .0265-.0265c0 0-.0265 0-.0265.0265z" fill="url(#j)" transform="matrix(.04191 0 0 .0352 42.4109 193.7466)"/><path d="M58.8586 181.3133v.109h.3039v.7207h.1408v-.7208h.306v-.109zm1.7555 0l-.3393.5792-.3416-.5792h-.1697v.8297h.1298v-.6584l.336.5709h.0898l.336-.5709v.6584h.1298v-.8297z" fill="#6d6e71"/><circle r="9.683" cy="205.6535" cx="96.7946" fill="none" stroke="#353535" stroke-width="1.9334" stroke-linecap="round" stroke-linejoin="bevel"/><path fill="#353535" stroke="#353535" stroke-width="1.3549" stroke-linecap="round" d="M105.9532 194.6459h1.1364v21.0026h-1.1364z"/><circle r="9.683" cy="205.7473" cx="133.5752" fill="none" stroke="#353535" stroke-width="1.9334" stroke-linecap="round" stroke-linejoin="bevel"/><path fill="#353535" stroke="#353535" stroke-width="1.3549" stroke-linecap="round" d="M142.7339 194.7396h1.1364v21.0026h-1.1364zm8.6711.0938h1.1364v21.0026h-1.1364z"/><path d="M114.9843 200.5529s1.909-3.6125 5.532-3.4692l-.0938-1.969s-2.3674-.3516-5.4381 2.719z" fill="#353535" fill-rule="evenodd" stroke="#353535" stroke-width=".1313"/><path fill="#353535" stroke="#353535" stroke-width="1.6069" stroke-linecap="round" d="M157.285 196.0674v.7451h-9.3672v-.7451z"/><path d="M153.212 194.2215s-.854-4.5081 4.598-4.906v-1.5001s-7.079-.5157-7.079 6.3757z" fill="#353535" fill-rule="evenodd" stroke="#353535" stroke-width=".134"/><path fill="#353535" stroke="#353535" stroke-width="1.3549" stroke-linecap="round" d="M113.1785 194.7396h1.1364v21.0026h-1.1364z"/><path fill="#353535" stroke="#353535" stroke-width="1.497" stroke-linecap="round" d="M66.879 188.8845h1.1364v25.6388H66.879z"/><path fill="#353535" stroke="#353535" stroke-width="1.4617" stroke-linecap="round" d="M81.8972 188.9707l.919.7268-14.7045 18.5934-.919-.7269z"/><path transform="rotate(-38.514) skewX(-.114)" fill="#353535" stroke="#353535" stroke-width="1.2111" stroke-linecap="round" d="M-69.0883 202.9612h1.1364v16.7804h-1.1364z"/></g></svg>