<?xml version="1.0" encoding="UTF-8"?>
<svg width="51px" height="55px" viewBox="0 0 51 55" version="1.1" xmlns="http://www.w3.org/2000/svg" xmlns:xlink="http://www.w3.org/1999/xlink">
    <title>apachekaraf-plain</title>
    <defs>
        <linearGradient x1="16.5314544%" y1="57.9783674%" x2="159.464875%" y2="32.4870512%" id="linearGradient-1">
            <stop stop-color="#F69923" offset="0%"></stop>
            <stop stop-color="#F79A23" offset="31.23%"></stop>
            <stop stop-color="#E97826" offset="83.83%"></stop>
        </linearGradient>
        <linearGradient x1="16.5314544%" y1="57.9783674%" x2="159.464875%" y2="32.4870512%" id="linearGradient-2">
            <stop stop-color="#000000" offset="0%"></stop>
            <stop stop-color="#000000" offset="31.23%"></stop>
            <stop stop-color="#000000" offset="83.83%"></stop>
        </linearGradient>
        <linearGradient x1="-89.92714%" y1="394.600935%" x2="62.9133822%" y2="13.7763936%" id="linearGradient-3">
            <stop stop-color="#9E2064" offset="32.33%"></stop>
            <stop stop-color="#C92037" offset="63.02%"></stop>
            <stop stop-color="#CD2335" offset="75.14%"></stop>
            <stop stop-color="#E97826" offset="100%"></stop>
        </linearGradient>
        <linearGradient x1="-89.92714%" y1="394.600935%" x2="62.9133822%" y2="13.7763936%" id="linearGradient-4">
            <stop stop-color="#000000" offset="32.33%"></stop>
            <stop stop-color="#000000" offset="63.02%"></stop>
            <stop stop-color="#000000" offset="75.14%"></stop>
            <stop stop-color="#000000" offset="100%"></stop>
        </linearGradient>
        <linearGradient x1="-20.6678989%" y1="140.94503%" x2="125.224793%" y2="-68.9821487%" id="linearGradient-5">
            <stop stop-color="#282662" offset="0%"></stop>
            <stop stop-color="#662E8D" offset="9.55%"></stop>
            <stop stop-color="#9F2064" offset="78.82%"></stop>
            <stop stop-color="#CD2032" offset="94.87%"></stop>
        </linearGradient>
        <linearGradient x1="-20.6678989%" y1="140.94503%" x2="125.224793%" y2="-68.9821487%" id="linearGradient-6">
            <stop stop-color="#000000" offset="0%"></stop>
            <stop stop-color="#000000" offset="9.55%"></stop>
            <stop stop-color="#000000" offset="78.82%"></stop>
            <stop stop-color="#000000" offset="94.87%"></stop>
        </linearGradient>
        <linearGradient x1="12.6104682%" y1="175.889826%" x2="79.708316%" y2="-55.3885217%" id="linearGradient-7">
            <stop stop-color="#9E2064" offset="32.33%"></stop>
            <stop stop-color="#C92037" offset="63.02%"></stop>
            <stop stop-color="#CD2335" offset="75.14%"></stop>
            <stop stop-color="#E97826" offset="100%"></stop>
        </linearGradient>
        <linearGradient x1="12.6104682%" y1="175.889826%" x2="79.708316%" y2="-55.3885217%" id="linearGradient-8">
            <stop stop-color="#000000" offset="32.33%"></stop>
            <stop stop-color="#000000" offset="63.02%"></stop>
            <stop stop-color="#000000" offset="75.14%"></stop>
            <stop stop-color="#000000" offset="100%"></stop>
        </linearGradient>
        <linearGradient x1="41.1434379%" y1="77.3350381%" x2="64.8654769%" y2="-41.4194946%" id="linearGradient-9">
            <stop stop-color="#282662" offset="0%"></stop>
            <stop stop-color="#662E8D" offset="9.55%"></stop>
            <stop stop-color="#9F2064" offset="78.82%"></stop>
            <stop stop-color="#CD2032" offset="94.87%"></stop>
        </linearGradient>
        <linearGradient x1="41.1434379%" y1="77.3350381%" x2="64.8654769%" y2="-41.4194946%" id="linearGradient-10">
            <stop stop-color="#000000" offset="0%"></stop>
            <stop stop-color="#000000" offset="9.55%"></stop>
            <stop stop-color="#000000" offset="78.82%"></stop>
            <stop stop-color="#000000" offset="94.87%"></stop>
        </linearGradient>
        <linearGradient x1="-20.5056095%" y1="187.751617%" x2="100.438188%" y2="-51.1414652%" id="linearGradient-11">
            <stop stop-color="#9E2064" offset="32.33%"></stop>
            <stop stop-color="#C92037" offset="63.02%"></stop>
            <stop stop-color="#CD2335" offset="75.14%"></stop>
            <stop stop-color="#E97826" offset="100%"></stop>
        </linearGradient>
        <linearGradient x1="-20.5056095%" y1="187.751617%" x2="100.438188%" y2="-51.1414652%" id="linearGradient-12">
            <stop stop-color="#000000" offset="32.33%"></stop>
            <stop stop-color="#000000" offset="63.02%"></stop>
            <stop stop-color="#000000" offset="75.14%"></stop>
            <stop stop-color="#000000" offset="100%"></stop>
        </linearGradient>
        <linearGradient x1="-135.845264%" y1="311.463469%" x2="69.4659829%" y2="27.0524725%" id="linearGradient-13">
            <stop stop-color="#9E2064" offset="32.33%"></stop>
            <stop stop-color="#C92037" offset="63.02%"></stop>
            <stop stop-color="#CD2335" offset="75.14%"></stop>
            <stop stop-color="#E97826" offset="100%"></stop>
        </linearGradient>
        <linearGradient x1="-135.845264%" y1="311.463469%" x2="69.4659829%" y2="27.0524725%" id="linearGradient-14">
            <stop stop-color="#000000" offset="32.33%"></stop>
            <stop stop-color="#000000" offset="63.02%"></stop>
            <stop stop-color="#000000" offset="75.14%"></stop>
            <stop stop-color="#000000" offset="100%"></stop>
        </linearGradient>
        <linearGradient x1="-4549.60501%" y1="8738.17305%" x2="2857.74166%" y2="-5252.93881%" id="linearGradient-15">
            <stop stop-color="#9E2064" offset="32.33%"></stop>
            <stop stop-color="#C92037" offset="63.02%"></stop>
            <stop stop-color="#CD2335" offset="75.14%"></stop>
            <stop stop-color="#E97826" offset="100%"></stop>
        </linearGradient>
        <linearGradient x1="-4549.60501%" y1="8738.17305%" x2="2857.74166%" y2="-5252.93881%" id="linearGradient-16">
            <stop stop-color="#000000" offset="32.33%"></stop>
            <stop stop-color="#000000" offset="63.02%"></stop>
            <stop stop-color="#000000" offset="75.14%"></stop>
            <stop stop-color="#000000" offset="100%"></stop>
        </linearGradient>
        <linearGradient x1="-15881.5334%" y1="68757.1961%" x2="7801.42151%" y2="-33372.9171%" id="linearGradient-17">
            <stop stop-color="#9E2064" offset="32.33%"></stop>
            <stop stop-color="#C92037" offset="63.02%"></stop>
            <stop stop-color="#CD2335" offset="75.14%"></stop>
            <stop stop-color="#E97826" offset="100%"></stop>
        </linearGradient>
        <linearGradient x1="-15881.5334%" y1="68757.1961%" x2="7801.42151%" y2="-33372.9171%" id="linearGradient-18">
            <stop stop-color="#000000" offset="32.33%"></stop>
            <stop stop-color="#000000" offset="63.02%"></stop>
            <stop stop-color="#000000" offset="75.14%"></stop>
            <stop stop-color="#000000" offset="100%"></stop>
        </linearGradient>
        <linearGradient x1="-5213.0781%" y1="11337.7572%" x2="5313.39821%" y2="-11236.3441%" id="linearGradient-19">
            <stop stop-color="#9E2064" offset="32.33%"></stop>
            <stop stop-color="#C92037" offset="63.02%"></stop>
            <stop stop-color="#CD2335" offset="75.14%"></stop>
            <stop stop-color="#E97826" offset="100%"></stop>
        </linearGradient>
        <linearGradient x1="-5213.0781%" y1="11337.7572%" x2="5313.39821%" y2="-11236.3441%" id="linearGradient-20">
            <stop stop-color="#000000" offset="32.33%"></stop>
            <stop stop-color="#000000" offset="63.02%"></stop>
            <stop stop-color="#000000" offset="75.14%"></stop>
            <stop stop-color="#000000" offset="100%"></stop>
        </linearGradient>
    </defs>
    <g id="apachekaraf-plain" stroke="none" stroke-width="1" fill="none" fill-rule="evenodd">
        <g id="Apache_Karaf-Logo.-Copy" transform="translate(3.000025, 3.000050)">
            <g id="Group" transform="translate(0.000000, 0.000000)" fill="#000000" fill-rule="nonzero">
                <path d="M15.0826747,0.694350314 C7.82867472,1.00015031 24.0254747,8.47175031 24.5640747,4.35925031 C26.2757747,6.23755031 24.7310747,6.43405031 24.7310747,6.43405031 C17.7650747,7.43435031 8.36307472,1.20105031 12.8949747,0.0391503138 C14.0096747,-0.194549686 15.0826747,0.694350314 15.0826747,0.694350314 Z" id="Path"></path>
                <path d="M24.8646747,7.74445031 C22.3199747,14.6591503 25.3092747,23.1922503 30.5070747,28.7288503 C33.1039747,31.2579503 45.9962747,38.0983503 34.8052747,43.5301503 C27.6409747,48.1209503 10.8074747,46.7144503 4.80797472,43.9974503 C-1.36882528,39.9701503 -1.28122528,37.7204503 3.28627472,33.5053503 C8.01437472,28.6370503 12.7342747,28.0080503 14.7026747,16.4872503 C15.1515747,10.1163503 13.5378747,7.70955031 13.4919747,5.21535031 C13.5817747,3.99885031 20.5539747,22.7794503 5.79327472,32.9440503 C3.94167472,34.2173503 -0.295925285,38.9414503 5.88097472,42.2174503 C14.1015747,45.4629503 19.5811747,47.9331503 33.3690747,42.4053503 C40.8005747,38.8453503 31.8472747,30.9783503 30.0561747,29.6635503 C29.0771747,28.8205503 20.4537747,18.5511503 24.4157747,7.83845031 C24.6850747,7.83845031 24.8646747,7.74445031 24.8646747,7.74445031 L24.8646747,7.74445031 Z M16.4478747,0.812350314 C16.4478747,0.812350314 21.5955747,2.35865031 22.9398747,3.71715031 C22.9398747,3.81105031 21.7751747,0.858150314 16.4478747,0.812350314 L16.4478747,0.812350314 Z" id="Shape"></path>
                <path d="M14.6567747,5.36385031 L15.1953747,5.36385031 C15.1953747,5.36385031 18.1512747,14.2835503 16.2244747,19.8091503 C16.1785747,19.8091503 17.4331747,14.3228503 14.7026747,5.65655031 C14.7026747,5.70025031 14.6567747,5.36385031 14.6567747,5.36385031 L14.6567747,5.36385031 Z M23.3887747,7.04125031 C23.3887747,7.04125031 16.9843747,17.4852503 28.4029747,29.0564503 C18.5519747,18.6101503 22.8501747,8.72945031 23.3887747,7.88425031 C24.1047747,6.80755031 23.3887747,7.04125031 23.3887747,7.04125031 Z M8.91827472,38.0874503 C8.91827472,38.0874503 -1.51082528,44.4867503 26.1651747,42.9644503 C12.4127747,42.7198503 8.33377472,40.7104503 8.91827472,38.0874503 Z" id="Shape"></path>
            </g>
            <path d="M44.2799922,3.49303287 C43.544807,3.85718391 42.3239477,4.88910007 40.8657815,6.38389271 L42.2052963,8.50733271 C43.1456184,7.37762391 44.1003534,6.36154071 45.0639607,5.49353687 C45.1382545,5.42461527 45.1770632,5.39202007 45.1770632,5.39202007 C45.1393651,5.42554807 45.1016629,5.46000887 45.0639607,5.49353687 C44.7523682,5.78224727 43.8065014,6.70892599 42.3793905,8.54924183 C43.7532757,8.49149975 45.8645632,8.25587095 47.5866367,8.00813687 C48.0989362,5.59784503 47.0843202,4.49421591 47.0843202,4.49421591 C47.0843202,4.49421591 45.7947076,2.74144599 44.2799922,3.49303287 L44.2799922,3.49303287 Z" id="Path" fill="url(#linearGradient-2)" fill-rule="nonzero"></path>
            <path d="M42.0133747,15.6063503 C42.0233747,15.6044503 42.0333747,15.6035503 42.0433747,15.6016503 L41.8503747,15.6193503 C41.8381747,15.6240503 41.8281747,15.6286503 41.8159747,15.6323503 C41.8824747,15.6240503 41.9479747,15.6147503 42.0133747,15.6063503 L42.0133747,15.6063503 Z M40.6459747,19.4095503 C42.0146393,17.4366004 44.5033813,16.5771693 46.797842,17.2851413 C49.0923027,17.9931133 50.6640854,20.1054479 50.6830976,22.5065753 C50.7021098,24.9077027 49.163973,27.0446618 46.8810108,27.7888779 C44.5980485,28.533094 42.0960094,27.71318 40.6962747,25.7621503 L40.6459747,19.4095503 Z M31.3526747,27.9407503 C31.6476747,27.2870503 31.9393747,26.6519503 32.2287747,26.0326503 C32.5537747,25.3379503 32.8741747,24.6656503 33.1913747,24.0136503 C33.5251747,23.3264503 33.8545747,22.6624503 34.1794747,22.0208503 C34.5199747,21.3475503 34.8559747,20.6993503 35.1853747,20.0754503 C35.3561747,19.7671503 35.5258747,19.4644503 35.6921747,19.1692503 C35.7421747,19.0816503 35.7931747,18.9960503 35.8429747,18.9093503 C35.8507747,18.8953503 35.8596747,18.8814503 35.8673747,18.8674503 L35.7033747,18.8824503 L35.5723747,18.6663503 C35.5602747,18.6877503 35.5468747,18.7082503 35.5335747,18.7296503 C35.2985747,19.1216503 35.0655747,19.5175503 34.8349747,19.9170503 C57.4640255,53.990986 58.4940807,98.0375543 37.4825747,133.13205 C37.3686832,134.141623 36.9187493,134.950453 36.4352937,135.01471 C35.9518382,135.078967 35.5876896,134.378339 35.5876896,133.383904 C35.5876896,132.38947 35.9518382,131.415587 36.4352937,131.117063 C36.9187493,130.818538 37.3686832,131.289741 37.4825747,132.21385 L37.6887747,132.55565 L37.8728747,132.53885 C85.4320475,84.9796775 162.540702,84.9796775 210.099875,132.53885 C257.659048,180.098023 257.659048,257.206678 210.099875,304.76585 L31.3526747,27.9407503 Z" id="Shape"></path>
            <path d="M40.2301747,19.4691503 C40.2301747,19.4691503 40.2289747,19.4691503 40.2289747,19.4701503 C40.2278747,19.4701503 40.2278747,19.4710503 40.2267747,19.4710503 C40.2555747,19.4682503 40.2832747,19.4635503 40.3110747,19.4607503 C40.1746747,19.4794503 40.0360747,19.4999503 39.8951747,19.5194503 L40.2301747,19.4691503 Z" id="Path" fill="#000000" fill-rule="nonzero"></path>
            <path d="M40.2301747,19.4691503 C40.2301747,19.4691503 40.2289747,19.4691503 40.2289747,19.4701503 C40.2278747,19.4701503 40.2278747,19.4710503 40.2267747,19.4710503 C40.2555747,19.4682503 40.2832747,19.4635503 40.3110747,19.4607503 C40.1746747,19.4794503 40.0360747,19.4999503 39.8951747,19.5194503 L40.2301747,19.4691503 Z" id="Path" fill="#000000" fill-rule="nonzero" opacity="0.35"></path>
            <path d="M38.2566158,13.9938159 C38.6635702,13.3549218 39.0760694,12.7299951 39.4930027,12.1218342 C39.9254636,11.4903919 40.363465,10.877574 40.8059047,10.2871081 C40.8314069,10.2526473 40.8580198,10.2172607 40.883522,10.1818671 C41.3204212,9.60071511 41.761746,9.04191511 42.2064069,8.50733271 L40.8668921,6.38389271 C40.7659854,6.48726807 40.6650787,6.59250903 40.5619549,6.69961207 C40.1760686,7.10381367 39.7746546,7.53874487 39.3632661,7.99975575 C38.8997582,8.51943799 38.422944,9.07451383 37.938368,9.65659511 C37.4914942,10.1949087 37.0379694,10.7583657 36.5844403,11.3413798 C36.198554,11.8377807 35.8104506,12.3490818 35.4256707,12.8734246 L35.382428,12.9320959 L37.1255696,15.823885 C37.4981495,15.2045481 37.8751635,14.5935958 38.2566158,13.9938159 Z" id="Path" fill="url(#linearGradient-4)" fill-rule="nonzero"></path>
            <path d="M30.3171141,30.2874911 C30.0864708,30.820215 29.8547169,31.3622527 29.6218565,31.9163958 C29.6185289,31.9247734 29.6152012,31.9322252 29.6118736,31.9406098 C29.5786096,32.0188418 29.5464521,32.0970738 29.5131839,32.1753058 C29.3568345,32.5487708 29.2204426,32.8849801 28.9088501,33.649605 C29.4222602,33.8461161 29.8347593,34.3639398 30.2250756,34.9516108 C30.1840499,34.3434498 29.883551,33.7716118 29.3146982,33.3292252 C31.8462466,33.4251558 34.0273938,32.887775 35.1551081,31.3333782 C35.2560148,31.1946092 35.3480534,31.0493212 35.4312196,30.89379 C34.9189201,31.4395519 34.2835394,31.671453 33.0870676,31.6146438 C33.0848505,31.6155766 33.081527,31.6165058 33.0793058,31.6174386 C33.081527,31.6165058 33.0848505,31.615573 33.0870676,31.6146438 C34.8479539,30.9524614 35.7317227,30.317295 36.5123635,29.2639561 C36.697547,29.0143599 36.8771816,28.741479 37.0612587,28.4387977 C35.5210369,29.7668761 33.7368653,30.144998 31.8573359,29.8581462 L30.4479613,29.9876012 C30.403608,30.0872524 30.360361,30.1869071 30.3171183,30.2874911 L30.3171141,30.2874911 Z" id="Path" fill="url(#linearGradient-6)" fill-rule="nonzero"></path>
            <path d="M30.9746736,27.6359878 C31.2796108,26.9747382 31.5934245,26.3060438 31.9149957,25.6308268 C32.2232605,24.9844809 32.5403977,24.3344108 32.864186,23.680613 C33.1879743,23.0268188 33.5195285,22.3720882 33.8577338,21.7164319 C34.2014796,21.0495961 34.5529955,20.383693 34.910052,19.7215142 C35.2637807,19.0667871 35.6241606,18.414855 35.9900894,17.7694418 C36.1220431,17.5366079 36.2551073,17.3047068 36.3881716,17.073735 C36.4003674,17.0523158 36.4136738,17.0318258 36.4269802,17.0104066 L34.6838386,14.118614 C34.6550045,14.1577318 34.6272852,14.196846 34.5984553,14.2359638 C34.1926114,14.7928982 33.787874,15.3628777 33.3908983,15.944959 C32.9894843,16.53263 32.5958404,17.1314806 32.2110605,17.7387087 C32.5847552,17.0634847 32.2676139,17.5803791 31.9593491,18.101927 C31.8972552,18.2081007 31.8362636,18.3124089 31.7752804,18.4176498 C32.4075337,18.715379 33.0321435,19.0244163 33.6486825,19.3445503 C30.3903015,21.009549 30.0809261,21.6698623 29.8103635,22.2957183 C29.6318353,22.7073718 29.4699412,23.1050508 29.3213493,23.4868969 C29.1993744,23.812863 29.0829442,24.1397618 28.9731652,24.4647951 C28.7125814,25.2312822 28.4885892,25.9959071 28.3045205,26.7577407 L30.0565303,29.6625679 C30.2882842,29.1428822 30.5255828,28.6166809 30.7695326,28.0830278 L30.9746736,27.6359878 Z" id="Path" fill="url(#linearGradient-8)" fill-rule="nonzero"></path>
            <path d="M28.2812311,26.8611161 C28.0616772,27.7905862 27.9053235,28.7163321 27.8265956,29.6364918 C27.8243786,29.669087 27.8199445,29.7007529 27.8177233,29.7333481 C27.2710492,28.9975977 25.8073425,28.2795388 25.8106743,28.2860578 C26.85855,29.5619839 27.6536121,30.8285961 27.7722593,32.071927 C27.2111724,32.1687868 26.4427274,32.0290886 25.5545246,31.754342 C26.4804296,32.4686732 27.1756872,32.666117 27.446254,32.7192022 C26.5957534,32.7639062 25.7097634,33.2547209 24.8171265,33.8200399 C26.1222626,33.3729999 27.1767978,33.1960495 27.9319364,33.3394719 C26.7343581,36.1874898 25.5334564,39.3316735 24.3325505,42.6695698 C24.7006963,42.5782962 24.9202544,42.3706092 25.0433357,42.0893471 C25.257345,41.4849138 26.677809,37.5192959 28.9033054,32.306623 C28.9665141,32.1585401 29.0308292,32.0095279 29.0951401,31.859583 C29.1128847,31.8176738 29.1317359,31.7757612 29.1494764,31.7347849 C29.3845579,31.1880937 29.6285077,30.630223 29.8802191,30.0611798 C29.9378831,29.9317212 29.9955429,29.8022662 30.0532027,29.6718818 C30.0543133,29.669087 30.0554239,29.6662921 30.0565303,29.66443 L28.3067375,26.7605356 C28.2989758,26.7931308 28.2889928,26.8266588 28.2812311,26.8611161 L28.2812311,26.8611161 Z" id="Path" fill="url(#linearGradient-10)" fill-rule="nonzero"></path>
            <path d="M37.3961322,16.067895 C37.3462342,16.1535788 37.2963361,16.2401919 37.2453275,16.3277378 C37.0945227,16.5894428 36.9414967,16.8558047 36.7862537,17.1286822 C36.6188149,17.4239151 36.4502696,17.7256671 36.2795031,18.034871 C36.1930093,18.1904022 36.1076302,18.3468662 36.0200257,18.5061286 C35.7594419,18.9820361 35.4955305,19.4737801 35.2271849,19.9813606 C34.897852,20.605351 34.5618637,21.253559 34.2214413,21.9269138 C33.8965424,22.5686028 33.5672095,23.2326438 33.2334382,23.919966 C32.9163053,24.5718982 32.5958404,25.245253 32.2709415,25.9390978 C31.9815279,26.5584348 31.6898929,27.1936012 31.3949387,27.847399 C31.3805217,27.8790649 31.3661046,27.9107308 31.3527982,27.9423932 C31.0600569,28.591534 30.7650943,29.2583698 30.4679231,29.9419644 C30.4612677,29.9578009 30.4546166,29.9736338 30.4479613,29.988534 L31.8573359,29.859079 C31.8296125,29.854422 31.8007826,29.8516271 31.7730591,29.8469702 C33.458541,29.670949 35.6984545,28.6129567 37.1466378,27.3072268 C37.8141803,26.7055849 38.4196205,25.9959071 38.9795968,25.165159 C39.3965342,24.5467548 39.7879652,23.8612911 40.1605451,23.1022559 C40.4865505,22.4391478 40.7992535,21.7210889 41.1008631,20.942493 C40.7138661,21.1138607 40.27032,21.2395881 39.7813099,21.327134 C39.6959267,21.3420342 39.6083264,21.3569378 39.5196155,21.3699724 C39.4309088,21.383014 39.3410873,21.3951228 39.2501636,21.405366 C39.2512742,21.405366 39.2523806,21.4044332 39.2534912,21.4044332 C40.8247558,20.8968562 41.8160865,19.9161631 42.5368463,18.7156742 C42.1232407,18.9522322 41.4512684,19.2623654 40.6462276,19.411381 C40.5364527,19.4318674 40.4244566,19.4477039 40.3113499,19.4616713 C40.28252,19.465399 40.2547965,19.4691231 40.2270773,19.4719145 C40.2281879,19.4719145 40.2281879,19.4709852 40.2292943,19.4709852 C40.2292943,19.4709852 40.2304049,19.4709852 40.2304049,19.4700524 C40.7759684,19.2781983 41.2361485,19.0639887 41.6353413,18.8106684 C41.7207245,18.7566505 41.8038907,18.7007705 41.8837293,18.6420956 C42.0057041,18.5536204 42.1210237,18.4604847 42.2319134,18.3626956 C42.3028796,18.3002966 42.3716287,18.2360354 42.4381609,18.1689794 C42.5945145,18.0125154 42.7408852,17.8439426 42.8783835,17.6604697 C42.9205198,17.6045897 42.9615497,17.5477804 43.0025754,17.4891055 C43.0546947,17.4043545 43.1045927,17.3214655 43.1533802,17.2395094 C43.3729383,16.8688358 43.5481388,16.5382127 43.6878584,16.2476367 C43.757714,16.1023487 43.8187014,15.9682367 43.8708207,15.8434386 C43.8918888,15.7940777 43.9118506,15.7456495 43.9306975,15.6990834 C43.9861444,15.5593817 44.0316042,15.4355164 44.0670894,15.3265478 C44.1203151,15.1635647 44.1524726,15.0341097 44.1702132,14.9400447 C44.1169875,14.9754383 44.056,15.0108284 43.9872509,15.0452857 C43.5126578,15.2837094 42.6987447,15.4997775 42.0422958,15.6012943 L43.3363466,15.4820825 L42.0422958,15.6012943 C42.032317,15.6031564 42.0223382,15.6040892 42.0123553,15.6059478 C41.9469338,15.6152617 41.8804016,15.6236463 41.8138695,15.6329567 C41.8260653,15.6282998 41.8360483,15.6236463 41.8482441,15.6199186 L37.4205322,16.0278444 C37.4127705,16.0408825 37.4050087,16.0539206 37.3961364,16.0678914 L37.3961322,16.067895 Z" id="Path" fill="url(#linearGradient-12)" fill-rule="nonzero"></path>
            <path d="M42.3804969,8.55017111 C41.9868488,9.05774807 41.5566092,9.63424311 41.0942119,10.2871081 C41.0698161,10.3206361 41.0454203,10.3560297 41.0210245,10.3904905 C40.6218318,10.955806 40.1971368,11.5760758 39.7513694,12.2559497 C39.3654831,12.8426879 38.9640733,13.4722681 38.5471401,14.1493471 C38.1834283,14.7388838 37.807525,15.3647398 37.4216386,16.0269151 L41.8493463,15.6189929 C43.1389631,15.1207298 43.7155777,14.6699657 44.2755581,14.01803 C44.7301978,13.4219743 45.1759609,12.7653852 45.5751537,12.1125202 C45.9599294,11.4820073 46.2992453,10.8570841 46.5598291,10.2936306 C46.7250509,9.93506231 46.8581152,9.60164791 46.9501496,9.30920631 C47.0310987,9.05122551 47.0943032,8.80628983 47.1430948,8.57252311 C45.4188043,8.81932791 43.3075168,9.05588599 41.9336273,9.11269527 L42.3804969,8.55017111 Z" id="Path" fill="url(#linearGradient-14)" fill-rule="nonzero"></path>
            <path d="M39.5196155,21.3681138 C39.4309088,21.4049549 39.3410873,21.4391701 39.2501636,21.4681138 C39.3410873,21.4391701 39.4309088,21.4049549 39.5196155,21.3681138 Z" id="Path" fill="url(#linearGradient-16)" fill-rule="nonzero"></path>
            <path d="M40.2256747,19.4709503 C40.2544747,19.4682503 40.2821747,19.4635503 40.3099747,19.4607503 C40.2821747,19.4635503 40.2544747,19.4673503 40.2256747,19.4710503 L40.2256747,19.4709503 Z" id="Path" fill="#000000" fill-rule="nonzero"></path>
            <path d="M40.2256747,19.4709503 C40.2544747,19.4682503 40.2821747,19.4635503 40.3099747,19.4607503 C40.2821747,19.4635503 40.2544747,19.4673503 40.2256747,19.4710503 L40.2256747,19.4709503 Z" id="Path" fill="#000000" fill-rule="nonzero" opacity="0.35"></path>
            <path d="M40.224856,19.5128171 C40.2590696,19.5048771 40.2919603,19.4916471 40.324856,19.4837171 C40.2919603,19.4916471 40.2590646,19.5022271 40.224856,19.5128171 Z" id="Path" fill="url(#linearGradient-18)" fill-rule="nonzero"></path>
            <path d="M40.2289747,19.4700503 C40.2289747,19.4700503 40.2300747,19.4700503 40.2300747,19.4691503 C40.2300747,19.4691503 40.2290747,19.4691503 40.2290747,19.4701503 L40.2289747,19.4700503 Z" id="Path" fill="#000000" fill-rule="nonzero"></path>
            <path d="M40.2289747,19.4700503 C40.2289747,19.4700503 40.2300747,19.4700503 40.2300747,19.4691503 C40.2300747,19.4691503 40.2290747,19.4691503 40.2290747,19.4701503 L40.2289747,19.4700503 Z" id="Path" fill="#000000" fill-rule="nonzero" opacity="0.35"></path>
            <path d="M40.256459,19.5033145 C40.256459,19.5033145 40.259109,19.5033145 40.259109,19.5006645 C40.259109,19.5006645 40.256459,19.5006645 40.256459,19.5033145 Z" id="Path" fill="url(#linearGradient-20)" fill-rule="nonzero"></path>
        </g>
    </g>
</svg>