<?xml version="1.0" encoding="UTF-8" standalone="no"?>
<!DOCTYPE svg PUBLIC "-//W3C//DTD SVG 1.1//EN" "http://www.w3.org/Graphics/SVG/1.1/DTD/svg11.dtd">
<!-- Created with Vectornator (http://vectornator.io/) -->
<svg height="82.0pt" stroke-miterlimit="10" style="fill-rule:nonzero;clip-rule:evenodd;stroke-linecap:round;stroke-linejoin:round;" version="1.1" viewBox="0 0 82 82" width="82.0pt" xml:space="preserve" xmlns="http://www.w3.org/2000/svg" xmlns:xlink="http://www.w3.org/1999/xlink">
<defs/>
<g id="Untitled">
<path d="M62.3625 31.6568C61.3013 31.6568 60.3035 32.0679 59.5566 32.8147L56.5385 35.8247C55.7243 36.6367 55.306 37.7642 55.3917 38.9201C55.3978 38.9832 55.4039 39.0463 55.4101 39.1114C55.5182 39.9987 55.9079 40.7985 56.5385 41.4253C56.9732 41.8588 57.4527 42.1336 58.0343 42.3249C58.0648 42.4999 58.0812 42.6769 58.0812 42.854C58.0812 43.6518 57.7711 44.4007 57.2078 44.9624L57.0221 45.1476C56.0141 44.8036 55.1733 44.301 54.4142 43.5439C53.4062 42.5385 52.7389 41.2686 52.4879 39.8746L52.4532 39.6812L52.3001 39.8054C52.196 39.8888 52.0981 39.9784 52.0063 40.0699L48.9882 43.0799C47.4413 44.6225 47.4413 47.1359 48.9882 48.6785C49.7615 49.4498 50.7778 49.8365 51.7961 49.8365C52.8144 49.8365 53.8285 49.4498 54.602 48.6785L57.6201 45.6686C59.1669 44.1259 59.1669 41.6146 57.6201 40.0699C57.2078 39.6589 56.7161 39.3495 56.159 39.1501C56.1284 38.9689 56.112 38.7878 56.112 38.6108C56.112 37.7438 56.4549 36.9216 57.0834 36.2948C58.0935 36.6387 58.9893 37.1964 59.7463 37.9514C60.7523 38.9547 61.4177 40.2226 61.6727 41.6207L61.7074 41.814L61.8605 41.6899C61.9646 41.6065 62.0625 41.5169 62.1564 41.4233L65.1745 38.4134C66.7212 36.8707 66.7233 34.3574 65.1745 32.8147C64.4256 32.0679 63.4297 31.6568 62.3666 31.6568L62.3625 31.6568Z" fill="#000000" fill-rule="nonzero" opacity="1" stroke="none"/>
<path d="M60.7452 20.6488L21.2549 20.6488C10.0028 20.6488 0.84855 29.7783 0.84855 41C0.84855 52.2216 10.0028 61.3512 21.2549 61.3512L60.7452 61.3512C71.9972 61.3512 81.1514 52.2216 81.1514 41C81.1514 29.7783 71.9972 20.6488 60.7452 20.6488ZM41.2674 52.5554C40.6164 52.6897 39.8838 52.7141 39.3859 52.1952C39.2022 52.6164 38.7737 52.3946 38.443 52.3397C38.4124 52.4251 38.386 52.5004 38.3574 52.5859C37.2575 52.6592 36.4331 51.5399 35.9087 50.6953C34.8679 50.1336 33.6864 49.7917 32.6232 49.2035C32.562 50.1723 32.7743 51.373 31.8498 51.9978C31.8029 53.8599 34.6741 52.2176 34.9373 53.6055C34.7333 53.6279 34.5068 53.5729 34.3435 53.7296C33.5946 54.4562 32.7355 53.1802 31.8723 53.7073C30.7132 54.2893 30.5969 54.7655 29.1623 54.8856C29.0828 54.7655 29.1154 54.6861 29.1827 54.6129C29.5868 54.1448 29.6154 53.5933 30.3051 53.3938C29.595 53.2819 29.0011 53.6727 28.4032 53.982C27.6257 54.2995 27.6319 53.2656 26.4361 54.0369C26.3034 53.9291 26.3667 53.8314 26.4422 53.748C26.7462 53.3776 27.1462 53.3226 27.5972 53.343C25.379 52.1097 24.3342 54.851 23.3098 53.4875C23.0017 53.5689 22.8854 53.8456 22.6915 54.041C22.5242 53.8579 22.6507 53.636 22.6589 53.4203C22.4589 53.3267 22.2058 53.2819 22.265 52.9624C21.8732 52.8301 21.5998 53.0621 21.308 53.2819C21.0447 53.0784 21.4855 52.7813 21.5671 52.5696C21.8018 52.1626 22.3364 52.4862 22.6078 52.1931C23.3792 51.7556 24.4546 52.4658 25.3362 52.3458C26.0157 52.4312 26.8564 51.7352 26.5156 51.0412C25.7892 50.1153 25.9177 48.9044 25.9014 47.7973C25.8116 47.1521 24.2587 46.3299 23.8098 45.6339C23.2547 45.0071 22.8221 44.2806 22.3895 43.5663C20.8284 40.5522 21.3202 36.6794 19.353 33.8811C18.4633 34.3716 17.3042 34.1396 16.537 33.4822C16.1227 33.8587 16.1043 34.3512 16.0717 34.8743C15.0779 33.8832 15.2024 32.0108 15.9962 30.9078C16.3207 30.4723 16.7084 30.1141 17.141 29.7987C17.2389 29.7275 17.2716 29.6583 17.2695 29.5484C18.0552 26.0235 23.4139 26.7033 25.1076 29.2004C26.3361 30.7369 26.7075 32.7699 28.1012 34.1966C29.9765 36.2439 32.1131 38.047 33.8435 40.2266C35.4801 42.219 36.6494 44.5553 37.6697 46.91C38.086 47.6914 38.0901 48.65 38.7064 49.3175C39.0104 49.7205 40.496 50.8174 40.1736 51.2061C40.3593 51.609 41.7469 52.1646 41.2653 52.5554L41.2674 52.5554ZM67.2935 40.5319L64.2755 43.5418C63.4714 44.3437 62.4777 44.942 61.4002 45.2696L61.3451 45.2859L61.3247 45.3388C60.9737 46.2628 60.4411 47.087 59.7391 47.7851L56.721 50.795C55.4047 52.1077 53.654 52.8301 51.7888 52.8301C49.9237 52.8301 48.1728 52.1077 46.8566 50.795C44.1365 48.0822 44.1365 43.67 46.8566 40.9572L49.8747 37.9473C50.6828 37.1414 51.6501 36.5614 52.7459 36.2256L52.801 36.2093L52.8214 36.1564C53.1724 35.2324 53.707 34.4062 54.4111 33.702L57.4291 30.6921C58.7453 29.3794 60.4962 28.657 62.3613 28.657C64.2264 28.657 65.9772 29.3794 67.2935 30.6921C68.6098 32.0047 69.3342 33.7509 69.3342 35.611C69.3342 37.4711 68.6098 39.2192 67.2935 40.5299L67.2935 40.5319Z" fill="#000000" fill-rule="nonzero" opacity="1" stroke="none"/>
<path d="M28.9908 48.9125C28.7255 49.9423 28.6398 51.6945 27.2971 51.7454C27.1869 52.3397 27.7093 52.5635 28.1868 52.3722C28.6582 52.1565 28.8826 52.5432 29.0418 52.9278C29.7703 53.0336 30.8478 52.6856 30.8886 51.8248C29.8009 51.2 29.4642 50.0115 28.9928 48.9105L28.9908 48.9125Z" fill="#000000" fill-rule="nonzero" opacity="1" stroke="none"/>
</g>
</svg>
