<?xml version="1.0" encoding="UTF-8" standalone="no"?>
<!DOCTYPE svg PUBLIC "-//W3C//DTD SVG 1.1//EN" "http://www.w3.org/Graphics/SVG/1.1/DTD/svg11.dtd">
<!-- Created with Vectornator (http://vectornator.io/) -->
<svg height="100%" stroke-miterlimit="10" style="fill-rule:nonzero;clip-rule:evenodd;stroke-linecap:round;stroke-linejoin:round;" version="1.1" viewBox="0 0 26 26" width="100%" xml:space="preserve" xmlns="http://www.w3.org/2000/svg" xmlns:vectornator="http://vectornator.io" xmlns:xlink="http://www.w3.org/1999/xlink">
<defs/>
<g id="Layer-1" vectornator:layerName="Layer 1">
<path d="M14.4378 5.21257C14.5211 5.58757 14.6044 5.96257 14.6878 6.33757C14.7711 6.71257 14.8544 7.08757 14.9378 7.46257C13.7711 7.25423 12.6044 7.0459 11.4378 6.83757C9.10444 6.4209 7.72944 6.21257 7.31278 6.21257C7.10444 6.21257 6.89611 6.21257 6.68778 6.21257C6.72944 6.33757 6.77111 6.46257 6.81278 6.58757C6.85444 6.71257 6.89611 6.83757 6.93778 6.96257C6.47944 6.9209 6.02111 6.87923 5.56278 6.83757C5.10444 6.7959 4.64611 6.75423 4.18778 6.71257C4.27111 6.87923 4.35444 7.0459 4.43778 7.21257C4.52111 7.37923 4.60444 7.5459 4.68778 7.71257C4.02111 7.58757 3.35444 7.46257 2.68778 7.33757C2.02111 7.21257 1.35444 7.08757 0.687776 6.96257C0.979442 7.87923 1.27111 8.7959 1.56278 9.71257C2.14611 11.5459 2.43778 12.5459 2.43778 12.7126C2.43778 12.7959 2.43778 12.8792 2.43778 12.9626C2.22944 12.9209 2.02111 12.8792 1.81278 12.8376C1.60444 12.7959 1.39611 12.7542 1.18778 12.7126C1.60444 13.5042 2.02111 14.2959 2.43778 15.0876C3.27111 16.6709 3.85444 18.0459 4.18778 19.2126C4.35444 19.7959 4.52111 20.3792 4.68778 20.9626C4.72944 20.3792 4.77111 19.7959 4.81278 19.2126C4.89611 18.0459 5.14611 16.9626 5.56278 15.9626C5.97944 14.9626 6.43778 14.2959 6.93778 13.9626C7.43778 13.6292 8.52111 13.3376 10.1878 13.0876C11.8544 12.8376 13.3544 12.7126 14.6878 12.7126C16.0211 12.7126 17.3961 12.9209 18.8128 13.3376C20.2294 13.7542 21.1461 14.2126 21.5628 14.7126C21.9794 15.2126 22.2711 16.2542 22.4378 17.8376C22.6044 19.4209 22.7711 20.2959 22.9378 20.4626C23.0211 20.5459 23.1044 20.6292 23.1878 20.7126C23.5628 19.5042 23.9378 18.2959 24.3128 17.0876C25.0628 14.6709 25.3961 12.8376 25.3128 11.5876C25.2294 10.3376 24.7711 9.37923 23.9378 8.71257C23.1044 8.0459 21.3128 7.2959 18.5628 6.46257C17.1878 6.0459 15.8128 5.62923 14.4378 5.21257ZM17.9378 17.7126C17.2711 17.7126 16.6878 17.9626 16.1878 18.4626C16.1044 18.5459 16.0211 18.6292 15.9378 18.7126C16.2294 18.7542 16.5211 18.7959 16.8128 18.8376C17.3961 18.9209 17.8544 19.2542 18.1878 19.8376C18.3544 20.1292 18.5211 20.4209 18.6878 20.7126C18.5211 20.4626 18.3544 20.2126 18.1878 19.9626C17.8544 19.4626 17.3961 19.1292 16.8128 18.9626C16.5211 18.8792 16.2294 18.7959 15.9378 18.7126C15.7711 18.8792 15.6044 19.0459 15.4378 19.2126C15.6878 19.2542 15.9378 19.2959 16.1878 19.3376C16.4378 19.3792 16.6878 19.4209 16.9378 19.4626C16.6461 19.5459 16.3544 19.6292 16.0628 19.7126C15.4794 19.8792 15.2294 20.2542 15.3128 20.8376C15.3961 21.4209 15.8544 21.9626 16.6878 22.4626C17.5211 22.9626 18.3128 23.0876 19.0628 22.8376C19.8128 22.5876 20.3128 22.3376 20.5628 22.0876C20.8128 21.8376 20.8961 21.5459 20.8128 21.2126C20.7711 21.0459 20.7294 20.8792 20.6878 20.7126C20.7711 20.7959 20.8544 20.8792 20.9378 20.9626C21.0211 21.0459 21.1044 21.1292 21.1878 21.2126C21.1878 21.0459 21.1878 20.8792 21.1878 20.7126C21.1878 20.5459 21.1878 20.3792 21.1878 20.2126C20.8128 20.4209 20.4378 20.6292 20.0628 20.8376C19.6878 21.0459 19.3128 21.2542 18.9378 21.4626C19.1044 21.2126 19.2711 20.9626 19.4378 20.7126C19.7711 20.2126 19.8961 19.7126 19.8128 19.2126C19.7294 18.7126 19.5628 18.3376 19.3128 18.0876C19.0628 17.8376 18.6044 17.7126 17.9378 17.7126ZM10.1878 17.8376C9.35444 17.7542 8.77111 17.9626 8.43778 18.4626C8.10444 18.9626 8.10444 19.5876 8.43778 20.3376C8.60444 20.7126 8.77111 21.0876 8.93778 21.4626C8.64611 21.2542 8.35444 21.0459 8.06278 20.8376C7.47944 20.4209 7.10444 20.2126 6.93778 20.2126C6.85444 20.2126 6.77111 20.2126 6.68778 20.2126C6.68778 20.3792 6.68778 20.5459 6.68778 20.7126C6.68778 21.0459 7.02111 21.5042 7.68778 22.0876C8.35444 22.6709 9.06278 22.9626 9.81278 22.9626C10.5628 22.9626 11.1878 22.7542 11.6878 22.3376C12.1878 21.9209 12.4794 21.3792 12.5628 20.7126C12.6044 20.3792 12.6461 20.0459 12.6878 19.7126C12.3961 19.7126 12.1044 19.7126 11.8128 19.7126C11.5211 19.7126 11.2294 19.7126 10.9378 19.7126C11.1878 19.6709 11.4378 19.6292 11.6878 19.5876C11.9378 19.5459 12.1878 19.5042 12.4378 19.4626C12.2711 19.2126 12.1044 18.9626 11.9378 18.7126C11.6044 18.2126 11.0211 17.9209 10.1878 17.8376ZM9.18778 17.9626C9.27111 18.0042 9.35444 18.0459 9.43778 18.0876C9.52111 18.1292 9.60444 18.1709 9.68778 18.2126C9.52111 18.2959 9.35444 18.3792 9.18778 18.4626C8.92503 18.5939 8.75322 18.8634 8.59403 19.1501C8.62528 19.0876 8.65653 19.0251 8.68778 18.9626C8.85444 18.6292 9.02111 18.2959 9.18778 17.9626ZM11.3128 18.8376C11.5211 18.8792 11.7294 18.9209 11.9378 18.9626C11.6461 19.0042 11.3544 19.0459 11.0628 19.0876C10.4794 19.1709 10.0211 19.4626 9.68778 19.9626C9.52111 20.2126 9.35444 20.4626 9.18778 20.7126C9.22944 20.5459 9.27111 20.3792 9.31278 20.2126C9.39611 19.8792 9.64611 19.5459 10.0628 19.2126C10.4794 18.8792 10.8961 18.7542 11.3128 18.8376Z" fill="#f5891d" fill-rule="nonzero" opacity="1" stroke="none"/>
</g>
</svg>
