<?xml version="1.0" encoding="UTF-8"?>
<svg width="260px" height="288px" viewBox="0 0 260 288" version="1.1" xmlns="http://www.w3.org/2000/svg" xmlns:xlink="http://www.w3.org/1999/xlink">
    <title>apachenetbeans-original</title>
    <g id="Page-1" stroke="none" stroke-width="1" fill="none" fill-rule="evenodd">
        <g id="apachenetbeans-original" fill-rule="nonzero">
            <polyline id="path4" fill="#A6043F" points="130 288 0 217 0 72 50 100 50 188 130 232"></polyline>
            <polygon id="path6" fill="#95D921" points="0 72 50 100 130 54 210 100 260 72 130 0"></polygon>
            <polygon id="path8" fill="#DCDFE7" points="130 54 210 100 130 145 50 100"></polygon>
            <polygon id="path10" fill="#FFFFFF" points="50 100 130 145 130 232 50 188"></polygon>
            <polygon id="path12" fill="#C9DAE9" points="130 145 210 100 210 188 130 232"></polygon>
            <polyline id="path14" fill="#1D6AC6" points="130 288 260 217 260 72 210 100 210 188 130 232"></polyline>
            <polyline id="path4-3" fill="#EA1F5E" points="130 288 0 217 50 188 130 232"></polyline>
            <polyline id="path14-6" fill="#2E90E9" points="130 288 260 217 210 188 130 232"></polyline>
        </g>
    </g>
</svg>