<?xml version="1.0" encoding="UTF-8"?>
<svg width="32px" height="32px" viewBox="0 0 32 32" version="1.1" xmlns="http://www.w3.org/2000/svg" xmlns:xlink="http://www.w3.org/1999/xlink">
    <title>ibmpl1-original</title>
    <g id="ibmpl1-original" stroke="none" stroke-width="1" fill="none" fill-rule="evenodd">
        <g id="Group">
            <rect id="Rectangle-2" fill="#0292CD" x="0" y="0" width="32" height="32" rx="2"></rect>
            <path d="M30,0 C31.1045695,-2.02906125e-16 32,0.8954305 32,2 L32,16 L0,16 L0,2 C-1.3527075e-16,0.8954305 0.8954305,2.02906125e-16 2,0 L30,0 Z" id="Combined-Shape" fill="#000000"></path>
            <path d="M4,3 L4,3.69470077 L8.67156256,3.69470077 L8.67156256,3 L4,3 Z M9.33343768,3 L9.33343768,3.69470077 L15.9906249,3.69470077 C15.9906249,3.69470077 15.31063,3 14.41,3 L9.33343768,3 Z M17.2965626,3 L17.2965626,3.69470077 L21.3240626,3.69470077 L21.085,3 L17.2965626,3 Z M24.2115626,3 L23.9725,3.69470077 L27.9634374,3.69470077 L27.9634374,3 L24.2115626,3 Z M4,4.35102533 L4,5.0457259 L8.67156256,5.0457259 L8.67156256,4.35102533 L4,4.35102533 Z M9.33343768,4.35200937 L9.33343768,5.0457259 L16.7631251,5.0457259 C16.7631251,5.0457259 16.67635,4.51105441 16.525,4.35200937 L9.33343768,4.35200937 Z M17.2965626,4.35200937 L17.2965626,5.0457259 L21.7656251,5.0457259 L21.5443749,4.35200937 L17.2965626,4.35200937 Z M23.7334374,4.35200937 L23.5121874,5.0457259 L27.9634374,5.0457259 L27.9634374,4.35200937 L23.7334374,4.35200937 Z M5.3424999,5.70205066 L5.3424999,6.39773508 L7.36562488,6.39773508 L7.36562488,5.70205066 L5.3424999,5.70205066 Z M10.6759377,5.70205066 L10.6759377,6.39773508 L12.6990623,6.39773508 L12.6990623,5.70205066 L10.6759377,5.70205066 Z M14.6668751,5.70205066 L14.6668751,6.39773508 L16.69,6.39773508 C16.6900002,6.39773508 16.8184374,6.03034304 16.8184374,5.70205066 L14.6668751,5.70205066 Z M18.6390626,5.70205066 L18.6390626,6.39773508 L22.2259377,6.39773508 L21.9868751,5.70205066 L18.6390626,5.70205066 Z M23.2928126,5.70205066 L23.0528126,6.39773508 L26.6575,6.39773508 L26.6575,5.70205066 L23.2928126,5.70205066 Z M5.3424999,7.05406015 L5.3424999,7.74876042 L7.36562488,7.74876042 L7.36562488,7.05406015 L5.3424999,7.05406015 Z M10.6759377,7.05406015 L10.6759377,7.74876042 L15.8434377,7.74876042 C15.8434379,7.74876042 16.2757074,7.39230254 16.4134374,7.05406015 L10.6759377,7.05406015 Z M18.6390626,7.05406015 L18.6390626,7.74876042 L20.6621874,7.74876042 L20.6621874,7.36205042 L20.7906249,7.74876042 L24.4965626,7.74876042 L24.6343751,7.36205042 L24.6343751,7.74876042 L26.6575,7.74876042 L26.6575,7.05406015 L22.8596874,7.05406015 L22.6581249,7.64248899 L22.4556251,7.05406015 L18.6390626,7.05406015 Z M5.3424999,8.40508548 L5.3424999,9.09978575 L7.36562488,9.09978575 L7.36562488,8.40508548 L5.3424999,8.40508548 Z M10.6759377,8.40508548 L10.6759377,9.09978575 L16.4134374,9.09978575 C16.2756777,8.76264556 15.8434377,8.40508548 15.8434377,8.40508548 L10.6759377,8.40508548 Z M18.6390626,8.40508548 L18.6390626,9.09978575 L20.6621874,9.09978575 L20.6621874,8.40508548 L18.6390626,8.40508548 Z M21.0296874,8.40508548 L21.2743751,9.09978575 L24.0531251,9.09978575 L24.2856251,8.40508548 L21.0296874,8.40508548 Z M24.6343751,8.40508548 L24.6343751,9.09978575 L26.6575,9.09978575 L26.6575,8.40508548 L24.6343751,8.40508548 Z M5.3424999,9.75611082 L5.3424999,10.4508111 L7.36562488,10.4508111 L7.36562488,9.75611082 L5.3424999,9.75611082 Z M10.6759377,9.75611082 L10.6759377,10.4508111 L12.6990623,10.4508111 L12.6990623,9.75611082 L10.6759377,9.75611082 Z M14.6668751,9.75611082 L14.6668751,10.4508111 L16.8184374,10.4508111 C16.8184374,10.1229604 16.69,9.75611082 16.69,9.75611082 L14.6668751,9.75611082 Z M18.6390626,9.75611082 L18.6390626,10.4508111 L20.6621874,10.4508111 L20.6621874,9.75611082 L18.6390626,9.75611082 Z M21.4890623,9.75611082 L21.72625,10.4508111 L23.5890623,10.4508111 L23.8281249,9.75611082 L21.4890623,9.75611082 Z M24.6343751,9.75611082 L24.6343751,10.4508111 L26.6575,10.4508111 L26.6575,9.75611082 L24.6343751,9.75611082 Z M4.03656232,11.1071361 L4.03656232,11.8028206 L8.70812488,11.8028206 L8.70812488,11.1071361 L4.03656232,11.1071361 Z M9.33343768,11.1071361 L9.33343768,11.8028206 L16.525,11.8028206 C16.67635,11.6435237 16.7631251,11.1071361 16.7631251,11.1071361 L9.33343768,11.1071361 Z M17.3331249,11.1071361 L17.3331249,11.8028206 L20.6621874,11.8028206 L20.6621874,11.1071361 L17.3331249,11.1071361 Z M21.9493749,11.1071361 L22.1931249,11.8028206 L23.1409374,11.8028206 L23.3696874,11.1071361 L21.9493749,11.1071361 Z M24.6343751,11.1071361 L24.6343751,11.8028206 L28,11.8028206 L28,11.1071361 L24.6343751,11.1071361 Z M4.03656232,12.4591454 L4.03656232,13.1538462 L8.70812488,13.1538462 L8.70812488,12.4591454 L4.03656232,12.4591454 Z M9.33343768,12.4591454 L9.33343768,13.1528622 L14.41,13.1528622 C15.3106298,13.1528622 15.9906249,12.4591454 15.9906249,12.4591454 L9.33343768,12.4591454 Z M17.3331249,12.4591454 L17.3331249,13.1538462 L20.6621874,13.1538462 L20.6621874,12.4591454 L17.3331249,12.4591454 Z M22.4115626,12.4591454 L22.6459377,13.1518778 L22.68625,13.1528622 L22.9243751,12.4591454 L22.4115626,12.4591454 Z M24.6343751,12.4591454 L24.6343751,13.1538462 L28,13.1538462 L28,12.4591454 L24.6343751,12.4591454 Z" id="Shape" fill="#FFFFFF" fill-rule="nonzero"></path>
            <g id="PL/I" transform="translate(7.604404, 20.544434)" fill="#FFFFFF" fill-rule="nonzero">
                <path d="M0,0 L2.90478516,0 C3.47900391,0 3.94189453,0.161865234 4.29345703,0.485595703 C4.64501953,0.809326172 4.82080078,1.26416016 4.82080078,1.85009766 C4.82080078,2.35400391 4.6640625,2.79272461 4.35058594,3.16625977 C4.03710938,3.53979492 3.55517578,3.7265625 2.90478516,3.7265625 L0.874511719,3.7265625 L0.874511719,6.45556641 L0,6.45556641 L0,0 Z M3.9375,1.85449219 C3.9375,1.37988281 3.76171875,1.05761719 3.41015625,0.887695312 C3.21679688,0.796875 2.95166016,0.751464844 2.61474609,0.751464844 L0.874511719,0.751464844 L0.874511719,2.98828125 L2.61474609,2.98828125 C3.00732422,2.98828125 3.32592773,2.90478516 3.57055664,2.73779297 C3.81518555,2.57080078 3.9375,2.27636719 3.9375,1.85449219 Z" id="Shape"></path>
                <polygon id="Path" points="6.49943358 0 7.3739453 0 7.3739453 5.68652344 10.6434765 5.68652344 10.6434765 6.45556641 6.49943358 6.45556641"></polygon>
                <polygon id="Path" points="13.4471093 0 14.1150781 0 12.0672265 6.45556641 11.3992578 6.45556641"></polygon>
                <polygon id="Path" points="15.3630468 0 16.2463476 0 16.2463476 6.45556641 15.3630468 6.45556641"></polygon>
            </g>
        </g>
    </g>
</svg>