<?xml version="1.0" encoding="UTF-8" standalone="no"?>
<!DOCTYPE svg PUBLIC "-//W3C//DTD SVG 1.1//EN" "http://www.w3.org/Graphics/SVG/1.1/DTD/svg11.dtd">
<!-- Created with Vectornator (http://vectornator.io/) -->
<svg height="100%" stroke-miterlimit="10" style="fill-rule:nonzero;clip-rule:evenodd;stroke-linecap:round;stroke-linejoin:round;" version="1.1" viewBox="0 0 792 138" width="100%" xml:space="preserve" xmlns="http://www.w3.org/2000/svg" xmlns:vectornator="http://vectornator.io" xmlns:xlink="http://www.w3.org/1999/xlink">
<defs/>
<g id="Layer-1-copy" vectornator:layerName="Layer 1 copy">
<path d="M367.5 6C363.167 8.66667 360.5 11.1667 359.5 13.5C358.5 15.8333 358.167 19 358.5 23C358.833 27 360.333 30.5 363 33.5C365.667 36.5 371.333 39.6667 380 43C388.667 46.3333 394 49.1667 396 51.5C398 53.8333 399.167 56.5 399.5 59.5C399.833 62.5 399.667 64.8333 399 66.5C398.333 68.1667 396.5 70.1667 393.5 72.5C390.5 74.8333 385.333 76.1667 378 76.5C370.667 76.8333 365.333 76.5 362 75.5C360.333 75 358.667 74.5 357 74C357 74.8333 357 75.6667 357 76.5C357 78.1667 361.333 79.5 370 80.5C378.667 81.5 384.5 81.6667 387.5 81C390.5 80.3333 393.333 79.1667 396 77.5C398.667 75.8333 400.667 74 402 72C403.333 70 404.167 66.8333 404.5 62.5C404.833 58.1667 404.667 55.1667 404 53.5C403.333 51.8333 401.5 49.6667 398.5 47C395.5 44.3333 389.5 41.1667 380.5 37.5C371.5 33.8333 366.333 30.8333 365 28.5C363.667 26.1667 363 23.8333 363 21.5C363 19.1667 363.333 17.1667 364 15.5C364.667 13.8333 366.333 12 369 10C371.667 8 375.667 6.83333 381 6.5C386.333 6.16667 391 6.66667 395 8C397 8.66667 399 9.33333 401 10C401.167 9.16667 401.333 8.33333 401.5 7.5C401.833 5.83333 400.333 4.5 397 3.5C393.667 2.5 389 2 383 2C377 2 371.833 3.33333 367.5 6ZM438 5C433.333 7 429.5 9.66667 426.5 13C423.5 16.3333 421.167 20.5 419.5 25.5C417.833 30.5 417.167 36.8333 417.5 44.5C417.833 52.1667 419 58.1667 421 62.5C423 66.8333 426 70.6667 430 74C434 77.3333 437.833 79.5 441.5 80.5C445.167 81.5 450.833 81.6667 458.5 81C466.167 80.3333 470.167 79.1667 470.5 77.5C470.667 76.6667 470.833 75.8333 471 75C469.833 75.3333 468.667 75.6667 467.5 76C465.167 76.6667 460.167 76.8333 452.5 76.5C444.833 76.1667 438.833 74.3333 434.5 71C430.167 67.6667 427.333 64.6667 426 62C424.667 59.3333 423.667 54.3333 423 47C422.333 39.6667 423 33 425 27C427 21 429.667 16.5 433 13.5C436.333 10.5 439.5 8.5 442.5 7.5C445.5 6.5 449.333 6 454 6C458.667 6 462.667 6.66667 466 8C469.333 9.33333 471.5 9.5 472.5 8.5C473 8 473.5 7.5 474 7C472.333 6.16667 470.667 5.33333 469 4.5C465.667 2.83333 460.833 2 454.5 2C448.167 2 442.667 3 438 5ZM504.5 5C500.167 7 496.333 10.3333 493 15C489.667 19.6667 487.5 24 486.5 28C485.5 32 485.167 37.5 485.5 44.5C485.833 51.5 487.167 57.5 489.5 62.5C491.833 67.5 494.5 71.3333 497.5 74C500.5 76.6667 504.167 78.6667 508.5 80C512.833 81.3333 517.5 81.8333 522.5 81.5C527.5 81.1667 532 80 536 78C540 76 543.667 72.6667 547 68C550.333 63.3333 552.5 58.6667 553.5 54C554.5 49.3333 554.833 44 554.5 38C554.167 32 553.167 26.8333 551.5 22.5C549.833 18.1667 547.333 14.3333 544 11C540.667 7.66667 537.333 5.33333 534 4C530.667 2.66667 526 2 520 2C514 2 508.833 3 504.5 5ZM756 3C754 3.66667 751.667 5.16667 749 7.5C746.333 9.83333 744.667 11.6667 744 13C743.333 14.3333 743 17.1667 743 21.5C743 25.8333 744.167 29.5 746.5 32.5C748.833 35.5 754.833 39 764.5 43C774.167 47 779.833 50.1667 781.5 52.5C783.167 54.8333 784 57.6667 784 61C784 64.3333 782.333 67.6667 779 71C775.667 74.3333 770.333 76.1667 763 76.5C755.667 76.8333 750.333 76.5 747 75.5C745.333 75 743.667 74.5 742 74C742 74.8333 742 75.6667 742 76.5C742 78.1667 746.333 79.5 755 80.5C763.667 81.5 770.333 81.1667 775 79.5C779.667 77.8333 782.833 76.1667 784.5 74.5C786.167 72.8333 787.5 70.5 788.5 67.5C789.5 64.5 789.833 61.5 789.5 58.5C789.167 55.5 787.5 52.3333 784.5 49C781.5 45.6667 775.5 42.1667 766.5 38.5C757.5 34.8333 752.167 32 750.5 30C748.833 28 748 25.1667 748 21.5C748 17.8333 749.5 14.5 752.5 11.5C755.5 8.5 759.833 6.83333 765.5 6.5C771.167 6.16667 776 6.66667 780 8C782 8.66667 784 9.33333 786 10C786.167 9.16667 786.333 8.33333 786.5 7.5C786.833 5.83333 785.333 4.5 782 3.5C778.667 2.5 774 2 768 2C762 2 758 2.33333 756 3ZM3 29C3 46.3333 3.66667 57.5 5 62.5C6.33333 67.5 8.33333 71.3333 11 74C13.6667 76.6667 16.1667 78.5 18.5 79.5C20.8333 80.5 24.5 81.1667 29.5 81.5C34.5 81.8333 38.8333 81.5 42.5 80.5C46.1667 79.5 49.5 77.6667 52.5 75C55.5 72.3333 57.6667 69.5 59 66.5C60.3333 63.5 61.1667 52.1667 61.5 32.5C61.6667 22.6667 61.8333 12.8333 62 3C61.1667 3 60.3333 3 59.5 3C58.6667 3 57.8333 3 57 3C56.8333 12.8333 56.6667 22.6667 56.5 32.5C56.1667 52.1667 54.8333 63.8333 52.5 67.5C50.1667 71.1667 47.5 73.6667 44.5 75C41.5 76.3333 37 76.8333 31 76.5C25 76.1667 20.1667 74.5 16.5 71.5C12.8333 68.5 10.5 65 9.5 61C8.5 57 8 46.3333 8 29C8 20.3333 8 11.6667 8 3C7.16667 3 6.33333 3 5.5 3C4.66667 3 3.83333 3 3 3C3 11.6667 3 20.3333 3 29ZM83 42C83 55 83 68 83 81C83.8333 81 84.6667 81 85.5 81C86.3333 81 87.1667 81 88 81C88 69.3333 88 57.6667 88 46C88 34.3333 88 22.6667 88 11C95.5 22.3333 103 33.6667 110.5 45C125.5 67.6667 134.167 79.3333 136.5 80C137.667 80.3333 138.833 80.6667 140 81C140 68 140 55 140 42C140 29 140 16 140 3C139.167 3 138.333 3 137.5 3C136.667 3 135.833 3 135 3C135.167 14.5 135.333 26 135.5 37.5C135.667 49 135.833 60.5 136 72C135.667 72 135.333 72 135 72C134.333 72 126.667 60.6667 112 38C97.3333 15.3333 88.8333 3.83333 86.5 3.5C85.3333 3.33333 84.1667 3.16667 83 3C83 16 83 29 83 42ZM163 42C163 55 163 68 163 81C167 81 171 81 175 81C183 81 190.333 80 197 78C203.667 76 208.833 73 212.5 69C216.167 65 218.667 60.6667 220 56C221.333 51.3333 222 46.3333 222 41C222 35.6667 221.167 30.5 219.5 25.5C217.833 20.5 215.667 16.5 213 13.5C210.333 10.5 207.167 8.16667 203.5 6.5C199.833 4.83333 192.167 3.83333 180.5 3.5C174.667 3.33333 168.833 3.16667 163 3C163 16 163 29 163 42ZM236 42C236 55 236 68 236 81C243.167 81 250.333 81 257.5 81C264.667 81 271.833 81 279 81C279 80.1667 279 79.3333 279 78.5C279 77.6667 279 76.8333 279 76C272.667 76 266.333 76 260 76C253.667 76 247.333 76 241 76C241 70.3333 241 64.6667 241 59C241 53.3333 241 47.6667 241 42C246.833 42 252.667 42 258.5 42C264.333 42 270.167 42 276 42C276 41.3333 276 40.6667 276 40C276 39.3333 276 38.6667 276 38C270.167 38 264.333 38 258.5 38C252.667 38 246.833 38 241 38C241 32.8333 241 27.6667 241 22.5C241 17.3333 241 12.1667 241 7C247.333 7 253.667 7 260 7C266.333 7 272.667 7 279 7C279 6.33333 279 5.66667 279 5C279 4.33333 279 3.66667 279 3C271.833 3 264.667 3 257.5 3C250.333 3 243.167 3 236 3C236 16 236 29 236 42ZM297 42C297 55 297 68 297 81C297.833 81 298.667 81 299.5 81C300.333 81 301.167 81 302 81C302 75.1667 302 69.3333 302 63.5C302 57.6667 302 51.8333 302 46C305.333 46 308.667 46 312 46C318.667 46 325.167 51.6667 331.5 63C337.833 74.3333 342 80.1667 344 80.5C345 80.6667 346 80.8333 347 81C343.667 75.3333 340.333 69.6667 337 64C330.333 52.6667 327.167 46.5 327.5 45.5C327.833 44.5 329.167 43.6667 331.5 43C333.833 42.3333 336.333 40.1667 339 36.5C341.667 32.8333 342.833 28.1667 342.5 22.5C342.167 16.8333 341 12.8333 339 10.5C337 8.16667 334.167 6.33333 330.5 5C326.833 3.66667 320.333 3 311 3C306.333 3 301.667 3 297 3C297 16 297 29 297 42ZM570 42C570 55 570 68 570 81C570.833 81 571.667 81 572.5 81C573.333 81 574.167 81 575 81C575 75.1667 575 69.3333 575 63.5C575 57.6667 575 51.8333 575 46C578.333 46 581.667 46 585 46C591.667 46 598.167 51.6667 604.5 63C610.833 74.3333 615.167 80.1667 617.5 80.5C618.667 80.6667 619.833 80.8333 621 81C617.5 75.1667 614 69.3333 610.5 63.5C607 57.6667 603.5 51.8333 600 46C601.333 45.3333 602.667 44.6667 604 44C606.667 42.6667 609.333 40.3333 612 37C614.667 33.6667 616.167 30.1667 616.5 26.5C616.833 22.8333 616.5 19.5 615.5 16.5C614.5 13.5 613.167 11.1667 611.5 9.5C609.833 7.83333 607.167 6.33333 603.5 5C599.833 3.66667 593.333 3 584 3C579.333 3 574.667 3 570 3C570 16 570 29 570 42ZM634 42C634 55 634 68 634 81C641.167 81 648.333 81 655.5 81C662.667 81 669.833 81 677 81C677 80.1667 677 79.3333 677 78.5C677 77.6667 677 76.8333 677 76C670.667 76 664.333 76 658 76C651.667 76 645.333 76 639 76C639 70.3333 639 64.6667 639 59C639 53.3333 639 47.6667 639 42C645 42 651 42 657 42C663 42 669 42 675 42C675 41.3333 675 40.6667 675 40C675 39.3333 675 38.6667 675 38C669 38 663 38 657 38C651 38 645 38 639 38C639 32.8333 639 27.6667 639 22.5C639 17.3333 639 12.1667 639 7C645.333 7 651.667 7 658 7C664.333 7 670.667 7 677 7C677 6.33333 677 5.66667 677 5C677 4.33333 677 3.66667 677 3C669.833 3 662.667 3 655.5 3C648.333 3 641.167 3 634 3C634 16 634 29 634 42ZM719.5 46C719.167 74.6667 717.667 90.1667 715 92.5C712.333 94.8333 709 95.8333 705 95.5C703 95.3333 701 95.1667 699 95C699.167 95.8333 699.333 96.6667 699.5 97.5C699.833 99.1667 702.667 99.8333 708 99.5C713.333 99.1667 717 98.1667 719 96.5C721 94.8333 722.333 93.1667 723 91.5C723.667 89.8333 724.167 74.6667 724.5 46C724.667 31.6667 724.833 17.3333 725 3C724.167 3 723.333 3 722.5 3C721.667 3 720.833 3 720 3C719.833 17.3333 719.667 31.6667 719.5 46ZM522.5 6.5C527.5 6.83333 531.333 7.66667 534 9C536.667 10.3333 539.167 12.3333 541.5 15C543.833 17.6667 545.667 21 547 25C548.333 29 549 34.5 549 41.5C549 48.5 548.167 54.3333 546.5 59C544.833 63.6667 542.833 67.1667 540.5 69.5C538.167 71.8333 535.167 73.6667 531.5 75C527.833 76.3333 523.833 77 519.5 77C515.167 77 511.333 76.3333 508 75C504.667 73.6667 501.833 71.8333 499.5 69.5C497.167 67.1667 495.167 63.8333 493.5 59.5C491.833 55.1667 491 49.1667 491 41.5C491 33.8333 491.667 28.1667 493 24.5C494.333 20.8333 496.667 17.3333 500 14C503.333 10.6667 506.667 8.5 510 7.5C513.333 6.5 517.5 6.16667 522.5 6.5ZM168 7C173 7.33333 178 7.66667 183 8C193 8.66667 199.5 9.83333 202.5 11.5C205.5 13.1667 207.833 15 209.5 17C211.167 19 212.833 23 214.5 29C216.167 35 216.833 40.3333 216.5 45C216.167 49.6667 215.333 53.8333 214 57.5C212.667 61.1667 210.5 64.5 207.5 67.5C204.5 70.5 201 72.6667 197 74C193 75.3333 187.167 76 179.5 76C175.667 76 171.833 76 168 76C168 64.5 168 53 168 41.5C168 30 168 18.5 168 7ZM302 7C305.167 7 308.333 7 311.5 7C317.833 7 323 7.66667 327 9C331 10.3333 333.833 12.3333 335.5 15C337.167 17.6667 337.667 21.6667 337 27C336.333 32.3333 334.167 36.1667 330.5 38.5C326.833 40.8333 321.167 42 313.5 42C309.667 42 305.833 42 302 42C302 36.1667 302 30.3333 302 24.5C302 18.6667 302 12.8333 302 7ZM575 7C578.167 7 581.333 7 584.5 7C590.833 7 595.833 7.5 599.5 8.5C603.167 9.5 606 11.3333 608 14C610 16.6667 611 20.1667 611 24.5C611 28.8333 610.667 31.6667 610 33C609.333 34.3333 607.167 36.1667 603.5 38.5C599.833 40.8333 594.167 42 586.5 42C582.667 42 578.833 42 575 42C575 36.1667 575 30.3333 575 24.5C575 18.6667 575 12.8333 575 7ZM693.5 76C693.167 78.6667 693.333 80.3333 694 81C694.667 81.6667 695.833 81.8333 697.5 81.5C699.167 81.1667 700 79.6667 700 77C700 74.3333 699 72.8333 697 72.5C696 72.3333 695 72.1667 694 72C693.833 73.3333 693.667 74.6667 693.5 76Z" fill="#000000" fill-rule="nonzero" opacity="1" stroke="none"/>
<path d="M4.93598 114.62L350.373 114.62L350.373 133.62L4.93598 133.62L4.93598 114.62Z" fill="#0071b5" fill-rule="nonzero" opacity="1" stroke="none"/>
<path d="M350.065 114.62L789.907 114.62L789.907 133.622L350.065 133.622L350.065 114.62Z" fill="#002a41" fill-rule="nonzero" opacity="1" stroke="none"/>
</g>
</svg>
