<?xml version="1.0" encoding="UTF-8"?>
<svg width="32px" height="32px" viewBox="0 0 32 32" version="1.1" xmlns="http://www.w3.org/2000/svg" xmlns:xlink="http://www.w3.org/1999/xlink">
    <title>dotnetwcf</title>
    <defs>
        <linearGradient x1="49.9972467%" y1="-19.5160457%" x2="49.9972467%" y2="129.625092%" id="linearGradient-1">
            <stop stop-color="#0994DC" offset="0%"></stop>
            <stop stop-color="#66CEF5" offset="35.000601%"></stop>
            <stop stop-color="#66CEF5" offset="35.000601%"></stop>
            <stop stop-color="#127BCA" offset="84.616101%"></stop>
            <stop stop-color="#127BCA" offset="84.616101%"></stop>
            <stop stop-color="#127BCA" offset="100%"></stop>
        </linearGradient>
        <linearGradient x1="50.0007616%" y1="-19.5161868%" x2="50.0007616%" y2="129.624154%" id="linearGradient-2">
            <stop stop-color="#0E76BC" offset="0%"></stop>
            <stop stop-color="#36AEE8" offset="36.0001%"></stop>
            <stop stop-color="#36AEE8" offset="36.0001%"></stop>
            <stop stop-color="#00ADEF" offset="84.616101%"></stop>
            <stop stop-color="#00ADEF" offset="84.616101%"></stop>
            <stop stop-color="#00ADEF" offset="100%"></stop>
        </linearGradient>
        <linearGradient x1="49.9991979%" y1="110.921751%" x2="49.9991979%" y2="-6.21395776%" id="linearGradient-3">
            <stop stop-color="#1C63B7" offset="0%"></stop>
            <stop stop-color="#33BDF2" offset="50%"></stop>
            <stop stop-color="#33BDF2" stop-opacity="0.41960785" offset="100%"></stop>
        </linearGradient>
        <linearGradient x1="50.0009899%" y1="-19.5149993%" x2="50.0009899%" y2="129.627315%" id="linearGradient-4">
            <stop stop-color="#166AB8" offset="0%"></stop>
            <stop stop-color="#36AEE8" offset="39.999399%"></stop>
            <stop stop-color="#36AEE8" offset="39.999399%"></stop>
            <stop stop-color="#0798DD" offset="84.616101%"></stop>
            <stop stop-color="#0798DD" offset="84.616101%"></stop>
            <stop stop-color="#0798DD" offset="100%"></stop>
        </linearGradient>
        <linearGradient x1="49.9985422%" y1="-19.5211325%" x2="49.9985422%" y2="129.626892%" id="linearGradient-5">
            <stop stop-color="#124379" offset="0%"></stop>
            <stop stop-color="#1487CB" offset="38.9999%"></stop>
            <stop stop-color="#1487CB" offset="38.9999%"></stop>
            <stop stop-color="#165197" offset="78.022802%"></stop>
            <stop stop-color="#165197" offset="78.022802%"></stop>
            <stop stop-color="#165197" offset="100%"></stop>
        </linearGradient>
        <linearGradient x1="0.000304652977%" y1="50.000544%" x2="100.000291%" y2="50.000544%" id="linearGradient-6">
            <stop stop-color="#33BDF2" stop-opacity="0.69803923" offset="0%"></stop>
            <stop stop-color="#1DACD8" offset="100%"></stop>
        </linearGradient>
        <linearGradient x1="50.0095709%" y1="94.6864084%" x2="50.0095709%" y2="-3.02458407%" id="linearGradient-7">
            <stop stop-color="#136AB4" offset="0%"></stop>
            <stop stop-color="#59CAF5" stop-opacity="0.54901963" offset="60.000002%"></stop>
            <stop stop-color="#59CAF5" stop-opacity="0.23529412" offset="100%"></stop>
        </linearGradient>
        <linearGradient x1="-0.000760861053%" y1="49.999714%" x2="99.9992241%" y2="49.999714%" id="linearGradient-8">
            <stop stop-color="#05A1E6" stop-opacity="0.24705882" offset="0%"></stop>
            <stop stop-color="#05A1E6" offset="100%"></stop>
        </linearGradient>
        <linearGradient x1="49.9983236%" y1="124.313712%" x2="49.9983236%" y2="-9.42137278%" id="linearGradient-9">
            <stop stop-color="#318ED5" offset="0%"></stop>
            <stop stop-color="#38A7E4" offset="100%"></stop>
        </linearGradient>
        <linearGradient x1="49.99857%" y1="91.1999524%" x2="49.99857%" y2="-76.7854074%" id="linearGradient-10">
            <stop stop-color="#05A1E6" offset="0%"></stop>
            <stop stop-color="#05A1E6" stop-opacity="0.54901963" offset="100%"></stop>
        </linearGradient>
        <linearGradient x1="50.0000694%" y1="100.01049%" x2="50.0000694%" y2="0.0101898204%" id="linearGradient-11">
            <stop stop-color="#1959A6" offset="0%"></stop>
            <stop stop-color="#05A1E6" offset="50%"></stop>
            <stop stop-color="#05A1E6" offset="50%"></stop>
            <stop stop-color="#7EC5EA" offset="91.758698%"></stop>
            <stop stop-color="#7EC5EA" offset="100%"></stop>
        </linearGradient>
        <linearGradient x1="55.2831016%" y1="94.5677442%" x2="43.7874517%" y2="5.75513731%" id="linearGradient-12">
            <stop stop-color="#165096" offset="0%"></stop>
            <stop stop-color="#0D82CA" offset="100%"></stop>
        </linearGradient>
        <linearGradient x1="49.9946843%" y1="76.9980959%" x2="49.9946843%" y2="-3.29893613%" id="linearGradient-13">
            <stop stop-color="#05A1E6" offset="0%"></stop>
            <stop stop-color="#0495D6" offset="87.362701%"></stop>
            <stop stop-color="#0495D6" offset="100%"></stop>
        </linearGradient>
        <linearGradient x1="55.9754729%" y1="-4.16143813%" x2="43.8388846%" y2="105.843625%" id="linearGradient-14">
            <stop stop-color="#38A7E4" stop-opacity="0.32941177" offset="0%"></stop>
            <stop stop-color="#0E88D3" offset="96.153301%"></stop>
            <stop stop-color="#0E88D3" offset="96.153301%"></stop>
            <stop stop-color="#0E88D3" offset="100%"></stop>
        </linearGradient>
        <linearGradient x1="50.016714%" y1="-0.295776148%" x2="50.016714%" y2="101.881944%" id="linearGradient-15">
            <stop stop-color="#168CD4" offset="0%"></stop>
            <stop stop-color="#1C87CC" offset="50%"></stop>
            <stop stop-color="#154B8D" offset="100%"></stop>
        </linearGradient>
        <linearGradient x1="16.6738062%" y1="58.7584269%" x2="87.8125992%" y2="46.0681642%" id="linearGradient-16">
            <stop stop-color="#97D6EE" offset="0%"></stop>
            <stop stop-color="#55C1EA" offset="70.329303%"></stop>
            <stop stop-color="#55C1EA" offset="100%"></stop>
        </linearGradient>
        <linearGradient x1="6.89015912%" y1="46.300922%" x2="75.7828966%" y2="55.6519933%" id="linearGradient-17">
            <stop stop-color="#7ACCEC" offset="0%"></stop>
            <stop stop-color="#3FB7ED" offset="100%"></stop>
        </linearGradient>
        <linearGradient x1="49.9966533%" y1="6.36281892%" x2="49.9966533%" y2="127.96135%" id="linearGradient-18">
            <stop stop-color="#1DA7E7" offset="0%"></stop>
            <stop stop-color="#37ABE7" stop-opacity="0" offset="100%"></stop>
        </linearGradient>
    </defs>
    <g id="dotnetwcf" stroke="none" stroke-width="1" fill="none" fill-rule="evenodd">
        <g id="Microsoft_.NET_Logo" transform="translate(0.500000, 2.000000)" fill-rule="nonzero">
            <path d="M10.8146764,4.105738 C11.934619,7.53053793 12.3589138,13.6400697 15.6338112,13.6400697 L15.6338112,13.6400697 C15.8831867,13.6400697 16.1350669,13.6156766 16.3879469,13.5675835 L16.3879469,13.5675835 C13.4109042,12.8734404 13.058076,6.83036594 11.2414659,3.70089631 L11.2414659,3.70089631 C11.0990279,3.83034586 10.9575996,3.96527989 10.8146764,4.105738" id="path12339" fill="url(#linearGradient-1)"></path>
            <path d="M11.2414659,3.70089631 C13.058076,6.83036594 13.4109042,12.8734404 16.3879469,13.5675835 L16.3879469,13.5675835 C16.6218292,13.5246085 16.8562165,13.4596362 17.0910987,13.377676 L17.0910987,13.377676 C14.4189099,12.0683209 13.6802674,6.20018541 11.6172815,3.37505488 L11.6172815,3.37505488 C11.4923363,3.47904219 11.3669061,3.58798929 11.2414659,3.70089631" id="path12367" fill="url(#linearGradient-2)"></path>
            <path d="M13.858899,1.83976697 C13.6100185,1.83976697 13.3576236,1.86415013 13.1042684,1.91225317 C12.4415868,2.03718842 11.7684413,2.32252984 11.0897716,2.75431874 C11.2751648,2.93722711 11.4515591,3.14660751 11.6174795,3.37501528 C12.3076527,2.80229308 12.9933215,2.379018 13.6765055,2.1246233 C13.9328603,2.02967449 14.1882549,1.95822776 14.4446098,1.91125329 C14.2597016,1.86422933 14.0647947,1.83976697 13.858899,1.83976697" id="path12379" fill="#14559A"></path>
            <path d="M19.1770818,12.170744 C19.4504445,11.9533745 19.7243121,11.7129682 19.9986746,11.450624 C18.8607343,8.04177258 18.4534374,1.84480596 15.1555428,1.84480596 C14.9196607,1.84480596 14.6817788,1.86679337 14.444392,1.9107682 C17.4484215,2.65792456 17.8332359,9.19372113 19.1770818,12.170744" id="path12459" fill="url(#linearGradient-3)"></path>
            <path d="M14.444491,2.06918735 C14.2595828,1.91819799 14.0646858,1.83956897 13.8587802,1.83956897 L15.1556517,1.85484292 C14.9197597,1.85484292 14.6818778,1.92551676 14.444491,2.06855093" id="path12521" fill="#3092C4"></path>
            <path d="M19.1194849,12.8949131 C18.9905501,12.7719776 18.8681294,12.6370436 18.7476689,12.4931106 C18.1929346,12.8859142 17.6402099,13.1837689 17.0909997,13.377676 C17.2863818,13.4731495 17.4912776,13.544121 17.7086966,13.5880958 C17.8770919,13.6224778 18.0515261,13.6400697 18.2349195,13.6400697 C18.8511315,13.6400697 19.338379,13.5671083 19.7531699,13.3682019 C19.5248018,13.2447417 19.3153917,13.0848206 19.1194849,12.8949131" id="path12525" fill="#1969BC"></path>
            <path d="M13.6762679,2.12518759 C16.3669594,3.53249111 16.6008417,9.90537687 18.7477877,12.4931106 L18.7477877,12.4931106 C18.8917206,12.3916775 19.0341488,12.2842153 19.1765769,12.170744 L19.1765769,12.170744 C17.8327409,9.19372113 17.4484215,2.65739987 14.4448969,1.9107682 L14.4448969,1.9107682 C14.1885222,1.95874255 13.9326425,2.02975369 13.6762679,2.12518759" id="path12553" fill="url(#linearGradient-4)"></path>
            <path d="M11.6172815,3.37505488 C13.6802674,6.20018541 14.4189099,12.0683209 17.0910987,13.377676 L17.0910987,13.377676 C17.6403287,13.1837689 18.1930633,12.8859142 18.7477877,12.4931106 L18.7477877,12.4931106 C16.6008417,9.90537687 16.3669594,3.53249111 13.6762679,2.12518759 L13.6762679,2.12518759 C12.9931037,2.3790576 12.3074448,2.80233268 11.6172815,3.37505488" id="path12581" fill="url(#linearGradient-5)"></path>
            <path d="M9.49476819,4.02325301 C9.1714215,4.75442122 8.84108557,5.71542277 8.44177786,6.96981427 C9.23588889,5.85084189 10.0275052,4.88683081 10.814617,4.105738 C10.7061748,3.77238264 10.5897336,3.4650439 10.4642935,3.19114663 C10.1424515,3.4375423 9.81810497,3.7149243 9.49476819,4.02325301" id="path12651" fill="url(#linearGradient-6)"></path>
            <path d="M10.7510208,2.98033077 C10.6560621,3.04829277 10.5606282,3.11777934 10.4646795,3.19122583 C10.5900999,3.4650934 10.7060362,3.77246183 10.8145081,4.1057776 C10.9574016,3.96584418 11.0993249,3.83042506 11.2412581,3.70097551 C11.0888509,3.43909657 10.9269301,3.19721519 10.7510208,2.98033077" id="path12655" fill="#2B74B1"></path>
            <path d="M11.0897716,2.75431874 C10.976825,2.82580507 10.864403,2.90124141 10.7509416,2.98020207 C10.9268509,3.1970964 11.0887717,3.43897777 11.2417035,3.7013715 C11.3671536,3.5879101 11.4925739,3.4784779 11.6175191,3.37501528 C11.4515987,3.14664711 11.2752044,2.93722711 11.0897716,2.75431874" id="path12659" fill="#125A9E"></path>
            <path d="M29.4425718,1.57896711 C27.9207971,7.44757776 24.7423532,12.1612699 22.0776586,13.3496893 C22.0776586,13.3496893 22.0726097,13.3496893 22.0726097,13.3496893 C22.0241404,13.3716767 21.9761561,13.3916742 21.9286867,13.4111372 C21.9221528,13.4150971 21.9162129,13.4155921 21.9111739,13.4179681 C21.8971756,13.4236109 21.8841871,13.4279668 21.8701888,13.4335602 C21.863655,13.4375201 21.8577151,13.4388071 21.8517257,13.4411831 C21.8292532,13.4492019 21.807246,13.4559832 21.7852586,13.4647742 C21.7757548,13.4687341 21.7667856,13.4712091 21.7577471,13.474377 C21.7477483,13.4783369 21.7362349,13.4819999 21.724761,13.4851777 C21.7147722,13.4891376 21.7042982,13.4920085 21.6927748,13.4963644 C21.6832711,13.5003244 21.6732723,13.5020073 21.664313,13.5059672 C21.6448005,13.5116101 21.6268522,13.516362 21.6073397,13.5231532 C21.5993209,13.5231532 21.5918664,13.5275092 21.5833526,13.5295881 C21.571354,13.533548 21.5578408,13.536419 21.5448523,13.5399829 C21.5358435,13.5439428 21.5283791,13.5452298 21.5188654,13.5472097 C21.5053522,13.5511696 21.490354,13.5548326 21.4768804,13.5580104 C21.4588925,13.5619703 21.4429043,13.5656332 21.4259064,13.569207 C21.5463472,13.6136967 21.6717873,13.6361692 21.8072262,13.6361692 C24.3339872,13.6361692 26.8816962,9.10790982 31.0971521,1.57759104 L29.4419679,1.57759104 L29.4425718,1.57896711 Z" id="path12741" fill="url(#linearGradient-7)"></path>
            <path d="M7.89305274,2.07792603 C7.8946367,2.07792603 7.89661666,2.07396611 7.89760664,2.07396611 C7.89958659,2.07396611 7.90265553,2.07396611 7.9036455,2.0700062 C7.9036455,2.0700062 7.90562546,2.0700062 7.90681343,2.0700062 C7.92080183,2.0652543 7.93380024,2.05961143 7.94778863,2.05441404 C7.95135255,2.05441404 7.95323351,2.05441404 7.95580746,2.05045413 C7.95937138,2.05045413 7.9628363,2.04649422 7.96632102,2.04599923 C7.98131919,2.04124733 7.99630746,2.03560446 8.01030576,2.03040707 C8.01030576,2.03040707 8.01188972,2.03040707 8.0126817,2.03040707 C8.04618257,2.02041819 8.07714909,2.00802366 8.10963027,1.99643102 C8.11418417,1.99643102 8.11863907,1.99247111 8.12410375,1.99247111 C8.13761696,1.9881152 8.15161525,1.98326431 8.16558384,1.98007658 C8.1721177,1.97611667 8.17858225,1.97611667 8.18457162,1.97403771 C8.1990451,1.96968181 8.21308299,1.96483091 8.2265566,1.96164318 C8.23259546,1.96164318 8.23807004,1.95768327 8.24254475,1.95728728 C8.28902422,1.94449676 8.33499881,1.93249823 8.38147829,1.92130157 C8.38801214,1.92130157 8.39347682,1.91734166 8.40046607,1.91694567 C8.41393967,1.91298576 8.4264629,1.9109068 8.44094628,1.90892684 C8.44698515,1.90496693 8.45394469,1.90496693 8.46094384,1.90288798 C8.47441744,1.89892806 8.48740596,1.89853207 8.50191904,1.89526515 C8.50548296,1.89526515 8.50736392,1.89526515 8.51142283,1.89526515 C8.53940951,1.88962227 8.56790109,1.88487037 8.59588777,1.87967299 C8.60093666,1.87967299 8.60736162,1.87967299 8.6128758,1.87967299 C8.6263494,1.87571308 8.63834794,1.87531708 8.65186114,1.87284214 C8.65928597,1.87284214 8.66684941,1.86888223 8.67384855,1.86888223 C8.68632228,1.86888223 8.6988356,1.86492231 8.71130933,1.86323935 C8.71784319,1.86323935 8.72429784,1.86323935 8.73182168,1.85927944 C8.76128343,1.85531952 8.79178466,1.85373556 8.82277098,1.85126061 C8.7353163,1.8428458 8.64535698,1.83726232 8.55390279,1.83726232 C5.70829754,1.83726232 1.78771652,7.11716263 0.0215805351,13.9548135 C0.0215805351,13.9548135 0.150517278,13.9548135 0.361914255,13.9548135 C0.927137366,12.9468275 1.43488927,11.9932904 1.89916233,11.0982115 C3.13605694,6.2550995 5.6553238,2.95219559 7.89323093,2.07714394" id="path12803" fill="url(#linearGradient-8)"></path>
            <path d="M9.49479789,4.02325301 C9.81815447,3.7149243 10.1424812,3.4375423 10.4643232,3.19118623 C10.3908767,3.03026527 10.3149156,2.88133294 10.2334305,2.74488425 C9.97307616,3.0607269 9.7351943,3.47752752 9.49479789,4.02325301" id="path12807" fill="#0D82CA"></path>
            <path d="M9.72856144,2.11795084 C9.91446945,2.27387241 10.080865,2.48828189 10.2333117,2.74516144 C10.2812861,2.68618844 10.3297851,2.63170004 10.3802443,2.58072606 C10.1688642,2.3833343 9.94045638,2.22141347 9.69257574,2.09947785 C9.70257452,2.10502173 9.7125634,2.10947663 9.72295817,2.11387213 C9.72295817,2.11387213 9.72691808,2.11783205 9.72860104,2.11783205" id="path12811" fill="#0D82CA"></path>
            <path d="M1.89903462,11.0987956 C4.49376455,6.09872254 5.72316305,2.93426708 7.89310224,2.07768843 L7.89310224,2.07768843 C5.65569603,2.95329446 3.13592924,6.25615877 1.89903462,11.0987956" id="path12831" fill="url(#linearGradient-9)"></path>
            <path d="M10.380076,2.58059736 C10.3296267,2.63209603 10.2816524,2.68606964 10.2331533,2.74504264 C10.3146285,2.88145174 10.3905599,3.02989898 10.4645607,3.19130502 C10.5605094,3.11785854 10.6559433,3.04837197 10.750902,2.98040996 C10.6334807,2.83547715 10.5095355,2.70105791 10.380076,2.58059736" id="path12843" fill="#127BCA"></path>
            <path d="M3.07695822,13.932925 L3.07695822,13.932925 C3.06096611,13.9368849 3.044974,13.9368849 3.02998078,13.9385679 C3.02498139,13.9385679 3.02398151,13.9385679 3.02098188,13.9385679 C3.00746867,13.9385679 2.99347533,13.9425278 2.98100161,13.9425278 C2.98100161,13.9425278 2.97600222,13.9425278 2.97448755,13.9425278 C2.94202319,13.9464877 2.91001918,13.9464877 2.87903385,13.9489627 L2.86903903,13.9489627 C5.49525423,13.8754766 6.69566419,12.5605974 7.29137368,10.6535331 C7.74415011,9.20775902 8.11597603,7.98983832 8.44181746,6.96785411 C7.34185267,8.51610084 6.23688848,10.3616776 5.12593493,12.4291778 C4.59019634,13.4256899 3.77559574,13.8419658 3.07693743,13.9309649" id="path12923" fill="url(#linearGradient-10)"></path>
            <path d="M3.07695822,13.9319252 L3.07695822,13.9319252 C3.77561653,13.8429261 4.59021812,13.4271353 5.12595572,12.4301381 L5.12595572,12.4301381 C6.23690828,10.3631527 7.34236746,8.51706112 8.44133237,6.96881439 L8.44133237,6.96881439 C8.84113507,5.71390811 9.17097601,4.75342135 9.49481769,4.02225314 L9.49481769,4.02225314 C7.30439189,6.10723635 5.10546515,9.57406086 3.07695822,13.9309253" id="path12949" fill="url(#linearGradient-11)"></path>
            <path d="M1.89891087,11.0989144 C1.43465762,11.9939933 0.926906702,12.9475304 0.361662801,13.9555163 C0.606063672,13.9555163 0.959889806,13.9555163 1.35169843,13.9555163 C1.48263493,12.9544801 1.66854393,11.999953 1.89891087,11.0993896" id="path12961" fill="#05A1E6"></path>
            <path d="M8.73169298,1.86183358 C8.72367416,1.86183358 8.71769469,1.86579349 8.71070544,1.86579349 L8.71070544,1.86579349 C8.69870691,1.86975341 8.68619358,1.86975341 8.67371986,1.87104038 L8.67371986,1.87104038 C8.66629502,1.87104038 8.65924638,1.87104038 8.65173244,1.87500029 L8.65173244,1.87500029 C8.63821924,1.8789602 8.62574551,1.8793562 8.6127471,1.88183114 L8.6127471,1.88183114 C8.60670823,1.88183114 8.60075846,1.88183114 8.59575907,1.88579105 L8.59575907,1.88579105 C8.5672477,1.89054295 8.53928082,1.89578983 8.51129413,1.90058133 L8.51129413,1.90058133 C8.50634424,1.90058133 8.50476028,1.90058133 8.50179034,1.90058133 L8.50179034,1.90058133 C8.48731686,1.90454124 8.47428875,1.9066202 8.46081514,1.90860015 L8.46081514,1.90860015 C8.4537863,1.91256006 8.44681685,1.91256006 8.44030279,1.91414403 L8.44030279,1.91414403 C8.42682919,1.91810394 8.41331599,1.91978691 8.40032747,1.92216285 L8.40032747,1.92216285 C8.39329863,1.92612277 8.38785375,1.92612277 8.38132979,1.92651876 L8.38132979,1.92651876 C8.33486021,1.93771541 8.28887573,1.94971395 8.24239625,1.96250447 L8.24239625,1.96250447 C8.23744636,1.96250447 8.23240737,1.96646438 8.2264081,1.96725636 L8.2264081,1.96725636 C8.21241971,1.97121627 8.19890651,1.97527518 8.18443302,1.97965089 L8.18443302,1.97965089 C8.17839416,1.9836108 8.17143461,1.9836108 8.16543534,1.98519477 L8.16543534,1.98519477 C8.15144695,1.98915468 8.13744866,1.99321359 8.12395526,1.99758929 L8.12395526,1.99758929 C8.11851038,1.99758929 8.11396638,2.00154921 8.10896699,2.00154921 L8.10896699,2.00154921 C8.07698079,2.01353784 8.04549948,2.02553638 8.01251341,2.03553516 L8.01251341,2.03553516 C8.01251341,2.03553516 8.01251341,2.03553516 8.01251341,2.03553516 L8.01251341,2.03553516 C7.99852502,2.03989106 7.98352685,2.04552404 7.96853858,2.05072142 L7.96853858,2.05072142 C7.96249971,2.05468134 7.95702513,2.05557232 7.95006558,2.05834426 L7.95006558,2.05834426 C7.93606729,2.06270016 7.9220789,2.06834304 7.90908048,2.07354042 L7.90908048,2.07354042 C7.90413059,2.07750033 7.8990916,2.07789633 7.89560688,2.07997528 L7.89560688,2.07997528 C5.72567264,2.93655393 4.49627414,6.10100939 1.90154421,11.1010825 L1.90154421,11.1010825 C1.67115648,12.0016458 1.48474755,12.9561729 1.35431198,13.9571696 L1.35431198,13.9571696 L1.49324354,13.9571696 C1.88455223,13.9571696 1.99499816,13.9532097 2.44527787,13.9532097 L2.44527787,13.9532097 L2.46826615,13.9532097 L2.53523323,13.9532097 L2.5582225,13.9532097 L2.56473656,13.9532097 L2.58772484,13.9532097 L2.60071831,13.9532097 L2.60971721,13.9532097 L2.62770808,13.9532097 L2.68368145,13.9532097 L2.73965383,13.9532097 L2.78663027,13.9532097 L2.79910499,13.9532097 C2.8260918,13.9532097 2.85357755,13.9532097 2.88156424,13.9532097 L2.88156424,13.9532097 C2.91254857,13.9492498 2.94453378,13.9492498 2.97701793,13.9467748 L2.97701793,13.9467748 C2.97701793,13.9467748 2.98201732,13.9467748 2.9830172,13.9467748 L2.9830172,13.9467748 C2.99653041,13.9467748 3.01000401,13.9428149 3.02299747,13.9428149 L3.02299747,13.9428149 C3.02799686,13.9428149 3.02847205,13.9428149 3.03247156,13.9428149 L3.03247156,13.9428149 C3.04694406,13.9428149 3.0634559,13.938855 3.07944801,13.937172 L3.07944801,13.937172 L3.07944801,13.937172 C5.10795594,9.58030762 7.30687674,6.11348311 9.49730253,4.0284999 L9.49730253,4.0284999 C9.73818403,3.48277441 9.97557091,3.06597378 10.2354501,2.75064592 L10.2354501,2.75064592 C10.0835181,2.49377627 9.91710279,2.2788817 9.73119479,2.12292054 L9.73119479,2.12292054 C9.73119479,2.12292054 9.7261459,2.12292054 9.72574991,2.11896062 L9.72574991,2.11896062 C9.71523634,2.11460472 9.70528706,2.10935783 9.69477349,2.10417035 L9.69477349,2.10417035 C9.68425002,2.09852747 9.67526102,2.09417157 9.66430196,2.08857819 L9.66430196,2.08857819 C9.65479817,2.08461828 9.64379951,2.07937139 9.63431552,2.07418391 L9.63431552,2.07418391 C9.621327,2.070224 9.61081343,2.06458112 9.59933959,2.05938373 L9.59933959,2.05938373 C9.5898358,2.05542382 9.58134178,2.05136491 9.57182809,2.0473951 L9.57182809,2.0473951 C9.55231562,2.03977227 9.53285265,2.03180294 9.51435986,2.02340793 L9.51435986,2.02340793 C9.50584604,2.01944801 9.49788662,2.01736906 9.489848,2.01420113 L9.489848,2.01420113 C9.47637439,2.00935023 9.46086143,2.00300447 9.44687304,1.99700521 L9.44687304,1.99700521 C9.4398442,1.99304529 9.43187487,1.99225331 9.42388575,1.98938237 L9.42388575,1.98938237 C9.403413,1.98255152 9.38340554,1.97539398 9.36440786,1.96898882 L9.36440786,1.96898882 C9.35945797,1.96898882 9.35945797,1.96898882 9.35945797,1.96898882 L9.35945797,1.96898882 C9.33646077,1.96136599 9.31397837,1.95580231 9.29048618,1.94939715 L9.29048618,1.94939715 C9.2850413,1.94543724 9.2804874,1.94543724 9.27501282,1.94464526 L9.27501282,1.94464526 C9.25450048,1.93900238 9.23651257,1.93344861 9.2170397,1.92825122 L9.2170397,1.92825122 C9.21208981,1.92825122 9.20753591,1.92429131 9.2035661,1.92429131 L9.2035661,1.92429131 C9.15659163,1.91189678 9.1081124,1.9019079 9.05913818,1.892711 L9.05913818,1.892711 C9.05408929,1.892711 9.04914929,1.88875109 9.04414991,1.88875109 L9.04414991,1.88875109 C9.02316237,1.88479118 9.00266982,1.88112826 8.98168228,1.87875231 L8.98168228,1.87875231 C8.97663339,1.8747924 8.97366346,1.8747924 8.96920855,1.8747924 L8.96920855,1.8747924 C8.9442215,1.87083248 8.91972944,1.86796155 8.89523738,1.86518961 L8.89523738,1.86518961 C8.89028749,1.86518961 8.88672357,1.86518961 8.88224887,1.86518961 L8.88224887,1.86518961 C8.86226121,1.86122969 8.84378821,1.8608337 8.82527562,1.85875475 L8.82527562,1.85875475 C8.79377452,1.86271466 8.76380787,1.86439762 8.73431642,1.86716956" id="path12981" fill="url(#linearGradient-12)"></path>
            <path d="M23.4984654,4.82785781 C22.9992095,6.42707851 22.5949024,7.74643238 22.2430839,8.83190389 L22.2430839,8.83190389 C23.6129069,6.94682698 24.9622472,4.57546286 26.2471399,1.83884629 L26.2471399,1.83884629 C24.7483525,2.30957103 23.9487471,3.38708311 23.4984654,4.82785781" id="path13003" fill="url(#linearGradient-13)"></path>
            <path d="M22.2865539,13.2497411 C22.2165921,13.2853209 22.1466304,13.319188 22.0776586,13.3496893 C24.7423532,12.1612699 27.9207971,7.44757776 29.4425718,1.57896711 L29.1342035,1.57896711 C25.6379172,7.82439316 24.5134703,12.0053484 22.2865539,13.2497411" id="path13093" fill="url(#linearGradient-14)"></path>
            <path d="M20.5465484,12.7250328 C21.1262598,12.0173865 21.5985091,10.8144937 22.2432324,8.83194349 C21.4995608,9.85344261 20.750969,10.7315335 20.0018129,11.4476639 C20.0018129,11.4516238 20.0018129,11.4516238 19.9978529,11.4540988 C20.1612983,11.9438608 20.3406824,12.3761249 20.545103,12.7249536" id="path13097" fill="#079AE1"></path>
            <path d="M20.5465484,12.7250328 C20.3491269,12.9659242 20.1402613,13.1493474 19.907854,13.2852813 C19.85688,13.3148717 19.8054309,13.3427396 19.7529323,13.3682415 C19.998338,13.5006609 20.2661667,13.5891353 20.5660113,13.6245963 L20.5660113,13.6245963 L20.5660113,13.6245963 C20.6099565,13.6289522 20.6534561,13.6330111 20.6989555,13.636189 L20.7069743,13.636189 C20.7273679,13.636189 20.7489593,13.636189 20.7709467,13.6401489 L20.7797575,13.6401489 C20.8017549,13.6401489 20.8237819,13.6401489 20.8452446,13.6401489 C20.8688358,13.6401489 20.892229,13.6401489 20.915731,13.6401489 C20.9233539,13.6401489 20.9305312,13.6401489 20.9377284,13.6401489 C20.9537165,13.6401489 20.9709025,13.6401489 20.9877025,13.6401489 C20.9957213,13.6401489 21.0040866,13.6401489 21.0120856,13.636189 C21.0276778,13.636189 21.0440718,13.636189 21.06006,13.632229 C21.0640199,13.632229 21.0640199,13.632229 21.0657028,13.632229 C21.0721377,13.632229 21.0776915,13.632229 21.0836908,13.632229 C21.1000848,13.632229 21.1180727,13.6282691 21.1356646,13.6265862 C21.1356646,13.6265862 21.1396245,13.6265862 21.1396245,13.6265862 C21.1448714,13.6265862 21.1504153,13.6226263 21.1556127,13.6226263 C21.1740065,13.6186663 21.1932021,13.6169834 21.2111108,13.6142114 C21.2171497,13.6142114 21.2215056,13.6142114 21.2275049,13.6142114 C21.2478885,13.6102515 21.2689652,13.6077766 21.2899527,13.6038167 L21.2939126,13.6038167 C21.2978725,13.6038167 21.2982685,13.6038167 21.2999515,13.6038167 C21.3419365,13.5957979 21.3829117,13.5878285 21.424372,13.5774338 C21.0805426,13.4514887 20.7926867,13.1546339 20.544806,12.7318439" id="path13101" fill="#1969BC"></path>
            <path d="M15.6338706,13.6959624 C15.8832659,13.6959624 16.1351461,13.6663927 16.3880162,13.6074815 C16.6219084,13.5559896 16.8562759,13.4771492 17.0911581,13.3777551 C17.2865798,13.4935367 17.4914756,13.5796046 17.7083699,13.6329333 C17.8767751,13.6746286 18.0516845,13.6959624 18.2351175,13.6959624 L15.6338706,13.6959624 Z" id="path13105" fill="#1E5CB3"></path>
            <path d="M18.2351571,13.6863957 C18.8508543,13.6863957 19.3386166,13.601023 19.7529323,13.3682811 C19.9982984,13.5232261 20.2661667,13.6267506 20.5660113,13.6682902 L20.5660113,13.6682902 L20.5660113,13.6682902 C20.6099961,13.6733871 20.6534957,13.6781364 20.6989555,13.6818548 L20.7069743,13.6818548 C20.7273679,13.6818548 20.7489593,13.6818548 20.7709467,13.6864883 L20.7801535,13.6864883 C20.8021409,13.6864883 20.8241284,13.6864883 20.8456406,13.6864883 L18.233395,13.6864883 L18.2351571,13.6863957 Z" id="path13109" fill="#1E5CB3"></path>
            <path d="M20.8471949,13.7866904 C20.871182,13.7866904 20.894694,13.7866904 20.9181664,13.7866904 C20.9249972,13.7866904 20.9329567,13.7866904 20.9401538,13.7866904 C20.956142,13.7866904 20.972536,13.7866904 20.9896527,13.7866904 C20.9980675,13.7866904 21.0060369,13.7866904 21.0140359,13.7739621 C21.029628,13.7739621 21.0460221,13.7739621 21.0625349,13.7612338 C21.0664948,13.7612338 21.0664948,13.7612338 21.0677818,13.7612338 C21.0742167,13.7612338 21.0801763,13.7612338 21.0861756,13.7612338 C21.1025597,13.7612338 21.1205575,13.7485055 21.1376644,13.7434142 C21.1376644,13.7434142 21.1416243,13.7434142 21.1420203,13.7434142 C21.1472672,13.7434142 21.152415,13.7306859 21.1576124,13.7306859 C21.1760062,13.7179576 21.1952019,13.7128663 21.213071,13.7036383 C21.2191099,13.7036383 21.2238618,13.7036383 21.230257,13.69091 C21.2506506,13.6781817 21.2717569,13.6714994 21.2927543,13.6588029 L21.2967143,13.6588029 C21.3006742,13.6588029 21.3010702,13.6588029 21.3027531,13.6588029 C21.3447381,13.6330281 21.3857133,13.6073806 21.4271736,13.5739688 L21.4271736,13.5739688 C21.5475945,13.7168757 21.6730545,13.7892361 21.8084637,13.7892361 L20.8479373,13.8019643 L20.8471949,13.7866904 Z" id="path13113" fill="#1D60B5"></path>
            <path d="M19.9994567,11.454178 C19.9994567,11.454178 19.9994567,11.4502181 19.9994567,11.4502181 C19.725104,11.7125722 19.4512365,11.9529785 19.177854,12.170348 C19.0349209,12.2838094 18.8925126,12.3912419 18.7485895,12.4927146 C18.8690105,12.6366377 18.9914708,12.7715717 19.1204056,12.8945171 C19.3163123,13.084385 19.5256828,13.2443457 19.7540906,13.3677663 C19.8060645,13.3421753 19.8580383,13.3142678 19.9084975,13.2848061 C20.14138,13.1488722 20.3502852,12.9654787 20.5477066,12.7245972 C20.343286,12.3757685 20.1638921,11.9434549 20.0004566,11.4537028" id="path13117" fill="#175FAB"></path>
            <path d="M28.157689,1.57896711 L26.8613224,1.57896711 C26.8178228,1.57896711 26.7748379,1.57896711 26.7323777,1.57896711 L26.7323777,1.57896711 C26.6908779,1.57896711 26.6509025,1.57896711 26.6104421,1.57896711 L26.6104421,1.57896711 L26.6056902,1.57896711 C26.5217302,1.58292702 26.4402946,1.58579796 26.3598093,1.59096564 L26.3598093,1.59096564 C26.3218338,1.67245075 26.2828484,1.75392596 26.2453481,1.83588625 L26.2453481,1.83588625 C24.9604949,4.57250283 23.6111546,6.94386694 22.2413317,8.82894386 L22.2413317,8.82894386 C21.597143,10.8114544 21.1243789,12.0143869 20.5446575,12.7220431 L20.5446575,12.7220431 C20.7925382,13.1448331 21.080899,13.4421631 21.4237285,13.5681082 L21.4237285,13.5681082 C21.4337272,13.5641482 21.4417164,13.5641482 21.4507153,13.5620693 L21.4507153,13.5620693 C21.4507153,13.5620693 21.4556652,13.5620693 21.4562592,13.5620693 L21.4562592,13.5620693 C21.462298,13.5620693 21.4687329,13.5581094 21.4752568,13.5581094 L21.4752568,13.5581094 C21.4892452,13.5541495 21.5042434,13.5516745 21.5182318,13.5473186 L21.5182318,13.5473186 C21.5272406,13.5433587 21.534705,13.5429627 21.5437435,13.5400918 L21.5437435,13.5400918 C21.556732,13.5361319 21.5702056,13.5332609 21.5822042,13.530093 L21.5822042,13.530093 C21.590223,13.5261331 21.5981923,13.5248461 21.6061914,13.5232621 L21.6061914,13.5232621 C21.626179,13.5168273 21.6441669,13.5120655 21.6631646,13.5060662 L21.6631646,13.5060662 C21.6721734,13.5021063 21.6816772,13.4988394 21.6916661,13.4964634 L21.6916661,13.4964634 C21.7026647,13.4925035 21.7136535,13.4896326 21.7236523,13.4848708 L21.7236523,13.4848708 C21.7351657,13.4809109 21.7466396,13.4788319 21.7566383,13.474476 L21.7566383,13.474476 C21.7656471,13.4705161 21.7751113,13.4680412 21.7836251,13.4644772 L21.7836251,13.4644772 C21.8060878,13.4564584 21.8281049,13.449687 21.8505873,13.4408861 L21.8505873,13.4408861 C21.8566261,13.4408861 21.8625858,13.4353422 21.8690999,13.4340552 L21.8690999,13.4340552 C21.8825735,13.4284123 21.8965718,13.4240564 21.910085,13.4180572 L21.910085,13.4180572 C21.9150349,13.4140972 21.9210737,13.4137013 21.9275482,13.4116223 L21.9275482,13.4116223 C21.9745325,13.3920306 22.0230019,13.372043 22.0714811,13.3501744 L22.0714811,13.3501744 C22.0714811,13.3501744 22.07653,13.3501744 22.07653,13.3501744 L22.07653,13.3501744 C22.1454919,13.3197919 22.2154635,13.2856872 22.2849303,13.2502262 L22.2849303,13.2502262 C24.5123417,12.0058334 25.6368084,7.82487825 29.1330947,1.5794522 L29.1330947,1.5794522 L28.1565703,1.5794522 L28.157689,1.57896711 Z" id="path13139" fill="url(#linearGradient-15)"></path>
            <path d="M8.82275118,1.85339897 C8.82829506,1.85339897 8.83326475,1.85339897 8.83873933,1.85735888 C8.85221293,1.85735888 8.86572613,1.85735888 8.87921953,1.86171478 C8.88426842,1.86171478 8.88872333,1.86171478 8.89273274,1.86171478 C8.917205,1.8656747 8.94170696,1.86775365 8.96669401,1.87131757 C8.97124791,1.87131757 8.97520782,1.87131757 8.97916774,1.87527749 C8.99964048,1.8792374 9.02064782,1.88250433 9.04163536,1.88567226 C9.04618926,1.88567226 9.05215883,1.88963217 9.05714832,1.88963217 C9.10513256,1.89923496 9.15410679,1.90922384 9.20108125,1.92161837 C9.20553615,1.92161837 9.21009005,1.92557828 9.21407967,1.92557828 C9.23406733,1.93033017 9.25205523,1.93636904 9.27204289,1.94196242 C9.27808176,1.94196242 9.28251686,1.94592233 9.28804094,1.94681331 C9.31154302,1.95285218 9.33352054,1.95881185 9.35650783,1.96640498 C9.35749781,1.96640498 9.35888378,1.96640498 9.36155672,1.97036489 C9.38101969,1.97630476 9.40101725,1.98395729 9.4215197,1.99074854 C9.42953852,1.99470846 9.43699306,1.99639142 9.44450699,1.99837138 C9.45850529,2.00441024 9.47401824,2.01036001 9.48749185,2.01596329 C9.49551067,2.01596329 9.50348,2.02150717 9.51195421,2.0243781 C9.5304272,2.03279292 9.54993967,2.04036625 9.56892746,2.04836528 C9.57892624,2.05232519 9.58740045,2.05678009 9.59691414,2.06035391 C9.6079128,2.06599679 9.61938665,2.07115457 9.63138518,2.07515409 C9.64137406,2.07990598 9.65237272,2.08514297 9.66184681,2.08953847 C9.67236038,2.09518135 9.68231956,2.09953725 9.69234804,2.10513063 C9.94022868,2.22707614 10.1686167,2.38951177 10.3800166,2.58641844 C10.4579774,2.50445814 10.5394328,2.43097206 10.6238977,2.36500981 C10.1616175,2.03716862 9.63787944,1.85026074 9.03367594,1.85026074 C8.96370428,1.85026074 8.89374252,1.85422065 8.82278088,1.85946753" id="path13231" fill="#7DCBEC"></path>
            <path d="M10.3800859,2.58059736 C10.5095256,2.70101831 10.6334609,2.83547715 10.750902,2.98040996 C10.8643436,2.9014493 10.9767953,2.82547837 11.0897419,2.75451674 C10.9418094,2.60658429 10.7858879,2.47365002 10.6234621,2.35918874 C10.5390071,2.42467579 10.4580467,2.49863707 10.3800859,2.58059736" id="path13235" fill="#5EC5ED"></path>
            <g id="g13243" transform="translate(10.701306, 1.832690) scale(-1, 1) rotate(-180.000000) translate(-10.701306, -1.832690) translate(8.348364, 0.891513)" fill="url(#linearGradient-16)">
                <path d="M0.474267909,0.920549513 C0.545233181,0.926546578 0.615198942,0.929045356 0.685164703,0.929045356 C1.28936903,0.929045356 1.81311272,0.742136823 2.2753865,0.414797012 C2.76314781,0.799608698 3.35285922,0.93404291 4.17195838,0.93404291 L0.205399484,0.93404291 C0.296854729,0.93404291 0.386310952,0.9285456 0.474267909,0.920549513" id="path13245"></path>
            </g>
            <g id="g13253" transform="translate(12.229739, 1.832690) scale(-1, 1) rotate(-180.000000) translate(-12.229739, -1.832690) translate(10.347386, 0.891513)" fill="url(#linearGradient-17)">
                <path d="M2.17293664,0.93404291 C1.35383748,0.93404291 0.764126062,0.799608698 0.276364756,0.414797012 C0.438285517,0.300353017 0.594209213,0.167418071 0.742136823,0.019490462 C1.42130446,0.451279159 2.09397528,0.737139268 2.75715074,0.862078127 C3.01002699,0.909554894 3.26240349,0.93404291 3.51128169,0.93404291 L2.17293664,0.93404291 L2.17293664,0.93404291 Z" id="path13255"></path>
            </g>
            <path d="M22.2430839,8.83290377 C22.5954073,7.74643238 22.9987046,6.4276032 23.4989604,4.82785781 C23.949747,3.38656833 24.7478575,2.30909584 26.2466152,1.83884629 C26.2862045,1.75836106 26.323586,1.67540088 26.3620863,1.59392568 C23.9187607,1.74037315 22.7768208,2.9832413 22.2020988,4.8238682 C21.1970928,8.03728798 20.5883849,10.1202714 20.0021792,11.4476243 C20.7508106,10.7319691 21.499442,9.85340301 22.2430839,8.83290377" id="path13333" fill="url(#linearGradient-18)"></path>
        </g>
        <path d="M8.01066667,21.5431111 L8.91377778,21.5431111 L9.83111111,25.4257778 L9.84533333,25.4257778 L10.8693333,21.5431111 L11.7795556,21.5431111 L12.7751111,25.4257778 L12.7893333,25.4257778 L13.7351111,21.5431111 L14.6382222,21.5431111 L13.2373333,26.6204444 L12.3342222,26.6204444 L11.3173333,22.7377778 L11.3031111,22.7377778 L10.2648889,26.6204444 L9.34755556,26.6204444 L8.01066667,21.5431111 Z M18.6488889,23.1573333 C18.6109628,23.0103696 18.5588151,22.8752599 18.4924444,22.752 C18.4260737,22.6287401 18.3407413,22.5220745 18.2364444,22.432 C18.1321476,22.3419255 18.0100748,22.2720002 17.8702222,22.2222222 C17.7303697,22.1724442 17.5680009,22.1475556 17.3831111,22.1475556 C17.1128875,22.1475556 16.8794084,22.2020735 16.6826667,22.3111111 C16.4859249,22.4201487 16.3259265,22.565925 16.2026667,22.7484444 C16.0794068,22.9309639 15.9881484,23.1383692 15.9288889,23.3706667 C15.8696293,23.6029641 15.84,23.8399988 15.84,24.0817778 C15.84,24.3235568 15.8696293,24.5605914 15.9288889,24.7928889 C15.9881484,25.0251863 16.0794068,25.2325917 16.2026667,25.4151111 C16.3259265,25.5976305 16.4859249,25.7434069 16.6826667,25.8524444 C16.8794084,25.961482 17.1128875,26.016 17.3831111,26.016 C17.5822232,26.016 17.7576289,25.98163 17.9093333,25.9128889 C18.0610378,25.8441478 18.1914069,25.7493339 18.3004444,25.6284444 C18.409482,25.507555 18.4948145,25.3665193 18.5564444,25.2053333 C18.6180744,25.0441473 18.6583703,24.871112 18.6773333,24.6862222 L19.5448889,24.6862222 C19.5259258,24.9896311 19.4607413,25.2669617 19.3493333,25.5182222 C19.2379254,25.7694827 19.0874084,25.9863695 18.8977778,26.1688889 C18.7081472,26.3514083 18.4853346,26.4924439 18.2293333,26.592 C17.9733321,26.6915561 17.6912608,26.7413333 17.3831111,26.7413333 C17.00385,26.7413333 16.6637052,26.6714081 16.3626667,26.5315556 C16.0616281,26.391703 15.8068159,26.2008901 15.5982222,25.9591111 C15.3896286,25.7173321 15.2296302,25.4352609 15.1182222,25.1128889 C15.0068143,24.7905169 14.9511111,24.4468166 14.9511111,24.0817778 C14.9511111,23.7214797 15.0068143,23.3801498 15.1182222,23.0577778 C15.2296302,22.7354058 15.3896286,22.4533345 15.5982222,22.2115556 C15.8068159,21.9697766 16.0616281,21.7777785 16.3626667,21.6355556 C16.6637052,21.4933326 17.00385,21.4222222 17.3831111,21.4222222 C17.667557,21.4222222 17.9354062,21.4613329 18.1866667,21.5395556 C18.4379272,21.6177782 18.6595546,21.7315548 18.8515556,21.8808889 C19.0435565,22.030223 19.1988142,22.2115545 19.3173333,22.4248889 C19.4358524,22.6382233 19.5093332,22.882369 19.5377778,23.1573333 L18.6488889,23.1573333 Z M20.3555556,21.5431111 L23.8613333,21.5431111 L23.8613333,22.3111111 L21.2444444,22.3111111 L21.2444444,23.6408889 L23.5413333,23.6408889 L23.5413333,24.3662222 L21.2444444,24.3662222 L21.2444444,26.6204444 L20.3555556,26.6204444 L20.3555556,21.5431111 Z" id="WCF" fill="#4A4A4A"></path>
    </g>
</svg>