<?xml version="1.0" encoding="UTF-8"?>
<svg width="32px" height="32px" viewBox="0 0 32 32" version="1.1" xmlns="http://www.w3.org/2000/svg" xmlns:xlink="http://www.w3.org/1999/xlink">
    <title>aspdotnet</title>
    <g id="aspdotnet" stroke="none" stroke-width="1" fill="none" fill-rule="evenodd">
        <g id="ICONS" transform="translate(0.008312, 0.141299)" fill="#633BA3" fill-rule="nonzero">
            <path d="M15.8088312,0 C24.5398075,0 31.6176623,7.0778548 31.6176623,15.8088312 C31.6176623,24.5398075 24.5398075,31.6176623 15.8088312,31.6176623 C7.0778548,31.6176623 0,24.5398075 0,15.8088312 C0,7.0778548 7.0778548,0 15.8088312,0 Z M7.09818182,22.5953247 C6.9600604,22.5927805 6.82727235,22.6486118 6.73246753,22.7490909 C6.63455403,22.8470247 6.58056606,22.980495 6.58285714,23.118961 C6.58073685,23.2561732 6.63478522,23.3882915 6.73246753,23.4846753 C6.82727235,23.5851544 6.9600604,23.6409858 7.09818182,23.6384416 C7.38576298,23.6384506 7.61953579,23.4065331 7.62181818,23.118961 C7.62350159,22.9797918 7.56790104,22.84605 7.46805195,22.7490909 C7.37137752,22.6488239 7.23744654,22.5931447 7.09818182,22.5953247 Z M9.43376623,16.8976623 L8.4238961,16.8976623 L8.4238961,23.547013 L9.20103896,23.547013 L9.20103896,18.7387013 C9.20883154,18.4348304 9.19633624,18.1307782 9.16363636,17.8285714 L9.16363636,17.8285714 L9.19272727,17.8285714 C9.24840835,17.9742375 9.31945914,18.1135527 9.40467532,18.2441558 L9.40467532,18.2441558 L12.8207792,23.547013 L13.7766234,23.547013 L13.76,16.8976623 L12.9828571,16.8976623 L12.982985,21.9033035 C12.9881125,22.1206542 13.0033189,22.3377088 13.0285714,22.5537662 L13.0285714,22.5537662 L12.9978182,22.497413 C12.9490563,22.4114147 12.8692641,22.281974 12.7584416,22.1090909 L12.7584416,22.1090909 L9.43376623,16.8976623 Z M18.2233766,16.8976623 L14.852987,16.8976623 L14.852987,23.547013 L18.372987,23.547013 L18.372987,22.8280519 L15.6301299,22.8280519 L15.6301299,20.5049351 L18.0280519,20.5049351 L18.0280519,19.8067532 L15.6301299,19.8067532 L15.6301299,17.6 L18.2233766,17.6 L18.2233766,16.8976623 Z M23.5802597,16.8976623 L18.9714286,16.8976623 L18.9714286,17.6 L20.8831169,17.6 L20.8831169,23.547013 L21.6602597,23.547013 L21.6602597,17.6 L23.5761039,17.6 L23.5802597,16.8976623 Z M17.6694697,8.2395041 L17.4254545,8.24519481 C17.1450047,8.24683103 16.8658322,8.28312345 16.5942857,8.35324675 C16.3310471,8.41839015 16.0808696,8.52801851 15.8545455,8.6774026 C15.6405433,8.81978969 15.4615291,9.00874913 15.3309091,9.23012987 C15.0945155,9.67354454 15.0686043,10.1993892 15.2602597,10.6638961 C15.3475217,10.8413225 15.4657374,11.001758 15.6093506,11.1376623 C15.7665186,11.2967775 15.9423385,11.4363171 16.132987,11.5532468 C16.3324675,11.6751515 16.5485714,11.7942857 16.7812987,11.9106494 L16.7812987,11.9106494 L17.3922078,12.2098701 C17.5661533,12.3001791 17.7316627,12.4058825 17.8867532,12.5257143 C18.0175067,12.6250042 18.1288087,12.7475773 18.2150649,12.8872727 C18.4447696,13.3059745 18.3454427,13.8287477 17.9781818,14.134026 C17.6580673,14.3342366 17.2825473,14.4273888 16.905974,14.4 C16.7540833,14.3988101 16.6025587,14.3849087 16.452987,14.3584416 C16.287045,14.3309641 16.1231937,14.2920841 15.9625974,14.2420779 C15.8039995,14.1923937 15.6497212,14.1298484 15.5012987,14.0550649 C15.3651712,13.9883267 15.2380899,13.9045368 15.1231169,13.8057143 L15.1231169,13.8057143 L15.1231169,14.72 C15.2272054,14.7826149 15.3389547,14.8315052 15.4555844,14.8654545 C15.6052715,14.9152275 15.7579573,14.955481 15.9127273,14.985974 C16.0734199,15.0192208 16.231342,15.0441558 16.3864935,15.0607792 C16.5161627,15.0761552 16.6465711,15.0844792 16.7771429,15.0857299 C17.0789467,15.0865423 17.3799428,15.0544918 17.6748052,14.9901299 C17.9420852,14.9339826 18.1969529,14.8297826 18.427013,14.6825974 C18.642723,14.5435547 18.8210825,14.3537803 18.9464935,14.1298701 C19.081414,13.8741531 19.1473056,13.587668 19.1376623,13.2987013 C19.1416741,13.0718742 19.0933217,12.8471774 18.9963636,12.6420779 C18.8996626,12.4470359 18.7703574,12.269944 18.614026,12.1184416 C18.4434186,11.9590371 18.2551896,11.8196082 18.052987,11.7028571 C17.8341126,11.5698701 17.6083117,11.4465801 17.3755844,11.332987 C17.1428571,11.2193939 16.9378355,11.1141126 16.7605195,11.0171429 C16.6002972,10.9337365 16.4485845,10.8349145 16.3075325,10.7220779 C16.192601,10.6301674 16.0978202,10.5155816 16.0290909,10.3854545 C15.9622567,10.2484418 15.9294674,10.097326 15.9335065,9.94493506 C15.929015,9.78227996 15.9723653,9.62188391 16.0581818,9.48363636 C16.1413229,9.35660515 16.2521449,9.25004549 16.3823377,9.17194805 C16.5223143,9.08844093 16.6755053,9.0294132 16.8353247,8.9974026 C17.00337,8.96165507 17.1746881,8.94354827 17.3464935,8.94337662 C17.8801463,8.92326899 18.4069941,9.06840614 18.8550649,9.35896104 L18.8550649,9.35896104 L18.8550649,8.48207792 C18.4024696,8.29638764 17.9137538,8.21540856 17.4254545,8.24519481 Z M11.8981818,8.34077922 L11.0919481,8.34077922 L8.54441558,14.9901299 L9.41298701,14.9901299 L10.0737662,13.1283117 L12.8748052,13.1283117 L13.5937662,14.9901299 L14.454026,14.9901299 L11.8981818,8.34077922 Z M22.1173658,8.31897497 L21.9179221,8.32415584 L20.0935065,8.32415584 L20.0935065,14.9735065 L20.8706494,14.9735065 L20.8706494,12.48 L21.7558442,12.4550649 C22.3975741,12.4882142 23.0273278,12.2723412 23.5137662,11.8524675 C23.9460872,11.4568013 24.184347,10.8922623 24.1662338,10.3064935 C24.1988305,9.75588971 23.9839593,9.21947372 23.5802597,8.84363636 C23.1104497,8.46898451 22.5174609,8.2836755 21.9179221,8.32415584 Z M11.4867532,9.15532468 L11.5130299,9.30544009 C11.5333511,9.40496516 11.5592608,9.50330828 11.5906494,9.6 L11.5906494,9.6 L12.6337662,12.4301299 L10.3438961,12.4301299 L11.3787013,9.6 C11.4281165,9.45535465 11.4642826,9.30651729 11.4867532,9.15532468 L11.4867532,9.15532468 Z M21.8098701,9.05142857 C22.8460606,9.05142857 23.3641558,9.48917749 23.3641558,10.3646753 C23.3886774,10.7558318 23.2360915,11.1372966 22.9485714,11.4036364 C22.5927086,11.6762393 22.1487689,11.8079414 21.7018182,11.7735065 L21.7018182,11.7735065 L20.8706494,11.7735065 L20.8706494,9.05142857 Z" id="Oval-2"></path>
        </g>
    </g>
</svg>