<?xml version="1.0" encoding="UTF-8" standalone="no"?>
<!DOCTYPE svg PUBLIC "-//W3C//DTD SVG 1.1//EN" "http://www.w3.org/Graphics/SVG/1.1/DTD/svg11.dtd">
<!-- Created with Vectornator (http://vectornator.io/) -->
<svg height="100%" stroke-miterlimit="10" style="fill-rule:nonzero;clip-rule:evenodd;stroke-linecap:round;stroke-linejoin:round;" version="1.1" viewBox="0 0 475.529 523" width="100%" xml:space="preserve" xmlns="http://www.w3.org/2000/svg" xmlns:xlink="http://www.w3.org/1999/xlink">
<defs/>
<clipPath id="ArtboardFrame">
<rect height="523" width="475.529" x="0" y="0"/>
</clipPath>
<g clip-path="url(#ArtboardFrame)" id="Layer-1-copy">
<g opacity="1">
<path d="M246.19 88.057C212.468 71.1962 149.887 110.492 148.806 144.531C148.207 163.405 147.515 182.291 147.83 201.172C147.861 203.024 192.488 227.381 197.634 230.469C233.775 252.153 279.998 269.864 309.939 299.805C339.509 329.375 325.553 381.6 295.291 404.297C298.962 407.968 329.634 387.793 336.306 383.789C373.825 361.278 445.192 332.521 467.166 295.898C468.664 293.402 481.875 249.9 461.753 219.345C438.733 184.388 247.166 87.0804 246.19 88.057Z" fill="#2f4165" fill-rule="nonzero" opacity="1" stroke="none"/>
<path d="M57.986 0C54.5587 3.42725 47.811 3.1753 43.3375 5.85937C22.3716 18.4389 2.02591 38.2508 1.34533 64.4531C0.753614 87.2342 0.685249 110.026 0.368769 132.812C0.359727 133.463 0.368769 134.115 0.368769 134.766C0.368769 180.013-0.272974 225.265 0.368769 270.508C1.14489 325.224 60.7202 328.203 99.9781 312.5C104.602 310.65 149.769 283.489 149.783 283.203C151.038 256.54 149.783 229.818 149.783 203.125C149.783 183.919 149.473 164.711 149.783 145.508C149.884 139.221 153.734 128.195 157.595 123.047C172.571 103.08 187.768 89.2314 213.259 86.9141C215.486 86.7116 248.917 89.342 249.392 88.8672C239.956 79.4305 224.704 74.2495 213.259 67.3828C184.869 50.3488 155.711 34.6115 127.322 17.5781C118.088 12.0375 100.151 7.00853 57.986 0Z" fill="#fbbe0f" fill-rule="nonzero" opacity="1" stroke="none"/>
<path d="M10.1344 313.477C9.15783 313.965 9.15783 313.965 8.18127 314.453C-0.0332192 306.239 10.7859 295.573 2.32189 287.109C1.67085 287.76 0.379351 288.142 0.368769 289.062C-0.274747 345.048 0.0559825 401.043 0.368769 457.031C0.508916 482.118 29.5363 520.324 55.0563 521.484C68.714 522.105 82.4141 522.105 96.0719 521.484C106.581 521.007 136.428 499.419 146.853 493.164C193.303 465.294 280.694 415.348 328.866 389.368C328.378 388.392 341.441 369.074 340.953 368.097C385.16 323.891 302.949 289.901 259.814 264.02C250.98 258.72 231.002 281.779 221.072 279.297C218.805 278.73 178.726 303.337 173.22 306.641C116.701 340.552 61.9177 382.521 10.1344 313.477Z" fill="#f07f1f" fill-rule="nonzero" opacity="1" stroke="none"/>
<path d="M147.83 283.203C106.764 303.736 59.5549 342.432 15.9938 303.711C0.426098 319.279 27.4616 338.742 41.3844 345.703C76.9102 363.466 105.356 347.945 135.134 330.078C137.544 328.632 150.566 322.83 150.759 320.312C151.659 308.624 150.705 296.843 149.783 285.156C149.71 284.238 148.481 283.854 147.83 283.203Z" fill="#a67951" fill-rule="nonzero" opacity="1" stroke="none"/>
<path d="M252.322 259.766C243.518 268.569 229.876 272.449 220.095 280.273C234.132 294.31 256.552 299.553 271.853 312.5C281.367 320.55 290.291 328.438 297.244 338.867C300.364 343.548 312.062 362.766 315.844 366.548C320.626 362.962 345.844 351.806 347.745 344.836C358.196 306.517 280.619 273.914 252.322 259.766Z" fill="#a67951" fill-rule="nonzero" opacity="1" stroke="none"/>
<path d="M2.32189 270.508C-2.45521 275.285 2.82587 310.242 8.18127 317.383C12.3775 313.187 12.8889 308.769 16.9703 304.687C7.60067 295.318 10.431 278.617 2.32189 270.508Z" fill="#b89140" fill-rule="nonzero" opacity="1" stroke="none"/>
</g>
</g>
</svg>
