<?xml version="1.0" encoding="UTF-8" standalone="no"?>
<!DOCTYPE svg PUBLIC "-//W3C//DTD SVG 1.1//EN" "http://www.w3.org/Graphics/SVG/1.1/DTD/svg11.dtd">
<!-- Created with Vectornator (http://vectornator.io/) -->
<svg height="100%" stroke-miterlimit="10" style="fill-rule:nonzero;clip-rule:evenodd;stroke-linecap:round;stroke-linejoin:round;" version="1.1" viewBox="0 0 300 300" width="100%" xml:space="preserve" xmlns="http://www.w3.org/2000/svg" xmlns:vectornator="http://vectornator.io" xmlns:xlink="http://www.w3.org/1999/xlink">
<defs/>
<g id="Untitled" vectornator:layerName="Untitled">
<path d="M49.2732 80.6528C53.4997 78.2131 58.9059 79.6608 61.3455 83.8873L64.2642 88.9411L70.1011 88.9411C74.9825 88.9411 78.9389 92.8975 78.9389 97.779L78.9389 100.738L69.6356 98.2443L18.8031 98.2443L49.2732 80.6528ZM39.1637 80.6528C34.9373 78.2131 29.5311 79.6608 27.0913 83.8873L18.8011 98.2443L39.5219 80.8597L39.1637 80.6528Z" fill="#004167" fill-rule="nonzero" opacity="1" stroke="none" vectornator:layerName="path"/>
<path d="M87.2289 128.716C89.6686 132.943 88.2208 138.349 83.9944 140.789L78.9407 143.707L78.9407 149.544C78.9407 154.426 74.9843 158.382 70.1026 158.382L67.1441 158.382L69.6374 149.079L69.6374 98.2463L87.2307 128.718L87.2289 128.716ZM87.2289 118.607C89.6686 114.381 88.2208 108.974 83.9944 106.535L69.6374 98.2444L87.0239 118.965L87.2307 118.607L87.2289 118.607Z" fill="#004167" fill-rule="nonzero" opacity="1" stroke="none" vectornator:layerName="path"/>
<path d="M39.1631 166.672C34.9367 169.112 29.5305 167.664 27.0907 163.438L24.1722 158.384L18.3352 158.384C13.4537 158.384 9.49728 154.428 9.49728 149.546L9.49728 146.588L18.8005 149.081L69.635 149.081L39.1631 166.674L39.1631 166.672ZM49.2726 166.672C53.4991 169.112 58.9053 167.664 61.3449 163.438L69.635 149.081L48.9144 166.468L49.2726 166.674L49.2726 166.672Z" fill="#004167" fill-rule="nonzero" opacity="1" stroke="none" vectornator:layerName="path"/>
<path d="M1.2094 118.607C-1.23035 114.38 0.217415 108.974 4.44388 106.535L9.49767 103.616L9.49767 97.779C9.49767 92.8975 13.4541 88.9411 18.3355 88.9411L21.2943 88.9411L18.8009 98.2443L18.8009 149.079L1.2094 118.607ZM1.2094 128.716C-1.23035 132.943 0.217415 138.349 4.44388 140.789L18.8009 149.079L1.41623 128.358L1.2094 128.716Z" fill="#004167" fill-rule="nonzero" opacity="1" stroke="none" vectornator:layerName="path"/>
<path d="M124.539 92.4917L113.6 92.4917L113.61 82.0242L124.548 82.0242L124.539 92.4917ZM124.062 149.077L114.079 149.077L114.088 99.2422L124.07 99.2422L124.062 149.077Z" fill="#fe9032" fill-rule="nonzero" opacity="1" stroke="none" vectornator:layerName="path"/>
<path d="M160.878 141.587L160.878 149.837C158.86 150.061 156.772 150.207 154.982 150.207C146.695 150.207 140.539 147.129 140.539 137.531L140.539 106.985L132.805 106.985L132.805 99.2402L140.539 99.2402L140.539 87.0989L150.522 87.0989L150.522 99.246L160.868 99.246L160.868 106.99L150.522 106.99L150.522 135.892C150.522 140.203 152.72 141.796 156.68 141.806C158.074 141.806 159.281 141.698 160.876 141.587L160.878 141.587Z" fill="#004167" fill-rule="nonzero" opacity="1" stroke="none" vectornator:layerName="path"/>
<path d="M212.579 123.621C212.545 124.986 212.417 125.637 212.323 127.445L212.302 127.439L212.302 127.445L178.924 127.445C179.401 138.165 182.737 141.553 192.628 141.553C198.588 141.553 205.563 140.373 210.467 137.876L210.471 146.291C205.699 148.83 198.887 150.207 191.981 150.207C174.125 150.207 168.587 140.992 168.587 124.385C168.587 107.777 174.16 98.1161 191.194 98.1161C211.691 98.1161 213.204 112.213 212.579 123.622L212.579 123.621ZM178.999 120.043L202.5 120.039C202.69 113.674 201.897 106.699 190.901 106.699C182.885 106.699 179.67 110.455 178.999 120.043Z" fill="#004167" fill-rule="nonzero" opacity="1" stroke="none" vectornator:layerName="path"/>
<path d="M248.166 123.877L265.317 149.077L254.06 149.077L242.103 131.047L230.266 149.077L219.009 149.077L236.423 123.381L220.092 99.2423L231.327 99.2423L242.442 115.901L252.996 99.2423L264.231 99.2423L248.162 123.877L248.166 123.877Z" fill="#004167" fill-rule="nonzero" opacity="1" stroke="none" vectornator:layerName="path"/>
<path d="M299.771 141.587L299.771 149.837C297.752 150.061 295.664 150.207 293.874 150.207C285.587 150.207 279.431 147.129 279.431 137.531L279.431 106.985L271.698 106.985L271.698 99.2402L279.431 99.2402L279.431 87.0989L289.414 87.0989L289.414 99.246L299.759 99.246L299.759 106.99L289.414 106.99L289.414 135.892C289.414 140.203 291.612 141.796 295.572 141.806C296.966 141.806 298.173 141.698 299.768 141.587L299.771 141.587Z" fill="#004167" fill-rule="nonzero" opacity="1" stroke="none" vectornator:layerName="path"/>
<path d="M116.752 175.026C121.524 175.026 122.806 178.193 122.809 183.299C122.806 188.404 121.524 191.53 116.764 191.53C115.012 191.53 113.61 191.108 111.363 189.846L111.204 191.171L108.364 191.171L108.364 168.825L111.528 168.825L111.528 176.617C113.642 175.447 115.013 175.026 116.754 175.026L116.752 175.026ZM115.875 188.755C118.79 188.755 119.56 187.198 119.563 183.276C119.558 179.367 118.79 177.799 115.885 177.799C114.644 177.799 113.644 178.08 111.524 179.245L111.524 187.309C113.673 188.488 114.667 188.755 115.875 188.755Z" fill="#758592" fill-rule="nonzero" opacity="1" stroke="none" vectornator:layerName="path"/>
<path d="M139.893 175.384L133.139 193.946C132.467 195.809 130.837 197.041 128.729 197.041L127.041 197.041L127.041 194.473L128.315 194.473C129.416 194.473 130.132 193.883 130.477 192.885L131.394 190.248L124.787 175.384L128.185 175.384L132.842 186.089L136.567 175.384L139.893 175.384Z" fill="#758592" fill-rule="nonzero" opacity="1" stroke="none" vectornator:layerName="path"/>
<path d="M157.041 175.026C160.58 175.026 163.683 176.188 163.683 180.474L163.683 191.171L160.754 191.171L160.643 189.844C158.81 190.913 157.112 191.529 155.241 191.529C152.625 191.529 150.337 190.338 150.337 186.474C150.337 182.609 152.742 181.456 156.484 181.416C158.558 181.407 159.019 181.411 160.528 181.412L160.528 180.531C160.524 178.316 159.245 177.713 156.999 177.713C155.434 177.713 153.412 177.992 151.623 178.339L151.623 175.635C153.276 175.324 155.283 175.028 157.039 175.028L157.041 175.026ZM156.04 188.898C157.476 188.898 158.832 188.448 160.53 187.527L160.53 183.645L156.752 183.645C154.406 183.661 153.536 184.053 153.539 186.242C153.539 188.283 154.339 188.898 156.041 188.898L156.04 188.898Z" fill="#758592" fill-rule="nonzero" opacity="1" stroke="none" vectornator:layerName="path"/>
<path d="M182.333 183.257C182.333 188.362 181.038 191.53 176.272 191.53C174.548 191.53 173.175 191.114 171.049 189.938L171.049 197.051L167.887 197.051L167.887 175.384L170.728 175.384L170.886 176.711C173.106 175.464 174.506 175.028 176.283 175.028C181.04 175.028 182.335 178.153 182.335 183.257L182.333 183.257ZM175.404 188.757C178.307 188.757 179.089 187.2 179.089 183.28C179.089 179.36 178.311 177.802 175.404 177.802C174.18 177.802 173.185 178.076 171.049 179.248L171.049 187.313C173.183 188.485 174.179 188.759 175.404 188.759L175.404 188.757Z" fill="#758592" fill-rule="nonzero" opacity="1" stroke="none" vectornator:layerName="path"/>
<path d="M195.435 177.714C193.873 177.714 192.247 178.237 189.236 179.825L189.236 191.173L186.071 191.173L186.071 175.386L188.915 175.386L189.116 177.063C191.837 175.643 193.631 175.03 195.434 175.03L195.434 177.716L195.435 177.714Z" fill="#758592" fill-rule="nonzero" opacity="1" stroke="none" vectornator:layerName="path"/>
<path d="M213.063 175.384L206.309 193.946C205.636 195.809 204.007 197.041 201.898 197.041L200.211 197.041L200.211 194.473L201.485 194.473C202.586 194.473 203.302 193.883 203.647 192.885L204.564 190.248L197.957 175.384L201.354 175.384L206.012 186.089L209.737 175.384L213.063 175.384Z" fill="#758592" fill-rule="nonzero" opacity="1" stroke="none" vectornator:layerName="path"/>
<path d="M226.018 175.509L226.018 178.207C224.569 177.904 222.857 177.705 221.468 177.705C218.805 177.705 218.475 178.454 218.464 179.563C218.464 180.715 218.831 180.957 221.365 181.729C224.379 182.642 226.942 183.197 226.942 186.725C226.942 190.252 224.238 191.53 220.494 191.53C218.793 191.53 217.114 191.29 215.266 190.886L215.266 188.159C217.043 188.561 218.73 188.831 220.406 188.831C222.635 188.831 223.632 188.347 223.632 186.75C223.632 185.411 222.941 185.218 220.475 184.452C216.771 183.285 215.262 182.736 215.267 179.725C215.262 176.778 216.681 175.007 221.325 175.007C223.075 175.007 224.797 175.256 226.022 175.509L226.018 175.509Z" fill="#758592" fill-rule="nonzero" opacity="1" stroke="none" vectornator:layerName="path"/>
<path d="M243.805 183.107C243.794 183.54 243.754 183.745 243.725 184.32L233.144 184.32C233.295 187.715 234.353 188.789 237.486 188.789C239.374 188.789 241.584 188.416 243.137 187.625L243.137 190.291C241.626 191.095 239.468 191.531 237.281 191.531C231.624 191.531 229.87 188.611 229.87 183.351C229.87 178.09 231.635 175.03 237.032 175.03C243.526 175.03 244.004 179.495 243.807 183.111L243.805 183.107ZM233.167 181.973L240.613 181.973C240.672 179.955 240.421 177.745 236.938 177.745C234.398 177.745 233.38 178.934 233.167 181.973Z" fill="#758592" fill-rule="nonzero" opacity="1" stroke="none" vectornator:layerName="path"/>
</g>
</svg>
