<?xml version="1.0" encoding="UTF-8"?>
<svg width="128px" height="128px" viewBox="0 0 128 128" version="1.1" xmlns="http://www.w3.org/2000/svg" xmlns:xlink="http://www.w3.org/1999/xlink">
    <title>mariadb-original</title>
    <g id="mariadb-original" stroke="none" stroke-width="1" fill="none" fill-rule="evenodd">
        <g id="mariadb" transform="translate(0.000000, 21.000000)" fill-rule="nonzero">
            <path d="M125.196,0.002 C123.221,0.0655 123.8455,0.6345 119.578,1.6845 C115.2685,2.745 110.0045,2.4195 105.364,4.366 C91.511,10.176 88.7315,30.0325 76.138,37.1455 C66.7245,42.4625 57.227,42.8865 48.6885,45.5625 C43.077,47.322 36.9385,50.9305 31.8545,55.312 C27.9085,58.7135 27.8055,61.705 23.682,65.972 C19.272,70.5355 6.1535,66.049 0.208,73.034 C2.123,74.9705 2.963,75.513 6.737,75.0105 C5.956,76.4915 1.3495,77.7395 2.251,79.9185 C3.2,82.211 14.336,83.765 24.4595,77.6535 C29.174,74.807 32.9295,70.704 40.2715,69.725 C49.773,68.4585 60.719,70.537 71.7185,72.1235 C70.0875,76.9865 66.813,80.2205 64.19,84.0935 C63.3775,84.9685 65.8215,85.0665 68.6095,84.538 C73.6245,83.298 77.2385,82.299 81.0235,80.096 C85.6735,77.389 86.3785,70.4495 92.0835,68.9475 C95.262,73.8335 103.908,74.9875 109.2725,71.0795 C104.565,69.747 103.264,59.727 104.853,55.312 C106.358,51.132 107.8455,44.447 109.3615,38.922 C110.989,32.989 111.589,25.5105 113.5585,22.488 C116.522,17.941 119.796,16.3795 122.6385,13.8155 C125.4815,11.251 128.0835,8.7555 127.998,2.888 C127.9705,0.998 126.993,-0.055 125.196,0.002 Z" id="Shape" fill="#002B64"></path>
            <path d="M4.297,79.5 C11.506,80.533 15.89,79.5 21.679,76.99 C26.605,74.8535 31.362,70.4495 37.179,68.5825 C45.7215,65.8415 55.0895,68.586 64.2215,69.1335 C66.4455,69.267 68.655,69.2685 70.836,69.031 C74.2375,66.94 74.1675,59.1195 77.4785,58.403 C77.381,69.3755 72.8825,75.95 68.178,82.316 C78.093,80.565 84.0265,74.83 88.034,67.1705 C89.25,64.848 90.288,62.3495 91.206,59.7305 C92.6255,60.82 91.821,64.1345 92.5345,65.9305 C99.364,62.126 103.2745,53.444 105.8645,44.663 C108.8605,34.5005 110.087,24.21 112.0195,21.203 C113.9055,18.268 116.8405,16.459 119.5195,14.58 C122.5645,12.4435 125.2795,10.217 125.7485,6.1465 C122.538,5.8495 121.7955,5.1065 121.3205,3.4885 C119.713,4.3945 118.235,4.5885 116.565,4.6385 C115.116,4.6825 113.524,4.618 111.5795,4.8175 C95.4995,6.469 93.456,24.1925 83.1495,34.2395 C82.3894454,34.9756725 81.5818751,35.6611468 80.732,36.2915 C77.122,38.9815 72.694,40.9035 68.622,42.46 C62.0305,44.9785 55.764,45.1575 49.58,47.3315 C45.04,48.927 40.427,51.2415 36.6985,53.7935 C35.7980669,54.4063496 34.9242678,55.057445 34.0795,55.745 C31.8915,57.535 30.455,59.5215 29.066,61.565 C27.633,63.67 26.2495,65.8365 24.1405,67.906 C20.7235,71.261 7.9555,68.8845 3.4605,71.996 C2.9595,72.342 2.5615,72.7575 2.2905,73.2565 C4.7435,74.371 6.3815,73.687 9.203,73.999 C9.573,76.6765 3.382,78.2675 4.297,79.5005 L4.297,79.5 Z M101.7175,60.213 C101.9095,63.2845 103.6925,69.378 105.2665,70.8595 C102.1835,71.6095 96.873,70.3705 95.5105,68.196 C96.2105,65.056 99.8535,62.186 101.7175,60.213 Z" id="Shape" fill="#FFFFFF"></path>
            <path d="M106.234,11.4675 C108.51,13.4435 113.2865,11.8575 112.433,7.9255 C108.896,7.6325 106.847,8.833 106.234,11.4675 Z M122.1035,6.872 C121.4985,8.142 120.339,9.7795 120.339,13.012 C120.334,13.567 119.9175,13.9475 119.9105,13.092 C119.942,9.932 120.778,8.5665 121.6665,6.7715 C122.0795,6.036 122.328,6.3395 122.1035,6.872 Z" id="Shape" fill="#002B64"></path>
            <path d="M121.494,6.394 C120.7795,7.6055 119.06,9.816 118.7755,13.0365 C118.723,13.5885 118.274,13.9305 118.342,13.077 C118.652,9.933 120.0265,7.965 121.0695,6.2545 C121.543,5.559 121.7655,5.883 121.494,6.394 Z M120.938,5.76 C120.1245,6.907 117.477,9.5615 116.9235,12.7475 C116.824,13.2925 116.348,13.5965 116.488,12.7515 C117.061,9.644 119.343,7.2015 120.526,5.586 C121.056,4.931 121.25,5.2735 120.938,5.76 Z M120.442,5.053 C119.4755,6.074 116.3195,9.459 115.3245,12.535 C115.1485,13.0605 114.6345,13.295 114.8925,12.478 C115.896,9.482 118.66,6.2545 120.0585,4.822 C120.676,4.2485 120.8195,4.6145 120.442,5.053 Z" id="Shape" fill="#002B64"></path>
        </g>
    </g>
</svg>