<?xml version="1.0" encoding="UTF-8"?>
<svg width="128px" height="128px" viewBox="0 0 128 128" version="1.1" xmlns="http://www.w3.org/2000/svg" xmlns:xlink="http://www.w3.org/1999/xlink">
    <title>mariadb-plain</title>
    <g id="mariadb-plain" stroke="none" stroke-width="1" fill="none" fill-rule="evenodd">
        <g id="mariadb" transform="translate(0.208000, 20.999800)" fill="#002B64" fill-rule="nonzero">
            <path d="M124.988,0.00219991321 C126.785,-0.0548000868 127.7625,0.998199913 127.79,2.88819991 C127.8641,7.97336658 125.919589,10.5257866 123.549048,12.7854235 L123.181202,13.1310521 C123.119406,13.1883726 123.057384,13.2455761 122.995162,13.3027004 L122.619649,13.6447977 L122.619649,13.6447977 L122.4305,13.8156999 C119.588,16.3796999 116.314,17.9411999 113.3505,22.4881999 C111.381,25.5106999 110.781,32.9891999 109.1535,38.9221999 C107.6375,44.4471999 106.15,51.1321999 104.645,55.3121999 C103.056,59.7271999 104.357,69.7471999 109.0645,71.0796999 C103.7,74.9876999 95.054,73.8336999 91.8755,68.9476999 C88.8989783,69.7313521 87.2835151,71.9951555 85.7587103,74.3657428 L85.3786627,74.9598195 C84.1132316,76.9421924 82.8372391,78.9192434 80.8155,80.0961999 C77.0305,82.2991999 73.4165,83.2981999 68.4015,84.5381999 C65.6135,85.0666999 63.1695,84.9686999 63.982,84.0936999 C64.5873077,83.1999307 65.2273107,82.340191 65.8738045,81.4866084 L66.5214174,80.6340458 C68.4644793,78.0763212 70.3813462,75.4903922 71.5105,72.1236999 C71.2132162,72.0808215 70.9159715,72.0375838 70.6187933,71.9940624 L68.8367426,71.7301363 C58.7454693,70.2221364 48.7946081,68.5613891 40.0635,69.7251999 C34.6444048,70.4477952 31.1791794,72.8722974 27.8400652,75.2372949 L27.194869,75.6938204 C26.2279643,76.3760749 25.26175,77.0437356 24.2515,77.6536999 C14.128,83.7651999 2.992,82.2111999 2.043,79.9186999 C1.1415,77.7396999 5.748,76.4916999 6.529,75.0106999 C2.755,75.5131999 1.915,74.9706999 0,73.0341999 C3.06283333,69.4358666 8.02924518,68.8818523 12.7280524,68.5666328 L13.5540338,68.5129137 C17.6656322,68.2510016 21.4694545,68.0465181 23.474,65.9721999 C27.5975,61.7051999 27.7005,58.7136999 31.6465,55.3121999 C36.7305,50.9306999 42.869,47.3221999 48.4805,45.5626999 C57.019,42.8866999 66.5165,42.4626999 75.93,37.1456999 C81.8863851,33.7814432 85.6473448,27.5664217 89.422895,21.3351697 L90.0706875,20.2673249 C94.071375,13.6878249 98.2295,7.27119991 105.156,4.36619991 C109.7965,2.41969991 115.0605,2.74519991 119.37,1.68469991 C123.6375,0.634699913 123.013,0.0656999132 124.988,0.00219991321 Z M121.1125,3.48869991 C119.505,4.39469991 118.027,4.58869991 116.357,4.63869991 C114.908,4.68269991 113.316,4.61819991 111.3715,4.81769991 C101.0803,5.87465991 96.5384504,13.5147111 91.9002711,21.5123267 L91.4649811,22.2629608 L91.4649811,22.2629608 L91.0280564,23.01455 C88.6915288,27.0235463 86.23958,31.0246599 82.9415,34.2396999 C82.1814454,34.9758724 81.3738751,35.6613467 80.524,36.2916999 C76.914,38.9816999 72.486,40.9036999 68.414,42.4601999 C61.8225,44.9786999 55.556,45.1576999 49.372,47.3316999 C44.832,48.9271999 40.219,51.2416999 36.4905,53.7936999 C35.5900669,54.4065495 34.7162678,55.0576449 33.8715,55.7451999 C31.6835,57.5351999 30.247,59.5216999 28.858,61.5651999 C27.425,63.6701999 26.0415,65.8366999 23.9325,67.9061999 C20.5155,71.2611999 7.7475,68.8846999 3.2525,71.9961999 C2.7515,72.3421999 2.3535,72.7576999 2.0825,73.2566999 C4.5355,74.3711999 6.1735,73.6871999 8.995,73.9991999 C9.365,76.6766999 3.174,78.2676999 4.089,79.5006999 C11.298,80.5331999 15.682,79.5001999 21.471,76.9901999 C26.397,74.8536999 31.154,70.4496999 36.971,68.5826999 C42.8558333,66.6944555 49.1324225,67.4094532 55.453737,68.2160954 L57.2898994,68.4505803 C59.5348649,68.7347557 61.7812333,68.9998666 64.0135,69.1336999 C66.2375,69.2671999 68.447,69.2686999 70.628,69.0311999 C74.0295,66.9401999 73.9595,59.1196999 77.2705,58.4031999 C77.1799643,68.5919499 73.2946888,74.9885469 68.9734253,80.9473389 L68.4730742,81.6331398 C68.305773,81.8612197 68.1380179,82.0888428 67.97,82.3161999 C77.885,80.5651999 83.8185,74.8301999 87.826,67.1706999 C89.042,64.8481999 90.08,62.3496999 90.998,59.7306999 C92.4175,60.8201999 91.613,64.1346999 92.3265,65.9306999 C99.156,62.1261999 103.0665,53.4441999 105.6565,44.6631999 C108.6525,34.5006999 109.879,24.2101999 111.8115,21.2031999 C113.6975,18.2681999 116.6325,16.4591999 119.3115,14.5801999 C122.3565,12.4436999 125.0715,10.2171999 125.5405,6.14669991 C122.33,5.84969991 121.5875,5.10669991 121.1125,3.48869991 Z M101.5095,60.2131999 C99.6455,62.1861999 96.0025,65.0561999 95.3025,68.1961999 C96.665,70.3706999 101.9755,71.6096999 105.0585,70.8596999 C103.4845,69.3781999 101.7015,63.2846999 101.5095,60.2131999 Z" id="Shape-2"></path>
            <path d="M106.026,11.4676999 C108.302,13.4436999 113.0785,11.8576999 112.225,7.92569991 C108.688,7.63269991 106.639,8.83319991 106.026,11.4676999 Z M121.8955,6.87219991 C121.2905,8.14219991 120.131,9.77969991 120.131,13.0121999 C120.126,13.5671999 119.7095,13.9476999 119.7025,13.0921999 C119.734,9.93219991 120.57,8.56669991 121.4585,6.77169991 C121.8715,6.03619991 122.12,6.33969991 121.8955,6.87219991 Z" id="Shape"></path>
            <path d="M121.286,6.39419991 C120.5715,7.60569991 118.852,9.81619991 118.5675,13.0366999 C118.515,13.5886999 118.066,13.9306999 118.134,13.0771999 C118.444,9.93319991 119.8185,7.96519991 120.8615,6.25469991 C121.335,5.55919991 121.5575,5.88319991 121.286,6.39419991 Z M120.73,5.76019991 C119.9165,6.90719991 117.269,9.56169991 116.7155,12.7476999 C116.616,13.2926999 116.14,13.5966999 116.28,12.7516999 C116.853,9.64419991 119.135,7.20169991 120.318,5.58619991 C120.848,4.93119991 121.042,5.27369991 120.73,5.76019991 Z M120.234,5.05319991 C119.2675,6.07419991 116.1115,9.45919991 115.1165,12.5351999 C114.9405,13.0606999 114.4265,13.2951999 114.6845,12.4781999 C115.688,9.48219991 118.452,6.25469991 119.8505,4.82219991 C120.468,4.24869991 120.6115,4.61469991 120.234,5.05319991 Z" id="Shape"></path>
        </g>
    </g>
</svg>