<?xml version="1.0" encoding="UTF-8"?>
<svg width="126.99mm" height="48.996mm" inkscape:version="1.0.2 (e86c870879, 2021-01-15, custom)" sodipodi:docname="orc-1.svg" version="1.1" viewBox="0 0 126.99 48.996" xmlns="http://www.w3.org/2000/svg" xmlns:cc="http://creativecommons.org/ns#" xmlns:dc="http://purl.org/dc/elements/1.1/" xmlns:inkscape="http://www.inkscape.org/namespaces/inkscape" xmlns:rdf="http://www.w3.org/1999/02/22-rdf-syntax-ns#" xmlns:sodipodi="http://sodipodi.sourceforge.net/DTD/sodipodi-0.dtd">
 <sodipodi:namedview id="cvfa" bordercolor="#666666" borderopacity="1.0" fit-margin-bottom="0" fit-margin-left="0" fit-margin-right="0" fit-margin-top="0" inkscape:current-layer="g8046" inkscape:cx="-96.578345" inkscape:cy="273.48712" inkscape:document-rotation="0" inkscape:document-units="mm" inkscape:pageopacity="0.0" inkscape:pageshadow="2" inkscape:window-height="1014" inkscape:window-maximized="1" inkscape:window-width="1920" inkscape:window-x="0" inkscape:window-y="36" inkscape:zoom="0.9899495" pagecolor="#ffffff" showgrid="false"/>
 <title>Apache Orc logo</title>
 <metadata>
  <rdf:RDF>
   <cc:Work rdf:about="">
    <dc:format>image/svg+xml</dc:format>
    <dc:type rdf:resource="http://purl.org/dc/dcmitype/StillImage"/>
    <dc:title/>
   </cc:Work>
  </rdf:RDF>
 </metadata>
 <g transform="translate(138.53 -96.653)" inkscape:groupmode="layer" inkscape:label="Layer 1">
  <path d="m-68.845 114.57a12.804 12.707 0 0 0-12.804 12.707 12.804 12.707 0 0 0 12.804 12.707 12.804 12.707 0 0 0 12.804-12.707 12.804 12.707 0 0 0-12.804-12.707zm-0.0093 2.3192a10.442 10.362 0 0 1 10.442 10.362 10.442 10.362 0 0 1-10.442 10.362 10.442 10.362 0 0 1-10.442-10.362 10.442 10.362 0 0 1 10.442-10.362z" style="fill:#62d05d" inkscape:connector-curvature="0"/>
  <g transform="translate(11.493 -60.403)">
   <path d="m-129.66 205.78c-9.829-1.7355-17.323-8.7841-19.833-18.653-0.70378-2.7678-0.70378-8.3447 0-11.112 2.1155-8.3197 7.705-14.632 15.463-17.464 11.975-4.3704 25.309 1.1638 30.734 12.756 2.9014 6.2002 2.9014 14.328 0 20.529-3.1428 6.716-9.3489 11.831-16.435 13.546-2.9538 0.71491-7.1776 0.88447-9.9292 0.39861zm6.8943-12.102c2.7888-4.3931 2.7581-4.2734 1.6743-6.5404-0.71056-1.4863-3.6937-4.5088-4.45-4.5088-1.4228 0-5.2737 4.8511-5.2737 6.6435 0 0.37553 0.49382 1.4454 1.0974 2.3774 0.60356 0.93207 1.732 2.6769 2.5076 3.8775 0.77561 1.2006 1.517 2.1828 1.6475 2.1828s1.3891-1.8144 2.7969-4.032zm-10.995-6.2316c0.30019-0.9883 1.0252-2.5387 1.6112-3.4452 1.1604-1.7954 4.0013-4.733 5.6008-5.7915l1.0069-0.66633 1.2969 0.95199c3.1622 2.3213 6.2334 6.4075 6.9382 9.2312 0.17314 0.6937 0.42205 1.3276 0.55314 1.4086 0.2197 0.13578 7.2035-3.3548 7.7372-3.8672 0.27598-0.26494-1.2691-3.6386-2.5106-5.4819-0.46612-0.69208-1.5736-2.1469-2.4612-3.2329-1.6014-1.9596-1.6147-1.9897-1.746-3.9688l-0.13229-1.9942-4.3642-0.1536-2.5208-1.7091c-1.3864-0.94-2.6775-1.7091-2.869-1.7091s-1.409 0.74414-2.7054 1.6536l-2.3572 1.6536-4.7625 0.26458-0.13229 2.1291c-0.13114 2.1105-0.14414 2.1429-1.4875 3.7042-2.623 3.0485-5.3771 7.8178-5.0327 8.7153 0.12241 0.31901 7.0643 4.0462 7.619 4.0907 0.095 8e-3 0.41827-0.79476 0.71846-1.7831z" style="fill:#050704;stroke-width:.26458" inkscape:connector-curvature="0"/>
   <path d="m-126.28 196.74c-0.96338-1.3106-3.5722-5.3886-4.0396-6.3146-0.2204-0.43662-0.40073-0.99907-0.40073-1.2499 0-0.56531 0.84739-2.2726 1.6678-3.3602 0.87218-1.1562 2.4032-2.675 2.9654-2.9418 0.43661-0.20718 0.52422-0.21007 0.89866-0.0296 1.1221 0.5407 3.3793 3.0557 4.1742 4.6509 0.62198 1.2482 0.64868 1.8963 0.12072 2.931-0.67418 1.3212-4.4939 7.2163-4.6758 7.2163-0.0262 0-0.34601-0.40592-0.71069-0.90204z" style="fill:#62d05d;stroke-linecap:round;stroke-linejoin:round;stroke-width:.2;stroke:#62d05d" inkscape:connector-curvature="0"/>
   <g style="fill:#62d05d">
    <path d="m-82.201 170.45-0.73653-1.6688h-3.5521l-0.72721 1.6688h-0.79247l2.9275-6.5262h0.77382l2.9182 6.5262zm-3.981-2.3588h2.9461l-1.4824-3.3564z" style="fill:#62d05d;stroke-width:.33902px"/>
    <path d="m-77.793 165.51q0.68992 0 1.2213 0.31699 0.54074 0.31699 0.83909 0.8857 0.29834 0.55939 0.29834 1.2866 0 0.71789-0.29834 1.2866-0.28902 0.55939-0.82044 0.87638-0.53142 0.30767-1.2213 0.30767-0.65262 0-1.1468-0.2797-0.48481-0.28902-0.7645-0.80179v2.8622h-0.72721v-6.7127h0.72721v1.0535q0.2797-0.51277 0.7645-0.79247 0.49413-0.28902 1.1281-0.28902zm-0.13052 4.3166q0.50345 0 0.90435-0.23308 0.4009-0.24241 0.62465-0.66195 0.22376-0.41954 0.22376-0.95096 0-0.5221-0.22376-0.94165-0.22376-0.42886-0.62465-0.66194-0.4009-0.24241-0.90435-0.24241-0.51278 0-0.91367 0.24241-0.4009 0.23308-0.62465 0.65262t-0.22376 0.95097q0 0.53142 0.22376 0.95096t0.62465 0.66195q0.4009 0.23308 0.91367 0.23308z" style="fill:#62d05d;stroke-width:.33902px"/>
    <path d="m-71.111 170.45v-0.7645q-0.58736 0.79247-1.7994 0.79247-0.49413 0-0.87638-0.19579t-0.58736-0.53142q-0.20511-0.33564-0.20511-0.75518 0-0.6433 0.48481-1.0162 0.48481-0.38225 1.3519-0.39157h1.6129v-0.30767q0-0.55006-0.33563-0.84841-0.33564-0.30766-0.97894-0.30766-0.75518 0-1.557 0.56871l-0.30766-0.51277q0.5221-0.34496 0.96029-0.50346 0.44751-0.15849 1.0442-0.15849 0.90435 0 1.3892 0.44751 0.49413 0.44752 0.50345 1.24l0.0093 3.2445zm-1.6595-0.57804q0.62465 0 1.0628-0.28902 0.44751-0.29834 0.58736-0.82044v-0.59668h-1.529q-1.2493 0-1.2493 0.80179 0 0.41022 0.30766 0.66195 0.30766 0.2424 0.82044 0.2424z" style="fill:#62d05d;stroke-width:.33902px"/>
    <path d="m-65.357 166.74q-0.59668-0.57804-1.4637-0.57804-0.50345 0-0.90435 0.23308-0.39157 0.23308-0.61533 0.65263-0.22376 0.41022-0.22376 0.94164 0 0.54074 0.22376 0.96029 0.22376 0.41022 0.61533 0.6433 0.4009 0.23308 0.90435 0.23308 0.48481 0 0.86706-0.1585 0.39157-0.16782 0.65262-0.47548l0.41954 0.42887q-0.33563 0.40089-0.83909 0.62465-0.50345 0.22376-1.1281 0.22376-0.70856 0-1.2586-0.30767-0.55007-0.31699-0.86706-0.87638-0.30766-0.56871-0.30766-1.2959 0-0.71789 0.30766-1.2773 0.31699-0.56871 0.86706-0.8857 0.55939-0.31699 1.2586-0.31699 0.58736 0 1.0628 0.19579 0.48481 0.18646 0.82976 0.53142z" style="fill:#62d05d;stroke-width:.33902px"/>
    <path d="m-60.877 165.51q0.87638 0 1.3705 0.51278 0.49413 0.50345 0.49413 1.3985v3.0207h-0.72721v-2.8342q0-0.65263-0.37293-1.0256-0.3636-0.37293-1.0162-0.37293-0.77382 9e-3 -1.2213 0.51278-0.43819 0.49412-0.43819 1.3146v2.4054h-0.72721v-6.9178h0.72721v3.114q0.48481-1.1095 1.9113-1.1281z" style="fill:#62d05d;stroke-width:.33902px"/>
    <path d="m-55.449 165.51q1.1654 0 1.7528 0.74586 0.59668 0.73653 0.54074 2.0045h-4.009q0.09323 0.72721 0.57804 1.1654 0.48481 0.43819 1.2027 0.43819 0.44751 0 0.83909-0.1585 0.39157-0.16781 0.68059-0.46615l0.4009 0.41954q-0.35428 0.39157-0.86706 0.60601-0.50345 0.20511-1.1095 0.20511-0.71789 0-1.2773-0.30767-0.55007-0.31699-0.85773-0.87638-0.30766-0.56871-0.30766-1.2959 0-0.71789 0.30766-1.2773 0.30766-0.56871 0.85773-0.8857 0.55939-0.31699 1.268-0.31699zm1.6409 2.1723q-0.03729-0.71788-0.4848-1.1374-0.43819-0.42886-1.1561-0.42886-0.70856 0-1.1747 0.42886-0.46616 0.41955-0.54074 1.1374z" style="fill:#62d05d;stroke-width:.33902px"/>
   </g>
   <path transform="matrix(.26458 0 0 .26458 -150.02 157.06)" d="m91.78 37.757c-1.8635 0.84883-3.5702 2.001-5.3018 3.0854-4.5204 2.9366-8.8337 6.186-13.329 9.1542-0.36945 0.24966-0.85966 0.10146-1.2805 0.18523-5.5815 0.34077-11.167 0.61846-16.749 0.94335-0.14052 0.4702-0.07812 1.0299-0.14454 1.5325-0.26678 3.7937-0.41095 7.6007-0.80329 11.382-0.19873 1.7246-0.71931 3.4401-1.7609 4.846-1.8342 2.5644-4.0264 4.8448-5.9592 7.3327-3.964 4.9778-7.5438 10.259-10.782 15.735-1.9596 3.398-3.8718 6.8543-5.217 10.549-0.33609 1.0467-0.71847 2.1416-0.61555 3.2559 0.11785 0.69721 0.87143 0.97597 1.3677 1.3656 3.8881 2.4734 7.9525 4.6551 11.998 6.8563 4.4934 2.3962 9.0042 4.7688 13.622 6.9186 0.60657 0.23316 1.1922 0.58592 1.8415 0.67438 0.42079-0.0878 0.52041-0.61227 0.71866-0.93211 1.473-3.3562 2.3023-6.9541 3.7861-10.306 1.7845-4.1137 3.863-8.142 6.6568-11.67 3.7155-4.7702 7.8752-9.1907 12.291-13.319 2.341-2.1742 4.7951-4.242 7.4877-5.9709 0.97549-0.6382 1.9323-1.3132 2.9473-1.8861 3.4607 2.508 6.9693 4.9736 10.128 7.8641 5.735 5.2027 10.802 11.156 14.965 17.686 2.1333 3.4142 4.0796 6.9842 5.36 10.811 0.76672 2.3122 1.2035 4.7578 2.3445 6.9304 0.1607 0.23465 0.37725 0.66823 0.71434 0.4408 2.536-0.86133 4.9344-2.0734 7.3613-3.1953 6.206-2.9837 12.366-6.0721 18.388-9.4135 1.1136-0.65348 2.2779-1.2468 3.2758-2.0752 0.0329-1.5039-0.60675-2.9309-1.1044-4.3266-1.8248-4.5773-4.0646-8.9836-6.5451-13.238-2.3934-4.0839-5.346-7.7996-8.2353-11.537-2.1669-2.8141-4.4991-5.4981-6.6233-8.3451-1.208-1.6113-2.2102-3.4355-2.4995-5.4539-0.41718-2.7242-0.47367-5.4941-0.69032-8.242-0.0995-1.4014-0.17128-2.8062-0.30905-4.2041-0.33388-0.13585-0.75992-0.04974-1.1234-0.10335-5.1272-0.21055-10.257-0.3499-15.384-0.56548-4.7973-3.2302-9.5395-6.5449-14.418-9.6527-1.7974-1.0917-3.5698-2.2509-5.492-3.1142-0.31109-0.18098-0.5763-0.17816-0.88746 7.4e-4z" style="fill:#62d05d" inkscape:connector-curvature="0"/>
  </g>
  <path d="m-51.265 139.7c-0.073-0.19033-0.10168-5.6443-0.06373-12.12l0.069-11.774h2.3812l0.03655 5.7592c1.8312-2.4805 4.448-5.7428 9.0516-5.9948l1.4952-0.029v2.3574c-5.1068-8e-3 -8.555 3.1993-9.9308 6.783-0.49505 1.3297-0.38539 2.7217-0.51095 8.5867l-0.14161 6.6146-1.1269 0.0815c-0.7466 0.054-1.1717-0.0353-1.2596-0.26458z" style="fill:#62d05d;stroke-width:.26458" inkscape:connector-curvature="0" sodipodi:nodetypes="cscccccccccscccc"/>
  <path d="m-26.048 114.57a12.804 12.707 0 0 0-12.804 12.707 12.804 12.707 0 0 0 12.804 12.707 12.804 12.707 0 0 0 10.573-5.5614l-1.941-1.3565a10.442 10.362 0 0 1-8.6413 4.548 10.442 10.362 0 0 1-10.442-10.362 10.442 10.362 0 0 1 10.442-10.362 10.442 10.362 0 0 1 7.8192 3.5145l1.8764-1.4268a12.804 12.707 0 0 0-9.6862-4.407z" style="fill:#62d05d" inkscape:connector-curvature="0"/>
  <g style="fill:#62d05d">
   <path d="m-15.509 113.7v2.08h-0.4153v-2.08h-0.74613v-0.3801h1.9076v0.3801z" style="fill:#62d05d;stroke-width:.12798px"/>
   <path d="m-13.899 115.78h-0.4153v-2.4601h0.64758l0.74261 1.545 0.74261-1.545h0.64406v2.4601h-0.4153v-1.9216l-0.85875 1.7069h-0.23228l-0.85523-1.7069z" style="fill:#62d05d;stroke-width:.12798px"/>
  </g>
 </g>
</svg>
