<?xml version="1.0" encoding="UTF-8" standalone="no"?>
<!DOCTYPE svg PUBLIC "-//W3C//DTD SVG 1.1//EN" "http://www.w3.org/Graphics/SVG/1.1/DTD/svg11.dtd">
<!-- Created with Vectornator (http://vectornator.io/) -->
<svg height="100%" stroke-miterlimit="10" style="fill-rule:nonzero;clip-rule:evenodd;stroke-linecap:round;stroke-linejoin:round;" version="1.1" viewBox="0 0 235 214" width="100%" xml:space="preserve" xmlns="http://www.w3.org/2000/svg" xmlns:vectornator="http://vectornator.io" xmlns:xlink="http://www.w3.org/1999/xlink">
<defs/>
<g id="Layer-1" vectornator:layerName="Layer 1">
<path d="M55.028 28.1902C55.028 12.9213 67.4059 0.543438 82.6748 0.543438C97.9437 0.543438 110.322 12.9213 110.322 28.1902C110.322 43.4592 97.9437 55.8371 82.6748 55.8371C67.4059 55.8371 55.028 43.4592 55.028 28.1902Z" fill="#003e7e" fill-rule="nonzero" opacity="1" stroke="none"/>
<path d="M135.985 35.041C135.985 19.7721 148.363 7.39416 163.632 7.39416C178.901 7.39416 191.279 19.7721 191.279 35.041C191.279 50.3099 178.901 62.6878 163.632 62.6878C148.363 62.6878 135.985 50.3099 135.985 35.041Z" fill="#003e7e" fill-rule="nonzero" opacity="1" stroke="none"/>
<path d="M177.478 98.332C177.478 83.0631 189.856 70.6852 205.125 70.6852C220.394 70.6852 232.772 83.0631 232.772 98.332C232.772 113.601 220.394 125.979 205.125 125.979C189.856 125.979 177.478 113.601 177.478 98.332Z" fill="#003e7e" fill-rule="nonzero" opacity="1" stroke="none"/>
<path d="M138.878 184.419C138.878 168.702 151.62 155.96 167.337 155.96C183.054 155.96 195.796 168.702 195.796 184.419C195.796 200.136 183.054 212.878 167.337 212.878C151.62 212.878 138.878 200.136 138.878 184.419Z" fill="#003e7e" fill-rule="nonzero" opacity="1" stroke="none"/>
<path d="M24.8536 175.749C24.8536 159.57 37.9692 146.454 54.1481 146.454C70.327 146.454 83.4426 159.57 83.4426 175.749C83.4426 191.928 70.327 205.043 54.1481 205.043C37.9692 205.043 24.8536 191.928 24.8536 175.749Z" fill="#003e7e" fill-rule="nonzero" opacity="1" stroke="none"/>
<path d="M0.738586 90.074C0.738586 73.8951 13.8542 60.7795 30.0331 60.7795C46.212 60.7795 59.3276 73.8951 59.3276 90.074C59.3276 106.253 46.212 119.369 30.0331 119.369C13.8542 119.369 0.738586 106.253 0.738586 90.074Z" fill="#003e7e" fill-rule="nonzero" opacity="1" stroke="none"/>
<path d="M90.299 52.8761L93.5809 51.4423L109.861 88.7066L106.579 90.1404L90.299 52.8761Z" fill="#003e7e" fill-rule="nonzero" opacity="1" stroke="none"/>
<path d="M54.1833 98.7328L54.9116 95.2262L94.7273 103.496L93.999 107.002L54.1833 98.7328Z" fill="#003e7e" fill-rule="nonzero" opacity="1" stroke="none"/>
<path d="M73.4238 157.702L70.8543 155.207L99.1822 126.032L101.752 128.527L73.4238 157.702Z" fill="#003e7e" fill-rule="nonzero" opacity="1" stroke="none"/>
<path d="M152.824 164.411L149.82 166.361L127.68 132.251L130.684 130.301L152.824 164.411Z" fill="#003e7e" fill-rule="nonzero" opacity="1" stroke="none"/>
<path d="M178.5 99.7407L178.941 103.295L138.586 108.308L138.144 104.754L178.5 99.7407Z" fill="#003e7e" fill-rule="nonzero" opacity="1" stroke="none"/>
<path d="M149.147 56.2607L152.164 58.1907L130.249 92.4456L127.232 90.5156L149.147 56.2607Z" fill="#003e7e" fill-rule="nonzero" opacity="1" stroke="none"/>
<path d="M89.4098 111.012C89.4098 95.7429 101.788 83.365 117.057 83.365C132.326 83.365 144.703 95.7429 144.703 111.012C144.703 126.281 132.326 138.659 117.057 138.659C101.788 138.659 89.4098 126.281 89.4098 111.012Z" fill="#ad1f2b" fill-rule="nonzero" opacity="1" stroke="none"/>
</g>
</svg>
