<?xml version="1.0" encoding="UTF-8"?>
<svg width="32px" height="32px" viewBox="0 0 32 32" version="1.1" xmlns="http://www.w3.org/2000/svg" xmlns:xlink="http://www.w3.org/1999/xlink">
    <title>aspdotnetcore</title>
    <g id="aspdotnetcore" stroke="none" stroke-width="1" fill="none" fill-rule="evenodd">
        <g id="Group" transform="translate(0.008358, 0.142088)" fill="#633BA3" fill-rule="nonzero">
            <g id="ICONS">
                <path d="M15.8971487,0 C24.6769014,0 31.7942973,7.11739589 31.7942973,15.8971487 C31.7942973,24.6769014 24.6769014,31.7942973 15.8971487,31.7942973 C7.11739589,31.7942973 0,24.6769014 0,15.8971487 C0,7.11739589 7.11739589,0 15.8971487,0 Z M12.3076271,22.3844756 C11.7357637,22.366178 11.1825095,22.5889167 10.7828484,22.9983475 C10.3730455,23.4331085 10.1569245,24.0153852 10.1838282,24.6122366 C10.1630767,25.1578406 10.3547364,25.6902288 10.7184909,26.0974107 C11.0878158,26.4832263 11.6057562,26.6907634 12.1393074,26.6667274 C12.5361859,26.6805116 12.9304335,26.5972438 13.287842,26.424149 L13.287842,26.424149 L13.2927925,25.963745 C12.964114,26.1549381 12.5887278,26.2509272 12.2086155,26.2409775 C11.79565,26.2576931 11.3959971,26.0931301 11.1145373,25.7904747 C10.824578,25.4549999 10.6755716,25.0203979 10.6986885,24.5775826 L10.6985716,24.4029167 C10.717981,23.9972741 10.8740878,23.6081018 11.1442408,23.3003329 C11.4413453,22.9736363 11.8662121,22.7928419 12.3076271,22.8052749 C12.6536242,22.7998574 12.9950009,22.8852016 13.2977431,23.0528039 L13.2977431,23.0528039 L13.2977431,22.5577459 C12.9833016,22.4319162 12.6461131,22.3729082 12.3076271,22.3844756 Z M15.5268862,23.5331839 L15.3819374,23.5330102 C14.9715867,23.5145737 14.5719254,23.6669109 14.277958,23.9538095 C13.9901009,24.2725396 13.8420879,24.6933959 13.8670598,25.1221464 C13.8469021,25.5272916 13.987448,25.9240226 14.2581557,26.2261258 C14.5291731,26.518885 14.9138915,26.6796359 15.3126292,26.6667274 C15.7190145,26.6789498 16.1107938,26.5146553 16.3869051,26.2162246 C16.6646712,25.9039251 16.8086741,25.495028 16.7879021,25.0775912 C16.8124605,24.6662754 16.6797303,24.2610058 16.4166086,23.9439083 C16.1482589,23.662437 15.77028,23.5123305 15.3819374,23.5330102 Z M20.9057001,23.5529449 L20.7780697,23.5528125 C20.3993815,23.5421087 20.0359052,23.7020383 19.7879537,23.9884635 C19.5189017,24.3013449 19.3790647,24.7049251 19.3968579,25.1171958 C19.3716969,25.5284553 19.500526,25.9343551 19.7582502,26.2558293 C20.0113716,26.5318341 20.3743438,26.6806527 20.7483662,26.6617768 C21.1144951,26.6801944 21.4769538,26.581342 21.7830375,26.3795938 L21.7830375,26.3795938 L21.7830375,25.9340415 C21.5223947,26.1454687 21.1978259,26.2623833 20.8622296,26.2657304 C20.6005329,26.2807411 20.3448425,26.1835067 20.1592472,25.9983991 C19.9827883,25.7847409 19.8927164,25.512759 19.9067676,25.2360097 L19.9067676,25.2360097 L22.000863,25.2360097 L21.9959124,24.9785796 C22.0194572,24.602077 21.9070226,24.2296371 21.6790753,23.9290566 C21.4521964,23.6722928 21.1201725,23.5336455 20.7780697,23.5528125 Z M18.81764,23.5775654 C18.6466892,23.577241 18.4813951,23.6387867 18.3522855,23.7508357 C18.2030721,23.8825931 18.0948221,24.0544186 18.0403989,24.2458937 L18.0403989,24.2458937 L18.0403989,23.6270712 L17.5453409,23.6270712 L17.5453409,26.5974193 L18.0403989,26.5974193 L18.0403989,25.0825418 C18.0250765,24.8070485 18.0960264,24.5336319 18.2433727,24.3003501 C18.3503312,24.128223 18.5359126,24.0205858 18.7384307,24.0132164 C18.8659416,24.0041849 18.992895,24.0372276 19.0998231,24.1072775 L19.0998231,24.1072775 L19.0998231,23.61717 C19.0090064,23.5866918 18.9133379,23.5732647 18.81764,23.5775654 Z M15.3472833,23.9587601 C15.6183112,23.9445376 15.8803418,24.0581453 16.0552163,24.265696 C16.2347909,24.5137181 16.3223195,24.8165669 16.3027453,25.1221464 C16.3228343,25.4262456 16.2352,25.7277077 16.0552163,25.9736462 C15.8779281,26.1768871 15.6165146,26.2865711 15.3472833,26.270681 C15.0724902,26.282084 14.8071196,26.1693924 14.6244986,25.963745 C14.435175,25.7293421 14.3398778,25.4328618 14.3571673,25.1320476 C14.3390162,24.8220139 14.4340079,24.5159294 14.6244986,24.2706466 C14.8053112,24.0619734 15.0714159,23.9471474 15.3472833,23.9587601 Z M20.763218,23.9686612 C20.9699852,23.9574595 21.1705419,24.0413287 21.3077818,24.1963879 C21.4458439,24.3798613 21.5158454,24.6056161 21.505805,24.8350128 L21.505805,24.8350128 L19.901817,24.8399633 C19.9284509,24.6042678 20.0309605,24.3836115 20.1939013,24.2112397 C20.3412088,24.0540489 20.547808,23.9660197 20.763218,23.9686612 Z M7.31660741,19.5036784 C7.17771437,19.50112 7.04418448,19.5572633 6.94885003,19.6583037 C6.85038953,19.7567847 6.79609995,19.8910006 6.79840383,20.0302402 C6.7962717,20.1682189 6.85062201,20.3010752 6.94885003,20.3979975 C7.04418448,20.499038 7.17771437,20.5551812 7.31660741,20.5526228 C7.60579518,20.5526319 7.84087398,20.3194188 7.84316912,20.0302402 C7.84486194,19.8902935 7.78895077,19.7558044 7.68854386,19.6583037 C7.59132935,19.5574766 7.45665015,19.5014863 7.31660741,19.5036784 Z M9.66523979,13.7741856 L8.64972793,13.7741856 L8.64972793,20.4606835 L9.43121236,20.4606835 L9.43121236,15.6255097 C9.43904847,15.3199412 9.42648337,15.0141904 9.39360081,14.7102953 L9.39360081,14.7102953 L9.42285424,14.7102953 C9.47884638,14.8567751 9.5502941,14.9968687 9.63598636,15.1282014 L9.63598636,15.1282014 L13.0711746,20.4606835 L14.0323587,20.4606835 L14.0156425,13.7741856 L13.234158,13.7741856 L13.2342866,18.8077912 C13.2394427,19.0263562 13.2547341,19.2446234 13.2801277,19.4618878 L13.2801277,19.4618878 L13.2492026,19.4052198 C13.2001683,19.3187411 13.1199303,19.1885772 13.0084887,19.0147283 L13.0084887,19.0147283 L9.66523979,13.7741856 Z M18.5039541,13.7741856 L15.1147355,13.7741856 L15.1147355,20.4606835 L18.6544003,20.4606835 L18.6544003,19.7377059 L15.89622,19.7377059 L15.89622,17.4016107 L18.3075383,17.4016107 L18.3075383,16.6995284 L15.89622,16.6995284 L15.89622,14.4804469 L18.5039541,14.4804469 L18.5039541,13.7741856 Z M23.890764,13.7741856 L19.2561852,13.7741856 L19.2561852,14.4804469 L21.1785533,14.4804469 L21.1785533,20.4606835 L21.9600377,20.4606835 L21.9600377,14.4804469 L23.8865849,14.4804469 L23.890764,13.7741856 Z M17.9469528,5.06765775 L17.7015744,5.07338025 C17.4195578,5.07502561 17.1388257,5.11152079 16.8657622,5.18203584 C16.601053,5.24754317 16.3494778,5.35778398 16.1218893,5.50800261 C15.9066916,5.65118516 15.7266773,5.84120024 15.5953276,6.06381775 C15.3576134,6.5097096 15.3315574,7.0384919 15.5242835,7.50559385 C15.612033,7.68401141 15.7309091,7.84534325 15.8753247,7.98200682 C16.0333706,8.14201088 16.2101728,8.28233005 16.4018864,8.39991294 C16.6024813,8.52249873 16.8197925,8.64229848 17.0538199,8.7593122 L17.0538199,8.7593122 L17.6681419,9.0602046 C17.8430592,9.15101806 18.0094932,9.25731206 18.1654502,9.37781325 C18.2969341,9.47765782 18.4088579,9.60091569 18.495596,9.74139157 C18.7265839,10.1624324 18.6267021,10.6881261 18.2573895,10.9951099 C17.9354866,11.196439 17.5578688,11.2901117 17.1791918,11.2625698 C17.0264525,11.2613733 16.8740814,11.2473943 16.7236741,11.2207792 C16.556805,11.1931482 16.3920383,11.1540511 16.2305449,11.1037655 C16.071061,11.0538037 15.9159207,10.990909 15.7666691,10.9157078 C15.6297811,10.8485967 15.5019898,10.7643387 15.3863745,10.6649641 L15.3863745,10.6649641 L15.3863745,11.5843575 C15.4910445,11.6473222 15.6034182,11.6964857 15.7206994,11.7306247 C15.8712227,11.7806757 16.0247616,11.8211541 16.1803961,11.8518175 C16.3419865,11.8852499 16.5007908,11.9103243 16.6568091,11.9270406 C16.7872027,11.9425025 16.9183396,11.9508729 17.0496409,11.9521307 C17.3531308,11.9529475 17.6558084,11.920718 17.9523181,11.8559965 C18.2210913,11.7995356 18.4773828,11.6947534 18.7087281,11.546746 C18.9256432,11.4069265 19.1049991,11.2160919 19.2311108,10.9909309 C19.366785,10.7337853 19.4330447,10.4456996 19.4233476,10.1551186 C19.4273818,9.92702431 19.3787592,9.70107221 19.2812595,9.49482696 C19.1840182,9.2986953 19.0539907,9.12061405 18.8967859,8.96826525 C18.7252254,8.80797025 18.5359448,8.66776242 18.3326126,8.55035914 C18.1125154,8.41662918 17.8854531,8.29265037 17.6514257,8.17842269 C17.4173982,8.06419502 17.2112312,7.95832547 17.0329246,7.86081405 C16.8718073,7.77694177 16.719247,7.67756766 16.577407,7.5641007 C16.4618334,7.47167674 16.3665231,7.35645081 16.2974099,7.22559675 C16.2302023,7.08781854 16.1972298,6.93585855 16.2012914,6.78261627 C16.1967749,6.61905247 16.2403673,6.45776035 16.3266633,6.31874048 C16.4102688,6.19099959 16.52171,6.08384463 16.6526301,6.00531089 C16.7933887,5.92133725 16.9474355,5.86197976 17.1081477,5.82979032 C17.2771319,5.79384308 17.449407,5.77563514 17.6221722,5.77546253 C18.1588063,5.75524256 18.6885974,5.90119053 19.1391714,6.19336864 L19.1391714,6.19336864 L19.1391714,5.31158674 C18.6840477,5.12485908 18.1926016,5.0434276 17.7015744,5.07338025 Z M12.1434231,5.16949866 L11.3326852,5.16949866 L8.7709207,11.8559965 L9.64434448,11.8559965 L10.3088152,9.98377712 L13.1255024,9.98377712 L13.84848,11.8559965 L14.7135457,11.8559965 L12.1434231,5.16949866 Z M22.4196974,5.14757259 L22.2191395,5.15278241 L20.3845317,5.15278241 L20.3845317,11.8392803 L21.1660161,11.8392803 L21.1660161,9.33184358 L22.0561561,9.30676921 C22.7014712,9.34010362 23.334743,9.12302463 23.823899,8.70080534 C24.2586352,8.30292872 24.498226,7.73523584 24.4800116,7.14619459 C24.5127905,6.59251479 24.2967189,6.05310207 23.890764,5.67516506 C23.4183293,5.29842018 22.8220277,5.11207592 22.2191395,5.15278241 Z M11.729696,5.98859465 L11.7561195,6.13954869 C11.7765542,6.23962977 11.8026086,6.3385223 11.8341725,6.43575419 L11.8341725,6.43575419 L12.8831169,9.28169484 L10.5804542,9.28169484 L11.6210404,6.43575419 C11.6707317,6.29030076 11.7070998,6.14063191 11.729696,5.98859465 L11.729696,5.98859465 Z M22.1104839,5.88411812 C23.1524632,5.88411812 23.6734528,6.32431256 23.6734528,7.20470144 C23.6981114,7.59804311 23.544673,7.98163903 23.2555467,8.24946673 C22.8976958,8.52359258 22.451276,8.65603047 22.0018283,8.62140318 L22.0018283,8.62140318 L21.1660161,8.62140318 L21.1660161,5.88411812 Z" id="Oval-2"></path>
            </g>
        </g>
    </g>
</svg>