<?xml version="1.0" encoding="UTF-8" standalone="no"?>
<!DOCTYPE svg PUBLIC "-//W3C//DTD SVG 1.1//EN" "http://www.w3.org/Graphics/SVG/1.1/DTD/svg11.dtd">
<!-- Created with Vectornator (http://vectornator.io/) -->
<svg height="100%" stroke-miterlimit="10" style="fill-rule:nonzero;clip-rule:evenodd;stroke-linecap:round;stroke-linejoin:round;" version="1.1" viewBox="0 0 64 64" width="100%" xml:space="preserve" xmlns="http://www.w3.org/2000/svg" xmlns:vectornator="http://vectornator.io" xmlns:xlink="http://www.w3.org/1999/xlink">
<defs/>
<g id="Layer-1" vectornator:layerName="Layer 1">
<g fill="#000000" opacity="1" stroke="none" vectornator:layerName="Text 1">
<path d="M14.0483 25.082L14.1802 27.877L13.8462 27.877C13.7817 27.3848 13.6938 27.0332 13.5825 26.8223C13.4009 26.4824 13.1592 26.2319 12.8574 26.0708C12.5557 25.9097 12.1587 25.8291 11.6665 25.8291L9.98779 25.8291L9.98779 34.9346C9.98779 35.667 10.0669 36.124 10.2251 36.3057C10.4478 36.5518 10.7905 36.6748 11.2534 36.6748L11.6665 36.6748L11.6665 37L6.61279 37L6.61279 36.6748L7.03467 36.6748C7.53857 36.6748 7.896 36.5225 8.10693 36.2178C8.23584 36.0303 8.30029 35.6025 8.30029 34.9346L8.30029 25.8291L6.86768 25.8291C6.31104 25.8291 5.91553 25.8701 5.68115 25.9521C5.37646 26.0635 5.11572 26.2773 4.89893 26.5938C4.68213 26.9102 4.55322 27.3379 4.51221 27.877L4.17822 27.877L4.31885 25.082L14.0483 25.082Z"/>
<path d="M15.2876 31.9814C15.2817 33.1768 15.5718 34.1143 16.1577 34.7939C16.7437 35.4736 17.4321 35.8135 18.2231 35.8135C18.7505 35.8135 19.209 35.6685 19.5986 35.3784C19.9883 35.0884 20.3149 34.5918 20.5786 33.8887L20.8511 34.0645C20.728 34.8672 20.3706 35.5981 19.7788 36.2573C19.187 36.9165 18.4458 37.2461 17.5552 37.2461C16.5884 37.2461 15.7607 36.8696 15.0723 36.1167C14.3838 35.3638 14.0396 34.3516 14.0396 33.0801C14.0396 31.7031 14.3926 30.6294 15.0986 29.8589C15.8047 29.0884 16.6909 28.7031 17.7573 28.7031C18.6597 28.7031 19.4009 29.0005 19.981 29.5952C20.561 30.1899 20.8511 30.9854 20.8511 31.9814L15.2876 31.9814ZM15.2876 31.4717L19.0142 31.4717C18.9849 30.9561 18.9233 30.5928 18.8296 30.3818C18.6831 30.0537 18.4648 29.7959 18.1748 29.6084C17.8848 29.4209 17.5815 29.3271 17.2651 29.3271C16.7788 29.3271 16.3438 29.5161 15.96 29.894C15.5762 30.272 15.3521 30.7979 15.2876 31.4717Z"/>
<path d="M27.6099 36.0947C27.2173 36.5049 26.8335 36.7993 26.4585 36.978C26.0835 37.1567 25.6792 37.2461 25.2456 37.2461C24.3667 37.2461 23.5991 36.8784 22.9429 36.1431C22.2866 35.4077 21.9585 34.4629 21.9585 33.3086C21.9585 32.1543 22.3218 31.0981 23.0483 30.1401C23.7749 29.1821 24.7095 28.7031 25.8521 28.7031C26.561 28.7031 27.147 28.9287 27.6099 29.3799L27.6099 27.8945C27.6099 26.9746 27.5879 26.4092 27.5439 26.1982C27.5 25.9873 27.4312 25.8438 27.3374 25.7676C27.2437 25.6914 27.1265 25.6533 26.9858 25.6533C26.8335 25.6533 26.6313 25.7002 26.3794 25.7939L26.2651 25.4863L28.6646 24.502L29.0601 24.502L29.0601 33.8096C29.0601 34.7529 29.082 35.3286 29.126 35.5366C29.1699 35.7446 29.2402 35.8896 29.3369 35.9717C29.4336 36.0537 29.5464 36.0947 29.6753 36.0947C29.8335 36.0947 30.0444 36.0449 30.3081 35.9453L30.4048 36.2529L28.0142 37.2461L27.6099 37.2461L27.6099 36.0947ZM27.6099 35.4795L27.6099 31.3311C27.5747 30.9326 27.4692 30.5693 27.2935 30.2412C27.1177 29.9131 26.8848 29.6655 26.5947 29.4985C26.3047 29.3315 26.022 29.248 25.7466 29.248C25.231 29.248 24.771 29.4795 24.3667 29.9424C23.8335 30.5518 23.5669 31.4424 23.5669 32.6143C23.5669 33.7979 23.8247 34.7046 24.3403 35.3345C24.856 35.9644 25.4302 36.2793 26.063 36.2793C26.5962 36.2793 27.1118 36.0127 27.6099 35.4795Z"/>
<path d="M32.9712 24.502C33.2173 24.502 33.4268 24.5884 33.5996 24.7612C33.7725 24.9341 33.8589 25.1436 33.8589 25.3896C33.8589 25.6357 33.7725 25.8467 33.5996 26.0225C33.4268 26.1982 33.2173 26.2861 32.9712 26.2861C32.7251 26.2861 32.5142 26.1982 32.3384 26.0225C32.1626 25.8467 32.0747 25.6357 32.0747 25.3896C32.0747 25.1436 32.1611 24.9341 32.334 24.7612C32.5068 24.5884 32.7192 24.502 32.9712 24.502ZM33.7007 28.7119L33.7007 35.1807C33.7007 35.6846 33.7373 36.02 33.8105 36.187C33.8838 36.354 33.9922 36.4785 34.1357 36.5605C34.2793 36.6426 34.5415 36.6836 34.9224 36.6836L34.9224 37L31.0112 37L31.0112 36.6836C31.4038 36.6836 31.6675 36.6455 31.8022 36.5693C31.937 36.4932 32.0439 36.3672 32.123 36.1914C32.2021 36.0156 32.2417 35.6787 32.2417 35.1807L32.2417 32.0781C32.2417 31.2051 32.2153 30.6396 32.1626 30.3818C32.1216 30.1943 32.0571 30.064 31.9692 29.9907C31.8813 29.9175 31.7612 29.8809 31.6089 29.8809C31.4448 29.8809 31.2456 29.9248 31.0112 30.0127L30.8882 29.6963L33.314 28.7119L33.7007 28.7119Z"/>
<path d="M39.8618 28.7119C41.0806 28.7119 42.0591 29.1748 42.7974 30.1006C43.4243 30.8916 43.7378 31.7998 43.7378 32.8252C43.7378 33.5459 43.5649 34.2754 43.2192 35.0137C42.8735 35.752 42.3975 36.3086 41.791 36.6836C41.1846 37.0586 40.5093 37.2461 39.7651 37.2461C38.5522 37.2461 37.5884 36.7627 36.8735 35.7959C36.27 34.9814 35.9683 34.0674 35.9683 33.0537C35.9683 32.3154 36.1514 31.5815 36.5176 30.8521C36.8838 30.1226 37.3657 29.5835 37.9634 29.2349C38.561 28.8862 39.1938 28.7119 39.8618 28.7119ZM39.5894 29.2832C39.2788 29.2832 38.9668 29.3755 38.6533 29.5601C38.3398 29.7446 38.0864 30.0684 37.8931 30.5313C37.6997 30.9941 37.603 31.5889 37.603 32.3154C37.603 33.4873 37.8359 34.498 38.3018 35.3477C38.7676 36.1973 39.3813 36.6221 40.1431 36.6221C40.7114 36.6221 41.1802 36.3877 41.5493 35.9189C41.9185 35.4502 42.103 34.6445 42.103 33.502C42.103 32.0723 41.7954 30.9473 41.1802 30.127C40.7642 29.5645 40.2339 29.2832 39.5894 29.2832Z"/>
<path d="M51.9819 28.9492L51.9819 33.8271C51.9819 34.7588 52.0039 35.3286 52.0479 35.5366C52.0918 35.7446 52.1621 35.8896 52.2588 35.9717C52.3555 36.0537 52.4683 36.0947 52.5972 36.0947C52.7788 36.0947 52.9839 36.0449 53.2124 35.9453L53.3354 36.2529L50.9272 37.2461L50.5317 37.2461L50.5317 35.541C49.8403 36.291 49.313 36.7627 48.9497 36.9561C48.5864 37.1494 48.2026 37.2461 47.7983 37.2461C47.3472 37.2461 46.9561 37.1157 46.625 36.855C46.2939 36.5942 46.064 36.2588 45.9351 35.8486C45.8062 35.4385 45.7417 34.8584 45.7417 34.1084L45.7417 30.5137C45.7417 30.1328 45.7007 29.8691 45.6187 29.7227C45.5366 29.5762 45.415 29.4634 45.2539 29.3843C45.0928 29.3052 44.8013 29.2686 44.3794 29.2744L44.3794 28.9492L47.2007 28.9492L47.2007 34.3369C47.2007 35.0869 47.3311 35.5791 47.5918 35.8135C47.8525 36.0479 48.1675 36.165 48.5366 36.165C48.7886 36.165 49.0742 36.0859 49.3936 35.9277C49.7129 35.7695 50.0923 35.4678 50.5317 35.0225L50.5317 30.4609C50.5317 30.0039 50.4482 29.6948 50.2812 29.5337C50.1143 29.3726 49.7671 29.2861 49.2397 29.2744L49.2397 28.9492L51.9819 28.9492Z"/>
<path d="M59.1274 28.7119L59.1274 31.4541L58.8374 31.4541C58.6147 30.5928 58.3291 30.0068 57.9805 29.6963C57.6318 29.3857 57.188 29.2305 56.6489 29.2305C56.2388 29.2305 55.9077 29.3389 55.6558 29.5557C55.4038 29.7725 55.2778 30.0127 55.2778 30.2764C55.2778 30.6045 55.3716 30.8857 55.5591 31.1201C55.7407 31.3604 56.1099 31.6152 56.6665 31.8848L57.9497 32.5088C59.1392 33.0889 59.7339 33.8535 59.7339 34.8027C59.7339 35.5352 59.457 36.1255 58.9033 36.5737C58.3496 37.022 57.73 37.2461 57.0444 37.2461C56.5522 37.2461 55.9897 37.1582 55.3569 36.9824C55.1636 36.9238 55.0054 36.8945 54.8823 36.8945C54.7476 36.8945 54.6421 36.9707 54.5659 37.123L54.2759 37.123L54.2759 34.249L54.5659 34.249C54.73 35.0693 55.0435 35.6875 55.5063 36.1035C55.9692 36.5195 56.4878 36.7275 57.062 36.7275C57.4663 36.7275 57.7959 36.6089 58.0508 36.3716C58.3057 36.1343 58.4331 35.8486 58.4331 35.5146C58.4331 35.1104 58.291 34.7705 58.0068 34.4951C57.7227 34.2197 57.1558 33.8711 56.3062 33.4492C55.4565 33.0273 54.8999 32.6465 54.6362 32.3066C54.3726 31.9727 54.2407 31.5508 54.2407 31.041C54.2407 30.3789 54.4678 29.8252 54.9219 29.3799C55.376 28.9346 55.9634 28.7119 56.6841 28.7119C57.0005 28.7119 57.3843 28.7793 57.8354 28.9141C58.1343 29.002 58.3335 29.0459 58.4331 29.0459C58.5269 29.0459 58.6001 29.0254 58.6528 28.9844C58.7056 28.9434 58.7671 28.8525 58.8374 28.7119L59.1274 28.7119Z"/>
</g>
</g>
</svg>
