<?xml version="1.0" encoding="UTF-8" standalone="no"?>
<!DOCTYPE svg PUBLIC "-//W3C//DTD SVG 1.1//EN" "http://www.w3.org/Graphics/SVG/1.1/DTD/svg11.dtd">
<!-- Created with Vectornator (http://vectornator.io/) -->
<svg height="487.66pt" stroke-miterlimit="10" style="fill-rule:nonzero;clip-rule:evenodd;stroke-linecap:round;stroke-linejoin:round;" version="1.1" viewBox="0 0 487 487.66" width="486.99999999999994pt" xml:space="preserve" xmlns="http://www.w3.org/2000/svg" xmlns:xlink="http://www.w3.org/1999/xlink">
<defs/>
<clipPath id="ArtboardFrame">
<rect height="487.66" width="487" x="0" y="0"/>
</clipPath>
<g clip-path="url(#ArtboardFrame)" id="Untitled">
<g opacity="1">
<path d="M90-1.42109e-14L235.42-1.42109e-14C163.232 14.844 104.85 76.146 90 147.34L90-1.42109e-14" fill="#000000" fill-rule="nonzero" opacity="1" stroke="none"/>
<path d="M391.67 7.10543e-15L391.67 79.115C380.784 41.511 349.17 10.886 311.566 7.10543e-15L391.67 7.10543e-15" fill="#000000" fill-rule="nonzero" opacity="1" stroke="none"/>
<path d="M282.86 108.39L282.86 13.859C332.339 14.8486 375.881 58.911 376.818 108.39L282.86 108.39" fill="#000000" fill-rule="nonzero" opacity="1" stroke="none"/>
<path d="M282.86 116.72L294.735 116.72C289.787 119.689 285.829 123.647 282.86 128.543L282.86 116.72" fill="#000000" fill-rule="nonzero" opacity="1" stroke="none"/>
<path d="M282.86 183.96L294.735 183.96C289.787 180.991 285.829 177.033 282.86 172.085L282.86 183.96" fill="#000000" fill-rule="nonzero" opacity="1" stroke="none"/>
<path d="M321.51 116.72L376.822 116.72C372.864 144.376 350.208 168.126 321.51 170.105L321.51 116.72" fill="#000000" fill-rule="nonzero" opacity="1" stroke="none"/>
<path d="M312.4 129.58L312.4 170.101C303.285 170.101 294.744 160.309 294.744 151.143C294.744 133.383 312.4 129.581 312.4 129.581" fill="#000000" fill-rule="nonzero" opacity="1" stroke="none"/>
<path d="M273.75 183.96L104.84 183.96C104.84 94.95 183.746 13.86 273.75 13.86L273.75 183.96" fill="#000000" fill-rule="nonzero" opacity="1" stroke="none"/>
<path d="M391.67 183.96L345.212 183.96C365.993 176.043 383.754 157.241 391.67 136.512L391.67 183.96" fill="#000000" fill-rule="nonzero" opacity="1" stroke="none"/>
<path d="M391.67 191.87L391.67 468.54C240.84 469.842 104.85 341.25 104.85 191.87L391.67 191.87" fill="#000000" fill-rule="nonzero" opacity="1" stroke="none"/>
<path d="M90 234.9C126.614 431.72 312.24 489.8 390.68 487.61L90 487.61L90 234.9" fill="#000000" fill-rule="nonzero" opacity="1" stroke="none"/>
</g>
</g>
</svg>
