<?xml version="1.0" encoding="UTF-8" standalone="no"?>
<!DOCTYPE svg PUBLIC "-//W3C//DTD SVG 1.1//EN" "http://www.w3.org/Graphics/SVG/1.1/DTD/svg11.dtd">
<!-- Created with Vectornator (http://vectornator.io/) -->
<svg height="100%" stroke-miterlimit="10" style="fill-rule:nonzero;clip-rule:evenodd;stroke-linecap:round;stroke-linejoin:round;" version="1.1" viewBox="0 0 150 150" width="100%" xml:space="preserve" xmlns="http://www.w3.org/2000/svg" xmlns:vectornator="http://vectornator.io" xmlns:xlink="http://www.w3.org/1999/xlink">
<defs/>
<g id="Layer-2" vectornator:layerName="Layer 2">
<path d="M0 0L0 150L150 150L150 0L0 0ZM14.2188 14.0312L68.6875 14.0312L68.6875 27.3438L14.2188 27.3438L14.2188 14.0312ZM82.25 14.0312L136.719 14.0312L136.719 27.3438L82.25 27.3438L82.25 14.0312ZM14.25 41.3125L68.7188 41.3125L68.7188 54.6562L14.25 54.6562L14.25 41.3125ZM82.2812 41.3125L136.75 41.3125L136.75 54.6562L82.2812 54.6562L82.2812 41.3125ZM14.2812 68.625L68.75 68.625L68.75 81.9375L14.2812 81.9375L14.2812 68.625ZM82.3125 68.625L136.781 68.625L136.781 81.9375L82.3125 81.9375L82.3125 68.625ZM41.4688 91.375C55.0839 91.375 66.0937 102.416 66.0938 116.031C66.0938 129.646 55.0839 140.688 41.4688 140.688C27.8536 140.688 16.8125 129.646 16.8125 116.031C16.8125 102.416 27.8536 91.375 41.4688 91.375ZM82.3125 95.2812L136.781 95.2812L136.781 108.594L82.3125 108.594L82.3125 95.2812Z" fill="#000000" fill-rule="nonzero" opacity="1" stroke="none" vectornator:layerName="Curve 1"/>
</g>
</svg>
